%TF.GenerationSoftware,KiCad,Pcbnew,8.0.2-1*%
%TF.CreationDate,2024-06-03T17:46:58-04:00*%
%TF.ProjectId,Untitled,556e7469-746c-4656-942e-6b696361645f,rev?*%
%TF.SameCoordinates,Original*%
%TF.FileFunction,Copper,L2,Bot*%
%TF.FilePolarity,Positive*%
%FSLAX46Y46*%
G04 Gerber Fmt 4.6, Leading zero omitted, Abs format (unit mm)*
G04 Created by KiCad (PCBNEW 8.0.2-1) date 2024-06-03 17:46:58*
%MOMM*%
%LPD*%
G01*
G04 APERTURE LIST*
%TA.AperFunction,ComponentPad*%
%ADD10R,3.500000X3.500000*%
%TD*%
%TA.AperFunction,ComponentPad*%
%ADD11C,4.000000*%
%TD*%
%TA.AperFunction,ConnectorPad*%
%ADD12R,2.800000X0.550000*%
%TD*%
%TA.AperFunction,ViaPad*%
%ADD13C,0.800000*%
%TD*%
%TA.AperFunction,Conductor*%
%ADD14C,0.250000*%
%TD*%
%TA.AperFunction,Conductor*%
%ADD15C,0.200000*%
%TD*%
G04 APERTURE END LIST*
D10*
%TO.P,LEDs,1*%
%TO.N,N/C*%
X63000000Y-317400000D03*
D11*
%TO.P,LEDs,2*%
X57975000Y-322425000D03*
X68025000Y-322425000D03*
X57975000Y-312375000D03*
X68025000Y-312375000D03*
%TD*%
D12*
%TO.P,REF\u002A\u002A,2*%
%TO.N,N/C*%
X52400000Y-75800000D03*
%TO.P,REF\u002A\u002A,4*%
X52400000Y-76600000D03*
%TO.P,REF\u002A\u002A,6*%
X52400000Y-77400000D03*
%TO.P,REF\u002A\u002A,8*%
X52400000Y-78200000D03*
%TO.P,REF\u002A\u002A,10*%
X52400000Y-79000000D03*
%TO.P,REF\u002A\u002A,12*%
X52400000Y-79800000D03*
%TO.P,REF\u002A\u002A,14*%
X52400000Y-80600000D03*
%TO.P,REF\u002A\u002A,16*%
X52400000Y-81400000D03*
%TO.P,REF\u002A\u002A,18*%
X52400000Y-82200000D03*
%TO.P,REF\u002A\u002A,20*%
X52400000Y-83000000D03*
%TO.P,REF\u002A\u002A,22*%
X52400000Y-83800000D03*
%TO.P,REF\u002A\u002A,24*%
X52400000Y-84600000D03*
%TO.P,REF\u002A\u002A,26*%
X52400000Y-85400000D03*
%TO.P,REF\u002A\u002A,28*%
X52400000Y-86200000D03*
%TO.P,REF\u002A\u002A,30*%
X52400000Y-87000000D03*
%TO.P,REF\u002A\u002A,32*%
X52400000Y-87800000D03*
%TO.P,REF\u002A\u002A,34*%
X52400000Y-88600000D03*
%TO.P,REF\u002A\u002A,36*%
X52400000Y-89400000D03*
%TO.P,REF\u002A\u002A,38*%
X52400000Y-90200000D03*
%TO.P,REF\u002A\u002A,40*%
X52400000Y-91000000D03*
%TO.P,REF\u002A\u002A,42*%
X52400000Y-91800000D03*
%TO.P,REF\u002A\u002A,44*%
X52400000Y-92600000D03*
%TO.P,REF\u002A\u002A,46*%
X52400000Y-93400000D03*
%TO.P,REF\u002A\u002A,48*%
X52400000Y-94200000D03*
%TO.P,REF\u002A\u002A,50*%
X52400000Y-95000000D03*
%TO.P,REF\u002A\u002A,52*%
X52400000Y-95800000D03*
%TO.P,REF\u002A\u002A,54*%
X52400000Y-96600000D03*
%TO.P,REF\u002A\u002A,56*%
X52400000Y-97400000D03*
%TO.P,REF\u002A\u002A,58*%
X52400000Y-98200000D03*
%TO.P,REF\u002A\u002A,60*%
X52400000Y-99000000D03*
%TO.P,REF\u002A\u002A,62*%
X52400000Y-99800000D03*
%TO.P,REF\u002A\u002A,64*%
X52400000Y-100600000D03*
%TO.P,REF\u002A\u002A,66*%
X52400000Y-104600000D03*
%TO.P,REF\u002A\u002A,68*%
X52400000Y-105400000D03*
%TO.P,REF\u002A\u002A,70*%
X52400000Y-106200000D03*
%TO.P,REF\u002A\u002A,72*%
X52400000Y-107000000D03*
%TO.P,REF\u002A\u002A,74*%
X52400000Y-107800000D03*
%TO.P,REF\u002A\u002A,76*%
X52400000Y-108600000D03*
%TO.P,REF\u002A\u002A,78*%
X52400000Y-109400000D03*
%TO.P,REF\u002A\u002A,80*%
X52400000Y-110200000D03*
%TO.P,REF\u002A\u002A,82*%
X52400000Y-111000000D03*
%TO.P,REF\u002A\u002A,84*%
X52400000Y-111800000D03*
%TO.P,REF\u002A\u002A,86*%
X52400000Y-112600000D03*
%TO.P,REF\u002A\u002A,88*%
X52400000Y-113400000D03*
%TO.P,REF\u002A\u002A,90*%
X52400000Y-114200000D03*
%TO.P,REF\u002A\u002A,92*%
X52400000Y-115000000D03*
%TO.P,REF\u002A\u002A,94*%
X52400000Y-115800000D03*
%TO.P,REF\u002A\u002A,96*%
X52400000Y-116600000D03*
%TO.P,REF\u002A\u002A,98*%
X52400000Y-117400000D03*
%TO.P,REF\u002A\u002A,100*%
X52400000Y-118200000D03*
%TO.P,REF\u002A\u002A,102*%
X52400000Y-119000000D03*
%TO.P,REF\u002A\u002A,104*%
X52400000Y-119800000D03*
%TO.P,REF\u002A\u002A,106*%
X52400000Y-120600000D03*
%TO.P,REF\u002A\u002A,108*%
X52400000Y-121400000D03*
%TO.P,REF\u002A\u002A,110*%
X52400000Y-122200000D03*
%TO.P,REF\u002A\u002A,112*%
X52400000Y-123000000D03*
%TO.P,REF\u002A\u002A,114*%
X52400000Y-123800000D03*
%TO.P,REF\u002A\u002A,116*%
X52400000Y-124600000D03*
%TO.P,REF\u002A\u002A,118*%
X52400000Y-125400000D03*
%TO.P,REF\u002A\u002A,120*%
X52400000Y-126200000D03*
%TO.P,REF\u002A\u002A,122*%
X52400000Y-127000000D03*
%TO.P,REF\u002A\u002A,124*%
X52400000Y-127800000D03*
%TO.P,REF\u002A\u002A,126*%
X52400000Y-128600000D03*
%TO.P,REF\u002A\u002A,128*%
X52400000Y-129400000D03*
%TO.P,REF\u002A\u002A,130*%
X52400000Y-130200000D03*
%TO.P,REF\u002A\u002A,132*%
X52400000Y-131000000D03*
%TO.P,REF\u002A\u002A,134*%
X52400000Y-131800000D03*
%TO.P,REF\u002A\u002A,136*%
X52400000Y-132600000D03*
%TO.P,REF\u002A\u002A,138*%
X52400000Y-133400000D03*
%TO.P,REF\u002A\u002A,140*%
X52400000Y-134200000D03*
%TD*%
D13*
%TO.N,*%
X67000000Y-119800000D03*
X178860000Y-289090000D03*
X59300000Y-140200000D03*
X67000000Y-89800000D03*
X272560000Y-144590000D03*
X276660000Y-142190000D03*
X178960000Y-193590000D03*
X228860000Y-237790000D03*
X324460000Y-94390000D03*
X177160000Y-190090000D03*
X228860000Y-94390000D03*
X129160000Y-192490000D03*
X224760000Y-144590000D03*
X67000000Y-114800000D03*
X226660000Y-289090000D03*
X67000000Y-69800000D03*
X129160000Y-240190000D03*
X320560000Y-285690000D03*
X129360000Y-237890000D03*
X272460000Y-192490000D03*
X320360000Y-287990000D03*
X133260000Y-189990000D03*
X178860000Y-97890000D03*
X224960000Y-142290000D03*
X61300000Y-123900000D03*
X72500000Y-310900000D03*
X178960000Y-145690000D03*
X129360000Y-190090000D03*
X61400000Y-63800000D03*
X129360000Y-285690000D03*
X72000000Y-112300000D03*
X72000000Y-122300000D03*
X72000000Y-102300000D03*
X272760000Y-142290000D03*
X322260000Y-288990000D03*
X67000000Y-94800000D03*
X67000000Y-99800000D03*
X129160000Y-96890000D03*
X177160000Y-142290000D03*
X176960000Y-288090000D03*
X224660000Y-288090000D03*
X129160000Y-144590000D03*
X224960000Y-237890000D03*
X272760000Y-237890000D03*
X176860000Y-96790000D03*
X131160000Y-145690000D03*
X131160000Y-193490000D03*
X177160000Y-94490000D03*
X133260000Y-94390000D03*
X226760000Y-193490000D03*
X224960000Y-94490000D03*
X324460000Y-285590000D03*
X61400000Y-88800000D03*
X320560000Y-190090000D03*
X61400000Y-64800000D03*
X272460000Y-96790000D03*
X54500000Y-131000000D03*
X177160000Y-285690000D03*
X322260000Y-193590000D03*
X67000000Y-109800000D03*
X61300000Y-80000000D03*
X131160000Y-97990000D03*
X324460000Y-237790000D03*
X272760000Y-190090000D03*
X181060000Y-285590000D03*
X133260000Y-285590000D03*
X67100000Y-74800000D03*
X72000000Y-87300000D03*
X61400000Y-94900000D03*
X61300000Y-108800000D03*
X131060000Y-289090000D03*
X226660000Y-145690000D03*
X61300000Y-118800000D03*
X320260000Y-240190000D03*
X274460000Y-289090000D03*
X276660000Y-285590000D03*
X61300000Y-125000000D03*
X272460000Y-240290000D03*
X224660000Y-240190000D03*
X176860000Y-240190000D03*
X224660000Y-192390000D03*
X61300000Y-119900000D03*
X72000000Y-117300000D03*
X61300000Y-98900000D03*
X72600000Y-322000000D03*
X228860000Y-142190000D03*
X176960000Y-144690000D03*
X320560000Y-94490000D03*
X178960000Y-241290000D03*
X320260000Y-96790000D03*
X324460000Y-142190000D03*
X181060000Y-237790000D03*
X72000000Y-67300000D03*
X181060000Y-94390000D03*
X177160000Y-237890000D03*
X61200000Y-99900000D03*
X61400000Y-89800000D03*
X322260000Y-97890000D03*
X226760000Y-97890000D03*
X129060000Y-287990000D03*
X72000000Y-92300000D03*
X133260000Y-142190000D03*
X67000000Y-64800000D03*
X67000000Y-104800000D03*
X176760000Y-192490000D03*
X324460000Y-189990000D03*
X72000000Y-77300000D03*
X61300000Y-109800000D03*
X61400000Y-69800000D03*
X274560000Y-97890000D03*
X129360000Y-142290000D03*
X276660000Y-94390000D03*
X276660000Y-237790000D03*
X61000000Y-74200000D03*
X61000000Y-75200000D03*
X322460000Y-241290000D03*
X61400000Y-78800000D03*
X61400000Y-93800000D03*
X59300000Y-138000000D03*
X72000000Y-97300000D03*
X61400000Y-103800000D03*
X131060000Y-241390000D03*
X181060000Y-189990000D03*
X181060000Y-142190000D03*
X61400000Y-104900000D03*
X320560000Y-142290000D03*
X272760000Y-94490000D03*
X228860000Y-285590000D03*
X133260000Y-237790000D03*
X61400000Y-83800000D03*
X67000000Y-84800000D03*
X274460000Y-241390000D03*
X224960000Y-285690000D03*
X226760000Y-241290000D03*
X276660000Y-189990000D03*
X72000000Y-72300000D03*
X61500000Y-115000000D03*
X129360000Y-94490000D03*
X61400000Y-68800000D03*
X67000000Y-124800000D03*
X272560000Y-288090000D03*
X228860000Y-189990000D03*
X320260000Y-192490000D03*
X272760000Y-285690000D03*
X55400000Y-130200000D03*
X274460000Y-193490000D03*
X224960000Y-190090000D03*
X72000000Y-82300000D03*
X61400000Y-113800000D03*
X72000000Y-107300000D03*
X67000000Y-79800000D03*
X224660000Y-96890000D03*
X320260000Y-144590000D03*
X322260000Y-145790000D03*
X320560000Y-237890000D03*
X274560000Y-145690000D03*
X61300000Y-84800000D03*
%TD*%
D14*
%TO.N,*%
X52400000Y-93400000D02*
X54900000Y-93400000D01*
D15*
X77100000Y-84800000D02*
X67000000Y-84800000D01*
D14*
X325680000Y-95590000D02*
X325680000Y-106290000D01*
D15*
X194760000Y-192490000D02*
X186960000Y-200290000D01*
D14*
X61000000Y-74100000D02*
X61200000Y-74100000D01*
X110800000Y-132900000D02*
X122700000Y-144800000D01*
X73500000Y-95900000D02*
X73400000Y-96000000D01*
X72400000Y-86100000D02*
X77500000Y-86100000D01*
D15*
X258860000Y-304790000D02*
X103390000Y-304790000D01*
D14*
X79447500Y-320447500D02*
X79447500Y-326112500D01*
X96800000Y-204700000D02*
X99300000Y-207200000D01*
X76800000Y-102300000D02*
X72000000Y-102300000D01*
X324580000Y-142290000D02*
X325680000Y-143390000D01*
D15*
X258860000Y-209190000D02*
X116200000Y-209190000D01*
D14*
X59000000Y-73700000D02*
X59000000Y-67900000D01*
X54400000Y-87000000D02*
X54600000Y-86800000D01*
X61300000Y-125000000D02*
X61400000Y-124800000D01*
X79000000Y-71300000D02*
X114400000Y-106700000D01*
X74235000Y-310900000D02*
X79647500Y-316312500D01*
X52400000Y-94200000D02*
X54700000Y-94200000D01*
X85500000Y-118000000D02*
X74800000Y-107300000D01*
X77400000Y-98800000D02*
X94100000Y-115500000D01*
X59300000Y-136700000D02*
X55400000Y-132800000D01*
X61500000Y-63800000D02*
X61400000Y-63800000D01*
D15*
X257660000Y-254990000D02*
X272460000Y-240190000D01*
D14*
X101700000Y-113500000D02*
X78500000Y-90300000D01*
X131160000Y-193590000D02*
X130260000Y-194490000D01*
X100300000Y-200700000D02*
X117750000Y-200700000D01*
X67100000Y-89800000D02*
X61600000Y-89800000D01*
D15*
X116700000Y-159390000D02*
X257660000Y-159390000D01*
D14*
X118160000Y-200290000D02*
X148460000Y-200290000D01*
X52400000Y-88600000D02*
X56100000Y-88600000D01*
X61400000Y-104900000D02*
X61500000Y-104800000D01*
X57800000Y-102300000D02*
X57800000Y-117700000D01*
X62100000Y-92300000D02*
X60100000Y-90300000D01*
D15*
X271930000Y-91900000D02*
X272030000Y-92000000D01*
D14*
X61500000Y-83800000D02*
X77200000Y-83800000D01*
X91600000Y-238500000D02*
X94100000Y-241000000D01*
D15*
X224660000Y-288090000D02*
X194760000Y-288090000D01*
D14*
X72000000Y-67300000D02*
X82300000Y-67300000D01*
X61300000Y-109800000D02*
X61600000Y-109800000D01*
X114400000Y-109190000D02*
X116800000Y-111590000D01*
X115600000Y-116590000D02*
X300460000Y-116590000D01*
D15*
X258860000Y-256990000D02*
X94390000Y-256990000D01*
D14*
X104100000Y-163300000D02*
X106100000Y-165300000D01*
D15*
X174160000Y-198190000D02*
X178860000Y-193490000D01*
D14*
X81675000Y-314285000D02*
X81675000Y-308200000D01*
X77800000Y-77300000D02*
X72000000Y-77300000D01*
X72500000Y-310900000D02*
X74235000Y-310900000D01*
X60500000Y-100200000D02*
X61400000Y-101100000D01*
D15*
X181180000Y-142290000D02*
X224980000Y-142290000D01*
D14*
X61400000Y-113800000D02*
X73600000Y-113800000D01*
X59000000Y-101600000D02*
X59000000Y-110400000D01*
X226760000Y-97890000D02*
X216760000Y-107890000D01*
D15*
X224660000Y-192490000D02*
X194760000Y-192490000D01*
D14*
X52400000Y-91800000D02*
X55000000Y-91800000D01*
X52400000Y-76600000D02*
X56100000Y-76600000D01*
X67100000Y-109800000D02*
X61300000Y-109800000D01*
X109200000Y-110500000D02*
X109200000Y-134830000D01*
D15*
X178860000Y-241290000D02*
X174160000Y-245990000D01*
D14*
X99890000Y-203490000D02*
X97400000Y-201000000D01*
X130680000Y-127590000D02*
X129480000Y-128790000D01*
X61500000Y-113800000D02*
X61400000Y-113800000D01*
X89400000Y-240600000D02*
X93300000Y-244500000D01*
X300460000Y-212190000D02*
X320260000Y-192390000D01*
D15*
X77100000Y-122100000D02*
X72300000Y-117300000D01*
D14*
X60000000Y-113600000D02*
X60000000Y-115800000D01*
D15*
X77800000Y-87300000D02*
X72000000Y-87300000D01*
D14*
X61200000Y-99900000D02*
X61500000Y-99800000D01*
D15*
X116200000Y-209190000D02*
X116160000Y-209190000D01*
D14*
X89900000Y-238500000D02*
X90200000Y-238200000D01*
X67100000Y-99800000D02*
X61700000Y-99800000D01*
D15*
X88100000Y-241400000D02*
X88100000Y-118100000D01*
D14*
X74800000Y-107300000D02*
X72000000Y-107300000D01*
D15*
X228980000Y-237890000D02*
X272780000Y-237890000D01*
D14*
X102990000Y-299090000D02*
X74600000Y-270700000D01*
X75100000Y-106100000D02*
X86700000Y-117700000D01*
X131160000Y-289190000D02*
X130260000Y-290090000D01*
X104100000Y-112700000D02*
X104100000Y-163300000D01*
X61400000Y-63800000D02*
X67100000Y-63800000D01*
X56000000Y-86100000D02*
X54500000Y-86100000D01*
X58200000Y-111800000D02*
X60000000Y-113600000D01*
X74600000Y-270700000D02*
X74600000Y-122200000D01*
D15*
X78600000Y-74800000D02*
X67100000Y-74800000D01*
D14*
X59900000Y-101400000D02*
X58900000Y-100400000D01*
D15*
X186960000Y-104690000D02*
X148460000Y-104690000D01*
D14*
X77100000Y-101100000D02*
X91600000Y-115600000D01*
D15*
X176330000Y-91900000D02*
X176430000Y-92000000D01*
D14*
X113650000Y-261700000D02*
X115360000Y-259990000D01*
X99600000Y-207200000D02*
X99610000Y-207190000D01*
D15*
X113000000Y-106700000D02*
X78600000Y-72300000D01*
D14*
X109600000Y-159300000D02*
X116610000Y-159300000D01*
D15*
X121660000Y-198190000D02*
X121050000Y-198800000D01*
D14*
X216760000Y-251290000D02*
X93290000Y-251290000D01*
D15*
X92800000Y-115500000D02*
X77000000Y-99700000D01*
D14*
X54900000Y-93400000D02*
X55800000Y-94300000D01*
X57700000Y-92200000D02*
X57700000Y-97300000D01*
X61500000Y-99800000D02*
X61600000Y-99800000D01*
X131160000Y-241390000D02*
X130260000Y-242290000D01*
X73300000Y-114900000D02*
X73200000Y-114800000D01*
X56200000Y-97800000D02*
X57100000Y-98700000D01*
X105910000Y-295890000D02*
X148460000Y-295890000D01*
X114400000Y-106700000D02*
X114400000Y-109190000D01*
D15*
X116200000Y-209190000D02*
X99290000Y-209190000D01*
X117590000Y-102590000D02*
X82850000Y-67850000D01*
D14*
X62000000Y-107300000D02*
X59900000Y-105200000D01*
X116610000Y-159300000D02*
X116700000Y-159390000D01*
D15*
X121660000Y-102590000D02*
X117590000Y-102590000D01*
D14*
X52400000Y-80600000D02*
X77000000Y-80600000D01*
X55800000Y-94300000D02*
X55800000Y-98200000D01*
D15*
X67000000Y-274600000D02*
X67000000Y-124800000D01*
D14*
X304380000Y-223190000D02*
X130680000Y-223190000D01*
X129480000Y-176590000D02*
X129480000Y-190190000D01*
X115590000Y-116600000D02*
X115600000Y-116590000D01*
X60450000Y-104950000D02*
X61600000Y-106100000D01*
X112400000Y-107500000D02*
X112500000Y-107600000D01*
X75300000Y-103800000D02*
X89400000Y-117900000D01*
X97400000Y-201000000D02*
X97400000Y-113800000D01*
X56100000Y-76600000D02*
X59000000Y-73700000D01*
D15*
X82850000Y-67850000D02*
X82700000Y-67700000D01*
D14*
X59000000Y-110400000D02*
X60600000Y-112000000D01*
X330480000Y-299400000D02*
X330480000Y-291590000D01*
X58600000Y-111500000D02*
X60500000Y-113400000D01*
D15*
X186960000Y-152490000D02*
X148460000Y-152490000D01*
D14*
X61600000Y-106100000D02*
X75100000Y-106100000D01*
D15*
X82100000Y-247100000D02*
X82100000Y-121200000D01*
D14*
X130260000Y-98890000D02*
X123190000Y-98890000D01*
X226760000Y-145690000D02*
X216760000Y-155690000D01*
D15*
X186960000Y-248090000D02*
X148460000Y-248090000D01*
X112530000Y-119390000D02*
X111600000Y-118460000D01*
X133380000Y-94490000D02*
X177180000Y-94490000D01*
X103390000Y-304790000D02*
X69600000Y-271000000D01*
X73700000Y-109800000D02*
X67000000Y-109800000D01*
D14*
X55900000Y-87800000D02*
X52400000Y-87800000D01*
X127660000Y-288090000D02*
X129160000Y-288090000D01*
X118300000Y-248090000D02*
X148460000Y-248090000D01*
D15*
X174160000Y-150390000D02*
X117590000Y-150390000D01*
X117590000Y-150390000D02*
X108400000Y-141200000D01*
D14*
X58900000Y-90900000D02*
X59700000Y-91700000D01*
X67100000Y-63800000D02*
X68800000Y-62100000D01*
X300460000Y-259990000D02*
X320260000Y-240190000D01*
X71700000Y-112000000D02*
X72000000Y-112300000D01*
D15*
X76700000Y-96800000D02*
X76500000Y-96800000D01*
X319730000Y-91900000D02*
X319830000Y-92000000D01*
D14*
X59200000Y-91800000D02*
X58500000Y-91100000D01*
X62100000Y-84800000D02*
X67100000Y-84800000D01*
X54400000Y-86200000D02*
X52400000Y-86200000D01*
D15*
X77600000Y-85100000D02*
X77400000Y-85100000D01*
D14*
X58600000Y-79000000D02*
X61600000Y-76000000D01*
D15*
X258860000Y-113590000D02*
X114390000Y-113590000D01*
D14*
X58900000Y-97800000D02*
X58200000Y-97100000D01*
X54500000Y-86100000D02*
X54400000Y-86200000D01*
X173160000Y-100690000D02*
X176860000Y-96990000D01*
X67100000Y-94800000D02*
X61700000Y-94800000D01*
X329630000Y-301400000D02*
X329630000Y-300250000D01*
D15*
X301360000Y-214990000D02*
X100490000Y-214990000D01*
X54900000Y-134200000D02*
X52400000Y-134200000D01*
D14*
X78700000Y-122500000D02*
X78700000Y-265900000D01*
X62100000Y-104800000D02*
X67100000Y-104800000D01*
X88960000Y-316600000D02*
X318800000Y-316600000D01*
D15*
X59300000Y-140200000D02*
X56700000Y-137600000D01*
D14*
X58600000Y-101900000D02*
X58600000Y-111500000D01*
D15*
X116700000Y-254990000D02*
X257660000Y-254990000D01*
D14*
X57500000Y-100800000D02*
X58600000Y-101900000D01*
D15*
X108400000Y-110900000D02*
X76900000Y-79400000D01*
X99100000Y-113200000D02*
X78100000Y-92200000D01*
X59300000Y-138000000D02*
X59300000Y-137300000D01*
X194760000Y-96890000D02*
X186960000Y-104690000D01*
D14*
X58000000Y-90500000D02*
X58000000Y-91200000D01*
X55400000Y-132800000D02*
X55400000Y-132500000D01*
D15*
X56700000Y-137600000D02*
X56700000Y-135400000D01*
D14*
X101310000Y-212190000D02*
X300460000Y-212190000D01*
X77300000Y-95900000D02*
X96800000Y-115400000D01*
X73500000Y-114900000D02*
X73300000Y-114900000D01*
X72900000Y-120500000D02*
X67700000Y-120500000D01*
X59400000Y-101500000D02*
X59400000Y-105500000D01*
X61500000Y-115000000D02*
X61600000Y-114800000D01*
X226760000Y-241290000D02*
X216760000Y-251290000D01*
X89400000Y-117900000D02*
X89400000Y-240600000D01*
D15*
X174160000Y-102590000D02*
X178860000Y-97890000D01*
D14*
X61600000Y-98800000D02*
X77400000Y-98800000D01*
X216760000Y-299090000D02*
X102990000Y-299090000D01*
X103190000Y-307790000D02*
X300460000Y-307790000D01*
X88370000Y-66200000D02*
X122860000Y-100690000D01*
X130260000Y-146690000D02*
X122690000Y-146690000D01*
X59000000Y-67900000D02*
X59800000Y-67100000D01*
D15*
X301360000Y-167190000D02*
X105490000Y-167190000D01*
D14*
X130260000Y-290090000D02*
X104690000Y-290090000D01*
X55900000Y-78200000D02*
X52400000Y-78200000D01*
D15*
X77800000Y-92300000D02*
X72000000Y-92300000D01*
X301360000Y-310590000D02*
X102990000Y-310590000D01*
D14*
X61700000Y-119800000D02*
X61300000Y-119900000D01*
D15*
X106300000Y-293790000D02*
X104490000Y-293790000D01*
D14*
X58000000Y-98250000D02*
X58000000Y-100600000D01*
D15*
X133380000Y-237890000D02*
X177180000Y-237890000D01*
D14*
X300460000Y-307790000D02*
X320260000Y-287990000D01*
D15*
X72300000Y-117300000D02*
X72000000Y-117300000D01*
D14*
X62100000Y-77200000D02*
X62200000Y-77300000D01*
X106100000Y-165300000D02*
X114450000Y-165300000D01*
D15*
X104700000Y-112200000D02*
X77600000Y-85100000D01*
D14*
X98200000Y-113600000D02*
X98200000Y-198600000D01*
X65600000Y-81400000D02*
X66500000Y-82300000D01*
X216760000Y-107890000D02*
X116760000Y-107890000D01*
X78700000Y-91400000D02*
X100500000Y-113200000D01*
X66500000Y-99800000D02*
X67100000Y-99800000D01*
X59800000Y-67100000D02*
X63900000Y-67100000D01*
X58700000Y-91900000D02*
X58700000Y-96200000D01*
X62100000Y-89800000D02*
X67100000Y-89800000D01*
X173160000Y-196290000D02*
X176860000Y-192590000D01*
X61400000Y-93800000D02*
X78400000Y-93800000D01*
X52400000Y-130200000D02*
X55500000Y-130200000D01*
X77200000Y-83800000D02*
X105800000Y-112400000D01*
X79000000Y-73800000D02*
X112400000Y-107200000D01*
D15*
X114390000Y-113590000D02*
X113000000Y-112200000D01*
D14*
X109200000Y-134830000D02*
X122860000Y-148490000D01*
D15*
X301360000Y-119390000D02*
X112530000Y-119390000D01*
D14*
X60700000Y-91500000D02*
X59700000Y-90500000D01*
X55400000Y-132500000D02*
X54950000Y-132950000D01*
X62100000Y-99800000D02*
X66500000Y-99800000D01*
X58900000Y-100400000D02*
X58900000Y-97800000D01*
X52400000Y-83800000D02*
X56200000Y-83800000D01*
D15*
X228980000Y-94490000D02*
X272780000Y-94490000D01*
D14*
X67100000Y-114800000D02*
X61500000Y-115000000D01*
D15*
X322260000Y-146290000D02*
X301360000Y-167190000D01*
X322260000Y-97890000D02*
X322260000Y-98490000D01*
D14*
X64100000Y-67300000D02*
X63900000Y-67100000D01*
X133355000Y-83515000D02*
X129280000Y-87590000D01*
X58000000Y-100600000D02*
X59000000Y-101600000D01*
D15*
X121660000Y-198190000D02*
X174160000Y-198190000D01*
D14*
X62100000Y-74800000D02*
X67100000Y-74800000D01*
D15*
X106490000Y-161390000D02*
X104700000Y-159600000D01*
X276780000Y-190090000D02*
X320580000Y-190090000D01*
D14*
X62100000Y-109800000D02*
X67100000Y-109800000D01*
X61300000Y-98900000D02*
X61600000Y-98800000D01*
X340565000Y-89090000D02*
X334990000Y-83515000D01*
X110800000Y-108800000D02*
X110800000Y-132900000D01*
X325680000Y-143390000D02*
X325680000Y-154090000D01*
D15*
X76600000Y-99700000D02*
X76500000Y-99800000D01*
X83600000Y-246200000D02*
X83600000Y-119700000D01*
D14*
X93290000Y-251290000D02*
X85500000Y-243500000D01*
D15*
X78100000Y-92200000D02*
X77900000Y-92200000D01*
D14*
X55200000Y-94700000D02*
X55200000Y-98200000D01*
X62100000Y-119800000D02*
X67100000Y-119800000D01*
X61600000Y-123800000D02*
X67100000Y-123800000D01*
X59700000Y-89100000D02*
X56000000Y-85400000D01*
X78000000Y-76200000D02*
X78200000Y-76200000D01*
X61400000Y-94900000D02*
X61500000Y-94800000D01*
X216760000Y-155690000D02*
X112890000Y-155690000D01*
X61000000Y-75200000D02*
X61200000Y-75200000D01*
X61900000Y-97300000D02*
X60200000Y-95600000D01*
X73300000Y-115800000D02*
X73400000Y-115900000D01*
X59700000Y-91700000D02*
X59700000Y-95800000D01*
X86700000Y-241500000D02*
X94000000Y-248800000D01*
X324580000Y-190090000D02*
X325680000Y-191190000D01*
X68800000Y-62100000D02*
X89800000Y-62100000D01*
X90200000Y-115700000D02*
X76800000Y-102300000D01*
D15*
X116560000Y-254990000D02*
X116700000Y-254990000D01*
X322260000Y-289690000D02*
X301360000Y-310590000D01*
D14*
X67100000Y-123800000D02*
X68000000Y-124700000D01*
X61400000Y-68800000D02*
X82270000Y-68800000D01*
D15*
X228980000Y-285690000D02*
X272780000Y-285690000D01*
D14*
X58200000Y-97100000D02*
X58200000Y-92000000D01*
X60100000Y-90300000D02*
X60100000Y-88600000D01*
X72200000Y-90800000D02*
X72800000Y-91400000D01*
X61500000Y-94800000D02*
X61600000Y-94800000D01*
X57100000Y-98700000D02*
X57100000Y-101000000D01*
X216760000Y-203490000D02*
X99890000Y-203490000D01*
X61500000Y-93800000D02*
X61400000Y-93800000D01*
X60600000Y-88200000D02*
X60600000Y-90100000D01*
D15*
X88100000Y-118100000D02*
X74800000Y-104800000D01*
D14*
X78200000Y-76200000D02*
X110800000Y-108800000D01*
X55800000Y-91000000D02*
X57300000Y-92500000D01*
D15*
X55600000Y-134900000D02*
X54900000Y-134200000D01*
D14*
X61200000Y-74100000D02*
X61500000Y-73800000D01*
X78700000Y-265900000D02*
X104690000Y-291890000D01*
X67100000Y-119800000D02*
X61700000Y-119800000D01*
D15*
X257660000Y-302790000D02*
X272460000Y-287990000D01*
D14*
X58200000Y-73736396D02*
X58200000Y-67100000D01*
X72700000Y-271700000D02*
X103790000Y-302790000D01*
D15*
X133380000Y-142290000D02*
X177180000Y-142290000D01*
D14*
X60000000Y-100300000D02*
X60000000Y-96700000D01*
X61500000Y-104800000D02*
X61600000Y-104800000D01*
D15*
X194760000Y-288090000D02*
X186960000Y-295890000D01*
D14*
X226760000Y-193490000D02*
X216760000Y-203490000D01*
X61500000Y-122300000D02*
X72000000Y-122300000D01*
X56700000Y-101900000D02*
X56700000Y-117500000D01*
D15*
X76500000Y-96800000D02*
X76000000Y-97300000D01*
D14*
X60500000Y-110700000D02*
X72900000Y-110700000D01*
X54600000Y-86800000D02*
X55700000Y-86800000D01*
D15*
X99300000Y-198800000D02*
X99100000Y-198600000D01*
D14*
X61700000Y-104800000D02*
X61400000Y-104900000D01*
X105100000Y-296700000D02*
X105910000Y-295890000D01*
D15*
X111600000Y-107800000D02*
X78600000Y-74800000D01*
X94390000Y-256990000D02*
X83600000Y-246200000D01*
D14*
X300460000Y-164390000D02*
X320260000Y-144590000D01*
X76100000Y-122400000D02*
X76100000Y-267700000D01*
X90675000Y-313000000D02*
X318030000Y-313000000D01*
X61500000Y-88800000D02*
X61400000Y-88800000D01*
D15*
X116700000Y-207190000D02*
X257660000Y-207190000D01*
D14*
X57800000Y-117700000D02*
X61600000Y-121500000D01*
X67700000Y-120500000D02*
X67000000Y-119800000D01*
X91600000Y-115600000D02*
X91600000Y-238500000D01*
D15*
X97790000Y-262790000D02*
X82100000Y-247100000D01*
D14*
X57300000Y-92500000D02*
X57300000Y-97550000D01*
X60100000Y-88600000D02*
X56100000Y-84600000D01*
X67100000Y-64800000D02*
X61400000Y-64800000D01*
X61500000Y-68800000D02*
X61400000Y-68800000D01*
X325680000Y-238990000D02*
X325680000Y-249690000D01*
X93300000Y-244500000D02*
X93710000Y-244090000D01*
D15*
X322260000Y-145690000D02*
X322260000Y-146290000D01*
D14*
X325680000Y-191190000D02*
X325680000Y-201890000D01*
X130260000Y-242290000D02*
X93690000Y-242290000D01*
X56200000Y-82900000D02*
X56100000Y-83000000D01*
X61500000Y-108800000D02*
X61300000Y-108800000D01*
X112500000Y-116600000D02*
X115590000Y-116600000D01*
X89800000Y-62100000D02*
X124590000Y-96890000D01*
X60200000Y-95600000D02*
X60200000Y-91600000D01*
D15*
X181180000Y-285690000D02*
X224980000Y-285690000D01*
D14*
X60600000Y-90100000D02*
X61400000Y-90900000D01*
X103790000Y-302790000D02*
X116600000Y-302790000D01*
X105800000Y-155500000D02*
X109600000Y-159300000D01*
X117750000Y-200700000D02*
X118160000Y-200290000D01*
X56700000Y-93500000D02*
X56700000Y-97500000D01*
D15*
X322260000Y-194090000D02*
X301360000Y-214990000D01*
D14*
X72000000Y-107300000D02*
X62000000Y-107300000D01*
X127650000Y-194800000D02*
X101700000Y-194800000D01*
X61600000Y-77200000D02*
X62100000Y-77200000D01*
X83775000Y-306100000D02*
X90675000Y-313000000D01*
D15*
X194760000Y-240290000D02*
X186960000Y-248090000D01*
D14*
X61500000Y-98800000D02*
X61400000Y-98800000D01*
X99610000Y-207190000D02*
X116700000Y-207190000D01*
D15*
X78600000Y-72300000D02*
X72000000Y-72300000D01*
D14*
X325680000Y-154090000D02*
X304380000Y-175390000D01*
X57700000Y-97300000D02*
X58400000Y-98000000D01*
X56136396Y-75800000D02*
X58200000Y-73736396D01*
X122860000Y-100690000D02*
X173160000Y-100690000D01*
X122860000Y-148490000D02*
X173160000Y-148490000D01*
X61500000Y-73800000D02*
X79000000Y-73800000D01*
D15*
X181180000Y-237890000D02*
X224980000Y-237890000D01*
D14*
X130680000Y-270990000D02*
X129480000Y-272190000D01*
X61200000Y-75200000D02*
X61600000Y-74800000D01*
D15*
X133380000Y-285690000D02*
X177180000Y-285690000D01*
X322260000Y-193490000D02*
X322260000Y-194090000D01*
D14*
X82800000Y-246500000D02*
X98000000Y-261700000D01*
X58000000Y-91200000D02*
X58700000Y-91900000D01*
X122810000Y-144690000D02*
X129160000Y-144690000D01*
D15*
X274560000Y-193490000D02*
X258860000Y-209190000D01*
D14*
X127660000Y-192490000D02*
X129160000Y-192490000D01*
X54700000Y-94200000D02*
X55200000Y-94700000D01*
D15*
X108400000Y-141200000D02*
X108400000Y-110900000D01*
D14*
X61700000Y-99800000D02*
X61200000Y-99900000D01*
X325680000Y-201890000D02*
X304380000Y-223190000D01*
X122690000Y-146690000D02*
X120100000Y-144100000D01*
X61300000Y-119900000D02*
X61500000Y-119800000D01*
X114450000Y-165300000D02*
X115360000Y-164390000D01*
D15*
X274560000Y-241290000D02*
X258860000Y-256990000D01*
X186960000Y-200290000D02*
X148460000Y-200290000D01*
D14*
X96800000Y-115400000D02*
X96800000Y-204700000D01*
D15*
X257660000Y-159390000D02*
X272460000Y-144590000D01*
D14*
X77700000Y-82300000D02*
X72000000Y-82300000D01*
X61600000Y-76000000D02*
X77800000Y-76000000D01*
X61600000Y-74800000D02*
X62100000Y-74800000D01*
D15*
X113000000Y-112200000D02*
X113000000Y-106700000D01*
D14*
X62100000Y-64800000D02*
X67100000Y-64800000D01*
X60500000Y-115500000D02*
X60800000Y-115800000D01*
X73400000Y-117200000D02*
X78700000Y-122500000D01*
X126950000Y-241000000D02*
X127660000Y-240290000D01*
X72800000Y-121400000D02*
X72800000Y-271600000D01*
X94100000Y-115500000D02*
X94100000Y-205600000D01*
X61500000Y-123800000D02*
X61400000Y-123800000D01*
D15*
X133380000Y-190090000D02*
X177180000Y-190090000D01*
D14*
X318030000Y-313000000D02*
X329630000Y-301400000D01*
X318800000Y-316600000D02*
X340565000Y-294835000D01*
X82270000Y-68800000D02*
X118160000Y-104690000D01*
X97400000Y-113800000D02*
X78400000Y-94800000D01*
D15*
X94900000Y-115000000D02*
X76700000Y-96800000D01*
D14*
X82300000Y-67300000D02*
X82850000Y-67850000D01*
X59300000Y-90700000D02*
X59300000Y-89400000D01*
X56000000Y-85400000D02*
X52400000Y-85400000D01*
X112500000Y-107600000D02*
X112500000Y-116600000D01*
X62000000Y-102000000D02*
X61700000Y-102000000D01*
X173160000Y-148490000D02*
X176860000Y-144790000D01*
X118160000Y-104690000D02*
X148460000Y-104690000D01*
X131160000Y-145790000D02*
X130260000Y-146690000D01*
X72000000Y-92300000D02*
X62100000Y-92300000D01*
X56100000Y-83000000D02*
X52400000Y-83000000D01*
D15*
X322260000Y-241890000D02*
X301360000Y-262790000D01*
D14*
X72000000Y-67300000D02*
X64100000Y-67300000D01*
X80100000Y-263300000D02*
X105200000Y-288400000D01*
X61400000Y-103800000D02*
X75300000Y-103800000D01*
X324580000Y-94490000D02*
X325680000Y-95590000D01*
X60900000Y-85900000D02*
X72200000Y-85900000D01*
X131160000Y-97990000D02*
X130260000Y-98890000D01*
X94100000Y-241000000D02*
X126950000Y-241000000D01*
X56300000Y-99300000D02*
X56300000Y-101500000D01*
X115360000Y-164390000D02*
X300460000Y-164390000D01*
X329630000Y-300250000D02*
X330480000Y-299400000D01*
X60000000Y-115800000D02*
X61500000Y-117300000D01*
X304380000Y-175390000D02*
X130680000Y-175390000D01*
X94000000Y-248800000D02*
X117590000Y-248800000D01*
X55600000Y-89400000D02*
X52400000Y-89400000D01*
X107400000Y-141730000D02*
X118160000Y-152490000D01*
X101700000Y-194800000D02*
X101700000Y-113500000D01*
D15*
X76200000Y-79800000D02*
X67000000Y-79800000D01*
D14*
X72100000Y-90900000D02*
X72200000Y-90800000D01*
D15*
X174160000Y-293790000D02*
X104490000Y-293790000D01*
D14*
X74000000Y-108800000D02*
X84600000Y-119400000D01*
D15*
X69600000Y-271000000D02*
X72000000Y-268600000D01*
D14*
X325680000Y-249690000D02*
X304380000Y-270990000D01*
D15*
X83600000Y-119700000D02*
X73700000Y-109800000D01*
X77900000Y-92200000D02*
X77800000Y-92300000D01*
D14*
X130260000Y-194490000D02*
X127960000Y-194490000D01*
X61600000Y-121500000D02*
X72700000Y-121500000D01*
X67100000Y-104800000D02*
X61700000Y-104800000D01*
X98200000Y-198600000D02*
X100300000Y-200700000D01*
D15*
X76600000Y-79400000D02*
X76200000Y-79800000D01*
D14*
X59300000Y-96800000D02*
X59300000Y-100200000D01*
X56200000Y-93700000D02*
X56200000Y-97800000D01*
X100500000Y-195700000D02*
X101700000Y-196900000D01*
X60800000Y-115800000D02*
X73300000Y-115800000D01*
X84600000Y-119400000D02*
X84600000Y-244500000D01*
X127960000Y-194490000D02*
X127650000Y-194800000D01*
X126950000Y-193200000D02*
X127660000Y-192490000D01*
D15*
X194760000Y-144690000D02*
X186960000Y-152490000D01*
X322260000Y-241290000D02*
X322260000Y-241890000D01*
D14*
X61400000Y-64800000D02*
X61600000Y-64800000D01*
X58400000Y-98000000D02*
X58400000Y-100500000D01*
X59300000Y-89400000D02*
X56000000Y-86100000D01*
X62100000Y-124800000D02*
X67100000Y-124800000D01*
X77500000Y-86100000D02*
X104100000Y-112700000D01*
D15*
X94900000Y-204800000D02*
X94900000Y-115000000D01*
X274560000Y-97890000D02*
X258860000Y-113590000D01*
D14*
X54500000Y-131000000D02*
X54400000Y-131000000D01*
X67100000Y-79800000D02*
X61600000Y-79800000D01*
X62100000Y-71300000D02*
X79000000Y-71300000D01*
X330480000Y-291590000D02*
X324580000Y-285690000D01*
X73400000Y-115900000D02*
X73400000Y-117200000D01*
X93690000Y-242290000D02*
X89900000Y-238500000D01*
X61700000Y-94800000D02*
X61400000Y-94900000D01*
X120100000Y-144100000D02*
X119800000Y-144100000D01*
X56100000Y-84600000D02*
X52400000Y-84600000D01*
X79300000Y-264700000D02*
X79300000Y-120700000D01*
X60000000Y-96700000D02*
X59200000Y-95900000D01*
X61500000Y-78800000D02*
X77500000Y-78800000D01*
X56700000Y-101200000D02*
X57800000Y-102300000D01*
X62100000Y-79800000D02*
X67100000Y-79800000D01*
X58900000Y-90000000D02*
X58900000Y-90900000D01*
X68000000Y-272600000D02*
X103190000Y-307790000D01*
D15*
X103300000Y-112800000D02*
X77800000Y-87300000D01*
D14*
X55200000Y-98200000D02*
X56300000Y-99300000D01*
X57200000Y-82200000D02*
X60900000Y-85900000D01*
D15*
X178860000Y-145690000D02*
X174160000Y-150390000D01*
D14*
X58200000Y-67100000D02*
X59100000Y-66200000D01*
X67100000Y-69800000D02*
X61400000Y-69800000D01*
D15*
X92800000Y-207300000D02*
X92800000Y-115500000D01*
D14*
X176130000Y-94500000D02*
X176130000Y-94300000D01*
D15*
X121050000Y-198800000D02*
X99300000Y-198800000D01*
D14*
X105200000Y-288400000D02*
X127350000Y-288400000D01*
X85500000Y-243500000D02*
X85500000Y-118000000D01*
D15*
X181180000Y-94490000D02*
X224980000Y-94490000D01*
D14*
X59700000Y-90500000D02*
X59700000Y-89100000D01*
X62200000Y-77300000D02*
X72000000Y-77300000D01*
X68000000Y-124700000D02*
X68000000Y-272600000D01*
X62300000Y-102300000D02*
X62000000Y-102000000D01*
D15*
X116560000Y-302790000D02*
X116600000Y-302790000D01*
X77400000Y-85100000D02*
X77100000Y-84800000D01*
X100490000Y-214990000D02*
X92800000Y-207300000D01*
D14*
X78500000Y-90300000D02*
X78100000Y-90300000D01*
D15*
X258860000Y-161390000D02*
X106490000Y-161390000D01*
D14*
X300460000Y-116590000D02*
X320260000Y-96790000D01*
X73500000Y-95900000D02*
X77300000Y-95900000D01*
X129480000Y-224390000D02*
X129480000Y-237990000D01*
X78400000Y-93800000D02*
X98200000Y-113600000D01*
X59300000Y-100200000D02*
X60450000Y-101350000D01*
X79300000Y-120700000D02*
X73500000Y-114900000D01*
D15*
X92690000Y-245990000D02*
X88100000Y-241400000D01*
D14*
X116760000Y-106160000D02*
X80400000Y-69800000D01*
X56100000Y-88600000D02*
X58000000Y-90500000D01*
X59900000Y-105200000D02*
X59900000Y-101400000D01*
X129280000Y-94390000D02*
X129480000Y-94590000D01*
X72200000Y-85900000D02*
X72400000Y-86100000D01*
X56300000Y-101500000D02*
X56700000Y-101900000D01*
D15*
X301360000Y-262790000D02*
X97790000Y-262790000D01*
D14*
X72800000Y-271600000D02*
X72700000Y-271700000D01*
X58700000Y-96200000D02*
X59300000Y-96800000D01*
X84600000Y-244500000D02*
X95090000Y-254990000D01*
X117590000Y-248800000D02*
X118300000Y-248090000D01*
X52400000Y-87000000D02*
X54400000Y-87000000D01*
X60200000Y-91600000D02*
X59300000Y-90700000D01*
D15*
X76900000Y-79400000D02*
X76600000Y-79400000D01*
D14*
X55100000Y-92600000D02*
X56200000Y-93700000D01*
X54950000Y-132950000D02*
X54500000Y-133400000D01*
D15*
X104490000Y-293790000D02*
X77100000Y-266400000D01*
D14*
X112890000Y-155690000D02*
X106500000Y-149300000D01*
D15*
X276780000Y-94490000D02*
X320580000Y-94490000D01*
D14*
X60700000Y-95300000D02*
X60700000Y-91500000D01*
D15*
X73100000Y-112200000D02*
X72100000Y-112200000D01*
D14*
X124590000Y-96890000D02*
X129160000Y-96890000D01*
X76100000Y-267700000D02*
X105100000Y-296700000D01*
X59300000Y-137300000D02*
X59300000Y-136700000D01*
X52400000Y-79800000D02*
X59000000Y-79800000D01*
D15*
X228980000Y-142290000D02*
X272780000Y-142290000D01*
D14*
X116760000Y-107890000D02*
X116760000Y-106160000D01*
X77800000Y-76000000D02*
X78000000Y-76200000D01*
X124000000Y-310600000D02*
X125700000Y-310600000D01*
X72000000Y-72300000D02*
X61800000Y-72300000D01*
X78400000Y-94800000D02*
X67000000Y-94800000D01*
D15*
X274560000Y-145690000D02*
X258860000Y-161390000D01*
D14*
X304380000Y-127590000D02*
X130680000Y-127590000D01*
X61400000Y-69800000D02*
X61600000Y-69800000D01*
X61500000Y-119800000D02*
X61600000Y-119800000D01*
X60450000Y-101350000D02*
X60450000Y-104950000D01*
X73400000Y-96000000D02*
X61400000Y-96000000D01*
X54500000Y-133400000D02*
X52400000Y-133400000D01*
X58200000Y-92000000D02*
X55600000Y-89400000D01*
X67100000Y-124800000D02*
X61800000Y-124800000D01*
X52400000Y-90200000D02*
X55700000Y-90200000D01*
D15*
X276780000Y-237890000D02*
X320580000Y-237890000D01*
D14*
X226760000Y-289090000D02*
X216760000Y-299090000D01*
D15*
X276780000Y-285690000D02*
X320580000Y-285690000D01*
D14*
X58500000Y-90400000D02*
X55900000Y-87800000D01*
X62100000Y-94800000D02*
X67100000Y-94800000D01*
X59000000Y-79800000D02*
X61600000Y-77200000D01*
X61400000Y-88800000D02*
X78000000Y-88800000D01*
D15*
X228980000Y-190090000D02*
X272780000Y-190090000D01*
X74800000Y-104800000D02*
X67000000Y-104800000D01*
D14*
X123190000Y-98890000D02*
X87700000Y-63400000D01*
X72900000Y-110700000D02*
X82800000Y-120600000D01*
X52400000Y-81400000D02*
X65600000Y-81400000D01*
X72600000Y-313600000D02*
X79447500Y-320447500D01*
X80400000Y-69800000D02*
X67000000Y-69800000D01*
X52400000Y-131000000D02*
X54500000Y-131000000D01*
X173160000Y-291890000D02*
X176860000Y-288190000D01*
D15*
X186960000Y-295890000D02*
X148460000Y-295890000D01*
X274560000Y-289090000D02*
X258860000Y-304790000D01*
D14*
X86700000Y-117700000D02*
X86700000Y-241500000D01*
X56700000Y-117500000D02*
X61500000Y-122300000D01*
D15*
X76500000Y-99800000D02*
X66500000Y-99800000D01*
D14*
X72800000Y-91400000D02*
X78700000Y-91400000D01*
X340565000Y-294835000D02*
X340565000Y-89090000D01*
D15*
X103300000Y-165000000D02*
X103300000Y-112800000D01*
D14*
X60500000Y-96600000D02*
X60500000Y-100200000D01*
X101700000Y-196900000D02*
X102000000Y-196900000D01*
D15*
X105490000Y-167190000D02*
X103300000Y-165000000D01*
D14*
X129280000Y-87590000D02*
X129280000Y-94390000D01*
X52400000Y-75800000D02*
X56136396Y-75800000D01*
X57100000Y-101000000D02*
X58200000Y-102100000D01*
X72500000Y-118800000D02*
X76100000Y-122400000D01*
D15*
X276780000Y-142290000D02*
X320580000Y-142290000D01*
D14*
X60600000Y-112000000D02*
X71700000Y-112000000D01*
X129480000Y-272190000D02*
X129480000Y-285790000D01*
X104000000Y-193200000D02*
X126950000Y-193200000D01*
X95090000Y-254990000D02*
X116700000Y-254990000D01*
X60500000Y-106600000D02*
X60500000Y-110700000D01*
X90200000Y-238200000D02*
X90200000Y-115700000D01*
X55800000Y-98200000D02*
X56700000Y-99100000D01*
X110000000Y-109500000D02*
X77800000Y-77300000D01*
X61400000Y-90900000D02*
X72100000Y-90900000D01*
X325680000Y-106290000D02*
X304380000Y-127590000D01*
X57300000Y-97550000D02*
X58000000Y-98250000D01*
X61500000Y-117300000D02*
X72000000Y-117300000D01*
X61700000Y-102000000D02*
X60000000Y-100300000D01*
X55400000Y-130200000D02*
X55400000Y-132500000D01*
D15*
X99290000Y-209190000D02*
X94900000Y-204800000D01*
X55600000Y-134900000D02*
X56200000Y-134900000D01*
D14*
X127660000Y-240290000D02*
X129160000Y-240290000D01*
D15*
X224660000Y-96890000D02*
X194760000Y-96890000D01*
D14*
X86300000Y-64800000D02*
X67000000Y-64800000D01*
X61400000Y-124800000D02*
X61600000Y-124800000D01*
X110000000Y-134300000D02*
X110000000Y-109500000D01*
D15*
X56200000Y-134900000D02*
X56700000Y-135400000D01*
X116800000Y-111590000D02*
X257660000Y-111590000D01*
D14*
X81675000Y-308200000D02*
X83775000Y-306100000D01*
X60500000Y-113400000D02*
X60500000Y-115500000D01*
X105800000Y-112400000D02*
X105800000Y-155500000D01*
X100500000Y-113200000D02*
X100500000Y-195700000D01*
X61800000Y-124800000D02*
X61300000Y-125000000D01*
D15*
X77100000Y-266400000D02*
X77100000Y-122100000D01*
D14*
X55700000Y-86800000D02*
X58900000Y-90000000D01*
X60600000Y-87300000D02*
X56200000Y-82900000D01*
X78100000Y-90300000D02*
X77600000Y-89800000D01*
X107400000Y-111000000D02*
X107400000Y-141730000D01*
X94100000Y-205600000D02*
X101000000Y-212500000D01*
X72000000Y-87300000D02*
X60600000Y-87300000D01*
X130680000Y-175390000D02*
X129480000Y-176590000D01*
X57500000Y-98300000D02*
X57500000Y-100800000D01*
X72000000Y-102300000D02*
X62300000Y-102300000D01*
X87700000Y-63400000D02*
X86300000Y-64800000D01*
X102700000Y-191900000D02*
X104000000Y-193200000D01*
X73600000Y-113800000D02*
X80100000Y-120300000D01*
D15*
X174160000Y-245990000D02*
X92690000Y-245990000D01*
D14*
X61400000Y-98800000D02*
X61300000Y-98900000D01*
X324580000Y-237890000D02*
X325680000Y-238990000D01*
X115360000Y-116590000D02*
X115600000Y-116590000D01*
D15*
X322260000Y-98490000D02*
X301360000Y-119390000D01*
D14*
X58200000Y-102100000D02*
X58200000Y-111800000D01*
X72700000Y-121500000D02*
X72800000Y-121400000D01*
X61300000Y-118800000D02*
X72500000Y-118800000D01*
D15*
X104700000Y-159600000D02*
X104700000Y-112200000D01*
D14*
X61400000Y-123800000D02*
X61300000Y-123900000D01*
X118160000Y-248090000D02*
X118300000Y-248090000D01*
X58500000Y-91100000D02*
X58500000Y-90400000D01*
X61400000Y-96000000D02*
X60700000Y-95300000D01*
D15*
X121660000Y-102590000D02*
X174160000Y-102590000D01*
D14*
X106500000Y-111500000D02*
X106700000Y-111300000D01*
D15*
X116560000Y-111590000D02*
X116800000Y-111590000D01*
X224660000Y-144690000D02*
X194760000Y-144690000D01*
D14*
X55700000Y-90200000D02*
X57700000Y-92200000D01*
X99300000Y-207200000D02*
X99600000Y-207200000D01*
X59700000Y-95800000D02*
X60500000Y-96600000D01*
X334990000Y-83515000D02*
X133355000Y-83515000D01*
X122700000Y-144800000D02*
X122810000Y-144690000D01*
X106700000Y-111300000D02*
X77700000Y-82300000D01*
X61300000Y-108800000D02*
X74000000Y-108800000D01*
X104690000Y-291890000D02*
X173160000Y-291890000D01*
X62100000Y-69800000D02*
X67100000Y-69800000D01*
X119800000Y-144100000D02*
X110000000Y-134300000D01*
X58400000Y-100500000D02*
X59400000Y-101500000D01*
X61400000Y-101100000D02*
X77100000Y-101100000D01*
X59100000Y-66200000D02*
X88370000Y-66200000D01*
X67100000Y-84800000D02*
X61600000Y-84800000D01*
D15*
X76000000Y-97300000D02*
X72000000Y-97300000D01*
D14*
X73200000Y-114800000D02*
X67000000Y-114800000D01*
X74600000Y-122200000D02*
X72900000Y-120500000D01*
D15*
X99100000Y-198600000D02*
X99100000Y-113200000D01*
D14*
X79647500Y-316312500D02*
X81675000Y-314285000D01*
X52400000Y-82200000D02*
X57200000Y-82200000D01*
X102000000Y-196900000D02*
X102610000Y-196290000D01*
X127350000Y-288400000D02*
X127660000Y-288090000D01*
D15*
X116560000Y-207190000D02*
X116700000Y-207190000D01*
D14*
X130680000Y-223190000D02*
X129480000Y-224390000D01*
X52400000Y-79000000D02*
X58600000Y-79000000D01*
X56000000Y-77400000D02*
X62100000Y-71300000D01*
X66500000Y-82300000D02*
X72000000Y-82300000D01*
D15*
X257660000Y-111590000D02*
X272460000Y-96790000D01*
D14*
X173160000Y-244090000D02*
X176860000Y-240390000D01*
X77000000Y-80600000D02*
X107400000Y-111000000D01*
X52400000Y-91000000D02*
X55800000Y-91000000D01*
X93710000Y-244090000D02*
X173160000Y-244090000D01*
X78000000Y-88800000D02*
X102700000Y-113500000D01*
X54900000Y-93400000D02*
X55700000Y-94200000D01*
X61800000Y-72300000D02*
X55900000Y-78200000D01*
D15*
X77000000Y-99700000D02*
X76600000Y-99700000D01*
D14*
X79447500Y-326112500D02*
X88960000Y-316600000D01*
X80100000Y-120300000D02*
X80100000Y-263300000D01*
X72000000Y-97300000D02*
X61900000Y-97300000D01*
X77600000Y-89800000D02*
X67000000Y-89800000D01*
D15*
X72000000Y-268600000D02*
X72000000Y-122300000D01*
D14*
X59200000Y-95900000D02*
X59200000Y-91800000D01*
X102700000Y-113500000D02*
X102700000Y-191900000D01*
D15*
X102990000Y-310590000D02*
X67000000Y-274600000D01*
X116560000Y-159390000D02*
X116700000Y-159390000D01*
X72100000Y-112200000D02*
X72000000Y-112300000D01*
X300330000Y-310600000D02*
X125700000Y-310600000D01*
X178860000Y-289090000D02*
X174160000Y-293790000D01*
D14*
X129480000Y-128790000D02*
X129480000Y-142390000D01*
D15*
X82100000Y-121200000D02*
X73100000Y-112200000D01*
X322260000Y-289090000D02*
X322260000Y-289690000D01*
D14*
X56700000Y-97500000D02*
X57500000Y-98300000D01*
D15*
X224660000Y-240290000D02*
X194760000Y-240290000D01*
D14*
X106500000Y-149300000D02*
X106500000Y-111500000D01*
X102610000Y-196290000D02*
X173160000Y-196290000D01*
X304380000Y-270990000D02*
X130680000Y-270990000D01*
X52400000Y-77400000D02*
X56000000Y-77400000D01*
X112400000Y-107200000D02*
X112400000Y-107500000D01*
X82800000Y-120600000D02*
X82800000Y-246500000D01*
D15*
X111600000Y-118460000D02*
X111600000Y-107800000D01*
D14*
X101000000Y-212500000D02*
X101310000Y-212190000D01*
D15*
X181180000Y-190090000D02*
X224980000Y-190090000D01*
D14*
X56200000Y-83800000D02*
X60600000Y-88200000D01*
X59400000Y-105500000D02*
X60500000Y-106600000D01*
X115360000Y-259990000D02*
X300460000Y-259990000D01*
D15*
X257660000Y-207190000D02*
X272460000Y-192390000D01*
D14*
X52400000Y-92600000D02*
X55100000Y-92600000D01*
X55000000Y-91800000D02*
X56700000Y-93500000D01*
X72600000Y-322000000D02*
X72600000Y-313600000D01*
X118160000Y-152490000D02*
X148460000Y-152490000D01*
X98000000Y-261700000D02*
X113650000Y-261700000D01*
X56700000Y-99100000D02*
X56700000Y-101200000D01*
D15*
X224130000Y-91900000D02*
X224230000Y-92000000D01*
D14*
X77500000Y-78800000D02*
X109200000Y-110500000D01*
D15*
X116600000Y-302790000D02*
X257660000Y-302790000D01*
D14*
X104690000Y-290090000D02*
X79300000Y-264700000D01*
X61300000Y-123900000D02*
X61600000Y-123800000D01*
%TD*%
M02*
