%TF.GenerationSoftware,KiCad,Pcbnew,8.0.2-1*%
%TF.CreationDate,2024-06-03T17:46:54-04:00*%
%TF.ProjectId,Untitled,556e7469-746c-4656-942e-6b696361645f,rev?*%
%TF.SameCoordinates,Original*%
%TF.FileFunction,Drillmap*%
%TF.FilePolarity,Positive*%
%FSLAX45Y45*%
G04 Gerber Fmt 4.5, Leading zero omitted, Abs format (unit mm)*
G04 Created by KiCad (PCBNEW 8.0.2-1) date 2024-06-03 17:46:54*
%MOMM*%
%LPD*%
G01*
G04 APERTURE LIST*
%ADD10C,0.100000*%
%ADD11C,0.120000*%
%ADD12C,0.200000*%
%ADD13C,0.110000*%
%ADD14C,0.150000*%
G04 APERTURE END LIST*
D10*
X7160000Y-30000000D02*
G75*
G02*
X6840000Y-30000000I-160000J0D01*
G01*
X6840000Y-30000000D02*
G75*
G02*
X7160000Y-30000000I160000J0D01*
G01*
X5500000Y-3000000D02*
X5500000Y-7477500D01*
X7160000Y-18000000D02*
G75*
G02*
X6840000Y-18000000I-160000J0D01*
G01*
X6840000Y-18000000D02*
G75*
G02*
X7160000Y-18000000I160000J0D01*
G01*
X35000000Y-3000000D02*
X35000000Y-33000000D01*
X35000000Y-3000000D02*
X5500000Y-3000000D01*
X35000000Y-33000000D02*
X5500000Y-33000000D01*
X7160000Y-6000000D02*
G75*
G02*
X6840000Y-6000000I-160000J0D01*
G01*
X6840000Y-6000000D02*
G75*
G02*
X7160000Y-6000000I160000J0D01*
G01*
X5500000Y-13522500D02*
X5500000Y-33000000D01*
D11*
X5000000Y-7477500D02*
X5000000Y-10140500D01*
X5000000Y-10140500D02*
X5520000Y-10140500D01*
X5000000Y-10380500D02*
X5000000Y-13522500D01*
X5000000Y-13522500D02*
X5500000Y-13522500D01*
X5500000Y-7477500D02*
X5000000Y-7477500D01*
X5520000Y-10380500D02*
X5000000Y-10380500D01*
X5520000Y-10140500D02*
G75*
G02*
X5520000Y-10380500I0J-120000D01*
G01*
D12*
D10*
X5430000Y-13080000D02*
X5470000Y-13120000D01*
X5470000Y-13080000D02*
X5430000Y-13120000D01*
X5520000Y-13000000D02*
X5560000Y-13040000D01*
X5560000Y-13000000D02*
X5520000Y-13040000D01*
X5910000Y-13780000D02*
X5950000Y-13820000D01*
X5950000Y-13780000D02*
X5910000Y-13820000D01*
X5910000Y-14000000D02*
X5950000Y-14040000D01*
X5950000Y-14000000D02*
X5910000Y-14040000D01*
X6080000Y-7400000D02*
X6120000Y-7440000D01*
X6120000Y-7400000D02*
X6080000Y-7440000D01*
X6080000Y-7500000D02*
X6120000Y-7540000D01*
X6120000Y-7500000D02*
X6080000Y-7540000D01*
X6100000Y-9970000D02*
X6140000Y-10010000D01*
X6140000Y-9970000D02*
X6100000Y-10010000D01*
X6110000Y-7980000D02*
X6150000Y-8020000D01*
X6150000Y-7980000D02*
X6110000Y-8020000D01*
X6110000Y-8460000D02*
X6150000Y-8500000D01*
X6150000Y-8460000D02*
X6110000Y-8500000D01*
X6110000Y-9870000D02*
X6150000Y-9910000D01*
X6150000Y-9870000D02*
X6110000Y-9910000D01*
X6110000Y-10860000D02*
X6150000Y-10900000D01*
X6150000Y-10860000D02*
X6110000Y-10900000D01*
X6110000Y-10960000D02*
X6150000Y-11000000D01*
X6150000Y-10960000D02*
X6110000Y-11000000D01*
X6110000Y-11860000D02*
X6150000Y-11900000D01*
X6150000Y-11860000D02*
X6110000Y-11900000D01*
X6110000Y-11970000D02*
X6150000Y-12010000D01*
X6150000Y-11970000D02*
X6110000Y-12010000D01*
X6110000Y-12370000D02*
X6150000Y-12410000D01*
X6150000Y-12370000D02*
X6110000Y-12410000D01*
X6110000Y-12480000D02*
X6150000Y-12520000D01*
X6150000Y-12480000D02*
X6110000Y-12520000D01*
X6120000Y-6360000D02*
X6160000Y-6400000D01*
X6160000Y-6360000D02*
X6120000Y-6400000D01*
X6120000Y-6460000D02*
X6160000Y-6500000D01*
X6160000Y-6460000D02*
X6120000Y-6500000D01*
X6120000Y-6860000D02*
X6160000Y-6900000D01*
X6160000Y-6860000D02*
X6120000Y-6900000D01*
X6120000Y-6960000D02*
X6160000Y-7000000D01*
X6160000Y-6960000D02*
X6120000Y-7000000D01*
X6120000Y-7860000D02*
X6160000Y-7900000D01*
X6160000Y-7860000D02*
X6120000Y-7900000D01*
X6120000Y-8360000D02*
X6160000Y-8400000D01*
X6160000Y-8360000D02*
X6120000Y-8400000D01*
X6120000Y-8860000D02*
X6160000Y-8900000D01*
X6160000Y-8860000D02*
X6120000Y-8900000D01*
X6120000Y-8960000D02*
X6160000Y-9000000D01*
X6160000Y-8960000D02*
X6120000Y-9000000D01*
X6120000Y-9360000D02*
X6160000Y-9400000D01*
X6160000Y-9360000D02*
X6120000Y-9400000D01*
X6120000Y-9470000D02*
X6160000Y-9510000D01*
X6160000Y-9470000D02*
X6120000Y-9510000D01*
X6120000Y-10360000D02*
X6160000Y-10400000D01*
X6160000Y-10360000D02*
X6120000Y-10400000D01*
X6120000Y-10470000D02*
X6160000Y-10510000D01*
X6160000Y-10470000D02*
X6120000Y-10510000D01*
X6120000Y-11360000D02*
X6160000Y-11400000D01*
X6160000Y-11360000D02*
X6120000Y-11400000D01*
X6130000Y-11480000D02*
X6170000Y-11520000D01*
X6170000Y-11480000D02*
X6130000Y-11520000D01*
X6680000Y-6460000D02*
X6720000Y-6500000D01*
X6720000Y-6460000D02*
X6680000Y-6500000D01*
X6680000Y-6960000D02*
X6720000Y-7000000D01*
X6720000Y-6960000D02*
X6680000Y-7000000D01*
X6680000Y-7960000D02*
X6720000Y-8000000D01*
X6720000Y-7960000D02*
X6680000Y-8000000D01*
X6680000Y-8460000D02*
X6720000Y-8500000D01*
X6720000Y-8460000D02*
X6680000Y-8500000D01*
X6680000Y-8960000D02*
X6720000Y-9000000D01*
X6720000Y-8960000D02*
X6680000Y-9000000D01*
X6680000Y-9460000D02*
X6720000Y-9500000D01*
X6720000Y-9460000D02*
X6680000Y-9500000D01*
X6680000Y-9960000D02*
X6720000Y-10000000D01*
X6720000Y-9960000D02*
X6680000Y-10000000D01*
X6680000Y-10460000D02*
X6720000Y-10500000D01*
X6720000Y-10460000D02*
X6680000Y-10500000D01*
X6680000Y-10960000D02*
X6720000Y-11000000D01*
X6720000Y-10960000D02*
X6680000Y-11000000D01*
X6680000Y-11460000D02*
X6720000Y-11500000D01*
X6720000Y-11460000D02*
X6680000Y-11500000D01*
X6680000Y-11960000D02*
X6720000Y-12000000D01*
X6720000Y-11960000D02*
X6680000Y-12000000D01*
X6680000Y-12460000D02*
X6720000Y-12500000D01*
X6720000Y-12460000D02*
X6680000Y-12500000D01*
X6690000Y-7460000D02*
X6730000Y-7500000D01*
X6730000Y-7460000D02*
X6690000Y-7500000D01*
X7180000Y-6710000D02*
X7220000Y-6750000D01*
X7220000Y-6710000D02*
X7180000Y-6750000D01*
X7180000Y-7210000D02*
X7220000Y-7250000D01*
X7220000Y-7210000D02*
X7180000Y-7250000D01*
X7180000Y-7710000D02*
X7220000Y-7750000D01*
X7220000Y-7710000D02*
X7180000Y-7750000D01*
X7180000Y-8210000D02*
X7220000Y-8250000D01*
X7220000Y-8210000D02*
X7180000Y-8250000D01*
X7180000Y-8710000D02*
X7220000Y-8750000D01*
X7220000Y-8710000D02*
X7180000Y-8750000D01*
X7180000Y-9210000D02*
X7220000Y-9250000D01*
X7220000Y-9210000D02*
X7180000Y-9250000D01*
X7180000Y-9710000D02*
X7220000Y-9750000D01*
X7220000Y-9710000D02*
X7180000Y-9750000D01*
X7180000Y-10210000D02*
X7220000Y-10250000D01*
X7220000Y-10210000D02*
X7180000Y-10250000D01*
X7180000Y-10710000D02*
X7220000Y-10750000D01*
X7220000Y-10710000D02*
X7180000Y-10750000D01*
X7180000Y-11210000D02*
X7220000Y-11250000D01*
X7220000Y-11210000D02*
X7180000Y-11250000D01*
X7180000Y-11710000D02*
X7220000Y-11750000D01*
X7220000Y-11710000D02*
X7180000Y-11750000D01*
X7180000Y-12210000D02*
X7220000Y-12250000D01*
X7220000Y-12210000D02*
X7180000Y-12250000D01*
X7230000Y-31070000D02*
X7270000Y-31110000D01*
X7270000Y-31070000D02*
X7230000Y-31110000D01*
X7240000Y-32180000D02*
X7280000Y-32220000D01*
X7280000Y-32180000D02*
X7240000Y-32220000D01*
X12886000Y-28779000D02*
X12926000Y-28819000D01*
X12926000Y-28779000D02*
X12886000Y-28819000D01*
X12896000Y-9669000D02*
X12936000Y-9709000D01*
X12936000Y-9669000D02*
X12896000Y-9709000D01*
X12896000Y-14439000D02*
X12936000Y-14479000D01*
X12936000Y-14439000D02*
X12896000Y-14479000D01*
X12896000Y-19229000D02*
X12936000Y-19269000D01*
X12936000Y-19229000D02*
X12896000Y-19269000D01*
X12896000Y-23999000D02*
X12936000Y-24039000D01*
X12936000Y-23999000D02*
X12896000Y-24039000D01*
X12916000Y-9429000D02*
X12956000Y-9469000D01*
X12956000Y-9429000D02*
X12916000Y-9469000D01*
X12916000Y-14209000D02*
X12956000Y-14249000D01*
X12956000Y-14209000D02*
X12916000Y-14249000D01*
X12916000Y-18989000D02*
X12956000Y-19029000D01*
X12956000Y-18989000D02*
X12916000Y-19029000D01*
X12916000Y-23769000D02*
X12956000Y-23809000D01*
X12956000Y-23769000D02*
X12916000Y-23809000D01*
X12916000Y-28549000D02*
X12956000Y-28589000D01*
X12956000Y-28549000D02*
X12916000Y-28589000D01*
X13086000Y-24119000D02*
X13126000Y-24159000D01*
X13126000Y-24119000D02*
X13086000Y-24159000D01*
X13086000Y-28889000D02*
X13126000Y-28929000D01*
X13126000Y-28889000D02*
X13086000Y-28929000D01*
X13096000Y-9779000D02*
X13136000Y-9819000D01*
X13136000Y-9779000D02*
X13096000Y-9819000D01*
X13096000Y-14549000D02*
X13136000Y-14589000D01*
X13136000Y-14549000D02*
X13096000Y-14589000D01*
X13096000Y-19329000D02*
X13136000Y-19369000D01*
X13136000Y-19329000D02*
X13096000Y-19369000D01*
X13306000Y-9419000D02*
X13346000Y-9459000D01*
X13346000Y-9419000D02*
X13306000Y-9459000D01*
X13306000Y-14199000D02*
X13346000Y-14239000D01*
X13346000Y-14199000D02*
X13306000Y-14239000D01*
X13306000Y-18979000D02*
X13346000Y-19019000D01*
X13346000Y-18979000D02*
X13306000Y-19019000D01*
X13306000Y-23759000D02*
X13346000Y-23799000D01*
X13346000Y-23759000D02*
X13306000Y-23799000D01*
X13306000Y-28539000D02*
X13346000Y-28579000D01*
X13346000Y-28539000D02*
X13306000Y-28579000D01*
X17656000Y-19229000D02*
X17696000Y-19269000D01*
X17696000Y-19229000D02*
X17656000Y-19269000D01*
X17666000Y-9659000D02*
X17706000Y-9699000D01*
X17706000Y-9659000D02*
X17666000Y-9699000D01*
X17666000Y-23999000D02*
X17706000Y-24039000D01*
X17706000Y-23999000D02*
X17666000Y-24039000D01*
X17676000Y-14449000D02*
X17716000Y-14489000D01*
X17716000Y-14449000D02*
X17676000Y-14489000D01*
X17676000Y-28789000D02*
X17716000Y-28829000D01*
X17716000Y-28789000D02*
X17676000Y-28829000D01*
X17696000Y-9429000D02*
X17736000Y-9469000D01*
X17736000Y-9429000D02*
X17696000Y-9469000D01*
X17696000Y-14209000D02*
X17736000Y-14249000D01*
X17736000Y-14209000D02*
X17696000Y-14249000D01*
X17696000Y-18989000D02*
X17736000Y-19029000D01*
X17736000Y-18989000D02*
X17696000Y-19029000D01*
X17696000Y-23769000D02*
X17736000Y-23809000D01*
X17736000Y-23769000D02*
X17696000Y-23809000D01*
X17696000Y-28549000D02*
X17736000Y-28589000D01*
X17736000Y-28549000D02*
X17696000Y-28589000D01*
X17866000Y-9769000D02*
X17906000Y-9809000D01*
X17906000Y-9769000D02*
X17866000Y-9809000D01*
X17866000Y-28889000D02*
X17906000Y-28929000D01*
X17906000Y-28889000D02*
X17866000Y-28929000D01*
X17876000Y-14549000D02*
X17916000Y-14589000D01*
X17916000Y-14549000D02*
X17876000Y-14589000D01*
X17876000Y-19339000D02*
X17916000Y-19379000D01*
X17916000Y-19339000D02*
X17876000Y-19379000D01*
X17876000Y-24109000D02*
X17916000Y-24149000D01*
X17916000Y-24109000D02*
X17876000Y-24149000D01*
X18086000Y-9419000D02*
X18126000Y-9459000D01*
X18126000Y-9419000D02*
X18086000Y-9459000D01*
X18086000Y-14199000D02*
X18126000Y-14239000D01*
X18126000Y-14199000D02*
X18086000Y-14239000D01*
X18086000Y-18979000D02*
X18126000Y-19019000D01*
X18126000Y-18979000D02*
X18086000Y-19019000D01*
X18086000Y-23759000D02*
X18126000Y-23799000D01*
X18126000Y-23759000D02*
X18086000Y-23799000D01*
X18086000Y-28539000D02*
X18126000Y-28579000D01*
X18126000Y-28539000D02*
X18086000Y-28579000D01*
X22446000Y-9669000D02*
X22486000Y-9709000D01*
X22486000Y-9669000D02*
X22446000Y-9709000D01*
X22446000Y-19219000D02*
X22486000Y-19259000D01*
X22486000Y-19219000D02*
X22446000Y-19259000D01*
X22446000Y-23999000D02*
X22486000Y-24039000D01*
X22486000Y-23999000D02*
X22446000Y-24039000D01*
X22446000Y-28789000D02*
X22486000Y-28829000D01*
X22486000Y-28789000D02*
X22446000Y-28829000D01*
X22456000Y-14439000D02*
X22496000Y-14479000D01*
X22496000Y-14439000D02*
X22456000Y-14479000D01*
X22476000Y-9429000D02*
X22516000Y-9469000D01*
X22516000Y-9429000D02*
X22476000Y-9469000D01*
X22476000Y-14209000D02*
X22516000Y-14249000D01*
X22516000Y-14209000D02*
X22476000Y-14249000D01*
X22476000Y-18989000D02*
X22516000Y-19029000D01*
X22516000Y-18989000D02*
X22476000Y-19029000D01*
X22476000Y-23769000D02*
X22516000Y-23809000D01*
X22516000Y-23769000D02*
X22476000Y-23809000D01*
X22476000Y-28549000D02*
X22516000Y-28589000D01*
X22516000Y-28549000D02*
X22476000Y-28589000D01*
X22646000Y-14549000D02*
X22686000Y-14589000D01*
X22686000Y-14549000D02*
X22646000Y-14589000D01*
X22646000Y-28889000D02*
X22686000Y-28929000D01*
X22686000Y-28889000D02*
X22646000Y-28929000D01*
X22656000Y-9769000D02*
X22696000Y-9809000D01*
X22696000Y-9769000D02*
X22656000Y-9809000D01*
X22656000Y-19329000D02*
X22696000Y-19369000D01*
X22696000Y-19329000D02*
X22656000Y-19369000D01*
X22656000Y-24109000D02*
X22696000Y-24149000D01*
X22696000Y-24109000D02*
X22656000Y-24149000D01*
X22866000Y-9419000D02*
X22906000Y-9459000D01*
X22906000Y-9419000D02*
X22866000Y-9459000D01*
X22866000Y-14199000D02*
X22906000Y-14239000D01*
X22906000Y-14199000D02*
X22866000Y-14239000D01*
X22866000Y-18979000D02*
X22906000Y-19019000D01*
X22906000Y-18979000D02*
X22866000Y-19019000D01*
X22866000Y-23759000D02*
X22906000Y-23799000D01*
X22906000Y-23759000D02*
X22866000Y-23799000D01*
X22866000Y-28539000D02*
X22906000Y-28579000D01*
X22906000Y-28539000D02*
X22866000Y-28579000D01*
X27226000Y-9659000D02*
X27266000Y-9699000D01*
X27266000Y-9659000D02*
X27226000Y-9699000D01*
X27226000Y-19229000D02*
X27266000Y-19269000D01*
X27266000Y-19229000D02*
X27226000Y-19269000D01*
X27226000Y-24009000D02*
X27266000Y-24049000D01*
X27266000Y-24009000D02*
X27226000Y-24049000D01*
X27236000Y-14439000D02*
X27276000Y-14479000D01*
X27276000Y-14439000D02*
X27236000Y-14479000D01*
X27236000Y-28789000D02*
X27276000Y-28829000D01*
X27276000Y-28789000D02*
X27236000Y-28829000D01*
X27256000Y-9429000D02*
X27296000Y-9469000D01*
X27296000Y-9429000D02*
X27256000Y-9469000D01*
X27256000Y-14209000D02*
X27296000Y-14249000D01*
X27296000Y-14209000D02*
X27256000Y-14249000D01*
X27256000Y-18989000D02*
X27296000Y-19029000D01*
X27296000Y-18989000D02*
X27256000Y-19029000D01*
X27256000Y-23769000D02*
X27296000Y-23809000D01*
X27296000Y-23769000D02*
X27256000Y-23809000D01*
X27256000Y-28549000D02*
X27296000Y-28589000D01*
X27296000Y-28549000D02*
X27256000Y-28589000D01*
X27426000Y-19329000D02*
X27466000Y-19369000D01*
X27466000Y-19329000D02*
X27426000Y-19369000D01*
X27426000Y-24119000D02*
X27466000Y-24159000D01*
X27466000Y-24119000D02*
X27426000Y-24159000D01*
X27426000Y-28889000D02*
X27466000Y-28929000D01*
X27466000Y-28889000D02*
X27426000Y-28929000D01*
X27436000Y-9769000D02*
X27476000Y-9809000D01*
X27476000Y-9769000D02*
X27436000Y-9809000D01*
X27436000Y-14549000D02*
X27476000Y-14589000D01*
X27476000Y-14549000D02*
X27436000Y-14589000D01*
X27646000Y-9419000D02*
X27686000Y-9459000D01*
X27686000Y-9419000D02*
X27646000Y-9459000D01*
X27646000Y-14199000D02*
X27686000Y-14239000D01*
X27686000Y-14199000D02*
X27646000Y-14239000D01*
X27646000Y-18979000D02*
X27686000Y-19019000D01*
X27686000Y-18979000D02*
X27646000Y-19019000D01*
X27646000Y-23759000D02*
X27686000Y-23799000D01*
X27686000Y-23759000D02*
X27646000Y-23799000D01*
X27646000Y-28539000D02*
X27686000Y-28579000D01*
X27686000Y-28539000D02*
X27646000Y-28579000D01*
X32006000Y-9659000D02*
X32046000Y-9699000D01*
X32046000Y-9659000D02*
X32006000Y-9699000D01*
X32006000Y-14439000D02*
X32046000Y-14479000D01*
X32046000Y-14439000D02*
X32006000Y-14479000D01*
X32006000Y-19229000D02*
X32046000Y-19269000D01*
X32046000Y-19229000D02*
X32006000Y-19269000D01*
X32006000Y-23999000D02*
X32046000Y-24039000D01*
X32046000Y-23999000D02*
X32006000Y-24039000D01*
X32016000Y-28779000D02*
X32056000Y-28819000D01*
X32056000Y-28779000D02*
X32016000Y-28819000D01*
X32036000Y-9429000D02*
X32076000Y-9469000D01*
X32076000Y-9429000D02*
X32036000Y-9469000D01*
X32036000Y-14209000D02*
X32076000Y-14249000D01*
X32076000Y-14209000D02*
X32036000Y-14249000D01*
X32036000Y-18989000D02*
X32076000Y-19029000D01*
X32076000Y-18989000D02*
X32036000Y-19029000D01*
X32036000Y-23769000D02*
X32076000Y-23809000D01*
X32076000Y-23769000D02*
X32036000Y-23809000D01*
X32036000Y-28549000D02*
X32076000Y-28589000D01*
X32076000Y-28549000D02*
X32036000Y-28589000D01*
X32206000Y-9769000D02*
X32246000Y-9809000D01*
X32246000Y-9769000D02*
X32206000Y-9809000D01*
X32206000Y-14559000D02*
X32246000Y-14599000D01*
X32246000Y-14559000D02*
X32206000Y-14599000D01*
X32206000Y-19339000D02*
X32246000Y-19379000D01*
X32246000Y-19339000D02*
X32206000Y-19379000D01*
X32206000Y-28879000D02*
X32246000Y-28919000D01*
X32246000Y-28879000D02*
X32206000Y-28919000D01*
X32226000Y-24109000D02*
X32266000Y-24149000D01*
X32266000Y-24109000D02*
X32226000Y-24149000D01*
X32426000Y-9419000D02*
X32466000Y-9459000D01*
X32466000Y-9419000D02*
X32426000Y-9459000D01*
X32426000Y-14199000D02*
X32466000Y-14239000D01*
X32466000Y-14199000D02*
X32426000Y-14239000D01*
X32426000Y-18979000D02*
X32466000Y-19019000D01*
X32466000Y-18979000D02*
X32426000Y-19019000D01*
X32426000Y-23759000D02*
X32466000Y-23799000D01*
X32466000Y-23759000D02*
X32426000Y-23799000D01*
X32426000Y-28539000D02*
X32466000Y-28579000D01*
X32466000Y-28539000D02*
X32426000Y-28579000D01*
D13*
X6355000Y-31740000D02*
G75*
G02*
X6245000Y-31740000I-55000J0D01*
G01*
X6245000Y-31740000D02*
G75*
G02*
X6355000Y-31740000I55000J0D01*
G01*
D14*
X5797500Y-31162500D02*
X5797500Y-31312500D01*
X5722500Y-31237500D02*
X5872500Y-31237500D01*
X5797500Y-32167500D02*
X5797500Y-32317500D01*
X5722500Y-32242500D02*
X5872500Y-32242500D01*
X6802500Y-31162500D02*
X6802500Y-31312500D01*
X6727500Y-31237500D02*
X6877500Y-31237500D01*
X6802500Y-32167500D02*
X6802500Y-32317500D01*
X6727500Y-32242500D02*
X6877500Y-32242500D01*
D12*
X5254777Y-33316484D02*
X5254777Y-33116484D01*
X5254777Y-33116484D02*
X5302396Y-33116484D01*
X5302396Y-33116484D02*
X5330967Y-33126008D01*
X5330967Y-33126008D02*
X5350015Y-33145055D01*
X5350015Y-33145055D02*
X5359539Y-33164103D01*
X5359539Y-33164103D02*
X5369063Y-33202198D01*
X5369063Y-33202198D02*
X5369063Y-33230769D01*
X5369063Y-33230769D02*
X5359539Y-33268865D01*
X5359539Y-33268865D02*
X5350015Y-33287912D01*
X5350015Y-33287912D02*
X5330967Y-33306960D01*
X5330967Y-33306960D02*
X5302396Y-33316484D01*
X5302396Y-33316484D02*
X5254777Y-33316484D01*
X5454777Y-33316484D02*
X5454777Y-33183150D01*
X5454777Y-33221246D02*
X5464301Y-33202198D01*
X5464301Y-33202198D02*
X5473824Y-33192674D01*
X5473824Y-33192674D02*
X5492872Y-33183150D01*
X5492872Y-33183150D02*
X5511920Y-33183150D01*
X5578586Y-33316484D02*
X5578586Y-33183150D01*
X5578586Y-33116484D02*
X5569063Y-33126008D01*
X5569063Y-33126008D02*
X5578586Y-33135531D01*
X5578586Y-33135531D02*
X5588110Y-33126008D01*
X5588110Y-33126008D02*
X5578586Y-33116484D01*
X5578586Y-33116484D02*
X5578586Y-33135531D01*
X5702396Y-33316484D02*
X5683348Y-33306960D01*
X5683348Y-33306960D02*
X5673824Y-33287912D01*
X5673824Y-33287912D02*
X5673824Y-33116484D01*
X5807158Y-33316484D02*
X5788110Y-33306960D01*
X5788110Y-33306960D02*
X5778586Y-33287912D01*
X5778586Y-33287912D02*
X5778586Y-33116484D01*
X6035729Y-33316484D02*
X6035729Y-33116484D01*
X6035729Y-33116484D02*
X6102396Y-33259341D01*
X6102396Y-33259341D02*
X6169062Y-33116484D01*
X6169062Y-33116484D02*
X6169062Y-33316484D01*
X6350015Y-33316484D02*
X6350015Y-33211722D01*
X6350015Y-33211722D02*
X6340491Y-33192674D01*
X6340491Y-33192674D02*
X6321443Y-33183150D01*
X6321443Y-33183150D02*
X6283348Y-33183150D01*
X6283348Y-33183150D02*
X6264301Y-33192674D01*
X6350015Y-33306960D02*
X6330967Y-33316484D01*
X6330967Y-33316484D02*
X6283348Y-33316484D01*
X6283348Y-33316484D02*
X6264301Y-33306960D01*
X6264301Y-33306960D02*
X6254777Y-33287912D01*
X6254777Y-33287912D02*
X6254777Y-33268865D01*
X6254777Y-33268865D02*
X6264301Y-33249817D01*
X6264301Y-33249817D02*
X6283348Y-33240293D01*
X6283348Y-33240293D02*
X6330967Y-33240293D01*
X6330967Y-33240293D02*
X6350015Y-33230769D01*
X6445253Y-33183150D02*
X6445253Y-33383150D01*
X6445253Y-33192674D02*
X6464301Y-33183150D01*
X6464301Y-33183150D02*
X6502396Y-33183150D01*
X6502396Y-33183150D02*
X6521443Y-33192674D01*
X6521443Y-33192674D02*
X6530967Y-33202198D01*
X6530967Y-33202198D02*
X6540491Y-33221246D01*
X6540491Y-33221246D02*
X6540491Y-33278388D01*
X6540491Y-33278388D02*
X6530967Y-33297436D01*
X6530967Y-33297436D02*
X6521443Y-33306960D01*
X6521443Y-33306960D02*
X6502396Y-33316484D01*
X6502396Y-33316484D02*
X6464301Y-33316484D01*
X6464301Y-33316484D02*
X6445253Y-33306960D01*
X6626205Y-33297436D02*
X6635729Y-33306960D01*
X6635729Y-33306960D02*
X6626205Y-33316484D01*
X6626205Y-33316484D02*
X6616682Y-33306960D01*
X6616682Y-33306960D02*
X6626205Y-33297436D01*
X6626205Y-33297436D02*
X6626205Y-33316484D01*
X6626205Y-33192674D02*
X6635729Y-33202198D01*
X6635729Y-33202198D02*
X6626205Y-33211722D01*
X6626205Y-33211722D02*
X6616682Y-33202198D01*
X6616682Y-33202198D02*
X6626205Y-33192674D01*
X6626205Y-33192674D02*
X6626205Y-33211722D01*
D10*
X4954000Y-33625000D02*
X4994000Y-33665000D01*
X4994000Y-33625000D02*
X4954000Y-33665000D01*
D12*
X5292872Y-33536484D02*
X5311920Y-33536484D01*
X5311920Y-33536484D02*
X5330967Y-33546008D01*
X5330967Y-33546008D02*
X5340491Y-33555531D01*
X5340491Y-33555531D02*
X5350015Y-33574579D01*
X5350015Y-33574579D02*
X5359539Y-33612674D01*
X5359539Y-33612674D02*
X5359539Y-33660293D01*
X5359539Y-33660293D02*
X5350015Y-33698389D01*
X5350015Y-33698389D02*
X5340491Y-33717436D01*
X5340491Y-33717436D02*
X5330967Y-33726960D01*
X5330967Y-33726960D02*
X5311920Y-33736484D01*
X5311920Y-33736484D02*
X5292872Y-33736484D01*
X5292872Y-33736484D02*
X5273824Y-33726960D01*
X5273824Y-33726960D02*
X5264301Y-33717436D01*
X5264301Y-33717436D02*
X5254777Y-33698389D01*
X5254777Y-33698389D02*
X5245253Y-33660293D01*
X5245253Y-33660293D02*
X5245253Y-33612674D01*
X5245253Y-33612674D02*
X5254777Y-33574579D01*
X5254777Y-33574579D02*
X5264301Y-33555531D01*
X5264301Y-33555531D02*
X5273824Y-33546008D01*
X5273824Y-33546008D02*
X5292872Y-33536484D01*
X5445253Y-33717436D02*
X5454777Y-33726960D01*
X5454777Y-33726960D02*
X5445253Y-33736484D01*
X5445253Y-33736484D02*
X5435729Y-33726960D01*
X5435729Y-33726960D02*
X5445253Y-33717436D01*
X5445253Y-33717436D02*
X5445253Y-33736484D01*
X5626205Y-33603150D02*
X5626205Y-33736484D01*
X5578586Y-33526960D02*
X5530967Y-33669817D01*
X5530967Y-33669817D02*
X5654777Y-33669817D01*
X5769062Y-33536484D02*
X5788110Y-33536484D01*
X5788110Y-33536484D02*
X5807158Y-33546008D01*
X5807158Y-33546008D02*
X5816682Y-33555531D01*
X5816682Y-33555531D02*
X5826205Y-33574579D01*
X5826205Y-33574579D02*
X5835729Y-33612674D01*
X5835729Y-33612674D02*
X5835729Y-33660293D01*
X5835729Y-33660293D02*
X5826205Y-33698389D01*
X5826205Y-33698389D02*
X5816682Y-33717436D01*
X5816682Y-33717436D02*
X5807158Y-33726960D01*
X5807158Y-33726960D02*
X5788110Y-33736484D01*
X5788110Y-33736484D02*
X5769062Y-33736484D01*
X5769062Y-33736484D02*
X5750015Y-33726960D01*
X5750015Y-33726960D02*
X5740491Y-33717436D01*
X5740491Y-33717436D02*
X5730967Y-33698389D01*
X5730967Y-33698389D02*
X5721443Y-33660293D01*
X5721443Y-33660293D02*
X5721443Y-33612674D01*
X5721443Y-33612674D02*
X5730967Y-33574579D01*
X5730967Y-33574579D02*
X5740491Y-33555531D01*
X5740491Y-33555531D02*
X5750015Y-33546008D01*
X5750015Y-33546008D02*
X5769062Y-33536484D01*
X5959539Y-33536484D02*
X5978586Y-33536484D01*
X5978586Y-33536484D02*
X5997634Y-33546008D01*
X5997634Y-33546008D02*
X6007158Y-33555531D01*
X6007158Y-33555531D02*
X6016682Y-33574579D01*
X6016682Y-33574579D02*
X6026205Y-33612674D01*
X6026205Y-33612674D02*
X6026205Y-33660293D01*
X6026205Y-33660293D02*
X6016682Y-33698389D01*
X6016682Y-33698389D02*
X6007158Y-33717436D01*
X6007158Y-33717436D02*
X5997634Y-33726960D01*
X5997634Y-33726960D02*
X5978586Y-33736484D01*
X5978586Y-33736484D02*
X5959539Y-33736484D01*
X5959539Y-33736484D02*
X5940491Y-33726960D01*
X5940491Y-33726960D02*
X5930967Y-33717436D01*
X5930967Y-33717436D02*
X5921443Y-33698389D01*
X5921443Y-33698389D02*
X5911920Y-33660293D01*
X5911920Y-33660293D02*
X5911920Y-33612674D01*
X5911920Y-33612674D02*
X5921443Y-33574579D01*
X5921443Y-33574579D02*
X5930967Y-33555531D01*
X5930967Y-33555531D02*
X5940491Y-33546008D01*
X5940491Y-33546008D02*
X5959539Y-33536484D01*
X6111920Y-33736484D02*
X6111920Y-33603150D01*
X6111920Y-33622198D02*
X6121443Y-33612674D01*
X6121443Y-33612674D02*
X6140491Y-33603150D01*
X6140491Y-33603150D02*
X6169063Y-33603150D01*
X6169063Y-33603150D02*
X6188110Y-33612674D01*
X6188110Y-33612674D02*
X6197634Y-33631722D01*
X6197634Y-33631722D02*
X6197634Y-33736484D01*
X6197634Y-33631722D02*
X6207158Y-33612674D01*
X6207158Y-33612674D02*
X6226205Y-33603150D01*
X6226205Y-33603150D02*
X6254777Y-33603150D01*
X6254777Y-33603150D02*
X6273824Y-33612674D01*
X6273824Y-33612674D02*
X6283348Y-33631722D01*
X6283348Y-33631722D02*
X6283348Y-33736484D01*
X6378586Y-33736484D02*
X6378586Y-33603150D01*
X6378586Y-33622198D02*
X6388110Y-33612674D01*
X6388110Y-33612674D02*
X6407158Y-33603150D01*
X6407158Y-33603150D02*
X6435729Y-33603150D01*
X6435729Y-33603150D02*
X6454777Y-33612674D01*
X6454777Y-33612674D02*
X6464301Y-33631722D01*
X6464301Y-33631722D02*
X6464301Y-33736484D01*
X6464301Y-33631722D02*
X6473824Y-33612674D01*
X6473824Y-33612674D02*
X6492872Y-33603150D01*
X6492872Y-33603150D02*
X6521443Y-33603150D01*
X6521443Y-33603150D02*
X6540491Y-33612674D01*
X6540491Y-33612674D02*
X6550015Y-33631722D01*
X6550015Y-33631722D02*
X6550015Y-33736484D01*
X6940491Y-33526960D02*
X6769063Y-33784103D01*
X7197634Y-33536484D02*
X7216682Y-33536484D01*
X7216682Y-33536484D02*
X7235729Y-33546008D01*
X7235729Y-33546008D02*
X7245253Y-33555531D01*
X7245253Y-33555531D02*
X7254777Y-33574579D01*
X7254777Y-33574579D02*
X7264301Y-33612674D01*
X7264301Y-33612674D02*
X7264301Y-33660293D01*
X7264301Y-33660293D02*
X7254777Y-33698389D01*
X7254777Y-33698389D02*
X7245253Y-33717436D01*
X7245253Y-33717436D02*
X7235729Y-33726960D01*
X7235729Y-33726960D02*
X7216682Y-33736484D01*
X7216682Y-33736484D02*
X7197634Y-33736484D01*
X7197634Y-33736484D02*
X7178586Y-33726960D01*
X7178586Y-33726960D02*
X7169063Y-33717436D01*
X7169063Y-33717436D02*
X7159539Y-33698389D01*
X7159539Y-33698389D02*
X7150015Y-33660293D01*
X7150015Y-33660293D02*
X7150015Y-33612674D01*
X7150015Y-33612674D02*
X7159539Y-33574579D01*
X7159539Y-33574579D02*
X7169063Y-33555531D01*
X7169063Y-33555531D02*
X7178586Y-33546008D01*
X7178586Y-33546008D02*
X7197634Y-33536484D01*
X7350015Y-33717436D02*
X7359539Y-33726960D01*
X7359539Y-33726960D02*
X7350015Y-33736484D01*
X7350015Y-33736484D02*
X7340491Y-33726960D01*
X7340491Y-33726960D02*
X7350015Y-33717436D01*
X7350015Y-33717436D02*
X7350015Y-33736484D01*
X7483348Y-33536484D02*
X7502396Y-33536484D01*
X7502396Y-33536484D02*
X7521444Y-33546008D01*
X7521444Y-33546008D02*
X7530967Y-33555531D01*
X7530967Y-33555531D02*
X7540491Y-33574579D01*
X7540491Y-33574579D02*
X7550015Y-33612674D01*
X7550015Y-33612674D02*
X7550015Y-33660293D01*
X7550015Y-33660293D02*
X7540491Y-33698389D01*
X7540491Y-33698389D02*
X7530967Y-33717436D01*
X7530967Y-33717436D02*
X7521444Y-33726960D01*
X7521444Y-33726960D02*
X7502396Y-33736484D01*
X7502396Y-33736484D02*
X7483348Y-33736484D01*
X7483348Y-33736484D02*
X7464301Y-33726960D01*
X7464301Y-33726960D02*
X7454777Y-33717436D01*
X7454777Y-33717436D02*
X7445253Y-33698389D01*
X7445253Y-33698389D02*
X7435729Y-33660293D01*
X7435729Y-33660293D02*
X7435729Y-33612674D01*
X7435729Y-33612674D02*
X7445253Y-33574579D01*
X7445253Y-33574579D02*
X7454777Y-33555531D01*
X7454777Y-33555531D02*
X7464301Y-33546008D01*
X7464301Y-33546008D02*
X7483348Y-33536484D01*
X7740491Y-33736484D02*
X7626206Y-33736484D01*
X7683348Y-33736484D02*
X7683348Y-33536484D01*
X7683348Y-33536484D02*
X7664301Y-33565055D01*
X7664301Y-33565055D02*
X7645253Y-33584103D01*
X7645253Y-33584103D02*
X7626206Y-33593627D01*
X7921444Y-33536484D02*
X7826206Y-33536484D01*
X7826206Y-33536484D02*
X7816682Y-33631722D01*
X7816682Y-33631722D02*
X7826206Y-33622198D01*
X7826206Y-33622198D02*
X7845253Y-33612674D01*
X7845253Y-33612674D02*
X7892872Y-33612674D01*
X7892872Y-33612674D02*
X7911920Y-33622198D01*
X7911920Y-33622198D02*
X7921444Y-33631722D01*
X7921444Y-33631722D02*
X7930967Y-33650770D01*
X7930967Y-33650770D02*
X7930967Y-33698389D01*
X7930967Y-33698389D02*
X7921444Y-33717436D01*
X7921444Y-33717436D02*
X7911920Y-33726960D01*
X7911920Y-33726960D02*
X7892872Y-33736484D01*
X7892872Y-33736484D02*
X7845253Y-33736484D01*
X7845253Y-33736484D02*
X7826206Y-33726960D01*
X7826206Y-33726960D02*
X7816682Y-33717436D01*
X7997634Y-33536484D02*
X8130967Y-33536484D01*
X8130967Y-33536484D02*
X8045253Y-33736484D01*
X8197634Y-33536484D02*
X8197634Y-33574579D01*
X8273825Y-33536484D02*
X8273825Y-33574579D01*
X8569063Y-33812674D02*
X8559539Y-33803150D01*
X8559539Y-33803150D02*
X8540491Y-33774579D01*
X8540491Y-33774579D02*
X8530968Y-33755531D01*
X8530968Y-33755531D02*
X8521444Y-33726960D01*
X8521444Y-33726960D02*
X8511920Y-33679341D01*
X8511920Y-33679341D02*
X8511920Y-33641246D01*
X8511920Y-33641246D02*
X8521444Y-33593627D01*
X8521444Y-33593627D02*
X8530968Y-33565055D01*
X8530968Y-33565055D02*
X8540491Y-33546008D01*
X8540491Y-33546008D02*
X8559539Y-33517436D01*
X8559539Y-33517436D02*
X8569063Y-33507912D01*
X8750015Y-33736484D02*
X8635730Y-33736484D01*
X8692872Y-33736484D02*
X8692872Y-33536484D01*
X8692872Y-33536484D02*
X8673825Y-33565055D01*
X8673825Y-33565055D02*
X8654777Y-33584103D01*
X8654777Y-33584103D02*
X8635730Y-33593627D01*
X8930968Y-33536484D02*
X8835730Y-33536484D01*
X8835730Y-33536484D02*
X8826206Y-33631722D01*
X8826206Y-33631722D02*
X8835730Y-33622198D01*
X8835730Y-33622198D02*
X8854777Y-33612674D01*
X8854777Y-33612674D02*
X8902396Y-33612674D01*
X8902396Y-33612674D02*
X8921444Y-33622198D01*
X8921444Y-33622198D02*
X8930968Y-33631722D01*
X8930968Y-33631722D02*
X8940491Y-33650770D01*
X8940491Y-33650770D02*
X8940491Y-33698389D01*
X8940491Y-33698389D02*
X8930968Y-33717436D01*
X8930968Y-33717436D02*
X8921444Y-33726960D01*
X8921444Y-33726960D02*
X8902396Y-33736484D01*
X8902396Y-33736484D02*
X8854777Y-33736484D01*
X8854777Y-33736484D02*
X8835730Y-33726960D01*
X8835730Y-33726960D02*
X8826206Y-33717436D01*
X9007158Y-33536484D02*
X9140491Y-33536484D01*
X9140491Y-33536484D02*
X9054777Y-33736484D01*
X9369063Y-33736484D02*
X9369063Y-33536484D01*
X9454777Y-33736484D02*
X9454777Y-33631722D01*
X9454777Y-33631722D02*
X9445253Y-33612674D01*
X9445253Y-33612674D02*
X9426206Y-33603150D01*
X9426206Y-33603150D02*
X9397634Y-33603150D01*
X9397634Y-33603150D02*
X9378587Y-33612674D01*
X9378587Y-33612674D02*
X9369063Y-33622198D01*
X9578587Y-33736484D02*
X9559539Y-33726960D01*
X9559539Y-33726960D02*
X9550015Y-33717436D01*
X9550015Y-33717436D02*
X9540492Y-33698389D01*
X9540492Y-33698389D02*
X9540492Y-33641246D01*
X9540492Y-33641246D02*
X9550015Y-33622198D01*
X9550015Y-33622198D02*
X9559539Y-33612674D01*
X9559539Y-33612674D02*
X9578587Y-33603150D01*
X9578587Y-33603150D02*
X9607158Y-33603150D01*
X9607158Y-33603150D02*
X9626206Y-33612674D01*
X9626206Y-33612674D02*
X9635730Y-33622198D01*
X9635730Y-33622198D02*
X9645253Y-33641246D01*
X9645253Y-33641246D02*
X9645253Y-33698389D01*
X9645253Y-33698389D02*
X9635730Y-33717436D01*
X9635730Y-33717436D02*
X9626206Y-33726960D01*
X9626206Y-33726960D02*
X9607158Y-33736484D01*
X9607158Y-33736484D02*
X9578587Y-33736484D01*
X9759539Y-33736484D02*
X9740492Y-33726960D01*
X9740492Y-33726960D02*
X9730968Y-33707912D01*
X9730968Y-33707912D02*
X9730968Y-33536484D01*
X9911920Y-33726960D02*
X9892873Y-33736484D01*
X9892873Y-33736484D02*
X9854777Y-33736484D01*
X9854777Y-33736484D02*
X9835730Y-33726960D01*
X9835730Y-33726960D02*
X9826206Y-33707912D01*
X9826206Y-33707912D02*
X9826206Y-33631722D01*
X9826206Y-33631722D02*
X9835730Y-33612674D01*
X9835730Y-33612674D02*
X9854777Y-33603150D01*
X9854777Y-33603150D02*
X9892873Y-33603150D01*
X9892873Y-33603150D02*
X9911920Y-33612674D01*
X9911920Y-33612674D02*
X9921444Y-33631722D01*
X9921444Y-33631722D02*
X9921444Y-33650770D01*
X9921444Y-33650770D02*
X9826206Y-33669817D01*
X9997634Y-33726960D02*
X10016682Y-33736484D01*
X10016682Y-33736484D02*
X10054777Y-33736484D01*
X10054777Y-33736484D02*
X10073825Y-33726960D01*
X10073825Y-33726960D02*
X10083349Y-33707912D01*
X10083349Y-33707912D02*
X10083349Y-33698389D01*
X10083349Y-33698389D02*
X10073825Y-33679341D01*
X10073825Y-33679341D02*
X10054777Y-33669817D01*
X10054777Y-33669817D02*
X10026206Y-33669817D01*
X10026206Y-33669817D02*
X10007158Y-33660293D01*
X10007158Y-33660293D02*
X9997634Y-33641246D01*
X9997634Y-33641246D02*
X9997634Y-33631722D01*
X9997634Y-33631722D02*
X10007158Y-33612674D01*
X10007158Y-33612674D02*
X10026206Y-33603150D01*
X10026206Y-33603150D02*
X10054777Y-33603150D01*
X10054777Y-33603150D02*
X10073825Y-33612674D01*
X10150015Y-33812674D02*
X10159539Y-33803150D01*
X10159539Y-33803150D02*
X10178587Y-33774579D01*
X10178587Y-33774579D02*
X10188111Y-33755531D01*
X10188111Y-33755531D02*
X10197634Y-33726960D01*
X10197634Y-33726960D02*
X10207158Y-33679341D01*
X10207158Y-33679341D02*
X10207158Y-33641246D01*
X10207158Y-33641246D02*
X10197634Y-33593627D01*
X10197634Y-33593627D02*
X10188111Y-33565055D01*
X10188111Y-33565055D02*
X10178587Y-33546008D01*
X10178587Y-33546008D02*
X10159539Y-33517436D01*
X10159539Y-33517436D02*
X10150015Y-33507912D01*
D13*
X4994000Y-33909000D02*
G75*
G02*
X4884000Y-33909000I-55000J0D01*
G01*
X4884000Y-33909000D02*
G75*
G02*
X4994000Y-33909000I55000J0D01*
G01*
D12*
X5359539Y-34000484D02*
X5245253Y-34000484D01*
X5302396Y-34000484D02*
X5302396Y-33800484D01*
X5302396Y-33800484D02*
X5283348Y-33829055D01*
X5283348Y-33829055D02*
X5264301Y-33848103D01*
X5264301Y-33848103D02*
X5245253Y-33857627D01*
X5445253Y-33981436D02*
X5454777Y-33990960D01*
X5454777Y-33990960D02*
X5445253Y-34000484D01*
X5445253Y-34000484D02*
X5435729Y-33990960D01*
X5435729Y-33990960D02*
X5445253Y-33981436D01*
X5445253Y-33981436D02*
X5445253Y-34000484D01*
X5645253Y-34000484D02*
X5530967Y-34000484D01*
X5588110Y-34000484D02*
X5588110Y-33800484D01*
X5588110Y-33800484D02*
X5569063Y-33829055D01*
X5569063Y-33829055D02*
X5550015Y-33848103D01*
X5550015Y-33848103D02*
X5530967Y-33857627D01*
X5769062Y-33800484D02*
X5788110Y-33800484D01*
X5788110Y-33800484D02*
X5807158Y-33810008D01*
X5807158Y-33810008D02*
X5816682Y-33819531D01*
X5816682Y-33819531D02*
X5826205Y-33838579D01*
X5826205Y-33838579D02*
X5835729Y-33876674D01*
X5835729Y-33876674D02*
X5835729Y-33924293D01*
X5835729Y-33924293D02*
X5826205Y-33962389D01*
X5826205Y-33962389D02*
X5816682Y-33981436D01*
X5816682Y-33981436D02*
X5807158Y-33990960D01*
X5807158Y-33990960D02*
X5788110Y-34000484D01*
X5788110Y-34000484D02*
X5769062Y-34000484D01*
X5769062Y-34000484D02*
X5750015Y-33990960D01*
X5750015Y-33990960D02*
X5740491Y-33981436D01*
X5740491Y-33981436D02*
X5730967Y-33962389D01*
X5730967Y-33962389D02*
X5721443Y-33924293D01*
X5721443Y-33924293D02*
X5721443Y-33876674D01*
X5721443Y-33876674D02*
X5730967Y-33838579D01*
X5730967Y-33838579D02*
X5740491Y-33819531D01*
X5740491Y-33819531D02*
X5750015Y-33810008D01*
X5750015Y-33810008D02*
X5769062Y-33800484D01*
X5959539Y-33800484D02*
X5978586Y-33800484D01*
X5978586Y-33800484D02*
X5997634Y-33810008D01*
X5997634Y-33810008D02*
X6007158Y-33819531D01*
X6007158Y-33819531D02*
X6016682Y-33838579D01*
X6016682Y-33838579D02*
X6026205Y-33876674D01*
X6026205Y-33876674D02*
X6026205Y-33924293D01*
X6026205Y-33924293D02*
X6016682Y-33962389D01*
X6016682Y-33962389D02*
X6007158Y-33981436D01*
X6007158Y-33981436D02*
X5997634Y-33990960D01*
X5997634Y-33990960D02*
X5978586Y-34000484D01*
X5978586Y-34000484D02*
X5959539Y-34000484D01*
X5959539Y-34000484D02*
X5940491Y-33990960D01*
X5940491Y-33990960D02*
X5930967Y-33981436D01*
X5930967Y-33981436D02*
X5921443Y-33962389D01*
X5921443Y-33962389D02*
X5911920Y-33924293D01*
X5911920Y-33924293D02*
X5911920Y-33876674D01*
X5911920Y-33876674D02*
X5921443Y-33838579D01*
X5921443Y-33838579D02*
X5930967Y-33819531D01*
X5930967Y-33819531D02*
X5940491Y-33810008D01*
X5940491Y-33810008D02*
X5959539Y-33800484D01*
X6111920Y-34000484D02*
X6111920Y-33867150D01*
X6111920Y-33886198D02*
X6121443Y-33876674D01*
X6121443Y-33876674D02*
X6140491Y-33867150D01*
X6140491Y-33867150D02*
X6169063Y-33867150D01*
X6169063Y-33867150D02*
X6188110Y-33876674D01*
X6188110Y-33876674D02*
X6197634Y-33895722D01*
X6197634Y-33895722D02*
X6197634Y-34000484D01*
X6197634Y-33895722D02*
X6207158Y-33876674D01*
X6207158Y-33876674D02*
X6226205Y-33867150D01*
X6226205Y-33867150D02*
X6254777Y-33867150D01*
X6254777Y-33867150D02*
X6273824Y-33876674D01*
X6273824Y-33876674D02*
X6283348Y-33895722D01*
X6283348Y-33895722D02*
X6283348Y-34000484D01*
X6378586Y-34000484D02*
X6378586Y-33867150D01*
X6378586Y-33886198D02*
X6388110Y-33876674D01*
X6388110Y-33876674D02*
X6407158Y-33867150D01*
X6407158Y-33867150D02*
X6435729Y-33867150D01*
X6435729Y-33867150D02*
X6454777Y-33876674D01*
X6454777Y-33876674D02*
X6464301Y-33895722D01*
X6464301Y-33895722D02*
X6464301Y-34000484D01*
X6464301Y-33895722D02*
X6473824Y-33876674D01*
X6473824Y-33876674D02*
X6492872Y-33867150D01*
X6492872Y-33867150D02*
X6521443Y-33867150D01*
X6521443Y-33867150D02*
X6540491Y-33876674D01*
X6540491Y-33876674D02*
X6550015Y-33895722D01*
X6550015Y-33895722D02*
X6550015Y-34000484D01*
X6940491Y-33790960D02*
X6769063Y-34048103D01*
X7197634Y-33800484D02*
X7216682Y-33800484D01*
X7216682Y-33800484D02*
X7235729Y-33810008D01*
X7235729Y-33810008D02*
X7245253Y-33819531D01*
X7245253Y-33819531D02*
X7254777Y-33838579D01*
X7254777Y-33838579D02*
X7264301Y-33876674D01*
X7264301Y-33876674D02*
X7264301Y-33924293D01*
X7264301Y-33924293D02*
X7254777Y-33962389D01*
X7254777Y-33962389D02*
X7245253Y-33981436D01*
X7245253Y-33981436D02*
X7235729Y-33990960D01*
X7235729Y-33990960D02*
X7216682Y-34000484D01*
X7216682Y-34000484D02*
X7197634Y-34000484D01*
X7197634Y-34000484D02*
X7178586Y-33990960D01*
X7178586Y-33990960D02*
X7169063Y-33981436D01*
X7169063Y-33981436D02*
X7159539Y-33962389D01*
X7159539Y-33962389D02*
X7150015Y-33924293D01*
X7150015Y-33924293D02*
X7150015Y-33876674D01*
X7150015Y-33876674D02*
X7159539Y-33838579D01*
X7159539Y-33838579D02*
X7169063Y-33819531D01*
X7169063Y-33819531D02*
X7178586Y-33810008D01*
X7178586Y-33810008D02*
X7197634Y-33800484D01*
X7350015Y-33981436D02*
X7359539Y-33990960D01*
X7359539Y-33990960D02*
X7350015Y-34000484D01*
X7350015Y-34000484D02*
X7340491Y-33990960D01*
X7340491Y-33990960D02*
X7350015Y-33981436D01*
X7350015Y-33981436D02*
X7350015Y-34000484D01*
X7483348Y-33800484D02*
X7502396Y-33800484D01*
X7502396Y-33800484D02*
X7521444Y-33810008D01*
X7521444Y-33810008D02*
X7530967Y-33819531D01*
X7530967Y-33819531D02*
X7540491Y-33838579D01*
X7540491Y-33838579D02*
X7550015Y-33876674D01*
X7550015Y-33876674D02*
X7550015Y-33924293D01*
X7550015Y-33924293D02*
X7540491Y-33962389D01*
X7540491Y-33962389D02*
X7530967Y-33981436D01*
X7530967Y-33981436D02*
X7521444Y-33990960D01*
X7521444Y-33990960D02*
X7502396Y-34000484D01*
X7502396Y-34000484D02*
X7483348Y-34000484D01*
X7483348Y-34000484D02*
X7464301Y-33990960D01*
X7464301Y-33990960D02*
X7454777Y-33981436D01*
X7454777Y-33981436D02*
X7445253Y-33962389D01*
X7445253Y-33962389D02*
X7435729Y-33924293D01*
X7435729Y-33924293D02*
X7435729Y-33876674D01*
X7435729Y-33876674D02*
X7445253Y-33838579D01*
X7445253Y-33838579D02*
X7454777Y-33819531D01*
X7454777Y-33819531D02*
X7464301Y-33810008D01*
X7464301Y-33810008D02*
X7483348Y-33800484D01*
X7721444Y-33867150D02*
X7721444Y-34000484D01*
X7673825Y-33790960D02*
X7626206Y-33933817D01*
X7626206Y-33933817D02*
X7750015Y-33933817D01*
X7807158Y-33800484D02*
X7930967Y-33800484D01*
X7930967Y-33800484D02*
X7864301Y-33876674D01*
X7864301Y-33876674D02*
X7892872Y-33876674D01*
X7892872Y-33876674D02*
X7911920Y-33886198D01*
X7911920Y-33886198D02*
X7921444Y-33895722D01*
X7921444Y-33895722D02*
X7930967Y-33914770D01*
X7930967Y-33914770D02*
X7930967Y-33962389D01*
X7930967Y-33962389D02*
X7921444Y-33981436D01*
X7921444Y-33981436D02*
X7911920Y-33990960D01*
X7911920Y-33990960D02*
X7892872Y-34000484D01*
X7892872Y-34000484D02*
X7835729Y-34000484D01*
X7835729Y-34000484D02*
X7816682Y-33990960D01*
X7816682Y-33990960D02*
X7807158Y-33981436D01*
X7997634Y-33800484D02*
X8121444Y-33800484D01*
X8121444Y-33800484D02*
X8054777Y-33876674D01*
X8054777Y-33876674D02*
X8083348Y-33876674D01*
X8083348Y-33876674D02*
X8102396Y-33886198D01*
X8102396Y-33886198D02*
X8111920Y-33895722D01*
X8111920Y-33895722D02*
X8121444Y-33914770D01*
X8121444Y-33914770D02*
X8121444Y-33962389D01*
X8121444Y-33962389D02*
X8111920Y-33981436D01*
X8111920Y-33981436D02*
X8102396Y-33990960D01*
X8102396Y-33990960D02*
X8083348Y-34000484D01*
X8083348Y-34000484D02*
X8026206Y-34000484D01*
X8026206Y-34000484D02*
X8007158Y-33990960D01*
X8007158Y-33990960D02*
X7997634Y-33981436D01*
X8197634Y-33800484D02*
X8197634Y-33838579D01*
X8273825Y-33800484D02*
X8273825Y-33838579D01*
X8569063Y-34076674D02*
X8559539Y-34067150D01*
X8559539Y-34067150D02*
X8540491Y-34038579D01*
X8540491Y-34038579D02*
X8530968Y-34019531D01*
X8530968Y-34019531D02*
X8521444Y-33990960D01*
X8521444Y-33990960D02*
X8511920Y-33943341D01*
X8511920Y-33943341D02*
X8511920Y-33905246D01*
X8511920Y-33905246D02*
X8521444Y-33857627D01*
X8521444Y-33857627D02*
X8530968Y-33829055D01*
X8530968Y-33829055D02*
X8540491Y-33810008D01*
X8540491Y-33810008D02*
X8559539Y-33781436D01*
X8559539Y-33781436D02*
X8569063Y-33771912D01*
X8750015Y-34000484D02*
X8635730Y-34000484D01*
X8692872Y-34000484D02*
X8692872Y-33800484D01*
X8692872Y-33800484D02*
X8673825Y-33829055D01*
X8673825Y-33829055D02*
X8654777Y-33848103D01*
X8654777Y-33848103D02*
X8635730Y-33857627D01*
X8988111Y-34000484D02*
X8988111Y-33800484D01*
X9073825Y-34000484D02*
X9073825Y-33895722D01*
X9073825Y-33895722D02*
X9064301Y-33876674D01*
X9064301Y-33876674D02*
X9045253Y-33867150D01*
X9045253Y-33867150D02*
X9016682Y-33867150D01*
X9016682Y-33867150D02*
X8997634Y-33876674D01*
X8997634Y-33876674D02*
X8988111Y-33886198D01*
X9197634Y-34000484D02*
X9178587Y-33990960D01*
X9178587Y-33990960D02*
X9169063Y-33981436D01*
X9169063Y-33981436D02*
X9159539Y-33962389D01*
X9159539Y-33962389D02*
X9159539Y-33905246D01*
X9159539Y-33905246D02*
X9169063Y-33886198D01*
X9169063Y-33886198D02*
X9178587Y-33876674D01*
X9178587Y-33876674D02*
X9197634Y-33867150D01*
X9197634Y-33867150D02*
X9226206Y-33867150D01*
X9226206Y-33867150D02*
X9245253Y-33876674D01*
X9245253Y-33876674D02*
X9254777Y-33886198D01*
X9254777Y-33886198D02*
X9264301Y-33905246D01*
X9264301Y-33905246D02*
X9264301Y-33962389D01*
X9264301Y-33962389D02*
X9254777Y-33981436D01*
X9254777Y-33981436D02*
X9245253Y-33990960D01*
X9245253Y-33990960D02*
X9226206Y-34000484D01*
X9226206Y-34000484D02*
X9197634Y-34000484D01*
X9378587Y-34000484D02*
X9359539Y-33990960D01*
X9359539Y-33990960D02*
X9350015Y-33971912D01*
X9350015Y-33971912D02*
X9350015Y-33800484D01*
X9530968Y-33990960D02*
X9511920Y-34000484D01*
X9511920Y-34000484D02*
X9473825Y-34000484D01*
X9473825Y-34000484D02*
X9454777Y-33990960D01*
X9454777Y-33990960D02*
X9445253Y-33971912D01*
X9445253Y-33971912D02*
X9445253Y-33895722D01*
X9445253Y-33895722D02*
X9454777Y-33876674D01*
X9454777Y-33876674D02*
X9473825Y-33867150D01*
X9473825Y-33867150D02*
X9511920Y-33867150D01*
X9511920Y-33867150D02*
X9530968Y-33876674D01*
X9530968Y-33876674D02*
X9540492Y-33895722D01*
X9540492Y-33895722D02*
X9540492Y-33914770D01*
X9540492Y-33914770D02*
X9445253Y-33933817D01*
X9607158Y-34076674D02*
X9616682Y-34067150D01*
X9616682Y-34067150D02*
X9635730Y-34038579D01*
X9635730Y-34038579D02*
X9645253Y-34019531D01*
X9645253Y-34019531D02*
X9654777Y-33990960D01*
X9654777Y-33990960D02*
X9664301Y-33943341D01*
X9664301Y-33943341D02*
X9664301Y-33905246D01*
X9664301Y-33905246D02*
X9654777Y-33857627D01*
X9654777Y-33857627D02*
X9645253Y-33829055D01*
X9645253Y-33829055D02*
X9635730Y-33810008D01*
X9635730Y-33810008D02*
X9616682Y-33781436D01*
X9616682Y-33781436D02*
X9607158Y-33771912D01*
D14*
X4919000Y-34098000D02*
X4919000Y-34248000D01*
X4844000Y-34173000D02*
X4994000Y-34173000D01*
D12*
X5359539Y-34264484D02*
X5245253Y-34264484D01*
X5302396Y-34264484D02*
X5302396Y-34064484D01*
X5302396Y-34064484D02*
X5283348Y-34093055D01*
X5283348Y-34093055D02*
X5264301Y-34112103D01*
X5264301Y-34112103D02*
X5245253Y-34121627D01*
X5445253Y-34245436D02*
X5454777Y-34254960D01*
X5454777Y-34254960D02*
X5445253Y-34264484D01*
X5445253Y-34264484D02*
X5435729Y-34254960D01*
X5435729Y-34254960D02*
X5445253Y-34245436D01*
X5445253Y-34245436D02*
X5445253Y-34264484D01*
X5635729Y-34064484D02*
X5540491Y-34064484D01*
X5540491Y-34064484D02*
X5530967Y-34159722D01*
X5530967Y-34159722D02*
X5540491Y-34150198D01*
X5540491Y-34150198D02*
X5559539Y-34140674D01*
X5559539Y-34140674D02*
X5607158Y-34140674D01*
X5607158Y-34140674D02*
X5626205Y-34150198D01*
X5626205Y-34150198D02*
X5635729Y-34159722D01*
X5635729Y-34159722D02*
X5645253Y-34178770D01*
X5645253Y-34178770D02*
X5645253Y-34226389D01*
X5645253Y-34226389D02*
X5635729Y-34245436D01*
X5635729Y-34245436D02*
X5626205Y-34254960D01*
X5626205Y-34254960D02*
X5607158Y-34264484D01*
X5607158Y-34264484D02*
X5559539Y-34264484D01*
X5559539Y-34264484D02*
X5540491Y-34254960D01*
X5540491Y-34254960D02*
X5530967Y-34245436D01*
X5769062Y-34064484D02*
X5788110Y-34064484D01*
X5788110Y-34064484D02*
X5807158Y-34074008D01*
X5807158Y-34074008D02*
X5816682Y-34083531D01*
X5816682Y-34083531D02*
X5826205Y-34102579D01*
X5826205Y-34102579D02*
X5835729Y-34140674D01*
X5835729Y-34140674D02*
X5835729Y-34188293D01*
X5835729Y-34188293D02*
X5826205Y-34226389D01*
X5826205Y-34226389D02*
X5816682Y-34245436D01*
X5816682Y-34245436D02*
X5807158Y-34254960D01*
X5807158Y-34254960D02*
X5788110Y-34264484D01*
X5788110Y-34264484D02*
X5769062Y-34264484D01*
X5769062Y-34264484D02*
X5750015Y-34254960D01*
X5750015Y-34254960D02*
X5740491Y-34245436D01*
X5740491Y-34245436D02*
X5730967Y-34226389D01*
X5730967Y-34226389D02*
X5721443Y-34188293D01*
X5721443Y-34188293D02*
X5721443Y-34140674D01*
X5721443Y-34140674D02*
X5730967Y-34102579D01*
X5730967Y-34102579D02*
X5740491Y-34083531D01*
X5740491Y-34083531D02*
X5750015Y-34074008D01*
X5750015Y-34074008D02*
X5769062Y-34064484D01*
X5959539Y-34064484D02*
X5978586Y-34064484D01*
X5978586Y-34064484D02*
X5997634Y-34074008D01*
X5997634Y-34074008D02*
X6007158Y-34083531D01*
X6007158Y-34083531D02*
X6016682Y-34102579D01*
X6016682Y-34102579D02*
X6026205Y-34140674D01*
X6026205Y-34140674D02*
X6026205Y-34188293D01*
X6026205Y-34188293D02*
X6016682Y-34226389D01*
X6016682Y-34226389D02*
X6007158Y-34245436D01*
X6007158Y-34245436D02*
X5997634Y-34254960D01*
X5997634Y-34254960D02*
X5978586Y-34264484D01*
X5978586Y-34264484D02*
X5959539Y-34264484D01*
X5959539Y-34264484D02*
X5940491Y-34254960D01*
X5940491Y-34254960D02*
X5930967Y-34245436D01*
X5930967Y-34245436D02*
X5921443Y-34226389D01*
X5921443Y-34226389D02*
X5911920Y-34188293D01*
X5911920Y-34188293D02*
X5911920Y-34140674D01*
X5911920Y-34140674D02*
X5921443Y-34102579D01*
X5921443Y-34102579D02*
X5930967Y-34083531D01*
X5930967Y-34083531D02*
X5940491Y-34074008D01*
X5940491Y-34074008D02*
X5959539Y-34064484D01*
X6111920Y-34264484D02*
X6111920Y-34131150D01*
X6111920Y-34150198D02*
X6121443Y-34140674D01*
X6121443Y-34140674D02*
X6140491Y-34131150D01*
X6140491Y-34131150D02*
X6169063Y-34131150D01*
X6169063Y-34131150D02*
X6188110Y-34140674D01*
X6188110Y-34140674D02*
X6197634Y-34159722D01*
X6197634Y-34159722D02*
X6197634Y-34264484D01*
X6197634Y-34159722D02*
X6207158Y-34140674D01*
X6207158Y-34140674D02*
X6226205Y-34131150D01*
X6226205Y-34131150D02*
X6254777Y-34131150D01*
X6254777Y-34131150D02*
X6273824Y-34140674D01*
X6273824Y-34140674D02*
X6283348Y-34159722D01*
X6283348Y-34159722D02*
X6283348Y-34264484D01*
X6378586Y-34264484D02*
X6378586Y-34131150D01*
X6378586Y-34150198D02*
X6388110Y-34140674D01*
X6388110Y-34140674D02*
X6407158Y-34131150D01*
X6407158Y-34131150D02*
X6435729Y-34131150D01*
X6435729Y-34131150D02*
X6454777Y-34140674D01*
X6454777Y-34140674D02*
X6464301Y-34159722D01*
X6464301Y-34159722D02*
X6464301Y-34264484D01*
X6464301Y-34159722D02*
X6473824Y-34140674D01*
X6473824Y-34140674D02*
X6492872Y-34131150D01*
X6492872Y-34131150D02*
X6521443Y-34131150D01*
X6521443Y-34131150D02*
X6540491Y-34140674D01*
X6540491Y-34140674D02*
X6550015Y-34159722D01*
X6550015Y-34159722D02*
X6550015Y-34264484D01*
X6940491Y-34054960D02*
X6769063Y-34312103D01*
X7197634Y-34064484D02*
X7216682Y-34064484D01*
X7216682Y-34064484D02*
X7235729Y-34074008D01*
X7235729Y-34074008D02*
X7245253Y-34083531D01*
X7245253Y-34083531D02*
X7254777Y-34102579D01*
X7254777Y-34102579D02*
X7264301Y-34140674D01*
X7264301Y-34140674D02*
X7264301Y-34188293D01*
X7264301Y-34188293D02*
X7254777Y-34226389D01*
X7254777Y-34226389D02*
X7245253Y-34245436D01*
X7245253Y-34245436D02*
X7235729Y-34254960D01*
X7235729Y-34254960D02*
X7216682Y-34264484D01*
X7216682Y-34264484D02*
X7197634Y-34264484D01*
X7197634Y-34264484D02*
X7178586Y-34254960D01*
X7178586Y-34254960D02*
X7169063Y-34245436D01*
X7169063Y-34245436D02*
X7159539Y-34226389D01*
X7159539Y-34226389D02*
X7150015Y-34188293D01*
X7150015Y-34188293D02*
X7150015Y-34140674D01*
X7150015Y-34140674D02*
X7159539Y-34102579D01*
X7159539Y-34102579D02*
X7169063Y-34083531D01*
X7169063Y-34083531D02*
X7178586Y-34074008D01*
X7178586Y-34074008D02*
X7197634Y-34064484D01*
X7350015Y-34245436D02*
X7359539Y-34254960D01*
X7359539Y-34254960D02*
X7350015Y-34264484D01*
X7350015Y-34264484D02*
X7340491Y-34254960D01*
X7340491Y-34254960D02*
X7350015Y-34245436D01*
X7350015Y-34245436D02*
X7350015Y-34264484D01*
X7483348Y-34064484D02*
X7502396Y-34064484D01*
X7502396Y-34064484D02*
X7521444Y-34074008D01*
X7521444Y-34074008D02*
X7530967Y-34083531D01*
X7530967Y-34083531D02*
X7540491Y-34102579D01*
X7540491Y-34102579D02*
X7550015Y-34140674D01*
X7550015Y-34140674D02*
X7550015Y-34188293D01*
X7550015Y-34188293D02*
X7540491Y-34226389D01*
X7540491Y-34226389D02*
X7530967Y-34245436D01*
X7530967Y-34245436D02*
X7521444Y-34254960D01*
X7521444Y-34254960D02*
X7502396Y-34264484D01*
X7502396Y-34264484D02*
X7483348Y-34264484D01*
X7483348Y-34264484D02*
X7464301Y-34254960D01*
X7464301Y-34254960D02*
X7454777Y-34245436D01*
X7454777Y-34245436D02*
X7445253Y-34226389D01*
X7445253Y-34226389D02*
X7435729Y-34188293D01*
X7435729Y-34188293D02*
X7435729Y-34140674D01*
X7435729Y-34140674D02*
X7445253Y-34102579D01*
X7445253Y-34102579D02*
X7454777Y-34083531D01*
X7454777Y-34083531D02*
X7464301Y-34074008D01*
X7464301Y-34074008D02*
X7483348Y-34064484D01*
X7730967Y-34064484D02*
X7635729Y-34064484D01*
X7635729Y-34064484D02*
X7626206Y-34159722D01*
X7626206Y-34159722D02*
X7635729Y-34150198D01*
X7635729Y-34150198D02*
X7654777Y-34140674D01*
X7654777Y-34140674D02*
X7702396Y-34140674D01*
X7702396Y-34140674D02*
X7721444Y-34150198D01*
X7721444Y-34150198D02*
X7730967Y-34159722D01*
X7730967Y-34159722D02*
X7740491Y-34178770D01*
X7740491Y-34178770D02*
X7740491Y-34226389D01*
X7740491Y-34226389D02*
X7730967Y-34245436D01*
X7730967Y-34245436D02*
X7721444Y-34254960D01*
X7721444Y-34254960D02*
X7702396Y-34264484D01*
X7702396Y-34264484D02*
X7654777Y-34264484D01*
X7654777Y-34264484D02*
X7635729Y-34254960D01*
X7635729Y-34254960D02*
X7626206Y-34245436D01*
X7835729Y-34264484D02*
X7873825Y-34264484D01*
X7873825Y-34264484D02*
X7892872Y-34254960D01*
X7892872Y-34254960D02*
X7902396Y-34245436D01*
X7902396Y-34245436D02*
X7921444Y-34216865D01*
X7921444Y-34216865D02*
X7930967Y-34178770D01*
X7930967Y-34178770D02*
X7930967Y-34102579D01*
X7930967Y-34102579D02*
X7921444Y-34083531D01*
X7921444Y-34083531D02*
X7911920Y-34074008D01*
X7911920Y-34074008D02*
X7892872Y-34064484D01*
X7892872Y-34064484D02*
X7854777Y-34064484D01*
X7854777Y-34064484D02*
X7835729Y-34074008D01*
X7835729Y-34074008D02*
X7826206Y-34083531D01*
X7826206Y-34083531D02*
X7816682Y-34102579D01*
X7816682Y-34102579D02*
X7816682Y-34150198D01*
X7816682Y-34150198D02*
X7826206Y-34169246D01*
X7826206Y-34169246D02*
X7835729Y-34178770D01*
X7835729Y-34178770D02*
X7854777Y-34188293D01*
X7854777Y-34188293D02*
X7892872Y-34188293D01*
X7892872Y-34188293D02*
X7911920Y-34178770D01*
X7911920Y-34178770D02*
X7921444Y-34169246D01*
X7921444Y-34169246D02*
X7930967Y-34150198D01*
X8121444Y-34264484D02*
X8007158Y-34264484D01*
X8064301Y-34264484D02*
X8064301Y-34064484D01*
X8064301Y-34064484D02*
X8045253Y-34093055D01*
X8045253Y-34093055D02*
X8026206Y-34112103D01*
X8026206Y-34112103D02*
X8007158Y-34121627D01*
X8197634Y-34064484D02*
X8197634Y-34102579D01*
X8273825Y-34064484D02*
X8273825Y-34102579D01*
X8569063Y-34340674D02*
X8559539Y-34331150D01*
X8559539Y-34331150D02*
X8540491Y-34302579D01*
X8540491Y-34302579D02*
X8530968Y-34283531D01*
X8530968Y-34283531D02*
X8521444Y-34254960D01*
X8521444Y-34254960D02*
X8511920Y-34207341D01*
X8511920Y-34207341D02*
X8511920Y-34169246D01*
X8511920Y-34169246D02*
X8521444Y-34121627D01*
X8521444Y-34121627D02*
X8530968Y-34093055D01*
X8530968Y-34093055D02*
X8540491Y-34074008D01*
X8540491Y-34074008D02*
X8559539Y-34045436D01*
X8559539Y-34045436D02*
X8569063Y-34035912D01*
X8730968Y-34131150D02*
X8730968Y-34264484D01*
X8683349Y-34054960D02*
X8635730Y-34197817D01*
X8635730Y-34197817D02*
X8759539Y-34197817D01*
X8988111Y-34264484D02*
X8988111Y-34064484D01*
X9073825Y-34264484D02*
X9073825Y-34159722D01*
X9073825Y-34159722D02*
X9064301Y-34140674D01*
X9064301Y-34140674D02*
X9045253Y-34131150D01*
X9045253Y-34131150D02*
X9016682Y-34131150D01*
X9016682Y-34131150D02*
X8997634Y-34140674D01*
X8997634Y-34140674D02*
X8988111Y-34150198D01*
X9197634Y-34264484D02*
X9178587Y-34254960D01*
X9178587Y-34254960D02*
X9169063Y-34245436D01*
X9169063Y-34245436D02*
X9159539Y-34226389D01*
X9159539Y-34226389D02*
X9159539Y-34169246D01*
X9159539Y-34169246D02*
X9169063Y-34150198D01*
X9169063Y-34150198D02*
X9178587Y-34140674D01*
X9178587Y-34140674D02*
X9197634Y-34131150D01*
X9197634Y-34131150D02*
X9226206Y-34131150D01*
X9226206Y-34131150D02*
X9245253Y-34140674D01*
X9245253Y-34140674D02*
X9254777Y-34150198D01*
X9254777Y-34150198D02*
X9264301Y-34169246D01*
X9264301Y-34169246D02*
X9264301Y-34226389D01*
X9264301Y-34226389D02*
X9254777Y-34245436D01*
X9254777Y-34245436D02*
X9245253Y-34254960D01*
X9245253Y-34254960D02*
X9226206Y-34264484D01*
X9226206Y-34264484D02*
X9197634Y-34264484D01*
X9378587Y-34264484D02*
X9359539Y-34254960D01*
X9359539Y-34254960D02*
X9350015Y-34235912D01*
X9350015Y-34235912D02*
X9350015Y-34064484D01*
X9530968Y-34254960D02*
X9511920Y-34264484D01*
X9511920Y-34264484D02*
X9473825Y-34264484D01*
X9473825Y-34264484D02*
X9454777Y-34254960D01*
X9454777Y-34254960D02*
X9445253Y-34235912D01*
X9445253Y-34235912D02*
X9445253Y-34159722D01*
X9445253Y-34159722D02*
X9454777Y-34140674D01*
X9454777Y-34140674D02*
X9473825Y-34131150D01*
X9473825Y-34131150D02*
X9511920Y-34131150D01*
X9511920Y-34131150D02*
X9530968Y-34140674D01*
X9530968Y-34140674D02*
X9540492Y-34159722D01*
X9540492Y-34159722D02*
X9540492Y-34178770D01*
X9540492Y-34178770D02*
X9445253Y-34197817D01*
X9616682Y-34254960D02*
X9635730Y-34264484D01*
X9635730Y-34264484D02*
X9673825Y-34264484D01*
X9673825Y-34264484D02*
X9692873Y-34254960D01*
X9692873Y-34254960D02*
X9702396Y-34235912D01*
X9702396Y-34235912D02*
X9702396Y-34226389D01*
X9702396Y-34226389D02*
X9692873Y-34207341D01*
X9692873Y-34207341D02*
X9673825Y-34197817D01*
X9673825Y-34197817D02*
X9645253Y-34197817D01*
X9645253Y-34197817D02*
X9626206Y-34188293D01*
X9626206Y-34188293D02*
X9616682Y-34169246D01*
X9616682Y-34169246D02*
X9616682Y-34159722D01*
X9616682Y-34159722D02*
X9626206Y-34140674D01*
X9626206Y-34140674D02*
X9645253Y-34131150D01*
X9645253Y-34131150D02*
X9673825Y-34131150D01*
X9673825Y-34131150D02*
X9692873Y-34140674D01*
X9769063Y-34340674D02*
X9778587Y-34331150D01*
X9778587Y-34331150D02*
X9797634Y-34302579D01*
X9797634Y-34302579D02*
X9807158Y-34283531D01*
X9807158Y-34283531D02*
X9816682Y-34254960D01*
X9816682Y-34254960D02*
X9826206Y-34207341D01*
X9826206Y-34207341D02*
X9826206Y-34169246D01*
X9826206Y-34169246D02*
X9816682Y-34121627D01*
X9816682Y-34121627D02*
X9807158Y-34093055D01*
X9807158Y-34093055D02*
X9797634Y-34074008D01*
X9797634Y-34074008D02*
X9778587Y-34045436D01*
X9778587Y-34045436D02*
X9769063Y-34035912D01*
M02*
