%TF.GenerationSoftware,KiCad,Pcbnew,8.0.2-1*%
%TF.CreationDate,2024-06-03T17:46:58-04:00*%
%TF.ProjectId,Untitled,556e7469-746c-4656-942e-6b696361645f,rev?*%
%TF.SameCoordinates,Original*%
%TF.FileFunction,Soldermask,Bot*%
%TF.FilePolarity,Negative*%
%FSLAX46Y46*%
G04 Gerber Fmt 4.6, Leading zero omitted, Abs format (unit mm)*
G04 Created by KiCad (PCBNEW 8.0.2-1) date 2024-06-03 17:46:58*
%MOMM*%
%LPD*%
G01*
G04 APERTURE LIST*
%ADD10R,3.500000X3.500000*%
%ADD11C,4.000000*%
%ADD12R,2.800000X0.550000*%
G04 APERTURE END LIST*
D10*
%TO.C,LEDs*%
X63000000Y-317400000D03*
D11*
X57975000Y-322425000D03*
X68025000Y-322425000D03*
X57975000Y-312375000D03*
X68025000Y-312375000D03*
%TD*%
D12*
%TO.C,REF\u002A\u002A*%
X52400000Y-75800000D03*
X52400000Y-76600000D03*
X52400000Y-77400000D03*
X52400000Y-78200000D03*
X52400000Y-79000000D03*
X52400000Y-79800000D03*
X52400000Y-80600000D03*
X52400000Y-81400000D03*
X52400000Y-82200000D03*
X52400000Y-83000000D03*
X52400000Y-83800000D03*
X52400000Y-84600000D03*
X52400000Y-85400000D03*
X52400000Y-86200000D03*
X52400000Y-87000000D03*
X52400000Y-87800000D03*
X52400000Y-88600000D03*
X52400000Y-89400000D03*
X52400000Y-90200000D03*
X52400000Y-91000000D03*
X52400000Y-91800000D03*
X52400000Y-92600000D03*
X52400000Y-93400000D03*
X52400000Y-94200000D03*
X52400000Y-95000000D03*
X52400000Y-95800000D03*
X52400000Y-96600000D03*
X52400000Y-97400000D03*
X52400000Y-98200000D03*
X52400000Y-99000000D03*
X52400000Y-99800000D03*
X52400000Y-100600000D03*
X52400000Y-104600000D03*
X52400000Y-105400000D03*
X52400000Y-106200000D03*
X52400000Y-107000000D03*
X52400000Y-107800000D03*
X52400000Y-108600000D03*
X52400000Y-109400000D03*
X52400000Y-110200000D03*
X52400000Y-111000000D03*
X52400000Y-111800000D03*
X52400000Y-112600000D03*
X52400000Y-113400000D03*
X52400000Y-114200000D03*
X52400000Y-115000000D03*
X52400000Y-115800000D03*
X52400000Y-116600000D03*
X52400000Y-117400000D03*
X52400000Y-118200000D03*
X52400000Y-119000000D03*
X52400000Y-119800000D03*
X52400000Y-120600000D03*
X52400000Y-121400000D03*
X52400000Y-122200000D03*
X52400000Y-123000000D03*
X52400000Y-123800000D03*
X52400000Y-124600000D03*
X52400000Y-125400000D03*
X52400000Y-126200000D03*
X52400000Y-127000000D03*
X52400000Y-127800000D03*
X52400000Y-128600000D03*
X52400000Y-129400000D03*
X52400000Y-130200000D03*
X52400000Y-131000000D03*
X52400000Y-131800000D03*
X52400000Y-132600000D03*
X52400000Y-133400000D03*
X52400000Y-134200000D03*
%TD*%
M02*
