%TF.GenerationSoftware,KiCad,Pcbnew,8.0.2-1*%
%TF.CreationDate,2024-06-03T17:46:58-04:00*%
%TF.ProjectId,Untitled,556e7469-746c-4656-942e-6b696361645f,rev?*%
%TF.SameCoordinates,Original*%
%TF.FileFunction,Soldermask,Top*%
%TF.FilePolarity,Negative*%
%FSLAX46Y46*%
G04 Gerber Fmt 4.6, Leading zero omitted, Abs format (unit mm)*
G04 Created by KiCad (PCBNEW 8.0.2-1) date 2024-06-03 17:46:58*
%MOMM*%
%LPD*%
G01*
G04 APERTURE LIST*
G04 Aperture macros list*
%AMRoundRect*
0 Rectangle with rounded corners*
0 $1 Rounding radius*
0 $2 $3 $4 $5 $6 $7 $8 $9 X,Y pos of 4 corners*
0 Add a 4 corners polygon primitive as box body*
4,1,4,$2,$3,$4,$5,$6,$7,$8,$9,$2,$3,0*
0 Add four circle primitives for the rounded corners*
1,1,$1+$1,$2,$3*
1,1,$1+$1,$4,$5*
1,1,$1+$1,$6,$7*
1,1,$1+$1,$8,$9*
0 Add four rect primitives between the rounded corners*
20,1,$1+$1,$2,$3,$4,$5,0*
20,1,$1+$1,$4,$5,$6,$7,0*
20,1,$1+$1,$6,$7,$8,$9,0*
20,1,$1+$1,$8,$9,$2,$3,0*%
G04 Aperture macros list end*
%ADD10RoundRect,0.237500X-0.287500X-0.237500X0.287500X-0.237500X0.287500X0.237500X-0.287500X0.237500X0*%
%ADD11R,0.700000X0.700000*%
%ADD12RoundRect,0.250000X-0.325000X-1.100000X0.325000X-1.100000X0.325000X1.100000X-0.325000X1.100000X0*%
%ADD13R,3.500000X3.500000*%
%ADD14C,4.000000*%
%ADD15R,2.800000X0.550000*%
%ADD16RoundRect,0.250000X-0.312500X-0.625000X0.312500X-0.625000X0.312500X0.625000X-0.312500X0.625000X0*%
%ADD17RoundRect,0.087500X-0.087500X-0.337500X0.087500X-0.337500X0.087500X0.337500X-0.087500X0.337500X0*%
G04 APERTURE END LIST*
D10*
%TO.C,REF\u002A\u002A21*%
X178275000Y-285665000D03*
D11*
X179902500Y-287000000D03*
X177877500Y-287000000D03*
D10*
X180025000Y-285665000D03*
D11*
X177877500Y-288050000D03*
X179902500Y-288100000D03*
%TD*%
D12*
%TO.C,10 nF*%
X62725000Y-89800000D03*
X65675000Y-89800000D03*
%TD*%
%TO.C,10 nF*%
X62725000Y-104800000D03*
X65675000Y-104800000D03*
%TD*%
D10*
%TO.C,REF\u002A\u002A20*%
X130475000Y-285665000D03*
D11*
X132102500Y-287000000D03*
X130077500Y-287000000D03*
D10*
X132225000Y-285665000D03*
D11*
X130077500Y-288050000D03*
X132102500Y-288100000D03*
%TD*%
D12*
%TO.C,10 nF*%
X62725000Y-109800000D03*
X65675000Y-109800000D03*
%TD*%
%TO.C,10 nF*%
X62725000Y-99800000D03*
X65675000Y-99800000D03*
%TD*%
%TO.C,10 nF*%
X62725000Y-124800000D03*
X65675000Y-124800000D03*
%TD*%
D10*
%TO.C,REF\u002A\u002A5*%
X130475000Y-142265000D03*
D11*
X132102500Y-143600000D03*
X130077500Y-143600000D03*
D10*
X132225000Y-142265000D03*
D11*
X130077500Y-144650000D03*
X132102500Y-144700000D03*
%TD*%
D10*
%TO.C,REF\u002A\u002A3*%
X273875000Y-94465000D03*
D11*
X275502500Y-95800000D03*
X273477500Y-95800000D03*
D10*
X275625000Y-94465000D03*
D11*
X273477500Y-96850000D03*
X275502500Y-96900000D03*
%TD*%
D10*
%TO.C,REF\u002A\u002A4*%
X321675000Y-94465000D03*
D11*
X323302500Y-95800000D03*
X321277500Y-95800000D03*
D10*
X323425000Y-94465000D03*
D11*
X321277500Y-96850000D03*
X323302500Y-96900000D03*
%TD*%
D13*
%TO.C,LEDs*%
X63000000Y-317400000D03*
D14*
X57975000Y-322425000D03*
X68025000Y-322425000D03*
X57975000Y-312375000D03*
X68025000Y-312375000D03*
%TD*%
D12*
%TO.C,10 nF*%
X67725000Y-102300000D03*
X70675000Y-102300000D03*
%TD*%
%TO.C,10 nF*%
X67725000Y-122300000D03*
X70675000Y-122300000D03*
%TD*%
D10*
%TO.C,REF\u002A\u002A2*%
X226075000Y-94465000D03*
D11*
X227702500Y-95800000D03*
X225677500Y-95800000D03*
D10*
X227825000Y-94465000D03*
D11*
X225677500Y-96850000D03*
X227702500Y-96900000D03*
%TD*%
D12*
%TO.C,10 nF*%
X62725000Y-119800000D03*
X65675000Y-119800000D03*
%TD*%
D10*
%TO.C,REF\u002A\u002A19*%
X321675000Y-237865000D03*
D11*
X323302500Y-239200000D03*
X321277500Y-239200000D03*
D10*
X323425000Y-237865000D03*
D11*
X321277500Y-240250000D03*
X323302500Y-240300000D03*
%TD*%
D15*
%TO.C,REF\u002A\u002A*%
X52400000Y-75800000D03*
X52400000Y-76600000D03*
X52400000Y-77400000D03*
X52400000Y-78200000D03*
X52400000Y-79000000D03*
X52400000Y-79800000D03*
X52400000Y-80600000D03*
X52400000Y-81400000D03*
X52400000Y-82200000D03*
X52400000Y-83000000D03*
X52400000Y-83800000D03*
X52400000Y-84600000D03*
X52400000Y-85400000D03*
X52400000Y-86200000D03*
X52400000Y-87000000D03*
X52400000Y-87800000D03*
X52400000Y-88600000D03*
X52400000Y-89400000D03*
X52400000Y-90200000D03*
X52400000Y-91000000D03*
X52400000Y-91800000D03*
X52400000Y-92600000D03*
X52400000Y-93400000D03*
X52400000Y-94200000D03*
X52400000Y-95000000D03*
X52400000Y-95800000D03*
X52400000Y-96600000D03*
X52400000Y-97400000D03*
X52400000Y-98200000D03*
X52400000Y-99000000D03*
X52400000Y-99800000D03*
X52400000Y-100600000D03*
X52400000Y-104600000D03*
X52400000Y-105400000D03*
X52400000Y-106200000D03*
X52400000Y-107000000D03*
X52400000Y-107800000D03*
X52400000Y-108600000D03*
X52400000Y-109400000D03*
X52400000Y-110200000D03*
X52400000Y-111000000D03*
X52400000Y-111800000D03*
X52400000Y-112600000D03*
X52400000Y-113400000D03*
X52400000Y-114200000D03*
X52400000Y-115000000D03*
X52400000Y-115800000D03*
X52400000Y-116600000D03*
X52400000Y-117400000D03*
X52400000Y-118200000D03*
X52400000Y-119000000D03*
X52400000Y-119800000D03*
X52400000Y-120600000D03*
X52400000Y-121400000D03*
X52400000Y-122200000D03*
X52400000Y-123000000D03*
X52400000Y-123800000D03*
X52400000Y-124600000D03*
X52400000Y-125400000D03*
X52400000Y-126200000D03*
X52400000Y-127000000D03*
X52400000Y-127800000D03*
X52400000Y-128600000D03*
X52400000Y-129400000D03*
X52400000Y-130200000D03*
X52400000Y-131000000D03*
X52400000Y-131800000D03*
X52400000Y-132600000D03*
X52400000Y-133400000D03*
X52400000Y-134200000D03*
%TD*%
D10*
%TO.C,REF\u002A\u002A7*%
X226075000Y-142265000D03*
D11*
X227702500Y-143600000D03*
X225677500Y-143600000D03*
D10*
X227825000Y-142265000D03*
D11*
X225677500Y-144650000D03*
X227702500Y-144700000D03*
%TD*%
D12*
%TO.C,10 nF*%
X67725000Y-72300000D03*
X70675000Y-72300000D03*
%TD*%
%TO.C,10 nF*%
X67725000Y-82300000D03*
X70675000Y-82300000D03*
%TD*%
%TO.C,10 nF*%
X67725000Y-107300000D03*
X70675000Y-107300000D03*
%TD*%
%TO.C,10 nF*%
X67725000Y-117300000D03*
X70675000Y-117300000D03*
%TD*%
D10*
%TO.C,REF\u002A\u002A8*%
X273875000Y-142265000D03*
D11*
X275502500Y-143600000D03*
X273477500Y-143600000D03*
D10*
X275625000Y-142265000D03*
D11*
X273477500Y-144650000D03*
X275502500Y-144700000D03*
%TD*%
D12*
%TO.C,10 nF*%
X67725000Y-92300000D03*
X70675000Y-92300000D03*
%TD*%
D10*
%TO.C,REF\u002A\u002A14*%
X321675000Y-190065000D03*
D11*
X323302500Y-191400000D03*
X321277500Y-191400000D03*
D10*
X323425000Y-190065000D03*
D11*
X321277500Y-192450000D03*
X323302500Y-192500000D03*
%TD*%
D10*
%TO.C,REF\u002A\u002A23*%
X273875000Y-285665000D03*
D11*
X275502500Y-287000000D03*
X273477500Y-287000000D03*
D10*
X275625000Y-285665000D03*
D11*
X273477500Y-288050000D03*
X275502500Y-288100000D03*
%TD*%
D10*
%TO.C,REF\u002A\u002A24*%
X321675000Y-285665000D03*
D11*
X323302500Y-287000000D03*
X321277500Y-287000000D03*
D10*
X323425000Y-285665000D03*
D11*
X321277500Y-288050000D03*
X323302500Y-288100000D03*
%TD*%
D10*
%TO.C,REF\u002A\u002A16*%
X178275000Y-237865000D03*
D11*
X179902500Y-239200000D03*
X177877500Y-239200000D03*
D10*
X180025000Y-237865000D03*
D11*
X177877500Y-240250000D03*
X179902500Y-240300000D03*
%TD*%
D12*
%TO.C,10 nF*%
X62725000Y-84800000D03*
X65675000Y-84800000D03*
%TD*%
D10*
%TO.C,REF\u002A\u002A10*%
X130475000Y-190065000D03*
D11*
X132102500Y-191400000D03*
X130077500Y-191400000D03*
D10*
X132225000Y-190065000D03*
D11*
X130077500Y-192450000D03*
X132102500Y-192500000D03*
%TD*%
D10*
%TO.C,REF\u002A\u002A6*%
X178275000Y-142265000D03*
D11*
X179902500Y-143600000D03*
X177877500Y-143600000D03*
D10*
X180025000Y-142265000D03*
D11*
X177877500Y-144650000D03*
X179902500Y-144700000D03*
%TD*%
D12*
%TO.C,10 nF*%
X67725000Y-87300000D03*
X70675000Y-87300000D03*
%TD*%
D10*
%TO.C,REF\u002A\u002A17*%
X226075000Y-237865000D03*
D11*
X227702500Y-239200000D03*
X225677500Y-239200000D03*
D10*
X227825000Y-237865000D03*
D11*
X225677500Y-240250000D03*
X227702500Y-240300000D03*
%TD*%
D12*
%TO.C,10 nF*%
X62725000Y-69800000D03*
X65675000Y-69800000D03*
%TD*%
%TO.C,10 nF*%
X62725000Y-114800000D03*
X65675000Y-114800000D03*
%TD*%
%TO.C,10 nF*%
X67725000Y-77300000D03*
X70675000Y-77300000D03*
%TD*%
%TO.C,10 nF*%
X67725000Y-97300000D03*
X70675000Y-97300000D03*
%TD*%
D10*
%TO.C,REF\u002A\u002A12*%
X226075000Y-190065000D03*
D11*
X227702500Y-191400000D03*
X225677500Y-191400000D03*
D10*
X227825000Y-190065000D03*
D11*
X225677500Y-192450000D03*
X227702500Y-192500000D03*
%TD*%
D12*
%TO.C,10 nF*%
X62725000Y-64800000D03*
X65675000Y-64800000D03*
%TD*%
D10*
%TO.C,REF\u002A\u002A22*%
X226075000Y-285665000D03*
D11*
X227702500Y-287000000D03*
X225677500Y-287000000D03*
D10*
X227825000Y-285665000D03*
D11*
X225677500Y-288050000D03*
X227702500Y-288100000D03*
%TD*%
D12*
%TO.C,10 nF*%
X62725000Y-79800000D03*
X65675000Y-79800000D03*
%TD*%
%TO.C,10 nF*%
X67725000Y-112300000D03*
X70675000Y-112300000D03*
%TD*%
%TO.C,10 nF*%
X67725000Y-67300000D03*
X70675000Y-67300000D03*
%TD*%
D10*
%TO.C,REF\u002A\u002A15*%
X130475000Y-237865000D03*
D11*
X132102500Y-239200000D03*
X130077500Y-239200000D03*
D10*
X132225000Y-237865000D03*
D11*
X130077500Y-240250000D03*
X132102500Y-240300000D03*
%TD*%
D12*
%TO.C,10 nF*%
X62725000Y-74800000D03*
X65675000Y-74800000D03*
%TD*%
D16*
%TO.C,50 \u03A9*%
X61837500Y-306300000D03*
X64762500Y-306300000D03*
%TD*%
D12*
%TO.C,10 nF*%
X62725000Y-94800000D03*
X65675000Y-94800000D03*
%TD*%
D10*
%TO.C,REF\u002A\u002A9*%
X321675000Y-142265000D03*
D11*
X323302500Y-143600000D03*
X321277500Y-143600000D03*
D10*
X323425000Y-142265000D03*
D11*
X321277500Y-144650000D03*
X323302500Y-144700000D03*
%TD*%
D10*
%TO.C,REF\u002A\u002A13*%
X273875000Y-190065000D03*
D11*
X275502500Y-191400000D03*
X273477500Y-191400000D03*
D10*
X275625000Y-190065000D03*
D11*
X273477500Y-192450000D03*
X275502500Y-192500000D03*
%TD*%
D17*
%TO.C,Temp1*%
X57100000Y-140200000D03*
X57750000Y-140200000D03*
X58400000Y-140200000D03*
X58400000Y-138000000D03*
X57100000Y-138000000D03*
%TD*%
D10*
%TO.C,REF\u002A\u002A1*%
X178275000Y-94465000D03*
D11*
X179902500Y-95800000D03*
X177877500Y-95800000D03*
D10*
X180025000Y-94465000D03*
D11*
X177877500Y-96850000D03*
X179902500Y-96900000D03*
%TD*%
D10*
%TO.C,REF\u002A\u002A18*%
X273875000Y-237865000D03*
D11*
X275502500Y-239200000D03*
X273477500Y-239200000D03*
D10*
X275625000Y-237865000D03*
D11*
X273477500Y-240250000D03*
X275502500Y-240300000D03*
%TD*%
D10*
%TO.C,REF\u002A\u002A*%
X130475000Y-94465000D03*
D11*
X132102500Y-95800000D03*
X130077500Y-95800000D03*
D10*
X132225000Y-94465000D03*
D11*
X130077500Y-96850000D03*
X132102500Y-96900000D03*
%TD*%
D10*
%TO.C,REF\u002A\u002A11*%
X178275000Y-190065000D03*
D11*
X179902500Y-191400000D03*
X177877500Y-191400000D03*
D10*
X180025000Y-190065000D03*
D11*
X177877500Y-192450000D03*
X179902500Y-192500000D03*
%TD*%
M02*
