M48
; DRILL file {KiCad 8.0.2-1} date 2024-06-03T17:46:55-0400
; FORMAT={-:-/ absolute / inch / decimal}
; #@! TF.CreationDate,2024-06-03T17:46:55-04:00
; #@! TF.GenerationSoftware,Kicad,Pcbnew,8.0.2-1
; #@! TF.FileFunction,Plated,1,2,PTH
FMAT,2
INCH
; #@! TA.AperFunction,Plated,PTH,ViaDrill
T1C0.0157
; #@! TA.AperFunction,Plated,PTH,ComponentDrill
T2C0.0433
; #@! TA.AperFunction,Plated,PTH,ComponentDrill
T3C0.0591
%
G90
G05
T1
X2.1457Y-5.1575
X2.1811Y-5.126
X2.3346Y-5.4331
X2.3346Y-5.5197
X2.4016Y-2.9213
X2.4016Y-2.9606
X2.4094Y-3.9331
X2.4134Y-3.1496
X2.4134Y-3.3386
X2.4134Y-3.8937
X2.4134Y-4.2835
X2.4134Y-4.3228
X2.4134Y-4.6772
X2.4134Y-4.7205
X2.4134Y-4.878
X2.4134Y-4.9213
X2.4173Y-2.5118
X2.4173Y-2.5512
X2.4173Y-2.7087
X2.4173Y-2.748
X2.4173Y-3.1024
X2.4173Y-3.2992
X2.4173Y-3.4961
X2.4173Y-3.5354
X2.4173Y-3.6929
X2.4173Y-3.7362
X2.4173Y-4.0866
X2.4173Y-4.1299
X2.4173Y-4.4803
X2.4213Y-4.5276
X2.6378Y-2.5512
X2.6378Y-2.748
X2.6378Y-3.1417
X2.6378Y-3.3386
X2.6378Y-3.5354
X2.6378Y-3.7323
X2.6378Y-3.9291
X2.6378Y-4.126
X2.6378Y-4.3228
X2.6378Y-4.5197
X2.6378Y-4.7165
X2.6378Y-4.9134
X2.6417Y-2.9449
X2.8346Y-2.6496
X2.8346Y-2.8465
X2.8346Y-3.0433
X2.8346Y-3.2402
X2.8346Y-3.437
X2.8346Y-3.6339
X2.8346Y-3.8307
X2.8346Y-4.0276
X2.8346Y-4.2244
X2.8346Y-4.4213
X2.8346Y-4.6181
X2.8346Y-4.815
X2.8543Y-12.2402
X2.8583Y-12.6772
X5.0811Y-11.3382
X5.085Y-3.8146
X5.085Y-5.6925
X5.085Y-7.5783
X5.085Y-9.4563
X5.0929Y-3.7201
X5.0929Y-5.602
X5.0929Y-7.4839
X5.0929Y-9.3657
X5.0929Y-11.2476
X5.1598Y-9.5035
X5.1598Y-11.3815
X5.1638Y-3.8579
X5.1638Y-5.7358
X5.1638Y-7.6177
X5.2465Y-3.7161
X5.2465Y-5.598
X5.2465Y-7.4799
X5.2465Y-9.3618
X5.2465Y-11.2437
X6.9591Y-7.5783
X6.963Y-3.8106
X6.963Y-9.4563
X6.9669Y-5.6965
X6.9669Y-11.3421
X6.9748Y-3.7201
X6.9748Y-5.602
X6.9748Y-7.4839
X6.9748Y-9.3657
X6.9748Y-11.2476
X7.0417Y-3.8539
X7.0417Y-11.3815
X7.0457Y-5.7358
X7.0457Y-7.6217
X7.0457Y-9.4996
X7.1283Y-3.7161
X7.1283Y-5.598
X7.1283Y-7.4799
X7.1283Y-9.3618
X7.1283Y-11.2437
X8.8449Y-3.8146
X8.8449Y-7.5744
X8.8449Y-9.4563
X8.8449Y-11.3421
X8.8488Y-5.6925
X8.8567Y-3.7201
X8.8567Y-5.602
X8.8567Y-7.4839
X8.8567Y-9.3657
X8.8567Y-11.2476
X8.9236Y-5.7358
X8.9236Y-11.3815
X8.9276Y-3.8539
X8.9276Y-7.6177
X8.9276Y-9.4996
X9.0102Y-3.7161
X9.0102Y-5.598
X9.0102Y-7.4799
X9.0102Y-9.3618
X9.0102Y-11.2437
X10.7268Y-3.8106
X10.7268Y-7.5783
X10.7268Y-9.4602
X10.7307Y-5.6925
X10.7307Y-11.3421
X10.7386Y-3.7201
X10.7386Y-5.602
X10.7386Y-7.4839
X10.7386Y-9.3657
X10.7386Y-11.2476
X10.8055Y-7.6177
X10.8055Y-9.5035
X10.8055Y-11.3815
X10.8094Y-3.8539
X10.8094Y-5.7358
X10.8921Y-3.7161
X10.8921Y-5.598
X10.8921Y-7.4799
X10.8921Y-9.3618
X10.8921Y-11.2437
X12.6087Y-3.8106
X12.6087Y-5.6925
X12.6087Y-7.5783
X12.6087Y-9.4563
X12.6126Y-11.3382
X12.6205Y-3.7201
X12.6205Y-5.602
X12.6205Y-7.4839
X12.6205Y-9.3657
X12.6205Y-11.2476
X12.6874Y-3.8539
X12.6874Y-5.7398
X12.6874Y-7.6217
X12.6874Y-11.3776
X12.6953Y-9.4996
X12.774Y-3.7161
X12.774Y-5.598
X12.774Y-7.4799
X12.774Y-9.3618
X12.774Y-11.2437
T2
X2.4803Y-12.4961
T3
X2.2825Y-12.2982
X2.2825Y-12.6939
X2.6781Y-12.2982
X2.6781Y-12.6939
M30
