%TF.GenerationSoftware,KiCad,Pcbnew,8.0.2-1*%
%TF.CreationDate,2024-06-17T16:24:44-04:00*%
%TF.ProjectId,InverterBoard,496e7665-7274-4657-9242-6f6172642e6b,rev?*%
%TF.SameCoordinates,Original*%
%TF.FileFunction,Legend,Top*%
%TF.FilePolarity,Positive*%
%FSLAX46Y46*%
G04 Gerber Fmt 4.6, Leading zero omitted, Abs format (unit mm)*
G04 Created by KiCad (PCBNEW 8.0.2-1) date 2024-06-17 16:24:44*
%MOMM*%
%LPD*%
G01*
G04 APERTURE LIST*
%ADD10C,0.100000*%
%ADD11C,0.150000*%
%ADD12C,0.200000*%
G04 APERTURE END LIST*
D10*
X116061027Y-76472419D02*
X116632455Y-76472419D01*
X116346741Y-77472419D02*
X116346741Y-76472419D01*
X117108646Y-77472419D02*
X117013408Y-77424800D01*
X117013408Y-77424800D02*
X116965789Y-77377180D01*
X116965789Y-77377180D02*
X116918170Y-77281942D01*
X116918170Y-77281942D02*
X116918170Y-76996228D01*
X116918170Y-76996228D02*
X116965789Y-76900990D01*
X116965789Y-76900990D02*
X117013408Y-76853371D01*
X117013408Y-76853371D02*
X117108646Y-76805752D01*
X117108646Y-76805752D02*
X117251503Y-76805752D01*
X117251503Y-76805752D02*
X117346741Y-76853371D01*
X117346741Y-76853371D02*
X117394360Y-76900990D01*
X117394360Y-76900990D02*
X117441979Y-76996228D01*
X117441979Y-76996228D02*
X117441979Y-77281942D01*
X117441979Y-77281942D02*
X117394360Y-77377180D01*
X117394360Y-77377180D02*
X117346741Y-77424800D01*
X117346741Y-77424800D02*
X117251503Y-77472419D01*
X117251503Y-77472419D02*
X117108646Y-77472419D01*
X118965789Y-76948609D02*
X118632456Y-76948609D01*
X118632456Y-77472419D02*
X118632456Y-76472419D01*
X118632456Y-76472419D02*
X119108646Y-76472419D01*
X119489599Y-76948609D02*
X119822932Y-76948609D01*
X119965789Y-77472419D02*
X119489599Y-77472419D01*
X119489599Y-77472419D02*
X119489599Y-76472419D01*
X119489599Y-76472419D02*
X119965789Y-76472419D01*
X120965789Y-77472419D02*
X120632456Y-76996228D01*
X120394361Y-77472419D02*
X120394361Y-76472419D01*
X120394361Y-76472419D02*
X120775313Y-76472419D01*
X120775313Y-76472419D02*
X120870551Y-76520038D01*
X120870551Y-76520038D02*
X120918170Y-76567657D01*
X120918170Y-76567657D02*
X120965789Y-76662895D01*
X120965789Y-76662895D02*
X120965789Y-76805752D01*
X120965789Y-76805752D02*
X120918170Y-76900990D01*
X120918170Y-76900990D02*
X120870551Y-76948609D01*
X120870551Y-76948609D02*
X120775313Y-76996228D01*
X120775313Y-76996228D02*
X120394361Y-76996228D01*
X121346742Y-77424800D02*
X121489599Y-77472419D01*
X121489599Y-77472419D02*
X121727694Y-77472419D01*
X121727694Y-77472419D02*
X121822932Y-77424800D01*
X121822932Y-77424800D02*
X121870551Y-77377180D01*
X121870551Y-77377180D02*
X121918170Y-77281942D01*
X121918170Y-77281942D02*
X121918170Y-77186704D01*
X121918170Y-77186704D02*
X121870551Y-77091466D01*
X121870551Y-77091466D02*
X121822932Y-77043847D01*
X121822932Y-77043847D02*
X121727694Y-76996228D01*
X121727694Y-76996228D02*
X121537218Y-76948609D01*
X121537218Y-76948609D02*
X121441980Y-76900990D01*
X121441980Y-76900990D02*
X121394361Y-76853371D01*
X121394361Y-76853371D02*
X121346742Y-76758133D01*
X121346742Y-76758133D02*
X121346742Y-76662895D01*
X121346742Y-76662895D02*
X121394361Y-76567657D01*
X121394361Y-76567657D02*
X121441980Y-76520038D01*
X121441980Y-76520038D02*
X121537218Y-76472419D01*
X121537218Y-76472419D02*
X121775313Y-76472419D01*
X121775313Y-76472419D02*
X121918170Y-76520038D01*
X123013409Y-76805752D02*
X123251504Y-77472419D01*
X123251504Y-77472419D02*
X123489599Y-76805752D01*
X123870552Y-77472419D02*
X123870552Y-76805752D01*
X123870552Y-76472419D02*
X123822933Y-76520038D01*
X123822933Y-76520038D02*
X123870552Y-76567657D01*
X123870552Y-76567657D02*
X123918171Y-76520038D01*
X123918171Y-76520038D02*
X123870552Y-76472419D01*
X123870552Y-76472419D02*
X123870552Y-76567657D01*
X124775313Y-77472419D02*
X124775313Y-76948609D01*
X124775313Y-76948609D02*
X124727694Y-76853371D01*
X124727694Y-76853371D02*
X124632456Y-76805752D01*
X124632456Y-76805752D02*
X124441980Y-76805752D01*
X124441980Y-76805752D02*
X124346742Y-76853371D01*
X124775313Y-77424800D02*
X124680075Y-77472419D01*
X124680075Y-77472419D02*
X124441980Y-77472419D01*
X124441980Y-77472419D02*
X124346742Y-77424800D01*
X124346742Y-77424800D02*
X124299123Y-77329561D01*
X124299123Y-77329561D02*
X124299123Y-77234323D01*
X124299123Y-77234323D02*
X124346742Y-77139085D01*
X124346742Y-77139085D02*
X124441980Y-77091466D01*
X124441980Y-77091466D02*
X124680075Y-77091466D01*
X124680075Y-77091466D02*
X124775313Y-77043847D01*
X126441980Y-77424800D02*
X126346742Y-77472419D01*
X126346742Y-77472419D02*
X126156266Y-77472419D01*
X126156266Y-77472419D02*
X126061028Y-77424800D01*
X126061028Y-77424800D02*
X126013409Y-77377180D01*
X126013409Y-77377180D02*
X125965790Y-77281942D01*
X125965790Y-77281942D02*
X125965790Y-76996228D01*
X125965790Y-76996228D02*
X126013409Y-76900990D01*
X126013409Y-76900990D02*
X126061028Y-76853371D01*
X126061028Y-76853371D02*
X126156266Y-76805752D01*
X126156266Y-76805752D02*
X126346742Y-76805752D01*
X126346742Y-76805752D02*
X126441980Y-76853371D01*
X127299123Y-77472419D02*
X127299123Y-76948609D01*
X127299123Y-76948609D02*
X127251504Y-76853371D01*
X127251504Y-76853371D02*
X127156266Y-76805752D01*
X127156266Y-76805752D02*
X126965790Y-76805752D01*
X126965790Y-76805752D02*
X126870552Y-76853371D01*
X127299123Y-77424800D02*
X127203885Y-77472419D01*
X127203885Y-77472419D02*
X126965790Y-77472419D01*
X126965790Y-77472419D02*
X126870552Y-77424800D01*
X126870552Y-77424800D02*
X126822933Y-77329561D01*
X126822933Y-77329561D02*
X126822933Y-77234323D01*
X126822933Y-77234323D02*
X126870552Y-77139085D01*
X126870552Y-77139085D02*
X126965790Y-77091466D01*
X126965790Y-77091466D02*
X127203885Y-77091466D01*
X127203885Y-77091466D02*
X127299123Y-77043847D01*
X127775314Y-77472419D02*
X127775314Y-76472419D01*
X127775314Y-76853371D02*
X127870552Y-76805752D01*
X127870552Y-76805752D02*
X128061028Y-76805752D01*
X128061028Y-76805752D02*
X128156266Y-76853371D01*
X128156266Y-76853371D02*
X128203885Y-76900990D01*
X128203885Y-76900990D02*
X128251504Y-76996228D01*
X128251504Y-76996228D02*
X128251504Y-77281942D01*
X128251504Y-77281942D02*
X128203885Y-77377180D01*
X128203885Y-77377180D02*
X128156266Y-77424800D01*
X128156266Y-77424800D02*
X128061028Y-77472419D01*
X128061028Y-77472419D02*
X127870552Y-77472419D01*
X127870552Y-77472419D02*
X127775314Y-77424800D01*
X128822933Y-77472419D02*
X128727695Y-77424800D01*
X128727695Y-77424800D02*
X128680076Y-77329561D01*
X128680076Y-77329561D02*
X128680076Y-76472419D01*
X129584838Y-77424800D02*
X129489600Y-77472419D01*
X129489600Y-77472419D02*
X129299124Y-77472419D01*
X129299124Y-77472419D02*
X129203886Y-77424800D01*
X129203886Y-77424800D02*
X129156267Y-77329561D01*
X129156267Y-77329561D02*
X129156267Y-76948609D01*
X129156267Y-76948609D02*
X129203886Y-76853371D01*
X129203886Y-76853371D02*
X129299124Y-76805752D01*
X129299124Y-76805752D02*
X129489600Y-76805752D01*
X129489600Y-76805752D02*
X129584838Y-76853371D01*
X129584838Y-76853371D02*
X129632457Y-76948609D01*
X129632457Y-76948609D02*
X129632457Y-77043847D01*
X129632457Y-77043847D02*
X129156267Y-77139085D01*
X115656265Y-63724800D02*
X115799122Y-63772419D01*
X115799122Y-63772419D02*
X116037217Y-63772419D01*
X116037217Y-63772419D02*
X116132455Y-63724800D01*
X116132455Y-63724800D02*
X116180074Y-63677180D01*
X116180074Y-63677180D02*
X116227693Y-63581942D01*
X116227693Y-63581942D02*
X116227693Y-63486704D01*
X116227693Y-63486704D02*
X116180074Y-63391466D01*
X116180074Y-63391466D02*
X116132455Y-63343847D01*
X116132455Y-63343847D02*
X116037217Y-63296228D01*
X116037217Y-63296228D02*
X115846741Y-63248609D01*
X115846741Y-63248609D02*
X115751503Y-63200990D01*
X115751503Y-63200990D02*
X115703884Y-63153371D01*
X115703884Y-63153371D02*
X115656265Y-63058133D01*
X115656265Y-63058133D02*
X115656265Y-62962895D01*
X115656265Y-62962895D02*
X115703884Y-62867657D01*
X115703884Y-62867657D02*
X115751503Y-62820038D01*
X115751503Y-62820038D02*
X115846741Y-62772419D01*
X115846741Y-62772419D02*
X116084836Y-62772419D01*
X116084836Y-62772419D02*
X116227693Y-62820038D01*
X117084836Y-63772419D02*
X117084836Y-63248609D01*
X117084836Y-63248609D02*
X117037217Y-63153371D01*
X117037217Y-63153371D02*
X116941979Y-63105752D01*
X116941979Y-63105752D02*
X116751503Y-63105752D01*
X116751503Y-63105752D02*
X116656265Y-63153371D01*
X117084836Y-63724800D02*
X116989598Y-63772419D01*
X116989598Y-63772419D02*
X116751503Y-63772419D01*
X116751503Y-63772419D02*
X116656265Y-63724800D01*
X116656265Y-63724800D02*
X116608646Y-63629561D01*
X116608646Y-63629561D02*
X116608646Y-63534323D01*
X116608646Y-63534323D02*
X116656265Y-63439085D01*
X116656265Y-63439085D02*
X116751503Y-63391466D01*
X116751503Y-63391466D02*
X116989598Y-63391466D01*
X116989598Y-63391466D02*
X117084836Y-63343847D01*
X117561027Y-63772419D02*
X117561027Y-63105752D01*
X117561027Y-63200990D02*
X117608646Y-63153371D01*
X117608646Y-63153371D02*
X117703884Y-63105752D01*
X117703884Y-63105752D02*
X117846741Y-63105752D01*
X117846741Y-63105752D02*
X117941979Y-63153371D01*
X117941979Y-63153371D02*
X117989598Y-63248609D01*
X117989598Y-63248609D02*
X117989598Y-63772419D01*
X117989598Y-63248609D02*
X118037217Y-63153371D01*
X118037217Y-63153371D02*
X118132455Y-63105752D01*
X118132455Y-63105752D02*
X118275312Y-63105752D01*
X118275312Y-63105752D02*
X118370551Y-63153371D01*
X118370551Y-63153371D02*
X118418170Y-63248609D01*
X118418170Y-63248609D02*
X118418170Y-63772419D01*
X118751503Y-63105752D02*
X119132455Y-63105752D01*
X118894360Y-62772419D02*
X118894360Y-63629561D01*
X118894360Y-63629561D02*
X118941979Y-63724800D01*
X118941979Y-63724800D02*
X119037217Y-63772419D01*
X119037217Y-63772419D02*
X119132455Y-63772419D01*
X119846741Y-63724800D02*
X119751503Y-63772419D01*
X119751503Y-63772419D02*
X119561027Y-63772419D01*
X119561027Y-63772419D02*
X119465789Y-63724800D01*
X119465789Y-63724800D02*
X119418170Y-63629561D01*
X119418170Y-63629561D02*
X119418170Y-63248609D01*
X119418170Y-63248609D02*
X119465789Y-63153371D01*
X119465789Y-63153371D02*
X119561027Y-63105752D01*
X119561027Y-63105752D02*
X119751503Y-63105752D01*
X119751503Y-63105752D02*
X119846741Y-63153371D01*
X119846741Y-63153371D02*
X119894360Y-63248609D01*
X119894360Y-63248609D02*
X119894360Y-63343847D01*
X119894360Y-63343847D02*
X119418170Y-63439085D01*
X120751503Y-63724800D02*
X120656265Y-63772419D01*
X120656265Y-63772419D02*
X120465789Y-63772419D01*
X120465789Y-63772419D02*
X120370551Y-63724800D01*
X120370551Y-63724800D02*
X120322932Y-63677180D01*
X120322932Y-63677180D02*
X120275313Y-63581942D01*
X120275313Y-63581942D02*
X120275313Y-63296228D01*
X120275313Y-63296228D02*
X120322932Y-63200990D01*
X120322932Y-63200990D02*
X120370551Y-63153371D01*
X120370551Y-63153371D02*
X120465789Y-63105752D01*
X120465789Y-63105752D02*
X120656265Y-63105752D01*
X120656265Y-63105752D02*
X120751503Y-63153371D01*
X121941980Y-63772419D02*
X121941980Y-62772419D01*
X121941980Y-63248609D02*
X122513408Y-63248609D01*
X122513408Y-63772419D02*
X122513408Y-62772419D01*
X122941980Y-63724800D02*
X123084837Y-63772419D01*
X123084837Y-63772419D02*
X123322932Y-63772419D01*
X123322932Y-63772419D02*
X123418170Y-63724800D01*
X123418170Y-63724800D02*
X123465789Y-63677180D01*
X123465789Y-63677180D02*
X123513408Y-63581942D01*
X123513408Y-63581942D02*
X123513408Y-63486704D01*
X123513408Y-63486704D02*
X123465789Y-63391466D01*
X123465789Y-63391466D02*
X123418170Y-63343847D01*
X123418170Y-63343847D02*
X123322932Y-63296228D01*
X123322932Y-63296228D02*
X123132456Y-63248609D01*
X123132456Y-63248609D02*
X123037218Y-63200990D01*
X123037218Y-63200990D02*
X122989599Y-63153371D01*
X122989599Y-63153371D02*
X122941980Y-63058133D01*
X122941980Y-63058133D02*
X122941980Y-62962895D01*
X122941980Y-62962895D02*
X122989599Y-62867657D01*
X122989599Y-62867657D02*
X123037218Y-62820038D01*
X123037218Y-62820038D02*
X123132456Y-62772419D01*
X123132456Y-62772419D02*
X123370551Y-62772419D01*
X123370551Y-62772419D02*
X123513408Y-62820038D01*
X123941980Y-63248609D02*
X124275313Y-63248609D01*
X124418170Y-63772419D02*
X123941980Y-63772419D01*
X123941980Y-63772419D02*
X123941980Y-62772419D01*
X123941980Y-62772419D02*
X124418170Y-62772419D01*
X125418170Y-63677180D02*
X125370551Y-63724800D01*
X125370551Y-63724800D02*
X125227694Y-63772419D01*
X125227694Y-63772419D02*
X125132456Y-63772419D01*
X125132456Y-63772419D02*
X124989599Y-63724800D01*
X124989599Y-63724800D02*
X124894361Y-63629561D01*
X124894361Y-63629561D02*
X124846742Y-63534323D01*
X124846742Y-63534323D02*
X124799123Y-63343847D01*
X124799123Y-63343847D02*
X124799123Y-63200990D01*
X124799123Y-63200990D02*
X124846742Y-63010514D01*
X124846742Y-63010514D02*
X124894361Y-62915276D01*
X124894361Y-62915276D02*
X124989599Y-62820038D01*
X124989599Y-62820038D02*
X125132456Y-62772419D01*
X125132456Y-62772419D02*
X125227694Y-62772419D01*
X125227694Y-62772419D02*
X125370551Y-62820038D01*
X125370551Y-62820038D02*
X125418170Y-62867657D01*
X125989599Y-63200990D02*
X125894361Y-63153371D01*
X125894361Y-63153371D02*
X125846742Y-63105752D01*
X125846742Y-63105752D02*
X125799123Y-63010514D01*
X125799123Y-63010514D02*
X125799123Y-62962895D01*
X125799123Y-62962895D02*
X125846742Y-62867657D01*
X125846742Y-62867657D02*
X125894361Y-62820038D01*
X125894361Y-62820038D02*
X125989599Y-62772419D01*
X125989599Y-62772419D02*
X126180075Y-62772419D01*
X126180075Y-62772419D02*
X126275313Y-62820038D01*
X126275313Y-62820038D02*
X126322932Y-62867657D01*
X126322932Y-62867657D02*
X126370551Y-62962895D01*
X126370551Y-62962895D02*
X126370551Y-63010514D01*
X126370551Y-63010514D02*
X126322932Y-63105752D01*
X126322932Y-63105752D02*
X126275313Y-63153371D01*
X126275313Y-63153371D02*
X126180075Y-63200990D01*
X126180075Y-63200990D02*
X125989599Y-63200990D01*
X125989599Y-63200990D02*
X125894361Y-63248609D01*
X125894361Y-63248609D02*
X125846742Y-63296228D01*
X125846742Y-63296228D02*
X125799123Y-63391466D01*
X125799123Y-63391466D02*
X125799123Y-63581942D01*
X125799123Y-63581942D02*
X125846742Y-63677180D01*
X125846742Y-63677180D02*
X125894361Y-63724800D01*
X125894361Y-63724800D02*
X125989599Y-63772419D01*
X125989599Y-63772419D02*
X126180075Y-63772419D01*
X126180075Y-63772419D02*
X126275313Y-63724800D01*
X126275313Y-63724800D02*
X126322932Y-63677180D01*
X126322932Y-63677180D02*
X126370551Y-63581942D01*
X126370551Y-63581942D02*
X126370551Y-63391466D01*
X126370551Y-63391466D02*
X126322932Y-63296228D01*
X126322932Y-63296228D02*
X126275313Y-63248609D01*
X126275313Y-63248609D02*
X126180075Y-63200990D01*
X126799123Y-63391466D02*
X127561028Y-63391466D01*
X128561027Y-63772419D02*
X127989599Y-63772419D01*
X128275313Y-63772419D02*
X128275313Y-62772419D01*
X128275313Y-62772419D02*
X128180075Y-62915276D01*
X128180075Y-62915276D02*
X128084837Y-63010514D01*
X128084837Y-63010514D02*
X127989599Y-63058133D01*
X129513408Y-63772419D02*
X128941980Y-63772419D01*
X129227694Y-63772419D02*
X129227694Y-62772419D01*
X129227694Y-62772419D02*
X129132456Y-62915276D01*
X129132456Y-62915276D02*
X129037218Y-63010514D01*
X129037218Y-63010514D02*
X128941980Y-63058133D01*
X129846742Y-62772419D02*
X130465789Y-62772419D01*
X130465789Y-62772419D02*
X130132456Y-63153371D01*
X130132456Y-63153371D02*
X130275313Y-63153371D01*
X130275313Y-63153371D02*
X130370551Y-63200990D01*
X130370551Y-63200990D02*
X130418170Y-63248609D01*
X130418170Y-63248609D02*
X130465789Y-63343847D01*
X130465789Y-63343847D02*
X130465789Y-63581942D01*
X130465789Y-63581942D02*
X130418170Y-63677180D01*
X130418170Y-63677180D02*
X130370551Y-63724800D01*
X130370551Y-63724800D02*
X130275313Y-63772419D01*
X130275313Y-63772419D02*
X129989599Y-63772419D01*
X129989599Y-63772419D02*
X129894361Y-63724800D01*
X129894361Y-63724800D02*
X129846742Y-63677180D01*
X130894361Y-63391466D02*
X131656266Y-63391466D01*
X132322932Y-62772419D02*
X132418170Y-62772419D01*
X132418170Y-62772419D02*
X132513408Y-62820038D01*
X132513408Y-62820038D02*
X132561027Y-62867657D01*
X132561027Y-62867657D02*
X132608646Y-62962895D01*
X132608646Y-62962895D02*
X132656265Y-63153371D01*
X132656265Y-63153371D02*
X132656265Y-63391466D01*
X132656265Y-63391466D02*
X132608646Y-63581942D01*
X132608646Y-63581942D02*
X132561027Y-63677180D01*
X132561027Y-63677180D02*
X132513408Y-63724800D01*
X132513408Y-63724800D02*
X132418170Y-63772419D01*
X132418170Y-63772419D02*
X132322932Y-63772419D01*
X132322932Y-63772419D02*
X132227694Y-63724800D01*
X132227694Y-63724800D02*
X132180075Y-63677180D01*
X132180075Y-63677180D02*
X132132456Y-63581942D01*
X132132456Y-63581942D02*
X132084837Y-63391466D01*
X132084837Y-63391466D02*
X132084837Y-63153371D01*
X132084837Y-63153371D02*
X132132456Y-62962895D01*
X132132456Y-62962895D02*
X132180075Y-62867657D01*
X132180075Y-62867657D02*
X132227694Y-62820038D01*
X132227694Y-62820038D02*
X132322932Y-62772419D01*
X133608646Y-63772419D02*
X133037218Y-63772419D01*
X133322932Y-63772419D02*
X133322932Y-62772419D01*
X133322932Y-62772419D02*
X133227694Y-62915276D01*
X133227694Y-62915276D02*
X133132456Y-63010514D01*
X133132456Y-63010514D02*
X133037218Y-63058133D01*
X134037218Y-63391466D02*
X134799123Y-63391466D01*
X135227694Y-63724800D02*
X135370551Y-63772419D01*
X135370551Y-63772419D02*
X135608646Y-63772419D01*
X135608646Y-63772419D02*
X135703884Y-63724800D01*
X135703884Y-63724800D02*
X135751503Y-63677180D01*
X135751503Y-63677180D02*
X135799122Y-63581942D01*
X135799122Y-63581942D02*
X135799122Y-63486704D01*
X135799122Y-63486704D02*
X135751503Y-63391466D01*
X135751503Y-63391466D02*
X135703884Y-63343847D01*
X135703884Y-63343847D02*
X135608646Y-63296228D01*
X135608646Y-63296228D02*
X135418170Y-63248609D01*
X135418170Y-63248609D02*
X135322932Y-63200990D01*
X135322932Y-63200990D02*
X135275313Y-63153371D01*
X135275313Y-63153371D02*
X135227694Y-63058133D01*
X135227694Y-63058133D02*
X135227694Y-62962895D01*
X135227694Y-62962895D02*
X135275313Y-62867657D01*
X135275313Y-62867657D02*
X135322932Y-62820038D01*
X135322932Y-62820038D02*
X135418170Y-62772419D01*
X135418170Y-62772419D02*
X135656265Y-62772419D01*
X135656265Y-62772419D02*
X135799122Y-62820038D01*
X136227694Y-63391466D02*
X136989599Y-63391466D01*
X137465789Y-63772419D02*
X137465789Y-62772419D01*
X137465789Y-62772419D02*
X137703884Y-62772419D01*
X137703884Y-62772419D02*
X137846741Y-62820038D01*
X137846741Y-62820038D02*
X137941979Y-62915276D01*
X137941979Y-62915276D02*
X137989598Y-63010514D01*
X137989598Y-63010514D02*
X138037217Y-63200990D01*
X138037217Y-63200990D02*
X138037217Y-63343847D01*
X138037217Y-63343847D02*
X137989598Y-63534323D01*
X137989598Y-63534323D02*
X137941979Y-63629561D01*
X137941979Y-63629561D02*
X137846741Y-63724800D01*
X137846741Y-63724800D02*
X137703884Y-63772419D01*
X137703884Y-63772419D02*
X137465789Y-63772419D01*
X138322932Y-62772419D02*
X138656265Y-63772419D01*
X138656265Y-63772419D02*
X138989598Y-62772419D01*
X139322932Y-63391466D02*
X140084837Y-63391466D01*
X140513408Y-63486704D02*
X140989598Y-63486704D01*
X140418170Y-63772419D02*
X140751503Y-62772419D01*
X140751503Y-62772419D02*
X141084836Y-63772419D01*
X141418170Y-63391466D02*
X142180075Y-63391466D01*
X143132455Y-63772419D02*
X142656265Y-63772419D01*
X142656265Y-63772419D02*
X142656265Y-62772419D01*
X143418170Y-62867657D02*
X143465789Y-62820038D01*
X143465789Y-62820038D02*
X143561027Y-62772419D01*
X143561027Y-62772419D02*
X143799122Y-62772419D01*
X143799122Y-62772419D02*
X143894360Y-62820038D01*
X143894360Y-62820038D02*
X143941979Y-62867657D01*
X143941979Y-62867657D02*
X143989598Y-62962895D01*
X143989598Y-62962895D02*
X143989598Y-63058133D01*
X143989598Y-63058133D02*
X143941979Y-63200990D01*
X143941979Y-63200990D02*
X143370551Y-63772419D01*
X143370551Y-63772419D02*
X143989598Y-63772419D01*
D11*
X128190475Y-60954819D02*
X127857142Y-60478628D01*
X127619047Y-60954819D02*
X127619047Y-59954819D01*
X127619047Y-59954819D02*
X127999999Y-59954819D01*
X127999999Y-59954819D02*
X128095237Y-60002438D01*
X128095237Y-60002438D02*
X128142856Y-60050057D01*
X128142856Y-60050057D02*
X128190475Y-60145295D01*
X128190475Y-60145295D02*
X128190475Y-60288152D01*
X128190475Y-60288152D02*
X128142856Y-60383390D01*
X128142856Y-60383390D02*
X128095237Y-60431009D01*
X128095237Y-60431009D02*
X127999999Y-60478628D01*
X127999999Y-60478628D02*
X127619047Y-60478628D01*
X128619047Y-60431009D02*
X128952380Y-60431009D01*
X129095237Y-60954819D02*
X128619047Y-60954819D01*
X128619047Y-60954819D02*
X128619047Y-59954819D01*
X128619047Y-59954819D02*
X129095237Y-59954819D01*
X129857142Y-60431009D02*
X129523809Y-60431009D01*
X129523809Y-60954819D02*
X129523809Y-59954819D01*
X129523809Y-59954819D02*
X129999999Y-59954819D01*
X130523809Y-59954819D02*
X130523809Y-60192914D01*
X130285714Y-60097676D02*
X130523809Y-60192914D01*
X130523809Y-60192914D02*
X130761904Y-60097676D01*
X130380952Y-60383390D02*
X130523809Y-60192914D01*
X130523809Y-60192914D02*
X130666666Y-60383390D01*
X131285714Y-59954819D02*
X131285714Y-60192914D01*
X131047619Y-60097676D02*
X131285714Y-60192914D01*
X131285714Y-60192914D02*
X131523809Y-60097676D01*
X131142857Y-60383390D02*
X131285714Y-60192914D01*
X131285714Y-60192914D02*
X131428571Y-60383390D01*
X132428571Y-60954819D02*
X131857143Y-60954819D01*
X132142857Y-60954819D02*
X132142857Y-59954819D01*
X132142857Y-59954819D02*
X132047619Y-60097676D01*
X132047619Y-60097676D02*
X131952381Y-60192914D01*
X131952381Y-60192914D02*
X131857143Y-60240533D01*
D12*
%TO.C,REF\u002A\u002A1*%
X117965000Y-66500000D02*
X142035000Y-66500000D01*
X117965000Y-73500000D02*
X117965000Y-66500000D01*
X142035000Y-66500000D02*
X142035000Y-73500000D01*
X142035000Y-73500000D02*
X117965000Y-73500000D01*
X123700000Y-74000000D02*
G75*
G02*
X123500000Y-74000000I-100000J0D01*
G01*
X123500000Y-74000000D02*
G75*
G02*
X123700000Y-74000000I100000J0D01*
G01*
%TD*%
M02*
