%TF.GenerationSoftware,KiCad,Pcbnew,8.0.2-1*%
%TF.CreationDate,2024-06-17T16:24:44-04:00*%
%TF.ProjectId,InverterBoard,496e7665-7274-4657-9242-6f6172642e6b,rev?*%
%TF.SameCoordinates,Original*%
%TF.FileFunction,Paste,Top*%
%TF.FilePolarity,Positive*%
%FSLAX46Y46*%
G04 Gerber Fmt 4.6, Leading zero omitted, Abs format (unit mm)*
G04 Created by KiCad (PCBNEW 8.0.2-1) date 2024-06-17 16:24:44*
%MOMM*%
%LPD*%
G01*
G04 APERTURE LIST*
%ADD10C,0.010000*%
%ADD11R,0.500000X1.200000*%
G04 APERTURE END LIST*
D10*
%TO.C,REF\u002A\u002A1*%
X120571000Y-68732000D02*
X120638000Y-68737000D01*
X120704000Y-68746000D01*
X120769000Y-68758000D01*
X120834000Y-68773000D01*
X120897000Y-68792000D01*
X120960000Y-68814000D01*
X121022000Y-68840000D01*
X121082000Y-68868000D01*
X121140000Y-68900000D01*
X121197000Y-68935000D01*
X121251000Y-68973000D01*
X121304000Y-69013000D01*
X121355000Y-69056000D01*
X121403000Y-69102000D01*
X121449000Y-69150000D01*
X121492000Y-69201000D01*
X121532000Y-69254000D01*
X121570000Y-69308000D01*
X121605000Y-69365000D01*
X121637000Y-69423000D01*
X121665000Y-69483000D01*
X121691000Y-69545000D01*
X121713000Y-69608000D01*
X121732000Y-69671000D01*
X121747000Y-69736000D01*
X121759000Y-69801000D01*
X121768000Y-69867000D01*
X121773000Y-69934000D01*
X121775000Y-70000000D01*
X121773000Y-70066000D01*
X121768000Y-70133000D01*
X121759000Y-70199000D01*
X121747000Y-70264000D01*
X121732000Y-70329000D01*
X121713000Y-70392000D01*
X121691000Y-70455000D01*
X121665000Y-70517000D01*
X121637000Y-70577000D01*
X121605000Y-70635000D01*
X121570000Y-70692000D01*
X121532000Y-70746000D01*
X121492000Y-70799000D01*
X121449000Y-70850000D01*
X121403000Y-70898000D01*
X121378000Y-70921000D01*
X121352000Y-70944000D01*
X121326000Y-70967000D01*
X121299000Y-70989000D01*
X121271000Y-71010000D01*
X121243000Y-71030000D01*
X121214000Y-71049000D01*
X121185000Y-71068000D01*
X121156000Y-71086000D01*
X121125000Y-71103000D01*
X121095000Y-71120000D01*
X121064000Y-71135000D01*
X121033000Y-71150000D01*
X121001000Y-71164000D01*
X120969000Y-71177000D01*
X120936000Y-71190000D01*
X120903000Y-71201000D01*
X120870000Y-71212000D01*
X120837000Y-71221000D01*
X120804000Y-71230000D01*
X120770000Y-71238000D01*
X120736000Y-71245000D01*
X120702000Y-71251000D01*
X120667000Y-71257000D01*
X120633000Y-71261000D01*
X120598000Y-71264000D01*
X120564000Y-71267000D01*
X120529000Y-71269000D01*
X120494000Y-71269000D01*
X120459000Y-71269000D01*
X119236000Y-70046000D01*
X119235700Y-70045959D01*
X119236000Y-70011000D01*
X119236000Y-69976000D01*
X119238000Y-69941000D01*
X119241000Y-69907000D01*
X119244000Y-69872000D01*
X119248000Y-69838000D01*
X119254000Y-69803000D01*
X119260000Y-69769000D01*
X119267000Y-69735000D01*
X119275000Y-69702000D01*
X119284000Y-69668000D01*
X119293000Y-69635000D01*
X119304000Y-69602000D01*
X119315000Y-69569000D01*
X119328000Y-69536000D01*
X119341000Y-69504000D01*
X119355000Y-69473000D01*
X119370000Y-69441000D01*
X119385000Y-69410000D01*
X119402000Y-69380000D01*
X119419000Y-69349000D01*
X119437000Y-69320000D01*
X119456000Y-69291000D01*
X119475000Y-69262000D01*
X119495000Y-69234000D01*
X119516000Y-69206000D01*
X119538000Y-69179000D01*
X119561000Y-69153000D01*
X119584000Y-69127000D01*
X119607000Y-69102000D01*
X119655000Y-69056000D01*
X119706000Y-69013000D01*
X119759000Y-68973000D01*
X119813000Y-68935000D01*
X119870000Y-68900000D01*
X119928000Y-68868000D01*
X119988000Y-68840000D01*
X120050000Y-68814000D01*
X120113000Y-68792000D01*
X120176000Y-68773000D01*
X120241000Y-68758000D01*
X120306000Y-68746000D01*
X120372000Y-68737000D01*
X120439000Y-68732000D01*
X120505000Y-68730000D01*
X120571000Y-68732000D01*
G36*
X120571000Y-68732000D02*
G01*
X120638000Y-68737000D01*
X120704000Y-68746000D01*
X120769000Y-68758000D01*
X120834000Y-68773000D01*
X120897000Y-68792000D01*
X120960000Y-68814000D01*
X121022000Y-68840000D01*
X121082000Y-68868000D01*
X121140000Y-68900000D01*
X121197000Y-68935000D01*
X121251000Y-68973000D01*
X121304000Y-69013000D01*
X121355000Y-69056000D01*
X121403000Y-69102000D01*
X121449000Y-69150000D01*
X121492000Y-69201000D01*
X121532000Y-69254000D01*
X121570000Y-69308000D01*
X121605000Y-69365000D01*
X121637000Y-69423000D01*
X121665000Y-69483000D01*
X121691000Y-69545000D01*
X121713000Y-69608000D01*
X121732000Y-69671000D01*
X121747000Y-69736000D01*
X121759000Y-69801000D01*
X121768000Y-69867000D01*
X121773000Y-69934000D01*
X121775000Y-70000000D01*
X121773000Y-70066000D01*
X121768000Y-70133000D01*
X121759000Y-70199000D01*
X121747000Y-70264000D01*
X121732000Y-70329000D01*
X121713000Y-70392000D01*
X121691000Y-70455000D01*
X121665000Y-70517000D01*
X121637000Y-70577000D01*
X121605000Y-70635000D01*
X121570000Y-70692000D01*
X121532000Y-70746000D01*
X121492000Y-70799000D01*
X121449000Y-70850000D01*
X121403000Y-70898000D01*
X121378000Y-70921000D01*
X121352000Y-70944000D01*
X121326000Y-70967000D01*
X121299000Y-70989000D01*
X121271000Y-71010000D01*
X121243000Y-71030000D01*
X121214000Y-71049000D01*
X121185000Y-71068000D01*
X121156000Y-71086000D01*
X121125000Y-71103000D01*
X121095000Y-71120000D01*
X121064000Y-71135000D01*
X121033000Y-71150000D01*
X121001000Y-71164000D01*
X120969000Y-71177000D01*
X120936000Y-71190000D01*
X120903000Y-71201000D01*
X120870000Y-71212000D01*
X120837000Y-71221000D01*
X120804000Y-71230000D01*
X120770000Y-71238000D01*
X120736000Y-71245000D01*
X120702000Y-71251000D01*
X120667000Y-71257000D01*
X120633000Y-71261000D01*
X120598000Y-71264000D01*
X120564000Y-71267000D01*
X120529000Y-71269000D01*
X120494000Y-71269000D01*
X120459000Y-71269000D01*
X119236000Y-70046000D01*
X119235700Y-70045959D01*
X119236000Y-70011000D01*
X119236000Y-69976000D01*
X119238000Y-69941000D01*
X119241000Y-69907000D01*
X119244000Y-69872000D01*
X119248000Y-69838000D01*
X119254000Y-69803000D01*
X119260000Y-69769000D01*
X119267000Y-69735000D01*
X119275000Y-69702000D01*
X119284000Y-69668000D01*
X119293000Y-69635000D01*
X119304000Y-69602000D01*
X119315000Y-69569000D01*
X119328000Y-69536000D01*
X119341000Y-69504000D01*
X119355000Y-69473000D01*
X119370000Y-69441000D01*
X119385000Y-69410000D01*
X119402000Y-69380000D01*
X119419000Y-69349000D01*
X119437000Y-69320000D01*
X119456000Y-69291000D01*
X119475000Y-69262000D01*
X119495000Y-69234000D01*
X119516000Y-69206000D01*
X119538000Y-69179000D01*
X119561000Y-69153000D01*
X119584000Y-69127000D01*
X119607000Y-69102000D01*
X119655000Y-69056000D01*
X119706000Y-69013000D01*
X119759000Y-68973000D01*
X119813000Y-68935000D01*
X119870000Y-68900000D01*
X119928000Y-68868000D01*
X119988000Y-68840000D01*
X120050000Y-68814000D01*
X120113000Y-68792000D01*
X120176000Y-68773000D01*
X120241000Y-68758000D01*
X120306000Y-68746000D01*
X120372000Y-68737000D01*
X120439000Y-68732000D01*
X120505000Y-68730000D01*
X120571000Y-68732000D01*
G37*
X139561000Y-68732000D02*
X139628000Y-68737000D01*
X139694000Y-68746000D01*
X139759000Y-68758000D01*
X139824000Y-68773000D01*
X139887000Y-68792000D01*
X139950000Y-68814000D01*
X140012000Y-68840000D01*
X140072000Y-68868000D01*
X140130000Y-68900000D01*
X140187000Y-68935000D01*
X140241000Y-68973000D01*
X140294000Y-69013000D01*
X140345000Y-69056000D01*
X140393000Y-69102000D01*
X140416000Y-69127000D01*
X140439000Y-69153000D01*
X140462000Y-69179000D01*
X140484000Y-69206000D01*
X140505000Y-69234000D01*
X140525000Y-69262000D01*
X140544000Y-69291000D01*
X140563000Y-69320000D01*
X140581000Y-69349000D01*
X140598000Y-69380000D01*
X140615000Y-69410000D01*
X140630000Y-69441000D01*
X140645000Y-69473000D01*
X140659000Y-69504000D01*
X140672000Y-69536000D01*
X140685000Y-69569000D01*
X140696000Y-69602000D01*
X140707000Y-69635000D01*
X140716000Y-69668000D01*
X140725000Y-69702000D01*
X140733000Y-69735000D01*
X140740000Y-69769000D01*
X140746000Y-69803000D01*
X140752000Y-69838000D01*
X140756000Y-69872000D01*
X140759000Y-69907000D01*
X140762000Y-69941000D01*
X140764000Y-69976000D01*
X140764000Y-70011000D01*
X140764000Y-70046000D01*
X139541000Y-71269000D01*
X139540960Y-71269260D01*
X139506000Y-71269000D01*
X139471000Y-71269000D01*
X139436000Y-71267000D01*
X139402000Y-71264000D01*
X139367000Y-71261000D01*
X139333000Y-71257000D01*
X139298000Y-71251000D01*
X139264000Y-71245000D01*
X139230000Y-71238000D01*
X139196000Y-71230000D01*
X139163000Y-71221000D01*
X139130000Y-71212000D01*
X139097000Y-71201000D01*
X139064000Y-71190000D01*
X139031000Y-71177000D01*
X138999000Y-71164000D01*
X138967000Y-71150000D01*
X138936000Y-71135000D01*
X138905000Y-71120000D01*
X138875000Y-71103000D01*
X138844000Y-71086000D01*
X138815000Y-71068000D01*
X138786000Y-71049000D01*
X138757000Y-71030000D01*
X138729000Y-71010000D01*
X138701000Y-70989000D01*
X138674000Y-70967000D01*
X138648000Y-70944000D01*
X138622000Y-70921000D01*
X138597000Y-70898000D01*
X138551000Y-70850000D01*
X138508000Y-70799000D01*
X138468000Y-70746000D01*
X138430000Y-70692000D01*
X138395000Y-70635000D01*
X138363000Y-70577000D01*
X138335000Y-70517000D01*
X138309000Y-70455000D01*
X138287000Y-70392000D01*
X138268000Y-70329000D01*
X138253000Y-70264000D01*
X138241000Y-70199000D01*
X138232000Y-70133000D01*
X138227000Y-70066000D01*
X138225000Y-70000000D01*
X138227000Y-69934000D01*
X138232000Y-69867000D01*
X138241000Y-69801000D01*
X138253000Y-69736000D01*
X138268000Y-69671000D01*
X138287000Y-69608000D01*
X138309000Y-69545000D01*
X138335000Y-69483000D01*
X138363000Y-69423000D01*
X138395000Y-69365000D01*
X138430000Y-69308000D01*
X138468000Y-69254000D01*
X138508000Y-69201000D01*
X138551000Y-69150000D01*
X138597000Y-69102000D01*
X138645000Y-69056000D01*
X138696000Y-69013000D01*
X138749000Y-68973000D01*
X138803000Y-68935000D01*
X138860000Y-68900000D01*
X138918000Y-68868000D01*
X138978000Y-68840000D01*
X139040000Y-68814000D01*
X139103000Y-68792000D01*
X139166000Y-68773000D01*
X139231000Y-68758000D01*
X139296000Y-68746000D01*
X139362000Y-68737000D01*
X139429000Y-68732000D01*
X139495000Y-68730000D01*
X139561000Y-68732000D01*
G36*
X139561000Y-68732000D02*
G01*
X139628000Y-68737000D01*
X139694000Y-68746000D01*
X139759000Y-68758000D01*
X139824000Y-68773000D01*
X139887000Y-68792000D01*
X139950000Y-68814000D01*
X140012000Y-68840000D01*
X140072000Y-68868000D01*
X140130000Y-68900000D01*
X140187000Y-68935000D01*
X140241000Y-68973000D01*
X140294000Y-69013000D01*
X140345000Y-69056000D01*
X140393000Y-69102000D01*
X140416000Y-69127000D01*
X140439000Y-69153000D01*
X140462000Y-69179000D01*
X140484000Y-69206000D01*
X140505000Y-69234000D01*
X140525000Y-69262000D01*
X140544000Y-69291000D01*
X140563000Y-69320000D01*
X140581000Y-69349000D01*
X140598000Y-69380000D01*
X140615000Y-69410000D01*
X140630000Y-69441000D01*
X140645000Y-69473000D01*
X140659000Y-69504000D01*
X140672000Y-69536000D01*
X140685000Y-69569000D01*
X140696000Y-69602000D01*
X140707000Y-69635000D01*
X140716000Y-69668000D01*
X140725000Y-69702000D01*
X140733000Y-69735000D01*
X140740000Y-69769000D01*
X140746000Y-69803000D01*
X140752000Y-69838000D01*
X140756000Y-69872000D01*
X140759000Y-69907000D01*
X140762000Y-69941000D01*
X140764000Y-69976000D01*
X140764000Y-70011000D01*
X140764000Y-70046000D01*
X139541000Y-71269000D01*
X139540960Y-71269260D01*
X139506000Y-71269000D01*
X139471000Y-71269000D01*
X139436000Y-71267000D01*
X139402000Y-71264000D01*
X139367000Y-71261000D01*
X139333000Y-71257000D01*
X139298000Y-71251000D01*
X139264000Y-71245000D01*
X139230000Y-71238000D01*
X139196000Y-71230000D01*
X139163000Y-71221000D01*
X139130000Y-71212000D01*
X139097000Y-71201000D01*
X139064000Y-71190000D01*
X139031000Y-71177000D01*
X138999000Y-71164000D01*
X138967000Y-71150000D01*
X138936000Y-71135000D01*
X138905000Y-71120000D01*
X138875000Y-71103000D01*
X138844000Y-71086000D01*
X138815000Y-71068000D01*
X138786000Y-71049000D01*
X138757000Y-71030000D01*
X138729000Y-71010000D01*
X138701000Y-70989000D01*
X138674000Y-70967000D01*
X138648000Y-70944000D01*
X138622000Y-70921000D01*
X138597000Y-70898000D01*
X138551000Y-70850000D01*
X138508000Y-70799000D01*
X138468000Y-70746000D01*
X138430000Y-70692000D01*
X138395000Y-70635000D01*
X138363000Y-70577000D01*
X138335000Y-70517000D01*
X138309000Y-70455000D01*
X138287000Y-70392000D01*
X138268000Y-70329000D01*
X138253000Y-70264000D01*
X138241000Y-70199000D01*
X138232000Y-70133000D01*
X138227000Y-70066000D01*
X138225000Y-70000000D01*
X138227000Y-69934000D01*
X138232000Y-69867000D01*
X138241000Y-69801000D01*
X138253000Y-69736000D01*
X138268000Y-69671000D01*
X138287000Y-69608000D01*
X138309000Y-69545000D01*
X138335000Y-69483000D01*
X138363000Y-69423000D01*
X138395000Y-69365000D01*
X138430000Y-69308000D01*
X138468000Y-69254000D01*
X138508000Y-69201000D01*
X138551000Y-69150000D01*
X138597000Y-69102000D01*
X138645000Y-69056000D01*
X138696000Y-69013000D01*
X138749000Y-68973000D01*
X138803000Y-68935000D01*
X138860000Y-68900000D01*
X138918000Y-68868000D01*
X138978000Y-68840000D01*
X139040000Y-68814000D01*
X139103000Y-68792000D01*
X139166000Y-68773000D01*
X139231000Y-68758000D01*
X139296000Y-68746000D01*
X139362000Y-68737000D01*
X139429000Y-68732000D01*
X139495000Y-68730000D01*
X139561000Y-68732000D01*
G37*
%TD*%
D11*
%TO.C,REF\u002A\u002A1*%
X123600000Y-71700000D03*
X123600000Y-68300000D03*
X124400000Y-71700000D03*
X124400000Y-68300000D03*
X125200000Y-71700000D03*
X125200000Y-68300000D03*
X126000000Y-71700000D03*
X126000000Y-68300000D03*
X126800000Y-71700000D03*
X126800000Y-68300000D03*
X127600000Y-71700000D03*
X127600000Y-68300000D03*
X131600000Y-71700000D03*
X131600000Y-68300000D03*
X132400000Y-71700000D03*
X132400000Y-68300000D03*
X133200000Y-71700000D03*
X133200000Y-68300000D03*
X134000000Y-71700000D03*
X134000000Y-68300000D03*
X134800000Y-71700000D03*
X134800000Y-68300000D03*
X135600000Y-71700000D03*
X135600000Y-68300000D03*
X136400000Y-71700000D03*
X136400000Y-68300000D03*
%TD*%
M02*
