M48
; DRILL file {KiCad 8.0.2-1} date 2024-06-17T16:24:42-0400
; FORMAT={-:-/ absolute / inch / decimal}
; #@! TF.CreationDate,2024-06-17T16:24:42-04:00
; #@! TF.GenerationSoftware,Kicad,Pcbnew,8.0.2-1
; #@! TF.FileFunction,Plated,1,2,PTH
FMAT,2
INCH
; #@! TA.AperFunction,Plated,PTH,ViaDrill
T1C0.0118
; #@! TA.AperFunction,Plated,PTH,ComponentDrill
T2C0.0331
%
G90
G05
T1
X4.7474Y-2.9581
X4.7598Y-2.9291
X4.8346Y-2.9291
X4.8474Y-2.5542
X4.8661Y-2.937
X4.9215Y-2.5509
X4.937Y-2.9291
X4.9606Y-2.5433
X5.0157Y-2.5394
X5.0315Y-2.9291
X5.0472Y-2.5787
X5.0816Y-2.5797
X5.1594Y-2.9591
X5.1772Y-2.9331
X5.1782Y-2.9844
X5.2195Y-2.9798
X5.249Y-2.9688
X5.2784Y-2.9573
X5.3144Y-2.9597
X5.316Y-2.9281
X5.3596Y-2.9278
X5.3622Y-2.5787
X5.3937Y-2.5827
X5.397Y-2.9319
X5.4312Y-2.9327
X5.4409Y-2.5827
T2
X4.7443Y-2.7559
X5.4919Y-2.7559
M30
