%TF.GenerationSoftware,KiCad,Pcbnew,8.0.2-1*%
%TF.CreationDate,2024-10-14T12:40:27-04:00*%
%TF.ProjectId,EvenLayers_1.3mm_SiPM,4576656e-4c61-4796-9572-735f312e336d,rev?*%
%TF.SameCoordinates,Original*%
%TF.FileFunction,Soldermask,Bot*%
%TF.FilePolarity,Negative*%
%FSLAX46Y46*%
G04 Gerber Fmt 4.6, Leading zero omitted, Abs format (unit mm)*
G04 Created by KiCad (PCBNEW 8.0.2-1) date 2024-10-14 12:40:27*
%MOMM*%
%LPD*%
G01*
G04 APERTURE LIST*
G04 Aperture macros list*
%AMRoundRect*
0 Rectangle with rounded corners*
0 $1 Rounding radius*
0 $2 $3 $4 $5 $6 $7 $8 $9 X,Y pos of 4 corners*
0 Add a 4 corners polygon primitive as box body*
4,1,4,$2,$3,$4,$5,$6,$7,$8,$9,$2,$3,0*
0 Add four circle primitives for the rounded corners*
1,1,$1+$1,$2,$3*
1,1,$1+$1,$4,$5*
1,1,$1+$1,$6,$7*
1,1,$1+$1,$8,$9*
0 Add four rect primitives between the rounded corners*
20,1,$1+$1,$2,$3,$4,$5,0*
20,1,$1+$1,$4,$5,$6,$7,0*
20,1,$1+$1,$6,$7,$8,$9,0*
20,1,$1+$1,$8,$9,$2,$3,0*%
G04 Aperture macros list end*
%ADD10RoundRect,0.200100X0.949900X-0.949900X0.949900X0.949900X-0.949900X0.949900X-0.949900X-0.949900X0*%
%ADD11C,2.500000*%
%ADD12C,1.270000*%
%ADD13RoundRect,0.102000X-0.600000X0.250000X-0.600000X-0.250000X0.600000X-0.250000X0.600000X0.250000X0*%
%ADD14C,1.552000*%
G04 APERTURE END LIST*
D10*
%TO.C,REF\u002A\u002A*%
X70500000Y-320000000D03*
D11*
X67960000Y-322540000D03*
X73040000Y-322540000D03*
X67960000Y-317460000D03*
X73040000Y-317460000D03*
%TD*%
D12*
%TO.C,REF\u002A\u002A*%
X71500000Y-129255000D03*
X71500000Y-150745000D03*
D13*
X71700000Y-133600000D03*
X68300000Y-133600000D03*
X71700000Y-134400000D03*
X68300000Y-134400000D03*
X71700000Y-135200000D03*
X68300000Y-135200000D03*
X71700000Y-136000000D03*
X68300000Y-136000000D03*
X71700000Y-136800000D03*
X68300000Y-136800000D03*
X71700000Y-137600000D03*
X68300000Y-137600000D03*
X71700000Y-141600000D03*
X68300000Y-141600000D03*
X71700000Y-142400000D03*
X68300000Y-142400000D03*
X71700000Y-143200000D03*
X68300000Y-143200000D03*
X71700000Y-144000000D03*
X68300000Y-144000000D03*
X71700000Y-144800000D03*
X68300000Y-144800000D03*
X71700000Y-145600000D03*
X68300000Y-145600000D03*
X71700000Y-146400000D03*
X68300000Y-146400000D03*
D14*
X70000000Y-130505000D03*
X70000000Y-149495000D03*
%TD*%
D12*
%TO.C,REF\u002A\u002A*%
X71500000Y-249255000D03*
X71500000Y-270745000D03*
D13*
X71700000Y-253600000D03*
X68300000Y-253600000D03*
X71700000Y-254400000D03*
X68300000Y-254400000D03*
X71700000Y-255200000D03*
X68300000Y-255200000D03*
X71700000Y-256000000D03*
X68300000Y-256000000D03*
X71700000Y-256800000D03*
X68300000Y-256800000D03*
X71700000Y-257600000D03*
X68300000Y-257600000D03*
X71700000Y-261600000D03*
X68300000Y-261600000D03*
X71700000Y-262400000D03*
X68300000Y-262400000D03*
X71700000Y-263200000D03*
X68300000Y-263200000D03*
X71700000Y-264000000D03*
X68300000Y-264000000D03*
X71700000Y-264800000D03*
X68300000Y-264800000D03*
X71700000Y-265600000D03*
X68300000Y-265600000D03*
X71700000Y-266400000D03*
X68300000Y-266400000D03*
D14*
X70000000Y-250505000D03*
X70000000Y-269495000D03*
%TD*%
M02*
