%TF.GenerationSoftware,KiCad,Pcbnew,8.0.2-1*%
%TF.CreationDate,2024-10-14T12:40:27-04:00*%
%TF.ProjectId,EvenLayers_1.3mm_SiPM,4576656e-4c61-4796-9572-735f312e336d,rev?*%
%TF.SameCoordinates,Original*%
%TF.FileFunction,Copper,L3,Inr*%
%TF.FilePolarity,Positive*%
%FSLAX46Y46*%
G04 Gerber Fmt 4.6, Leading zero omitted, Abs format (unit mm)*
G04 Created by KiCad (PCBNEW 8.0.2-1) date 2024-10-14 12:40:27*
%MOMM*%
%LPD*%
G01*
G04 APERTURE LIST*
%TA.AperFunction,ComponentPad*%
%ADD10C,0.800000*%
%TD*%
%TA.AperFunction,ComponentPad*%
%ADD11C,1.348000*%
%TD*%
%TA.AperFunction,ViaPad*%
%ADD12C,0.600000*%
%TD*%
G04 APERTURE END LIST*
D10*
%TO.N,N/C*%
%TO.C,REF\u002A\u002A34*%
X322700000Y-190300000D03*
X326800000Y-190300000D03*
%TO.N,K14*%
X321950000Y-191400000D03*
%TO.N,A14*%
X321950000Y-192900000D03*
%TO.N,GND*%
X322500000Y-194100000D03*
%TD*%
%TO.N,N/C*%
%TO.C,REF\u002A\u002A40*%
X127500000Y-287900000D03*
X131600000Y-287900000D03*
%TO.N,K20*%
X126750000Y-289000000D03*
%TO.N,A20*%
X126750000Y-290500000D03*
%TO.N,GND*%
X127300000Y-291700000D03*
%TD*%
%TO.N,N/C*%
%TO.C,REF\u002A\u002A30*%
X127500000Y-190300000D03*
X131600000Y-190300000D03*
%TO.N,K10*%
X126750000Y-191400000D03*
%TO.N,A10*%
X126750000Y-192900000D03*
%TO.N,GND*%
X127300000Y-194100000D03*
%TD*%
%TO.N,N/C*%
%TO.C,REF\u002A\u002A24*%
X322700000Y-92700000D03*
X326800000Y-92700000D03*
%TO.N,K4*%
X321950000Y-93800000D03*
%TO.N,A4*%
X321950000Y-95300000D03*
%TO.N,GND*%
X322500000Y-96500000D03*
%TD*%
%TO.N,N/C*%
%TO.C,REF\u002A\u002A43*%
X273900000Y-287900000D03*
%TO.N,LED_23_to_24*%
X278000000Y-287900000D03*
%TO.N,K23*%
X273150000Y-289000000D03*
%TO.N,A23*%
X273150000Y-290500000D03*
%TO.N,GND*%
X273700000Y-291700000D03*
%TD*%
%TO.N,N/C*%
%TO.C,REF\u002A\u002A38*%
X273900000Y-239100000D03*
X278000000Y-239100000D03*
%TO.N,K18*%
X273150000Y-240200000D03*
%TO.N,A18*%
X273150000Y-241700000D03*
%TO.N,GND*%
X273700000Y-242900000D03*
%TD*%
%TO.N,N/C*%
%TO.C,REF\u002A\u002A22*%
X225100000Y-92700000D03*
X229200000Y-92700000D03*
%TO.N,K2*%
X224350000Y-93800000D03*
%TO.N,A2*%
X224350000Y-95300000D03*
%TO.N,GND*%
X224900000Y-96500000D03*
%TD*%
%TO.N,N/C*%
%TO.C,REF\u002A\u002A28*%
X273900000Y-141500000D03*
X278000000Y-141500000D03*
%TO.N,K8*%
X273150000Y-142600000D03*
%TO.N,A8*%
X273150000Y-144100000D03*
%TO.N,GND*%
X273700000Y-145300000D03*
%TD*%
%TO.N,N/C*%
%TO.C,REF\u002A\u002A23*%
X273900000Y-92700000D03*
X278000000Y-92700000D03*
%TO.N,K3*%
X273150000Y-93800000D03*
%TO.N,A3*%
X273150000Y-95300000D03*
%TO.N,GND*%
X273700000Y-96500000D03*
%TD*%
%TO.N,N/C*%
%TO.C,REF\u002A\u002A32*%
X225100000Y-190300000D03*
X229200000Y-190300000D03*
%TO.N,K12*%
X224350000Y-191400000D03*
%TO.N,A12*%
X224350000Y-192900000D03*
%TO.N,GND*%
X224900000Y-194100000D03*
%TD*%
%TO.N,LED_23_to_24*%
%TO.C,REF\u002A\u002A44*%
X322700000Y-287900000D03*
%TO.N,LED_input_after_resistor*%
X326800000Y-287900000D03*
%TO.N,K24*%
X321950000Y-289000000D03*
%TO.N,A24*%
X321950000Y-290500000D03*
%TO.N,GND*%
X322500000Y-291700000D03*
%TD*%
%TO.N,N/C*%
%TO.C,REF\u002A\u002A26*%
X176300000Y-141500000D03*
X180400000Y-141500000D03*
%TO.N,K6*%
X175550000Y-142600000D03*
%TO.N,A6*%
X175550000Y-144100000D03*
%TO.N,GND*%
X176100000Y-145300000D03*
%TD*%
%TO.N,N/C*%
%TO.C,REF\u002A\u002A36*%
X176300000Y-239100000D03*
X180400000Y-239100000D03*
%TO.N,K16*%
X175550000Y-240200000D03*
%TO.N,A16*%
X175550000Y-241700000D03*
%TO.N,GND*%
X176100000Y-242900000D03*
%TD*%
%TO.N,GND*%
%TO.C,REF\u002A\u002A20*%
X127500000Y-92700000D03*
%TO.N,N/C*%
X131600000Y-92700000D03*
%TO.N,K0*%
X126750000Y-93800000D03*
%TO.N,A0*%
X126750000Y-95300000D03*
%TO.N,GND*%
X127300000Y-96500000D03*
%TD*%
%TO.N,N/C*%
%TO.C,REF\u002A\u002A25*%
X127500000Y-141500000D03*
X131600000Y-141500000D03*
%TO.N,K5*%
X126750000Y-142600000D03*
%TO.N,A5*%
X126750000Y-144100000D03*
%TO.N,GND*%
X127300000Y-145300000D03*
%TD*%
%TO.N,N/C*%
%TO.C,REF\u002A\u002A37*%
X225100000Y-239100000D03*
X229200000Y-239100000D03*
%TO.N,K17*%
X224350000Y-240200000D03*
%TO.N,A17*%
X224350000Y-241700000D03*
%TO.N,GND*%
X224900000Y-242900000D03*
%TD*%
%TO.N,N/C*%
%TO.C,REF\u002A\u002A31*%
X176300000Y-190300000D03*
X180400000Y-190300000D03*
%TO.N,K11*%
X175550000Y-191400000D03*
%TO.N,A11*%
X175550000Y-192900000D03*
%TO.N,GND*%
X176100000Y-194100000D03*
%TD*%
%TO.N,N/C*%
%TO.C,REF\u002A\u002A27*%
X225100000Y-141500000D03*
X229200000Y-141500000D03*
%TO.N,K7*%
X224350000Y-142600000D03*
%TO.N,A7*%
X224350000Y-144100000D03*
%TO.N,GND*%
X224900000Y-145300000D03*
%TD*%
%TO.N,N/C*%
%TO.C,REF\u002A\u002A41*%
X176300000Y-287900000D03*
X180400000Y-287900000D03*
%TO.N,K21*%
X175550000Y-289000000D03*
%TO.N,A21*%
X175550000Y-290500000D03*
%TO.N,GND*%
X176100000Y-291700000D03*
%TD*%
%TO.N,N/C*%
%TO.C,REF\u002A\u002A29*%
X322700000Y-141500000D03*
X326800000Y-141500000D03*
%TO.N,K9*%
X321950000Y-142600000D03*
%TO.N,A9*%
X321950000Y-144100000D03*
%TO.N,GND*%
X322500000Y-145300000D03*
%TD*%
%TO.N,N/C*%
%TO.C,REF\u002A\u002A21*%
X176300000Y-92700000D03*
X180400000Y-92700000D03*
%TO.N,K1*%
X175550000Y-93800000D03*
%TO.N,A1*%
X175550000Y-95300000D03*
%TO.N,GND*%
X176100000Y-96500000D03*
%TD*%
%TO.N,N/C*%
%TO.C,REF\u002A\u002A42*%
X225100000Y-287900000D03*
X229200000Y-287900000D03*
%TO.N,K22*%
X224350000Y-289000000D03*
%TO.N,A22*%
X224350000Y-290500000D03*
%TO.N,GND*%
X224900000Y-291700000D03*
%TD*%
%TO.N,N/C*%
%TO.C,REF\u002A\u002A35*%
X127500000Y-239100000D03*
X131600000Y-239100000D03*
%TO.N,K15*%
X126750000Y-240200000D03*
%TO.N,A15*%
X126750000Y-241700000D03*
%TO.N,GND*%
X127300000Y-242900000D03*
%TD*%
%TO.N,N/C*%
%TO.C,REF\u002A\u002A39*%
X322700000Y-239100000D03*
X326800000Y-239100000D03*
%TO.N,K19*%
X321950000Y-240200000D03*
%TO.N,A19*%
X321950000Y-241700000D03*
%TO.N,GND*%
X322500000Y-242900000D03*
%TD*%
%TO.N,N/C*%
%TO.C,REF\u002A\u002A33*%
X273900000Y-190300000D03*
X278000000Y-190300000D03*
%TO.N,K13*%
X273150000Y-191400000D03*
%TO.N,A13*%
X273150000Y-192900000D03*
%TO.N,GND*%
X273700000Y-194100000D03*
%TD*%
D11*
%TO.N,N/C*%
%TO.C,REF\u002A\u002A*%
X70000000Y-130505000D03*
X70000000Y-149495000D03*
%TD*%
%TO.N,N/C*%
%TO.C,REF\u002A\u002A*%
X70000000Y-250505000D03*
X70000000Y-269495000D03*
%TD*%
D12*
%TO.N,GND*%
X76800000Y-266400000D03*
%TO.N,K0*%
X80200000Y-129600000D03*
X67200000Y-133600000D03*
%TO.N,K1*%
X67200000Y-134400000D03*
X78124265Y-133124265D03*
%TO.N,K2*%
X67200000Y-135200000D03*
X79600000Y-133600000D03*
%TO.N,K3*%
X82600000Y-133200000D03*
X67200000Y-136000000D03*
%TO.N,K4*%
X67200000Y-136800000D03*
X81800000Y-135600000D03*
%TO.N,K5*%
X67200000Y-137600000D03*
X77800000Y-137600000D03*
%TO.N,K6*%
X77400000Y-141600000D03*
X67250000Y-141600000D03*
%TO.N,K7*%
X67250000Y-142400000D03*
X78200000Y-142800000D03*
%TO.N,K8*%
X80200000Y-145200000D03*
X67250000Y-143200000D03*
%TO.N,K9*%
X67250000Y-144000000D03*
X78200000Y-145600000D03*
%TO.N,K10*%
X67250000Y-144800000D03*
X78375735Y-146824265D03*
%TO.N,K11*%
X67250000Y-145600000D03*
X77200000Y-149200000D03*
%TO.N,K12*%
X81600000Y-162800000D03*
X67200000Y-146400000D03*
%TO.N,K14*%
X67000000Y-254400000D03*
X76192892Y-253592892D03*
%TO.N,K15*%
X103200000Y-240200000D03*
X67000000Y-255200000D03*
%TO.N,K16*%
X75800000Y-256000000D03*
X67000000Y-256000000D03*
%TO.N,K17*%
X77200000Y-256600000D03*
X67000000Y-256800000D03*
%TO.N,K18*%
X67000000Y-257600000D03*
X86600000Y-256800000D03*
%TO.N,K20*%
X67000000Y-262400000D03*
X98200000Y-262400000D03*
%TO.N,K21*%
X67000000Y-263200000D03*
X97200000Y-263200000D03*
%TO.N,K22*%
X91400000Y-264000000D03*
X67000000Y-264000000D03*
%TO.N,K23*%
X90200000Y-264800000D03*
X67000000Y-264800000D03*
%TO.N,K24*%
X67000000Y-265600000D03*
X85224265Y-265575735D03*
%TO.N,LED_input_after_resistor*%
X73400000Y-313600000D03*
%TD*%
M02*
