%TF.GenerationSoftware,KiCad,Pcbnew,8.0.2-1*%
%TF.CreationDate,2024-10-14T12:40:27-04:00*%
%TF.ProjectId,EvenLayers_1.3mm_SiPM,4576656e-4c61-4796-9572-735f312e336d,rev?*%
%TF.SameCoordinates,Original*%
%TF.FileFunction,Copper,L4,Bot*%
%TF.FilePolarity,Positive*%
%FSLAX46Y46*%
G04 Gerber Fmt 4.6, Leading zero omitted, Abs format (unit mm)*
G04 Created by KiCad (PCBNEW 8.0.2-1) date 2024-10-14 12:40:27*
%MOMM*%
%LPD*%
G01*
G04 APERTURE LIST*
G04 Aperture macros list*
%AMRoundRect*
0 Rectangle with rounded corners*
0 $1 Rounding radius*
0 $2 $3 $4 $5 $6 $7 $8 $9 X,Y pos of 4 corners*
0 Add a 4 corners polygon primitive as box body*
4,1,4,$2,$3,$4,$5,$6,$7,$8,$9,$2,$3,0*
0 Add four circle primitives for the rounded corners*
1,1,$1+$1,$2,$3*
1,1,$1+$1,$4,$5*
1,1,$1+$1,$6,$7*
1,1,$1+$1,$8,$9*
0 Add four rect primitives between the rounded corners*
20,1,$1+$1,$2,$3,$4,$5,0*
20,1,$1+$1,$4,$5,$6,$7,0*
20,1,$1+$1,$6,$7,$8,$9,0*
20,1,$1+$1,$8,$9,$2,$3,0*%
G04 Aperture macros list end*
%TA.AperFunction,ComponentPad*%
%ADD10C,0.800000*%
%TD*%
%TA.AperFunction,ComponentPad*%
%ADD11RoundRect,0.200100X0.949900X-0.949900X0.949900X0.949900X-0.949900X0.949900X-0.949900X-0.949900X0*%
%TD*%
%TA.AperFunction,ComponentPad*%
%ADD12C,2.500000*%
%TD*%
%TA.AperFunction,SMDPad,CuDef*%
%ADD13R,1.200000X0.500000*%
%TD*%
%TA.AperFunction,ComponentPad*%
%ADD14C,1.348000*%
%TD*%
%TA.AperFunction,ViaPad*%
%ADD15C,0.600000*%
%TD*%
%TA.AperFunction,Conductor*%
%ADD16C,0.200000*%
%TD*%
%TA.AperFunction,Conductor*%
%ADD17C,0.250000*%
%TD*%
G04 APERTURE END LIST*
D10*
%TO.P,REF\u002A\u002A34,5*%
%TO.N,N/C*%
X322700000Y-190300000D03*
%TO.P,REF\u002A\u002A34,6*%
X326800000Y-190300000D03*
%TO.P,REF\u002A\u002A34,7*%
%TO.N,K14*%
X321950000Y-191400000D03*
%TO.P,REF\u002A\u002A34,8*%
%TO.N,A14*%
X321950000Y-192900000D03*
%TO.P,REF\u002A\u002A34,9*%
%TO.N,GND*%
X322500000Y-194100000D03*
%TD*%
%TO.P,REF\u002A\u002A40,5*%
%TO.N,N/C*%
X127500000Y-287900000D03*
%TO.P,REF\u002A\u002A40,6*%
X131600000Y-287900000D03*
%TO.P,REF\u002A\u002A40,7*%
%TO.N,K20*%
X126750000Y-289000000D03*
%TO.P,REF\u002A\u002A40,8*%
%TO.N,A20*%
X126750000Y-290500000D03*
%TO.P,REF\u002A\u002A40,9*%
%TO.N,GND*%
X127300000Y-291700000D03*
%TD*%
%TO.P,REF\u002A\u002A30,5*%
%TO.N,N/C*%
X127500000Y-190300000D03*
%TO.P,REF\u002A\u002A30,6*%
X131600000Y-190300000D03*
%TO.P,REF\u002A\u002A30,7*%
%TO.N,K10*%
X126750000Y-191400000D03*
%TO.P,REF\u002A\u002A30,8*%
%TO.N,A10*%
X126750000Y-192900000D03*
%TO.P,REF\u002A\u002A30,9*%
%TO.N,GND*%
X127300000Y-194100000D03*
%TD*%
%TO.P,REF\u002A\u002A24,5*%
%TO.N,N/C*%
X322700000Y-92700000D03*
%TO.P,REF\u002A\u002A24,6*%
X326800000Y-92700000D03*
%TO.P,REF\u002A\u002A24,7*%
%TO.N,K4*%
X321950000Y-93800000D03*
%TO.P,REF\u002A\u002A24,8*%
%TO.N,A4*%
X321950000Y-95300000D03*
%TO.P,REF\u002A\u002A24,9*%
%TO.N,GND*%
X322500000Y-96500000D03*
%TD*%
%TO.P,REF\u002A\u002A43,5*%
%TO.N,N/C*%
X273900000Y-287900000D03*
%TO.P,REF\u002A\u002A43,6*%
%TO.N,LED_23_to_24*%
X278000000Y-287900000D03*
%TO.P,REF\u002A\u002A43,7*%
%TO.N,K23*%
X273150000Y-289000000D03*
%TO.P,REF\u002A\u002A43,8*%
%TO.N,A23*%
X273150000Y-290500000D03*
%TO.P,REF\u002A\u002A43,9*%
%TO.N,GND*%
X273700000Y-291700000D03*
%TD*%
%TO.P,REF\u002A\u002A38,5*%
%TO.N,N/C*%
X273900000Y-239100000D03*
%TO.P,REF\u002A\u002A38,6*%
X278000000Y-239100000D03*
%TO.P,REF\u002A\u002A38,7*%
%TO.N,K18*%
X273150000Y-240200000D03*
%TO.P,REF\u002A\u002A38,8*%
%TO.N,A18*%
X273150000Y-241700000D03*
%TO.P,REF\u002A\u002A38,9*%
%TO.N,GND*%
X273700000Y-242900000D03*
%TD*%
D11*
%TO.P,REF\u002A\u002A,1*%
%TO.N,LED_input*%
X70500000Y-320000000D03*
D12*
%TO.P,REF\u002A\u002A,2*%
%TO.N,GND*%
X67960000Y-322540000D03*
X73040000Y-322540000D03*
X67960000Y-317460000D03*
X73040000Y-317460000D03*
%TD*%
D10*
%TO.P,REF\u002A\u002A22,5*%
%TO.N,N/C*%
X225100000Y-92700000D03*
%TO.P,REF\u002A\u002A22,6*%
X229200000Y-92700000D03*
%TO.P,REF\u002A\u002A22,7*%
%TO.N,K2*%
X224350000Y-93800000D03*
%TO.P,REF\u002A\u002A22,8*%
%TO.N,A2*%
X224350000Y-95300000D03*
%TO.P,REF\u002A\u002A22,9*%
%TO.N,GND*%
X224900000Y-96500000D03*
%TD*%
%TO.P,REF\u002A\u002A28,5*%
%TO.N,N/C*%
X273900000Y-141500000D03*
%TO.P,REF\u002A\u002A28,6*%
X278000000Y-141500000D03*
%TO.P,REF\u002A\u002A28,7*%
%TO.N,K8*%
X273150000Y-142600000D03*
%TO.P,REF\u002A\u002A28,8*%
%TO.N,A8*%
X273150000Y-144100000D03*
%TO.P,REF\u002A\u002A28,9*%
%TO.N,GND*%
X273700000Y-145300000D03*
%TD*%
%TO.P,REF\u002A\u002A23,5*%
%TO.N,N/C*%
X273900000Y-92700000D03*
%TO.P,REF\u002A\u002A23,6*%
X278000000Y-92700000D03*
%TO.P,REF\u002A\u002A23,7*%
%TO.N,K3*%
X273150000Y-93800000D03*
%TO.P,REF\u002A\u002A23,8*%
%TO.N,A3*%
X273150000Y-95300000D03*
%TO.P,REF\u002A\u002A23,9*%
%TO.N,GND*%
X273700000Y-96500000D03*
%TD*%
%TO.P,REF\u002A\u002A32,5*%
%TO.N,N/C*%
X225100000Y-190300000D03*
%TO.P,REF\u002A\u002A32,6*%
X229200000Y-190300000D03*
%TO.P,REF\u002A\u002A32,7*%
%TO.N,K12*%
X224350000Y-191400000D03*
%TO.P,REF\u002A\u002A32,8*%
%TO.N,A12*%
X224350000Y-192900000D03*
%TO.P,REF\u002A\u002A32,9*%
%TO.N,GND*%
X224900000Y-194100000D03*
%TD*%
%TO.P,REF\u002A\u002A44,5*%
%TO.N,LED_23_to_24*%
X322700000Y-287900000D03*
%TO.P,REF\u002A\u002A44,6*%
%TO.N,LED_input_after_resistor*%
X326800000Y-287900000D03*
%TO.P,REF\u002A\u002A44,7*%
%TO.N,K24*%
X321950000Y-289000000D03*
%TO.P,REF\u002A\u002A44,8*%
%TO.N,A24*%
X321950000Y-290500000D03*
%TO.P,REF\u002A\u002A44,9*%
%TO.N,GND*%
X322500000Y-291700000D03*
%TD*%
%TO.P,REF\u002A\u002A26,5*%
%TO.N,N/C*%
X176300000Y-141500000D03*
%TO.P,REF\u002A\u002A26,6*%
X180400000Y-141500000D03*
%TO.P,REF\u002A\u002A26,7*%
%TO.N,K6*%
X175550000Y-142600000D03*
%TO.P,REF\u002A\u002A26,8*%
%TO.N,A6*%
X175550000Y-144100000D03*
%TO.P,REF\u002A\u002A26,9*%
%TO.N,GND*%
X176100000Y-145300000D03*
%TD*%
%TO.P,REF\u002A\u002A36,5*%
%TO.N,N/C*%
X176300000Y-239100000D03*
%TO.P,REF\u002A\u002A36,6*%
X180400000Y-239100000D03*
%TO.P,REF\u002A\u002A36,7*%
%TO.N,K16*%
X175550000Y-240200000D03*
%TO.P,REF\u002A\u002A36,8*%
%TO.N,A16*%
X175550000Y-241700000D03*
%TO.P,REF\u002A\u002A36,9*%
%TO.N,GND*%
X176100000Y-242900000D03*
%TD*%
%TO.P,REF\u002A\u002A20,5*%
%TO.N,GND*%
X127500000Y-92700000D03*
%TO.P,REF\u002A\u002A20,6*%
%TO.N,N/C*%
X131600000Y-92700000D03*
%TO.P,REF\u002A\u002A20,7*%
%TO.N,K0*%
X126750000Y-93800000D03*
%TO.P,REF\u002A\u002A20,8*%
%TO.N,A0*%
X126750000Y-95300000D03*
%TO.P,REF\u002A\u002A20,9*%
%TO.N,GND*%
X127300000Y-96500000D03*
%TD*%
%TO.P,REF\u002A\u002A25,5*%
%TO.N,N/C*%
X127500000Y-141500000D03*
%TO.P,REF\u002A\u002A25,6*%
X131600000Y-141500000D03*
%TO.P,REF\u002A\u002A25,7*%
%TO.N,K5*%
X126750000Y-142600000D03*
%TO.P,REF\u002A\u002A25,8*%
%TO.N,A5*%
X126750000Y-144100000D03*
%TO.P,REF\u002A\u002A25,9*%
%TO.N,GND*%
X127300000Y-145300000D03*
%TD*%
%TO.P,REF\u002A\u002A37,5*%
%TO.N,N/C*%
X225100000Y-239100000D03*
%TO.P,REF\u002A\u002A37,6*%
X229200000Y-239100000D03*
%TO.P,REF\u002A\u002A37,7*%
%TO.N,K17*%
X224350000Y-240200000D03*
%TO.P,REF\u002A\u002A37,8*%
%TO.N,A17*%
X224350000Y-241700000D03*
%TO.P,REF\u002A\u002A37,9*%
%TO.N,GND*%
X224900000Y-242900000D03*
%TD*%
%TO.P,REF\u002A\u002A31,5*%
%TO.N,N/C*%
X176300000Y-190300000D03*
%TO.P,REF\u002A\u002A31,6*%
X180400000Y-190300000D03*
%TO.P,REF\u002A\u002A31,7*%
%TO.N,K11*%
X175550000Y-191400000D03*
%TO.P,REF\u002A\u002A31,8*%
%TO.N,A11*%
X175550000Y-192900000D03*
%TO.P,REF\u002A\u002A31,9*%
%TO.N,GND*%
X176100000Y-194100000D03*
%TD*%
%TO.P,REF\u002A\u002A27,5*%
%TO.N,N/C*%
X225100000Y-141500000D03*
%TO.P,REF\u002A\u002A27,6*%
X229200000Y-141500000D03*
%TO.P,REF\u002A\u002A27,7*%
%TO.N,K7*%
X224350000Y-142600000D03*
%TO.P,REF\u002A\u002A27,8*%
%TO.N,A7*%
X224350000Y-144100000D03*
%TO.P,REF\u002A\u002A27,9*%
%TO.N,GND*%
X224900000Y-145300000D03*
%TD*%
%TO.P,REF\u002A\u002A41,5*%
%TO.N,N/C*%
X176300000Y-287900000D03*
%TO.P,REF\u002A\u002A41,6*%
X180400000Y-287900000D03*
%TO.P,REF\u002A\u002A41,7*%
%TO.N,K21*%
X175550000Y-289000000D03*
%TO.P,REF\u002A\u002A41,8*%
%TO.N,A21*%
X175550000Y-290500000D03*
%TO.P,REF\u002A\u002A41,9*%
%TO.N,GND*%
X176100000Y-291700000D03*
%TD*%
%TO.P,REF\u002A\u002A29,5*%
%TO.N,N/C*%
X322700000Y-141500000D03*
%TO.P,REF\u002A\u002A29,6*%
X326800000Y-141500000D03*
%TO.P,REF\u002A\u002A29,7*%
%TO.N,K9*%
X321950000Y-142600000D03*
%TO.P,REF\u002A\u002A29,8*%
%TO.N,A9*%
X321950000Y-144100000D03*
%TO.P,REF\u002A\u002A29,9*%
%TO.N,GND*%
X322500000Y-145300000D03*
%TD*%
%TO.P,REF\u002A\u002A21,5*%
%TO.N,N/C*%
X176300000Y-92700000D03*
%TO.P,REF\u002A\u002A21,6*%
X180400000Y-92700000D03*
%TO.P,REF\u002A\u002A21,7*%
%TO.N,K1*%
X175550000Y-93800000D03*
%TO.P,REF\u002A\u002A21,8*%
%TO.N,A1*%
X175550000Y-95300000D03*
%TO.P,REF\u002A\u002A21,9*%
%TO.N,GND*%
X176100000Y-96500000D03*
%TD*%
%TO.P,REF\u002A\u002A42,5*%
%TO.N,N/C*%
X225100000Y-287900000D03*
%TO.P,REF\u002A\u002A42,6*%
X229200000Y-287900000D03*
%TO.P,REF\u002A\u002A42,7*%
%TO.N,K22*%
X224350000Y-289000000D03*
%TO.P,REF\u002A\u002A42,8*%
%TO.N,A22*%
X224350000Y-290500000D03*
%TO.P,REF\u002A\u002A42,9*%
%TO.N,GND*%
X224900000Y-291700000D03*
%TD*%
%TO.P,REF\u002A\u002A35,5*%
%TO.N,N/C*%
X127500000Y-239100000D03*
%TO.P,REF\u002A\u002A35,6*%
X131600000Y-239100000D03*
%TO.P,REF\u002A\u002A35,7*%
%TO.N,K15*%
X126750000Y-240200000D03*
%TO.P,REF\u002A\u002A35,8*%
%TO.N,A15*%
X126750000Y-241700000D03*
%TO.P,REF\u002A\u002A35,9*%
%TO.N,GND*%
X127300000Y-242900000D03*
%TD*%
%TO.P,REF\u002A\u002A39,5*%
%TO.N,N/C*%
X322700000Y-239100000D03*
%TO.P,REF\u002A\u002A39,6*%
X326800000Y-239100000D03*
%TO.P,REF\u002A\u002A39,7*%
%TO.N,K19*%
X321950000Y-240200000D03*
%TO.P,REF\u002A\u002A39,8*%
%TO.N,A19*%
X321950000Y-241700000D03*
%TO.P,REF\u002A\u002A39,9*%
%TO.N,GND*%
X322500000Y-242900000D03*
%TD*%
%TO.P,REF\u002A\u002A33,5*%
%TO.N,N/C*%
X273900000Y-190300000D03*
%TO.P,REF\u002A\u002A33,6*%
X278000000Y-190300000D03*
%TO.P,REF\u002A\u002A33,7*%
%TO.N,K13*%
X273150000Y-191400000D03*
%TO.P,REF\u002A\u002A33,8*%
%TO.N,A13*%
X273150000Y-192900000D03*
%TO.P,REF\u002A\u002A33,9*%
%TO.N,GND*%
X273700000Y-194100000D03*
%TD*%
D13*
%TO.P,REF\u002A\u002A,01*%
%TO.N,A0*%
X71700000Y-133600000D03*
%TO.P,REF\u002A\u002A,02*%
%TO.N,K0*%
X68300000Y-133600000D03*
%TO.N,A1*%
X71700000Y-134400000D03*
%TO.P,REF\u002A\u002A,04*%
%TO.N,K1*%
X68300000Y-134400000D03*
%TO.P,REF\u002A\u002A,05*%
%TO.N,A2*%
X71700000Y-135200000D03*
%TO.P,REF\u002A\u002A,06*%
%TO.N,K2*%
X68300000Y-135200000D03*
%TO.P,REF\u002A\u002A,07*%
%TO.N,A3*%
X71700000Y-136000000D03*
%TO.P,REF\u002A\u002A,08*%
%TO.N,K3*%
X68300000Y-136000000D03*
%TO.P,REF\u002A\u002A,09*%
%TO.N,A4*%
X71700000Y-136800000D03*
%TO.P,REF\u002A\u002A,10*%
%TO.N,K4*%
X68300000Y-136800000D03*
%TO.P,REF\u002A\u002A,11*%
%TO.N,A5*%
X71700000Y-137600000D03*
%TO.P,REF\u002A\u002A,12*%
%TO.N,K5*%
X68300000Y-137600000D03*
%TO.P,REF\u002A\u002A,13*%
%TO.N,A6*%
X71700000Y-141600000D03*
%TO.P,REF\u002A\u002A,14*%
%TO.N,K6*%
X68300000Y-141600000D03*
%TO.P,REF\u002A\u002A,15*%
%TO.N,A7*%
X71700000Y-142400000D03*
%TO.P,REF\u002A\u002A,16*%
%TO.N,K7*%
X68300000Y-142400000D03*
%TO.P,REF\u002A\u002A,17*%
%TO.N,A8*%
X71700000Y-143200000D03*
%TO.P,REF\u002A\u002A,18*%
%TO.N,K8*%
X68300000Y-143200000D03*
%TO.P,REF\u002A\u002A,19*%
%TO.N,A9*%
X71700000Y-144000000D03*
%TO.P,REF\u002A\u002A,20*%
%TO.N,K9*%
X68300000Y-144000000D03*
%TO.P,REF\u002A\u002A,21*%
%TO.N,A10*%
X71700000Y-144800000D03*
%TO.P,REF\u002A\u002A,22*%
%TO.N,K10*%
X68300000Y-144800000D03*
%TO.P,REF\u002A\u002A,23*%
%TO.N,A11*%
X71700000Y-145600000D03*
%TO.P,REF\u002A\u002A,24*%
%TO.N,K11*%
X68300000Y-145600000D03*
%TO.P,REF\u002A\u002A,25*%
%TO.N,A12*%
X71700000Y-146400000D03*
%TO.P,REF\u002A\u002A,26*%
%TO.N,K12*%
X68300000Y-146400000D03*
D14*
%TO.P,REF\u002A\u002A,S1*%
%TO.N,N/C*%
X70000000Y-130505000D03*
%TO.P,REF\u002A\u002A,S2*%
X70000000Y-149495000D03*
%TD*%
D13*
%TO.P,REF\u002A\u002A,01*%
%TO.N,A13*%
X71700000Y-253600000D03*
%TO.P,REF\u002A\u002A,02*%
%TO.N,K13*%
X68300000Y-253600000D03*
%TO.N,A14*%
X71700000Y-254400000D03*
%TO.P,REF\u002A\u002A,04*%
%TO.N,K14*%
X68300000Y-254400000D03*
%TO.P,REF\u002A\u002A,05*%
%TO.N,A15*%
X71700000Y-255200000D03*
%TO.P,REF\u002A\u002A,06*%
%TO.N,K15*%
X68300000Y-255200000D03*
%TO.P,REF\u002A\u002A,07*%
%TO.N,A16*%
X71700000Y-256000000D03*
%TO.P,REF\u002A\u002A,08*%
%TO.N,K16*%
X68300000Y-256000000D03*
%TO.P,REF\u002A\u002A,09*%
%TO.N,A17*%
X71700000Y-256800000D03*
%TO.P,REF\u002A\u002A,10*%
%TO.N,K17*%
X68300000Y-256800000D03*
%TO.P,REF\u002A\u002A,11*%
%TO.N,A18*%
X71700000Y-257600000D03*
%TO.P,REF\u002A\u002A,12*%
%TO.N,K18*%
X68300000Y-257600000D03*
%TO.P,REF\u002A\u002A,13*%
%TO.N,A19*%
X71700000Y-261600000D03*
%TO.P,REF\u002A\u002A,14*%
%TO.N,K19*%
X68300000Y-261600000D03*
%TO.P,REF\u002A\u002A,15*%
%TO.N,A20*%
X71700000Y-262400000D03*
%TO.P,REF\u002A\u002A,16*%
%TO.N,K20*%
X68300000Y-262400000D03*
%TO.P,REF\u002A\u002A,17*%
%TO.N,A21*%
X71700000Y-263200000D03*
%TO.P,REF\u002A\u002A,18*%
%TO.N,K21*%
X68300000Y-263200000D03*
%TO.P,REF\u002A\u002A,19*%
%TO.N,A22*%
X71700000Y-264000000D03*
%TO.P,REF\u002A\u002A,20*%
%TO.N,K22*%
X68300000Y-264000000D03*
%TO.P,REF\u002A\u002A,21*%
%TO.N,A23*%
X71700000Y-264800000D03*
%TO.P,REF\u002A\u002A,22*%
%TO.N,K23*%
X68300000Y-264800000D03*
%TO.P,REF\u002A\u002A,23*%
%TO.N,A24*%
X71700000Y-265600000D03*
%TO.P,REF\u002A\u002A,24*%
%TO.N,K24*%
X68300000Y-265600000D03*
%TO.P,REF\u002A\u002A,25*%
%TO.N,GND*%
X71700000Y-266400000D03*
%TO.P,REF\u002A\u002A,26*%
X68300000Y-266400000D03*
D14*
%TO.P,REF\u002A\u002A,S1*%
%TO.N,N/C*%
X70000000Y-250505000D03*
%TO.P,REF\u002A\u002A,S2*%
X70000000Y-269495000D03*
%TD*%
D15*
%TO.N,GND*%
X76800000Y-266400000D03*
%TO.N,K0*%
X80200000Y-129600000D03*
X67200000Y-133600000D03*
%TO.N,K1*%
X67200000Y-134400000D03*
X78124265Y-133124265D03*
%TO.N,K2*%
X67200000Y-135200000D03*
X79600000Y-133600000D03*
%TO.N,K3*%
X82600000Y-133200000D03*
X67200000Y-136000000D03*
%TO.N,K4*%
X67200000Y-136800000D03*
X81800000Y-135600000D03*
%TO.N,K5*%
X67200000Y-137600000D03*
X77800000Y-137600000D03*
%TO.N,K6*%
X77400000Y-141600000D03*
X67250000Y-141600000D03*
%TO.N,K7*%
X67250000Y-142400000D03*
X78200000Y-142800000D03*
%TO.N,K8*%
X80200000Y-145200000D03*
X67250000Y-143200000D03*
%TO.N,K9*%
X67250000Y-144000000D03*
X78200000Y-145600000D03*
%TO.N,K10*%
X67250000Y-144800000D03*
X78375735Y-146824265D03*
%TO.N,K11*%
X67250000Y-145600000D03*
X77200000Y-149200000D03*
%TO.N,K12*%
X81600000Y-162800000D03*
X67200000Y-146400000D03*
%TO.N,K14*%
X67000000Y-254400000D03*
X76192892Y-253592892D03*
%TO.N,K15*%
X103200000Y-240200000D03*
X67000000Y-255200000D03*
%TO.N,K16*%
X75800000Y-256000000D03*
X67000000Y-256000000D03*
%TO.N,K17*%
X77200000Y-256600000D03*
X67000000Y-256800000D03*
%TO.N,K18*%
X67000000Y-257600000D03*
X86600000Y-256800000D03*
%TO.N,K20*%
X67000000Y-262400000D03*
X98200000Y-262400000D03*
%TO.N,K21*%
X67000000Y-263200000D03*
X97200000Y-263200000D03*
%TO.N,K22*%
X91400000Y-264000000D03*
X67000000Y-264000000D03*
%TO.N,K23*%
X90200000Y-264800000D03*
X67000000Y-264800000D03*
%TO.N,K24*%
X67000000Y-265600000D03*
X85224265Y-265575735D03*
%TO.N,LED_input_after_resistor*%
X73400000Y-313600000D03*
%TD*%
D16*
%TO.N,*%
X324400000Y-236000000D02*
X130000000Y-236000000D01*
X180400000Y-190300000D02*
X180500000Y-190200000D01*
X229200000Y-190300000D02*
X273900000Y-190300000D01*
X130000000Y-283800000D02*
X324400000Y-283800000D01*
X225100000Y-287900000D02*
X180400000Y-287900000D01*
X326800000Y-190300000D02*
X326800000Y-233600000D01*
X128600000Y-140400000D02*
X127500000Y-141500000D01*
X180400000Y-239100000D02*
X180500000Y-239200000D01*
X324400000Y-283800000D02*
X326800000Y-281400000D01*
X327800000Y-142500000D02*
X326800000Y-141500000D01*
X326800000Y-233600000D02*
X324400000Y-236000000D01*
X322600000Y-239000000D02*
X322700000Y-239100000D01*
X129250000Y-286150000D02*
X129250000Y-284550000D01*
X225000000Y-190200000D02*
X225100000Y-190300000D01*
X127500000Y-190300000D02*
X129600000Y-188200000D01*
X176300000Y-239100000D02*
X131600000Y-239100000D01*
X127500000Y-238500000D02*
X130000000Y-236000000D01*
X129600000Y-188200000D02*
X324400000Y-188200000D01*
X322700000Y-92700000D02*
X278000000Y-92700000D01*
X277900000Y-239000000D02*
X322600000Y-239000000D01*
X180500000Y-190200000D02*
X225000000Y-190200000D01*
X273800000Y-239000000D02*
X273900000Y-239100000D01*
X176300000Y-92700000D02*
X131600000Y-92700000D01*
X323800000Y-140400000D02*
X128600000Y-140400000D01*
X273900000Y-92700000D02*
X229200000Y-92700000D01*
X176300000Y-141500000D02*
X131600000Y-141500000D01*
X225000000Y-239200000D02*
X225100000Y-239100000D01*
X176300000Y-287900000D02*
X131600000Y-287900000D01*
X229200000Y-287900000D02*
X273900000Y-287900000D01*
X129250000Y-284550000D02*
X130000000Y-283800000D01*
X326800000Y-92700000D02*
X326800000Y-137400000D01*
X225100000Y-141500000D02*
X180400000Y-141500000D01*
X326800000Y-137400000D02*
X323800000Y-140400000D01*
X273900000Y-141500000D02*
X229200000Y-141500000D01*
X127500000Y-239100000D02*
X127500000Y-238500000D01*
X326800000Y-281400000D02*
X326800000Y-239100000D01*
X225100000Y-92700000D02*
X180400000Y-92700000D01*
X130000000Y-236000000D02*
X129250000Y-236750000D01*
X322600000Y-190400000D02*
X322700000Y-190300000D01*
X180500000Y-239200000D02*
X225000000Y-239200000D01*
X131600000Y-190300000D02*
X176300000Y-190300000D01*
X278000000Y-190300000D02*
X278100000Y-190400000D01*
X278000000Y-141500000D02*
X322700000Y-141500000D01*
X229100000Y-239000000D02*
X273800000Y-239000000D01*
X127500000Y-287900000D02*
X129250000Y-286150000D01*
X278100000Y-190400000D02*
X322600000Y-190400000D01*
X327800000Y-184800000D02*
X327800000Y-142500000D01*
X324400000Y-188200000D02*
X327800000Y-184800000D01*
%TO.N,GND*%
X128600000Y-190000000D02*
X129400000Y-189200000D01*
X324400000Y-141000000D02*
X324200000Y-140800000D01*
X178950000Y-289450000D02*
X178000000Y-289450000D01*
X178000000Y-241000000D02*
X176100000Y-242900000D01*
X322550000Y-193850000D02*
X322600000Y-193800000D01*
X226200000Y-241600000D02*
X224900000Y-242900000D01*
X274800000Y-237000000D02*
X226800000Y-237000000D01*
X327800000Y-237000000D02*
X328400000Y-237000000D01*
X273700000Y-291700000D02*
X276200000Y-289200000D01*
X275800000Y-189500000D02*
X275500000Y-189200000D01*
X329000000Y-236400000D02*
X329000000Y-312400000D01*
X179000000Y-189200000D02*
X179000000Y-193800000D01*
X226800000Y-189200000D02*
X226800000Y-193800000D01*
X178200000Y-143515686D02*
X176257843Y-145457843D01*
X273800000Y-140800000D02*
X225389950Y-140800000D01*
X327089950Y-140800000D02*
X328200000Y-141910050D01*
X129800000Y-142800000D02*
X129800000Y-140800000D01*
X324200000Y-140800000D02*
X273800000Y-140800000D01*
X176100000Y-96500000D02*
X178000000Y-94600000D01*
X178000000Y-91000000D02*
X227000000Y-91000000D01*
X324400000Y-143400000D02*
X324400000Y-141000000D01*
X179200000Y-189200000D02*
X129400000Y-189200000D01*
X276200000Y-289200000D02*
X276200000Y-284800000D01*
D17*
X319400000Y-322000000D02*
X325275000Y-316125000D01*
D16*
X275500000Y-189200000D02*
X226800000Y-189200000D01*
X225150000Y-193850000D02*
X224900000Y-194100000D01*
X68300000Y-266400000D02*
X76800000Y-266400000D01*
X273800000Y-145300000D02*
X275300000Y-143800000D01*
X276000000Y-94200000D02*
X276000000Y-91000000D01*
X178950000Y-193850000D02*
X176350000Y-193850000D01*
X226750000Y-193850000D02*
X225150000Y-193850000D01*
X274600000Y-237000000D02*
X324400000Y-237000000D01*
X179000000Y-284800000D02*
X179000000Y-289400000D01*
X274600000Y-242000000D02*
X274600000Y-237000000D01*
X224900000Y-96500000D02*
X227000000Y-94400000D01*
D17*
X72600000Y-322000000D02*
X319400000Y-322000000D01*
D16*
X273700000Y-242900000D02*
X274600000Y-242000000D01*
X226800000Y-289800000D02*
X226800000Y-284800000D01*
X176100000Y-291700000D02*
X178000000Y-289800000D01*
X328000000Y-91000000D02*
X329000000Y-92000000D01*
X178200000Y-141200000D02*
X178200000Y-143515686D01*
X179400000Y-237000000D02*
X132600000Y-237000000D01*
X177800000Y-140800000D02*
X225389950Y-140800000D01*
X129900000Y-92700000D02*
X129250000Y-93350000D01*
X129800000Y-140800000D02*
X177800000Y-140800000D01*
X324700000Y-189500000D02*
X325600000Y-188600000D01*
X176350000Y-193850000D02*
X176100000Y-194100000D01*
X227000000Y-237000000D02*
X179400000Y-237000000D01*
X226800000Y-241600000D02*
X226200000Y-241600000D01*
X273700000Y-96500000D02*
X276000000Y-94200000D01*
X325600000Y-188600000D02*
X324150000Y-190050000D01*
X224900000Y-291700000D02*
X226800000Y-289800000D01*
X328200000Y-186000000D02*
X328800000Y-186000000D01*
X328400000Y-237000000D02*
X329000000Y-236400000D01*
X129600000Y-240600000D02*
X129600000Y-240000000D01*
X127300000Y-145300000D02*
X129800000Y-142800000D01*
X328200000Y-186000000D02*
X325600000Y-188600000D01*
X324150000Y-190050000D02*
X324150000Y-192450000D01*
X227000000Y-189200000D02*
X179000000Y-189200000D01*
X322500000Y-96500000D02*
X325000000Y-94000000D01*
X227000000Y-143200000D02*
X224900000Y-145300000D01*
X275300000Y-143800000D02*
X275300000Y-140800000D01*
X129250000Y-94550000D02*
X127300000Y-96500000D01*
X276200000Y-284800000D02*
X274600000Y-284800000D01*
X178000000Y-94600000D02*
X178000000Y-91000000D01*
X325000000Y-91000000D02*
X328000000Y-91000000D01*
X178000000Y-239200000D02*
X179400000Y-237800000D01*
X328800000Y-284800000D02*
X324200000Y-284800000D01*
X322600000Y-284800000D02*
X276200000Y-284800000D01*
X324200000Y-284800000D02*
X324200000Y-290000000D01*
X275800000Y-189500000D02*
X324700000Y-189500000D01*
X329000000Y-92000000D02*
X329000000Y-142000000D01*
X276000000Y-91000000D02*
X325000000Y-91000000D01*
X132600000Y-237000000D02*
X129600000Y-240000000D01*
X329000000Y-312400000D02*
X319400000Y-322000000D01*
X329000000Y-285000000D02*
X328800000Y-284800000D01*
X328910050Y-141910050D02*
X329000000Y-142000000D01*
X328800000Y-186000000D02*
X329000000Y-185800000D01*
X329000000Y-142000000D02*
X329000000Y-185800000D01*
X324200000Y-140800000D02*
X327089950Y-140800000D01*
X324200000Y-290000000D02*
X322500000Y-291700000D01*
X129250000Y-93350000D02*
X129250000Y-94550000D01*
X179200000Y-284800000D02*
X130400000Y-284800000D01*
X130400000Y-284800000D02*
X130400000Y-288600000D01*
X324400000Y-241000000D02*
X324400000Y-237000000D01*
X127500000Y-92700000D02*
X129900000Y-92700000D01*
X225389950Y-140800000D02*
X227000000Y-140800000D01*
X227000000Y-140800000D02*
X227000000Y-143200000D01*
X127300000Y-193500000D02*
X127300000Y-194100000D01*
X275750000Y-194150000D02*
X273650000Y-194150000D01*
X325000000Y-94000000D02*
X325000000Y-91000000D01*
X322500000Y-145300000D02*
X324400000Y-143400000D01*
X177800000Y-140800000D02*
X178200000Y-141200000D01*
X127300000Y-291700000D02*
X130400000Y-288600000D01*
X324200000Y-284800000D02*
X322600000Y-284800000D01*
X227000000Y-94400000D02*
X227000000Y-91000000D01*
X227000000Y-284800000D02*
X179000000Y-284800000D01*
X178000000Y-241000000D02*
X178000000Y-239200000D01*
X275800000Y-189500000D02*
X275800000Y-194100000D01*
X328200000Y-141910050D02*
X328910050Y-141910050D01*
X322500000Y-242900000D02*
X324400000Y-241000000D01*
X179400000Y-237000000D02*
X179400000Y-237800000D01*
X329000000Y-185800000D02*
X329000000Y-236400000D01*
X131600000Y-91000000D02*
X178000000Y-91000000D01*
X128600000Y-192200000D02*
X128600000Y-190000000D01*
X227000000Y-91000000D02*
X276000000Y-91000000D01*
X324400000Y-237000000D02*
X327800000Y-237000000D01*
X324150000Y-192450000D02*
X322500000Y-194100000D01*
X129900000Y-92700000D02*
X131600000Y-91000000D01*
X226800000Y-284800000D02*
X274800000Y-284800000D01*
X128600000Y-192200000D02*
X127300000Y-193500000D01*
X226800000Y-237000000D02*
X226800000Y-241600000D01*
X178000000Y-289800000D02*
X178000000Y-289450000D01*
X127300000Y-242900000D02*
X129600000Y-240600000D01*
X275300000Y-140800000D02*
X273800000Y-140800000D01*
%TO.N,K0*%
X80200000Y-129600000D02*
X80200000Y-119634315D01*
X80200000Y-119634315D02*
X97834315Y-102000000D01*
X125025000Y-99025000D02*
X122050000Y-102000000D01*
X125025000Y-95525000D02*
X125025000Y-99025000D01*
X126750000Y-93800000D02*
X125025000Y-95525000D01*
X98000000Y-102000000D02*
X97800000Y-102000000D01*
X122050000Y-102000000D02*
X98000000Y-102000000D01*
X67200000Y-133600000D02*
X68300000Y-133600000D01*
X97834315Y-102000000D02*
X98000000Y-102000000D01*
%TO.N,A0*%
X122215686Y-102400000D02*
X125425000Y-99190686D01*
X125425000Y-99190686D02*
X125425000Y-96625000D01*
X76800000Y-133600000D02*
X80200000Y-130200000D01*
X80200000Y-130200000D02*
X80448529Y-130200000D01*
X71700000Y-133600000D02*
X76800000Y-133600000D01*
X80800000Y-120234315D02*
X98000000Y-103034315D01*
X125425000Y-96625000D02*
X126750000Y-95300000D01*
X80448529Y-130200000D02*
X80800000Y-129848529D01*
X98000000Y-102400000D02*
X122215686Y-102400000D01*
X98000000Y-103034315D02*
X98000000Y-102400000D01*
X80800000Y-129848529D02*
X80800000Y-120234315D01*
%TO.N,K1*%
X78124265Y-133075735D02*
X80600000Y-130600000D01*
X81600000Y-120000000D02*
X83200000Y-120000000D01*
X83200000Y-120000000D02*
X94800000Y-108400000D01*
X80614215Y-130600000D02*
X81365686Y-129848529D01*
X81365686Y-129848529D02*
X81365686Y-120234315D01*
X129800000Y-109200000D02*
X162650000Y-109200000D01*
X78124265Y-133124265D02*
X78124265Y-133075735D01*
X174425000Y-97425000D02*
X174425000Y-94925000D01*
X67200000Y-134400000D02*
X68300000Y-134400000D01*
X94800000Y-108400000D02*
X129000000Y-108400000D01*
X81365686Y-120234315D02*
X81600000Y-120000000D01*
X80600000Y-130600000D02*
X80614215Y-130600000D01*
X174425000Y-94925000D02*
X175550000Y-93800000D01*
X129000000Y-108400000D02*
X129800000Y-109200000D01*
X162650000Y-109200000D02*
X174425000Y-97425000D01*
%TO.N,A1*%
X175550000Y-95300000D02*
X174850000Y-96000000D01*
X77697059Y-134400000D02*
X71700000Y-134400000D01*
X163900000Y-109800000D02*
X93965686Y-109800000D01*
X93965686Y-109800000D02*
X83365686Y-120400000D01*
X174850000Y-98850000D02*
X163900000Y-109800000D01*
X83365686Y-120400000D02*
X81765686Y-120400000D01*
X81765686Y-130331373D02*
X77697059Y-134400000D01*
X174850000Y-96000000D02*
X174850000Y-98850000D01*
X81765686Y-120400000D02*
X81765686Y-130331373D01*
%TO.N,K2*%
X67200000Y-135200000D02*
X68300000Y-135200000D01*
X79600000Y-133600000D02*
X82400000Y-130800000D01*
X223650000Y-95350000D02*
X223650000Y-94500000D01*
X101365686Y-130800000D02*
X82400000Y-130800000D01*
X125000000Y-110200000D02*
X125200000Y-110400000D01*
X125200000Y-110400000D02*
X208600000Y-110400000D01*
X121965686Y-110200000D02*
X125000000Y-110200000D01*
X208600000Y-110400000D02*
X223650000Y-95350000D01*
X101365686Y-130800000D02*
X121965686Y-110200000D01*
X223650000Y-94500000D02*
X224350000Y-93800000D01*
%TO.N,A2*%
X82565686Y-131200000D02*
X80200000Y-133565686D01*
X224350000Y-95300000D02*
X208850000Y-110800000D01*
X80200000Y-133565686D02*
X80200000Y-133848529D01*
X78848529Y-135200000D02*
X71700000Y-135200000D01*
X82565686Y-131200000D02*
X101531372Y-131200000D01*
X208850000Y-110800000D02*
X121931372Y-110800000D01*
X121931372Y-110800000D02*
X101531372Y-131200000D01*
X80200000Y-133848529D02*
X78848529Y-135200000D01*
%TO.N,K3*%
X271900000Y-95050000D02*
X273150000Y-93800000D01*
X122000000Y-112000000D02*
X102400000Y-131600000D01*
X128800000Y-111200000D02*
X128000000Y-112000000D01*
X67200000Y-136000000D02*
X68300000Y-136000000D01*
X256250000Y-111200000D02*
X128800000Y-111200000D01*
X128000000Y-112000000D02*
X122000000Y-112000000D01*
X84200000Y-131600000D02*
X82600000Y-133200000D01*
X102400000Y-131600000D02*
X84200000Y-131600000D01*
X271900000Y-95550000D02*
X256250000Y-111200000D01*
X271900000Y-95550000D02*
X271900000Y-95050000D01*
%TO.N,A3*%
X271900000Y-97100000D02*
X256800000Y-112200000D01*
X81600000Y-134200000D02*
X79800000Y-136000000D01*
X81600000Y-134200000D02*
X101200000Y-134200000D01*
X79800000Y-136000000D02*
X71700000Y-136000000D01*
X131000000Y-112200000D02*
X130300000Y-112900000D01*
X130300000Y-112900000D02*
X122500000Y-112900000D01*
X122500000Y-112900000D02*
X101200000Y-134200000D01*
X272100000Y-96350000D02*
X273150000Y-95300000D01*
X81600000Y-134200000D02*
X81200000Y-134600000D01*
X272100000Y-96850000D02*
X272100000Y-96350000D01*
X271900000Y-97050000D02*
X271900000Y-97100000D01*
X272100000Y-96850000D02*
X271900000Y-97050000D01*
X256800000Y-112200000D02*
X131000000Y-112200000D01*
%TO.N,K4*%
X320200000Y-95550000D02*
X321950000Y-93800000D01*
X101400000Y-134600000D02*
X82800000Y-134600000D01*
X81800000Y-135600000D02*
X82800000Y-134600000D01*
X319650000Y-95550000D02*
X320200000Y-95550000D01*
X122700000Y-113300000D02*
X301900000Y-113300000D01*
X301900000Y-113300000D02*
X319650000Y-95550000D01*
X101400000Y-134600000D02*
X122700000Y-113300000D01*
X67200000Y-136800000D02*
X68300000Y-136800000D01*
%TO.N,A4*%
X101300000Y-136800000D02*
X124400000Y-113700000D01*
X303050000Y-113700000D02*
X319700000Y-97050000D01*
X319700000Y-97050000D02*
X320200000Y-97050000D01*
X320200000Y-97050000D02*
X321950000Y-95300000D01*
X71700000Y-136800000D02*
X101300000Y-136800000D01*
X124400000Y-113700000D02*
X303050000Y-113700000D01*
%TO.N,K5*%
X77800000Y-137600000D02*
X121750000Y-137600000D01*
X126750000Y-142600000D02*
X121750000Y-137600000D01*
X67200000Y-137600000D02*
X68300000Y-137600000D01*
%TO.N,A5*%
X78248529Y-138000000D02*
X78048529Y-138200000D01*
X78048529Y-138200000D02*
X72300000Y-138200000D01*
X72300000Y-138200000D02*
X71700000Y-137600000D01*
X120650000Y-138000000D02*
X78248529Y-138000000D01*
X126750000Y-144100000D02*
X120650000Y-138000000D01*
%TO.N,K6*%
X109668628Y-141800000D02*
X77600000Y-141800000D01*
X77600000Y-141800000D02*
X77400000Y-141600000D01*
X116268628Y-148400000D02*
X109668628Y-141800000D01*
X67250000Y-141600000D02*
X68300000Y-141600000D01*
X169750000Y-148400000D02*
X116268628Y-148400000D01*
X175550000Y-142600000D02*
X169750000Y-148400000D01*
%TO.N,A6*%
X76200000Y-142200000D02*
X75600000Y-141600000D01*
X76200000Y-142200000D02*
X109502942Y-142200000D01*
X75600000Y-141600000D02*
X71700000Y-141600000D01*
X116102942Y-148800000D02*
X109502942Y-142200000D01*
X175550000Y-144100000D02*
X170850000Y-148800000D01*
X170850000Y-148800000D02*
X116102942Y-148800000D01*
%TO.N,K7*%
X208600000Y-158200000D02*
X224200000Y-142600000D01*
X78200000Y-142800000D02*
X78800000Y-143400000D01*
X129034314Y-158200000D02*
X208600000Y-158200000D01*
X67250000Y-142400000D02*
X68300000Y-142400000D01*
X105400000Y-143400000D02*
X78800000Y-143400000D01*
X113882843Y-151882843D02*
X122717157Y-151882843D01*
X105400000Y-143400000D02*
X113882843Y-151882843D01*
X224200000Y-142600000D02*
X224350000Y-142600000D01*
X122717157Y-151882843D02*
X129034314Y-158200000D01*
%TO.N,A7*%
X128600000Y-158600000D02*
X128000000Y-158000000D01*
X128000000Y-158000000D02*
X126400000Y-158000000D01*
X118882843Y-152717157D02*
X113717157Y-152717157D01*
X126400000Y-158000000D02*
X123917157Y-155517157D01*
X78351471Y-143800000D02*
X104800000Y-143800000D01*
X113717157Y-152717157D02*
X104800000Y-143800000D01*
X71700000Y-142400000D02*
X71900000Y-142600000D01*
X123917157Y-155517157D02*
X121682843Y-155517157D01*
X71900000Y-142600000D02*
X77151471Y-142600000D01*
X77151471Y-142600000D02*
X78351471Y-143800000D01*
X209850000Y-158600000D02*
X128600000Y-158600000D01*
X224350000Y-144100000D02*
X209850000Y-158600000D01*
X121682843Y-155517157D02*
X118882843Y-152717157D01*
%TO.N,K8*%
X118200000Y-153600000D02*
X92000000Y-153600000D01*
X123400000Y-156200000D02*
X120800000Y-156200000D01*
X83600000Y-145200000D02*
X80200000Y-145200000D01*
X272400000Y-143350000D02*
X271900000Y-143350000D01*
X92000000Y-153600000D02*
X83600000Y-145200000D01*
X271900000Y-143350000D02*
X256250000Y-159000000D01*
X273150000Y-142600000D02*
X272400000Y-143350000D01*
X256250000Y-159000000D02*
X126200000Y-159000000D01*
X126200000Y-159000000D02*
X123400000Y-156200000D01*
X67250000Y-143200000D02*
X68300000Y-143200000D01*
X120800000Y-156200000D02*
X118200000Y-153600000D01*
%TO.N,A8*%
X82800000Y-146800000D02*
X82365685Y-147234315D01*
X257200000Y-160000000D02*
X127800000Y-160000000D01*
X83600000Y-146800000D02*
X82800000Y-146800000D01*
X93400000Y-156600000D02*
X83600000Y-146800000D01*
X81200000Y-147234315D02*
X77165685Y-143200000D01*
X77165685Y-143200000D02*
X71700000Y-143200000D01*
X127800000Y-160000000D02*
X127600000Y-159800000D01*
X82365685Y-147234315D02*
X81200000Y-147234315D01*
X271900000Y-144850000D02*
X271900000Y-145300000D01*
X271900000Y-145300000D02*
X257200000Y-160000000D01*
X272400000Y-144850000D02*
X271900000Y-144850000D01*
X126200000Y-159800000D02*
X123000000Y-156600000D01*
X123000000Y-156600000D02*
X93400000Y-156600000D01*
X273150000Y-144100000D02*
X272400000Y-144850000D01*
X127600000Y-159800000D02*
X126200000Y-159800000D01*
%TO.N,K9*%
X78800000Y-145600000D02*
X90200000Y-157000000D01*
X67250000Y-144000000D02*
X68300000Y-144000000D01*
X90200000Y-157000000D02*
X122600000Y-157000000D01*
X302700000Y-161100000D02*
X321200000Y-142600000D01*
X321200000Y-142600000D02*
X321950000Y-142600000D01*
X122600000Y-157000000D02*
X126700000Y-161100000D01*
X78200000Y-145600000D02*
X78800000Y-145600000D01*
X126700000Y-161100000D02*
X302700000Y-161100000D01*
%TO.N,A9*%
X303300000Y-161500000D02*
X123700000Y-161500000D01*
X75751471Y-144000000D02*
X71700000Y-144000000D01*
X321950000Y-144100000D02*
X320700000Y-144100000D01*
X77951471Y-146200000D02*
X75751471Y-144000000D01*
X123700000Y-161500000D02*
X119600000Y-157400000D01*
X320700000Y-144100000D02*
X303300000Y-161500000D01*
X78600000Y-146200000D02*
X77951471Y-146200000D01*
X89800000Y-157400000D02*
X78600000Y-146200000D01*
X119600000Y-157400000D02*
X89800000Y-157400000D01*
%TO.N,A10*%
X93450000Y-159600000D02*
X89600000Y-159600000D01*
X89600000Y-159600000D02*
X74800000Y-144800000D01*
X74800000Y-144800000D02*
X71700000Y-144800000D01*
X126750000Y-192900000D02*
X93450000Y-159600000D01*
%TO.N,K10*%
X78375735Y-146824265D02*
X78800000Y-147248530D01*
X78800000Y-147248530D02*
X78800000Y-147800000D01*
X88800000Y-157800000D02*
X93150000Y-157800000D01*
X67250000Y-144800000D02*
X68300000Y-144800000D01*
X93150000Y-157800000D02*
X126750000Y-191400000D01*
X78800000Y-147800000D02*
X88800000Y-157800000D01*
%TO.N,A11*%
X82200000Y-168000000D02*
X82200000Y-160400000D01*
X175400000Y-193050000D02*
X175400000Y-193900000D01*
X72751471Y-145600000D02*
X71700000Y-145600000D01*
X76951471Y-154151470D02*
X76951471Y-149800000D01*
X76951471Y-149800000D02*
X72751471Y-145600000D01*
X115000000Y-200800000D02*
X82200000Y-168000000D01*
X82200000Y-160400000D02*
X82000000Y-160200000D01*
X168500000Y-200800000D02*
X115000000Y-200800000D01*
X82000000Y-160200000D02*
X82000000Y-159199999D01*
X82000000Y-159199999D02*
X76951471Y-154151470D01*
X175550000Y-192900000D02*
X175400000Y-193050000D01*
X175400000Y-193900000D02*
X168500000Y-200800000D01*
%TO.N,K11*%
X167450000Y-200000000D02*
X118600000Y-200000000D01*
X77200000Y-149200000D02*
X77600000Y-149600000D01*
X175550000Y-191900000D02*
X167450000Y-200000000D01*
X82600000Y-159234314D02*
X82200000Y-158834314D01*
X78200000Y-149600000D02*
X78200000Y-152334314D01*
X175550000Y-191400000D02*
X175550000Y-191900000D01*
X78200000Y-152334314D02*
X82200000Y-156334314D01*
X67250000Y-145600000D02*
X68300000Y-145600000D01*
X118600000Y-200000000D02*
X82600000Y-164000000D01*
X82600000Y-164000000D02*
X82600000Y-159234314D01*
X82200000Y-156334314D02*
X82200000Y-158834314D01*
X77600000Y-149600000D02*
X78200000Y-149600000D01*
%TO.N,A12*%
X80800000Y-160800000D02*
X76400000Y-156400000D01*
X76400000Y-151100000D02*
X71700000Y-146400000D01*
X76400000Y-156400000D02*
X76400000Y-151100000D01*
X114234314Y-201800000D02*
X80800000Y-168365686D01*
X210700000Y-206400000D02*
X128600000Y-206400000D01*
X80800000Y-168365686D02*
X80800000Y-160800000D01*
X123800000Y-202000000D02*
X123600000Y-201800000D01*
X224350000Y-192900000D02*
X224200000Y-192900000D01*
X128600000Y-206400000D02*
X124200000Y-202000000D01*
X224200000Y-192900000D02*
X210700000Y-206400000D01*
X124200000Y-202000000D02*
X123800000Y-202000000D01*
X123600000Y-201800000D02*
X114234314Y-201800000D01*
X71700000Y-146400000D02*
X71565686Y-146400000D01*
%TO.N,K12*%
X67200000Y-146400000D02*
X68300000Y-146400000D01*
X129034315Y-206000000D02*
X124234315Y-201200000D01*
X209250000Y-206000000D02*
X129034315Y-206000000D01*
X224350000Y-191400000D02*
X223850000Y-191400000D01*
X124234315Y-201200000D02*
X114200000Y-201200000D01*
X223850000Y-191400000D02*
X209250000Y-206000000D01*
X81600000Y-168600000D02*
X81600000Y-162800000D01*
X114200000Y-201200000D02*
X81600000Y-168600000D01*
%TO.N,K14*%
X68300000Y-254400000D02*
X67000000Y-254400000D01*
X115151470Y-214634314D02*
X76192892Y-253592892D01*
X126000000Y-214634314D02*
X115151470Y-214634314D01*
X319700000Y-191150000D02*
X301950000Y-208900000D01*
X319950000Y-191400000D02*
X319700000Y-191150000D01*
X131734314Y-208900000D02*
X126000000Y-214634314D01*
X301950000Y-208900000D02*
X131734314Y-208900000D01*
X321950000Y-191400000D02*
X319950000Y-191400000D01*
%TO.N,A14*%
X76234314Y-254400000D02*
X71700000Y-254400000D01*
X319700000Y-192900000D02*
X303300000Y-209300000D01*
X126165686Y-215034314D02*
X115600000Y-215034314D01*
X303300000Y-209300000D02*
X131900000Y-209300000D01*
X321950000Y-192900000D02*
X319950000Y-192900000D01*
X131900000Y-209300000D02*
X126165686Y-215034314D01*
X115600000Y-215034314D02*
X76234314Y-254400000D01*
X319700000Y-192650000D02*
X319700000Y-192900000D01*
X319950000Y-192900000D02*
X319700000Y-192650000D01*
%TO.N,K13*%
X256250000Y-206800000D02*
X116600000Y-206800000D01*
X116600000Y-206800000D02*
X69800000Y-253600000D01*
X69800000Y-253600000D02*
X68300000Y-253600000D01*
X273150000Y-191400000D02*
X271650000Y-191400000D01*
X271650000Y-191400000D02*
X256250000Y-206800000D01*
%TO.N,A13*%
X117500000Y-207800000D02*
X71700000Y-253600000D01*
X273150000Y-192900000D02*
X272100000Y-192900000D01*
X257200000Y-207800000D02*
X117500000Y-207800000D01*
X272100000Y-192900000D02*
X257200000Y-207800000D01*
%TO.N,K15*%
X113400000Y-240200000D02*
X103200000Y-240200000D01*
X68300000Y-255200000D02*
X67000000Y-255200000D01*
X126750000Y-240200000D02*
X113400000Y-240200000D01*
%TO.N,A15*%
X90017157Y-241182843D02*
X76000000Y-255200000D01*
X76000000Y-255200000D02*
X71700000Y-255200000D01*
X126232843Y-241182843D02*
X90017157Y-241182843D01*
X126750000Y-241700000D02*
X126232843Y-241182843D01*
%TO.N,K16*%
X85600000Y-246200000D02*
X75800000Y-256000000D01*
X167975000Y-247775000D02*
X124975000Y-247775000D01*
X123400000Y-246200000D02*
X95668628Y-246200000D01*
X175550000Y-240200000D02*
X167975000Y-247775000D01*
X95668628Y-246200000D02*
X85600000Y-246200000D01*
X124975000Y-247775000D02*
X123400000Y-246200000D01*
X68300000Y-256000000D02*
X67000000Y-256000000D01*
%TO.N,A16*%
X80151471Y-252800000D02*
X119550000Y-252800000D01*
X119550000Y-252800000D02*
X124175000Y-248175000D01*
X72500000Y-256000000D02*
X73300000Y-256800000D01*
X76600000Y-256800000D02*
X76600000Y-256351471D01*
X169075000Y-248175000D02*
X175550000Y-241700000D01*
X73300000Y-256800000D02*
X76600000Y-256800000D01*
X124175000Y-248175000D02*
X169075000Y-248175000D01*
X76600000Y-256351471D02*
X80151471Y-252800000D01*
X71700000Y-256000000D02*
X72500000Y-256000000D01*
%TO.N,K17*%
X77200000Y-256600000D02*
X80600000Y-253200000D01*
X222850000Y-240200000D02*
X224350000Y-240200000D01*
X80600000Y-253200000D02*
X209850000Y-253200000D01*
X68300000Y-256800000D02*
X67000000Y-256800000D01*
X209850000Y-253200000D02*
X222850000Y-240200000D01*
%TO.N,A17*%
X88951471Y-253600000D02*
X85351471Y-257200000D01*
X210350000Y-254200000D02*
X129034314Y-254200000D01*
X222850000Y-241700000D02*
X210350000Y-254200000D01*
X72600000Y-256800000D02*
X71700000Y-256800000D01*
X73000000Y-257200000D02*
X72600000Y-256800000D01*
X85351471Y-257200000D02*
X73000000Y-257200000D01*
X128434314Y-253600000D02*
X88951471Y-253600000D01*
X129034314Y-254200000D02*
X128434314Y-253600000D01*
X224350000Y-241700000D02*
X222850000Y-241700000D01*
%TO.N,K18*%
X124405885Y-254600000D02*
X123805885Y-254000000D01*
X267450000Y-243400000D02*
X256250000Y-254600000D01*
X68300000Y-257600000D02*
X67000000Y-257600000D01*
X89400000Y-254000000D02*
X86600000Y-256800000D01*
X269950000Y-243400000D02*
X267450000Y-243400000D01*
X256250000Y-254600000D02*
X124405885Y-254600000D01*
X123805885Y-254000000D02*
X89400000Y-254000000D01*
X273150000Y-240200000D02*
X269950000Y-243400000D01*
%TO.N,A18*%
X124365686Y-255400000D02*
X123365686Y-254400000D01*
X88434314Y-257600000D02*
X71700000Y-257600000D01*
X257200000Y-255600000D02*
X127800000Y-255600000D01*
X271050000Y-243800000D02*
X269000000Y-243800000D01*
X269000000Y-243800000D02*
X257200000Y-255600000D01*
X273150000Y-241700000D02*
X271050000Y-243800000D01*
X91634314Y-254400000D02*
X88434314Y-257600000D01*
X127600000Y-255400000D02*
X124365686Y-255400000D01*
X127800000Y-255600000D02*
X127600000Y-255400000D01*
X123365686Y-254400000D02*
X91634314Y-254400000D01*
%TO.N,K19*%
X315050000Y-243600000D02*
X301950000Y-256700000D01*
X72750000Y-261200000D02*
X72600000Y-261050000D01*
X85400000Y-261200000D02*
X72750000Y-261200000D01*
X301950000Y-256700000D02*
X125100000Y-256700000D01*
X72600000Y-261050000D02*
X68850000Y-261050000D01*
X68850000Y-261050000D02*
X68300000Y-261600000D01*
X123200000Y-254800000D02*
X91800000Y-254800000D01*
X125100000Y-256700000D02*
X123200000Y-254800000D01*
X91800000Y-254800000D02*
X85400000Y-261200000D01*
X321950000Y-240200000D02*
X318550000Y-243600000D01*
X318550000Y-243600000D02*
X315050000Y-243600000D01*
%TO.N,A19*%
X319450000Y-244200000D02*
X321950000Y-241700000D01*
X122200000Y-255600000D02*
X123700000Y-257100000D01*
X93600000Y-255600000D02*
X122200000Y-255600000D01*
X303300000Y-257100000D02*
X316200000Y-244200000D01*
X316200000Y-244200000D02*
X319450000Y-244200000D01*
X87600000Y-261600000D02*
X71700000Y-261600000D01*
X123700000Y-257100000D02*
X303300000Y-257100000D01*
X93600000Y-255600000D02*
X87600000Y-261600000D01*
%TO.N,K20*%
X124000000Y-289000000D02*
X124000000Y-288200000D01*
X124000000Y-289000000D02*
X123800000Y-289000000D01*
X124000000Y-288200000D02*
X98200000Y-262400000D01*
X126750000Y-289000000D02*
X124000000Y-289000000D01*
X67000000Y-262400000D02*
X68300000Y-262400000D01*
%TO.N,A20*%
X126750000Y-290500000D02*
X124850000Y-290500000D01*
X124500000Y-290500000D02*
X97800000Y-263800000D01*
X97800000Y-263800000D02*
X97800000Y-262951471D01*
X97800000Y-262951471D02*
X97248529Y-262400000D01*
X125000000Y-290500000D02*
X124500000Y-290500000D01*
X97248529Y-262400000D02*
X71700000Y-262400000D01*
%TO.N,K21*%
X163934314Y-300400000D02*
X174234314Y-290100000D01*
X67000000Y-263200000D02*
X68300000Y-263200000D01*
X129600000Y-296585786D02*
X129600000Y-296600000D01*
X129600000Y-296600000D02*
X133400000Y-300400000D01*
X174234314Y-290100000D02*
X174450000Y-290100000D01*
X129600000Y-296585786D02*
X97200000Y-264185786D01*
X133400000Y-300400000D02*
X163934314Y-300400000D01*
X97200000Y-264185786D02*
X97200000Y-263200000D01*
X174450000Y-290100000D02*
X175600000Y-288950000D01*
%TO.N,A21*%
X133400000Y-301000000D02*
X95600000Y-263200000D01*
X175550000Y-290500000D02*
X174400000Y-290500000D01*
X163900000Y-301000000D02*
X133400000Y-301000000D01*
X95600000Y-263200000D02*
X71700000Y-263200000D01*
X174400000Y-290500000D02*
X163900000Y-301000000D01*
%TO.N,K22*%
X224350000Y-289000000D02*
X220000000Y-289000000D01*
X207400000Y-301600000D02*
X128800000Y-301600000D01*
X220000000Y-289000000D02*
X207400000Y-301600000D01*
X128800000Y-301600000D02*
X91400000Y-264200000D01*
X91400000Y-264200000D02*
X91400000Y-264000000D01*
X67000000Y-264000000D02*
X68300000Y-264000000D01*
%TO.N,A22*%
X128000000Y-302000000D02*
X210700000Y-302000000D01*
X210700000Y-302000000D02*
X222200000Y-290500000D01*
X222200000Y-290500000D02*
X224350000Y-290500000D01*
X128000000Y-302000000D02*
X128000000Y-301751471D01*
X90248529Y-264000000D02*
X71700000Y-264000000D01*
X128000000Y-301751471D02*
X90248529Y-264000000D01*
%TO.N,K23*%
X68300000Y-264800000D02*
X67000000Y-264800000D01*
X269400000Y-289000000D02*
X256000000Y-302400000D01*
X273150000Y-289000000D02*
X269400000Y-289000000D01*
X127834314Y-302400000D02*
X90234314Y-264800000D01*
X90234314Y-264800000D02*
X90200000Y-264800000D01*
X256000000Y-302400000D02*
X127834314Y-302400000D01*
%TO.N,A23*%
X257200000Y-303400000D02*
X127800000Y-303400000D01*
X270100000Y-290500000D02*
X257200000Y-303400000D01*
X273150000Y-290500000D02*
X270100000Y-290500000D01*
X89200000Y-264800000D02*
X71700000Y-264800000D01*
X127800000Y-303400000D02*
X89200000Y-264800000D01*
%TO.N,K24*%
X67000000Y-265600000D02*
X68300000Y-265600000D01*
X321950000Y-289000000D02*
X319550000Y-291400000D01*
X319550000Y-291400000D02*
X315050000Y-291400000D01*
X315050000Y-291400000D02*
X301950000Y-304500000D01*
X301950000Y-304500000D02*
X126700000Y-304500000D01*
X87800000Y-265600000D02*
X85200000Y-265600000D01*
X85200000Y-265600000D02*
X85224265Y-265575735D01*
X126700000Y-304500000D02*
X87800000Y-265600000D01*
%TO.N,A24*%
X303300000Y-304900000D02*
X123700000Y-304900000D01*
X316400000Y-291800000D02*
X303300000Y-304900000D01*
X321950000Y-290500000D02*
X320650000Y-291800000D01*
X123700000Y-304900000D02*
X84400000Y-265600000D01*
X84400000Y-265600000D02*
X71700000Y-265600000D01*
X320650000Y-291800000D02*
X316400000Y-291800000D01*
%TO.N,LED_input_after_resistor*%
X326800000Y-297800000D02*
X309800000Y-314800000D01*
X74000000Y-314200000D02*
X73400000Y-313600000D01*
X309800000Y-314800000D02*
X301600000Y-314800000D01*
X74000000Y-315600000D02*
X74000000Y-314200000D01*
X326800000Y-287900000D02*
X326800000Y-297800000D01*
X300800000Y-315600000D02*
X74000000Y-315600000D01*
X301600000Y-314800000D02*
X300800000Y-315600000D01*
%TO.N,LED_23_to_24*%
X277900000Y-287800000D02*
X322600000Y-287800000D01*
X322600000Y-287800000D02*
X322700000Y-287900000D01*
%TD*%
M02*
