%TF.GenerationSoftware,KiCad,Pcbnew,8.0.2-1*%
%TF.CreationDate,2025-02-21T16:49:57-05:00*%
%TF.ProjectId,OctagonPanels,4f637461-676f-46e5-9061-6e656c732e6b,rev?*%
%TF.SameCoordinates,Original*%
%TF.FileFunction,Copper,L4,Bot*%
%TF.FilePolarity,Positive*%
%FSLAX46Y46*%
G04 Gerber Fmt 4.6, Leading zero omitted, Abs format (unit mm)*
G04 Created by KiCad (PCBNEW 8.0.2-1) date 2025-02-21 16:49:57*
%MOMM*%
%LPD*%
G01*
G04 APERTURE LIST*
G04 Aperture macros list*
%AMRoundRect*
0 Rectangle with rounded corners*
0 $1 Rounding radius*
0 $2 $3 $4 $5 $6 $7 $8 $9 X,Y pos of 4 corners*
0 Add a 4 corners polygon primitive as box body*
4,1,4,$2,$3,$4,$5,$6,$7,$8,$9,$2,$3,0*
0 Add four circle primitives for the rounded corners*
1,1,$1+$1,$2,$3*
1,1,$1+$1,$4,$5*
1,1,$1+$1,$6,$7*
1,1,$1+$1,$8,$9*
0 Add four rect primitives between the rounded corners*
20,1,$1+$1,$2,$3,$4,$5,0*
20,1,$1+$1,$4,$5,$6,$7,0*
20,1,$1+$1,$6,$7,$8,$9,0*
20,1,$1+$1,$8,$9,$2,$3,0*%
G04 Aperture macros list end*
%TA.AperFunction,ComponentPad*%
%ADD10C,0.800000*%
%TD*%
%TA.AperFunction,SMDPad,CuDef*%
%ADD11RoundRect,0.087500X0.087500X0.337500X-0.087500X0.337500X-0.087500X-0.337500X0.087500X-0.337500X0*%
%TD*%
%TA.AperFunction,SMDPad,CuDef*%
%ADD12R,1.200000X0.500000*%
%TD*%
%TA.AperFunction,ComponentPad*%
%ADD13C,1.348000*%
%TD*%
%TA.AperFunction,ComponentPad*%
%ADD14RoundRect,0.250000X-0.725000X0.600000X-0.725000X-0.600000X0.725000X-0.600000X0.725000X0.600000X0*%
%TD*%
%TA.AperFunction,ComponentPad*%
%ADD15O,1.950000X1.700000*%
%TD*%
%TA.AperFunction,ViaPad*%
%ADD16C,0.600000*%
%TD*%
%TA.AperFunction,Conductor*%
%ADD17C,0.200000*%
%TD*%
%TA.AperFunction,Conductor*%
%ADD18C,0.250000*%
%TD*%
G04 APERTURE END LIST*
D10*
%TO.P,REF\u002A\u002A24,7*%
%TO.N,K4*%
X229650000Y-82200000D03*
%TO.P,REF\u002A\u002A24,8*%
%TO.N,A4*%
X229650000Y-83700000D03*
%TO.P,REF\u002A\u002A24,9*%
%TO.N,GND*%
X230200000Y-84900000D03*
%TD*%
%TO.P,REF\u002A\u002A47,7*%
%TO.N,K7*%
X376050000Y-82200000D03*
%TO.P,REF\u002A\u002A47,8*%
%TO.N,A7*%
X376050000Y-83700000D03*
%TO.P,REF\u002A\u002A47,9*%
%TO.N,GND*%
X376600000Y-84900000D03*
%TD*%
%TO.P,REF\u002A\u002A22,7*%
%TO.N,K2*%
X132050000Y-82200000D03*
%TO.P,REF\u002A\u002A22,8*%
%TO.N,A2*%
X132050000Y-83700000D03*
%TO.P,REF\u002A\u002A22,9*%
%TO.N,GND*%
X132600000Y-84900000D03*
%TD*%
%TO.P,REF\u002A\u002A23,7*%
%TO.N,K3*%
X180850000Y-82200000D03*
%TO.P,REF\u002A\u002A23,8*%
%TO.N,A3*%
X180850000Y-83700000D03*
%TO.P,REF\u002A\u002A23,9*%
%TO.N,GND*%
X181400000Y-84900000D03*
%TD*%
%TO.P,REF\u002A\u002A46,7*%
%TO.N,K6*%
X327250000Y-82200000D03*
%TO.P,REF\u002A\u002A46,8*%
%TO.N,A6*%
X327250000Y-83700000D03*
%TO.P,REF\u002A\u002A46,9*%
%TO.N,GND*%
X327800000Y-84900000D03*
%TD*%
%TO.P,REF\u002A\u002A20,7*%
%TO.N,K0*%
X34450000Y-82200000D03*
%TO.P,REF\u002A\u002A20,8*%
%TO.N,A0*%
X34450000Y-83700000D03*
%TO.P,REF\u002A\u002A20,9*%
%TO.N,GND*%
X35000000Y-84900000D03*
%TD*%
%TO.P,REF\u002A\u002A21,7*%
%TO.N,K1*%
X83250000Y-82200000D03*
%TO.P,REF\u002A\u002A21,8*%
%TO.N,A1*%
X83250000Y-83700000D03*
%TO.P,REF\u002A\u002A21,9*%
%TO.N,GND*%
X83800000Y-84900000D03*
%TD*%
%TO.P,REF\u002A\u002A45,7*%
%TO.N,K5*%
X278450000Y-82200000D03*
%TO.P,REF\u002A\u002A45,8*%
%TO.N,A5*%
X278450000Y-83700000D03*
%TO.P,REF\u002A\u002A45,9*%
%TO.N,GND*%
X279000000Y-84900000D03*
%TD*%
D11*
%TO.P,REF\u002A\u002A,1*%
%TO.N,GND*%
X3900000Y-96900000D03*
%TO.P,REF\u002A\u002A,2*%
X3250000Y-96900000D03*
%TO.P,REF\u002A\u002A,3*%
%TO.N,TEMP_OUT*%
X2600000Y-96900000D03*
%TO.P,REF\u002A\u002A,4*%
%TO.N,HV*%
X2600000Y-94700000D03*
%TO.P,REF\u002A\u002A,5*%
%TO.N,GND*%
X3900000Y-94700000D03*
%TD*%
D12*
%TO.P,REF\u002A\u002A,01*%
%TO.N,A0*%
X-1900000Y-69600000D03*
%TO.P,REF\u002A\u002A,02*%
%TO.N,K0*%
X-5300000Y-69600000D03*
%TO.N,A1*%
X-1900000Y-70400000D03*
%TO.P,REF\u002A\u002A,04*%
%TO.N,K1*%
X-5300000Y-70400000D03*
%TO.P,REF\u002A\u002A,05*%
%TO.N,A2*%
X-1900000Y-71200000D03*
%TO.P,REF\u002A\u002A,06*%
%TO.N,K2*%
X-5300000Y-71200000D03*
%TO.P,REF\u002A\u002A,07*%
%TO.N,A3*%
X-1900000Y-72000000D03*
%TO.P,REF\u002A\u002A,08*%
%TO.N,K3*%
X-5300000Y-72000000D03*
%TO.P,REF\u002A\u002A,09*%
%TO.N,A4*%
X-1900000Y-72800000D03*
%TO.P,REF\u002A\u002A,10*%
%TO.N,K4*%
X-5300000Y-72800000D03*
%TO.P,REF\u002A\u002A,11*%
%TO.N,A5*%
X-1900000Y-73600000D03*
%TO.P,REF\u002A\u002A,12*%
%TO.N,K5*%
X-5300000Y-73600000D03*
%TO.P,REF\u002A\u002A,13*%
%TO.N,A6*%
X-1900000Y-77600000D03*
%TO.P,REF\u002A\u002A,14*%
%TO.N,K6*%
X-5300000Y-77600000D03*
%TO.P,REF\u002A\u002A,15*%
%TO.N,A7*%
X-1900000Y-78400000D03*
%TO.P,REF\u002A\u002A,16*%
%TO.N,K7*%
X-5300000Y-78400000D03*
%TO.P,REF\u002A\u002A,17*%
%TO.N,GND*%
X-1900000Y-79200000D03*
%TO.P,REF\u002A\u002A,18*%
X-5300000Y-79200000D03*
%TO.P,REF\u002A\u002A,19*%
X-1900000Y-80000000D03*
%TO.P,REF\u002A\u002A,20*%
X-5300000Y-80000000D03*
%TO.P,REF\u002A\u002A,21*%
X-1900000Y-80800000D03*
%TO.P,REF\u002A\u002A,22*%
X-5300000Y-80800000D03*
%TO.P,REF\u002A\u002A,23*%
X-1900000Y-81600000D03*
%TO.P,REF\u002A\u002A,24*%
X-5300000Y-81600000D03*
%TO.P,REF\u002A\u002A,25*%
X-1900000Y-82400000D03*
%TO.P,REF\u002A\u002A,26*%
X-5300000Y-82400000D03*
D13*
%TO.P,REF\u002A\u002A,S1*%
%TO.N,N/C*%
X-3600000Y-66505000D03*
%TO.P,REF\u002A\u002A,S2*%
X-3600000Y-85495000D03*
%TD*%
D14*
%TO.P,REF\u002A\u002A,1*%
%TO.N,TEMP_OUT*%
X-4300000Y-94334936D03*
D15*
%TO.P,REF\u002A\u002A,2*%
%TO.N,HV*%
X-4300000Y-96834936D03*
%TO.P,REF\u002A\u002A,3*%
%TO.N,GND*%
X-4300000Y-99334936D03*
%TD*%
D16*
%TO.N,K0*%
X-4000000Y-69600000D03*
X-500000Y-68200000D03*
%TO.N,K1*%
X-4000000Y-70400000D03*
X-300000Y-69400000D03*
%TO.N,K2*%
X-300000Y-71000000D03*
X-4000000Y-71200000D03*
%TO.N,K3*%
X-51472Y-72200000D03*
X-4000000Y-72000000D03*
%TO.N,K4*%
X200000Y-74200000D03*
X-4000000Y-72800000D03*
%TO.N,K5*%
X-4000000Y-73600000D03*
X-100000Y-76000000D03*
%TO.N,K6*%
X-4000000Y-77600000D03*
X-400000Y-77200000D03*
%TO.N,K7*%
X-200000Y-79100000D03*
X-4000000Y-78400000D03*
%TD*%
D17*
%TO.N,GND*%
X-2250000Y-66498000D02*
X-2250000Y-68750000D01*
X328800000Y-84900000D02*
X327800000Y-84900000D01*
X326800000Y-79000000D02*
X377700000Y-79000000D01*
X233300000Y-79000000D02*
X279300000Y-79000000D01*
X37400000Y-82500000D02*
X37400000Y-79400000D01*
X184300000Y-79000000D02*
X232600000Y-79000000D01*
X31240000Y-73240000D02*
X31240000Y-66380000D01*
X-3000000Y-83000000D02*
X3900000Y-89900000D01*
X132789950Y-80100000D02*
X134600000Y-80100000D01*
X131689950Y-79000000D02*
X132789950Y-80100000D01*
X83800000Y-84900000D02*
X85200000Y-84900000D01*
D18*
X3250000Y-96900000D02*
X3900000Y-96900000D01*
D17*
X232600000Y-82500000D02*
X232600000Y-79000000D01*
X281300000Y-82600000D02*
X279000000Y-84900000D01*
X134600000Y-82900000D02*
X132600000Y-84900000D01*
D18*
X3900000Y-96900000D02*
X3900000Y-94700000D01*
D17*
X279300000Y-79000000D02*
X326800000Y-79000000D01*
X85500000Y-79400000D02*
X85900000Y-79000000D01*
X326889950Y-79000000D02*
X330000000Y-82110050D01*
X-2250000Y-68750000D02*
X-2550000Y-69050000D01*
X31240000Y-66380000D02*
X31100000Y-66240000D01*
X-2550000Y-69050000D02*
X-2800000Y-69050000D01*
X233300000Y-79000000D02*
X233900000Y-79000000D01*
X-2800000Y-69300000D02*
X-3000000Y-69500000D01*
X-2508000Y-66240000D02*
X-2250000Y-66498000D01*
D18*
X3250000Y-99234936D02*
X3250000Y-96900000D01*
D17*
X3900000Y-89900000D02*
X3900000Y-94700000D01*
X279500000Y-79000000D02*
X281300000Y-80800000D01*
X-2800000Y-69050000D02*
X-2800000Y-69300000D01*
X377700000Y-79000000D02*
X378400000Y-79700000D01*
X-1900000Y-82400000D02*
X-1900000Y-79200000D01*
X330000000Y-83700000D02*
X328800000Y-84900000D01*
X85900000Y-84200000D02*
X85200000Y-84900000D01*
X-3000000Y-69500000D02*
X-3000000Y-83000000D01*
X279300000Y-79000000D02*
X279500000Y-79000000D01*
X134600000Y-80100000D02*
X183200000Y-80100000D01*
X330000000Y-82110050D02*
X330000000Y-83700000D01*
X184300000Y-82000000D02*
X184300000Y-79000000D01*
X-5300000Y-82400000D02*
X-1900000Y-82400000D01*
X37400000Y-79400000D02*
X31240000Y-73240000D01*
X31100000Y-66240000D02*
X-2508000Y-66240000D01*
X-5300000Y-79200000D02*
X-5300000Y-82400000D01*
X378400000Y-83100000D02*
X376600000Y-84900000D01*
X181400000Y-84900000D02*
X184300000Y-82000000D01*
X85900000Y-79000000D02*
X131689950Y-79000000D01*
X326800000Y-79000000D02*
X326889950Y-79000000D01*
X85900000Y-79000000D02*
X85900000Y-84200000D01*
X37400000Y-79400000D02*
X85500000Y-79400000D01*
X31240000Y-66240000D02*
X31100000Y-66240000D01*
X378400000Y-79700000D02*
X378400000Y-83100000D01*
D18*
X3350000Y-99334936D02*
X3250000Y-99234936D01*
D17*
X35000000Y-84900000D02*
X37400000Y-82500000D01*
X134600000Y-80100000D02*
X134600000Y-82900000D01*
X281300000Y-80800000D02*
X281300000Y-82600000D01*
X230200000Y-84900000D02*
X232600000Y-82500000D01*
D18*
X3350000Y-99334936D02*
X-3834936Y-99334936D01*
D17*
X183200000Y-80100000D02*
X184300000Y-79000000D01*
X232600000Y-79000000D02*
X233300000Y-79000000D01*
%TO.N,K0*%
X-5300000Y-69600000D02*
X-4000000Y-69600000D01*
X27450000Y-75200000D02*
X34450000Y-82200000D01*
X27450000Y-68200000D02*
X27450000Y-75200000D01*
X-500000Y-68200000D02*
X27450000Y-68200000D01*
%TO.N,A0*%
X26550000Y-75800000D02*
X26550000Y-68800000D01*
X34450000Y-83700000D02*
X26550000Y-75800000D01*
X26550000Y-68800000D02*
X-1100000Y-68800000D01*
X-1100000Y-68800000D02*
X-1900000Y-69600000D01*
%TO.N,K1*%
X11300000Y-78400000D02*
X18500000Y-85600000D01*
X79850000Y-85600000D02*
X83250000Y-82200000D01*
X11300000Y-78400000D02*
X11300000Y-71400000D01*
X900000Y-69400000D02*
X2900000Y-71400000D01*
X-300000Y-69400000D02*
X900000Y-69400000D01*
X2900000Y-71400000D02*
X11300000Y-71400000D01*
X-4000000Y-70400000D02*
X-5300000Y-70400000D01*
X18500000Y-85600000D02*
X79850000Y-85600000D01*
%TO.N,A1*%
X10600000Y-72200000D02*
X10600000Y-79500000D01*
X10200000Y-71800000D02*
X2734314Y-71800000D01*
X80950000Y-86000000D02*
X83250000Y-83700000D01*
X17100000Y-86000000D02*
X80950000Y-86000000D01*
X2734314Y-71800000D02*
X1334314Y-70400000D01*
X1334314Y-70400000D02*
X-1900000Y-70400000D01*
X10200000Y-71800000D02*
X10600000Y-72200000D01*
X10600000Y-79500000D02*
X17100000Y-86000000D01*
%TO.N,K2*%
X4459801Y-75297058D02*
X8297058Y-75297058D01*
X-300000Y-71000000D02*
X162743Y-71000000D01*
X-4000000Y-71200000D02*
X-5300000Y-71200000D01*
X8297058Y-75297058D02*
X8297058Y-77397058D01*
X127550000Y-86700000D02*
X132050000Y-82200000D01*
X10200000Y-79665686D02*
X17234314Y-86700000D01*
X17234314Y-86700000D02*
X127550000Y-86700000D01*
X162743Y-71000000D02*
X4459801Y-75297058D01*
X8297058Y-77397058D02*
X10200000Y-79300000D01*
X10200000Y-79300000D02*
X10200000Y-79665686D01*
%TO.N,A2*%
X-300001Y-71600000D02*
X-424265Y-71724264D01*
X4294115Y-75697058D02*
X197057Y-71600000D01*
X-900000Y-71248529D02*
X-900000Y-71200000D01*
X-424265Y-71724264D02*
X-900000Y-71248529D01*
X197057Y-71600000D02*
X-300001Y-71600000D01*
X129800000Y-86865685D02*
X129565685Y-87100000D01*
X17068628Y-87100000D02*
X5665686Y-75697058D01*
X132050000Y-83700000D02*
X131100000Y-84650000D01*
X-900000Y-71200000D02*
X-1900000Y-71200000D01*
X129800000Y-85950000D02*
X129800000Y-86865685D01*
X132050000Y-83700000D02*
X129800000Y-85950000D01*
X129565685Y-87100000D02*
X17068628Y-87100000D01*
X5665686Y-75697058D02*
X4294115Y-75697058D01*
%TO.N,K3*%
X-5300000Y-72000000D02*
X-4000000Y-72000000D01*
X7965686Y-79031372D02*
X8434314Y-79031372D01*
X-51472Y-72482842D02*
X4465686Y-77000000D01*
X4465686Y-77000000D02*
X5934314Y-77000000D01*
X-51472Y-72200000D02*
X-51472Y-72482842D01*
X177050000Y-87500000D02*
X179425000Y-85125000D01*
X8434314Y-79031372D02*
X16902942Y-87500000D01*
X5934314Y-77000000D02*
X7965686Y-79031372D01*
X16902942Y-87500000D02*
X177050000Y-87500000D01*
X179425000Y-85125000D02*
X179425000Y-83625000D01*
X179425000Y-83625000D02*
X180850000Y-82200000D01*
%TO.N,A3*%
X-1900000Y-72000000D02*
X-1100001Y-72000000D01*
X177600000Y-88500000D02*
X180100000Y-86000000D01*
X17337256Y-88500000D02*
X177600000Y-88500000D01*
X6899999Y-80000000D02*
X8837256Y-80000000D01*
X8837256Y-80000000D02*
X17337256Y-88500000D01*
X180100000Y-86000000D02*
X180100000Y-84450000D01*
X-1100001Y-72000000D02*
X6899999Y-80000000D01*
X180100000Y-84450000D02*
X180850000Y-83700000D01*
%TO.N,K4*%
X10500000Y-84500000D02*
X16600000Y-90600000D01*
X8821570Y-80550000D02*
X10500000Y-82228430D01*
X10500000Y-82228430D02*
X10500000Y-84500000D01*
X227850000Y-84450000D02*
X227900000Y-84450000D01*
X178565686Y-88100000D02*
X224200000Y-88100000D01*
X-5300000Y-72800000D02*
X-4000000Y-72800000D01*
X224200000Y-88100000D02*
X227850000Y-84450000D01*
X176065686Y-90600000D02*
X178565686Y-88100000D01*
X227900000Y-83950000D02*
X229650000Y-82200000D01*
X6550000Y-80550000D02*
X8821570Y-80550000D01*
X16600000Y-90600000D02*
X176065686Y-90600000D01*
X200000Y-74200000D02*
X6550000Y-80550000D01*
X227900000Y-84450000D02*
X227900000Y-83950000D01*
%TO.N,A4*%
X-1100000Y-72800000D02*
X-1900000Y-72800000D01*
X6500000Y-85302942D02*
X6500000Y-85071570D01*
X5100000Y-80351471D02*
X-600000Y-74651471D01*
X7697058Y-86500000D02*
X6500000Y-85302942D01*
X-600000Y-73300000D02*
X-1100000Y-72800000D01*
X16900000Y-92000000D02*
X11400000Y-86500000D01*
X221850000Y-92000000D02*
X16900000Y-92000000D01*
X227900000Y-85950000D02*
X221850000Y-92000000D01*
X6500000Y-85071570D02*
X5100000Y-83671570D01*
X227900000Y-85450000D02*
X227900000Y-85950000D01*
X-600000Y-74651471D02*
X-600000Y-73300000D01*
X5100000Y-83671570D02*
X5100000Y-80351471D01*
X229650000Y-83700000D02*
X227900000Y-85450000D01*
X11400000Y-86500000D02*
X7697058Y-86500000D01*
%TO.N,K5*%
X6100000Y-85468628D02*
X7881372Y-87250000D01*
X-5300000Y-73600000D02*
X-4000000Y-73600000D01*
X4700000Y-80800000D02*
X4700000Y-83837256D01*
X15965686Y-92400000D02*
X268250000Y-92400000D01*
X10815686Y-87250000D02*
X15965686Y-92400000D01*
X-100000Y-76000000D02*
X4700000Y-80800000D01*
X4700000Y-83837256D02*
X6100000Y-85237256D01*
X7881372Y-87250000D02*
X10815686Y-87250000D01*
X268250000Y-92400000D02*
X278450000Y-82200000D01*
X6100000Y-85237256D02*
X6100000Y-85468628D01*
%TO.N,A5*%
X11900000Y-88900000D02*
X11400000Y-88400000D01*
X5700000Y-85634314D02*
X5700000Y-85402942D01*
X-400000Y-76600000D02*
X-1900000Y-75100000D01*
X4300000Y-80965686D02*
X-65686Y-76600000D01*
X5700000Y-85402942D02*
X4300000Y-84002942D01*
X266250000Y-95900000D02*
X278450000Y-83700000D01*
X11700000Y-88700000D02*
X18900000Y-95900000D01*
X4300000Y-84002942D02*
X4300000Y-80965686D01*
X-65686Y-76600000D02*
X-400000Y-76600000D01*
X11400000Y-88400000D02*
X8465686Y-88400000D01*
X-1900000Y-75100000D02*
X-1900000Y-73600000D01*
X8465686Y-88400000D02*
X5700000Y-85634314D01*
X18900000Y-95900000D02*
X266250000Y-95900000D01*
%TO.N,K6*%
X3900000Y-84168628D02*
X5300000Y-85568628D01*
X10217157Y-89082843D02*
X11517157Y-89082843D01*
X327250000Y-82200000D02*
X315050000Y-94400000D01*
X275300000Y-96300000D02*
X18734314Y-96300000D01*
X5300000Y-85800000D02*
X8700000Y-89200000D01*
X5300000Y-85568628D02*
X5300000Y-85800000D01*
X10100000Y-89200000D02*
X10217157Y-89082843D01*
X-365686Y-77200000D02*
X3900000Y-81465686D01*
X8700000Y-89200000D02*
X10100000Y-89200000D01*
X3900000Y-81465686D02*
X3900000Y-84168628D01*
X315050000Y-94400000D02*
X277200000Y-94400000D01*
X277200000Y-94400000D02*
X275300000Y-96300000D01*
X18734314Y-96300000D02*
X11667157Y-89232843D01*
X-400000Y-77200000D02*
X-365686Y-77200000D01*
X11517157Y-89082843D02*
X11734314Y-89300000D01*
X-5300000Y-77600000D02*
X-4000000Y-77600000D01*
%TO.N,A6*%
X11434314Y-89565686D02*
X18568628Y-96700000D01*
X3500000Y-84334314D02*
X4900000Y-85734314D01*
X3500000Y-81631372D02*
X3500000Y-84334314D01*
X4900000Y-86034314D02*
X8565686Y-89700000D01*
X234314Y-78365686D02*
X3500000Y-81631372D01*
X-1900000Y-77600000D02*
X-848529Y-77600000D01*
X314250000Y-96700000D02*
X327250000Y-83700000D01*
X-82843Y-78365686D02*
X234314Y-78365686D01*
X4900000Y-85734314D02*
X4900000Y-86034314D01*
X-848529Y-77600000D02*
X-82843Y-78365686D01*
X18568628Y-96700000D02*
X314250000Y-96700000D01*
X8565686Y-89700000D02*
X11568628Y-89700000D01*
%TO.N,K7*%
X9100000Y-90800000D02*
X4500000Y-86200000D01*
X4500000Y-85900000D02*
X3100000Y-84500000D01*
X376050000Y-82200000D02*
X360550000Y-97700000D01*
X19600000Y-98900000D02*
X11500000Y-90800000D01*
X11500000Y-90800000D02*
X9100000Y-90800000D01*
X-5300000Y-78400000D02*
X-4000000Y-78400000D01*
X30800000Y-98900000D02*
X19600000Y-98900000D01*
X32000000Y-97700000D02*
X30800000Y-98900000D01*
X3100000Y-82400000D02*
X-200000Y-79100000D01*
X3100000Y-84500000D02*
X3100000Y-82400000D01*
X360550000Y-97700000D02*
X32000000Y-97700000D01*
X4500000Y-86200000D02*
X4500000Y-85900000D01*
%TO.N,A7*%
X-1100000Y-78400000D02*
X-1000000Y-78500000D01*
X2600000Y-82800000D02*
X2600000Y-87000000D01*
X8150000Y-91650000D02*
X11450000Y-91650000D01*
X11450000Y-91650000D02*
X15500000Y-95700000D01*
X15667157Y-95532843D02*
X19434314Y-99300000D01*
X7700000Y-92100000D02*
X8150000Y-91650000D01*
X15500000Y-95700000D02*
X15667157Y-95532843D01*
X-1000000Y-79200000D02*
X2600000Y-82800000D01*
X360450000Y-99300000D02*
X376050000Y-83700000D01*
X-1900000Y-78400000D02*
X-1100000Y-78400000D01*
X19434314Y-99300000D02*
X360450000Y-99300000D01*
X2600000Y-87000000D02*
X7700000Y-92100000D01*
X-1000000Y-78500000D02*
X-1000000Y-79200000D01*
%TO.N,HV*%
X-1934936Y-96834936D02*
X200000Y-94700000D01*
X200000Y-94700000D02*
X2600000Y-94700000D01*
X-3834936Y-96834936D02*
X-1934936Y-96834936D01*
%TO.N,TEMP_OUT*%
X1950000Y-93600000D02*
X1950000Y-93074568D01*
X-3100000Y-93600000D02*
X1950000Y-93600000D01*
X-3834936Y-94334936D02*
X-3100000Y-93600000D01*
X-4381556Y-93788316D02*
X-3834936Y-94334936D01*
X1950000Y-93074568D02*
X3150000Y-94274568D01*
X3150000Y-95800000D02*
X2600000Y-96350000D01*
X2600000Y-96350000D02*
X2600000Y-96900000D01*
X3150000Y-94274568D02*
X3150000Y-95800000D01*
%TD*%
M02*
