%TF.GenerationSoftware,KiCad,Pcbnew,8.0.2-1*%
%TF.CreationDate,2025-02-21T16:49:55-05:00*%
%TF.ProjectId,OctagonPanels,4f637461-676f-46e5-9061-6e656c732e6b,rev?*%
%TF.SameCoordinates,Original*%
%TF.FileFunction,Drillmap*%
%TF.FilePolarity,Positive*%
%FSLAX45Y45*%
G04 Gerber Fmt 4.5, Leading zero omitted, Abs format (unit mm)*
G04 Created by KiCad (PCBNEW 8.0.2-1) date 2025-02-21 16:49:55*
%MOMM*%
%LPD*%
G01*
G04 APERTURE LIST*
%ADD10C,0.050000*%
%ADD11C,0.200000*%
%ADD12C,0.100000*%
G04 APERTURE END LIST*
D10*
X41330000Y-5860000D02*
X41330000Y-10740000D01*
X40990000Y-8300000D02*
G75*
G02*
X40670000Y-8300000I-160000J0D01*
G01*
X40670000Y-8300000D02*
G75*
G02*
X40990000Y-8300000I160000J0D01*
G01*
X-710000Y-5860000D02*
X41330000Y-5860000D01*
X-710000Y-5860000D02*
X-710000Y-10740000D01*
X950000Y-8300000D02*
G75*
G02*
X630000Y-8300000I-160000J0D01*
G01*
X630000Y-8300000D02*
G75*
G02*
X950000Y-8300000I160000J0D01*
G01*
X-710000Y-10740000D02*
X41330000Y-10740000D01*
D11*
D12*
X-415000Y-6945000D02*
X-385000Y-6975000D01*
X-385000Y-6945000D02*
X-415000Y-6975000D01*
X-415000Y-7025000D02*
X-385000Y-7055000D01*
X-385000Y-7025000D02*
X-415000Y-7055000D01*
X-415000Y-7105000D02*
X-385000Y-7135000D01*
X-385000Y-7105000D02*
X-415000Y-7135000D01*
X-415000Y-7185000D02*
X-385000Y-7215000D01*
X-385000Y-7185000D02*
X-415000Y-7215000D01*
X-415000Y-7265000D02*
X-385000Y-7295000D01*
X-385000Y-7265000D02*
X-415000Y-7295000D01*
X-415000Y-7345000D02*
X-385000Y-7375000D01*
X-385000Y-7345000D02*
X-415000Y-7375000D01*
X-415000Y-7745000D02*
X-385000Y-7775000D01*
X-385000Y-7745000D02*
X-415000Y-7775000D01*
X-415000Y-7825000D02*
X-385000Y-7855000D01*
X-385000Y-7825000D02*
X-415000Y-7855000D01*
X-65000Y-6805000D02*
X-35000Y-6835000D01*
X-35000Y-6805000D02*
X-65000Y-6835000D01*
X-55000Y-7705000D02*
X-25000Y-7735000D01*
X-25000Y-7705000D02*
X-55000Y-7735000D01*
X-45000Y-6925000D02*
X-15000Y-6955000D01*
X-15000Y-6925000D02*
X-45000Y-6955000D01*
X-45000Y-7085000D02*
X-15000Y-7115000D01*
X-15000Y-7085000D02*
X-45000Y-7115000D01*
X-35000Y-7895000D02*
X-5000Y-7925000D01*
X-5000Y-7895000D02*
X-35000Y-7925000D01*
X-25000Y-7585000D02*
X5000Y-7615000D01*
X5000Y-7585000D02*
X-25000Y-7615000D01*
X-20147Y-7205000D02*
X9853Y-7235000D01*
X9853Y-7205000D02*
X-20147Y-7235000D01*
X5000Y-7405000D02*
X35000Y-7435000D01*
X35000Y-7405000D02*
X5000Y-7435000D01*
X3465000Y-8220000D02*
G75*
G02*
X3425000Y-8220000I-20000J0D01*
G01*
X3425000Y-8220000D02*
G75*
G02*
X3465000Y-8220000I20000J0D01*
G01*
X3465000Y-8370000D02*
G75*
G02*
X3425000Y-8370000I-20000J0D01*
G01*
X3425000Y-8370000D02*
G75*
G02*
X3465000Y-8370000I20000J0D01*
G01*
X3520000Y-8490000D02*
G75*
G02*
X3480000Y-8490000I-20000J0D01*
G01*
X3480000Y-8490000D02*
G75*
G02*
X3520000Y-8490000I20000J0D01*
G01*
X8345000Y-8220000D02*
G75*
G02*
X8305000Y-8220000I-20000J0D01*
G01*
X8305000Y-8220000D02*
G75*
G02*
X8345000Y-8220000I20000J0D01*
G01*
X8345000Y-8370000D02*
G75*
G02*
X8305000Y-8370000I-20000J0D01*
G01*
X8305000Y-8370000D02*
G75*
G02*
X8345000Y-8370000I20000J0D01*
G01*
X8400000Y-8490000D02*
G75*
G02*
X8360000Y-8490000I-20000J0D01*
G01*
X8360000Y-8490000D02*
G75*
G02*
X8400000Y-8490000I20000J0D01*
G01*
X13225000Y-8220000D02*
G75*
G02*
X13185000Y-8220000I-20000J0D01*
G01*
X13185000Y-8220000D02*
G75*
G02*
X13225000Y-8220000I20000J0D01*
G01*
X13225000Y-8370000D02*
G75*
G02*
X13185000Y-8370000I-20000J0D01*
G01*
X13185000Y-8370000D02*
G75*
G02*
X13225000Y-8370000I20000J0D01*
G01*
X13280000Y-8490000D02*
G75*
G02*
X13240000Y-8490000I-20000J0D01*
G01*
X13240000Y-8490000D02*
G75*
G02*
X13280000Y-8490000I20000J0D01*
G01*
X18105000Y-8220000D02*
G75*
G02*
X18065000Y-8220000I-20000J0D01*
G01*
X18065000Y-8220000D02*
G75*
G02*
X18105000Y-8220000I20000J0D01*
G01*
X18105000Y-8370000D02*
G75*
G02*
X18065000Y-8370000I-20000J0D01*
G01*
X18065000Y-8370000D02*
G75*
G02*
X18105000Y-8370000I20000J0D01*
G01*
X18160000Y-8490000D02*
G75*
G02*
X18120000Y-8490000I-20000J0D01*
G01*
X18120000Y-8490000D02*
G75*
G02*
X18160000Y-8490000I20000J0D01*
G01*
X22985000Y-8220000D02*
G75*
G02*
X22945000Y-8220000I-20000J0D01*
G01*
X22945000Y-8220000D02*
G75*
G02*
X22985000Y-8220000I20000J0D01*
G01*
X22985000Y-8370000D02*
G75*
G02*
X22945000Y-8370000I-20000J0D01*
G01*
X22945000Y-8370000D02*
G75*
G02*
X22985000Y-8370000I20000J0D01*
G01*
X23040000Y-8490000D02*
G75*
G02*
X23000000Y-8490000I-20000J0D01*
G01*
X23000000Y-8490000D02*
G75*
G02*
X23040000Y-8490000I20000J0D01*
G01*
X27865000Y-8220000D02*
G75*
G02*
X27825000Y-8220000I-20000J0D01*
G01*
X27825000Y-8220000D02*
G75*
G02*
X27865000Y-8220000I20000J0D01*
G01*
X27865000Y-8370000D02*
G75*
G02*
X27825000Y-8370000I-20000J0D01*
G01*
X27825000Y-8370000D02*
G75*
G02*
X27865000Y-8370000I20000J0D01*
G01*
X27920000Y-8490000D02*
G75*
G02*
X27880000Y-8490000I-20000J0D01*
G01*
X27880000Y-8490000D02*
G75*
G02*
X27920000Y-8490000I20000J0D01*
G01*
X32745000Y-8220000D02*
G75*
G02*
X32705000Y-8220000I-20000J0D01*
G01*
X32705000Y-8220000D02*
G75*
G02*
X32745000Y-8220000I20000J0D01*
G01*
X32745000Y-8370000D02*
G75*
G02*
X32705000Y-8370000I-20000J0D01*
G01*
X32705000Y-8370000D02*
G75*
G02*
X32745000Y-8370000I20000J0D01*
G01*
X32800000Y-8490000D02*
G75*
G02*
X32760000Y-8490000I-20000J0D01*
G01*
X32760000Y-8490000D02*
G75*
G02*
X32800000Y-8490000I20000J0D01*
G01*
X37625000Y-8220000D02*
G75*
G02*
X37585000Y-8220000I-20000J0D01*
G01*
X37585000Y-8220000D02*
G75*
G02*
X37625000Y-8220000I20000J0D01*
G01*
X37625000Y-8370000D02*
G75*
G02*
X37585000Y-8370000I-20000J0D01*
G01*
X37585000Y-8370000D02*
G75*
G02*
X37625000Y-8370000I20000J0D01*
G01*
X37680000Y-8490000D02*
G75*
G02*
X37640000Y-8490000I-20000J0D01*
G01*
X37640000Y-8490000D02*
G75*
G02*
X37680000Y-8490000I20000J0D01*
G01*
X-360000Y-6608500D02*
X-360000Y-6692500D01*
X-402000Y-6650500D02*
X-318000Y-6650500D01*
X-360000Y-8507500D02*
X-360000Y-8591500D01*
X-402000Y-8549500D02*
X-318000Y-8549500D01*
X-396412Y-9467082D02*
X-396412Y-9399906D01*
X-463588Y-9399906D01*
X-463588Y-9467082D01*
X-396412Y-9467082D01*
X-396412Y-9717082D02*
X-396412Y-9649906D01*
X-463588Y-9649906D01*
X-463588Y-9717082D01*
X-396412Y-9717082D01*
X-396412Y-9967082D02*
X-396412Y-9899906D01*
X-463588Y-9899906D01*
X-463588Y-9967082D01*
X-396412Y-9967082D01*
D11*
X-451723Y-11053984D02*
X-451723Y-10853984D01*
X-451723Y-10853984D02*
X-404104Y-10853984D01*
X-404104Y-10853984D02*
X-375533Y-10863508D01*
X-375533Y-10863508D02*
X-356485Y-10882555D01*
X-356485Y-10882555D02*
X-346961Y-10901603D01*
X-346961Y-10901603D02*
X-337437Y-10939698D01*
X-337437Y-10939698D02*
X-337437Y-10968270D01*
X-337437Y-10968270D02*
X-346961Y-11006365D01*
X-346961Y-11006365D02*
X-356485Y-11025412D01*
X-356485Y-11025412D02*
X-375533Y-11044460D01*
X-375533Y-11044460D02*
X-404104Y-11053984D01*
X-404104Y-11053984D02*
X-451723Y-11053984D01*
X-251723Y-11053984D02*
X-251723Y-10920650D01*
X-251723Y-10958746D02*
X-242199Y-10939698D01*
X-242199Y-10939698D02*
X-232675Y-10930174D01*
X-232675Y-10930174D02*
X-213628Y-10920650D01*
X-213628Y-10920650D02*
X-194580Y-10920650D01*
X-127914Y-11053984D02*
X-127914Y-10920650D01*
X-127914Y-10853984D02*
X-137437Y-10863508D01*
X-137437Y-10863508D02*
X-127914Y-10873031D01*
X-127914Y-10873031D02*
X-118390Y-10863508D01*
X-118390Y-10863508D02*
X-127914Y-10853984D01*
X-127914Y-10853984D02*
X-127914Y-10873031D01*
X-4104Y-11053984D02*
X-23152Y-11044460D01*
X-23152Y-11044460D02*
X-32675Y-11025412D01*
X-32675Y-11025412D02*
X-32675Y-10853984D01*
X100658Y-11053984D02*
X81610Y-11044460D01*
X81610Y-11044460D02*
X72086Y-11025412D01*
X72086Y-11025412D02*
X72086Y-10853984D01*
X329229Y-11053984D02*
X329229Y-10853984D01*
X329229Y-10853984D02*
X395896Y-10996841D01*
X395896Y-10996841D02*
X462562Y-10853984D01*
X462562Y-10853984D02*
X462562Y-11053984D01*
X643515Y-11053984D02*
X643515Y-10949222D01*
X643515Y-10949222D02*
X633991Y-10930174D01*
X633991Y-10930174D02*
X614944Y-10920650D01*
X614944Y-10920650D02*
X576848Y-10920650D01*
X576848Y-10920650D02*
X557801Y-10930174D01*
X643515Y-11044460D02*
X624467Y-11053984D01*
X624467Y-11053984D02*
X576848Y-11053984D01*
X576848Y-11053984D02*
X557801Y-11044460D01*
X557801Y-11044460D02*
X548277Y-11025412D01*
X548277Y-11025412D02*
X548277Y-11006365D01*
X548277Y-11006365D02*
X557801Y-10987317D01*
X557801Y-10987317D02*
X576848Y-10977793D01*
X576848Y-10977793D02*
X624467Y-10977793D01*
X624467Y-10977793D02*
X643515Y-10968270D01*
X738753Y-10920650D02*
X738753Y-11120650D01*
X738753Y-10930174D02*
X757801Y-10920650D01*
X757801Y-10920650D02*
X795896Y-10920650D01*
X795896Y-10920650D02*
X814943Y-10930174D01*
X814943Y-10930174D02*
X824467Y-10939698D01*
X824467Y-10939698D02*
X833991Y-10958746D01*
X833991Y-10958746D02*
X833991Y-11015889D01*
X833991Y-11015889D02*
X824467Y-11034936D01*
X824467Y-11034936D02*
X814943Y-11044460D01*
X814943Y-11044460D02*
X795896Y-11053984D01*
X795896Y-11053984D02*
X757801Y-11053984D01*
X757801Y-11053984D02*
X738753Y-11044460D01*
X919705Y-11034936D02*
X929229Y-11044460D01*
X929229Y-11044460D02*
X919705Y-11053984D01*
X919705Y-11053984D02*
X910182Y-11044460D01*
X910182Y-11044460D02*
X919705Y-11034936D01*
X919705Y-11034936D02*
X919705Y-11053984D01*
X919705Y-10930174D02*
X929229Y-10939698D01*
X929229Y-10939698D02*
X919705Y-10949222D01*
X919705Y-10949222D02*
X910182Y-10939698D01*
X910182Y-10939698D02*
X919705Y-10930174D01*
X919705Y-10930174D02*
X919705Y-10949222D01*
D12*
X-742500Y-11367500D02*
X-712500Y-11397500D01*
X-712500Y-11367500D02*
X-742500Y-11397500D01*
D11*
X-413628Y-11273984D02*
X-394580Y-11273984D01*
X-394580Y-11273984D02*
X-375533Y-11283508D01*
X-375533Y-11283508D02*
X-366009Y-11293031D01*
X-366009Y-11293031D02*
X-356485Y-11312079D01*
X-356485Y-11312079D02*
X-346961Y-11350174D01*
X-346961Y-11350174D02*
X-346961Y-11397793D01*
X-346961Y-11397793D02*
X-356485Y-11435888D01*
X-356485Y-11435888D02*
X-366009Y-11454936D01*
X-366009Y-11454936D02*
X-375533Y-11464460D01*
X-375533Y-11464460D02*
X-394580Y-11473984D01*
X-394580Y-11473984D02*
X-413628Y-11473984D01*
X-413628Y-11473984D02*
X-432675Y-11464460D01*
X-432675Y-11464460D02*
X-442199Y-11454936D01*
X-442199Y-11454936D02*
X-451723Y-11435888D01*
X-451723Y-11435888D02*
X-461247Y-11397793D01*
X-461247Y-11397793D02*
X-461247Y-11350174D01*
X-461247Y-11350174D02*
X-451723Y-11312079D01*
X-451723Y-11312079D02*
X-442199Y-11293031D01*
X-442199Y-11293031D02*
X-432675Y-11283508D01*
X-432675Y-11283508D02*
X-413628Y-11273984D01*
X-261247Y-11454936D02*
X-251723Y-11464460D01*
X-251723Y-11464460D02*
X-261247Y-11473984D01*
X-261247Y-11473984D02*
X-270771Y-11464460D01*
X-270771Y-11464460D02*
X-261247Y-11454936D01*
X-261247Y-11454936D02*
X-261247Y-11473984D01*
X-185056Y-11273984D02*
X-61247Y-11273984D01*
X-61247Y-11273984D02*
X-127914Y-11350174D01*
X-127914Y-11350174D02*
X-99342Y-11350174D01*
X-99342Y-11350174D02*
X-80295Y-11359698D01*
X-80295Y-11359698D02*
X-70771Y-11369222D01*
X-70771Y-11369222D02*
X-61247Y-11388269D01*
X-61247Y-11388269D02*
X-61247Y-11435888D01*
X-61247Y-11435888D02*
X-70771Y-11454936D01*
X-70771Y-11454936D02*
X-80295Y-11464460D01*
X-80295Y-11464460D02*
X-99342Y-11473984D01*
X-99342Y-11473984D02*
X-156485Y-11473984D01*
X-156485Y-11473984D02*
X-175533Y-11464460D01*
X-175533Y-11464460D02*
X-185056Y-11454936D01*
X62562Y-11273984D02*
X81610Y-11273984D01*
X81610Y-11273984D02*
X100658Y-11283508D01*
X100658Y-11283508D02*
X110182Y-11293031D01*
X110182Y-11293031D02*
X119705Y-11312079D01*
X119705Y-11312079D02*
X129229Y-11350174D01*
X129229Y-11350174D02*
X129229Y-11397793D01*
X129229Y-11397793D02*
X119705Y-11435888D01*
X119705Y-11435888D02*
X110182Y-11454936D01*
X110182Y-11454936D02*
X100658Y-11464460D01*
X100658Y-11464460D02*
X81610Y-11473984D01*
X81610Y-11473984D02*
X62562Y-11473984D01*
X62562Y-11473984D02*
X43515Y-11464460D01*
X43515Y-11464460D02*
X33991Y-11454936D01*
X33991Y-11454936D02*
X24467Y-11435888D01*
X24467Y-11435888D02*
X14943Y-11397793D01*
X14943Y-11397793D02*
X14943Y-11350174D01*
X14943Y-11350174D02*
X24467Y-11312079D01*
X24467Y-11312079D02*
X33991Y-11293031D01*
X33991Y-11293031D02*
X43515Y-11283508D01*
X43515Y-11283508D02*
X62562Y-11273984D01*
X253039Y-11273984D02*
X272086Y-11273984D01*
X272086Y-11273984D02*
X291134Y-11283508D01*
X291134Y-11283508D02*
X300658Y-11293031D01*
X300658Y-11293031D02*
X310182Y-11312079D01*
X310182Y-11312079D02*
X319705Y-11350174D01*
X319705Y-11350174D02*
X319705Y-11397793D01*
X319705Y-11397793D02*
X310182Y-11435888D01*
X310182Y-11435888D02*
X300658Y-11454936D01*
X300658Y-11454936D02*
X291134Y-11464460D01*
X291134Y-11464460D02*
X272086Y-11473984D01*
X272086Y-11473984D02*
X253039Y-11473984D01*
X253039Y-11473984D02*
X233991Y-11464460D01*
X233991Y-11464460D02*
X224467Y-11454936D01*
X224467Y-11454936D02*
X214943Y-11435888D01*
X214943Y-11435888D02*
X205420Y-11397793D01*
X205420Y-11397793D02*
X205420Y-11350174D01*
X205420Y-11350174D02*
X214943Y-11312079D01*
X214943Y-11312079D02*
X224467Y-11293031D01*
X224467Y-11293031D02*
X233991Y-11283508D01*
X233991Y-11283508D02*
X253039Y-11273984D01*
X405420Y-11473984D02*
X405420Y-11340650D01*
X405420Y-11359698D02*
X414943Y-11350174D01*
X414943Y-11350174D02*
X433991Y-11340650D01*
X433991Y-11340650D02*
X462563Y-11340650D01*
X462563Y-11340650D02*
X481610Y-11350174D01*
X481610Y-11350174D02*
X491134Y-11369222D01*
X491134Y-11369222D02*
X491134Y-11473984D01*
X491134Y-11369222D02*
X500658Y-11350174D01*
X500658Y-11350174D02*
X519705Y-11340650D01*
X519705Y-11340650D02*
X548277Y-11340650D01*
X548277Y-11340650D02*
X567325Y-11350174D01*
X567325Y-11350174D02*
X576848Y-11369222D01*
X576848Y-11369222D02*
X576848Y-11473984D01*
X672086Y-11473984D02*
X672086Y-11340650D01*
X672086Y-11359698D02*
X681610Y-11350174D01*
X681610Y-11350174D02*
X700658Y-11340650D01*
X700658Y-11340650D02*
X729229Y-11340650D01*
X729229Y-11340650D02*
X748277Y-11350174D01*
X748277Y-11350174D02*
X757801Y-11369222D01*
X757801Y-11369222D02*
X757801Y-11473984D01*
X757801Y-11369222D02*
X767324Y-11350174D01*
X767324Y-11350174D02*
X786372Y-11340650D01*
X786372Y-11340650D02*
X814943Y-11340650D01*
X814943Y-11340650D02*
X833991Y-11350174D01*
X833991Y-11350174D02*
X843515Y-11369222D01*
X843515Y-11369222D02*
X843515Y-11473984D01*
X1233991Y-11264460D02*
X1062563Y-11521603D01*
X1491134Y-11273984D02*
X1510182Y-11273984D01*
X1510182Y-11273984D02*
X1529229Y-11283508D01*
X1529229Y-11283508D02*
X1538753Y-11293031D01*
X1538753Y-11293031D02*
X1548277Y-11312079D01*
X1548277Y-11312079D02*
X1557801Y-11350174D01*
X1557801Y-11350174D02*
X1557801Y-11397793D01*
X1557801Y-11397793D02*
X1548277Y-11435888D01*
X1548277Y-11435888D02*
X1538753Y-11454936D01*
X1538753Y-11454936D02*
X1529229Y-11464460D01*
X1529229Y-11464460D02*
X1510182Y-11473984D01*
X1510182Y-11473984D02*
X1491134Y-11473984D01*
X1491134Y-11473984D02*
X1472086Y-11464460D01*
X1472086Y-11464460D02*
X1462563Y-11454936D01*
X1462563Y-11454936D02*
X1453039Y-11435888D01*
X1453039Y-11435888D02*
X1443515Y-11397793D01*
X1443515Y-11397793D02*
X1443515Y-11350174D01*
X1443515Y-11350174D02*
X1453039Y-11312079D01*
X1453039Y-11312079D02*
X1462563Y-11293031D01*
X1462563Y-11293031D02*
X1472086Y-11283508D01*
X1472086Y-11283508D02*
X1491134Y-11273984D01*
X1643515Y-11454936D02*
X1653039Y-11464460D01*
X1653039Y-11464460D02*
X1643515Y-11473984D01*
X1643515Y-11473984D02*
X1633991Y-11464460D01*
X1633991Y-11464460D02*
X1643515Y-11454936D01*
X1643515Y-11454936D02*
X1643515Y-11473984D01*
X1776848Y-11273984D02*
X1795896Y-11273984D01*
X1795896Y-11273984D02*
X1814944Y-11283508D01*
X1814944Y-11283508D02*
X1824467Y-11293031D01*
X1824467Y-11293031D02*
X1833991Y-11312079D01*
X1833991Y-11312079D02*
X1843515Y-11350174D01*
X1843515Y-11350174D02*
X1843515Y-11397793D01*
X1843515Y-11397793D02*
X1833991Y-11435888D01*
X1833991Y-11435888D02*
X1824467Y-11454936D01*
X1824467Y-11454936D02*
X1814944Y-11464460D01*
X1814944Y-11464460D02*
X1795896Y-11473984D01*
X1795896Y-11473984D02*
X1776848Y-11473984D01*
X1776848Y-11473984D02*
X1757801Y-11464460D01*
X1757801Y-11464460D02*
X1748277Y-11454936D01*
X1748277Y-11454936D02*
X1738753Y-11435888D01*
X1738753Y-11435888D02*
X1729229Y-11397793D01*
X1729229Y-11397793D02*
X1729229Y-11350174D01*
X1729229Y-11350174D02*
X1738753Y-11312079D01*
X1738753Y-11312079D02*
X1748277Y-11293031D01*
X1748277Y-11293031D02*
X1757801Y-11283508D01*
X1757801Y-11283508D02*
X1776848Y-11273984D01*
X2033991Y-11473984D02*
X1919706Y-11473984D01*
X1976848Y-11473984D02*
X1976848Y-11273984D01*
X1976848Y-11273984D02*
X1957801Y-11302555D01*
X1957801Y-11302555D02*
X1938753Y-11321603D01*
X1938753Y-11321603D02*
X1919706Y-11331127D01*
X2224468Y-11473984D02*
X2110182Y-11473984D01*
X2167325Y-11473984D02*
X2167325Y-11273984D01*
X2167325Y-11273984D02*
X2148277Y-11302555D01*
X2148277Y-11302555D02*
X2129229Y-11321603D01*
X2129229Y-11321603D02*
X2110182Y-11331127D01*
X2338753Y-11359698D02*
X2319706Y-11350174D01*
X2319706Y-11350174D02*
X2310182Y-11340650D01*
X2310182Y-11340650D02*
X2300658Y-11321603D01*
X2300658Y-11321603D02*
X2300658Y-11312079D01*
X2300658Y-11312079D02*
X2310182Y-11293031D01*
X2310182Y-11293031D02*
X2319706Y-11283508D01*
X2319706Y-11283508D02*
X2338753Y-11273984D01*
X2338753Y-11273984D02*
X2376849Y-11273984D01*
X2376849Y-11273984D02*
X2395896Y-11283508D01*
X2395896Y-11283508D02*
X2405420Y-11293031D01*
X2405420Y-11293031D02*
X2414944Y-11312079D01*
X2414944Y-11312079D02*
X2414944Y-11321603D01*
X2414944Y-11321603D02*
X2405420Y-11340650D01*
X2405420Y-11340650D02*
X2395896Y-11350174D01*
X2395896Y-11350174D02*
X2376849Y-11359698D01*
X2376849Y-11359698D02*
X2338753Y-11359698D01*
X2338753Y-11359698D02*
X2319706Y-11369222D01*
X2319706Y-11369222D02*
X2310182Y-11378746D01*
X2310182Y-11378746D02*
X2300658Y-11397793D01*
X2300658Y-11397793D02*
X2300658Y-11435888D01*
X2300658Y-11435888D02*
X2310182Y-11454936D01*
X2310182Y-11454936D02*
X2319706Y-11464460D01*
X2319706Y-11464460D02*
X2338753Y-11473984D01*
X2338753Y-11473984D02*
X2376849Y-11473984D01*
X2376849Y-11473984D02*
X2395896Y-11464460D01*
X2395896Y-11464460D02*
X2405420Y-11454936D01*
X2405420Y-11454936D02*
X2414944Y-11435888D01*
X2414944Y-11435888D02*
X2414944Y-11397793D01*
X2414944Y-11397793D02*
X2405420Y-11378746D01*
X2405420Y-11378746D02*
X2395896Y-11369222D01*
X2395896Y-11369222D02*
X2376849Y-11359698D01*
X2491134Y-11273984D02*
X2491134Y-11312079D01*
X2567325Y-11273984D02*
X2567325Y-11312079D01*
X2862563Y-11550174D02*
X2853039Y-11540650D01*
X2853039Y-11540650D02*
X2833991Y-11512079D01*
X2833991Y-11512079D02*
X2824468Y-11493031D01*
X2824468Y-11493031D02*
X2814944Y-11464460D01*
X2814944Y-11464460D02*
X2805420Y-11416841D01*
X2805420Y-11416841D02*
X2805420Y-11378746D01*
X2805420Y-11378746D02*
X2814944Y-11331127D01*
X2814944Y-11331127D02*
X2824468Y-11302555D01*
X2824468Y-11302555D02*
X2833991Y-11283508D01*
X2833991Y-11283508D02*
X2853039Y-11254936D01*
X2853039Y-11254936D02*
X2862563Y-11245412D01*
X3043515Y-11473984D02*
X2929229Y-11473984D01*
X2986372Y-11473984D02*
X2986372Y-11273984D01*
X2986372Y-11273984D02*
X2967325Y-11302555D01*
X2967325Y-11302555D02*
X2948277Y-11321603D01*
X2948277Y-11321603D02*
X2929229Y-11331127D01*
X3214944Y-11273984D02*
X3176848Y-11273984D01*
X3176848Y-11273984D02*
X3157801Y-11283508D01*
X3157801Y-11283508D02*
X3148277Y-11293031D01*
X3148277Y-11293031D02*
X3129229Y-11321603D01*
X3129229Y-11321603D02*
X3119706Y-11359698D01*
X3119706Y-11359698D02*
X3119706Y-11435888D01*
X3119706Y-11435888D02*
X3129229Y-11454936D01*
X3129229Y-11454936D02*
X3138753Y-11464460D01*
X3138753Y-11464460D02*
X3157801Y-11473984D01*
X3157801Y-11473984D02*
X3195896Y-11473984D01*
X3195896Y-11473984D02*
X3214944Y-11464460D01*
X3214944Y-11464460D02*
X3224468Y-11454936D01*
X3224468Y-11454936D02*
X3233991Y-11435888D01*
X3233991Y-11435888D02*
X3233991Y-11388269D01*
X3233991Y-11388269D02*
X3224468Y-11369222D01*
X3224468Y-11369222D02*
X3214944Y-11359698D01*
X3214944Y-11359698D02*
X3195896Y-11350174D01*
X3195896Y-11350174D02*
X3157801Y-11350174D01*
X3157801Y-11350174D02*
X3138753Y-11359698D01*
X3138753Y-11359698D02*
X3129229Y-11369222D01*
X3129229Y-11369222D02*
X3119706Y-11388269D01*
X3472087Y-11473984D02*
X3472087Y-11273984D01*
X3557801Y-11473984D02*
X3557801Y-11369222D01*
X3557801Y-11369222D02*
X3548277Y-11350174D01*
X3548277Y-11350174D02*
X3529230Y-11340650D01*
X3529230Y-11340650D02*
X3500658Y-11340650D01*
X3500658Y-11340650D02*
X3481610Y-11350174D01*
X3481610Y-11350174D02*
X3472087Y-11359698D01*
X3681610Y-11473984D02*
X3662563Y-11464460D01*
X3662563Y-11464460D02*
X3653039Y-11454936D01*
X3653039Y-11454936D02*
X3643515Y-11435888D01*
X3643515Y-11435888D02*
X3643515Y-11378746D01*
X3643515Y-11378746D02*
X3653039Y-11359698D01*
X3653039Y-11359698D02*
X3662563Y-11350174D01*
X3662563Y-11350174D02*
X3681610Y-11340650D01*
X3681610Y-11340650D02*
X3710182Y-11340650D01*
X3710182Y-11340650D02*
X3729230Y-11350174D01*
X3729230Y-11350174D02*
X3738753Y-11359698D01*
X3738753Y-11359698D02*
X3748277Y-11378746D01*
X3748277Y-11378746D02*
X3748277Y-11435888D01*
X3748277Y-11435888D02*
X3738753Y-11454936D01*
X3738753Y-11454936D02*
X3729230Y-11464460D01*
X3729230Y-11464460D02*
X3710182Y-11473984D01*
X3710182Y-11473984D02*
X3681610Y-11473984D01*
X3862563Y-11473984D02*
X3843515Y-11464460D01*
X3843515Y-11464460D02*
X3833991Y-11445412D01*
X3833991Y-11445412D02*
X3833991Y-11273984D01*
X4014944Y-11464460D02*
X3995896Y-11473984D01*
X3995896Y-11473984D02*
X3957801Y-11473984D01*
X3957801Y-11473984D02*
X3938753Y-11464460D01*
X3938753Y-11464460D02*
X3929230Y-11445412D01*
X3929230Y-11445412D02*
X3929230Y-11369222D01*
X3929230Y-11369222D02*
X3938753Y-11350174D01*
X3938753Y-11350174D02*
X3957801Y-11340650D01*
X3957801Y-11340650D02*
X3995896Y-11340650D01*
X3995896Y-11340650D02*
X4014944Y-11350174D01*
X4014944Y-11350174D02*
X4024468Y-11369222D01*
X4024468Y-11369222D02*
X4024468Y-11388269D01*
X4024468Y-11388269D02*
X3929230Y-11407317D01*
X4100658Y-11464460D02*
X4119706Y-11473984D01*
X4119706Y-11473984D02*
X4157801Y-11473984D01*
X4157801Y-11473984D02*
X4176849Y-11464460D01*
X4176849Y-11464460D02*
X4186372Y-11445412D01*
X4186372Y-11445412D02*
X4186372Y-11435888D01*
X4186372Y-11435888D02*
X4176849Y-11416841D01*
X4176849Y-11416841D02*
X4157801Y-11407317D01*
X4157801Y-11407317D02*
X4129230Y-11407317D01*
X4129230Y-11407317D02*
X4110182Y-11397793D01*
X4110182Y-11397793D02*
X4100658Y-11378746D01*
X4100658Y-11378746D02*
X4100658Y-11369222D01*
X4100658Y-11369222D02*
X4110182Y-11350174D01*
X4110182Y-11350174D02*
X4129230Y-11340650D01*
X4129230Y-11340650D02*
X4157801Y-11340650D01*
X4157801Y-11340650D02*
X4176849Y-11350174D01*
X4253039Y-11550174D02*
X4262563Y-11540650D01*
X4262563Y-11540650D02*
X4281611Y-11512079D01*
X4281611Y-11512079D02*
X4291134Y-11493031D01*
X4291134Y-11493031D02*
X4300658Y-11464460D01*
X4300658Y-11464460D02*
X4310182Y-11416841D01*
X4310182Y-11416841D02*
X4310182Y-11378746D01*
X4310182Y-11378746D02*
X4300658Y-11331127D01*
X4300658Y-11331127D02*
X4291134Y-11302555D01*
X4291134Y-11302555D02*
X4281611Y-11283508D01*
X4281611Y-11283508D02*
X4262563Y-11254936D01*
X4262563Y-11254936D02*
X4253039Y-11245412D01*
D12*
X-712500Y-11646500D02*
G75*
G02*
X-752500Y-11646500I-20000J0D01*
G01*
X-752500Y-11646500D02*
G75*
G02*
X-712500Y-11646500I20000J0D01*
G01*
D11*
X-413628Y-11537984D02*
X-394580Y-11537984D01*
X-394580Y-11537984D02*
X-375533Y-11547508D01*
X-375533Y-11547508D02*
X-366009Y-11557031D01*
X-366009Y-11557031D02*
X-356485Y-11576079D01*
X-356485Y-11576079D02*
X-346961Y-11614174D01*
X-346961Y-11614174D02*
X-346961Y-11661793D01*
X-346961Y-11661793D02*
X-356485Y-11699888D01*
X-356485Y-11699888D02*
X-366009Y-11718936D01*
X-366009Y-11718936D02*
X-375533Y-11728460D01*
X-375533Y-11728460D02*
X-394580Y-11737984D01*
X-394580Y-11737984D02*
X-413628Y-11737984D01*
X-413628Y-11737984D02*
X-432675Y-11728460D01*
X-432675Y-11728460D02*
X-442199Y-11718936D01*
X-442199Y-11718936D02*
X-451723Y-11699888D01*
X-451723Y-11699888D02*
X-461247Y-11661793D01*
X-461247Y-11661793D02*
X-461247Y-11614174D01*
X-461247Y-11614174D02*
X-451723Y-11576079D01*
X-451723Y-11576079D02*
X-442199Y-11557031D01*
X-442199Y-11557031D02*
X-432675Y-11547508D01*
X-432675Y-11547508D02*
X-413628Y-11537984D01*
X-261247Y-11718936D02*
X-251723Y-11728460D01*
X-251723Y-11728460D02*
X-261247Y-11737984D01*
X-261247Y-11737984D02*
X-270771Y-11728460D01*
X-270771Y-11728460D02*
X-261247Y-11718936D01*
X-261247Y-11718936D02*
X-261247Y-11737984D01*
X-80295Y-11604650D02*
X-80295Y-11737984D01*
X-127914Y-11528460D02*
X-175533Y-11671317D01*
X-175533Y-11671317D02*
X-51723Y-11671317D01*
X62562Y-11537984D02*
X81610Y-11537984D01*
X81610Y-11537984D02*
X100658Y-11547508D01*
X100658Y-11547508D02*
X110182Y-11557031D01*
X110182Y-11557031D02*
X119705Y-11576079D01*
X119705Y-11576079D02*
X129229Y-11614174D01*
X129229Y-11614174D02*
X129229Y-11661793D01*
X129229Y-11661793D02*
X119705Y-11699888D01*
X119705Y-11699888D02*
X110182Y-11718936D01*
X110182Y-11718936D02*
X100658Y-11728460D01*
X100658Y-11728460D02*
X81610Y-11737984D01*
X81610Y-11737984D02*
X62562Y-11737984D01*
X62562Y-11737984D02*
X43515Y-11728460D01*
X43515Y-11728460D02*
X33991Y-11718936D01*
X33991Y-11718936D02*
X24467Y-11699888D01*
X24467Y-11699888D02*
X14943Y-11661793D01*
X14943Y-11661793D02*
X14943Y-11614174D01*
X14943Y-11614174D02*
X24467Y-11576079D01*
X24467Y-11576079D02*
X33991Y-11557031D01*
X33991Y-11557031D02*
X43515Y-11547508D01*
X43515Y-11547508D02*
X62562Y-11537984D01*
X253039Y-11537984D02*
X272086Y-11537984D01*
X272086Y-11537984D02*
X291134Y-11547508D01*
X291134Y-11547508D02*
X300658Y-11557031D01*
X300658Y-11557031D02*
X310182Y-11576079D01*
X310182Y-11576079D02*
X319705Y-11614174D01*
X319705Y-11614174D02*
X319705Y-11661793D01*
X319705Y-11661793D02*
X310182Y-11699888D01*
X310182Y-11699888D02*
X300658Y-11718936D01*
X300658Y-11718936D02*
X291134Y-11728460D01*
X291134Y-11728460D02*
X272086Y-11737984D01*
X272086Y-11737984D02*
X253039Y-11737984D01*
X253039Y-11737984D02*
X233991Y-11728460D01*
X233991Y-11728460D02*
X224467Y-11718936D01*
X224467Y-11718936D02*
X214943Y-11699888D01*
X214943Y-11699888D02*
X205420Y-11661793D01*
X205420Y-11661793D02*
X205420Y-11614174D01*
X205420Y-11614174D02*
X214943Y-11576079D01*
X214943Y-11576079D02*
X224467Y-11557031D01*
X224467Y-11557031D02*
X233991Y-11547508D01*
X233991Y-11547508D02*
X253039Y-11537984D01*
X405420Y-11737984D02*
X405420Y-11604650D01*
X405420Y-11623698D02*
X414943Y-11614174D01*
X414943Y-11614174D02*
X433991Y-11604650D01*
X433991Y-11604650D02*
X462563Y-11604650D01*
X462563Y-11604650D02*
X481610Y-11614174D01*
X481610Y-11614174D02*
X491134Y-11633222D01*
X491134Y-11633222D02*
X491134Y-11737984D01*
X491134Y-11633222D02*
X500658Y-11614174D01*
X500658Y-11614174D02*
X519705Y-11604650D01*
X519705Y-11604650D02*
X548277Y-11604650D01*
X548277Y-11604650D02*
X567325Y-11614174D01*
X567325Y-11614174D02*
X576848Y-11633222D01*
X576848Y-11633222D02*
X576848Y-11737984D01*
X672086Y-11737984D02*
X672086Y-11604650D01*
X672086Y-11623698D02*
X681610Y-11614174D01*
X681610Y-11614174D02*
X700658Y-11604650D01*
X700658Y-11604650D02*
X729229Y-11604650D01*
X729229Y-11604650D02*
X748277Y-11614174D01*
X748277Y-11614174D02*
X757801Y-11633222D01*
X757801Y-11633222D02*
X757801Y-11737984D01*
X757801Y-11633222D02*
X767324Y-11614174D01*
X767324Y-11614174D02*
X786372Y-11604650D01*
X786372Y-11604650D02*
X814943Y-11604650D01*
X814943Y-11604650D02*
X833991Y-11614174D01*
X833991Y-11614174D02*
X843515Y-11633222D01*
X843515Y-11633222D02*
X843515Y-11737984D01*
X1233991Y-11528460D02*
X1062563Y-11785603D01*
X1491134Y-11537984D02*
X1510182Y-11537984D01*
X1510182Y-11537984D02*
X1529229Y-11547508D01*
X1529229Y-11547508D02*
X1538753Y-11557031D01*
X1538753Y-11557031D02*
X1548277Y-11576079D01*
X1548277Y-11576079D02*
X1557801Y-11614174D01*
X1557801Y-11614174D02*
X1557801Y-11661793D01*
X1557801Y-11661793D02*
X1548277Y-11699888D01*
X1548277Y-11699888D02*
X1538753Y-11718936D01*
X1538753Y-11718936D02*
X1529229Y-11728460D01*
X1529229Y-11728460D02*
X1510182Y-11737984D01*
X1510182Y-11737984D02*
X1491134Y-11737984D01*
X1491134Y-11737984D02*
X1472086Y-11728460D01*
X1472086Y-11728460D02*
X1462563Y-11718936D01*
X1462563Y-11718936D02*
X1453039Y-11699888D01*
X1453039Y-11699888D02*
X1443515Y-11661793D01*
X1443515Y-11661793D02*
X1443515Y-11614174D01*
X1443515Y-11614174D02*
X1453039Y-11576079D01*
X1453039Y-11576079D02*
X1462563Y-11557031D01*
X1462563Y-11557031D02*
X1472086Y-11547508D01*
X1472086Y-11547508D02*
X1491134Y-11537984D01*
X1643515Y-11718936D02*
X1653039Y-11728460D01*
X1653039Y-11728460D02*
X1643515Y-11737984D01*
X1643515Y-11737984D02*
X1633991Y-11728460D01*
X1633991Y-11728460D02*
X1643515Y-11718936D01*
X1643515Y-11718936D02*
X1643515Y-11737984D01*
X1776848Y-11537984D02*
X1795896Y-11537984D01*
X1795896Y-11537984D02*
X1814944Y-11547508D01*
X1814944Y-11547508D02*
X1824467Y-11557031D01*
X1824467Y-11557031D02*
X1833991Y-11576079D01*
X1833991Y-11576079D02*
X1843515Y-11614174D01*
X1843515Y-11614174D02*
X1843515Y-11661793D01*
X1843515Y-11661793D02*
X1833991Y-11699888D01*
X1833991Y-11699888D02*
X1824467Y-11718936D01*
X1824467Y-11718936D02*
X1814944Y-11728460D01*
X1814944Y-11728460D02*
X1795896Y-11737984D01*
X1795896Y-11737984D02*
X1776848Y-11737984D01*
X1776848Y-11737984D02*
X1757801Y-11728460D01*
X1757801Y-11728460D02*
X1748277Y-11718936D01*
X1748277Y-11718936D02*
X1738753Y-11699888D01*
X1738753Y-11699888D02*
X1729229Y-11661793D01*
X1729229Y-11661793D02*
X1729229Y-11614174D01*
X1729229Y-11614174D02*
X1738753Y-11576079D01*
X1738753Y-11576079D02*
X1748277Y-11557031D01*
X1748277Y-11557031D02*
X1757801Y-11547508D01*
X1757801Y-11547508D02*
X1776848Y-11537984D01*
X2033991Y-11737984D02*
X1919706Y-11737984D01*
X1976848Y-11737984D02*
X1976848Y-11537984D01*
X1976848Y-11537984D02*
X1957801Y-11566555D01*
X1957801Y-11566555D02*
X1938753Y-11585603D01*
X1938753Y-11585603D02*
X1919706Y-11595127D01*
X2214944Y-11537984D02*
X2119706Y-11537984D01*
X2119706Y-11537984D02*
X2110182Y-11633222D01*
X2110182Y-11633222D02*
X2119706Y-11623698D01*
X2119706Y-11623698D02*
X2138753Y-11614174D01*
X2138753Y-11614174D02*
X2186372Y-11614174D01*
X2186372Y-11614174D02*
X2205420Y-11623698D01*
X2205420Y-11623698D02*
X2214944Y-11633222D01*
X2214944Y-11633222D02*
X2224468Y-11652269D01*
X2224468Y-11652269D02*
X2224468Y-11699888D01*
X2224468Y-11699888D02*
X2214944Y-11718936D01*
X2214944Y-11718936D02*
X2205420Y-11728460D01*
X2205420Y-11728460D02*
X2186372Y-11737984D01*
X2186372Y-11737984D02*
X2138753Y-11737984D01*
X2138753Y-11737984D02*
X2119706Y-11728460D01*
X2119706Y-11728460D02*
X2110182Y-11718936D01*
X2291134Y-11537984D02*
X2424468Y-11537984D01*
X2424468Y-11537984D02*
X2338753Y-11737984D01*
X2491134Y-11537984D02*
X2491134Y-11576079D01*
X2567325Y-11537984D02*
X2567325Y-11576079D01*
X2862563Y-11814174D02*
X2853039Y-11804650D01*
X2853039Y-11804650D02*
X2833991Y-11776079D01*
X2833991Y-11776079D02*
X2824468Y-11757031D01*
X2824468Y-11757031D02*
X2814944Y-11728460D01*
X2814944Y-11728460D02*
X2805420Y-11680841D01*
X2805420Y-11680841D02*
X2805420Y-11642746D01*
X2805420Y-11642746D02*
X2814944Y-11595127D01*
X2814944Y-11595127D02*
X2824468Y-11566555D01*
X2824468Y-11566555D02*
X2833991Y-11547508D01*
X2833991Y-11547508D02*
X2853039Y-11518936D01*
X2853039Y-11518936D02*
X2862563Y-11509412D01*
X2929229Y-11557031D02*
X2938753Y-11547508D01*
X2938753Y-11547508D02*
X2957801Y-11537984D01*
X2957801Y-11537984D02*
X3005420Y-11537984D01*
X3005420Y-11537984D02*
X3024468Y-11547508D01*
X3024468Y-11547508D02*
X3033991Y-11557031D01*
X3033991Y-11557031D02*
X3043515Y-11576079D01*
X3043515Y-11576079D02*
X3043515Y-11595127D01*
X3043515Y-11595127D02*
X3033991Y-11623698D01*
X3033991Y-11623698D02*
X2919706Y-11737984D01*
X2919706Y-11737984D02*
X3043515Y-11737984D01*
X3214944Y-11604650D02*
X3214944Y-11737984D01*
X3167325Y-11528460D02*
X3119706Y-11671317D01*
X3119706Y-11671317D02*
X3243515Y-11671317D01*
X3472087Y-11737984D02*
X3472087Y-11537984D01*
X3557801Y-11737984D02*
X3557801Y-11633222D01*
X3557801Y-11633222D02*
X3548277Y-11614174D01*
X3548277Y-11614174D02*
X3529230Y-11604650D01*
X3529230Y-11604650D02*
X3500658Y-11604650D01*
X3500658Y-11604650D02*
X3481610Y-11614174D01*
X3481610Y-11614174D02*
X3472087Y-11623698D01*
X3681610Y-11737984D02*
X3662563Y-11728460D01*
X3662563Y-11728460D02*
X3653039Y-11718936D01*
X3653039Y-11718936D02*
X3643515Y-11699888D01*
X3643515Y-11699888D02*
X3643515Y-11642746D01*
X3643515Y-11642746D02*
X3653039Y-11623698D01*
X3653039Y-11623698D02*
X3662563Y-11614174D01*
X3662563Y-11614174D02*
X3681610Y-11604650D01*
X3681610Y-11604650D02*
X3710182Y-11604650D01*
X3710182Y-11604650D02*
X3729230Y-11614174D01*
X3729230Y-11614174D02*
X3738753Y-11623698D01*
X3738753Y-11623698D02*
X3748277Y-11642746D01*
X3748277Y-11642746D02*
X3748277Y-11699888D01*
X3748277Y-11699888D02*
X3738753Y-11718936D01*
X3738753Y-11718936D02*
X3729230Y-11728460D01*
X3729230Y-11728460D02*
X3710182Y-11737984D01*
X3710182Y-11737984D02*
X3681610Y-11737984D01*
X3862563Y-11737984D02*
X3843515Y-11728460D01*
X3843515Y-11728460D02*
X3833991Y-11709412D01*
X3833991Y-11709412D02*
X3833991Y-11537984D01*
X4014944Y-11728460D02*
X3995896Y-11737984D01*
X3995896Y-11737984D02*
X3957801Y-11737984D01*
X3957801Y-11737984D02*
X3938753Y-11728460D01*
X3938753Y-11728460D02*
X3929230Y-11709412D01*
X3929230Y-11709412D02*
X3929230Y-11633222D01*
X3929230Y-11633222D02*
X3938753Y-11614174D01*
X3938753Y-11614174D02*
X3957801Y-11604650D01*
X3957801Y-11604650D02*
X3995896Y-11604650D01*
X3995896Y-11604650D02*
X4014944Y-11614174D01*
X4014944Y-11614174D02*
X4024468Y-11633222D01*
X4024468Y-11633222D02*
X4024468Y-11652269D01*
X4024468Y-11652269D02*
X3929230Y-11671317D01*
X4100658Y-11728460D02*
X4119706Y-11737984D01*
X4119706Y-11737984D02*
X4157801Y-11737984D01*
X4157801Y-11737984D02*
X4176849Y-11728460D01*
X4176849Y-11728460D02*
X4186372Y-11709412D01*
X4186372Y-11709412D02*
X4186372Y-11699888D01*
X4186372Y-11699888D02*
X4176849Y-11680841D01*
X4176849Y-11680841D02*
X4157801Y-11671317D01*
X4157801Y-11671317D02*
X4129230Y-11671317D01*
X4129230Y-11671317D02*
X4110182Y-11661793D01*
X4110182Y-11661793D02*
X4100658Y-11642746D01*
X4100658Y-11642746D02*
X4100658Y-11633222D01*
X4100658Y-11633222D02*
X4110182Y-11614174D01*
X4110182Y-11614174D02*
X4129230Y-11604650D01*
X4129230Y-11604650D02*
X4157801Y-11604650D01*
X4157801Y-11604650D02*
X4176849Y-11614174D01*
X4253039Y-11814174D02*
X4262563Y-11804650D01*
X4262563Y-11804650D02*
X4281611Y-11776079D01*
X4281611Y-11776079D02*
X4291134Y-11757031D01*
X4291134Y-11757031D02*
X4300658Y-11728460D01*
X4300658Y-11728460D02*
X4310182Y-11680841D01*
X4310182Y-11680841D02*
X4310182Y-11642746D01*
X4310182Y-11642746D02*
X4300658Y-11595127D01*
X4300658Y-11595127D02*
X4291134Y-11566555D01*
X4291134Y-11566555D02*
X4281611Y-11547508D01*
X4281611Y-11547508D02*
X4262563Y-11518936D01*
X4262563Y-11518936D02*
X4253039Y-11509412D01*
D12*
X-754500Y-11868500D02*
X-754500Y-11952500D01*
X-796500Y-11910500D02*
X-712500Y-11910500D01*
D11*
X-413628Y-11801984D02*
X-394580Y-11801984D01*
X-394580Y-11801984D02*
X-375533Y-11811508D01*
X-375533Y-11811508D02*
X-366009Y-11821031D01*
X-366009Y-11821031D02*
X-356485Y-11840079D01*
X-356485Y-11840079D02*
X-346961Y-11878174D01*
X-346961Y-11878174D02*
X-346961Y-11925793D01*
X-346961Y-11925793D02*
X-356485Y-11963888D01*
X-356485Y-11963888D02*
X-366009Y-11982936D01*
X-366009Y-11982936D02*
X-375533Y-11992460D01*
X-375533Y-11992460D02*
X-394580Y-12001984D01*
X-394580Y-12001984D02*
X-413628Y-12001984D01*
X-413628Y-12001984D02*
X-432675Y-11992460D01*
X-432675Y-11992460D02*
X-442199Y-11982936D01*
X-442199Y-11982936D02*
X-451723Y-11963888D01*
X-451723Y-11963888D02*
X-461247Y-11925793D01*
X-461247Y-11925793D02*
X-461247Y-11878174D01*
X-461247Y-11878174D02*
X-451723Y-11840079D01*
X-451723Y-11840079D02*
X-442199Y-11821031D01*
X-442199Y-11821031D02*
X-432675Y-11811508D01*
X-432675Y-11811508D02*
X-413628Y-11801984D01*
X-261247Y-11982936D02*
X-251723Y-11992460D01*
X-251723Y-11992460D02*
X-261247Y-12001984D01*
X-261247Y-12001984D02*
X-270771Y-11992460D01*
X-270771Y-11992460D02*
X-261247Y-11982936D01*
X-261247Y-11982936D02*
X-261247Y-12001984D01*
X-137437Y-11887698D02*
X-156485Y-11878174D01*
X-156485Y-11878174D02*
X-166009Y-11868650D01*
X-166009Y-11868650D02*
X-175533Y-11849603D01*
X-175533Y-11849603D02*
X-175533Y-11840079D01*
X-175533Y-11840079D02*
X-166009Y-11821031D01*
X-166009Y-11821031D02*
X-156485Y-11811508D01*
X-156485Y-11811508D02*
X-137437Y-11801984D01*
X-137437Y-11801984D02*
X-99342Y-11801984D01*
X-99342Y-11801984D02*
X-80295Y-11811508D01*
X-80295Y-11811508D02*
X-70771Y-11821031D01*
X-70771Y-11821031D02*
X-61247Y-11840079D01*
X-61247Y-11840079D02*
X-61247Y-11849603D01*
X-61247Y-11849603D02*
X-70771Y-11868650D01*
X-70771Y-11868650D02*
X-80295Y-11878174D01*
X-80295Y-11878174D02*
X-99342Y-11887698D01*
X-99342Y-11887698D02*
X-137437Y-11887698D01*
X-137437Y-11887698D02*
X-156485Y-11897222D01*
X-156485Y-11897222D02*
X-166009Y-11906746D01*
X-166009Y-11906746D02*
X-175533Y-11925793D01*
X-175533Y-11925793D02*
X-175533Y-11963888D01*
X-175533Y-11963888D02*
X-166009Y-11982936D01*
X-166009Y-11982936D02*
X-156485Y-11992460D01*
X-156485Y-11992460D02*
X-137437Y-12001984D01*
X-137437Y-12001984D02*
X-99342Y-12001984D01*
X-99342Y-12001984D02*
X-80295Y-11992460D01*
X-80295Y-11992460D02*
X-70771Y-11982936D01*
X-70771Y-11982936D02*
X-61247Y-11963888D01*
X-61247Y-11963888D02*
X-61247Y-11925793D01*
X-61247Y-11925793D02*
X-70771Y-11906746D01*
X-70771Y-11906746D02*
X-80295Y-11897222D01*
X-80295Y-11897222D02*
X-99342Y-11887698D01*
X110182Y-11868650D02*
X110182Y-12001984D01*
X62562Y-11792460D02*
X14943Y-11935317D01*
X14943Y-11935317D02*
X138753Y-11935317D01*
X253039Y-11801984D02*
X272086Y-11801984D01*
X272086Y-11801984D02*
X291134Y-11811508D01*
X291134Y-11811508D02*
X300658Y-11821031D01*
X300658Y-11821031D02*
X310182Y-11840079D01*
X310182Y-11840079D02*
X319705Y-11878174D01*
X319705Y-11878174D02*
X319705Y-11925793D01*
X319705Y-11925793D02*
X310182Y-11963888D01*
X310182Y-11963888D02*
X300658Y-11982936D01*
X300658Y-11982936D02*
X291134Y-11992460D01*
X291134Y-11992460D02*
X272086Y-12001984D01*
X272086Y-12001984D02*
X253039Y-12001984D01*
X253039Y-12001984D02*
X233991Y-11992460D01*
X233991Y-11992460D02*
X224467Y-11982936D01*
X224467Y-11982936D02*
X214943Y-11963888D01*
X214943Y-11963888D02*
X205420Y-11925793D01*
X205420Y-11925793D02*
X205420Y-11878174D01*
X205420Y-11878174D02*
X214943Y-11840079D01*
X214943Y-11840079D02*
X224467Y-11821031D01*
X224467Y-11821031D02*
X233991Y-11811508D01*
X233991Y-11811508D02*
X253039Y-11801984D01*
X405420Y-12001984D02*
X405420Y-11868650D01*
X405420Y-11887698D02*
X414943Y-11878174D01*
X414943Y-11878174D02*
X433991Y-11868650D01*
X433991Y-11868650D02*
X462563Y-11868650D01*
X462563Y-11868650D02*
X481610Y-11878174D01*
X481610Y-11878174D02*
X491134Y-11897222D01*
X491134Y-11897222D02*
X491134Y-12001984D01*
X491134Y-11897222D02*
X500658Y-11878174D01*
X500658Y-11878174D02*
X519705Y-11868650D01*
X519705Y-11868650D02*
X548277Y-11868650D01*
X548277Y-11868650D02*
X567325Y-11878174D01*
X567325Y-11878174D02*
X576848Y-11897222D01*
X576848Y-11897222D02*
X576848Y-12001984D01*
X672086Y-12001984D02*
X672086Y-11868650D01*
X672086Y-11887698D02*
X681610Y-11878174D01*
X681610Y-11878174D02*
X700658Y-11868650D01*
X700658Y-11868650D02*
X729229Y-11868650D01*
X729229Y-11868650D02*
X748277Y-11878174D01*
X748277Y-11878174D02*
X757801Y-11897222D01*
X757801Y-11897222D02*
X757801Y-12001984D01*
X757801Y-11897222D02*
X767324Y-11878174D01*
X767324Y-11878174D02*
X786372Y-11868650D01*
X786372Y-11868650D02*
X814943Y-11868650D01*
X814943Y-11868650D02*
X833991Y-11878174D01*
X833991Y-11878174D02*
X843515Y-11897222D01*
X843515Y-11897222D02*
X843515Y-12001984D01*
X1233991Y-11792460D02*
X1062563Y-12049603D01*
X1491134Y-11801984D02*
X1510182Y-11801984D01*
X1510182Y-11801984D02*
X1529229Y-11811508D01*
X1529229Y-11811508D02*
X1538753Y-11821031D01*
X1538753Y-11821031D02*
X1548277Y-11840079D01*
X1548277Y-11840079D02*
X1557801Y-11878174D01*
X1557801Y-11878174D02*
X1557801Y-11925793D01*
X1557801Y-11925793D02*
X1548277Y-11963888D01*
X1548277Y-11963888D02*
X1538753Y-11982936D01*
X1538753Y-11982936D02*
X1529229Y-11992460D01*
X1529229Y-11992460D02*
X1510182Y-12001984D01*
X1510182Y-12001984D02*
X1491134Y-12001984D01*
X1491134Y-12001984D02*
X1472086Y-11992460D01*
X1472086Y-11992460D02*
X1462563Y-11982936D01*
X1462563Y-11982936D02*
X1453039Y-11963888D01*
X1453039Y-11963888D02*
X1443515Y-11925793D01*
X1443515Y-11925793D02*
X1443515Y-11878174D01*
X1443515Y-11878174D02*
X1453039Y-11840079D01*
X1453039Y-11840079D02*
X1462563Y-11821031D01*
X1462563Y-11821031D02*
X1472086Y-11811508D01*
X1472086Y-11811508D02*
X1491134Y-11801984D01*
X1643515Y-11982936D02*
X1653039Y-11992460D01*
X1653039Y-11992460D02*
X1643515Y-12001984D01*
X1643515Y-12001984D02*
X1633991Y-11992460D01*
X1633991Y-11992460D02*
X1643515Y-11982936D01*
X1643515Y-11982936D02*
X1643515Y-12001984D01*
X1776848Y-11801984D02*
X1795896Y-11801984D01*
X1795896Y-11801984D02*
X1814944Y-11811508D01*
X1814944Y-11811508D02*
X1824467Y-11821031D01*
X1824467Y-11821031D02*
X1833991Y-11840079D01*
X1833991Y-11840079D02*
X1843515Y-11878174D01*
X1843515Y-11878174D02*
X1843515Y-11925793D01*
X1843515Y-11925793D02*
X1833991Y-11963888D01*
X1833991Y-11963888D02*
X1824467Y-11982936D01*
X1824467Y-11982936D02*
X1814944Y-11992460D01*
X1814944Y-11992460D02*
X1795896Y-12001984D01*
X1795896Y-12001984D02*
X1776848Y-12001984D01*
X1776848Y-12001984D02*
X1757801Y-11992460D01*
X1757801Y-11992460D02*
X1748277Y-11982936D01*
X1748277Y-11982936D02*
X1738753Y-11963888D01*
X1738753Y-11963888D02*
X1729229Y-11925793D01*
X1729229Y-11925793D02*
X1729229Y-11878174D01*
X1729229Y-11878174D02*
X1738753Y-11840079D01*
X1738753Y-11840079D02*
X1748277Y-11821031D01*
X1748277Y-11821031D02*
X1757801Y-11811508D01*
X1757801Y-11811508D02*
X1776848Y-11801984D01*
X1910182Y-11801984D02*
X2033991Y-11801984D01*
X2033991Y-11801984D02*
X1967325Y-11878174D01*
X1967325Y-11878174D02*
X1995896Y-11878174D01*
X1995896Y-11878174D02*
X2014944Y-11887698D01*
X2014944Y-11887698D02*
X2024467Y-11897222D01*
X2024467Y-11897222D02*
X2033991Y-11916269D01*
X2033991Y-11916269D02*
X2033991Y-11963888D01*
X2033991Y-11963888D02*
X2024467Y-11982936D01*
X2024467Y-11982936D02*
X2014944Y-11992460D01*
X2014944Y-11992460D02*
X1995896Y-12001984D01*
X1995896Y-12001984D02*
X1938753Y-12001984D01*
X1938753Y-12001984D02*
X1919706Y-11992460D01*
X1919706Y-11992460D02*
X1910182Y-11982936D01*
X2100658Y-11801984D02*
X2224468Y-11801984D01*
X2224468Y-11801984D02*
X2157801Y-11878174D01*
X2157801Y-11878174D02*
X2186372Y-11878174D01*
X2186372Y-11878174D02*
X2205420Y-11887698D01*
X2205420Y-11887698D02*
X2214944Y-11897222D01*
X2214944Y-11897222D02*
X2224468Y-11916269D01*
X2224468Y-11916269D02*
X2224468Y-11963888D01*
X2224468Y-11963888D02*
X2214944Y-11982936D01*
X2214944Y-11982936D02*
X2205420Y-11992460D01*
X2205420Y-11992460D02*
X2186372Y-12001984D01*
X2186372Y-12001984D02*
X2129229Y-12001984D01*
X2129229Y-12001984D02*
X2110182Y-11992460D01*
X2110182Y-11992460D02*
X2100658Y-11982936D01*
X2414944Y-12001984D02*
X2300658Y-12001984D01*
X2357801Y-12001984D02*
X2357801Y-11801984D01*
X2357801Y-11801984D02*
X2338753Y-11830555D01*
X2338753Y-11830555D02*
X2319706Y-11849603D01*
X2319706Y-11849603D02*
X2300658Y-11859127D01*
X2491134Y-11801984D02*
X2491134Y-11840079D01*
X2567325Y-11801984D02*
X2567325Y-11840079D01*
X2862563Y-12078174D02*
X2853039Y-12068650D01*
X2853039Y-12068650D02*
X2833991Y-12040079D01*
X2833991Y-12040079D02*
X2824468Y-12021031D01*
X2824468Y-12021031D02*
X2814944Y-11992460D01*
X2814944Y-11992460D02*
X2805420Y-11944841D01*
X2805420Y-11944841D02*
X2805420Y-11906746D01*
X2805420Y-11906746D02*
X2814944Y-11859127D01*
X2814944Y-11859127D02*
X2824468Y-11830555D01*
X2824468Y-11830555D02*
X2833991Y-11811508D01*
X2833991Y-11811508D02*
X2853039Y-11782936D01*
X2853039Y-11782936D02*
X2862563Y-11773412D01*
X2929229Y-11821031D02*
X2938753Y-11811508D01*
X2938753Y-11811508D02*
X2957801Y-11801984D01*
X2957801Y-11801984D02*
X3005420Y-11801984D01*
X3005420Y-11801984D02*
X3024468Y-11811508D01*
X3024468Y-11811508D02*
X3033991Y-11821031D01*
X3033991Y-11821031D02*
X3043515Y-11840079D01*
X3043515Y-11840079D02*
X3043515Y-11859127D01*
X3043515Y-11859127D02*
X3033991Y-11887698D01*
X3033991Y-11887698D02*
X2919706Y-12001984D01*
X2919706Y-12001984D02*
X3043515Y-12001984D01*
X3281610Y-12001984D02*
X3281610Y-11801984D01*
X3367325Y-12001984D02*
X3367325Y-11897222D01*
X3367325Y-11897222D02*
X3357801Y-11878174D01*
X3357801Y-11878174D02*
X3338753Y-11868650D01*
X3338753Y-11868650D02*
X3310182Y-11868650D01*
X3310182Y-11868650D02*
X3291134Y-11878174D01*
X3291134Y-11878174D02*
X3281610Y-11887698D01*
X3491134Y-12001984D02*
X3472087Y-11992460D01*
X3472087Y-11992460D02*
X3462563Y-11982936D01*
X3462563Y-11982936D02*
X3453039Y-11963888D01*
X3453039Y-11963888D02*
X3453039Y-11906746D01*
X3453039Y-11906746D02*
X3462563Y-11887698D01*
X3462563Y-11887698D02*
X3472087Y-11878174D01*
X3472087Y-11878174D02*
X3491134Y-11868650D01*
X3491134Y-11868650D02*
X3519706Y-11868650D01*
X3519706Y-11868650D02*
X3538753Y-11878174D01*
X3538753Y-11878174D02*
X3548277Y-11887698D01*
X3548277Y-11887698D02*
X3557801Y-11906746D01*
X3557801Y-11906746D02*
X3557801Y-11963888D01*
X3557801Y-11963888D02*
X3548277Y-11982936D01*
X3548277Y-11982936D02*
X3538753Y-11992460D01*
X3538753Y-11992460D02*
X3519706Y-12001984D01*
X3519706Y-12001984D02*
X3491134Y-12001984D01*
X3672087Y-12001984D02*
X3653039Y-11992460D01*
X3653039Y-11992460D02*
X3643515Y-11973412D01*
X3643515Y-11973412D02*
X3643515Y-11801984D01*
X3824468Y-11992460D02*
X3805420Y-12001984D01*
X3805420Y-12001984D02*
X3767325Y-12001984D01*
X3767325Y-12001984D02*
X3748277Y-11992460D01*
X3748277Y-11992460D02*
X3738753Y-11973412D01*
X3738753Y-11973412D02*
X3738753Y-11897222D01*
X3738753Y-11897222D02*
X3748277Y-11878174D01*
X3748277Y-11878174D02*
X3767325Y-11868650D01*
X3767325Y-11868650D02*
X3805420Y-11868650D01*
X3805420Y-11868650D02*
X3824468Y-11878174D01*
X3824468Y-11878174D02*
X3833991Y-11897222D01*
X3833991Y-11897222D02*
X3833991Y-11916269D01*
X3833991Y-11916269D02*
X3738753Y-11935317D01*
X3910182Y-11992460D02*
X3929230Y-12001984D01*
X3929230Y-12001984D02*
X3967325Y-12001984D01*
X3967325Y-12001984D02*
X3986372Y-11992460D01*
X3986372Y-11992460D02*
X3995896Y-11973412D01*
X3995896Y-11973412D02*
X3995896Y-11963888D01*
X3995896Y-11963888D02*
X3986372Y-11944841D01*
X3986372Y-11944841D02*
X3967325Y-11935317D01*
X3967325Y-11935317D02*
X3938753Y-11935317D01*
X3938753Y-11935317D02*
X3919706Y-11925793D01*
X3919706Y-11925793D02*
X3910182Y-11906746D01*
X3910182Y-11906746D02*
X3910182Y-11897222D01*
X3910182Y-11897222D02*
X3919706Y-11878174D01*
X3919706Y-11878174D02*
X3938753Y-11868650D01*
X3938753Y-11868650D02*
X3967325Y-11868650D01*
X3967325Y-11868650D02*
X3986372Y-11878174D01*
X4062563Y-12078174D02*
X4072087Y-12068650D01*
X4072087Y-12068650D02*
X4091134Y-12040079D01*
X4091134Y-12040079D02*
X4100658Y-12021031D01*
X4100658Y-12021031D02*
X4110182Y-11992460D01*
X4110182Y-11992460D02*
X4119706Y-11944841D01*
X4119706Y-11944841D02*
X4119706Y-11906746D01*
X4119706Y-11906746D02*
X4110182Y-11859127D01*
X4110182Y-11859127D02*
X4100658Y-11830555D01*
X4100658Y-11830555D02*
X4091134Y-11811508D01*
X4091134Y-11811508D02*
X4072087Y-11782936D01*
X4072087Y-11782936D02*
X4062563Y-11773412D01*
D12*
X-726412Y-12208088D02*
X-726412Y-12140912D01*
X-793588Y-12140912D01*
X-793588Y-12208088D01*
X-726412Y-12208088D01*
D11*
X-413628Y-12065984D02*
X-394580Y-12065984D01*
X-394580Y-12065984D02*
X-375533Y-12075508D01*
X-375533Y-12075508D02*
X-366009Y-12085031D01*
X-366009Y-12085031D02*
X-356485Y-12104079D01*
X-356485Y-12104079D02*
X-346961Y-12142174D01*
X-346961Y-12142174D02*
X-346961Y-12189793D01*
X-346961Y-12189793D02*
X-356485Y-12227888D01*
X-356485Y-12227888D02*
X-366009Y-12246936D01*
X-366009Y-12246936D02*
X-375533Y-12256460D01*
X-375533Y-12256460D02*
X-394580Y-12265984D01*
X-394580Y-12265984D02*
X-413628Y-12265984D01*
X-413628Y-12265984D02*
X-432675Y-12256460D01*
X-432675Y-12256460D02*
X-442199Y-12246936D01*
X-442199Y-12246936D02*
X-451723Y-12227888D01*
X-451723Y-12227888D02*
X-461247Y-12189793D01*
X-461247Y-12189793D02*
X-461247Y-12142174D01*
X-461247Y-12142174D02*
X-451723Y-12104079D01*
X-451723Y-12104079D02*
X-442199Y-12085031D01*
X-442199Y-12085031D02*
X-432675Y-12075508D01*
X-432675Y-12075508D02*
X-413628Y-12065984D01*
X-261247Y-12246936D02*
X-251723Y-12256460D01*
X-251723Y-12256460D02*
X-261247Y-12265984D01*
X-261247Y-12265984D02*
X-270771Y-12256460D01*
X-270771Y-12256460D02*
X-261247Y-12246936D01*
X-261247Y-12246936D02*
X-261247Y-12265984D01*
X-156485Y-12265984D02*
X-118390Y-12265984D01*
X-118390Y-12265984D02*
X-99342Y-12256460D01*
X-99342Y-12256460D02*
X-89818Y-12246936D01*
X-89818Y-12246936D02*
X-70771Y-12218365D01*
X-70771Y-12218365D02*
X-61247Y-12180269D01*
X-61247Y-12180269D02*
X-61247Y-12104079D01*
X-61247Y-12104079D02*
X-70771Y-12085031D01*
X-70771Y-12085031D02*
X-80295Y-12075508D01*
X-80295Y-12075508D02*
X-99342Y-12065984D01*
X-99342Y-12065984D02*
X-137437Y-12065984D01*
X-137437Y-12065984D02*
X-156485Y-12075508D01*
X-156485Y-12075508D02*
X-166009Y-12085031D01*
X-166009Y-12085031D02*
X-175533Y-12104079D01*
X-175533Y-12104079D02*
X-175533Y-12151698D01*
X-175533Y-12151698D02*
X-166009Y-12170746D01*
X-166009Y-12170746D02*
X-156485Y-12180269D01*
X-156485Y-12180269D02*
X-137437Y-12189793D01*
X-137437Y-12189793D02*
X-99342Y-12189793D01*
X-99342Y-12189793D02*
X-80295Y-12180269D01*
X-80295Y-12180269D02*
X-70771Y-12170746D01*
X-70771Y-12170746D02*
X-61247Y-12151698D01*
X119705Y-12065984D02*
X24467Y-12065984D01*
X24467Y-12065984D02*
X14943Y-12161222D01*
X14943Y-12161222D02*
X24467Y-12151698D01*
X24467Y-12151698D02*
X43515Y-12142174D01*
X43515Y-12142174D02*
X91134Y-12142174D01*
X91134Y-12142174D02*
X110182Y-12151698D01*
X110182Y-12151698D02*
X119705Y-12161222D01*
X119705Y-12161222D02*
X129229Y-12180269D01*
X129229Y-12180269D02*
X129229Y-12227888D01*
X129229Y-12227888D02*
X119705Y-12246936D01*
X119705Y-12246936D02*
X110182Y-12256460D01*
X110182Y-12256460D02*
X91134Y-12265984D01*
X91134Y-12265984D02*
X43515Y-12265984D01*
X43515Y-12265984D02*
X24467Y-12256460D01*
X24467Y-12256460D02*
X14943Y-12246936D01*
X253039Y-12065984D02*
X272086Y-12065984D01*
X272086Y-12065984D02*
X291134Y-12075508D01*
X291134Y-12075508D02*
X300658Y-12085031D01*
X300658Y-12085031D02*
X310182Y-12104079D01*
X310182Y-12104079D02*
X319705Y-12142174D01*
X319705Y-12142174D02*
X319705Y-12189793D01*
X319705Y-12189793D02*
X310182Y-12227888D01*
X310182Y-12227888D02*
X300658Y-12246936D01*
X300658Y-12246936D02*
X291134Y-12256460D01*
X291134Y-12256460D02*
X272086Y-12265984D01*
X272086Y-12265984D02*
X253039Y-12265984D01*
X253039Y-12265984D02*
X233991Y-12256460D01*
X233991Y-12256460D02*
X224467Y-12246936D01*
X224467Y-12246936D02*
X214943Y-12227888D01*
X214943Y-12227888D02*
X205420Y-12189793D01*
X205420Y-12189793D02*
X205420Y-12142174D01*
X205420Y-12142174D02*
X214943Y-12104079D01*
X214943Y-12104079D02*
X224467Y-12085031D01*
X224467Y-12085031D02*
X233991Y-12075508D01*
X233991Y-12075508D02*
X253039Y-12065984D01*
X405420Y-12265984D02*
X405420Y-12132650D01*
X405420Y-12151698D02*
X414943Y-12142174D01*
X414943Y-12142174D02*
X433991Y-12132650D01*
X433991Y-12132650D02*
X462563Y-12132650D01*
X462563Y-12132650D02*
X481610Y-12142174D01*
X481610Y-12142174D02*
X491134Y-12161222D01*
X491134Y-12161222D02*
X491134Y-12265984D01*
X491134Y-12161222D02*
X500658Y-12142174D01*
X500658Y-12142174D02*
X519705Y-12132650D01*
X519705Y-12132650D02*
X548277Y-12132650D01*
X548277Y-12132650D02*
X567325Y-12142174D01*
X567325Y-12142174D02*
X576848Y-12161222D01*
X576848Y-12161222D02*
X576848Y-12265984D01*
X672086Y-12265984D02*
X672086Y-12132650D01*
X672086Y-12151698D02*
X681610Y-12142174D01*
X681610Y-12142174D02*
X700658Y-12132650D01*
X700658Y-12132650D02*
X729229Y-12132650D01*
X729229Y-12132650D02*
X748277Y-12142174D01*
X748277Y-12142174D02*
X757801Y-12161222D01*
X757801Y-12161222D02*
X757801Y-12265984D01*
X757801Y-12161222D02*
X767324Y-12142174D01*
X767324Y-12142174D02*
X786372Y-12132650D01*
X786372Y-12132650D02*
X814943Y-12132650D01*
X814943Y-12132650D02*
X833991Y-12142174D01*
X833991Y-12142174D02*
X843515Y-12161222D01*
X843515Y-12161222D02*
X843515Y-12265984D01*
X1233991Y-12056460D02*
X1062563Y-12313603D01*
X1491134Y-12065984D02*
X1510182Y-12065984D01*
X1510182Y-12065984D02*
X1529229Y-12075508D01*
X1529229Y-12075508D02*
X1538753Y-12085031D01*
X1538753Y-12085031D02*
X1548277Y-12104079D01*
X1548277Y-12104079D02*
X1557801Y-12142174D01*
X1557801Y-12142174D02*
X1557801Y-12189793D01*
X1557801Y-12189793D02*
X1548277Y-12227888D01*
X1548277Y-12227888D02*
X1538753Y-12246936D01*
X1538753Y-12246936D02*
X1529229Y-12256460D01*
X1529229Y-12256460D02*
X1510182Y-12265984D01*
X1510182Y-12265984D02*
X1491134Y-12265984D01*
X1491134Y-12265984D02*
X1472086Y-12256460D01*
X1472086Y-12256460D02*
X1462563Y-12246936D01*
X1462563Y-12246936D02*
X1453039Y-12227888D01*
X1453039Y-12227888D02*
X1443515Y-12189793D01*
X1443515Y-12189793D02*
X1443515Y-12142174D01*
X1443515Y-12142174D02*
X1453039Y-12104079D01*
X1453039Y-12104079D02*
X1462563Y-12085031D01*
X1462563Y-12085031D02*
X1472086Y-12075508D01*
X1472086Y-12075508D02*
X1491134Y-12065984D01*
X1643515Y-12246936D02*
X1653039Y-12256460D01*
X1653039Y-12256460D02*
X1643515Y-12265984D01*
X1643515Y-12265984D02*
X1633991Y-12256460D01*
X1633991Y-12256460D02*
X1643515Y-12246936D01*
X1643515Y-12246936D02*
X1643515Y-12265984D01*
X1776848Y-12065984D02*
X1795896Y-12065984D01*
X1795896Y-12065984D02*
X1814944Y-12075508D01*
X1814944Y-12075508D02*
X1824467Y-12085031D01*
X1824467Y-12085031D02*
X1833991Y-12104079D01*
X1833991Y-12104079D02*
X1843515Y-12142174D01*
X1843515Y-12142174D02*
X1843515Y-12189793D01*
X1843515Y-12189793D02*
X1833991Y-12227888D01*
X1833991Y-12227888D02*
X1824467Y-12246936D01*
X1824467Y-12246936D02*
X1814944Y-12256460D01*
X1814944Y-12256460D02*
X1795896Y-12265984D01*
X1795896Y-12265984D02*
X1776848Y-12265984D01*
X1776848Y-12265984D02*
X1757801Y-12256460D01*
X1757801Y-12256460D02*
X1748277Y-12246936D01*
X1748277Y-12246936D02*
X1738753Y-12227888D01*
X1738753Y-12227888D02*
X1729229Y-12189793D01*
X1729229Y-12189793D02*
X1729229Y-12142174D01*
X1729229Y-12142174D02*
X1738753Y-12104079D01*
X1738753Y-12104079D02*
X1748277Y-12085031D01*
X1748277Y-12085031D02*
X1757801Y-12075508D01*
X1757801Y-12075508D02*
X1776848Y-12065984D01*
X1910182Y-12065984D02*
X2033991Y-12065984D01*
X2033991Y-12065984D02*
X1967325Y-12142174D01*
X1967325Y-12142174D02*
X1995896Y-12142174D01*
X1995896Y-12142174D02*
X2014944Y-12151698D01*
X2014944Y-12151698D02*
X2024467Y-12161222D01*
X2024467Y-12161222D02*
X2033991Y-12180269D01*
X2033991Y-12180269D02*
X2033991Y-12227888D01*
X2033991Y-12227888D02*
X2024467Y-12246936D01*
X2024467Y-12246936D02*
X2014944Y-12256460D01*
X2014944Y-12256460D02*
X1995896Y-12265984D01*
X1995896Y-12265984D02*
X1938753Y-12265984D01*
X1938753Y-12265984D02*
X1919706Y-12256460D01*
X1919706Y-12256460D02*
X1910182Y-12246936D01*
X2100658Y-12065984D02*
X2233991Y-12065984D01*
X2233991Y-12065984D02*
X2148277Y-12265984D01*
X2395896Y-12132650D02*
X2395896Y-12265984D01*
X2348277Y-12056460D02*
X2300658Y-12199317D01*
X2300658Y-12199317D02*
X2424468Y-12199317D01*
X2491134Y-12065984D02*
X2491134Y-12104079D01*
X2567325Y-12065984D02*
X2567325Y-12104079D01*
X2862563Y-12342174D02*
X2853039Y-12332650D01*
X2853039Y-12332650D02*
X2833991Y-12304079D01*
X2833991Y-12304079D02*
X2824468Y-12285031D01*
X2824468Y-12285031D02*
X2814944Y-12256460D01*
X2814944Y-12256460D02*
X2805420Y-12208841D01*
X2805420Y-12208841D02*
X2805420Y-12170746D01*
X2805420Y-12170746D02*
X2814944Y-12123127D01*
X2814944Y-12123127D02*
X2824468Y-12094555D01*
X2824468Y-12094555D02*
X2833991Y-12075508D01*
X2833991Y-12075508D02*
X2853039Y-12046936D01*
X2853039Y-12046936D02*
X2862563Y-12037412D01*
X2919706Y-12065984D02*
X3043515Y-12065984D01*
X3043515Y-12065984D02*
X2976848Y-12142174D01*
X2976848Y-12142174D02*
X3005420Y-12142174D01*
X3005420Y-12142174D02*
X3024468Y-12151698D01*
X3024468Y-12151698D02*
X3033991Y-12161222D01*
X3033991Y-12161222D02*
X3043515Y-12180269D01*
X3043515Y-12180269D02*
X3043515Y-12227888D01*
X3043515Y-12227888D02*
X3033991Y-12246936D01*
X3033991Y-12246936D02*
X3024468Y-12256460D01*
X3024468Y-12256460D02*
X3005420Y-12265984D01*
X3005420Y-12265984D02*
X2948277Y-12265984D01*
X2948277Y-12265984D02*
X2929229Y-12256460D01*
X2929229Y-12256460D02*
X2919706Y-12246936D01*
X3281610Y-12265984D02*
X3281610Y-12065984D01*
X3367325Y-12265984D02*
X3367325Y-12161222D01*
X3367325Y-12161222D02*
X3357801Y-12142174D01*
X3357801Y-12142174D02*
X3338753Y-12132650D01*
X3338753Y-12132650D02*
X3310182Y-12132650D01*
X3310182Y-12132650D02*
X3291134Y-12142174D01*
X3291134Y-12142174D02*
X3281610Y-12151698D01*
X3491134Y-12265984D02*
X3472087Y-12256460D01*
X3472087Y-12256460D02*
X3462563Y-12246936D01*
X3462563Y-12246936D02*
X3453039Y-12227888D01*
X3453039Y-12227888D02*
X3453039Y-12170746D01*
X3453039Y-12170746D02*
X3462563Y-12151698D01*
X3462563Y-12151698D02*
X3472087Y-12142174D01*
X3472087Y-12142174D02*
X3491134Y-12132650D01*
X3491134Y-12132650D02*
X3519706Y-12132650D01*
X3519706Y-12132650D02*
X3538753Y-12142174D01*
X3538753Y-12142174D02*
X3548277Y-12151698D01*
X3548277Y-12151698D02*
X3557801Y-12170746D01*
X3557801Y-12170746D02*
X3557801Y-12227888D01*
X3557801Y-12227888D02*
X3548277Y-12246936D01*
X3548277Y-12246936D02*
X3538753Y-12256460D01*
X3538753Y-12256460D02*
X3519706Y-12265984D01*
X3519706Y-12265984D02*
X3491134Y-12265984D01*
X3672087Y-12265984D02*
X3653039Y-12256460D01*
X3653039Y-12256460D02*
X3643515Y-12237412D01*
X3643515Y-12237412D02*
X3643515Y-12065984D01*
X3824468Y-12256460D02*
X3805420Y-12265984D01*
X3805420Y-12265984D02*
X3767325Y-12265984D01*
X3767325Y-12265984D02*
X3748277Y-12256460D01*
X3748277Y-12256460D02*
X3738753Y-12237412D01*
X3738753Y-12237412D02*
X3738753Y-12161222D01*
X3738753Y-12161222D02*
X3748277Y-12142174D01*
X3748277Y-12142174D02*
X3767325Y-12132650D01*
X3767325Y-12132650D02*
X3805420Y-12132650D01*
X3805420Y-12132650D02*
X3824468Y-12142174D01*
X3824468Y-12142174D02*
X3833991Y-12161222D01*
X3833991Y-12161222D02*
X3833991Y-12180269D01*
X3833991Y-12180269D02*
X3738753Y-12199317D01*
X3910182Y-12256460D02*
X3929230Y-12265984D01*
X3929230Y-12265984D02*
X3967325Y-12265984D01*
X3967325Y-12265984D02*
X3986372Y-12256460D01*
X3986372Y-12256460D02*
X3995896Y-12237412D01*
X3995896Y-12237412D02*
X3995896Y-12227888D01*
X3995896Y-12227888D02*
X3986372Y-12208841D01*
X3986372Y-12208841D02*
X3967325Y-12199317D01*
X3967325Y-12199317D02*
X3938753Y-12199317D01*
X3938753Y-12199317D02*
X3919706Y-12189793D01*
X3919706Y-12189793D02*
X3910182Y-12170746D01*
X3910182Y-12170746D02*
X3910182Y-12161222D01*
X3910182Y-12161222D02*
X3919706Y-12142174D01*
X3919706Y-12142174D02*
X3938753Y-12132650D01*
X3938753Y-12132650D02*
X3967325Y-12132650D01*
X3967325Y-12132650D02*
X3986372Y-12142174D01*
X4062563Y-12342174D02*
X4072087Y-12332650D01*
X4072087Y-12332650D02*
X4091134Y-12304079D01*
X4091134Y-12304079D02*
X4100658Y-12285031D01*
X4100658Y-12285031D02*
X4110182Y-12256460D01*
X4110182Y-12256460D02*
X4119706Y-12208841D01*
X4119706Y-12208841D02*
X4119706Y-12170746D01*
X4119706Y-12170746D02*
X4110182Y-12123127D01*
X4110182Y-12123127D02*
X4100658Y-12094555D01*
X4100658Y-12094555D02*
X4091134Y-12075508D01*
X4091134Y-12075508D02*
X4072087Y-12046936D01*
X4072087Y-12046936D02*
X4062563Y-12037412D01*
M02*
