%TF.GenerationSoftware,KiCad,Pcbnew,8.0.2-1*%
%TF.CreationDate,2025-02-21T14:42:32-05:00*%
%TF.ProjectId,OctagonPanels,4f637461-676f-46e5-9061-6e656c732e6b,rev?*%
%TF.SameCoordinates,Original*%
%TF.FileFunction,Legend,Bot*%
%TF.FilePolarity,Positive*%
%FSLAX46Y46*%
G04 Gerber Fmt 4.6, Leading zero omitted, Abs format (unit mm)*
G04 Created by KiCad (PCBNEW 8.0.2-1) date 2025-02-21 14:42:32*
%MOMM*%
%LPD*%
G01*
G04 APERTURE LIST*
%ADD10C,0.100000*%
%ADD11C,0.150000*%
%ADD12C,0.300000*%
%ADD13C,0.120000*%
%ADD14C,0.000000*%
%ADD15C,0.200000*%
G04 APERTURE END LIST*
D10*
X1575200Y-70543734D02*
X1527580Y-70400877D01*
X1527580Y-70400877D02*
X1527580Y-70162782D01*
X1527580Y-70162782D02*
X1575200Y-70067544D01*
X1575200Y-70067544D02*
X1622819Y-70019925D01*
X1622819Y-70019925D02*
X1718057Y-69972306D01*
X1718057Y-69972306D02*
X1813295Y-69972306D01*
X1813295Y-69972306D02*
X1908533Y-70019925D01*
X1908533Y-70019925D02*
X1956152Y-70067544D01*
X1956152Y-70067544D02*
X2003771Y-70162782D01*
X2003771Y-70162782D02*
X2051390Y-70353258D01*
X2051390Y-70353258D02*
X2099009Y-70448496D01*
X2099009Y-70448496D02*
X2146628Y-70496115D01*
X2146628Y-70496115D02*
X2241866Y-70543734D01*
X2241866Y-70543734D02*
X2337104Y-70543734D01*
X2337104Y-70543734D02*
X2432342Y-70496115D01*
X2432342Y-70496115D02*
X2479961Y-70448496D01*
X2479961Y-70448496D02*
X2527580Y-70353258D01*
X2527580Y-70353258D02*
X2527580Y-70115163D01*
X2527580Y-70115163D02*
X2479961Y-69972306D01*
X1527580Y-69543734D02*
X2194247Y-69543734D01*
X2527580Y-69543734D02*
X2479961Y-69591353D01*
X2479961Y-69591353D02*
X2432342Y-69543734D01*
X2432342Y-69543734D02*
X2479961Y-69496115D01*
X2479961Y-69496115D02*
X2527580Y-69543734D01*
X2527580Y-69543734D02*
X2432342Y-69543734D01*
X1527580Y-69067544D02*
X2527580Y-69067544D01*
X2527580Y-69067544D02*
X2527580Y-68686592D01*
X2527580Y-68686592D02*
X2479961Y-68591354D01*
X2479961Y-68591354D02*
X2432342Y-68543735D01*
X2432342Y-68543735D02*
X2337104Y-68496116D01*
X2337104Y-68496116D02*
X2194247Y-68496116D01*
X2194247Y-68496116D02*
X2099009Y-68543735D01*
X2099009Y-68543735D02*
X2051390Y-68591354D01*
X2051390Y-68591354D02*
X2003771Y-68686592D01*
X2003771Y-68686592D02*
X2003771Y-69067544D01*
X1527580Y-68067544D02*
X2527580Y-68067544D01*
X2527580Y-68067544D02*
X1813295Y-67734211D01*
X1813295Y-67734211D02*
X2527580Y-67400878D01*
X2527580Y-67400878D02*
X1527580Y-67400878D01*
X1575200Y-66972306D02*
X1527580Y-66877068D01*
X1527580Y-66877068D02*
X1527580Y-66686592D01*
X1527580Y-66686592D02*
X1575200Y-66591354D01*
X1575200Y-66591354D02*
X1670438Y-66543735D01*
X1670438Y-66543735D02*
X1718057Y-66543735D01*
X1718057Y-66543735D02*
X1813295Y-66591354D01*
X1813295Y-66591354D02*
X1860914Y-66686592D01*
X1860914Y-66686592D02*
X1860914Y-66829449D01*
X1860914Y-66829449D02*
X1908533Y-66924687D01*
X1908533Y-66924687D02*
X2003771Y-66972306D01*
X2003771Y-66972306D02*
X2051390Y-66972306D01*
X2051390Y-66972306D02*
X2146628Y-66924687D01*
X2146628Y-66924687D02*
X2194247Y-66829449D01*
X2194247Y-66829449D02*
X2194247Y-66686592D01*
X2194247Y-66686592D02*
X2146628Y-66591354D01*
D11*
X5995180Y-97533332D02*
X5995180Y-96961904D01*
X4995180Y-97247618D02*
X5995180Y-97247618D01*
X5042800Y-96247618D02*
X4995180Y-96342856D01*
X4995180Y-96342856D02*
X4995180Y-96533332D01*
X4995180Y-96533332D02*
X5042800Y-96628570D01*
X5042800Y-96628570D02*
X5138038Y-96676189D01*
X5138038Y-96676189D02*
X5518990Y-96676189D01*
X5518990Y-96676189D02*
X5614228Y-96628570D01*
X5614228Y-96628570D02*
X5661847Y-96533332D01*
X5661847Y-96533332D02*
X5661847Y-96342856D01*
X5661847Y-96342856D02*
X5614228Y-96247618D01*
X5614228Y-96247618D02*
X5518990Y-96199999D01*
X5518990Y-96199999D02*
X5423752Y-96199999D01*
X5423752Y-96199999D02*
X5328514Y-96676189D01*
X4995180Y-95771427D02*
X5661847Y-95771427D01*
X5566609Y-95771427D02*
X5614228Y-95723808D01*
X5614228Y-95723808D02*
X5661847Y-95628570D01*
X5661847Y-95628570D02*
X5661847Y-95485713D01*
X5661847Y-95485713D02*
X5614228Y-95390475D01*
X5614228Y-95390475D02*
X5518990Y-95342856D01*
X5518990Y-95342856D02*
X4995180Y-95342856D01*
X5518990Y-95342856D02*
X5614228Y-95295237D01*
X5614228Y-95295237D02*
X5661847Y-95199999D01*
X5661847Y-95199999D02*
X5661847Y-95057142D01*
X5661847Y-95057142D02*
X5614228Y-94961903D01*
X5614228Y-94961903D02*
X5518990Y-94914284D01*
X5518990Y-94914284D02*
X4995180Y-94914284D01*
X5661847Y-94438094D02*
X4661847Y-94438094D01*
X5614228Y-94438094D02*
X5661847Y-94342856D01*
X5661847Y-94342856D02*
X5661847Y-94152380D01*
X5661847Y-94152380D02*
X5614228Y-94057142D01*
X5614228Y-94057142D02*
X5566609Y-94009523D01*
X5566609Y-94009523D02*
X5471371Y-93961904D01*
X5471371Y-93961904D02*
X5185657Y-93961904D01*
X5185657Y-93961904D02*
X5090419Y-94009523D01*
X5090419Y-94009523D02*
X5042800Y-94057142D01*
X5042800Y-94057142D02*
X4995180Y-94152380D01*
X4995180Y-94152380D02*
X4995180Y-94342856D01*
X4995180Y-94342856D02*
X5042800Y-94438094D01*
X340476Y-98487564D02*
X264286Y-98525659D01*
X264286Y-98525659D02*
X150000Y-98525659D01*
X150000Y-98525659D02*
X35714Y-98487564D01*
X35714Y-98487564D02*
X-40475Y-98411374D01*
X-40475Y-98411374D02*
X-78570Y-98335183D01*
X-78570Y-98335183D02*
X-116666Y-98182802D01*
X-116666Y-98182802D02*
X-116666Y-98068516D01*
X-116666Y-98068516D02*
X-78570Y-97916135D01*
X-78570Y-97916135D02*
X-40475Y-97839945D01*
X-40475Y-97839945D02*
X35714Y-97763755D01*
X35714Y-97763755D02*
X150000Y-97725659D01*
X150000Y-97725659D02*
X226191Y-97725659D01*
X226191Y-97725659D02*
X340476Y-97763755D01*
X340476Y-97763755D02*
X378572Y-97801850D01*
X378572Y-97801850D02*
X378572Y-98068516D01*
X378572Y-98068516D02*
X226191Y-98068516D01*
X721429Y-97725659D02*
X721429Y-98525659D01*
X721429Y-98525659D02*
X1178572Y-97725659D01*
X1178572Y-97725659D02*
X1178572Y-98525659D01*
X1559524Y-97725659D02*
X1559524Y-98525659D01*
X1559524Y-98525659D02*
X1750000Y-98525659D01*
X1750000Y-98525659D02*
X1864286Y-98487564D01*
X1864286Y-98487564D02*
X1940476Y-98411374D01*
X1940476Y-98411374D02*
X1978571Y-98335183D01*
X1978571Y-98335183D02*
X2016667Y-98182802D01*
X2016667Y-98182802D02*
X2016667Y-98068516D01*
X2016667Y-98068516D02*
X1978571Y-97916135D01*
X1978571Y-97916135D02*
X1940476Y-97839945D01*
X1940476Y-97839945D02*
X1864286Y-97763755D01*
X1864286Y-97763755D02*
X1750000Y-97725659D01*
X1750000Y-97725659D02*
X1559524Y-97725659D01*
X378572Y-96437704D02*
X378572Y-97237704D01*
X378572Y-96856752D02*
X835715Y-96856752D01*
X835715Y-96437704D02*
X835715Y-97237704D01*
X1102381Y-97237704D02*
X1369048Y-96437704D01*
X1369048Y-96437704D02*
X1635714Y-97237704D01*
X150000Y-95949749D02*
X302381Y-95949749D01*
X302381Y-95949749D02*
X378571Y-95911654D01*
X378571Y-95911654D02*
X454762Y-95835464D01*
X454762Y-95835464D02*
X492857Y-95683083D01*
X492857Y-95683083D02*
X492857Y-95416416D01*
X492857Y-95416416D02*
X454762Y-95264035D01*
X454762Y-95264035D02*
X378571Y-95187845D01*
X378571Y-95187845D02*
X302381Y-95149749D01*
X302381Y-95149749D02*
X150000Y-95149749D01*
X150000Y-95149749D02*
X73809Y-95187845D01*
X73809Y-95187845D02*
X-2380Y-95264035D01*
X-2380Y-95264035D02*
X-40476Y-95416416D01*
X-40476Y-95416416D02*
X-40476Y-95683083D01*
X-40476Y-95683083D02*
X-2380Y-95835464D01*
X-2380Y-95835464D02*
X73809Y-95911654D01*
X73809Y-95911654D02*
X150000Y-95949749D01*
X835714Y-95949749D02*
X835714Y-95302130D01*
X835714Y-95302130D02*
X873809Y-95225940D01*
X873809Y-95225940D02*
X911904Y-95187845D01*
X911904Y-95187845D02*
X988095Y-95149749D01*
X988095Y-95149749D02*
X1140476Y-95149749D01*
X1140476Y-95149749D02*
X1216666Y-95187845D01*
X1216666Y-95187845D02*
X1254761Y-95225940D01*
X1254761Y-95225940D02*
X1292857Y-95302130D01*
X1292857Y-95302130D02*
X1292857Y-95949749D01*
X1559523Y-95949749D02*
X2016666Y-95949749D01*
X1788094Y-95149749D02*
X1788094Y-95949749D01*
D12*
X189771428Y-89841038D02*
X189771428Y-88341038D01*
X189771428Y-88341038D02*
X189414285Y-88341038D01*
X189414285Y-88341038D02*
X189199999Y-88412467D01*
X189199999Y-88412467D02*
X189057142Y-88555324D01*
X189057142Y-88555324D02*
X188985713Y-88698181D01*
X188985713Y-88698181D02*
X188914285Y-88983895D01*
X188914285Y-88983895D02*
X188914285Y-89198181D01*
X188914285Y-89198181D02*
X188985713Y-89483895D01*
X188985713Y-89483895D02*
X189057142Y-89626752D01*
X189057142Y-89626752D02*
X189199999Y-89769610D01*
X189199999Y-89769610D02*
X189414285Y-89841038D01*
X189414285Y-89841038D02*
X189771428Y-89841038D01*
X187699999Y-89769610D02*
X187842856Y-89841038D01*
X187842856Y-89841038D02*
X188128571Y-89841038D01*
X188128571Y-89841038D02*
X188271428Y-89769610D01*
X188271428Y-89769610D02*
X188342856Y-89626752D01*
X188342856Y-89626752D02*
X188342856Y-89055324D01*
X188342856Y-89055324D02*
X188271428Y-88912467D01*
X188271428Y-88912467D02*
X188128571Y-88841038D01*
X188128571Y-88841038D02*
X187842856Y-88841038D01*
X187842856Y-88841038D02*
X187699999Y-88912467D01*
X187699999Y-88912467D02*
X187628571Y-89055324D01*
X187628571Y-89055324D02*
X187628571Y-89198181D01*
X187628571Y-89198181D02*
X188342856Y-89341038D01*
X187057142Y-89769610D02*
X186914285Y-89841038D01*
X186914285Y-89841038D02*
X186628571Y-89841038D01*
X186628571Y-89841038D02*
X186485714Y-89769610D01*
X186485714Y-89769610D02*
X186414285Y-89626752D01*
X186414285Y-89626752D02*
X186414285Y-89555324D01*
X186414285Y-89555324D02*
X186485714Y-89412467D01*
X186485714Y-89412467D02*
X186628571Y-89341038D01*
X186628571Y-89341038D02*
X186842857Y-89341038D01*
X186842857Y-89341038D02*
X186985714Y-89269610D01*
X186985714Y-89269610D02*
X187057142Y-89126752D01*
X187057142Y-89126752D02*
X187057142Y-89055324D01*
X187057142Y-89055324D02*
X186985714Y-88912467D01*
X186985714Y-88912467D02*
X186842857Y-88841038D01*
X186842857Y-88841038D02*
X186628571Y-88841038D01*
X186628571Y-88841038D02*
X186485714Y-88912467D01*
X185771428Y-89841038D02*
X185771428Y-88841038D01*
X185771428Y-88341038D02*
X185842856Y-88412467D01*
X185842856Y-88412467D02*
X185771428Y-88483895D01*
X185771428Y-88483895D02*
X185699999Y-88412467D01*
X185699999Y-88412467D02*
X185771428Y-88341038D01*
X185771428Y-88341038D02*
X185771428Y-88483895D01*
X184414285Y-88841038D02*
X184414285Y-90055324D01*
X184414285Y-90055324D02*
X184485713Y-90198181D01*
X184485713Y-90198181D02*
X184557142Y-90269610D01*
X184557142Y-90269610D02*
X184699999Y-90341038D01*
X184699999Y-90341038D02*
X184914285Y-90341038D01*
X184914285Y-90341038D02*
X185057142Y-90269610D01*
X184414285Y-89769610D02*
X184557142Y-89841038D01*
X184557142Y-89841038D02*
X184842856Y-89841038D01*
X184842856Y-89841038D02*
X184985713Y-89769610D01*
X184985713Y-89769610D02*
X185057142Y-89698181D01*
X185057142Y-89698181D02*
X185128570Y-89555324D01*
X185128570Y-89555324D02*
X185128570Y-89126752D01*
X185128570Y-89126752D02*
X185057142Y-88983895D01*
X185057142Y-88983895D02*
X184985713Y-88912467D01*
X184985713Y-88912467D02*
X184842856Y-88841038D01*
X184842856Y-88841038D02*
X184557142Y-88841038D01*
X184557142Y-88841038D02*
X184414285Y-88912467D01*
X183699999Y-88841038D02*
X183699999Y-89841038D01*
X183699999Y-88983895D02*
X183628570Y-88912467D01*
X183628570Y-88912467D02*
X183485713Y-88841038D01*
X183485713Y-88841038D02*
X183271427Y-88841038D01*
X183271427Y-88841038D02*
X183128570Y-88912467D01*
X183128570Y-88912467D02*
X183057142Y-89055324D01*
X183057142Y-89055324D02*
X183057142Y-89841038D01*
X181771427Y-89769610D02*
X181914284Y-89841038D01*
X181914284Y-89841038D02*
X182199999Y-89841038D01*
X182199999Y-89841038D02*
X182342856Y-89769610D01*
X182342856Y-89769610D02*
X182414284Y-89626752D01*
X182414284Y-89626752D02*
X182414284Y-89055324D01*
X182414284Y-89055324D02*
X182342856Y-88912467D01*
X182342856Y-88912467D02*
X182199999Y-88841038D01*
X182199999Y-88841038D02*
X181914284Y-88841038D01*
X181914284Y-88841038D02*
X181771427Y-88912467D01*
X181771427Y-88912467D02*
X181699999Y-89055324D01*
X181699999Y-89055324D02*
X181699999Y-89198181D01*
X181699999Y-89198181D02*
X182414284Y-89341038D01*
X180414285Y-89841038D02*
X180414285Y-88341038D01*
X180414285Y-89769610D02*
X180557142Y-89841038D01*
X180557142Y-89841038D02*
X180842856Y-89841038D01*
X180842856Y-89841038D02*
X180985713Y-89769610D01*
X180985713Y-89769610D02*
X181057142Y-89698181D01*
X181057142Y-89698181D02*
X181128570Y-89555324D01*
X181128570Y-89555324D02*
X181128570Y-89126752D01*
X181128570Y-89126752D02*
X181057142Y-88983895D01*
X181057142Y-88983895D02*
X180985713Y-88912467D01*
X180985713Y-88912467D02*
X180842856Y-88841038D01*
X180842856Y-88841038D02*
X180557142Y-88841038D01*
X180557142Y-88841038D02*
X180414285Y-88912467D01*
X178557142Y-89841038D02*
X178557142Y-88341038D01*
X178557142Y-88912467D02*
X178414285Y-88841038D01*
X178414285Y-88841038D02*
X178128570Y-88841038D01*
X178128570Y-88841038D02*
X177985713Y-88912467D01*
X177985713Y-88912467D02*
X177914285Y-88983895D01*
X177914285Y-88983895D02*
X177842856Y-89126752D01*
X177842856Y-89126752D02*
X177842856Y-89555324D01*
X177842856Y-89555324D02*
X177914285Y-89698181D01*
X177914285Y-89698181D02*
X177985713Y-89769610D01*
X177985713Y-89769610D02*
X178128570Y-89841038D01*
X178128570Y-89841038D02*
X178414285Y-89841038D01*
X178414285Y-89841038D02*
X178557142Y-89769610D01*
X177342856Y-88841038D02*
X176985713Y-89841038D01*
X176628570Y-88841038D02*
X176985713Y-89841038D01*
X176985713Y-89841038D02*
X177128570Y-90198181D01*
X177128570Y-90198181D02*
X177199999Y-90269610D01*
X177199999Y-90269610D02*
X177342856Y-90341038D01*
X190699999Y-92184526D02*
X190485714Y-92255954D01*
X190485714Y-92255954D02*
X190128571Y-92255954D01*
X190128571Y-92255954D02*
X189985714Y-92184526D01*
X189985714Y-92184526D02*
X189914285Y-92113097D01*
X189914285Y-92113097D02*
X189842856Y-91970240D01*
X189842856Y-91970240D02*
X189842856Y-91827383D01*
X189842856Y-91827383D02*
X189914285Y-91684526D01*
X189914285Y-91684526D02*
X189985714Y-91613097D01*
X189985714Y-91613097D02*
X190128571Y-91541668D01*
X190128571Y-91541668D02*
X190414285Y-91470240D01*
X190414285Y-91470240D02*
X190557142Y-91398811D01*
X190557142Y-91398811D02*
X190628571Y-91327383D01*
X190628571Y-91327383D02*
X190699999Y-91184526D01*
X190699999Y-91184526D02*
X190699999Y-91041668D01*
X190699999Y-91041668D02*
X190628571Y-90898811D01*
X190628571Y-90898811D02*
X190557142Y-90827383D01*
X190557142Y-90827383D02*
X190414285Y-90755954D01*
X190414285Y-90755954D02*
X190057142Y-90755954D01*
X190057142Y-90755954D02*
X189842856Y-90827383D01*
X188628571Y-92184526D02*
X188771428Y-92255954D01*
X188771428Y-92255954D02*
X189057143Y-92255954D01*
X189057143Y-92255954D02*
X189200000Y-92184526D01*
X189200000Y-92184526D02*
X189271428Y-92041668D01*
X189271428Y-92041668D02*
X189271428Y-91470240D01*
X189271428Y-91470240D02*
X189200000Y-91327383D01*
X189200000Y-91327383D02*
X189057143Y-91255954D01*
X189057143Y-91255954D02*
X188771428Y-91255954D01*
X188771428Y-91255954D02*
X188628571Y-91327383D01*
X188628571Y-91327383D02*
X188557143Y-91470240D01*
X188557143Y-91470240D02*
X188557143Y-91613097D01*
X188557143Y-91613097D02*
X189271428Y-91755954D01*
X187914286Y-92255954D02*
X187914286Y-90755954D01*
X187914286Y-91327383D02*
X187771429Y-91255954D01*
X187771429Y-91255954D02*
X187485714Y-91255954D01*
X187485714Y-91255954D02*
X187342857Y-91327383D01*
X187342857Y-91327383D02*
X187271429Y-91398811D01*
X187271429Y-91398811D02*
X187200000Y-91541668D01*
X187200000Y-91541668D02*
X187200000Y-91970240D01*
X187200000Y-91970240D02*
X187271429Y-92113097D01*
X187271429Y-92113097D02*
X187342857Y-92184526D01*
X187342857Y-92184526D02*
X187485714Y-92255954D01*
X187485714Y-92255954D02*
X187771429Y-92255954D01*
X187771429Y-92255954D02*
X187914286Y-92184526D01*
X186342857Y-92255954D02*
X186485714Y-92184526D01*
X186485714Y-92184526D02*
X186557143Y-92113097D01*
X186557143Y-92113097D02*
X186628571Y-91970240D01*
X186628571Y-91970240D02*
X186628571Y-91541668D01*
X186628571Y-91541668D02*
X186557143Y-91398811D01*
X186557143Y-91398811D02*
X186485714Y-91327383D01*
X186485714Y-91327383D02*
X186342857Y-91255954D01*
X186342857Y-91255954D02*
X186128571Y-91255954D01*
X186128571Y-91255954D02*
X185985714Y-91327383D01*
X185985714Y-91327383D02*
X185914286Y-91398811D01*
X185914286Y-91398811D02*
X185842857Y-91541668D01*
X185842857Y-91541668D02*
X185842857Y-91970240D01*
X185842857Y-91970240D02*
X185914286Y-92113097D01*
X185914286Y-92113097D02*
X185985714Y-92184526D01*
X185985714Y-92184526D02*
X186128571Y-92255954D01*
X186128571Y-92255954D02*
X186342857Y-92255954D01*
X184557143Y-91255954D02*
X184557143Y-92255954D01*
X185200000Y-91255954D02*
X185200000Y-92041668D01*
X185200000Y-92041668D02*
X185128571Y-92184526D01*
X185128571Y-92184526D02*
X184985714Y-92255954D01*
X184985714Y-92255954D02*
X184771428Y-92255954D01*
X184771428Y-92255954D02*
X184628571Y-92184526D01*
X184628571Y-92184526D02*
X184557143Y-92113097D01*
X183842857Y-92255954D02*
X183842857Y-90755954D01*
X183200000Y-92255954D02*
X183200000Y-91470240D01*
X183200000Y-91470240D02*
X183271428Y-91327383D01*
X183271428Y-91327383D02*
X183414285Y-91255954D01*
X183414285Y-91255954D02*
X183628571Y-91255954D01*
X183628571Y-91255954D02*
X183771428Y-91327383D01*
X183771428Y-91327383D02*
X183842857Y-91398811D01*
X180914285Y-90755954D02*
X180914285Y-91827383D01*
X180914285Y-91827383D02*
X180985714Y-92041668D01*
X180985714Y-92041668D02*
X181128571Y-92184526D01*
X181128571Y-92184526D02*
X181342857Y-92255954D01*
X181342857Y-92255954D02*
X181485714Y-92255954D01*
X179057143Y-92255954D02*
X179057143Y-90755954D01*
X179057143Y-90755954D02*
X178485714Y-90755954D01*
X178485714Y-90755954D02*
X178342857Y-90827383D01*
X178342857Y-90827383D02*
X178271428Y-90898811D01*
X178271428Y-90898811D02*
X178200000Y-91041668D01*
X178200000Y-91041668D02*
X178200000Y-91255954D01*
X178200000Y-91255954D02*
X178271428Y-91398811D01*
X178271428Y-91398811D02*
X178342857Y-91470240D01*
X178342857Y-91470240D02*
X178485714Y-91541668D01*
X178485714Y-91541668D02*
X179057143Y-91541668D01*
X176914286Y-92255954D02*
X176914286Y-91470240D01*
X176914286Y-91470240D02*
X176985714Y-91327383D01*
X176985714Y-91327383D02*
X177128571Y-91255954D01*
X177128571Y-91255954D02*
X177414286Y-91255954D01*
X177414286Y-91255954D02*
X177557143Y-91327383D01*
X176914286Y-92184526D02*
X177057143Y-92255954D01*
X177057143Y-92255954D02*
X177414286Y-92255954D01*
X177414286Y-92255954D02*
X177557143Y-92184526D01*
X177557143Y-92184526D02*
X177628571Y-92041668D01*
X177628571Y-92041668D02*
X177628571Y-91898811D01*
X177628571Y-91898811D02*
X177557143Y-91755954D01*
X177557143Y-91755954D02*
X177414286Y-91684526D01*
X177414286Y-91684526D02*
X177057143Y-91684526D01*
X177057143Y-91684526D02*
X176914286Y-91613097D01*
X175557143Y-91255954D02*
X175557143Y-92255954D01*
X176200000Y-91255954D02*
X176200000Y-92041668D01*
X176200000Y-92041668D02*
X176128571Y-92184526D01*
X176128571Y-92184526D02*
X175985714Y-92255954D01*
X175985714Y-92255954D02*
X175771428Y-92255954D01*
X175771428Y-92255954D02*
X175628571Y-92184526D01*
X175628571Y-92184526D02*
X175557143Y-92113097D01*
X174628571Y-92255954D02*
X174771428Y-92184526D01*
X174771428Y-92184526D02*
X174842857Y-92041668D01*
X174842857Y-92041668D02*
X174842857Y-90755954D01*
X189771427Y-97085786D02*
X190628570Y-97085786D01*
X190199999Y-97085786D02*
X190199999Y-95585786D01*
X190199999Y-95585786D02*
X190342856Y-95800072D01*
X190342856Y-95800072D02*
X190485713Y-95942929D01*
X190485713Y-95942929D02*
X190628570Y-96014358D01*
X189128571Y-96942929D02*
X189057142Y-97014358D01*
X189057142Y-97014358D02*
X189128571Y-97085786D01*
X189128571Y-97085786D02*
X189199999Y-97014358D01*
X189199999Y-97014358D02*
X189128571Y-96942929D01*
X189128571Y-96942929D02*
X189128571Y-97085786D01*
X188557142Y-95585786D02*
X187628570Y-95585786D01*
X187628570Y-95585786D02*
X188128570Y-96157215D01*
X188128570Y-96157215D02*
X187914285Y-96157215D01*
X187914285Y-96157215D02*
X187771428Y-96228643D01*
X187771428Y-96228643D02*
X187699999Y-96300072D01*
X187699999Y-96300072D02*
X187628570Y-96442929D01*
X187628570Y-96442929D02*
X187628570Y-96800072D01*
X187628570Y-96800072D02*
X187699999Y-96942929D01*
X187699999Y-96942929D02*
X187771428Y-97014358D01*
X187771428Y-97014358D02*
X187914285Y-97085786D01*
X187914285Y-97085786D02*
X188342856Y-97085786D01*
X188342856Y-97085786D02*
X188485713Y-97014358D01*
X188485713Y-97014358D02*
X188557142Y-96942929D01*
X185842857Y-97085786D02*
X185842857Y-96085786D01*
X185842857Y-96228643D02*
X185771428Y-96157215D01*
X185771428Y-96157215D02*
X185628571Y-96085786D01*
X185628571Y-96085786D02*
X185414285Y-96085786D01*
X185414285Y-96085786D02*
X185271428Y-96157215D01*
X185271428Y-96157215D02*
X185200000Y-96300072D01*
X185200000Y-96300072D02*
X185200000Y-97085786D01*
X185200000Y-96300072D02*
X185128571Y-96157215D01*
X185128571Y-96157215D02*
X184985714Y-96085786D01*
X184985714Y-96085786D02*
X184771428Y-96085786D01*
X184771428Y-96085786D02*
X184628571Y-96157215D01*
X184628571Y-96157215D02*
X184557142Y-96300072D01*
X184557142Y-96300072D02*
X184557142Y-97085786D01*
X183842857Y-97085786D02*
X183842857Y-96085786D01*
X183842857Y-96228643D02*
X183771428Y-96157215D01*
X183771428Y-96157215D02*
X183628571Y-96085786D01*
X183628571Y-96085786D02*
X183414285Y-96085786D01*
X183414285Y-96085786D02*
X183271428Y-96157215D01*
X183271428Y-96157215D02*
X183200000Y-96300072D01*
X183200000Y-96300072D02*
X183200000Y-97085786D01*
X183200000Y-96300072D02*
X183128571Y-96157215D01*
X183128571Y-96157215D02*
X182985714Y-96085786D01*
X182985714Y-96085786D02*
X182771428Y-96085786D01*
X182771428Y-96085786D02*
X182628571Y-96157215D01*
X182628571Y-96157215D02*
X182557142Y-96300072D01*
X182557142Y-96300072D02*
X182557142Y-97085786D01*
X180771428Y-97014358D02*
X180557143Y-97085786D01*
X180557143Y-97085786D02*
X180200000Y-97085786D01*
X180200000Y-97085786D02*
X180057143Y-97014358D01*
X180057143Y-97014358D02*
X179985714Y-96942929D01*
X179985714Y-96942929D02*
X179914285Y-96800072D01*
X179914285Y-96800072D02*
X179914285Y-96657215D01*
X179914285Y-96657215D02*
X179985714Y-96514358D01*
X179985714Y-96514358D02*
X180057143Y-96442929D01*
X180057143Y-96442929D02*
X180200000Y-96371500D01*
X180200000Y-96371500D02*
X180485714Y-96300072D01*
X180485714Y-96300072D02*
X180628571Y-96228643D01*
X180628571Y-96228643D02*
X180700000Y-96157215D01*
X180700000Y-96157215D02*
X180771428Y-96014358D01*
X180771428Y-96014358D02*
X180771428Y-95871500D01*
X180771428Y-95871500D02*
X180700000Y-95728643D01*
X180700000Y-95728643D02*
X180628571Y-95657215D01*
X180628571Y-95657215D02*
X180485714Y-95585786D01*
X180485714Y-95585786D02*
X180128571Y-95585786D01*
X180128571Y-95585786D02*
X179914285Y-95657215D01*
X179271429Y-97085786D02*
X179271429Y-96085786D01*
X179271429Y-95585786D02*
X179342857Y-95657215D01*
X179342857Y-95657215D02*
X179271429Y-95728643D01*
X179271429Y-95728643D02*
X179200000Y-95657215D01*
X179200000Y-95657215D02*
X179271429Y-95585786D01*
X179271429Y-95585786D02*
X179271429Y-95728643D01*
X178557143Y-97085786D02*
X178557143Y-95585786D01*
X178557143Y-95585786D02*
X177985714Y-95585786D01*
X177985714Y-95585786D02*
X177842857Y-95657215D01*
X177842857Y-95657215D02*
X177771428Y-95728643D01*
X177771428Y-95728643D02*
X177700000Y-95871500D01*
X177700000Y-95871500D02*
X177700000Y-96085786D01*
X177700000Y-96085786D02*
X177771428Y-96228643D01*
X177771428Y-96228643D02*
X177842857Y-96300072D01*
X177842857Y-96300072D02*
X177985714Y-96371500D01*
X177985714Y-96371500D02*
X178557143Y-96371500D01*
X177057143Y-97085786D02*
X177057143Y-95585786D01*
X177057143Y-95585786D02*
X176557143Y-96657215D01*
X176557143Y-96657215D02*
X176057143Y-95585786D01*
X176057143Y-95585786D02*
X176057143Y-97085786D01*
X175414285Y-97014358D02*
X175271428Y-97085786D01*
X175271428Y-97085786D02*
X174985714Y-97085786D01*
X174985714Y-97085786D02*
X174842857Y-97014358D01*
X174842857Y-97014358D02*
X174771428Y-96871500D01*
X174771428Y-96871500D02*
X174771428Y-96800072D01*
X174771428Y-96800072D02*
X174842857Y-96657215D01*
X174842857Y-96657215D02*
X174985714Y-96585786D01*
X174985714Y-96585786D02*
X175200000Y-96585786D01*
X175200000Y-96585786D02*
X175342857Y-96514358D01*
X175342857Y-96514358D02*
X175414285Y-96371500D01*
X175414285Y-96371500D02*
X175414285Y-96300072D01*
X175414285Y-96300072D02*
X175342857Y-96157215D01*
X175342857Y-96157215D02*
X175200000Y-96085786D01*
X175200000Y-96085786D02*
X174985714Y-96085786D01*
X174985714Y-96085786D02*
X174842857Y-96157215D01*
X198271427Y-98500702D02*
X198271427Y-99500702D01*
X198628569Y-97929274D02*
X198985712Y-99000702D01*
X198985712Y-99000702D02*
X198057141Y-99000702D01*
X197271427Y-98643559D02*
X197414284Y-98572131D01*
X197414284Y-98572131D02*
X197485713Y-98500702D01*
X197485713Y-98500702D02*
X197557141Y-98357845D01*
X197557141Y-98357845D02*
X197557141Y-98286416D01*
X197557141Y-98286416D02*
X197485713Y-98143559D01*
X197485713Y-98143559D02*
X197414284Y-98072131D01*
X197414284Y-98072131D02*
X197271427Y-98000702D01*
X197271427Y-98000702D02*
X196985713Y-98000702D01*
X196985713Y-98000702D02*
X196842856Y-98072131D01*
X196842856Y-98072131D02*
X196771427Y-98143559D01*
X196771427Y-98143559D02*
X196699998Y-98286416D01*
X196699998Y-98286416D02*
X196699998Y-98357845D01*
X196699998Y-98357845D02*
X196771427Y-98500702D01*
X196771427Y-98500702D02*
X196842856Y-98572131D01*
X196842856Y-98572131D02*
X196985713Y-98643559D01*
X196985713Y-98643559D02*
X197271427Y-98643559D01*
X197271427Y-98643559D02*
X197414284Y-98714988D01*
X197414284Y-98714988D02*
X197485713Y-98786416D01*
X197485713Y-98786416D02*
X197557141Y-98929274D01*
X197557141Y-98929274D02*
X197557141Y-99214988D01*
X197557141Y-99214988D02*
X197485713Y-99357845D01*
X197485713Y-99357845D02*
X197414284Y-99429274D01*
X197414284Y-99429274D02*
X197271427Y-99500702D01*
X197271427Y-99500702D02*
X196985713Y-99500702D01*
X196985713Y-99500702D02*
X196842856Y-99429274D01*
X196842856Y-99429274D02*
X196771427Y-99357845D01*
X196771427Y-99357845D02*
X196699998Y-99214988D01*
X196699998Y-99214988D02*
X196699998Y-98929274D01*
X196699998Y-98929274D02*
X196771427Y-98786416D01*
X196771427Y-98786416D02*
X196842856Y-98714988D01*
X196842856Y-98714988D02*
X196985713Y-98643559D01*
X196057142Y-99357845D02*
X195985713Y-99429274D01*
X195985713Y-99429274D02*
X196057142Y-99500702D01*
X196057142Y-99500702D02*
X196128570Y-99429274D01*
X196128570Y-99429274D02*
X196057142Y-99357845D01*
X196057142Y-99357845D02*
X196057142Y-99500702D01*
X195128570Y-98643559D02*
X195271427Y-98572131D01*
X195271427Y-98572131D02*
X195342856Y-98500702D01*
X195342856Y-98500702D02*
X195414284Y-98357845D01*
X195414284Y-98357845D02*
X195414284Y-98286416D01*
X195414284Y-98286416D02*
X195342856Y-98143559D01*
X195342856Y-98143559D02*
X195271427Y-98072131D01*
X195271427Y-98072131D02*
X195128570Y-98000702D01*
X195128570Y-98000702D02*
X194842856Y-98000702D01*
X194842856Y-98000702D02*
X194699999Y-98072131D01*
X194699999Y-98072131D02*
X194628570Y-98143559D01*
X194628570Y-98143559D02*
X194557141Y-98286416D01*
X194557141Y-98286416D02*
X194557141Y-98357845D01*
X194557141Y-98357845D02*
X194628570Y-98500702D01*
X194628570Y-98500702D02*
X194699999Y-98572131D01*
X194699999Y-98572131D02*
X194842856Y-98643559D01*
X194842856Y-98643559D02*
X195128570Y-98643559D01*
X195128570Y-98643559D02*
X195271427Y-98714988D01*
X195271427Y-98714988D02*
X195342856Y-98786416D01*
X195342856Y-98786416D02*
X195414284Y-98929274D01*
X195414284Y-98929274D02*
X195414284Y-99214988D01*
X195414284Y-99214988D02*
X195342856Y-99357845D01*
X195342856Y-99357845D02*
X195271427Y-99429274D01*
X195271427Y-99429274D02*
X195128570Y-99500702D01*
X195128570Y-99500702D02*
X194842856Y-99500702D01*
X194842856Y-99500702D02*
X194699999Y-99429274D01*
X194699999Y-99429274D02*
X194628570Y-99357845D01*
X194628570Y-99357845D02*
X194557141Y-99214988D01*
X194557141Y-99214988D02*
X194557141Y-98929274D01*
X194557141Y-98929274D02*
X194628570Y-98786416D01*
X194628570Y-98786416D02*
X194699999Y-98714988D01*
X194699999Y-98714988D02*
X194842856Y-98643559D01*
X192914285Y-99500702D02*
X192128571Y-98500702D01*
X192914285Y-98500702D02*
X192128571Y-99500702D01*
X189771428Y-98500702D02*
X189771428Y-99500702D01*
X190128570Y-97929274D02*
X190485713Y-99000702D01*
X190485713Y-99000702D02*
X189557142Y-99000702D01*
X188771428Y-98643559D02*
X188914285Y-98572131D01*
X188914285Y-98572131D02*
X188985714Y-98500702D01*
X188985714Y-98500702D02*
X189057142Y-98357845D01*
X189057142Y-98357845D02*
X189057142Y-98286416D01*
X189057142Y-98286416D02*
X188985714Y-98143559D01*
X188985714Y-98143559D02*
X188914285Y-98072131D01*
X188914285Y-98072131D02*
X188771428Y-98000702D01*
X188771428Y-98000702D02*
X188485714Y-98000702D01*
X188485714Y-98000702D02*
X188342857Y-98072131D01*
X188342857Y-98072131D02*
X188271428Y-98143559D01*
X188271428Y-98143559D02*
X188199999Y-98286416D01*
X188199999Y-98286416D02*
X188199999Y-98357845D01*
X188199999Y-98357845D02*
X188271428Y-98500702D01*
X188271428Y-98500702D02*
X188342857Y-98572131D01*
X188342857Y-98572131D02*
X188485714Y-98643559D01*
X188485714Y-98643559D02*
X188771428Y-98643559D01*
X188771428Y-98643559D02*
X188914285Y-98714988D01*
X188914285Y-98714988D02*
X188985714Y-98786416D01*
X188985714Y-98786416D02*
X189057142Y-98929274D01*
X189057142Y-98929274D02*
X189057142Y-99214988D01*
X189057142Y-99214988D02*
X188985714Y-99357845D01*
X188985714Y-99357845D02*
X188914285Y-99429274D01*
X188914285Y-99429274D02*
X188771428Y-99500702D01*
X188771428Y-99500702D02*
X188485714Y-99500702D01*
X188485714Y-99500702D02*
X188342857Y-99429274D01*
X188342857Y-99429274D02*
X188271428Y-99357845D01*
X188271428Y-99357845D02*
X188199999Y-99214988D01*
X188199999Y-99214988D02*
X188199999Y-98929274D01*
X188199999Y-98929274D02*
X188271428Y-98786416D01*
X188271428Y-98786416D02*
X188342857Y-98714988D01*
X188342857Y-98714988D02*
X188485714Y-98643559D01*
X187557143Y-99357845D02*
X187485714Y-99429274D01*
X187485714Y-99429274D02*
X187557143Y-99500702D01*
X187557143Y-99500702D02*
X187628571Y-99429274D01*
X187628571Y-99429274D02*
X187557143Y-99357845D01*
X187557143Y-99357845D02*
X187557143Y-99500702D01*
X186628571Y-98643559D02*
X186771428Y-98572131D01*
X186771428Y-98572131D02*
X186842857Y-98500702D01*
X186842857Y-98500702D02*
X186914285Y-98357845D01*
X186914285Y-98357845D02*
X186914285Y-98286416D01*
X186914285Y-98286416D02*
X186842857Y-98143559D01*
X186842857Y-98143559D02*
X186771428Y-98072131D01*
X186771428Y-98072131D02*
X186628571Y-98000702D01*
X186628571Y-98000702D02*
X186342857Y-98000702D01*
X186342857Y-98000702D02*
X186200000Y-98072131D01*
X186200000Y-98072131D02*
X186128571Y-98143559D01*
X186128571Y-98143559D02*
X186057142Y-98286416D01*
X186057142Y-98286416D02*
X186057142Y-98357845D01*
X186057142Y-98357845D02*
X186128571Y-98500702D01*
X186128571Y-98500702D02*
X186200000Y-98572131D01*
X186200000Y-98572131D02*
X186342857Y-98643559D01*
X186342857Y-98643559D02*
X186628571Y-98643559D01*
X186628571Y-98643559D02*
X186771428Y-98714988D01*
X186771428Y-98714988D02*
X186842857Y-98786416D01*
X186842857Y-98786416D02*
X186914285Y-98929274D01*
X186914285Y-98929274D02*
X186914285Y-99214988D01*
X186914285Y-99214988D02*
X186842857Y-99357845D01*
X186842857Y-99357845D02*
X186771428Y-99429274D01*
X186771428Y-99429274D02*
X186628571Y-99500702D01*
X186628571Y-99500702D02*
X186342857Y-99500702D01*
X186342857Y-99500702D02*
X186200000Y-99429274D01*
X186200000Y-99429274D02*
X186128571Y-99357845D01*
X186128571Y-99357845D02*
X186057142Y-99214988D01*
X186057142Y-99214988D02*
X186057142Y-98929274D01*
X186057142Y-98929274D02*
X186128571Y-98786416D01*
X186128571Y-98786416D02*
X186200000Y-98714988D01*
X186200000Y-98714988D02*
X186342857Y-98643559D01*
X184271429Y-99500702D02*
X184271429Y-98500702D01*
X184271429Y-98643559D02*
X184200000Y-98572131D01*
X184200000Y-98572131D02*
X184057143Y-98500702D01*
X184057143Y-98500702D02*
X183842857Y-98500702D01*
X183842857Y-98500702D02*
X183700000Y-98572131D01*
X183700000Y-98572131D02*
X183628572Y-98714988D01*
X183628572Y-98714988D02*
X183628572Y-99500702D01*
X183628572Y-98714988D02*
X183557143Y-98572131D01*
X183557143Y-98572131D02*
X183414286Y-98500702D01*
X183414286Y-98500702D02*
X183200000Y-98500702D01*
X183200000Y-98500702D02*
X183057143Y-98572131D01*
X183057143Y-98572131D02*
X182985714Y-98714988D01*
X182985714Y-98714988D02*
X182985714Y-99500702D01*
X182271429Y-99500702D02*
X182271429Y-98500702D01*
X182271429Y-98643559D02*
X182200000Y-98572131D01*
X182200000Y-98572131D02*
X182057143Y-98500702D01*
X182057143Y-98500702D02*
X181842857Y-98500702D01*
X181842857Y-98500702D02*
X181700000Y-98572131D01*
X181700000Y-98572131D02*
X181628572Y-98714988D01*
X181628572Y-98714988D02*
X181628572Y-99500702D01*
X181628572Y-98714988D02*
X181557143Y-98572131D01*
X181557143Y-98572131D02*
X181414286Y-98500702D01*
X181414286Y-98500702D02*
X181200000Y-98500702D01*
X181200000Y-98500702D02*
X181057143Y-98572131D01*
X181057143Y-98572131D02*
X180985714Y-98714988D01*
X180985714Y-98714988D02*
X180985714Y-99500702D01*
X180342857Y-98143559D02*
X180271429Y-98072131D01*
X180271429Y-98072131D02*
X180128572Y-98000702D01*
X180128572Y-98000702D02*
X179771429Y-98000702D01*
X179771429Y-98000702D02*
X179628572Y-98072131D01*
X179628572Y-98072131D02*
X179557143Y-98143559D01*
X179557143Y-98143559D02*
X179485714Y-98286416D01*
X179485714Y-98286416D02*
X179485714Y-98429274D01*
X179485714Y-98429274D02*
X179557143Y-98643559D01*
X179557143Y-98643559D02*
X180414286Y-99500702D01*
X180414286Y-99500702D02*
X179485714Y-99500702D01*
X177771429Y-99429274D02*
X177628572Y-99500702D01*
X177628572Y-99500702D02*
X177342858Y-99500702D01*
X177342858Y-99500702D02*
X177200001Y-99429274D01*
X177200001Y-99429274D02*
X177128572Y-99286416D01*
X177128572Y-99286416D02*
X177128572Y-99214988D01*
X177128572Y-99214988D02*
X177200001Y-99072131D01*
X177200001Y-99072131D02*
X177342858Y-99000702D01*
X177342858Y-99000702D02*
X177557144Y-99000702D01*
X177557144Y-99000702D02*
X177700001Y-98929274D01*
X177700001Y-98929274D02*
X177771429Y-98786416D01*
X177771429Y-98786416D02*
X177771429Y-98714988D01*
X177771429Y-98714988D02*
X177700001Y-98572131D01*
X177700001Y-98572131D02*
X177557144Y-98500702D01*
X177557144Y-98500702D02*
X177342858Y-98500702D01*
X177342858Y-98500702D02*
X177200001Y-98572131D01*
X175842858Y-99429274D02*
X175985715Y-99500702D01*
X175985715Y-99500702D02*
X176271429Y-99500702D01*
X176271429Y-99500702D02*
X176414286Y-99429274D01*
X176414286Y-99429274D02*
X176485715Y-99357845D01*
X176485715Y-99357845D02*
X176557143Y-99214988D01*
X176557143Y-99214988D02*
X176557143Y-98786416D01*
X176557143Y-98786416D02*
X176485715Y-98643559D01*
X176485715Y-98643559D02*
X176414286Y-98572131D01*
X176414286Y-98572131D02*
X176271429Y-98500702D01*
X176271429Y-98500702D02*
X175985715Y-98500702D01*
X175985715Y-98500702D02*
X175842858Y-98572131D01*
X175200001Y-99500702D02*
X175200001Y-98500702D01*
X175200001Y-98000702D02*
X175271429Y-98072131D01*
X175271429Y-98072131D02*
X175200001Y-98143559D01*
X175200001Y-98143559D02*
X175128572Y-98072131D01*
X175128572Y-98072131D02*
X175200001Y-98000702D01*
X175200001Y-98000702D02*
X175200001Y-98143559D01*
X174485715Y-98500702D02*
X174485715Y-99500702D01*
X174485715Y-98643559D02*
X174414286Y-98572131D01*
X174414286Y-98572131D02*
X174271429Y-98500702D01*
X174271429Y-98500702D02*
X174057143Y-98500702D01*
X174057143Y-98500702D02*
X173914286Y-98572131D01*
X173914286Y-98572131D02*
X173842858Y-98714988D01*
X173842858Y-98714988D02*
X173842858Y-99500702D01*
X173342857Y-98500702D02*
X172771429Y-98500702D01*
X173128572Y-98000702D02*
X173128572Y-99286416D01*
X173128572Y-99286416D02*
X173057143Y-99429274D01*
X173057143Y-99429274D02*
X172914286Y-99500702D01*
X172914286Y-99500702D02*
X172771429Y-99500702D01*
X170485715Y-99429274D02*
X170628572Y-99500702D01*
X170628572Y-99500702D02*
X170914286Y-99500702D01*
X170914286Y-99500702D02*
X171057143Y-99429274D01*
X171057143Y-99429274D02*
X171128572Y-99357845D01*
X171128572Y-99357845D02*
X171200000Y-99214988D01*
X171200000Y-99214988D02*
X171200000Y-98786416D01*
X171200000Y-98786416D02*
X171128572Y-98643559D01*
X171128572Y-98643559D02*
X171057143Y-98572131D01*
X171057143Y-98572131D02*
X170914286Y-98500702D01*
X170914286Y-98500702D02*
X170628572Y-98500702D01*
X170628572Y-98500702D02*
X170485715Y-98572131D01*
X169271429Y-99429274D02*
X169414286Y-99500702D01*
X169414286Y-99500702D02*
X169700001Y-99500702D01*
X169700001Y-99500702D02*
X169842858Y-99429274D01*
X169842858Y-99429274D02*
X169914286Y-99286416D01*
X169914286Y-99286416D02*
X169914286Y-98714988D01*
X169914286Y-98714988D02*
X169842858Y-98572131D01*
X169842858Y-98572131D02*
X169700001Y-98500702D01*
X169700001Y-98500702D02*
X169414286Y-98500702D01*
X169414286Y-98500702D02*
X169271429Y-98572131D01*
X169271429Y-98572131D02*
X169200001Y-98714988D01*
X169200001Y-98714988D02*
X169200001Y-98857845D01*
X169200001Y-98857845D02*
X169914286Y-99000702D01*
X168342858Y-99500702D02*
X168485715Y-99429274D01*
X168485715Y-99429274D02*
X168557144Y-99286416D01*
X168557144Y-99286416D02*
X168557144Y-98000702D01*
X167557144Y-99500702D02*
X167700001Y-99429274D01*
X167700001Y-99429274D02*
X167771430Y-99286416D01*
X167771430Y-99286416D02*
X167771430Y-98000702D01*
X167057144Y-99429274D02*
X166914287Y-99500702D01*
X166914287Y-99500702D02*
X166628573Y-99500702D01*
X166628573Y-99500702D02*
X166485716Y-99429274D01*
X166485716Y-99429274D02*
X166414287Y-99286416D01*
X166414287Y-99286416D02*
X166414287Y-99214988D01*
X166414287Y-99214988D02*
X166485716Y-99072131D01*
X166485716Y-99072131D02*
X166628573Y-99000702D01*
X166628573Y-99000702D02*
X166842859Y-99000702D01*
X166842859Y-99000702D02*
X166985716Y-98929274D01*
X166985716Y-98929274D02*
X167057144Y-98786416D01*
X167057144Y-98786416D02*
X167057144Y-98714988D01*
X167057144Y-98714988D02*
X166985716Y-98572131D01*
X166985716Y-98572131D02*
X166842859Y-98500702D01*
X166842859Y-98500702D02*
X166628573Y-98500702D01*
X166628573Y-98500702D02*
X166485716Y-98572131D01*
X187914284Y-100415618D02*
X187414284Y-101915618D01*
X187414284Y-101915618D02*
X186914284Y-100415618D01*
X185842856Y-101844190D02*
X185985713Y-101915618D01*
X185985713Y-101915618D02*
X186271428Y-101915618D01*
X186271428Y-101915618D02*
X186414285Y-101844190D01*
X186414285Y-101844190D02*
X186485713Y-101701332D01*
X186485713Y-101701332D02*
X186485713Y-101129904D01*
X186485713Y-101129904D02*
X186414285Y-100987047D01*
X186414285Y-100987047D02*
X186271428Y-100915618D01*
X186271428Y-100915618D02*
X185985713Y-100915618D01*
X185985713Y-100915618D02*
X185842856Y-100987047D01*
X185842856Y-100987047D02*
X185771428Y-101129904D01*
X185771428Y-101129904D02*
X185771428Y-101272761D01*
X185771428Y-101272761D02*
X186485713Y-101415618D01*
X185128571Y-101915618D02*
X185128571Y-100915618D01*
X185128571Y-101201332D02*
X185057142Y-101058475D01*
X185057142Y-101058475D02*
X184985714Y-100987047D01*
X184985714Y-100987047D02*
X184842856Y-100915618D01*
X184842856Y-100915618D02*
X184699999Y-100915618D01*
X184271428Y-101844190D02*
X184128571Y-101915618D01*
X184128571Y-101915618D02*
X183842857Y-101915618D01*
X183842857Y-101915618D02*
X183700000Y-101844190D01*
X183700000Y-101844190D02*
X183628571Y-101701332D01*
X183628571Y-101701332D02*
X183628571Y-101629904D01*
X183628571Y-101629904D02*
X183700000Y-101487047D01*
X183700000Y-101487047D02*
X183842857Y-101415618D01*
X183842857Y-101415618D02*
X184057143Y-101415618D01*
X184057143Y-101415618D02*
X184200000Y-101344190D01*
X184200000Y-101344190D02*
X184271428Y-101201332D01*
X184271428Y-101201332D02*
X184271428Y-101129904D01*
X184271428Y-101129904D02*
X184200000Y-100987047D01*
X184200000Y-100987047D02*
X184057143Y-100915618D01*
X184057143Y-100915618D02*
X183842857Y-100915618D01*
X183842857Y-100915618D02*
X183700000Y-100987047D01*
X182985714Y-101915618D02*
X182985714Y-100915618D01*
X182985714Y-100415618D02*
X183057142Y-100487047D01*
X183057142Y-100487047D02*
X182985714Y-100558475D01*
X182985714Y-100558475D02*
X182914285Y-100487047D01*
X182914285Y-100487047D02*
X182985714Y-100415618D01*
X182985714Y-100415618D02*
X182985714Y-100558475D01*
X182057142Y-101915618D02*
X182199999Y-101844190D01*
X182199999Y-101844190D02*
X182271428Y-101772761D01*
X182271428Y-101772761D02*
X182342856Y-101629904D01*
X182342856Y-101629904D02*
X182342856Y-101201332D01*
X182342856Y-101201332D02*
X182271428Y-101058475D01*
X182271428Y-101058475D02*
X182199999Y-100987047D01*
X182199999Y-100987047D02*
X182057142Y-100915618D01*
X182057142Y-100915618D02*
X181842856Y-100915618D01*
X181842856Y-100915618D02*
X181699999Y-100987047D01*
X181699999Y-100987047D02*
X181628571Y-101058475D01*
X181628571Y-101058475D02*
X181557142Y-101201332D01*
X181557142Y-101201332D02*
X181557142Y-101629904D01*
X181557142Y-101629904D02*
X181628571Y-101772761D01*
X181628571Y-101772761D02*
X181699999Y-101844190D01*
X181699999Y-101844190D02*
X181842856Y-101915618D01*
X181842856Y-101915618D02*
X182057142Y-101915618D01*
X180914285Y-100915618D02*
X180914285Y-101915618D01*
X180914285Y-101058475D02*
X180842856Y-100987047D01*
X180842856Y-100987047D02*
X180699999Y-100915618D01*
X180699999Y-100915618D02*
X180485713Y-100915618D01*
X180485713Y-100915618D02*
X180342856Y-100987047D01*
X180342856Y-100987047D02*
X180271428Y-101129904D01*
X180271428Y-101129904D02*
X180271428Y-101915618D01*
X177628570Y-101915618D02*
X178485713Y-101915618D01*
X178057142Y-101915618D02*
X178057142Y-100415618D01*
X178057142Y-100415618D02*
X178199999Y-100629904D01*
X178199999Y-100629904D02*
X178342856Y-100772761D01*
X178342856Y-100772761D02*
X178485713Y-100844190D01*
D11*
X-1960244Y-95966666D02*
X-2436435Y-95633333D01*
X-1960244Y-95395238D02*
X-2960244Y-95395238D01*
X-2960244Y-95395238D02*
X-2960244Y-95776190D01*
X-2960244Y-95776190D02*
X-2912625Y-95871428D01*
X-2912625Y-95871428D02*
X-2865006Y-95919047D01*
X-2865006Y-95919047D02*
X-2769768Y-95966666D01*
X-2769768Y-95966666D02*
X-2626911Y-95966666D01*
X-2626911Y-95966666D02*
X-2531673Y-95919047D01*
X-2531673Y-95919047D02*
X-2484054Y-95871428D01*
X-2484054Y-95871428D02*
X-2436435Y-95776190D01*
X-2436435Y-95776190D02*
X-2436435Y-95395238D01*
X-2484054Y-96395238D02*
X-2484054Y-96728571D01*
X-1960244Y-96871428D02*
X-1960244Y-96395238D01*
X-1960244Y-96395238D02*
X-2960244Y-96395238D01*
X-2960244Y-96395238D02*
X-2960244Y-96871428D01*
X-2484054Y-97633333D02*
X-2484054Y-97300000D01*
X-1960244Y-97300000D02*
X-2960244Y-97300000D01*
X-2960244Y-97300000D02*
X-2960244Y-97776190D01*
X-2960244Y-98300000D02*
X-2722149Y-98300000D01*
X-2817387Y-98061905D02*
X-2722149Y-98300000D01*
X-2722149Y-98300000D02*
X-2817387Y-98538095D01*
X-2531673Y-98157143D02*
X-2722149Y-98300000D01*
X-2722149Y-98300000D02*
X-2531673Y-98442857D01*
X-2960244Y-99061905D02*
X-2722149Y-99061905D01*
X-2817387Y-98823810D02*
X-2722149Y-99061905D01*
X-2722149Y-99061905D02*
X-2817387Y-99300000D01*
X-2531673Y-98919048D02*
X-2722149Y-99061905D01*
X-2722149Y-99061905D02*
X-2531673Y-99204762D01*
X-11400180Y-66411666D02*
X-11876371Y-66078333D01*
X-11400180Y-65840238D02*
X-12400180Y-65840238D01*
X-12400180Y-65840238D02*
X-12400180Y-66221190D01*
X-12400180Y-66221190D02*
X-12352561Y-66316428D01*
X-12352561Y-66316428D02*
X-12304942Y-66364047D01*
X-12304942Y-66364047D02*
X-12209704Y-66411666D01*
X-12209704Y-66411666D02*
X-12066847Y-66411666D01*
X-12066847Y-66411666D02*
X-11971609Y-66364047D01*
X-11971609Y-66364047D02*
X-11923990Y-66316428D01*
X-11923990Y-66316428D02*
X-11876371Y-66221190D01*
X-11876371Y-66221190D02*
X-11876371Y-65840238D01*
X-11923990Y-66840238D02*
X-11923990Y-67173571D01*
X-11400180Y-67316428D02*
X-11400180Y-66840238D01*
X-11400180Y-66840238D02*
X-12400180Y-66840238D01*
X-12400180Y-66840238D02*
X-12400180Y-67316428D01*
X-11923990Y-68078333D02*
X-11923990Y-67745000D01*
X-11400180Y-67745000D02*
X-12400180Y-67745000D01*
X-12400180Y-67745000D02*
X-12400180Y-68221190D01*
X-12400180Y-68745000D02*
X-12162085Y-68745000D01*
X-12257323Y-68506905D02*
X-12162085Y-68745000D01*
X-12162085Y-68745000D02*
X-12257323Y-68983095D01*
X-11971609Y-68602143D02*
X-12162085Y-68745000D01*
X-12162085Y-68745000D02*
X-11971609Y-68887857D01*
X-12400180Y-69506905D02*
X-12162085Y-69506905D01*
X-12257323Y-69268810D02*
X-12162085Y-69506905D01*
X-12162085Y-69506905D02*
X-12257323Y-69745000D01*
X-11971609Y-69364048D02*
X-12162085Y-69506905D01*
X-12162085Y-69506905D02*
X-11971609Y-69649762D01*
D13*
%TO.C,REF\u002A\u002A*%
X-6760000Y-91774936D02*
X-790000Y-91774936D01*
X-790000Y-91774936D02*
X-790000Y-101894936D01*
X-4500000Y-92534936D02*
X-1550000Y-92534936D01*
X-1550000Y-92534936D02*
X-1550000Y-96834936D01*
X-1550000Y-101134936D02*
X-1550000Y-96834936D01*
X-4500000Y-101134936D02*
X-1550000Y-101134936D01*
X-4500000Y-91784936D02*
X-4500000Y-92534936D01*
X-4500000Y-101884936D02*
X-4500000Y-101134936D01*
X-7050000Y-91484936D02*
X-5800000Y-91484936D01*
X-6750000Y-91784936D02*
X-6000000Y-91784936D01*
X-6000000Y-91784936D02*
X-6000000Y-93584936D01*
X-6750000Y-95084936D02*
X-6000000Y-95084936D01*
X-6000000Y-95084936D02*
X-6000000Y-98584936D01*
X-6750000Y-100084936D02*
X-6000000Y-100084936D01*
X-6000000Y-100084936D02*
X-6000000Y-101884936D01*
X-6750000Y-93584936D02*
X-6750000Y-91784936D01*
X-6000000Y-93584936D02*
X-6750000Y-93584936D01*
X-6750000Y-98584936D02*
X-6750000Y-95084936D01*
X-6000000Y-98584936D02*
X-6750000Y-98584936D01*
X-6750000Y-101884936D02*
X-6750000Y-100084936D01*
X-6000000Y-101884936D02*
X-6750000Y-101884936D01*
X-6760000Y-101894936D02*
X-6760000Y-91774936D01*
X-790000Y-101894936D02*
X-6760000Y-101894936D01*
X-7050000Y-92734936D02*
X-7050000Y-91484936D01*
D14*
%TO.C,G\u002A\u002A\u002A*%
G36*
X276070486Y-72427142D02*
G01*
X276078606Y-72851102D01*
X276096809Y-74734474D01*
X276084268Y-76333149D01*
X276043596Y-77489406D01*
X275977404Y-78045522D01*
X275670130Y-78340556D01*
X274923337Y-78443753D01*
X274744776Y-78414638D01*
X274463697Y-78301385D01*
X274273811Y-78017502D01*
X274157241Y-77445476D01*
X274096110Y-76467789D01*
X274072541Y-74966926D01*
X274068657Y-72825373D01*
X274068657Y-67328358D01*
X275964179Y-67328358D01*
X276070486Y-72427142D01*
G37*
G36*
X305997924Y-67207408D02*
G01*
X307050746Y-67328358D01*
X307157053Y-72427142D01*
X307165173Y-72851102D01*
X307183376Y-74734474D01*
X307170835Y-76333149D01*
X307130163Y-77489406D01*
X307063972Y-78045522D01*
X306756697Y-78340556D01*
X306009904Y-78443753D01*
X305821594Y-78411953D01*
X305544355Y-78291249D01*
X305352481Y-77993197D01*
X305226548Y-77401642D01*
X305147133Y-76400431D01*
X305094813Y-74873409D01*
X305050163Y-72704423D01*
X304945103Y-67086459D01*
X305997924Y-67207408D01*
G37*
G36*
X298968738Y-67154105D02*
G01*
X299326633Y-67294958D01*
X299591026Y-67688586D01*
X299806438Y-68460163D01*
X300017388Y-69734865D01*
X300268397Y-71637869D01*
X300419135Y-72563640D01*
X300636660Y-73134916D01*
X300868555Y-72959808D01*
X301109121Y-72044840D01*
X301352659Y-70396537D01*
X301485915Y-69398580D01*
X301669206Y-68283700D01*
X301818548Y-67648030D01*
X302173839Y-67307388D01*
X302865441Y-67151357D01*
X303530735Y-67257381D01*
X303828358Y-67628737D01*
X303813764Y-67827630D01*
X303684615Y-68711079D01*
X303449988Y-70054911D01*
X303144100Y-71686747D01*
X302801169Y-73434210D01*
X302455410Y-75124920D01*
X302141041Y-76586498D01*
X301892278Y-77646568D01*
X301743337Y-78132748D01*
X301645443Y-78259478D01*
X300985612Y-78515582D01*
X300218650Y-78290896D01*
X299666839Y-77658955D01*
X299576382Y-77386264D01*
X299323257Y-76380015D01*
X299004791Y-74922047D01*
X298658994Y-73209814D01*
X298323874Y-71440769D01*
X298037443Y-69812367D01*
X297837711Y-68522061D01*
X297762687Y-67767305D01*
X297922186Y-67358221D01*
X298668257Y-67138806D01*
X298968738Y-67154105D01*
G37*
G36*
X264780597Y-72572636D02*
G01*
X264777989Y-73330047D01*
X264747625Y-75203045D01*
X264688556Y-76747026D01*
X264607536Y-77818942D01*
X264511321Y-78275744D01*
X264225355Y-78374456D01*
X263346560Y-78450095D01*
X262141918Y-78433704D01*
X261401009Y-78385436D01*
X260510389Y-78245059D01*
X260081164Y-77967597D01*
X259920648Y-77469403D01*
X259908405Y-77376712D01*
X259949318Y-76877710D01*
X260363433Y-76662587D01*
X261342290Y-76616418D01*
X262885075Y-76616418D01*
X262885075Y-75100000D01*
X262881985Y-74639061D01*
X262783194Y-73906899D01*
X262398195Y-73627965D01*
X261531842Y-73583582D01*
X260716964Y-73539729D01*
X260315623Y-73301151D01*
X260299752Y-72730597D01*
X260340468Y-72524504D01*
X260732115Y-71985438D01*
X261652985Y-71758816D01*
X262443148Y-71619392D01*
X262811525Y-71227773D01*
X262885075Y-70337174D01*
X262881762Y-69963813D01*
X262771192Y-69322278D01*
X262339659Y-69075027D01*
X261368657Y-69034328D01*
X261236597Y-69033990D01*
X260325411Y-68968595D01*
X259935007Y-68697193D01*
X259852239Y-68086567D01*
X259853661Y-67931775D01*
X259931700Y-67486026D01*
X260253975Y-67249204D01*
X260991782Y-67155425D01*
X262316418Y-67138806D01*
X264780597Y-67138806D01*
X264780597Y-72572636D01*
G37*
G36*
X296625373Y-72572636D02*
G01*
X296622765Y-73330047D01*
X296592401Y-75203045D01*
X296533332Y-76747026D01*
X296452312Y-77818942D01*
X296356097Y-78275744D01*
X296070131Y-78374456D01*
X295191337Y-78450095D01*
X293986694Y-78433704D01*
X293245785Y-78385436D01*
X292355166Y-78245059D01*
X291925940Y-77967597D01*
X291765424Y-77469403D01*
X291761489Y-76951834D01*
X292101023Y-76677498D01*
X292997513Y-76616418D01*
X293408850Y-76612955D01*
X294062222Y-76502252D01*
X294311139Y-76070826D01*
X294350746Y-75100000D01*
X294348952Y-74774379D01*
X294266872Y-73967968D01*
X293942687Y-73643464D01*
X293213433Y-73583582D01*
X292718860Y-73560948D01*
X292198526Y-73313159D01*
X292076119Y-72635821D01*
X292103280Y-72223677D01*
X292400627Y-71790065D01*
X293213433Y-71688059D01*
X293965763Y-71618307D01*
X294287345Y-71252664D01*
X294350746Y-70361194D01*
X294350581Y-70260200D01*
X294277900Y-69424116D01*
X293913188Y-69093014D01*
X293023881Y-69034328D01*
X292242260Y-68989885D01*
X291796149Y-68727499D01*
X291697015Y-68086567D01*
X291698437Y-67931775D01*
X291776476Y-67486026D01*
X292098751Y-67249204D01*
X292836558Y-67155425D01*
X294161194Y-67138806D01*
X296625373Y-67138806D01*
X296625373Y-72572636D01*
G37*
G36*
X272287450Y-72846734D02*
G01*
X272304745Y-74734128D01*
X272290094Y-76339799D01*
X272246392Y-77505036D01*
X272176532Y-78071131D01*
X272171887Y-78082897D01*
X271855401Y-78385104D01*
X271130323Y-78481728D01*
X269830333Y-78395781D01*
X268723132Y-78251824D01*
X267710021Y-77960392D01*
X267051391Y-77426871D01*
X266662966Y-76522281D01*
X266460471Y-75117641D01*
X266359632Y-73083973D01*
X266352803Y-72825373D01*
X268761194Y-72825373D01*
X268765932Y-73863667D01*
X268808048Y-75194987D01*
X268914959Y-75990732D01*
X269112030Y-76393090D01*
X269424627Y-76544247D01*
X269711168Y-76538684D01*
X269910597Y-76295654D01*
X270024538Y-75681806D01*
X270076017Y-74568070D01*
X270088060Y-72825373D01*
X270077583Y-71166003D01*
X270029043Y-70019045D01*
X269919388Y-69379522D01*
X269725591Y-69118364D01*
X269424627Y-69106498D01*
X269232978Y-69169051D01*
X268988524Y-69444101D01*
X268845319Y-70050379D01*
X268777998Y-71130074D01*
X268761194Y-72825373D01*
X266352803Y-72825373D01*
X266322446Y-71675734D01*
X266331796Y-70314044D01*
X266429700Y-69408304D01*
X266638418Y-68785999D01*
X266980212Y-68274613D01*
X267193942Y-68029103D01*
X267778093Y-67599092D01*
X268612826Y-67395826D01*
X269950431Y-67339914D01*
X272173134Y-67328358D01*
X272279441Y-72427142D01*
X272287042Y-72825373D01*
X272287450Y-72846734D01*
G37*
G36*
X314443284Y-72527072D02*
G01*
X314440471Y-73325108D01*
X314410148Y-75201237D01*
X314351814Y-76745989D01*
X314272051Y-77817100D01*
X314177442Y-78272309D01*
X313998612Y-78378429D01*
X313324457Y-78426585D01*
X313006832Y-78211409D01*
X312757435Y-77488320D01*
X312623619Y-76138853D01*
X312541771Y-75196458D01*
X312375988Y-74306427D01*
X312181330Y-73962686D01*
X311951746Y-74202951D01*
X311559194Y-74992829D01*
X311126296Y-76142537D01*
X310889904Y-76797554D01*
X310296449Y-77977375D01*
X309727570Y-78452716D01*
X309133684Y-78478014D01*
X308699440Y-78113192D01*
X308694139Y-77229051D01*
X309103297Y-75763187D01*
X309353632Y-75010869D01*
X309594056Y-74077644D01*
X309570177Y-73534632D01*
X309297066Y-73180985D01*
X308976808Y-72584086D01*
X308790312Y-71477710D01*
X308780798Y-70550746D01*
X310841791Y-70550746D01*
X310869465Y-71165460D01*
X311104628Y-71771404D01*
X311694776Y-71998755D01*
X311810036Y-72013652D01*
X312294751Y-71964733D01*
X312503225Y-71540644D01*
X312547761Y-70550746D01*
X312546961Y-70338827D01*
X312482947Y-69456237D01*
X312236319Y-69107754D01*
X311694776Y-69102737D01*
X311302129Y-69201550D01*
X310934064Y-69619633D01*
X310841791Y-70550746D01*
X308780798Y-70550746D01*
X308776913Y-70172186D01*
X308937867Y-68949621D01*
X309274430Y-68092124D01*
X309669796Y-67735313D01*
X310598017Y-67405069D01*
X312117713Y-67215892D01*
X314443284Y-67047676D01*
X314443284Y-70550746D01*
X314443284Y-72527072D01*
G37*
G36*
X282153664Y-67741997D02*
G01*
X282296090Y-67846225D01*
X282743357Y-68343357D01*
X282919786Y-69071175D01*
X282901450Y-70288768D01*
X282843632Y-71053301D01*
X282638182Y-71956301D01*
X282143067Y-72603226D01*
X281176866Y-73312127D01*
X280219661Y-74034887D01*
X279702193Y-74723376D01*
X279565672Y-75531959D01*
X279583699Y-75850561D01*
X279851200Y-76511050D01*
X280298999Y-76592988D01*
X280746057Y-76138990D01*
X281011333Y-75191671D01*
X281088591Y-74652421D01*
X281390488Y-74098509D01*
X282053870Y-73962686D01*
X282269399Y-73967631D01*
X282737277Y-74109942D01*
X282936135Y-74601926D01*
X282977612Y-75647160D01*
X282947877Y-76399230D01*
X282705715Y-77317395D01*
X282135050Y-77921787D01*
X281582778Y-78237470D01*
X280282440Y-78494467D01*
X279075982Y-78172868D01*
X278088279Y-77395304D01*
X277444206Y-76284404D01*
X277268638Y-74962801D01*
X277686449Y-73553125D01*
X277844177Y-73324433D01*
X278583290Y-72600203D01*
X279581972Y-71867322D01*
X280036567Y-71561644D01*
X280841542Y-70782956D01*
X281082090Y-69977333D01*
X280919508Y-69257713D01*
X280323881Y-69034328D01*
X280104664Y-69049406D01*
X279679173Y-69353133D01*
X279565672Y-70196822D01*
X279528751Y-70849208D01*
X279252973Y-71236432D01*
X278523134Y-71239360D01*
X277890395Y-71103375D01*
X277573243Y-70701808D01*
X277545888Y-69800948D01*
X277709893Y-68949669D01*
X278418577Y-67867091D01*
X279515963Y-67251094D01*
X280821258Y-67182467D01*
X282153664Y-67741997D01*
G37*
G36*
X290180597Y-72527072D02*
G01*
X290177757Y-73324672D01*
X290147110Y-75201293D01*
X290088142Y-76746826D01*
X290007510Y-77818913D01*
X289911869Y-78275195D01*
X289622632Y-78407794D01*
X288869332Y-78433155D01*
X288618306Y-78372258D01*
X288264394Y-78059474D01*
X288046455Y-77343861D01*
X287891674Y-76047761D01*
X287862422Y-75722774D01*
X287749784Y-74634992D01*
X287637612Y-74195716D01*
X287472404Y-74316888D01*
X287200656Y-74910447D01*
X286816607Y-75951967D01*
X286506376Y-77079079D01*
X286396081Y-77428175D01*
X285843825Y-78142313D01*
X285110745Y-78461697D01*
X284451652Y-78242099D01*
X284364595Y-77974393D01*
X284463783Y-77080268D01*
X284840611Y-75763187D01*
X285090946Y-75010869D01*
X285331370Y-74077644D01*
X285307490Y-73534632D01*
X285034380Y-73180985D01*
X284936503Y-73077019D01*
X284620017Y-72255049D01*
X284480768Y-71042345D01*
X284493706Y-70550746D01*
X286579104Y-70550746D01*
X286581727Y-70738859D01*
X286753458Y-71641234D01*
X287242537Y-71994993D01*
X287630297Y-71971675D01*
X287850128Y-71552495D01*
X287905970Y-70550746D01*
X287864614Y-69639908D01*
X287669842Y-69156525D01*
X287242537Y-69106498D01*
X287147994Y-69129909D01*
X286709914Y-69555051D01*
X286579104Y-70550746D01*
X284493706Y-70550746D01*
X284515571Y-69719978D01*
X284721239Y-68569020D01*
X285094585Y-67870541D01*
X285550949Y-67647696D01*
X286617805Y-67379402D01*
X287937869Y-67209900D01*
X290180597Y-67047676D01*
X290180597Y-70550746D01*
X290180597Y-72527072D01*
G37*
G36*
X336431343Y-74548521D02*
G01*
X336428561Y-76146083D01*
X336413500Y-78492537D01*
X336387145Y-80499984D01*
X336351509Y-82063626D01*
X336308606Y-83078664D01*
X336260451Y-83440298D01*
X336186497Y-83437307D01*
X335439907Y-83319470D01*
X334344066Y-83079387D01*
X333172124Y-82784964D01*
X332197231Y-82504105D01*
X331692537Y-82304716D01*
X331399602Y-82188172D01*
X330453644Y-81915109D01*
X328994319Y-81539330D01*
X327152288Y-81094155D01*
X325058209Y-80612902D01*
X323514148Y-80265488D01*
X321543856Y-79818784D01*
X319899248Y-79441988D01*
X318718441Y-79166802D01*
X318139552Y-79024925D01*
X318094723Y-79010988D01*
X317883211Y-78870547D01*
X317725911Y-78552025D01*
X317614922Y-77958740D01*
X317542348Y-76994008D01*
X317500289Y-75561146D01*
X317480845Y-73563473D01*
X317476119Y-70904303D01*
X317477689Y-70134874D01*
X317477989Y-70106716D01*
X320508955Y-70106716D01*
X320512095Y-70544697D01*
X320600800Y-71322025D01*
X320927749Y-71632082D01*
X321646269Y-71688059D01*
X322398599Y-71618307D01*
X322720181Y-71252664D01*
X322783582Y-70361194D01*
X322784610Y-70240348D01*
X322931651Y-69322057D01*
X323352239Y-69034328D01*
X323476113Y-69054292D01*
X323698446Y-69303708D01*
X323834358Y-69937746D01*
X323902343Y-71080726D01*
X323920895Y-72856965D01*
X323898167Y-74635994D01*
X323819678Y-75806410D01*
X323673323Y-76404540D01*
X323447015Y-76523929D01*
X323376306Y-76486099D01*
X323049300Y-75926811D01*
X322855473Y-74975919D01*
X322714325Y-74058258D01*
X322369403Y-73664898D01*
X321623384Y-73583582D01*
X321095898Y-73603133D01*
X320691885Y-73790837D01*
X320535204Y-74343468D01*
X320508955Y-75457607D01*
X320563650Y-76570257D01*
X320814612Y-77378650D01*
X321351517Y-77921787D01*
X321974131Y-78249375D01*
X323321750Y-78508003D01*
X324655029Y-78324718D01*
X325662885Y-77714477D01*
X325963825Y-77288143D01*
X326239506Y-76505897D01*
X326412459Y-75311640D01*
X326518008Y-73532612D01*
X326544233Y-72235219D01*
X327711940Y-72235219D01*
X327718803Y-74295000D01*
X327752637Y-75733641D01*
X327833284Y-76681734D01*
X327980584Y-77273186D01*
X328214376Y-77641901D01*
X328554502Y-77921787D01*
X329280681Y-78279385D01*
X330582176Y-78499382D01*
X331851433Y-78343219D01*
X332771094Y-77818656D01*
X333031911Y-77409476D01*
X333213912Y-76761310D01*
X333326071Y-75748948D01*
X333382800Y-74241208D01*
X333398507Y-72106908D01*
X333398507Y-67088444D01*
X331313433Y-67328358D01*
X331123881Y-71877612D01*
X331001911Y-73971201D01*
X330838056Y-75457335D01*
X330655125Y-76192882D01*
X330469969Y-76180851D01*
X330299441Y-75424251D01*
X330160392Y-73926092D01*
X330069675Y-71689381D01*
X329963230Y-67138806D01*
X327711940Y-67138806D01*
X327711940Y-71602626D01*
X327711940Y-72235219D01*
X326544233Y-72235219D01*
X326557020Y-71602626D01*
X326450463Y-69743895D01*
X326126152Y-68462556D01*
X325537808Y-67664200D01*
X324639155Y-67254420D01*
X323383916Y-67138806D01*
X322604335Y-67187162D01*
X321397994Y-67626671D01*
X320720655Y-68578053D01*
X320508955Y-70106716D01*
X317477989Y-70106716D01*
X317501991Y-67850841D01*
X317552072Y-65881276D01*
X317623259Y-64337105D01*
X317710882Y-63329256D01*
X317810271Y-62968656D01*
X318190654Y-63009903D01*
X319211771Y-63143415D01*
X320734567Y-63351155D01*
X322627557Y-63614426D01*
X324759257Y-63914529D01*
X326998183Y-64232766D01*
X329212850Y-64550438D01*
X331271775Y-64848848D01*
X333043473Y-65109298D01*
X334396461Y-65313088D01*
X335199254Y-65441522D01*
X336431343Y-65656744D01*
X336431343Y-67088444D01*
X336431343Y-74548521D01*
G37*
D15*
%TO.C,REF\u002A\u002A*%
X-7100000Y-63965000D02*
X-100000Y-63965000D01*
X-7100000Y-88035000D02*
X-7100000Y-63965000D01*
X-100000Y-63965000D02*
X-100000Y-88035000D01*
X-100000Y-88035000D02*
X-7100000Y-88035000D01*
X500000Y-69600000D02*
G75*
G02*
X300000Y-69600000I-100000J0D01*
G01*
X300000Y-69600000D02*
G75*
G02*
X500000Y-69600000I100000J0D01*
G01*
%TD*%
M02*
