%TF.GenerationSoftware,KiCad,Pcbnew,8.0.2-1*%
%TF.CreationDate,2025-02-21T14:42:32-05:00*%
%TF.ProjectId,OctagonPanels,4f637461-676f-46e5-9061-6e656c732e6b,rev?*%
%TF.SameCoordinates,Original*%
%TF.FileFunction,Legend,Top*%
%TF.FilePolarity,Positive*%
%FSLAX46Y46*%
G04 Gerber Fmt 4.6, Leading zero omitted, Abs format (unit mm)*
G04 Created by KiCad (PCBNEW 8.0.2-1) date 2025-02-21 14:42:32*
%MOMM*%
%LPD*%
G01*
G04 APERTURE LIST*
%ADD10C,0.100000*%
%ADD11C,0.250000*%
%ADD12C,0.150000*%
%ADD13C,0.300000*%
%ADD14C,0.120000*%
%ADD15C,0.000000*%
G04 APERTURE END LIST*
D10*
X-290475Y-103052657D02*
X-242856Y-103005038D01*
X-242856Y-103005038D02*
X-147618Y-102957419D01*
X-147618Y-102957419D02*
X90476Y-102957419D01*
X90476Y-102957419D02*
X185714Y-103005038D01*
X185714Y-103005038D02*
X233333Y-103052657D01*
X233333Y-103052657D02*
X280952Y-103147895D01*
X280952Y-103147895D02*
X280952Y-103243133D01*
X280952Y-103243133D02*
X233333Y-103385990D01*
X233333Y-103385990D02*
X-338094Y-103957419D01*
X-338094Y-103957419D02*
X280952Y-103957419D01*
X900000Y-102957419D02*
X995238Y-102957419D01*
X995238Y-102957419D02*
X1090476Y-103005038D01*
X1090476Y-103005038D02*
X1138095Y-103052657D01*
X1138095Y-103052657D02*
X1185714Y-103147895D01*
X1185714Y-103147895D02*
X1233333Y-103338371D01*
X1233333Y-103338371D02*
X1233333Y-103576466D01*
X1233333Y-103576466D02*
X1185714Y-103766942D01*
X1185714Y-103766942D02*
X1138095Y-103862180D01*
X1138095Y-103862180D02*
X1090476Y-103909800D01*
X1090476Y-103909800D02*
X995238Y-103957419D01*
X995238Y-103957419D02*
X900000Y-103957419D01*
X900000Y-103957419D02*
X804762Y-103909800D01*
X804762Y-103909800D02*
X757143Y-103862180D01*
X757143Y-103862180D02*
X709524Y-103766942D01*
X709524Y-103766942D02*
X661905Y-103576466D01*
X661905Y-103576466D02*
X661905Y-103338371D01*
X661905Y-103338371D02*
X709524Y-103147895D01*
X709524Y-103147895D02*
X757143Y-103052657D01*
X757143Y-103052657D02*
X804762Y-103005038D01*
X804762Y-103005038D02*
X900000Y-102957419D01*
X1661905Y-103862180D02*
X1709524Y-103909800D01*
X1709524Y-103909800D02*
X1661905Y-103957419D01*
X1661905Y-103957419D02*
X1614286Y-103909800D01*
X1614286Y-103909800D02*
X1661905Y-103862180D01*
X1661905Y-103862180D02*
X1661905Y-103957419D01*
X2328571Y-102957419D02*
X2423809Y-102957419D01*
X2423809Y-102957419D02*
X2519047Y-103005038D01*
X2519047Y-103005038D02*
X2566666Y-103052657D01*
X2566666Y-103052657D02*
X2614285Y-103147895D01*
X2614285Y-103147895D02*
X2661904Y-103338371D01*
X2661904Y-103338371D02*
X2661904Y-103576466D01*
X2661904Y-103576466D02*
X2614285Y-103766942D01*
X2614285Y-103766942D02*
X2566666Y-103862180D01*
X2566666Y-103862180D02*
X2519047Y-103909800D01*
X2519047Y-103909800D02*
X2423809Y-103957419D01*
X2423809Y-103957419D02*
X2328571Y-103957419D01*
X2328571Y-103957419D02*
X2233333Y-103909800D01*
X2233333Y-103909800D02*
X2185714Y-103862180D01*
X2185714Y-103862180D02*
X2138095Y-103766942D01*
X2138095Y-103766942D02*
X2090476Y-103576466D01*
X2090476Y-103576466D02*
X2090476Y-103338371D01*
X2090476Y-103338371D02*
X2138095Y-103147895D01*
X2138095Y-103147895D02*
X2185714Y-103052657D01*
X2185714Y-103052657D02*
X2233333Y-103005038D01*
X2233333Y-103005038D02*
X2328571Y-102957419D01*
X3852381Y-103957419D02*
X3852381Y-103290752D01*
X3852381Y-103385990D02*
X3900000Y-103338371D01*
X3900000Y-103338371D02*
X3995238Y-103290752D01*
X3995238Y-103290752D02*
X4138095Y-103290752D01*
X4138095Y-103290752D02*
X4233333Y-103338371D01*
X4233333Y-103338371D02*
X4280952Y-103433609D01*
X4280952Y-103433609D02*
X4280952Y-103957419D01*
X4280952Y-103433609D02*
X4328571Y-103338371D01*
X4328571Y-103338371D02*
X4423809Y-103290752D01*
X4423809Y-103290752D02*
X4566666Y-103290752D01*
X4566666Y-103290752D02*
X4661905Y-103338371D01*
X4661905Y-103338371D02*
X4709524Y-103433609D01*
X4709524Y-103433609D02*
X4709524Y-103957419D01*
X5185714Y-103957419D02*
X5185714Y-103290752D01*
X5185714Y-103385990D02*
X5233333Y-103338371D01*
X5233333Y-103338371D02*
X5328571Y-103290752D01*
X5328571Y-103290752D02*
X5471428Y-103290752D01*
X5471428Y-103290752D02*
X5566666Y-103338371D01*
X5566666Y-103338371D02*
X5614285Y-103433609D01*
X5614285Y-103433609D02*
X5614285Y-103957419D01*
X5614285Y-103433609D02*
X5661904Y-103338371D01*
X5661904Y-103338371D02*
X5757142Y-103290752D01*
X5757142Y-103290752D02*
X5899999Y-103290752D01*
X5899999Y-103290752D02*
X5995238Y-103338371D01*
X5995238Y-103338371D02*
X6042857Y-103433609D01*
X6042857Y-103433609D02*
X6042857Y-103957419D01*
X12900000Y-101962827D02*
X12900000Y-105186420D01*
X-7100000Y-101962827D02*
X-7100000Y-105186420D01*
X12900000Y-104600000D02*
X-7100000Y-104600000D01*
X12900000Y-104600000D02*
X-7100000Y-104600000D01*
X12900000Y-104600000D02*
X11773496Y-105186421D01*
X12900000Y-104600000D02*
X11773496Y-104013579D01*
X-7100000Y-104600000D02*
X-5973496Y-104013579D01*
X-7100000Y-104600000D02*
X-5973496Y-105186421D01*
X34109524Y-95090752D02*
X34109524Y-95757419D01*
X33871429Y-94709800D02*
X33633334Y-95424085D01*
X33633334Y-95424085D02*
X34252381Y-95424085D01*
X34776191Y-95185990D02*
X34680953Y-95138371D01*
X34680953Y-95138371D02*
X34633334Y-95090752D01*
X34633334Y-95090752D02*
X34585715Y-94995514D01*
X34585715Y-94995514D02*
X34585715Y-94947895D01*
X34585715Y-94947895D02*
X34633334Y-94852657D01*
X34633334Y-94852657D02*
X34680953Y-94805038D01*
X34680953Y-94805038D02*
X34776191Y-94757419D01*
X34776191Y-94757419D02*
X34966667Y-94757419D01*
X34966667Y-94757419D02*
X35061905Y-94805038D01*
X35061905Y-94805038D02*
X35109524Y-94852657D01*
X35109524Y-94852657D02*
X35157143Y-94947895D01*
X35157143Y-94947895D02*
X35157143Y-94995514D01*
X35157143Y-94995514D02*
X35109524Y-95090752D01*
X35109524Y-95090752D02*
X35061905Y-95138371D01*
X35061905Y-95138371D02*
X34966667Y-95185990D01*
X34966667Y-95185990D02*
X34776191Y-95185990D01*
X34776191Y-95185990D02*
X34680953Y-95233609D01*
X34680953Y-95233609D02*
X34633334Y-95281228D01*
X34633334Y-95281228D02*
X34585715Y-95376466D01*
X34585715Y-95376466D02*
X34585715Y-95566942D01*
X34585715Y-95566942D02*
X34633334Y-95662180D01*
X34633334Y-95662180D02*
X34680953Y-95709800D01*
X34680953Y-95709800D02*
X34776191Y-95757419D01*
X34776191Y-95757419D02*
X34966667Y-95757419D01*
X34966667Y-95757419D02*
X35061905Y-95709800D01*
X35061905Y-95709800D02*
X35109524Y-95662180D01*
X35109524Y-95662180D02*
X35157143Y-95566942D01*
X35157143Y-95566942D02*
X35157143Y-95376466D01*
X35157143Y-95376466D02*
X35109524Y-95281228D01*
X35109524Y-95281228D02*
X35061905Y-95233609D01*
X35061905Y-95233609D02*
X34966667Y-95185990D01*
X35585715Y-95662180D02*
X35633334Y-95709800D01*
X35633334Y-95709800D02*
X35585715Y-95757419D01*
X35585715Y-95757419D02*
X35538096Y-95709800D01*
X35538096Y-95709800D02*
X35585715Y-95662180D01*
X35585715Y-95662180D02*
X35585715Y-95757419D01*
X36204762Y-95185990D02*
X36109524Y-95138371D01*
X36109524Y-95138371D02*
X36061905Y-95090752D01*
X36061905Y-95090752D02*
X36014286Y-94995514D01*
X36014286Y-94995514D02*
X36014286Y-94947895D01*
X36014286Y-94947895D02*
X36061905Y-94852657D01*
X36061905Y-94852657D02*
X36109524Y-94805038D01*
X36109524Y-94805038D02*
X36204762Y-94757419D01*
X36204762Y-94757419D02*
X36395238Y-94757419D01*
X36395238Y-94757419D02*
X36490476Y-94805038D01*
X36490476Y-94805038D02*
X36538095Y-94852657D01*
X36538095Y-94852657D02*
X36585714Y-94947895D01*
X36585714Y-94947895D02*
X36585714Y-94995514D01*
X36585714Y-94995514D02*
X36538095Y-95090752D01*
X36538095Y-95090752D02*
X36490476Y-95138371D01*
X36490476Y-95138371D02*
X36395238Y-95185990D01*
X36395238Y-95185990D02*
X36204762Y-95185990D01*
X36204762Y-95185990D02*
X36109524Y-95233609D01*
X36109524Y-95233609D02*
X36061905Y-95281228D01*
X36061905Y-95281228D02*
X36014286Y-95376466D01*
X36014286Y-95376466D02*
X36014286Y-95566942D01*
X36014286Y-95566942D02*
X36061905Y-95662180D01*
X36061905Y-95662180D02*
X36109524Y-95709800D01*
X36109524Y-95709800D02*
X36204762Y-95757419D01*
X36204762Y-95757419D02*
X36395238Y-95757419D01*
X36395238Y-95757419D02*
X36490476Y-95709800D01*
X36490476Y-95709800D02*
X36538095Y-95662180D01*
X36538095Y-95662180D02*
X36585714Y-95566942D01*
X36585714Y-95566942D02*
X36585714Y-95376466D01*
X36585714Y-95376466D02*
X36538095Y-95281228D01*
X36538095Y-95281228D02*
X36490476Y-95233609D01*
X36490476Y-95233609D02*
X36395238Y-95185990D01*
X37204762Y-94757419D02*
X37300000Y-94757419D01*
X37300000Y-94757419D02*
X37395238Y-94805038D01*
X37395238Y-94805038D02*
X37442857Y-94852657D01*
X37442857Y-94852657D02*
X37490476Y-94947895D01*
X37490476Y-94947895D02*
X37538095Y-95138371D01*
X37538095Y-95138371D02*
X37538095Y-95376466D01*
X37538095Y-95376466D02*
X37490476Y-95566942D01*
X37490476Y-95566942D02*
X37442857Y-95662180D01*
X37442857Y-95662180D02*
X37395238Y-95709800D01*
X37395238Y-95709800D02*
X37300000Y-95757419D01*
X37300000Y-95757419D02*
X37204762Y-95757419D01*
X37204762Y-95757419D02*
X37109524Y-95709800D01*
X37109524Y-95709800D02*
X37061905Y-95662180D01*
X37061905Y-95662180D02*
X37014286Y-95566942D01*
X37014286Y-95566942D02*
X36966667Y-95376466D01*
X36966667Y-95376466D02*
X36966667Y-95138371D01*
X36966667Y-95138371D02*
X37014286Y-94947895D01*
X37014286Y-94947895D02*
X37061905Y-94852657D01*
X37061905Y-94852657D02*
X37109524Y-94805038D01*
X37109524Y-94805038D02*
X37204762Y-94757419D01*
X38728572Y-95757419D02*
X38728572Y-95090752D01*
X38728572Y-95185990D02*
X38776191Y-95138371D01*
X38776191Y-95138371D02*
X38871429Y-95090752D01*
X38871429Y-95090752D02*
X39014286Y-95090752D01*
X39014286Y-95090752D02*
X39109524Y-95138371D01*
X39109524Y-95138371D02*
X39157143Y-95233609D01*
X39157143Y-95233609D02*
X39157143Y-95757419D01*
X39157143Y-95233609D02*
X39204762Y-95138371D01*
X39204762Y-95138371D02*
X39300000Y-95090752D01*
X39300000Y-95090752D02*
X39442857Y-95090752D01*
X39442857Y-95090752D02*
X39538096Y-95138371D01*
X39538096Y-95138371D02*
X39585715Y-95233609D01*
X39585715Y-95233609D02*
X39585715Y-95757419D01*
X40061905Y-95757419D02*
X40061905Y-95090752D01*
X40061905Y-95185990D02*
X40109524Y-95138371D01*
X40109524Y-95138371D02*
X40204762Y-95090752D01*
X40204762Y-95090752D02*
X40347619Y-95090752D01*
X40347619Y-95090752D02*
X40442857Y-95138371D01*
X40442857Y-95138371D02*
X40490476Y-95233609D01*
X40490476Y-95233609D02*
X40490476Y-95757419D01*
X40490476Y-95233609D02*
X40538095Y-95138371D01*
X40538095Y-95138371D02*
X40633333Y-95090752D01*
X40633333Y-95090752D02*
X40776190Y-95090752D01*
X40776190Y-95090752D02*
X40871429Y-95138371D01*
X40871429Y-95138371D02*
X40919048Y-95233609D01*
X40919048Y-95233609D02*
X40919048Y-95757419D01*
X61700000Y-106900000D02*
X61700000Y-95813580D01*
X12900000Y-106900000D02*
X12900000Y-95813580D01*
X61700000Y-96400000D02*
X12900000Y-96400000D01*
X61700000Y-96400000D02*
X12900000Y-96400000D01*
X61700000Y-96400000D02*
X60573496Y-96986421D01*
X61700000Y-96400000D02*
X60573496Y-95813579D01*
X12900000Y-96400000D02*
X14026504Y-95813579D01*
X12900000Y-96400000D02*
X14026504Y-96986421D01*
X199909524Y-62090752D02*
X199909524Y-62757419D01*
X199671429Y-61709800D02*
X199433334Y-62424085D01*
X199433334Y-62424085D02*
X200052381Y-62424085D01*
X200385715Y-61852657D02*
X200433334Y-61805038D01*
X200433334Y-61805038D02*
X200528572Y-61757419D01*
X200528572Y-61757419D02*
X200766667Y-61757419D01*
X200766667Y-61757419D02*
X200861905Y-61805038D01*
X200861905Y-61805038D02*
X200909524Y-61852657D01*
X200909524Y-61852657D02*
X200957143Y-61947895D01*
X200957143Y-61947895D02*
X200957143Y-62043133D01*
X200957143Y-62043133D02*
X200909524Y-62185990D01*
X200909524Y-62185990D02*
X200338096Y-62757419D01*
X200338096Y-62757419D02*
X200957143Y-62757419D01*
X201576191Y-61757419D02*
X201671429Y-61757419D01*
X201671429Y-61757419D02*
X201766667Y-61805038D01*
X201766667Y-61805038D02*
X201814286Y-61852657D01*
X201814286Y-61852657D02*
X201861905Y-61947895D01*
X201861905Y-61947895D02*
X201909524Y-62138371D01*
X201909524Y-62138371D02*
X201909524Y-62376466D01*
X201909524Y-62376466D02*
X201861905Y-62566942D01*
X201861905Y-62566942D02*
X201814286Y-62662180D01*
X201814286Y-62662180D02*
X201766667Y-62709800D01*
X201766667Y-62709800D02*
X201671429Y-62757419D01*
X201671429Y-62757419D02*
X201576191Y-62757419D01*
X201576191Y-62757419D02*
X201480953Y-62709800D01*
X201480953Y-62709800D02*
X201433334Y-62662180D01*
X201433334Y-62662180D02*
X201385715Y-62566942D01*
X201385715Y-62566942D02*
X201338096Y-62376466D01*
X201338096Y-62376466D02*
X201338096Y-62138371D01*
X201338096Y-62138371D02*
X201385715Y-61947895D01*
X201385715Y-61947895D02*
X201433334Y-61852657D01*
X201433334Y-61852657D02*
X201480953Y-61805038D01*
X201480953Y-61805038D02*
X201576191Y-61757419D01*
X202338096Y-62662180D02*
X202385715Y-62709800D01*
X202385715Y-62709800D02*
X202338096Y-62757419D01*
X202338096Y-62757419D02*
X202290477Y-62709800D01*
X202290477Y-62709800D02*
X202338096Y-62662180D01*
X202338096Y-62662180D02*
X202338096Y-62757419D01*
X203242857Y-62090752D02*
X203242857Y-62757419D01*
X203004762Y-61709800D02*
X202766667Y-62424085D01*
X202766667Y-62424085D02*
X203385714Y-62424085D01*
X204528572Y-62757419D02*
X204528572Y-62090752D01*
X204528572Y-62185990D02*
X204576191Y-62138371D01*
X204576191Y-62138371D02*
X204671429Y-62090752D01*
X204671429Y-62090752D02*
X204814286Y-62090752D01*
X204814286Y-62090752D02*
X204909524Y-62138371D01*
X204909524Y-62138371D02*
X204957143Y-62233609D01*
X204957143Y-62233609D02*
X204957143Y-62757419D01*
X204957143Y-62233609D02*
X205004762Y-62138371D01*
X205004762Y-62138371D02*
X205100000Y-62090752D01*
X205100000Y-62090752D02*
X205242857Y-62090752D01*
X205242857Y-62090752D02*
X205338096Y-62138371D01*
X205338096Y-62138371D02*
X205385715Y-62233609D01*
X205385715Y-62233609D02*
X205385715Y-62757419D01*
X205861905Y-62757419D02*
X205861905Y-62090752D01*
X205861905Y-62185990D02*
X205909524Y-62138371D01*
X205909524Y-62138371D02*
X206004762Y-62090752D01*
X206004762Y-62090752D02*
X206147619Y-62090752D01*
X206147619Y-62090752D02*
X206242857Y-62138371D01*
X206242857Y-62138371D02*
X206290476Y-62233609D01*
X206290476Y-62233609D02*
X206290476Y-62757419D01*
X206290476Y-62233609D02*
X206338095Y-62138371D01*
X206338095Y-62138371D02*
X206433333Y-62090752D01*
X206433333Y-62090752D02*
X206576190Y-62090752D01*
X206576190Y-62090752D02*
X206671429Y-62138371D01*
X206671429Y-62138371D02*
X206719048Y-62233609D01*
X206719048Y-62233609D02*
X206719048Y-62757419D01*
X413300000Y-59100000D02*
X413300000Y-63986420D01*
X-7100000Y-59100000D02*
X-7100000Y-63986420D01*
X413300000Y-63400000D02*
X-7100000Y-63400000D01*
X413300000Y-63400000D02*
X-7100000Y-63400000D01*
X413300000Y-63400000D02*
X412173496Y-63986421D01*
X413300000Y-63400000D02*
X412173496Y-62813579D01*
X-7100000Y-63400000D02*
X-5973496Y-62813579D01*
X-7100000Y-63400000D02*
X-5973496Y-63986421D01*
D11*
X256900000Y-58600000D02*
X256900000Y-107400000D01*
X159300000Y-58600000D02*
X159300000Y-107400000D01*
X12900000Y-107400000D02*
X12900000Y-58600000D01*
X208100000Y-58600000D02*
X208100000Y-107400000D01*
D10*
X403300000Y-104950324D02*
X403300000Y-107400000D01*
D11*
X403300000Y-107400000D02*
X403300000Y-58600000D01*
X305700000Y-58600000D02*
X305700000Y-107400000D01*
X110500000Y-58600000D02*
X110500000Y-107400000D01*
X354500000Y-58600000D02*
X354500000Y-107400000D01*
X61700000Y-58600000D02*
X61700000Y-107400000D01*
D12*
X181683333Y-70105295D02*
X184778571Y-70105295D01*
X184778571Y-70105295D02*
X183111905Y-72010057D01*
X183111905Y-72010057D02*
X183826190Y-72010057D01*
X183826190Y-72010057D02*
X184302381Y-72248152D01*
X184302381Y-72248152D02*
X184540476Y-72486247D01*
X184540476Y-72486247D02*
X184778571Y-72962438D01*
X184778571Y-72962438D02*
X184778571Y-74152914D01*
X184778571Y-74152914D02*
X184540476Y-74629104D01*
X184540476Y-74629104D02*
X184302381Y-74867200D01*
X184302381Y-74867200D02*
X183826190Y-75105295D01*
X183826190Y-75105295D02*
X182397619Y-75105295D01*
X182397619Y-75105295D02*
X181921428Y-74867200D01*
X181921428Y-74867200D02*
X181683333Y-74629104D01*
X233052381Y-71771961D02*
X233052381Y-75105295D01*
X231861905Y-69867200D02*
X230671428Y-73438628D01*
X230671428Y-73438628D02*
X233766667Y-73438628D01*
X87278571Y-75105295D02*
X84421428Y-75105295D01*
X85850000Y-75105295D02*
X85850000Y-70105295D01*
X85850000Y-70105295D02*
X85373809Y-70819580D01*
X85373809Y-70819580D02*
X84897619Y-71295771D01*
X84897619Y-71295771D02*
X84421428Y-71533866D01*
X330652381Y-70105295D02*
X329700000Y-70105295D01*
X329700000Y-70105295D02*
X329223809Y-70343390D01*
X329223809Y-70343390D02*
X328985714Y-70581485D01*
X328985714Y-70581485D02*
X328509524Y-71295771D01*
X328509524Y-71295771D02*
X328271428Y-72248152D01*
X328271428Y-72248152D02*
X328271428Y-74152914D01*
X328271428Y-74152914D02*
X328509524Y-74629104D01*
X328509524Y-74629104D02*
X328747619Y-74867200D01*
X328747619Y-74867200D02*
X329223809Y-75105295D01*
X329223809Y-75105295D02*
X330176190Y-75105295D01*
X330176190Y-75105295D02*
X330652381Y-74867200D01*
X330652381Y-74867200D02*
X330890476Y-74629104D01*
X330890476Y-74629104D02*
X331128571Y-74152914D01*
X331128571Y-74152914D02*
X331128571Y-72962438D01*
X331128571Y-72962438D02*
X330890476Y-72486247D01*
X330890476Y-72486247D02*
X330652381Y-72248152D01*
X330652381Y-72248152D02*
X330176190Y-72010057D01*
X330176190Y-72010057D02*
X329223809Y-72010057D01*
X329223809Y-72010057D02*
X328747619Y-72248152D01*
X328747619Y-72248152D02*
X328509524Y-72486247D01*
X328509524Y-72486247D02*
X328271428Y-72962438D01*
X376833333Y-70105295D02*
X380166667Y-70105295D01*
X380166667Y-70105295D02*
X378023809Y-75105295D01*
D10*
X405003884Y-80672419D02*
X405003884Y-80005752D01*
X405003884Y-80196228D02*
X405051503Y-80100990D01*
X405051503Y-80100990D02*
X405099122Y-80053371D01*
X405099122Y-80053371D02*
X405194360Y-80005752D01*
X405194360Y-80005752D02*
X405289598Y-80005752D01*
X405622932Y-80148609D02*
X406384837Y-80148609D01*
X406384837Y-80434323D02*
X405622932Y-80434323D01*
X407384836Y-80672419D02*
X406813408Y-80672419D01*
X407099122Y-80672419D02*
X407099122Y-79672419D01*
X407099122Y-79672419D02*
X407003884Y-79815276D01*
X407003884Y-79815276D02*
X406908646Y-79910514D01*
X406908646Y-79910514D02*
X406813408Y-79958133D01*
X407813408Y-80577180D02*
X407861027Y-80624800D01*
X407861027Y-80624800D02*
X407813408Y-80672419D01*
X407813408Y-80672419D02*
X407765789Y-80624800D01*
X407765789Y-80624800D02*
X407813408Y-80577180D01*
X407813408Y-80577180D02*
X407813408Y-80672419D01*
X408718169Y-79672419D02*
X408527693Y-79672419D01*
X408527693Y-79672419D02*
X408432455Y-79720038D01*
X408432455Y-79720038D02*
X408384836Y-79767657D01*
X408384836Y-79767657D02*
X408289598Y-79910514D01*
X408289598Y-79910514D02*
X408241979Y-80100990D01*
X408241979Y-80100990D02*
X408241979Y-80481942D01*
X408241979Y-80481942D02*
X408289598Y-80577180D01*
X408289598Y-80577180D02*
X408337217Y-80624800D01*
X408337217Y-80624800D02*
X408432455Y-80672419D01*
X408432455Y-80672419D02*
X408622931Y-80672419D01*
X408622931Y-80672419D02*
X408718169Y-80624800D01*
X408718169Y-80624800D02*
X408765788Y-80577180D01*
X408765788Y-80577180D02*
X408813407Y-80481942D01*
X408813407Y-80481942D02*
X408813407Y-80243847D01*
X408813407Y-80243847D02*
X408765788Y-80148609D01*
X408765788Y-80148609D02*
X408718169Y-80100990D01*
X408718169Y-80100990D02*
X408622931Y-80053371D01*
X408622931Y-80053371D02*
X408432455Y-80053371D01*
X408432455Y-80053371D02*
X408337217Y-80100990D01*
X408337217Y-80100990D02*
X408289598Y-80148609D01*
X408289598Y-80148609D02*
X408241979Y-80243847D01*
X410003884Y-80672419D02*
X410003884Y-80005752D01*
X410003884Y-80100990D02*
X410051503Y-80053371D01*
X410051503Y-80053371D02*
X410146741Y-80005752D01*
X410146741Y-80005752D02*
X410289598Y-80005752D01*
X410289598Y-80005752D02*
X410384836Y-80053371D01*
X410384836Y-80053371D02*
X410432455Y-80148609D01*
X410432455Y-80148609D02*
X410432455Y-80672419D01*
X410432455Y-80148609D02*
X410480074Y-80053371D01*
X410480074Y-80053371D02*
X410575312Y-80005752D01*
X410575312Y-80005752D02*
X410718169Y-80005752D01*
X410718169Y-80005752D02*
X410813408Y-80053371D01*
X410813408Y-80053371D02*
X410861027Y-80148609D01*
X410861027Y-80148609D02*
X410861027Y-80672419D01*
X411337217Y-80672419D02*
X411337217Y-80005752D01*
X411337217Y-80100990D02*
X411384836Y-80053371D01*
X411384836Y-80053371D02*
X411480074Y-80005752D01*
X411480074Y-80005752D02*
X411622931Y-80005752D01*
X411622931Y-80005752D02*
X411718169Y-80053371D01*
X411718169Y-80053371D02*
X411765788Y-80148609D01*
X411765788Y-80148609D02*
X411765788Y-80672419D01*
X411765788Y-80148609D02*
X411813407Y-80053371D01*
X411813407Y-80053371D02*
X411908645Y-80005752D01*
X411908645Y-80005752D02*
X412051502Y-80005752D01*
X412051502Y-80005752D02*
X412146741Y-80053371D01*
X412146741Y-80053371D02*
X412194360Y-80148609D01*
X412194360Y-80148609D02*
X412194360Y-80672419D01*
D12*
X133171428Y-70581485D02*
X133409524Y-70343390D01*
X133409524Y-70343390D02*
X133885714Y-70105295D01*
X133885714Y-70105295D02*
X135076190Y-70105295D01*
X135076190Y-70105295D02*
X135552381Y-70343390D01*
X135552381Y-70343390D02*
X135790476Y-70581485D01*
X135790476Y-70581485D02*
X136028571Y-71057676D01*
X136028571Y-71057676D02*
X136028571Y-71533866D01*
X136028571Y-71533866D02*
X135790476Y-72248152D01*
X135790476Y-72248152D02*
X132933333Y-75105295D01*
X132933333Y-75105295D02*
X136028571Y-75105295D01*
D13*
X124028571Y-90041038D02*
X124028571Y-88541038D01*
X124028571Y-88541038D02*
X124385714Y-88541038D01*
X124385714Y-88541038D02*
X124600000Y-88612467D01*
X124600000Y-88612467D02*
X124742857Y-88755324D01*
X124742857Y-88755324D02*
X124814286Y-88898181D01*
X124814286Y-88898181D02*
X124885714Y-89183895D01*
X124885714Y-89183895D02*
X124885714Y-89398181D01*
X124885714Y-89398181D02*
X124814286Y-89683895D01*
X124814286Y-89683895D02*
X124742857Y-89826752D01*
X124742857Y-89826752D02*
X124600000Y-89969610D01*
X124600000Y-89969610D02*
X124385714Y-90041038D01*
X124385714Y-90041038D02*
X124028571Y-90041038D01*
X126100000Y-89969610D02*
X125957143Y-90041038D01*
X125957143Y-90041038D02*
X125671429Y-90041038D01*
X125671429Y-90041038D02*
X125528571Y-89969610D01*
X125528571Y-89969610D02*
X125457143Y-89826752D01*
X125457143Y-89826752D02*
X125457143Y-89255324D01*
X125457143Y-89255324D02*
X125528571Y-89112467D01*
X125528571Y-89112467D02*
X125671429Y-89041038D01*
X125671429Y-89041038D02*
X125957143Y-89041038D01*
X125957143Y-89041038D02*
X126100000Y-89112467D01*
X126100000Y-89112467D02*
X126171429Y-89255324D01*
X126171429Y-89255324D02*
X126171429Y-89398181D01*
X126171429Y-89398181D02*
X125457143Y-89541038D01*
X126742857Y-89969610D02*
X126885714Y-90041038D01*
X126885714Y-90041038D02*
X127171428Y-90041038D01*
X127171428Y-90041038D02*
X127314285Y-89969610D01*
X127314285Y-89969610D02*
X127385714Y-89826752D01*
X127385714Y-89826752D02*
X127385714Y-89755324D01*
X127385714Y-89755324D02*
X127314285Y-89612467D01*
X127314285Y-89612467D02*
X127171428Y-89541038D01*
X127171428Y-89541038D02*
X126957143Y-89541038D01*
X126957143Y-89541038D02*
X126814285Y-89469610D01*
X126814285Y-89469610D02*
X126742857Y-89326752D01*
X126742857Y-89326752D02*
X126742857Y-89255324D01*
X126742857Y-89255324D02*
X126814285Y-89112467D01*
X126814285Y-89112467D02*
X126957143Y-89041038D01*
X126957143Y-89041038D02*
X127171428Y-89041038D01*
X127171428Y-89041038D02*
X127314285Y-89112467D01*
X128028571Y-90041038D02*
X128028571Y-89041038D01*
X128028571Y-88541038D02*
X127957143Y-88612467D01*
X127957143Y-88612467D02*
X128028571Y-88683895D01*
X128028571Y-88683895D02*
X128100000Y-88612467D01*
X128100000Y-88612467D02*
X128028571Y-88541038D01*
X128028571Y-88541038D02*
X128028571Y-88683895D01*
X129385715Y-89041038D02*
X129385715Y-90255324D01*
X129385715Y-90255324D02*
X129314286Y-90398181D01*
X129314286Y-90398181D02*
X129242857Y-90469610D01*
X129242857Y-90469610D02*
X129100000Y-90541038D01*
X129100000Y-90541038D02*
X128885715Y-90541038D01*
X128885715Y-90541038D02*
X128742857Y-90469610D01*
X129385715Y-89969610D02*
X129242857Y-90041038D01*
X129242857Y-90041038D02*
X128957143Y-90041038D01*
X128957143Y-90041038D02*
X128814286Y-89969610D01*
X128814286Y-89969610D02*
X128742857Y-89898181D01*
X128742857Y-89898181D02*
X128671429Y-89755324D01*
X128671429Y-89755324D02*
X128671429Y-89326752D01*
X128671429Y-89326752D02*
X128742857Y-89183895D01*
X128742857Y-89183895D02*
X128814286Y-89112467D01*
X128814286Y-89112467D02*
X128957143Y-89041038D01*
X128957143Y-89041038D02*
X129242857Y-89041038D01*
X129242857Y-89041038D02*
X129385715Y-89112467D01*
X130100000Y-89041038D02*
X130100000Y-90041038D01*
X130100000Y-89183895D02*
X130171429Y-89112467D01*
X130171429Y-89112467D02*
X130314286Y-89041038D01*
X130314286Y-89041038D02*
X130528572Y-89041038D01*
X130528572Y-89041038D02*
X130671429Y-89112467D01*
X130671429Y-89112467D02*
X130742858Y-89255324D01*
X130742858Y-89255324D02*
X130742858Y-90041038D01*
X132028572Y-89969610D02*
X131885715Y-90041038D01*
X131885715Y-90041038D02*
X131600001Y-90041038D01*
X131600001Y-90041038D02*
X131457143Y-89969610D01*
X131457143Y-89969610D02*
X131385715Y-89826752D01*
X131385715Y-89826752D02*
X131385715Y-89255324D01*
X131385715Y-89255324D02*
X131457143Y-89112467D01*
X131457143Y-89112467D02*
X131600001Y-89041038D01*
X131600001Y-89041038D02*
X131885715Y-89041038D01*
X131885715Y-89041038D02*
X132028572Y-89112467D01*
X132028572Y-89112467D02*
X132100001Y-89255324D01*
X132100001Y-89255324D02*
X132100001Y-89398181D01*
X132100001Y-89398181D02*
X131385715Y-89541038D01*
X133385715Y-90041038D02*
X133385715Y-88541038D01*
X133385715Y-89969610D02*
X133242857Y-90041038D01*
X133242857Y-90041038D02*
X132957143Y-90041038D01*
X132957143Y-90041038D02*
X132814286Y-89969610D01*
X132814286Y-89969610D02*
X132742857Y-89898181D01*
X132742857Y-89898181D02*
X132671429Y-89755324D01*
X132671429Y-89755324D02*
X132671429Y-89326752D01*
X132671429Y-89326752D02*
X132742857Y-89183895D01*
X132742857Y-89183895D02*
X132814286Y-89112467D01*
X132814286Y-89112467D02*
X132957143Y-89041038D01*
X132957143Y-89041038D02*
X133242857Y-89041038D01*
X133242857Y-89041038D02*
X133385715Y-89112467D01*
X135242857Y-90041038D02*
X135242857Y-88541038D01*
X135242857Y-89112467D02*
X135385715Y-89041038D01*
X135385715Y-89041038D02*
X135671429Y-89041038D01*
X135671429Y-89041038D02*
X135814286Y-89112467D01*
X135814286Y-89112467D02*
X135885715Y-89183895D01*
X135885715Y-89183895D02*
X135957143Y-89326752D01*
X135957143Y-89326752D02*
X135957143Y-89755324D01*
X135957143Y-89755324D02*
X135885715Y-89898181D01*
X135885715Y-89898181D02*
X135814286Y-89969610D01*
X135814286Y-89969610D02*
X135671429Y-90041038D01*
X135671429Y-90041038D02*
X135385715Y-90041038D01*
X135385715Y-90041038D02*
X135242857Y-89969610D01*
X136457143Y-89041038D02*
X136814286Y-90041038D01*
X137171429Y-89041038D02*
X136814286Y-90041038D01*
X136814286Y-90041038D02*
X136671429Y-90398181D01*
X136671429Y-90398181D02*
X136600000Y-90469610D01*
X136600000Y-90469610D02*
X136457143Y-90541038D01*
X123100000Y-92384526D02*
X123314286Y-92455954D01*
X123314286Y-92455954D02*
X123671428Y-92455954D01*
X123671428Y-92455954D02*
X123814286Y-92384526D01*
X123814286Y-92384526D02*
X123885714Y-92313097D01*
X123885714Y-92313097D02*
X123957143Y-92170240D01*
X123957143Y-92170240D02*
X123957143Y-92027383D01*
X123957143Y-92027383D02*
X123885714Y-91884526D01*
X123885714Y-91884526D02*
X123814286Y-91813097D01*
X123814286Y-91813097D02*
X123671428Y-91741668D01*
X123671428Y-91741668D02*
X123385714Y-91670240D01*
X123385714Y-91670240D02*
X123242857Y-91598811D01*
X123242857Y-91598811D02*
X123171428Y-91527383D01*
X123171428Y-91527383D02*
X123100000Y-91384526D01*
X123100000Y-91384526D02*
X123100000Y-91241668D01*
X123100000Y-91241668D02*
X123171428Y-91098811D01*
X123171428Y-91098811D02*
X123242857Y-91027383D01*
X123242857Y-91027383D02*
X123385714Y-90955954D01*
X123385714Y-90955954D02*
X123742857Y-90955954D01*
X123742857Y-90955954D02*
X123957143Y-91027383D01*
X125171428Y-92384526D02*
X125028571Y-92455954D01*
X125028571Y-92455954D02*
X124742857Y-92455954D01*
X124742857Y-92455954D02*
X124599999Y-92384526D01*
X124599999Y-92384526D02*
X124528571Y-92241668D01*
X124528571Y-92241668D02*
X124528571Y-91670240D01*
X124528571Y-91670240D02*
X124599999Y-91527383D01*
X124599999Y-91527383D02*
X124742857Y-91455954D01*
X124742857Y-91455954D02*
X125028571Y-91455954D01*
X125028571Y-91455954D02*
X125171428Y-91527383D01*
X125171428Y-91527383D02*
X125242857Y-91670240D01*
X125242857Y-91670240D02*
X125242857Y-91813097D01*
X125242857Y-91813097D02*
X124528571Y-91955954D01*
X125885713Y-92455954D02*
X125885713Y-90955954D01*
X125885713Y-91527383D02*
X126028571Y-91455954D01*
X126028571Y-91455954D02*
X126314285Y-91455954D01*
X126314285Y-91455954D02*
X126457142Y-91527383D01*
X126457142Y-91527383D02*
X126528571Y-91598811D01*
X126528571Y-91598811D02*
X126599999Y-91741668D01*
X126599999Y-91741668D02*
X126599999Y-92170240D01*
X126599999Y-92170240D02*
X126528571Y-92313097D01*
X126528571Y-92313097D02*
X126457142Y-92384526D01*
X126457142Y-92384526D02*
X126314285Y-92455954D01*
X126314285Y-92455954D02*
X126028571Y-92455954D01*
X126028571Y-92455954D02*
X125885713Y-92384526D01*
X127457142Y-92455954D02*
X127314285Y-92384526D01*
X127314285Y-92384526D02*
X127242856Y-92313097D01*
X127242856Y-92313097D02*
X127171428Y-92170240D01*
X127171428Y-92170240D02*
X127171428Y-91741668D01*
X127171428Y-91741668D02*
X127242856Y-91598811D01*
X127242856Y-91598811D02*
X127314285Y-91527383D01*
X127314285Y-91527383D02*
X127457142Y-91455954D01*
X127457142Y-91455954D02*
X127671428Y-91455954D01*
X127671428Y-91455954D02*
X127814285Y-91527383D01*
X127814285Y-91527383D02*
X127885714Y-91598811D01*
X127885714Y-91598811D02*
X127957142Y-91741668D01*
X127957142Y-91741668D02*
X127957142Y-92170240D01*
X127957142Y-92170240D02*
X127885714Y-92313097D01*
X127885714Y-92313097D02*
X127814285Y-92384526D01*
X127814285Y-92384526D02*
X127671428Y-92455954D01*
X127671428Y-92455954D02*
X127457142Y-92455954D01*
X129242857Y-91455954D02*
X129242857Y-92455954D01*
X128599999Y-91455954D02*
X128599999Y-92241668D01*
X128599999Y-92241668D02*
X128671428Y-92384526D01*
X128671428Y-92384526D02*
X128814285Y-92455954D01*
X128814285Y-92455954D02*
X129028571Y-92455954D01*
X129028571Y-92455954D02*
X129171428Y-92384526D01*
X129171428Y-92384526D02*
X129242857Y-92313097D01*
X129957142Y-92455954D02*
X129957142Y-90955954D01*
X130600000Y-92455954D02*
X130600000Y-91670240D01*
X130600000Y-91670240D02*
X130528571Y-91527383D01*
X130528571Y-91527383D02*
X130385714Y-91455954D01*
X130385714Y-91455954D02*
X130171428Y-91455954D01*
X130171428Y-91455954D02*
X130028571Y-91527383D01*
X130028571Y-91527383D02*
X129957142Y-91598811D01*
X132885714Y-90955954D02*
X132885714Y-92027383D01*
X132885714Y-92027383D02*
X132814285Y-92241668D01*
X132814285Y-92241668D02*
X132671428Y-92384526D01*
X132671428Y-92384526D02*
X132457142Y-92455954D01*
X132457142Y-92455954D02*
X132314285Y-92455954D01*
X134742856Y-92455954D02*
X134742856Y-90955954D01*
X134742856Y-90955954D02*
X135314285Y-90955954D01*
X135314285Y-90955954D02*
X135457142Y-91027383D01*
X135457142Y-91027383D02*
X135528571Y-91098811D01*
X135528571Y-91098811D02*
X135599999Y-91241668D01*
X135599999Y-91241668D02*
X135599999Y-91455954D01*
X135599999Y-91455954D02*
X135528571Y-91598811D01*
X135528571Y-91598811D02*
X135457142Y-91670240D01*
X135457142Y-91670240D02*
X135314285Y-91741668D01*
X135314285Y-91741668D02*
X134742856Y-91741668D01*
X136885714Y-92455954D02*
X136885714Y-91670240D01*
X136885714Y-91670240D02*
X136814285Y-91527383D01*
X136814285Y-91527383D02*
X136671428Y-91455954D01*
X136671428Y-91455954D02*
X136385714Y-91455954D01*
X136385714Y-91455954D02*
X136242856Y-91527383D01*
X136885714Y-92384526D02*
X136742856Y-92455954D01*
X136742856Y-92455954D02*
X136385714Y-92455954D01*
X136385714Y-92455954D02*
X136242856Y-92384526D01*
X136242856Y-92384526D02*
X136171428Y-92241668D01*
X136171428Y-92241668D02*
X136171428Y-92098811D01*
X136171428Y-92098811D02*
X136242856Y-91955954D01*
X136242856Y-91955954D02*
X136385714Y-91884526D01*
X136385714Y-91884526D02*
X136742856Y-91884526D01*
X136742856Y-91884526D02*
X136885714Y-91813097D01*
X138242857Y-91455954D02*
X138242857Y-92455954D01*
X137599999Y-91455954D02*
X137599999Y-92241668D01*
X137599999Y-92241668D02*
X137671428Y-92384526D01*
X137671428Y-92384526D02*
X137814285Y-92455954D01*
X137814285Y-92455954D02*
X138028571Y-92455954D01*
X138028571Y-92455954D02*
X138171428Y-92384526D01*
X138171428Y-92384526D02*
X138242857Y-92313097D01*
X139171428Y-92455954D02*
X139028571Y-92384526D01*
X139028571Y-92384526D02*
X138957142Y-92241668D01*
X138957142Y-92241668D02*
X138957142Y-90955954D01*
X124028572Y-97285786D02*
X123171429Y-97285786D01*
X123600000Y-97285786D02*
X123600000Y-95785786D01*
X123600000Y-95785786D02*
X123457143Y-96000072D01*
X123457143Y-96000072D02*
X123314286Y-96142929D01*
X123314286Y-96142929D02*
X123171429Y-96214358D01*
X124671428Y-97142929D02*
X124742857Y-97214358D01*
X124742857Y-97214358D02*
X124671428Y-97285786D01*
X124671428Y-97285786D02*
X124600000Y-97214358D01*
X124600000Y-97214358D02*
X124671428Y-97142929D01*
X124671428Y-97142929D02*
X124671428Y-97285786D01*
X125242857Y-95785786D02*
X126171429Y-95785786D01*
X126171429Y-95785786D02*
X125671429Y-96357215D01*
X125671429Y-96357215D02*
X125885714Y-96357215D01*
X125885714Y-96357215D02*
X126028572Y-96428643D01*
X126028572Y-96428643D02*
X126100000Y-96500072D01*
X126100000Y-96500072D02*
X126171429Y-96642929D01*
X126171429Y-96642929D02*
X126171429Y-97000072D01*
X126171429Y-97000072D02*
X126100000Y-97142929D01*
X126100000Y-97142929D02*
X126028572Y-97214358D01*
X126028572Y-97214358D02*
X125885714Y-97285786D01*
X125885714Y-97285786D02*
X125457143Y-97285786D01*
X125457143Y-97285786D02*
X125314286Y-97214358D01*
X125314286Y-97214358D02*
X125242857Y-97142929D01*
X127957142Y-97285786D02*
X127957142Y-96285786D01*
X127957142Y-96428643D02*
X128028571Y-96357215D01*
X128028571Y-96357215D02*
X128171428Y-96285786D01*
X128171428Y-96285786D02*
X128385714Y-96285786D01*
X128385714Y-96285786D02*
X128528571Y-96357215D01*
X128528571Y-96357215D02*
X128600000Y-96500072D01*
X128600000Y-96500072D02*
X128600000Y-97285786D01*
X128600000Y-96500072D02*
X128671428Y-96357215D01*
X128671428Y-96357215D02*
X128814285Y-96285786D01*
X128814285Y-96285786D02*
X129028571Y-96285786D01*
X129028571Y-96285786D02*
X129171428Y-96357215D01*
X129171428Y-96357215D02*
X129242857Y-96500072D01*
X129242857Y-96500072D02*
X129242857Y-97285786D01*
X129957142Y-97285786D02*
X129957142Y-96285786D01*
X129957142Y-96428643D02*
X130028571Y-96357215D01*
X130028571Y-96357215D02*
X130171428Y-96285786D01*
X130171428Y-96285786D02*
X130385714Y-96285786D01*
X130385714Y-96285786D02*
X130528571Y-96357215D01*
X130528571Y-96357215D02*
X130600000Y-96500072D01*
X130600000Y-96500072D02*
X130600000Y-97285786D01*
X130600000Y-96500072D02*
X130671428Y-96357215D01*
X130671428Y-96357215D02*
X130814285Y-96285786D01*
X130814285Y-96285786D02*
X131028571Y-96285786D01*
X131028571Y-96285786D02*
X131171428Y-96357215D01*
X131171428Y-96357215D02*
X131242857Y-96500072D01*
X131242857Y-96500072D02*
X131242857Y-97285786D01*
X133028571Y-97214358D02*
X133242857Y-97285786D01*
X133242857Y-97285786D02*
X133599999Y-97285786D01*
X133599999Y-97285786D02*
X133742857Y-97214358D01*
X133742857Y-97214358D02*
X133814285Y-97142929D01*
X133814285Y-97142929D02*
X133885714Y-97000072D01*
X133885714Y-97000072D02*
X133885714Y-96857215D01*
X133885714Y-96857215D02*
X133814285Y-96714358D01*
X133814285Y-96714358D02*
X133742857Y-96642929D01*
X133742857Y-96642929D02*
X133599999Y-96571500D01*
X133599999Y-96571500D02*
X133314285Y-96500072D01*
X133314285Y-96500072D02*
X133171428Y-96428643D01*
X133171428Y-96428643D02*
X133099999Y-96357215D01*
X133099999Y-96357215D02*
X133028571Y-96214358D01*
X133028571Y-96214358D02*
X133028571Y-96071500D01*
X133028571Y-96071500D02*
X133099999Y-95928643D01*
X133099999Y-95928643D02*
X133171428Y-95857215D01*
X133171428Y-95857215D02*
X133314285Y-95785786D01*
X133314285Y-95785786D02*
X133671428Y-95785786D01*
X133671428Y-95785786D02*
X133885714Y-95857215D01*
X134528570Y-97285786D02*
X134528570Y-96285786D01*
X134528570Y-95785786D02*
X134457142Y-95857215D01*
X134457142Y-95857215D02*
X134528570Y-95928643D01*
X134528570Y-95928643D02*
X134599999Y-95857215D01*
X134599999Y-95857215D02*
X134528570Y-95785786D01*
X134528570Y-95785786D02*
X134528570Y-95928643D01*
X135242856Y-97285786D02*
X135242856Y-95785786D01*
X135242856Y-95785786D02*
X135814285Y-95785786D01*
X135814285Y-95785786D02*
X135957142Y-95857215D01*
X135957142Y-95857215D02*
X136028571Y-95928643D01*
X136028571Y-95928643D02*
X136099999Y-96071500D01*
X136099999Y-96071500D02*
X136099999Y-96285786D01*
X136099999Y-96285786D02*
X136028571Y-96428643D01*
X136028571Y-96428643D02*
X135957142Y-96500072D01*
X135957142Y-96500072D02*
X135814285Y-96571500D01*
X135814285Y-96571500D02*
X135242856Y-96571500D01*
X136742856Y-97285786D02*
X136742856Y-95785786D01*
X136742856Y-95785786D02*
X137242856Y-96857215D01*
X137242856Y-96857215D02*
X137742856Y-95785786D01*
X137742856Y-95785786D02*
X137742856Y-97285786D01*
X138385714Y-97214358D02*
X138528571Y-97285786D01*
X138528571Y-97285786D02*
X138814285Y-97285786D01*
X138814285Y-97285786D02*
X138957142Y-97214358D01*
X138957142Y-97214358D02*
X139028571Y-97071500D01*
X139028571Y-97071500D02*
X139028571Y-97000072D01*
X139028571Y-97000072D02*
X138957142Y-96857215D01*
X138957142Y-96857215D02*
X138814285Y-96785786D01*
X138814285Y-96785786D02*
X138600000Y-96785786D01*
X138600000Y-96785786D02*
X138457142Y-96714358D01*
X138457142Y-96714358D02*
X138385714Y-96571500D01*
X138385714Y-96571500D02*
X138385714Y-96500072D01*
X138385714Y-96500072D02*
X138457142Y-96357215D01*
X138457142Y-96357215D02*
X138600000Y-96285786D01*
X138600000Y-96285786D02*
X138814285Y-96285786D01*
X138814285Y-96285786D02*
X138957142Y-96357215D01*
X115528573Y-98700702D02*
X115528573Y-99700702D01*
X115171430Y-98129274D02*
X114814287Y-99200702D01*
X114814287Y-99200702D02*
X115742858Y-99200702D01*
X116528572Y-98843559D02*
X116385715Y-98772131D01*
X116385715Y-98772131D02*
X116314286Y-98700702D01*
X116314286Y-98700702D02*
X116242858Y-98557845D01*
X116242858Y-98557845D02*
X116242858Y-98486416D01*
X116242858Y-98486416D02*
X116314286Y-98343559D01*
X116314286Y-98343559D02*
X116385715Y-98272131D01*
X116385715Y-98272131D02*
X116528572Y-98200702D01*
X116528572Y-98200702D02*
X116814286Y-98200702D01*
X116814286Y-98200702D02*
X116957144Y-98272131D01*
X116957144Y-98272131D02*
X117028572Y-98343559D01*
X117028572Y-98343559D02*
X117100001Y-98486416D01*
X117100001Y-98486416D02*
X117100001Y-98557845D01*
X117100001Y-98557845D02*
X117028572Y-98700702D01*
X117028572Y-98700702D02*
X116957144Y-98772131D01*
X116957144Y-98772131D02*
X116814286Y-98843559D01*
X116814286Y-98843559D02*
X116528572Y-98843559D01*
X116528572Y-98843559D02*
X116385715Y-98914988D01*
X116385715Y-98914988D02*
X116314286Y-98986416D01*
X116314286Y-98986416D02*
X116242858Y-99129274D01*
X116242858Y-99129274D02*
X116242858Y-99414988D01*
X116242858Y-99414988D02*
X116314286Y-99557845D01*
X116314286Y-99557845D02*
X116385715Y-99629274D01*
X116385715Y-99629274D02*
X116528572Y-99700702D01*
X116528572Y-99700702D02*
X116814286Y-99700702D01*
X116814286Y-99700702D02*
X116957144Y-99629274D01*
X116957144Y-99629274D02*
X117028572Y-99557845D01*
X117028572Y-99557845D02*
X117100001Y-99414988D01*
X117100001Y-99414988D02*
X117100001Y-99129274D01*
X117100001Y-99129274D02*
X117028572Y-98986416D01*
X117028572Y-98986416D02*
X116957144Y-98914988D01*
X116957144Y-98914988D02*
X116814286Y-98843559D01*
X117742857Y-99557845D02*
X117814286Y-99629274D01*
X117814286Y-99629274D02*
X117742857Y-99700702D01*
X117742857Y-99700702D02*
X117671429Y-99629274D01*
X117671429Y-99629274D02*
X117742857Y-99557845D01*
X117742857Y-99557845D02*
X117742857Y-99700702D01*
X118671429Y-98843559D02*
X118528572Y-98772131D01*
X118528572Y-98772131D02*
X118457143Y-98700702D01*
X118457143Y-98700702D02*
X118385715Y-98557845D01*
X118385715Y-98557845D02*
X118385715Y-98486416D01*
X118385715Y-98486416D02*
X118457143Y-98343559D01*
X118457143Y-98343559D02*
X118528572Y-98272131D01*
X118528572Y-98272131D02*
X118671429Y-98200702D01*
X118671429Y-98200702D02*
X118957143Y-98200702D01*
X118957143Y-98200702D02*
X119100001Y-98272131D01*
X119100001Y-98272131D02*
X119171429Y-98343559D01*
X119171429Y-98343559D02*
X119242858Y-98486416D01*
X119242858Y-98486416D02*
X119242858Y-98557845D01*
X119242858Y-98557845D02*
X119171429Y-98700702D01*
X119171429Y-98700702D02*
X119100001Y-98772131D01*
X119100001Y-98772131D02*
X118957143Y-98843559D01*
X118957143Y-98843559D02*
X118671429Y-98843559D01*
X118671429Y-98843559D02*
X118528572Y-98914988D01*
X118528572Y-98914988D02*
X118457143Y-98986416D01*
X118457143Y-98986416D02*
X118385715Y-99129274D01*
X118385715Y-99129274D02*
X118385715Y-99414988D01*
X118385715Y-99414988D02*
X118457143Y-99557845D01*
X118457143Y-99557845D02*
X118528572Y-99629274D01*
X118528572Y-99629274D02*
X118671429Y-99700702D01*
X118671429Y-99700702D02*
X118957143Y-99700702D01*
X118957143Y-99700702D02*
X119100001Y-99629274D01*
X119100001Y-99629274D02*
X119171429Y-99557845D01*
X119171429Y-99557845D02*
X119242858Y-99414988D01*
X119242858Y-99414988D02*
X119242858Y-99129274D01*
X119242858Y-99129274D02*
X119171429Y-98986416D01*
X119171429Y-98986416D02*
X119100001Y-98914988D01*
X119100001Y-98914988D02*
X118957143Y-98843559D01*
X120885714Y-99700702D02*
X121671429Y-98700702D01*
X120885714Y-98700702D02*
X121671429Y-99700702D01*
X124028572Y-98700702D02*
X124028572Y-99700702D01*
X123671429Y-98129274D02*
X123314286Y-99200702D01*
X123314286Y-99200702D02*
X124242857Y-99200702D01*
X125028571Y-98843559D02*
X124885714Y-98772131D01*
X124885714Y-98772131D02*
X124814285Y-98700702D01*
X124814285Y-98700702D02*
X124742857Y-98557845D01*
X124742857Y-98557845D02*
X124742857Y-98486416D01*
X124742857Y-98486416D02*
X124814285Y-98343559D01*
X124814285Y-98343559D02*
X124885714Y-98272131D01*
X124885714Y-98272131D02*
X125028571Y-98200702D01*
X125028571Y-98200702D02*
X125314285Y-98200702D01*
X125314285Y-98200702D02*
X125457143Y-98272131D01*
X125457143Y-98272131D02*
X125528571Y-98343559D01*
X125528571Y-98343559D02*
X125600000Y-98486416D01*
X125600000Y-98486416D02*
X125600000Y-98557845D01*
X125600000Y-98557845D02*
X125528571Y-98700702D01*
X125528571Y-98700702D02*
X125457143Y-98772131D01*
X125457143Y-98772131D02*
X125314285Y-98843559D01*
X125314285Y-98843559D02*
X125028571Y-98843559D01*
X125028571Y-98843559D02*
X124885714Y-98914988D01*
X124885714Y-98914988D02*
X124814285Y-98986416D01*
X124814285Y-98986416D02*
X124742857Y-99129274D01*
X124742857Y-99129274D02*
X124742857Y-99414988D01*
X124742857Y-99414988D02*
X124814285Y-99557845D01*
X124814285Y-99557845D02*
X124885714Y-99629274D01*
X124885714Y-99629274D02*
X125028571Y-99700702D01*
X125028571Y-99700702D02*
X125314285Y-99700702D01*
X125314285Y-99700702D02*
X125457143Y-99629274D01*
X125457143Y-99629274D02*
X125528571Y-99557845D01*
X125528571Y-99557845D02*
X125600000Y-99414988D01*
X125600000Y-99414988D02*
X125600000Y-99129274D01*
X125600000Y-99129274D02*
X125528571Y-98986416D01*
X125528571Y-98986416D02*
X125457143Y-98914988D01*
X125457143Y-98914988D02*
X125314285Y-98843559D01*
X126242856Y-99557845D02*
X126314285Y-99629274D01*
X126314285Y-99629274D02*
X126242856Y-99700702D01*
X126242856Y-99700702D02*
X126171428Y-99629274D01*
X126171428Y-99629274D02*
X126242856Y-99557845D01*
X126242856Y-99557845D02*
X126242856Y-99700702D01*
X127171428Y-98843559D02*
X127028571Y-98772131D01*
X127028571Y-98772131D02*
X126957142Y-98700702D01*
X126957142Y-98700702D02*
X126885714Y-98557845D01*
X126885714Y-98557845D02*
X126885714Y-98486416D01*
X126885714Y-98486416D02*
X126957142Y-98343559D01*
X126957142Y-98343559D02*
X127028571Y-98272131D01*
X127028571Y-98272131D02*
X127171428Y-98200702D01*
X127171428Y-98200702D02*
X127457142Y-98200702D01*
X127457142Y-98200702D02*
X127600000Y-98272131D01*
X127600000Y-98272131D02*
X127671428Y-98343559D01*
X127671428Y-98343559D02*
X127742857Y-98486416D01*
X127742857Y-98486416D02*
X127742857Y-98557845D01*
X127742857Y-98557845D02*
X127671428Y-98700702D01*
X127671428Y-98700702D02*
X127600000Y-98772131D01*
X127600000Y-98772131D02*
X127457142Y-98843559D01*
X127457142Y-98843559D02*
X127171428Y-98843559D01*
X127171428Y-98843559D02*
X127028571Y-98914988D01*
X127028571Y-98914988D02*
X126957142Y-98986416D01*
X126957142Y-98986416D02*
X126885714Y-99129274D01*
X126885714Y-99129274D02*
X126885714Y-99414988D01*
X126885714Y-99414988D02*
X126957142Y-99557845D01*
X126957142Y-99557845D02*
X127028571Y-99629274D01*
X127028571Y-99629274D02*
X127171428Y-99700702D01*
X127171428Y-99700702D02*
X127457142Y-99700702D01*
X127457142Y-99700702D02*
X127600000Y-99629274D01*
X127600000Y-99629274D02*
X127671428Y-99557845D01*
X127671428Y-99557845D02*
X127742857Y-99414988D01*
X127742857Y-99414988D02*
X127742857Y-99129274D01*
X127742857Y-99129274D02*
X127671428Y-98986416D01*
X127671428Y-98986416D02*
X127600000Y-98914988D01*
X127600000Y-98914988D02*
X127457142Y-98843559D01*
X129528570Y-99700702D02*
X129528570Y-98700702D01*
X129528570Y-98843559D02*
X129599999Y-98772131D01*
X129599999Y-98772131D02*
X129742856Y-98700702D01*
X129742856Y-98700702D02*
X129957142Y-98700702D01*
X129957142Y-98700702D02*
X130099999Y-98772131D01*
X130099999Y-98772131D02*
X130171428Y-98914988D01*
X130171428Y-98914988D02*
X130171428Y-99700702D01*
X130171428Y-98914988D02*
X130242856Y-98772131D01*
X130242856Y-98772131D02*
X130385713Y-98700702D01*
X130385713Y-98700702D02*
X130599999Y-98700702D01*
X130599999Y-98700702D02*
X130742856Y-98772131D01*
X130742856Y-98772131D02*
X130814285Y-98914988D01*
X130814285Y-98914988D02*
X130814285Y-99700702D01*
X131528570Y-99700702D02*
X131528570Y-98700702D01*
X131528570Y-98843559D02*
X131599999Y-98772131D01*
X131599999Y-98772131D02*
X131742856Y-98700702D01*
X131742856Y-98700702D02*
X131957142Y-98700702D01*
X131957142Y-98700702D02*
X132099999Y-98772131D01*
X132099999Y-98772131D02*
X132171428Y-98914988D01*
X132171428Y-98914988D02*
X132171428Y-99700702D01*
X132171428Y-98914988D02*
X132242856Y-98772131D01*
X132242856Y-98772131D02*
X132385713Y-98700702D01*
X132385713Y-98700702D02*
X132599999Y-98700702D01*
X132599999Y-98700702D02*
X132742856Y-98772131D01*
X132742856Y-98772131D02*
X132814285Y-98914988D01*
X132814285Y-98914988D02*
X132814285Y-99700702D01*
X133457142Y-98343559D02*
X133528570Y-98272131D01*
X133528570Y-98272131D02*
X133671428Y-98200702D01*
X133671428Y-98200702D02*
X134028570Y-98200702D01*
X134028570Y-98200702D02*
X134171428Y-98272131D01*
X134171428Y-98272131D02*
X134242856Y-98343559D01*
X134242856Y-98343559D02*
X134314285Y-98486416D01*
X134314285Y-98486416D02*
X134314285Y-98629274D01*
X134314285Y-98629274D02*
X134242856Y-98843559D01*
X134242856Y-98843559D02*
X133385713Y-99700702D01*
X133385713Y-99700702D02*
X134314285Y-99700702D01*
X136028570Y-99629274D02*
X136171427Y-99700702D01*
X136171427Y-99700702D02*
X136457141Y-99700702D01*
X136457141Y-99700702D02*
X136599998Y-99629274D01*
X136599998Y-99629274D02*
X136671427Y-99486416D01*
X136671427Y-99486416D02*
X136671427Y-99414988D01*
X136671427Y-99414988D02*
X136599998Y-99272131D01*
X136599998Y-99272131D02*
X136457141Y-99200702D01*
X136457141Y-99200702D02*
X136242856Y-99200702D01*
X136242856Y-99200702D02*
X136099998Y-99129274D01*
X136099998Y-99129274D02*
X136028570Y-98986416D01*
X136028570Y-98986416D02*
X136028570Y-98914988D01*
X136028570Y-98914988D02*
X136099998Y-98772131D01*
X136099998Y-98772131D02*
X136242856Y-98700702D01*
X136242856Y-98700702D02*
X136457141Y-98700702D01*
X136457141Y-98700702D02*
X136599998Y-98772131D01*
X137957142Y-99629274D02*
X137814284Y-99700702D01*
X137814284Y-99700702D02*
X137528570Y-99700702D01*
X137528570Y-99700702D02*
X137385713Y-99629274D01*
X137385713Y-99629274D02*
X137314284Y-99557845D01*
X137314284Y-99557845D02*
X137242856Y-99414988D01*
X137242856Y-99414988D02*
X137242856Y-98986416D01*
X137242856Y-98986416D02*
X137314284Y-98843559D01*
X137314284Y-98843559D02*
X137385713Y-98772131D01*
X137385713Y-98772131D02*
X137528570Y-98700702D01*
X137528570Y-98700702D02*
X137814284Y-98700702D01*
X137814284Y-98700702D02*
X137957142Y-98772131D01*
X138599998Y-99700702D02*
X138599998Y-98700702D01*
X138599998Y-98200702D02*
X138528570Y-98272131D01*
X138528570Y-98272131D02*
X138599998Y-98343559D01*
X138599998Y-98343559D02*
X138671427Y-98272131D01*
X138671427Y-98272131D02*
X138599998Y-98200702D01*
X138599998Y-98200702D02*
X138599998Y-98343559D01*
X139314284Y-98700702D02*
X139314284Y-99700702D01*
X139314284Y-98843559D02*
X139385713Y-98772131D01*
X139385713Y-98772131D02*
X139528570Y-98700702D01*
X139528570Y-98700702D02*
X139742856Y-98700702D01*
X139742856Y-98700702D02*
X139885713Y-98772131D01*
X139885713Y-98772131D02*
X139957142Y-98914988D01*
X139957142Y-98914988D02*
X139957142Y-99700702D01*
X140457142Y-98700702D02*
X141028570Y-98700702D01*
X140671427Y-98200702D02*
X140671427Y-99486416D01*
X140671427Y-99486416D02*
X140742856Y-99629274D01*
X140742856Y-99629274D02*
X140885713Y-99700702D01*
X140885713Y-99700702D02*
X141028570Y-99700702D01*
X143314285Y-99629274D02*
X143171427Y-99700702D01*
X143171427Y-99700702D02*
X142885713Y-99700702D01*
X142885713Y-99700702D02*
X142742856Y-99629274D01*
X142742856Y-99629274D02*
X142671427Y-99557845D01*
X142671427Y-99557845D02*
X142599999Y-99414988D01*
X142599999Y-99414988D02*
X142599999Y-98986416D01*
X142599999Y-98986416D02*
X142671427Y-98843559D01*
X142671427Y-98843559D02*
X142742856Y-98772131D01*
X142742856Y-98772131D02*
X142885713Y-98700702D01*
X142885713Y-98700702D02*
X143171427Y-98700702D01*
X143171427Y-98700702D02*
X143314285Y-98772131D01*
X144528570Y-99629274D02*
X144385713Y-99700702D01*
X144385713Y-99700702D02*
X144099999Y-99700702D01*
X144099999Y-99700702D02*
X143957141Y-99629274D01*
X143957141Y-99629274D02*
X143885713Y-99486416D01*
X143885713Y-99486416D02*
X143885713Y-98914988D01*
X143885713Y-98914988D02*
X143957141Y-98772131D01*
X143957141Y-98772131D02*
X144099999Y-98700702D01*
X144099999Y-98700702D02*
X144385713Y-98700702D01*
X144385713Y-98700702D02*
X144528570Y-98772131D01*
X144528570Y-98772131D02*
X144599999Y-98914988D01*
X144599999Y-98914988D02*
X144599999Y-99057845D01*
X144599999Y-99057845D02*
X143885713Y-99200702D01*
X145457141Y-99700702D02*
X145314284Y-99629274D01*
X145314284Y-99629274D02*
X145242855Y-99486416D01*
X145242855Y-99486416D02*
X145242855Y-98200702D01*
X146242855Y-99700702D02*
X146099998Y-99629274D01*
X146099998Y-99629274D02*
X146028569Y-99486416D01*
X146028569Y-99486416D02*
X146028569Y-98200702D01*
X146742855Y-99629274D02*
X146885712Y-99700702D01*
X146885712Y-99700702D02*
X147171426Y-99700702D01*
X147171426Y-99700702D02*
X147314283Y-99629274D01*
X147314283Y-99629274D02*
X147385712Y-99486416D01*
X147385712Y-99486416D02*
X147385712Y-99414988D01*
X147385712Y-99414988D02*
X147314283Y-99272131D01*
X147314283Y-99272131D02*
X147171426Y-99200702D01*
X147171426Y-99200702D02*
X146957141Y-99200702D01*
X146957141Y-99200702D02*
X146814283Y-99129274D01*
X146814283Y-99129274D02*
X146742855Y-98986416D01*
X146742855Y-98986416D02*
X146742855Y-98914988D01*
X146742855Y-98914988D02*
X146814283Y-98772131D01*
X146814283Y-98772131D02*
X146957141Y-98700702D01*
X146957141Y-98700702D02*
X147171426Y-98700702D01*
X147171426Y-98700702D02*
X147314283Y-98772131D01*
X125885715Y-100615618D02*
X126385715Y-102115618D01*
X126385715Y-102115618D02*
X126885715Y-100615618D01*
X127957143Y-102044190D02*
X127814286Y-102115618D01*
X127814286Y-102115618D02*
X127528572Y-102115618D01*
X127528572Y-102115618D02*
X127385714Y-102044190D01*
X127385714Y-102044190D02*
X127314286Y-101901332D01*
X127314286Y-101901332D02*
X127314286Y-101329904D01*
X127314286Y-101329904D02*
X127385714Y-101187047D01*
X127385714Y-101187047D02*
X127528572Y-101115618D01*
X127528572Y-101115618D02*
X127814286Y-101115618D01*
X127814286Y-101115618D02*
X127957143Y-101187047D01*
X127957143Y-101187047D02*
X128028572Y-101329904D01*
X128028572Y-101329904D02*
X128028572Y-101472761D01*
X128028572Y-101472761D02*
X127314286Y-101615618D01*
X128671428Y-102115618D02*
X128671428Y-101115618D01*
X128671428Y-101401332D02*
X128742857Y-101258475D01*
X128742857Y-101258475D02*
X128814286Y-101187047D01*
X128814286Y-101187047D02*
X128957143Y-101115618D01*
X128957143Y-101115618D02*
X129100000Y-101115618D01*
X129528571Y-102044190D02*
X129671428Y-102115618D01*
X129671428Y-102115618D02*
X129957142Y-102115618D01*
X129957142Y-102115618D02*
X130099999Y-102044190D01*
X130099999Y-102044190D02*
X130171428Y-101901332D01*
X130171428Y-101901332D02*
X130171428Y-101829904D01*
X130171428Y-101829904D02*
X130099999Y-101687047D01*
X130099999Y-101687047D02*
X129957142Y-101615618D01*
X129957142Y-101615618D02*
X129742857Y-101615618D01*
X129742857Y-101615618D02*
X129599999Y-101544190D01*
X129599999Y-101544190D02*
X129528571Y-101401332D01*
X129528571Y-101401332D02*
X129528571Y-101329904D01*
X129528571Y-101329904D02*
X129599999Y-101187047D01*
X129599999Y-101187047D02*
X129742857Y-101115618D01*
X129742857Y-101115618D02*
X129957142Y-101115618D01*
X129957142Y-101115618D02*
X130099999Y-101187047D01*
X130814285Y-102115618D02*
X130814285Y-101115618D01*
X130814285Y-100615618D02*
X130742857Y-100687047D01*
X130742857Y-100687047D02*
X130814285Y-100758475D01*
X130814285Y-100758475D02*
X130885714Y-100687047D01*
X130885714Y-100687047D02*
X130814285Y-100615618D01*
X130814285Y-100615618D02*
X130814285Y-100758475D01*
X131742857Y-102115618D02*
X131600000Y-102044190D01*
X131600000Y-102044190D02*
X131528571Y-101972761D01*
X131528571Y-101972761D02*
X131457143Y-101829904D01*
X131457143Y-101829904D02*
X131457143Y-101401332D01*
X131457143Y-101401332D02*
X131528571Y-101258475D01*
X131528571Y-101258475D02*
X131600000Y-101187047D01*
X131600000Y-101187047D02*
X131742857Y-101115618D01*
X131742857Y-101115618D02*
X131957143Y-101115618D01*
X131957143Y-101115618D02*
X132100000Y-101187047D01*
X132100000Y-101187047D02*
X132171429Y-101258475D01*
X132171429Y-101258475D02*
X132242857Y-101401332D01*
X132242857Y-101401332D02*
X132242857Y-101829904D01*
X132242857Y-101829904D02*
X132171429Y-101972761D01*
X132171429Y-101972761D02*
X132100000Y-102044190D01*
X132100000Y-102044190D02*
X131957143Y-102115618D01*
X131957143Y-102115618D02*
X131742857Y-102115618D01*
X132885714Y-101115618D02*
X132885714Y-102115618D01*
X132885714Y-101258475D02*
X132957143Y-101187047D01*
X132957143Y-101187047D02*
X133100000Y-101115618D01*
X133100000Y-101115618D02*
X133314286Y-101115618D01*
X133314286Y-101115618D02*
X133457143Y-101187047D01*
X133457143Y-101187047D02*
X133528572Y-101329904D01*
X133528572Y-101329904D02*
X133528572Y-102115618D01*
X136171429Y-102115618D02*
X135314286Y-102115618D01*
X135742857Y-102115618D02*
X135742857Y-100615618D01*
X135742857Y-100615618D02*
X135600000Y-100829904D01*
X135600000Y-100829904D02*
X135457143Y-100972761D01*
X135457143Y-100972761D02*
X135314286Y-101044190D01*
D10*
X4503884Y-79772419D02*
X4503884Y-79105752D01*
X4503884Y-79296228D02*
X4551503Y-79200990D01*
X4551503Y-79200990D02*
X4599122Y-79153371D01*
X4599122Y-79153371D02*
X4694360Y-79105752D01*
X4694360Y-79105752D02*
X4789598Y-79105752D01*
X5122932Y-79248609D02*
X5884837Y-79248609D01*
X5884837Y-79534323D02*
X5122932Y-79534323D01*
X6884836Y-79772419D02*
X6313408Y-79772419D01*
X6599122Y-79772419D02*
X6599122Y-78772419D01*
X6599122Y-78772419D02*
X6503884Y-78915276D01*
X6503884Y-78915276D02*
X6408646Y-79010514D01*
X6408646Y-79010514D02*
X6313408Y-79058133D01*
X7313408Y-79677180D02*
X7361027Y-79724800D01*
X7361027Y-79724800D02*
X7313408Y-79772419D01*
X7313408Y-79772419D02*
X7265789Y-79724800D01*
X7265789Y-79724800D02*
X7313408Y-79677180D01*
X7313408Y-79677180D02*
X7313408Y-79772419D01*
X8218169Y-78772419D02*
X8027693Y-78772419D01*
X8027693Y-78772419D02*
X7932455Y-78820038D01*
X7932455Y-78820038D02*
X7884836Y-78867657D01*
X7884836Y-78867657D02*
X7789598Y-79010514D01*
X7789598Y-79010514D02*
X7741979Y-79200990D01*
X7741979Y-79200990D02*
X7741979Y-79581942D01*
X7741979Y-79581942D02*
X7789598Y-79677180D01*
X7789598Y-79677180D02*
X7837217Y-79724800D01*
X7837217Y-79724800D02*
X7932455Y-79772419D01*
X7932455Y-79772419D02*
X8122931Y-79772419D01*
X8122931Y-79772419D02*
X8218169Y-79724800D01*
X8218169Y-79724800D02*
X8265788Y-79677180D01*
X8265788Y-79677180D02*
X8313407Y-79581942D01*
X8313407Y-79581942D02*
X8313407Y-79343847D01*
X8313407Y-79343847D02*
X8265788Y-79248609D01*
X8265788Y-79248609D02*
X8218169Y-79200990D01*
X8218169Y-79200990D02*
X8122931Y-79153371D01*
X8122931Y-79153371D02*
X7932455Y-79153371D01*
X7932455Y-79153371D02*
X7837217Y-79200990D01*
X7837217Y-79200990D02*
X7789598Y-79248609D01*
X7789598Y-79248609D02*
X7741979Y-79343847D01*
X9503884Y-79772419D02*
X9503884Y-79105752D01*
X9503884Y-79200990D02*
X9551503Y-79153371D01*
X9551503Y-79153371D02*
X9646741Y-79105752D01*
X9646741Y-79105752D02*
X9789598Y-79105752D01*
X9789598Y-79105752D02*
X9884836Y-79153371D01*
X9884836Y-79153371D02*
X9932455Y-79248609D01*
X9932455Y-79248609D02*
X9932455Y-79772419D01*
X9932455Y-79248609D02*
X9980074Y-79153371D01*
X9980074Y-79153371D02*
X10075312Y-79105752D01*
X10075312Y-79105752D02*
X10218169Y-79105752D01*
X10218169Y-79105752D02*
X10313408Y-79153371D01*
X10313408Y-79153371D02*
X10361027Y-79248609D01*
X10361027Y-79248609D02*
X10361027Y-79772419D01*
X10837217Y-79772419D02*
X10837217Y-79105752D01*
X10837217Y-79200990D02*
X10884836Y-79153371D01*
X10884836Y-79153371D02*
X10980074Y-79105752D01*
X10980074Y-79105752D02*
X11122931Y-79105752D01*
X11122931Y-79105752D02*
X11218169Y-79153371D01*
X11218169Y-79153371D02*
X11265788Y-79248609D01*
X11265788Y-79248609D02*
X11265788Y-79772419D01*
X11265788Y-79248609D02*
X11313407Y-79153371D01*
X11313407Y-79153371D02*
X11408645Y-79105752D01*
X11408645Y-79105752D02*
X11551502Y-79105752D01*
X11551502Y-79105752D02*
X11646741Y-79153371D01*
X11646741Y-79153371D02*
X11694360Y-79248609D01*
X11694360Y-79248609D02*
X11694360Y-79772419D01*
D12*
X36861905Y-70105295D02*
X37338095Y-70105295D01*
X37338095Y-70105295D02*
X37814286Y-70343390D01*
X37814286Y-70343390D02*
X38052381Y-70581485D01*
X38052381Y-70581485D02*
X38290476Y-71057676D01*
X38290476Y-71057676D02*
X38528571Y-72010057D01*
X38528571Y-72010057D02*
X38528571Y-73200533D01*
X38528571Y-73200533D02*
X38290476Y-74152914D01*
X38290476Y-74152914D02*
X38052381Y-74629104D01*
X38052381Y-74629104D02*
X37814286Y-74867200D01*
X37814286Y-74867200D02*
X37338095Y-75105295D01*
X37338095Y-75105295D02*
X36861905Y-75105295D01*
X36861905Y-75105295D02*
X36385714Y-74867200D01*
X36385714Y-74867200D02*
X36147619Y-74629104D01*
X36147619Y-74629104D02*
X35909524Y-74152914D01*
X35909524Y-74152914D02*
X35671428Y-73200533D01*
X35671428Y-73200533D02*
X35671428Y-72010057D01*
X35671428Y-72010057D02*
X35909524Y-71057676D01*
X35909524Y-71057676D02*
X36147619Y-70581485D01*
X36147619Y-70581485D02*
X36385714Y-70343390D01*
X36385714Y-70343390D02*
X36861905Y-70105295D01*
X282090476Y-70105295D02*
X279709524Y-70105295D01*
X279709524Y-70105295D02*
X279471428Y-72486247D01*
X279471428Y-72486247D02*
X279709524Y-72248152D01*
X279709524Y-72248152D02*
X280185714Y-72010057D01*
X280185714Y-72010057D02*
X281376190Y-72010057D01*
X281376190Y-72010057D02*
X281852381Y-72248152D01*
X281852381Y-72248152D02*
X282090476Y-72486247D01*
X282090476Y-72486247D02*
X282328571Y-72962438D01*
X282328571Y-72962438D02*
X282328571Y-74152914D01*
X282328571Y-74152914D02*
X282090476Y-74629104D01*
X282090476Y-74629104D02*
X281852381Y-74867200D01*
X281852381Y-74867200D02*
X281376190Y-75105295D01*
X281376190Y-75105295D02*
X280185714Y-75105295D01*
X280185714Y-75105295D02*
X279709524Y-74867200D01*
X279709524Y-74867200D02*
X279471428Y-74629104D01*
X147709524Y-102854819D02*
X148328571Y-102854819D01*
X148328571Y-102854819D02*
X147995238Y-103235771D01*
X147995238Y-103235771D02*
X148138095Y-103235771D01*
X148138095Y-103235771D02*
X148233333Y-103283390D01*
X148233333Y-103283390D02*
X148280952Y-103331009D01*
X148280952Y-103331009D02*
X148328571Y-103426247D01*
X148328571Y-103426247D02*
X148328571Y-103664342D01*
X148328571Y-103664342D02*
X148280952Y-103759580D01*
X148280952Y-103759580D02*
X148233333Y-103807200D01*
X148233333Y-103807200D02*
X148138095Y-103854819D01*
X148138095Y-103854819D02*
X147852381Y-103854819D01*
X147852381Y-103854819D02*
X147757143Y-103807200D01*
X147757143Y-103807200D02*
X147709524Y-103759580D01*
X148804762Y-103854819D02*
X148995238Y-103854819D01*
X148995238Y-103854819D02*
X149090476Y-103807200D01*
X149090476Y-103807200D02*
X149138095Y-103759580D01*
X149138095Y-103759580D02*
X149233333Y-103616723D01*
X149233333Y-103616723D02*
X149280952Y-103426247D01*
X149280952Y-103426247D02*
X149280952Y-103045295D01*
X149280952Y-103045295D02*
X149233333Y-102950057D01*
X149233333Y-102950057D02*
X149185714Y-102902438D01*
X149185714Y-102902438D02*
X149090476Y-102854819D01*
X149090476Y-102854819D02*
X148900000Y-102854819D01*
X148900000Y-102854819D02*
X148804762Y-102902438D01*
X148804762Y-102902438D02*
X148757143Y-102950057D01*
X148757143Y-102950057D02*
X148709524Y-103045295D01*
X148709524Y-103045295D02*
X148709524Y-103283390D01*
X148709524Y-103283390D02*
X148757143Y-103378628D01*
X148757143Y-103378628D02*
X148804762Y-103426247D01*
X148804762Y-103426247D02*
X148900000Y-103473866D01*
X148900000Y-103473866D02*
X149090476Y-103473866D01*
X149090476Y-103473866D02*
X149185714Y-103426247D01*
X149185714Y-103426247D02*
X149233333Y-103378628D01*
X149233333Y-103378628D02*
X149280952Y-103283390D01*
X149900000Y-102854819D02*
X149995238Y-102854819D01*
X149995238Y-102854819D02*
X150090476Y-102902438D01*
X150090476Y-102902438D02*
X150138095Y-102950057D01*
X150138095Y-102950057D02*
X150185714Y-103045295D01*
X150185714Y-103045295D02*
X150233333Y-103235771D01*
X150233333Y-103235771D02*
X150233333Y-103473866D01*
X150233333Y-103473866D02*
X150185714Y-103664342D01*
X150185714Y-103664342D02*
X150138095Y-103759580D01*
X150138095Y-103759580D02*
X150090476Y-103807200D01*
X150090476Y-103807200D02*
X149995238Y-103854819D01*
X149995238Y-103854819D02*
X149900000Y-103854819D01*
X149900000Y-103854819D02*
X149804762Y-103807200D01*
X149804762Y-103807200D02*
X149757143Y-103759580D01*
X149757143Y-103759580D02*
X149709524Y-103664342D01*
X149709524Y-103664342D02*
X149661905Y-103473866D01*
X149661905Y-103473866D02*
X149661905Y-103235771D01*
X149661905Y-103235771D02*
X149709524Y-103045295D01*
X149709524Y-103045295D02*
X149757143Y-102950057D01*
X149757143Y-102950057D02*
X149804762Y-102902438D01*
X149804762Y-102902438D02*
X149900000Y-102854819D01*
X150661905Y-103759580D02*
X150709524Y-103807200D01*
X150709524Y-103807200D02*
X150661905Y-103854819D01*
X150661905Y-103854819D02*
X150614286Y-103807200D01*
X150614286Y-103807200D02*
X150661905Y-103759580D01*
X150661905Y-103759580D02*
X150661905Y-103854819D01*
X151566666Y-103188152D02*
X151566666Y-103854819D01*
X151328571Y-102807200D02*
X151090476Y-103521485D01*
X151090476Y-103521485D02*
X151709523Y-103521485D01*
X152280952Y-102854819D02*
X152376190Y-102854819D01*
X152376190Y-102854819D02*
X152471428Y-102902438D01*
X152471428Y-102902438D02*
X152519047Y-102950057D01*
X152519047Y-102950057D02*
X152566666Y-103045295D01*
X152566666Y-103045295D02*
X152614285Y-103235771D01*
X152614285Y-103235771D02*
X152614285Y-103473866D01*
X152614285Y-103473866D02*
X152566666Y-103664342D01*
X152566666Y-103664342D02*
X152519047Y-103759580D01*
X152519047Y-103759580D02*
X152471428Y-103807200D01*
X152471428Y-103807200D02*
X152376190Y-103854819D01*
X152376190Y-103854819D02*
X152280952Y-103854819D01*
X152280952Y-103854819D02*
X152185714Y-103807200D01*
X152185714Y-103807200D02*
X152138095Y-103759580D01*
X152138095Y-103759580D02*
X152090476Y-103664342D01*
X152090476Y-103664342D02*
X152042857Y-103473866D01*
X152042857Y-103473866D02*
X152042857Y-103235771D01*
X152042857Y-103235771D02*
X152090476Y-103045295D01*
X152090476Y-103045295D02*
X152138095Y-102950057D01*
X152138095Y-102950057D02*
X152185714Y-102902438D01*
X152185714Y-102902438D02*
X152280952Y-102854819D01*
X153804762Y-103854819D02*
X153804762Y-103188152D01*
X153804762Y-103283390D02*
X153852381Y-103235771D01*
X153852381Y-103235771D02*
X153947619Y-103188152D01*
X153947619Y-103188152D02*
X154090476Y-103188152D01*
X154090476Y-103188152D02*
X154185714Y-103235771D01*
X154185714Y-103235771D02*
X154233333Y-103331009D01*
X154233333Y-103331009D02*
X154233333Y-103854819D01*
X154233333Y-103331009D02*
X154280952Y-103235771D01*
X154280952Y-103235771D02*
X154376190Y-103188152D01*
X154376190Y-103188152D02*
X154519047Y-103188152D01*
X154519047Y-103188152D02*
X154614286Y-103235771D01*
X154614286Y-103235771D02*
X154661905Y-103331009D01*
X154661905Y-103331009D02*
X154661905Y-103854819D01*
X155138095Y-103854819D02*
X155138095Y-103188152D01*
X155138095Y-103283390D02*
X155185714Y-103235771D01*
X155185714Y-103235771D02*
X155280952Y-103188152D01*
X155280952Y-103188152D02*
X155423809Y-103188152D01*
X155423809Y-103188152D02*
X155519047Y-103235771D01*
X155519047Y-103235771D02*
X155566666Y-103331009D01*
X155566666Y-103331009D02*
X155566666Y-103854819D01*
X155566666Y-103331009D02*
X155614285Y-103235771D01*
X155614285Y-103235771D02*
X155709523Y-103188152D01*
X155709523Y-103188152D02*
X155852380Y-103188152D01*
X155852380Y-103188152D02*
X155947619Y-103235771D01*
X155947619Y-103235771D02*
X155995238Y-103331009D01*
X155995238Y-103331009D02*
X155995238Y-103854819D01*
X12900000Y-101962827D02*
X12900000Y-105536744D01*
X403300000Y-101962827D02*
X403300000Y-105536744D01*
X12900000Y-104950324D02*
X403300000Y-104950324D01*
X12900000Y-104950324D02*
X403300000Y-104950324D01*
X12900000Y-104950324D02*
X14026504Y-104363903D01*
X12900000Y-104950324D02*
X14026504Y-105536745D01*
X403300000Y-104950324D02*
X402173496Y-105536745D01*
X403300000Y-104950324D02*
X402173496Y-104363903D01*
X244088152Y-84583942D02*
X244754819Y-84583942D01*
X243707200Y-84822037D02*
X244421485Y-85060132D01*
X244421485Y-85060132D02*
X244421485Y-84441085D01*
X244183390Y-83917275D02*
X244135771Y-84012513D01*
X244135771Y-84012513D02*
X244088152Y-84060132D01*
X244088152Y-84060132D02*
X243992914Y-84107751D01*
X243992914Y-84107751D02*
X243945295Y-84107751D01*
X243945295Y-84107751D02*
X243850057Y-84060132D01*
X243850057Y-84060132D02*
X243802438Y-84012513D01*
X243802438Y-84012513D02*
X243754819Y-83917275D01*
X243754819Y-83917275D02*
X243754819Y-83726799D01*
X243754819Y-83726799D02*
X243802438Y-83631561D01*
X243802438Y-83631561D02*
X243850057Y-83583942D01*
X243850057Y-83583942D02*
X243945295Y-83536323D01*
X243945295Y-83536323D02*
X243992914Y-83536323D01*
X243992914Y-83536323D02*
X244088152Y-83583942D01*
X244088152Y-83583942D02*
X244135771Y-83631561D01*
X244135771Y-83631561D02*
X244183390Y-83726799D01*
X244183390Y-83726799D02*
X244183390Y-83917275D01*
X244183390Y-83917275D02*
X244231009Y-84012513D01*
X244231009Y-84012513D02*
X244278628Y-84060132D01*
X244278628Y-84060132D02*
X244373866Y-84107751D01*
X244373866Y-84107751D02*
X244564342Y-84107751D01*
X244564342Y-84107751D02*
X244659580Y-84060132D01*
X244659580Y-84060132D02*
X244707200Y-84012513D01*
X244707200Y-84012513D02*
X244754819Y-83917275D01*
X244754819Y-83917275D02*
X244754819Y-83726799D01*
X244754819Y-83726799D02*
X244707200Y-83631561D01*
X244707200Y-83631561D02*
X244659580Y-83583942D01*
X244659580Y-83583942D02*
X244564342Y-83536323D01*
X244564342Y-83536323D02*
X244373866Y-83536323D01*
X244373866Y-83536323D02*
X244278628Y-83583942D01*
X244278628Y-83583942D02*
X244231009Y-83631561D01*
X244231009Y-83631561D02*
X244183390Y-83726799D01*
X244659580Y-83107751D02*
X244707200Y-83060132D01*
X244707200Y-83060132D02*
X244754819Y-83107751D01*
X244754819Y-83107751D02*
X244707200Y-83155370D01*
X244707200Y-83155370D02*
X244659580Y-83107751D01*
X244659580Y-83107751D02*
X244754819Y-83107751D01*
X244183390Y-82488704D02*
X244135771Y-82583942D01*
X244135771Y-82583942D02*
X244088152Y-82631561D01*
X244088152Y-82631561D02*
X243992914Y-82679180D01*
X243992914Y-82679180D02*
X243945295Y-82679180D01*
X243945295Y-82679180D02*
X243850057Y-82631561D01*
X243850057Y-82631561D02*
X243802438Y-82583942D01*
X243802438Y-82583942D02*
X243754819Y-82488704D01*
X243754819Y-82488704D02*
X243754819Y-82298228D01*
X243754819Y-82298228D02*
X243802438Y-82202990D01*
X243802438Y-82202990D02*
X243850057Y-82155371D01*
X243850057Y-82155371D02*
X243945295Y-82107752D01*
X243945295Y-82107752D02*
X243992914Y-82107752D01*
X243992914Y-82107752D02*
X244088152Y-82155371D01*
X244088152Y-82155371D02*
X244135771Y-82202990D01*
X244135771Y-82202990D02*
X244183390Y-82298228D01*
X244183390Y-82298228D02*
X244183390Y-82488704D01*
X244183390Y-82488704D02*
X244231009Y-82583942D01*
X244231009Y-82583942D02*
X244278628Y-82631561D01*
X244278628Y-82631561D02*
X244373866Y-82679180D01*
X244373866Y-82679180D02*
X244564342Y-82679180D01*
X244564342Y-82679180D02*
X244659580Y-82631561D01*
X244659580Y-82631561D02*
X244707200Y-82583942D01*
X244707200Y-82583942D02*
X244754819Y-82488704D01*
X244754819Y-82488704D02*
X244754819Y-82298228D01*
X244754819Y-82298228D02*
X244707200Y-82202990D01*
X244707200Y-82202990D02*
X244659580Y-82155371D01*
X244659580Y-82155371D02*
X244564342Y-82107752D01*
X244564342Y-82107752D02*
X244373866Y-82107752D01*
X244373866Y-82107752D02*
X244278628Y-82155371D01*
X244278628Y-82155371D02*
X244231009Y-82202990D01*
X244231009Y-82202990D02*
X244183390Y-82298228D01*
X244754819Y-80917275D02*
X244088152Y-80917275D01*
X244183390Y-80917275D02*
X244135771Y-80869656D01*
X244135771Y-80869656D02*
X244088152Y-80774418D01*
X244088152Y-80774418D02*
X244088152Y-80631561D01*
X244088152Y-80631561D02*
X244135771Y-80536323D01*
X244135771Y-80536323D02*
X244231009Y-80488704D01*
X244231009Y-80488704D02*
X244754819Y-80488704D01*
X244231009Y-80488704D02*
X244135771Y-80441085D01*
X244135771Y-80441085D02*
X244088152Y-80345847D01*
X244088152Y-80345847D02*
X244088152Y-80202990D01*
X244088152Y-80202990D02*
X244135771Y-80107751D01*
X244135771Y-80107751D02*
X244231009Y-80060132D01*
X244231009Y-80060132D02*
X244754819Y-80060132D01*
X244754819Y-79583942D02*
X244088152Y-79583942D01*
X244183390Y-79583942D02*
X244135771Y-79536323D01*
X244135771Y-79536323D02*
X244088152Y-79441085D01*
X244088152Y-79441085D02*
X244088152Y-79298228D01*
X244088152Y-79298228D02*
X244135771Y-79202990D01*
X244135771Y-79202990D02*
X244231009Y-79155371D01*
X244231009Y-79155371D02*
X244754819Y-79155371D01*
X244231009Y-79155371D02*
X244135771Y-79107752D01*
X244135771Y-79107752D02*
X244088152Y-79012514D01*
X244088152Y-79012514D02*
X244088152Y-78869657D01*
X244088152Y-78869657D02*
X244135771Y-78774418D01*
X244135771Y-78774418D02*
X244231009Y-78726799D01*
X244231009Y-78726799D02*
X244754819Y-78726799D01*
X252300000Y-107400000D02*
X243613580Y-107400000D01*
X252300000Y-58600000D02*
X243613580Y-58600000D01*
X244200000Y-107400000D02*
X244200000Y-85875609D01*
X244200000Y-77863705D02*
X244200000Y-58600000D01*
X244200000Y-107400000D02*
X243613579Y-106273496D01*
X244200000Y-107400000D02*
X244786421Y-106273496D01*
X244200000Y-58600000D02*
X244786421Y-59726504D01*
X244200000Y-58600000D02*
X243613579Y-59726504D01*
D10*
X405680952Y-100757420D02*
X405109524Y-100757420D01*
X405395238Y-100757420D02*
X405395238Y-99757420D01*
X405395238Y-99757420D02*
X405300000Y-99900277D01*
X405300000Y-99900277D02*
X405204762Y-99995515D01*
X405204762Y-99995515D02*
X405109524Y-100043134D01*
X406300000Y-99757420D02*
X406395238Y-99757420D01*
X406395238Y-99757420D02*
X406490476Y-99805039D01*
X406490476Y-99805039D02*
X406538095Y-99852658D01*
X406538095Y-99852658D02*
X406585714Y-99947896D01*
X406585714Y-99947896D02*
X406633333Y-100138372D01*
X406633333Y-100138372D02*
X406633333Y-100376467D01*
X406633333Y-100376467D02*
X406585714Y-100566943D01*
X406585714Y-100566943D02*
X406538095Y-100662181D01*
X406538095Y-100662181D02*
X406490476Y-100709801D01*
X406490476Y-100709801D02*
X406395238Y-100757420D01*
X406395238Y-100757420D02*
X406300000Y-100757420D01*
X406300000Y-100757420D02*
X406204762Y-100709801D01*
X406204762Y-100709801D02*
X406157143Y-100662181D01*
X406157143Y-100662181D02*
X406109524Y-100566943D01*
X406109524Y-100566943D02*
X406061905Y-100376467D01*
X406061905Y-100376467D02*
X406061905Y-100138372D01*
X406061905Y-100138372D02*
X406109524Y-99947896D01*
X406109524Y-99947896D02*
X406157143Y-99852658D01*
X406157143Y-99852658D02*
X406204762Y-99805039D01*
X406204762Y-99805039D02*
X406300000Y-99757420D01*
X407061905Y-100662181D02*
X407109524Y-100709801D01*
X407109524Y-100709801D02*
X407061905Y-100757420D01*
X407061905Y-100757420D02*
X407014286Y-100709801D01*
X407014286Y-100709801D02*
X407061905Y-100662181D01*
X407061905Y-100662181D02*
X407061905Y-100757420D01*
X407728571Y-99757420D02*
X407823809Y-99757420D01*
X407823809Y-99757420D02*
X407919047Y-99805039D01*
X407919047Y-99805039D02*
X407966666Y-99852658D01*
X407966666Y-99852658D02*
X408014285Y-99947896D01*
X408014285Y-99947896D02*
X408061904Y-100138372D01*
X408061904Y-100138372D02*
X408061904Y-100376467D01*
X408061904Y-100376467D02*
X408014285Y-100566943D01*
X408014285Y-100566943D02*
X407966666Y-100662181D01*
X407966666Y-100662181D02*
X407919047Y-100709801D01*
X407919047Y-100709801D02*
X407823809Y-100757420D01*
X407823809Y-100757420D02*
X407728571Y-100757420D01*
X407728571Y-100757420D02*
X407633333Y-100709801D01*
X407633333Y-100709801D02*
X407585714Y-100662181D01*
X407585714Y-100662181D02*
X407538095Y-100566943D01*
X407538095Y-100566943D02*
X407490476Y-100376467D01*
X407490476Y-100376467D02*
X407490476Y-100138372D01*
X407490476Y-100138372D02*
X407538095Y-99947896D01*
X407538095Y-99947896D02*
X407585714Y-99852658D01*
X407585714Y-99852658D02*
X407633333Y-99805039D01*
X407633333Y-99805039D02*
X407728571Y-99757420D01*
X409252381Y-100757420D02*
X409252381Y-100090753D01*
X409252381Y-100185991D02*
X409300000Y-100138372D01*
X409300000Y-100138372D02*
X409395238Y-100090753D01*
X409395238Y-100090753D02*
X409538095Y-100090753D01*
X409538095Y-100090753D02*
X409633333Y-100138372D01*
X409633333Y-100138372D02*
X409680952Y-100233610D01*
X409680952Y-100233610D02*
X409680952Y-100757420D01*
X409680952Y-100233610D02*
X409728571Y-100138372D01*
X409728571Y-100138372D02*
X409823809Y-100090753D01*
X409823809Y-100090753D02*
X409966666Y-100090753D01*
X409966666Y-100090753D02*
X410061905Y-100138372D01*
X410061905Y-100138372D02*
X410109524Y-100233610D01*
X410109524Y-100233610D02*
X410109524Y-100757420D01*
X410585714Y-100757420D02*
X410585714Y-100090753D01*
X410585714Y-100185991D02*
X410633333Y-100138372D01*
X410633333Y-100138372D02*
X410728571Y-100090753D01*
X410728571Y-100090753D02*
X410871428Y-100090753D01*
X410871428Y-100090753D02*
X410966666Y-100138372D01*
X410966666Y-100138372D02*
X411014285Y-100233610D01*
X411014285Y-100233610D02*
X411014285Y-100757420D01*
X411014285Y-100233610D02*
X411061904Y-100138372D01*
X411061904Y-100138372D02*
X411157142Y-100090753D01*
X411157142Y-100090753D02*
X411299999Y-100090753D01*
X411299999Y-100090753D02*
X411395238Y-100138372D01*
X411395238Y-100138372D02*
X411442857Y-100233610D01*
X411442857Y-100233610D02*
X411442857Y-100757420D01*
X403300000Y-100962827D02*
X403300000Y-100813581D01*
X413300000Y-100962827D02*
X413300000Y-100813581D01*
X403300000Y-101400001D02*
X413300000Y-101400001D01*
X403300000Y-101400001D02*
X413300000Y-101400001D01*
X403300000Y-101400001D02*
X404426504Y-100813580D01*
X403300000Y-101400001D02*
X404426504Y-101986422D01*
X413300000Y-101400001D02*
X412173496Y-101986422D01*
X413300000Y-101400001D02*
X412173496Y-100813580D01*
D12*
X227210588Y-84967438D02*
X227115350Y-84919819D01*
X227115350Y-84919819D02*
X226972493Y-84919819D01*
X226972493Y-84919819D02*
X226829636Y-84967438D01*
X226829636Y-84967438D02*
X226734398Y-85062676D01*
X226734398Y-85062676D02*
X226686779Y-85157914D01*
X226686779Y-85157914D02*
X226639160Y-85348390D01*
X226639160Y-85348390D02*
X226639160Y-85491247D01*
X226639160Y-85491247D02*
X226686779Y-85681723D01*
X226686779Y-85681723D02*
X226734398Y-85776961D01*
X226734398Y-85776961D02*
X226829636Y-85872200D01*
X226829636Y-85872200D02*
X226972493Y-85919819D01*
X226972493Y-85919819D02*
X227067731Y-85919819D01*
X227067731Y-85919819D02*
X227210588Y-85872200D01*
X227210588Y-85872200D02*
X227258207Y-85824580D01*
X227258207Y-85824580D02*
X227258207Y-85491247D01*
X227258207Y-85491247D02*
X227067731Y-85491247D01*
X227686779Y-85919819D02*
X227686779Y-84919819D01*
X227686779Y-84919819D02*
X228258207Y-85919819D01*
X228258207Y-85919819D02*
X228258207Y-84919819D01*
X228734398Y-85919819D02*
X228734398Y-84919819D01*
X228734398Y-84919819D02*
X228972493Y-84919819D01*
X228972493Y-84919819D02*
X229115350Y-84967438D01*
X229115350Y-84967438D02*
X229210588Y-85062676D01*
X229210588Y-85062676D02*
X229258207Y-85157914D01*
X229258207Y-85157914D02*
X229305826Y-85348390D01*
X229305826Y-85348390D02*
X229305826Y-85491247D01*
X229305826Y-85491247D02*
X229258207Y-85681723D01*
X229258207Y-85681723D02*
X229210588Y-85776961D01*
X229210588Y-85776961D02*
X229115350Y-85872200D01*
X229115350Y-85872200D02*
X228972493Y-85919819D01*
X228972493Y-85919819D02*
X228734398Y-85919819D01*
X373610588Y-84967438D02*
X373515350Y-84919819D01*
X373515350Y-84919819D02*
X373372493Y-84919819D01*
X373372493Y-84919819D02*
X373229636Y-84967438D01*
X373229636Y-84967438D02*
X373134398Y-85062676D01*
X373134398Y-85062676D02*
X373086779Y-85157914D01*
X373086779Y-85157914D02*
X373039160Y-85348390D01*
X373039160Y-85348390D02*
X373039160Y-85491247D01*
X373039160Y-85491247D02*
X373086779Y-85681723D01*
X373086779Y-85681723D02*
X373134398Y-85776961D01*
X373134398Y-85776961D02*
X373229636Y-85872200D01*
X373229636Y-85872200D02*
X373372493Y-85919819D01*
X373372493Y-85919819D02*
X373467731Y-85919819D01*
X373467731Y-85919819D02*
X373610588Y-85872200D01*
X373610588Y-85872200D02*
X373658207Y-85824580D01*
X373658207Y-85824580D02*
X373658207Y-85491247D01*
X373658207Y-85491247D02*
X373467731Y-85491247D01*
X374086779Y-85919819D02*
X374086779Y-84919819D01*
X374086779Y-84919819D02*
X374658207Y-85919819D01*
X374658207Y-85919819D02*
X374658207Y-84919819D01*
X375134398Y-85919819D02*
X375134398Y-84919819D01*
X375134398Y-84919819D02*
X375372493Y-84919819D01*
X375372493Y-84919819D02*
X375515350Y-84967438D01*
X375515350Y-84967438D02*
X375610588Y-85062676D01*
X375610588Y-85062676D02*
X375658207Y-85157914D01*
X375658207Y-85157914D02*
X375705826Y-85348390D01*
X375705826Y-85348390D02*
X375705826Y-85491247D01*
X375705826Y-85491247D02*
X375658207Y-85681723D01*
X375658207Y-85681723D02*
X375610588Y-85776961D01*
X375610588Y-85776961D02*
X375515350Y-85872200D01*
X375515350Y-85872200D02*
X375372493Y-85919819D01*
X375372493Y-85919819D02*
X375134398Y-85919819D01*
X129610588Y-84967438D02*
X129515350Y-84919819D01*
X129515350Y-84919819D02*
X129372493Y-84919819D01*
X129372493Y-84919819D02*
X129229636Y-84967438D01*
X129229636Y-84967438D02*
X129134398Y-85062676D01*
X129134398Y-85062676D02*
X129086779Y-85157914D01*
X129086779Y-85157914D02*
X129039160Y-85348390D01*
X129039160Y-85348390D02*
X129039160Y-85491247D01*
X129039160Y-85491247D02*
X129086779Y-85681723D01*
X129086779Y-85681723D02*
X129134398Y-85776961D01*
X129134398Y-85776961D02*
X129229636Y-85872200D01*
X129229636Y-85872200D02*
X129372493Y-85919819D01*
X129372493Y-85919819D02*
X129467731Y-85919819D01*
X129467731Y-85919819D02*
X129610588Y-85872200D01*
X129610588Y-85872200D02*
X129658207Y-85824580D01*
X129658207Y-85824580D02*
X129658207Y-85491247D01*
X129658207Y-85491247D02*
X129467731Y-85491247D01*
X130086779Y-85919819D02*
X130086779Y-84919819D01*
X130086779Y-84919819D02*
X130658207Y-85919819D01*
X130658207Y-85919819D02*
X130658207Y-84919819D01*
X131134398Y-85919819D02*
X131134398Y-84919819D01*
X131134398Y-84919819D02*
X131372493Y-84919819D01*
X131372493Y-84919819D02*
X131515350Y-84967438D01*
X131515350Y-84967438D02*
X131610588Y-85062676D01*
X131610588Y-85062676D02*
X131658207Y-85157914D01*
X131658207Y-85157914D02*
X131705826Y-85348390D01*
X131705826Y-85348390D02*
X131705826Y-85491247D01*
X131705826Y-85491247D02*
X131658207Y-85681723D01*
X131658207Y-85681723D02*
X131610588Y-85776961D01*
X131610588Y-85776961D02*
X131515350Y-85872200D01*
X131515350Y-85872200D02*
X131372493Y-85919819D01*
X131372493Y-85919819D02*
X131134398Y-85919819D01*
X178410588Y-84967438D02*
X178315350Y-84919819D01*
X178315350Y-84919819D02*
X178172493Y-84919819D01*
X178172493Y-84919819D02*
X178029636Y-84967438D01*
X178029636Y-84967438D02*
X177934398Y-85062676D01*
X177934398Y-85062676D02*
X177886779Y-85157914D01*
X177886779Y-85157914D02*
X177839160Y-85348390D01*
X177839160Y-85348390D02*
X177839160Y-85491247D01*
X177839160Y-85491247D02*
X177886779Y-85681723D01*
X177886779Y-85681723D02*
X177934398Y-85776961D01*
X177934398Y-85776961D02*
X178029636Y-85872200D01*
X178029636Y-85872200D02*
X178172493Y-85919819D01*
X178172493Y-85919819D02*
X178267731Y-85919819D01*
X178267731Y-85919819D02*
X178410588Y-85872200D01*
X178410588Y-85872200D02*
X178458207Y-85824580D01*
X178458207Y-85824580D02*
X178458207Y-85491247D01*
X178458207Y-85491247D02*
X178267731Y-85491247D01*
X178886779Y-85919819D02*
X178886779Y-84919819D01*
X178886779Y-84919819D02*
X179458207Y-85919819D01*
X179458207Y-85919819D02*
X179458207Y-84919819D01*
X179934398Y-85919819D02*
X179934398Y-84919819D01*
X179934398Y-84919819D02*
X180172493Y-84919819D01*
X180172493Y-84919819D02*
X180315350Y-84967438D01*
X180315350Y-84967438D02*
X180410588Y-85062676D01*
X180410588Y-85062676D02*
X180458207Y-85157914D01*
X180458207Y-85157914D02*
X180505826Y-85348390D01*
X180505826Y-85348390D02*
X180505826Y-85491247D01*
X180505826Y-85491247D02*
X180458207Y-85681723D01*
X180458207Y-85681723D02*
X180410588Y-85776961D01*
X180410588Y-85776961D02*
X180315350Y-85872200D01*
X180315350Y-85872200D02*
X180172493Y-85919819D01*
X180172493Y-85919819D02*
X179934398Y-85919819D01*
X324810588Y-84967438D02*
X324715350Y-84919819D01*
X324715350Y-84919819D02*
X324572493Y-84919819D01*
X324572493Y-84919819D02*
X324429636Y-84967438D01*
X324429636Y-84967438D02*
X324334398Y-85062676D01*
X324334398Y-85062676D02*
X324286779Y-85157914D01*
X324286779Y-85157914D02*
X324239160Y-85348390D01*
X324239160Y-85348390D02*
X324239160Y-85491247D01*
X324239160Y-85491247D02*
X324286779Y-85681723D01*
X324286779Y-85681723D02*
X324334398Y-85776961D01*
X324334398Y-85776961D02*
X324429636Y-85872200D01*
X324429636Y-85872200D02*
X324572493Y-85919819D01*
X324572493Y-85919819D02*
X324667731Y-85919819D01*
X324667731Y-85919819D02*
X324810588Y-85872200D01*
X324810588Y-85872200D02*
X324858207Y-85824580D01*
X324858207Y-85824580D02*
X324858207Y-85491247D01*
X324858207Y-85491247D02*
X324667731Y-85491247D01*
X325286779Y-85919819D02*
X325286779Y-84919819D01*
X325286779Y-84919819D02*
X325858207Y-85919819D01*
X325858207Y-85919819D02*
X325858207Y-84919819D01*
X326334398Y-85919819D02*
X326334398Y-84919819D01*
X326334398Y-84919819D02*
X326572493Y-84919819D01*
X326572493Y-84919819D02*
X326715350Y-84967438D01*
X326715350Y-84967438D02*
X326810588Y-85062676D01*
X326810588Y-85062676D02*
X326858207Y-85157914D01*
X326858207Y-85157914D02*
X326905826Y-85348390D01*
X326905826Y-85348390D02*
X326905826Y-85491247D01*
X326905826Y-85491247D02*
X326858207Y-85681723D01*
X326858207Y-85681723D02*
X326810588Y-85776961D01*
X326810588Y-85776961D02*
X326715350Y-85872200D01*
X326715350Y-85872200D02*
X326572493Y-85919819D01*
X326572493Y-85919819D02*
X326334398Y-85919819D01*
X80810588Y-84967438D02*
X80715350Y-84919819D01*
X80715350Y-84919819D02*
X80572493Y-84919819D01*
X80572493Y-84919819D02*
X80429636Y-84967438D01*
X80429636Y-84967438D02*
X80334398Y-85062676D01*
X80334398Y-85062676D02*
X80286779Y-85157914D01*
X80286779Y-85157914D02*
X80239160Y-85348390D01*
X80239160Y-85348390D02*
X80239160Y-85491247D01*
X80239160Y-85491247D02*
X80286779Y-85681723D01*
X80286779Y-85681723D02*
X80334398Y-85776961D01*
X80334398Y-85776961D02*
X80429636Y-85872200D01*
X80429636Y-85872200D02*
X80572493Y-85919819D01*
X80572493Y-85919819D02*
X80667731Y-85919819D01*
X80667731Y-85919819D02*
X80810588Y-85872200D01*
X80810588Y-85872200D02*
X80858207Y-85824580D01*
X80858207Y-85824580D02*
X80858207Y-85491247D01*
X80858207Y-85491247D02*
X80667731Y-85491247D01*
X81286779Y-85919819D02*
X81286779Y-84919819D01*
X81286779Y-84919819D02*
X81858207Y-85919819D01*
X81858207Y-85919819D02*
X81858207Y-84919819D01*
X82334398Y-85919819D02*
X82334398Y-84919819D01*
X82334398Y-84919819D02*
X82572493Y-84919819D01*
X82572493Y-84919819D02*
X82715350Y-84967438D01*
X82715350Y-84967438D02*
X82810588Y-85062676D01*
X82810588Y-85062676D02*
X82858207Y-85157914D01*
X82858207Y-85157914D02*
X82905826Y-85348390D01*
X82905826Y-85348390D02*
X82905826Y-85491247D01*
X82905826Y-85491247D02*
X82858207Y-85681723D01*
X82858207Y-85681723D02*
X82810588Y-85776961D01*
X82810588Y-85776961D02*
X82715350Y-85872200D01*
X82715350Y-85872200D02*
X82572493Y-85919819D01*
X82572493Y-85919819D02*
X82334398Y-85919819D01*
X276010588Y-84967438D02*
X275915350Y-84919819D01*
X275915350Y-84919819D02*
X275772493Y-84919819D01*
X275772493Y-84919819D02*
X275629636Y-84967438D01*
X275629636Y-84967438D02*
X275534398Y-85062676D01*
X275534398Y-85062676D02*
X275486779Y-85157914D01*
X275486779Y-85157914D02*
X275439160Y-85348390D01*
X275439160Y-85348390D02*
X275439160Y-85491247D01*
X275439160Y-85491247D02*
X275486779Y-85681723D01*
X275486779Y-85681723D02*
X275534398Y-85776961D01*
X275534398Y-85776961D02*
X275629636Y-85872200D01*
X275629636Y-85872200D02*
X275772493Y-85919819D01*
X275772493Y-85919819D02*
X275867731Y-85919819D01*
X275867731Y-85919819D02*
X276010588Y-85872200D01*
X276010588Y-85872200D02*
X276058207Y-85824580D01*
X276058207Y-85824580D02*
X276058207Y-85491247D01*
X276058207Y-85491247D02*
X275867731Y-85491247D01*
X276486779Y-85919819D02*
X276486779Y-84919819D01*
X276486779Y-84919819D02*
X277058207Y-85919819D01*
X277058207Y-85919819D02*
X277058207Y-84919819D01*
X277534398Y-85919819D02*
X277534398Y-84919819D01*
X277534398Y-84919819D02*
X277772493Y-84919819D01*
X277772493Y-84919819D02*
X277915350Y-84967438D01*
X277915350Y-84967438D02*
X278010588Y-85062676D01*
X278010588Y-85062676D02*
X278058207Y-85157914D01*
X278058207Y-85157914D02*
X278105826Y-85348390D01*
X278105826Y-85348390D02*
X278105826Y-85491247D01*
X278105826Y-85491247D02*
X278058207Y-85681723D01*
X278058207Y-85681723D02*
X278010588Y-85776961D01*
X278010588Y-85776961D02*
X277915350Y-85872200D01*
X277915350Y-85872200D02*
X277772493Y-85919819D01*
X277772493Y-85919819D02*
X277534398Y-85919819D01*
X32010588Y-84967438D02*
X31915350Y-84919819D01*
X31915350Y-84919819D02*
X31772493Y-84919819D01*
X31772493Y-84919819D02*
X31629636Y-84967438D01*
X31629636Y-84967438D02*
X31534398Y-85062676D01*
X31534398Y-85062676D02*
X31486779Y-85157914D01*
X31486779Y-85157914D02*
X31439160Y-85348390D01*
X31439160Y-85348390D02*
X31439160Y-85491247D01*
X31439160Y-85491247D02*
X31486779Y-85681723D01*
X31486779Y-85681723D02*
X31534398Y-85776961D01*
X31534398Y-85776961D02*
X31629636Y-85872200D01*
X31629636Y-85872200D02*
X31772493Y-85919819D01*
X31772493Y-85919819D02*
X31867731Y-85919819D01*
X31867731Y-85919819D02*
X32010588Y-85872200D01*
X32010588Y-85872200D02*
X32058207Y-85824580D01*
X32058207Y-85824580D02*
X32058207Y-85491247D01*
X32058207Y-85491247D02*
X31867731Y-85491247D01*
X32486779Y-85919819D02*
X32486779Y-84919819D01*
X32486779Y-84919819D02*
X33058207Y-85919819D01*
X33058207Y-85919819D02*
X33058207Y-84919819D01*
X33534398Y-85919819D02*
X33534398Y-84919819D01*
X33534398Y-84919819D02*
X33772493Y-84919819D01*
X33772493Y-84919819D02*
X33915350Y-84967438D01*
X33915350Y-84967438D02*
X34010588Y-85062676D01*
X34010588Y-85062676D02*
X34058207Y-85157914D01*
X34058207Y-85157914D02*
X34105826Y-85348390D01*
X34105826Y-85348390D02*
X34105826Y-85491247D01*
X34105826Y-85491247D02*
X34058207Y-85681723D01*
X34058207Y-85681723D02*
X34010588Y-85776961D01*
X34010588Y-85776961D02*
X33915350Y-85872200D01*
X33915350Y-85872200D02*
X33772493Y-85919819D01*
X33772493Y-85919819D02*
X33534398Y-85919819D01*
D14*
%TO.C,REF\u002A\u002A24*%
X227200000Y-82500000D02*
X228500000Y-82500000D01*
X227800000Y-81400000D02*
X227800000Y-84400000D01*
X230840000Y-80380000D02*
X230840000Y-81850000D01*
X230920000Y-84050000D02*
X230920000Y-81950000D01*
X230920000Y-84050000D02*
X233550000Y-84050000D01*
X232359420Y-84390000D02*
X232640580Y-84390000D01*
X232359420Y-85410000D02*
X232640580Y-85410000D01*
X233550000Y-81950000D02*
X230920000Y-81950000D01*
X233550000Y-81950000D02*
X233550000Y-84050000D01*
X236200000Y-80700000D02*
X236500000Y-81000000D01*
X236200000Y-82700000D02*
X236500000Y-83000000D01*
X236500000Y-81000000D02*
X236200000Y-80700000D01*
X236500000Y-81000000D02*
X236200000Y-81300000D01*
X236500000Y-81000000D02*
X236800000Y-80700000D01*
X236500000Y-81000000D02*
X236800000Y-81300000D01*
X236500000Y-83000000D02*
X236200000Y-82700000D01*
X236500000Y-83000000D02*
X236200000Y-83300000D01*
X236500000Y-83000000D02*
X236800000Y-82700000D01*
X236500000Y-83000000D02*
X236800000Y-83300000D01*
X236500000Y-85000000D02*
X236200000Y-84700000D01*
X236500000Y-85000000D02*
X236200000Y-85300000D01*
X236500000Y-85000000D02*
X236800000Y-84700000D01*
X236500000Y-85000000D02*
X236800000Y-85300000D01*
X236800000Y-80700000D02*
X236500000Y-81000000D01*
X236800000Y-81300000D02*
X236500000Y-81000000D01*
X236800000Y-82700000D02*
X236500000Y-83000000D01*
X236800000Y-83300000D02*
X236500000Y-83000000D01*
X231850000Y-82350000D02*
X233150000Y-82350000D01*
X233150000Y-83650000D01*
X231850000Y-83650000D01*
X231850000Y-82350000D01*
X235940000Y-83000000D02*
G75*
G02*
X229060000Y-83000000I-3440000J0D01*
G01*
X229060000Y-83000000D02*
G75*
G02*
X235940000Y-83000000I3440000J0D01*
G01*
X228400000Y-83500000D02*
X227200000Y-83500000D01*
X227800000Y-82500000D01*
X228400000Y-83500000D01*
G36*
X228400000Y-83500000D02*
G01*
X227200000Y-83500000D01*
X227800000Y-82500000D01*
X228400000Y-83500000D01*
G37*
X232900000Y-86400000D02*
X232100000Y-86400000D01*
X231000000Y-85600000D01*
X234100000Y-85600000D01*
X232900000Y-86400000D01*
G36*
X232900000Y-86400000D02*
G01*
X232100000Y-86400000D01*
X231000000Y-85600000D01*
X234100000Y-85600000D01*
X232900000Y-86400000D01*
G37*
X234200000Y-81800000D02*
X234300000Y-84100000D01*
X233550000Y-84050000D01*
X233600000Y-80300000D01*
X234200000Y-81800000D01*
G36*
X234200000Y-81800000D02*
G01*
X234300000Y-84100000D01*
X233550000Y-84050000D01*
X233600000Y-80300000D01*
X234200000Y-81800000D01*
G37*
X233600000Y-79800000D02*
X233550000Y-81950000D01*
X230840000Y-81850000D01*
X230920000Y-80000000D01*
X231400000Y-79800000D01*
X232100000Y-79600000D01*
X232700000Y-79600000D01*
X233600000Y-79800000D01*
G36*
X233600000Y-79800000D02*
G01*
X233550000Y-81950000D01*
X230840000Y-81850000D01*
X230920000Y-80000000D01*
X231400000Y-79800000D01*
X232100000Y-79600000D01*
X232700000Y-79600000D01*
X233600000Y-79800000D01*
G37*
X230920000Y-84050000D02*
X231000000Y-84050000D01*
X231000000Y-85600000D01*
X232100000Y-86400000D01*
X231300000Y-86200000D01*
X230900000Y-86000000D01*
X230600000Y-85800000D01*
X230100000Y-85400000D01*
X229700000Y-84900000D01*
X229300000Y-84200000D01*
X229100000Y-83400000D01*
X229100000Y-82800000D01*
X229300000Y-81800000D01*
X229700000Y-81100000D01*
X230200000Y-80500000D01*
X230920000Y-80000000D01*
X230920000Y-84050000D01*
G36*
X230920000Y-84050000D02*
G01*
X231000000Y-84050000D01*
X231000000Y-85600000D01*
X232100000Y-86400000D01*
X231300000Y-86200000D01*
X230900000Y-86000000D01*
X230600000Y-85800000D01*
X230100000Y-85400000D01*
X229700000Y-84900000D01*
X229300000Y-84200000D01*
X229100000Y-83400000D01*
X229100000Y-82800000D01*
X229300000Y-81800000D01*
X229700000Y-81100000D01*
X230200000Y-80500000D01*
X230920000Y-80000000D01*
X230920000Y-84050000D01*
G37*
X233550000Y-84050000D02*
X231000000Y-84050000D01*
X231000000Y-84000000D01*
X233550000Y-84050000D01*
G36*
X233550000Y-84050000D02*
G01*
X231000000Y-84050000D01*
X231000000Y-84000000D01*
X233550000Y-84050000D01*
G37*
X234100000Y-80000000D02*
X234600000Y-80300000D01*
X235000000Y-80700000D01*
X235400000Y-81200000D01*
X235600000Y-81600000D01*
X235700000Y-81800000D01*
X235900000Y-82500000D01*
X235940000Y-83000000D01*
X235875000Y-83600000D01*
X235700000Y-84200000D01*
X235300000Y-84900000D01*
X234700000Y-85600000D01*
X234100000Y-86000000D01*
X233700000Y-86200000D01*
X232900000Y-86400000D01*
X234000000Y-85400000D01*
X234000000Y-84000000D01*
X233600000Y-79800000D01*
X234100000Y-80000000D01*
G36*
X234100000Y-80000000D02*
G01*
X234600000Y-80300000D01*
X235000000Y-80700000D01*
X235400000Y-81200000D01*
X235600000Y-81600000D01*
X235700000Y-81800000D01*
X235900000Y-82500000D01*
X235940000Y-83000000D01*
X235875000Y-83600000D01*
X235700000Y-84200000D01*
X235300000Y-84900000D01*
X234700000Y-85600000D01*
X234100000Y-86000000D01*
X233700000Y-86200000D01*
X232900000Y-86400000D01*
X234000000Y-85400000D01*
X234000000Y-84000000D01*
X233600000Y-79800000D01*
X234100000Y-80000000D01*
G37*
%TO.C,REF\u002A\u002A47*%
X373600000Y-82500000D02*
X374900000Y-82500000D01*
X374200000Y-81400000D02*
X374200000Y-84400000D01*
X377240000Y-80380000D02*
X377240000Y-81850000D01*
X377320000Y-84050000D02*
X377320000Y-81950000D01*
X377320000Y-84050000D02*
X379950000Y-84050000D01*
X378759420Y-84390000D02*
X379040580Y-84390000D01*
X378759420Y-85410000D02*
X379040580Y-85410000D01*
X379950000Y-81950000D02*
X377320000Y-81950000D01*
X379950000Y-81950000D02*
X379950000Y-84050000D01*
X382600000Y-80700000D02*
X382900000Y-81000000D01*
X382600000Y-82700000D02*
X382900000Y-83000000D01*
X382900000Y-81000000D02*
X382600000Y-80700000D01*
X382900000Y-81000000D02*
X382600000Y-81300000D01*
X382900000Y-81000000D02*
X383200000Y-80700000D01*
X382900000Y-81000000D02*
X383200000Y-81300000D01*
X382900000Y-83000000D02*
X382600000Y-82700000D01*
X382900000Y-83000000D02*
X382600000Y-83300000D01*
X382900000Y-83000000D02*
X383200000Y-82700000D01*
X382900000Y-83000000D02*
X383200000Y-83300000D01*
X382900000Y-85000000D02*
X382600000Y-84700000D01*
X382900000Y-85000000D02*
X382600000Y-85300000D01*
X382900000Y-85000000D02*
X383200000Y-84700000D01*
X382900000Y-85000000D02*
X383200000Y-85300000D01*
X383200000Y-80700000D02*
X382900000Y-81000000D01*
X383200000Y-81300000D02*
X382900000Y-81000000D01*
X383200000Y-82700000D02*
X382900000Y-83000000D01*
X383200000Y-83300000D02*
X382900000Y-83000000D01*
X378250000Y-82350000D02*
X379550000Y-82350000D01*
X379550000Y-83650000D01*
X378250000Y-83650000D01*
X378250000Y-82350000D01*
X382340000Y-83000000D02*
G75*
G02*
X375460000Y-83000000I-3440000J0D01*
G01*
X375460000Y-83000000D02*
G75*
G02*
X382340000Y-83000000I3440000J0D01*
G01*
X374800000Y-83500000D02*
X373600000Y-83500000D01*
X374200000Y-82500000D01*
X374800000Y-83500000D01*
G36*
X374800000Y-83500000D02*
G01*
X373600000Y-83500000D01*
X374200000Y-82500000D01*
X374800000Y-83500000D01*
G37*
X379300000Y-86400000D02*
X378500000Y-86400000D01*
X377400000Y-85600000D01*
X380500000Y-85600000D01*
X379300000Y-86400000D01*
G36*
X379300000Y-86400000D02*
G01*
X378500000Y-86400000D01*
X377400000Y-85600000D01*
X380500000Y-85600000D01*
X379300000Y-86400000D01*
G37*
X380600000Y-81800000D02*
X380700000Y-84100000D01*
X379950000Y-84050000D01*
X380000000Y-80300000D01*
X380600000Y-81800000D01*
G36*
X380600000Y-81800000D02*
G01*
X380700000Y-84100000D01*
X379950000Y-84050000D01*
X380000000Y-80300000D01*
X380600000Y-81800000D01*
G37*
X380000000Y-79800000D02*
X379950000Y-81950000D01*
X377240000Y-81850000D01*
X377320000Y-80000000D01*
X377800000Y-79800000D01*
X378500000Y-79600000D01*
X379100000Y-79600000D01*
X380000000Y-79800000D01*
G36*
X380000000Y-79800000D02*
G01*
X379950000Y-81950000D01*
X377240000Y-81850000D01*
X377320000Y-80000000D01*
X377800000Y-79800000D01*
X378500000Y-79600000D01*
X379100000Y-79600000D01*
X380000000Y-79800000D01*
G37*
X377320000Y-84050000D02*
X377400000Y-84050000D01*
X377400000Y-85600000D01*
X378500000Y-86400000D01*
X377700000Y-86200000D01*
X377300000Y-86000000D01*
X377000000Y-85800000D01*
X376500000Y-85400000D01*
X376100000Y-84900000D01*
X375700000Y-84200000D01*
X375500000Y-83400000D01*
X375500000Y-82800000D01*
X375700000Y-81800000D01*
X376100000Y-81100000D01*
X376600000Y-80500000D01*
X377320000Y-80000000D01*
X377320000Y-84050000D01*
G36*
X377320000Y-84050000D02*
G01*
X377400000Y-84050000D01*
X377400000Y-85600000D01*
X378500000Y-86400000D01*
X377700000Y-86200000D01*
X377300000Y-86000000D01*
X377000000Y-85800000D01*
X376500000Y-85400000D01*
X376100000Y-84900000D01*
X375700000Y-84200000D01*
X375500000Y-83400000D01*
X375500000Y-82800000D01*
X375700000Y-81800000D01*
X376100000Y-81100000D01*
X376600000Y-80500000D01*
X377320000Y-80000000D01*
X377320000Y-84050000D01*
G37*
X379950000Y-84050000D02*
X377400000Y-84050000D01*
X377400000Y-84000000D01*
X379950000Y-84050000D01*
G36*
X379950000Y-84050000D02*
G01*
X377400000Y-84050000D01*
X377400000Y-84000000D01*
X379950000Y-84050000D01*
G37*
X380500000Y-80000000D02*
X381000000Y-80300000D01*
X381400000Y-80700000D01*
X381800000Y-81200000D01*
X382000000Y-81600000D01*
X382100000Y-81800000D01*
X382300000Y-82500000D01*
X382340000Y-83000000D01*
X382275000Y-83600000D01*
X382100000Y-84200000D01*
X381700000Y-84900000D01*
X381100000Y-85600000D01*
X380500000Y-86000000D01*
X380100000Y-86200000D01*
X379300000Y-86400000D01*
X380400000Y-85400000D01*
X380400000Y-84000000D01*
X380000000Y-79800000D01*
X380500000Y-80000000D01*
G36*
X380500000Y-80000000D02*
G01*
X381000000Y-80300000D01*
X381400000Y-80700000D01*
X381800000Y-81200000D01*
X382000000Y-81600000D01*
X382100000Y-81800000D01*
X382300000Y-82500000D01*
X382340000Y-83000000D01*
X382275000Y-83600000D01*
X382100000Y-84200000D01*
X381700000Y-84900000D01*
X381100000Y-85600000D01*
X380500000Y-86000000D01*
X380100000Y-86200000D01*
X379300000Y-86400000D01*
X380400000Y-85400000D01*
X380400000Y-84000000D01*
X380000000Y-79800000D01*
X380500000Y-80000000D01*
G37*
%TO.C,REF\u002A\u002A22*%
X129600000Y-82500000D02*
X130900000Y-82500000D01*
X130200000Y-81400000D02*
X130200000Y-84400000D01*
X133240000Y-80380000D02*
X133240000Y-81850000D01*
X133320000Y-84050000D02*
X133320000Y-81950000D01*
X133320000Y-84050000D02*
X135950000Y-84050000D01*
X134759420Y-84390000D02*
X135040580Y-84390000D01*
X134759420Y-85410000D02*
X135040580Y-85410000D01*
X135950000Y-81950000D02*
X133320000Y-81950000D01*
X135950000Y-81950000D02*
X135950000Y-84050000D01*
X138600000Y-80700000D02*
X138900000Y-81000000D01*
X138600000Y-82700000D02*
X138900000Y-83000000D01*
X138900000Y-81000000D02*
X138600000Y-80700000D01*
X138900000Y-81000000D02*
X138600000Y-81300000D01*
X138900000Y-81000000D02*
X139200000Y-80700000D01*
X138900000Y-81000000D02*
X139200000Y-81300000D01*
X138900000Y-83000000D02*
X138600000Y-82700000D01*
X138900000Y-83000000D02*
X138600000Y-83300000D01*
X138900000Y-83000000D02*
X139200000Y-82700000D01*
X138900000Y-83000000D02*
X139200000Y-83300000D01*
X138900000Y-85000000D02*
X138600000Y-84700000D01*
X138900000Y-85000000D02*
X138600000Y-85300000D01*
X138900000Y-85000000D02*
X139200000Y-84700000D01*
X138900000Y-85000000D02*
X139200000Y-85300000D01*
X139200000Y-80700000D02*
X138900000Y-81000000D01*
X139200000Y-81300000D02*
X138900000Y-81000000D01*
X139200000Y-82700000D02*
X138900000Y-83000000D01*
X139200000Y-83300000D02*
X138900000Y-83000000D01*
X134250000Y-82350000D02*
X135550000Y-82350000D01*
X135550000Y-83650000D01*
X134250000Y-83650000D01*
X134250000Y-82350000D01*
X138340000Y-83000000D02*
G75*
G02*
X131460000Y-83000000I-3440000J0D01*
G01*
X131460000Y-83000000D02*
G75*
G02*
X138340000Y-83000000I3440000J0D01*
G01*
X130800000Y-83500000D02*
X129600000Y-83500000D01*
X130200000Y-82500000D01*
X130800000Y-83500000D01*
G36*
X130800000Y-83500000D02*
G01*
X129600000Y-83500000D01*
X130200000Y-82500000D01*
X130800000Y-83500000D01*
G37*
X135300000Y-86400000D02*
X134500000Y-86400000D01*
X133400000Y-85600000D01*
X136500000Y-85600000D01*
X135300000Y-86400000D01*
G36*
X135300000Y-86400000D02*
G01*
X134500000Y-86400000D01*
X133400000Y-85600000D01*
X136500000Y-85600000D01*
X135300000Y-86400000D01*
G37*
X136600000Y-81800000D02*
X136700000Y-84100000D01*
X135950000Y-84050000D01*
X136000000Y-80300000D01*
X136600000Y-81800000D01*
G36*
X136600000Y-81800000D02*
G01*
X136700000Y-84100000D01*
X135950000Y-84050000D01*
X136000000Y-80300000D01*
X136600000Y-81800000D01*
G37*
X136000000Y-79800000D02*
X135950000Y-81950000D01*
X133240000Y-81850000D01*
X133320000Y-80000000D01*
X133800000Y-79800000D01*
X134500000Y-79600000D01*
X135100000Y-79600000D01*
X136000000Y-79800000D01*
G36*
X136000000Y-79800000D02*
G01*
X135950000Y-81950000D01*
X133240000Y-81850000D01*
X133320000Y-80000000D01*
X133800000Y-79800000D01*
X134500000Y-79600000D01*
X135100000Y-79600000D01*
X136000000Y-79800000D01*
G37*
X133320000Y-84050000D02*
X133400000Y-84050000D01*
X133400000Y-85600000D01*
X134500000Y-86400000D01*
X133700000Y-86200000D01*
X133300000Y-86000000D01*
X133000000Y-85800000D01*
X132500000Y-85400000D01*
X132100000Y-84900000D01*
X131700000Y-84200000D01*
X131500000Y-83400000D01*
X131500000Y-82800000D01*
X131700000Y-81800000D01*
X132100000Y-81100000D01*
X132600000Y-80500000D01*
X133320000Y-80000000D01*
X133320000Y-84050000D01*
G36*
X133320000Y-84050000D02*
G01*
X133400000Y-84050000D01*
X133400000Y-85600000D01*
X134500000Y-86400000D01*
X133700000Y-86200000D01*
X133300000Y-86000000D01*
X133000000Y-85800000D01*
X132500000Y-85400000D01*
X132100000Y-84900000D01*
X131700000Y-84200000D01*
X131500000Y-83400000D01*
X131500000Y-82800000D01*
X131700000Y-81800000D01*
X132100000Y-81100000D01*
X132600000Y-80500000D01*
X133320000Y-80000000D01*
X133320000Y-84050000D01*
G37*
X135950000Y-84050000D02*
X133400000Y-84050000D01*
X133400000Y-84000000D01*
X135950000Y-84050000D01*
G36*
X135950000Y-84050000D02*
G01*
X133400000Y-84050000D01*
X133400000Y-84000000D01*
X135950000Y-84050000D01*
G37*
X136500000Y-80000000D02*
X137000000Y-80300000D01*
X137400000Y-80700000D01*
X137800000Y-81200000D01*
X138000000Y-81600000D01*
X138100000Y-81800000D01*
X138300000Y-82500000D01*
X138340000Y-83000000D01*
X138275000Y-83600000D01*
X138100000Y-84200000D01*
X137700000Y-84900000D01*
X137100000Y-85600000D01*
X136500000Y-86000000D01*
X136100000Y-86200000D01*
X135300000Y-86400000D01*
X136400000Y-85400000D01*
X136400000Y-84000000D01*
X136000000Y-79800000D01*
X136500000Y-80000000D01*
G36*
X136500000Y-80000000D02*
G01*
X137000000Y-80300000D01*
X137400000Y-80700000D01*
X137800000Y-81200000D01*
X138000000Y-81600000D01*
X138100000Y-81800000D01*
X138300000Y-82500000D01*
X138340000Y-83000000D01*
X138275000Y-83600000D01*
X138100000Y-84200000D01*
X137700000Y-84900000D01*
X137100000Y-85600000D01*
X136500000Y-86000000D01*
X136100000Y-86200000D01*
X135300000Y-86400000D01*
X136400000Y-85400000D01*
X136400000Y-84000000D01*
X136000000Y-79800000D01*
X136500000Y-80000000D01*
G37*
%TO.C,REF\u002A\u002A23*%
X178400000Y-82500000D02*
X179700000Y-82500000D01*
X179000000Y-81400000D02*
X179000000Y-84400000D01*
X182040000Y-80380000D02*
X182040000Y-81850000D01*
X182120000Y-84050000D02*
X182120000Y-81950000D01*
X182120000Y-84050000D02*
X184750000Y-84050000D01*
X183559420Y-84390000D02*
X183840580Y-84390000D01*
X183559420Y-85410000D02*
X183840580Y-85410000D01*
X184750000Y-81950000D02*
X182120000Y-81950000D01*
X184750000Y-81950000D02*
X184750000Y-84050000D01*
X187400000Y-80700000D02*
X187700000Y-81000000D01*
X187400000Y-82700000D02*
X187700000Y-83000000D01*
X187700000Y-81000000D02*
X187400000Y-80700000D01*
X187700000Y-81000000D02*
X187400000Y-81300000D01*
X187700000Y-81000000D02*
X188000000Y-80700000D01*
X187700000Y-81000000D02*
X188000000Y-81300000D01*
X187700000Y-83000000D02*
X187400000Y-82700000D01*
X187700000Y-83000000D02*
X187400000Y-83300000D01*
X187700000Y-83000000D02*
X188000000Y-82700000D01*
X187700000Y-83000000D02*
X188000000Y-83300000D01*
X187700000Y-85000000D02*
X187400000Y-84700000D01*
X187700000Y-85000000D02*
X187400000Y-85300000D01*
X187700000Y-85000000D02*
X188000000Y-84700000D01*
X187700000Y-85000000D02*
X188000000Y-85300000D01*
X188000000Y-80700000D02*
X187700000Y-81000000D01*
X188000000Y-81300000D02*
X187700000Y-81000000D01*
X188000000Y-82700000D02*
X187700000Y-83000000D01*
X188000000Y-83300000D02*
X187700000Y-83000000D01*
X183050000Y-82350000D02*
X184350000Y-82350000D01*
X184350000Y-83650000D01*
X183050000Y-83650000D01*
X183050000Y-82350000D01*
X187140000Y-83000000D02*
G75*
G02*
X180260000Y-83000000I-3440000J0D01*
G01*
X180260000Y-83000000D02*
G75*
G02*
X187140000Y-83000000I3440000J0D01*
G01*
X179600000Y-83500000D02*
X178400000Y-83500000D01*
X179000000Y-82500000D01*
X179600000Y-83500000D01*
G36*
X179600000Y-83500000D02*
G01*
X178400000Y-83500000D01*
X179000000Y-82500000D01*
X179600000Y-83500000D01*
G37*
X184100000Y-86400000D02*
X183300000Y-86400000D01*
X182200000Y-85600000D01*
X185300000Y-85600000D01*
X184100000Y-86400000D01*
G36*
X184100000Y-86400000D02*
G01*
X183300000Y-86400000D01*
X182200000Y-85600000D01*
X185300000Y-85600000D01*
X184100000Y-86400000D01*
G37*
X185400000Y-81800000D02*
X185500000Y-84100000D01*
X184750000Y-84050000D01*
X184800000Y-80300000D01*
X185400000Y-81800000D01*
G36*
X185400000Y-81800000D02*
G01*
X185500000Y-84100000D01*
X184750000Y-84050000D01*
X184800000Y-80300000D01*
X185400000Y-81800000D01*
G37*
X184800000Y-79800000D02*
X184750000Y-81950000D01*
X182040000Y-81850000D01*
X182120000Y-80000000D01*
X182600000Y-79800000D01*
X183300000Y-79600000D01*
X183900000Y-79600000D01*
X184800000Y-79800000D01*
G36*
X184800000Y-79800000D02*
G01*
X184750000Y-81950000D01*
X182040000Y-81850000D01*
X182120000Y-80000000D01*
X182600000Y-79800000D01*
X183300000Y-79600000D01*
X183900000Y-79600000D01*
X184800000Y-79800000D01*
G37*
X182120000Y-84050000D02*
X182200000Y-84050000D01*
X182200000Y-85600000D01*
X183300000Y-86400000D01*
X182500000Y-86200000D01*
X182100000Y-86000000D01*
X181800000Y-85800000D01*
X181300000Y-85400000D01*
X180900000Y-84900000D01*
X180500000Y-84200000D01*
X180300000Y-83400000D01*
X180300000Y-82800000D01*
X180500000Y-81800000D01*
X180900000Y-81100000D01*
X181400000Y-80500000D01*
X182120000Y-80000000D01*
X182120000Y-84050000D01*
G36*
X182120000Y-84050000D02*
G01*
X182200000Y-84050000D01*
X182200000Y-85600000D01*
X183300000Y-86400000D01*
X182500000Y-86200000D01*
X182100000Y-86000000D01*
X181800000Y-85800000D01*
X181300000Y-85400000D01*
X180900000Y-84900000D01*
X180500000Y-84200000D01*
X180300000Y-83400000D01*
X180300000Y-82800000D01*
X180500000Y-81800000D01*
X180900000Y-81100000D01*
X181400000Y-80500000D01*
X182120000Y-80000000D01*
X182120000Y-84050000D01*
G37*
X184750000Y-84050000D02*
X182200000Y-84050000D01*
X182200000Y-84000000D01*
X184750000Y-84050000D01*
G36*
X184750000Y-84050000D02*
G01*
X182200000Y-84050000D01*
X182200000Y-84000000D01*
X184750000Y-84050000D01*
G37*
X185300000Y-80000000D02*
X185800000Y-80300000D01*
X186200000Y-80700000D01*
X186600000Y-81200000D01*
X186800000Y-81600000D01*
X186900000Y-81800000D01*
X187100000Y-82500000D01*
X187140000Y-83000000D01*
X187075000Y-83600000D01*
X186900000Y-84200000D01*
X186500000Y-84900000D01*
X185900000Y-85600000D01*
X185300000Y-86000000D01*
X184900000Y-86200000D01*
X184100000Y-86400000D01*
X185200000Y-85400000D01*
X185200000Y-84000000D01*
X184800000Y-79800000D01*
X185300000Y-80000000D01*
G36*
X185300000Y-80000000D02*
G01*
X185800000Y-80300000D01*
X186200000Y-80700000D01*
X186600000Y-81200000D01*
X186800000Y-81600000D01*
X186900000Y-81800000D01*
X187100000Y-82500000D01*
X187140000Y-83000000D01*
X187075000Y-83600000D01*
X186900000Y-84200000D01*
X186500000Y-84900000D01*
X185900000Y-85600000D01*
X185300000Y-86000000D01*
X184900000Y-86200000D01*
X184100000Y-86400000D01*
X185200000Y-85400000D01*
X185200000Y-84000000D01*
X184800000Y-79800000D01*
X185300000Y-80000000D01*
G37*
%TO.C,REF\u002A\u002A46*%
X324800000Y-82500000D02*
X326100000Y-82500000D01*
X325400000Y-81400000D02*
X325400000Y-84400000D01*
X328440000Y-80380000D02*
X328440000Y-81850000D01*
X328520000Y-84050000D02*
X328520000Y-81950000D01*
X328520000Y-84050000D02*
X331150000Y-84050000D01*
X329959420Y-84390000D02*
X330240580Y-84390000D01*
X329959420Y-85410000D02*
X330240580Y-85410000D01*
X331150000Y-81950000D02*
X328520000Y-81950000D01*
X331150000Y-81950000D02*
X331150000Y-84050000D01*
X333800000Y-80700000D02*
X334100000Y-81000000D01*
X333800000Y-82700000D02*
X334100000Y-83000000D01*
X334100000Y-81000000D02*
X333800000Y-80700000D01*
X334100000Y-81000000D02*
X333800000Y-81300000D01*
X334100000Y-81000000D02*
X334400000Y-80700000D01*
X334100000Y-81000000D02*
X334400000Y-81300000D01*
X334100000Y-83000000D02*
X333800000Y-82700000D01*
X334100000Y-83000000D02*
X333800000Y-83300000D01*
X334100000Y-83000000D02*
X334400000Y-82700000D01*
X334100000Y-83000000D02*
X334400000Y-83300000D01*
X334100000Y-85000000D02*
X333800000Y-84700000D01*
X334100000Y-85000000D02*
X333800000Y-85300000D01*
X334100000Y-85000000D02*
X334400000Y-84700000D01*
X334100000Y-85000000D02*
X334400000Y-85300000D01*
X334400000Y-80700000D02*
X334100000Y-81000000D01*
X334400000Y-81300000D02*
X334100000Y-81000000D01*
X334400000Y-82700000D02*
X334100000Y-83000000D01*
X334400000Y-83300000D02*
X334100000Y-83000000D01*
X329450000Y-82350000D02*
X330750000Y-82350000D01*
X330750000Y-83650000D01*
X329450000Y-83650000D01*
X329450000Y-82350000D01*
X333540000Y-83000000D02*
G75*
G02*
X326660000Y-83000000I-3440000J0D01*
G01*
X326660000Y-83000000D02*
G75*
G02*
X333540000Y-83000000I3440000J0D01*
G01*
X326000000Y-83500000D02*
X324800000Y-83500000D01*
X325400000Y-82500000D01*
X326000000Y-83500000D01*
G36*
X326000000Y-83500000D02*
G01*
X324800000Y-83500000D01*
X325400000Y-82500000D01*
X326000000Y-83500000D01*
G37*
X330500000Y-86400000D02*
X329700000Y-86400000D01*
X328600000Y-85600000D01*
X331700000Y-85600000D01*
X330500000Y-86400000D01*
G36*
X330500000Y-86400000D02*
G01*
X329700000Y-86400000D01*
X328600000Y-85600000D01*
X331700000Y-85600000D01*
X330500000Y-86400000D01*
G37*
X331800000Y-81800000D02*
X331900000Y-84100000D01*
X331150000Y-84050000D01*
X331200000Y-80300000D01*
X331800000Y-81800000D01*
G36*
X331800000Y-81800000D02*
G01*
X331900000Y-84100000D01*
X331150000Y-84050000D01*
X331200000Y-80300000D01*
X331800000Y-81800000D01*
G37*
X331200000Y-79800000D02*
X331150000Y-81950000D01*
X328440000Y-81850000D01*
X328520000Y-80000000D01*
X329000000Y-79800000D01*
X329700000Y-79600000D01*
X330300000Y-79600000D01*
X331200000Y-79800000D01*
G36*
X331200000Y-79800000D02*
G01*
X331150000Y-81950000D01*
X328440000Y-81850000D01*
X328520000Y-80000000D01*
X329000000Y-79800000D01*
X329700000Y-79600000D01*
X330300000Y-79600000D01*
X331200000Y-79800000D01*
G37*
X328520000Y-84050000D02*
X328600000Y-84050000D01*
X328600000Y-85600000D01*
X329700000Y-86400000D01*
X328900000Y-86200000D01*
X328500000Y-86000000D01*
X328200000Y-85800000D01*
X327700000Y-85400000D01*
X327300000Y-84900000D01*
X326900000Y-84200000D01*
X326700000Y-83400000D01*
X326700000Y-82800000D01*
X326900000Y-81800000D01*
X327300000Y-81100000D01*
X327800000Y-80500000D01*
X328520000Y-80000000D01*
X328520000Y-84050000D01*
G36*
X328520000Y-84050000D02*
G01*
X328600000Y-84050000D01*
X328600000Y-85600000D01*
X329700000Y-86400000D01*
X328900000Y-86200000D01*
X328500000Y-86000000D01*
X328200000Y-85800000D01*
X327700000Y-85400000D01*
X327300000Y-84900000D01*
X326900000Y-84200000D01*
X326700000Y-83400000D01*
X326700000Y-82800000D01*
X326900000Y-81800000D01*
X327300000Y-81100000D01*
X327800000Y-80500000D01*
X328520000Y-80000000D01*
X328520000Y-84050000D01*
G37*
X331150000Y-84050000D02*
X328600000Y-84050000D01*
X328600000Y-84000000D01*
X331150000Y-84050000D01*
G36*
X331150000Y-84050000D02*
G01*
X328600000Y-84050000D01*
X328600000Y-84000000D01*
X331150000Y-84050000D01*
G37*
X331700000Y-80000000D02*
X332200000Y-80300000D01*
X332600000Y-80700000D01*
X333000000Y-81200000D01*
X333200000Y-81600000D01*
X333300000Y-81800000D01*
X333500000Y-82500000D01*
X333540000Y-83000000D01*
X333475000Y-83600000D01*
X333300000Y-84200000D01*
X332900000Y-84900000D01*
X332300000Y-85600000D01*
X331700000Y-86000000D01*
X331300000Y-86200000D01*
X330500000Y-86400000D01*
X331600000Y-85400000D01*
X331600000Y-84000000D01*
X331200000Y-79800000D01*
X331700000Y-80000000D01*
G36*
X331700000Y-80000000D02*
G01*
X332200000Y-80300000D01*
X332600000Y-80700000D01*
X333000000Y-81200000D01*
X333200000Y-81600000D01*
X333300000Y-81800000D01*
X333500000Y-82500000D01*
X333540000Y-83000000D01*
X333475000Y-83600000D01*
X333300000Y-84200000D01*
X332900000Y-84900000D01*
X332300000Y-85600000D01*
X331700000Y-86000000D01*
X331300000Y-86200000D01*
X330500000Y-86400000D01*
X331600000Y-85400000D01*
X331600000Y-84000000D01*
X331200000Y-79800000D01*
X331700000Y-80000000D01*
G37*
%TO.C,REF\u002A\u002A21*%
X80800000Y-82500000D02*
X82100000Y-82500000D01*
X81400000Y-81400000D02*
X81400000Y-84400000D01*
X84440000Y-80380000D02*
X84440000Y-81850000D01*
X84520000Y-84050000D02*
X84520000Y-81950000D01*
X84520000Y-84050000D02*
X87150000Y-84050000D01*
X85959420Y-84390000D02*
X86240580Y-84390000D01*
X85959420Y-85410000D02*
X86240580Y-85410000D01*
X87150000Y-81950000D02*
X84520000Y-81950000D01*
X87150000Y-81950000D02*
X87150000Y-84050000D01*
X89800000Y-80700000D02*
X90100000Y-81000000D01*
X89800000Y-82700000D02*
X90100000Y-83000000D01*
X90100000Y-81000000D02*
X89800000Y-80700000D01*
X90100000Y-81000000D02*
X89800000Y-81300000D01*
X90100000Y-81000000D02*
X90400000Y-80700000D01*
X90100000Y-81000000D02*
X90400000Y-81300000D01*
X90100000Y-83000000D02*
X89800000Y-82700000D01*
X90100000Y-83000000D02*
X89800000Y-83300000D01*
X90100000Y-83000000D02*
X90400000Y-82700000D01*
X90100000Y-83000000D02*
X90400000Y-83300000D01*
X90100000Y-85000000D02*
X89800000Y-84700000D01*
X90100000Y-85000000D02*
X89800000Y-85300000D01*
X90100000Y-85000000D02*
X90400000Y-84700000D01*
X90100000Y-85000000D02*
X90400000Y-85300000D01*
X90400000Y-80700000D02*
X90100000Y-81000000D01*
X90400000Y-81300000D02*
X90100000Y-81000000D01*
X90400000Y-82700000D02*
X90100000Y-83000000D01*
X90400000Y-83300000D02*
X90100000Y-83000000D01*
X85450000Y-82350000D02*
X86750000Y-82350000D01*
X86750000Y-83650000D01*
X85450000Y-83650000D01*
X85450000Y-82350000D01*
X89540000Y-83000000D02*
G75*
G02*
X82660000Y-83000000I-3440000J0D01*
G01*
X82660000Y-83000000D02*
G75*
G02*
X89540000Y-83000000I3440000J0D01*
G01*
X82000000Y-83500000D02*
X80800000Y-83500000D01*
X81400000Y-82500000D01*
X82000000Y-83500000D01*
G36*
X82000000Y-83500000D02*
G01*
X80800000Y-83500000D01*
X81400000Y-82500000D01*
X82000000Y-83500000D01*
G37*
X86500000Y-86400000D02*
X85700000Y-86400000D01*
X84600000Y-85600000D01*
X87700000Y-85600000D01*
X86500000Y-86400000D01*
G36*
X86500000Y-86400000D02*
G01*
X85700000Y-86400000D01*
X84600000Y-85600000D01*
X87700000Y-85600000D01*
X86500000Y-86400000D01*
G37*
X87800000Y-81800000D02*
X87900000Y-84100000D01*
X87150000Y-84050000D01*
X87200000Y-80300000D01*
X87800000Y-81800000D01*
G36*
X87800000Y-81800000D02*
G01*
X87900000Y-84100000D01*
X87150000Y-84050000D01*
X87200000Y-80300000D01*
X87800000Y-81800000D01*
G37*
X87200000Y-79800000D02*
X87150000Y-81950000D01*
X84440000Y-81850000D01*
X84520000Y-80000000D01*
X85000000Y-79800000D01*
X85700000Y-79600000D01*
X86300000Y-79600000D01*
X87200000Y-79800000D01*
G36*
X87200000Y-79800000D02*
G01*
X87150000Y-81950000D01*
X84440000Y-81850000D01*
X84520000Y-80000000D01*
X85000000Y-79800000D01*
X85700000Y-79600000D01*
X86300000Y-79600000D01*
X87200000Y-79800000D01*
G37*
X84520000Y-84050000D02*
X84600000Y-84050000D01*
X84600000Y-85600000D01*
X85700000Y-86400000D01*
X84900000Y-86200000D01*
X84500000Y-86000000D01*
X84200000Y-85800000D01*
X83700000Y-85400000D01*
X83300000Y-84900000D01*
X82900000Y-84200000D01*
X82700000Y-83400000D01*
X82700000Y-82800000D01*
X82900000Y-81800000D01*
X83300000Y-81100000D01*
X83800000Y-80500000D01*
X84520000Y-80000000D01*
X84520000Y-84050000D01*
G36*
X84520000Y-84050000D02*
G01*
X84600000Y-84050000D01*
X84600000Y-85600000D01*
X85700000Y-86400000D01*
X84900000Y-86200000D01*
X84500000Y-86000000D01*
X84200000Y-85800000D01*
X83700000Y-85400000D01*
X83300000Y-84900000D01*
X82900000Y-84200000D01*
X82700000Y-83400000D01*
X82700000Y-82800000D01*
X82900000Y-81800000D01*
X83300000Y-81100000D01*
X83800000Y-80500000D01*
X84520000Y-80000000D01*
X84520000Y-84050000D01*
G37*
X87150000Y-84050000D02*
X84600000Y-84050000D01*
X84600000Y-84000000D01*
X87150000Y-84050000D01*
G36*
X87150000Y-84050000D02*
G01*
X84600000Y-84050000D01*
X84600000Y-84000000D01*
X87150000Y-84050000D01*
G37*
X87700000Y-80000000D02*
X88200000Y-80300000D01*
X88600000Y-80700000D01*
X89000000Y-81200000D01*
X89200000Y-81600000D01*
X89300000Y-81800000D01*
X89500000Y-82500000D01*
X89540000Y-83000000D01*
X89475000Y-83600000D01*
X89300000Y-84200000D01*
X88900000Y-84900000D01*
X88300000Y-85600000D01*
X87700000Y-86000000D01*
X87300000Y-86200000D01*
X86500000Y-86400000D01*
X87600000Y-85400000D01*
X87600000Y-84000000D01*
X87200000Y-79800000D01*
X87700000Y-80000000D01*
G36*
X87700000Y-80000000D02*
G01*
X88200000Y-80300000D01*
X88600000Y-80700000D01*
X89000000Y-81200000D01*
X89200000Y-81600000D01*
X89300000Y-81800000D01*
X89500000Y-82500000D01*
X89540000Y-83000000D01*
X89475000Y-83600000D01*
X89300000Y-84200000D01*
X88900000Y-84900000D01*
X88300000Y-85600000D01*
X87700000Y-86000000D01*
X87300000Y-86200000D01*
X86500000Y-86400000D01*
X87600000Y-85400000D01*
X87600000Y-84000000D01*
X87200000Y-79800000D01*
X87700000Y-80000000D01*
G37*
%TO.C,REF\u002A\u002A45*%
X276000000Y-82500000D02*
X277300000Y-82500000D01*
X276600000Y-81400000D02*
X276600000Y-84400000D01*
X279640000Y-80380000D02*
X279640000Y-81850000D01*
X279720000Y-84050000D02*
X279720000Y-81950000D01*
X279720000Y-84050000D02*
X282350000Y-84050000D01*
X281159420Y-84390000D02*
X281440580Y-84390000D01*
X281159420Y-85410000D02*
X281440580Y-85410000D01*
X282350000Y-81950000D02*
X279720000Y-81950000D01*
X282350000Y-81950000D02*
X282350000Y-84050000D01*
X285000000Y-80700000D02*
X285300000Y-81000000D01*
X285000000Y-82700000D02*
X285300000Y-83000000D01*
X285300000Y-81000000D02*
X285000000Y-80700000D01*
X285300000Y-81000000D02*
X285000000Y-81300000D01*
X285300000Y-81000000D02*
X285600000Y-80700000D01*
X285300000Y-81000000D02*
X285600000Y-81300000D01*
X285300000Y-83000000D02*
X285000000Y-82700000D01*
X285300000Y-83000000D02*
X285000000Y-83300000D01*
X285300000Y-83000000D02*
X285600000Y-82700000D01*
X285300000Y-83000000D02*
X285600000Y-83300000D01*
X285300000Y-85000000D02*
X285000000Y-84700000D01*
X285300000Y-85000000D02*
X285000000Y-85300000D01*
X285300000Y-85000000D02*
X285600000Y-84700000D01*
X285300000Y-85000000D02*
X285600000Y-85300000D01*
X285600000Y-80700000D02*
X285300000Y-81000000D01*
X285600000Y-81300000D02*
X285300000Y-81000000D01*
X285600000Y-82700000D02*
X285300000Y-83000000D01*
X285600000Y-83300000D02*
X285300000Y-83000000D01*
X280650000Y-82350000D02*
X281950000Y-82350000D01*
X281950000Y-83650000D01*
X280650000Y-83650000D01*
X280650000Y-82350000D01*
X284740000Y-83000000D02*
G75*
G02*
X277860000Y-83000000I-3440000J0D01*
G01*
X277860000Y-83000000D02*
G75*
G02*
X284740000Y-83000000I3440000J0D01*
G01*
X277200000Y-83500000D02*
X276000000Y-83500000D01*
X276600000Y-82500000D01*
X277200000Y-83500000D01*
G36*
X277200000Y-83500000D02*
G01*
X276000000Y-83500000D01*
X276600000Y-82500000D01*
X277200000Y-83500000D01*
G37*
X281700000Y-86400000D02*
X280900000Y-86400000D01*
X279800000Y-85600000D01*
X282900000Y-85600000D01*
X281700000Y-86400000D01*
G36*
X281700000Y-86400000D02*
G01*
X280900000Y-86400000D01*
X279800000Y-85600000D01*
X282900000Y-85600000D01*
X281700000Y-86400000D01*
G37*
X283000000Y-81800000D02*
X283100000Y-84100000D01*
X282350000Y-84050000D01*
X282400000Y-80300000D01*
X283000000Y-81800000D01*
G36*
X283000000Y-81800000D02*
G01*
X283100000Y-84100000D01*
X282350000Y-84050000D01*
X282400000Y-80300000D01*
X283000000Y-81800000D01*
G37*
X282400000Y-79800000D02*
X282350000Y-81950000D01*
X279640000Y-81850000D01*
X279720000Y-80000000D01*
X280200000Y-79800000D01*
X280900000Y-79600000D01*
X281500000Y-79600000D01*
X282400000Y-79800000D01*
G36*
X282400000Y-79800000D02*
G01*
X282350000Y-81950000D01*
X279640000Y-81850000D01*
X279720000Y-80000000D01*
X280200000Y-79800000D01*
X280900000Y-79600000D01*
X281500000Y-79600000D01*
X282400000Y-79800000D01*
G37*
X279720000Y-84050000D02*
X279800000Y-84050000D01*
X279800000Y-85600000D01*
X280900000Y-86400000D01*
X280100000Y-86200000D01*
X279700000Y-86000000D01*
X279400000Y-85800000D01*
X278900000Y-85400000D01*
X278500000Y-84900000D01*
X278100000Y-84200000D01*
X277900000Y-83400000D01*
X277900000Y-82800000D01*
X278100000Y-81800000D01*
X278500000Y-81100000D01*
X279000000Y-80500000D01*
X279720000Y-80000000D01*
X279720000Y-84050000D01*
G36*
X279720000Y-84050000D02*
G01*
X279800000Y-84050000D01*
X279800000Y-85600000D01*
X280900000Y-86400000D01*
X280100000Y-86200000D01*
X279700000Y-86000000D01*
X279400000Y-85800000D01*
X278900000Y-85400000D01*
X278500000Y-84900000D01*
X278100000Y-84200000D01*
X277900000Y-83400000D01*
X277900000Y-82800000D01*
X278100000Y-81800000D01*
X278500000Y-81100000D01*
X279000000Y-80500000D01*
X279720000Y-80000000D01*
X279720000Y-84050000D01*
G37*
X282350000Y-84050000D02*
X279800000Y-84050000D01*
X279800000Y-84000000D01*
X282350000Y-84050000D01*
G36*
X282350000Y-84050000D02*
G01*
X279800000Y-84050000D01*
X279800000Y-84000000D01*
X282350000Y-84050000D01*
G37*
X282900000Y-80000000D02*
X283400000Y-80300000D01*
X283800000Y-80700000D01*
X284200000Y-81200000D01*
X284400000Y-81600000D01*
X284500000Y-81800000D01*
X284700000Y-82500000D01*
X284740000Y-83000000D01*
X284675000Y-83600000D01*
X284500000Y-84200000D01*
X284100000Y-84900000D01*
X283500000Y-85600000D01*
X282900000Y-86000000D01*
X282500000Y-86200000D01*
X281700000Y-86400000D01*
X282800000Y-85400000D01*
X282800000Y-84000000D01*
X282400000Y-79800000D01*
X282900000Y-80000000D01*
G36*
X282900000Y-80000000D02*
G01*
X283400000Y-80300000D01*
X283800000Y-80700000D01*
X284200000Y-81200000D01*
X284400000Y-81600000D01*
X284500000Y-81800000D01*
X284700000Y-82500000D01*
X284740000Y-83000000D01*
X284675000Y-83600000D01*
X284500000Y-84200000D01*
X284100000Y-84900000D01*
X283500000Y-85600000D01*
X282900000Y-86000000D01*
X282500000Y-86200000D01*
X281700000Y-86400000D01*
X282800000Y-85400000D01*
X282800000Y-84000000D01*
X282400000Y-79800000D01*
X282900000Y-80000000D01*
G37*
%TO.C,REF\u002A\u002A20*%
X32000000Y-82500000D02*
X33300000Y-82500000D01*
X32600000Y-81400000D02*
X32600000Y-84400000D01*
X35640000Y-80380000D02*
X35640000Y-81850000D01*
X35720000Y-84050000D02*
X35720000Y-81950000D01*
X35720000Y-84050000D02*
X38350000Y-84050000D01*
X37159420Y-84390000D02*
X37440580Y-84390000D01*
X37159420Y-85410000D02*
X37440580Y-85410000D01*
X38350000Y-81950000D02*
X35720000Y-81950000D01*
X38350000Y-81950000D02*
X38350000Y-84050000D01*
X41000000Y-80700000D02*
X41300000Y-81000000D01*
X41000000Y-82700000D02*
X41300000Y-83000000D01*
X41300000Y-81000000D02*
X41000000Y-80700000D01*
X41300000Y-81000000D02*
X41000000Y-81300000D01*
X41300000Y-81000000D02*
X41600000Y-80700000D01*
X41300000Y-81000000D02*
X41600000Y-81300000D01*
X41300000Y-83000000D02*
X41000000Y-82700000D01*
X41300000Y-83000000D02*
X41000000Y-83300000D01*
X41300000Y-83000000D02*
X41600000Y-82700000D01*
X41300000Y-83000000D02*
X41600000Y-83300000D01*
X41300000Y-85000000D02*
X41000000Y-84700000D01*
X41300000Y-85000000D02*
X41000000Y-85300000D01*
X41300000Y-85000000D02*
X41600000Y-84700000D01*
X41300000Y-85000000D02*
X41600000Y-85300000D01*
X41600000Y-80700000D02*
X41300000Y-81000000D01*
X41600000Y-81300000D02*
X41300000Y-81000000D01*
X41600000Y-82700000D02*
X41300000Y-83000000D01*
X41600000Y-83300000D02*
X41300000Y-83000000D01*
X36650000Y-82350000D02*
X37950000Y-82350000D01*
X37950000Y-83650000D01*
X36650000Y-83650000D01*
X36650000Y-82350000D01*
X40740000Y-83000000D02*
G75*
G02*
X33860000Y-83000000I-3440000J0D01*
G01*
X33860000Y-83000000D02*
G75*
G02*
X40740000Y-83000000I3440000J0D01*
G01*
X33200000Y-83500000D02*
X32000000Y-83500000D01*
X32600000Y-82500000D01*
X33200000Y-83500000D01*
G36*
X33200000Y-83500000D02*
G01*
X32000000Y-83500000D01*
X32600000Y-82500000D01*
X33200000Y-83500000D01*
G37*
X37700000Y-86400000D02*
X36900000Y-86400000D01*
X35800000Y-85600000D01*
X38900000Y-85600000D01*
X37700000Y-86400000D01*
G36*
X37700000Y-86400000D02*
G01*
X36900000Y-86400000D01*
X35800000Y-85600000D01*
X38900000Y-85600000D01*
X37700000Y-86400000D01*
G37*
X39000000Y-81800000D02*
X39100000Y-84100000D01*
X38350000Y-84050000D01*
X38400000Y-80300000D01*
X39000000Y-81800000D01*
G36*
X39000000Y-81800000D02*
G01*
X39100000Y-84100000D01*
X38350000Y-84050000D01*
X38400000Y-80300000D01*
X39000000Y-81800000D01*
G37*
X38400000Y-79800000D02*
X38350000Y-81950000D01*
X35640000Y-81850000D01*
X35720000Y-80000000D01*
X36200000Y-79800000D01*
X36900000Y-79600000D01*
X37500000Y-79600000D01*
X38400000Y-79800000D01*
G36*
X38400000Y-79800000D02*
G01*
X38350000Y-81950000D01*
X35640000Y-81850000D01*
X35720000Y-80000000D01*
X36200000Y-79800000D01*
X36900000Y-79600000D01*
X37500000Y-79600000D01*
X38400000Y-79800000D01*
G37*
X35720000Y-84050000D02*
X35800000Y-84050000D01*
X35800000Y-85600000D01*
X36900000Y-86400000D01*
X36100000Y-86200000D01*
X35700000Y-86000000D01*
X35400000Y-85800000D01*
X34900000Y-85400000D01*
X34500000Y-84900000D01*
X34100000Y-84200000D01*
X33900000Y-83400000D01*
X33900000Y-82800000D01*
X34100000Y-81800000D01*
X34500000Y-81100000D01*
X35000000Y-80500000D01*
X35720000Y-80000000D01*
X35720000Y-84050000D01*
G36*
X35720000Y-84050000D02*
G01*
X35800000Y-84050000D01*
X35800000Y-85600000D01*
X36900000Y-86400000D01*
X36100000Y-86200000D01*
X35700000Y-86000000D01*
X35400000Y-85800000D01*
X34900000Y-85400000D01*
X34500000Y-84900000D01*
X34100000Y-84200000D01*
X33900000Y-83400000D01*
X33900000Y-82800000D01*
X34100000Y-81800000D01*
X34500000Y-81100000D01*
X35000000Y-80500000D01*
X35720000Y-80000000D01*
X35720000Y-84050000D01*
G37*
X38350000Y-84050000D02*
X35800000Y-84050000D01*
X35800000Y-84000000D01*
X38350000Y-84050000D01*
G36*
X38350000Y-84050000D02*
G01*
X35800000Y-84050000D01*
X35800000Y-84000000D01*
X38350000Y-84050000D01*
G37*
X38900000Y-80000000D02*
X39400000Y-80300000D01*
X39800000Y-80700000D01*
X40200000Y-81200000D01*
X40400000Y-81600000D01*
X40500000Y-81800000D01*
X40700000Y-82500000D01*
X40740000Y-83000000D01*
X40675000Y-83600000D01*
X40500000Y-84200000D01*
X40100000Y-84900000D01*
X39500000Y-85600000D01*
X38900000Y-86000000D01*
X38500000Y-86200000D01*
X37700000Y-86400000D01*
X38800000Y-85400000D01*
X38800000Y-84000000D01*
X38400000Y-79800000D01*
X38900000Y-80000000D01*
G36*
X38900000Y-80000000D02*
G01*
X39400000Y-80300000D01*
X39800000Y-80700000D01*
X40200000Y-81200000D01*
X40400000Y-81600000D01*
X40500000Y-81800000D01*
X40700000Y-82500000D01*
X40740000Y-83000000D01*
X40675000Y-83600000D01*
X40500000Y-84200000D01*
X40100000Y-84900000D01*
X39500000Y-85600000D01*
X38900000Y-86000000D01*
X38500000Y-86200000D01*
X37700000Y-86400000D01*
X38800000Y-85400000D01*
X38800000Y-84000000D01*
X38400000Y-79800000D01*
X38900000Y-80000000D01*
G37*
D15*
%TO.C,G\u002A\u002A\u002A*%
G36*
X81783085Y-98542662D02*
G01*
X81072264Y-98542662D01*
X81072264Y-94293533D01*
X81783085Y-94293533D01*
X81783085Y-98542662D01*
G37*
G36*
X93961816Y-98542662D02*
G01*
X93250995Y-98542662D01*
X93250995Y-94293533D01*
X93961816Y-94293533D01*
X93961816Y-98542662D01*
G37*
G36*
X99474627Y-94925373D02*
G01*
X98321518Y-94925373D01*
X98321518Y-96078483D01*
X99285075Y-96078483D01*
X99285075Y-96694528D01*
X98321518Y-96694528D01*
X98321518Y-97910821D01*
X99490423Y-97910821D01*
X99490423Y-98542662D01*
X97610697Y-98542662D01*
X97610697Y-94293533D01*
X99474627Y-94293533D01*
X99474627Y-94925373D01*
G37*
G36*
X86107245Y-94297355D02*
G01*
X87035262Y-94301431D01*
X87039545Y-94613402D01*
X87043827Y-94925373D01*
X85874254Y-94925373D01*
X85874254Y-96078483D01*
X86853607Y-96078483D01*
X86853607Y-96694071D01*
X86367880Y-96698248D01*
X85882152Y-96702426D01*
X85878015Y-97306623D01*
X85873879Y-97910821D01*
X87058956Y-97910821D01*
X87058956Y-98542662D01*
X85179229Y-98542662D01*
X85179229Y-94293280D01*
X86107245Y-94297355D01*
G37*
G36*
X76929827Y-99035291D02*
G01*
X76933212Y-99069397D01*
X76933707Y-99109322D01*
X76930339Y-99169774D01*
X76920944Y-99207781D01*
X76913962Y-99216794D01*
X76896814Y-99225400D01*
X76852926Y-99246599D01*
X76783988Y-99279593D01*
X76691692Y-99323581D01*
X76577729Y-99377767D01*
X76443790Y-99441351D01*
X76291566Y-99513536D01*
X76122750Y-99593522D01*
X75939031Y-99680512D01*
X75742102Y-99773707D01*
X75533654Y-99872308D01*
X75315378Y-99975518D01*
X75088965Y-100082538D01*
X74856107Y-100192569D01*
X74618494Y-100304812D01*
X74377819Y-100418471D01*
X74135773Y-100532745D01*
X73894046Y-100646837D01*
X73654331Y-100759949D01*
X73418317Y-100871281D01*
X73187698Y-100980036D01*
X72964164Y-101085414D01*
X72749406Y-101186619D01*
X72545115Y-101282850D01*
X72352984Y-101373311D01*
X72174703Y-101457202D01*
X72011963Y-101533724D01*
X71866456Y-101602081D01*
X71739873Y-101661472D01*
X71633906Y-101711100D01*
X71550245Y-101750166D01*
X71490582Y-101777873D01*
X71456609Y-101793420D01*
X71449023Y-101796642D01*
X71446452Y-101781378D01*
X71444062Y-101737715D01*
X71441910Y-101668845D01*
X71440054Y-101577961D01*
X71438550Y-101468256D01*
X71437455Y-101342921D01*
X71436825Y-101205150D01*
X71436692Y-101103538D01*
X71436692Y-100410433D01*
X71543315Y-100383840D01*
X71582818Y-100373922D01*
X71649587Y-100357076D01*
X71741721Y-100333785D01*
X71857320Y-100304531D01*
X71994483Y-100269798D01*
X72151308Y-100230066D01*
X72325894Y-100185820D01*
X72516341Y-100137542D01*
X72720748Y-100085713D01*
X72937213Y-100030816D01*
X73163836Y-99973335D01*
X73398716Y-99913750D01*
X73639951Y-99852546D01*
X73885641Y-99790204D01*
X74133884Y-99727207D01*
X74382781Y-99664037D01*
X74630429Y-99601176D01*
X74874928Y-99539108D01*
X75114377Y-99478315D01*
X75346875Y-99419279D01*
X75570520Y-99362482D01*
X75783413Y-99308408D01*
X75983651Y-99257538D01*
X76169335Y-99210355D01*
X76338563Y-99167342D01*
X76489433Y-99128981D01*
X76620046Y-99095755D01*
X76728500Y-99068145D01*
X76812893Y-99046635D01*
X76871326Y-99031707D01*
X76901897Y-99023844D01*
X76906064Y-99022737D01*
X76921456Y-99021864D01*
X76929827Y-99035291D01*
G37*
G36*
X88279198Y-94293662D02*
G01*
X88419480Y-94294124D01*
X88555735Y-94295381D01*
X88683291Y-94297329D01*
X88797474Y-94299867D01*
X88893611Y-94302893D01*
X88967029Y-94306306D01*
X89009764Y-94309616D01*
X89200002Y-94342196D01*
X89366497Y-94394861D01*
X89508987Y-94467465D01*
X89627209Y-94559860D01*
X89720902Y-94671897D01*
X89756115Y-94730782D01*
X89780557Y-94778519D01*
X89800694Y-94823830D01*
X89816902Y-94870268D01*
X89829559Y-94921386D01*
X89839040Y-94980735D01*
X89845723Y-95051869D01*
X89849984Y-95138339D01*
X89852202Y-95243699D01*
X89852751Y-95371501D01*
X89852010Y-95525296D01*
X89851148Y-95626614D01*
X89849674Y-95778605D01*
X89848213Y-95902536D01*
X89846547Y-96001938D01*
X89844457Y-96080345D01*
X89841725Y-96141286D01*
X89838133Y-96188294D01*
X89833463Y-96224899D01*
X89827496Y-96254635D01*
X89820015Y-96281031D01*
X89810801Y-96307620D01*
X89808721Y-96313299D01*
X89748200Y-96436654D01*
X89663242Y-96551000D01*
X89561000Y-96647288D01*
X89523135Y-96674596D01*
X89474014Y-96708483D01*
X89436471Y-96736524D01*
X89417251Y-96753624D01*
X89416158Y-96755393D01*
X89420303Y-96772186D01*
X89433749Y-96816241D01*
X89455625Y-96884911D01*
X89485062Y-96975549D01*
X89521191Y-97085507D01*
X89563140Y-97212138D01*
X89610042Y-97352794D01*
X89661027Y-97504828D01*
X89711711Y-97655197D01*
X90011568Y-98542662D01*
X89288806Y-98542662D01*
X89233049Y-98372855D01*
X89215286Y-98318266D01*
X89189464Y-98238232D01*
X89157079Y-98137420D01*
X89119627Y-98020498D01*
X89078602Y-97892133D01*
X89035499Y-97756993D01*
X88993960Y-97626493D01*
X88951518Y-97493070D01*
X88910837Y-97365287D01*
X88873208Y-97247185D01*
X88839920Y-97142809D01*
X88812262Y-97056201D01*
X88791525Y-96991404D01*
X88778996Y-96952462D01*
X88778591Y-96951213D01*
X88746554Y-96852488D01*
X88401617Y-96852488D01*
X88401617Y-98542662D01*
X87690796Y-98542662D01*
X87690796Y-96236443D01*
X88401617Y-96236443D01*
X88634609Y-96236355D01*
X88722624Y-96235204D01*
X88804223Y-96232103D01*
X88871855Y-96227482D01*
X88917971Y-96221772D01*
X88927267Y-96219697D01*
X89004346Y-96183065D01*
X89070806Y-96122464D01*
X89118708Y-96045405D01*
X89123260Y-96034308D01*
X89132515Y-96006705D01*
X89139578Y-95975048D01*
X89144730Y-95934848D01*
X89148257Y-95881613D01*
X89150442Y-95810851D01*
X89151570Y-95718073D01*
X89151924Y-95598787D01*
X89151928Y-95580908D01*
X89151301Y-95442558D01*
X89148897Y-95331723D01*
X89143931Y-95244344D01*
X89135617Y-95176360D01*
X89123171Y-95123710D01*
X89105807Y-95082335D01*
X89082741Y-95048173D01*
X89053187Y-95017164D01*
X89040763Y-95005951D01*
X89003196Y-94977164D01*
X88961911Y-94955959D01*
X88911487Y-94941263D01*
X88846505Y-94932001D01*
X88761546Y-94927100D01*
X88651190Y-94925486D01*
X88634609Y-94925462D01*
X88401617Y-94925373D01*
X88401617Y-96236443D01*
X87690796Y-96236443D01*
X87690796Y-94925373D01*
X87690796Y-94293533D01*
X88279198Y-94293662D01*
G37*
G36*
X78754198Y-94293662D02*
G01*
X78894480Y-94294124D01*
X79030735Y-94295381D01*
X79158291Y-94297329D01*
X79272474Y-94299867D01*
X79368611Y-94302893D01*
X79442029Y-94306306D01*
X79484764Y-94309616D01*
X79675105Y-94342352D01*
X79841786Y-94395460D01*
X79984591Y-94468775D01*
X80103302Y-94562131D01*
X80197702Y-94675364D01*
X80267574Y-94808307D01*
X80306867Y-94933863D01*
X80313557Y-94967257D01*
X80318865Y-95005845D01*
X80322892Y-95053144D01*
X80325737Y-95112669D01*
X80327501Y-95187935D01*
X80328284Y-95282459D01*
X80328184Y-95399755D01*
X80327304Y-95543339D01*
X80326591Y-95627260D01*
X80325163Y-95778968D01*
X80323756Y-95902582D01*
X80322150Y-96001600D01*
X80320124Y-96079520D01*
X80317459Y-96139839D01*
X80313936Y-96186054D01*
X80309334Y-96221664D01*
X80303434Y-96250166D01*
X80296016Y-96275057D01*
X80286860Y-96299835D01*
X80283837Y-96307525D01*
X80217235Y-96444877D01*
X80133716Y-96558586D01*
X80028719Y-96654086D01*
X79946798Y-96708967D01*
X79910703Y-96733391D01*
X79889719Y-96752962D01*
X79887563Y-96757809D01*
X79892482Y-96774813D01*
X79906644Y-96819051D01*
X79929154Y-96887835D01*
X79959121Y-96978479D01*
X79995649Y-97088294D01*
X80037846Y-97214593D01*
X80084817Y-97354689D01*
X80135670Y-97505894D01*
X80179789Y-97636732D01*
X80233208Y-97795310D01*
X80283475Y-97945199D01*
X80329694Y-98083683D01*
X80370969Y-98208047D01*
X80406406Y-98315574D01*
X80435107Y-98403548D01*
X80456177Y-98469253D01*
X80468720Y-98509973D01*
X80472015Y-98522797D01*
X80465997Y-98529562D01*
X80445769Y-98534537D01*
X80408074Y-98537868D01*
X80349653Y-98539704D01*
X80267247Y-98540193D01*
X80157598Y-98539482D01*
X80114892Y-98539010D01*
X79757769Y-98534764D01*
X79545944Y-97871331D01*
X79499243Y-97725000D01*
X79453459Y-97581426D01*
X79409935Y-97444825D01*
X79370013Y-97319416D01*
X79335035Y-97209415D01*
X79306344Y-97119039D01*
X79285280Y-97052505D01*
X79278247Y-97030193D01*
X79222374Y-96852488D01*
X78876617Y-96852488D01*
X78876617Y-98542662D01*
X78165796Y-98542662D01*
X78165796Y-96236443D01*
X78876617Y-96236443D01*
X79109609Y-96236355D01*
X79197522Y-96235222D01*
X79278919Y-96232171D01*
X79346285Y-96227624D01*
X79392104Y-96222006D01*
X79401344Y-96219952D01*
X79480529Y-96182657D01*
X79547684Y-96121563D01*
X79589339Y-96055442D01*
X79598283Y-96032824D01*
X79605198Y-96006417D01*
X79610340Y-95972065D01*
X79613962Y-95925617D01*
X79616317Y-95862919D01*
X79617659Y-95779817D01*
X79618243Y-95672157D01*
X79618336Y-95580908D01*
X79617945Y-95442268D01*
X79616282Y-95331279D01*
X79612614Y-95244008D01*
X79606208Y-95176517D01*
X79596333Y-95124873D01*
X79582254Y-95085140D01*
X79563238Y-95053383D01*
X79538554Y-95025666D01*
X79510215Y-95000358D01*
X79473022Y-94973351D01*
X79431342Y-94953496D01*
X79379789Y-94939787D01*
X79312976Y-94931216D01*
X79225515Y-94926778D01*
X79112020Y-94925463D01*
X79109609Y-94925462D01*
X78876617Y-94925373D01*
X78876617Y-96236443D01*
X78165796Y-96236443D01*
X78165796Y-94925373D01*
X78165796Y-94293533D01*
X78754198Y-94293662D01*
G37*
G36*
X95316325Y-94293662D02*
G01*
X95517952Y-94294365D01*
X95691286Y-94296635D01*
X95839604Y-94300859D01*
X95966185Y-94307424D01*
X96074305Y-94316719D01*
X96167241Y-94329129D01*
X96248272Y-94345043D01*
X96320674Y-94364847D01*
X96387724Y-94388929D01*
X96452701Y-94417675D01*
X96480031Y-94431167D01*
X96563108Y-94484399D01*
X96647649Y-94557514D01*
X96723878Y-94640872D01*
X96782021Y-94724830D01*
X96787039Y-94733963D01*
X96803180Y-94764298D01*
X96817414Y-94792403D01*
X96829863Y-94820365D01*
X96840644Y-94850273D01*
X96849878Y-94884216D01*
X96857685Y-94924281D01*
X96864185Y-94972557D01*
X96869497Y-95031132D01*
X96873741Y-95102095D01*
X96877036Y-95187533D01*
X96879503Y-95289535D01*
X96881262Y-95410190D01*
X96882431Y-95551585D01*
X96883131Y-95715809D01*
X96883482Y-95904950D01*
X96883603Y-96121096D01*
X96883614Y-96366336D01*
X96883613Y-96418097D01*
X96883612Y-96669265D01*
X96883528Y-96890932D01*
X96883238Y-97085190D01*
X96882621Y-97254131D01*
X96881553Y-97399846D01*
X96879914Y-97524427D01*
X96877581Y-97629966D01*
X96874432Y-97718554D01*
X96870345Y-97792283D01*
X96865197Y-97853244D01*
X96858866Y-97903529D01*
X96851231Y-97945229D01*
X96842169Y-97980437D01*
X96831558Y-98011243D01*
X96819276Y-98039740D01*
X96805201Y-98068019D01*
X96789210Y-98098171D01*
X96785055Y-98105954D01*
X96703212Y-98226242D01*
X96595892Y-98328406D01*
X96463871Y-98411893D01*
X96307925Y-98476150D01*
X96234665Y-98497483D01*
X96200750Y-98505857D01*
X96167252Y-98512811D01*
X96130811Y-98518515D01*
X96088071Y-98523137D01*
X96035674Y-98526847D01*
X95970262Y-98529814D01*
X95888476Y-98532206D01*
X95786959Y-98534194D01*
X95662353Y-98535945D01*
X95511300Y-98537630D01*
X95418999Y-98538557D01*
X94735821Y-98545270D01*
X94735821Y-97910821D01*
X95446642Y-97910821D01*
X95671735Y-97910733D01*
X95758338Y-97909560D01*
X95838515Y-97906405D01*
X95904541Y-97901716D01*
X95948692Y-97895938D01*
X95955573Y-97894330D01*
X96034758Y-97857035D01*
X96101913Y-97795941D01*
X96143568Y-97729820D01*
X96148878Y-97716772D01*
X96153499Y-97701158D01*
X96157479Y-97680823D01*
X96160865Y-97653611D01*
X96163705Y-97617368D01*
X96166047Y-97569940D01*
X96167939Y-97509170D01*
X96169427Y-97432905D01*
X96170560Y-97338989D01*
X96171385Y-97225268D01*
X96171949Y-97089586D01*
X96172302Y-96929788D01*
X96172489Y-96743721D01*
X96172559Y-96529228D01*
X96172565Y-96418097D01*
X96172534Y-96189514D01*
X96172407Y-95990368D01*
X96172138Y-95818504D01*
X96171679Y-95671768D01*
X96170982Y-95548003D01*
X96170000Y-95445056D01*
X96168685Y-95360772D01*
X96166989Y-95292995D01*
X96164864Y-95239571D01*
X96162264Y-95198345D01*
X96159140Y-95167161D01*
X96155445Y-95143865D01*
X96151131Y-95126303D01*
X96146150Y-95112318D01*
X96143568Y-95106374D01*
X96093826Y-95030848D01*
X96024529Y-94972536D01*
X95955573Y-94941865D01*
X95918299Y-94935879D01*
X95857162Y-94930867D01*
X95779888Y-94927275D01*
X95694201Y-94925549D01*
X95671735Y-94925462D01*
X95446642Y-94925373D01*
X95446642Y-97910821D01*
X94735821Y-97910821D01*
X94735821Y-94925373D01*
X94735821Y-94293533D01*
X95316325Y-94293662D01*
G37*
G36*
X84454808Y-94294007D02*
G01*
X84544953Y-94295534D01*
X84609057Y-94298271D01*
X84649890Y-94302372D01*
X84670222Y-94307994D01*
X84673757Y-94312569D01*
X84670880Y-94330118D01*
X84662476Y-94376899D01*
X84648883Y-94451101D01*
X84630439Y-94550914D01*
X84607483Y-94674526D01*
X84580353Y-94820128D01*
X84549388Y-94985907D01*
X84514925Y-95170053D01*
X84477304Y-95370756D01*
X84436863Y-95586205D01*
X84393939Y-95814589D01*
X84348873Y-96054096D01*
X84302001Y-96302918D01*
X84278856Y-96425681D01*
X84231253Y-96678194D01*
X84185290Y-96922168D01*
X84141306Y-97155800D01*
X84099639Y-97377289D01*
X84060626Y-97584832D01*
X84024605Y-97776628D01*
X83991915Y-97950873D01*
X83962894Y-98105766D01*
X83937879Y-98239505D01*
X83917209Y-98350288D01*
X83901221Y-98436311D01*
X83890254Y-98495774D01*
X83884645Y-98526874D01*
X83883956Y-98531210D01*
X83868865Y-98534340D01*
X83826412Y-98537144D01*
X83760827Y-98539500D01*
X83676339Y-98541283D01*
X83577177Y-98542373D01*
X83489055Y-98542662D01*
X83381112Y-98542223D01*
X83284419Y-98540988D01*
X83203205Y-98539080D01*
X83141700Y-98536622D01*
X83104132Y-98533738D01*
X83094155Y-98531174D01*
X83091281Y-98514547D01*
X83082884Y-98468679D01*
X83069302Y-98395371D01*
X83050874Y-98296426D01*
X83027937Y-98173645D01*
X83000829Y-98028832D01*
X82969888Y-97863788D01*
X82935451Y-97680314D01*
X82897858Y-97480214D01*
X82857446Y-97265289D01*
X82814552Y-97037342D01*
X82769515Y-96798174D01*
X82722673Y-96549588D01*
X82699254Y-96425367D01*
X82651635Y-96172687D01*
X82605658Y-95928446D01*
X82561661Y-95694457D01*
X82519983Y-95472528D01*
X82480961Y-95264472D01*
X82444934Y-95072099D01*
X82412241Y-94897220D01*
X82383220Y-94741644D01*
X82358208Y-94607184D01*
X82337545Y-94495649D01*
X82321569Y-94408851D01*
X82310619Y-94348599D01*
X82305031Y-94316705D01*
X82304354Y-94311994D01*
X82312236Y-94305596D01*
X82337764Y-94300932D01*
X82383764Y-94297888D01*
X82453057Y-94296346D01*
X82548470Y-94296189D01*
X82663211Y-94297185D01*
X83022069Y-94301431D01*
X83260345Y-95829213D01*
X83294046Y-96044887D01*
X83326478Y-96251644D01*
X83357301Y-96447358D01*
X83386174Y-96629902D01*
X83412757Y-96797151D01*
X83436709Y-96946978D01*
X83457690Y-97077256D01*
X83475360Y-97185859D01*
X83489377Y-97270661D01*
X83499402Y-97329535D01*
X83505094Y-97360356D01*
X83506196Y-97364571D01*
X83509642Y-97350407D01*
X83517560Y-97307136D01*
X83529611Y-97236872D01*
X83545451Y-97141731D01*
X83564741Y-97023828D01*
X83587139Y-96885279D01*
X83612304Y-96728199D01*
X83639894Y-96554703D01*
X83669568Y-96366906D01*
X83700985Y-96166924D01*
X83733803Y-95956872D01*
X83747577Y-95868380D01*
X83780981Y-95653718D01*
X83813128Y-95447485D01*
X83843673Y-95251878D01*
X83872269Y-95069093D01*
X83898573Y-94901328D01*
X83922237Y-94750780D01*
X83942917Y-94619645D01*
X83960267Y-94510119D01*
X83973942Y-94424400D01*
X83983595Y-94364684D01*
X83988883Y-94333169D01*
X83989668Y-94329074D01*
X83993079Y-94317356D01*
X83999800Y-94308547D01*
X84013871Y-94302231D01*
X84039333Y-94297993D01*
X84080227Y-94295419D01*
X84140593Y-94294095D01*
X84224471Y-94293604D01*
X84335855Y-94293533D01*
X84454808Y-94294007D01*
G37*
G36*
X91617157Y-94256154D02*
G01*
X91743501Y-94263810D01*
X91851968Y-94278186D01*
X91876742Y-94283193D01*
X92025773Y-94328310D01*
X92163761Y-94393719D01*
X92285806Y-94476091D01*
X92387005Y-94572095D01*
X92462459Y-94678401D01*
X92464884Y-94682842D01*
X92492100Y-94736321D01*
X92513807Y-94787909D01*
X92530621Y-94842040D01*
X92543156Y-94903147D01*
X92552027Y-94975665D01*
X92557848Y-95064028D01*
X92561234Y-95172668D01*
X92562801Y-95306020D01*
X92563109Y-95391356D01*
X92563869Y-95817849D01*
X91868844Y-95817849D01*
X91860946Y-95446642D01*
X91857910Y-95318892D01*
X91854267Y-95218466D01*
X91849094Y-95141099D01*
X91841467Y-95082524D01*
X91830465Y-95038476D01*
X91815164Y-95004688D01*
X91794643Y-94976894D01*
X91767977Y-94950828D01*
X91750450Y-94935760D01*
X91675576Y-94891393D01*
X91586332Y-94867369D01*
X91490776Y-94863206D01*
X91396966Y-94878427D01*
X91312959Y-94912552D01*
X91246814Y-94965101D01*
X91246237Y-94965755D01*
X91212066Y-95014312D01*
X91186370Y-95067469D01*
X91182667Y-95078953D01*
X91175730Y-95121945D01*
X91170739Y-95188863D01*
X91167688Y-95272099D01*
X91166567Y-95364048D01*
X91167369Y-95457104D01*
X91170087Y-95543659D01*
X91174712Y-95616108D01*
X91181237Y-95666845D01*
X91183282Y-95675684D01*
X91203594Y-95725209D01*
X91239032Y-95775365D01*
X91292034Y-95828104D01*
X91365036Y-95885376D01*
X91460475Y-95949132D01*
X91580787Y-96021323D01*
X91695954Y-96086114D01*
X91863372Y-96179868D01*
X92004791Y-96262818D01*
X92123034Y-96337094D01*
X92220925Y-96404829D01*
X92301286Y-96468153D01*
X92366942Y-96529199D01*
X92420714Y-96590097D01*
X92465427Y-96652980D01*
X92481381Y-96679121D01*
X92505539Y-96722908D01*
X92525113Y-96765917D01*
X92540525Y-96811920D01*
X92552194Y-96864691D01*
X92560541Y-96928003D01*
X92565987Y-97005628D01*
X92568951Y-97101340D01*
X92569854Y-97218911D01*
X92569117Y-97362114D01*
X92568112Y-97457628D01*
X92566342Y-97599069D01*
X92564532Y-97712772D01*
X92562420Y-97802591D01*
X92559746Y-97872380D01*
X92556250Y-97925991D01*
X92551672Y-97967278D01*
X92545749Y-98000096D01*
X92538222Y-98028296D01*
X92528830Y-98055734D01*
X92527398Y-98059608D01*
X92462229Y-98197588D01*
X92377050Y-98312805D01*
X92270343Y-98406538D01*
X92140593Y-98480066D01*
X91986282Y-98534667D01*
X91954109Y-98542995D01*
X91869756Y-98558659D01*
X91762997Y-98570966D01*
X91642879Y-98579533D01*
X91518446Y-98583981D01*
X91398745Y-98583929D01*
X91292822Y-98578995D01*
X91237003Y-98573178D01*
X91056772Y-98536559D01*
X90899883Y-98479333D01*
X90766656Y-98401762D01*
X90657412Y-98304107D01*
X90572471Y-98186631D01*
X90512154Y-98049595D01*
X90488605Y-97961381D01*
X90483180Y-97918684D01*
X90478605Y-97847820D01*
X90474991Y-97752205D01*
X90472451Y-97635256D01*
X90471096Y-97500389D01*
X90470896Y-97420367D01*
X90470896Y-96963060D01*
X91165921Y-96963060D01*
X91165921Y-97715604D01*
X91209360Y-97801366D01*
X91265969Y-97880552D01*
X91342972Y-97936035D01*
X91439109Y-97967120D01*
X91521331Y-97974005D01*
X91630744Y-97961318D01*
X91721947Y-97923719D01*
X91793684Y-97861905D01*
X91833303Y-97801366D01*
X91848916Y-97769452D01*
X91860255Y-97740879D01*
X91868002Y-97709915D01*
X91872841Y-97670825D01*
X91875454Y-97617875D01*
X91876527Y-97545332D01*
X91876741Y-97447461D01*
X91876742Y-97436922D01*
X91875696Y-97314043D01*
X91871763Y-97217656D01*
X91863743Y-97142705D01*
X91850440Y-97084135D01*
X91830656Y-97036891D01*
X91803195Y-96995917D01*
X91766859Y-96956159D01*
X91761673Y-96951062D01*
X91727134Y-96923250D01*
X91669061Y-96883225D01*
X91591759Y-96833712D01*
X91499528Y-96777439D01*
X91396672Y-96717133D01*
X91355473Y-96693601D01*
X91187000Y-96596725D01*
X91044385Y-96511434D01*
X90924999Y-96435660D01*
X90826210Y-96367335D01*
X90745387Y-96304390D01*
X90679900Y-96244757D01*
X90627117Y-96186368D01*
X90584409Y-96127155D01*
X90549144Y-96065051D01*
X90544800Y-96056311D01*
X90524230Y-96011787D01*
X90507882Y-95968639D01*
X90495274Y-95922567D01*
X90485926Y-95869274D01*
X90479357Y-95804459D01*
X90475086Y-95723823D01*
X90472634Y-95623068D01*
X90471520Y-95497894D01*
X90471282Y-95398624D01*
X90471559Y-95257597D01*
X90472784Y-95144218D01*
X90475136Y-95054552D01*
X90478790Y-94984663D01*
X90483924Y-94930616D01*
X90490715Y-94888476D01*
X90495090Y-94869457D01*
X90547985Y-94722161D01*
X90625890Y-94594055D01*
X90728528Y-94485392D01*
X90855624Y-94396425D01*
X91006898Y-94327408D01*
X91128417Y-94290756D01*
X91228568Y-94272519D01*
X91349921Y-94260607D01*
X91482707Y-94255120D01*
X91617157Y-94256154D01*
G37*
G36*
X76914249Y-92606828D02*
G01*
X76916690Y-92618052D01*
X76918924Y-92638256D01*
X76920960Y-92668662D01*
X76922807Y-92710496D01*
X76924473Y-92764981D01*
X76925967Y-92833341D01*
X76927298Y-92916800D01*
X76928475Y-93016582D01*
X76929506Y-93133912D01*
X76930400Y-93270013D01*
X76931165Y-93426110D01*
X76931810Y-93603426D01*
X76932344Y-93803185D01*
X76932776Y-94026612D01*
X76933114Y-94274930D01*
X76933367Y-94549364D01*
X76933543Y-94851138D01*
X76933652Y-95181475D01*
X76933702Y-95541601D01*
X76933707Y-95723072D01*
X76933660Y-96034556D01*
X76933522Y-96337515D01*
X76933298Y-96630444D01*
X76932992Y-96911838D01*
X76932609Y-97180192D01*
X76932153Y-97434001D01*
X76931629Y-97671761D01*
X76931041Y-97891967D01*
X76930394Y-98093115D01*
X76929693Y-98273698D01*
X76928941Y-98432213D01*
X76928145Y-98567154D01*
X76927307Y-98677017D01*
X76926433Y-98760297D01*
X76925527Y-98815489D01*
X76924594Y-98841089D01*
X76924283Y-98842786D01*
X76908159Y-98845934D01*
X76862466Y-98855188D01*
X76788572Y-98870268D01*
X76687846Y-98890892D01*
X76561657Y-98916777D01*
X76411376Y-98947641D01*
X76238371Y-98983204D01*
X76044011Y-99023183D01*
X75829665Y-99067296D01*
X75596703Y-99115261D01*
X75346494Y-99166797D01*
X75080408Y-99221622D01*
X74799812Y-99279454D01*
X74506077Y-99340011D01*
X74200572Y-99403011D01*
X73884667Y-99468172D01*
X73559729Y-99535214D01*
X73350433Y-99578404D01*
X73018619Y-99646883D01*
X72693966Y-99713883D01*
X72377909Y-99779109D01*
X72071886Y-99842263D01*
X71777331Y-99903050D01*
X71495681Y-99961173D01*
X71228371Y-100016336D01*
X70976837Y-100068242D01*
X70742516Y-100116596D01*
X70526842Y-100161101D01*
X70331253Y-100201461D01*
X70157184Y-100237379D01*
X70006070Y-100268559D01*
X69879348Y-100294705D01*
X69778453Y-100315520D01*
X69704822Y-100330709D01*
X69659890Y-100339975D01*
X69647793Y-100342467D01*
X69509578Y-100370912D01*
X69509578Y-94309329D01*
X70740162Y-94309329D01*
X70746102Y-96090330D01*
X70747156Y-96382317D01*
X70748277Y-96644147D01*
X70749487Y-96877258D01*
X70750805Y-97083083D01*
X70752251Y-97263060D01*
X70753845Y-97418625D01*
X70755608Y-97551212D01*
X70757560Y-97662257D01*
X70759720Y-97753198D01*
X70762108Y-97825469D01*
X70764745Y-97880506D01*
X70767651Y-97919745D01*
X70770845Y-97944622D01*
X70772062Y-97950311D01*
X70825093Y-98103424D01*
X70901141Y-98234968D01*
X71000291Y-98345020D01*
X71122628Y-98433660D01*
X71268239Y-98500965D01*
X71418891Y-98543285D01*
X71527471Y-98560041D01*
X71656830Y-98570296D01*
X71796827Y-98574037D01*
X71937322Y-98571248D01*
X72068173Y-98561912D01*
X72179240Y-98546016D01*
X72187003Y-98544453D01*
X72352818Y-98498897D01*
X72493634Y-98435135D01*
X72611334Y-98351562D01*
X72707799Y-98246572D01*
X72784909Y-98118559D01*
X72836855Y-97989801D01*
X72841321Y-97975066D01*
X72845315Y-97957983D01*
X72848868Y-97936762D01*
X72852012Y-97909614D01*
X72854779Y-97874748D01*
X72857201Y-97830373D01*
X72859311Y-97774700D01*
X72861139Y-97705939D01*
X72862717Y-97622298D01*
X72864079Y-97521989D01*
X72865255Y-97403220D01*
X72866278Y-97264202D01*
X72867180Y-97103145D01*
X72867992Y-96918257D01*
X72868747Y-96707749D01*
X72869476Y-96469832D01*
X72869734Y-96376232D01*
X73550685Y-96376232D01*
X73550788Y-96571861D01*
X73551316Y-96765310D01*
X73552270Y-96953764D01*
X73553651Y-97134410D01*
X73555458Y-97304433D01*
X73557692Y-97461019D01*
X73560353Y-97601355D01*
X73563441Y-97722625D01*
X73566958Y-97822017D01*
X73570903Y-97896715D01*
X73575277Y-97943905D01*
X73577141Y-97954422D01*
X73626287Y-98102820D01*
X73699155Y-98231019D01*
X73796063Y-98339287D01*
X73917328Y-98427892D01*
X74063265Y-98497101D01*
X74234193Y-98547182D01*
X74293100Y-98559009D01*
X74332829Y-98563060D01*
X74397427Y-98566032D01*
X74480182Y-98567774D01*
X74574385Y-98568136D01*
X74659080Y-98567234D01*
X74771582Y-98564664D01*
X74858851Y-98561022D01*
X74927243Y-98555702D01*
X74983113Y-98548096D01*
X75032818Y-98537599D01*
X75067070Y-98528286D01*
X75226157Y-98470285D01*
X75359107Y-98395978D01*
X75467888Y-98303483D01*
X75554469Y-98190920D01*
X75620817Y-98056410D01*
X75649533Y-97971937D01*
X75656793Y-97941383D01*
X75662812Y-97901278D01*
X75667764Y-97848245D01*
X75671825Y-97778910D01*
X75675170Y-97689899D01*
X75677974Y-97577835D01*
X75680413Y-97439345D01*
X75681619Y-97354012D01*
X75688676Y-96820896D01*
X74990796Y-96820896D01*
X74990796Y-97230815D01*
X74990088Y-97358903D01*
X74988067Y-97475086D01*
X74984891Y-97574928D01*
X74980720Y-97653993D01*
X74975709Y-97707845D01*
X74973297Y-97722332D01*
X74939354Y-97811973D01*
X74881807Y-97883362D01*
X74803863Y-97934955D01*
X74708729Y-97965210D01*
X74599610Y-97972584D01*
X74485640Y-97956927D01*
X74396985Y-97922070D01*
X74325181Y-97864473D01*
X74278603Y-97794185D01*
X74273324Y-97781365D01*
X74268713Y-97766292D01*
X74264725Y-97746866D01*
X74261316Y-97720985D01*
X74258439Y-97686550D01*
X74256051Y-97641459D01*
X74254105Y-97583610D01*
X74252558Y-97510905D01*
X74251363Y-97421241D01*
X74250475Y-97312517D01*
X74249851Y-97182634D01*
X74249444Y-97029490D01*
X74249209Y-96850984D01*
X74249102Y-96645015D01*
X74249077Y-96418097D01*
X74249104Y-96183617D01*
X74249215Y-95978628D01*
X74249455Y-95801029D01*
X74249868Y-95648719D01*
X74250501Y-95519599D01*
X74251398Y-95411566D01*
X74252605Y-95322520D01*
X74254165Y-95250360D01*
X74256125Y-95192985D01*
X74258530Y-95148296D01*
X74261424Y-95114189D01*
X74264852Y-95088566D01*
X74268861Y-95069324D01*
X74273494Y-95054364D01*
X74278603Y-95042010D01*
X74329170Y-94967430D01*
X74402237Y-94911151D01*
X74485640Y-94879267D01*
X74602997Y-94864035D01*
X74711711Y-94872757D01*
X74807707Y-94903888D01*
X74886913Y-94955885D01*
X74945255Y-95027202D01*
X74961356Y-95059640D01*
X74968791Y-95091932D01*
X74975028Y-95151179D01*
X74980134Y-95238516D01*
X74984174Y-95355078D01*
X74987212Y-95502001D01*
X74987394Y-95513775D01*
X74993546Y-95920523D01*
X75688909Y-95920523D01*
X75681845Y-95442693D01*
X75679385Y-95297550D01*
X75676594Y-95180201D01*
X75673251Y-95086844D01*
X75669130Y-95013683D01*
X75664008Y-94956917D01*
X75657662Y-94912747D01*
X75649868Y-94877375D01*
X75648216Y-94871374D01*
X75592966Y-94725129D01*
X75515678Y-94599702D01*
X75415199Y-94494017D01*
X75290379Y-94406998D01*
X75140066Y-94337569D01*
X75042910Y-94305560D01*
X74995897Y-94292869D01*
X74951213Y-94283559D01*
X74902714Y-94277121D01*
X74844257Y-94273048D01*
X74769697Y-94270830D01*
X74672891Y-94269958D01*
X74611692Y-94269869D01*
X74501163Y-94270228D01*
X74416043Y-94271653D01*
X74350153Y-94274662D01*
X74297315Y-94279772D01*
X74251350Y-94287503D01*
X74206079Y-94298374D01*
X74177856Y-94306278D01*
X74013390Y-94366578D01*
X73874484Y-94445165D01*
X73760533Y-94542623D01*
X73670930Y-94659537D01*
X73605070Y-94796491D01*
X73577534Y-94885253D01*
X73572980Y-94919133D01*
X73568848Y-94981788D01*
X73565137Y-95070404D01*
X73561849Y-95182167D01*
X73558984Y-95314262D01*
X73556541Y-95463876D01*
X73554522Y-95628195D01*
X73552926Y-95804404D01*
X73551755Y-95989689D01*
X73551008Y-96181236D01*
X73550685Y-96376232D01*
X72869734Y-96376232D01*
X72870211Y-96202713D01*
X72870465Y-96106126D01*
X72875153Y-94309329D01*
X72179785Y-94309329D01*
X72171207Y-97744963D01*
X72136023Y-97810766D01*
X72086364Y-97880091D01*
X72020679Y-97927666D01*
X71933159Y-97957430D01*
X71913908Y-97961336D01*
X71793394Y-97972489D01*
X71686377Y-97959659D01*
X71595749Y-97923876D01*
X71524404Y-97866170D01*
X71485008Y-97808581D01*
X71444590Y-97730034D01*
X71440169Y-96019681D01*
X71435749Y-94309329D01*
X70740162Y-94309329D01*
X69509578Y-94309329D01*
X69509578Y-93664202D01*
X69553017Y-93655255D01*
X69573223Y-93652064D01*
X69622880Y-93644681D01*
X69700313Y-93633343D01*
X69803849Y-93618291D01*
X69931815Y-93599763D01*
X70082536Y-93577999D01*
X70254338Y-93553238D01*
X70445549Y-93525719D01*
X70654494Y-93495682D01*
X70879500Y-93463366D01*
X71118893Y-93429009D01*
X71370998Y-93392852D01*
X71634144Y-93355134D01*
X71906655Y-93316094D01*
X72186857Y-93275970D01*
X72473078Y-93235003D01*
X72763644Y-93193432D01*
X73056880Y-93151495D01*
X73351114Y-93109432D01*
X73644671Y-93067483D01*
X73935877Y-93025887D01*
X74223059Y-92984882D01*
X74504544Y-92944709D01*
X74778657Y-92905606D01*
X75043725Y-92867812D01*
X75298073Y-92831568D01*
X75540029Y-92797111D01*
X75767919Y-92764682D01*
X75980068Y-92734520D01*
X76174804Y-92706864D01*
X76350451Y-92681953D01*
X76505338Y-92660026D01*
X76637789Y-92641323D01*
X76746132Y-92626083D01*
X76828692Y-92614545D01*
X76883796Y-92606949D01*
X76909770Y-92603533D01*
X76911594Y-92603359D01*
X76914249Y-92606828D01*
G37*
%TD*%
M02*
