M48
; DRILL file {KiCad 8.0.2-1} date 2025-02-21T14:42:29-0500
; FORMAT={-:-/ absolute / inch / decimal}
; #@! TF.CreationDate,2025-02-21T14:42:29-05:00
; #@! TF.GenerationSoftware,Kicad,Pcbnew,8.0.2-1
; #@! TF.FileFunction,Plated,1,4,PTH
FMAT,2
INCH
; #@! TA.AperFunction,Plated,PTH,ViaDrill
T1C0.0118
; #@! TA.AperFunction,Plated,PTH,ComponentDrill
T2C0.0157
; #@! TA.AperFunction,Plated,PTH,ComponentDrill
T3C0.0331
; #@! TA.AperFunction,Plated,PTH,ComponentDrill
T4C0.0374
%
G90
G05
T1
X-0.1575Y-2.7402
X-0.1575Y-2.7717
X-0.1575Y-2.8031
X-0.1575Y-2.8346
X-0.1575Y-2.8661
X-0.1575Y-2.8976
X-0.1575Y-3.0551
X-0.1575Y-3.0866
X-0.0197Y-2.685
X-0.0157Y-3.0394
X-0.0118Y-2.7323
X-0.0118Y-2.7953
X-0.0079Y-3.1142
X-0.0039Y-2.9921
X-0.002Y-2.8425
X0.0079Y-2.9213
T2
X1.3563Y-3.2362
X1.3563Y-3.2953
X1.378Y-3.3425
X3.2776Y-3.2362
X3.2776Y-3.2953
X3.2992Y-3.3425
X5.1988Y-3.2362
X5.1988Y-3.2953
X5.2205Y-3.3425
X7.1201Y-3.2362
X7.1201Y-3.2953
X7.1417Y-3.3425
X9.0413Y-3.2362
X9.0413Y-3.2953
X9.063Y-3.3425
X10.9626Y-3.2362
X10.9626Y-3.2953
X10.9843Y-3.3425
X12.8839Y-3.2362
X12.8839Y-3.2953
X12.9055Y-3.3425
X14.8051Y-3.2362
X14.8051Y-3.2953
X14.8268Y-3.3425
T3
X-0.1417Y-2.6183
X-0.1417Y-3.3659
T4
X-0.1693Y-3.714
X-0.1693Y-3.8124
X-0.1693Y-3.9108
M30
