%TF.GenerationSoftware,KiCad,Pcbnew,8.0.2-1*%
%TF.CreationDate,2025-02-24T13:25:55-05:00*%
%TF.ProjectId,ConcentratorBoardOctagon,436f6e63-656e-4747-9261-746f72426f61,rev?*%
%TF.SameCoordinates,Original*%
%TF.FileFunction,Drillmap*%
%TF.FilePolarity,Positive*%
%FSLAX45Y45*%
G04 Gerber Fmt 4.5, Leading zero omitted, Abs format (unit mm)*
G04 Created by KiCad (PCBNEW 8.0.2-1) date 2025-02-24 13:25:55*
%MOMM*%
%LPD*%
G01*
G04 APERTURE LIST*
%ADD10C,0.100000*%
%ADD11C,0.050000*%
%ADD12C,0.200000*%
%ADD13C,0.127000*%
G04 APERTURE END LIST*
D10*
X14735000Y-7350000D02*
G75*
G02*
X15150000Y-7765000I0J-415000D01*
G01*
D11*
X15150000Y-7765000D02*
X15150000Y-12235000D01*
D10*
X4850000Y-7765000D02*
G75*
G02*
X5265000Y-7350000I415000J0D01*
G01*
D11*
X5265000Y-12650000D02*
X14735000Y-12650000D01*
X5265000Y-7350000D02*
X14735000Y-7350000D01*
X4850000Y-7765000D02*
X4850000Y-12235000D01*
X5445000Y-12235000D02*
G75*
G02*
X5085000Y-12235000I-180000J0D01*
G01*
X5085000Y-12235000D02*
G75*
G02*
X5445000Y-12235000I180000J0D01*
G01*
X14915000Y-12235000D02*
G75*
G02*
X14555000Y-12235000I-180000J0D01*
G01*
X14555000Y-12235000D02*
G75*
G02*
X14915000Y-12235000I180000J0D01*
G01*
X14915000Y-7765000D02*
G75*
G02*
X14555000Y-7765000I-180000J0D01*
G01*
X14555000Y-7765000D02*
G75*
G02*
X14915000Y-7765000I180000J0D01*
G01*
X5265000Y-12650000D02*
G75*
G02*
X4850000Y-12235000I0J415000D01*
G01*
D10*
X15150000Y-12235000D02*
G75*
G02*
X14735000Y-12650000I-415000J0D01*
G01*
D11*
X5445000Y-7765000D02*
G75*
G02*
X5085000Y-7765000I-180000J0D01*
G01*
X5085000Y-7765000D02*
G75*
G02*
X5445000Y-7765000I180000J0D01*
G01*
D12*
D13*
X5716500Y-8862000D02*
X5843500Y-8989000D01*
X5843500Y-8862000D02*
X5716500Y-8989000D01*
X5716500Y-11011000D02*
X5843500Y-11138000D01*
X5843500Y-11011000D02*
X5716500Y-11138000D01*
X5802000Y-7856500D02*
X5929000Y-7983500D01*
X5929000Y-7856500D02*
X5802000Y-7983500D01*
X5802000Y-12336500D02*
X5929000Y-12463500D01*
X5929000Y-12336500D02*
X5802000Y-12463500D01*
X6866500Y-9786500D02*
X6993500Y-9913500D01*
X6993500Y-9786500D02*
X6866500Y-9913500D01*
X7951000Y-7856500D02*
X8078000Y-7983500D01*
X8078000Y-7856500D02*
X7951000Y-7983500D01*
X7951000Y-12336500D02*
X8078000Y-12463500D01*
X8078000Y-12336500D02*
X7951000Y-12463500D01*
X8862000Y-7856500D02*
X8989000Y-7983500D01*
X8989000Y-7856500D02*
X8862000Y-7983500D01*
X8862000Y-12336500D02*
X8989000Y-12463500D01*
X8989000Y-12336500D02*
X8862000Y-12463500D01*
X11011000Y-7856500D02*
X11138000Y-7983500D01*
X11138000Y-7856500D02*
X11011000Y-7983500D01*
X11011000Y-12336500D02*
X11138000Y-12463500D01*
X11138000Y-12336500D02*
X11011000Y-12463500D01*
X11922000Y-7856500D02*
X12049000Y-7983500D01*
X12049000Y-7856500D02*
X11922000Y-7983500D01*
X11922000Y-12336500D02*
X12049000Y-12463500D01*
X12049000Y-12336500D02*
X11922000Y-12463500D01*
X13006500Y-9936500D02*
X13133500Y-10063500D01*
X13133500Y-9936500D02*
X13006500Y-10063500D01*
X14071000Y-7856500D02*
X14198000Y-7983500D01*
X14198000Y-7856500D02*
X14071000Y-7983500D01*
X14071000Y-12336500D02*
X14198000Y-12463500D01*
X14198000Y-12336500D02*
X14071000Y-12463500D01*
X14386500Y-8862000D02*
X14513500Y-8989000D01*
X14513500Y-8862000D02*
X14386500Y-8989000D01*
X14386500Y-11011000D02*
X14513500Y-11138000D01*
X14513500Y-11011000D02*
X14386500Y-11138000D01*
D12*
X5105777Y-12966484D02*
X5105777Y-12766484D01*
X5105777Y-12766484D02*
X5153396Y-12766484D01*
X5153396Y-12766484D02*
X5181967Y-12776008D01*
X5181967Y-12776008D02*
X5201015Y-12795055D01*
X5201015Y-12795055D02*
X5210539Y-12814103D01*
X5210539Y-12814103D02*
X5220063Y-12852198D01*
X5220063Y-12852198D02*
X5220063Y-12880769D01*
X5220063Y-12880769D02*
X5210539Y-12918865D01*
X5210539Y-12918865D02*
X5201015Y-12937912D01*
X5201015Y-12937912D02*
X5181967Y-12956960D01*
X5181967Y-12956960D02*
X5153396Y-12966484D01*
X5153396Y-12966484D02*
X5105777Y-12966484D01*
X5305777Y-12966484D02*
X5305777Y-12833150D01*
X5305777Y-12871246D02*
X5315301Y-12852198D01*
X5315301Y-12852198D02*
X5324824Y-12842674D01*
X5324824Y-12842674D02*
X5343872Y-12833150D01*
X5343872Y-12833150D02*
X5362920Y-12833150D01*
X5429586Y-12966484D02*
X5429586Y-12833150D01*
X5429586Y-12766484D02*
X5420063Y-12776008D01*
X5420063Y-12776008D02*
X5429586Y-12785531D01*
X5429586Y-12785531D02*
X5439110Y-12776008D01*
X5439110Y-12776008D02*
X5429586Y-12766484D01*
X5429586Y-12766484D02*
X5429586Y-12785531D01*
X5553396Y-12966484D02*
X5534348Y-12956960D01*
X5534348Y-12956960D02*
X5524824Y-12937912D01*
X5524824Y-12937912D02*
X5524824Y-12766484D01*
X5658158Y-12966484D02*
X5639110Y-12956960D01*
X5639110Y-12956960D02*
X5629586Y-12937912D01*
X5629586Y-12937912D02*
X5629586Y-12766484D01*
X5886729Y-12966484D02*
X5886729Y-12766484D01*
X5886729Y-12766484D02*
X5953396Y-12909341D01*
X5953396Y-12909341D02*
X6020062Y-12766484D01*
X6020062Y-12766484D02*
X6020062Y-12966484D01*
X6201015Y-12966484D02*
X6201015Y-12861722D01*
X6201015Y-12861722D02*
X6191491Y-12842674D01*
X6191491Y-12842674D02*
X6172443Y-12833150D01*
X6172443Y-12833150D02*
X6134348Y-12833150D01*
X6134348Y-12833150D02*
X6115301Y-12842674D01*
X6201015Y-12956960D02*
X6181967Y-12966484D01*
X6181967Y-12966484D02*
X6134348Y-12966484D01*
X6134348Y-12966484D02*
X6115301Y-12956960D01*
X6115301Y-12956960D02*
X6105777Y-12937912D01*
X6105777Y-12937912D02*
X6105777Y-12918865D01*
X6105777Y-12918865D02*
X6115301Y-12899817D01*
X6115301Y-12899817D02*
X6134348Y-12890293D01*
X6134348Y-12890293D02*
X6181967Y-12890293D01*
X6181967Y-12890293D02*
X6201015Y-12880769D01*
X6296253Y-12833150D02*
X6296253Y-13033150D01*
X6296253Y-12842674D02*
X6315301Y-12833150D01*
X6315301Y-12833150D02*
X6353396Y-12833150D01*
X6353396Y-12833150D02*
X6372443Y-12842674D01*
X6372443Y-12842674D02*
X6381967Y-12852198D01*
X6381967Y-12852198D02*
X6391491Y-12871246D01*
X6391491Y-12871246D02*
X6391491Y-12928388D01*
X6391491Y-12928388D02*
X6381967Y-12947436D01*
X6381967Y-12947436D02*
X6372443Y-12956960D01*
X6372443Y-12956960D02*
X6353396Y-12966484D01*
X6353396Y-12966484D02*
X6315301Y-12966484D01*
X6315301Y-12966484D02*
X6296253Y-12956960D01*
X6477205Y-12947436D02*
X6486729Y-12956960D01*
X6486729Y-12956960D02*
X6477205Y-12966484D01*
X6477205Y-12966484D02*
X6467682Y-12956960D01*
X6467682Y-12956960D02*
X6477205Y-12947436D01*
X6477205Y-12947436D02*
X6477205Y-12966484D01*
X6477205Y-12842674D02*
X6486729Y-12852198D01*
X6486729Y-12852198D02*
X6477205Y-12861722D01*
X6477205Y-12861722D02*
X6467682Y-12852198D01*
X6467682Y-12852198D02*
X6477205Y-12842674D01*
X6477205Y-12842674D02*
X6477205Y-12861722D01*
D13*
X4718000Y-13231500D02*
X4845000Y-13358500D01*
X4845000Y-13231500D02*
X4718000Y-13358500D01*
D12*
X5210539Y-13386484D02*
X5096253Y-13386484D01*
X5153396Y-13386484D02*
X5153396Y-13186484D01*
X5153396Y-13186484D02*
X5134348Y-13215055D01*
X5134348Y-13215055D02*
X5115301Y-13234103D01*
X5115301Y-13234103D02*
X5096253Y-13243627D01*
X5296253Y-13367436D02*
X5305777Y-13376960D01*
X5305777Y-13376960D02*
X5296253Y-13386484D01*
X5296253Y-13386484D02*
X5286729Y-13376960D01*
X5286729Y-13376960D02*
X5296253Y-13367436D01*
X5296253Y-13367436D02*
X5296253Y-13386484D01*
X5381967Y-13205531D02*
X5391491Y-13196008D01*
X5391491Y-13196008D02*
X5410539Y-13186484D01*
X5410539Y-13186484D02*
X5458158Y-13186484D01*
X5458158Y-13186484D02*
X5477205Y-13196008D01*
X5477205Y-13196008D02*
X5486729Y-13205531D01*
X5486729Y-13205531D02*
X5496253Y-13224579D01*
X5496253Y-13224579D02*
X5496253Y-13243627D01*
X5496253Y-13243627D02*
X5486729Y-13272198D01*
X5486729Y-13272198D02*
X5372444Y-13386484D01*
X5372444Y-13386484D02*
X5496253Y-13386484D01*
X5562920Y-13186484D02*
X5696253Y-13186484D01*
X5696253Y-13186484D02*
X5610539Y-13386484D01*
X5810539Y-13186484D02*
X5829586Y-13186484D01*
X5829586Y-13186484D02*
X5848634Y-13196008D01*
X5848634Y-13196008D02*
X5858158Y-13205531D01*
X5858158Y-13205531D02*
X5867682Y-13224579D01*
X5867682Y-13224579D02*
X5877205Y-13262674D01*
X5877205Y-13262674D02*
X5877205Y-13310293D01*
X5877205Y-13310293D02*
X5867682Y-13348388D01*
X5867682Y-13348388D02*
X5858158Y-13367436D01*
X5858158Y-13367436D02*
X5848634Y-13376960D01*
X5848634Y-13376960D02*
X5829586Y-13386484D01*
X5829586Y-13386484D02*
X5810539Y-13386484D01*
X5810539Y-13386484D02*
X5791491Y-13376960D01*
X5791491Y-13376960D02*
X5781967Y-13367436D01*
X5781967Y-13367436D02*
X5772443Y-13348388D01*
X5772443Y-13348388D02*
X5762920Y-13310293D01*
X5762920Y-13310293D02*
X5762920Y-13262674D01*
X5762920Y-13262674D02*
X5772443Y-13224579D01*
X5772443Y-13224579D02*
X5781967Y-13205531D01*
X5781967Y-13205531D02*
X5791491Y-13196008D01*
X5791491Y-13196008D02*
X5810539Y-13186484D01*
X5962920Y-13386484D02*
X5962920Y-13253150D01*
X5962920Y-13272198D02*
X5972443Y-13262674D01*
X5972443Y-13262674D02*
X5991491Y-13253150D01*
X5991491Y-13253150D02*
X6020063Y-13253150D01*
X6020063Y-13253150D02*
X6039110Y-13262674D01*
X6039110Y-13262674D02*
X6048634Y-13281722D01*
X6048634Y-13281722D02*
X6048634Y-13386484D01*
X6048634Y-13281722D02*
X6058158Y-13262674D01*
X6058158Y-13262674D02*
X6077205Y-13253150D01*
X6077205Y-13253150D02*
X6105777Y-13253150D01*
X6105777Y-13253150D02*
X6124824Y-13262674D01*
X6124824Y-13262674D02*
X6134348Y-13281722D01*
X6134348Y-13281722D02*
X6134348Y-13386484D01*
X6229586Y-13386484D02*
X6229586Y-13253150D01*
X6229586Y-13272198D02*
X6239110Y-13262674D01*
X6239110Y-13262674D02*
X6258158Y-13253150D01*
X6258158Y-13253150D02*
X6286729Y-13253150D01*
X6286729Y-13253150D02*
X6305777Y-13262674D01*
X6305777Y-13262674D02*
X6315301Y-13281722D01*
X6315301Y-13281722D02*
X6315301Y-13386484D01*
X6315301Y-13281722D02*
X6324824Y-13262674D01*
X6324824Y-13262674D02*
X6343872Y-13253150D01*
X6343872Y-13253150D02*
X6372443Y-13253150D01*
X6372443Y-13253150D02*
X6391491Y-13262674D01*
X6391491Y-13262674D02*
X6401015Y-13281722D01*
X6401015Y-13281722D02*
X6401015Y-13386484D01*
X6791491Y-13176960D02*
X6620063Y-13434103D01*
X7048634Y-13186484D02*
X7067682Y-13186484D01*
X7067682Y-13186484D02*
X7086729Y-13196008D01*
X7086729Y-13196008D02*
X7096253Y-13205531D01*
X7096253Y-13205531D02*
X7105777Y-13224579D01*
X7105777Y-13224579D02*
X7115301Y-13262674D01*
X7115301Y-13262674D02*
X7115301Y-13310293D01*
X7115301Y-13310293D02*
X7105777Y-13348388D01*
X7105777Y-13348388D02*
X7096253Y-13367436D01*
X7096253Y-13367436D02*
X7086729Y-13376960D01*
X7086729Y-13376960D02*
X7067682Y-13386484D01*
X7067682Y-13386484D02*
X7048634Y-13386484D01*
X7048634Y-13386484D02*
X7029586Y-13376960D01*
X7029586Y-13376960D02*
X7020063Y-13367436D01*
X7020063Y-13367436D02*
X7010539Y-13348388D01*
X7010539Y-13348388D02*
X7001015Y-13310293D01*
X7001015Y-13310293D02*
X7001015Y-13262674D01*
X7001015Y-13262674D02*
X7010539Y-13224579D01*
X7010539Y-13224579D02*
X7020063Y-13205531D01*
X7020063Y-13205531D02*
X7029586Y-13196008D01*
X7029586Y-13196008D02*
X7048634Y-13186484D01*
X7201015Y-13367436D02*
X7210539Y-13376960D01*
X7210539Y-13376960D02*
X7201015Y-13386484D01*
X7201015Y-13386484D02*
X7191491Y-13376960D01*
X7191491Y-13376960D02*
X7201015Y-13367436D01*
X7201015Y-13367436D02*
X7201015Y-13386484D01*
X7334348Y-13186484D02*
X7353396Y-13186484D01*
X7353396Y-13186484D02*
X7372444Y-13196008D01*
X7372444Y-13196008D02*
X7381967Y-13205531D01*
X7381967Y-13205531D02*
X7391491Y-13224579D01*
X7391491Y-13224579D02*
X7401015Y-13262674D01*
X7401015Y-13262674D02*
X7401015Y-13310293D01*
X7401015Y-13310293D02*
X7391491Y-13348388D01*
X7391491Y-13348388D02*
X7381967Y-13367436D01*
X7381967Y-13367436D02*
X7372444Y-13376960D01*
X7372444Y-13376960D02*
X7353396Y-13386484D01*
X7353396Y-13386484D02*
X7334348Y-13386484D01*
X7334348Y-13386484D02*
X7315301Y-13376960D01*
X7315301Y-13376960D02*
X7305777Y-13367436D01*
X7305777Y-13367436D02*
X7296253Y-13348388D01*
X7296253Y-13348388D02*
X7286729Y-13310293D01*
X7286729Y-13310293D02*
X7286729Y-13262674D01*
X7286729Y-13262674D02*
X7296253Y-13224579D01*
X7296253Y-13224579D02*
X7305777Y-13205531D01*
X7305777Y-13205531D02*
X7315301Y-13196008D01*
X7315301Y-13196008D02*
X7334348Y-13186484D01*
X7581967Y-13186484D02*
X7486729Y-13186484D01*
X7486729Y-13186484D02*
X7477206Y-13281722D01*
X7477206Y-13281722D02*
X7486729Y-13272198D01*
X7486729Y-13272198D02*
X7505777Y-13262674D01*
X7505777Y-13262674D02*
X7553396Y-13262674D01*
X7553396Y-13262674D02*
X7572444Y-13272198D01*
X7572444Y-13272198D02*
X7581967Y-13281722D01*
X7581967Y-13281722D02*
X7591491Y-13300769D01*
X7591491Y-13300769D02*
X7591491Y-13348388D01*
X7591491Y-13348388D02*
X7581967Y-13367436D01*
X7581967Y-13367436D02*
X7572444Y-13376960D01*
X7572444Y-13376960D02*
X7553396Y-13386484D01*
X7553396Y-13386484D02*
X7505777Y-13386484D01*
X7505777Y-13386484D02*
X7486729Y-13376960D01*
X7486729Y-13376960D02*
X7477206Y-13367436D01*
X7715301Y-13186484D02*
X7734348Y-13186484D01*
X7734348Y-13186484D02*
X7753396Y-13196008D01*
X7753396Y-13196008D02*
X7762920Y-13205531D01*
X7762920Y-13205531D02*
X7772444Y-13224579D01*
X7772444Y-13224579D02*
X7781967Y-13262674D01*
X7781967Y-13262674D02*
X7781967Y-13310293D01*
X7781967Y-13310293D02*
X7772444Y-13348388D01*
X7772444Y-13348388D02*
X7762920Y-13367436D01*
X7762920Y-13367436D02*
X7753396Y-13376960D01*
X7753396Y-13376960D02*
X7734348Y-13386484D01*
X7734348Y-13386484D02*
X7715301Y-13386484D01*
X7715301Y-13386484D02*
X7696253Y-13376960D01*
X7696253Y-13376960D02*
X7686729Y-13367436D01*
X7686729Y-13367436D02*
X7677206Y-13348388D01*
X7677206Y-13348388D02*
X7667682Y-13310293D01*
X7667682Y-13310293D02*
X7667682Y-13262674D01*
X7667682Y-13262674D02*
X7677206Y-13224579D01*
X7677206Y-13224579D02*
X7686729Y-13205531D01*
X7686729Y-13205531D02*
X7696253Y-13196008D01*
X7696253Y-13196008D02*
X7715301Y-13186484D01*
X7905777Y-13186484D02*
X7924825Y-13186484D01*
X7924825Y-13186484D02*
X7943872Y-13196008D01*
X7943872Y-13196008D02*
X7953396Y-13205531D01*
X7953396Y-13205531D02*
X7962920Y-13224579D01*
X7962920Y-13224579D02*
X7972444Y-13262674D01*
X7972444Y-13262674D02*
X7972444Y-13310293D01*
X7972444Y-13310293D02*
X7962920Y-13348388D01*
X7962920Y-13348388D02*
X7953396Y-13367436D01*
X7953396Y-13367436D02*
X7943872Y-13376960D01*
X7943872Y-13376960D02*
X7924825Y-13386484D01*
X7924825Y-13386484D02*
X7905777Y-13386484D01*
X7905777Y-13386484D02*
X7886729Y-13376960D01*
X7886729Y-13376960D02*
X7877206Y-13367436D01*
X7877206Y-13367436D02*
X7867682Y-13348388D01*
X7867682Y-13348388D02*
X7858158Y-13310293D01*
X7858158Y-13310293D02*
X7858158Y-13262674D01*
X7858158Y-13262674D02*
X7867682Y-13224579D01*
X7867682Y-13224579D02*
X7877206Y-13205531D01*
X7877206Y-13205531D02*
X7886729Y-13196008D01*
X7886729Y-13196008D02*
X7905777Y-13186484D01*
X8048634Y-13186484D02*
X8048634Y-13224579D01*
X8124825Y-13186484D02*
X8124825Y-13224579D01*
X8420063Y-13462674D02*
X8410539Y-13453150D01*
X8410539Y-13453150D02*
X8391491Y-13424579D01*
X8391491Y-13424579D02*
X8381968Y-13405531D01*
X8381968Y-13405531D02*
X8372444Y-13376960D01*
X8372444Y-13376960D02*
X8362920Y-13329341D01*
X8362920Y-13329341D02*
X8362920Y-13291246D01*
X8362920Y-13291246D02*
X8372444Y-13243627D01*
X8372444Y-13243627D02*
X8381968Y-13215055D01*
X8381968Y-13215055D02*
X8391491Y-13196008D01*
X8391491Y-13196008D02*
X8410539Y-13167436D01*
X8410539Y-13167436D02*
X8420063Y-13157912D01*
X8601015Y-13386484D02*
X8486730Y-13386484D01*
X8543872Y-13386484D02*
X8543872Y-13186484D01*
X8543872Y-13186484D02*
X8524825Y-13215055D01*
X8524825Y-13215055D02*
X8505777Y-13234103D01*
X8505777Y-13234103D02*
X8486730Y-13243627D01*
X8715301Y-13272198D02*
X8696253Y-13262674D01*
X8696253Y-13262674D02*
X8686730Y-13253150D01*
X8686730Y-13253150D02*
X8677206Y-13234103D01*
X8677206Y-13234103D02*
X8677206Y-13224579D01*
X8677206Y-13224579D02*
X8686730Y-13205531D01*
X8686730Y-13205531D02*
X8696253Y-13196008D01*
X8696253Y-13196008D02*
X8715301Y-13186484D01*
X8715301Y-13186484D02*
X8753396Y-13186484D01*
X8753396Y-13186484D02*
X8772444Y-13196008D01*
X8772444Y-13196008D02*
X8781968Y-13205531D01*
X8781968Y-13205531D02*
X8791491Y-13224579D01*
X8791491Y-13224579D02*
X8791491Y-13234103D01*
X8791491Y-13234103D02*
X8781968Y-13253150D01*
X8781968Y-13253150D02*
X8772444Y-13262674D01*
X8772444Y-13262674D02*
X8753396Y-13272198D01*
X8753396Y-13272198D02*
X8715301Y-13272198D01*
X8715301Y-13272198D02*
X8696253Y-13281722D01*
X8696253Y-13281722D02*
X8686730Y-13291246D01*
X8686730Y-13291246D02*
X8677206Y-13310293D01*
X8677206Y-13310293D02*
X8677206Y-13348388D01*
X8677206Y-13348388D02*
X8686730Y-13367436D01*
X8686730Y-13367436D02*
X8696253Y-13376960D01*
X8696253Y-13376960D02*
X8715301Y-13386484D01*
X8715301Y-13386484D02*
X8753396Y-13386484D01*
X8753396Y-13386484D02*
X8772444Y-13376960D01*
X8772444Y-13376960D02*
X8781968Y-13367436D01*
X8781968Y-13367436D02*
X8791491Y-13348388D01*
X8791491Y-13348388D02*
X8791491Y-13310293D01*
X8791491Y-13310293D02*
X8781968Y-13291246D01*
X8781968Y-13291246D02*
X8772444Y-13281722D01*
X8772444Y-13281722D02*
X8753396Y-13272198D01*
X9029587Y-13386484D02*
X9029587Y-13186484D01*
X9115301Y-13386484D02*
X9115301Y-13281722D01*
X9115301Y-13281722D02*
X9105777Y-13262674D01*
X9105777Y-13262674D02*
X9086730Y-13253150D01*
X9086730Y-13253150D02*
X9058158Y-13253150D01*
X9058158Y-13253150D02*
X9039111Y-13262674D01*
X9039111Y-13262674D02*
X9029587Y-13272198D01*
X9239111Y-13386484D02*
X9220063Y-13376960D01*
X9220063Y-13376960D02*
X9210539Y-13367436D01*
X9210539Y-13367436D02*
X9201015Y-13348388D01*
X9201015Y-13348388D02*
X9201015Y-13291246D01*
X9201015Y-13291246D02*
X9210539Y-13272198D01*
X9210539Y-13272198D02*
X9220063Y-13262674D01*
X9220063Y-13262674D02*
X9239111Y-13253150D01*
X9239111Y-13253150D02*
X9267682Y-13253150D01*
X9267682Y-13253150D02*
X9286730Y-13262674D01*
X9286730Y-13262674D02*
X9296253Y-13272198D01*
X9296253Y-13272198D02*
X9305777Y-13291246D01*
X9305777Y-13291246D02*
X9305777Y-13348388D01*
X9305777Y-13348388D02*
X9296253Y-13367436D01*
X9296253Y-13367436D02*
X9286730Y-13376960D01*
X9286730Y-13376960D02*
X9267682Y-13386484D01*
X9267682Y-13386484D02*
X9239111Y-13386484D01*
X9420063Y-13386484D02*
X9401015Y-13376960D01*
X9401015Y-13376960D02*
X9391492Y-13357912D01*
X9391492Y-13357912D02*
X9391492Y-13186484D01*
X9572444Y-13376960D02*
X9553396Y-13386484D01*
X9553396Y-13386484D02*
X9515301Y-13386484D01*
X9515301Y-13386484D02*
X9496253Y-13376960D01*
X9496253Y-13376960D02*
X9486730Y-13357912D01*
X9486730Y-13357912D02*
X9486730Y-13281722D01*
X9486730Y-13281722D02*
X9496253Y-13262674D01*
X9496253Y-13262674D02*
X9515301Y-13253150D01*
X9515301Y-13253150D02*
X9553396Y-13253150D01*
X9553396Y-13253150D02*
X9572444Y-13262674D01*
X9572444Y-13262674D02*
X9581968Y-13281722D01*
X9581968Y-13281722D02*
X9581968Y-13300769D01*
X9581968Y-13300769D02*
X9486730Y-13319817D01*
X9658158Y-13376960D02*
X9677206Y-13386484D01*
X9677206Y-13386484D02*
X9715301Y-13386484D01*
X9715301Y-13386484D02*
X9734349Y-13376960D01*
X9734349Y-13376960D02*
X9743873Y-13357912D01*
X9743873Y-13357912D02*
X9743873Y-13348388D01*
X9743873Y-13348388D02*
X9734349Y-13329341D01*
X9734349Y-13329341D02*
X9715301Y-13319817D01*
X9715301Y-13319817D02*
X9686730Y-13319817D01*
X9686730Y-13319817D02*
X9667682Y-13310293D01*
X9667682Y-13310293D02*
X9658158Y-13291246D01*
X9658158Y-13291246D02*
X9658158Y-13281722D01*
X9658158Y-13281722D02*
X9667682Y-13262674D01*
X9667682Y-13262674D02*
X9686730Y-13253150D01*
X9686730Y-13253150D02*
X9715301Y-13253150D01*
X9715301Y-13253150D02*
X9734349Y-13262674D01*
X9810539Y-13462674D02*
X9820063Y-13453150D01*
X9820063Y-13453150D02*
X9839111Y-13424579D01*
X9839111Y-13424579D02*
X9848634Y-13405531D01*
X9848634Y-13405531D02*
X9858158Y-13376960D01*
X9858158Y-13376960D02*
X9867682Y-13329341D01*
X9867682Y-13329341D02*
X9867682Y-13291246D01*
X9867682Y-13291246D02*
X9858158Y-13243627D01*
X9858158Y-13243627D02*
X9848634Y-13215055D01*
X9848634Y-13215055D02*
X9839111Y-13196008D01*
X9839111Y-13196008D02*
X9820063Y-13167436D01*
X9820063Y-13167436D02*
X9810539Y-13157912D01*
X10172444Y-13462674D02*
X10162920Y-13453150D01*
X10162920Y-13453150D02*
X10143873Y-13424579D01*
X10143873Y-13424579D02*
X10134349Y-13405531D01*
X10134349Y-13405531D02*
X10124825Y-13376960D01*
X10124825Y-13376960D02*
X10115301Y-13329341D01*
X10115301Y-13329341D02*
X10115301Y-13291246D01*
X10115301Y-13291246D02*
X10124825Y-13243627D01*
X10124825Y-13243627D02*
X10134349Y-13215055D01*
X10134349Y-13215055D02*
X10143873Y-13196008D01*
X10143873Y-13196008D02*
X10162920Y-13167436D01*
X10162920Y-13167436D02*
X10172444Y-13157912D01*
X10248634Y-13253150D02*
X10248634Y-13386484D01*
X10248634Y-13272198D02*
X10258158Y-13262674D01*
X10258158Y-13262674D02*
X10277206Y-13253150D01*
X10277206Y-13253150D02*
X10305777Y-13253150D01*
X10305777Y-13253150D02*
X10324825Y-13262674D01*
X10324825Y-13262674D02*
X10334349Y-13281722D01*
X10334349Y-13281722D02*
X10334349Y-13386484D01*
X10458158Y-13386484D02*
X10439111Y-13376960D01*
X10439111Y-13376960D02*
X10429587Y-13367436D01*
X10429587Y-13367436D02*
X10420063Y-13348388D01*
X10420063Y-13348388D02*
X10420063Y-13291246D01*
X10420063Y-13291246D02*
X10429587Y-13272198D01*
X10429587Y-13272198D02*
X10439111Y-13262674D01*
X10439111Y-13262674D02*
X10458158Y-13253150D01*
X10458158Y-13253150D02*
X10486730Y-13253150D01*
X10486730Y-13253150D02*
X10505777Y-13262674D01*
X10505777Y-13262674D02*
X10515301Y-13272198D01*
X10515301Y-13272198D02*
X10524825Y-13291246D01*
X10524825Y-13291246D02*
X10524825Y-13348388D01*
X10524825Y-13348388D02*
X10515301Y-13367436D01*
X10515301Y-13367436D02*
X10505777Y-13376960D01*
X10505777Y-13376960D02*
X10486730Y-13386484D01*
X10486730Y-13386484D02*
X10458158Y-13386484D01*
X10581968Y-13253150D02*
X10658158Y-13253150D01*
X10610539Y-13186484D02*
X10610539Y-13357912D01*
X10610539Y-13357912D02*
X10620063Y-13376960D01*
X10620063Y-13376960D02*
X10639111Y-13386484D01*
X10639111Y-13386484D02*
X10658158Y-13386484D01*
X10877206Y-13253150D02*
X10877206Y-13453150D01*
X10877206Y-13262674D02*
X10896254Y-13253150D01*
X10896254Y-13253150D02*
X10934349Y-13253150D01*
X10934349Y-13253150D02*
X10953396Y-13262674D01*
X10953396Y-13262674D02*
X10962920Y-13272198D01*
X10962920Y-13272198D02*
X10972444Y-13291246D01*
X10972444Y-13291246D02*
X10972444Y-13348388D01*
X10972444Y-13348388D02*
X10962920Y-13367436D01*
X10962920Y-13367436D02*
X10953396Y-13376960D01*
X10953396Y-13376960D02*
X10934349Y-13386484D01*
X10934349Y-13386484D02*
X10896254Y-13386484D01*
X10896254Y-13386484D02*
X10877206Y-13376960D01*
X11086730Y-13386484D02*
X11067682Y-13376960D01*
X11067682Y-13376960D02*
X11058158Y-13357912D01*
X11058158Y-13357912D02*
X11058158Y-13186484D01*
X11248634Y-13386484D02*
X11248634Y-13281722D01*
X11248634Y-13281722D02*
X11239111Y-13262674D01*
X11239111Y-13262674D02*
X11220063Y-13253150D01*
X11220063Y-13253150D02*
X11181968Y-13253150D01*
X11181968Y-13253150D02*
X11162920Y-13262674D01*
X11248634Y-13376960D02*
X11229587Y-13386484D01*
X11229587Y-13386484D02*
X11181968Y-13386484D01*
X11181968Y-13386484D02*
X11162920Y-13376960D01*
X11162920Y-13376960D02*
X11153396Y-13357912D01*
X11153396Y-13357912D02*
X11153396Y-13338865D01*
X11153396Y-13338865D02*
X11162920Y-13319817D01*
X11162920Y-13319817D02*
X11181968Y-13310293D01*
X11181968Y-13310293D02*
X11229587Y-13310293D01*
X11229587Y-13310293D02*
X11248634Y-13300769D01*
X11315301Y-13253150D02*
X11391492Y-13253150D01*
X11343873Y-13186484D02*
X11343873Y-13357912D01*
X11343873Y-13357912D02*
X11353396Y-13376960D01*
X11353396Y-13376960D02*
X11372444Y-13386484D01*
X11372444Y-13386484D02*
X11391492Y-13386484D01*
X11534349Y-13376960D02*
X11515301Y-13386484D01*
X11515301Y-13386484D02*
X11477206Y-13386484D01*
X11477206Y-13386484D02*
X11458158Y-13376960D01*
X11458158Y-13376960D02*
X11448634Y-13357912D01*
X11448634Y-13357912D02*
X11448634Y-13281722D01*
X11448634Y-13281722D02*
X11458158Y-13262674D01*
X11458158Y-13262674D02*
X11477206Y-13253150D01*
X11477206Y-13253150D02*
X11515301Y-13253150D01*
X11515301Y-13253150D02*
X11534349Y-13262674D01*
X11534349Y-13262674D02*
X11543873Y-13281722D01*
X11543873Y-13281722D02*
X11543873Y-13300769D01*
X11543873Y-13300769D02*
X11448634Y-13319817D01*
X11715301Y-13386484D02*
X11715301Y-13186484D01*
X11715301Y-13376960D02*
X11696254Y-13386484D01*
X11696254Y-13386484D02*
X11658158Y-13386484D01*
X11658158Y-13386484D02*
X11639111Y-13376960D01*
X11639111Y-13376960D02*
X11629587Y-13367436D01*
X11629587Y-13367436D02*
X11620063Y-13348388D01*
X11620063Y-13348388D02*
X11620063Y-13291246D01*
X11620063Y-13291246D02*
X11629587Y-13272198D01*
X11629587Y-13272198D02*
X11639111Y-13262674D01*
X11639111Y-13262674D02*
X11658158Y-13253150D01*
X11658158Y-13253150D02*
X11696254Y-13253150D01*
X11696254Y-13253150D02*
X11715301Y-13262674D01*
X11791492Y-13462674D02*
X11801015Y-13453150D01*
X11801015Y-13453150D02*
X11820063Y-13424579D01*
X11820063Y-13424579D02*
X11829587Y-13405531D01*
X11829587Y-13405531D02*
X11839111Y-13376960D01*
X11839111Y-13376960D02*
X11848634Y-13329341D01*
X11848634Y-13329341D02*
X11848634Y-13291246D01*
X11848634Y-13291246D02*
X11839111Y-13243627D01*
X11839111Y-13243627D02*
X11829587Y-13215055D01*
X11829587Y-13215055D02*
X11820063Y-13196008D01*
X11820063Y-13196008D02*
X11801015Y-13167436D01*
X11801015Y-13167436D02*
X11791492Y-13157912D01*
M02*
