M48
; DRILL file {KiCad 8.0.2-1} date 2025-02-24T13:25:56-0500
; FORMAT={-:-/ absolute / inch / decimal}
; #@! TF.CreationDate,2025-02-24T13:25:56-05:00
; #@! TF.GenerationSoftware,Kicad,Pcbnew,8.0.2-1
; #@! TF.FileFunction,Plated,1,2,PTH
FMAT,2
INCH
; #@! TA.AperFunction,Plated,PTH,ViaDrill
T1C0.0118
; #@! TA.AperFunction,Plated,PTH,ComponentDrill
T2C0.0331
%
G90
G05
T1
X2.0945Y-4.063
X2.1063Y-4.126
X2.1457Y-4.2205
X2.1496Y-3.9291
X2.3189Y-3.9291
X2.3268Y-4.189
X2.3307Y-4.063
X2.3307Y-4.122
X2.4488Y-4.8622
X2.4528Y-4.7205
X2.4803Y-2.9252
X2.4803Y-3.2992
X2.5118Y-2.9252
X2.5118Y-4.9409
X2.5433Y-2.9252
X2.5433Y-4.9409
X2.562Y-4.6565
X2.5748Y-2.9252
X2.5748Y-4.9409
X2.6063Y-4.9409
X2.6073Y-2.9252
X2.6223Y-3.3855
X2.6378Y-4.9409
X2.6388Y-2.9252
X2.7402Y-3.4331
X2.7874Y-4.1102
X2.7953Y-2.9252
X2.7953Y-4.937
X2.8189Y-4.1102
X2.8209Y-3.2106
X2.8268Y-2.9252
X2.8268Y-4.937
X2.8504Y-4.1102
X2.8819Y-4.1102
X2.9134Y-4.1102
X2.9449Y-4.1102
X2.9764Y-4.1102
X3.0079Y-4.1102
X3.0157Y-3.2559
X3.0394Y-4.1102
X3.0709Y-4.1102
X3.1024Y-4.1102
X3.1339Y-3.6142
X3.1339Y-3.7126
X3.1339Y-4.1102
X3.1654Y-4.1102
X3.1811Y-4.5354
X3.189Y-3.6024
X3.1969Y-4.1102
X3.2283Y-4.1102
X3.2323Y-4.4094
X3.2598Y-4.1102
X3.2913Y-3.7559
X3.2992Y-4.3031
X3.315Y-4.185
X3.3228Y-3.7559
X3.3543Y-3.7559
X3.3858Y-3.7559
X3.4173Y-3.7559
X3.4488Y-3.7559
X3.4488Y-4.2795
X3.4803Y-3.7559
X3.5118Y-3.7559
X3.5118Y-4.3071
X3.5433Y-3.3622
X3.5433Y-4.1102
X3.5748Y-4.1102
X3.5984Y-3.689
X3.6063Y-4.1121
X3.6378Y-4.1102
X3.6614Y-3.7008
X3.6654Y-4.6614
X3.6693Y-4.1102
X3.685Y-2.9252
X3.685Y-3.626
X3.685Y-4.9488
X3.7008Y-4.1102
X3.7165Y-2.9252
X3.7165Y-3.3386
X3.7165Y-4.9488
X3.7323Y-4.1102
X3.7323Y-4.634
X3.7431Y-3.6958
X3.748Y-2.9252
X3.748Y-4.6654
X3.748Y-4.9488
X3.7795Y-2.9252
X3.7795Y-4.9488
X3.811Y-2.9252
X3.811Y-4.9488
X3.8139Y-4.6683
X3.8425Y-2.9252
X3.8425Y-4.9488
X3.874Y-3.4409
X3.8858Y-4.7441
X3.9213Y-3.7559
X3.9528Y-3.7559
X3.9843Y-3.7559
X4.0Y-2.9252
X4.0Y-4.6575
X4.0Y-4.9488
X4.0157Y-4.4094
X4.0157Y-3.7559
X4.0315Y-2.9252
X4.0315Y-4.9488
X4.0472Y-3.7559
X4.0787Y-3.752
X4.1102Y-3.7559
X4.1378Y-4.6339
X4.1417Y-3.7559
X4.1732Y-4.1142
X4.1772Y-3.7559
X4.2047Y-4.1142
X4.2323Y-3.7165
X4.2372Y-4.1151
X4.2441Y-3.7814
X4.2687Y-4.1141
X4.3002Y-4.1142
X4.3316Y-4.1142
X4.3631Y-3.6781
X4.3631Y-4.1142
X4.3946Y-4.1142
X4.4249Y-3.7052
X4.4252Y-3.752
X4.4252Y-4.1969
X4.4567Y-3.752
X4.4882Y-3.752
X4.4882Y-4.1417
X4.5197Y-3.752
X4.5512Y-3.752
X4.5827Y-3.752
X4.6142Y-3.752
X4.6147Y-4.2082
X4.615Y-4.1751
X4.6457Y-3.752
X4.6772Y-3.752
X4.6802Y-4.2061
X4.6811Y-4.1417
X4.7087Y-3.752
X4.7402Y-3.752
X4.7717Y-3.752
X4.7786Y-4.1269
X4.8031Y-3.752
X4.8228Y-4.0748
X4.8346Y-3.752
X4.8346Y-3.9528
X4.8386Y-4.1575
X4.8661Y-3.374
X4.8661Y-3.9252
X4.8898Y-2.9291
X4.8898Y-4.9488
X4.8976Y-3.9488
X4.9213Y-2.9291
X4.9213Y-4.9488
X4.9291Y-4.6654
X4.9528Y-2.9291
X4.9528Y-4.9488
X4.9589Y-3.2188
X4.9703Y-4.563
X4.9843Y-2.9291
X4.9843Y-4.9488
X4.9921Y-3.219
X4.9921Y-4.6503
X5.0157Y-2.9291
X5.0157Y-4.9488
X5.0472Y-2.9291
X5.0472Y-4.9488
X5.2043Y-2.9291
X5.2047Y-4.9488
X5.2358Y-2.9287
X5.2362Y-4.9488
X5.2795Y-3.9134
X5.4961Y-4.0709
X5.5236Y-3.9094
X5.6969Y-3.937
X5.7756Y-4.0315
X5.7756Y-4.063
X5.7756Y-4.0945
X5.7756Y-4.126
X5.7756Y-4.1575
X5.7795Y-4.189
T2
X2.2165Y-3.5632
X2.2165Y-4.3108
X2.3585Y-3.0591
X2.3585Y-4.8228
X3.1061Y-3.0591
X3.1061Y-4.8228
X3.5632Y-3.0591
X3.5632Y-4.8228
X4.3108Y-3.0591
X4.3108Y-4.8228
X4.7679Y-3.0591
X4.7679Y-4.8228
X5.5156Y-3.0591
X5.5156Y-4.8228
X5.6299Y-3.5632
X5.6299Y-4.3108
M30
