%TF.GenerationSoftware,KiCad,Pcbnew,8.0.2-1*%
%TF.CreationDate,2025-02-24T13:25:59-05:00*%
%TF.ProjectId,ConcentratorBoardOctagon,436f6e63-656e-4747-9261-746f72426f61,rev?*%
%TF.SameCoordinates,Original*%
%TF.FileFunction,Soldermask,Top*%
%TF.FilePolarity,Negative*%
%FSLAX46Y46*%
G04 Gerber Fmt 4.6, Leading zero omitted, Abs format (unit mm)*
G04 Created by KiCad (PCBNEW 8.0.2-1) date 2025-02-24 13:25:59*
%MOMM*%
%LPD*%
G01*
G04 APERTURE LIST*
G04 Aperture macros list*
%AMRoundRect*
0 Rectangle with rounded corners*
0 $1 Rounding radius*
0 $2 $3 $4 $5 $6 $7 $8 $9 X,Y pos of 4 corners*
0 Add a 4 corners polygon primitive as box body*
4,1,4,$2,$3,$4,$5,$6,$7,$8,$9,$2,$3,0*
0 Add four circle primitives for the rounded corners*
1,1,$1+$1,$2,$3*
1,1,$1+$1,$4,$5*
1,1,$1+$1,$6,$7*
1,1,$1+$1,$8,$9*
0 Add four rect primitives between the rounded corners*
20,1,$1+$1,$2,$3,$4,$5,0*
20,1,$1+$1,$4,$5,$6,$7,0*
20,1,$1+$1,$6,$7,$8,$9,0*
20,1,$1+$1,$8,$9,$2,$3,0*%
G04 Aperture macros list end*
%ADD10C,1.270000*%
%ADD11RoundRect,0.102000X-0.250000X-0.600000X0.250000X-0.600000X0.250000X0.600000X-0.250000X0.600000X0*%
%ADD12C,1.552000*%
%ADD13RoundRect,0.102000X0.600000X-0.250000X0.600000X0.250000X-0.600000X0.250000X-0.600000X-0.250000X0*%
G04 APERTURE END LIST*
D10*
%TO.C,REF\u002A\u002A4*%
X89255000Y-124000000D03*
X110745000Y-124000000D03*
D11*
X93600000Y-124200000D03*
X93600000Y-120800000D03*
X94400000Y-124200000D03*
X94400000Y-120800000D03*
X95200000Y-124200000D03*
X95200000Y-120800000D03*
X96000000Y-124200000D03*
X96000000Y-120800000D03*
X96800000Y-124200000D03*
X96800000Y-120800000D03*
X97600000Y-124200000D03*
X97600000Y-120800000D03*
X101600000Y-124200000D03*
X101600000Y-120800000D03*
X102400000Y-124200000D03*
X102400000Y-120800000D03*
X103200000Y-124200000D03*
X103200000Y-120800000D03*
X104000000Y-124200000D03*
X104000000Y-120800000D03*
X104800000Y-124200000D03*
X104800000Y-120800000D03*
X105600000Y-124200000D03*
X105600000Y-120800000D03*
X106400000Y-124200000D03*
X106400000Y-120800000D03*
D12*
X90505000Y-122500000D03*
X109495000Y-122500000D03*
%TD*%
D10*
%TO.C,REF\u002A\u002A*%
X58655000Y-124000000D03*
X80145000Y-124000000D03*
D11*
X63000000Y-124200000D03*
X63000000Y-120800000D03*
X63800000Y-124200000D03*
X63800000Y-120800000D03*
X64600000Y-124200000D03*
X64600000Y-120800000D03*
X65400000Y-124200000D03*
X65400000Y-120800000D03*
X66200000Y-124200000D03*
X66200000Y-120800000D03*
X67000000Y-124200000D03*
X67000000Y-120800000D03*
X71000000Y-124200000D03*
X71000000Y-120800000D03*
X71800000Y-120800000D03*
X71800000Y-124200000D03*
X72600000Y-124200000D03*
X72600000Y-120800000D03*
X73400000Y-124200000D03*
X73400000Y-120800000D03*
X74200000Y-124200000D03*
X74200000Y-120800000D03*
X75000000Y-124200000D03*
X75000000Y-120800000D03*
X75800000Y-124200000D03*
X75800000Y-120800000D03*
D12*
X59905000Y-122500000D03*
X78895000Y-122500000D03*
%TD*%
D10*
%TO.C,REF\u002A\u002A2*%
X119855000Y-124000000D03*
X141345000Y-124000000D03*
D11*
X124200000Y-124200000D03*
X124200000Y-120800000D03*
X125000000Y-124200000D03*
X125000000Y-120800000D03*
X125800000Y-124200000D03*
X125800000Y-120800000D03*
X126600000Y-124200000D03*
X126600000Y-120800000D03*
X127400000Y-124200000D03*
X127400000Y-120800000D03*
X128200000Y-124200000D03*
X128200000Y-120800000D03*
X132200000Y-124200000D03*
X132200000Y-120800000D03*
X133000000Y-124200000D03*
X133000000Y-120800000D03*
X133800000Y-124200000D03*
X133800000Y-120800000D03*
X134600000Y-124200000D03*
X134600000Y-120800000D03*
X135400000Y-124200000D03*
X135400000Y-120800000D03*
X136200000Y-124200000D03*
X136200000Y-120800000D03*
X137000000Y-124200000D03*
X137000000Y-120800000D03*
D12*
X121105000Y-122500000D03*
X140095000Y-122500000D03*
%TD*%
D10*
%TO.C,REF\u002A\u002A2*%
X119855000Y-79200000D03*
X141345000Y-79200000D03*
D11*
X124200000Y-79400000D03*
X124200000Y-76000000D03*
X125000000Y-79400000D03*
X125000000Y-76000000D03*
X125800000Y-79400000D03*
X125800000Y-76000000D03*
X126600000Y-79400000D03*
X126600000Y-76000000D03*
X127400000Y-79400000D03*
X127400000Y-76000000D03*
X128200000Y-79400000D03*
X128200000Y-76000000D03*
X132200000Y-79400000D03*
X132200000Y-76000000D03*
X133000000Y-79400000D03*
X133000000Y-76000000D03*
X133800000Y-79400000D03*
X133800000Y-76000000D03*
X134600000Y-79400000D03*
X134600000Y-76000000D03*
X135400000Y-79400000D03*
X135400000Y-76000000D03*
X136200000Y-79400000D03*
X136200000Y-76000000D03*
X137000000Y-79400000D03*
X137000000Y-76000000D03*
D12*
X121105000Y-77700000D03*
X140095000Y-77700000D03*
%TD*%
D10*
%TO.C,REF\u002A\u002A*%
X144500000Y-110745000D03*
X144500000Y-89255000D03*
D13*
X144700000Y-106400000D03*
X141300000Y-106400000D03*
X144700000Y-105600000D03*
X141300000Y-105600000D03*
X144700000Y-104800000D03*
X141300000Y-104800000D03*
X144700000Y-104000000D03*
X141300000Y-104000000D03*
X144700000Y-103200000D03*
X141300000Y-103200000D03*
X144700000Y-102400000D03*
X141300000Y-102400000D03*
X144700000Y-98400000D03*
X141300000Y-98400000D03*
X144700000Y-97600000D03*
X141300000Y-97600000D03*
X144700000Y-96800000D03*
X141300000Y-96800000D03*
X144700000Y-96000000D03*
X141300000Y-96000000D03*
X144700000Y-95200000D03*
X141300000Y-95200000D03*
X144700000Y-94400000D03*
X141300000Y-94400000D03*
X144700000Y-93600000D03*
X141300000Y-93600000D03*
D12*
X143000000Y-109495000D03*
X143000000Y-90505000D03*
%TD*%
D10*
%TO.C,REF\u002A\u002A1*%
X58655000Y-79200000D03*
X80145000Y-79200000D03*
D11*
X63000000Y-79400000D03*
X63000000Y-76000000D03*
X63800000Y-79400000D03*
X63800000Y-76000000D03*
X64600000Y-79400000D03*
X64600000Y-76000000D03*
X65400000Y-79400000D03*
X65400000Y-76000000D03*
X66200000Y-79400000D03*
X66200000Y-76000000D03*
X67000000Y-79400000D03*
X67000000Y-76000000D03*
X71000000Y-79400000D03*
X71000000Y-76000000D03*
X71800000Y-79400000D03*
X71800000Y-76000000D03*
X72600000Y-79400000D03*
X72600000Y-76000000D03*
X73400000Y-79400000D03*
X73400000Y-76000000D03*
X74200000Y-79400000D03*
X74200000Y-76000000D03*
X75000000Y-79400000D03*
X75000000Y-76000000D03*
X75800000Y-79400000D03*
X75800000Y-76000000D03*
D12*
X59905000Y-77700000D03*
X78895000Y-77700000D03*
%TD*%
D10*
%TO.C,REF\u002A\u002A3*%
X89255000Y-79200000D03*
X110745000Y-79200000D03*
D11*
X93600000Y-79400000D03*
X93600000Y-76000000D03*
X94400000Y-79400000D03*
X94400000Y-76000000D03*
X95200000Y-79400000D03*
X95200000Y-76000000D03*
X96000000Y-79400000D03*
X96000000Y-76000000D03*
X96800000Y-79400000D03*
X96800000Y-76000000D03*
X97600000Y-79400000D03*
X97600000Y-76000000D03*
X101600000Y-79400000D03*
X101600000Y-76000000D03*
X102400000Y-79400000D03*
X102400000Y-76000000D03*
X103200000Y-79400000D03*
X103200000Y-76000000D03*
X104000000Y-79400000D03*
X104000000Y-76000000D03*
X104800000Y-79400000D03*
X104800000Y-76000000D03*
X105600000Y-79400000D03*
X105600000Y-76000000D03*
X106400000Y-79400000D03*
X106400000Y-76000000D03*
D12*
X90505000Y-77700000D03*
X109495000Y-77700000D03*
%TD*%
D10*
%TO.C,REF\u002A\u002A*%
X57800000Y-110745000D03*
X57800000Y-89255000D03*
D13*
X58000000Y-106400000D03*
X54600000Y-106400000D03*
X58000000Y-105600000D03*
X54600000Y-105600000D03*
X58000000Y-104800000D03*
X54600000Y-104800000D03*
X58000000Y-104000000D03*
X54600000Y-104000000D03*
X58000000Y-103200000D03*
X54600000Y-103200000D03*
X58000000Y-102400000D03*
X54600000Y-102400000D03*
X58000000Y-98400000D03*
X54600000Y-98400000D03*
X58000000Y-97600000D03*
X54600000Y-97600000D03*
X58000000Y-96800000D03*
X54600000Y-96800000D03*
X58000000Y-96000000D03*
X54600000Y-96000000D03*
X58000000Y-95200000D03*
X54600000Y-95200000D03*
X58000000Y-94400000D03*
X54600000Y-94400000D03*
X58000000Y-93600000D03*
X54600000Y-93600000D03*
D12*
X56300000Y-109495000D03*
X56300000Y-90505000D03*
%TD*%
D10*
%TO.C,REF\u002A\u002A*%
X69300000Y-98500000D03*
X130700000Y-100000000D03*
%TD*%
M02*
