%TF.GenerationSoftware,KiCad,Pcbnew,8.0.2-1*%
%TF.CreationDate,2024-10-14T18:52:38-04:00*%
%TF.ProjectId,OddLayers_1.3mm_SiPM,4f64644c-6179-4657-9273-5f312e336d6d,rev?*%
%TF.SameCoordinates,Original*%
%TF.FileFunction,Drillmap*%
%TF.FilePolarity,Positive*%
%FSLAX45Y45*%
G04 Gerber Fmt 4.5, Leading zero omitted, Abs format (unit mm)*
G04 Created by KiCad (PCBNEW 8.0.2-1) date 2024-10-14 18:52:38*
%MOMM*%
%LPD*%
G01*
G04 APERTURE LIST*
%ADD10C,0.050000*%
%ADD11C,0.100000*%
%ADD12C,0.200000*%
%ADD13C,0.150000*%
%ADD14C,0.170000*%
G04 APERTURE END LIST*
D10*
X7500000Y-24000000D02*
X7500000Y-18300000D01*
X7500000Y-31080000D02*
X7500000Y-24000000D01*
X6600000Y-32430000D02*
X6600000Y-32500000D01*
X7500000Y-3500000D02*
X35200000Y-3500000D01*
X6600000Y-18300000D02*
X6600000Y-15700000D01*
X7500000Y-6300000D02*
X7500000Y-15700000D01*
X7500000Y-18300000D02*
X6600000Y-18300000D01*
X6600000Y-31080000D02*
X7500000Y-31080000D01*
X35200000Y-3500000D02*
X35200000Y-32500000D01*
X7500000Y-3700000D02*
X6600000Y-3700000D01*
X7500000Y-15700000D02*
X6600000Y-15700000D01*
X35200000Y-32500000D02*
X6600000Y-32500000D01*
X6600000Y-31570000D02*
X6600000Y-31080000D01*
X6600000Y-6300000D02*
X7500000Y-6300000D01*
X6600000Y-3700000D02*
X6600000Y-6300000D01*
X7500000Y-3500000D02*
X7500000Y-3700000D01*
D11*
X6600000Y-31570000D02*
X6600000Y-32430000D01*
D12*
D11*
X6685000Y-4345000D02*
X6715000Y-4375000D01*
X6715000Y-4345000D02*
X6685000Y-4375000D01*
X6685000Y-4425000D02*
X6715000Y-4455000D01*
X6715000Y-4425000D02*
X6685000Y-4455000D01*
X6685000Y-4505000D02*
X6715000Y-4535000D01*
X6715000Y-4505000D02*
X6685000Y-4535000D01*
X6685000Y-4585000D02*
X6715000Y-4615000D01*
X6715000Y-4585000D02*
X6685000Y-4615000D01*
X6685000Y-4665000D02*
X6715000Y-4695000D01*
X6715000Y-4665000D02*
X6685000Y-4695000D01*
X6685000Y-4745000D02*
X6715000Y-4775000D01*
X6715000Y-4745000D02*
X6685000Y-4775000D01*
X6685000Y-5145000D02*
X6715000Y-5175000D01*
X6715000Y-5145000D02*
X6685000Y-5175000D01*
X6685000Y-5225000D02*
X6715000Y-5255000D01*
X6715000Y-5225000D02*
X6685000Y-5255000D01*
X6685000Y-5305000D02*
X6715000Y-5335000D01*
X6715000Y-5305000D02*
X6685000Y-5335000D01*
X6685000Y-5385000D02*
X6715000Y-5415000D01*
X6715000Y-5385000D02*
X6685000Y-5415000D01*
X6685000Y-5465000D02*
X6715000Y-5495000D01*
X6715000Y-5465000D02*
X6685000Y-5495000D01*
X6685000Y-5545000D02*
X6715000Y-5575000D01*
X6715000Y-5545000D02*
X6685000Y-5575000D01*
X6685000Y-5625000D02*
X6715000Y-5655000D01*
X6715000Y-5625000D02*
X6685000Y-5655000D01*
X6685000Y-16345000D02*
X6715000Y-16375000D01*
X6715000Y-16345000D02*
X6685000Y-16375000D01*
X6685000Y-16425000D02*
X6715000Y-16455000D01*
X6715000Y-16425000D02*
X6685000Y-16455000D01*
X6685000Y-16505000D02*
X6715000Y-16535000D01*
X6715000Y-16505000D02*
X6685000Y-16535000D01*
X6685000Y-16585000D02*
X6715000Y-16615000D01*
X6715000Y-16585000D02*
X6685000Y-16615000D01*
X6685000Y-16665000D02*
X6715000Y-16695000D01*
X6715000Y-16665000D02*
X6685000Y-16695000D01*
X6685000Y-16745000D02*
X6715000Y-16775000D01*
X6715000Y-16745000D02*
X6685000Y-16775000D01*
X6685000Y-17145000D02*
X6715000Y-17175000D01*
X6715000Y-17145000D02*
X6685000Y-17175000D01*
X6685000Y-17225000D02*
X6715000Y-17255000D01*
X6715000Y-17225000D02*
X6685000Y-17255000D01*
X6685000Y-17305000D02*
X6715000Y-17335000D01*
X6715000Y-17305000D02*
X6685000Y-17335000D01*
X6685000Y-17385000D02*
X6715000Y-17415000D01*
X6715000Y-17385000D02*
X6685000Y-17415000D01*
X6685000Y-17465000D02*
X6715000Y-17495000D01*
X6715000Y-17465000D02*
X6685000Y-17495000D01*
X6685000Y-17545000D02*
X6715000Y-17575000D01*
X6715000Y-17545000D02*
X6685000Y-17575000D01*
X6685000Y-17625000D02*
X6715000Y-17655000D01*
X6715000Y-17625000D02*
X6685000Y-17655000D01*
X7565000Y-17825000D02*
X7595000Y-17855000D01*
X7595000Y-17825000D02*
X7565000Y-17855000D01*
X7605000Y-5845000D02*
X7635000Y-5875000D01*
X7635000Y-5845000D02*
X7605000Y-5875000D01*
X7605000Y-17625000D02*
X7635000Y-17655000D01*
X7635000Y-17625000D02*
X7605000Y-17655000D01*
X7665000Y-4625000D02*
X7695000Y-4655000D01*
X7695000Y-4625000D02*
X7665000Y-4655000D01*
X7665000Y-5005000D02*
X7695000Y-5035000D01*
X7695000Y-5005000D02*
X7665000Y-5035000D01*
X7725000Y-5725000D02*
X7755000Y-5755000D01*
X7755000Y-5725000D02*
X7725000Y-5755000D01*
X7725000Y-17605000D02*
X7755000Y-17635000D01*
X7755000Y-17605000D02*
X7725000Y-17635000D01*
X7750466Y-18119534D02*
X7780466Y-18149534D01*
X7780466Y-18119534D02*
X7750466Y-18149534D01*
X7785000Y-5425000D02*
X7815000Y-5455000D01*
X7815000Y-5425000D02*
X7785000Y-5455000D01*
X7805000Y-4965000D02*
X7835000Y-4995000D01*
X7835000Y-4965000D02*
X7805000Y-4995000D01*
X7805000Y-6505000D02*
X7835000Y-6535000D01*
X7835000Y-6505000D02*
X7805000Y-6535000D01*
X7805000Y-17405000D02*
X7835000Y-17435000D01*
X7835000Y-17405000D02*
X7805000Y-17435000D01*
X7825000Y-16645000D02*
X7855000Y-16675000D01*
X7855000Y-16645000D02*
X7825000Y-16675000D01*
X7905000Y-4525000D02*
X7935000Y-4555000D01*
X7935000Y-4525000D02*
X7905000Y-4555000D01*
X7905000Y-4705000D02*
X7935000Y-4735000D01*
X7935000Y-4705000D02*
X7905000Y-4735000D01*
X7905000Y-16505000D02*
X7935000Y-16535000D01*
X7935000Y-16505000D02*
X7905000Y-16535000D01*
X7920147Y-17289853D02*
X7950147Y-17319853D01*
X7950147Y-17289853D02*
X7920147Y-17319853D01*
X7925000Y-16345000D02*
X7955000Y-16375000D01*
X7955000Y-16345000D02*
X7925000Y-16375000D01*
X7925000Y-17665000D02*
X7955000Y-17695000D01*
X7955000Y-17665000D02*
X7925000Y-17695000D01*
X7925711Y-16944289D02*
X7955711Y-16974289D01*
X7955711Y-16944289D02*
X7925711Y-16974289D01*
X7965000Y-5505000D02*
X7995000Y-5535000D01*
X7995000Y-5505000D02*
X7965000Y-5535000D01*
X7973162Y-6216838D02*
X8003162Y-6246838D01*
X8003162Y-6216838D02*
X7973162Y-6246838D01*
X8003578Y-5826421D02*
X8033578Y-5856421D01*
X8033578Y-5826421D02*
X8003578Y-5856421D01*
X8005000Y-17205000D02*
X8035000Y-17235000D01*
X8035000Y-17205000D02*
X8005000Y-17235000D01*
X8105000Y-4345000D02*
X8135000Y-4375000D01*
X8135000Y-4345000D02*
X8105000Y-4375000D01*
X7380000Y-31320000D02*
G75*
G02*
X7340000Y-31320000I-20000J0D01*
G01*
X7340000Y-31320000D02*
G75*
G02*
X7380000Y-31320000I20000J0D01*
G01*
X10235000Y-6920000D02*
X10235000Y-6960000D01*
X10215000Y-6940000D02*
X10255000Y-6940000D01*
X10235000Y-7070000D02*
X10235000Y-7110000D01*
X10215000Y-7090000D02*
X10255000Y-7090000D01*
X10235000Y-11800000D02*
X10235000Y-11840000D01*
X10215000Y-11820000D02*
X10255000Y-11820000D01*
X10235000Y-11950000D02*
X10235000Y-11990000D01*
X10215000Y-11970000D02*
X10255000Y-11970000D01*
X10235000Y-16680000D02*
X10235000Y-16720000D01*
X10215000Y-16700000D02*
X10255000Y-16700000D01*
X10235000Y-16830000D02*
X10235000Y-16870000D01*
X10215000Y-16850000D02*
X10255000Y-16850000D01*
X10235000Y-21560000D02*
X10235000Y-21600000D01*
X10215000Y-21580000D02*
X10255000Y-21580000D01*
X10235000Y-21710000D02*
X10235000Y-21750000D01*
X10215000Y-21730000D02*
X10255000Y-21730000D01*
X10235000Y-26440000D02*
X10235000Y-26480000D01*
X10215000Y-26460000D02*
X10255000Y-26460000D01*
X10235000Y-26590000D02*
X10235000Y-26630000D01*
X10215000Y-26610000D02*
X10255000Y-26610000D01*
X10290000Y-7190000D02*
X10290000Y-7230000D01*
X10270000Y-7210000D02*
X10310000Y-7210000D01*
X10290000Y-12070000D02*
X10290000Y-12110000D01*
X10270000Y-12090000D02*
X10310000Y-12090000D01*
X10290000Y-16950000D02*
X10290000Y-16990000D01*
X10270000Y-16970000D02*
X10310000Y-16970000D01*
X10290000Y-21830000D02*
X10290000Y-21870000D01*
X10270000Y-21850000D02*
X10310000Y-21850000D01*
X10290000Y-26710000D02*
X10290000Y-26750000D01*
X10270000Y-26730000D02*
X10310000Y-26730000D01*
X10310000Y-6810000D02*
X10310000Y-6850000D01*
X10290000Y-6830000D02*
X10330000Y-6830000D01*
X10310000Y-11690000D02*
X10310000Y-11730000D01*
X10290000Y-11710000D02*
X10330000Y-11710000D01*
X10310000Y-16570000D02*
X10310000Y-16610000D01*
X10290000Y-16590000D02*
X10330000Y-16590000D01*
X10310000Y-21450000D02*
X10310000Y-21490000D01*
X10290000Y-21470000D02*
X10330000Y-21470000D01*
X10310000Y-26330000D02*
X10310000Y-26370000D01*
X10290000Y-26350000D02*
X10330000Y-26350000D01*
X10720000Y-6810000D02*
X10720000Y-6850000D01*
X10700000Y-6830000D02*
X10740000Y-6830000D01*
X10720000Y-11690000D02*
X10720000Y-11730000D01*
X10700000Y-11710000D02*
X10740000Y-11710000D01*
X10720000Y-16570000D02*
X10720000Y-16610000D01*
X10700000Y-16590000D02*
X10740000Y-16590000D01*
X10720000Y-21450000D02*
X10720000Y-21490000D01*
X10700000Y-21470000D02*
X10740000Y-21470000D01*
X10720000Y-26330000D02*
X10720000Y-26370000D01*
X10700000Y-26350000D02*
X10740000Y-26350000D01*
X15115000Y-6920000D02*
X15115000Y-6960000D01*
X15095000Y-6940000D02*
X15135000Y-6940000D01*
X15115000Y-7070000D02*
X15115000Y-7110000D01*
X15095000Y-7090000D02*
X15135000Y-7090000D01*
X15115000Y-11800000D02*
X15115000Y-11840000D01*
X15095000Y-11820000D02*
X15135000Y-11820000D01*
X15115000Y-11950000D02*
X15115000Y-11990000D01*
X15095000Y-11970000D02*
X15135000Y-11970000D01*
X15115000Y-16680000D02*
X15115000Y-16720000D01*
X15095000Y-16700000D02*
X15135000Y-16700000D01*
X15115000Y-16830000D02*
X15115000Y-16870000D01*
X15095000Y-16850000D02*
X15135000Y-16850000D01*
X15115000Y-21560000D02*
X15115000Y-21600000D01*
X15095000Y-21580000D02*
X15135000Y-21580000D01*
X15115000Y-21710000D02*
X15115000Y-21750000D01*
X15095000Y-21730000D02*
X15135000Y-21730000D01*
X15115000Y-26440000D02*
X15115000Y-26480000D01*
X15095000Y-26460000D02*
X15135000Y-26460000D01*
X15115000Y-26590000D02*
X15115000Y-26630000D01*
X15095000Y-26610000D02*
X15135000Y-26610000D01*
X15170000Y-7190000D02*
X15170000Y-7230000D01*
X15150000Y-7210000D02*
X15190000Y-7210000D01*
X15170000Y-12070000D02*
X15170000Y-12110000D01*
X15150000Y-12090000D02*
X15190000Y-12090000D01*
X15170000Y-16950000D02*
X15170000Y-16990000D01*
X15150000Y-16970000D02*
X15190000Y-16970000D01*
X15170000Y-21830000D02*
X15170000Y-21870000D01*
X15150000Y-21850000D02*
X15190000Y-21850000D01*
X15170000Y-26710000D02*
X15170000Y-26750000D01*
X15150000Y-26730000D02*
X15190000Y-26730000D01*
X15190000Y-6810000D02*
X15190000Y-6850000D01*
X15170000Y-6830000D02*
X15210000Y-6830000D01*
X15190000Y-11690000D02*
X15190000Y-11730000D01*
X15170000Y-11710000D02*
X15210000Y-11710000D01*
X15190000Y-16570000D02*
X15190000Y-16610000D01*
X15170000Y-16590000D02*
X15210000Y-16590000D01*
X15190000Y-21450000D02*
X15190000Y-21490000D01*
X15170000Y-21470000D02*
X15210000Y-21470000D01*
X15190000Y-26330000D02*
X15190000Y-26370000D01*
X15170000Y-26350000D02*
X15210000Y-26350000D01*
X15600000Y-6810000D02*
X15600000Y-6850000D01*
X15580000Y-6830000D02*
X15620000Y-6830000D01*
X15600000Y-11690000D02*
X15600000Y-11730000D01*
X15580000Y-11710000D02*
X15620000Y-11710000D01*
X15600000Y-16570000D02*
X15600000Y-16610000D01*
X15580000Y-16590000D02*
X15620000Y-16590000D01*
X15600000Y-21450000D02*
X15600000Y-21490000D01*
X15580000Y-21470000D02*
X15620000Y-21470000D01*
X15600000Y-26330000D02*
X15600000Y-26370000D01*
X15580000Y-26350000D02*
X15620000Y-26350000D01*
X19995000Y-6920000D02*
X19995000Y-6960000D01*
X19975000Y-6940000D02*
X20015000Y-6940000D01*
X19995000Y-7070000D02*
X19995000Y-7110000D01*
X19975000Y-7090000D02*
X20015000Y-7090000D01*
X19995000Y-11800000D02*
X19995000Y-11840000D01*
X19975000Y-11820000D02*
X20015000Y-11820000D01*
X19995000Y-11950000D02*
X19995000Y-11990000D01*
X19975000Y-11970000D02*
X20015000Y-11970000D01*
X19995000Y-16680000D02*
X19995000Y-16720000D01*
X19975000Y-16700000D02*
X20015000Y-16700000D01*
X19995000Y-16830000D02*
X19995000Y-16870000D01*
X19975000Y-16850000D02*
X20015000Y-16850000D01*
X19995000Y-21560000D02*
X19995000Y-21600000D01*
X19975000Y-21580000D02*
X20015000Y-21580000D01*
X19995000Y-21710000D02*
X19995000Y-21750000D01*
X19975000Y-21730000D02*
X20015000Y-21730000D01*
X19995000Y-26440000D02*
X19995000Y-26480000D01*
X19975000Y-26460000D02*
X20015000Y-26460000D01*
X19995000Y-26590000D02*
X19995000Y-26630000D01*
X19975000Y-26610000D02*
X20015000Y-26610000D01*
X20050000Y-7190000D02*
X20050000Y-7230000D01*
X20030000Y-7210000D02*
X20070000Y-7210000D01*
X20050000Y-12070000D02*
X20050000Y-12110000D01*
X20030000Y-12090000D02*
X20070000Y-12090000D01*
X20050000Y-16950000D02*
X20050000Y-16990000D01*
X20030000Y-16970000D02*
X20070000Y-16970000D01*
X20050000Y-21830000D02*
X20050000Y-21870000D01*
X20030000Y-21850000D02*
X20070000Y-21850000D01*
X20050000Y-26710000D02*
X20050000Y-26750000D01*
X20030000Y-26730000D02*
X20070000Y-26730000D01*
X20070000Y-6810000D02*
X20070000Y-6850000D01*
X20050000Y-6830000D02*
X20090000Y-6830000D01*
X20070000Y-11690000D02*
X20070000Y-11730000D01*
X20050000Y-11710000D02*
X20090000Y-11710000D01*
X20070000Y-16570000D02*
X20070000Y-16610000D01*
X20050000Y-16590000D02*
X20090000Y-16590000D01*
X20070000Y-21450000D02*
X20070000Y-21490000D01*
X20050000Y-21470000D02*
X20090000Y-21470000D01*
X20070000Y-26330000D02*
X20070000Y-26370000D01*
X20050000Y-26350000D02*
X20090000Y-26350000D01*
X20480000Y-6810000D02*
X20480000Y-6850000D01*
X20460000Y-6830000D02*
X20500000Y-6830000D01*
X20480000Y-11690000D02*
X20480000Y-11730000D01*
X20460000Y-11710000D02*
X20500000Y-11710000D01*
X20480000Y-16570000D02*
X20480000Y-16610000D01*
X20460000Y-16590000D02*
X20500000Y-16590000D01*
X20480000Y-21450000D02*
X20480000Y-21490000D01*
X20460000Y-21470000D02*
X20500000Y-21470000D01*
X20480000Y-26330000D02*
X20480000Y-26370000D01*
X20460000Y-26350000D02*
X20500000Y-26350000D01*
X24875000Y-6920000D02*
X24875000Y-6960000D01*
X24855000Y-6940000D02*
X24895000Y-6940000D01*
X24875000Y-7070000D02*
X24875000Y-7110000D01*
X24855000Y-7090000D02*
X24895000Y-7090000D01*
X24875000Y-11800000D02*
X24875000Y-11840000D01*
X24855000Y-11820000D02*
X24895000Y-11820000D01*
X24875000Y-11950000D02*
X24875000Y-11990000D01*
X24855000Y-11970000D02*
X24895000Y-11970000D01*
X24875000Y-16680000D02*
X24875000Y-16720000D01*
X24855000Y-16700000D02*
X24895000Y-16700000D01*
X24875000Y-16830000D02*
X24875000Y-16870000D01*
X24855000Y-16850000D02*
X24895000Y-16850000D01*
X24875000Y-21560000D02*
X24875000Y-21600000D01*
X24855000Y-21580000D02*
X24895000Y-21580000D01*
X24875000Y-21710000D02*
X24875000Y-21750000D01*
X24855000Y-21730000D02*
X24895000Y-21730000D01*
X24875000Y-26440000D02*
X24875000Y-26480000D01*
X24855000Y-26460000D02*
X24895000Y-26460000D01*
X24875000Y-26590000D02*
X24875000Y-26630000D01*
X24855000Y-26610000D02*
X24895000Y-26610000D01*
X24930000Y-7190000D02*
X24930000Y-7230000D01*
X24910000Y-7210000D02*
X24950000Y-7210000D01*
X24930000Y-12070000D02*
X24930000Y-12110000D01*
X24910000Y-12090000D02*
X24950000Y-12090000D01*
X24930000Y-16950000D02*
X24930000Y-16990000D01*
X24910000Y-16970000D02*
X24950000Y-16970000D01*
X24930000Y-21830000D02*
X24930000Y-21870000D01*
X24910000Y-21850000D02*
X24950000Y-21850000D01*
X24930000Y-26710000D02*
X24930000Y-26750000D01*
X24910000Y-26730000D02*
X24950000Y-26730000D01*
X24950000Y-6810000D02*
X24950000Y-6850000D01*
X24930000Y-6830000D02*
X24970000Y-6830000D01*
X24950000Y-11690000D02*
X24950000Y-11730000D01*
X24930000Y-11710000D02*
X24970000Y-11710000D01*
X24950000Y-16570000D02*
X24950000Y-16610000D01*
X24930000Y-16590000D02*
X24970000Y-16590000D01*
X24950000Y-21450000D02*
X24950000Y-21490000D01*
X24930000Y-21470000D02*
X24970000Y-21470000D01*
X24950000Y-26330000D02*
X24950000Y-26370000D01*
X24930000Y-26350000D02*
X24970000Y-26350000D01*
X25360000Y-6810000D02*
X25360000Y-6850000D01*
X25340000Y-6830000D02*
X25380000Y-6830000D01*
X25360000Y-11690000D02*
X25360000Y-11730000D01*
X25340000Y-11710000D02*
X25380000Y-11710000D01*
X25360000Y-16570000D02*
X25360000Y-16610000D01*
X25340000Y-16590000D02*
X25380000Y-16590000D01*
X25360000Y-21450000D02*
X25360000Y-21490000D01*
X25340000Y-21470000D02*
X25380000Y-21470000D01*
X25360000Y-26330000D02*
X25360000Y-26370000D01*
X25340000Y-26350000D02*
X25380000Y-26350000D01*
X29755000Y-6920000D02*
X29755000Y-6960000D01*
X29735000Y-6940000D02*
X29775000Y-6940000D01*
X29755000Y-7070000D02*
X29755000Y-7110000D01*
X29735000Y-7090000D02*
X29775000Y-7090000D01*
X29755000Y-11800000D02*
X29755000Y-11840000D01*
X29735000Y-11820000D02*
X29775000Y-11820000D01*
X29755000Y-11950000D02*
X29755000Y-11990000D01*
X29735000Y-11970000D02*
X29775000Y-11970000D01*
X29755000Y-16680000D02*
X29755000Y-16720000D01*
X29735000Y-16700000D02*
X29775000Y-16700000D01*
X29755000Y-16830000D02*
X29755000Y-16870000D01*
X29735000Y-16850000D02*
X29775000Y-16850000D01*
X29755000Y-21560000D02*
X29755000Y-21600000D01*
X29735000Y-21580000D02*
X29775000Y-21580000D01*
X29755000Y-21710000D02*
X29755000Y-21750000D01*
X29735000Y-21730000D02*
X29775000Y-21730000D01*
X29755000Y-26440000D02*
X29755000Y-26480000D01*
X29735000Y-26460000D02*
X29775000Y-26460000D01*
X29755000Y-26590000D02*
X29755000Y-26630000D01*
X29735000Y-26610000D02*
X29775000Y-26610000D01*
X29810000Y-7190000D02*
X29810000Y-7230000D01*
X29790000Y-7210000D02*
X29830000Y-7210000D01*
X29810000Y-12070000D02*
X29810000Y-12110000D01*
X29790000Y-12090000D02*
X29830000Y-12090000D01*
X29810000Y-16950000D02*
X29810000Y-16990000D01*
X29790000Y-16970000D02*
X29830000Y-16970000D01*
X29810000Y-21830000D02*
X29810000Y-21870000D01*
X29790000Y-21850000D02*
X29830000Y-21850000D01*
X29810000Y-26710000D02*
X29810000Y-26750000D01*
X29790000Y-26730000D02*
X29830000Y-26730000D01*
X29830000Y-6810000D02*
X29830000Y-6850000D01*
X29810000Y-6830000D02*
X29850000Y-6830000D01*
X29830000Y-11690000D02*
X29830000Y-11730000D01*
X29810000Y-11710000D02*
X29850000Y-11710000D01*
X29830000Y-16570000D02*
X29830000Y-16610000D01*
X29810000Y-16590000D02*
X29850000Y-16590000D01*
X29830000Y-21450000D02*
X29830000Y-21490000D01*
X29810000Y-21470000D02*
X29850000Y-21470000D01*
X29830000Y-26330000D02*
X29830000Y-26370000D01*
X29810000Y-26350000D02*
X29850000Y-26350000D01*
X30240000Y-6810000D02*
X30240000Y-6850000D01*
X30220000Y-6830000D02*
X30260000Y-6830000D01*
X30240000Y-11690000D02*
X30240000Y-11730000D01*
X30220000Y-11710000D02*
X30260000Y-11710000D01*
X30240000Y-16570000D02*
X30240000Y-16610000D01*
X30220000Y-16590000D02*
X30260000Y-16590000D01*
X30240000Y-21450000D02*
X30240000Y-21490000D01*
X30220000Y-21470000D02*
X30260000Y-21470000D01*
X30240000Y-26330000D02*
X30240000Y-26370000D01*
X30220000Y-26350000D02*
X30260000Y-26350000D01*
X7029699Y-4080199D02*
X7029699Y-4020801D01*
X6970301Y-4020801D01*
X6970301Y-4080199D01*
X7029699Y-4080199D01*
X7029699Y-5979199D02*
X7029699Y-5919801D01*
X6970301Y-5919801D01*
X6970301Y-5979199D01*
X7029699Y-5979199D01*
X7029699Y-16080199D02*
X7029699Y-16020801D01*
X6970301Y-16020801D01*
X6970301Y-16080199D01*
X7029699Y-16080199D01*
X7029699Y-17979199D02*
X7029699Y-17919801D01*
X6970301Y-17919801D01*
X6970301Y-17979199D01*
X7029699Y-17979199D01*
D13*
X7050000Y-32075000D02*
X7125000Y-32000000D01*
X7050000Y-31925000D01*
X6975000Y-32000000D01*
X7050000Y-32075000D01*
D14*
X6711000Y-31661000D02*
X6881000Y-31831000D01*
X6881000Y-31661000D02*
X6711000Y-31831000D01*
X6881000Y-31746000D02*
G75*
G02*
X6711000Y-31746000I-85000J0D01*
G01*
X6711000Y-31746000D02*
G75*
G02*
X6881000Y-31746000I85000J0D01*
G01*
X6711000Y-32169000D02*
X6881000Y-32339000D01*
X6881000Y-32169000D02*
X6711000Y-32339000D01*
X6881000Y-32254000D02*
G75*
G02*
X6711000Y-32254000I-85000J0D01*
G01*
X6711000Y-32254000D02*
G75*
G02*
X6881000Y-32254000I85000J0D01*
G01*
X7219000Y-31661000D02*
X7389000Y-31831000D01*
X7389000Y-31661000D02*
X7219000Y-31831000D01*
X7389000Y-31746000D02*
G75*
G02*
X7219000Y-31746000I-85000J0D01*
G01*
X7219000Y-31746000D02*
G75*
G02*
X7389000Y-31746000I85000J0D01*
G01*
X7219000Y-32169000D02*
X7389000Y-32339000D01*
X7389000Y-32169000D02*
X7219000Y-32339000D01*
X7389000Y-32254000D02*
G75*
G02*
X7219000Y-32254000I-85000J0D01*
G01*
X7219000Y-32254000D02*
G75*
G02*
X7389000Y-32254000I85000J0D01*
G01*
D12*
X6855777Y-32813984D02*
X6855777Y-32613984D01*
X6855777Y-32613984D02*
X6903396Y-32613984D01*
X6903396Y-32613984D02*
X6931967Y-32623508D01*
X6931967Y-32623508D02*
X6951015Y-32642555D01*
X6951015Y-32642555D02*
X6960539Y-32661603D01*
X6960539Y-32661603D02*
X6970062Y-32699698D01*
X6970062Y-32699698D02*
X6970062Y-32728269D01*
X6970062Y-32728269D02*
X6960539Y-32766365D01*
X6960539Y-32766365D02*
X6951015Y-32785412D01*
X6951015Y-32785412D02*
X6931967Y-32804460D01*
X6931967Y-32804460D02*
X6903396Y-32813984D01*
X6903396Y-32813984D02*
X6855777Y-32813984D01*
X7055777Y-32813984D02*
X7055777Y-32680650D01*
X7055777Y-32718746D02*
X7065301Y-32699698D01*
X7065301Y-32699698D02*
X7074824Y-32690174D01*
X7074824Y-32690174D02*
X7093872Y-32680650D01*
X7093872Y-32680650D02*
X7112920Y-32680650D01*
X7179586Y-32813984D02*
X7179586Y-32680650D01*
X7179586Y-32613984D02*
X7170062Y-32623508D01*
X7170062Y-32623508D02*
X7179586Y-32633031D01*
X7179586Y-32633031D02*
X7189110Y-32623508D01*
X7189110Y-32623508D02*
X7179586Y-32613984D01*
X7179586Y-32613984D02*
X7179586Y-32633031D01*
X7303396Y-32813984D02*
X7284348Y-32804460D01*
X7284348Y-32804460D02*
X7274824Y-32785412D01*
X7274824Y-32785412D02*
X7274824Y-32613984D01*
X7408158Y-32813984D02*
X7389110Y-32804460D01*
X7389110Y-32804460D02*
X7379586Y-32785412D01*
X7379586Y-32785412D02*
X7379586Y-32613984D01*
X7636729Y-32813984D02*
X7636729Y-32613984D01*
X7636729Y-32613984D02*
X7703396Y-32756841D01*
X7703396Y-32756841D02*
X7770062Y-32613984D01*
X7770062Y-32613984D02*
X7770062Y-32813984D01*
X7951015Y-32813984D02*
X7951015Y-32709222D01*
X7951015Y-32709222D02*
X7941491Y-32690174D01*
X7941491Y-32690174D02*
X7922443Y-32680650D01*
X7922443Y-32680650D02*
X7884348Y-32680650D01*
X7884348Y-32680650D02*
X7865301Y-32690174D01*
X7951015Y-32804460D02*
X7931967Y-32813984D01*
X7931967Y-32813984D02*
X7884348Y-32813984D01*
X7884348Y-32813984D02*
X7865301Y-32804460D01*
X7865301Y-32804460D02*
X7855777Y-32785412D01*
X7855777Y-32785412D02*
X7855777Y-32766365D01*
X7855777Y-32766365D02*
X7865301Y-32747317D01*
X7865301Y-32747317D02*
X7884348Y-32737793D01*
X7884348Y-32737793D02*
X7931967Y-32737793D01*
X7931967Y-32737793D02*
X7951015Y-32728269D01*
X8046253Y-32680650D02*
X8046253Y-32880650D01*
X8046253Y-32690174D02*
X8065301Y-32680650D01*
X8065301Y-32680650D02*
X8103396Y-32680650D01*
X8103396Y-32680650D02*
X8122443Y-32690174D01*
X8122443Y-32690174D02*
X8131967Y-32699698D01*
X8131967Y-32699698D02*
X8141491Y-32718746D01*
X8141491Y-32718746D02*
X8141491Y-32775888D01*
X8141491Y-32775888D02*
X8131967Y-32794936D01*
X8131967Y-32794936D02*
X8122443Y-32804460D01*
X8122443Y-32804460D02*
X8103396Y-32813984D01*
X8103396Y-32813984D02*
X8065301Y-32813984D01*
X8065301Y-32813984D02*
X8046253Y-32804460D01*
X8227205Y-32794936D02*
X8236729Y-32804460D01*
X8236729Y-32804460D02*
X8227205Y-32813984D01*
X8227205Y-32813984D02*
X8217682Y-32804460D01*
X8217682Y-32804460D02*
X8227205Y-32794936D01*
X8227205Y-32794936D02*
X8227205Y-32813984D01*
X8227205Y-32690174D02*
X8236729Y-32699698D01*
X8236729Y-32699698D02*
X8227205Y-32709222D01*
X8227205Y-32709222D02*
X8217682Y-32699698D01*
X8217682Y-32699698D02*
X8227205Y-32690174D01*
X8227205Y-32690174D02*
X8227205Y-32709222D01*
D11*
X6565000Y-33127500D02*
X6595000Y-33157500D01*
X6595000Y-33127500D02*
X6565000Y-33157500D01*
D12*
X6893872Y-33033984D02*
X6912920Y-33033984D01*
X6912920Y-33033984D02*
X6931967Y-33043508D01*
X6931967Y-33043508D02*
X6941491Y-33053031D01*
X6941491Y-33053031D02*
X6951015Y-33072079D01*
X6951015Y-33072079D02*
X6960539Y-33110174D01*
X6960539Y-33110174D02*
X6960539Y-33157793D01*
X6960539Y-33157793D02*
X6951015Y-33195888D01*
X6951015Y-33195888D02*
X6941491Y-33214936D01*
X6941491Y-33214936D02*
X6931967Y-33224460D01*
X6931967Y-33224460D02*
X6912920Y-33233984D01*
X6912920Y-33233984D02*
X6893872Y-33233984D01*
X6893872Y-33233984D02*
X6874824Y-33224460D01*
X6874824Y-33224460D02*
X6865301Y-33214936D01*
X6865301Y-33214936D02*
X6855777Y-33195888D01*
X6855777Y-33195888D02*
X6846253Y-33157793D01*
X6846253Y-33157793D02*
X6846253Y-33110174D01*
X6846253Y-33110174D02*
X6855777Y-33072079D01*
X6855777Y-33072079D02*
X6865301Y-33053031D01*
X6865301Y-33053031D02*
X6874824Y-33043508D01*
X6874824Y-33043508D02*
X6893872Y-33033984D01*
X7046253Y-33214936D02*
X7055777Y-33224460D01*
X7055777Y-33224460D02*
X7046253Y-33233984D01*
X7046253Y-33233984D02*
X7036729Y-33224460D01*
X7036729Y-33224460D02*
X7046253Y-33214936D01*
X7046253Y-33214936D02*
X7046253Y-33233984D01*
X7122443Y-33033984D02*
X7246253Y-33033984D01*
X7246253Y-33033984D02*
X7179586Y-33110174D01*
X7179586Y-33110174D02*
X7208158Y-33110174D01*
X7208158Y-33110174D02*
X7227205Y-33119698D01*
X7227205Y-33119698D02*
X7236729Y-33129222D01*
X7236729Y-33129222D02*
X7246253Y-33148269D01*
X7246253Y-33148269D02*
X7246253Y-33195888D01*
X7246253Y-33195888D02*
X7236729Y-33214936D01*
X7236729Y-33214936D02*
X7227205Y-33224460D01*
X7227205Y-33224460D02*
X7208158Y-33233984D01*
X7208158Y-33233984D02*
X7151015Y-33233984D01*
X7151015Y-33233984D02*
X7131967Y-33224460D01*
X7131967Y-33224460D02*
X7122443Y-33214936D01*
X7370062Y-33033984D02*
X7389110Y-33033984D01*
X7389110Y-33033984D02*
X7408158Y-33043508D01*
X7408158Y-33043508D02*
X7417682Y-33053031D01*
X7417682Y-33053031D02*
X7427205Y-33072079D01*
X7427205Y-33072079D02*
X7436729Y-33110174D01*
X7436729Y-33110174D02*
X7436729Y-33157793D01*
X7436729Y-33157793D02*
X7427205Y-33195888D01*
X7427205Y-33195888D02*
X7417682Y-33214936D01*
X7417682Y-33214936D02*
X7408158Y-33224460D01*
X7408158Y-33224460D02*
X7389110Y-33233984D01*
X7389110Y-33233984D02*
X7370062Y-33233984D01*
X7370062Y-33233984D02*
X7351015Y-33224460D01*
X7351015Y-33224460D02*
X7341491Y-33214936D01*
X7341491Y-33214936D02*
X7331967Y-33195888D01*
X7331967Y-33195888D02*
X7322443Y-33157793D01*
X7322443Y-33157793D02*
X7322443Y-33110174D01*
X7322443Y-33110174D02*
X7331967Y-33072079D01*
X7331967Y-33072079D02*
X7341491Y-33053031D01*
X7341491Y-33053031D02*
X7351015Y-33043508D01*
X7351015Y-33043508D02*
X7370062Y-33033984D01*
X7560539Y-33033984D02*
X7579586Y-33033984D01*
X7579586Y-33033984D02*
X7598634Y-33043508D01*
X7598634Y-33043508D02*
X7608158Y-33053031D01*
X7608158Y-33053031D02*
X7617682Y-33072079D01*
X7617682Y-33072079D02*
X7627205Y-33110174D01*
X7627205Y-33110174D02*
X7627205Y-33157793D01*
X7627205Y-33157793D02*
X7617682Y-33195888D01*
X7617682Y-33195888D02*
X7608158Y-33214936D01*
X7608158Y-33214936D02*
X7598634Y-33224460D01*
X7598634Y-33224460D02*
X7579586Y-33233984D01*
X7579586Y-33233984D02*
X7560539Y-33233984D01*
X7560539Y-33233984D02*
X7541491Y-33224460D01*
X7541491Y-33224460D02*
X7531967Y-33214936D01*
X7531967Y-33214936D02*
X7522443Y-33195888D01*
X7522443Y-33195888D02*
X7512920Y-33157793D01*
X7512920Y-33157793D02*
X7512920Y-33110174D01*
X7512920Y-33110174D02*
X7522443Y-33072079D01*
X7522443Y-33072079D02*
X7531967Y-33053031D01*
X7531967Y-33053031D02*
X7541491Y-33043508D01*
X7541491Y-33043508D02*
X7560539Y-33033984D01*
X7712920Y-33233984D02*
X7712920Y-33100650D01*
X7712920Y-33119698D02*
X7722443Y-33110174D01*
X7722443Y-33110174D02*
X7741491Y-33100650D01*
X7741491Y-33100650D02*
X7770063Y-33100650D01*
X7770063Y-33100650D02*
X7789110Y-33110174D01*
X7789110Y-33110174D02*
X7798634Y-33129222D01*
X7798634Y-33129222D02*
X7798634Y-33233984D01*
X7798634Y-33129222D02*
X7808158Y-33110174D01*
X7808158Y-33110174D02*
X7827205Y-33100650D01*
X7827205Y-33100650D02*
X7855777Y-33100650D01*
X7855777Y-33100650D02*
X7874824Y-33110174D01*
X7874824Y-33110174D02*
X7884348Y-33129222D01*
X7884348Y-33129222D02*
X7884348Y-33233984D01*
X7979586Y-33233984D02*
X7979586Y-33100650D01*
X7979586Y-33119698D02*
X7989110Y-33110174D01*
X7989110Y-33110174D02*
X8008158Y-33100650D01*
X8008158Y-33100650D02*
X8036729Y-33100650D01*
X8036729Y-33100650D02*
X8055777Y-33110174D01*
X8055777Y-33110174D02*
X8065301Y-33129222D01*
X8065301Y-33129222D02*
X8065301Y-33233984D01*
X8065301Y-33129222D02*
X8074824Y-33110174D01*
X8074824Y-33110174D02*
X8093872Y-33100650D01*
X8093872Y-33100650D02*
X8122443Y-33100650D01*
X8122443Y-33100650D02*
X8141491Y-33110174D01*
X8141491Y-33110174D02*
X8151015Y-33129222D01*
X8151015Y-33129222D02*
X8151015Y-33233984D01*
X8541491Y-33024460D02*
X8370063Y-33281603D01*
X8798634Y-33033984D02*
X8817682Y-33033984D01*
X8817682Y-33033984D02*
X8836729Y-33043508D01*
X8836729Y-33043508D02*
X8846253Y-33053031D01*
X8846253Y-33053031D02*
X8855777Y-33072079D01*
X8855777Y-33072079D02*
X8865301Y-33110174D01*
X8865301Y-33110174D02*
X8865301Y-33157793D01*
X8865301Y-33157793D02*
X8855777Y-33195888D01*
X8855777Y-33195888D02*
X8846253Y-33214936D01*
X8846253Y-33214936D02*
X8836729Y-33224460D01*
X8836729Y-33224460D02*
X8817682Y-33233984D01*
X8817682Y-33233984D02*
X8798634Y-33233984D01*
X8798634Y-33233984D02*
X8779587Y-33224460D01*
X8779587Y-33224460D02*
X8770063Y-33214936D01*
X8770063Y-33214936D02*
X8760539Y-33195888D01*
X8760539Y-33195888D02*
X8751015Y-33157793D01*
X8751015Y-33157793D02*
X8751015Y-33110174D01*
X8751015Y-33110174D02*
X8760539Y-33072079D01*
X8760539Y-33072079D02*
X8770063Y-33053031D01*
X8770063Y-33053031D02*
X8779587Y-33043508D01*
X8779587Y-33043508D02*
X8798634Y-33033984D01*
X8951015Y-33214936D02*
X8960539Y-33224460D01*
X8960539Y-33224460D02*
X8951015Y-33233984D01*
X8951015Y-33233984D02*
X8941491Y-33224460D01*
X8941491Y-33224460D02*
X8951015Y-33214936D01*
X8951015Y-33214936D02*
X8951015Y-33233984D01*
X9084348Y-33033984D02*
X9103396Y-33033984D01*
X9103396Y-33033984D02*
X9122444Y-33043508D01*
X9122444Y-33043508D02*
X9131968Y-33053031D01*
X9131968Y-33053031D02*
X9141491Y-33072079D01*
X9141491Y-33072079D02*
X9151015Y-33110174D01*
X9151015Y-33110174D02*
X9151015Y-33157793D01*
X9151015Y-33157793D02*
X9141491Y-33195888D01*
X9141491Y-33195888D02*
X9131968Y-33214936D01*
X9131968Y-33214936D02*
X9122444Y-33224460D01*
X9122444Y-33224460D02*
X9103396Y-33233984D01*
X9103396Y-33233984D02*
X9084348Y-33233984D01*
X9084348Y-33233984D02*
X9065301Y-33224460D01*
X9065301Y-33224460D02*
X9055777Y-33214936D01*
X9055777Y-33214936D02*
X9046253Y-33195888D01*
X9046253Y-33195888D02*
X9036729Y-33157793D01*
X9036729Y-33157793D02*
X9036729Y-33110174D01*
X9036729Y-33110174D02*
X9046253Y-33072079D01*
X9046253Y-33072079D02*
X9055777Y-33053031D01*
X9055777Y-33053031D02*
X9065301Y-33043508D01*
X9065301Y-33043508D02*
X9084348Y-33033984D01*
X9341491Y-33233984D02*
X9227206Y-33233984D01*
X9284348Y-33233984D02*
X9284348Y-33033984D01*
X9284348Y-33033984D02*
X9265301Y-33062555D01*
X9265301Y-33062555D02*
X9246253Y-33081603D01*
X9246253Y-33081603D02*
X9227206Y-33091127D01*
X9531968Y-33233984D02*
X9417682Y-33233984D01*
X9474825Y-33233984D02*
X9474825Y-33033984D01*
X9474825Y-33033984D02*
X9455777Y-33062555D01*
X9455777Y-33062555D02*
X9436729Y-33081603D01*
X9436729Y-33081603D02*
X9417682Y-33091127D01*
X9646253Y-33119698D02*
X9627206Y-33110174D01*
X9627206Y-33110174D02*
X9617682Y-33100650D01*
X9617682Y-33100650D02*
X9608158Y-33081603D01*
X9608158Y-33081603D02*
X9608158Y-33072079D01*
X9608158Y-33072079D02*
X9617682Y-33053031D01*
X9617682Y-33053031D02*
X9627206Y-33043508D01*
X9627206Y-33043508D02*
X9646253Y-33033984D01*
X9646253Y-33033984D02*
X9684349Y-33033984D01*
X9684349Y-33033984D02*
X9703396Y-33043508D01*
X9703396Y-33043508D02*
X9712920Y-33053031D01*
X9712920Y-33053031D02*
X9722444Y-33072079D01*
X9722444Y-33072079D02*
X9722444Y-33081603D01*
X9722444Y-33081603D02*
X9712920Y-33100650D01*
X9712920Y-33100650D02*
X9703396Y-33110174D01*
X9703396Y-33110174D02*
X9684349Y-33119698D01*
X9684349Y-33119698D02*
X9646253Y-33119698D01*
X9646253Y-33119698D02*
X9627206Y-33129222D01*
X9627206Y-33129222D02*
X9617682Y-33138746D01*
X9617682Y-33138746D02*
X9608158Y-33157793D01*
X9608158Y-33157793D02*
X9608158Y-33195888D01*
X9608158Y-33195888D02*
X9617682Y-33214936D01*
X9617682Y-33214936D02*
X9627206Y-33224460D01*
X9627206Y-33224460D02*
X9646253Y-33233984D01*
X9646253Y-33233984D02*
X9684349Y-33233984D01*
X9684349Y-33233984D02*
X9703396Y-33224460D01*
X9703396Y-33224460D02*
X9712920Y-33214936D01*
X9712920Y-33214936D02*
X9722444Y-33195888D01*
X9722444Y-33195888D02*
X9722444Y-33157793D01*
X9722444Y-33157793D02*
X9712920Y-33138746D01*
X9712920Y-33138746D02*
X9703396Y-33129222D01*
X9703396Y-33129222D02*
X9684349Y-33119698D01*
X9798634Y-33033984D02*
X9798634Y-33072079D01*
X9874825Y-33033984D02*
X9874825Y-33072079D01*
X10170063Y-33310174D02*
X10160539Y-33300650D01*
X10160539Y-33300650D02*
X10141491Y-33272079D01*
X10141491Y-33272079D02*
X10131968Y-33253031D01*
X10131968Y-33253031D02*
X10122444Y-33224460D01*
X10122444Y-33224460D02*
X10112920Y-33176841D01*
X10112920Y-33176841D02*
X10112920Y-33138746D01*
X10112920Y-33138746D02*
X10122444Y-33091127D01*
X10122444Y-33091127D02*
X10131968Y-33062555D01*
X10131968Y-33062555D02*
X10141491Y-33043508D01*
X10141491Y-33043508D02*
X10160539Y-33014936D01*
X10160539Y-33014936D02*
X10170063Y-33005412D01*
X10341491Y-33033984D02*
X10246253Y-33033984D01*
X10246253Y-33033984D02*
X10236730Y-33129222D01*
X10236730Y-33129222D02*
X10246253Y-33119698D01*
X10246253Y-33119698D02*
X10265301Y-33110174D01*
X10265301Y-33110174D02*
X10312920Y-33110174D01*
X10312920Y-33110174D02*
X10331968Y-33119698D01*
X10331968Y-33119698D02*
X10341491Y-33129222D01*
X10341491Y-33129222D02*
X10351015Y-33148269D01*
X10351015Y-33148269D02*
X10351015Y-33195888D01*
X10351015Y-33195888D02*
X10341491Y-33214936D01*
X10341491Y-33214936D02*
X10331968Y-33224460D01*
X10331968Y-33224460D02*
X10312920Y-33233984D01*
X10312920Y-33233984D02*
X10265301Y-33233984D01*
X10265301Y-33233984D02*
X10246253Y-33224460D01*
X10246253Y-33224460D02*
X10236730Y-33214936D01*
X10541491Y-33233984D02*
X10427206Y-33233984D01*
X10484349Y-33233984D02*
X10484349Y-33033984D01*
X10484349Y-33033984D02*
X10465301Y-33062555D01*
X10465301Y-33062555D02*
X10446253Y-33081603D01*
X10446253Y-33081603D02*
X10427206Y-33091127D01*
X10779587Y-33233984D02*
X10779587Y-33033984D01*
X10865301Y-33233984D02*
X10865301Y-33129222D01*
X10865301Y-33129222D02*
X10855777Y-33110174D01*
X10855777Y-33110174D02*
X10836730Y-33100650D01*
X10836730Y-33100650D02*
X10808158Y-33100650D01*
X10808158Y-33100650D02*
X10789111Y-33110174D01*
X10789111Y-33110174D02*
X10779587Y-33119698D01*
X10989111Y-33233984D02*
X10970063Y-33224460D01*
X10970063Y-33224460D02*
X10960539Y-33214936D01*
X10960539Y-33214936D02*
X10951015Y-33195888D01*
X10951015Y-33195888D02*
X10951015Y-33138746D01*
X10951015Y-33138746D02*
X10960539Y-33119698D01*
X10960539Y-33119698D02*
X10970063Y-33110174D01*
X10970063Y-33110174D02*
X10989111Y-33100650D01*
X10989111Y-33100650D02*
X11017682Y-33100650D01*
X11017682Y-33100650D02*
X11036730Y-33110174D01*
X11036730Y-33110174D02*
X11046253Y-33119698D01*
X11046253Y-33119698D02*
X11055777Y-33138746D01*
X11055777Y-33138746D02*
X11055777Y-33195888D01*
X11055777Y-33195888D02*
X11046253Y-33214936D01*
X11046253Y-33214936D02*
X11036730Y-33224460D01*
X11036730Y-33224460D02*
X11017682Y-33233984D01*
X11017682Y-33233984D02*
X10989111Y-33233984D01*
X11170063Y-33233984D02*
X11151015Y-33224460D01*
X11151015Y-33224460D02*
X11141492Y-33205412D01*
X11141492Y-33205412D02*
X11141492Y-33033984D01*
X11322444Y-33224460D02*
X11303396Y-33233984D01*
X11303396Y-33233984D02*
X11265301Y-33233984D01*
X11265301Y-33233984D02*
X11246253Y-33224460D01*
X11246253Y-33224460D02*
X11236730Y-33205412D01*
X11236730Y-33205412D02*
X11236730Y-33129222D01*
X11236730Y-33129222D02*
X11246253Y-33110174D01*
X11246253Y-33110174D02*
X11265301Y-33100650D01*
X11265301Y-33100650D02*
X11303396Y-33100650D01*
X11303396Y-33100650D02*
X11322444Y-33110174D01*
X11322444Y-33110174D02*
X11331968Y-33129222D01*
X11331968Y-33129222D02*
X11331968Y-33148269D01*
X11331968Y-33148269D02*
X11236730Y-33167317D01*
X11408158Y-33224460D02*
X11427206Y-33233984D01*
X11427206Y-33233984D02*
X11465301Y-33233984D01*
X11465301Y-33233984D02*
X11484349Y-33224460D01*
X11484349Y-33224460D02*
X11493872Y-33205412D01*
X11493872Y-33205412D02*
X11493872Y-33195888D01*
X11493872Y-33195888D02*
X11484349Y-33176841D01*
X11484349Y-33176841D02*
X11465301Y-33167317D01*
X11465301Y-33167317D02*
X11436730Y-33167317D01*
X11436730Y-33167317D02*
X11417682Y-33157793D01*
X11417682Y-33157793D02*
X11408158Y-33138746D01*
X11408158Y-33138746D02*
X11408158Y-33129222D01*
X11408158Y-33129222D02*
X11417682Y-33110174D01*
X11417682Y-33110174D02*
X11436730Y-33100650D01*
X11436730Y-33100650D02*
X11465301Y-33100650D01*
X11465301Y-33100650D02*
X11484349Y-33110174D01*
X11560539Y-33310174D02*
X11570063Y-33300650D01*
X11570063Y-33300650D02*
X11589111Y-33272079D01*
X11589111Y-33272079D02*
X11598634Y-33253031D01*
X11598634Y-33253031D02*
X11608158Y-33224460D01*
X11608158Y-33224460D02*
X11617682Y-33176841D01*
X11617682Y-33176841D02*
X11617682Y-33138746D01*
X11617682Y-33138746D02*
X11608158Y-33091127D01*
X11608158Y-33091127D02*
X11598634Y-33062555D01*
X11598634Y-33062555D02*
X11589111Y-33043508D01*
X11589111Y-33043508D02*
X11570063Y-33014936D01*
X11570063Y-33014936D02*
X11560539Y-33005412D01*
D11*
X6595000Y-33406500D02*
G75*
G02*
X6555000Y-33406500I-20000J0D01*
G01*
X6555000Y-33406500D02*
G75*
G02*
X6595000Y-33406500I20000J0D01*
G01*
D12*
X6893872Y-33297984D02*
X6912920Y-33297984D01*
X6912920Y-33297984D02*
X6931967Y-33307508D01*
X6931967Y-33307508D02*
X6941491Y-33317031D01*
X6941491Y-33317031D02*
X6951015Y-33336079D01*
X6951015Y-33336079D02*
X6960539Y-33374174D01*
X6960539Y-33374174D02*
X6960539Y-33421793D01*
X6960539Y-33421793D02*
X6951015Y-33459888D01*
X6951015Y-33459888D02*
X6941491Y-33478936D01*
X6941491Y-33478936D02*
X6931967Y-33488460D01*
X6931967Y-33488460D02*
X6912920Y-33497984D01*
X6912920Y-33497984D02*
X6893872Y-33497984D01*
X6893872Y-33497984D02*
X6874824Y-33488460D01*
X6874824Y-33488460D02*
X6865301Y-33478936D01*
X6865301Y-33478936D02*
X6855777Y-33459888D01*
X6855777Y-33459888D02*
X6846253Y-33421793D01*
X6846253Y-33421793D02*
X6846253Y-33374174D01*
X6846253Y-33374174D02*
X6855777Y-33336079D01*
X6855777Y-33336079D02*
X6865301Y-33317031D01*
X6865301Y-33317031D02*
X6874824Y-33307508D01*
X6874824Y-33307508D02*
X6893872Y-33297984D01*
X7046253Y-33478936D02*
X7055777Y-33488460D01*
X7055777Y-33488460D02*
X7046253Y-33497984D01*
X7046253Y-33497984D02*
X7036729Y-33488460D01*
X7036729Y-33488460D02*
X7046253Y-33478936D01*
X7046253Y-33478936D02*
X7046253Y-33497984D01*
X7227205Y-33364650D02*
X7227205Y-33497984D01*
X7179586Y-33288460D02*
X7131967Y-33431317D01*
X7131967Y-33431317D02*
X7255777Y-33431317D01*
X7370062Y-33297984D02*
X7389110Y-33297984D01*
X7389110Y-33297984D02*
X7408158Y-33307508D01*
X7408158Y-33307508D02*
X7417682Y-33317031D01*
X7417682Y-33317031D02*
X7427205Y-33336079D01*
X7427205Y-33336079D02*
X7436729Y-33374174D01*
X7436729Y-33374174D02*
X7436729Y-33421793D01*
X7436729Y-33421793D02*
X7427205Y-33459888D01*
X7427205Y-33459888D02*
X7417682Y-33478936D01*
X7417682Y-33478936D02*
X7408158Y-33488460D01*
X7408158Y-33488460D02*
X7389110Y-33497984D01*
X7389110Y-33497984D02*
X7370062Y-33497984D01*
X7370062Y-33497984D02*
X7351015Y-33488460D01*
X7351015Y-33488460D02*
X7341491Y-33478936D01*
X7341491Y-33478936D02*
X7331967Y-33459888D01*
X7331967Y-33459888D02*
X7322443Y-33421793D01*
X7322443Y-33421793D02*
X7322443Y-33374174D01*
X7322443Y-33374174D02*
X7331967Y-33336079D01*
X7331967Y-33336079D02*
X7341491Y-33317031D01*
X7341491Y-33317031D02*
X7351015Y-33307508D01*
X7351015Y-33307508D02*
X7370062Y-33297984D01*
X7560539Y-33297984D02*
X7579586Y-33297984D01*
X7579586Y-33297984D02*
X7598634Y-33307508D01*
X7598634Y-33307508D02*
X7608158Y-33317031D01*
X7608158Y-33317031D02*
X7617682Y-33336079D01*
X7617682Y-33336079D02*
X7627205Y-33374174D01*
X7627205Y-33374174D02*
X7627205Y-33421793D01*
X7627205Y-33421793D02*
X7617682Y-33459888D01*
X7617682Y-33459888D02*
X7608158Y-33478936D01*
X7608158Y-33478936D02*
X7598634Y-33488460D01*
X7598634Y-33488460D02*
X7579586Y-33497984D01*
X7579586Y-33497984D02*
X7560539Y-33497984D01*
X7560539Y-33497984D02*
X7541491Y-33488460D01*
X7541491Y-33488460D02*
X7531967Y-33478936D01*
X7531967Y-33478936D02*
X7522443Y-33459888D01*
X7522443Y-33459888D02*
X7512920Y-33421793D01*
X7512920Y-33421793D02*
X7512920Y-33374174D01*
X7512920Y-33374174D02*
X7522443Y-33336079D01*
X7522443Y-33336079D02*
X7531967Y-33317031D01*
X7531967Y-33317031D02*
X7541491Y-33307508D01*
X7541491Y-33307508D02*
X7560539Y-33297984D01*
X7712920Y-33497984D02*
X7712920Y-33364650D01*
X7712920Y-33383698D02*
X7722443Y-33374174D01*
X7722443Y-33374174D02*
X7741491Y-33364650D01*
X7741491Y-33364650D02*
X7770063Y-33364650D01*
X7770063Y-33364650D02*
X7789110Y-33374174D01*
X7789110Y-33374174D02*
X7798634Y-33393222D01*
X7798634Y-33393222D02*
X7798634Y-33497984D01*
X7798634Y-33393222D02*
X7808158Y-33374174D01*
X7808158Y-33374174D02*
X7827205Y-33364650D01*
X7827205Y-33364650D02*
X7855777Y-33364650D01*
X7855777Y-33364650D02*
X7874824Y-33374174D01*
X7874824Y-33374174D02*
X7884348Y-33393222D01*
X7884348Y-33393222D02*
X7884348Y-33497984D01*
X7979586Y-33497984D02*
X7979586Y-33364650D01*
X7979586Y-33383698D02*
X7989110Y-33374174D01*
X7989110Y-33374174D02*
X8008158Y-33364650D01*
X8008158Y-33364650D02*
X8036729Y-33364650D01*
X8036729Y-33364650D02*
X8055777Y-33374174D01*
X8055777Y-33374174D02*
X8065301Y-33393222D01*
X8065301Y-33393222D02*
X8065301Y-33497984D01*
X8065301Y-33393222D02*
X8074824Y-33374174D01*
X8074824Y-33374174D02*
X8093872Y-33364650D01*
X8093872Y-33364650D02*
X8122443Y-33364650D01*
X8122443Y-33364650D02*
X8141491Y-33374174D01*
X8141491Y-33374174D02*
X8151015Y-33393222D01*
X8151015Y-33393222D02*
X8151015Y-33497984D01*
X8541491Y-33288460D02*
X8370063Y-33545603D01*
X8798634Y-33297984D02*
X8817682Y-33297984D01*
X8817682Y-33297984D02*
X8836729Y-33307508D01*
X8836729Y-33307508D02*
X8846253Y-33317031D01*
X8846253Y-33317031D02*
X8855777Y-33336079D01*
X8855777Y-33336079D02*
X8865301Y-33374174D01*
X8865301Y-33374174D02*
X8865301Y-33421793D01*
X8865301Y-33421793D02*
X8855777Y-33459888D01*
X8855777Y-33459888D02*
X8846253Y-33478936D01*
X8846253Y-33478936D02*
X8836729Y-33488460D01*
X8836729Y-33488460D02*
X8817682Y-33497984D01*
X8817682Y-33497984D02*
X8798634Y-33497984D01*
X8798634Y-33497984D02*
X8779587Y-33488460D01*
X8779587Y-33488460D02*
X8770063Y-33478936D01*
X8770063Y-33478936D02*
X8760539Y-33459888D01*
X8760539Y-33459888D02*
X8751015Y-33421793D01*
X8751015Y-33421793D02*
X8751015Y-33374174D01*
X8751015Y-33374174D02*
X8760539Y-33336079D01*
X8760539Y-33336079D02*
X8770063Y-33317031D01*
X8770063Y-33317031D02*
X8779587Y-33307508D01*
X8779587Y-33307508D02*
X8798634Y-33297984D01*
X8951015Y-33478936D02*
X8960539Y-33488460D01*
X8960539Y-33488460D02*
X8951015Y-33497984D01*
X8951015Y-33497984D02*
X8941491Y-33488460D01*
X8941491Y-33488460D02*
X8951015Y-33478936D01*
X8951015Y-33478936D02*
X8951015Y-33497984D01*
X9084348Y-33297984D02*
X9103396Y-33297984D01*
X9103396Y-33297984D02*
X9122444Y-33307508D01*
X9122444Y-33307508D02*
X9131968Y-33317031D01*
X9131968Y-33317031D02*
X9141491Y-33336079D01*
X9141491Y-33336079D02*
X9151015Y-33374174D01*
X9151015Y-33374174D02*
X9151015Y-33421793D01*
X9151015Y-33421793D02*
X9141491Y-33459888D01*
X9141491Y-33459888D02*
X9131968Y-33478936D01*
X9131968Y-33478936D02*
X9122444Y-33488460D01*
X9122444Y-33488460D02*
X9103396Y-33497984D01*
X9103396Y-33497984D02*
X9084348Y-33497984D01*
X9084348Y-33497984D02*
X9065301Y-33488460D01*
X9065301Y-33488460D02*
X9055777Y-33478936D01*
X9055777Y-33478936D02*
X9046253Y-33459888D01*
X9046253Y-33459888D02*
X9036729Y-33421793D01*
X9036729Y-33421793D02*
X9036729Y-33374174D01*
X9036729Y-33374174D02*
X9046253Y-33336079D01*
X9046253Y-33336079D02*
X9055777Y-33317031D01*
X9055777Y-33317031D02*
X9065301Y-33307508D01*
X9065301Y-33307508D02*
X9084348Y-33297984D01*
X9341491Y-33497984D02*
X9227206Y-33497984D01*
X9284348Y-33497984D02*
X9284348Y-33297984D01*
X9284348Y-33297984D02*
X9265301Y-33326555D01*
X9265301Y-33326555D02*
X9246253Y-33345603D01*
X9246253Y-33345603D02*
X9227206Y-33355127D01*
X9522444Y-33297984D02*
X9427206Y-33297984D01*
X9427206Y-33297984D02*
X9417682Y-33393222D01*
X9417682Y-33393222D02*
X9427206Y-33383698D01*
X9427206Y-33383698D02*
X9446253Y-33374174D01*
X9446253Y-33374174D02*
X9493872Y-33374174D01*
X9493872Y-33374174D02*
X9512920Y-33383698D01*
X9512920Y-33383698D02*
X9522444Y-33393222D01*
X9522444Y-33393222D02*
X9531968Y-33412269D01*
X9531968Y-33412269D02*
X9531968Y-33459888D01*
X9531968Y-33459888D02*
X9522444Y-33478936D01*
X9522444Y-33478936D02*
X9512920Y-33488460D01*
X9512920Y-33488460D02*
X9493872Y-33497984D01*
X9493872Y-33497984D02*
X9446253Y-33497984D01*
X9446253Y-33497984D02*
X9427206Y-33488460D01*
X9427206Y-33488460D02*
X9417682Y-33478936D01*
X9598634Y-33297984D02*
X9731968Y-33297984D01*
X9731968Y-33297984D02*
X9646253Y-33497984D01*
X9798634Y-33297984D02*
X9798634Y-33336079D01*
X9874825Y-33297984D02*
X9874825Y-33336079D01*
X10170063Y-33574174D02*
X10160539Y-33564650D01*
X10160539Y-33564650D02*
X10141491Y-33536079D01*
X10141491Y-33536079D02*
X10131968Y-33517031D01*
X10131968Y-33517031D02*
X10122444Y-33488460D01*
X10122444Y-33488460D02*
X10112920Y-33440841D01*
X10112920Y-33440841D02*
X10112920Y-33402746D01*
X10112920Y-33402746D02*
X10122444Y-33355127D01*
X10122444Y-33355127D02*
X10131968Y-33326555D01*
X10131968Y-33326555D02*
X10141491Y-33307508D01*
X10141491Y-33307508D02*
X10160539Y-33278936D01*
X10160539Y-33278936D02*
X10170063Y-33269412D01*
X10351015Y-33497984D02*
X10236730Y-33497984D01*
X10293872Y-33497984D02*
X10293872Y-33297984D01*
X10293872Y-33297984D02*
X10274825Y-33326555D01*
X10274825Y-33326555D02*
X10255777Y-33345603D01*
X10255777Y-33345603D02*
X10236730Y-33355127D01*
X10589111Y-33497984D02*
X10589111Y-33297984D01*
X10674825Y-33497984D02*
X10674825Y-33393222D01*
X10674825Y-33393222D02*
X10665301Y-33374174D01*
X10665301Y-33374174D02*
X10646253Y-33364650D01*
X10646253Y-33364650D02*
X10617682Y-33364650D01*
X10617682Y-33364650D02*
X10598634Y-33374174D01*
X10598634Y-33374174D02*
X10589111Y-33383698D01*
X10798634Y-33497984D02*
X10779587Y-33488460D01*
X10779587Y-33488460D02*
X10770063Y-33478936D01*
X10770063Y-33478936D02*
X10760539Y-33459888D01*
X10760539Y-33459888D02*
X10760539Y-33402746D01*
X10760539Y-33402746D02*
X10770063Y-33383698D01*
X10770063Y-33383698D02*
X10779587Y-33374174D01*
X10779587Y-33374174D02*
X10798634Y-33364650D01*
X10798634Y-33364650D02*
X10827206Y-33364650D01*
X10827206Y-33364650D02*
X10846253Y-33374174D01*
X10846253Y-33374174D02*
X10855777Y-33383698D01*
X10855777Y-33383698D02*
X10865301Y-33402746D01*
X10865301Y-33402746D02*
X10865301Y-33459888D01*
X10865301Y-33459888D02*
X10855777Y-33478936D01*
X10855777Y-33478936D02*
X10846253Y-33488460D01*
X10846253Y-33488460D02*
X10827206Y-33497984D01*
X10827206Y-33497984D02*
X10798634Y-33497984D01*
X10979587Y-33497984D02*
X10960539Y-33488460D01*
X10960539Y-33488460D02*
X10951015Y-33469412D01*
X10951015Y-33469412D02*
X10951015Y-33297984D01*
X11131968Y-33488460D02*
X11112920Y-33497984D01*
X11112920Y-33497984D02*
X11074825Y-33497984D01*
X11074825Y-33497984D02*
X11055777Y-33488460D01*
X11055777Y-33488460D02*
X11046253Y-33469412D01*
X11046253Y-33469412D02*
X11046253Y-33393222D01*
X11046253Y-33393222D02*
X11055777Y-33374174D01*
X11055777Y-33374174D02*
X11074825Y-33364650D01*
X11074825Y-33364650D02*
X11112920Y-33364650D01*
X11112920Y-33364650D02*
X11131968Y-33374174D01*
X11131968Y-33374174D02*
X11141492Y-33393222D01*
X11141492Y-33393222D02*
X11141492Y-33412269D01*
X11141492Y-33412269D02*
X11046253Y-33431317D01*
X11208158Y-33574174D02*
X11217682Y-33564650D01*
X11217682Y-33564650D02*
X11236730Y-33536079D01*
X11236730Y-33536079D02*
X11246253Y-33517031D01*
X11246253Y-33517031D02*
X11255777Y-33488460D01*
X11255777Y-33488460D02*
X11265301Y-33440841D01*
X11265301Y-33440841D02*
X11265301Y-33402746D01*
X11265301Y-33402746D02*
X11255777Y-33355127D01*
X11255777Y-33355127D02*
X11246253Y-33326555D01*
X11246253Y-33326555D02*
X11236730Y-33307508D01*
X11236730Y-33307508D02*
X11217682Y-33278936D01*
X11217682Y-33278936D02*
X11208158Y-33269412D01*
D11*
X6575000Y-33650500D02*
X6575000Y-33690500D01*
X6555000Y-33670500D02*
X6595000Y-33670500D01*
D12*
X6893872Y-33561984D02*
X6912920Y-33561984D01*
X6912920Y-33561984D02*
X6931967Y-33571508D01*
X6931967Y-33571508D02*
X6941491Y-33581031D01*
X6941491Y-33581031D02*
X6951015Y-33600079D01*
X6951015Y-33600079D02*
X6960539Y-33638174D01*
X6960539Y-33638174D02*
X6960539Y-33685793D01*
X6960539Y-33685793D02*
X6951015Y-33723889D01*
X6951015Y-33723889D02*
X6941491Y-33742936D01*
X6941491Y-33742936D02*
X6931967Y-33752460D01*
X6931967Y-33752460D02*
X6912920Y-33761984D01*
X6912920Y-33761984D02*
X6893872Y-33761984D01*
X6893872Y-33761984D02*
X6874824Y-33752460D01*
X6874824Y-33752460D02*
X6865301Y-33742936D01*
X6865301Y-33742936D02*
X6855777Y-33723889D01*
X6855777Y-33723889D02*
X6846253Y-33685793D01*
X6846253Y-33685793D02*
X6846253Y-33638174D01*
X6846253Y-33638174D02*
X6855777Y-33600079D01*
X6855777Y-33600079D02*
X6865301Y-33581031D01*
X6865301Y-33581031D02*
X6874824Y-33571508D01*
X6874824Y-33571508D02*
X6893872Y-33561984D01*
X7046253Y-33742936D02*
X7055777Y-33752460D01*
X7055777Y-33752460D02*
X7046253Y-33761984D01*
X7046253Y-33761984D02*
X7036729Y-33752460D01*
X7036729Y-33752460D02*
X7046253Y-33742936D01*
X7046253Y-33742936D02*
X7046253Y-33761984D01*
X7227205Y-33628650D02*
X7227205Y-33761984D01*
X7179586Y-33552460D02*
X7131967Y-33695317D01*
X7131967Y-33695317D02*
X7255777Y-33695317D01*
X7370062Y-33561984D02*
X7389110Y-33561984D01*
X7389110Y-33561984D02*
X7408158Y-33571508D01*
X7408158Y-33571508D02*
X7417682Y-33581031D01*
X7417682Y-33581031D02*
X7427205Y-33600079D01*
X7427205Y-33600079D02*
X7436729Y-33638174D01*
X7436729Y-33638174D02*
X7436729Y-33685793D01*
X7436729Y-33685793D02*
X7427205Y-33723889D01*
X7427205Y-33723889D02*
X7417682Y-33742936D01*
X7417682Y-33742936D02*
X7408158Y-33752460D01*
X7408158Y-33752460D02*
X7389110Y-33761984D01*
X7389110Y-33761984D02*
X7370062Y-33761984D01*
X7370062Y-33761984D02*
X7351015Y-33752460D01*
X7351015Y-33752460D02*
X7341491Y-33742936D01*
X7341491Y-33742936D02*
X7331967Y-33723889D01*
X7331967Y-33723889D02*
X7322443Y-33685793D01*
X7322443Y-33685793D02*
X7322443Y-33638174D01*
X7322443Y-33638174D02*
X7331967Y-33600079D01*
X7331967Y-33600079D02*
X7341491Y-33581031D01*
X7341491Y-33581031D02*
X7351015Y-33571508D01*
X7351015Y-33571508D02*
X7370062Y-33561984D01*
X7560539Y-33561984D02*
X7579586Y-33561984D01*
X7579586Y-33561984D02*
X7598634Y-33571508D01*
X7598634Y-33571508D02*
X7608158Y-33581031D01*
X7608158Y-33581031D02*
X7617682Y-33600079D01*
X7617682Y-33600079D02*
X7627205Y-33638174D01*
X7627205Y-33638174D02*
X7627205Y-33685793D01*
X7627205Y-33685793D02*
X7617682Y-33723889D01*
X7617682Y-33723889D02*
X7608158Y-33742936D01*
X7608158Y-33742936D02*
X7598634Y-33752460D01*
X7598634Y-33752460D02*
X7579586Y-33761984D01*
X7579586Y-33761984D02*
X7560539Y-33761984D01*
X7560539Y-33761984D02*
X7541491Y-33752460D01*
X7541491Y-33752460D02*
X7531967Y-33742936D01*
X7531967Y-33742936D02*
X7522443Y-33723889D01*
X7522443Y-33723889D02*
X7512920Y-33685793D01*
X7512920Y-33685793D02*
X7512920Y-33638174D01*
X7512920Y-33638174D02*
X7522443Y-33600079D01*
X7522443Y-33600079D02*
X7531967Y-33581031D01*
X7531967Y-33581031D02*
X7541491Y-33571508D01*
X7541491Y-33571508D02*
X7560539Y-33561984D01*
X7712920Y-33761984D02*
X7712920Y-33628650D01*
X7712920Y-33647698D02*
X7722443Y-33638174D01*
X7722443Y-33638174D02*
X7741491Y-33628650D01*
X7741491Y-33628650D02*
X7770063Y-33628650D01*
X7770063Y-33628650D02*
X7789110Y-33638174D01*
X7789110Y-33638174D02*
X7798634Y-33657222D01*
X7798634Y-33657222D02*
X7798634Y-33761984D01*
X7798634Y-33657222D02*
X7808158Y-33638174D01*
X7808158Y-33638174D02*
X7827205Y-33628650D01*
X7827205Y-33628650D02*
X7855777Y-33628650D01*
X7855777Y-33628650D02*
X7874824Y-33638174D01*
X7874824Y-33638174D02*
X7884348Y-33657222D01*
X7884348Y-33657222D02*
X7884348Y-33761984D01*
X7979586Y-33761984D02*
X7979586Y-33628650D01*
X7979586Y-33647698D02*
X7989110Y-33638174D01*
X7989110Y-33638174D02*
X8008158Y-33628650D01*
X8008158Y-33628650D02*
X8036729Y-33628650D01*
X8036729Y-33628650D02*
X8055777Y-33638174D01*
X8055777Y-33638174D02*
X8065301Y-33657222D01*
X8065301Y-33657222D02*
X8065301Y-33761984D01*
X8065301Y-33657222D02*
X8074824Y-33638174D01*
X8074824Y-33638174D02*
X8093872Y-33628650D01*
X8093872Y-33628650D02*
X8122443Y-33628650D01*
X8122443Y-33628650D02*
X8141491Y-33638174D01*
X8141491Y-33638174D02*
X8151015Y-33657222D01*
X8151015Y-33657222D02*
X8151015Y-33761984D01*
X8541491Y-33552460D02*
X8370063Y-33809603D01*
X8798634Y-33561984D02*
X8817682Y-33561984D01*
X8817682Y-33561984D02*
X8836729Y-33571508D01*
X8836729Y-33571508D02*
X8846253Y-33581031D01*
X8846253Y-33581031D02*
X8855777Y-33600079D01*
X8855777Y-33600079D02*
X8865301Y-33638174D01*
X8865301Y-33638174D02*
X8865301Y-33685793D01*
X8865301Y-33685793D02*
X8855777Y-33723889D01*
X8855777Y-33723889D02*
X8846253Y-33742936D01*
X8846253Y-33742936D02*
X8836729Y-33752460D01*
X8836729Y-33752460D02*
X8817682Y-33761984D01*
X8817682Y-33761984D02*
X8798634Y-33761984D01*
X8798634Y-33761984D02*
X8779587Y-33752460D01*
X8779587Y-33752460D02*
X8770063Y-33742936D01*
X8770063Y-33742936D02*
X8760539Y-33723889D01*
X8760539Y-33723889D02*
X8751015Y-33685793D01*
X8751015Y-33685793D02*
X8751015Y-33638174D01*
X8751015Y-33638174D02*
X8760539Y-33600079D01*
X8760539Y-33600079D02*
X8770063Y-33581031D01*
X8770063Y-33581031D02*
X8779587Y-33571508D01*
X8779587Y-33571508D02*
X8798634Y-33561984D01*
X8951015Y-33742936D02*
X8960539Y-33752460D01*
X8960539Y-33752460D02*
X8951015Y-33761984D01*
X8951015Y-33761984D02*
X8941491Y-33752460D01*
X8941491Y-33752460D02*
X8951015Y-33742936D01*
X8951015Y-33742936D02*
X8951015Y-33761984D01*
X9084348Y-33561984D02*
X9103396Y-33561984D01*
X9103396Y-33561984D02*
X9122444Y-33571508D01*
X9122444Y-33571508D02*
X9131968Y-33581031D01*
X9131968Y-33581031D02*
X9141491Y-33600079D01*
X9141491Y-33600079D02*
X9151015Y-33638174D01*
X9151015Y-33638174D02*
X9151015Y-33685793D01*
X9151015Y-33685793D02*
X9141491Y-33723889D01*
X9141491Y-33723889D02*
X9131968Y-33742936D01*
X9131968Y-33742936D02*
X9122444Y-33752460D01*
X9122444Y-33752460D02*
X9103396Y-33761984D01*
X9103396Y-33761984D02*
X9084348Y-33761984D01*
X9084348Y-33761984D02*
X9065301Y-33752460D01*
X9065301Y-33752460D02*
X9055777Y-33742936D01*
X9055777Y-33742936D02*
X9046253Y-33723889D01*
X9046253Y-33723889D02*
X9036729Y-33685793D01*
X9036729Y-33685793D02*
X9036729Y-33638174D01*
X9036729Y-33638174D02*
X9046253Y-33600079D01*
X9046253Y-33600079D02*
X9055777Y-33581031D01*
X9055777Y-33581031D02*
X9065301Y-33571508D01*
X9065301Y-33571508D02*
X9084348Y-33561984D01*
X9341491Y-33761984D02*
X9227206Y-33761984D01*
X9284348Y-33761984D02*
X9284348Y-33561984D01*
X9284348Y-33561984D02*
X9265301Y-33590555D01*
X9265301Y-33590555D02*
X9246253Y-33609603D01*
X9246253Y-33609603D02*
X9227206Y-33619127D01*
X9522444Y-33561984D02*
X9427206Y-33561984D01*
X9427206Y-33561984D02*
X9417682Y-33657222D01*
X9417682Y-33657222D02*
X9427206Y-33647698D01*
X9427206Y-33647698D02*
X9446253Y-33638174D01*
X9446253Y-33638174D02*
X9493872Y-33638174D01*
X9493872Y-33638174D02*
X9512920Y-33647698D01*
X9512920Y-33647698D02*
X9522444Y-33657222D01*
X9522444Y-33657222D02*
X9531968Y-33676270D01*
X9531968Y-33676270D02*
X9531968Y-33723889D01*
X9531968Y-33723889D02*
X9522444Y-33742936D01*
X9522444Y-33742936D02*
X9512920Y-33752460D01*
X9512920Y-33752460D02*
X9493872Y-33761984D01*
X9493872Y-33761984D02*
X9446253Y-33761984D01*
X9446253Y-33761984D02*
X9427206Y-33752460D01*
X9427206Y-33752460D02*
X9417682Y-33742936D01*
X9598634Y-33561984D02*
X9731968Y-33561984D01*
X9731968Y-33561984D02*
X9646253Y-33761984D01*
X9798634Y-33561984D02*
X9798634Y-33600079D01*
X9874825Y-33561984D02*
X9874825Y-33600079D01*
X10170063Y-33838174D02*
X10160539Y-33828650D01*
X10160539Y-33828650D02*
X10141491Y-33800079D01*
X10141491Y-33800079D02*
X10131968Y-33781031D01*
X10131968Y-33781031D02*
X10122444Y-33752460D01*
X10122444Y-33752460D02*
X10112920Y-33704841D01*
X10112920Y-33704841D02*
X10112920Y-33666746D01*
X10112920Y-33666746D02*
X10122444Y-33619127D01*
X10122444Y-33619127D02*
X10131968Y-33590555D01*
X10131968Y-33590555D02*
X10141491Y-33571508D01*
X10141491Y-33571508D02*
X10160539Y-33542936D01*
X10160539Y-33542936D02*
X10170063Y-33533412D01*
X10351015Y-33761984D02*
X10236730Y-33761984D01*
X10293872Y-33761984D02*
X10293872Y-33561984D01*
X10293872Y-33561984D02*
X10274825Y-33590555D01*
X10274825Y-33590555D02*
X10255777Y-33609603D01*
X10255777Y-33609603D02*
X10236730Y-33619127D01*
X10427206Y-33581031D02*
X10436730Y-33571508D01*
X10436730Y-33571508D02*
X10455777Y-33561984D01*
X10455777Y-33561984D02*
X10503396Y-33561984D01*
X10503396Y-33561984D02*
X10522444Y-33571508D01*
X10522444Y-33571508D02*
X10531968Y-33581031D01*
X10531968Y-33581031D02*
X10541491Y-33600079D01*
X10541491Y-33600079D02*
X10541491Y-33619127D01*
X10541491Y-33619127D02*
X10531968Y-33647698D01*
X10531968Y-33647698D02*
X10417682Y-33761984D01*
X10417682Y-33761984D02*
X10541491Y-33761984D01*
X10722444Y-33561984D02*
X10627206Y-33561984D01*
X10627206Y-33561984D02*
X10617682Y-33657222D01*
X10617682Y-33657222D02*
X10627206Y-33647698D01*
X10627206Y-33647698D02*
X10646253Y-33638174D01*
X10646253Y-33638174D02*
X10693872Y-33638174D01*
X10693872Y-33638174D02*
X10712920Y-33647698D01*
X10712920Y-33647698D02*
X10722444Y-33657222D01*
X10722444Y-33657222D02*
X10731968Y-33676270D01*
X10731968Y-33676270D02*
X10731968Y-33723889D01*
X10731968Y-33723889D02*
X10722444Y-33742936D01*
X10722444Y-33742936D02*
X10712920Y-33752460D01*
X10712920Y-33752460D02*
X10693872Y-33761984D01*
X10693872Y-33761984D02*
X10646253Y-33761984D01*
X10646253Y-33761984D02*
X10627206Y-33752460D01*
X10627206Y-33752460D02*
X10617682Y-33742936D01*
X10970063Y-33761984D02*
X10970063Y-33561984D01*
X11055777Y-33761984D02*
X11055777Y-33657222D01*
X11055777Y-33657222D02*
X11046253Y-33638174D01*
X11046253Y-33638174D02*
X11027206Y-33628650D01*
X11027206Y-33628650D02*
X10998634Y-33628650D01*
X10998634Y-33628650D02*
X10979587Y-33638174D01*
X10979587Y-33638174D02*
X10970063Y-33647698D01*
X11179587Y-33761984D02*
X11160539Y-33752460D01*
X11160539Y-33752460D02*
X11151015Y-33742936D01*
X11151015Y-33742936D02*
X11141492Y-33723889D01*
X11141492Y-33723889D02*
X11141492Y-33666746D01*
X11141492Y-33666746D02*
X11151015Y-33647698D01*
X11151015Y-33647698D02*
X11160539Y-33638174D01*
X11160539Y-33638174D02*
X11179587Y-33628650D01*
X11179587Y-33628650D02*
X11208158Y-33628650D01*
X11208158Y-33628650D02*
X11227206Y-33638174D01*
X11227206Y-33638174D02*
X11236730Y-33647698D01*
X11236730Y-33647698D02*
X11246253Y-33666746D01*
X11246253Y-33666746D02*
X11246253Y-33723889D01*
X11246253Y-33723889D02*
X11236730Y-33742936D01*
X11236730Y-33742936D02*
X11227206Y-33752460D01*
X11227206Y-33752460D02*
X11208158Y-33761984D01*
X11208158Y-33761984D02*
X11179587Y-33761984D01*
X11360539Y-33761984D02*
X11341491Y-33752460D01*
X11341491Y-33752460D02*
X11331968Y-33733412D01*
X11331968Y-33733412D02*
X11331968Y-33561984D01*
X11512920Y-33752460D02*
X11493872Y-33761984D01*
X11493872Y-33761984D02*
X11455777Y-33761984D01*
X11455777Y-33761984D02*
X11436730Y-33752460D01*
X11436730Y-33752460D02*
X11427206Y-33733412D01*
X11427206Y-33733412D02*
X11427206Y-33657222D01*
X11427206Y-33657222D02*
X11436730Y-33638174D01*
X11436730Y-33638174D02*
X11455777Y-33628650D01*
X11455777Y-33628650D02*
X11493872Y-33628650D01*
X11493872Y-33628650D02*
X11512920Y-33638174D01*
X11512920Y-33638174D02*
X11522444Y-33657222D01*
X11522444Y-33657222D02*
X11522444Y-33676270D01*
X11522444Y-33676270D02*
X11427206Y-33695317D01*
X11598634Y-33752460D02*
X11617682Y-33761984D01*
X11617682Y-33761984D02*
X11655777Y-33761984D01*
X11655777Y-33761984D02*
X11674825Y-33752460D01*
X11674825Y-33752460D02*
X11684349Y-33733412D01*
X11684349Y-33733412D02*
X11684349Y-33723889D01*
X11684349Y-33723889D02*
X11674825Y-33704841D01*
X11674825Y-33704841D02*
X11655777Y-33695317D01*
X11655777Y-33695317D02*
X11627206Y-33695317D01*
X11627206Y-33695317D02*
X11608158Y-33685793D01*
X11608158Y-33685793D02*
X11598634Y-33666746D01*
X11598634Y-33666746D02*
X11598634Y-33657222D01*
X11598634Y-33657222D02*
X11608158Y-33638174D01*
X11608158Y-33638174D02*
X11627206Y-33628650D01*
X11627206Y-33628650D02*
X11655777Y-33628650D01*
X11655777Y-33628650D02*
X11674825Y-33638174D01*
X11751015Y-33838174D02*
X11760539Y-33828650D01*
X11760539Y-33828650D02*
X11779587Y-33800079D01*
X11779587Y-33800079D02*
X11789111Y-33781031D01*
X11789111Y-33781031D02*
X11798634Y-33752460D01*
X11798634Y-33752460D02*
X11808158Y-33704841D01*
X11808158Y-33704841D02*
X11808158Y-33666746D01*
X11808158Y-33666746D02*
X11798634Y-33619127D01*
X11798634Y-33619127D02*
X11789111Y-33590555D01*
X11789111Y-33590555D02*
X11779587Y-33571508D01*
X11779587Y-33571508D02*
X11760539Y-33542936D01*
X11760539Y-33542936D02*
X11751015Y-33533412D01*
D11*
X6582699Y-33964199D02*
X6582699Y-33904801D01*
X6523301Y-33904801D01*
X6523301Y-33964199D01*
X6582699Y-33964199D01*
D12*
X6893872Y-33825984D02*
X6912920Y-33825984D01*
X6912920Y-33825984D02*
X6931967Y-33835508D01*
X6931967Y-33835508D02*
X6941491Y-33845031D01*
X6941491Y-33845031D02*
X6951015Y-33864079D01*
X6951015Y-33864079D02*
X6960539Y-33902174D01*
X6960539Y-33902174D02*
X6960539Y-33949793D01*
X6960539Y-33949793D02*
X6951015Y-33987889D01*
X6951015Y-33987889D02*
X6941491Y-34006936D01*
X6941491Y-34006936D02*
X6931967Y-34016460D01*
X6931967Y-34016460D02*
X6912920Y-34025984D01*
X6912920Y-34025984D02*
X6893872Y-34025984D01*
X6893872Y-34025984D02*
X6874824Y-34016460D01*
X6874824Y-34016460D02*
X6865301Y-34006936D01*
X6865301Y-34006936D02*
X6855777Y-33987889D01*
X6855777Y-33987889D02*
X6846253Y-33949793D01*
X6846253Y-33949793D02*
X6846253Y-33902174D01*
X6846253Y-33902174D02*
X6855777Y-33864079D01*
X6855777Y-33864079D02*
X6865301Y-33845031D01*
X6865301Y-33845031D02*
X6874824Y-33835508D01*
X6874824Y-33835508D02*
X6893872Y-33825984D01*
X7046253Y-34006936D02*
X7055777Y-34016460D01*
X7055777Y-34016460D02*
X7046253Y-34025984D01*
X7046253Y-34025984D02*
X7036729Y-34016460D01*
X7036729Y-34016460D02*
X7046253Y-34006936D01*
X7046253Y-34006936D02*
X7046253Y-34025984D01*
X7170062Y-33911698D02*
X7151015Y-33902174D01*
X7151015Y-33902174D02*
X7141491Y-33892650D01*
X7141491Y-33892650D02*
X7131967Y-33873603D01*
X7131967Y-33873603D02*
X7131967Y-33864079D01*
X7131967Y-33864079D02*
X7141491Y-33845031D01*
X7141491Y-33845031D02*
X7151015Y-33835508D01*
X7151015Y-33835508D02*
X7170062Y-33825984D01*
X7170062Y-33825984D02*
X7208158Y-33825984D01*
X7208158Y-33825984D02*
X7227205Y-33835508D01*
X7227205Y-33835508D02*
X7236729Y-33845031D01*
X7236729Y-33845031D02*
X7246253Y-33864079D01*
X7246253Y-33864079D02*
X7246253Y-33873603D01*
X7246253Y-33873603D02*
X7236729Y-33892650D01*
X7236729Y-33892650D02*
X7227205Y-33902174D01*
X7227205Y-33902174D02*
X7208158Y-33911698D01*
X7208158Y-33911698D02*
X7170062Y-33911698D01*
X7170062Y-33911698D02*
X7151015Y-33921222D01*
X7151015Y-33921222D02*
X7141491Y-33930746D01*
X7141491Y-33930746D02*
X7131967Y-33949793D01*
X7131967Y-33949793D02*
X7131967Y-33987889D01*
X7131967Y-33987889D02*
X7141491Y-34006936D01*
X7141491Y-34006936D02*
X7151015Y-34016460D01*
X7151015Y-34016460D02*
X7170062Y-34025984D01*
X7170062Y-34025984D02*
X7208158Y-34025984D01*
X7208158Y-34025984D02*
X7227205Y-34016460D01*
X7227205Y-34016460D02*
X7236729Y-34006936D01*
X7236729Y-34006936D02*
X7246253Y-33987889D01*
X7246253Y-33987889D02*
X7246253Y-33949793D01*
X7246253Y-33949793D02*
X7236729Y-33930746D01*
X7236729Y-33930746D02*
X7227205Y-33921222D01*
X7227205Y-33921222D02*
X7208158Y-33911698D01*
X7417682Y-33892650D02*
X7417682Y-34025984D01*
X7370062Y-33816460D02*
X7322443Y-33959317D01*
X7322443Y-33959317D02*
X7446253Y-33959317D01*
X7560539Y-33825984D02*
X7579586Y-33825984D01*
X7579586Y-33825984D02*
X7598634Y-33835508D01*
X7598634Y-33835508D02*
X7608158Y-33845031D01*
X7608158Y-33845031D02*
X7617682Y-33864079D01*
X7617682Y-33864079D02*
X7627205Y-33902174D01*
X7627205Y-33902174D02*
X7627205Y-33949793D01*
X7627205Y-33949793D02*
X7617682Y-33987889D01*
X7617682Y-33987889D02*
X7608158Y-34006936D01*
X7608158Y-34006936D02*
X7598634Y-34016460D01*
X7598634Y-34016460D02*
X7579586Y-34025984D01*
X7579586Y-34025984D02*
X7560539Y-34025984D01*
X7560539Y-34025984D02*
X7541491Y-34016460D01*
X7541491Y-34016460D02*
X7531967Y-34006936D01*
X7531967Y-34006936D02*
X7522443Y-33987889D01*
X7522443Y-33987889D02*
X7512920Y-33949793D01*
X7512920Y-33949793D02*
X7512920Y-33902174D01*
X7512920Y-33902174D02*
X7522443Y-33864079D01*
X7522443Y-33864079D02*
X7531967Y-33845031D01*
X7531967Y-33845031D02*
X7541491Y-33835508D01*
X7541491Y-33835508D02*
X7560539Y-33825984D01*
X7712920Y-34025984D02*
X7712920Y-33892650D01*
X7712920Y-33911698D02*
X7722443Y-33902174D01*
X7722443Y-33902174D02*
X7741491Y-33892650D01*
X7741491Y-33892650D02*
X7770063Y-33892650D01*
X7770063Y-33892650D02*
X7789110Y-33902174D01*
X7789110Y-33902174D02*
X7798634Y-33921222D01*
X7798634Y-33921222D02*
X7798634Y-34025984D01*
X7798634Y-33921222D02*
X7808158Y-33902174D01*
X7808158Y-33902174D02*
X7827205Y-33892650D01*
X7827205Y-33892650D02*
X7855777Y-33892650D01*
X7855777Y-33892650D02*
X7874824Y-33902174D01*
X7874824Y-33902174D02*
X7884348Y-33921222D01*
X7884348Y-33921222D02*
X7884348Y-34025984D01*
X7979586Y-34025984D02*
X7979586Y-33892650D01*
X7979586Y-33911698D02*
X7989110Y-33902174D01*
X7989110Y-33902174D02*
X8008158Y-33892650D01*
X8008158Y-33892650D02*
X8036729Y-33892650D01*
X8036729Y-33892650D02*
X8055777Y-33902174D01*
X8055777Y-33902174D02*
X8065301Y-33921222D01*
X8065301Y-33921222D02*
X8065301Y-34025984D01*
X8065301Y-33921222D02*
X8074824Y-33902174D01*
X8074824Y-33902174D02*
X8093872Y-33892650D01*
X8093872Y-33892650D02*
X8122443Y-33892650D01*
X8122443Y-33892650D02*
X8141491Y-33902174D01*
X8141491Y-33902174D02*
X8151015Y-33921222D01*
X8151015Y-33921222D02*
X8151015Y-34025984D01*
X8541491Y-33816460D02*
X8370063Y-34073603D01*
X8798634Y-33825984D02*
X8817682Y-33825984D01*
X8817682Y-33825984D02*
X8836729Y-33835508D01*
X8836729Y-33835508D02*
X8846253Y-33845031D01*
X8846253Y-33845031D02*
X8855777Y-33864079D01*
X8855777Y-33864079D02*
X8865301Y-33902174D01*
X8865301Y-33902174D02*
X8865301Y-33949793D01*
X8865301Y-33949793D02*
X8855777Y-33987889D01*
X8855777Y-33987889D02*
X8846253Y-34006936D01*
X8846253Y-34006936D02*
X8836729Y-34016460D01*
X8836729Y-34016460D02*
X8817682Y-34025984D01*
X8817682Y-34025984D02*
X8798634Y-34025984D01*
X8798634Y-34025984D02*
X8779587Y-34016460D01*
X8779587Y-34016460D02*
X8770063Y-34006936D01*
X8770063Y-34006936D02*
X8760539Y-33987889D01*
X8760539Y-33987889D02*
X8751015Y-33949793D01*
X8751015Y-33949793D02*
X8751015Y-33902174D01*
X8751015Y-33902174D02*
X8760539Y-33864079D01*
X8760539Y-33864079D02*
X8770063Y-33845031D01*
X8770063Y-33845031D02*
X8779587Y-33835508D01*
X8779587Y-33835508D02*
X8798634Y-33825984D01*
X8951015Y-34006936D02*
X8960539Y-34016460D01*
X8960539Y-34016460D02*
X8951015Y-34025984D01*
X8951015Y-34025984D02*
X8941491Y-34016460D01*
X8941491Y-34016460D02*
X8951015Y-34006936D01*
X8951015Y-34006936D02*
X8951015Y-34025984D01*
X9084348Y-33825984D02*
X9103396Y-33825984D01*
X9103396Y-33825984D02*
X9122444Y-33835508D01*
X9122444Y-33835508D02*
X9131968Y-33845031D01*
X9131968Y-33845031D02*
X9141491Y-33864079D01*
X9141491Y-33864079D02*
X9151015Y-33902174D01*
X9151015Y-33902174D02*
X9151015Y-33949793D01*
X9151015Y-33949793D02*
X9141491Y-33987889D01*
X9141491Y-33987889D02*
X9131968Y-34006936D01*
X9131968Y-34006936D02*
X9122444Y-34016460D01*
X9122444Y-34016460D02*
X9103396Y-34025984D01*
X9103396Y-34025984D02*
X9084348Y-34025984D01*
X9084348Y-34025984D02*
X9065301Y-34016460D01*
X9065301Y-34016460D02*
X9055777Y-34006936D01*
X9055777Y-34006936D02*
X9046253Y-33987889D01*
X9046253Y-33987889D02*
X9036729Y-33949793D01*
X9036729Y-33949793D02*
X9036729Y-33902174D01*
X9036729Y-33902174D02*
X9046253Y-33864079D01*
X9046253Y-33864079D02*
X9055777Y-33845031D01*
X9055777Y-33845031D02*
X9065301Y-33835508D01*
X9065301Y-33835508D02*
X9084348Y-33825984D01*
X9217682Y-33825984D02*
X9341491Y-33825984D01*
X9341491Y-33825984D02*
X9274825Y-33902174D01*
X9274825Y-33902174D02*
X9303396Y-33902174D01*
X9303396Y-33902174D02*
X9322444Y-33911698D01*
X9322444Y-33911698D02*
X9331968Y-33921222D01*
X9331968Y-33921222D02*
X9341491Y-33940270D01*
X9341491Y-33940270D02*
X9341491Y-33987889D01*
X9341491Y-33987889D02*
X9331968Y-34006936D01*
X9331968Y-34006936D02*
X9322444Y-34016460D01*
X9322444Y-34016460D02*
X9303396Y-34025984D01*
X9303396Y-34025984D02*
X9246253Y-34025984D01*
X9246253Y-34025984D02*
X9227206Y-34016460D01*
X9227206Y-34016460D02*
X9217682Y-34006936D01*
X9408158Y-33825984D02*
X9531968Y-33825984D01*
X9531968Y-33825984D02*
X9465301Y-33902174D01*
X9465301Y-33902174D02*
X9493872Y-33902174D01*
X9493872Y-33902174D02*
X9512920Y-33911698D01*
X9512920Y-33911698D02*
X9522444Y-33921222D01*
X9522444Y-33921222D02*
X9531968Y-33940270D01*
X9531968Y-33940270D02*
X9531968Y-33987889D01*
X9531968Y-33987889D02*
X9522444Y-34006936D01*
X9522444Y-34006936D02*
X9512920Y-34016460D01*
X9512920Y-34016460D02*
X9493872Y-34025984D01*
X9493872Y-34025984D02*
X9436729Y-34025984D01*
X9436729Y-34025984D02*
X9417682Y-34016460D01*
X9417682Y-34016460D02*
X9408158Y-34006936D01*
X9722444Y-34025984D02*
X9608158Y-34025984D01*
X9665301Y-34025984D02*
X9665301Y-33825984D01*
X9665301Y-33825984D02*
X9646253Y-33854555D01*
X9646253Y-33854555D02*
X9627206Y-33873603D01*
X9627206Y-33873603D02*
X9608158Y-33883127D01*
X9798634Y-33825984D02*
X9798634Y-33864079D01*
X9874825Y-33825984D02*
X9874825Y-33864079D01*
X10170063Y-34102174D02*
X10160539Y-34092650D01*
X10160539Y-34092650D02*
X10141491Y-34064079D01*
X10141491Y-34064079D02*
X10131968Y-34045031D01*
X10131968Y-34045031D02*
X10122444Y-34016460D01*
X10122444Y-34016460D02*
X10112920Y-33968841D01*
X10112920Y-33968841D02*
X10112920Y-33930746D01*
X10112920Y-33930746D02*
X10122444Y-33883127D01*
X10122444Y-33883127D02*
X10131968Y-33854555D01*
X10131968Y-33854555D02*
X10141491Y-33835508D01*
X10141491Y-33835508D02*
X10160539Y-33806936D01*
X10160539Y-33806936D02*
X10170063Y-33797412D01*
X10331968Y-33892650D02*
X10331968Y-34025984D01*
X10284349Y-33816460D02*
X10236730Y-33959317D01*
X10236730Y-33959317D02*
X10360539Y-33959317D01*
X10589111Y-34025984D02*
X10589111Y-33825984D01*
X10674825Y-34025984D02*
X10674825Y-33921222D01*
X10674825Y-33921222D02*
X10665301Y-33902174D01*
X10665301Y-33902174D02*
X10646253Y-33892650D01*
X10646253Y-33892650D02*
X10617682Y-33892650D01*
X10617682Y-33892650D02*
X10598634Y-33902174D01*
X10598634Y-33902174D02*
X10589111Y-33911698D01*
X10798634Y-34025984D02*
X10779587Y-34016460D01*
X10779587Y-34016460D02*
X10770063Y-34006936D01*
X10770063Y-34006936D02*
X10760539Y-33987889D01*
X10760539Y-33987889D02*
X10760539Y-33930746D01*
X10760539Y-33930746D02*
X10770063Y-33911698D01*
X10770063Y-33911698D02*
X10779587Y-33902174D01*
X10779587Y-33902174D02*
X10798634Y-33892650D01*
X10798634Y-33892650D02*
X10827206Y-33892650D01*
X10827206Y-33892650D02*
X10846253Y-33902174D01*
X10846253Y-33902174D02*
X10855777Y-33911698D01*
X10855777Y-33911698D02*
X10865301Y-33930746D01*
X10865301Y-33930746D02*
X10865301Y-33987889D01*
X10865301Y-33987889D02*
X10855777Y-34006936D01*
X10855777Y-34006936D02*
X10846253Y-34016460D01*
X10846253Y-34016460D02*
X10827206Y-34025984D01*
X10827206Y-34025984D02*
X10798634Y-34025984D01*
X10979587Y-34025984D02*
X10960539Y-34016460D01*
X10960539Y-34016460D02*
X10951015Y-33997412D01*
X10951015Y-33997412D02*
X10951015Y-33825984D01*
X11131968Y-34016460D02*
X11112920Y-34025984D01*
X11112920Y-34025984D02*
X11074825Y-34025984D01*
X11074825Y-34025984D02*
X11055777Y-34016460D01*
X11055777Y-34016460D02*
X11046253Y-33997412D01*
X11046253Y-33997412D02*
X11046253Y-33921222D01*
X11046253Y-33921222D02*
X11055777Y-33902174D01*
X11055777Y-33902174D02*
X11074825Y-33892650D01*
X11074825Y-33892650D02*
X11112920Y-33892650D01*
X11112920Y-33892650D02*
X11131968Y-33902174D01*
X11131968Y-33902174D02*
X11141492Y-33921222D01*
X11141492Y-33921222D02*
X11141492Y-33940270D01*
X11141492Y-33940270D02*
X11046253Y-33959317D01*
X11217682Y-34016460D02*
X11236730Y-34025984D01*
X11236730Y-34025984D02*
X11274825Y-34025984D01*
X11274825Y-34025984D02*
X11293872Y-34016460D01*
X11293872Y-34016460D02*
X11303396Y-33997412D01*
X11303396Y-33997412D02*
X11303396Y-33987889D01*
X11303396Y-33987889D02*
X11293872Y-33968841D01*
X11293872Y-33968841D02*
X11274825Y-33959317D01*
X11274825Y-33959317D02*
X11246253Y-33959317D01*
X11246253Y-33959317D02*
X11227206Y-33949793D01*
X11227206Y-33949793D02*
X11217682Y-33930746D01*
X11217682Y-33930746D02*
X11217682Y-33921222D01*
X11217682Y-33921222D02*
X11227206Y-33902174D01*
X11227206Y-33902174D02*
X11246253Y-33892650D01*
X11246253Y-33892650D02*
X11274825Y-33892650D01*
X11274825Y-33892650D02*
X11293872Y-33902174D01*
X11370063Y-34102174D02*
X11379587Y-34092650D01*
X11379587Y-34092650D02*
X11398634Y-34064079D01*
X11398634Y-34064079D02*
X11408158Y-34045031D01*
X11408158Y-34045031D02*
X11417682Y-34016460D01*
X11417682Y-34016460D02*
X11427206Y-33968841D01*
X11427206Y-33968841D02*
X11427206Y-33930746D01*
X11427206Y-33930746D02*
X11417682Y-33883127D01*
X11417682Y-33883127D02*
X11408158Y-33854555D01*
X11408158Y-33854555D02*
X11398634Y-33835508D01*
X11398634Y-33835508D02*
X11379587Y-33806936D01*
X11379587Y-33806936D02*
X11370063Y-33797412D01*
D13*
X6520000Y-34273500D02*
X6595000Y-34198500D01*
X6520000Y-34123500D01*
X6445000Y-34198500D01*
X6520000Y-34273500D01*
D12*
X6960539Y-34289984D02*
X6846253Y-34289984D01*
X6903396Y-34289984D02*
X6903396Y-34089984D01*
X6903396Y-34089984D02*
X6884348Y-34118555D01*
X6884348Y-34118555D02*
X6865301Y-34137603D01*
X6865301Y-34137603D02*
X6846253Y-34147127D01*
X7046253Y-34270936D02*
X7055777Y-34280460D01*
X7055777Y-34280460D02*
X7046253Y-34289984D01*
X7046253Y-34289984D02*
X7036729Y-34280460D01*
X7036729Y-34280460D02*
X7046253Y-34270936D01*
X7046253Y-34270936D02*
X7046253Y-34289984D01*
X7236729Y-34089984D02*
X7141491Y-34089984D01*
X7141491Y-34089984D02*
X7131967Y-34185222D01*
X7131967Y-34185222D02*
X7141491Y-34175698D01*
X7141491Y-34175698D02*
X7160539Y-34166174D01*
X7160539Y-34166174D02*
X7208158Y-34166174D01*
X7208158Y-34166174D02*
X7227205Y-34175698D01*
X7227205Y-34175698D02*
X7236729Y-34185222D01*
X7236729Y-34185222D02*
X7246253Y-34204270D01*
X7246253Y-34204270D02*
X7246253Y-34251889D01*
X7246253Y-34251889D02*
X7236729Y-34270936D01*
X7236729Y-34270936D02*
X7227205Y-34280460D01*
X7227205Y-34280460D02*
X7208158Y-34289984D01*
X7208158Y-34289984D02*
X7160539Y-34289984D01*
X7160539Y-34289984D02*
X7141491Y-34280460D01*
X7141491Y-34280460D02*
X7131967Y-34270936D01*
X7370062Y-34089984D02*
X7389110Y-34089984D01*
X7389110Y-34089984D02*
X7408158Y-34099508D01*
X7408158Y-34099508D02*
X7417682Y-34109031D01*
X7417682Y-34109031D02*
X7427205Y-34128079D01*
X7427205Y-34128079D02*
X7436729Y-34166174D01*
X7436729Y-34166174D02*
X7436729Y-34213793D01*
X7436729Y-34213793D02*
X7427205Y-34251889D01*
X7427205Y-34251889D02*
X7417682Y-34270936D01*
X7417682Y-34270936D02*
X7408158Y-34280460D01*
X7408158Y-34280460D02*
X7389110Y-34289984D01*
X7389110Y-34289984D02*
X7370062Y-34289984D01*
X7370062Y-34289984D02*
X7351015Y-34280460D01*
X7351015Y-34280460D02*
X7341491Y-34270936D01*
X7341491Y-34270936D02*
X7331967Y-34251889D01*
X7331967Y-34251889D02*
X7322443Y-34213793D01*
X7322443Y-34213793D02*
X7322443Y-34166174D01*
X7322443Y-34166174D02*
X7331967Y-34128079D01*
X7331967Y-34128079D02*
X7341491Y-34109031D01*
X7341491Y-34109031D02*
X7351015Y-34099508D01*
X7351015Y-34099508D02*
X7370062Y-34089984D01*
X7560539Y-34089984D02*
X7579586Y-34089984D01*
X7579586Y-34089984D02*
X7598634Y-34099508D01*
X7598634Y-34099508D02*
X7608158Y-34109031D01*
X7608158Y-34109031D02*
X7617682Y-34128079D01*
X7617682Y-34128079D02*
X7627205Y-34166174D01*
X7627205Y-34166174D02*
X7627205Y-34213793D01*
X7627205Y-34213793D02*
X7617682Y-34251889D01*
X7617682Y-34251889D02*
X7608158Y-34270936D01*
X7608158Y-34270936D02*
X7598634Y-34280460D01*
X7598634Y-34280460D02*
X7579586Y-34289984D01*
X7579586Y-34289984D02*
X7560539Y-34289984D01*
X7560539Y-34289984D02*
X7541491Y-34280460D01*
X7541491Y-34280460D02*
X7531967Y-34270936D01*
X7531967Y-34270936D02*
X7522443Y-34251889D01*
X7522443Y-34251889D02*
X7512920Y-34213793D01*
X7512920Y-34213793D02*
X7512920Y-34166174D01*
X7512920Y-34166174D02*
X7522443Y-34128079D01*
X7522443Y-34128079D02*
X7531967Y-34109031D01*
X7531967Y-34109031D02*
X7541491Y-34099508D01*
X7541491Y-34099508D02*
X7560539Y-34089984D01*
X7712920Y-34289984D02*
X7712920Y-34156650D01*
X7712920Y-34175698D02*
X7722443Y-34166174D01*
X7722443Y-34166174D02*
X7741491Y-34156650D01*
X7741491Y-34156650D02*
X7770063Y-34156650D01*
X7770063Y-34156650D02*
X7789110Y-34166174D01*
X7789110Y-34166174D02*
X7798634Y-34185222D01*
X7798634Y-34185222D02*
X7798634Y-34289984D01*
X7798634Y-34185222D02*
X7808158Y-34166174D01*
X7808158Y-34166174D02*
X7827205Y-34156650D01*
X7827205Y-34156650D02*
X7855777Y-34156650D01*
X7855777Y-34156650D02*
X7874824Y-34166174D01*
X7874824Y-34166174D02*
X7884348Y-34185222D01*
X7884348Y-34185222D02*
X7884348Y-34289984D01*
X7979586Y-34289984D02*
X7979586Y-34156650D01*
X7979586Y-34175698D02*
X7989110Y-34166174D01*
X7989110Y-34166174D02*
X8008158Y-34156650D01*
X8008158Y-34156650D02*
X8036729Y-34156650D01*
X8036729Y-34156650D02*
X8055777Y-34166174D01*
X8055777Y-34166174D02*
X8065301Y-34185222D01*
X8065301Y-34185222D02*
X8065301Y-34289984D01*
X8065301Y-34185222D02*
X8074824Y-34166174D01*
X8074824Y-34166174D02*
X8093872Y-34156650D01*
X8093872Y-34156650D02*
X8122443Y-34156650D01*
X8122443Y-34156650D02*
X8141491Y-34166174D01*
X8141491Y-34166174D02*
X8151015Y-34185222D01*
X8151015Y-34185222D02*
X8151015Y-34289984D01*
X8541491Y-34080460D02*
X8370063Y-34337603D01*
X8798634Y-34089984D02*
X8817682Y-34089984D01*
X8817682Y-34089984D02*
X8836729Y-34099508D01*
X8836729Y-34099508D02*
X8846253Y-34109031D01*
X8846253Y-34109031D02*
X8855777Y-34128079D01*
X8855777Y-34128079D02*
X8865301Y-34166174D01*
X8865301Y-34166174D02*
X8865301Y-34213793D01*
X8865301Y-34213793D02*
X8855777Y-34251889D01*
X8855777Y-34251889D02*
X8846253Y-34270936D01*
X8846253Y-34270936D02*
X8836729Y-34280460D01*
X8836729Y-34280460D02*
X8817682Y-34289984D01*
X8817682Y-34289984D02*
X8798634Y-34289984D01*
X8798634Y-34289984D02*
X8779587Y-34280460D01*
X8779587Y-34280460D02*
X8770063Y-34270936D01*
X8770063Y-34270936D02*
X8760539Y-34251889D01*
X8760539Y-34251889D02*
X8751015Y-34213793D01*
X8751015Y-34213793D02*
X8751015Y-34166174D01*
X8751015Y-34166174D02*
X8760539Y-34128079D01*
X8760539Y-34128079D02*
X8770063Y-34109031D01*
X8770063Y-34109031D02*
X8779587Y-34099508D01*
X8779587Y-34099508D02*
X8798634Y-34089984D01*
X8951015Y-34270936D02*
X8960539Y-34280460D01*
X8960539Y-34280460D02*
X8951015Y-34289984D01*
X8951015Y-34289984D02*
X8941491Y-34280460D01*
X8941491Y-34280460D02*
X8951015Y-34270936D01*
X8951015Y-34270936D02*
X8951015Y-34289984D01*
X9084348Y-34089984D02*
X9103396Y-34089984D01*
X9103396Y-34089984D02*
X9122444Y-34099508D01*
X9122444Y-34099508D02*
X9131968Y-34109031D01*
X9131968Y-34109031D02*
X9141491Y-34128079D01*
X9141491Y-34128079D02*
X9151015Y-34166174D01*
X9151015Y-34166174D02*
X9151015Y-34213793D01*
X9151015Y-34213793D02*
X9141491Y-34251889D01*
X9141491Y-34251889D02*
X9131968Y-34270936D01*
X9131968Y-34270936D02*
X9122444Y-34280460D01*
X9122444Y-34280460D02*
X9103396Y-34289984D01*
X9103396Y-34289984D02*
X9084348Y-34289984D01*
X9084348Y-34289984D02*
X9065301Y-34280460D01*
X9065301Y-34280460D02*
X9055777Y-34270936D01*
X9055777Y-34270936D02*
X9046253Y-34251889D01*
X9046253Y-34251889D02*
X9036729Y-34213793D01*
X9036729Y-34213793D02*
X9036729Y-34166174D01*
X9036729Y-34166174D02*
X9046253Y-34128079D01*
X9046253Y-34128079D02*
X9055777Y-34109031D01*
X9055777Y-34109031D02*
X9065301Y-34099508D01*
X9065301Y-34099508D02*
X9084348Y-34089984D01*
X9331968Y-34089984D02*
X9236729Y-34089984D01*
X9236729Y-34089984D02*
X9227206Y-34185222D01*
X9227206Y-34185222D02*
X9236729Y-34175698D01*
X9236729Y-34175698D02*
X9255777Y-34166174D01*
X9255777Y-34166174D02*
X9303396Y-34166174D01*
X9303396Y-34166174D02*
X9322444Y-34175698D01*
X9322444Y-34175698D02*
X9331968Y-34185222D01*
X9331968Y-34185222D02*
X9341491Y-34204270D01*
X9341491Y-34204270D02*
X9341491Y-34251889D01*
X9341491Y-34251889D02*
X9331968Y-34270936D01*
X9331968Y-34270936D02*
X9322444Y-34280460D01*
X9322444Y-34280460D02*
X9303396Y-34289984D01*
X9303396Y-34289984D02*
X9255777Y-34289984D01*
X9255777Y-34289984D02*
X9236729Y-34280460D01*
X9236729Y-34280460D02*
X9227206Y-34270936D01*
X9436729Y-34289984D02*
X9474825Y-34289984D01*
X9474825Y-34289984D02*
X9493872Y-34280460D01*
X9493872Y-34280460D02*
X9503396Y-34270936D01*
X9503396Y-34270936D02*
X9522444Y-34242365D01*
X9522444Y-34242365D02*
X9531968Y-34204270D01*
X9531968Y-34204270D02*
X9531968Y-34128079D01*
X9531968Y-34128079D02*
X9522444Y-34109031D01*
X9522444Y-34109031D02*
X9512920Y-34099508D01*
X9512920Y-34099508D02*
X9493872Y-34089984D01*
X9493872Y-34089984D02*
X9455777Y-34089984D01*
X9455777Y-34089984D02*
X9436729Y-34099508D01*
X9436729Y-34099508D02*
X9427206Y-34109031D01*
X9427206Y-34109031D02*
X9417682Y-34128079D01*
X9417682Y-34128079D02*
X9417682Y-34175698D01*
X9417682Y-34175698D02*
X9427206Y-34194746D01*
X9427206Y-34194746D02*
X9436729Y-34204270D01*
X9436729Y-34204270D02*
X9455777Y-34213793D01*
X9455777Y-34213793D02*
X9493872Y-34213793D01*
X9493872Y-34213793D02*
X9512920Y-34204270D01*
X9512920Y-34204270D02*
X9522444Y-34194746D01*
X9522444Y-34194746D02*
X9531968Y-34175698D01*
X9722444Y-34289984D02*
X9608158Y-34289984D01*
X9665301Y-34289984D02*
X9665301Y-34089984D01*
X9665301Y-34089984D02*
X9646253Y-34118555D01*
X9646253Y-34118555D02*
X9627206Y-34137603D01*
X9627206Y-34137603D02*
X9608158Y-34147127D01*
X9798634Y-34089984D02*
X9798634Y-34128079D01*
X9874825Y-34089984D02*
X9874825Y-34128079D01*
X10170063Y-34366174D02*
X10160539Y-34356650D01*
X10160539Y-34356650D02*
X10141491Y-34328079D01*
X10141491Y-34328079D02*
X10131968Y-34309031D01*
X10131968Y-34309031D02*
X10122444Y-34280460D01*
X10122444Y-34280460D02*
X10112920Y-34232841D01*
X10112920Y-34232841D02*
X10112920Y-34194746D01*
X10112920Y-34194746D02*
X10122444Y-34147127D01*
X10122444Y-34147127D02*
X10131968Y-34118555D01*
X10131968Y-34118555D02*
X10141491Y-34099508D01*
X10141491Y-34099508D02*
X10160539Y-34070936D01*
X10160539Y-34070936D02*
X10170063Y-34061412D01*
X10351015Y-34289984D02*
X10236730Y-34289984D01*
X10293872Y-34289984D02*
X10293872Y-34089984D01*
X10293872Y-34089984D02*
X10274825Y-34118555D01*
X10274825Y-34118555D02*
X10255777Y-34137603D01*
X10255777Y-34137603D02*
X10236730Y-34147127D01*
X10589111Y-34289984D02*
X10589111Y-34089984D01*
X10674825Y-34289984D02*
X10674825Y-34185222D01*
X10674825Y-34185222D02*
X10665301Y-34166174D01*
X10665301Y-34166174D02*
X10646253Y-34156650D01*
X10646253Y-34156650D02*
X10617682Y-34156650D01*
X10617682Y-34156650D02*
X10598634Y-34166174D01*
X10598634Y-34166174D02*
X10589111Y-34175698D01*
X10798634Y-34289984D02*
X10779587Y-34280460D01*
X10779587Y-34280460D02*
X10770063Y-34270936D01*
X10770063Y-34270936D02*
X10760539Y-34251889D01*
X10760539Y-34251889D02*
X10760539Y-34194746D01*
X10760539Y-34194746D02*
X10770063Y-34175698D01*
X10770063Y-34175698D02*
X10779587Y-34166174D01*
X10779587Y-34166174D02*
X10798634Y-34156650D01*
X10798634Y-34156650D02*
X10827206Y-34156650D01*
X10827206Y-34156650D02*
X10846253Y-34166174D01*
X10846253Y-34166174D02*
X10855777Y-34175698D01*
X10855777Y-34175698D02*
X10865301Y-34194746D01*
X10865301Y-34194746D02*
X10865301Y-34251889D01*
X10865301Y-34251889D02*
X10855777Y-34270936D01*
X10855777Y-34270936D02*
X10846253Y-34280460D01*
X10846253Y-34280460D02*
X10827206Y-34289984D01*
X10827206Y-34289984D02*
X10798634Y-34289984D01*
X10979587Y-34289984D02*
X10960539Y-34280460D01*
X10960539Y-34280460D02*
X10951015Y-34261412D01*
X10951015Y-34261412D02*
X10951015Y-34089984D01*
X11131968Y-34280460D02*
X11112920Y-34289984D01*
X11112920Y-34289984D02*
X11074825Y-34289984D01*
X11074825Y-34289984D02*
X11055777Y-34280460D01*
X11055777Y-34280460D02*
X11046253Y-34261412D01*
X11046253Y-34261412D02*
X11046253Y-34185222D01*
X11046253Y-34185222D02*
X11055777Y-34166174D01*
X11055777Y-34166174D02*
X11074825Y-34156650D01*
X11074825Y-34156650D02*
X11112920Y-34156650D01*
X11112920Y-34156650D02*
X11131968Y-34166174D01*
X11131968Y-34166174D02*
X11141492Y-34185222D01*
X11141492Y-34185222D02*
X11141492Y-34204270D01*
X11141492Y-34204270D02*
X11046253Y-34223317D01*
X11208158Y-34366174D02*
X11217682Y-34356650D01*
X11217682Y-34356650D02*
X11236730Y-34328079D01*
X11236730Y-34328079D02*
X11246253Y-34309031D01*
X11246253Y-34309031D02*
X11255777Y-34280460D01*
X11255777Y-34280460D02*
X11265301Y-34232841D01*
X11265301Y-34232841D02*
X11265301Y-34194746D01*
X11265301Y-34194746D02*
X11255777Y-34147127D01*
X11255777Y-34147127D02*
X11246253Y-34118555D01*
X11246253Y-34118555D02*
X11236730Y-34099508D01*
X11236730Y-34099508D02*
X11217682Y-34070936D01*
X11217682Y-34070936D02*
X11208158Y-34061412D01*
D14*
X6425000Y-34383500D02*
X6595000Y-34553500D01*
X6595000Y-34383500D02*
X6425000Y-34553500D01*
X6595000Y-34468500D02*
G75*
G02*
X6425000Y-34468500I-85000J0D01*
G01*
X6425000Y-34468500D02*
G75*
G02*
X6595000Y-34468500I85000J0D01*
G01*
D12*
X6960539Y-34559984D02*
X6846253Y-34559984D01*
X6903396Y-34559984D02*
X6903396Y-34359984D01*
X6903396Y-34359984D02*
X6884348Y-34388555D01*
X6884348Y-34388555D02*
X6865301Y-34407603D01*
X6865301Y-34407603D02*
X6846253Y-34417127D01*
X7046253Y-34540936D02*
X7055777Y-34550460D01*
X7055777Y-34550460D02*
X7046253Y-34559984D01*
X7046253Y-34559984D02*
X7036729Y-34550460D01*
X7036729Y-34550460D02*
X7046253Y-34540936D01*
X7046253Y-34540936D02*
X7046253Y-34559984D01*
X7122443Y-34359984D02*
X7255777Y-34359984D01*
X7255777Y-34359984D02*
X7170062Y-34559984D01*
X7370062Y-34359984D02*
X7389110Y-34359984D01*
X7389110Y-34359984D02*
X7408158Y-34369508D01*
X7408158Y-34369508D02*
X7417682Y-34379031D01*
X7417682Y-34379031D02*
X7427205Y-34398079D01*
X7427205Y-34398079D02*
X7436729Y-34436174D01*
X7436729Y-34436174D02*
X7436729Y-34483793D01*
X7436729Y-34483793D02*
X7427205Y-34521889D01*
X7427205Y-34521889D02*
X7417682Y-34540936D01*
X7417682Y-34540936D02*
X7408158Y-34550460D01*
X7408158Y-34550460D02*
X7389110Y-34559984D01*
X7389110Y-34559984D02*
X7370062Y-34559984D01*
X7370062Y-34559984D02*
X7351015Y-34550460D01*
X7351015Y-34550460D02*
X7341491Y-34540936D01*
X7341491Y-34540936D02*
X7331967Y-34521889D01*
X7331967Y-34521889D02*
X7322443Y-34483793D01*
X7322443Y-34483793D02*
X7322443Y-34436174D01*
X7322443Y-34436174D02*
X7331967Y-34398079D01*
X7331967Y-34398079D02*
X7341491Y-34379031D01*
X7341491Y-34379031D02*
X7351015Y-34369508D01*
X7351015Y-34369508D02*
X7370062Y-34359984D01*
X7560539Y-34359984D02*
X7579586Y-34359984D01*
X7579586Y-34359984D02*
X7598634Y-34369508D01*
X7598634Y-34369508D02*
X7608158Y-34379031D01*
X7608158Y-34379031D02*
X7617682Y-34398079D01*
X7617682Y-34398079D02*
X7627205Y-34436174D01*
X7627205Y-34436174D02*
X7627205Y-34483793D01*
X7627205Y-34483793D02*
X7617682Y-34521889D01*
X7617682Y-34521889D02*
X7608158Y-34540936D01*
X7608158Y-34540936D02*
X7598634Y-34550460D01*
X7598634Y-34550460D02*
X7579586Y-34559984D01*
X7579586Y-34559984D02*
X7560539Y-34559984D01*
X7560539Y-34559984D02*
X7541491Y-34550460D01*
X7541491Y-34550460D02*
X7531967Y-34540936D01*
X7531967Y-34540936D02*
X7522443Y-34521889D01*
X7522443Y-34521889D02*
X7512920Y-34483793D01*
X7512920Y-34483793D02*
X7512920Y-34436174D01*
X7512920Y-34436174D02*
X7522443Y-34398079D01*
X7522443Y-34398079D02*
X7531967Y-34379031D01*
X7531967Y-34379031D02*
X7541491Y-34369508D01*
X7541491Y-34369508D02*
X7560539Y-34359984D01*
X7712920Y-34559984D02*
X7712920Y-34426650D01*
X7712920Y-34445698D02*
X7722443Y-34436174D01*
X7722443Y-34436174D02*
X7741491Y-34426650D01*
X7741491Y-34426650D02*
X7770063Y-34426650D01*
X7770063Y-34426650D02*
X7789110Y-34436174D01*
X7789110Y-34436174D02*
X7798634Y-34455222D01*
X7798634Y-34455222D02*
X7798634Y-34559984D01*
X7798634Y-34455222D02*
X7808158Y-34436174D01*
X7808158Y-34436174D02*
X7827205Y-34426650D01*
X7827205Y-34426650D02*
X7855777Y-34426650D01*
X7855777Y-34426650D02*
X7874824Y-34436174D01*
X7874824Y-34436174D02*
X7884348Y-34455222D01*
X7884348Y-34455222D02*
X7884348Y-34559984D01*
X7979586Y-34559984D02*
X7979586Y-34426650D01*
X7979586Y-34445698D02*
X7989110Y-34436174D01*
X7989110Y-34436174D02*
X8008158Y-34426650D01*
X8008158Y-34426650D02*
X8036729Y-34426650D01*
X8036729Y-34426650D02*
X8055777Y-34436174D01*
X8055777Y-34436174D02*
X8065301Y-34455222D01*
X8065301Y-34455222D02*
X8065301Y-34559984D01*
X8065301Y-34455222D02*
X8074824Y-34436174D01*
X8074824Y-34436174D02*
X8093872Y-34426650D01*
X8093872Y-34426650D02*
X8122443Y-34426650D01*
X8122443Y-34426650D02*
X8141491Y-34436174D01*
X8141491Y-34436174D02*
X8151015Y-34455222D01*
X8151015Y-34455222D02*
X8151015Y-34559984D01*
X8541491Y-34350460D02*
X8370063Y-34607603D01*
X8798634Y-34359984D02*
X8817682Y-34359984D01*
X8817682Y-34359984D02*
X8836729Y-34369508D01*
X8836729Y-34369508D02*
X8846253Y-34379031D01*
X8846253Y-34379031D02*
X8855777Y-34398079D01*
X8855777Y-34398079D02*
X8865301Y-34436174D01*
X8865301Y-34436174D02*
X8865301Y-34483793D01*
X8865301Y-34483793D02*
X8855777Y-34521889D01*
X8855777Y-34521889D02*
X8846253Y-34540936D01*
X8846253Y-34540936D02*
X8836729Y-34550460D01*
X8836729Y-34550460D02*
X8817682Y-34559984D01*
X8817682Y-34559984D02*
X8798634Y-34559984D01*
X8798634Y-34559984D02*
X8779587Y-34550460D01*
X8779587Y-34550460D02*
X8770063Y-34540936D01*
X8770063Y-34540936D02*
X8760539Y-34521889D01*
X8760539Y-34521889D02*
X8751015Y-34483793D01*
X8751015Y-34483793D02*
X8751015Y-34436174D01*
X8751015Y-34436174D02*
X8760539Y-34398079D01*
X8760539Y-34398079D02*
X8770063Y-34379031D01*
X8770063Y-34379031D02*
X8779587Y-34369508D01*
X8779587Y-34369508D02*
X8798634Y-34359984D01*
X8951015Y-34540936D02*
X8960539Y-34550460D01*
X8960539Y-34550460D02*
X8951015Y-34559984D01*
X8951015Y-34559984D02*
X8941491Y-34550460D01*
X8941491Y-34550460D02*
X8951015Y-34540936D01*
X8951015Y-34540936D02*
X8951015Y-34559984D01*
X9084348Y-34359984D02*
X9103396Y-34359984D01*
X9103396Y-34359984D02*
X9122444Y-34369508D01*
X9122444Y-34369508D02*
X9131968Y-34379031D01*
X9131968Y-34379031D02*
X9141491Y-34398079D01*
X9141491Y-34398079D02*
X9151015Y-34436174D01*
X9151015Y-34436174D02*
X9151015Y-34483793D01*
X9151015Y-34483793D02*
X9141491Y-34521889D01*
X9141491Y-34521889D02*
X9131968Y-34540936D01*
X9131968Y-34540936D02*
X9122444Y-34550460D01*
X9122444Y-34550460D02*
X9103396Y-34559984D01*
X9103396Y-34559984D02*
X9084348Y-34559984D01*
X9084348Y-34559984D02*
X9065301Y-34550460D01*
X9065301Y-34550460D02*
X9055777Y-34540936D01*
X9055777Y-34540936D02*
X9046253Y-34521889D01*
X9046253Y-34521889D02*
X9036729Y-34483793D01*
X9036729Y-34483793D02*
X9036729Y-34436174D01*
X9036729Y-34436174D02*
X9046253Y-34398079D01*
X9046253Y-34398079D02*
X9055777Y-34379031D01*
X9055777Y-34379031D02*
X9065301Y-34369508D01*
X9065301Y-34369508D02*
X9084348Y-34359984D01*
X9322444Y-34359984D02*
X9284348Y-34359984D01*
X9284348Y-34359984D02*
X9265301Y-34369508D01*
X9265301Y-34369508D02*
X9255777Y-34379031D01*
X9255777Y-34379031D02*
X9236729Y-34407603D01*
X9236729Y-34407603D02*
X9227206Y-34445698D01*
X9227206Y-34445698D02*
X9227206Y-34521889D01*
X9227206Y-34521889D02*
X9236729Y-34540936D01*
X9236729Y-34540936D02*
X9246253Y-34550460D01*
X9246253Y-34550460D02*
X9265301Y-34559984D01*
X9265301Y-34559984D02*
X9303396Y-34559984D01*
X9303396Y-34559984D02*
X9322444Y-34550460D01*
X9322444Y-34550460D02*
X9331968Y-34540936D01*
X9331968Y-34540936D02*
X9341491Y-34521889D01*
X9341491Y-34521889D02*
X9341491Y-34474270D01*
X9341491Y-34474270D02*
X9331968Y-34455222D01*
X9331968Y-34455222D02*
X9322444Y-34445698D01*
X9322444Y-34445698D02*
X9303396Y-34436174D01*
X9303396Y-34436174D02*
X9265301Y-34436174D01*
X9265301Y-34436174D02*
X9246253Y-34445698D01*
X9246253Y-34445698D02*
X9236729Y-34455222D01*
X9236729Y-34455222D02*
X9227206Y-34474270D01*
X9512920Y-34359984D02*
X9474825Y-34359984D01*
X9474825Y-34359984D02*
X9455777Y-34369508D01*
X9455777Y-34369508D02*
X9446253Y-34379031D01*
X9446253Y-34379031D02*
X9427206Y-34407603D01*
X9427206Y-34407603D02*
X9417682Y-34445698D01*
X9417682Y-34445698D02*
X9417682Y-34521889D01*
X9417682Y-34521889D02*
X9427206Y-34540936D01*
X9427206Y-34540936D02*
X9436729Y-34550460D01*
X9436729Y-34550460D02*
X9455777Y-34559984D01*
X9455777Y-34559984D02*
X9493872Y-34559984D01*
X9493872Y-34559984D02*
X9512920Y-34550460D01*
X9512920Y-34550460D02*
X9522444Y-34540936D01*
X9522444Y-34540936D02*
X9531968Y-34521889D01*
X9531968Y-34521889D02*
X9531968Y-34474270D01*
X9531968Y-34474270D02*
X9522444Y-34455222D01*
X9522444Y-34455222D02*
X9512920Y-34445698D01*
X9512920Y-34445698D02*
X9493872Y-34436174D01*
X9493872Y-34436174D02*
X9455777Y-34436174D01*
X9455777Y-34436174D02*
X9436729Y-34445698D01*
X9436729Y-34445698D02*
X9427206Y-34455222D01*
X9427206Y-34455222D02*
X9417682Y-34474270D01*
X9627206Y-34559984D02*
X9665301Y-34559984D01*
X9665301Y-34559984D02*
X9684349Y-34550460D01*
X9684349Y-34550460D02*
X9693872Y-34540936D01*
X9693872Y-34540936D02*
X9712920Y-34512365D01*
X9712920Y-34512365D02*
X9722444Y-34474270D01*
X9722444Y-34474270D02*
X9722444Y-34398079D01*
X9722444Y-34398079D02*
X9712920Y-34379031D01*
X9712920Y-34379031D02*
X9703396Y-34369508D01*
X9703396Y-34369508D02*
X9684349Y-34359984D01*
X9684349Y-34359984D02*
X9646253Y-34359984D01*
X9646253Y-34359984D02*
X9627206Y-34369508D01*
X9627206Y-34369508D02*
X9617682Y-34379031D01*
X9617682Y-34379031D02*
X9608158Y-34398079D01*
X9608158Y-34398079D02*
X9608158Y-34445698D01*
X9608158Y-34445698D02*
X9617682Y-34464746D01*
X9617682Y-34464746D02*
X9627206Y-34474270D01*
X9627206Y-34474270D02*
X9646253Y-34483793D01*
X9646253Y-34483793D02*
X9684349Y-34483793D01*
X9684349Y-34483793D02*
X9703396Y-34474270D01*
X9703396Y-34474270D02*
X9712920Y-34464746D01*
X9712920Y-34464746D02*
X9722444Y-34445698D01*
X9798634Y-34359984D02*
X9798634Y-34398079D01*
X9874825Y-34359984D02*
X9874825Y-34398079D01*
X10170063Y-34636174D02*
X10160539Y-34626650D01*
X10160539Y-34626650D02*
X10141491Y-34598079D01*
X10141491Y-34598079D02*
X10131968Y-34579031D01*
X10131968Y-34579031D02*
X10122444Y-34550460D01*
X10122444Y-34550460D02*
X10112920Y-34502841D01*
X10112920Y-34502841D02*
X10112920Y-34464746D01*
X10112920Y-34464746D02*
X10122444Y-34417127D01*
X10122444Y-34417127D02*
X10131968Y-34388555D01*
X10131968Y-34388555D02*
X10141491Y-34369508D01*
X10141491Y-34369508D02*
X10160539Y-34340936D01*
X10160539Y-34340936D02*
X10170063Y-34331412D01*
X10331968Y-34426650D02*
X10331968Y-34559984D01*
X10284349Y-34350460D02*
X10236730Y-34493317D01*
X10236730Y-34493317D02*
X10360539Y-34493317D01*
X10589111Y-34559984D02*
X10589111Y-34359984D01*
X10674825Y-34559984D02*
X10674825Y-34455222D01*
X10674825Y-34455222D02*
X10665301Y-34436174D01*
X10665301Y-34436174D02*
X10646253Y-34426650D01*
X10646253Y-34426650D02*
X10617682Y-34426650D01*
X10617682Y-34426650D02*
X10598634Y-34436174D01*
X10598634Y-34436174D02*
X10589111Y-34445698D01*
X10798634Y-34559984D02*
X10779587Y-34550460D01*
X10779587Y-34550460D02*
X10770063Y-34540936D01*
X10770063Y-34540936D02*
X10760539Y-34521889D01*
X10760539Y-34521889D02*
X10760539Y-34464746D01*
X10760539Y-34464746D02*
X10770063Y-34445698D01*
X10770063Y-34445698D02*
X10779587Y-34436174D01*
X10779587Y-34436174D02*
X10798634Y-34426650D01*
X10798634Y-34426650D02*
X10827206Y-34426650D01*
X10827206Y-34426650D02*
X10846253Y-34436174D01*
X10846253Y-34436174D02*
X10855777Y-34445698D01*
X10855777Y-34445698D02*
X10865301Y-34464746D01*
X10865301Y-34464746D02*
X10865301Y-34521889D01*
X10865301Y-34521889D02*
X10855777Y-34540936D01*
X10855777Y-34540936D02*
X10846253Y-34550460D01*
X10846253Y-34550460D02*
X10827206Y-34559984D01*
X10827206Y-34559984D02*
X10798634Y-34559984D01*
X10979587Y-34559984D02*
X10960539Y-34550460D01*
X10960539Y-34550460D02*
X10951015Y-34531412D01*
X10951015Y-34531412D02*
X10951015Y-34359984D01*
X11131968Y-34550460D02*
X11112920Y-34559984D01*
X11112920Y-34559984D02*
X11074825Y-34559984D01*
X11074825Y-34559984D02*
X11055777Y-34550460D01*
X11055777Y-34550460D02*
X11046253Y-34531412D01*
X11046253Y-34531412D02*
X11046253Y-34455222D01*
X11046253Y-34455222D02*
X11055777Y-34436174D01*
X11055777Y-34436174D02*
X11074825Y-34426650D01*
X11074825Y-34426650D02*
X11112920Y-34426650D01*
X11112920Y-34426650D02*
X11131968Y-34436174D01*
X11131968Y-34436174D02*
X11141492Y-34455222D01*
X11141492Y-34455222D02*
X11141492Y-34474270D01*
X11141492Y-34474270D02*
X11046253Y-34493317D01*
X11217682Y-34550460D02*
X11236730Y-34559984D01*
X11236730Y-34559984D02*
X11274825Y-34559984D01*
X11274825Y-34559984D02*
X11293872Y-34550460D01*
X11293872Y-34550460D02*
X11303396Y-34531412D01*
X11303396Y-34531412D02*
X11303396Y-34521889D01*
X11303396Y-34521889D02*
X11293872Y-34502841D01*
X11293872Y-34502841D02*
X11274825Y-34493317D01*
X11274825Y-34493317D02*
X11246253Y-34493317D01*
X11246253Y-34493317D02*
X11227206Y-34483793D01*
X11227206Y-34483793D02*
X11217682Y-34464746D01*
X11217682Y-34464746D02*
X11217682Y-34455222D01*
X11217682Y-34455222D02*
X11227206Y-34436174D01*
X11227206Y-34436174D02*
X11246253Y-34426650D01*
X11246253Y-34426650D02*
X11274825Y-34426650D01*
X11274825Y-34426650D02*
X11293872Y-34436174D01*
X11370063Y-34636174D02*
X11379587Y-34626650D01*
X11379587Y-34626650D02*
X11398634Y-34598079D01*
X11398634Y-34598079D02*
X11408158Y-34579031D01*
X11408158Y-34579031D02*
X11417682Y-34550460D01*
X11417682Y-34550460D02*
X11427206Y-34502841D01*
X11427206Y-34502841D02*
X11427206Y-34464746D01*
X11427206Y-34464746D02*
X11417682Y-34417127D01*
X11417682Y-34417127D02*
X11408158Y-34388555D01*
X11408158Y-34388555D02*
X11398634Y-34369508D01*
X11398634Y-34369508D02*
X11379587Y-34340936D01*
X11379587Y-34340936D02*
X11370063Y-34331412D01*
M02*
