M48
; DRILL file {KiCad 8.0.2-1} date 2024-10-14T18:52:39-0400
; FORMAT={-:-/ absolute / inch / decimal}
; #@! TF.CreationDate,2024-10-14T18:52:39-04:00
; #@! TF.GenerationSoftware,Kicad,Pcbnew,8.0.2-1
; #@! TF.FileFunction,Plated,1,4,PTH
FMAT,2
INCH
; #@! TA.AperFunction,Plated,PTH,ViaDrill
T1C0.0118
; #@! TA.AperFunction,Plated,PTH,ViaDrill
T2C0.0157
; #@! TA.AperFunction,Plated,PTH,ComponentDrill
T3C0.0157
; #@! TA.AperFunction,Plated,PTH,ComponentDrill
T4C0.0331
; #@! TA.AperFunction,Plated,PTH,ComponentDrill
T5C0.0591
; #@! TA.AperFunction,Plated,PTH,ComponentDrill
T6C0.0669
%
G90
G05
T1
X2.6378Y-1.7165
X2.6378Y-1.748
X2.6378Y-1.7795
X2.6378Y-1.811
X2.6378Y-1.8425
X2.6378Y-1.874
X2.6378Y-2.0315
X2.6378Y-2.063
X2.6378Y-2.0945
X2.6378Y-2.126
X2.6378Y-2.1575
X2.6378Y-2.189
X2.6378Y-2.2205
X2.6378Y-6.4409
X2.6378Y-6.4724
X2.6378Y-6.5039
X2.6378Y-6.5354
X2.6378Y-6.5669
X2.6378Y-6.5984
X2.6378Y-6.7559
X2.6378Y-6.7874
X2.6378Y-6.8189
X2.6378Y-6.8504
X2.6378Y-6.8819
X2.6378Y-6.9134
X2.6378Y-6.9449
X2.9843Y-7.0236
X3.0Y-2.3071
X3.0Y-6.9449
X3.0236Y-1.8268
X3.0236Y-1.9764
X3.0472Y-2.2598
X3.0472Y-6.937
X3.0573Y-7.1396
X3.0709Y-2.1417
X3.0787Y-1.9606
X3.0787Y-2.5669
X3.0787Y-6.8583
X3.0866Y-6.5591
X3.1181Y-1.7874
X3.1181Y-1.8583
X3.1181Y-6.5039
X3.1241Y-6.8129
X3.126Y-6.4409
X3.126Y-6.9606
X3.1263Y-6.6769
X3.1417Y-2.1732
X3.1449Y-2.4535
X3.1569Y-2.2998
X3.1575Y-6.7795
X3.1969Y-1.7165
T2
X2.8976Y-12.3307
T3
X4.0295Y-2.7323
X4.0295Y-2.7913
X4.0295Y-4.6535
X4.0295Y-4.7126
X4.0295Y-6.5748
X4.0295Y-6.6339
X4.0295Y-8.4961
X4.0295Y-8.5551
X4.0295Y-10.4173
X4.0295Y-10.4764
X4.0512Y-2.8386
X4.0512Y-4.7598
X4.0512Y-6.6811
X4.0512Y-8.6024
X4.0512Y-10.5236
X4.0591Y-2.689
X4.0591Y-4.6102
X4.0591Y-6.5315
X4.0591Y-8.4528
X4.0591Y-10.374
X4.2205Y-2.689
X4.2205Y-4.6102
X4.2205Y-6.5315
X4.2205Y-8.4528
X4.2205Y-10.374
X5.9508Y-2.7323
X5.9508Y-2.7913
X5.9508Y-4.6535
X5.9508Y-4.7126
X5.9508Y-6.5748
X5.9508Y-6.6339
X5.9508Y-8.4961
X5.9508Y-8.5551
X5.9508Y-10.4173
X5.9508Y-10.4764
X5.9724Y-2.8386
X5.9724Y-4.7598
X5.9724Y-6.6811
X5.9724Y-8.6024
X5.9724Y-10.5236
X5.9803Y-2.689
X5.9803Y-4.6102
X5.9803Y-6.5315
X5.9803Y-8.4528
X5.9803Y-10.374
X6.1417Y-2.689
X6.1417Y-4.6102
X6.1417Y-6.5315
X6.1417Y-8.4528
X6.1417Y-10.374
X7.872Y-2.7323
X7.872Y-2.7913
X7.872Y-4.6535
X7.872Y-4.7126
X7.872Y-6.5748
X7.872Y-6.6339
X7.872Y-8.4961
X7.872Y-8.5551
X7.872Y-10.4173
X7.872Y-10.4764
X7.8937Y-2.8386
X7.8937Y-4.7598
X7.8937Y-6.6811
X7.8937Y-8.6024
X7.8937Y-10.5236
X7.9016Y-2.689
X7.9016Y-4.6102
X7.9016Y-6.5315
X7.9016Y-8.4528
X7.9016Y-10.374
X8.063Y-2.689
X8.063Y-4.6102
X8.063Y-6.5315
X8.063Y-8.4528
X8.063Y-10.374
X9.7933Y-2.7323
X9.7933Y-2.7913
X9.7933Y-4.6535
X9.7933Y-4.7126
X9.7933Y-6.5748
X9.7933Y-6.6339
X9.7933Y-8.4961
X9.7933Y-8.5551
X9.7933Y-10.4173
X9.7933Y-10.4764
X9.815Y-2.8386
X9.815Y-4.7598
X9.815Y-6.6811
X9.815Y-8.6024
X9.815Y-10.5236
X9.8228Y-2.689
X9.8228Y-4.6102
X9.8228Y-6.5315
X9.8228Y-8.4528
X9.8228Y-10.374
X9.9843Y-2.689
X9.9843Y-4.6102
X9.9843Y-6.5315
X9.9843Y-8.4528
X9.9843Y-10.374
X11.7146Y-2.7323
X11.7146Y-2.7913
X11.7146Y-4.6535
X11.7146Y-4.7126
X11.7146Y-6.5748
X11.7146Y-6.6339
X11.7146Y-8.4961
X11.7146Y-8.5551
X11.7146Y-10.4173
X11.7146Y-10.4764
X11.7362Y-2.8386
X11.7362Y-4.7598
X11.7362Y-6.6811
X11.7362Y-8.6024
X11.7362Y-10.5236
X11.7441Y-2.689
X11.7441Y-4.6102
X11.7441Y-6.5315
X11.7441Y-8.4528
X11.7441Y-10.374
X11.9055Y-2.689
X11.9055Y-4.6102
X11.9055Y-6.5315
X11.9055Y-8.4528
X11.9055Y-10.374
T4
X2.7559Y-1.5947
X2.7559Y-2.3423
X2.7559Y-6.3191
X2.7559Y-7.0667
T5
X2.7756Y-12.5984
T6
X2.6756Y-12.4984
X2.6756Y-12.6984
X2.8756Y-12.4984
X2.8756Y-12.6984
M30
