%TF.GenerationSoftware,KiCad,Pcbnew,8.0.2-1*%
%TF.CreationDate,2024-10-14T18:52:49-04:00*%
%TF.ProjectId,OddLayers_1.3mm_SiPM,4f64644c-6179-4657-9273-5f312e336d6d,rev?*%
%TF.SameCoordinates,Original*%
%TF.FileFunction,Paste,Bot*%
%TF.FilePolarity,Positive*%
%FSLAX46Y46*%
G04 Gerber Fmt 4.6, Leading zero omitted, Abs format (unit mm)*
G04 Created by KiCad (PCBNEW 8.0.2-1) date 2024-10-14 18:52:49*
%MOMM*%
%LPD*%
G01*
G04 APERTURE LIST*
%ADD10C,0.010000*%
%ADD11R,1.200000X0.500000*%
G04 APERTURE END LIST*
D10*
%TO.C,REF\u002A\u002A*%
X70046000Y-39236000D02*
X71269000Y-40459000D01*
X71269000Y-40494000D01*
X71269000Y-40529000D01*
X71267000Y-40564000D01*
X71264000Y-40598000D01*
X71261000Y-40633000D01*
X71257000Y-40667000D01*
X71251000Y-40702000D01*
X71245000Y-40736000D01*
X71238000Y-40770000D01*
X71230000Y-40804000D01*
X71221000Y-40837000D01*
X71212000Y-40870000D01*
X71201000Y-40903000D01*
X71190000Y-40936000D01*
X71177000Y-40969000D01*
X71164000Y-41001000D01*
X71150000Y-41033000D01*
X71135000Y-41064000D01*
X71120000Y-41095000D01*
X71103000Y-41125000D01*
X71086000Y-41156000D01*
X71068000Y-41185000D01*
X71049000Y-41214000D01*
X71030000Y-41243000D01*
X71010000Y-41271000D01*
X70989000Y-41299000D01*
X70967000Y-41326000D01*
X70944000Y-41352000D01*
X70921000Y-41378000D01*
X70898000Y-41403000D01*
X70850000Y-41449000D01*
X70799000Y-41492000D01*
X70746000Y-41532000D01*
X70692000Y-41570000D01*
X70635000Y-41605000D01*
X70577000Y-41637000D01*
X70517000Y-41665000D01*
X70455000Y-41691000D01*
X70392000Y-41713000D01*
X70329000Y-41732000D01*
X70264000Y-41747000D01*
X70199000Y-41759000D01*
X70133000Y-41768000D01*
X70066000Y-41773000D01*
X70000000Y-41775000D01*
X69934000Y-41773000D01*
X69867000Y-41768000D01*
X69801000Y-41759000D01*
X69736000Y-41747000D01*
X69671000Y-41732000D01*
X69608000Y-41713000D01*
X69545000Y-41691000D01*
X69483000Y-41665000D01*
X69423000Y-41637000D01*
X69365000Y-41605000D01*
X69308000Y-41570000D01*
X69254000Y-41532000D01*
X69201000Y-41492000D01*
X69150000Y-41449000D01*
X69102000Y-41403000D01*
X69056000Y-41355000D01*
X69013000Y-41304000D01*
X68973000Y-41251000D01*
X68935000Y-41197000D01*
X68900000Y-41140000D01*
X68868000Y-41082000D01*
X68840000Y-41022000D01*
X68814000Y-40960000D01*
X68792000Y-40897000D01*
X68773000Y-40834000D01*
X68758000Y-40769000D01*
X68746000Y-40704000D01*
X68737000Y-40638000D01*
X68732000Y-40571000D01*
X68730000Y-40505000D01*
X68732000Y-40439000D01*
X68737000Y-40372000D01*
X68746000Y-40306000D01*
X68758000Y-40241000D01*
X68773000Y-40176000D01*
X68792000Y-40113000D01*
X68814000Y-40050000D01*
X68840000Y-39988000D01*
X68868000Y-39928000D01*
X68900000Y-39870000D01*
X68935000Y-39813000D01*
X68973000Y-39759000D01*
X69013000Y-39706000D01*
X69056000Y-39655000D01*
X69102000Y-39607000D01*
X69127000Y-39584000D01*
X69153000Y-39561000D01*
X69179000Y-39538000D01*
X69206000Y-39516000D01*
X69234000Y-39495000D01*
X69262000Y-39475000D01*
X69291000Y-39456000D01*
X69320000Y-39437000D01*
X69349000Y-39419000D01*
X69380000Y-39402000D01*
X69410000Y-39385000D01*
X69441000Y-39370000D01*
X69473000Y-39355000D01*
X69504000Y-39341000D01*
X69536000Y-39328000D01*
X69569000Y-39315000D01*
X69602000Y-39304000D01*
X69635000Y-39293000D01*
X69668000Y-39284000D01*
X69702000Y-39275000D01*
X69735000Y-39267000D01*
X69769000Y-39260000D01*
X69803000Y-39254000D01*
X69838000Y-39248000D01*
X69872000Y-39244000D01*
X69907000Y-39241000D01*
X69941000Y-39238000D01*
X69976000Y-39236000D01*
X70011000Y-39236000D01*
X70045959Y-39235700D01*
X70046000Y-39236000D01*
G36*
X70046000Y-39236000D02*
G01*
X71269000Y-40459000D01*
X71269000Y-40494000D01*
X71269000Y-40529000D01*
X71267000Y-40564000D01*
X71264000Y-40598000D01*
X71261000Y-40633000D01*
X71257000Y-40667000D01*
X71251000Y-40702000D01*
X71245000Y-40736000D01*
X71238000Y-40770000D01*
X71230000Y-40804000D01*
X71221000Y-40837000D01*
X71212000Y-40870000D01*
X71201000Y-40903000D01*
X71190000Y-40936000D01*
X71177000Y-40969000D01*
X71164000Y-41001000D01*
X71150000Y-41033000D01*
X71135000Y-41064000D01*
X71120000Y-41095000D01*
X71103000Y-41125000D01*
X71086000Y-41156000D01*
X71068000Y-41185000D01*
X71049000Y-41214000D01*
X71030000Y-41243000D01*
X71010000Y-41271000D01*
X70989000Y-41299000D01*
X70967000Y-41326000D01*
X70944000Y-41352000D01*
X70921000Y-41378000D01*
X70898000Y-41403000D01*
X70850000Y-41449000D01*
X70799000Y-41492000D01*
X70746000Y-41532000D01*
X70692000Y-41570000D01*
X70635000Y-41605000D01*
X70577000Y-41637000D01*
X70517000Y-41665000D01*
X70455000Y-41691000D01*
X70392000Y-41713000D01*
X70329000Y-41732000D01*
X70264000Y-41747000D01*
X70199000Y-41759000D01*
X70133000Y-41768000D01*
X70066000Y-41773000D01*
X70000000Y-41775000D01*
X69934000Y-41773000D01*
X69867000Y-41768000D01*
X69801000Y-41759000D01*
X69736000Y-41747000D01*
X69671000Y-41732000D01*
X69608000Y-41713000D01*
X69545000Y-41691000D01*
X69483000Y-41665000D01*
X69423000Y-41637000D01*
X69365000Y-41605000D01*
X69308000Y-41570000D01*
X69254000Y-41532000D01*
X69201000Y-41492000D01*
X69150000Y-41449000D01*
X69102000Y-41403000D01*
X69056000Y-41355000D01*
X69013000Y-41304000D01*
X68973000Y-41251000D01*
X68935000Y-41197000D01*
X68900000Y-41140000D01*
X68868000Y-41082000D01*
X68840000Y-41022000D01*
X68814000Y-40960000D01*
X68792000Y-40897000D01*
X68773000Y-40834000D01*
X68758000Y-40769000D01*
X68746000Y-40704000D01*
X68737000Y-40638000D01*
X68732000Y-40571000D01*
X68730000Y-40505000D01*
X68732000Y-40439000D01*
X68737000Y-40372000D01*
X68746000Y-40306000D01*
X68758000Y-40241000D01*
X68773000Y-40176000D01*
X68792000Y-40113000D01*
X68814000Y-40050000D01*
X68840000Y-39988000D01*
X68868000Y-39928000D01*
X68900000Y-39870000D01*
X68935000Y-39813000D01*
X68973000Y-39759000D01*
X69013000Y-39706000D01*
X69056000Y-39655000D01*
X69102000Y-39607000D01*
X69127000Y-39584000D01*
X69153000Y-39561000D01*
X69179000Y-39538000D01*
X69206000Y-39516000D01*
X69234000Y-39495000D01*
X69262000Y-39475000D01*
X69291000Y-39456000D01*
X69320000Y-39437000D01*
X69349000Y-39419000D01*
X69380000Y-39402000D01*
X69410000Y-39385000D01*
X69441000Y-39370000D01*
X69473000Y-39355000D01*
X69504000Y-39341000D01*
X69536000Y-39328000D01*
X69569000Y-39315000D01*
X69602000Y-39304000D01*
X69635000Y-39293000D01*
X69668000Y-39284000D01*
X69702000Y-39275000D01*
X69735000Y-39267000D01*
X69769000Y-39260000D01*
X69803000Y-39254000D01*
X69838000Y-39248000D01*
X69872000Y-39244000D01*
X69907000Y-39241000D01*
X69941000Y-39238000D01*
X69976000Y-39236000D01*
X70011000Y-39236000D01*
X70045959Y-39235700D01*
X70046000Y-39236000D01*
G37*
X70066000Y-58227000D02*
X70133000Y-58232000D01*
X70199000Y-58241000D01*
X70264000Y-58253000D01*
X70329000Y-58268000D01*
X70392000Y-58287000D01*
X70455000Y-58309000D01*
X70517000Y-58335000D01*
X70577000Y-58363000D01*
X70635000Y-58395000D01*
X70692000Y-58430000D01*
X70746000Y-58468000D01*
X70799000Y-58508000D01*
X70850000Y-58551000D01*
X70898000Y-58597000D01*
X70921000Y-58622000D01*
X70944000Y-58648000D01*
X70967000Y-58674000D01*
X70989000Y-58701000D01*
X71010000Y-58729000D01*
X71030000Y-58757000D01*
X71049000Y-58786000D01*
X71068000Y-58815000D01*
X71086000Y-58844000D01*
X71103000Y-58875000D01*
X71120000Y-58905000D01*
X71135000Y-58936000D01*
X71150000Y-58967000D01*
X71164000Y-58999000D01*
X71177000Y-59031000D01*
X71190000Y-59064000D01*
X71201000Y-59097000D01*
X71212000Y-59130000D01*
X71221000Y-59163000D01*
X71230000Y-59196000D01*
X71238000Y-59230000D01*
X71245000Y-59264000D01*
X71251000Y-59298000D01*
X71257000Y-59333000D01*
X71261000Y-59367000D01*
X71264000Y-59402000D01*
X71267000Y-59436000D01*
X71269000Y-59471000D01*
X71269000Y-59506000D01*
X71269260Y-59540960D01*
X71269000Y-59541000D01*
X70046000Y-60764000D01*
X70011000Y-60764000D01*
X69976000Y-60764000D01*
X69941000Y-60762000D01*
X69907000Y-60759000D01*
X69872000Y-60756000D01*
X69838000Y-60752000D01*
X69803000Y-60746000D01*
X69769000Y-60740000D01*
X69735000Y-60733000D01*
X69702000Y-60725000D01*
X69668000Y-60716000D01*
X69635000Y-60707000D01*
X69602000Y-60696000D01*
X69569000Y-60685000D01*
X69536000Y-60672000D01*
X69504000Y-60659000D01*
X69473000Y-60645000D01*
X69441000Y-60630000D01*
X69410000Y-60615000D01*
X69380000Y-60598000D01*
X69349000Y-60581000D01*
X69320000Y-60563000D01*
X69291000Y-60544000D01*
X69262000Y-60525000D01*
X69234000Y-60505000D01*
X69206000Y-60484000D01*
X69179000Y-60462000D01*
X69153000Y-60439000D01*
X69127000Y-60416000D01*
X69102000Y-60393000D01*
X69056000Y-60345000D01*
X69013000Y-60294000D01*
X68973000Y-60241000D01*
X68935000Y-60187000D01*
X68900000Y-60130000D01*
X68868000Y-60072000D01*
X68840000Y-60012000D01*
X68814000Y-59950000D01*
X68792000Y-59887000D01*
X68773000Y-59824000D01*
X68758000Y-59759000D01*
X68746000Y-59694000D01*
X68737000Y-59628000D01*
X68732000Y-59561000D01*
X68730000Y-59495000D01*
X68732000Y-59429000D01*
X68737000Y-59362000D01*
X68746000Y-59296000D01*
X68758000Y-59231000D01*
X68773000Y-59166000D01*
X68792000Y-59103000D01*
X68814000Y-59040000D01*
X68840000Y-58978000D01*
X68868000Y-58918000D01*
X68900000Y-58860000D01*
X68935000Y-58803000D01*
X68973000Y-58749000D01*
X69013000Y-58696000D01*
X69056000Y-58645000D01*
X69102000Y-58597000D01*
X69150000Y-58551000D01*
X69201000Y-58508000D01*
X69254000Y-58468000D01*
X69308000Y-58430000D01*
X69365000Y-58395000D01*
X69423000Y-58363000D01*
X69483000Y-58335000D01*
X69545000Y-58309000D01*
X69608000Y-58287000D01*
X69671000Y-58268000D01*
X69736000Y-58253000D01*
X69801000Y-58241000D01*
X69867000Y-58232000D01*
X69934000Y-58227000D01*
X70000000Y-58225000D01*
X70066000Y-58227000D01*
G36*
X70066000Y-58227000D02*
G01*
X70133000Y-58232000D01*
X70199000Y-58241000D01*
X70264000Y-58253000D01*
X70329000Y-58268000D01*
X70392000Y-58287000D01*
X70455000Y-58309000D01*
X70517000Y-58335000D01*
X70577000Y-58363000D01*
X70635000Y-58395000D01*
X70692000Y-58430000D01*
X70746000Y-58468000D01*
X70799000Y-58508000D01*
X70850000Y-58551000D01*
X70898000Y-58597000D01*
X70921000Y-58622000D01*
X70944000Y-58648000D01*
X70967000Y-58674000D01*
X70989000Y-58701000D01*
X71010000Y-58729000D01*
X71030000Y-58757000D01*
X71049000Y-58786000D01*
X71068000Y-58815000D01*
X71086000Y-58844000D01*
X71103000Y-58875000D01*
X71120000Y-58905000D01*
X71135000Y-58936000D01*
X71150000Y-58967000D01*
X71164000Y-58999000D01*
X71177000Y-59031000D01*
X71190000Y-59064000D01*
X71201000Y-59097000D01*
X71212000Y-59130000D01*
X71221000Y-59163000D01*
X71230000Y-59196000D01*
X71238000Y-59230000D01*
X71245000Y-59264000D01*
X71251000Y-59298000D01*
X71257000Y-59333000D01*
X71261000Y-59367000D01*
X71264000Y-59402000D01*
X71267000Y-59436000D01*
X71269000Y-59471000D01*
X71269000Y-59506000D01*
X71269260Y-59540960D01*
X71269000Y-59541000D01*
X70046000Y-60764000D01*
X70011000Y-60764000D01*
X69976000Y-60764000D01*
X69941000Y-60762000D01*
X69907000Y-60759000D01*
X69872000Y-60756000D01*
X69838000Y-60752000D01*
X69803000Y-60746000D01*
X69769000Y-60740000D01*
X69735000Y-60733000D01*
X69702000Y-60725000D01*
X69668000Y-60716000D01*
X69635000Y-60707000D01*
X69602000Y-60696000D01*
X69569000Y-60685000D01*
X69536000Y-60672000D01*
X69504000Y-60659000D01*
X69473000Y-60645000D01*
X69441000Y-60630000D01*
X69410000Y-60615000D01*
X69380000Y-60598000D01*
X69349000Y-60581000D01*
X69320000Y-60563000D01*
X69291000Y-60544000D01*
X69262000Y-60525000D01*
X69234000Y-60505000D01*
X69206000Y-60484000D01*
X69179000Y-60462000D01*
X69153000Y-60439000D01*
X69127000Y-60416000D01*
X69102000Y-60393000D01*
X69056000Y-60345000D01*
X69013000Y-60294000D01*
X68973000Y-60241000D01*
X68935000Y-60187000D01*
X68900000Y-60130000D01*
X68868000Y-60072000D01*
X68840000Y-60012000D01*
X68814000Y-59950000D01*
X68792000Y-59887000D01*
X68773000Y-59824000D01*
X68758000Y-59759000D01*
X68746000Y-59694000D01*
X68737000Y-59628000D01*
X68732000Y-59561000D01*
X68730000Y-59495000D01*
X68732000Y-59429000D01*
X68737000Y-59362000D01*
X68746000Y-59296000D01*
X68758000Y-59231000D01*
X68773000Y-59166000D01*
X68792000Y-59103000D01*
X68814000Y-59040000D01*
X68840000Y-58978000D01*
X68868000Y-58918000D01*
X68900000Y-58860000D01*
X68935000Y-58803000D01*
X68973000Y-58749000D01*
X69013000Y-58696000D01*
X69056000Y-58645000D01*
X69102000Y-58597000D01*
X69150000Y-58551000D01*
X69201000Y-58508000D01*
X69254000Y-58468000D01*
X69308000Y-58430000D01*
X69365000Y-58395000D01*
X69423000Y-58363000D01*
X69483000Y-58335000D01*
X69545000Y-58309000D01*
X69608000Y-58287000D01*
X69671000Y-58268000D01*
X69736000Y-58253000D01*
X69801000Y-58241000D01*
X69867000Y-58232000D01*
X69934000Y-58227000D01*
X70000000Y-58225000D01*
X70066000Y-58227000D01*
G37*
X70046000Y-159236000D02*
X71269000Y-160459000D01*
X71269000Y-160494000D01*
X71269000Y-160529000D01*
X71267000Y-160564000D01*
X71264000Y-160598000D01*
X71261000Y-160633000D01*
X71257000Y-160667000D01*
X71251000Y-160702000D01*
X71245000Y-160736000D01*
X71238000Y-160770000D01*
X71230000Y-160804000D01*
X71221000Y-160837000D01*
X71212000Y-160870000D01*
X71201000Y-160903000D01*
X71190000Y-160936000D01*
X71177000Y-160969000D01*
X71164000Y-161001000D01*
X71150000Y-161033000D01*
X71135000Y-161064000D01*
X71120000Y-161095000D01*
X71103000Y-161125000D01*
X71086000Y-161156000D01*
X71068000Y-161185000D01*
X71049000Y-161214000D01*
X71030000Y-161243000D01*
X71010000Y-161271000D01*
X70989000Y-161299000D01*
X70967000Y-161326000D01*
X70944000Y-161352000D01*
X70921000Y-161378000D01*
X70898000Y-161403000D01*
X70850000Y-161449000D01*
X70799000Y-161492000D01*
X70746000Y-161532000D01*
X70692000Y-161570000D01*
X70635000Y-161605000D01*
X70577000Y-161637000D01*
X70517000Y-161665000D01*
X70455000Y-161691000D01*
X70392000Y-161713000D01*
X70329000Y-161732000D01*
X70264000Y-161747000D01*
X70199000Y-161759000D01*
X70133000Y-161768000D01*
X70066000Y-161773000D01*
X70000000Y-161775000D01*
X69934000Y-161773000D01*
X69867000Y-161768000D01*
X69801000Y-161759000D01*
X69736000Y-161747000D01*
X69671000Y-161732000D01*
X69608000Y-161713000D01*
X69545000Y-161691000D01*
X69483000Y-161665000D01*
X69423000Y-161637000D01*
X69365000Y-161605000D01*
X69308000Y-161570000D01*
X69254000Y-161532000D01*
X69201000Y-161492000D01*
X69150000Y-161449000D01*
X69102000Y-161403000D01*
X69056000Y-161355000D01*
X69013000Y-161304000D01*
X68973000Y-161251000D01*
X68935000Y-161197000D01*
X68900000Y-161140000D01*
X68868000Y-161082000D01*
X68840000Y-161022000D01*
X68814000Y-160960000D01*
X68792000Y-160897000D01*
X68773000Y-160834000D01*
X68758000Y-160769000D01*
X68746000Y-160704000D01*
X68737000Y-160638000D01*
X68732000Y-160571000D01*
X68730000Y-160505000D01*
X68732000Y-160439000D01*
X68737000Y-160372000D01*
X68746000Y-160306000D01*
X68758000Y-160241000D01*
X68773000Y-160176000D01*
X68792000Y-160113000D01*
X68814000Y-160050000D01*
X68840000Y-159988000D01*
X68868000Y-159928000D01*
X68900000Y-159870000D01*
X68935000Y-159813000D01*
X68973000Y-159759000D01*
X69013000Y-159706000D01*
X69056000Y-159655000D01*
X69102000Y-159607000D01*
X69127000Y-159584000D01*
X69153000Y-159561000D01*
X69179000Y-159538000D01*
X69206000Y-159516000D01*
X69234000Y-159495000D01*
X69262000Y-159475000D01*
X69291000Y-159456000D01*
X69320000Y-159437000D01*
X69349000Y-159419000D01*
X69380000Y-159402000D01*
X69410000Y-159385000D01*
X69441000Y-159370000D01*
X69473000Y-159355000D01*
X69504000Y-159341000D01*
X69536000Y-159328000D01*
X69569000Y-159315000D01*
X69602000Y-159304000D01*
X69635000Y-159293000D01*
X69668000Y-159284000D01*
X69702000Y-159275000D01*
X69735000Y-159267000D01*
X69769000Y-159260000D01*
X69803000Y-159254000D01*
X69838000Y-159248000D01*
X69872000Y-159244000D01*
X69907000Y-159241000D01*
X69941000Y-159238000D01*
X69976000Y-159236000D01*
X70011000Y-159236000D01*
X70045959Y-159235700D01*
X70046000Y-159236000D01*
G36*
X70046000Y-159236000D02*
G01*
X71269000Y-160459000D01*
X71269000Y-160494000D01*
X71269000Y-160529000D01*
X71267000Y-160564000D01*
X71264000Y-160598000D01*
X71261000Y-160633000D01*
X71257000Y-160667000D01*
X71251000Y-160702000D01*
X71245000Y-160736000D01*
X71238000Y-160770000D01*
X71230000Y-160804000D01*
X71221000Y-160837000D01*
X71212000Y-160870000D01*
X71201000Y-160903000D01*
X71190000Y-160936000D01*
X71177000Y-160969000D01*
X71164000Y-161001000D01*
X71150000Y-161033000D01*
X71135000Y-161064000D01*
X71120000Y-161095000D01*
X71103000Y-161125000D01*
X71086000Y-161156000D01*
X71068000Y-161185000D01*
X71049000Y-161214000D01*
X71030000Y-161243000D01*
X71010000Y-161271000D01*
X70989000Y-161299000D01*
X70967000Y-161326000D01*
X70944000Y-161352000D01*
X70921000Y-161378000D01*
X70898000Y-161403000D01*
X70850000Y-161449000D01*
X70799000Y-161492000D01*
X70746000Y-161532000D01*
X70692000Y-161570000D01*
X70635000Y-161605000D01*
X70577000Y-161637000D01*
X70517000Y-161665000D01*
X70455000Y-161691000D01*
X70392000Y-161713000D01*
X70329000Y-161732000D01*
X70264000Y-161747000D01*
X70199000Y-161759000D01*
X70133000Y-161768000D01*
X70066000Y-161773000D01*
X70000000Y-161775000D01*
X69934000Y-161773000D01*
X69867000Y-161768000D01*
X69801000Y-161759000D01*
X69736000Y-161747000D01*
X69671000Y-161732000D01*
X69608000Y-161713000D01*
X69545000Y-161691000D01*
X69483000Y-161665000D01*
X69423000Y-161637000D01*
X69365000Y-161605000D01*
X69308000Y-161570000D01*
X69254000Y-161532000D01*
X69201000Y-161492000D01*
X69150000Y-161449000D01*
X69102000Y-161403000D01*
X69056000Y-161355000D01*
X69013000Y-161304000D01*
X68973000Y-161251000D01*
X68935000Y-161197000D01*
X68900000Y-161140000D01*
X68868000Y-161082000D01*
X68840000Y-161022000D01*
X68814000Y-160960000D01*
X68792000Y-160897000D01*
X68773000Y-160834000D01*
X68758000Y-160769000D01*
X68746000Y-160704000D01*
X68737000Y-160638000D01*
X68732000Y-160571000D01*
X68730000Y-160505000D01*
X68732000Y-160439000D01*
X68737000Y-160372000D01*
X68746000Y-160306000D01*
X68758000Y-160241000D01*
X68773000Y-160176000D01*
X68792000Y-160113000D01*
X68814000Y-160050000D01*
X68840000Y-159988000D01*
X68868000Y-159928000D01*
X68900000Y-159870000D01*
X68935000Y-159813000D01*
X68973000Y-159759000D01*
X69013000Y-159706000D01*
X69056000Y-159655000D01*
X69102000Y-159607000D01*
X69127000Y-159584000D01*
X69153000Y-159561000D01*
X69179000Y-159538000D01*
X69206000Y-159516000D01*
X69234000Y-159495000D01*
X69262000Y-159475000D01*
X69291000Y-159456000D01*
X69320000Y-159437000D01*
X69349000Y-159419000D01*
X69380000Y-159402000D01*
X69410000Y-159385000D01*
X69441000Y-159370000D01*
X69473000Y-159355000D01*
X69504000Y-159341000D01*
X69536000Y-159328000D01*
X69569000Y-159315000D01*
X69602000Y-159304000D01*
X69635000Y-159293000D01*
X69668000Y-159284000D01*
X69702000Y-159275000D01*
X69735000Y-159267000D01*
X69769000Y-159260000D01*
X69803000Y-159254000D01*
X69838000Y-159248000D01*
X69872000Y-159244000D01*
X69907000Y-159241000D01*
X69941000Y-159238000D01*
X69976000Y-159236000D01*
X70011000Y-159236000D01*
X70045959Y-159235700D01*
X70046000Y-159236000D01*
G37*
X70066000Y-178227000D02*
X70133000Y-178232000D01*
X70199000Y-178241000D01*
X70264000Y-178253000D01*
X70329000Y-178268000D01*
X70392000Y-178287000D01*
X70455000Y-178309000D01*
X70517000Y-178335000D01*
X70577000Y-178363000D01*
X70635000Y-178395000D01*
X70692000Y-178430000D01*
X70746000Y-178468000D01*
X70799000Y-178508000D01*
X70850000Y-178551000D01*
X70898000Y-178597000D01*
X70921000Y-178622000D01*
X70944000Y-178648000D01*
X70967000Y-178674000D01*
X70989000Y-178701000D01*
X71010000Y-178729000D01*
X71030000Y-178757000D01*
X71049000Y-178786000D01*
X71068000Y-178815000D01*
X71086000Y-178844000D01*
X71103000Y-178875000D01*
X71120000Y-178905000D01*
X71135000Y-178936000D01*
X71150000Y-178967000D01*
X71164000Y-178999000D01*
X71177000Y-179031000D01*
X71190000Y-179064000D01*
X71201000Y-179097000D01*
X71212000Y-179130000D01*
X71221000Y-179163000D01*
X71230000Y-179196000D01*
X71238000Y-179230000D01*
X71245000Y-179264000D01*
X71251000Y-179298000D01*
X71257000Y-179333000D01*
X71261000Y-179367000D01*
X71264000Y-179402000D01*
X71267000Y-179436000D01*
X71269000Y-179471000D01*
X71269000Y-179506000D01*
X71269260Y-179540960D01*
X71269000Y-179541000D01*
X70046000Y-180764000D01*
X70011000Y-180764000D01*
X69976000Y-180764000D01*
X69941000Y-180762000D01*
X69907000Y-180759000D01*
X69872000Y-180756000D01*
X69838000Y-180752000D01*
X69803000Y-180746000D01*
X69769000Y-180740000D01*
X69735000Y-180733000D01*
X69702000Y-180725000D01*
X69668000Y-180716000D01*
X69635000Y-180707000D01*
X69602000Y-180696000D01*
X69569000Y-180685000D01*
X69536000Y-180672000D01*
X69504000Y-180659000D01*
X69473000Y-180645000D01*
X69441000Y-180630000D01*
X69410000Y-180615000D01*
X69380000Y-180598000D01*
X69349000Y-180581000D01*
X69320000Y-180563000D01*
X69291000Y-180544000D01*
X69262000Y-180525000D01*
X69234000Y-180505000D01*
X69206000Y-180484000D01*
X69179000Y-180462000D01*
X69153000Y-180439000D01*
X69127000Y-180416000D01*
X69102000Y-180393000D01*
X69056000Y-180345000D01*
X69013000Y-180294000D01*
X68973000Y-180241000D01*
X68935000Y-180187000D01*
X68900000Y-180130000D01*
X68868000Y-180072000D01*
X68840000Y-180012000D01*
X68814000Y-179950000D01*
X68792000Y-179887000D01*
X68773000Y-179824000D01*
X68758000Y-179759000D01*
X68746000Y-179694000D01*
X68737000Y-179628000D01*
X68732000Y-179561000D01*
X68730000Y-179495000D01*
X68732000Y-179429000D01*
X68737000Y-179362000D01*
X68746000Y-179296000D01*
X68758000Y-179231000D01*
X68773000Y-179166000D01*
X68792000Y-179103000D01*
X68814000Y-179040000D01*
X68840000Y-178978000D01*
X68868000Y-178918000D01*
X68900000Y-178860000D01*
X68935000Y-178803000D01*
X68973000Y-178749000D01*
X69013000Y-178696000D01*
X69056000Y-178645000D01*
X69102000Y-178597000D01*
X69150000Y-178551000D01*
X69201000Y-178508000D01*
X69254000Y-178468000D01*
X69308000Y-178430000D01*
X69365000Y-178395000D01*
X69423000Y-178363000D01*
X69483000Y-178335000D01*
X69545000Y-178309000D01*
X69608000Y-178287000D01*
X69671000Y-178268000D01*
X69736000Y-178253000D01*
X69801000Y-178241000D01*
X69867000Y-178232000D01*
X69934000Y-178227000D01*
X70000000Y-178225000D01*
X70066000Y-178227000D01*
G36*
X70066000Y-178227000D02*
G01*
X70133000Y-178232000D01*
X70199000Y-178241000D01*
X70264000Y-178253000D01*
X70329000Y-178268000D01*
X70392000Y-178287000D01*
X70455000Y-178309000D01*
X70517000Y-178335000D01*
X70577000Y-178363000D01*
X70635000Y-178395000D01*
X70692000Y-178430000D01*
X70746000Y-178468000D01*
X70799000Y-178508000D01*
X70850000Y-178551000D01*
X70898000Y-178597000D01*
X70921000Y-178622000D01*
X70944000Y-178648000D01*
X70967000Y-178674000D01*
X70989000Y-178701000D01*
X71010000Y-178729000D01*
X71030000Y-178757000D01*
X71049000Y-178786000D01*
X71068000Y-178815000D01*
X71086000Y-178844000D01*
X71103000Y-178875000D01*
X71120000Y-178905000D01*
X71135000Y-178936000D01*
X71150000Y-178967000D01*
X71164000Y-178999000D01*
X71177000Y-179031000D01*
X71190000Y-179064000D01*
X71201000Y-179097000D01*
X71212000Y-179130000D01*
X71221000Y-179163000D01*
X71230000Y-179196000D01*
X71238000Y-179230000D01*
X71245000Y-179264000D01*
X71251000Y-179298000D01*
X71257000Y-179333000D01*
X71261000Y-179367000D01*
X71264000Y-179402000D01*
X71267000Y-179436000D01*
X71269000Y-179471000D01*
X71269000Y-179506000D01*
X71269260Y-179540960D01*
X71269000Y-179541000D01*
X70046000Y-180764000D01*
X70011000Y-180764000D01*
X69976000Y-180764000D01*
X69941000Y-180762000D01*
X69907000Y-180759000D01*
X69872000Y-180756000D01*
X69838000Y-180752000D01*
X69803000Y-180746000D01*
X69769000Y-180740000D01*
X69735000Y-180733000D01*
X69702000Y-180725000D01*
X69668000Y-180716000D01*
X69635000Y-180707000D01*
X69602000Y-180696000D01*
X69569000Y-180685000D01*
X69536000Y-180672000D01*
X69504000Y-180659000D01*
X69473000Y-180645000D01*
X69441000Y-180630000D01*
X69410000Y-180615000D01*
X69380000Y-180598000D01*
X69349000Y-180581000D01*
X69320000Y-180563000D01*
X69291000Y-180544000D01*
X69262000Y-180525000D01*
X69234000Y-180505000D01*
X69206000Y-180484000D01*
X69179000Y-180462000D01*
X69153000Y-180439000D01*
X69127000Y-180416000D01*
X69102000Y-180393000D01*
X69056000Y-180345000D01*
X69013000Y-180294000D01*
X68973000Y-180241000D01*
X68935000Y-180187000D01*
X68900000Y-180130000D01*
X68868000Y-180072000D01*
X68840000Y-180012000D01*
X68814000Y-179950000D01*
X68792000Y-179887000D01*
X68773000Y-179824000D01*
X68758000Y-179759000D01*
X68746000Y-179694000D01*
X68737000Y-179628000D01*
X68732000Y-179561000D01*
X68730000Y-179495000D01*
X68732000Y-179429000D01*
X68737000Y-179362000D01*
X68746000Y-179296000D01*
X68758000Y-179231000D01*
X68773000Y-179166000D01*
X68792000Y-179103000D01*
X68814000Y-179040000D01*
X68840000Y-178978000D01*
X68868000Y-178918000D01*
X68900000Y-178860000D01*
X68935000Y-178803000D01*
X68973000Y-178749000D01*
X69013000Y-178696000D01*
X69056000Y-178645000D01*
X69102000Y-178597000D01*
X69150000Y-178551000D01*
X69201000Y-178508000D01*
X69254000Y-178468000D01*
X69308000Y-178430000D01*
X69365000Y-178395000D01*
X69423000Y-178363000D01*
X69483000Y-178335000D01*
X69545000Y-178309000D01*
X69608000Y-178287000D01*
X69671000Y-178268000D01*
X69736000Y-178253000D01*
X69801000Y-178241000D01*
X69867000Y-178232000D01*
X69934000Y-178227000D01*
X70000000Y-178225000D01*
X70066000Y-178227000D01*
G37*
%TD*%
D11*
%TO.C,REF\u002A\u002A*%
X71700000Y-43600000D03*
X68300000Y-43600000D03*
X71700000Y-44400000D03*
X68300000Y-44400000D03*
X71700000Y-45200000D03*
X68300000Y-45200000D03*
X71700000Y-46000000D03*
X68300000Y-46000000D03*
X71700000Y-46800000D03*
X68300000Y-46800000D03*
X71700000Y-47600000D03*
X68300000Y-47600000D03*
X71700000Y-51600000D03*
X68300000Y-51600000D03*
X71700000Y-52400000D03*
X68300000Y-52400000D03*
X71700000Y-53200000D03*
X68300000Y-53200000D03*
X71700000Y-54000000D03*
X68300000Y-54000000D03*
X71700000Y-54800000D03*
X68300000Y-54800000D03*
X71700000Y-55600000D03*
X68300000Y-55600000D03*
X71700000Y-56400000D03*
X68300000Y-56400000D03*
%TD*%
%TO.C,REF\u002A\u002A*%
X71700000Y-163600000D03*
X68300000Y-163600000D03*
X71700000Y-164400000D03*
X68300000Y-164400000D03*
X71700000Y-165200000D03*
X68300000Y-165200000D03*
X71700000Y-166000000D03*
X68300000Y-166000000D03*
X71700000Y-166800000D03*
X68300000Y-166800000D03*
X71700000Y-167600000D03*
X68300000Y-167600000D03*
X71700000Y-171600000D03*
X68300000Y-171600000D03*
X71700000Y-172400000D03*
X68300000Y-172400000D03*
X71700000Y-173200000D03*
X68300000Y-173200000D03*
X71700000Y-174000000D03*
X68300000Y-174000000D03*
X71700000Y-174800000D03*
X68300000Y-174800000D03*
X71700000Y-175600000D03*
X68300000Y-175600000D03*
X71700000Y-176400000D03*
X68300000Y-176400000D03*
%TD*%
M02*
