%TF.GenerationSoftware,KiCad,Pcbnew,8.0.2-1*%
%TF.CreationDate,2024-10-14T18:52:49-04:00*%
%TF.ProjectId,OddLayers_1.3mm_SiPM,4f64644c-6179-4657-9273-5f312e336d6d,rev?*%
%TF.SameCoordinates,Original*%
%TF.FileFunction,Copper,L3,Inr*%
%TF.FilePolarity,Positive*%
%FSLAX46Y46*%
G04 Gerber Fmt 4.6, Leading zero omitted, Abs format (unit mm)*
G04 Created by KiCad (PCBNEW 8.0.2-1) date 2024-10-14 18:52:49*
%MOMM*%
%LPD*%
G01*
G04 APERTURE LIST*
%TA.AperFunction,ComponentPad*%
%ADD10C,0.800000*%
%TD*%
%TA.AperFunction,ComponentPad*%
%ADD11C,1.348000*%
%TD*%
%TA.AperFunction,ViaPad*%
%ADD12C,0.600000*%
%TD*%
%TA.AperFunction,ViaPad*%
%ADD13C,0.800000*%
%TD*%
G04 APERTURE END LIST*
D10*
%TO.N,N/C*%
%TO.C,REF\u002A\u002A34*%
X298300000Y-165900000D03*
X302400000Y-165900000D03*
%TO.N,K14*%
X297550000Y-167000000D03*
%TO.N,A14*%
X297550000Y-168500000D03*
%TO.N,GND*%
X298100000Y-169700000D03*
%TD*%
%TO.N,N/C*%
%TO.C,REF\u002A\u002A40*%
X103100000Y-263500000D03*
X107200000Y-263500000D03*
%TO.N,K20*%
X102350000Y-264600000D03*
%TO.N,A20*%
X102350000Y-266100000D03*
%TO.N,GND*%
X102900000Y-267300000D03*
%TD*%
%TO.N,N/C*%
%TO.C,REF\u002A\u002A30*%
X103100000Y-165900000D03*
X107200000Y-165900000D03*
%TO.N,K10*%
X102350000Y-167000000D03*
%TO.N,A10*%
X102350000Y-168500000D03*
%TO.N,GND*%
X102900000Y-169700000D03*
%TD*%
%TO.N,N/C*%
%TO.C,REF\u002A\u002A24*%
X298300000Y-68300000D03*
X302400000Y-68300000D03*
%TO.N,K4*%
X297550000Y-69400000D03*
%TO.N,A4*%
X297550000Y-70900000D03*
%TO.N,GND*%
X298100000Y-72100000D03*
%TD*%
%TO.N,N/C*%
%TO.C,REF\u002A\u002A43*%
X249500000Y-263500000D03*
X253600000Y-263500000D03*
%TO.N,K23*%
X248750000Y-264600000D03*
%TO.N,A23*%
X248750000Y-266100000D03*
%TO.N,GND*%
X249300000Y-267300000D03*
%TD*%
%TO.N,N/C*%
%TO.C,REF\u002A\u002A38*%
X249500000Y-214700000D03*
X253600000Y-214700000D03*
%TO.N,K18*%
X248750000Y-215800000D03*
%TO.N,A18*%
X248750000Y-217300000D03*
%TO.N,GND*%
X249300000Y-218500000D03*
%TD*%
%TO.N,N/C*%
%TO.C,REF\u002A\u002A22*%
X200700000Y-68300000D03*
X204800000Y-68300000D03*
%TO.N,K2*%
X199950000Y-69400000D03*
%TO.N,A2*%
X199950000Y-70900000D03*
%TO.N,GND*%
X200500000Y-72100000D03*
%TD*%
%TO.N,N/C*%
%TO.C,REF\u002A\u002A28*%
X249500000Y-117100000D03*
X253600000Y-117100000D03*
%TO.N,K8*%
X248750000Y-118200000D03*
%TO.N,A8*%
X248750000Y-119700000D03*
%TO.N,GND*%
X249300000Y-120900000D03*
%TD*%
%TO.N,N/C*%
%TO.C,REF\u002A\u002A23*%
X249500000Y-68300000D03*
X253600000Y-68300000D03*
%TO.N,K3*%
X248750000Y-69400000D03*
%TO.N,A3*%
X248750000Y-70900000D03*
%TO.N,GND*%
X249300000Y-72100000D03*
%TD*%
%TO.N,N/C*%
%TO.C,REF\u002A\u002A32*%
X200700000Y-165900000D03*
X204800000Y-165900000D03*
%TO.N,K12*%
X199950000Y-167000000D03*
%TO.N,A12*%
X199950000Y-168500000D03*
%TO.N,GND*%
X200500000Y-169700000D03*
%TD*%
%TO.N,N/C*%
%TO.C,REF\u002A\u002A44*%
X298300000Y-263500000D03*
%TO.N,LED_input_after_resistor*%
X302400000Y-263500000D03*
%TO.N,K24*%
X297550000Y-264600000D03*
%TO.N,A24*%
X297550000Y-266100000D03*
%TO.N,GND*%
X298100000Y-267300000D03*
%TD*%
%TO.N,N/C*%
%TO.C,REF\u002A\u002A26*%
X151900000Y-117100000D03*
X156000000Y-117100000D03*
%TO.N,K6*%
X151150000Y-118200000D03*
%TO.N,A6*%
X151150000Y-119700000D03*
%TO.N,GND*%
X151700000Y-120900000D03*
%TD*%
%TO.N,N/C*%
%TO.C,REF\u002A\u002A36*%
X151900000Y-214700000D03*
X156000000Y-214700000D03*
%TO.N,K16*%
X151150000Y-215800000D03*
%TO.N,A16*%
X151150000Y-217300000D03*
%TO.N,GND*%
X151700000Y-218500000D03*
%TD*%
%TO.N,GND*%
%TO.C,REF\u002A\u002A20*%
X103100000Y-68300000D03*
%TO.N,N/C*%
X107200000Y-68300000D03*
%TO.N,K0*%
X102350000Y-69400000D03*
%TO.N,A0*%
X102350000Y-70900000D03*
%TO.N,GND*%
X102900000Y-72100000D03*
%TD*%
%TO.N,N/C*%
%TO.C,REF\u002A\u002A25*%
X103100000Y-117100000D03*
X107200000Y-117100000D03*
%TO.N,K5*%
X102350000Y-118200000D03*
%TO.N,A5*%
X102350000Y-119700000D03*
%TO.N,GND*%
X102900000Y-120900000D03*
%TD*%
%TO.N,N/C*%
%TO.C,REF\u002A\u002A37*%
X200700000Y-214700000D03*
X204800000Y-214700000D03*
%TO.N,K17*%
X199950000Y-215800000D03*
%TO.N,A17*%
X199950000Y-217300000D03*
%TO.N,GND*%
X200500000Y-218500000D03*
%TD*%
%TO.N,N/C*%
%TO.C,REF\u002A\u002A31*%
X151900000Y-165900000D03*
X156000000Y-165900000D03*
%TO.N,K11*%
X151150000Y-167000000D03*
%TO.N,A11*%
X151150000Y-168500000D03*
%TO.N,GND*%
X151700000Y-169700000D03*
%TD*%
%TO.N,N/C*%
%TO.C,REF\u002A\u002A27*%
X200700000Y-117100000D03*
X204800000Y-117100000D03*
%TO.N,K7*%
X199950000Y-118200000D03*
%TO.N,A7*%
X199950000Y-119700000D03*
%TO.N,GND*%
X200500000Y-120900000D03*
%TD*%
%TO.N,N/C*%
%TO.C,REF\u002A\u002A41*%
X151900000Y-263500000D03*
X156000000Y-263500000D03*
%TO.N,K21*%
X151150000Y-264600000D03*
%TO.N,A21*%
X151150000Y-266100000D03*
%TO.N,GND*%
X151700000Y-267300000D03*
%TD*%
%TO.N,N/C*%
%TO.C,REF\u002A\u002A29*%
X298300000Y-117100000D03*
X302400000Y-117100000D03*
%TO.N,K9*%
X297550000Y-118200000D03*
%TO.N,A9*%
X297550000Y-119700000D03*
%TO.N,GND*%
X298100000Y-120900000D03*
%TD*%
%TO.N,N/C*%
%TO.C,REF\u002A\u002A21*%
X151900000Y-68300000D03*
X156000000Y-68300000D03*
%TO.N,K1*%
X151150000Y-69400000D03*
%TO.N,A1*%
X151150000Y-70900000D03*
%TO.N,GND*%
X151700000Y-72100000D03*
%TD*%
%TO.N,N/C*%
%TO.C,REF\u002A\u002A42*%
X200700000Y-263500000D03*
X204800000Y-263500000D03*
%TO.N,K22*%
X199950000Y-264600000D03*
%TO.N,A22*%
X199950000Y-266100000D03*
%TO.N,GND*%
X200500000Y-267300000D03*
%TD*%
%TO.N,N/C*%
%TO.C,REF\u002A\u002A35*%
X103100000Y-214700000D03*
X107200000Y-214700000D03*
%TO.N,K15*%
X102350000Y-215800000D03*
%TO.N,A15*%
X102350000Y-217300000D03*
%TO.N,GND*%
X102900000Y-218500000D03*
%TD*%
%TO.N,N/C*%
%TO.C,REF\u002A\u002A39*%
X298300000Y-214700000D03*
X302400000Y-214700000D03*
%TO.N,K19*%
X297550000Y-215800000D03*
%TO.N,A19*%
X297550000Y-217300000D03*
%TO.N,GND*%
X298100000Y-218500000D03*
%TD*%
%TO.N,N/C*%
%TO.C,REF\u002A\u002A33*%
X249500000Y-165900000D03*
X253600000Y-165900000D03*
%TO.N,K13*%
X248750000Y-167000000D03*
%TO.N,A13*%
X248750000Y-168500000D03*
%TO.N,GND*%
X249300000Y-169700000D03*
%TD*%
D11*
%TO.N,N/C*%
%TO.C,REF\u002A\u002A*%
X70000000Y-40505000D03*
X70000000Y-59495000D03*
%TD*%
%TO.N,N/C*%
%TO.C,REF\u002A\u002A*%
X70000000Y-160505000D03*
X70000000Y-179495000D03*
%TD*%
D12*
%TO.N,GND*%
X67000000Y-176400000D03*
%TO.N,K0*%
X67000000Y-43600000D03*
X81200000Y-43600000D03*
%TO.N,K1*%
X79200000Y-45400000D03*
X67000000Y-44400000D03*
%TO.N,K2*%
X67000000Y-45200000D03*
X79200000Y-47200000D03*
%TO.N,K3*%
X67000000Y-46000000D03*
X76800000Y-46400000D03*
%TO.N,K4*%
X67000000Y-46800000D03*
X78200000Y-49800000D03*
%TO.N,K5*%
X67000000Y-47600000D03*
X76800000Y-50200000D03*
%TO.N,K6*%
X67000000Y-51600000D03*
X79800000Y-55200000D03*
%TO.N,K7*%
X67000000Y-52400000D03*
X78000000Y-54400000D03*
%TO.N,K8*%
X80185785Y-58414215D03*
X67000000Y-53200000D03*
%TO.N,K9*%
X67000000Y-54000000D03*
X79881619Y-62318381D03*
%TO.N,K10*%
X77400000Y-57400000D03*
X67000000Y-54800000D03*
%TO.N,K11*%
X76200000Y-58600000D03*
X67000000Y-55600000D03*
%TO.N,K12*%
X78200000Y-65200000D03*
X67000000Y-56400000D03*
%TO.N,K14*%
X79200000Y-165200000D03*
X67000000Y-164400000D03*
%TO.N,K13*%
X79400000Y-163600000D03*
X67000000Y-163600000D03*
%TO.N,K15*%
X67000000Y-165200000D03*
X78400000Y-166600000D03*
%TO.N,K16*%
X79407108Y-169592892D03*
X67000000Y-166000000D03*
%TO.N,K17*%
X67000000Y-166800000D03*
X80200000Y-172200000D03*
%TO.N,K18*%
X67000000Y-167600000D03*
X79351471Y-173048529D03*
%TO.N,K19*%
X79400000Y-176800000D03*
X67000000Y-171600000D03*
%TO.N,K20*%
X67000000Y-172400000D03*
X78200000Y-174200000D03*
%TO.N,K21*%
X67000000Y-173200000D03*
X77400000Y-176200000D03*
%TO.N,K22*%
X76200000Y-176400000D03*
X67000000Y-174000000D03*
%TO.N,K23*%
X67000000Y-174800000D03*
X75800000Y-178400000D03*
%TO.N,K24*%
X77654661Y-181345340D03*
X67000000Y-175600000D03*
D13*
%TO.N,LED_input_after_resistor*%
X73600000Y-313200000D03*
%TD*%
M02*
