%TF.GenerationSoftware,KiCad,Pcbnew,8.0.2-1*%
%TF.CreationDate,2024-10-14T18:52:49-04:00*%
%TF.ProjectId,OddLayers_1.3mm_SiPM,4f64644c-6179-4657-9273-5f312e336d6d,rev?*%
%TF.SameCoordinates,Original*%
%TF.FileFunction,Copper,L1,Top*%
%TF.FilePolarity,Positive*%
%FSLAX46Y46*%
G04 Gerber Fmt 4.6, Leading zero omitted, Abs format (unit mm)*
G04 Created by KiCad (PCBNEW 8.0.2-1) date 2024-10-14 18:52:49*
%MOMM*%
%LPD*%
G01*
G04 APERTURE LIST*
G04 Aperture macros list*
%AMRoundRect*
0 Rectangle with rounded corners*
0 $1 Rounding radius*
0 $2 $3 $4 $5 $6 $7 $8 $9 X,Y pos of 4 corners*
0 Add a 4 corners polygon primitive as box body*
4,1,4,$2,$3,$4,$5,$6,$7,$8,$9,$2,$3,0*
0 Add four circle primitives for the rounded corners*
1,1,$1+$1,$2,$3*
1,1,$1+$1,$4,$5*
1,1,$1+$1,$6,$7*
1,1,$1+$1,$8,$9*
0 Add four rect primitives between the rounded corners*
20,1,$1+$1,$2,$3,$4,$5,0*
20,1,$1+$1,$4,$5,$6,$7,0*
20,1,$1+$1,$6,$7,$8,$9,0*
20,1,$1+$1,$8,$9,$2,$3,0*%
G04 Aperture macros list end*
%TA.AperFunction,SMDPad,CuDef*%
%ADD10R,0.700000X0.700000*%
%TD*%
%TA.AperFunction,ComponentPad*%
%ADD11C,0.800000*%
%TD*%
%TA.AperFunction,SMDPad,CuDef*%
%ADD12R,1.050000X0.200000*%
%TD*%
%TA.AperFunction,SMDPad,CuDef*%
%ADD13RoundRect,0.237500X-0.287500X-0.237500X0.287500X-0.237500X0.287500X0.237500X-0.287500X0.237500X0*%
%TD*%
%TA.AperFunction,SMDPad,CuDef*%
%ADD14R,1.100000X0.200000*%
%TD*%
%TA.AperFunction,SMDPad,CuDef*%
%ADD15R,1.200000X0.200000*%
%TD*%
%TA.AperFunction,SMDPad,CuDef*%
%ADD16R,0.200000X2.500000*%
%TD*%
%TA.AperFunction,SMDPad,CuDef*%
%ADD17R,0.850000X0.200000*%
%TD*%
%TA.AperFunction,SMDPad,CuDef*%
%ADD18RoundRect,0.225000X-0.225000X-0.250000X0.225000X-0.250000X0.225000X0.250000X-0.225000X0.250000X0*%
%TD*%
%TA.AperFunction,ComponentPad*%
%ADD19RoundRect,0.200100X0.949900X-0.949900X0.949900X0.949900X-0.949900X0.949900X-0.949900X-0.949900X0*%
%TD*%
%TA.AperFunction,ComponentPad*%
%ADD20C,2.500000*%
%TD*%
%TA.AperFunction,SMDPad,CuDef*%
%ADD21RoundRect,0.250000X-0.312500X-0.625000X0.312500X-0.625000X0.312500X0.625000X-0.312500X0.625000X0*%
%TD*%
%TA.AperFunction,ComponentPad*%
%ADD22C,1.348000*%
%TD*%
%TA.AperFunction,ViaPad*%
%ADD23C,0.600000*%
%TD*%
%TA.AperFunction,ViaPad*%
%ADD24C,0.800000*%
%TD*%
%TA.AperFunction,Conductor*%
%ADD25C,0.200000*%
%TD*%
%TA.AperFunction,Conductor*%
%ADD26C,0.250000*%
%TD*%
G04 APERTURE END LIST*
D10*
%TO.P,REF\u002A\u002A34,1*%
%TO.N,N/C*%
X301152500Y-167250000D03*
%TO.P,REF\u002A\u002A34,4*%
X301152500Y-168350000D03*
D11*
%TO.P,REF\u002A\u002A34,5*%
X298300000Y-165900000D03*
D12*
X299000000Y-165915000D03*
D13*
X299525000Y-165915000D03*
%TO.P,REF\u002A\u002A34,6*%
X301275000Y-165915000D03*
D12*
X301650000Y-165915000D03*
D11*
X302400000Y-165900000D03*
%TO.P,REF\u002A\u002A34,7*%
%TO.N,K14*%
X297550000Y-167000000D03*
D14*
X298350000Y-167050000D03*
D10*
X299127500Y-167250000D03*
D15*
X299900000Y-167250000D03*
D16*
X300400000Y-168400000D03*
D17*
X300725000Y-169700000D03*
D18*
X301175000Y-169700000D03*
D11*
%TO.P,REF\u002A\u002A34,8*%
%TO.N,A14*%
X297550000Y-168500000D03*
D14*
X298350000Y-168450000D03*
D10*
X299127500Y-168350000D03*
D11*
%TO.P,REF\u002A\u002A34,9*%
%TO.N,GND*%
X298100000Y-169700000D03*
D12*
X298850000Y-169750000D03*
D18*
X299625000Y-169700000D03*
%TD*%
D10*
%TO.P,REF\u002A\u002A40,1*%
%TO.N,N/C*%
X105952500Y-264850000D03*
%TO.P,REF\u002A\u002A40,4*%
X105952500Y-265950000D03*
D11*
%TO.P,REF\u002A\u002A40,5*%
X103100000Y-263500000D03*
D12*
X103800000Y-263515000D03*
D13*
X104325000Y-263515000D03*
%TO.P,REF\u002A\u002A40,6*%
X106075000Y-263515000D03*
D12*
X106450000Y-263515000D03*
D11*
X107200000Y-263500000D03*
%TO.P,REF\u002A\u002A40,7*%
%TO.N,K20*%
X102350000Y-264600000D03*
D14*
X103150000Y-264650000D03*
D10*
X103927500Y-264850000D03*
D15*
X104700000Y-264850000D03*
D16*
X105200000Y-266000000D03*
D17*
X105525000Y-267300000D03*
D18*
X105975000Y-267300000D03*
D11*
%TO.P,REF\u002A\u002A40,8*%
%TO.N,A20*%
X102350000Y-266100000D03*
D14*
X103150000Y-266050000D03*
D10*
X103927500Y-265950000D03*
D11*
%TO.P,REF\u002A\u002A40,9*%
%TO.N,GND*%
X102900000Y-267300000D03*
D12*
X103650000Y-267350000D03*
D18*
X104425000Y-267300000D03*
%TD*%
D10*
%TO.P,REF\u002A\u002A30,1*%
%TO.N,N/C*%
X105952500Y-167250000D03*
%TO.P,REF\u002A\u002A30,4*%
X105952500Y-168350000D03*
D11*
%TO.P,REF\u002A\u002A30,5*%
X103100000Y-165900000D03*
D12*
X103800000Y-165915000D03*
D13*
X104325000Y-165915000D03*
%TO.P,REF\u002A\u002A30,6*%
X106075000Y-165915000D03*
D12*
X106450000Y-165915000D03*
D11*
X107200000Y-165900000D03*
%TO.P,REF\u002A\u002A30,7*%
%TO.N,K10*%
X102350000Y-167000000D03*
D14*
X103150000Y-167050000D03*
D10*
X103927500Y-167250000D03*
D15*
X104700000Y-167250000D03*
D16*
X105200000Y-168400000D03*
D17*
X105525000Y-169700000D03*
D18*
X105975000Y-169700000D03*
D11*
%TO.P,REF\u002A\u002A30,8*%
%TO.N,A10*%
X102350000Y-168500000D03*
D14*
X103150000Y-168450000D03*
D10*
X103927500Y-168350000D03*
D11*
%TO.P,REF\u002A\u002A30,9*%
%TO.N,GND*%
X102900000Y-169700000D03*
D12*
X103650000Y-169750000D03*
D18*
X104425000Y-169700000D03*
%TD*%
D10*
%TO.P,REF\u002A\u002A24,1*%
%TO.N,N/C*%
X301152500Y-69650000D03*
%TO.P,REF\u002A\u002A24,4*%
X301152500Y-70750000D03*
D11*
%TO.P,REF\u002A\u002A24,5*%
X298300000Y-68300000D03*
D12*
X299000000Y-68315000D03*
D13*
X299525000Y-68315000D03*
%TO.P,REF\u002A\u002A24,6*%
X301275000Y-68315000D03*
D12*
X301650000Y-68315000D03*
D11*
X302400000Y-68300000D03*
%TO.P,REF\u002A\u002A24,7*%
%TO.N,K4*%
X297550000Y-69400000D03*
D14*
X298350000Y-69450000D03*
D10*
X299127500Y-69650000D03*
D15*
X299900000Y-69650000D03*
D16*
X300400000Y-70800000D03*
D17*
X300725000Y-72100000D03*
D18*
X301175000Y-72100000D03*
D11*
%TO.P,REF\u002A\u002A24,8*%
%TO.N,A4*%
X297550000Y-70900000D03*
D14*
X298350000Y-70850000D03*
D10*
X299127500Y-70750000D03*
D11*
%TO.P,REF\u002A\u002A24,9*%
%TO.N,GND*%
X298100000Y-72100000D03*
D12*
X298850000Y-72150000D03*
D18*
X299625000Y-72100000D03*
%TD*%
D10*
%TO.P,REF\u002A\u002A43,1*%
%TO.N,N/C*%
X252352500Y-264850000D03*
%TO.P,REF\u002A\u002A43,4*%
X252352500Y-265950000D03*
D11*
%TO.P,REF\u002A\u002A43,5*%
X249500000Y-263500000D03*
D12*
X250200000Y-263515000D03*
D13*
X250725000Y-263515000D03*
%TO.P,REF\u002A\u002A43,6*%
X252475000Y-263515000D03*
D12*
X252850000Y-263515000D03*
D11*
X253600000Y-263500000D03*
%TO.P,REF\u002A\u002A43,7*%
%TO.N,K23*%
X248750000Y-264600000D03*
D14*
X249550000Y-264650000D03*
D10*
X250327500Y-264850000D03*
D15*
X251100000Y-264850000D03*
D16*
X251600000Y-266000000D03*
D17*
X251925000Y-267300000D03*
D18*
X252375000Y-267300000D03*
D11*
%TO.P,REF\u002A\u002A43,8*%
%TO.N,A23*%
X248750000Y-266100000D03*
D14*
X249550000Y-266050000D03*
D10*
X250327500Y-265950000D03*
D11*
%TO.P,REF\u002A\u002A43,9*%
%TO.N,GND*%
X249300000Y-267300000D03*
D12*
X250050000Y-267350000D03*
D18*
X250825000Y-267300000D03*
%TD*%
D10*
%TO.P,REF\u002A\u002A38,1*%
%TO.N,N/C*%
X252352500Y-216050000D03*
%TO.P,REF\u002A\u002A38,4*%
X252352500Y-217150000D03*
D11*
%TO.P,REF\u002A\u002A38,5*%
X249500000Y-214700000D03*
D12*
X250200000Y-214715000D03*
D13*
X250725000Y-214715000D03*
%TO.P,REF\u002A\u002A38,6*%
X252475000Y-214715000D03*
D12*
X252850000Y-214715000D03*
D11*
X253600000Y-214700000D03*
%TO.P,REF\u002A\u002A38,7*%
%TO.N,K18*%
X248750000Y-215800000D03*
D14*
X249550000Y-215850000D03*
D10*
X250327500Y-216050000D03*
D15*
X251100000Y-216050000D03*
D16*
X251600000Y-217200000D03*
D17*
X251925000Y-218500000D03*
D18*
X252375000Y-218500000D03*
D11*
%TO.P,REF\u002A\u002A38,8*%
%TO.N,A18*%
X248750000Y-217300000D03*
D14*
X249550000Y-217250000D03*
D10*
X250327500Y-217150000D03*
D11*
%TO.P,REF\u002A\u002A38,9*%
%TO.N,GND*%
X249300000Y-218500000D03*
D12*
X250050000Y-218550000D03*
D18*
X250825000Y-218500000D03*
%TD*%
D10*
%TO.P,REF\u002A\u002A22,1*%
%TO.N,N/C*%
X203552500Y-69650000D03*
%TO.P,REF\u002A\u002A22,4*%
X203552500Y-70750000D03*
D11*
%TO.P,REF\u002A\u002A22,5*%
X200700000Y-68300000D03*
D12*
X201400000Y-68315000D03*
D13*
X201925000Y-68315000D03*
%TO.P,REF\u002A\u002A22,6*%
X203675000Y-68315000D03*
D12*
X204050000Y-68315000D03*
D11*
X204800000Y-68300000D03*
%TO.P,REF\u002A\u002A22,7*%
%TO.N,K2*%
X199950000Y-69400000D03*
D14*
X200750000Y-69450000D03*
D10*
X201527500Y-69650000D03*
D15*
X202300000Y-69650000D03*
D16*
X202800000Y-70800000D03*
D17*
X203125000Y-72100000D03*
D18*
X203575000Y-72100000D03*
D11*
%TO.P,REF\u002A\u002A22,8*%
%TO.N,A2*%
X199950000Y-70900000D03*
D14*
X200750000Y-70850000D03*
D10*
X201527500Y-70750000D03*
D11*
%TO.P,REF\u002A\u002A22,9*%
%TO.N,GND*%
X200500000Y-72100000D03*
D12*
X201250000Y-72150000D03*
D18*
X202025000Y-72100000D03*
%TD*%
D10*
%TO.P,REF\u002A\u002A28,1*%
%TO.N,N/C*%
X252352500Y-118450000D03*
%TO.P,REF\u002A\u002A28,4*%
X252352500Y-119550000D03*
D11*
%TO.P,REF\u002A\u002A28,5*%
X249500000Y-117100000D03*
D12*
X250200000Y-117115000D03*
D13*
X250725000Y-117115000D03*
%TO.P,REF\u002A\u002A28,6*%
X252475000Y-117115000D03*
D12*
X252850000Y-117115000D03*
D11*
X253600000Y-117100000D03*
%TO.P,REF\u002A\u002A28,7*%
%TO.N,K8*%
X248750000Y-118200000D03*
D14*
X249550000Y-118250000D03*
D10*
X250327500Y-118450000D03*
D15*
X251100000Y-118450000D03*
D16*
X251600000Y-119600000D03*
D17*
X251925000Y-120900000D03*
D18*
X252375000Y-120900000D03*
D11*
%TO.P,REF\u002A\u002A28,8*%
%TO.N,A8*%
X248750000Y-119700000D03*
D14*
X249550000Y-119650000D03*
D10*
X250327500Y-119550000D03*
D11*
%TO.P,REF\u002A\u002A28,9*%
%TO.N,GND*%
X249300000Y-120900000D03*
D12*
X250050000Y-120950000D03*
D18*
X250825000Y-120900000D03*
%TD*%
D10*
%TO.P,REF\u002A\u002A23,1*%
%TO.N,N/C*%
X252352500Y-69650000D03*
%TO.P,REF\u002A\u002A23,4*%
X252352500Y-70750000D03*
D11*
%TO.P,REF\u002A\u002A23,5*%
X249500000Y-68300000D03*
D12*
X250200000Y-68315000D03*
D13*
X250725000Y-68315000D03*
%TO.P,REF\u002A\u002A23,6*%
X252475000Y-68315000D03*
D12*
X252850000Y-68315000D03*
D11*
X253600000Y-68300000D03*
%TO.P,REF\u002A\u002A23,7*%
%TO.N,K3*%
X248750000Y-69400000D03*
D14*
X249550000Y-69450000D03*
D10*
X250327500Y-69650000D03*
D15*
X251100000Y-69650000D03*
D16*
X251600000Y-70800000D03*
D17*
X251925000Y-72100000D03*
D18*
X252375000Y-72100000D03*
D11*
%TO.P,REF\u002A\u002A23,8*%
%TO.N,A3*%
X248750000Y-70900000D03*
D14*
X249550000Y-70850000D03*
D10*
X250327500Y-70750000D03*
D11*
%TO.P,REF\u002A\u002A23,9*%
%TO.N,GND*%
X249300000Y-72100000D03*
D12*
X250050000Y-72150000D03*
D18*
X250825000Y-72100000D03*
%TD*%
D10*
%TO.P,REF\u002A\u002A32,1*%
%TO.N,N/C*%
X203552500Y-167250000D03*
%TO.P,REF\u002A\u002A32,4*%
X203552500Y-168350000D03*
D11*
%TO.P,REF\u002A\u002A32,5*%
X200700000Y-165900000D03*
D12*
X201400000Y-165915000D03*
D13*
X201925000Y-165915000D03*
%TO.P,REF\u002A\u002A32,6*%
X203675000Y-165915000D03*
D12*
X204050000Y-165915000D03*
D11*
X204800000Y-165900000D03*
%TO.P,REF\u002A\u002A32,7*%
%TO.N,K12*%
X199950000Y-167000000D03*
D14*
X200750000Y-167050000D03*
D10*
X201527500Y-167250000D03*
D15*
X202300000Y-167250000D03*
D16*
X202800000Y-168400000D03*
D17*
X203125000Y-169700000D03*
D18*
X203575000Y-169700000D03*
D11*
%TO.P,REF\u002A\u002A32,8*%
%TO.N,A12*%
X199950000Y-168500000D03*
D14*
X200750000Y-168450000D03*
D10*
X201527500Y-168350000D03*
D11*
%TO.P,REF\u002A\u002A32,9*%
%TO.N,GND*%
X200500000Y-169700000D03*
D12*
X201250000Y-169750000D03*
D18*
X202025000Y-169700000D03*
%TD*%
D10*
%TO.P,REF\u002A\u002A44,1*%
%TO.N,N/C*%
X301152500Y-264850000D03*
%TO.P,REF\u002A\u002A44,4*%
X301152500Y-265950000D03*
D11*
%TO.P,REF\u002A\u002A44,5*%
X298300000Y-263500000D03*
D12*
X299000000Y-263515000D03*
D13*
X299525000Y-263515000D03*
%TO.P,REF\u002A\u002A44,6*%
%TO.N,LED_input_after_resistor*%
X301275000Y-263515000D03*
D12*
X301650000Y-263515000D03*
D11*
X302400000Y-263500000D03*
%TO.P,REF\u002A\u002A44,7*%
%TO.N,K24*%
X297550000Y-264600000D03*
D14*
X298350000Y-264650000D03*
D10*
X299127500Y-264850000D03*
D15*
X299900000Y-264850000D03*
D16*
X300400000Y-266000000D03*
D17*
X300725000Y-267300000D03*
D18*
X301175000Y-267300000D03*
D11*
%TO.P,REF\u002A\u002A44,8*%
%TO.N,A24*%
X297550000Y-266100000D03*
D14*
X298350000Y-266050000D03*
D10*
X299127500Y-265950000D03*
D11*
%TO.P,REF\u002A\u002A44,9*%
%TO.N,GND*%
X298100000Y-267300000D03*
D12*
X298850000Y-267350000D03*
D18*
X299625000Y-267300000D03*
%TD*%
D10*
%TO.P,REF\u002A\u002A26,1*%
%TO.N,N/C*%
X154752500Y-118450000D03*
%TO.P,REF\u002A\u002A26,4*%
X154752500Y-119550000D03*
D11*
%TO.P,REF\u002A\u002A26,5*%
X151900000Y-117100000D03*
D12*
X152600000Y-117115000D03*
D13*
X153125000Y-117115000D03*
%TO.P,REF\u002A\u002A26,6*%
X154875000Y-117115000D03*
D12*
X155250000Y-117115000D03*
D11*
X156000000Y-117100000D03*
%TO.P,REF\u002A\u002A26,7*%
%TO.N,K6*%
X151150000Y-118200000D03*
D14*
X151950000Y-118250000D03*
D10*
X152727500Y-118450000D03*
D15*
X153500000Y-118450000D03*
D16*
X154000000Y-119600000D03*
D17*
X154325000Y-120900000D03*
D18*
X154775000Y-120900000D03*
D11*
%TO.P,REF\u002A\u002A26,8*%
%TO.N,A6*%
X151150000Y-119700000D03*
D14*
X151950000Y-119650000D03*
D10*
X152727500Y-119550000D03*
D11*
%TO.P,REF\u002A\u002A26,9*%
%TO.N,GND*%
X151700000Y-120900000D03*
D12*
X152450000Y-120950000D03*
D18*
X153225000Y-120900000D03*
%TD*%
D10*
%TO.P,REF\u002A\u002A36,1*%
%TO.N,N/C*%
X154752500Y-216050000D03*
%TO.P,REF\u002A\u002A36,4*%
X154752500Y-217150000D03*
D11*
%TO.P,REF\u002A\u002A36,5*%
X151900000Y-214700000D03*
D12*
X152600000Y-214715000D03*
D13*
X153125000Y-214715000D03*
%TO.P,REF\u002A\u002A36,6*%
X154875000Y-214715000D03*
D12*
X155250000Y-214715000D03*
D11*
X156000000Y-214700000D03*
%TO.P,REF\u002A\u002A36,7*%
%TO.N,K16*%
X151150000Y-215800000D03*
D14*
X151950000Y-215850000D03*
D10*
X152727500Y-216050000D03*
D15*
X153500000Y-216050000D03*
D16*
X154000000Y-217200000D03*
D17*
X154325000Y-218500000D03*
D18*
X154775000Y-218500000D03*
D11*
%TO.P,REF\u002A\u002A36,8*%
%TO.N,A16*%
X151150000Y-217300000D03*
D14*
X151950000Y-217250000D03*
D10*
X152727500Y-217150000D03*
D11*
%TO.P,REF\u002A\u002A36,9*%
%TO.N,GND*%
X151700000Y-218500000D03*
D12*
X152450000Y-218550000D03*
D18*
X153225000Y-218500000D03*
%TD*%
D10*
%TO.P,REF\u002A\u002A20,1*%
%TO.N,N/C*%
X105952500Y-69650000D03*
%TO.P,REF\u002A\u002A20,4*%
X105952500Y-70750000D03*
D11*
%TO.P,REF\u002A\u002A20,5*%
%TO.N,GND*%
X103100000Y-68300000D03*
D12*
X103800000Y-68315000D03*
D13*
X104325000Y-68315000D03*
%TO.P,REF\u002A\u002A20,6*%
%TO.N,N/C*%
X106075000Y-68315000D03*
D12*
X106450000Y-68315000D03*
D11*
X107200000Y-68300000D03*
%TO.P,REF\u002A\u002A20,7*%
%TO.N,K0*%
X102350000Y-69400000D03*
D14*
X103150000Y-69450000D03*
D10*
X103927500Y-69650000D03*
D15*
X104700000Y-69650000D03*
D16*
X105200000Y-70800000D03*
D17*
X105525000Y-72100000D03*
D18*
X105975000Y-72100000D03*
D11*
%TO.P,REF\u002A\u002A20,8*%
%TO.N,A0*%
X102350000Y-70900000D03*
D14*
X103150000Y-70850000D03*
D10*
X103927500Y-70750000D03*
D11*
%TO.P,REF\u002A\u002A20,9*%
%TO.N,GND*%
X102900000Y-72100000D03*
D12*
X103650000Y-72150000D03*
D18*
X104425000Y-72100000D03*
%TD*%
D10*
%TO.P,REF\u002A\u002A25,1*%
%TO.N,N/C*%
X105952500Y-118450000D03*
%TO.P,REF\u002A\u002A25,4*%
X105952500Y-119550000D03*
D11*
%TO.P,REF\u002A\u002A25,5*%
X103100000Y-117100000D03*
D12*
X103800000Y-117115000D03*
D13*
X104325000Y-117115000D03*
%TO.P,REF\u002A\u002A25,6*%
X106075000Y-117115000D03*
D12*
X106450000Y-117115000D03*
D11*
X107200000Y-117100000D03*
%TO.P,REF\u002A\u002A25,7*%
%TO.N,K5*%
X102350000Y-118200000D03*
D14*
X103150000Y-118250000D03*
D10*
X103927500Y-118450000D03*
D15*
X104700000Y-118450000D03*
D16*
X105200000Y-119600000D03*
D17*
X105525000Y-120900000D03*
D18*
X105975000Y-120900000D03*
D11*
%TO.P,REF\u002A\u002A25,8*%
%TO.N,A5*%
X102350000Y-119700000D03*
D14*
X103150000Y-119650000D03*
D10*
X103927500Y-119550000D03*
D11*
%TO.P,REF\u002A\u002A25,9*%
%TO.N,GND*%
X102900000Y-120900000D03*
D12*
X103650000Y-120950000D03*
D18*
X104425000Y-120900000D03*
%TD*%
D10*
%TO.P,REF\u002A\u002A37,1*%
%TO.N,N/C*%
X203552500Y-216050000D03*
%TO.P,REF\u002A\u002A37,4*%
X203552500Y-217150000D03*
D11*
%TO.P,REF\u002A\u002A37,5*%
X200700000Y-214700000D03*
D12*
X201400000Y-214715000D03*
D13*
X201925000Y-214715000D03*
%TO.P,REF\u002A\u002A37,6*%
X203675000Y-214715000D03*
D12*
X204050000Y-214715000D03*
D11*
X204800000Y-214700000D03*
%TO.P,REF\u002A\u002A37,7*%
%TO.N,K17*%
X199950000Y-215800000D03*
D14*
X200750000Y-215850000D03*
D10*
X201527500Y-216050000D03*
D15*
X202300000Y-216050000D03*
D16*
X202800000Y-217200000D03*
D17*
X203125000Y-218500000D03*
D18*
X203575000Y-218500000D03*
D11*
%TO.P,REF\u002A\u002A37,8*%
%TO.N,A17*%
X199950000Y-217300000D03*
D14*
X200750000Y-217250000D03*
D10*
X201527500Y-217150000D03*
D11*
%TO.P,REF\u002A\u002A37,9*%
%TO.N,GND*%
X200500000Y-218500000D03*
D12*
X201250000Y-218550000D03*
D18*
X202025000Y-218500000D03*
%TD*%
D10*
%TO.P,REF\u002A\u002A31,1*%
%TO.N,N/C*%
X154752500Y-167250000D03*
%TO.P,REF\u002A\u002A31,4*%
X154752500Y-168350000D03*
D11*
%TO.P,REF\u002A\u002A31,5*%
X151900000Y-165900000D03*
D12*
X152600000Y-165915000D03*
D13*
X153125000Y-165915000D03*
%TO.P,REF\u002A\u002A31,6*%
X154875000Y-165915000D03*
D12*
X155250000Y-165915000D03*
D11*
X156000000Y-165900000D03*
%TO.P,REF\u002A\u002A31,7*%
%TO.N,K11*%
X151150000Y-167000000D03*
D14*
X151950000Y-167050000D03*
D10*
X152727500Y-167250000D03*
D15*
X153500000Y-167250000D03*
D16*
X154000000Y-168400000D03*
D17*
X154325000Y-169700000D03*
D18*
X154775000Y-169700000D03*
D11*
%TO.P,REF\u002A\u002A31,8*%
%TO.N,A11*%
X151150000Y-168500000D03*
D14*
X151950000Y-168450000D03*
D10*
X152727500Y-168350000D03*
D11*
%TO.P,REF\u002A\u002A31,9*%
%TO.N,GND*%
X151700000Y-169700000D03*
D12*
X152450000Y-169750000D03*
D18*
X153225000Y-169700000D03*
%TD*%
D10*
%TO.P,REF\u002A\u002A27,1*%
%TO.N,N/C*%
X203552500Y-118450000D03*
%TO.P,REF\u002A\u002A27,4*%
X203552500Y-119550000D03*
D11*
%TO.P,REF\u002A\u002A27,5*%
X200700000Y-117100000D03*
D12*
X201400000Y-117115000D03*
D13*
X201925000Y-117115000D03*
%TO.P,REF\u002A\u002A27,6*%
X203675000Y-117115000D03*
D12*
X204050000Y-117115000D03*
D11*
X204800000Y-117100000D03*
%TO.P,REF\u002A\u002A27,7*%
%TO.N,K7*%
X199950000Y-118200000D03*
D14*
X200750000Y-118250000D03*
D10*
X201527500Y-118450000D03*
D15*
X202300000Y-118450000D03*
D16*
X202800000Y-119600000D03*
D17*
X203125000Y-120900000D03*
D18*
X203575000Y-120900000D03*
D11*
%TO.P,REF\u002A\u002A27,8*%
%TO.N,A7*%
X199950000Y-119700000D03*
D14*
X200750000Y-119650000D03*
D10*
X201527500Y-119550000D03*
D11*
%TO.P,REF\u002A\u002A27,9*%
%TO.N,GND*%
X200500000Y-120900000D03*
D12*
X201250000Y-120950000D03*
D18*
X202025000Y-120900000D03*
%TD*%
D10*
%TO.P,REF\u002A\u002A41,1*%
%TO.N,N/C*%
X154752500Y-264850000D03*
%TO.P,REF\u002A\u002A41,4*%
X154752500Y-265950000D03*
D11*
%TO.P,REF\u002A\u002A41,5*%
X151900000Y-263500000D03*
D12*
X152600000Y-263515000D03*
D13*
X153125000Y-263515000D03*
%TO.P,REF\u002A\u002A41,6*%
X154875000Y-263515000D03*
D12*
X155250000Y-263515000D03*
D11*
X156000000Y-263500000D03*
%TO.P,REF\u002A\u002A41,7*%
%TO.N,K21*%
X151150000Y-264600000D03*
D14*
X151950000Y-264650000D03*
D10*
X152727500Y-264850000D03*
D15*
X153500000Y-264850000D03*
D16*
X154000000Y-266000000D03*
D17*
X154325000Y-267300000D03*
D18*
X154775000Y-267300000D03*
D11*
%TO.P,REF\u002A\u002A41,8*%
%TO.N,A21*%
X151150000Y-266100000D03*
D14*
X151950000Y-266050000D03*
D10*
X152727500Y-265950000D03*
D11*
%TO.P,REF\u002A\u002A41,9*%
%TO.N,GND*%
X151700000Y-267300000D03*
D12*
X152450000Y-267350000D03*
D18*
X153225000Y-267300000D03*
%TD*%
D10*
%TO.P,REF\u002A\u002A29,1*%
%TO.N,N/C*%
X301152500Y-118450000D03*
%TO.P,REF\u002A\u002A29,4*%
X301152500Y-119550000D03*
D11*
%TO.P,REF\u002A\u002A29,5*%
X298300000Y-117100000D03*
D12*
X299000000Y-117115000D03*
D13*
X299525000Y-117115000D03*
%TO.P,REF\u002A\u002A29,6*%
X301275000Y-117115000D03*
D12*
X301650000Y-117115000D03*
D11*
X302400000Y-117100000D03*
%TO.P,REF\u002A\u002A29,7*%
%TO.N,K9*%
X297550000Y-118200000D03*
D14*
X298350000Y-118250000D03*
D10*
X299127500Y-118450000D03*
D15*
X299900000Y-118450000D03*
D16*
X300400000Y-119600000D03*
D17*
X300725000Y-120900000D03*
D18*
X301175000Y-120900000D03*
D11*
%TO.P,REF\u002A\u002A29,8*%
%TO.N,A9*%
X297550000Y-119700000D03*
D14*
X298350000Y-119650000D03*
D10*
X299127500Y-119550000D03*
D11*
%TO.P,REF\u002A\u002A29,9*%
%TO.N,GND*%
X298100000Y-120900000D03*
D12*
X298850000Y-120950000D03*
D18*
X299625000Y-120900000D03*
%TD*%
D19*
%TO.P,REF\u002A\u002A,1*%
%TO.N,LED_input*%
X70500000Y-320000000D03*
D20*
%TO.P,REF\u002A\u002A,2*%
%TO.N,GND*%
X67960000Y-322540000D03*
X73040000Y-322540000D03*
X67960000Y-317460000D03*
X73040000Y-317460000D03*
%TD*%
D21*
%TO.P,50 \u03A9,1*%
%TO.N,LED_input*%
X69037500Y-313600000D03*
%TO.P,50 \u03A9,2*%
%TO.N,LED_input_after_resistor*%
X71962500Y-313600000D03*
%TD*%
D10*
%TO.P,REF\u002A\u002A21,1*%
%TO.N,N/C*%
X154752500Y-69650000D03*
%TO.P,REF\u002A\u002A21,4*%
X154752500Y-70750000D03*
D11*
%TO.P,REF\u002A\u002A21,5*%
X151900000Y-68300000D03*
D12*
X152600000Y-68315000D03*
D13*
X153125000Y-68315000D03*
%TO.P,REF\u002A\u002A21,6*%
X154875000Y-68315000D03*
D12*
X155250000Y-68315000D03*
D11*
X156000000Y-68300000D03*
%TO.P,REF\u002A\u002A21,7*%
%TO.N,K1*%
X151150000Y-69400000D03*
D14*
X151950000Y-69450000D03*
D10*
X152727500Y-69650000D03*
D15*
X153500000Y-69650000D03*
D16*
X154000000Y-70800000D03*
D17*
X154325000Y-72100000D03*
D18*
X154775000Y-72100000D03*
D11*
%TO.P,REF\u002A\u002A21,8*%
%TO.N,A1*%
X151150000Y-70900000D03*
D14*
X151950000Y-70850000D03*
D10*
X152727500Y-70750000D03*
D11*
%TO.P,REF\u002A\u002A21,9*%
%TO.N,GND*%
X151700000Y-72100000D03*
D12*
X152450000Y-72150000D03*
D18*
X153225000Y-72100000D03*
%TD*%
D10*
%TO.P,REF\u002A\u002A42,1*%
%TO.N,N/C*%
X203552500Y-264850000D03*
%TO.P,REF\u002A\u002A42,4*%
X203552500Y-265950000D03*
D11*
%TO.P,REF\u002A\u002A42,5*%
X200700000Y-263500000D03*
D12*
X201400000Y-263515000D03*
D13*
X201925000Y-263515000D03*
%TO.P,REF\u002A\u002A42,6*%
X203675000Y-263515000D03*
D12*
X204050000Y-263515000D03*
D11*
X204800000Y-263500000D03*
%TO.P,REF\u002A\u002A42,7*%
%TO.N,K22*%
X199950000Y-264600000D03*
D14*
X200750000Y-264650000D03*
D10*
X201527500Y-264850000D03*
D15*
X202300000Y-264850000D03*
D16*
X202800000Y-266000000D03*
D17*
X203125000Y-267300000D03*
D18*
X203575000Y-267300000D03*
D11*
%TO.P,REF\u002A\u002A42,8*%
%TO.N,A22*%
X199950000Y-266100000D03*
D14*
X200750000Y-266050000D03*
D10*
X201527500Y-265950000D03*
D11*
%TO.P,REF\u002A\u002A42,9*%
%TO.N,GND*%
X200500000Y-267300000D03*
D12*
X201250000Y-267350000D03*
D18*
X202025000Y-267300000D03*
%TD*%
D10*
%TO.P,REF\u002A\u002A35,1*%
%TO.N,N/C*%
X105952500Y-216050000D03*
%TO.P,REF\u002A\u002A35,4*%
X105952500Y-217150000D03*
D11*
%TO.P,REF\u002A\u002A35,5*%
X103100000Y-214700000D03*
D12*
X103800000Y-214715000D03*
D13*
X104325000Y-214715000D03*
%TO.P,REF\u002A\u002A35,6*%
X106075000Y-214715000D03*
D12*
X106450000Y-214715000D03*
D11*
X107200000Y-214700000D03*
%TO.P,REF\u002A\u002A35,7*%
%TO.N,K15*%
X102350000Y-215800000D03*
D14*
X103150000Y-215850000D03*
D10*
X103927500Y-216050000D03*
D15*
X104700000Y-216050000D03*
D16*
X105200000Y-217200000D03*
D17*
X105525000Y-218500000D03*
D18*
X105975000Y-218500000D03*
D11*
%TO.P,REF\u002A\u002A35,8*%
%TO.N,A15*%
X102350000Y-217300000D03*
D14*
X103150000Y-217250000D03*
D10*
X103927500Y-217150000D03*
D11*
%TO.P,REF\u002A\u002A35,9*%
%TO.N,GND*%
X102900000Y-218500000D03*
D12*
X103650000Y-218550000D03*
D18*
X104425000Y-218500000D03*
%TD*%
D10*
%TO.P,REF\u002A\u002A39,1*%
%TO.N,N/C*%
X301152500Y-216050000D03*
%TO.P,REF\u002A\u002A39,4*%
X301152500Y-217150000D03*
D11*
%TO.P,REF\u002A\u002A39,5*%
X298300000Y-214700000D03*
D12*
X299000000Y-214715000D03*
D13*
X299525000Y-214715000D03*
%TO.P,REF\u002A\u002A39,6*%
X301275000Y-214715000D03*
D12*
X301650000Y-214715000D03*
D11*
X302400000Y-214700000D03*
%TO.P,REF\u002A\u002A39,7*%
%TO.N,K19*%
X297550000Y-215800000D03*
D14*
X298350000Y-215850000D03*
D10*
X299127500Y-216050000D03*
D15*
X299900000Y-216050000D03*
D16*
X300400000Y-217200000D03*
D17*
X300725000Y-218500000D03*
D18*
X301175000Y-218500000D03*
D11*
%TO.P,REF\u002A\u002A39,8*%
%TO.N,A19*%
X297550000Y-217300000D03*
D14*
X298350000Y-217250000D03*
D10*
X299127500Y-217150000D03*
D11*
%TO.P,REF\u002A\u002A39,9*%
%TO.N,GND*%
X298100000Y-218500000D03*
D12*
X298850000Y-218550000D03*
D18*
X299625000Y-218500000D03*
%TD*%
D10*
%TO.P,REF\u002A\u002A33,1*%
%TO.N,N/C*%
X252352500Y-167250000D03*
%TO.P,REF\u002A\u002A33,4*%
X252352500Y-168350000D03*
D11*
%TO.P,REF\u002A\u002A33,5*%
X249500000Y-165900000D03*
D12*
X250200000Y-165915000D03*
D13*
X250725000Y-165915000D03*
%TO.P,REF\u002A\u002A33,6*%
X252475000Y-165915000D03*
D12*
X252850000Y-165915000D03*
D11*
X253600000Y-165900000D03*
%TO.P,REF\u002A\u002A33,7*%
%TO.N,K13*%
X248750000Y-167000000D03*
D14*
X249550000Y-167050000D03*
D10*
X250327500Y-167250000D03*
D15*
X251100000Y-167250000D03*
D16*
X251600000Y-168400000D03*
D17*
X251925000Y-169700000D03*
D18*
X252375000Y-169700000D03*
D11*
%TO.P,REF\u002A\u002A33,8*%
%TO.N,A13*%
X248750000Y-168500000D03*
D14*
X249550000Y-168450000D03*
D10*
X250327500Y-168350000D03*
D11*
%TO.P,REF\u002A\u002A33,9*%
%TO.N,GND*%
X249300000Y-169700000D03*
D12*
X250050000Y-169750000D03*
D18*
X250825000Y-169700000D03*
%TD*%
D22*
%TO.P,REF\u002A\u002A,S1*%
%TO.N,N/C*%
X70000000Y-40505000D03*
%TO.P,REF\u002A\u002A,S2*%
X70000000Y-59495000D03*
%TD*%
%TO.P,REF\u002A\u002A,S1*%
%TO.N,N/C*%
X70000000Y-160505000D03*
%TO.P,REF\u002A\u002A,S2*%
X70000000Y-179495000D03*
%TD*%
D23*
%TO.N,GND*%
X67000000Y-176400000D03*
%TO.N,K0*%
X67000000Y-43600000D03*
X81200000Y-43600000D03*
%TO.N,K1*%
X79200000Y-45400000D03*
X67000000Y-44400000D03*
%TO.N,K2*%
X67000000Y-45200000D03*
X79200000Y-47200000D03*
%TO.N,K3*%
X67000000Y-46000000D03*
X76800000Y-46400000D03*
%TO.N,K4*%
X67000000Y-46800000D03*
X78200000Y-49800000D03*
%TO.N,K5*%
X67000000Y-47600000D03*
X76800000Y-50200000D03*
%TO.N,K6*%
X67000000Y-51600000D03*
X79800000Y-55200000D03*
%TO.N,K7*%
X67000000Y-52400000D03*
X78000000Y-54400000D03*
%TO.N,K8*%
X80185785Y-58414215D03*
X67000000Y-53200000D03*
%TO.N,K9*%
X67000000Y-54000000D03*
X79881619Y-62318381D03*
%TO.N,K10*%
X77400000Y-57400000D03*
X67000000Y-54800000D03*
%TO.N,K11*%
X76200000Y-58600000D03*
X67000000Y-55600000D03*
%TO.N,K12*%
X78200000Y-65200000D03*
X67000000Y-56400000D03*
%TO.N,K14*%
X79200000Y-165200000D03*
X67000000Y-164400000D03*
%TO.N,K13*%
X79400000Y-163600000D03*
X67000000Y-163600000D03*
%TO.N,K15*%
X67000000Y-165200000D03*
X78400000Y-166600000D03*
%TO.N,K16*%
X79407108Y-169592892D03*
X67000000Y-166000000D03*
%TO.N,K17*%
X67000000Y-166800000D03*
X80200000Y-172200000D03*
%TO.N,K18*%
X67000000Y-167600000D03*
X79351471Y-173048529D03*
%TO.N,K19*%
X79400000Y-176800000D03*
X67000000Y-171600000D03*
%TO.N,K20*%
X67000000Y-172400000D03*
X78200000Y-174200000D03*
%TO.N,K21*%
X67000000Y-173200000D03*
X77400000Y-176200000D03*
%TO.N,K22*%
X76200000Y-176400000D03*
X67000000Y-174000000D03*
%TO.N,K23*%
X67000000Y-174800000D03*
X75800000Y-178400000D03*
%TO.N,K24*%
X77654661Y-181345340D03*
X67000000Y-175600000D03*
D24*
%TO.N,LED_input_after_resistor*%
X73600000Y-313200000D03*
%TD*%
D25*
%TO.N,GND*%
X73040000Y-322540000D02*
X73040000Y-317460000D01*
X67960000Y-322540000D02*
X67960000Y-317460000D01*
X67000000Y-311600000D02*
X76800000Y-311600000D01*
D26*
X72600000Y-322000000D02*
X72175000Y-322425000D01*
D25*
X67960000Y-317460000D02*
X67000000Y-316500000D01*
X81000000Y-185539208D02*
X74600000Y-179139208D01*
X76800000Y-253550000D02*
X81000000Y-249350000D01*
X81000000Y-269350000D02*
X81000000Y-185539208D01*
X74600000Y-179139208D02*
X74600000Y-176400000D01*
X74600000Y-176400000D02*
X67000000Y-176400000D01*
X76800000Y-311600000D02*
X76800000Y-253550000D01*
X67000000Y-316500000D02*
X67000000Y-311600000D01*
X67960000Y-322540000D02*
X73040000Y-322540000D01*
%TO.N,K0*%
X81200000Y-43600000D02*
X67000000Y-43600000D01*
%TO.N,K1*%
X78200000Y-44400000D02*
X79200000Y-45400000D01*
X67000000Y-44400000D02*
X78200000Y-44400000D01*
%TO.N,K2*%
X79200000Y-47200000D02*
X78951470Y-47200000D01*
X76951470Y-45200000D02*
X67000000Y-45200000D01*
X78951470Y-47200000D02*
X76951470Y-45200000D01*
%TO.N,K3*%
X76400000Y-46000000D02*
X76800000Y-46400000D01*
X67000000Y-46000000D02*
X76400000Y-46000000D01*
%TO.N,K4*%
X78200000Y-49800000D02*
X78200000Y-49600000D01*
X75400000Y-46800000D02*
X67000000Y-46800000D01*
X78200000Y-49800000D02*
X78400000Y-49800000D01*
X78200000Y-49600000D02*
X75400000Y-46800000D01*
X78400000Y-49800000D02*
X78400000Y-49800000D01*
%TO.N,K5*%
X74200000Y-47600000D02*
X76800000Y-50200000D01*
X67000000Y-47600000D02*
X74200000Y-47600000D01*
%TO.N,K6*%
X76200000Y-51600000D02*
X67000000Y-51600000D01*
X79800000Y-55200000D02*
X76200000Y-51600000D01*
%TO.N,K7*%
X67000000Y-52400000D02*
X76000000Y-52400000D01*
X76000000Y-52400000D02*
X78000000Y-54400000D01*
%TO.N,K8*%
X74971570Y-53200000D02*
X67000000Y-53200000D01*
X80185785Y-58414215D02*
X74971570Y-53200000D01*
%TO.N,K9*%
X79881619Y-62318381D02*
X78600000Y-61036762D01*
X78600000Y-61036762D02*
X78600000Y-57751471D01*
X78600000Y-57751471D02*
X74848529Y-54000000D01*
X74848529Y-54000000D02*
X67000000Y-54000000D01*
%TO.N,K10*%
X74800000Y-54800000D02*
X77400000Y-57400000D01*
X67000000Y-54800000D02*
X74800000Y-54800000D01*
%TO.N,K11*%
X67000000Y-55600000D02*
X73200000Y-55600000D01*
X73200000Y-55600000D02*
X76200000Y-58600000D01*
%TO.N,K12*%
X76500000Y-60300000D02*
X72600000Y-56400000D01*
X76500000Y-63500000D02*
X76500000Y-60300000D01*
X78200000Y-65200000D02*
X76500000Y-63500000D01*
X72600000Y-56400000D02*
X67000000Y-56400000D01*
%TO.N,K14*%
X79200000Y-165200000D02*
X78400000Y-164400000D01*
X78400000Y-164400000D02*
X67000000Y-164400000D01*
%TO.N,K13*%
X67000000Y-163600000D02*
X79400000Y-163600000D01*
%TO.N,K15*%
X67000000Y-165200000D02*
X77000000Y-165200000D01*
X77000000Y-165200000D02*
X78400000Y-166600000D01*
%TO.N,K16*%
X79407108Y-169592892D02*
X75814216Y-166000000D01*
X75814216Y-166000000D02*
X67000000Y-166000000D01*
%TO.N,K17*%
X67000000Y-166800000D02*
X74751471Y-166800000D01*
X80151471Y-172200000D02*
X80200000Y-172200000D01*
X74751471Y-166800000D02*
X80151471Y-172200000D01*
X80200000Y-172248529D02*
X80200000Y-172200000D01*
X80200000Y-172248529D02*
X80200000Y-172248529D01*
%TO.N,K18*%
X79351471Y-173048529D02*
X79351471Y-171965686D01*
X79351471Y-171965686D02*
X74985785Y-167600000D01*
X74985785Y-167600000D02*
X67000000Y-167600000D01*
%TO.N,K19*%
X67000000Y-171600000D02*
X76799999Y-171600000D01*
X79400000Y-174200001D02*
X79400000Y-176800000D01*
X76799999Y-171600000D02*
X79400000Y-174200001D01*
%TO.N,K20*%
X76400000Y-172400000D02*
X78200000Y-174200000D01*
X67000000Y-172400000D02*
X76400000Y-172400000D01*
%TO.N,K21*%
X67000000Y-173200000D02*
X75165685Y-173200000D01*
X77400000Y-175434315D02*
X77400000Y-176200000D01*
X75165685Y-173200000D02*
X77400000Y-175434315D01*
%TO.N,K22*%
X67000000Y-174000000D02*
X75000000Y-174000000D01*
X75000000Y-174000000D02*
X76200000Y-175200000D01*
X76200000Y-175200000D02*
X76200000Y-176400000D01*
%TO.N,K23*%
X67000000Y-174800000D02*
X75234314Y-174800000D01*
X75234314Y-174800000D02*
X75600000Y-175165686D01*
X75600000Y-175165686D02*
X75600000Y-176648529D01*
X75600000Y-176648529D02*
X75800000Y-176848529D01*
X75800000Y-176848529D02*
X75800000Y-178400000D01*
%TO.N,K24*%
X77654661Y-181345340D02*
X77654661Y-181103190D01*
X75000000Y-178448529D02*
X75000000Y-175600000D01*
X77654661Y-181103190D02*
X75000000Y-178448529D01*
X75000000Y-175600000D02*
X67000000Y-175600000D01*
%TO.N,LED_input*%
X70500000Y-320000000D02*
X70500000Y-315062500D01*
X70500000Y-315062500D02*
X69037500Y-313600000D01*
D26*
%TO.N,LED_input_after_resistor*%
X73600000Y-313200000D02*
X73200000Y-313600000D01*
X73200000Y-313600000D02*
X71962500Y-313600000D01*
%TD*%
M02*
