%TF.GenerationSoftware,KiCad,Pcbnew,8.0.2-1*%
%TF.CreationDate,2024-06-18T10:27:21-04:00*%
%TF.ProjectId,Untitled,556e7469-746c-4656-942e-6b696361645f,rev?*%
%TF.SameCoordinates,Original*%
%TF.FileFunction,Drillmap*%
%TF.FilePolarity,Positive*%
%FSLAX45Y45*%
G04 Gerber Fmt 4.5, Leading zero omitted, Abs format (unit mm)*
G04 Created by KiCad (PCBNEW 8.0.2-1) date 2024-06-18 10:27:21*
%MOMM*%
%LPD*%
G01*
G04 APERTURE LIST*
%ADD10C,0.100000*%
%ADD11C,0.050000*%
%ADD12C,0.200000*%
G04 APERTURE END LIST*
D10*
X14735000Y-7350000D02*
G75*
G02*
X15150000Y-7765000I0J-415000D01*
G01*
D11*
X15150000Y-7765000D02*
X15150000Y-12235000D01*
D10*
X4850000Y-7765000D02*
G75*
G02*
X5265000Y-7350000I415000J0D01*
G01*
D11*
X5265000Y-12650000D02*
X14735000Y-12650000D01*
X5265000Y-7350000D02*
X14735000Y-7350000D01*
X4850000Y-7765000D02*
X4850000Y-12235000D01*
X5445000Y-12235000D02*
G75*
G02*
X5085000Y-12235000I-180000J0D01*
G01*
X5085000Y-12235000D02*
G75*
G02*
X5445000Y-12235000I180000J0D01*
G01*
X14915000Y-12235000D02*
G75*
G02*
X14555000Y-12235000I-180000J0D01*
G01*
X14555000Y-12235000D02*
G75*
G02*
X14915000Y-12235000I180000J0D01*
G01*
X14915000Y-7765000D02*
G75*
G02*
X14555000Y-7765000I-180000J0D01*
G01*
X14555000Y-7765000D02*
G75*
G02*
X14915000Y-7765000I180000J0D01*
G01*
X5265000Y-12650000D02*
G75*
G02*
X4850000Y-12235000I0J415000D01*
G01*
D10*
X15150000Y-12235000D02*
G75*
G02*
X14735000Y-12650000I-415000J0D01*
G01*
D11*
X5445000Y-7765000D02*
G75*
G02*
X5085000Y-7765000I-180000J0D01*
G01*
X5085000Y-7765000D02*
G75*
G02*
X5445000Y-7765000I180000J0D01*
G01*
D12*
D10*
X6285000Y-8045000D02*
X6315000Y-8075000D01*
X6315000Y-8045000D02*
X6285000Y-8075000D01*
X6285000Y-9005000D02*
X6315000Y-9035000D01*
X6315000Y-9005000D02*
X6285000Y-9035000D01*
X6365000Y-8045000D02*
X6395000Y-8075000D01*
X6395000Y-8045000D02*
X6365000Y-8075000D01*
X6445000Y-8045000D02*
X6475000Y-8075000D01*
X6475000Y-8045000D02*
X6445000Y-8075000D01*
X6525000Y-8045000D02*
X6555000Y-8075000D01*
X6555000Y-8045000D02*
X6525000Y-8075000D01*
X6565000Y-9065000D02*
X6595000Y-9095000D01*
X6595000Y-9065000D02*
X6565000Y-9095000D01*
X6605000Y-8045000D02*
X6635000Y-8075000D01*
X6635000Y-8045000D02*
X6605000Y-8075000D01*
X6945000Y-9345000D02*
X6975000Y-9375000D01*
X6975000Y-9345000D02*
X6945000Y-9375000D01*
X7065000Y-10425000D02*
X7095000Y-10455000D01*
X7095000Y-10425000D02*
X7065000Y-10455000D01*
X7141976Y-8965000D02*
X7171976Y-8995000D01*
X7171976Y-8965000D02*
X7141976Y-8995000D01*
X7145000Y-10425000D02*
X7175000Y-10455000D01*
X7175000Y-10425000D02*
X7145000Y-10455000D01*
X7165000Y-8025000D02*
X7195000Y-8055000D01*
X7195000Y-8025000D02*
X7165000Y-8055000D01*
X7225000Y-10425000D02*
X7255000Y-10455000D01*
X7255000Y-10425000D02*
X7225000Y-10455000D01*
X7245000Y-8025000D02*
X7275000Y-8055000D01*
X7275000Y-8025000D02*
X7245000Y-8055000D01*
X7245000Y-9245000D02*
X7275000Y-9275000D01*
X7275000Y-9245000D02*
X7245000Y-9275000D01*
X7305000Y-10425000D02*
X7335000Y-10455000D01*
X7335000Y-10425000D02*
X7305000Y-10455000D01*
X7325000Y-8025000D02*
X7355000Y-8055000D01*
X7355000Y-8025000D02*
X7325000Y-8055000D01*
X7365000Y-9450000D02*
X7395000Y-9480000D01*
X7395000Y-9450000D02*
X7365000Y-9480000D01*
X7385000Y-10425000D02*
X7415000Y-10455000D01*
X7415000Y-10425000D02*
X7385000Y-10455000D01*
X7405000Y-8025000D02*
X7435000Y-8055000D01*
X7435000Y-8025000D02*
X7405000Y-8055000D01*
X7465000Y-10425000D02*
X7495000Y-10455000D01*
X7495000Y-10425000D02*
X7465000Y-10455000D01*
X7485000Y-8025000D02*
X7515000Y-8055000D01*
X7515000Y-8025000D02*
X7485000Y-8055000D01*
X7487426Y-9142574D02*
X7517426Y-9172574D01*
X7517426Y-9142574D02*
X7487426Y-9172574D01*
X7525000Y-8985000D02*
X7555000Y-9015000D01*
X7555000Y-8985000D02*
X7525000Y-9015000D01*
X7545000Y-10425000D02*
X7575000Y-10455000D01*
X7575000Y-10425000D02*
X7545000Y-10455000D01*
X7625000Y-10425000D02*
X7655000Y-10455000D01*
X7655000Y-10425000D02*
X7625000Y-10455000D01*
X7705000Y-10425000D02*
X7735000Y-10455000D01*
X7735000Y-10425000D02*
X7705000Y-10455000D01*
X7775000Y-9095000D02*
X7805000Y-9125000D01*
X7805000Y-9095000D02*
X7775000Y-9125000D01*
X7785000Y-10425000D02*
X7815000Y-10455000D01*
X7815000Y-10425000D02*
X7785000Y-10455000D01*
X7865000Y-10425000D02*
X7895000Y-10455000D01*
X7895000Y-10425000D02*
X7865000Y-10455000D01*
X7877500Y-9212500D02*
X7907500Y-9242500D01*
X7907500Y-9212500D02*
X7877500Y-9242500D01*
X7895000Y-9295000D02*
X7925000Y-9325000D01*
X7925000Y-9295000D02*
X7895000Y-9325000D01*
X7905000Y-10645000D02*
X7935000Y-10675000D01*
X7935000Y-10645000D02*
X7905000Y-10675000D01*
X7925000Y-11925000D02*
X7955000Y-11955000D01*
X7955000Y-11925000D02*
X7925000Y-11955000D01*
X7945000Y-10425000D02*
X7975000Y-10455000D01*
X7975000Y-10425000D02*
X7945000Y-10455000D01*
X8005000Y-11925000D02*
X8035000Y-11955000D01*
X8035000Y-11925000D02*
X8005000Y-11955000D01*
X8015000Y-10635000D02*
X8045000Y-10665000D01*
X8045000Y-10635000D02*
X8015000Y-10665000D01*
X8045000Y-9345000D02*
X8075000Y-9375000D01*
X8075000Y-9345000D02*
X8045000Y-9375000D01*
X8065000Y-11005000D02*
X8095000Y-11035000D01*
X8095000Y-11005000D02*
X8065000Y-11035000D01*
X8085000Y-11925000D02*
X8115000Y-11955000D01*
X8115000Y-11925000D02*
X8085000Y-11955000D01*
X8115000Y-10675000D02*
X8145000Y-10705000D01*
X8145000Y-10675000D02*
X8115000Y-10705000D01*
X8125000Y-8925000D02*
X8155000Y-8955000D01*
X8155000Y-8925000D02*
X8125000Y-8955000D01*
X8165000Y-11925000D02*
X8195000Y-11955000D01*
X8195000Y-11925000D02*
X8165000Y-11955000D01*
X8185000Y-9525000D02*
X8215000Y-9555000D01*
X8215000Y-9525000D02*
X8185000Y-9555000D01*
X8185000Y-10985000D02*
X8215000Y-11015000D01*
X8215000Y-10985000D02*
X8185000Y-11015000D01*
X8225000Y-8985000D02*
X8255000Y-9015000D01*
X8255000Y-8985000D02*
X8225000Y-9015000D01*
X8245000Y-11925000D02*
X8275000Y-11955000D01*
X8275000Y-11925000D02*
X8245000Y-11955000D01*
X8265000Y-9525000D02*
X8295000Y-9555000D01*
X8295000Y-9525000D02*
X8265000Y-9555000D01*
X8345000Y-9525000D02*
X8375000Y-9555000D01*
X8375000Y-9525000D02*
X8345000Y-9555000D01*
X8425000Y-9525000D02*
X8455000Y-9555000D01*
X8455000Y-9525000D02*
X8425000Y-9555000D01*
X8425000Y-10825000D02*
X8455000Y-10855000D01*
X8455000Y-10825000D02*
X8425000Y-10855000D01*
X8505000Y-9525000D02*
X8535000Y-9555000D01*
X8535000Y-9525000D02*
X8505000Y-9555000D01*
X8505000Y-10865000D02*
X8535000Y-10895000D01*
X8535000Y-10865000D02*
X8505000Y-10895000D01*
X8585000Y-9525000D02*
X8615000Y-9555000D01*
X8615000Y-9525000D02*
X8585000Y-9555000D01*
X8585000Y-10985000D02*
X8615000Y-11015000D01*
X8615000Y-10985000D02*
X8585000Y-11015000D01*
X8645000Y-11045000D02*
X8675000Y-11075000D01*
X8675000Y-11045000D02*
X8645000Y-11075000D01*
X8665000Y-9525000D02*
X8695000Y-9555000D01*
X8695000Y-9525000D02*
X8665000Y-9555000D01*
X8725000Y-11045000D02*
X8755000Y-11075000D01*
X8755000Y-11045000D02*
X8725000Y-11075000D01*
X8725000Y-11925000D02*
X8755000Y-11955000D01*
X8755000Y-11925000D02*
X8725000Y-11955000D01*
X8745000Y-9525000D02*
X8775000Y-9555000D01*
X8775000Y-9525000D02*
X8745000Y-9555000D01*
X8805000Y-10770147D02*
X8835000Y-10800147D01*
X8835000Y-10770147D02*
X8805000Y-10800147D01*
X8805000Y-11925000D02*
X8835000Y-11955000D01*
X8835000Y-11925000D02*
X8805000Y-11955000D01*
X8825000Y-9525000D02*
X8855000Y-9555000D01*
X8855000Y-9525000D02*
X8825000Y-9555000D01*
X8837403Y-10697003D02*
X8867403Y-10727003D01*
X8867403Y-10697003D02*
X8837403Y-10727003D01*
X8885000Y-11925000D02*
X8915000Y-11955000D01*
X8915000Y-11925000D02*
X8885000Y-11955000D01*
X8905000Y-9525000D02*
X8935000Y-9555000D01*
X8935000Y-9525000D02*
X8905000Y-9555000D01*
X8965000Y-10585000D02*
X8995000Y-10615000D01*
X8995000Y-10585000D02*
X8965000Y-10615000D01*
X8965000Y-11925000D02*
X8995000Y-11955000D01*
X8995000Y-11925000D02*
X8965000Y-11955000D01*
X8967427Y-10722574D02*
X8997427Y-10752574D01*
X8997427Y-10722574D02*
X8967427Y-10752574D01*
X8985000Y-9525000D02*
X9015000Y-9555000D01*
X9015000Y-9525000D02*
X8985000Y-9555000D01*
X9045000Y-11925000D02*
X9075000Y-11955000D01*
X9075000Y-11925000D02*
X9045000Y-11955000D01*
X9065000Y-9285000D02*
X9095000Y-9315000D01*
X9095000Y-9285000D02*
X9065000Y-9315000D01*
X9065000Y-9525000D02*
X9095000Y-9555000D01*
X9095000Y-9525000D02*
X9065000Y-9555000D01*
X9145000Y-9265000D02*
X9175000Y-9295000D01*
X9175000Y-9265000D02*
X9145000Y-9295000D01*
X9145000Y-10425000D02*
X9175000Y-10455000D01*
X9175000Y-10425000D02*
X9145000Y-10455000D01*
X9160624Y-10631564D02*
X9190624Y-10661564D01*
X9190624Y-10631564D02*
X9160624Y-10661564D01*
X9205000Y-10565000D02*
X9235000Y-10595000D01*
X9235000Y-10565000D02*
X9205000Y-10595000D01*
X9225000Y-10425000D02*
X9255000Y-10455000D01*
X9255000Y-10425000D02*
X9225000Y-10455000D01*
X9305000Y-10425000D02*
X9335000Y-10455000D01*
X9335000Y-10425000D02*
X9305000Y-10455000D01*
X9345000Y-8025000D02*
X9375000Y-8055000D01*
X9375000Y-8025000D02*
X9345000Y-8055000D01*
X9385000Y-10425000D02*
X9415000Y-10455000D01*
X9415000Y-10425000D02*
X9385000Y-10455000D01*
X9425000Y-8025000D02*
X9455000Y-8055000D01*
X9455000Y-8025000D02*
X9425000Y-8055000D01*
X9465000Y-9085000D02*
X9495000Y-9115000D01*
X9495000Y-9085000D02*
X9465000Y-9115000D01*
X9505000Y-8025000D02*
X9535000Y-8055000D01*
X9535000Y-8025000D02*
X9505000Y-8055000D01*
X9505000Y-8945000D02*
X9535000Y-8975000D01*
X9535000Y-8945000D02*
X9505000Y-8975000D01*
X9585000Y-8025000D02*
X9615000Y-8055000D01*
X9615000Y-8025000D02*
X9585000Y-8055000D01*
X9636450Y-9095870D02*
X9666450Y-9125870D01*
X9666450Y-9095870D02*
X9636450Y-9125870D01*
X9665000Y-8025000D02*
X9695000Y-8055000D01*
X9695000Y-8025000D02*
X9665000Y-8055000D01*
X9745000Y-8925000D02*
X9775000Y-8955000D01*
X9775000Y-8925000D02*
X9745000Y-8955000D01*
X9765000Y-9185000D02*
X9795000Y-9215000D01*
X9795000Y-9185000D02*
X9765000Y-9215000D01*
X9845000Y-9305000D02*
X9875000Y-9335000D01*
X9875000Y-9305000D02*
X9845000Y-9335000D01*
X9945000Y-10425000D02*
X9975000Y-10455000D01*
X9975000Y-10425000D02*
X9945000Y-10455000D01*
X10025000Y-10425000D02*
X10055000Y-10455000D01*
X10055000Y-10425000D02*
X10025000Y-10455000D01*
X10045000Y-9025000D02*
X10075000Y-9055000D01*
X10075000Y-9025000D02*
X10045000Y-9055000D01*
X10105000Y-9085000D02*
X10135000Y-9115000D01*
X10135000Y-9085000D02*
X10105000Y-9115000D01*
X10105000Y-10425000D02*
X10135000Y-10455000D01*
X10135000Y-10425000D02*
X10105000Y-10455000D01*
X10185000Y-9325000D02*
X10215000Y-9355000D01*
X10215000Y-9325000D02*
X10185000Y-9355000D01*
X10185000Y-10425000D02*
X10215000Y-10455000D01*
X10215000Y-10425000D02*
X10185000Y-10455000D01*
X10225000Y-8005000D02*
X10255000Y-8035000D01*
X10255000Y-8005000D02*
X10225000Y-8035000D01*
X10245000Y-9165000D02*
X10275000Y-9195000D01*
X10275000Y-9165000D02*
X10245000Y-9195000D01*
X10265000Y-10425000D02*
X10295000Y-10455000D01*
X10295000Y-10425000D02*
X10265000Y-10455000D01*
X10305000Y-8005000D02*
X10335000Y-8035000D01*
X10335000Y-8005000D02*
X10305000Y-8035000D01*
X10345000Y-10425000D02*
X10375000Y-10455000D01*
X10375000Y-10425000D02*
X10345000Y-10455000D01*
X10385000Y-8005000D02*
X10415000Y-8035000D01*
X10415000Y-8005000D02*
X10385000Y-8035000D01*
X10425000Y-9525000D02*
X10455000Y-9555000D01*
X10455000Y-9525000D02*
X10425000Y-9555000D01*
X10465000Y-8005000D02*
X10495000Y-8035000D01*
X10495000Y-8005000D02*
X10465000Y-8035000D01*
X10465000Y-9205000D02*
X10495000Y-9235000D01*
X10495000Y-9205000D02*
X10465000Y-9235000D01*
X10465000Y-9325000D02*
X10495000Y-9355000D01*
X10495000Y-9325000D02*
X10465000Y-9355000D01*
X10505000Y-9525000D02*
X10535000Y-9555000D01*
X10535000Y-9525000D02*
X10505000Y-9555000D01*
X10545000Y-8005000D02*
X10575000Y-8035000D01*
X10575000Y-8005000D02*
X10545000Y-8035000D01*
X10585000Y-9525000D02*
X10615000Y-9555000D01*
X10615000Y-9525000D02*
X10585000Y-9555000D01*
X10585000Y-10825000D02*
X10615000Y-10855000D01*
X10615000Y-10825000D02*
X10585000Y-10855000D01*
X10625000Y-8005000D02*
X10655000Y-8035000D01*
X10655000Y-8005000D02*
X10625000Y-8035000D01*
X10625000Y-9345000D02*
X10655000Y-9375000D01*
X10655000Y-9345000D02*
X10625000Y-9375000D01*
X10665000Y-9525000D02*
X10695000Y-9555000D01*
X10695000Y-9525000D02*
X10665000Y-9555000D01*
X10665000Y-11045000D02*
X10695000Y-11075000D01*
X10695000Y-11045000D02*
X10665000Y-11075000D01*
X10745000Y-9525000D02*
X10775000Y-9555000D01*
X10775000Y-9525000D02*
X10745000Y-9555000D01*
X10745000Y-10625000D02*
X10775000Y-10655000D01*
X10775000Y-10625000D02*
X10745000Y-10655000D01*
X10825000Y-9525000D02*
X10855000Y-9555000D01*
X10855000Y-9525000D02*
X10825000Y-9555000D01*
X10885000Y-10565000D02*
X10915000Y-10595000D01*
X10915000Y-10565000D02*
X10885000Y-10595000D01*
X10905000Y-9525000D02*
X10935000Y-9555000D01*
X10935000Y-9525000D02*
X10905000Y-9555000D01*
X10905000Y-10485000D02*
X10935000Y-10515000D01*
X10935000Y-10485000D02*
X10905000Y-10515000D01*
X10925000Y-11925000D02*
X10955000Y-11955000D01*
X10955000Y-11925000D02*
X10925000Y-11955000D01*
X10985000Y-9525000D02*
X11015000Y-9555000D01*
X11015000Y-9525000D02*
X10985000Y-9555000D01*
X11005000Y-11925000D02*
X11035000Y-11955000D01*
X11035000Y-11925000D02*
X11005000Y-11955000D01*
X11065000Y-9525000D02*
X11095000Y-9555000D01*
X11095000Y-9525000D02*
X11065000Y-9555000D01*
X11085000Y-11065000D02*
X11115000Y-11095000D01*
X11115000Y-11065000D02*
X11085000Y-11095000D01*
X11085000Y-11925000D02*
X11115000Y-11955000D01*
X11115000Y-11925000D02*
X11085000Y-11955000D01*
X11125000Y-10565000D02*
X11155000Y-10595000D01*
X11155000Y-10565000D02*
X11125000Y-10595000D01*
X11145000Y-9525000D02*
X11175000Y-9555000D01*
X11175000Y-9525000D02*
X11145000Y-9555000D01*
X11165000Y-11925000D02*
X11195000Y-11955000D01*
X11195000Y-11925000D02*
X11165000Y-11955000D01*
X11225000Y-9525000D02*
X11255000Y-9555000D01*
X11255000Y-9525000D02*
X11225000Y-9555000D01*
X11245000Y-11925000D02*
X11275000Y-11955000D01*
X11275000Y-11925000D02*
X11245000Y-11955000D01*
X11305000Y-9525000D02*
X11335000Y-9555000D01*
X11335000Y-9525000D02*
X11305000Y-9555000D01*
X11385000Y-8885000D02*
X11415000Y-8915000D01*
X11415000Y-8885000D02*
X11385000Y-8915000D01*
X11385000Y-10425000D02*
X11415000Y-10455000D01*
X11415000Y-10425000D02*
X11385000Y-10455000D01*
X11465000Y-10425000D02*
X11495000Y-10455000D01*
X11495000Y-10425000D02*
X11465000Y-10455000D01*
X11485000Y-10945000D02*
X11515000Y-10975000D01*
X11515000Y-10945000D02*
X11485000Y-10975000D01*
X11545000Y-10425000D02*
X11575000Y-10455000D01*
X11575000Y-10425000D02*
X11545000Y-10455000D01*
X11610147Y-9110147D02*
X11640147Y-9140147D01*
X11640147Y-9110147D02*
X11610147Y-9140147D01*
X11625000Y-10425000D02*
X11655000Y-10455000D01*
X11655000Y-10425000D02*
X11625000Y-10455000D01*
X11645000Y-11925000D02*
X11675000Y-11955000D01*
X11675000Y-11925000D02*
X11645000Y-11955000D01*
X11705000Y-10425000D02*
X11735000Y-10455000D01*
X11735000Y-10425000D02*
X11705000Y-10455000D01*
X11725000Y-9405000D02*
X11755000Y-9435000D01*
X11755000Y-9405000D02*
X11725000Y-9435000D01*
X11725000Y-11925000D02*
X11755000Y-11955000D01*
X11755000Y-11925000D02*
X11725000Y-11955000D01*
X11732573Y-9072574D02*
X11762573Y-9102574D01*
X11762573Y-9072574D02*
X11732573Y-9102574D01*
X11752573Y-9292574D02*
X11782573Y-9322574D01*
X11782573Y-9292574D02*
X11752573Y-9322574D01*
X11785000Y-10425000D02*
X11815000Y-10455000D01*
X11815000Y-10425000D02*
X11785000Y-10455000D01*
X11805000Y-11925000D02*
X11835000Y-11955000D01*
X11835000Y-11925000D02*
X11805000Y-11955000D01*
X11815000Y-10775000D02*
X11845000Y-10805000D01*
X11845000Y-10775000D02*
X11815000Y-10805000D01*
X11865000Y-10425000D02*
X11895000Y-10455000D01*
X11895000Y-10425000D02*
X11865000Y-10455000D01*
X11885000Y-10945000D02*
X11915000Y-10975000D01*
X11915000Y-10945000D02*
X11885000Y-10975000D01*
X11885000Y-11925000D02*
X11915000Y-11955000D01*
X11915000Y-11925000D02*
X11885000Y-11955000D01*
X11945000Y-10425000D02*
X11975000Y-10455000D01*
X11975000Y-10425000D02*
X11945000Y-10455000D01*
X11955000Y-10715000D02*
X11985000Y-10745000D01*
X11985000Y-10715000D02*
X11955000Y-10745000D01*
X11965000Y-11925000D02*
X11995000Y-11955000D01*
X11995000Y-11925000D02*
X11965000Y-11955000D01*
X12025000Y-10425000D02*
X12055000Y-10455000D01*
X12055000Y-10425000D02*
X12025000Y-10455000D01*
X12045000Y-11925000D02*
X12075000Y-11955000D01*
X12075000Y-11925000D02*
X12045000Y-11955000D01*
X12105000Y-10425000D02*
X12135000Y-10455000D01*
X12135000Y-10425000D02*
X12105000Y-10455000D01*
X12185000Y-10425000D02*
X12215000Y-10455000D01*
X12215000Y-10425000D02*
X12185000Y-10455000D01*
X12265000Y-10425000D02*
X12295000Y-10455000D01*
X12295000Y-10425000D02*
X12265000Y-10455000D01*
X12305000Y-9145000D02*
X12335000Y-9175000D01*
X12335000Y-9145000D02*
X12305000Y-9175000D01*
X12385000Y-8065000D02*
X12415000Y-8095000D01*
X12415000Y-8065000D02*
X12385000Y-8095000D01*
X12445000Y-9205000D02*
X12475000Y-9235000D01*
X12475000Y-9205000D02*
X12445000Y-9235000D01*
X12474999Y-8065000D02*
X12504999Y-8095000D01*
X12504999Y-8065000D02*
X12474999Y-8095000D01*
X12554999Y-8065000D02*
X12584999Y-8095000D01*
X12584999Y-8065000D02*
X12554999Y-8095000D01*
X12585000Y-10525000D02*
X12615000Y-10555000D01*
X12615000Y-10525000D02*
X12585000Y-10555000D01*
X12605000Y-9345000D02*
X12635000Y-9375000D01*
X12635000Y-9345000D02*
X12605000Y-9375000D01*
X12635000Y-8065000D02*
X12665000Y-8095000D01*
X12665000Y-8065000D02*
X12635000Y-8095000D01*
X12656005Y-9185000D02*
X12686005Y-9215000D01*
X12686005Y-9185000D02*
X12656005Y-9215000D01*
X12715000Y-8065000D02*
X12745000Y-8095000D01*
X12745000Y-8065000D02*
X12715000Y-8095000D01*
X13125000Y-9485000D02*
X13155000Y-9515000D01*
X13155000Y-9485000D02*
X13125000Y-9515000D01*
X13193392Y-8065000D02*
X13223392Y-8095000D01*
X13223392Y-8065000D02*
X13193392Y-8095000D01*
X13273393Y-8064997D02*
X13303393Y-8094997D01*
X13303393Y-8064997D02*
X13273393Y-8094997D01*
X13353393Y-8065190D02*
X13383393Y-8095190D01*
X13383393Y-8065190D02*
X13353393Y-8095190D01*
X13425000Y-9025000D02*
X13455000Y-9055000D01*
X13455000Y-9025000D02*
X13425000Y-9055000D01*
X13433382Y-8063882D02*
X13463382Y-8093882D01*
X13463382Y-8063882D02*
X13433382Y-8093882D01*
X13515804Y-8066314D02*
X13545804Y-8096314D01*
X13545804Y-8066314D02*
X13515804Y-8096314D01*
X13595000Y-8055000D02*
X13625000Y-8085000D01*
X13625000Y-8055000D02*
X13595000Y-8085000D01*
X13614500Y-9265000D02*
X13644500Y-9295000D01*
X13644500Y-9265000D02*
X13614500Y-9295000D01*
X13765000Y-9425000D02*
X13795000Y-9455000D01*
X13795000Y-9425000D02*
X13765000Y-9455000D01*
X6032500Y-8500000D02*
G75*
G02*
X5948500Y-8500000I-42000J0D01*
G01*
X5948500Y-8500000D02*
G75*
G02*
X6032500Y-8500000I42000J0D01*
G01*
X7538000Y-11500000D02*
G75*
G02*
X7454000Y-11500000I-42000J0D01*
G01*
X7454000Y-11500000D02*
G75*
G02*
X7538000Y-11500000I42000J0D01*
G01*
X7931500Y-8500000D02*
G75*
G02*
X7847500Y-8500000I-42000J0D01*
G01*
X7847500Y-8500000D02*
G75*
G02*
X7931500Y-8500000I42000J0D01*
G01*
X9092500Y-8500000D02*
G75*
G02*
X9008500Y-8500000I-42000J0D01*
G01*
X9008500Y-8500000D02*
G75*
G02*
X9092500Y-8500000I42000J0D01*
G01*
X9437000Y-11500000D02*
G75*
G02*
X9353000Y-11500000I-42000J0D01*
G01*
X9353000Y-11500000D02*
G75*
G02*
X9437000Y-11500000I42000J0D01*
G01*
X10592500Y-11500000D02*
G75*
G02*
X10508500Y-11500000I-42000J0D01*
G01*
X10508500Y-11500000D02*
G75*
G02*
X10592500Y-11500000I42000J0D01*
G01*
X10991500Y-8500000D02*
G75*
G02*
X10907500Y-8500000I-42000J0D01*
G01*
X10907500Y-8500000D02*
G75*
G02*
X10991500Y-8500000I42000J0D01*
G01*
X12142000Y-8500000D02*
G75*
G02*
X12058000Y-8500000I-42000J0D01*
G01*
X12058000Y-8500000D02*
G75*
G02*
X12142000Y-8500000I42000J0D01*
G01*
X12491500Y-11500000D02*
G75*
G02*
X12407500Y-11500000I-42000J0D01*
G01*
X12407500Y-11500000D02*
G75*
G02*
X12491500Y-11500000I42000J0D01*
G01*
X14041000Y-8500000D02*
G75*
G02*
X13957000Y-8500000I-42000J0D01*
G01*
X13957000Y-8500000D02*
G75*
G02*
X14041000Y-8500000I42000J0D01*
G01*
D12*
X5105777Y-12966484D02*
X5105777Y-12766484D01*
X5105777Y-12766484D02*
X5153396Y-12766484D01*
X5153396Y-12766484D02*
X5181967Y-12776008D01*
X5181967Y-12776008D02*
X5201015Y-12795055D01*
X5201015Y-12795055D02*
X5210539Y-12814103D01*
X5210539Y-12814103D02*
X5220063Y-12852198D01*
X5220063Y-12852198D02*
X5220063Y-12880769D01*
X5220063Y-12880769D02*
X5210539Y-12918865D01*
X5210539Y-12918865D02*
X5201015Y-12937912D01*
X5201015Y-12937912D02*
X5181967Y-12956960D01*
X5181967Y-12956960D02*
X5153396Y-12966484D01*
X5153396Y-12966484D02*
X5105777Y-12966484D01*
X5305777Y-12966484D02*
X5305777Y-12833150D01*
X5305777Y-12871246D02*
X5315301Y-12852198D01*
X5315301Y-12852198D02*
X5324824Y-12842674D01*
X5324824Y-12842674D02*
X5343872Y-12833150D01*
X5343872Y-12833150D02*
X5362920Y-12833150D01*
X5429586Y-12966484D02*
X5429586Y-12833150D01*
X5429586Y-12766484D02*
X5420063Y-12776008D01*
X5420063Y-12776008D02*
X5429586Y-12785531D01*
X5429586Y-12785531D02*
X5439110Y-12776008D01*
X5439110Y-12776008D02*
X5429586Y-12766484D01*
X5429586Y-12766484D02*
X5429586Y-12785531D01*
X5553396Y-12966484D02*
X5534348Y-12956960D01*
X5534348Y-12956960D02*
X5524824Y-12937912D01*
X5524824Y-12937912D02*
X5524824Y-12766484D01*
X5658158Y-12966484D02*
X5639110Y-12956960D01*
X5639110Y-12956960D02*
X5629586Y-12937912D01*
X5629586Y-12937912D02*
X5629586Y-12766484D01*
X5886729Y-12966484D02*
X5886729Y-12766484D01*
X5886729Y-12766484D02*
X5953396Y-12909341D01*
X5953396Y-12909341D02*
X6020062Y-12766484D01*
X6020062Y-12766484D02*
X6020062Y-12966484D01*
X6201015Y-12966484D02*
X6201015Y-12861722D01*
X6201015Y-12861722D02*
X6191491Y-12842674D01*
X6191491Y-12842674D02*
X6172443Y-12833150D01*
X6172443Y-12833150D02*
X6134348Y-12833150D01*
X6134348Y-12833150D02*
X6115301Y-12842674D01*
X6201015Y-12956960D02*
X6181967Y-12966484D01*
X6181967Y-12966484D02*
X6134348Y-12966484D01*
X6134348Y-12966484D02*
X6115301Y-12956960D01*
X6115301Y-12956960D02*
X6105777Y-12937912D01*
X6105777Y-12937912D02*
X6105777Y-12918865D01*
X6105777Y-12918865D02*
X6115301Y-12899817D01*
X6115301Y-12899817D02*
X6134348Y-12890293D01*
X6134348Y-12890293D02*
X6181967Y-12890293D01*
X6181967Y-12890293D02*
X6201015Y-12880769D01*
X6296253Y-12833150D02*
X6296253Y-13033150D01*
X6296253Y-12842674D02*
X6315301Y-12833150D01*
X6315301Y-12833150D02*
X6353396Y-12833150D01*
X6353396Y-12833150D02*
X6372443Y-12842674D01*
X6372443Y-12842674D02*
X6381967Y-12852198D01*
X6381967Y-12852198D02*
X6391491Y-12871246D01*
X6391491Y-12871246D02*
X6391491Y-12928388D01*
X6391491Y-12928388D02*
X6381967Y-12947436D01*
X6381967Y-12947436D02*
X6372443Y-12956960D01*
X6372443Y-12956960D02*
X6353396Y-12966484D01*
X6353396Y-12966484D02*
X6315301Y-12966484D01*
X6315301Y-12966484D02*
X6296253Y-12956960D01*
X6477205Y-12947436D02*
X6486729Y-12956960D01*
X6486729Y-12956960D02*
X6477205Y-12966484D01*
X6477205Y-12966484D02*
X6467682Y-12956960D01*
X6467682Y-12956960D02*
X6477205Y-12947436D01*
X6477205Y-12947436D02*
X6477205Y-12966484D01*
X6477205Y-12842674D02*
X6486729Y-12852198D01*
X6486729Y-12852198D02*
X6477205Y-12861722D01*
X6477205Y-12861722D02*
X6467682Y-12852198D01*
X6467682Y-12852198D02*
X6477205Y-12842674D01*
X6477205Y-12842674D02*
X6477205Y-12861722D01*
D10*
X4815000Y-13280000D02*
X4845000Y-13310000D01*
X4845000Y-13280000D02*
X4815000Y-13310000D01*
D12*
X5143872Y-13186484D02*
X5162920Y-13186484D01*
X5162920Y-13186484D02*
X5181967Y-13196008D01*
X5181967Y-13196008D02*
X5191491Y-13205531D01*
X5191491Y-13205531D02*
X5201015Y-13224579D01*
X5201015Y-13224579D02*
X5210539Y-13262674D01*
X5210539Y-13262674D02*
X5210539Y-13310293D01*
X5210539Y-13310293D02*
X5201015Y-13348388D01*
X5201015Y-13348388D02*
X5191491Y-13367436D01*
X5191491Y-13367436D02*
X5181967Y-13376960D01*
X5181967Y-13376960D02*
X5162920Y-13386484D01*
X5162920Y-13386484D02*
X5143872Y-13386484D01*
X5143872Y-13386484D02*
X5124824Y-13376960D01*
X5124824Y-13376960D02*
X5115301Y-13367436D01*
X5115301Y-13367436D02*
X5105777Y-13348388D01*
X5105777Y-13348388D02*
X5096253Y-13310293D01*
X5096253Y-13310293D02*
X5096253Y-13262674D01*
X5096253Y-13262674D02*
X5105777Y-13224579D01*
X5105777Y-13224579D02*
X5115301Y-13205531D01*
X5115301Y-13205531D02*
X5124824Y-13196008D01*
X5124824Y-13196008D02*
X5143872Y-13186484D01*
X5296253Y-13367436D02*
X5305777Y-13376960D01*
X5305777Y-13376960D02*
X5296253Y-13386484D01*
X5296253Y-13386484D02*
X5286729Y-13376960D01*
X5286729Y-13376960D02*
X5296253Y-13367436D01*
X5296253Y-13367436D02*
X5296253Y-13386484D01*
X5372444Y-13186484D02*
X5496253Y-13186484D01*
X5496253Y-13186484D02*
X5429586Y-13262674D01*
X5429586Y-13262674D02*
X5458158Y-13262674D01*
X5458158Y-13262674D02*
X5477205Y-13272198D01*
X5477205Y-13272198D02*
X5486729Y-13281722D01*
X5486729Y-13281722D02*
X5496253Y-13300769D01*
X5496253Y-13300769D02*
X5496253Y-13348388D01*
X5496253Y-13348388D02*
X5486729Y-13367436D01*
X5486729Y-13367436D02*
X5477205Y-13376960D01*
X5477205Y-13376960D02*
X5458158Y-13386484D01*
X5458158Y-13386484D02*
X5401015Y-13386484D01*
X5401015Y-13386484D02*
X5381967Y-13376960D01*
X5381967Y-13376960D02*
X5372444Y-13367436D01*
X5620062Y-13186484D02*
X5639110Y-13186484D01*
X5639110Y-13186484D02*
X5658158Y-13196008D01*
X5658158Y-13196008D02*
X5667682Y-13205531D01*
X5667682Y-13205531D02*
X5677205Y-13224579D01*
X5677205Y-13224579D02*
X5686729Y-13262674D01*
X5686729Y-13262674D02*
X5686729Y-13310293D01*
X5686729Y-13310293D02*
X5677205Y-13348388D01*
X5677205Y-13348388D02*
X5667682Y-13367436D01*
X5667682Y-13367436D02*
X5658158Y-13376960D01*
X5658158Y-13376960D02*
X5639110Y-13386484D01*
X5639110Y-13386484D02*
X5620062Y-13386484D01*
X5620062Y-13386484D02*
X5601015Y-13376960D01*
X5601015Y-13376960D02*
X5591491Y-13367436D01*
X5591491Y-13367436D02*
X5581967Y-13348388D01*
X5581967Y-13348388D02*
X5572444Y-13310293D01*
X5572444Y-13310293D02*
X5572444Y-13262674D01*
X5572444Y-13262674D02*
X5581967Y-13224579D01*
X5581967Y-13224579D02*
X5591491Y-13205531D01*
X5591491Y-13205531D02*
X5601015Y-13196008D01*
X5601015Y-13196008D02*
X5620062Y-13186484D01*
X5810539Y-13186484D02*
X5829586Y-13186484D01*
X5829586Y-13186484D02*
X5848634Y-13196008D01*
X5848634Y-13196008D02*
X5858158Y-13205531D01*
X5858158Y-13205531D02*
X5867682Y-13224579D01*
X5867682Y-13224579D02*
X5877205Y-13262674D01*
X5877205Y-13262674D02*
X5877205Y-13310293D01*
X5877205Y-13310293D02*
X5867682Y-13348388D01*
X5867682Y-13348388D02*
X5858158Y-13367436D01*
X5858158Y-13367436D02*
X5848634Y-13376960D01*
X5848634Y-13376960D02*
X5829586Y-13386484D01*
X5829586Y-13386484D02*
X5810539Y-13386484D01*
X5810539Y-13386484D02*
X5791491Y-13376960D01*
X5791491Y-13376960D02*
X5781967Y-13367436D01*
X5781967Y-13367436D02*
X5772443Y-13348388D01*
X5772443Y-13348388D02*
X5762920Y-13310293D01*
X5762920Y-13310293D02*
X5762920Y-13262674D01*
X5762920Y-13262674D02*
X5772443Y-13224579D01*
X5772443Y-13224579D02*
X5781967Y-13205531D01*
X5781967Y-13205531D02*
X5791491Y-13196008D01*
X5791491Y-13196008D02*
X5810539Y-13186484D01*
X5962920Y-13386484D02*
X5962920Y-13253150D01*
X5962920Y-13272198D02*
X5972443Y-13262674D01*
X5972443Y-13262674D02*
X5991491Y-13253150D01*
X5991491Y-13253150D02*
X6020063Y-13253150D01*
X6020063Y-13253150D02*
X6039110Y-13262674D01*
X6039110Y-13262674D02*
X6048634Y-13281722D01*
X6048634Y-13281722D02*
X6048634Y-13386484D01*
X6048634Y-13281722D02*
X6058158Y-13262674D01*
X6058158Y-13262674D02*
X6077205Y-13253150D01*
X6077205Y-13253150D02*
X6105777Y-13253150D01*
X6105777Y-13253150D02*
X6124824Y-13262674D01*
X6124824Y-13262674D02*
X6134348Y-13281722D01*
X6134348Y-13281722D02*
X6134348Y-13386484D01*
X6229586Y-13386484D02*
X6229586Y-13253150D01*
X6229586Y-13272198D02*
X6239110Y-13262674D01*
X6239110Y-13262674D02*
X6258158Y-13253150D01*
X6258158Y-13253150D02*
X6286729Y-13253150D01*
X6286729Y-13253150D02*
X6305777Y-13262674D01*
X6305777Y-13262674D02*
X6315301Y-13281722D01*
X6315301Y-13281722D02*
X6315301Y-13386484D01*
X6315301Y-13281722D02*
X6324824Y-13262674D01*
X6324824Y-13262674D02*
X6343872Y-13253150D01*
X6343872Y-13253150D02*
X6372443Y-13253150D01*
X6372443Y-13253150D02*
X6391491Y-13262674D01*
X6391491Y-13262674D02*
X6401015Y-13281722D01*
X6401015Y-13281722D02*
X6401015Y-13386484D01*
X6791491Y-13176960D02*
X6620063Y-13434103D01*
X7048634Y-13186484D02*
X7067682Y-13186484D01*
X7067682Y-13186484D02*
X7086729Y-13196008D01*
X7086729Y-13196008D02*
X7096253Y-13205531D01*
X7096253Y-13205531D02*
X7105777Y-13224579D01*
X7105777Y-13224579D02*
X7115301Y-13262674D01*
X7115301Y-13262674D02*
X7115301Y-13310293D01*
X7115301Y-13310293D02*
X7105777Y-13348388D01*
X7105777Y-13348388D02*
X7096253Y-13367436D01*
X7096253Y-13367436D02*
X7086729Y-13376960D01*
X7086729Y-13376960D02*
X7067682Y-13386484D01*
X7067682Y-13386484D02*
X7048634Y-13386484D01*
X7048634Y-13386484D02*
X7029586Y-13376960D01*
X7029586Y-13376960D02*
X7020063Y-13367436D01*
X7020063Y-13367436D02*
X7010539Y-13348388D01*
X7010539Y-13348388D02*
X7001015Y-13310293D01*
X7001015Y-13310293D02*
X7001015Y-13262674D01*
X7001015Y-13262674D02*
X7010539Y-13224579D01*
X7010539Y-13224579D02*
X7020063Y-13205531D01*
X7020063Y-13205531D02*
X7029586Y-13196008D01*
X7029586Y-13196008D02*
X7048634Y-13186484D01*
X7201015Y-13367436D02*
X7210539Y-13376960D01*
X7210539Y-13376960D02*
X7201015Y-13386484D01*
X7201015Y-13386484D02*
X7191491Y-13376960D01*
X7191491Y-13376960D02*
X7201015Y-13367436D01*
X7201015Y-13367436D02*
X7201015Y-13386484D01*
X7334348Y-13186484D02*
X7353396Y-13186484D01*
X7353396Y-13186484D02*
X7372444Y-13196008D01*
X7372444Y-13196008D02*
X7381967Y-13205531D01*
X7381967Y-13205531D02*
X7391491Y-13224579D01*
X7391491Y-13224579D02*
X7401015Y-13262674D01*
X7401015Y-13262674D02*
X7401015Y-13310293D01*
X7401015Y-13310293D02*
X7391491Y-13348388D01*
X7391491Y-13348388D02*
X7381967Y-13367436D01*
X7381967Y-13367436D02*
X7372444Y-13376960D01*
X7372444Y-13376960D02*
X7353396Y-13386484D01*
X7353396Y-13386484D02*
X7334348Y-13386484D01*
X7334348Y-13386484D02*
X7315301Y-13376960D01*
X7315301Y-13376960D02*
X7305777Y-13367436D01*
X7305777Y-13367436D02*
X7296253Y-13348388D01*
X7296253Y-13348388D02*
X7286729Y-13310293D01*
X7286729Y-13310293D02*
X7286729Y-13262674D01*
X7286729Y-13262674D02*
X7296253Y-13224579D01*
X7296253Y-13224579D02*
X7305777Y-13205531D01*
X7305777Y-13205531D02*
X7315301Y-13196008D01*
X7315301Y-13196008D02*
X7334348Y-13186484D01*
X7591491Y-13386484D02*
X7477206Y-13386484D01*
X7534348Y-13386484D02*
X7534348Y-13186484D01*
X7534348Y-13186484D02*
X7515301Y-13215055D01*
X7515301Y-13215055D02*
X7496253Y-13234103D01*
X7496253Y-13234103D02*
X7477206Y-13243627D01*
X7781967Y-13386484D02*
X7667682Y-13386484D01*
X7724825Y-13386484D02*
X7724825Y-13186484D01*
X7724825Y-13186484D02*
X7705777Y-13215055D01*
X7705777Y-13215055D02*
X7686729Y-13234103D01*
X7686729Y-13234103D02*
X7667682Y-13243627D01*
X7896253Y-13272198D02*
X7877206Y-13262674D01*
X7877206Y-13262674D02*
X7867682Y-13253150D01*
X7867682Y-13253150D02*
X7858158Y-13234103D01*
X7858158Y-13234103D02*
X7858158Y-13224579D01*
X7858158Y-13224579D02*
X7867682Y-13205531D01*
X7867682Y-13205531D02*
X7877206Y-13196008D01*
X7877206Y-13196008D02*
X7896253Y-13186484D01*
X7896253Y-13186484D02*
X7934348Y-13186484D01*
X7934348Y-13186484D02*
X7953396Y-13196008D01*
X7953396Y-13196008D02*
X7962920Y-13205531D01*
X7962920Y-13205531D02*
X7972444Y-13224579D01*
X7972444Y-13224579D02*
X7972444Y-13234103D01*
X7972444Y-13234103D02*
X7962920Y-13253150D01*
X7962920Y-13253150D02*
X7953396Y-13262674D01*
X7953396Y-13262674D02*
X7934348Y-13272198D01*
X7934348Y-13272198D02*
X7896253Y-13272198D01*
X7896253Y-13272198D02*
X7877206Y-13281722D01*
X7877206Y-13281722D02*
X7867682Y-13291246D01*
X7867682Y-13291246D02*
X7858158Y-13310293D01*
X7858158Y-13310293D02*
X7858158Y-13348388D01*
X7858158Y-13348388D02*
X7867682Y-13367436D01*
X7867682Y-13367436D02*
X7877206Y-13376960D01*
X7877206Y-13376960D02*
X7896253Y-13386484D01*
X7896253Y-13386484D02*
X7934348Y-13386484D01*
X7934348Y-13386484D02*
X7953396Y-13376960D01*
X7953396Y-13376960D02*
X7962920Y-13367436D01*
X7962920Y-13367436D02*
X7972444Y-13348388D01*
X7972444Y-13348388D02*
X7972444Y-13310293D01*
X7972444Y-13310293D02*
X7962920Y-13291246D01*
X7962920Y-13291246D02*
X7953396Y-13281722D01*
X7953396Y-13281722D02*
X7934348Y-13272198D01*
X8048634Y-13186484D02*
X8048634Y-13224579D01*
X8124825Y-13186484D02*
X8124825Y-13224579D01*
X8420063Y-13462674D02*
X8410539Y-13453150D01*
X8410539Y-13453150D02*
X8391491Y-13424579D01*
X8391491Y-13424579D02*
X8381968Y-13405531D01*
X8381968Y-13405531D02*
X8372444Y-13376960D01*
X8372444Y-13376960D02*
X8362920Y-13329341D01*
X8362920Y-13329341D02*
X8362920Y-13291246D01*
X8362920Y-13291246D02*
X8372444Y-13243627D01*
X8372444Y-13243627D02*
X8381968Y-13215055D01*
X8381968Y-13215055D02*
X8391491Y-13196008D01*
X8391491Y-13196008D02*
X8410539Y-13167436D01*
X8410539Y-13167436D02*
X8420063Y-13157912D01*
X8601015Y-13386484D02*
X8486730Y-13386484D01*
X8543872Y-13386484D02*
X8543872Y-13186484D01*
X8543872Y-13186484D02*
X8524825Y-13215055D01*
X8524825Y-13215055D02*
X8505777Y-13234103D01*
X8505777Y-13234103D02*
X8486730Y-13243627D01*
X8715301Y-13272198D02*
X8696253Y-13262674D01*
X8696253Y-13262674D02*
X8686730Y-13253150D01*
X8686730Y-13253150D02*
X8677206Y-13234103D01*
X8677206Y-13234103D02*
X8677206Y-13224579D01*
X8677206Y-13224579D02*
X8686730Y-13205531D01*
X8686730Y-13205531D02*
X8696253Y-13196008D01*
X8696253Y-13196008D02*
X8715301Y-13186484D01*
X8715301Y-13186484D02*
X8753396Y-13186484D01*
X8753396Y-13186484D02*
X8772444Y-13196008D01*
X8772444Y-13196008D02*
X8781968Y-13205531D01*
X8781968Y-13205531D02*
X8791491Y-13224579D01*
X8791491Y-13224579D02*
X8791491Y-13234103D01*
X8791491Y-13234103D02*
X8781968Y-13253150D01*
X8781968Y-13253150D02*
X8772444Y-13262674D01*
X8772444Y-13262674D02*
X8753396Y-13272198D01*
X8753396Y-13272198D02*
X8715301Y-13272198D01*
X8715301Y-13272198D02*
X8696253Y-13281722D01*
X8696253Y-13281722D02*
X8686730Y-13291246D01*
X8686730Y-13291246D02*
X8677206Y-13310293D01*
X8677206Y-13310293D02*
X8677206Y-13348388D01*
X8677206Y-13348388D02*
X8686730Y-13367436D01*
X8686730Y-13367436D02*
X8696253Y-13376960D01*
X8696253Y-13376960D02*
X8715301Y-13386484D01*
X8715301Y-13386484D02*
X8753396Y-13386484D01*
X8753396Y-13386484D02*
X8772444Y-13376960D01*
X8772444Y-13376960D02*
X8781968Y-13367436D01*
X8781968Y-13367436D02*
X8791491Y-13348388D01*
X8791491Y-13348388D02*
X8791491Y-13310293D01*
X8791491Y-13310293D02*
X8781968Y-13291246D01*
X8781968Y-13291246D02*
X8772444Y-13281722D01*
X8772444Y-13281722D02*
X8753396Y-13272198D01*
X8981968Y-13386484D02*
X8867682Y-13386484D01*
X8924825Y-13386484D02*
X8924825Y-13186484D01*
X8924825Y-13186484D02*
X8905777Y-13215055D01*
X8905777Y-13215055D02*
X8886730Y-13234103D01*
X8886730Y-13234103D02*
X8867682Y-13243627D01*
X9220063Y-13386484D02*
X9220063Y-13186484D01*
X9305777Y-13386484D02*
X9305777Y-13281722D01*
X9305777Y-13281722D02*
X9296253Y-13262674D01*
X9296253Y-13262674D02*
X9277206Y-13253150D01*
X9277206Y-13253150D02*
X9248634Y-13253150D01*
X9248634Y-13253150D02*
X9229587Y-13262674D01*
X9229587Y-13262674D02*
X9220063Y-13272198D01*
X9429587Y-13386484D02*
X9410539Y-13376960D01*
X9410539Y-13376960D02*
X9401015Y-13367436D01*
X9401015Y-13367436D02*
X9391492Y-13348388D01*
X9391492Y-13348388D02*
X9391492Y-13291246D01*
X9391492Y-13291246D02*
X9401015Y-13272198D01*
X9401015Y-13272198D02*
X9410539Y-13262674D01*
X9410539Y-13262674D02*
X9429587Y-13253150D01*
X9429587Y-13253150D02*
X9458158Y-13253150D01*
X9458158Y-13253150D02*
X9477206Y-13262674D01*
X9477206Y-13262674D02*
X9486730Y-13272198D01*
X9486730Y-13272198D02*
X9496253Y-13291246D01*
X9496253Y-13291246D02*
X9496253Y-13348388D01*
X9496253Y-13348388D02*
X9486730Y-13367436D01*
X9486730Y-13367436D02*
X9477206Y-13376960D01*
X9477206Y-13376960D02*
X9458158Y-13386484D01*
X9458158Y-13386484D02*
X9429587Y-13386484D01*
X9610539Y-13386484D02*
X9591492Y-13376960D01*
X9591492Y-13376960D02*
X9581968Y-13357912D01*
X9581968Y-13357912D02*
X9581968Y-13186484D01*
X9762920Y-13376960D02*
X9743873Y-13386484D01*
X9743873Y-13386484D02*
X9705777Y-13386484D01*
X9705777Y-13386484D02*
X9686730Y-13376960D01*
X9686730Y-13376960D02*
X9677206Y-13357912D01*
X9677206Y-13357912D02*
X9677206Y-13281722D01*
X9677206Y-13281722D02*
X9686730Y-13262674D01*
X9686730Y-13262674D02*
X9705777Y-13253150D01*
X9705777Y-13253150D02*
X9743873Y-13253150D01*
X9743873Y-13253150D02*
X9762920Y-13262674D01*
X9762920Y-13262674D02*
X9772444Y-13281722D01*
X9772444Y-13281722D02*
X9772444Y-13300769D01*
X9772444Y-13300769D02*
X9677206Y-13319817D01*
X9848634Y-13376960D02*
X9867682Y-13386484D01*
X9867682Y-13386484D02*
X9905777Y-13386484D01*
X9905777Y-13386484D02*
X9924825Y-13376960D01*
X9924825Y-13376960D02*
X9934349Y-13357912D01*
X9934349Y-13357912D02*
X9934349Y-13348388D01*
X9934349Y-13348388D02*
X9924825Y-13329341D01*
X9924825Y-13329341D02*
X9905777Y-13319817D01*
X9905777Y-13319817D02*
X9877206Y-13319817D01*
X9877206Y-13319817D02*
X9858158Y-13310293D01*
X9858158Y-13310293D02*
X9848634Y-13291246D01*
X9848634Y-13291246D02*
X9848634Y-13281722D01*
X9848634Y-13281722D02*
X9858158Y-13262674D01*
X9858158Y-13262674D02*
X9877206Y-13253150D01*
X9877206Y-13253150D02*
X9905777Y-13253150D01*
X9905777Y-13253150D02*
X9924825Y-13262674D01*
X10001015Y-13462674D02*
X10010539Y-13453150D01*
X10010539Y-13453150D02*
X10029587Y-13424579D01*
X10029587Y-13424579D02*
X10039111Y-13405531D01*
X10039111Y-13405531D02*
X10048634Y-13376960D01*
X10048634Y-13376960D02*
X10058158Y-13329341D01*
X10058158Y-13329341D02*
X10058158Y-13291246D01*
X10058158Y-13291246D02*
X10048634Y-13243627D01*
X10048634Y-13243627D02*
X10039111Y-13215055D01*
X10039111Y-13215055D02*
X10029587Y-13196008D01*
X10029587Y-13196008D02*
X10010539Y-13167436D01*
X10010539Y-13167436D02*
X10001015Y-13157912D01*
D10*
X4845000Y-13559000D02*
G75*
G02*
X4761000Y-13559000I-42000J0D01*
G01*
X4761000Y-13559000D02*
G75*
G02*
X4845000Y-13559000I42000J0D01*
G01*
D12*
X5143872Y-13450484D02*
X5162920Y-13450484D01*
X5162920Y-13450484D02*
X5181967Y-13460008D01*
X5181967Y-13460008D02*
X5191491Y-13469531D01*
X5191491Y-13469531D02*
X5201015Y-13488579D01*
X5201015Y-13488579D02*
X5210539Y-13526674D01*
X5210539Y-13526674D02*
X5210539Y-13574293D01*
X5210539Y-13574293D02*
X5201015Y-13612388D01*
X5201015Y-13612388D02*
X5191491Y-13631436D01*
X5191491Y-13631436D02*
X5181967Y-13640960D01*
X5181967Y-13640960D02*
X5162920Y-13650484D01*
X5162920Y-13650484D02*
X5143872Y-13650484D01*
X5143872Y-13650484D02*
X5124824Y-13640960D01*
X5124824Y-13640960D02*
X5115301Y-13631436D01*
X5115301Y-13631436D02*
X5105777Y-13612388D01*
X5105777Y-13612388D02*
X5096253Y-13574293D01*
X5096253Y-13574293D02*
X5096253Y-13526674D01*
X5096253Y-13526674D02*
X5105777Y-13488579D01*
X5105777Y-13488579D02*
X5115301Y-13469531D01*
X5115301Y-13469531D02*
X5124824Y-13460008D01*
X5124824Y-13460008D02*
X5143872Y-13450484D01*
X5296253Y-13631436D02*
X5305777Y-13640960D01*
X5305777Y-13640960D02*
X5296253Y-13650484D01*
X5296253Y-13650484D02*
X5286729Y-13640960D01*
X5286729Y-13640960D02*
X5296253Y-13631436D01*
X5296253Y-13631436D02*
X5296253Y-13650484D01*
X5420063Y-13536198D02*
X5401015Y-13526674D01*
X5401015Y-13526674D02*
X5391491Y-13517150D01*
X5391491Y-13517150D02*
X5381967Y-13498103D01*
X5381967Y-13498103D02*
X5381967Y-13488579D01*
X5381967Y-13488579D02*
X5391491Y-13469531D01*
X5391491Y-13469531D02*
X5401015Y-13460008D01*
X5401015Y-13460008D02*
X5420063Y-13450484D01*
X5420063Y-13450484D02*
X5458158Y-13450484D01*
X5458158Y-13450484D02*
X5477205Y-13460008D01*
X5477205Y-13460008D02*
X5486729Y-13469531D01*
X5486729Y-13469531D02*
X5496253Y-13488579D01*
X5496253Y-13488579D02*
X5496253Y-13498103D01*
X5496253Y-13498103D02*
X5486729Y-13517150D01*
X5486729Y-13517150D02*
X5477205Y-13526674D01*
X5477205Y-13526674D02*
X5458158Y-13536198D01*
X5458158Y-13536198D02*
X5420063Y-13536198D01*
X5420063Y-13536198D02*
X5401015Y-13545722D01*
X5401015Y-13545722D02*
X5391491Y-13555246D01*
X5391491Y-13555246D02*
X5381967Y-13574293D01*
X5381967Y-13574293D02*
X5381967Y-13612388D01*
X5381967Y-13612388D02*
X5391491Y-13631436D01*
X5391491Y-13631436D02*
X5401015Y-13640960D01*
X5401015Y-13640960D02*
X5420063Y-13650484D01*
X5420063Y-13650484D02*
X5458158Y-13650484D01*
X5458158Y-13650484D02*
X5477205Y-13640960D01*
X5477205Y-13640960D02*
X5486729Y-13631436D01*
X5486729Y-13631436D02*
X5496253Y-13612388D01*
X5496253Y-13612388D02*
X5496253Y-13574293D01*
X5496253Y-13574293D02*
X5486729Y-13555246D01*
X5486729Y-13555246D02*
X5477205Y-13545722D01*
X5477205Y-13545722D02*
X5458158Y-13536198D01*
X5667682Y-13517150D02*
X5667682Y-13650484D01*
X5620062Y-13440960D02*
X5572444Y-13583817D01*
X5572444Y-13583817D02*
X5696253Y-13583817D01*
X5810539Y-13450484D02*
X5829586Y-13450484D01*
X5829586Y-13450484D02*
X5848634Y-13460008D01*
X5848634Y-13460008D02*
X5858158Y-13469531D01*
X5858158Y-13469531D02*
X5867682Y-13488579D01*
X5867682Y-13488579D02*
X5877205Y-13526674D01*
X5877205Y-13526674D02*
X5877205Y-13574293D01*
X5877205Y-13574293D02*
X5867682Y-13612388D01*
X5867682Y-13612388D02*
X5858158Y-13631436D01*
X5858158Y-13631436D02*
X5848634Y-13640960D01*
X5848634Y-13640960D02*
X5829586Y-13650484D01*
X5829586Y-13650484D02*
X5810539Y-13650484D01*
X5810539Y-13650484D02*
X5791491Y-13640960D01*
X5791491Y-13640960D02*
X5781967Y-13631436D01*
X5781967Y-13631436D02*
X5772443Y-13612388D01*
X5772443Y-13612388D02*
X5762920Y-13574293D01*
X5762920Y-13574293D02*
X5762920Y-13526674D01*
X5762920Y-13526674D02*
X5772443Y-13488579D01*
X5772443Y-13488579D02*
X5781967Y-13469531D01*
X5781967Y-13469531D02*
X5791491Y-13460008D01*
X5791491Y-13460008D02*
X5810539Y-13450484D01*
X5962920Y-13650484D02*
X5962920Y-13517150D01*
X5962920Y-13536198D02*
X5972443Y-13526674D01*
X5972443Y-13526674D02*
X5991491Y-13517150D01*
X5991491Y-13517150D02*
X6020063Y-13517150D01*
X6020063Y-13517150D02*
X6039110Y-13526674D01*
X6039110Y-13526674D02*
X6048634Y-13545722D01*
X6048634Y-13545722D02*
X6048634Y-13650484D01*
X6048634Y-13545722D02*
X6058158Y-13526674D01*
X6058158Y-13526674D02*
X6077205Y-13517150D01*
X6077205Y-13517150D02*
X6105777Y-13517150D01*
X6105777Y-13517150D02*
X6124824Y-13526674D01*
X6124824Y-13526674D02*
X6134348Y-13545722D01*
X6134348Y-13545722D02*
X6134348Y-13650484D01*
X6229586Y-13650484D02*
X6229586Y-13517150D01*
X6229586Y-13536198D02*
X6239110Y-13526674D01*
X6239110Y-13526674D02*
X6258158Y-13517150D01*
X6258158Y-13517150D02*
X6286729Y-13517150D01*
X6286729Y-13517150D02*
X6305777Y-13526674D01*
X6305777Y-13526674D02*
X6315301Y-13545722D01*
X6315301Y-13545722D02*
X6315301Y-13650484D01*
X6315301Y-13545722D02*
X6324824Y-13526674D01*
X6324824Y-13526674D02*
X6343872Y-13517150D01*
X6343872Y-13517150D02*
X6372443Y-13517150D01*
X6372443Y-13517150D02*
X6391491Y-13526674D01*
X6391491Y-13526674D02*
X6401015Y-13545722D01*
X6401015Y-13545722D02*
X6401015Y-13650484D01*
X6791491Y-13440960D02*
X6620063Y-13698103D01*
X7048634Y-13450484D02*
X7067682Y-13450484D01*
X7067682Y-13450484D02*
X7086729Y-13460008D01*
X7086729Y-13460008D02*
X7096253Y-13469531D01*
X7096253Y-13469531D02*
X7105777Y-13488579D01*
X7105777Y-13488579D02*
X7115301Y-13526674D01*
X7115301Y-13526674D02*
X7115301Y-13574293D01*
X7115301Y-13574293D02*
X7105777Y-13612388D01*
X7105777Y-13612388D02*
X7096253Y-13631436D01*
X7096253Y-13631436D02*
X7086729Y-13640960D01*
X7086729Y-13640960D02*
X7067682Y-13650484D01*
X7067682Y-13650484D02*
X7048634Y-13650484D01*
X7048634Y-13650484D02*
X7029586Y-13640960D01*
X7029586Y-13640960D02*
X7020063Y-13631436D01*
X7020063Y-13631436D02*
X7010539Y-13612388D01*
X7010539Y-13612388D02*
X7001015Y-13574293D01*
X7001015Y-13574293D02*
X7001015Y-13526674D01*
X7001015Y-13526674D02*
X7010539Y-13488579D01*
X7010539Y-13488579D02*
X7020063Y-13469531D01*
X7020063Y-13469531D02*
X7029586Y-13460008D01*
X7029586Y-13460008D02*
X7048634Y-13450484D01*
X7201015Y-13631436D02*
X7210539Y-13640960D01*
X7210539Y-13640960D02*
X7201015Y-13650484D01*
X7201015Y-13650484D02*
X7191491Y-13640960D01*
X7191491Y-13640960D02*
X7201015Y-13631436D01*
X7201015Y-13631436D02*
X7201015Y-13650484D01*
X7334348Y-13450484D02*
X7353396Y-13450484D01*
X7353396Y-13450484D02*
X7372444Y-13460008D01*
X7372444Y-13460008D02*
X7381967Y-13469531D01*
X7381967Y-13469531D02*
X7391491Y-13488579D01*
X7391491Y-13488579D02*
X7401015Y-13526674D01*
X7401015Y-13526674D02*
X7401015Y-13574293D01*
X7401015Y-13574293D02*
X7391491Y-13612388D01*
X7391491Y-13612388D02*
X7381967Y-13631436D01*
X7381967Y-13631436D02*
X7372444Y-13640960D01*
X7372444Y-13640960D02*
X7353396Y-13650484D01*
X7353396Y-13650484D02*
X7334348Y-13650484D01*
X7334348Y-13650484D02*
X7315301Y-13640960D01*
X7315301Y-13640960D02*
X7305777Y-13631436D01*
X7305777Y-13631436D02*
X7296253Y-13612388D01*
X7296253Y-13612388D02*
X7286729Y-13574293D01*
X7286729Y-13574293D02*
X7286729Y-13526674D01*
X7286729Y-13526674D02*
X7296253Y-13488579D01*
X7296253Y-13488579D02*
X7305777Y-13469531D01*
X7305777Y-13469531D02*
X7315301Y-13460008D01*
X7315301Y-13460008D02*
X7334348Y-13450484D01*
X7467682Y-13450484D02*
X7591491Y-13450484D01*
X7591491Y-13450484D02*
X7524825Y-13526674D01*
X7524825Y-13526674D02*
X7553396Y-13526674D01*
X7553396Y-13526674D02*
X7572444Y-13536198D01*
X7572444Y-13536198D02*
X7581967Y-13545722D01*
X7581967Y-13545722D02*
X7591491Y-13564769D01*
X7591491Y-13564769D02*
X7591491Y-13612388D01*
X7591491Y-13612388D02*
X7581967Y-13631436D01*
X7581967Y-13631436D02*
X7572444Y-13640960D01*
X7572444Y-13640960D02*
X7553396Y-13650484D01*
X7553396Y-13650484D02*
X7496253Y-13650484D01*
X7496253Y-13650484D02*
X7477206Y-13640960D01*
X7477206Y-13640960D02*
X7467682Y-13631436D01*
X7658158Y-13450484D02*
X7781967Y-13450484D01*
X7781967Y-13450484D02*
X7715301Y-13526674D01*
X7715301Y-13526674D02*
X7743872Y-13526674D01*
X7743872Y-13526674D02*
X7762920Y-13536198D01*
X7762920Y-13536198D02*
X7772444Y-13545722D01*
X7772444Y-13545722D02*
X7781967Y-13564769D01*
X7781967Y-13564769D02*
X7781967Y-13612388D01*
X7781967Y-13612388D02*
X7772444Y-13631436D01*
X7772444Y-13631436D02*
X7762920Y-13640960D01*
X7762920Y-13640960D02*
X7743872Y-13650484D01*
X7743872Y-13650484D02*
X7686729Y-13650484D01*
X7686729Y-13650484D02*
X7667682Y-13640960D01*
X7667682Y-13640960D02*
X7658158Y-13631436D01*
X7972444Y-13650484D02*
X7858158Y-13650484D01*
X7915301Y-13650484D02*
X7915301Y-13450484D01*
X7915301Y-13450484D02*
X7896253Y-13479055D01*
X7896253Y-13479055D02*
X7877206Y-13498103D01*
X7877206Y-13498103D02*
X7858158Y-13507627D01*
X8048634Y-13450484D02*
X8048634Y-13488579D01*
X8124825Y-13450484D02*
X8124825Y-13488579D01*
X8420063Y-13726674D02*
X8410539Y-13717150D01*
X8410539Y-13717150D02*
X8391491Y-13688579D01*
X8391491Y-13688579D02*
X8381968Y-13669531D01*
X8381968Y-13669531D02*
X8372444Y-13640960D01*
X8372444Y-13640960D02*
X8362920Y-13593341D01*
X8362920Y-13593341D02*
X8362920Y-13555246D01*
X8362920Y-13555246D02*
X8372444Y-13507627D01*
X8372444Y-13507627D02*
X8381968Y-13479055D01*
X8381968Y-13479055D02*
X8391491Y-13460008D01*
X8391491Y-13460008D02*
X8410539Y-13431436D01*
X8410539Y-13431436D02*
X8420063Y-13421912D01*
X8601015Y-13650484D02*
X8486730Y-13650484D01*
X8543872Y-13650484D02*
X8543872Y-13450484D01*
X8543872Y-13450484D02*
X8524825Y-13479055D01*
X8524825Y-13479055D02*
X8505777Y-13498103D01*
X8505777Y-13498103D02*
X8486730Y-13507627D01*
X8724825Y-13450484D02*
X8743872Y-13450484D01*
X8743872Y-13450484D02*
X8762920Y-13460008D01*
X8762920Y-13460008D02*
X8772444Y-13469531D01*
X8772444Y-13469531D02*
X8781968Y-13488579D01*
X8781968Y-13488579D02*
X8791491Y-13526674D01*
X8791491Y-13526674D02*
X8791491Y-13574293D01*
X8791491Y-13574293D02*
X8781968Y-13612388D01*
X8781968Y-13612388D02*
X8772444Y-13631436D01*
X8772444Y-13631436D02*
X8762920Y-13640960D01*
X8762920Y-13640960D02*
X8743872Y-13650484D01*
X8743872Y-13650484D02*
X8724825Y-13650484D01*
X8724825Y-13650484D02*
X8705777Y-13640960D01*
X8705777Y-13640960D02*
X8696253Y-13631436D01*
X8696253Y-13631436D02*
X8686730Y-13612388D01*
X8686730Y-13612388D02*
X8677206Y-13574293D01*
X8677206Y-13574293D02*
X8677206Y-13526674D01*
X8677206Y-13526674D02*
X8686730Y-13488579D01*
X8686730Y-13488579D02*
X8696253Y-13469531D01*
X8696253Y-13469531D02*
X8705777Y-13460008D01*
X8705777Y-13460008D02*
X8724825Y-13450484D01*
X9029587Y-13650484D02*
X9029587Y-13450484D01*
X9115301Y-13650484D02*
X9115301Y-13545722D01*
X9115301Y-13545722D02*
X9105777Y-13526674D01*
X9105777Y-13526674D02*
X9086730Y-13517150D01*
X9086730Y-13517150D02*
X9058158Y-13517150D01*
X9058158Y-13517150D02*
X9039111Y-13526674D01*
X9039111Y-13526674D02*
X9029587Y-13536198D01*
X9239111Y-13650484D02*
X9220063Y-13640960D01*
X9220063Y-13640960D02*
X9210539Y-13631436D01*
X9210539Y-13631436D02*
X9201015Y-13612388D01*
X9201015Y-13612388D02*
X9201015Y-13555246D01*
X9201015Y-13555246D02*
X9210539Y-13536198D01*
X9210539Y-13536198D02*
X9220063Y-13526674D01*
X9220063Y-13526674D02*
X9239111Y-13517150D01*
X9239111Y-13517150D02*
X9267682Y-13517150D01*
X9267682Y-13517150D02*
X9286730Y-13526674D01*
X9286730Y-13526674D02*
X9296253Y-13536198D01*
X9296253Y-13536198D02*
X9305777Y-13555246D01*
X9305777Y-13555246D02*
X9305777Y-13612388D01*
X9305777Y-13612388D02*
X9296253Y-13631436D01*
X9296253Y-13631436D02*
X9286730Y-13640960D01*
X9286730Y-13640960D02*
X9267682Y-13650484D01*
X9267682Y-13650484D02*
X9239111Y-13650484D01*
X9420063Y-13650484D02*
X9401015Y-13640960D01*
X9401015Y-13640960D02*
X9391492Y-13621912D01*
X9391492Y-13621912D02*
X9391492Y-13450484D01*
X9572444Y-13640960D02*
X9553396Y-13650484D01*
X9553396Y-13650484D02*
X9515301Y-13650484D01*
X9515301Y-13650484D02*
X9496253Y-13640960D01*
X9496253Y-13640960D02*
X9486730Y-13621912D01*
X9486730Y-13621912D02*
X9486730Y-13545722D01*
X9486730Y-13545722D02*
X9496253Y-13526674D01*
X9496253Y-13526674D02*
X9515301Y-13517150D01*
X9515301Y-13517150D02*
X9553396Y-13517150D01*
X9553396Y-13517150D02*
X9572444Y-13526674D01*
X9572444Y-13526674D02*
X9581968Y-13545722D01*
X9581968Y-13545722D02*
X9581968Y-13564769D01*
X9581968Y-13564769D02*
X9486730Y-13583817D01*
X9658158Y-13640960D02*
X9677206Y-13650484D01*
X9677206Y-13650484D02*
X9715301Y-13650484D01*
X9715301Y-13650484D02*
X9734349Y-13640960D01*
X9734349Y-13640960D02*
X9743873Y-13621912D01*
X9743873Y-13621912D02*
X9743873Y-13612388D01*
X9743873Y-13612388D02*
X9734349Y-13593341D01*
X9734349Y-13593341D02*
X9715301Y-13583817D01*
X9715301Y-13583817D02*
X9686730Y-13583817D01*
X9686730Y-13583817D02*
X9667682Y-13574293D01*
X9667682Y-13574293D02*
X9658158Y-13555246D01*
X9658158Y-13555246D02*
X9658158Y-13545722D01*
X9658158Y-13545722D02*
X9667682Y-13526674D01*
X9667682Y-13526674D02*
X9686730Y-13517150D01*
X9686730Y-13517150D02*
X9715301Y-13517150D01*
X9715301Y-13517150D02*
X9734349Y-13526674D01*
X9810539Y-13726674D02*
X9820063Y-13717150D01*
X9820063Y-13717150D02*
X9839111Y-13688579D01*
X9839111Y-13688579D02*
X9848634Y-13669531D01*
X9848634Y-13669531D02*
X9858158Y-13640960D01*
X9858158Y-13640960D02*
X9867682Y-13593341D01*
X9867682Y-13593341D02*
X9867682Y-13555246D01*
X9867682Y-13555246D02*
X9858158Y-13507627D01*
X9858158Y-13507627D02*
X9848634Y-13479055D01*
X9848634Y-13479055D02*
X9839111Y-13460008D01*
X9839111Y-13460008D02*
X9820063Y-13431436D01*
X9820063Y-13431436D02*
X9810539Y-13421912D01*
M02*
