M48
; DRILL file {KiCad (6.0.8-1)-1} date Tuesday, October 04, 2022 at 03:12:44 PM
; FORMAT={-:-/ absolute / inch / decimal}
; #@! TF.CreationDate,2022-10-04T15:12:44-04:00
; #@! TF.GenerationSoftware,Kicad,Pcbnew,(6.0.8-1)-1
; #@! TF.FileFunction,Plated,1,2,PTH
FMAT,2
INCH
; #@! TA.AperFunction,Plated,PTH,ViaDrill
T1C0.0157
; #@! TA.AperFunction,Plated,PTH,ComponentDrill
T2C0.0350
%
G90
G05
T1
X2.9173Y-1.3799
X2.9173Y-1.5885
X2.9173Y-1.8629
X2.9173Y-2.073
X2.9173Y-2.3458
X2.9173Y-2.5576
X2.9173Y-2.8287
X2.9173Y-3.0421
X2.9173Y-3.3117
X2.9173Y-3.5266
X2.9173Y-3.7946
X2.9173Y-4.0112
X2.9173Y-4.2776
X2.9173Y-4.4969
X2.9173Y-4.7638
X2.9173Y-4.9802
T2
X2.3335Y-1.3885
X2.3335Y-1.4885
X2.3335Y-1.5885
X2.3335Y-1.873
X2.3335Y-1.973
X2.3335Y-2.073
X2.3335Y-2.3576
X2.3335Y-2.4576
X2.3335Y-2.5576
X2.3335Y-2.8421
X2.3335Y-2.9421
X2.3335Y-3.0421
X2.3335Y-3.3266
X2.3335Y-3.4266
X2.3335Y-3.5266
X2.3335Y-3.8112
X2.3335Y-3.9112
X2.3335Y-4.0112
X2.3335Y-4.2957
X2.3335Y-4.3957
X2.3335Y-4.4957
X2.3335Y-4.7802
X2.3335Y-4.8802
X2.3335Y-4.9802
T0
M30
