%TF.GenerationSoftware,KiCad,Pcbnew,(6.0.8-1)-1*%
%TF.CreationDate,2022-10-04T15:12:44-04:00*%
%TF.ProjectId,Untitled,556e7469-746c-4656-942e-6b696361645f,rev?*%
%TF.SameCoordinates,Original*%
%TF.FileFunction,Drillmap*%
%TF.FilePolarity,Positive*%
%FSLAX45Y45*%
G04 Gerber Fmt 4.5, Leading zero omitted, Abs format (unit mm)*
G04 Created by KiCad (PCBNEW (6.0.8-1)-1) date 2022-10-04 15:12:44*
%MOMM*%
%LPD*%
G01*
G04 APERTURE LIST*
%ADD10C,0.100000*%
%ADD11C,0.200000*%
G04 APERTURE END LIST*
D10*
X4572000Y-3191000D02*
X17474000Y-3191000D01*
X17474000Y-3191000D02*
X17474000Y-12990000D01*
X17474000Y-12990000D02*
X4572000Y-12990000D01*
X4572000Y-12990000D02*
X4572000Y-3191000D01*
D11*
X4824619Y-13305476D02*
X4824619Y-13105476D01*
X4872238Y-13105476D01*
X4900810Y-13115000D01*
X4919857Y-13134048D01*
X4929381Y-13153095D01*
X4938905Y-13191190D01*
X4938905Y-13219762D01*
X4929381Y-13257857D01*
X4919857Y-13276905D01*
X4900810Y-13295952D01*
X4872238Y-13305476D01*
X4824619Y-13305476D01*
X5024619Y-13305476D02*
X5024619Y-13172143D01*
X5024619Y-13210238D02*
X5034143Y-13191190D01*
X5043667Y-13181667D01*
X5062714Y-13172143D01*
X5081762Y-13172143D01*
X5148429Y-13305476D02*
X5148429Y-13172143D01*
X5148429Y-13105476D02*
X5138905Y-13115000D01*
X5148429Y-13124524D01*
X5157952Y-13115000D01*
X5148429Y-13105476D01*
X5148429Y-13124524D01*
X5272238Y-13305476D02*
X5253190Y-13295952D01*
X5243667Y-13276905D01*
X5243667Y-13105476D01*
X5377000Y-13305476D02*
X5357952Y-13295952D01*
X5348429Y-13276905D01*
X5348429Y-13105476D01*
X5605571Y-13305476D02*
X5605571Y-13105476D01*
X5672238Y-13248333D01*
X5738905Y-13105476D01*
X5738905Y-13305476D01*
X5919857Y-13305476D02*
X5919857Y-13200714D01*
X5910333Y-13181667D01*
X5891286Y-13172143D01*
X5853190Y-13172143D01*
X5834143Y-13181667D01*
X5919857Y-13295952D02*
X5900809Y-13305476D01*
X5853190Y-13305476D01*
X5834143Y-13295952D01*
X5824619Y-13276905D01*
X5824619Y-13257857D01*
X5834143Y-13238809D01*
X5853190Y-13229286D01*
X5900809Y-13229286D01*
X5919857Y-13219762D01*
X6015095Y-13172143D02*
X6015095Y-13372143D01*
X6015095Y-13181667D02*
X6034143Y-13172143D01*
X6072238Y-13172143D01*
X6091286Y-13181667D01*
X6100809Y-13191190D01*
X6110333Y-13210238D01*
X6110333Y-13267381D01*
X6100809Y-13286428D01*
X6091286Y-13295952D01*
X6072238Y-13305476D01*
X6034143Y-13305476D01*
X6015095Y-13295952D01*
X6196048Y-13286428D02*
X6205571Y-13295952D01*
X6196048Y-13305476D01*
X6186524Y-13295952D01*
X6196048Y-13286428D01*
X6196048Y-13305476D01*
X6196048Y-13181667D02*
X6205571Y-13191190D01*
X6196048Y-13200714D01*
X6186524Y-13191190D01*
X6196048Y-13181667D01*
X6196048Y-13200714D01*
M02*
