%TF.GenerationSoftware,KiCad,Pcbnew,8.0.2-1*%
%TF.CreationDate,2024-08-06T16:02:01-04:00*%
%TF.ProjectId,Untitled,556e7469-746c-4656-942e-6b696361645f,rev?*%
%TF.SameCoordinates,Original*%
%TF.FileFunction,Drillmap*%
%TF.FilePolarity,Positive*%
%FSLAX45Y45*%
G04 Gerber Fmt 4.5, Leading zero omitted, Abs format (unit mm)*
G04 Created by KiCad (PCBNEW 8.0.2-1) date 2024-08-06 16:02:01*
%MOMM*%
%LPD*%
G01*
G04 APERTURE LIST*
%ADD10C,0.100000*%
%ADD11C,0.200000*%
G04 APERTURE END LIST*
D10*
X9439000Y-7559000D02*
G75*
G02*
X9279000Y-7559000I-80000J0D01*
G01*
X9279000Y-7559000D02*
G75*
G02*
X9439000Y-7559000I80000J0D01*
G01*
X8425000Y-5801000D02*
G75*
G02*
X8265000Y-5801000I-80000J0D01*
G01*
X8265000Y-5801000D02*
G75*
G02*
X8425000Y-5801000I80000J0D01*
G01*
X9259000Y-3870000D02*
X8145000Y-5801000D01*
X11469000Y-7559000D02*
G75*
G02*
X11309000Y-7559000I-80000J0D01*
G01*
X11309000Y-7559000D02*
G75*
G02*
X11469000Y-7559000I80000J0D01*
G01*
X11489000Y-3870000D02*
X9259000Y-3870000D01*
X9259000Y-7732000D02*
X11489000Y-7732000D01*
X8145000Y-5801000D02*
X9259000Y-7732000D01*
X12604000Y-5801000D02*
X11489000Y-7732000D01*
X12484000Y-5801000D02*
G75*
G02*
X12324000Y-5801000I-80000J0D01*
G01*
X12324000Y-5801000D02*
G75*
G02*
X12484000Y-5801000I80000J0D01*
G01*
X11469000Y-4043000D02*
G75*
G02*
X11309000Y-4043000I-80000J0D01*
G01*
X11309000Y-4043000D02*
G75*
G02*
X11469000Y-4043000I80000J0D01*
G01*
X9439000Y-4043000D02*
G75*
G02*
X9279000Y-4043000I-80000J0D01*
G01*
X9279000Y-4043000D02*
G75*
G02*
X9439000Y-4043000I80000J0D01*
G01*
X12604000Y-5801000D02*
X11489000Y-3870000D01*
D11*
X8400777Y-8048484D02*
X8400777Y-7848484D01*
X8400777Y-7848484D02*
X8448396Y-7848484D01*
X8448396Y-7848484D02*
X8476967Y-7858008D01*
X8476967Y-7858008D02*
X8496015Y-7877055D01*
X8496015Y-7877055D02*
X8505539Y-7896103D01*
X8505539Y-7896103D02*
X8515063Y-7934198D01*
X8515063Y-7934198D02*
X8515063Y-7962769D01*
X8515063Y-7962769D02*
X8505539Y-8000865D01*
X8505539Y-8000865D02*
X8496015Y-8019912D01*
X8496015Y-8019912D02*
X8476967Y-8038960D01*
X8476967Y-8038960D02*
X8448396Y-8048484D01*
X8448396Y-8048484D02*
X8400777Y-8048484D01*
X8600777Y-8048484D02*
X8600777Y-7915150D01*
X8600777Y-7953246D02*
X8610301Y-7934198D01*
X8610301Y-7934198D02*
X8619824Y-7924674D01*
X8619824Y-7924674D02*
X8638872Y-7915150D01*
X8638872Y-7915150D02*
X8657920Y-7915150D01*
X8724586Y-8048484D02*
X8724586Y-7915150D01*
X8724586Y-7848484D02*
X8715063Y-7858008D01*
X8715063Y-7858008D02*
X8724586Y-7867531D01*
X8724586Y-7867531D02*
X8734110Y-7858008D01*
X8734110Y-7858008D02*
X8724586Y-7848484D01*
X8724586Y-7848484D02*
X8724586Y-7867531D01*
X8848396Y-8048484D02*
X8829348Y-8038960D01*
X8829348Y-8038960D02*
X8819824Y-8019912D01*
X8819824Y-8019912D02*
X8819824Y-7848484D01*
X8953158Y-8048484D02*
X8934110Y-8038960D01*
X8934110Y-8038960D02*
X8924586Y-8019912D01*
X8924586Y-8019912D02*
X8924586Y-7848484D01*
X9181729Y-8048484D02*
X9181729Y-7848484D01*
X9181729Y-7848484D02*
X9248396Y-7991341D01*
X9248396Y-7991341D02*
X9315063Y-7848484D01*
X9315063Y-7848484D02*
X9315063Y-8048484D01*
X9496015Y-8048484D02*
X9496015Y-7943722D01*
X9496015Y-7943722D02*
X9486491Y-7924674D01*
X9486491Y-7924674D02*
X9467444Y-7915150D01*
X9467444Y-7915150D02*
X9429348Y-7915150D01*
X9429348Y-7915150D02*
X9410301Y-7924674D01*
X9496015Y-8038960D02*
X9476967Y-8048484D01*
X9476967Y-8048484D02*
X9429348Y-8048484D01*
X9429348Y-8048484D02*
X9410301Y-8038960D01*
X9410301Y-8038960D02*
X9400777Y-8019912D01*
X9400777Y-8019912D02*
X9400777Y-8000865D01*
X9400777Y-8000865D02*
X9410301Y-7981817D01*
X9410301Y-7981817D02*
X9429348Y-7972293D01*
X9429348Y-7972293D02*
X9476967Y-7972293D01*
X9476967Y-7972293D02*
X9496015Y-7962769D01*
X9591253Y-7915150D02*
X9591253Y-8115150D01*
X9591253Y-7924674D02*
X9610301Y-7915150D01*
X9610301Y-7915150D02*
X9648396Y-7915150D01*
X9648396Y-7915150D02*
X9667444Y-7924674D01*
X9667444Y-7924674D02*
X9676967Y-7934198D01*
X9676967Y-7934198D02*
X9686491Y-7953246D01*
X9686491Y-7953246D02*
X9686491Y-8010388D01*
X9686491Y-8010388D02*
X9676967Y-8029436D01*
X9676967Y-8029436D02*
X9667444Y-8038960D01*
X9667444Y-8038960D02*
X9648396Y-8048484D01*
X9648396Y-8048484D02*
X9610301Y-8048484D01*
X9610301Y-8048484D02*
X9591253Y-8038960D01*
X9772205Y-8029436D02*
X9781729Y-8038960D01*
X9781729Y-8038960D02*
X9772205Y-8048484D01*
X9772205Y-8048484D02*
X9762682Y-8038960D01*
X9762682Y-8038960D02*
X9772205Y-8029436D01*
X9772205Y-8029436D02*
X9772205Y-8048484D01*
X9772205Y-7924674D02*
X9781729Y-7934198D01*
X9781729Y-7934198D02*
X9772205Y-7943722D01*
X9772205Y-7943722D02*
X9762682Y-7934198D01*
X9762682Y-7934198D02*
X9772205Y-7924674D01*
X9772205Y-7924674D02*
X9772205Y-7943722D01*
M02*
