%TF.GenerationSoftware,KiCad,Pcbnew,8.0.2-1*%
%TF.CreationDate,2024-08-06T16:02:11-04:00*%
%TF.ProjectId,Untitled,556e7469-746c-4656-942e-6b696361645f,rev?*%
%TF.SameCoordinates,Original*%
%TF.FileFunction,Copper,L2,Bot*%
%TF.FilePolarity,Positive*%
%FSLAX46Y46*%
G04 Gerber Fmt 4.6, Leading zero omitted, Abs format (unit mm)*
G04 Created by KiCad (PCBNEW 8.0.2-1) date 2024-08-06 16:02:11*
%MOMM*%
%LPD*%
G01*
G04 APERTURE LIST*
G04 Aperture macros list*
%AMRoundRect*
0 Rectangle with rounded corners*
0 $1 Rounding radius*
0 $2 $3 $4 $5 $6 $7 $8 $9 X,Y pos of 4 corners*
0 Add a 4 corners polygon primitive as box body*
4,1,4,$2,$3,$4,$5,$6,$7,$8,$9,$2,$3,0*
0 Add four circle primitives for the rounded corners*
1,1,$1+$1,$2,$3*
1,1,$1+$1,$4,$5*
1,1,$1+$1,$6,$7*
1,1,$1+$1,$8,$9*
0 Add four rect primitives between the rounded corners*
20,1,$1+$1,$2,$3,$4,$5,0*
20,1,$1+$1,$4,$5,$6,$7,0*
20,1,$1+$1,$6,$7,$8,$9,0*
20,1,$1+$1,$8,$9,$2,$3,0*%
%AMHorizOval*
0 Thick line with rounded ends*
0 $1 width*
0 $2 $3 position (X,Y) of the first rounded end (center of the circle)*
0 $4 $5 position (X,Y) of the second rounded end (center of the circle)*
0 Add line between two ends*
20,1,$1,$2,$3,$4,$5,0*
0 Add two circle primitives to create the rounded ends*
1,1,$1,$2,$3*
1,1,$1,$4,$5*%
G04 Aperture macros list end*
%TA.AperFunction,ComponentPad*%
%ADD10C,1.350000*%
%TD*%
%TA.AperFunction,ComponentPad*%
%ADD11C,0.800000*%
%TD*%
%TA.AperFunction,SMDPad,CuDef*%
%ADD12RoundRect,0.087500X0.087500X0.337500X-0.087500X0.337500X-0.087500X-0.337500X0.087500X-0.337500X0*%
%TD*%
%TA.AperFunction,ComponentPad*%
%ADD13RoundRect,0.250000X-0.327868X0.882115X-0.927868X-0.157115X0.327868X-0.882115X0.927868X0.157115X0*%
%TD*%
%TA.AperFunction,ComponentPad*%
%ADD14HorizOval,1.700000X-0.108253X0.062500X0.108253X-0.062500X0*%
%TD*%
%TA.AperFunction,ComponentPad*%
%ADD15R,1.397000X1.397000*%
%TD*%
%TA.AperFunction,ComponentPad*%
%ADD16C,1.397000*%
%TD*%
%TA.AperFunction,SMDPad,CuDef*%
%ADD17RoundRect,0.250000X-0.385016X0.583133X-0.697516X0.041867X0.385016X-0.583133X0.697516X-0.041867X0*%
%TD*%
%TA.AperFunction,ComponentPad*%
%ADD18RoundRect,0.250000X0.949519X-0.144615X0.349519X0.894615X-0.949519X0.144615X-0.349519X-0.894615X0*%
%TD*%
%TA.AperFunction,ComponentPad*%
%ADD19HorizOval,1.700000X0.129904X0.075000X-0.129904X-0.075000X0*%
%TD*%
%TA.AperFunction,Conductor*%
%ADD20C,0.250000*%
%TD*%
%TA.AperFunction,Conductor*%
%ADD21C,0.200000*%
%TD*%
G04 APERTURE END LIST*
D10*
%TO.P,REF\u002A\u002A,3*%
%TO.N,N/C*%
X104492500Y-57160000D03*
%TO.P,REF\u002A\u002A,4*%
X104492500Y-58860000D03*
D11*
%TO.P,REF\u002A\u002A,5*%
%TO.N,LED_C*%
X101640000Y-55775000D03*
%TO.P,REF\u002A\u002A,6*%
%TO.N,LED_A*%
X105740000Y-55775000D03*
D10*
%TO.P,REF\u002A\u002A,7*%
%TO.N,SiPM_C*%
X102467500Y-57160000D03*
%TO.P,REF\u002A\u002A,8*%
%TO.N,SiPM_A*%
X102467500Y-58860000D03*
D11*
%TO.P,REF\u002A\u002A,9*%
%TO.N,GND*%
X101640000Y-60160000D03*
%TD*%
D12*
%TO.P,REF\u002A\u002A,1*%
%TO.N,GND*%
X103450000Y-48900000D03*
%TO.P,REF\u002A\u002A,2*%
X102800000Y-48900000D03*
%TO.P,REF\u002A\u002A,3*%
%TO.N,TMP_OUT*%
X102150000Y-48900000D03*
%TO.P,REF\u002A\u002A,4*%
%TO.N,TMP_VDD*%
X102150000Y-46700000D03*
%TO.P,REF\u002A\u002A,5*%
%TO.N,GND*%
X103450000Y-46700000D03*
%TD*%
D13*
%TO.P,REF\u002A\u002A,1*%
%TO.N,TMP_OUT*%
X90600000Y-47800000D03*
D14*
%TO.P,REF\u002A\u002A,2*%
%TO.N,TMP_VDD*%
X89350000Y-49965064D03*
%TO.P,REF\u002A\u002A,3*%
%TO.N,GND*%
X88100000Y-52130127D03*
%TD*%
D15*
%TO.P,REF\u002A\u002A,1*%
%TO.N,SiPM_C*%
X106187500Y-75250100D03*
D16*
%TO.P,REF\u002A\u002A,2*%
%TO.N,SiPM_A*%
X103647500Y-75250100D03*
%TO.P,REF\u002A\u002A,3*%
%TO.N,GND*%
X101107500Y-75250100D03*
%TD*%
D17*
%TO.P,REF\u002A\u002A,1*%
%TO.N,GND*%
X118931250Y-59933438D03*
%TO.P,REF\u002A\u002A,2*%
%TO.N,LED_C*%
X117468750Y-62466562D03*
%TD*%
D18*
%TO.P,REF\u002A\u002A,1*%
%TO.N,LED_A*%
X118879664Y-51220032D03*
D19*
%TO.P,REF\u002A\u002A,2*%
%TO.N,GND*%
X117629664Y-49054968D03*
%TD*%
D20*
%TO.N,LED_A*%
X105740000Y-55775000D02*
X106075000Y-56110000D01*
X106075000Y-56110000D02*
X109110000Y-56110000D01*
X109110000Y-56110000D02*
X109300000Y-56300000D01*
%TO.N,LED_C*%
X101640000Y-55775000D02*
X101640000Y-52160000D01*
X105200000Y-49200000D02*
X108200000Y-52200000D01*
X101640000Y-52160000D02*
X104600000Y-49200000D01*
X104600000Y-49200000D02*
X105200000Y-49200000D01*
X108200000Y-52200000D02*
X110600000Y-52200000D01*
%TO.N,GND*%
X101640000Y-60160000D02*
X101640000Y-61160000D01*
X101640000Y-61160000D02*
X99145000Y-63655000D01*
%TO.N,SiPM_C*%
X102467500Y-57285000D02*
X102985000Y-57285000D01*
X102985000Y-57285000D02*
X103500000Y-57800000D01*
X103500000Y-57800000D02*
X103500000Y-59900000D01*
X103500000Y-59900000D02*
X103400000Y-60000000D01*
X103400000Y-60000000D02*
X103400000Y-61700000D01*
X103400000Y-61700000D02*
X107700000Y-66000000D01*
X107700000Y-66000000D02*
X107700000Y-68700000D01*
D21*
%TO.N,GND*%
X99145000Y-63655000D02*
X100090000Y-64600000D01*
X118455000Y-59457188D02*
X118455000Y-54345000D01*
%TO.N,TMP_VDD*%
X101850000Y-47000000D02*
X102150000Y-46700000D01*
%TO.N,GND*%
X88100000Y-54100000D02*
X88100000Y-52130127D01*
X94700000Y-60700000D02*
X88100000Y-54100000D01*
%TO.N,TMP_OUT*%
X90053380Y-47253380D02*
X91900000Y-49100000D01*
%TO.N,GND*%
X103600000Y-44600000D02*
X106600000Y-44600000D01*
X116200000Y-52090000D02*
X116200000Y-50200000D01*
X100090000Y-68315000D02*
X101107500Y-69332500D01*
D20*
X111545032Y-49054968D02*
X111054968Y-49054968D01*
D21*
X97110000Y-63110000D02*
X94700000Y-60700000D01*
X88800000Y-46800000D02*
X91000000Y-44600000D01*
%TO.N,LED_A*%
X109300000Y-56300000D02*
X113400000Y-60400000D01*
%TO.N,TMP_OUT*%
X102800000Y-47400000D02*
X102150000Y-48050000D01*
X91900000Y-49100000D02*
X95800000Y-45200000D01*
D20*
%TO.N,SiPM_A*%
X102600000Y-69152500D02*
X103647500Y-70200000D01*
%TO.N,GND*%
X111545032Y-49054968D02*
X117629664Y-49054968D01*
X102800000Y-48900000D02*
X103450000Y-48900000D01*
D21*
%TO.N,LED_C*%
X110600000Y-52200000D02*
X116000000Y-57600000D01*
%TO.N,LED_A*%
X113400000Y-61200000D02*
X116400000Y-64200000D01*
D20*
%TO.N,GND*%
X103450000Y-48900000D02*
X103450000Y-46700000D01*
X103450000Y-44750000D02*
X103600000Y-44600000D01*
D21*
X88600000Y-48400000D02*
X88600000Y-47800000D01*
%TO.N,LED_A*%
X116400000Y-64200000D02*
X119400000Y-64200000D01*
%TO.N,GND*%
X88800000Y-47600000D02*
X88800000Y-46800000D01*
X95000000Y-61000000D02*
X94700000Y-60700000D01*
D20*
X111054968Y-49054968D02*
X109200000Y-47200000D01*
D21*
%TO.N,TMP_VDD*%
X95800000Y-47000000D02*
X101850000Y-47000000D01*
%TO.N,GND*%
X87000000Y-50000000D02*
X88600000Y-48400000D01*
D20*
X103450000Y-46700000D02*
X103450000Y-44750000D01*
D21*
%TO.N,LED_A*%
X113400000Y-60400000D02*
X113400000Y-61200000D01*
%TO.N,GND*%
X91000000Y-44600000D02*
X103600000Y-44600000D01*
%TO.N,TMP_VDD*%
X88838020Y-49453084D02*
X89350000Y-49965064D01*
%TO.N,LED_C*%
X116000000Y-60997812D02*
X117468750Y-62466562D01*
%TO.N,LED_A*%
X118879664Y-52279664D02*
X118879664Y-51220032D01*
%TO.N,GND*%
X117345032Y-49054968D02*
X117629664Y-49054968D01*
X116200000Y-50200000D02*
X117345032Y-49054968D01*
X101107500Y-75250100D02*
X101107500Y-69332500D01*
X98600000Y-63110000D02*
X99145000Y-63655000D01*
%TO.N,SiPM_C*%
X106187500Y-75250100D02*
X106187500Y-70212500D01*
%TO.N,GND*%
X100090000Y-64600000D02*
X100090000Y-68315000D01*
%TO.N,SiPM_C*%
X106187500Y-70212500D02*
X107700000Y-68700000D01*
%TO.N,GND*%
X87000000Y-51030127D02*
X87000000Y-50000000D01*
X88100000Y-52130127D02*
X87000000Y-51030127D01*
%TO.N,TMP_VDD*%
X89350000Y-49965064D02*
X92834936Y-49965064D01*
X92834936Y-49965064D02*
X95800000Y-47000000D01*
%TO.N,TMP_OUT*%
X89927611Y-47253380D02*
X90053380Y-47253380D01*
%TO.N,GND*%
X118455000Y-54345000D02*
X116200000Y-52090000D01*
D20*
%TO.N,SiPM_A*%
X103647500Y-70200000D02*
X103647500Y-75250100D01*
D21*
%TO.N,TMP_OUT*%
X95800000Y-45200000D02*
X102800000Y-45200000D01*
%TO.N,GND*%
X98600000Y-63110000D02*
X97110000Y-63110000D01*
%TO.N,LED_A*%
X121800000Y-61800000D02*
X121800000Y-55200000D01*
%TO.N,TMP_OUT*%
X102800000Y-45200000D02*
X102800000Y-47400000D01*
%TO.N,LED_C*%
X116000000Y-57600000D02*
X116000000Y-60997812D01*
%TO.N,GND*%
X118931250Y-59933438D02*
X118455000Y-59457188D01*
%TO.N,TMP_OUT*%
X102150000Y-48050000D02*
X102150000Y-48900000D01*
%TO.N,GND*%
X88600000Y-47800000D02*
X88800000Y-47600000D01*
%TO.N,LED_A*%
X121800000Y-55200000D02*
X118879664Y-52279664D01*
X119400000Y-64200000D02*
X121800000Y-61800000D01*
X118455000Y-51644696D02*
X118879664Y-51220032D01*
%TO.N,TMP_VDD*%
X88657611Y-49453084D02*
X88838020Y-49453084D01*
D20*
%TO.N,SiPM_A*%
X102600000Y-58710000D02*
X102600000Y-69152500D01*
D21*
%TO.N,GND*%
X106600000Y-44600000D02*
X109200000Y-47200000D01*
%TD*%
M02*
