%TF.GenerationSoftware,KiCad,Pcbnew,8.0.2-1*%
%TF.CreationDate,2024-07-16T12:14:51-04:00*%
%TF.ProjectId,Untitled,556e7469-746c-4656-942e-6b696361645f,rev?*%
%TF.SameCoordinates,Original*%
%TF.FileFunction,Legend,Top*%
%TF.FilePolarity,Positive*%
%FSLAX46Y46*%
G04 Gerber Fmt 4.6, Leading zero omitted, Abs format (unit mm)*
G04 Created by KiCad (PCBNEW 8.0.2-1) date 2024-07-16 12:14:51*
%MOMM*%
%LPD*%
G01*
G04 APERTURE LIST*
%ADD10C,0.150000*%
%ADD11C,0.120000*%
G04 APERTURE END LIST*
D10*
X98450588Y-59977438D02*
X98355350Y-59929819D01*
X98355350Y-59929819D02*
X98212493Y-59929819D01*
X98212493Y-59929819D02*
X98069636Y-59977438D01*
X98069636Y-59977438D02*
X97974398Y-60072676D01*
X97974398Y-60072676D02*
X97926779Y-60167914D01*
X97926779Y-60167914D02*
X97879160Y-60358390D01*
X97879160Y-60358390D02*
X97879160Y-60501247D01*
X97879160Y-60501247D02*
X97926779Y-60691723D01*
X97926779Y-60691723D02*
X97974398Y-60786961D01*
X97974398Y-60786961D02*
X98069636Y-60882200D01*
X98069636Y-60882200D02*
X98212493Y-60929819D01*
X98212493Y-60929819D02*
X98307731Y-60929819D01*
X98307731Y-60929819D02*
X98450588Y-60882200D01*
X98450588Y-60882200D02*
X98498207Y-60834580D01*
X98498207Y-60834580D02*
X98498207Y-60501247D01*
X98498207Y-60501247D02*
X98307731Y-60501247D01*
X98926779Y-60929819D02*
X98926779Y-59929819D01*
X98926779Y-59929819D02*
X99498207Y-60929819D01*
X99498207Y-60929819D02*
X99498207Y-59929819D01*
X99974398Y-60929819D02*
X99974398Y-59929819D01*
X99974398Y-59929819D02*
X100212493Y-59929819D01*
X100212493Y-59929819D02*
X100355350Y-59977438D01*
X100355350Y-59977438D02*
X100450588Y-60072676D01*
X100450588Y-60072676D02*
X100498207Y-60167914D01*
X100498207Y-60167914D02*
X100545826Y-60358390D01*
X100545826Y-60358390D02*
X100545826Y-60501247D01*
X100545826Y-60501247D02*
X100498207Y-60691723D01*
X100498207Y-60691723D02*
X100450588Y-60786961D01*
X100450588Y-60786961D02*
X100355350Y-60882200D01*
X100355350Y-60882200D02*
X100212493Y-60929819D01*
X100212493Y-60929819D02*
X99974398Y-60929819D01*
D11*
%TO.C,REF\u002A\u002A*%
X98440000Y-57510000D02*
X99740000Y-57510000D01*
X99040000Y-56410000D02*
X99040000Y-59410000D01*
X101940000Y-52910000D02*
X104940000Y-52910000D01*
X102080000Y-55090000D02*
X102080000Y-56560000D01*
X102080000Y-56560000D02*
X104540000Y-56560000D01*
X102160000Y-59060000D02*
X102160000Y-56960000D01*
X102160000Y-59060000D02*
X104790000Y-59060000D01*
X103040000Y-53510000D02*
X103040000Y-52210000D01*
X103599420Y-59700000D02*
X103880580Y-59700000D01*
X103599420Y-60720000D02*
X103880580Y-60720000D01*
X104340000Y-55010000D02*
X105390000Y-55010000D01*
X104540000Y-55090000D02*
X102080000Y-55090000D01*
X104790000Y-56960000D02*
X102160000Y-56960000D01*
X104790000Y-56960000D02*
X104790000Y-59060000D01*
X104840000Y-54810000D02*
X105440000Y-55060000D01*
X105340000Y-54960000D02*
X104640000Y-54960000D01*
X107440000Y-55710000D02*
X107740000Y-56010000D01*
X107440000Y-57710000D02*
X107740000Y-58010000D01*
X107740000Y-56010000D02*
X107440000Y-55710000D01*
X107740000Y-56010000D02*
X107440000Y-56310000D01*
X107740000Y-56010000D02*
X108040000Y-55710000D01*
X107740000Y-56010000D02*
X108040000Y-56310000D01*
X107740000Y-58010000D02*
X107440000Y-57710000D01*
X107740000Y-58010000D02*
X107440000Y-58310000D01*
X107740000Y-58010000D02*
X108040000Y-57710000D01*
X107740000Y-58010000D02*
X108040000Y-58310000D01*
X107740000Y-60010000D02*
X107440000Y-59710000D01*
X107740000Y-60010000D02*
X107440000Y-60310000D01*
X107740000Y-60010000D02*
X108040000Y-59710000D01*
X107740000Y-60010000D02*
X108040000Y-60310000D01*
X108040000Y-55710000D02*
X107740000Y-56010000D01*
X108040000Y-56310000D02*
X107740000Y-56010000D01*
X108040000Y-57710000D02*
X107740000Y-58010000D01*
X108040000Y-58310000D02*
X107740000Y-58010000D01*
X103090000Y-57360000D02*
X104390000Y-57360000D01*
X104390000Y-58660000D01*
X103090000Y-58660000D01*
X103090000Y-57360000D01*
X107180000Y-58010000D02*
G75*
G02*
X100300000Y-58010000I-3440000J0D01*
G01*
X100300000Y-58010000D02*
G75*
G02*
X107180000Y-58010000I3440000J0D01*
G01*
X99640000Y-58510000D02*
X98440000Y-58510000D01*
X99040000Y-57510000D01*
X99640000Y-58510000D01*
G36*
X99640000Y-58510000D02*
G01*
X98440000Y-58510000D01*
X99040000Y-57510000D01*
X99640000Y-58510000D01*
G37*
X104040000Y-53510000D02*
X103040000Y-52910000D01*
X104040000Y-52310000D01*
X104040000Y-53510000D01*
G36*
X104040000Y-53510000D02*
G01*
X103040000Y-52910000D01*
X104040000Y-52310000D01*
X104040000Y-53510000D01*
G37*
X104140000Y-61410000D02*
X103340000Y-61410000D01*
X102140000Y-60810000D01*
X105290000Y-60810000D01*
X104140000Y-61410000D01*
G36*
X104140000Y-61410000D02*
G01*
X103340000Y-61410000D01*
X102140000Y-60810000D01*
X105290000Y-60810000D01*
X104140000Y-61410000D01*
G37*
X105540000Y-59110000D02*
X105290000Y-59560000D01*
X102240000Y-59560000D01*
X102240000Y-59010000D01*
X105540000Y-59110000D01*
G36*
X105540000Y-59110000D02*
G01*
X105290000Y-59560000D01*
X102240000Y-59560000D01*
X102240000Y-59010000D01*
X105540000Y-59110000D01*
G37*
X105540000Y-59110000D02*
X104790000Y-59060000D01*
X104790000Y-56960000D01*
X105440000Y-56810000D01*
X105540000Y-59110000D01*
G36*
X105540000Y-59110000D02*
G01*
X104790000Y-59060000D01*
X104790000Y-56960000D01*
X105440000Y-56810000D01*
X105540000Y-59110000D01*
G37*
X105440000Y-56960000D02*
X102160000Y-56960000D01*
X102140000Y-56660000D01*
X104540000Y-56660000D01*
X105640000Y-56660000D01*
X105440000Y-56960000D01*
G36*
X105440000Y-56960000D02*
G01*
X102160000Y-56960000D01*
X102140000Y-56660000D01*
X104540000Y-56660000D01*
X105640000Y-56660000D01*
X105440000Y-56960000D01*
G37*
X104840000Y-54810000D02*
X104890000Y-54960000D01*
X102160000Y-55010000D01*
X102640000Y-54810000D01*
X103340000Y-54610000D01*
X103940000Y-54610000D01*
X104840000Y-54810000D01*
G36*
X104840000Y-54810000D02*
G01*
X104890000Y-54960000D01*
X102160000Y-55010000D01*
X102640000Y-54810000D01*
X103340000Y-54610000D01*
X103940000Y-54610000D01*
X104840000Y-54810000D01*
G37*
X102160000Y-59060000D02*
X102140000Y-60810000D01*
X103340000Y-61410000D01*
X102540000Y-61210000D01*
X102140000Y-61010000D01*
X101840000Y-60810000D01*
X101340000Y-60410000D01*
X100940000Y-59910000D01*
X100540000Y-59210000D01*
X100340000Y-58410000D01*
X100340000Y-57810000D01*
X100540000Y-56810000D01*
X100940000Y-56110000D01*
X101440000Y-55510000D01*
X102160000Y-55010000D01*
X102160000Y-59060000D01*
G36*
X102160000Y-59060000D02*
G01*
X102140000Y-60810000D01*
X103340000Y-61410000D01*
X102540000Y-61210000D01*
X102140000Y-61010000D01*
X101840000Y-60810000D01*
X101340000Y-60410000D01*
X100940000Y-59910000D01*
X100540000Y-59210000D01*
X100340000Y-58410000D01*
X100340000Y-57810000D01*
X100540000Y-56810000D01*
X100940000Y-56110000D01*
X101440000Y-55510000D01*
X102160000Y-55010000D01*
X102160000Y-59060000D01*
G37*
X105840000Y-55310000D02*
X106240000Y-55710000D01*
X106640000Y-56210000D01*
X106840000Y-56610000D01*
X106940000Y-56810000D01*
X107140000Y-57510000D01*
X107180000Y-58010000D01*
X107115000Y-58610000D01*
X106940000Y-59210000D01*
X106540000Y-59910000D01*
X105940000Y-60610000D01*
X105340000Y-61010000D01*
X104940000Y-61210000D01*
X104140000Y-61410000D01*
X105290000Y-60810000D01*
X105290000Y-59410000D01*
X105490000Y-56610000D01*
X105490000Y-55110000D01*
X105840000Y-55310000D01*
G36*
X105840000Y-55310000D02*
G01*
X106240000Y-55710000D01*
X106640000Y-56210000D01*
X106840000Y-56610000D01*
X106940000Y-56810000D01*
X107140000Y-57510000D01*
X107180000Y-58010000D01*
X107115000Y-58610000D01*
X106940000Y-59210000D01*
X106540000Y-59910000D01*
X105940000Y-60610000D01*
X105340000Y-61010000D01*
X104940000Y-61210000D01*
X104140000Y-61410000D01*
X105290000Y-60810000D01*
X105290000Y-59410000D01*
X105490000Y-56610000D01*
X105490000Y-55110000D01*
X105840000Y-55310000D01*
G37*
%TD*%
M02*
