M48
; DRILL file {KiCad (6.0.8-1)-1} date Wednesday, May 08, 2024 at 11:05:04 AM
; FORMAT={-:-/ absolute / inch / decimal}
; #@! TF.CreationDate,2024-05-08T11:05:04-04:00
; #@! TF.GenerationSoftware,Kicad,Pcbnew,(6.0.8-1)-1
; #@! TF.FileFunction,Plated,1,2,PTH
FMAT,2
INCH
; #@! TA.AperFunction,Plated,PTH,ViaDrill
T1C0.0157
; #@! TA.AperFunction,Plated,PTH,ComponentDrill
T2C0.0350
; #@! TA.AperFunction,Plated,PTH,ComponentDrill
T3C0.0433
; #@! TA.AperFunction,Plated,PTH,ComponentDrill
T4C0.0591
%
G90
G05
T1
X2.5945Y-3.2047
X2.596Y-11.5192
X2.5984Y-6.0669
X2.6024Y-1.6393
X2.6043Y-9.6555
X2.6063Y-4.5015
X2.6122Y-8.0901
X2.6422Y-2.4887
X2.6462Y-5.3509
X2.6521Y-8.9395
X2.6619Y-1.78
X2.6658Y-4.6422
X2.6718Y-8.2308
X2.6727Y-11.4739
X2.6727Y-11.5605
X2.7087Y-2.8583
X2.7087Y-3.0472
X2.7126Y-5.7205
X2.7126Y-5.9094
X2.7185Y-9.3091
X2.7185Y-9.498
X2.7205Y-4.4331
X2.7441Y-1.4409
X2.7441Y-3.6496
X2.748Y-4.3031
X2.748Y-6.5118
X2.75Y-7.2382
X2.7539Y-7.8917
X2.7539Y-10.1004
X2.7559Y-2.1378
X2.7559Y-3.9764
X2.7598Y-1.4961
X2.7598Y-5.0
X2.7598Y-6.8386
X2.7618Y-7.565
X2.7638Y-2.3268
X2.7657Y-8.5886
X2.7677Y-5.189
X2.7736Y-8.7776
X2.7795Y-3.8583
X2.7835Y-6.7205
X2.7854Y-7.4469
X2.7894Y-10.3091
X2.8071Y-5.811
X2.811Y-2.063
X2.815Y-8.6575
X2.8268Y-2.9213
X2.8268Y-9.4975
X2.8425Y-12.5197
X2.8465Y-5.0118
X2.8504Y-3.7874
X2.8504Y-8.0354
X2.8504Y-10.2165
X2.8504Y-12.1339
X2.8622Y-7.3819
X2.8701Y-9.378
X3.0512Y-6.6575
X3.0748Y-6.8386
X4.4646Y-10.2992
X4.4685Y-2.7756
X4.4685Y-4.6535
X4.4685Y-6.5394
X4.4685Y-8.4173
X4.4764Y-2.6811
X4.4764Y-4.563
X4.4764Y-6.4449
X4.4764Y-8.3268
X4.4764Y-10.2087
X4.5433Y-8.4646
X4.5433Y-10.3425
X4.5472Y-2.8189
X4.5472Y-4.6969
X4.5472Y-6.5787
X4.6299Y-2.6772
X4.6299Y-4.5591
X4.6299Y-6.4409
X4.6299Y-8.3228
X4.6299Y-10.2047
X6.3425Y-6.5394
X6.3465Y-2.7717
X6.3465Y-8.4173
X6.3504Y-4.6575
X6.3504Y-10.3031
X6.3583Y-2.6811
X6.3583Y-4.563
X6.3583Y-6.4449
X6.3583Y-8.3268
X6.3583Y-10.2087
X6.4252Y-2.815
X6.4252Y-10.3425
X6.4291Y-4.6969
X6.4291Y-6.5827
X6.4291Y-8.4606
X6.5118Y-2.6772
X6.5118Y-4.5591
X6.5118Y-6.4409
X6.5118Y-8.3228
X6.5118Y-10.2047
X8.2283Y-2.7756
X8.2283Y-6.5354
X8.2283Y-8.4173
X8.2283Y-10.3031
X8.2323Y-4.6535
X8.2402Y-2.6811
X8.2402Y-4.563
X8.2402Y-6.4449
X8.2402Y-8.3268
X8.2402Y-10.2087
X8.3071Y-4.6969
X8.3071Y-10.3425
X8.311Y-2.815
X8.311Y-6.5787
X8.311Y-8.4606
X8.3937Y-2.6772
X8.3937Y-4.5591
X8.3937Y-6.4409
X8.3937Y-8.3228
X8.3937Y-10.2047
X10.1102Y-2.7717
X10.1102Y-6.5394
X10.1102Y-8.4213
X10.1142Y-4.6535
X10.1142Y-10.3031
X10.122Y-2.6811
X10.122Y-4.563
X10.122Y-6.4449
X10.122Y-8.3268
X10.122Y-10.2087
X10.189Y-6.5787
X10.189Y-8.4646
X10.189Y-10.3425
X10.1929Y-2.815
X10.1929Y-4.6969
X10.2756Y-2.6772
X10.2756Y-4.5591
X10.2756Y-6.4409
X10.2756Y-8.3228
X10.2756Y-10.2047
X11.9921Y-2.7717
X11.9921Y-4.6535
X11.9921Y-6.5394
X11.9921Y-8.4173
X11.9961Y-10.2992
X12.0039Y-2.6811
X12.0039Y-4.563
X12.0039Y-6.4449
X12.0039Y-8.3268
X12.0039Y-10.2087
X12.0709Y-2.815
X12.0709Y-4.7008
X12.0709Y-6.5827
X12.0709Y-10.3386
X12.0787Y-8.4606
X12.1575Y-2.6772
X12.1575Y-4.5591
X12.1575Y-6.4409
X12.1575Y-8.3228
X12.1575Y-10.2047
T2
X2.3307Y-3.2047
X2.3307Y-3.3047
X2.3307Y-3.4047
X2.3327Y-1.4192
X2.3327Y-1.5192
X2.3327Y-1.6192
X2.3327Y-1.78
X2.3327Y-1.88
X2.3327Y-1.98
X2.3327Y-2.1381
X2.3327Y-2.2381
X2.3327Y-2.3381
X2.3327Y-2.4887
X2.3327Y-2.5887
X2.3327Y-2.6887
X2.3327Y-2.8468
X2.3327Y-2.9468
X2.3327Y-3.0468
X2.3327Y-3.5633
X2.3327Y-3.6633
X2.3327Y-3.7633
X2.3327Y-3.9218
X2.3327Y-4.0218
X2.3327Y-4.1218
X2.3346Y-6.0669
X2.3346Y-6.1669
X2.3346Y-6.2669
X2.3366Y-4.2814
X2.3366Y-4.3814
X2.3366Y-4.4814
X2.3366Y-4.6422
X2.3366Y-4.7422
X2.3366Y-4.8422
X2.3366Y-5.0003
X2.3366Y-5.1003
X2.3366Y-5.2003
X2.3366Y-5.3509
X2.3366Y-5.4509
X2.3366Y-5.5509
X2.3366Y-5.709
X2.3366Y-5.809
X2.3366Y-5.909
X2.3366Y-6.4255
X2.3366Y-6.5255
X2.3366Y-6.6255
X2.3366Y-6.784
X2.3366Y-6.884
X2.3366Y-6.984
X2.3386Y-7.1519
X2.3386Y-7.2519
X2.3386Y-7.3519
X2.3386Y-7.5103
X2.3386Y-7.6103
X2.3386Y-7.7103
X2.3406Y-9.6555
X2.3406Y-9.7555
X2.3406Y-9.8555
X2.3425Y-7.87
X2.3425Y-7.97
X2.3425Y-8.07
X2.3425Y-8.2308
X2.3425Y-8.3308
X2.3425Y-8.4308
X2.3425Y-8.5889
X2.3425Y-8.6889
X2.3425Y-8.7889
X2.3425Y-8.9395
X2.3425Y-9.0395
X2.3425Y-9.1395
X2.3425Y-9.2975
X2.3425Y-9.3975
X2.3425Y-9.4975
X2.3425Y-10.0141
X2.3425Y-10.1141
X2.3425Y-10.2141
X2.3794Y-11.4213
X2.3794Y-11.5213
X2.3794Y-11.6213
T3
X2.1806Y-12.3656
T4
X1.9828Y-12.1678
X1.9828Y-12.5635
X2.3784Y-12.1678
X2.3784Y-12.5635
T0
M30
