%TF.GenerationSoftware,KiCad,Pcbnew,(6.0.8-1)-1*%
%TF.CreationDate,2024-05-09T21:57:39-04:00*%
%TF.ProjectId,Untitled,556e7469-746c-4656-942e-6b696361645f,rev?*%
%TF.SameCoordinates,Original*%
%TF.FileFunction,Paste,Top*%
%TF.FilePolarity,Positive*%
%FSLAX46Y46*%
G04 Gerber Fmt 4.6, Leading zero omitted, Abs format (unit mm)*
G04 Created by KiCad (PCBNEW (6.0.8-1)-1) date 2024-05-09 21:57:39*
%MOMM*%
%LPD*%
G01*
G04 APERTURE LIST*
G04 Aperture macros list*
%AMRoundRect*
0 Rectangle with rounded corners*
0 $1 Rounding radius*
0 $2 $3 $4 $5 $6 $7 $8 $9 X,Y pos of 4 corners*
0 Add a 4 corners polygon primitive as box body*
4,1,4,$2,$3,$4,$5,$6,$7,$8,$9,$2,$3,0*
0 Add four circle primitives for the rounded corners*
1,1,$1+$1,$2,$3*
1,1,$1+$1,$4,$5*
1,1,$1+$1,$6,$7*
1,1,$1+$1,$8,$9*
0 Add four rect primitives between the rounded corners*
20,1,$1+$1,$2,$3,$4,$5,0*
20,1,$1+$1,$4,$5,$6,$7,0*
20,1,$1+$1,$6,$7,$8,$9,0*
20,1,$1+$1,$8,$9,$2,$3,0*%
G04 Aperture macros list end*
%ADD10RoundRect,0.237500X-0.287500X-0.237500X0.287500X-0.237500X0.287500X0.237500X-0.287500X0.237500X0*%
%ADD11R,0.700000X0.700000*%
%ADD12RoundRect,0.250000X-0.325000X-1.100000X0.325000X-1.100000X0.325000X1.100000X-0.325000X1.100000X0*%
%ADD13RoundRect,0.087500X-0.087500X-0.337500X0.087500X-0.337500X0.087500X0.337500X-0.087500X0.337500X0*%
%ADD14RoundRect,0.250000X-0.312500X-0.625000X0.312500X-0.625000X0.312500X0.625000X-0.312500X0.625000X0*%
G04 APERTURE END LIST*
D10*
%TO.C,REF\u002A\u002A21*%
X177545000Y-283175000D03*
D11*
X179172500Y-284510000D03*
X177147500Y-284510000D03*
D10*
X179295000Y-283175000D03*
D11*
X177147500Y-285560000D03*
X179172500Y-285610000D03*
%TD*%
D12*
%TO.C,10 nF*%
X64975000Y-218150000D03*
X67925000Y-218150000D03*
%TD*%
%TO.C,10 nF*%
X63525000Y-173000000D03*
X66475000Y-173000000D03*
%TD*%
D10*
%TO.C,REF\u002A\u002A20*%
X129745000Y-283175000D03*
D11*
X131372500Y-284510000D03*
X129347500Y-284510000D03*
D10*
X131495000Y-283175000D03*
D11*
X129347500Y-285560000D03*
X131372500Y-285610000D03*
%TD*%
D12*
%TO.C,10 nF*%
X64825000Y-102200000D03*
X67775000Y-102200000D03*
%TD*%
%TO.C,10 nF*%
X64825000Y-127000000D03*
X67775000Y-127000000D03*
%TD*%
D11*
%TO.C,REF\u002A\u002A5*%
X131372500Y-141110000D03*
D10*
X129745000Y-139775000D03*
D11*
X129347500Y-141110000D03*
D10*
X131495000Y-139775000D03*
D11*
X129347500Y-142160000D03*
X131372500Y-142210000D03*
%TD*%
D10*
%TO.C,REF\u002A\u002A3*%
X273145000Y-91975000D03*
D11*
X274772500Y-93310000D03*
D10*
X274895000Y-91975000D03*
D11*
X272747500Y-93310000D03*
X272747500Y-94360000D03*
X274772500Y-94410000D03*
%TD*%
D12*
%TO.C,10 nF*%
X64975000Y-193350000D03*
X67925000Y-193350000D03*
%TD*%
D10*
%TO.C,REF\u002A\u002A4*%
X320945000Y-91975000D03*
D11*
X322572500Y-93310000D03*
D10*
X322695000Y-91975000D03*
D11*
X320547500Y-93310000D03*
X320547500Y-94360000D03*
X322572500Y-94410000D03*
%TD*%
D12*
%TO.C,10 nF*%
X64875000Y-199950000D03*
X67825000Y-199950000D03*
%TD*%
D11*
%TO.C,REF\u002A\u002A2*%
X226972500Y-93310000D03*
D10*
X225345000Y-91975000D03*
D11*
X224947500Y-93310000D03*
D10*
X227095000Y-91975000D03*
D11*
X224947500Y-94360000D03*
X226972500Y-94410000D03*
%TD*%
D10*
%TO.C,REF\u002A\u002A19*%
X320945000Y-235375000D03*
D11*
X322572500Y-236710000D03*
D10*
X322695000Y-235375000D03*
D11*
X320547500Y-236710000D03*
X320547500Y-237760000D03*
X322572500Y-237810000D03*
%TD*%
D12*
%TO.C,10 nF*%
X65075000Y-211550000D03*
X68025000Y-211550000D03*
%TD*%
%TO.C,10 nF*%
X64625000Y-36100000D03*
X67575000Y-36100000D03*
%TD*%
D11*
%TO.C,REF\u002A\u002A7*%
X226972500Y-141110000D03*
D10*
X225345000Y-139775000D03*
D11*
X224947500Y-141110000D03*
D10*
X227095000Y-139775000D03*
D11*
X224947500Y-142160000D03*
X226972500Y-142210000D03*
%TD*%
%TO.C,REF\u002A\u002A8*%
X274772500Y-141110000D03*
D10*
X273145000Y-139775000D03*
X274895000Y-139775000D03*
D11*
X272747500Y-141110000D03*
X272747500Y-142160000D03*
X274772500Y-142210000D03*
%TD*%
D10*
%TO.C,REF\u002A\u002A14*%
X320945000Y-187575000D03*
D11*
X322572500Y-188910000D03*
X320547500Y-188910000D03*
D10*
X322695000Y-187575000D03*
D11*
X320547500Y-189960000D03*
X322572500Y-190010000D03*
%TD*%
%TO.C,REF\u002A\u002A23*%
X274772500Y-284510000D03*
D10*
X273145000Y-283175000D03*
D11*
X272747500Y-284510000D03*
D10*
X274895000Y-283175000D03*
D11*
X272747500Y-285560000D03*
X274772500Y-285610000D03*
%TD*%
%TO.C,REF\u002A\u002A24*%
X322572500Y-284510000D03*
D10*
X320945000Y-283175000D03*
D11*
X320547500Y-284510000D03*
D10*
X322695000Y-283175000D03*
D11*
X320547500Y-285560000D03*
X322572500Y-285610000D03*
%TD*%
%TO.C,REF\u002A\u002A16*%
X179172500Y-236710000D03*
D10*
X177545000Y-235375000D03*
X179295000Y-235375000D03*
D11*
X177147500Y-236710000D03*
X177147500Y-237760000D03*
X179172500Y-237810000D03*
%TD*%
D13*
%TO.C,*%
X67237500Y-293687500D03*
%TD*%
D12*
%TO.C,10 nF*%
X65025000Y-182400000D03*
X67975000Y-182400000D03*
%TD*%
%TO.C,10 nF*%
X64975000Y-236450000D03*
X67925000Y-236450000D03*
%TD*%
%TO.C,10 nF*%
X64525000Y-66200000D03*
X67475000Y-66200000D03*
%TD*%
D11*
%TO.C,REF\u002A\u002A10*%
X131372500Y-188910000D03*
D10*
X129745000Y-187575000D03*
X131495000Y-187575000D03*
D11*
X129347500Y-188910000D03*
X129347500Y-189960000D03*
X131372500Y-190010000D03*
%TD*%
D12*
%TO.C,10 nF*%
X64825000Y-90400000D03*
X67775000Y-90400000D03*
%TD*%
D11*
%TO.C,REF\u002A\u002A6*%
X179172500Y-141110000D03*
D10*
X177545000Y-139775000D03*
X179295000Y-139775000D03*
D11*
X177147500Y-141110000D03*
X177147500Y-142160000D03*
X179172500Y-142210000D03*
%TD*%
%TO.C,REF\u002A\u002A17*%
X226972500Y-236710000D03*
D10*
X225345000Y-235375000D03*
D11*
X224947500Y-236710000D03*
D10*
X227095000Y-235375000D03*
D11*
X224947500Y-237760000D03*
X226972500Y-237810000D03*
%TD*%
D12*
%TO.C,10 nF*%
X63825000Y-156700000D03*
X66775000Y-156700000D03*
%TD*%
%TO.C,10 nF*%
X63025000Y-47900000D03*
X65975000Y-47900000D03*
%TD*%
%TO.C,10 nF*%
X62925000Y-72500000D03*
X65875000Y-72500000D03*
%TD*%
%TO.C,10 nF*%
X64625000Y-138900000D03*
X67575000Y-138900000D03*
%TD*%
%TO.C,10 nF*%
X63825000Y-54300000D03*
X66775000Y-54300000D03*
%TD*%
%TO.C,10 nF*%
X63725000Y-84000000D03*
X66675000Y-84000000D03*
%TD*%
D10*
%TO.C,REF\u002A\u002A12*%
X225345000Y-187575000D03*
D11*
X226972500Y-188910000D03*
D10*
X227095000Y-187575000D03*
D11*
X224947500Y-188910000D03*
X224947500Y-189960000D03*
X226972500Y-190010000D03*
%TD*%
D10*
%TO.C,REF\u002A\u002A22*%
X225345000Y-283175000D03*
D11*
X226972500Y-284510000D03*
X224947500Y-284510000D03*
D10*
X227095000Y-283175000D03*
D11*
X224947500Y-285560000D03*
X226972500Y-285610000D03*
%TD*%
D12*
%TO.C,10 nF*%
X64775000Y-230050000D03*
X67725000Y-230050000D03*
%TD*%
D11*
%TO.C,REF\u002A\u002A15*%
X131372500Y-236710000D03*
D10*
X129745000Y-235375000D03*
D11*
X129347500Y-236710000D03*
D10*
X131495000Y-235375000D03*
D11*
X129347500Y-237760000D03*
X131372500Y-237810000D03*
%TD*%
D12*
%TO.C,10 nF*%
X64925000Y-120400000D03*
X67875000Y-120400000D03*
%TD*%
D13*
%TO.C,Temp1*%
X65937500Y-293687500D03*
X66587500Y-293687500D03*
X67237500Y-293687500D03*
X67237500Y-291487500D03*
X65937500Y-291487500D03*
%TD*%
D12*
%TO.C,10 nF*%
X65075000Y-254250000D03*
X68025000Y-254250000D03*
%TD*%
D14*
%TO.C,50 \u03A9*%
X61537500Y-303400000D03*
X64462500Y-303400000D03*
%TD*%
D10*
%TO.C,REF\u002A\u002A9*%
X320945000Y-139775000D03*
D11*
X322572500Y-141110000D03*
X320547500Y-141110000D03*
D10*
X322695000Y-139775000D03*
D11*
X320547500Y-142160000D03*
X322572500Y-142210000D03*
%TD*%
%TO.C,REF\u002A\u002A13*%
X274772500Y-188910000D03*
D10*
X273145000Y-187575000D03*
D11*
X272747500Y-188910000D03*
D10*
X274895000Y-187575000D03*
D11*
X272747500Y-189960000D03*
X274772500Y-190010000D03*
%TD*%
D12*
%TO.C,10 nF*%
X63975000Y-247850000D03*
X66925000Y-247850000D03*
%TD*%
D11*
%TO.C,REF\u002A\u002A1*%
X179172500Y-93310000D03*
D10*
X177545000Y-91975000D03*
X179295000Y-91975000D03*
D11*
X177147500Y-93310000D03*
X177147500Y-94360000D03*
X179172500Y-94410000D03*
%TD*%
D12*
%TO.C,10 nF*%
X64825000Y-145300000D03*
X67775000Y-145300000D03*
%TD*%
D10*
%TO.C,REF\u002A\u002A18*%
X273145000Y-235375000D03*
D11*
X274772500Y-236710000D03*
X272747500Y-236710000D03*
D10*
X274895000Y-235375000D03*
D11*
X272747500Y-237760000D03*
X274772500Y-237810000D03*
%TD*%
D12*
%TO.C,10 nF*%
X64725000Y-108800000D03*
X67675000Y-108800000D03*
%TD*%
D10*
%TO.C,REF\u002A\u002A*%
X129745000Y-91975000D03*
D11*
X131372500Y-93310000D03*
X129347500Y-93310000D03*
D10*
X131495000Y-91975000D03*
D11*
X129347500Y-94360000D03*
X131372500Y-94410000D03*
%TD*%
D12*
%TO.C,10 nF*%
X63925000Y-161700000D03*
X66875000Y-161700000D03*
%TD*%
D11*
%TO.C,REF\u002A\u002A11*%
X179172500Y-188910000D03*
D10*
X177545000Y-187575000D03*
X179295000Y-187575000D03*
D11*
X177147500Y-188910000D03*
X177147500Y-189960000D03*
X179172500Y-190010000D03*
%TD*%
M02*
