%TF.GenerationSoftware,KiCad,Pcbnew,(6.0.8-1)-1*%
%TF.CreationDate,2024-05-08T14:48:30-04:00*%
%TF.ProjectId,Untitled,556e7469-746c-4656-942e-6b696361645f,rev?*%
%TF.SameCoordinates,Original*%
%TF.FileFunction,Copper,L2,Bot*%
%TF.FilePolarity,Positive*%
%FSLAX46Y46*%
G04 Gerber Fmt 4.6, Leading zero omitted, Abs format (unit mm)*
G04 Created by KiCad (PCBNEW (6.0.8-1)-1) date 2024-05-08 14:48:30*
%MOMM*%
%LPD*%
G01*
G04 APERTURE LIST*
%TA.AperFunction,ComponentPad*%
%ADD10R,1.397000X1.397000*%
%TD*%
%TA.AperFunction,ComponentPad*%
%ADD11C,1.397000*%
%TD*%
%TA.AperFunction,ComponentPad*%
%ADD12R,3.500000X3.500000*%
%TD*%
%TA.AperFunction,ComponentPad*%
%ADD13C,4.000000*%
%TD*%
%TA.AperFunction,ViaPad*%
%ADD14C,0.800000*%
%TD*%
%TA.AperFunction,Conductor*%
%ADD15C,0.200000*%
%TD*%
%TA.AperFunction,Conductor*%
%ADD16C,0.250000*%
%TD*%
G04 APERTURE END LIST*
D10*
%TO.P,REF\u002A\u002A,1*%
%TO.N,N/C*%
X59500100Y-241237500D03*
D11*
%TO.P,REF\u002A\u002A,2*%
X59500100Y-238697500D03*
%TO.P,REF\u002A\u002A,3*%
X59500100Y-236157500D03*
%TD*%
D10*
%TO.P,REF\u002A\u002A,1*%
%TO.N,N/C*%
X59400100Y-186737500D03*
D11*
%TO.P,REF\u002A\u002A,2*%
X59400100Y-184197500D03*
%TO.P,REF\u002A\u002A,3*%
X59400100Y-181657500D03*
%TD*%
D12*
%TO.P,LEDs,1*%
%TO.N,N/C*%
X55387500Y-314087500D03*
D13*
%TO.P,LEDs,2*%
X60412500Y-319112500D03*
X60412500Y-309062500D03*
X50362500Y-319112500D03*
X50362500Y-309062500D03*
%TD*%
D10*
%TO.P,REF\u002A\u002A,1*%
%TO.N,N/C*%
X59350100Y-132087500D03*
D11*
%TO.P,REF\u002A\u002A,2*%
X59350100Y-129547500D03*
%TO.P,REF\u002A\u002A,3*%
X59350100Y-127007500D03*
%TD*%
D10*
%TO.P,REF\u002A\u002A,1*%
%TO.N,N/C*%
X59500100Y-204977500D03*
D11*
%TO.P,REF\u002A\u002A,2*%
X59500100Y-202437500D03*
%TO.P,REF\u002A\u002A,3*%
X59500100Y-199897500D03*
%TD*%
D10*
%TO.P,REF\u002A\u002A,1*%
%TO.N,N/C*%
X59350100Y-113827500D03*
D11*
%TO.P,REF\u002A\u002A,2*%
X59350100Y-111287500D03*
%TO.P,REF\u002A\u002A,3*%
X59350100Y-108747500D03*
%TD*%
D10*
%TO.P,REF\u002A\u002A,1*%
%TO.N,N/C*%
X59250100Y-41127500D03*
D11*
%TO.P,REF\u002A\u002A,2*%
X59250100Y-38587500D03*
%TO.P,REF\u002A\u002A,3*%
X59250100Y-36047500D03*
%TD*%
D10*
%TO.P,REF\u002A\u002A,1*%
%TO.N,N/C*%
X59350100Y-150087500D03*
D11*
%TO.P,REF\u002A\u002A,2*%
X59350100Y-147547500D03*
%TO.P,REF\u002A\u002A,3*%
X59350100Y-145007500D03*
%TD*%
D10*
%TO.P,REF\u002A\u002A,1*%
%TO.N,N/C*%
X59350100Y-168287500D03*
D11*
%TO.P,REF\u002A\u002A,2*%
X59350100Y-165747500D03*
%TO.P,REF\u002A\u002A,3*%
X59350100Y-163207500D03*
%TD*%
D10*
%TO.P,REF\u002A\u002A,1*%
%TO.N,N/C*%
X59250100Y-95587500D03*
D11*
%TO.P,REF\u002A\u002A,2*%
X59250100Y-93047500D03*
%TO.P,REF\u002A\u002A,3*%
X59250100Y-90507500D03*
%TD*%
D10*
%TO.P,REF\u002A\u002A,1*%
%TO.N,N/C*%
X59250100Y-77387500D03*
D11*
%TO.P,REF\u002A\u002A,2*%
X59250100Y-74847500D03*
%TO.P,REF\u002A\u002A,3*%
X59250100Y-72307500D03*
%TD*%
D10*
%TO.P,REF\u002A\u002A,1*%
%TO.N,N/C*%
X59250100Y-59387500D03*
D11*
%TO.P,REF\u002A\u002A,2*%
X59250100Y-56847500D03*
%TO.P,REF\u002A\u002A,3*%
X59250100Y-54307500D03*
%TD*%
D10*
%TO.P,REF\u002A\u002A,1*%
%TO.N,N/C*%
X59500100Y-223237500D03*
D11*
%TO.P,REF\u002A\u002A,2*%
X59500100Y-220697500D03*
%TO.P,REF\u002A\u002A,3*%
X59500100Y-218157500D03*
%TD*%
D10*
%TO.P,REF\u002A\u002A,1*%
%TO.N,N/C*%
X59500100Y-259437500D03*
D11*
%TO.P,REF\u002A\u002A,2*%
X59500100Y-256897500D03*
%TO.P,REF\u002A\u002A,3*%
X59500100Y-254357500D03*
%TD*%
D10*
%TO.P,REF\u002A\u002A,1*%
%TO.N,N/C*%
X59350100Y-172312500D03*
D11*
%TO.P,REF\u002A\u002A,2*%
X59350100Y-174852500D03*
%TO.P,REF\u002A\u002A,3*%
X59350100Y-177392500D03*
%TD*%
D10*
%TO.P,REF\u002A\u002A,1*%
%TO.N,N/C*%
X59250100Y-99612500D03*
D11*
%TO.P,REF\u002A\u002A,2*%
X59250100Y-102152500D03*
%TO.P,REF\u002A\u002A,3*%
X59250100Y-104692500D03*
%TD*%
D10*
%TO.P,REF\u002A\u002A,1*%
%TO.N,N/C*%
X59350100Y-135912500D03*
D11*
%TO.P,REF\u002A\u002A,2*%
X59350100Y-138452500D03*
%TO.P,REF\u002A\u002A,3*%
X59350100Y-140992500D03*
%TD*%
D10*
%TO.P,REF\u002A\u002A,1*%
%TO.N,N/C*%
X60437600Y-290100000D03*
D11*
%TO.P,REF\u002A\u002A,2*%
X60437600Y-292640000D03*
%TO.P,REF\u002A\u002A,3*%
X60437600Y-295180000D03*
%TD*%
D10*
%TO.P,REF\u002A\u002A,1*%
%TO.N,N/C*%
X59450000Y-245250000D03*
D11*
%TO.P,REF\u002A\u002A,2*%
X59450000Y-247790000D03*
%TO.P,REF\u002A\u002A,3*%
X59450000Y-250330000D03*
%TD*%
D10*
%TO.P,REF\u002A\u002A,1*%
%TO.N,N/C*%
X59250100Y-63212500D03*
D11*
%TO.P,REF\u002A\u002A,2*%
X59250100Y-65752500D03*
%TO.P,REF\u002A\u002A,3*%
X59250100Y-68292500D03*
%TD*%
D10*
%TO.P,REF\u002A\u002A,1*%
%TO.N,N/C*%
X59400100Y-190762500D03*
D11*
%TO.P,REF\u002A\u002A,2*%
X59400100Y-193302500D03*
%TO.P,REF\u002A\u002A,3*%
X59400100Y-195842500D03*
%TD*%
D10*
%TO.P,REF\u002A\u002A,1*%
%TO.N,N/C*%
X59200000Y-81400000D03*
D11*
%TO.P,REF\u002A\u002A,2*%
X59200000Y-83940000D03*
%TO.P,REF\u002A\u002A,3*%
X59200000Y-86480000D03*
%TD*%
D10*
%TO.P,REF\u002A\u002A,1*%
%TO.N,N/C*%
X59350100Y-117912500D03*
D11*
%TO.P,REF\u002A\u002A,2*%
X59350100Y-120452500D03*
%TO.P,REF\u002A\u002A,3*%
X59350100Y-122992500D03*
%TD*%
D10*
%TO.P,REF\u002A\u002A,1*%
%TO.N,N/C*%
X59500100Y-227062500D03*
D11*
%TO.P,REF\u002A\u002A,2*%
X59500100Y-229602500D03*
%TO.P,REF\u002A\u002A,3*%
X59500100Y-232142500D03*
%TD*%
D10*
%TO.P,REF\u002A\u002A,1*%
%TO.N,N/C*%
X59500100Y-209062500D03*
D11*
%TO.P,REF\u002A\u002A,2*%
X59500100Y-211602500D03*
%TO.P,REF\u002A\u002A,3*%
X59500100Y-214142500D03*
%TD*%
D10*
%TO.P,REF\u002A\u002A,1*%
%TO.N,N/C*%
X59300000Y-154100000D03*
D11*
%TO.P,REF\u002A\u002A,2*%
X59300000Y-156640000D03*
%TO.P,REF\u002A\u002A,3*%
X59300000Y-159180000D03*
%TD*%
D10*
%TO.P,REF\u002A\u002A,1*%
%TO.N,N/C*%
X59250100Y-45212500D03*
D11*
%TO.P,REF\u002A\u002A,2*%
X59250100Y-47752500D03*
%TO.P,REF\u002A\u002A,3*%
X59250100Y-50292500D03*
%TD*%
D14*
%TO.N,*%
X70000000Y-54300000D03*
X163200000Y-262700000D03*
X71500000Y-168500000D03*
X70200000Y-59100000D03*
X256900000Y-118200000D03*
X261000000Y-115800000D03*
X163300000Y-167200000D03*
X67800000Y-168900000D03*
X66150000Y-245250000D03*
X213200000Y-211400000D03*
X308800000Y-68000000D03*
X161500000Y-163700000D03*
X213200000Y-68000000D03*
X113500000Y-166100000D03*
X209100000Y-118200000D03*
X70300000Y-131800000D03*
X211000000Y-262700000D03*
X113500000Y-213800000D03*
X72400000Y-96200000D03*
X69050000Y-241250000D03*
X67112500Y-63212500D03*
X304900000Y-259300000D03*
X113700000Y-211500000D03*
X72300000Y-127300000D03*
X69950000Y-200450000D03*
X256800000Y-166100000D03*
X66000000Y-154100000D03*
X304700000Y-261600000D03*
X72400000Y-259500000D03*
X117600000Y-163600000D03*
X163200000Y-71500000D03*
X209300000Y-115900000D03*
X72400000Y-308200000D03*
X163300000Y-119300000D03*
X113700000Y-163700000D03*
X113700000Y-259300000D03*
X67362500Y-227062500D03*
X70850000Y-261850000D03*
X257100000Y-115900000D03*
X306600000Y-262600000D03*
X67212500Y-135912500D03*
X113500000Y-70500000D03*
X161500000Y-115900000D03*
X161300000Y-261700000D03*
X209000000Y-261700000D03*
X71800000Y-241237500D03*
X113500000Y-118200000D03*
X209300000Y-211500000D03*
X257100000Y-211500000D03*
X161200000Y-70400000D03*
X70750000Y-189150000D03*
X66100000Y-41637506D03*
X115500000Y-119300000D03*
X115500000Y-167100000D03*
X161500000Y-68100000D03*
X117600000Y-68000000D03*
X211100000Y-167100000D03*
X209300000Y-68100000D03*
X308800000Y-259200000D03*
X304900000Y-163700000D03*
X70150000Y-192150000D03*
X256800000Y-70400000D03*
X161500000Y-259300000D03*
X306600000Y-167200000D03*
X65900000Y-81400000D03*
X67887500Y-291437500D03*
X115500000Y-71600000D03*
X308800000Y-211400000D03*
X257100000Y-163700000D03*
X165400000Y-259200000D03*
X70100000Y-38000000D03*
X69800000Y-109300000D03*
X67887500Y-293637500D03*
X117600000Y-259200000D03*
X67862500Y-209062500D03*
X69950000Y-256550000D03*
X115400000Y-262700000D03*
X69700000Y-92700000D03*
X211000000Y-119300000D03*
X304600000Y-213800000D03*
X71800000Y-74200000D03*
X68800000Y-77400000D03*
X258800000Y-262700000D03*
X261000000Y-259200000D03*
X65937500Y-292587500D03*
X256800000Y-213900000D03*
X209000000Y-213800000D03*
X161200000Y-213800000D03*
X209000000Y-166000000D03*
X70250000Y-218150000D03*
X69700000Y-36600000D03*
X67612500Y-45212500D03*
X72200000Y-318000000D03*
X213200000Y-115800000D03*
X161300000Y-118300000D03*
X304900000Y-68100000D03*
X163300000Y-214900000D03*
X304600000Y-70400000D03*
X72400000Y-204100000D03*
X308800000Y-115800000D03*
X165400000Y-211400000D03*
X165400000Y-68000000D03*
X161500000Y-211500000D03*
X306600000Y-71500000D03*
X68800000Y-72600000D03*
X211100000Y-71500000D03*
X113400000Y-261600000D03*
X117600000Y-115800000D03*
X161100000Y-166100000D03*
X308800000Y-163600000D03*
X69100000Y-112600000D03*
X258900000Y-71500000D03*
X113700000Y-115900000D03*
X261000000Y-68000000D03*
X261000000Y-211400000D03*
X70600000Y-98000000D03*
X72700000Y-187500000D03*
X306800000Y-214900000D03*
X72900000Y-238200000D03*
X67712500Y-117912500D03*
X70000000Y-101000000D03*
X68900000Y-150100000D03*
X115400000Y-215000000D03*
X69050000Y-236450000D03*
X71300000Y-147600000D03*
X165400000Y-163600000D03*
X165400000Y-115800000D03*
X72100000Y-56800000D03*
X304900000Y-115900000D03*
X257100000Y-68100000D03*
X213200000Y-259200000D03*
X117600000Y-211400000D03*
X258800000Y-215000000D03*
X209300000Y-259300000D03*
X211100000Y-214900000D03*
X66200000Y-114337506D03*
X68100000Y-161800000D03*
X261000000Y-163600000D03*
X113700000Y-68100000D03*
X256900000Y-261700000D03*
X213200000Y-163600000D03*
X66350000Y-205487506D03*
X304600000Y-166100000D03*
X70100000Y-173700000D03*
X257100000Y-259300000D03*
X258800000Y-167100000D03*
X209300000Y-163700000D03*
X70450000Y-222950000D03*
X71500000Y-219900000D03*
X68900000Y-145300000D03*
X209000000Y-70500000D03*
X304600000Y-118200000D03*
X69850000Y-183850000D03*
X306600000Y-119400000D03*
X304900000Y-211500000D03*
X258900000Y-119300000D03*
X70100000Y-127000000D03*
%TD*%
D15*
%TO.N,*%
X67612500Y-45212500D02*
X71812500Y-45212500D01*
X76500000Y-49900000D02*
X80600000Y-49900000D01*
X71812500Y-45212500D02*
X76500000Y-49900000D01*
X80600000Y-49900000D02*
X106000000Y-75300000D01*
X106000000Y-75300000D02*
X106000000Y-76200000D01*
X158500000Y-76200000D02*
X163200000Y-71500000D01*
X106000000Y-76200000D02*
X158500000Y-76200000D01*
D16*
X59250100Y-47752500D02*
X57300000Y-45802400D01*
X57300000Y-45802400D02*
X57300000Y-43700000D01*
X57300000Y-43700000D02*
X74000000Y-43700000D01*
X74000000Y-43700000D02*
X77400000Y-47100000D01*
X157500000Y-74300000D02*
X161200000Y-70600000D01*
X77400000Y-47100000D02*
X80000000Y-47100000D01*
X80000000Y-47100000D02*
X107200000Y-74300000D01*
X107200000Y-74300000D02*
X157500000Y-74300000D01*
X161200000Y-70600000D02*
X161200000Y-70400000D01*
X76500000Y-52400000D02*
X78400000Y-52400000D01*
X78400000Y-52400000D02*
X89300000Y-63300000D01*
X72100000Y-56800000D02*
X76500000Y-52400000D01*
X89300000Y-63300000D02*
X89300000Y-65100000D01*
X89300000Y-65100000D02*
X102500000Y-78300000D01*
X102500000Y-78300000D02*
X132800000Y-78300000D01*
X67800000Y-168900000D02*
X69900000Y-168900000D01*
X69900000Y-168900000D02*
X71600000Y-170600000D01*
X71500000Y-168500000D02*
X78000000Y-168500000D01*
X78000000Y-168500000D02*
X104100000Y-194600000D01*
X104100000Y-194600000D02*
X276100000Y-194600000D01*
X276100000Y-194600000D02*
X304600000Y-166100000D01*
X71600000Y-170600000D02*
X75000000Y-170600000D01*
X75000000Y-170600000D02*
X86350000Y-181950000D01*
X86350000Y-181950000D02*
X86350000Y-184650000D01*
X86350000Y-184650000D02*
X90900000Y-189200000D01*
X67800000Y-168900000D02*
X67800000Y-168400000D01*
X67800000Y-168400000D02*
X68100000Y-168100000D01*
X68100000Y-168100000D02*
X68100000Y-161800000D01*
X113500000Y-67900000D02*
X113700000Y-68100000D01*
D15*
X59300000Y-156640000D02*
X57640000Y-156640000D01*
X151600000Y-267900000D02*
X112400000Y-267900000D01*
D16*
X52200000Y-146000000D02*
X52200000Y-147750000D01*
X67100000Y-112000000D02*
X67100000Y-113437506D01*
X81000000Y-159500000D02*
X81000000Y-151500000D01*
X72400000Y-96200000D02*
X78300000Y-96200000D01*
X78700000Y-76600000D02*
X80900000Y-78800000D01*
D15*
X155000000Y-170600000D02*
X155100000Y-170600000D01*
X117600000Y-163600000D02*
X161400000Y-163600000D01*
X158200000Y-220000000D02*
X106000000Y-220000000D01*
D16*
X52200000Y-147750000D02*
X54725000Y-150275000D01*
X59200000Y-86480000D02*
X57480000Y-86480000D01*
X56100000Y-177300000D02*
X56192500Y-177392500D01*
D15*
X160500000Y-167200000D02*
X155300000Y-172400000D01*
D16*
X51800000Y-291400000D02*
X51800000Y-264700000D01*
D15*
X209200000Y-115800000D02*
X209300000Y-115900000D01*
X57400000Y-63902400D02*
X57400000Y-61700000D01*
D16*
X336400000Y-316300000D02*
X336400000Y-56600000D01*
X72100000Y-119800000D02*
X80100000Y-119800000D01*
D15*
X70100000Y-114200000D02*
X70230000Y-114330000D01*
D16*
X66200000Y-114337506D02*
X69962494Y-114337506D01*
D15*
X56050000Y-246050000D02*
X56050000Y-245050000D01*
X60437600Y-290100000D02*
X64175000Y-290100000D01*
D16*
X114900000Y-196700000D02*
X113700000Y-197900000D01*
X70300000Y-131800000D02*
X77200000Y-131800000D01*
D15*
X55900000Y-153900000D02*
X58100000Y-151700000D01*
D16*
X52350000Y-237150000D02*
X51850000Y-236650000D01*
X69950000Y-200450000D02*
X67250000Y-203150000D01*
D15*
X99800000Y-232700000D02*
X289000000Y-232700000D01*
X213200000Y-115800000D02*
X257000000Y-115800000D01*
D16*
X51600000Y-39490000D02*
X54532494Y-36557506D01*
X84000000Y-74500000D02*
X99700000Y-90200000D01*
X69950000Y-256550000D02*
X69950000Y-258950000D01*
D15*
X73150000Y-213750000D02*
X80850000Y-213750000D01*
X257000000Y-68000000D02*
X257100000Y-68100000D01*
D16*
X68800000Y-77400000D02*
X68800000Y-72600000D01*
D15*
X291050000Y-134950000D02*
X306600000Y-119400000D01*
D16*
X55192500Y-163207500D02*
X54300000Y-164100000D01*
D15*
X289000000Y-232700000D02*
X306800000Y-214900000D01*
X57700000Y-170600000D02*
X69100000Y-170600000D01*
D16*
X53700000Y-155300000D02*
X53700000Y-151300000D01*
D15*
X163200000Y-262700000D02*
X156800000Y-262700000D01*
X201100000Y-223100000D02*
X100000000Y-223100000D01*
X165400000Y-259200000D02*
X209200000Y-259200000D01*
D16*
X112300000Y-72500000D02*
X100500000Y-60700000D01*
X77200000Y-131800000D02*
X77200000Y-133500000D01*
D15*
X57207500Y-122992500D02*
X56300000Y-123900000D01*
X57500000Y-134400000D02*
X57600000Y-134300000D01*
X56450000Y-215050000D02*
X55450000Y-216050000D01*
D16*
X75400000Y-189400000D02*
X72800000Y-189400000D01*
D15*
X199400000Y-273100000D02*
X209800000Y-262700000D01*
D16*
X288600000Y-101100000D02*
X114900000Y-101100000D01*
X57580000Y-159180000D02*
X53700000Y-155300000D01*
X113700000Y-150100000D02*
X113700000Y-163700000D01*
X104000000Y-121900000D02*
X160600000Y-121900000D01*
X81110000Y-37300000D02*
X81110000Y-39610000D01*
X81210000Y-111390000D02*
X81210000Y-112310000D01*
X79700000Y-147600000D02*
X109600000Y-177500000D01*
D15*
X75000000Y-101500000D02*
X74600000Y-101500000D01*
D16*
X54350000Y-189550000D02*
X56350000Y-191550000D01*
X110900000Y-269800000D02*
X200900000Y-269800000D01*
X72550000Y-189150000D02*
X72800000Y-189400000D01*
D15*
X60437600Y-292640000D02*
X61190100Y-291887500D01*
X163300000Y-167200000D02*
X160500000Y-167200000D01*
X306600000Y-265500000D02*
X272500000Y-299600000D01*
D16*
X100100000Y-224900000D02*
X245800000Y-224900000D01*
D15*
X59350100Y-122992500D02*
X57207500Y-122992500D01*
D16*
X72200000Y-318000000D02*
X73900000Y-316300000D01*
X69800000Y-109300000D02*
X67100000Y-112000000D01*
X134500000Y-40100000D02*
X113500000Y-61100000D01*
D15*
X70000000Y-101000000D02*
X72200000Y-103200000D01*
X100000000Y-223100000D02*
X99250000Y-222350000D01*
D16*
X201100000Y-81500000D02*
X101100000Y-81500000D01*
X56350000Y-191550000D02*
X56350000Y-195550000D01*
D15*
X272500000Y-299600000D02*
X113000000Y-299600000D01*
D16*
X69050000Y-241250000D02*
X69050000Y-236450000D01*
D15*
X72900000Y-101800000D02*
X69000000Y-97900000D01*
D16*
X99700000Y-90200000D02*
X284800000Y-90200000D01*
D15*
X161400000Y-68000000D02*
X161500000Y-68100000D01*
D16*
X72500000Y-219900000D02*
X113400000Y-260800000D01*
D15*
X57307500Y-54307500D02*
X59250100Y-54307500D01*
X257000000Y-259200000D02*
X257100000Y-259300000D01*
X209200000Y-259200000D02*
X209300000Y-259300000D01*
D16*
X308800000Y-211400000D02*
X309900000Y-212500000D01*
X79300000Y-238200000D02*
X110900000Y-269800000D01*
X72250000Y-210950000D02*
X80250000Y-210950000D01*
D15*
X57600000Y-134300000D02*
X75400000Y-134300000D01*
X99250000Y-218950000D02*
X74650000Y-194350000D01*
D16*
X70000000Y-54300000D02*
X70000000Y-58900000D01*
X309900000Y-164700000D02*
X309900000Y-175400000D01*
D15*
X211100000Y-169400000D02*
X211100000Y-167100000D01*
D16*
X67250000Y-204587506D02*
X66350000Y-205487506D01*
X59300000Y-159180000D02*
X57580000Y-159180000D01*
X115500000Y-71600000D02*
X114600000Y-72500000D01*
D15*
X97900000Y-123600000D02*
X90800000Y-116500000D01*
D16*
X81000000Y-151500000D02*
X79587500Y-150087500D01*
D15*
X232600000Y-193300000D02*
X107400000Y-193300000D01*
D16*
X83775000Y-306100000D02*
X286100000Y-306100000D01*
D15*
X304800000Y-163600000D02*
X304900000Y-163700000D01*
D16*
X67100000Y-113437506D02*
X66200000Y-114337506D01*
D15*
X59250100Y-65752500D02*
X57400000Y-63902400D01*
X107000000Y-190900000D02*
X232000000Y-190900000D01*
X70100000Y-77400000D02*
X70900000Y-76600000D01*
X165400000Y-163600000D02*
X209200000Y-163600000D01*
X57407500Y-127007500D02*
X59350100Y-127007500D01*
D16*
X286100000Y-306100000D02*
X314700000Y-277500000D01*
X54020000Y-144420000D02*
X52261068Y-146178932D01*
D15*
X56300000Y-123900000D02*
X55300000Y-124900000D01*
X213200000Y-68000000D02*
X257000000Y-68000000D01*
D16*
X336400000Y-56600000D02*
X319900000Y-40100000D01*
D15*
X261000000Y-163600000D02*
X304800000Y-163600000D01*
D16*
X98700000Y-60700000D02*
X79630000Y-41630000D01*
X81110000Y-39610000D02*
X112000000Y-70500000D01*
D15*
X304800000Y-68000000D02*
X304900000Y-68100000D01*
D16*
X52400000Y-237200000D02*
X52350000Y-237150000D01*
D15*
X111750000Y-263550000D02*
X114300000Y-266100000D01*
X165400000Y-68000000D02*
X209200000Y-68000000D01*
X98900000Y-227000000D02*
X246800000Y-227000000D01*
X57557500Y-218157500D02*
X59500100Y-218157500D01*
D16*
X59500100Y-254357500D02*
X55342500Y-254357500D01*
D15*
X59350100Y-174852500D02*
X57700000Y-173202400D01*
D16*
X70310000Y-111390000D02*
X81210000Y-111390000D01*
X51850000Y-203340000D02*
X54782494Y-200407506D01*
X56000000Y-104600000D02*
X56092500Y-104692500D01*
D15*
X109000000Y-273100000D02*
X199400000Y-273100000D01*
X74500000Y-103200000D02*
X99100000Y-127800000D01*
X68312500Y-117912500D02*
X72400000Y-122000000D01*
X285700000Y-93000000D02*
X87100000Y-93000000D01*
D16*
X54507500Y-72307500D02*
X59250100Y-72307500D01*
D15*
X304800000Y-211400000D02*
X304900000Y-211500000D01*
D16*
X70600000Y-96000000D02*
X70600000Y-98000000D01*
X52350000Y-238900000D02*
X54875000Y-241425000D01*
D15*
X61190100Y-291887500D02*
X63787500Y-291887500D01*
X247200000Y-131000000D02*
X96400000Y-131000000D01*
D16*
X51600000Y-72800000D02*
X51600000Y-47800000D01*
D15*
X68200000Y-154100000D02*
X66000000Y-154100000D01*
X117600000Y-259200000D02*
X161400000Y-259200000D01*
X257000000Y-115800000D02*
X257100000Y-115900000D01*
D16*
X158000000Y-218100000D02*
X161200000Y-214900000D01*
D15*
X156800000Y-262700000D02*
X151600000Y-267900000D01*
X55800000Y-82200000D02*
X55800000Y-81200000D01*
X68800000Y-77400000D02*
X70100000Y-77400000D01*
D16*
X57550000Y-207550000D02*
X68850000Y-207550000D01*
X70850000Y-261850000D02*
X75250000Y-261850000D01*
X51850000Y-236650000D02*
X51850000Y-211650000D01*
D15*
X67212500Y-135912500D02*
X71412500Y-135912500D01*
X155100000Y-261700000D02*
X161300000Y-261700000D01*
D16*
X54982500Y-234757500D02*
X54170000Y-235570000D01*
D15*
X57650000Y-225550000D02*
X57750000Y-225450000D01*
D16*
X53850000Y-242450000D02*
X54875000Y-241425000D01*
D15*
X78380000Y-205480000D02*
X91300000Y-218400000D01*
D16*
X314700000Y-265100000D02*
X308800000Y-259200000D01*
X56350000Y-195550000D02*
X56150000Y-195750000D01*
D15*
X74600000Y-101500000D02*
X74300000Y-101800000D01*
D16*
X319900000Y-40100000D02*
X134500000Y-40100000D01*
X52100000Y-73300000D02*
X52100000Y-75050000D01*
X59450000Y-250330000D02*
X57730000Y-250330000D01*
D15*
X91300000Y-219400000D02*
X98900000Y-227000000D01*
D16*
X113700000Y-197900000D02*
X113700000Y-211500000D01*
D15*
X67712500Y-117912500D02*
X68312500Y-117912500D01*
D16*
X69850000Y-186250000D02*
X70750000Y-187150000D01*
X56300000Y-173100000D02*
X56300000Y-177100000D01*
D15*
X77137500Y-241237500D02*
X109000000Y-273100000D01*
D16*
X70100000Y-131600000D02*
X70300000Y-131800000D01*
X68912500Y-150087500D02*
X68900000Y-150100000D01*
X100500000Y-60700000D02*
X98700000Y-60700000D01*
X86250000Y-109250000D02*
X86250000Y-111950000D01*
X98300000Y-129400000D02*
X245700000Y-129400000D01*
X54350000Y-182550000D02*
X54350000Y-189550000D01*
X80900000Y-78800000D02*
X80900000Y-86800000D01*
X80700000Y-127300000D02*
X89400000Y-136000000D01*
X114600000Y-72500000D02*
X112300000Y-72500000D01*
D15*
X258800000Y-167100000D02*
X232600000Y-193300000D01*
D16*
X112000000Y-70500000D02*
X113500000Y-70500000D01*
X57400000Y-118502400D02*
X57400000Y-116400000D01*
X72400000Y-308200000D02*
X81675000Y-308200000D01*
X161200000Y-214900000D02*
X161200000Y-213800000D01*
X245800000Y-224900000D02*
X256800000Y-213900000D01*
X54020000Y-144420000D02*
X54607500Y-145007500D01*
X52200000Y-146000000D02*
X51700000Y-145500000D01*
D15*
X76512500Y-63212500D02*
X99800000Y-86500000D01*
D16*
X73960000Y-202540000D02*
X80540000Y-202540000D01*
D15*
X289850000Y-132950000D02*
X93250000Y-132950000D01*
X117600000Y-211400000D02*
X161400000Y-211400000D01*
D16*
X80540000Y-202540000D02*
X98600000Y-220600000D01*
X59400100Y-209699900D02*
X59375000Y-209725000D01*
D15*
X82000000Y-109300000D02*
X82000000Y-108500000D01*
D16*
X54832500Y-143607500D02*
X54020000Y-144420000D01*
X72040000Y-40000000D02*
X73670000Y-41630000D01*
X68900000Y-150100000D02*
X68900000Y-145300000D01*
D15*
X56450000Y-215050000D02*
X55250000Y-215050000D01*
D16*
X70750000Y-187150000D02*
X70750000Y-189150000D01*
D15*
X113500000Y-213400000D02*
X113500000Y-213800000D01*
X68100000Y-81400000D02*
X106000000Y-119300000D01*
X55300000Y-124900000D02*
X57407500Y-127007500D01*
X209000000Y-166000000D02*
X197500000Y-177500000D01*
X69100000Y-170600000D02*
X73000000Y-174500000D01*
X155300000Y-172400000D02*
X108200000Y-172400000D01*
D16*
X69962494Y-114337506D02*
X70100000Y-114200000D01*
D15*
X67800000Y-151700000D02*
X107000000Y-190900000D01*
X68350000Y-245250000D02*
X66150000Y-245250000D01*
X106000000Y-119300000D02*
X115500000Y-119300000D01*
X209800000Y-262700000D02*
X211000000Y-262700000D01*
D16*
X51600000Y-47800000D02*
X51600000Y-39490000D01*
X113400000Y-260800000D02*
X113400000Y-261600000D01*
D15*
X163300000Y-121900000D02*
X161600000Y-123600000D01*
X67862500Y-209062500D02*
X68462500Y-209062500D01*
D16*
X109200000Y-218100000D02*
X158000000Y-218100000D01*
D15*
X71562500Y-227062500D02*
X67362500Y-227062500D01*
D16*
X54300000Y-164100000D02*
X54300000Y-171100000D01*
X51800000Y-264700000D02*
X54450000Y-262050000D01*
D15*
X117600000Y-68000000D02*
X161400000Y-68000000D01*
D16*
X70100000Y-38000000D02*
X70800000Y-37300000D01*
D15*
X55800000Y-81200000D02*
X58000000Y-79000000D01*
X171300000Y-78300000D02*
X132800000Y-78300000D01*
X74000000Y-175900000D02*
X113100000Y-215000000D01*
X108200000Y-172400000D02*
X107350000Y-171550000D01*
D16*
X288600000Y-196700000D02*
X114900000Y-196700000D01*
X72300000Y-127300000D02*
X80700000Y-127300000D01*
D15*
X274900000Y-213800000D02*
X258600000Y-230100000D01*
D16*
X70850000Y-259850000D02*
X70850000Y-261850000D01*
D15*
X59250100Y-104692500D02*
X59250100Y-108647500D01*
D16*
X165800000Y-115600000D02*
X165700000Y-115700000D01*
D15*
X56300000Y-123900000D02*
X55100000Y-123900000D01*
D16*
X57480000Y-86480000D02*
X53600000Y-82600000D01*
X54732500Y-70907500D02*
X57347500Y-68292500D01*
X70750000Y-189150000D02*
X72550000Y-189150000D01*
X78600000Y-187500000D02*
X109200000Y-218100000D01*
D15*
X73000000Y-174500000D02*
X74600000Y-174500000D01*
D16*
X70000000Y-58900000D02*
X70200000Y-59100000D01*
X78300000Y-96200000D02*
X104000000Y-121900000D01*
X69700000Y-36600000D02*
X67000000Y-39300000D01*
X70600000Y-98000000D02*
X75000000Y-98000000D01*
X75250000Y-261850000D02*
X86500000Y-273100000D01*
D15*
X70100000Y-173700000D02*
X72300000Y-175900000D01*
D16*
X308800000Y-115800000D02*
X309900000Y-116900000D01*
D15*
X232000000Y-190900000D02*
X256800000Y-166100000D01*
X80850000Y-213750000D02*
X99800000Y-232700000D01*
X107550000Y-284450000D02*
X68350000Y-245250000D01*
X165400000Y-115800000D02*
X209200000Y-115800000D01*
D16*
X56200000Y-100400000D02*
X56200000Y-104400000D01*
X70100000Y-127000000D02*
X70100000Y-131600000D01*
D15*
X57400000Y-61700000D02*
X57500000Y-61600000D01*
X57600000Y-100502400D02*
X59250100Y-102152500D01*
D16*
X59350100Y-191249900D02*
X59325000Y-191275000D01*
D15*
X161400000Y-211400000D02*
X161500000Y-211500000D01*
X59250100Y-108647500D02*
X59350100Y-108747500D01*
D16*
X160600000Y-121900000D02*
X161300000Y-121200000D01*
X52250000Y-146050000D02*
X52200000Y-146000000D01*
D15*
X306600000Y-262600000D02*
X306600000Y-265500000D01*
D16*
X161300000Y-121200000D02*
X161300000Y-118300000D01*
D15*
X69287500Y-290687500D02*
X69287500Y-293187500D01*
D16*
X70900000Y-76600000D02*
X78700000Y-76600000D01*
X54982500Y-234757500D02*
X57597500Y-232142500D01*
D15*
X209000000Y-70500000D02*
X179100000Y-70500000D01*
D16*
X54200000Y-91400000D02*
X54200000Y-98400000D01*
X288600000Y-148900000D02*
X114900000Y-148900000D01*
D15*
X59400100Y-193302500D02*
X57750000Y-191652400D01*
X106900000Y-118200000D02*
X113500000Y-118200000D01*
X57640000Y-156640000D02*
X55900000Y-154900000D01*
D16*
X54757500Y-236157500D02*
X59500100Y-236157500D01*
D15*
X107400000Y-193300000D02*
X68200000Y-154100000D01*
D16*
X86250000Y-200250000D02*
X75400000Y-189400000D01*
X309900000Y-127600000D02*
X288600000Y-148900000D01*
D15*
X59500100Y-229602500D02*
X57650000Y-227752400D01*
X163300000Y-119300000D02*
X163300000Y-121900000D01*
D16*
X51850000Y-211650000D02*
X51850000Y-203340000D01*
D15*
X257000000Y-163600000D02*
X257100000Y-163700000D01*
D16*
X53850000Y-246450000D02*
X53850000Y-242450000D01*
D15*
X57650000Y-227752400D02*
X57650000Y-225550000D01*
D16*
X89400000Y-142000000D02*
X113500000Y-166100000D01*
D15*
X72200000Y-103200000D02*
X74500000Y-103200000D01*
X114300000Y-266100000D02*
X150700000Y-266100000D01*
X161400000Y-163600000D02*
X161500000Y-163700000D01*
X71412500Y-135912500D02*
X94700000Y-159200000D01*
X99900000Y-230100000D02*
X80750000Y-210950000D01*
X258600000Y-230100000D02*
X99900000Y-230100000D01*
X98000000Y-196300000D02*
X90900000Y-189200000D01*
D16*
X200900000Y-269800000D02*
X209000000Y-261700000D01*
X75000000Y-98000000D02*
X86250000Y-109250000D01*
X69700000Y-92700000D02*
X69700000Y-95100000D01*
D15*
X201000000Y-179500000D02*
X211100000Y-169400000D01*
D16*
X59500100Y-250380100D02*
X59450000Y-250330000D01*
D15*
X59400100Y-199797500D02*
X59500100Y-199897500D01*
D16*
X67000000Y-39300000D02*
X67000000Y-40000000D01*
D15*
X111900000Y-277300000D02*
X241300000Y-277300000D01*
X261000000Y-115800000D02*
X304800000Y-115800000D01*
D16*
X54832500Y-143607500D02*
X57447500Y-140992500D01*
D15*
X56200000Y-51200000D02*
X55200000Y-52200000D01*
X201600000Y-221200000D02*
X209000000Y-213800000D01*
X59200000Y-83940000D02*
X57540000Y-83940000D01*
X159500000Y-166100000D02*
X161100000Y-166100000D01*
X57750000Y-225450000D02*
X73650000Y-225450000D01*
D16*
X113500000Y-61100000D02*
X113500000Y-67900000D01*
D15*
X64175000Y-290100000D02*
X68700000Y-290100000D01*
X59250100Y-50292500D02*
X57107500Y-50292500D01*
D16*
X57730000Y-250330000D02*
X53850000Y-246450000D01*
X59250100Y-90507500D02*
X59250100Y-86530100D01*
D15*
X82000000Y-108500000D02*
X75000000Y-101500000D01*
X155000000Y-170600000D02*
X159500000Y-166100000D01*
D16*
X55242500Y-181657500D02*
X54350000Y-182550000D01*
D15*
X59500100Y-214142500D02*
X57357500Y-214142500D01*
X261000000Y-68000000D02*
X304800000Y-68000000D01*
X69287500Y-293187500D02*
X68837500Y-293637500D01*
D16*
X98600000Y-223400000D02*
X100100000Y-224900000D01*
D15*
X77300000Y-61600000D02*
X100900000Y-85200000D01*
X93050000Y-134950000D02*
X291050000Y-134950000D01*
D16*
X113100000Y-262700000D02*
X115400000Y-262700000D01*
D15*
X66100000Y-41637506D02*
X66107506Y-41630000D01*
D16*
X54450000Y-255250000D02*
X54450000Y-262050000D01*
D15*
X117600000Y-115800000D02*
X161400000Y-115800000D01*
D16*
X60437600Y-295180000D02*
X63195000Y-295180000D01*
D15*
X161400000Y-115800000D02*
X161500000Y-115900000D01*
D16*
X68850000Y-207550000D02*
X72250000Y-210950000D01*
D15*
X58000000Y-79000000D02*
X67700000Y-79000000D01*
X243200000Y-87200000D02*
X100500000Y-87200000D01*
X72420000Y-205480000D02*
X72520000Y-205480000D01*
X261000000Y-259200000D02*
X304800000Y-259200000D01*
X80750000Y-210950000D02*
X80250000Y-210950000D01*
D16*
X309900000Y-79800000D02*
X288600000Y-101100000D01*
D15*
X74600000Y-174500000D02*
X113500000Y-213400000D01*
D16*
X80000000Y-59100000D02*
X70200000Y-59100000D01*
X70800000Y-37300000D02*
X81110000Y-37300000D01*
D15*
X69000000Y-97900000D02*
X57600000Y-97900000D01*
D16*
X245700000Y-129400000D02*
X256900000Y-118200000D01*
D15*
X55100000Y-123900000D02*
X51700000Y-120500000D01*
X63787500Y-291887500D02*
X65187500Y-290487500D01*
X179100000Y-70500000D02*
X171300000Y-78300000D01*
D16*
X71500000Y-219900000D02*
X72500000Y-219900000D01*
X51700000Y-120500000D02*
X51700000Y-112190000D01*
D15*
X73650000Y-225450000D02*
X111700000Y-263500000D01*
D16*
X101100000Y-81500000D02*
X89050000Y-69450000D01*
X56192500Y-177392500D02*
X59350100Y-177392500D01*
X59500100Y-254357500D02*
X59500100Y-250380100D01*
X55580000Y-295180000D02*
X51800000Y-291400000D01*
D15*
X95000000Y-159200000D02*
X107350000Y-171550000D01*
X107150000Y-282050000D02*
X111900000Y-277300000D01*
X70230000Y-114330000D02*
X78670000Y-114330000D01*
X165400000Y-211400000D02*
X209200000Y-211400000D01*
X113000000Y-299600000D02*
X86500000Y-273100000D01*
X99100000Y-127800000D02*
X211000000Y-127800000D01*
X67700000Y-79000000D02*
X106900000Y-118200000D01*
X211000000Y-127800000D02*
X211000000Y-119300000D01*
X258800000Y-262700000D02*
X237050000Y-284450000D01*
D16*
X55342500Y-254357500D02*
X54450000Y-255250000D01*
X59250100Y-118549900D02*
X59225000Y-118575000D01*
X54632494Y-109257506D02*
X59370100Y-109257506D01*
D15*
X80700000Y-122600000D02*
X93050000Y-134950000D01*
X58100000Y-151700000D02*
X67800000Y-151700000D01*
X211100000Y-214900000D02*
X209300000Y-214900000D01*
D16*
X309900000Y-116900000D02*
X309900000Y-127600000D01*
X52350000Y-237150000D02*
X52350000Y-238900000D01*
D15*
X161400000Y-259200000D02*
X161500000Y-259300000D01*
D16*
X114900000Y-101100000D02*
X113700000Y-102300000D01*
D15*
X209300000Y-214900000D02*
X201100000Y-223100000D01*
X100500000Y-87200000D02*
X99800000Y-86500000D01*
D16*
X51700000Y-145500000D02*
X51700000Y-120500000D01*
D15*
X100900000Y-85200000D02*
X242000000Y-85200000D01*
X304600000Y-213800000D02*
X274900000Y-213800000D01*
D16*
X57400000Y-116400000D02*
X68700000Y-116400000D01*
D15*
X57750000Y-189050000D02*
X69150000Y-189050000D01*
X72350000Y-194350000D02*
X70150000Y-192150000D01*
D16*
X70250000Y-218150000D02*
X70250000Y-222750000D01*
X59350100Y-163207500D02*
X55192500Y-163207500D01*
X89050000Y-69450000D02*
X89050000Y-68150000D01*
X86400000Y-200400000D02*
X86250000Y-200250000D01*
X308800000Y-68000000D02*
X309900000Y-69100000D01*
X275000000Y-291300000D02*
X304700000Y-261600000D01*
D15*
X242000000Y-85200000D02*
X256800000Y-70400000D01*
D16*
X66350000Y-205487506D02*
X72512494Y-205487506D01*
D15*
X213200000Y-211400000D02*
X257000000Y-211400000D01*
D16*
X67000000Y-40000000D02*
X67000000Y-40737506D01*
X56150000Y-195750000D02*
X56242500Y-195842500D01*
X113700000Y-245700000D02*
X113700000Y-259300000D01*
X57447500Y-140992500D02*
X59350100Y-140992500D01*
X309900000Y-212500000D02*
X309900000Y-223200000D01*
X79630000Y-41630000D02*
X78570000Y-41630000D01*
D15*
X74750000Y-192650000D02*
X75150000Y-192650000D01*
D16*
X98600000Y-220600000D02*
X98600000Y-223400000D01*
X59500100Y-211602500D02*
X57550000Y-209652400D01*
D15*
X209200000Y-163600000D02*
X209300000Y-163700000D01*
D16*
X68700000Y-116400000D02*
X72100000Y-119800000D01*
D15*
X56200000Y-51200000D02*
X55000000Y-51200000D01*
X68462500Y-209062500D02*
X73150000Y-213750000D01*
D16*
X71300000Y-147600000D02*
X79700000Y-147600000D01*
D15*
X304800000Y-115800000D02*
X304900000Y-115900000D01*
X57540000Y-83940000D02*
X55800000Y-82200000D01*
D16*
X53920000Y-71720000D02*
X52161068Y-73478932D01*
D15*
X59450000Y-247790000D02*
X57790000Y-247790000D01*
X241300000Y-277300000D02*
X256900000Y-261700000D01*
D16*
X54170000Y-235570000D02*
X54757500Y-236157500D01*
X59350100Y-163207500D02*
X59350100Y-159230100D01*
D15*
X67887500Y-290687500D02*
X67887500Y-291437500D01*
X277500000Y-196300000D02*
X98000000Y-196300000D01*
D16*
X59400100Y-181657500D02*
X55242500Y-181657500D01*
D15*
X209100000Y-118200000D02*
X201400000Y-125900000D01*
D16*
X109800000Y-291300000D02*
X275000000Y-291300000D01*
X59350100Y-120452500D02*
X57400000Y-118502400D01*
D15*
X74300000Y-101800000D02*
X72900000Y-101800000D01*
D16*
X86250000Y-111950000D02*
X90800000Y-116500000D01*
D15*
X57107500Y-50292500D02*
X56200000Y-51200000D01*
X75400000Y-134300000D02*
X111700000Y-170600000D01*
D16*
X59250100Y-86530100D02*
X59200000Y-86480000D01*
X51700000Y-112190000D02*
X54632494Y-109257506D01*
X52150000Y-73350000D02*
X52100000Y-73300000D01*
D15*
X65900000Y-81400000D02*
X68100000Y-81400000D01*
X213200000Y-163600000D02*
X257000000Y-163600000D01*
D16*
X55092500Y-90507500D02*
X54200000Y-91400000D01*
D15*
X57600000Y-97900000D02*
X57600000Y-100502400D01*
D16*
X53920000Y-71720000D02*
X54507500Y-72307500D01*
X72100000Y-74500000D02*
X84000000Y-74500000D01*
D15*
X261000000Y-211400000D02*
X304800000Y-211400000D01*
D16*
X60437600Y-295180000D02*
X55580000Y-295180000D01*
D15*
X57357500Y-214142500D02*
X56450000Y-215050000D01*
D16*
X52100000Y-75050000D02*
X54625000Y-77575000D01*
X69700000Y-95100000D02*
X70600000Y-96000000D01*
X309900000Y-69100000D02*
X309900000Y-79800000D01*
X60437600Y-295180000D02*
X60437600Y-309037400D01*
D15*
X304600000Y-118200000D02*
X289850000Y-132950000D01*
D16*
X309900000Y-223200000D02*
X288600000Y-244500000D01*
X72512494Y-205487506D02*
X72520000Y-205480000D01*
D15*
X306600000Y-167200000D02*
X277500000Y-196300000D01*
X306600000Y-71500000D02*
X306600000Y-72100000D01*
D16*
X57550000Y-209652400D02*
X57550000Y-207550000D01*
D15*
X73000000Y-122600000D02*
X80700000Y-122600000D01*
X57700000Y-173202400D02*
X57700000Y-170600000D01*
X75150000Y-192650000D02*
X103700000Y-221200000D01*
X103700000Y-221200000D02*
X201600000Y-221200000D01*
D16*
X67000000Y-40000000D02*
X72040000Y-40000000D01*
X114900000Y-148900000D02*
X113700000Y-150100000D01*
X53700000Y-151300000D02*
X54725000Y-150275000D01*
D15*
X67112500Y-63212500D02*
X76512500Y-63212500D01*
D16*
X57597500Y-232142500D02*
X59500100Y-232142500D01*
X114900000Y-244500000D02*
X113700000Y-245700000D01*
D15*
X69150000Y-189050000D02*
X73050000Y-192950000D01*
X237050000Y-284450000D02*
X107550000Y-284450000D01*
X111700000Y-170600000D02*
X155000000Y-170600000D01*
D16*
X314700000Y-277500000D02*
X314700000Y-265100000D01*
X59350100Y-159230100D02*
X59300000Y-159180000D01*
D15*
X213200000Y-259200000D02*
X257000000Y-259200000D01*
D16*
X72700000Y-187500000D02*
X78600000Y-187500000D01*
D15*
X81000000Y-159500000D02*
X101000000Y-179500000D01*
X73050000Y-192950000D02*
X74450000Y-192950000D01*
X67687500Y-290487500D02*
X67887500Y-290687500D01*
D16*
X54300000Y-171100000D02*
X56300000Y-173100000D01*
X70450000Y-222950000D02*
X73350000Y-222950000D01*
X81675000Y-308200000D02*
X83775000Y-306100000D01*
X78000000Y-259500000D02*
X109800000Y-291300000D01*
X113700000Y-102300000D02*
X113700000Y-115900000D01*
D15*
X68700000Y-290100000D02*
X69287500Y-290687500D01*
D16*
X69850000Y-183850000D02*
X69850000Y-186250000D01*
X79730000Y-114330000D02*
X78670000Y-114330000D01*
D15*
X56050000Y-245050000D02*
X58250000Y-242850000D01*
X72400000Y-122000000D02*
X73000000Y-122600000D01*
X113100000Y-215000000D02*
X115400000Y-215000000D01*
X57790000Y-247790000D02*
X56050000Y-246050000D01*
D16*
X211100000Y-71500000D02*
X201100000Y-81500000D01*
D15*
X72520000Y-205480000D02*
X78380000Y-205480000D01*
X59400100Y-195842500D02*
X59400100Y-199797500D01*
D16*
X71800000Y-74200000D02*
X72100000Y-74500000D01*
X72900000Y-238200000D02*
X79300000Y-238200000D01*
D15*
X257000000Y-211400000D02*
X257100000Y-211500000D01*
X72300000Y-175900000D02*
X74000000Y-175900000D01*
X65187500Y-290487500D02*
X67687500Y-290487500D01*
X150700000Y-266100000D02*
X155100000Y-261700000D01*
X94700000Y-159200000D02*
X95000000Y-159200000D01*
D16*
X73900000Y-316300000D02*
X336400000Y-316300000D01*
D15*
X258900000Y-119300000D02*
X247200000Y-131000000D01*
X55450000Y-216050000D02*
X57557500Y-218157500D01*
D16*
X288600000Y-244500000D02*
X114900000Y-244500000D01*
X54200000Y-98400000D02*
X56200000Y-100400000D01*
X110800000Y-167100000D02*
X115500000Y-167100000D01*
D15*
X161600000Y-123600000D02*
X97900000Y-123600000D01*
D16*
X53600000Y-78600000D02*
X54625000Y-77575000D01*
D15*
X91300000Y-218400000D02*
X91300000Y-219400000D01*
X98600000Y-125900000D02*
X82000000Y-109300000D01*
X73670000Y-41630000D02*
X78570000Y-41630000D01*
D16*
X95150000Y-129750000D02*
X79730000Y-114330000D01*
D15*
X55900000Y-154900000D02*
X55900000Y-153900000D01*
X74650000Y-194350000D02*
X72350000Y-194350000D01*
X96400000Y-131000000D02*
X95150000Y-129750000D01*
D16*
X81210000Y-112310000D02*
X98300000Y-129400000D01*
D15*
X57500000Y-136602400D02*
X57500000Y-134400000D01*
D16*
X57347500Y-68292500D02*
X59250100Y-68292500D01*
X308800000Y-163600000D02*
X309900000Y-164700000D01*
X69100000Y-112600000D02*
X70310000Y-111390000D01*
D15*
X57750000Y-191652400D02*
X57750000Y-189050000D01*
X55250000Y-215050000D02*
X51850000Y-211650000D01*
D16*
X67250000Y-203150000D02*
X67250000Y-204587506D01*
D15*
X106000000Y-220000000D02*
X86250000Y-200250000D01*
D16*
X309900000Y-175400000D02*
X288600000Y-196700000D01*
X56300000Y-177100000D02*
X56100000Y-177300000D01*
X72400000Y-204100000D02*
X73960000Y-202540000D01*
X53600000Y-82600000D02*
X53600000Y-78600000D01*
X89050000Y-68150000D02*
X80000000Y-59100000D01*
X80100000Y-119800000D02*
X93250000Y-132950000D01*
X284800000Y-90200000D02*
X304600000Y-70400000D01*
X56242500Y-195842500D02*
X59400100Y-195842500D01*
X54732500Y-70907500D02*
X53920000Y-71720000D01*
X89400000Y-136000000D02*
X89400000Y-142000000D01*
D15*
X59350100Y-138452500D02*
X57500000Y-136602400D01*
D16*
X79587500Y-150087500D02*
X68912500Y-150087500D01*
D15*
X55000000Y-51200000D02*
X51600000Y-47800000D01*
D16*
X52100000Y-73300000D02*
X51600000Y-72800000D01*
X72400000Y-259500000D02*
X78000000Y-259500000D01*
X73350000Y-222950000D02*
X113100000Y-262700000D01*
D15*
X99250000Y-222350000D02*
X99250000Y-218950000D01*
X197500000Y-177500000D02*
X109600000Y-177500000D01*
X258900000Y-71500000D02*
X243200000Y-87200000D01*
D16*
X56200000Y-104400000D02*
X56000000Y-104600000D01*
D15*
X246800000Y-227000000D02*
X258800000Y-215000000D01*
X101000000Y-179500000D02*
X201000000Y-179500000D01*
X74450000Y-192950000D02*
X74750000Y-192650000D01*
X68837500Y-293637500D02*
X67887500Y-293637500D01*
D16*
X54607500Y-145007500D02*
X59350100Y-145007500D01*
D15*
X58250000Y-242850000D02*
X67950000Y-242850000D01*
X304800000Y-259200000D02*
X304900000Y-259300000D01*
X87100000Y-93000000D02*
X80900000Y-86800000D01*
X55200000Y-52200000D02*
X57307500Y-54307500D01*
D16*
X77200000Y-133500000D02*
X110800000Y-167100000D01*
X59250100Y-90507500D02*
X55092500Y-90507500D01*
D15*
X112400000Y-267900000D02*
X71562500Y-227062500D01*
X306600000Y-72100000D02*
X285700000Y-93000000D01*
X201400000Y-125900000D02*
X98600000Y-125900000D01*
D16*
X63195000Y-295180000D02*
X65937500Y-292437500D01*
D15*
X163300000Y-214900000D02*
X158200000Y-220000000D01*
X67950000Y-242850000D02*
X107150000Y-282050000D01*
D16*
X54450000Y-262050000D02*
X54450000Y-262250000D01*
X70250000Y-222750000D02*
X70450000Y-222950000D01*
X54782494Y-200407506D02*
X59520100Y-200407506D01*
D15*
X209200000Y-211400000D02*
X209300000Y-211500000D01*
D16*
X67000000Y-40737506D02*
X66100000Y-41637506D01*
X54532494Y-36557506D02*
X59270100Y-36557506D01*
X54170000Y-235570000D02*
X52411068Y-237328932D01*
D15*
X57500000Y-61600000D02*
X77300000Y-61600000D01*
X71800000Y-241237500D02*
X77137500Y-241237500D01*
X209200000Y-68000000D02*
X209300000Y-68100000D01*
D16*
X69950000Y-258950000D02*
X70850000Y-259850000D01*
X56092500Y-104692500D02*
X59250100Y-104692500D01*
%TD*%
M02*
