%TF.GenerationSoftware,KiCad,Pcbnew,(6.0.8-1)-1*%
%TF.CreationDate,2024-05-09T21:57:36-04:00*%
%TF.ProjectId,Untitled,556e7469-746c-4656-942e-6b696361645f,rev?*%
%TF.SameCoordinates,Original*%
%TF.FileFunction,Drillmap*%
%TF.FilePolarity,Positive*%
%FSLAX45Y45*%
G04 Gerber Fmt 4.5, Leading zero omitted, Abs format (unit mm)*
G04 Created by KiCad (PCBNEW (6.0.8-1)-1) date 2024-05-09 21:57:36*
%MOMM*%
%LPD*%
G01*
G04 APERTURE LIST*
%ADD10C,0.100000*%
%ADD11C,0.200000*%
%ADD12C,0.040000*%
%ADD13C,0.088900*%
%ADD14C,0.110000*%
%ADD15C,0.150000*%
G04 APERTURE END LIST*
D10*
X7160000Y-30506000D02*
G75*
G03*
X7160000Y-30506000I-160000J0D01*
G01*
X4672000Y-2751000D02*
X34672000Y-2751000D01*
X34672000Y-2751000D02*
X34672000Y-32751000D01*
X34672000Y-32751000D02*
X4672000Y-32751000D01*
X4672000Y-32751000D02*
X4672000Y-2751000D01*
X7160000Y-18946000D02*
G75*
G03*
X7160000Y-18946000I-160000J0D01*
G01*
X7160000Y-7386000D02*
G75*
G03*
X7160000Y-7386000I-160000J0D01*
G01*
D11*
D12*
X6510000Y-7530000D02*
X6550000Y-7570000D01*
X6550000Y-7530000D02*
X6510000Y-7570000D01*
X6570000Y-8120000D02*
X6610000Y-8160000D01*
X6610000Y-8120000D02*
X6570000Y-8160000D01*
X6573750Y-29238750D02*
X6613750Y-29278750D01*
X6613750Y-29238750D02*
X6573750Y-29278750D01*
X6580000Y-15390000D02*
X6620000Y-15430000D01*
X6620000Y-15390000D02*
X6580000Y-15430000D01*
X6590000Y-4143751D02*
X6630000Y-4183751D01*
X6630000Y-4143751D02*
X6590000Y-4183751D01*
X6595000Y-24505000D02*
X6635000Y-24545000D01*
X6635000Y-24505000D02*
X6595000Y-24545000D01*
X6600000Y-11413751D02*
X6640000Y-11453751D01*
X6640000Y-11413751D02*
X6600000Y-11453751D01*
X6615000Y-20528751D02*
X6655000Y-20568751D01*
X6655000Y-20528751D02*
X6615000Y-20568751D01*
X6691250Y-6301250D02*
X6731250Y-6341250D01*
X6731250Y-6301250D02*
X6691250Y-6341250D01*
X6701250Y-13571250D02*
X6741250Y-13611250D01*
X6741250Y-13571250D02*
X6701250Y-13611250D01*
X6716250Y-22686250D02*
X6756250Y-22726250D01*
X6756250Y-22686250D02*
X6716250Y-22726250D01*
X6741250Y-4501250D02*
X6781250Y-4541250D01*
X6781250Y-4501250D02*
X6741250Y-4541250D01*
X6751250Y-11771250D02*
X6791250Y-11811250D01*
X6791250Y-11771250D02*
X6751250Y-11811250D01*
X6760000Y-16870000D02*
X6800000Y-16910000D01*
X6800000Y-16870000D02*
X6760000Y-16910000D01*
X6766250Y-20886250D02*
X6806250Y-20926250D01*
X6806250Y-20886250D02*
X6766250Y-20926250D01*
X6768750Y-29123750D02*
X6808750Y-29163750D01*
X6808750Y-29123750D02*
X6768750Y-29163750D01*
X6768750Y-29343750D02*
X6808750Y-29383750D01*
X6808750Y-29343750D02*
X6768750Y-29383750D01*
X6790000Y-16160000D02*
X6830000Y-16200000D01*
X6830000Y-16160000D02*
X6790000Y-16200000D01*
X6860000Y-7720000D02*
X6900000Y-7760000D01*
X6900000Y-7720000D02*
X6860000Y-7760000D01*
X6870000Y-14510000D02*
X6910000Y-14550000D01*
X6910000Y-14510000D02*
X6870000Y-14550000D01*
X6870000Y-14990000D02*
X6910000Y-15030000D01*
X6910000Y-14990000D02*
X6870000Y-15030000D01*
X6885000Y-23625000D02*
X6925000Y-23665000D01*
X6925000Y-23625000D02*
X6885000Y-23665000D01*
X6885000Y-24105000D02*
X6925000Y-24145000D01*
X6925000Y-24105000D02*
X6885000Y-24145000D01*
X6890000Y-11240000D02*
X6930000Y-11280000D01*
X6930000Y-11240000D02*
X6890000Y-11280000D01*
X6950000Y-3640000D02*
X6990000Y-3680000D01*
X6990000Y-3640000D02*
X6950000Y-3680000D01*
X6950000Y-9250000D02*
X6990000Y-9290000D01*
X6990000Y-9250000D02*
X6950000Y-9290000D01*
X6960000Y-10910000D02*
X7000000Y-10950000D01*
X7000000Y-10910000D02*
X6960000Y-10950000D01*
X6965000Y-18365000D02*
X7005000Y-18405000D01*
X7005000Y-18365000D02*
X6965000Y-18405000D01*
X6975000Y-20025000D02*
X7015000Y-20065000D01*
X7015000Y-20025000D02*
X6975000Y-20065000D01*
X6975000Y-25635000D02*
X7015000Y-25675000D01*
X7015000Y-25635000D02*
X6975000Y-25675000D01*
X6980000Y-5410000D02*
X7020000Y-5450000D01*
X7020000Y-5410000D02*
X6980000Y-5450000D01*
X6980000Y-10080000D02*
X7020000Y-10120000D01*
X7020000Y-10080000D02*
X6980000Y-10120000D01*
X6990000Y-3780000D02*
X7030000Y-3820000D01*
X7030000Y-3780000D02*
X6990000Y-3820000D01*
X6990000Y-12680000D02*
X7030000Y-12720000D01*
X7030000Y-12680000D02*
X6990000Y-12720000D01*
X6990000Y-17350000D02*
X7030000Y-17390000D01*
X7030000Y-17350000D02*
X6990000Y-17390000D01*
X7000000Y-5890000D02*
X7040000Y-5930000D01*
X7040000Y-5890000D02*
X7000000Y-5930000D01*
X7005000Y-21795000D02*
X7045000Y-21835000D01*
X7045000Y-21795000D02*
X7005000Y-21835000D01*
X7010000Y-13160000D02*
X7050000Y-13200000D01*
X7050000Y-13160000D02*
X7010000Y-13200000D01*
X7025000Y-22275000D02*
X7065000Y-22315000D01*
X7065000Y-22275000D02*
X7025000Y-22315000D01*
X7040000Y-9780000D02*
X7080000Y-9820000D01*
X7080000Y-9780000D02*
X7040000Y-9820000D01*
X7060000Y-19340000D02*
X7100000Y-19380000D01*
X7100000Y-19340000D02*
X7060000Y-19380000D01*
X7065000Y-26165000D02*
X7105000Y-26205000D01*
X7105000Y-26165000D02*
X7065000Y-26205000D01*
X7110000Y-14740000D02*
X7150000Y-14780000D01*
X7150000Y-14740000D02*
X7110000Y-14780000D01*
X7130000Y-16830000D02*
X7170000Y-16870000D01*
X7170000Y-16830000D02*
X7130000Y-16870000D01*
X7130000Y-18650000D02*
X7170000Y-18690000D01*
X7170000Y-18650000D02*
X7130000Y-18690000D01*
X7130000Y-21970000D02*
X7170000Y-22010000D01*
X7170000Y-21970000D02*
X7130000Y-22010000D01*
X7160000Y-24103750D02*
X7200000Y-24143750D01*
X7200000Y-24103750D02*
X7160000Y-24143750D01*
X7190000Y-5660000D02*
X7230000Y-5700000D01*
X7230000Y-5660000D02*
X7190000Y-5700000D01*
X7200000Y-31780000D02*
X7240000Y-31820000D01*
X7240000Y-31780000D02*
X7200000Y-31820000D01*
X7210000Y-12710000D02*
X7250000Y-12750000D01*
X7250000Y-12710000D02*
X7210000Y-12750000D01*
X7220000Y-9600000D02*
X7260000Y-9640000D01*
X7260000Y-9600000D02*
X7220000Y-9640000D01*
X7220000Y-20390000D02*
X7260000Y-20430000D01*
X7260000Y-20390000D02*
X7220000Y-20430000D01*
X7220000Y-25930000D02*
X7260000Y-25970000D01*
X7260000Y-25930000D02*
X7220000Y-25970000D01*
X7220000Y-30800000D02*
X7260000Y-30840000D01*
X7260000Y-30800000D02*
X7220000Y-30840000D01*
X7250000Y-18530000D02*
X7290000Y-18570000D01*
X7290000Y-18530000D02*
X7250000Y-18570000D01*
X7270000Y-7550000D02*
X7310000Y-7590000D01*
X7310000Y-7550000D02*
X7270000Y-7590000D01*
X7270000Y-23800000D02*
X7310000Y-23840000D01*
X7310000Y-23800000D02*
X7270000Y-23840000D01*
X12813000Y-28530000D02*
X12853000Y-28570000D01*
X12853000Y-28530000D02*
X12813000Y-28570000D01*
X12823000Y-9420000D02*
X12863000Y-9460000D01*
X12863000Y-9420000D02*
X12823000Y-9460000D01*
X12823000Y-14190000D02*
X12863000Y-14230000D01*
X12863000Y-14190000D02*
X12823000Y-14230000D01*
X12823000Y-18980000D02*
X12863000Y-19020000D01*
X12863000Y-18980000D02*
X12823000Y-19020000D01*
X12823000Y-23750000D02*
X12863000Y-23790000D01*
X12863000Y-23750000D02*
X12823000Y-23790000D01*
X12843000Y-9180000D02*
X12883000Y-9220000D01*
X12883000Y-9180000D02*
X12843000Y-9220000D01*
X12843000Y-13960000D02*
X12883000Y-14000000D01*
X12883000Y-13960000D02*
X12843000Y-14000000D01*
X12843000Y-18740000D02*
X12883000Y-18780000D01*
X12883000Y-18740000D02*
X12843000Y-18780000D01*
X12843000Y-23520000D02*
X12883000Y-23560000D01*
X12883000Y-23520000D02*
X12843000Y-23560000D01*
X12843000Y-28300000D02*
X12883000Y-28340000D01*
X12883000Y-28300000D02*
X12843000Y-28340000D01*
X13013000Y-23870000D02*
X13053000Y-23910000D01*
X13053000Y-23870000D02*
X13013000Y-23910000D01*
X13013000Y-28640000D02*
X13053000Y-28680000D01*
X13053000Y-28640000D02*
X13013000Y-28680000D01*
X13023000Y-9530000D02*
X13063000Y-9570000D01*
X13063000Y-9530000D02*
X13023000Y-9570000D01*
X13023000Y-14300000D02*
X13063000Y-14340000D01*
X13063000Y-14300000D02*
X13023000Y-14340000D01*
X13023000Y-19080000D02*
X13063000Y-19120000D01*
X13063000Y-19080000D02*
X13023000Y-19120000D01*
X13233000Y-9170000D02*
X13273000Y-9210000D01*
X13273000Y-9170000D02*
X13233000Y-9210000D01*
X13233000Y-13950000D02*
X13273000Y-13990000D01*
X13273000Y-13950000D02*
X13233000Y-13990000D01*
X13233000Y-18730000D02*
X13273000Y-18770000D01*
X13273000Y-18730000D02*
X13233000Y-18770000D01*
X13233000Y-23510000D02*
X13273000Y-23550000D01*
X13273000Y-23510000D02*
X13233000Y-23550000D01*
X13233000Y-28290000D02*
X13273000Y-28330000D01*
X13273000Y-28290000D02*
X13233000Y-28330000D01*
X17583000Y-18980000D02*
X17623000Y-19020000D01*
X17623000Y-18980000D02*
X17583000Y-19020000D01*
X17593000Y-9410000D02*
X17633000Y-9450000D01*
X17633000Y-9410000D02*
X17593000Y-9450000D01*
X17593000Y-23750000D02*
X17633000Y-23790000D01*
X17633000Y-23750000D02*
X17593000Y-23790000D01*
X17603000Y-14200000D02*
X17643000Y-14240000D01*
X17643000Y-14200000D02*
X17603000Y-14240000D01*
X17603000Y-28540000D02*
X17643000Y-28580000D01*
X17643000Y-28540000D02*
X17603000Y-28580000D01*
X17623000Y-9180000D02*
X17663000Y-9220000D01*
X17663000Y-9180000D02*
X17623000Y-9220000D01*
X17623000Y-13960000D02*
X17663000Y-14000000D01*
X17663000Y-13960000D02*
X17623000Y-14000000D01*
X17623000Y-18740000D02*
X17663000Y-18780000D01*
X17663000Y-18740000D02*
X17623000Y-18780000D01*
X17623000Y-23520000D02*
X17663000Y-23560000D01*
X17663000Y-23520000D02*
X17623000Y-23560000D01*
X17623000Y-28300000D02*
X17663000Y-28340000D01*
X17663000Y-28300000D02*
X17623000Y-28340000D01*
X17793000Y-9520000D02*
X17833000Y-9560000D01*
X17833000Y-9520000D02*
X17793000Y-9560000D01*
X17793000Y-28640000D02*
X17833000Y-28680000D01*
X17833000Y-28640000D02*
X17793000Y-28680000D01*
X17803000Y-14300000D02*
X17843000Y-14340000D01*
X17843000Y-14300000D02*
X17803000Y-14340000D01*
X17803000Y-19090000D02*
X17843000Y-19130000D01*
X17843000Y-19090000D02*
X17803000Y-19130000D01*
X17803000Y-23860000D02*
X17843000Y-23900000D01*
X17843000Y-23860000D02*
X17803000Y-23900000D01*
X18013000Y-9170000D02*
X18053000Y-9210000D01*
X18053000Y-9170000D02*
X18013000Y-9210000D01*
X18013000Y-13950000D02*
X18053000Y-13990000D01*
X18053000Y-13950000D02*
X18013000Y-13990000D01*
X18013000Y-18730000D02*
X18053000Y-18770000D01*
X18053000Y-18730000D02*
X18013000Y-18770000D01*
X18013000Y-23510000D02*
X18053000Y-23550000D01*
X18053000Y-23510000D02*
X18013000Y-23550000D01*
X18013000Y-28290000D02*
X18053000Y-28330000D01*
X18053000Y-28290000D02*
X18013000Y-28330000D01*
X22373000Y-9420000D02*
X22413000Y-9460000D01*
X22413000Y-9420000D02*
X22373000Y-9460000D01*
X22373000Y-18970000D02*
X22413000Y-19010000D01*
X22413000Y-18970000D02*
X22373000Y-19010000D01*
X22373000Y-23750000D02*
X22413000Y-23790000D01*
X22413000Y-23750000D02*
X22373000Y-23790000D01*
X22373000Y-28540000D02*
X22413000Y-28580000D01*
X22413000Y-28540000D02*
X22373000Y-28580000D01*
X22383000Y-14190000D02*
X22423000Y-14230000D01*
X22423000Y-14190000D02*
X22383000Y-14230000D01*
X22403000Y-9180000D02*
X22443000Y-9220000D01*
X22443000Y-9180000D02*
X22403000Y-9220000D01*
X22403000Y-13960000D02*
X22443000Y-14000000D01*
X22443000Y-13960000D02*
X22403000Y-14000000D01*
X22403000Y-18740000D02*
X22443000Y-18780000D01*
X22443000Y-18740000D02*
X22403000Y-18780000D01*
X22403000Y-23520000D02*
X22443000Y-23560000D01*
X22443000Y-23520000D02*
X22403000Y-23560000D01*
X22403000Y-28300000D02*
X22443000Y-28340000D01*
X22443000Y-28300000D02*
X22403000Y-28340000D01*
X22573000Y-14300000D02*
X22613000Y-14340000D01*
X22613000Y-14300000D02*
X22573000Y-14340000D01*
X22573000Y-28640000D02*
X22613000Y-28680000D01*
X22613000Y-28640000D02*
X22573000Y-28680000D01*
X22583000Y-9520000D02*
X22623000Y-9560000D01*
X22623000Y-9520000D02*
X22583000Y-9560000D01*
X22583000Y-19080000D02*
X22623000Y-19120000D01*
X22623000Y-19080000D02*
X22583000Y-19120000D01*
X22583000Y-23860000D02*
X22623000Y-23900000D01*
X22623000Y-23860000D02*
X22583000Y-23900000D01*
X22793000Y-9170000D02*
X22833000Y-9210000D01*
X22833000Y-9170000D02*
X22793000Y-9210000D01*
X22793000Y-13950000D02*
X22833000Y-13990000D01*
X22833000Y-13950000D02*
X22793000Y-13990000D01*
X22793000Y-18730000D02*
X22833000Y-18770000D01*
X22833000Y-18730000D02*
X22793000Y-18770000D01*
X22793000Y-23510000D02*
X22833000Y-23550000D01*
X22833000Y-23510000D02*
X22793000Y-23550000D01*
X22793000Y-28290000D02*
X22833000Y-28330000D01*
X22833000Y-28290000D02*
X22793000Y-28330000D01*
X27153000Y-9410000D02*
X27193000Y-9450000D01*
X27193000Y-9410000D02*
X27153000Y-9450000D01*
X27153000Y-18980000D02*
X27193000Y-19020000D01*
X27193000Y-18980000D02*
X27153000Y-19020000D01*
X27153000Y-23760000D02*
X27193000Y-23800000D01*
X27193000Y-23760000D02*
X27153000Y-23800000D01*
X27163000Y-14190000D02*
X27203000Y-14230000D01*
X27203000Y-14190000D02*
X27163000Y-14230000D01*
X27163000Y-28540000D02*
X27203000Y-28580000D01*
X27203000Y-28540000D02*
X27163000Y-28580000D01*
X27183000Y-9180000D02*
X27223000Y-9220000D01*
X27223000Y-9180000D02*
X27183000Y-9220000D01*
X27183000Y-13960000D02*
X27223000Y-14000000D01*
X27223000Y-13960000D02*
X27183000Y-14000000D01*
X27183000Y-18740000D02*
X27223000Y-18780000D01*
X27223000Y-18740000D02*
X27183000Y-18780000D01*
X27183000Y-23520000D02*
X27223000Y-23560000D01*
X27223000Y-23520000D02*
X27183000Y-23560000D01*
X27183000Y-28300000D02*
X27223000Y-28340000D01*
X27223000Y-28300000D02*
X27183000Y-28340000D01*
X27353000Y-19080000D02*
X27393000Y-19120000D01*
X27393000Y-19080000D02*
X27353000Y-19120000D01*
X27353000Y-23870000D02*
X27393000Y-23910000D01*
X27393000Y-23870000D02*
X27353000Y-23910000D01*
X27353000Y-28640000D02*
X27393000Y-28680000D01*
X27393000Y-28640000D02*
X27353000Y-28680000D01*
X27363000Y-9520000D02*
X27403000Y-9560000D01*
X27403000Y-9520000D02*
X27363000Y-9560000D01*
X27363000Y-14300000D02*
X27403000Y-14340000D01*
X27403000Y-14300000D02*
X27363000Y-14340000D01*
X27573000Y-9170000D02*
X27613000Y-9210000D01*
X27613000Y-9170000D02*
X27573000Y-9210000D01*
X27573000Y-13950000D02*
X27613000Y-13990000D01*
X27613000Y-13950000D02*
X27573000Y-13990000D01*
X27573000Y-18730000D02*
X27613000Y-18770000D01*
X27613000Y-18730000D02*
X27573000Y-18770000D01*
X27573000Y-23510000D02*
X27613000Y-23550000D01*
X27613000Y-23510000D02*
X27573000Y-23550000D01*
X27573000Y-28290000D02*
X27613000Y-28330000D01*
X27613000Y-28290000D02*
X27573000Y-28330000D01*
X31933000Y-9410000D02*
X31973000Y-9450000D01*
X31973000Y-9410000D02*
X31933000Y-9450000D01*
X31933000Y-14190000D02*
X31973000Y-14230000D01*
X31973000Y-14190000D02*
X31933000Y-14230000D01*
X31933000Y-18980000D02*
X31973000Y-19020000D01*
X31973000Y-18980000D02*
X31933000Y-19020000D01*
X31933000Y-23750000D02*
X31973000Y-23790000D01*
X31973000Y-23750000D02*
X31933000Y-23790000D01*
X31943000Y-28530000D02*
X31983000Y-28570000D01*
X31983000Y-28530000D02*
X31943000Y-28570000D01*
X31963000Y-9180000D02*
X32003000Y-9220000D01*
X32003000Y-9180000D02*
X31963000Y-9220000D01*
X31963000Y-13960000D02*
X32003000Y-14000000D01*
X32003000Y-13960000D02*
X31963000Y-14000000D01*
X31963000Y-18740000D02*
X32003000Y-18780000D01*
X32003000Y-18740000D02*
X31963000Y-18780000D01*
X31963000Y-23520000D02*
X32003000Y-23560000D01*
X32003000Y-23520000D02*
X31963000Y-23560000D01*
X31963000Y-28300000D02*
X32003000Y-28340000D01*
X32003000Y-28300000D02*
X31963000Y-28340000D01*
X32133000Y-9520000D02*
X32173000Y-9560000D01*
X32173000Y-9520000D02*
X32133000Y-9560000D01*
X32133000Y-14310000D02*
X32173000Y-14350000D01*
X32173000Y-14310000D02*
X32133000Y-14350000D01*
X32133000Y-19090000D02*
X32173000Y-19130000D01*
X32173000Y-19090000D02*
X32133000Y-19130000D01*
X32133000Y-28630000D02*
X32173000Y-28670000D01*
X32173000Y-28630000D02*
X32133000Y-28670000D01*
X32153000Y-23860000D02*
X32193000Y-23900000D01*
X32193000Y-23860000D02*
X32153000Y-23900000D01*
X32353000Y-9170000D02*
X32393000Y-9210000D01*
X32393000Y-9170000D02*
X32353000Y-9210000D01*
X32353000Y-13950000D02*
X32393000Y-13990000D01*
X32393000Y-13950000D02*
X32353000Y-13990000D01*
X32353000Y-18730000D02*
X32393000Y-18770000D01*
X32393000Y-18730000D02*
X32353000Y-18770000D01*
X32353000Y-23510000D02*
X32393000Y-23550000D01*
X32393000Y-23510000D02*
X32353000Y-23550000D01*
X32353000Y-28290000D02*
X32393000Y-28330000D01*
X32393000Y-28290000D02*
X32353000Y-28330000D01*
D13*
X5964450Y-8140000D02*
G75*
G03*
X5964450Y-8140000I-44450J0D01*
G01*
X5964450Y-8394000D02*
G75*
G03*
X5964450Y-8394000I-44450J0D01*
G01*
X5964450Y-8648000D02*
G75*
G03*
X5964450Y-8648000I-44450J0D01*
G01*
X5969460Y-3604750D02*
G75*
G03*
X5969460Y-3604750I-44450J0D01*
G01*
X5969460Y-3858750D02*
G75*
G03*
X5969460Y-3858750I-44450J0D01*
G01*
X5969460Y-4112750D02*
G75*
G03*
X5969460Y-4112750I-44450J0D01*
G01*
X5969460Y-4521250D02*
G75*
G03*
X5969460Y-4521250I-44450J0D01*
G01*
X5969460Y-4775250D02*
G75*
G03*
X5969460Y-4775250I-44450J0D01*
G01*
X5969460Y-5029250D02*
G75*
G03*
X5969460Y-5029250I-44450J0D01*
G01*
X5969460Y-5430750D02*
G75*
G03*
X5969460Y-5430750I-44450J0D01*
G01*
X5969460Y-5684750D02*
G75*
G03*
X5969460Y-5684750I-44450J0D01*
G01*
X5969460Y-5938750D02*
G75*
G03*
X5969460Y-5938750I-44450J0D01*
G01*
X5969460Y-6321250D02*
G75*
G03*
X5969460Y-6321250I-44450J0D01*
G01*
X5969460Y-6575250D02*
G75*
G03*
X5969460Y-6575250I-44450J0D01*
G01*
X5969460Y-6829250D02*
G75*
G03*
X5969460Y-6829250I-44450J0D01*
G01*
X5969460Y-7230750D02*
G75*
G03*
X5969460Y-7230750I-44450J0D01*
G01*
X5969460Y-7484750D02*
G75*
G03*
X5969460Y-7484750I-44450J0D01*
G01*
X5969460Y-7738750D02*
G75*
G03*
X5969460Y-7738750I-44450J0D01*
G01*
X5969460Y-9050750D02*
G75*
G03*
X5969460Y-9050750I-44450J0D01*
G01*
X5969460Y-9304750D02*
G75*
G03*
X5969460Y-9304750I-44450J0D01*
G01*
X5969460Y-9558750D02*
G75*
G03*
X5969460Y-9558750I-44450J0D01*
G01*
X5969460Y-9961250D02*
G75*
G03*
X5969460Y-9961250I-44450J0D01*
G01*
X5969460Y-10215250D02*
G75*
G03*
X5969460Y-10215250I-44450J0D01*
G01*
X5969460Y-10469250D02*
G75*
G03*
X5969460Y-10469250I-44450J0D01*
G01*
X5974450Y-15410000D02*
G75*
G03*
X5974450Y-15410000I-44450J0D01*
G01*
X5974450Y-15664000D02*
G75*
G03*
X5974450Y-15664000I-44450J0D01*
G01*
X5974450Y-15918000D02*
G75*
G03*
X5974450Y-15918000I-44450J0D01*
G01*
X5979460Y-10874750D02*
G75*
G03*
X5979460Y-10874750I-44450J0D01*
G01*
X5979460Y-11128750D02*
G75*
G03*
X5979460Y-11128750I-44450J0D01*
G01*
X5979460Y-11382750D02*
G75*
G03*
X5979460Y-11382750I-44450J0D01*
G01*
X5979460Y-11791250D02*
G75*
G03*
X5979460Y-11791250I-44450J0D01*
G01*
X5979460Y-12045250D02*
G75*
G03*
X5979460Y-12045250I-44450J0D01*
G01*
X5979460Y-12299250D02*
G75*
G03*
X5979460Y-12299250I-44450J0D01*
G01*
X5979460Y-12700750D02*
G75*
G03*
X5979460Y-12700750I-44450J0D01*
G01*
X5979460Y-12954750D02*
G75*
G03*
X5979460Y-12954750I-44450J0D01*
G01*
X5979460Y-13208750D02*
G75*
G03*
X5979460Y-13208750I-44450J0D01*
G01*
X5979460Y-13591250D02*
G75*
G03*
X5979460Y-13591250I-44450J0D01*
G01*
X5979460Y-13845250D02*
G75*
G03*
X5979460Y-13845250I-44450J0D01*
G01*
X5979460Y-14099250D02*
G75*
G03*
X5979460Y-14099250I-44450J0D01*
G01*
X5979460Y-14500750D02*
G75*
G03*
X5979460Y-14500750I-44450J0D01*
G01*
X5979460Y-14754750D02*
G75*
G03*
X5979460Y-14754750I-44450J0D01*
G01*
X5979460Y-15008750D02*
G75*
G03*
X5979460Y-15008750I-44450J0D01*
G01*
X5979460Y-16320750D02*
G75*
G03*
X5979460Y-16320750I-44450J0D01*
G01*
X5979460Y-16574750D02*
G75*
G03*
X5979460Y-16574750I-44450J0D01*
G01*
X5979460Y-16828750D02*
G75*
G03*
X5979460Y-16828750I-44450J0D01*
G01*
X5979460Y-17231250D02*
G75*
G03*
X5979460Y-17231250I-44450J0D01*
G01*
X5979460Y-17485250D02*
G75*
G03*
X5979460Y-17485250I-44450J0D01*
G01*
X5979460Y-17739250D02*
G75*
G03*
X5979460Y-17739250I-44450J0D01*
G01*
X5984460Y-18165750D02*
G75*
G03*
X5984460Y-18165750I-44450J0D01*
G01*
X5984460Y-18419750D02*
G75*
G03*
X5984460Y-18419750I-44450J0D01*
G01*
X5984460Y-18673750D02*
G75*
G03*
X5984460Y-18673750I-44450J0D01*
G01*
X5984460Y-19076250D02*
G75*
G03*
X5984460Y-19076250I-44450J0D01*
G01*
X5984460Y-19330250D02*
G75*
G03*
X5984460Y-19330250I-44450J0D01*
G01*
X5984460Y-19584250D02*
G75*
G03*
X5984460Y-19584250I-44450J0D01*
G01*
X5989450Y-24525000D02*
G75*
G03*
X5989450Y-24525000I-44450J0D01*
G01*
X5989450Y-24779000D02*
G75*
G03*
X5989450Y-24779000I-44450J0D01*
G01*
X5989450Y-25033000D02*
G75*
G03*
X5989450Y-25033000I-44450J0D01*
G01*
X5994460Y-19989750D02*
G75*
G03*
X5994460Y-19989750I-44450J0D01*
G01*
X5994460Y-20243750D02*
G75*
G03*
X5994460Y-20243750I-44450J0D01*
G01*
X5994460Y-20497750D02*
G75*
G03*
X5994460Y-20497750I-44450J0D01*
G01*
X5994460Y-20906250D02*
G75*
G03*
X5994460Y-20906250I-44450J0D01*
G01*
X5994460Y-21160250D02*
G75*
G03*
X5994460Y-21160250I-44450J0D01*
G01*
X5994460Y-21414250D02*
G75*
G03*
X5994460Y-21414250I-44450J0D01*
G01*
X5994460Y-21815750D02*
G75*
G03*
X5994460Y-21815750I-44450J0D01*
G01*
X5994460Y-22069750D02*
G75*
G03*
X5994460Y-22069750I-44450J0D01*
G01*
X5994460Y-22323750D02*
G75*
G03*
X5994460Y-22323750I-44450J0D01*
G01*
X5994460Y-22706250D02*
G75*
G03*
X5994460Y-22706250I-44450J0D01*
G01*
X5994460Y-22960250D02*
G75*
G03*
X5994460Y-22960250I-44450J0D01*
G01*
X5994460Y-23214250D02*
G75*
G03*
X5994460Y-23214250I-44450J0D01*
G01*
X5994460Y-23615750D02*
G75*
G03*
X5994460Y-23615750I-44450J0D01*
G01*
X5994460Y-23869750D02*
G75*
G03*
X5994460Y-23869750I-44450J0D01*
G01*
X5994460Y-24123750D02*
G75*
G03*
X5994460Y-24123750I-44450J0D01*
G01*
X5994460Y-25435750D02*
G75*
G03*
X5994460Y-25435750I-44450J0D01*
G01*
X5994460Y-25689750D02*
G75*
G03*
X5994460Y-25689750I-44450J0D01*
G01*
X5994460Y-25943750D02*
G75*
G03*
X5994460Y-25943750I-44450J0D01*
G01*
X6088210Y-29010000D02*
G75*
G03*
X6088210Y-29010000I-44450J0D01*
G01*
X6088210Y-29264000D02*
G75*
G03*
X6088210Y-29264000I-44450J0D01*
G01*
X6088210Y-29518000D02*
G75*
G03*
X6088210Y-29518000I-44450J0D01*
G01*
D14*
X5538750Y-31353750D02*
X5538750Y-31463750D01*
X5483750Y-31408750D02*
X5593750Y-31408750D01*
D15*
X5089284Y-30959283D02*
X5089284Y-30853216D01*
X4983217Y-30853216D01*
X4983217Y-30959283D01*
X5089284Y-30959283D01*
X5089284Y-31964283D02*
X5089284Y-31858216D01*
X4983217Y-31858216D01*
X4983217Y-31964283D01*
X5089284Y-31964283D01*
X6094283Y-30959283D02*
X6094283Y-30853216D01*
X5988216Y-30853216D01*
X5988216Y-30959283D01*
X6094283Y-30959283D01*
X6094283Y-31964283D02*
X6094283Y-31858216D01*
X5988216Y-31858216D01*
X5988216Y-31964283D01*
X6094283Y-31964283D01*
D11*
X4924619Y-33066476D02*
X4924619Y-32866476D01*
X4972238Y-32866476D01*
X5000810Y-32876000D01*
X5019857Y-32895048D01*
X5029381Y-32914095D01*
X5038905Y-32952190D01*
X5038905Y-32980762D01*
X5029381Y-33018857D01*
X5019857Y-33037905D01*
X5000810Y-33056952D01*
X4972238Y-33066476D01*
X4924619Y-33066476D01*
X5124619Y-33066476D02*
X5124619Y-32933143D01*
X5124619Y-32971238D02*
X5134143Y-32952190D01*
X5143667Y-32942667D01*
X5162714Y-32933143D01*
X5181762Y-32933143D01*
X5248429Y-33066476D02*
X5248429Y-32933143D01*
X5248429Y-32866476D02*
X5238905Y-32876000D01*
X5248429Y-32885524D01*
X5257952Y-32876000D01*
X5248429Y-32866476D01*
X5248429Y-32885524D01*
X5372238Y-33066476D02*
X5353190Y-33056952D01*
X5343667Y-33037905D01*
X5343667Y-32866476D01*
X5477000Y-33066476D02*
X5457952Y-33056952D01*
X5448429Y-33037905D01*
X5448429Y-32866476D01*
X5705571Y-33066476D02*
X5705571Y-32866476D01*
X5772238Y-33009333D01*
X5838905Y-32866476D01*
X5838905Y-33066476D01*
X6019857Y-33066476D02*
X6019857Y-32961714D01*
X6010333Y-32942667D01*
X5991286Y-32933143D01*
X5953190Y-32933143D01*
X5934143Y-32942667D01*
X6019857Y-33056952D02*
X6000809Y-33066476D01*
X5953190Y-33066476D01*
X5934143Y-33056952D01*
X5924619Y-33037905D01*
X5924619Y-33018857D01*
X5934143Y-32999809D01*
X5953190Y-32990286D01*
X6000809Y-32990286D01*
X6019857Y-32980762D01*
X6115095Y-32933143D02*
X6115095Y-33133143D01*
X6115095Y-32942667D02*
X6134143Y-32933143D01*
X6172238Y-32933143D01*
X6191286Y-32942667D01*
X6200809Y-32952190D01*
X6210333Y-32971238D01*
X6210333Y-33028381D01*
X6200809Y-33047428D01*
X6191286Y-33056952D01*
X6172238Y-33066476D01*
X6134143Y-33066476D01*
X6115095Y-33056952D01*
X6296048Y-33047428D02*
X6305571Y-33056952D01*
X6296048Y-33066476D01*
X6286524Y-33056952D01*
X6296048Y-33047428D01*
X6296048Y-33066476D01*
X6296048Y-32942667D02*
X6305571Y-32952190D01*
X6296048Y-32961714D01*
X6286524Y-32952190D01*
X6296048Y-32942667D01*
X6296048Y-32961714D01*
D12*
X4627000Y-33376000D02*
X4667000Y-33416000D01*
X4667000Y-33376000D02*
X4627000Y-33416000D01*
D11*
X4962714Y-33286476D02*
X4981762Y-33286476D01*
X5000810Y-33296000D01*
X5010333Y-33305524D01*
X5019857Y-33324571D01*
X5029381Y-33362667D01*
X5029381Y-33410286D01*
X5019857Y-33448381D01*
X5010333Y-33467428D01*
X5000810Y-33476952D01*
X4981762Y-33486476D01*
X4962714Y-33486476D01*
X4943667Y-33476952D01*
X4934143Y-33467428D01*
X4924619Y-33448381D01*
X4915095Y-33410286D01*
X4915095Y-33362667D01*
X4924619Y-33324571D01*
X4934143Y-33305524D01*
X4943667Y-33296000D01*
X4962714Y-33286476D01*
X5115095Y-33467428D02*
X5124619Y-33476952D01*
X5115095Y-33486476D01*
X5105571Y-33476952D01*
X5115095Y-33467428D01*
X5115095Y-33486476D01*
X5296048Y-33353143D02*
X5296048Y-33486476D01*
X5248429Y-33276952D02*
X5200810Y-33419809D01*
X5324619Y-33419809D01*
X5438905Y-33286476D02*
X5457952Y-33286476D01*
X5477000Y-33296000D01*
X5486524Y-33305524D01*
X5496048Y-33324571D01*
X5505571Y-33362667D01*
X5505571Y-33410286D01*
X5496048Y-33448381D01*
X5486524Y-33467428D01*
X5477000Y-33476952D01*
X5457952Y-33486476D01*
X5438905Y-33486476D01*
X5419857Y-33476952D01*
X5410333Y-33467428D01*
X5400810Y-33448381D01*
X5391286Y-33410286D01*
X5391286Y-33362667D01*
X5400810Y-33324571D01*
X5410333Y-33305524D01*
X5419857Y-33296000D01*
X5438905Y-33286476D01*
X5629381Y-33286476D02*
X5648428Y-33286476D01*
X5667476Y-33296000D01*
X5677000Y-33305524D01*
X5686524Y-33324571D01*
X5696048Y-33362667D01*
X5696048Y-33410286D01*
X5686524Y-33448381D01*
X5677000Y-33467428D01*
X5667476Y-33476952D01*
X5648428Y-33486476D01*
X5629381Y-33486476D01*
X5610333Y-33476952D01*
X5600809Y-33467428D01*
X5591286Y-33448381D01*
X5581762Y-33410286D01*
X5581762Y-33362667D01*
X5591286Y-33324571D01*
X5600809Y-33305524D01*
X5610333Y-33296000D01*
X5629381Y-33286476D01*
X5781762Y-33486476D02*
X5781762Y-33353143D01*
X5781762Y-33372190D02*
X5791286Y-33362667D01*
X5810333Y-33353143D01*
X5838905Y-33353143D01*
X5857952Y-33362667D01*
X5867476Y-33381714D01*
X5867476Y-33486476D01*
X5867476Y-33381714D02*
X5877000Y-33362667D01*
X5896048Y-33353143D01*
X5924619Y-33353143D01*
X5943667Y-33362667D01*
X5953190Y-33381714D01*
X5953190Y-33486476D01*
X6048428Y-33486476D02*
X6048428Y-33353143D01*
X6048428Y-33372190D02*
X6057952Y-33362667D01*
X6077000Y-33353143D01*
X6105571Y-33353143D01*
X6124619Y-33362667D01*
X6134143Y-33381714D01*
X6134143Y-33486476D01*
X6134143Y-33381714D02*
X6143667Y-33362667D01*
X6162714Y-33353143D01*
X6191286Y-33353143D01*
X6210333Y-33362667D01*
X6219857Y-33381714D01*
X6219857Y-33486476D01*
X6610333Y-33276952D02*
X6438905Y-33534095D01*
X6867476Y-33286476D02*
X6886524Y-33286476D01*
X6905571Y-33296000D01*
X6915095Y-33305524D01*
X6924619Y-33324571D01*
X6934143Y-33362667D01*
X6934143Y-33410286D01*
X6924619Y-33448381D01*
X6915095Y-33467428D01*
X6905571Y-33476952D01*
X6886524Y-33486476D01*
X6867476Y-33486476D01*
X6848428Y-33476952D01*
X6838905Y-33467428D01*
X6829381Y-33448381D01*
X6819857Y-33410286D01*
X6819857Y-33362667D01*
X6829381Y-33324571D01*
X6838905Y-33305524D01*
X6848428Y-33296000D01*
X6867476Y-33286476D01*
X7019857Y-33467428D02*
X7029381Y-33476952D01*
X7019857Y-33486476D01*
X7010333Y-33476952D01*
X7019857Y-33467428D01*
X7019857Y-33486476D01*
X7153190Y-33286476D02*
X7172238Y-33286476D01*
X7191286Y-33296000D01*
X7200809Y-33305524D01*
X7210333Y-33324571D01*
X7219857Y-33362667D01*
X7219857Y-33410286D01*
X7210333Y-33448381D01*
X7200809Y-33467428D01*
X7191286Y-33476952D01*
X7172238Y-33486476D01*
X7153190Y-33486476D01*
X7134143Y-33476952D01*
X7124619Y-33467428D01*
X7115095Y-33448381D01*
X7105571Y-33410286D01*
X7105571Y-33362667D01*
X7115095Y-33324571D01*
X7124619Y-33305524D01*
X7134143Y-33296000D01*
X7153190Y-33286476D01*
X7410333Y-33486476D02*
X7296048Y-33486476D01*
X7353190Y-33486476D02*
X7353190Y-33286476D01*
X7334143Y-33315048D01*
X7315095Y-33334095D01*
X7296048Y-33343619D01*
X7591286Y-33286476D02*
X7496048Y-33286476D01*
X7486524Y-33381714D01*
X7496048Y-33372190D01*
X7515095Y-33362667D01*
X7562714Y-33362667D01*
X7581762Y-33372190D01*
X7591286Y-33381714D01*
X7600809Y-33400762D01*
X7600809Y-33448381D01*
X7591286Y-33467428D01*
X7581762Y-33476952D01*
X7562714Y-33486476D01*
X7515095Y-33486476D01*
X7496048Y-33476952D01*
X7486524Y-33467428D01*
X7667476Y-33286476D02*
X7800809Y-33286476D01*
X7715095Y-33486476D01*
X7867476Y-33286476D02*
X7867476Y-33324571D01*
X7943667Y-33286476D02*
X7943667Y-33324571D01*
X8238905Y-33562667D02*
X8229381Y-33553143D01*
X8210333Y-33524571D01*
X8200809Y-33505524D01*
X8191286Y-33476952D01*
X8181762Y-33429333D01*
X8181762Y-33391238D01*
X8191286Y-33343619D01*
X8200809Y-33315048D01*
X8210333Y-33296000D01*
X8229381Y-33267428D01*
X8238905Y-33257905D01*
X8419857Y-33486476D02*
X8305571Y-33486476D01*
X8362714Y-33486476D02*
X8362714Y-33286476D01*
X8343667Y-33315048D01*
X8324619Y-33334095D01*
X8305571Y-33343619D01*
X8600810Y-33286476D02*
X8505571Y-33286476D01*
X8496048Y-33381714D01*
X8505571Y-33372190D01*
X8524619Y-33362667D01*
X8572238Y-33362667D01*
X8591286Y-33372190D01*
X8600810Y-33381714D01*
X8610333Y-33400762D01*
X8610333Y-33448381D01*
X8600810Y-33467428D01*
X8591286Y-33476952D01*
X8572238Y-33486476D01*
X8524619Y-33486476D01*
X8505571Y-33476952D01*
X8496048Y-33467428D01*
X8677000Y-33286476D02*
X8810333Y-33286476D01*
X8724619Y-33486476D01*
X9038905Y-33486476D02*
X9038905Y-33286476D01*
X9124619Y-33486476D02*
X9124619Y-33381714D01*
X9115095Y-33362667D01*
X9096048Y-33353143D01*
X9067476Y-33353143D01*
X9048429Y-33362667D01*
X9038905Y-33372190D01*
X9248429Y-33486476D02*
X9229381Y-33476952D01*
X9219857Y-33467428D01*
X9210333Y-33448381D01*
X9210333Y-33391238D01*
X9219857Y-33372190D01*
X9229381Y-33362667D01*
X9248429Y-33353143D01*
X9277000Y-33353143D01*
X9296048Y-33362667D01*
X9305571Y-33372190D01*
X9315095Y-33391238D01*
X9315095Y-33448381D01*
X9305571Y-33467428D01*
X9296048Y-33476952D01*
X9277000Y-33486476D01*
X9248429Y-33486476D01*
X9429381Y-33486476D02*
X9410333Y-33476952D01*
X9400810Y-33457905D01*
X9400810Y-33286476D01*
X9581762Y-33476952D02*
X9562714Y-33486476D01*
X9524619Y-33486476D01*
X9505571Y-33476952D01*
X9496048Y-33457905D01*
X9496048Y-33381714D01*
X9505571Y-33362667D01*
X9524619Y-33353143D01*
X9562714Y-33353143D01*
X9581762Y-33362667D01*
X9591286Y-33381714D01*
X9591286Y-33400762D01*
X9496048Y-33419809D01*
X9667476Y-33476952D02*
X9686524Y-33486476D01*
X9724619Y-33486476D01*
X9743667Y-33476952D01*
X9753190Y-33457905D01*
X9753190Y-33448381D01*
X9743667Y-33429333D01*
X9724619Y-33419809D01*
X9696048Y-33419809D01*
X9677000Y-33410286D01*
X9667476Y-33391238D01*
X9667476Y-33381714D01*
X9677000Y-33362667D01*
X9696048Y-33353143D01*
X9724619Y-33353143D01*
X9743667Y-33362667D01*
X9819857Y-33562667D02*
X9829381Y-33553143D01*
X9848429Y-33524571D01*
X9857952Y-33505524D01*
X9867476Y-33476952D01*
X9877000Y-33429333D01*
X9877000Y-33391238D01*
X9867476Y-33343619D01*
X9857952Y-33315048D01*
X9848429Y-33296000D01*
X9829381Y-33267428D01*
X9819857Y-33257905D01*
D13*
X4667000Y-33660000D02*
G75*
G03*
X4667000Y-33660000I-44450J0D01*
G01*
D11*
X4962714Y-33550476D02*
X4981762Y-33550476D01*
X5000810Y-33560000D01*
X5010333Y-33569524D01*
X5019857Y-33588571D01*
X5029381Y-33626667D01*
X5029381Y-33674286D01*
X5019857Y-33712381D01*
X5010333Y-33731429D01*
X5000810Y-33740952D01*
X4981762Y-33750476D01*
X4962714Y-33750476D01*
X4943667Y-33740952D01*
X4934143Y-33731429D01*
X4924619Y-33712381D01*
X4915095Y-33674286D01*
X4915095Y-33626667D01*
X4924619Y-33588571D01*
X4934143Y-33569524D01*
X4943667Y-33560000D01*
X4962714Y-33550476D01*
X5115095Y-33731429D02*
X5124619Y-33740952D01*
X5115095Y-33750476D01*
X5105571Y-33740952D01*
X5115095Y-33731429D01*
X5115095Y-33750476D01*
X5238905Y-33636190D02*
X5219857Y-33626667D01*
X5210333Y-33617143D01*
X5200810Y-33598095D01*
X5200810Y-33588571D01*
X5210333Y-33569524D01*
X5219857Y-33560000D01*
X5238905Y-33550476D01*
X5277000Y-33550476D01*
X5296048Y-33560000D01*
X5305571Y-33569524D01*
X5315095Y-33588571D01*
X5315095Y-33598095D01*
X5305571Y-33617143D01*
X5296048Y-33626667D01*
X5277000Y-33636190D01*
X5238905Y-33636190D01*
X5219857Y-33645714D01*
X5210333Y-33655238D01*
X5200810Y-33674286D01*
X5200810Y-33712381D01*
X5210333Y-33731429D01*
X5219857Y-33740952D01*
X5238905Y-33750476D01*
X5277000Y-33750476D01*
X5296048Y-33740952D01*
X5305571Y-33731429D01*
X5315095Y-33712381D01*
X5315095Y-33674286D01*
X5305571Y-33655238D01*
X5296048Y-33645714D01*
X5277000Y-33636190D01*
X5429381Y-33636190D02*
X5410333Y-33626667D01*
X5400810Y-33617143D01*
X5391286Y-33598095D01*
X5391286Y-33588571D01*
X5400810Y-33569524D01*
X5410333Y-33560000D01*
X5429381Y-33550476D01*
X5467476Y-33550476D01*
X5486524Y-33560000D01*
X5496048Y-33569524D01*
X5505571Y-33588571D01*
X5505571Y-33598095D01*
X5496048Y-33617143D01*
X5486524Y-33626667D01*
X5467476Y-33636190D01*
X5429381Y-33636190D01*
X5410333Y-33645714D01*
X5400810Y-33655238D01*
X5391286Y-33674286D01*
X5391286Y-33712381D01*
X5400810Y-33731429D01*
X5410333Y-33740952D01*
X5429381Y-33750476D01*
X5467476Y-33750476D01*
X5486524Y-33740952D01*
X5496048Y-33731429D01*
X5505571Y-33712381D01*
X5505571Y-33674286D01*
X5496048Y-33655238D01*
X5486524Y-33645714D01*
X5467476Y-33636190D01*
X5600809Y-33750476D02*
X5638905Y-33750476D01*
X5657952Y-33740952D01*
X5667476Y-33731429D01*
X5686524Y-33702857D01*
X5696048Y-33664762D01*
X5696048Y-33588571D01*
X5686524Y-33569524D01*
X5677000Y-33560000D01*
X5657952Y-33550476D01*
X5619857Y-33550476D01*
X5600809Y-33560000D01*
X5591286Y-33569524D01*
X5581762Y-33588571D01*
X5581762Y-33636190D01*
X5591286Y-33655238D01*
X5600809Y-33664762D01*
X5619857Y-33674286D01*
X5657952Y-33674286D01*
X5677000Y-33664762D01*
X5686524Y-33655238D01*
X5696048Y-33636190D01*
X5781762Y-33750476D02*
X5781762Y-33617143D01*
X5781762Y-33636190D02*
X5791286Y-33626667D01*
X5810333Y-33617143D01*
X5838905Y-33617143D01*
X5857952Y-33626667D01*
X5867476Y-33645714D01*
X5867476Y-33750476D01*
X5867476Y-33645714D02*
X5877000Y-33626667D01*
X5896048Y-33617143D01*
X5924619Y-33617143D01*
X5943667Y-33626667D01*
X5953190Y-33645714D01*
X5953190Y-33750476D01*
X6048428Y-33750476D02*
X6048428Y-33617143D01*
X6048428Y-33636190D02*
X6057952Y-33626667D01*
X6077000Y-33617143D01*
X6105571Y-33617143D01*
X6124619Y-33626667D01*
X6134143Y-33645714D01*
X6134143Y-33750476D01*
X6134143Y-33645714D02*
X6143667Y-33626667D01*
X6162714Y-33617143D01*
X6191286Y-33617143D01*
X6210333Y-33626667D01*
X6219857Y-33645714D01*
X6219857Y-33750476D01*
X6610333Y-33540952D02*
X6438905Y-33798095D01*
X6867476Y-33550476D02*
X6886524Y-33550476D01*
X6905571Y-33560000D01*
X6915095Y-33569524D01*
X6924619Y-33588571D01*
X6934143Y-33626667D01*
X6934143Y-33674286D01*
X6924619Y-33712381D01*
X6915095Y-33731429D01*
X6905571Y-33740952D01*
X6886524Y-33750476D01*
X6867476Y-33750476D01*
X6848428Y-33740952D01*
X6838905Y-33731429D01*
X6829381Y-33712381D01*
X6819857Y-33674286D01*
X6819857Y-33626667D01*
X6829381Y-33588571D01*
X6838905Y-33569524D01*
X6848428Y-33560000D01*
X6867476Y-33550476D01*
X7019857Y-33731429D02*
X7029381Y-33740952D01*
X7019857Y-33750476D01*
X7010333Y-33740952D01*
X7019857Y-33731429D01*
X7019857Y-33750476D01*
X7153190Y-33550476D02*
X7172238Y-33550476D01*
X7191286Y-33560000D01*
X7200809Y-33569524D01*
X7210333Y-33588571D01*
X7219857Y-33626667D01*
X7219857Y-33674286D01*
X7210333Y-33712381D01*
X7200809Y-33731429D01*
X7191286Y-33740952D01*
X7172238Y-33750476D01*
X7153190Y-33750476D01*
X7134143Y-33740952D01*
X7124619Y-33731429D01*
X7115095Y-33712381D01*
X7105571Y-33674286D01*
X7105571Y-33626667D01*
X7115095Y-33588571D01*
X7124619Y-33569524D01*
X7134143Y-33560000D01*
X7153190Y-33550476D01*
X7286524Y-33550476D02*
X7410333Y-33550476D01*
X7343667Y-33626667D01*
X7372238Y-33626667D01*
X7391286Y-33636190D01*
X7400809Y-33645714D01*
X7410333Y-33664762D01*
X7410333Y-33712381D01*
X7400809Y-33731429D01*
X7391286Y-33740952D01*
X7372238Y-33750476D01*
X7315095Y-33750476D01*
X7296048Y-33740952D01*
X7286524Y-33731429D01*
X7591286Y-33550476D02*
X7496048Y-33550476D01*
X7486524Y-33645714D01*
X7496048Y-33636190D01*
X7515095Y-33626667D01*
X7562714Y-33626667D01*
X7581762Y-33636190D01*
X7591286Y-33645714D01*
X7600809Y-33664762D01*
X7600809Y-33712381D01*
X7591286Y-33731429D01*
X7581762Y-33740952D01*
X7562714Y-33750476D01*
X7515095Y-33750476D01*
X7496048Y-33740952D01*
X7486524Y-33731429D01*
X7724619Y-33550476D02*
X7743667Y-33550476D01*
X7762714Y-33560000D01*
X7772238Y-33569524D01*
X7781762Y-33588571D01*
X7791286Y-33626667D01*
X7791286Y-33674286D01*
X7781762Y-33712381D01*
X7772238Y-33731429D01*
X7762714Y-33740952D01*
X7743667Y-33750476D01*
X7724619Y-33750476D01*
X7705571Y-33740952D01*
X7696048Y-33731429D01*
X7686524Y-33712381D01*
X7677000Y-33674286D01*
X7677000Y-33626667D01*
X7686524Y-33588571D01*
X7696048Y-33569524D01*
X7705571Y-33560000D01*
X7724619Y-33550476D01*
X7867476Y-33550476D02*
X7867476Y-33588571D01*
X7943667Y-33550476D02*
X7943667Y-33588571D01*
X8238905Y-33826667D02*
X8229381Y-33817143D01*
X8210333Y-33788571D01*
X8200809Y-33769524D01*
X8191286Y-33740952D01*
X8181762Y-33693333D01*
X8181762Y-33655238D01*
X8191286Y-33607619D01*
X8200809Y-33579048D01*
X8210333Y-33560000D01*
X8229381Y-33531428D01*
X8238905Y-33521905D01*
X8296048Y-33550476D02*
X8429381Y-33550476D01*
X8343667Y-33750476D01*
X8534143Y-33636190D02*
X8515095Y-33626667D01*
X8505571Y-33617143D01*
X8496048Y-33598095D01*
X8496048Y-33588571D01*
X8505571Y-33569524D01*
X8515095Y-33560000D01*
X8534143Y-33550476D01*
X8572238Y-33550476D01*
X8591286Y-33560000D01*
X8600810Y-33569524D01*
X8610333Y-33588571D01*
X8610333Y-33598095D01*
X8600810Y-33617143D01*
X8591286Y-33626667D01*
X8572238Y-33636190D01*
X8534143Y-33636190D01*
X8515095Y-33645714D01*
X8505571Y-33655238D01*
X8496048Y-33674286D01*
X8496048Y-33712381D01*
X8505571Y-33731429D01*
X8515095Y-33740952D01*
X8534143Y-33750476D01*
X8572238Y-33750476D01*
X8591286Y-33740952D01*
X8600810Y-33731429D01*
X8610333Y-33712381D01*
X8610333Y-33674286D01*
X8600810Y-33655238D01*
X8591286Y-33645714D01*
X8572238Y-33636190D01*
X8848429Y-33750476D02*
X8848429Y-33550476D01*
X8934143Y-33750476D02*
X8934143Y-33645714D01*
X8924619Y-33626667D01*
X8905571Y-33617143D01*
X8877000Y-33617143D01*
X8857952Y-33626667D01*
X8848429Y-33636190D01*
X9057952Y-33750476D02*
X9038905Y-33740952D01*
X9029381Y-33731429D01*
X9019857Y-33712381D01*
X9019857Y-33655238D01*
X9029381Y-33636190D01*
X9038905Y-33626667D01*
X9057952Y-33617143D01*
X9086524Y-33617143D01*
X9105571Y-33626667D01*
X9115095Y-33636190D01*
X9124619Y-33655238D01*
X9124619Y-33712381D01*
X9115095Y-33731429D01*
X9105571Y-33740952D01*
X9086524Y-33750476D01*
X9057952Y-33750476D01*
X9238905Y-33750476D02*
X9219857Y-33740952D01*
X9210333Y-33721905D01*
X9210333Y-33550476D01*
X9391286Y-33740952D02*
X9372238Y-33750476D01*
X9334143Y-33750476D01*
X9315095Y-33740952D01*
X9305571Y-33721905D01*
X9305571Y-33645714D01*
X9315095Y-33626667D01*
X9334143Y-33617143D01*
X9372238Y-33617143D01*
X9391286Y-33626667D01*
X9400810Y-33645714D01*
X9400810Y-33664762D01*
X9305571Y-33683810D01*
X9477000Y-33740952D02*
X9496048Y-33750476D01*
X9534143Y-33750476D01*
X9553190Y-33740952D01*
X9562714Y-33721905D01*
X9562714Y-33712381D01*
X9553190Y-33693333D01*
X9534143Y-33683810D01*
X9505571Y-33683810D01*
X9486524Y-33674286D01*
X9477000Y-33655238D01*
X9477000Y-33645714D01*
X9486524Y-33626667D01*
X9505571Y-33617143D01*
X9534143Y-33617143D01*
X9553190Y-33626667D01*
X9629381Y-33826667D02*
X9638905Y-33817143D01*
X9657952Y-33788571D01*
X9667476Y-33769524D01*
X9677000Y-33740952D01*
X9686524Y-33693333D01*
X9686524Y-33655238D01*
X9677000Y-33607619D01*
X9667476Y-33579048D01*
X9657952Y-33560000D01*
X9638905Y-33531428D01*
X9629381Y-33521905D01*
D14*
X4612000Y-33869000D02*
X4612000Y-33979000D01*
X4557000Y-33924000D02*
X4667000Y-33924000D01*
D11*
X5029381Y-34014476D02*
X4915095Y-34014476D01*
X4972238Y-34014476D02*
X4972238Y-33814476D01*
X4953190Y-33843048D01*
X4934143Y-33862095D01*
X4915095Y-33871619D01*
X5115095Y-33995429D02*
X5124619Y-34004952D01*
X5115095Y-34014476D01*
X5105571Y-34004952D01*
X5115095Y-33995429D01*
X5115095Y-34014476D01*
X5315095Y-34014476D02*
X5200810Y-34014476D01*
X5257952Y-34014476D02*
X5257952Y-33814476D01*
X5238905Y-33843048D01*
X5219857Y-33862095D01*
X5200810Y-33871619D01*
X5438905Y-33814476D02*
X5457952Y-33814476D01*
X5477000Y-33824000D01*
X5486524Y-33833524D01*
X5496048Y-33852571D01*
X5505571Y-33890667D01*
X5505571Y-33938286D01*
X5496048Y-33976381D01*
X5486524Y-33995429D01*
X5477000Y-34004952D01*
X5457952Y-34014476D01*
X5438905Y-34014476D01*
X5419857Y-34004952D01*
X5410333Y-33995429D01*
X5400810Y-33976381D01*
X5391286Y-33938286D01*
X5391286Y-33890667D01*
X5400810Y-33852571D01*
X5410333Y-33833524D01*
X5419857Y-33824000D01*
X5438905Y-33814476D01*
X5629381Y-33814476D02*
X5648428Y-33814476D01*
X5667476Y-33824000D01*
X5677000Y-33833524D01*
X5686524Y-33852571D01*
X5696048Y-33890667D01*
X5696048Y-33938286D01*
X5686524Y-33976381D01*
X5677000Y-33995429D01*
X5667476Y-34004952D01*
X5648428Y-34014476D01*
X5629381Y-34014476D01*
X5610333Y-34004952D01*
X5600809Y-33995429D01*
X5591286Y-33976381D01*
X5581762Y-33938286D01*
X5581762Y-33890667D01*
X5591286Y-33852571D01*
X5600809Y-33833524D01*
X5610333Y-33824000D01*
X5629381Y-33814476D01*
X5781762Y-34014476D02*
X5781762Y-33881143D01*
X5781762Y-33900190D02*
X5791286Y-33890667D01*
X5810333Y-33881143D01*
X5838905Y-33881143D01*
X5857952Y-33890667D01*
X5867476Y-33909714D01*
X5867476Y-34014476D01*
X5867476Y-33909714D02*
X5877000Y-33890667D01*
X5896048Y-33881143D01*
X5924619Y-33881143D01*
X5943667Y-33890667D01*
X5953190Y-33909714D01*
X5953190Y-34014476D01*
X6048428Y-34014476D02*
X6048428Y-33881143D01*
X6048428Y-33900190D02*
X6057952Y-33890667D01*
X6077000Y-33881143D01*
X6105571Y-33881143D01*
X6124619Y-33890667D01*
X6134143Y-33909714D01*
X6134143Y-34014476D01*
X6134143Y-33909714D02*
X6143667Y-33890667D01*
X6162714Y-33881143D01*
X6191286Y-33881143D01*
X6210333Y-33890667D01*
X6219857Y-33909714D01*
X6219857Y-34014476D01*
X6610333Y-33804952D02*
X6438905Y-34062095D01*
X6867476Y-33814476D02*
X6886524Y-33814476D01*
X6905571Y-33824000D01*
X6915095Y-33833524D01*
X6924619Y-33852571D01*
X6934143Y-33890667D01*
X6934143Y-33938286D01*
X6924619Y-33976381D01*
X6915095Y-33995429D01*
X6905571Y-34004952D01*
X6886524Y-34014476D01*
X6867476Y-34014476D01*
X6848428Y-34004952D01*
X6838905Y-33995429D01*
X6829381Y-33976381D01*
X6819857Y-33938286D01*
X6819857Y-33890667D01*
X6829381Y-33852571D01*
X6838905Y-33833524D01*
X6848428Y-33824000D01*
X6867476Y-33814476D01*
X7019857Y-33995429D02*
X7029381Y-34004952D01*
X7019857Y-34014476D01*
X7010333Y-34004952D01*
X7019857Y-33995429D01*
X7019857Y-34014476D01*
X7153190Y-33814476D02*
X7172238Y-33814476D01*
X7191286Y-33824000D01*
X7200809Y-33833524D01*
X7210333Y-33852571D01*
X7219857Y-33890667D01*
X7219857Y-33938286D01*
X7210333Y-33976381D01*
X7200809Y-33995429D01*
X7191286Y-34004952D01*
X7172238Y-34014476D01*
X7153190Y-34014476D01*
X7134143Y-34004952D01*
X7124619Y-33995429D01*
X7115095Y-33976381D01*
X7105571Y-33938286D01*
X7105571Y-33890667D01*
X7115095Y-33852571D01*
X7124619Y-33833524D01*
X7134143Y-33824000D01*
X7153190Y-33814476D01*
X7391286Y-33881143D02*
X7391286Y-34014476D01*
X7343667Y-33804952D02*
X7296048Y-33947810D01*
X7419857Y-33947810D01*
X7477000Y-33814476D02*
X7600809Y-33814476D01*
X7534143Y-33890667D01*
X7562714Y-33890667D01*
X7581762Y-33900190D01*
X7591286Y-33909714D01*
X7600809Y-33928762D01*
X7600809Y-33976381D01*
X7591286Y-33995429D01*
X7581762Y-34004952D01*
X7562714Y-34014476D01*
X7505571Y-34014476D01*
X7486524Y-34004952D01*
X7477000Y-33995429D01*
X7667476Y-33814476D02*
X7791286Y-33814476D01*
X7724619Y-33890667D01*
X7753190Y-33890667D01*
X7772238Y-33900190D01*
X7781762Y-33909714D01*
X7791286Y-33928762D01*
X7791286Y-33976381D01*
X7781762Y-33995429D01*
X7772238Y-34004952D01*
X7753190Y-34014476D01*
X7696048Y-34014476D01*
X7677000Y-34004952D01*
X7667476Y-33995429D01*
X7867476Y-33814476D02*
X7867476Y-33852571D01*
X7943667Y-33814476D02*
X7943667Y-33852571D01*
X8238905Y-34090667D02*
X8229381Y-34081143D01*
X8210333Y-34052571D01*
X8200809Y-34033524D01*
X8191286Y-34004952D01*
X8181762Y-33957333D01*
X8181762Y-33919238D01*
X8191286Y-33871619D01*
X8200809Y-33843048D01*
X8210333Y-33824000D01*
X8229381Y-33795429D01*
X8238905Y-33785905D01*
X8419857Y-34014476D02*
X8305571Y-34014476D01*
X8362714Y-34014476D02*
X8362714Y-33814476D01*
X8343667Y-33843048D01*
X8324619Y-33862095D01*
X8305571Y-33871619D01*
X8657952Y-34014476D02*
X8657952Y-33814476D01*
X8743667Y-34014476D02*
X8743667Y-33909714D01*
X8734143Y-33890667D01*
X8715095Y-33881143D01*
X8686524Y-33881143D01*
X8667476Y-33890667D01*
X8657952Y-33900190D01*
X8867476Y-34014476D02*
X8848429Y-34004952D01*
X8838905Y-33995429D01*
X8829381Y-33976381D01*
X8829381Y-33919238D01*
X8838905Y-33900190D01*
X8848429Y-33890667D01*
X8867476Y-33881143D01*
X8896048Y-33881143D01*
X8915095Y-33890667D01*
X8924619Y-33900190D01*
X8934143Y-33919238D01*
X8934143Y-33976381D01*
X8924619Y-33995429D01*
X8915095Y-34004952D01*
X8896048Y-34014476D01*
X8867476Y-34014476D01*
X9048429Y-34014476D02*
X9029381Y-34004952D01*
X9019857Y-33985905D01*
X9019857Y-33814476D01*
X9200810Y-34004952D02*
X9181762Y-34014476D01*
X9143667Y-34014476D01*
X9124619Y-34004952D01*
X9115095Y-33985905D01*
X9115095Y-33909714D01*
X9124619Y-33890667D01*
X9143667Y-33881143D01*
X9181762Y-33881143D01*
X9200810Y-33890667D01*
X9210333Y-33909714D01*
X9210333Y-33928762D01*
X9115095Y-33947810D01*
X9277000Y-34090667D02*
X9286524Y-34081143D01*
X9305571Y-34052571D01*
X9315095Y-34033524D01*
X9324619Y-34004952D01*
X9334143Y-33957333D01*
X9334143Y-33919238D01*
X9324619Y-33871619D01*
X9315095Y-33843048D01*
X9305571Y-33824000D01*
X9286524Y-33795429D01*
X9277000Y-33785905D01*
D15*
X4645034Y-34241034D02*
X4645034Y-34134967D01*
X4538967Y-34134967D01*
X4538967Y-34241034D01*
X4645034Y-34241034D01*
D11*
X5029381Y-34278476D02*
X4915095Y-34278476D01*
X4972238Y-34278476D02*
X4972238Y-34078476D01*
X4953190Y-34107048D01*
X4934143Y-34126095D01*
X4915095Y-34135619D01*
X5115095Y-34259429D02*
X5124619Y-34268952D01*
X5115095Y-34278476D01*
X5105571Y-34268952D01*
X5115095Y-34259429D01*
X5115095Y-34278476D01*
X5305571Y-34078476D02*
X5210333Y-34078476D01*
X5200810Y-34173714D01*
X5210333Y-34164190D01*
X5229381Y-34154667D01*
X5277000Y-34154667D01*
X5296048Y-34164190D01*
X5305571Y-34173714D01*
X5315095Y-34192762D01*
X5315095Y-34240381D01*
X5305571Y-34259429D01*
X5296048Y-34268952D01*
X5277000Y-34278476D01*
X5229381Y-34278476D01*
X5210333Y-34268952D01*
X5200810Y-34259429D01*
X5438905Y-34078476D02*
X5457952Y-34078476D01*
X5477000Y-34088000D01*
X5486524Y-34097524D01*
X5496048Y-34116571D01*
X5505571Y-34154667D01*
X5505571Y-34202286D01*
X5496048Y-34240381D01*
X5486524Y-34259429D01*
X5477000Y-34268952D01*
X5457952Y-34278476D01*
X5438905Y-34278476D01*
X5419857Y-34268952D01*
X5410333Y-34259429D01*
X5400810Y-34240381D01*
X5391286Y-34202286D01*
X5391286Y-34154667D01*
X5400810Y-34116571D01*
X5410333Y-34097524D01*
X5419857Y-34088000D01*
X5438905Y-34078476D01*
X5629381Y-34078476D02*
X5648428Y-34078476D01*
X5667476Y-34088000D01*
X5677000Y-34097524D01*
X5686524Y-34116571D01*
X5696048Y-34154667D01*
X5696048Y-34202286D01*
X5686524Y-34240381D01*
X5677000Y-34259429D01*
X5667476Y-34268952D01*
X5648428Y-34278476D01*
X5629381Y-34278476D01*
X5610333Y-34268952D01*
X5600809Y-34259429D01*
X5591286Y-34240381D01*
X5581762Y-34202286D01*
X5581762Y-34154667D01*
X5591286Y-34116571D01*
X5600809Y-34097524D01*
X5610333Y-34088000D01*
X5629381Y-34078476D01*
X5781762Y-34278476D02*
X5781762Y-34145143D01*
X5781762Y-34164190D02*
X5791286Y-34154667D01*
X5810333Y-34145143D01*
X5838905Y-34145143D01*
X5857952Y-34154667D01*
X5867476Y-34173714D01*
X5867476Y-34278476D01*
X5867476Y-34173714D02*
X5877000Y-34154667D01*
X5896048Y-34145143D01*
X5924619Y-34145143D01*
X5943667Y-34154667D01*
X5953190Y-34173714D01*
X5953190Y-34278476D01*
X6048428Y-34278476D02*
X6048428Y-34145143D01*
X6048428Y-34164190D02*
X6057952Y-34154667D01*
X6077000Y-34145143D01*
X6105571Y-34145143D01*
X6124619Y-34154667D01*
X6134143Y-34173714D01*
X6134143Y-34278476D01*
X6134143Y-34173714D02*
X6143667Y-34154667D01*
X6162714Y-34145143D01*
X6191286Y-34145143D01*
X6210333Y-34154667D01*
X6219857Y-34173714D01*
X6219857Y-34278476D01*
X6610333Y-34068952D02*
X6438905Y-34326095D01*
X6867476Y-34078476D02*
X6886524Y-34078476D01*
X6905571Y-34088000D01*
X6915095Y-34097524D01*
X6924619Y-34116571D01*
X6934143Y-34154667D01*
X6934143Y-34202286D01*
X6924619Y-34240381D01*
X6915095Y-34259429D01*
X6905571Y-34268952D01*
X6886524Y-34278476D01*
X6867476Y-34278476D01*
X6848428Y-34268952D01*
X6838905Y-34259429D01*
X6829381Y-34240381D01*
X6819857Y-34202286D01*
X6819857Y-34154667D01*
X6829381Y-34116571D01*
X6838905Y-34097524D01*
X6848428Y-34088000D01*
X6867476Y-34078476D01*
X7019857Y-34259429D02*
X7029381Y-34268952D01*
X7019857Y-34278476D01*
X7010333Y-34268952D01*
X7019857Y-34259429D01*
X7019857Y-34278476D01*
X7153190Y-34078476D02*
X7172238Y-34078476D01*
X7191286Y-34088000D01*
X7200809Y-34097524D01*
X7210333Y-34116571D01*
X7219857Y-34154667D01*
X7219857Y-34202286D01*
X7210333Y-34240381D01*
X7200809Y-34259429D01*
X7191286Y-34268952D01*
X7172238Y-34278476D01*
X7153190Y-34278476D01*
X7134143Y-34268952D01*
X7124619Y-34259429D01*
X7115095Y-34240381D01*
X7105571Y-34202286D01*
X7105571Y-34154667D01*
X7115095Y-34116571D01*
X7124619Y-34097524D01*
X7134143Y-34088000D01*
X7153190Y-34078476D01*
X7400809Y-34078476D02*
X7305571Y-34078476D01*
X7296048Y-34173714D01*
X7305571Y-34164190D01*
X7324619Y-34154667D01*
X7372238Y-34154667D01*
X7391286Y-34164190D01*
X7400809Y-34173714D01*
X7410333Y-34192762D01*
X7410333Y-34240381D01*
X7400809Y-34259429D01*
X7391286Y-34268952D01*
X7372238Y-34278476D01*
X7324619Y-34278476D01*
X7305571Y-34268952D01*
X7296048Y-34259429D01*
X7505571Y-34278476D02*
X7543667Y-34278476D01*
X7562714Y-34268952D01*
X7572238Y-34259429D01*
X7591286Y-34230857D01*
X7600809Y-34192762D01*
X7600809Y-34116571D01*
X7591286Y-34097524D01*
X7581762Y-34088000D01*
X7562714Y-34078476D01*
X7524619Y-34078476D01*
X7505571Y-34088000D01*
X7496048Y-34097524D01*
X7486524Y-34116571D01*
X7486524Y-34164190D01*
X7496048Y-34183238D01*
X7505571Y-34192762D01*
X7524619Y-34202286D01*
X7562714Y-34202286D01*
X7581762Y-34192762D01*
X7591286Y-34183238D01*
X7600809Y-34164190D01*
X7791286Y-34278476D02*
X7677000Y-34278476D01*
X7734143Y-34278476D02*
X7734143Y-34078476D01*
X7715095Y-34107048D01*
X7696048Y-34126095D01*
X7677000Y-34135619D01*
X7867476Y-34078476D02*
X7867476Y-34116571D01*
X7943667Y-34078476D02*
X7943667Y-34116571D01*
X8238905Y-34354667D02*
X8229381Y-34345143D01*
X8210333Y-34316571D01*
X8200809Y-34297524D01*
X8191286Y-34268952D01*
X8181762Y-34221333D01*
X8181762Y-34183238D01*
X8191286Y-34135619D01*
X8200809Y-34107048D01*
X8210333Y-34088000D01*
X8229381Y-34059429D01*
X8238905Y-34049905D01*
X8400810Y-34145143D02*
X8400810Y-34278476D01*
X8353190Y-34068952D02*
X8305571Y-34211810D01*
X8429381Y-34211810D01*
X8657952Y-34278476D02*
X8657952Y-34078476D01*
X8743667Y-34278476D02*
X8743667Y-34173714D01*
X8734143Y-34154667D01*
X8715095Y-34145143D01*
X8686524Y-34145143D01*
X8667476Y-34154667D01*
X8657952Y-34164190D01*
X8867476Y-34278476D02*
X8848429Y-34268952D01*
X8838905Y-34259429D01*
X8829381Y-34240381D01*
X8829381Y-34183238D01*
X8838905Y-34164190D01*
X8848429Y-34154667D01*
X8867476Y-34145143D01*
X8896048Y-34145143D01*
X8915095Y-34154667D01*
X8924619Y-34164190D01*
X8934143Y-34183238D01*
X8934143Y-34240381D01*
X8924619Y-34259429D01*
X8915095Y-34268952D01*
X8896048Y-34278476D01*
X8867476Y-34278476D01*
X9048429Y-34278476D02*
X9029381Y-34268952D01*
X9019857Y-34249905D01*
X9019857Y-34078476D01*
X9200810Y-34268952D02*
X9181762Y-34278476D01*
X9143667Y-34278476D01*
X9124619Y-34268952D01*
X9115095Y-34249905D01*
X9115095Y-34173714D01*
X9124619Y-34154667D01*
X9143667Y-34145143D01*
X9181762Y-34145143D01*
X9200810Y-34154667D01*
X9210333Y-34173714D01*
X9210333Y-34192762D01*
X9115095Y-34211810D01*
X9286524Y-34268952D02*
X9305571Y-34278476D01*
X9343667Y-34278476D01*
X9362714Y-34268952D01*
X9372238Y-34249905D01*
X9372238Y-34240381D01*
X9362714Y-34221333D01*
X9343667Y-34211810D01*
X9315095Y-34211810D01*
X9296048Y-34202286D01*
X9286524Y-34183238D01*
X9286524Y-34173714D01*
X9296048Y-34154667D01*
X9315095Y-34145143D01*
X9343667Y-34145143D01*
X9362714Y-34154667D01*
X9438905Y-34354667D02*
X9448429Y-34345143D01*
X9467476Y-34316571D01*
X9477000Y-34297524D01*
X9486524Y-34268952D01*
X9496048Y-34221333D01*
X9496048Y-34183238D01*
X9486524Y-34135619D01*
X9477000Y-34107048D01*
X9467476Y-34088000D01*
X9448429Y-34059429D01*
X9438905Y-34049905D01*
M02*
