%TF.GenerationSoftware,KiCad,Pcbnew,(6.0.8-1)-1*%
%TF.CreationDate,2024-05-09T21:57:39-04:00*%
%TF.ProjectId,Untitled,556e7469-746c-4656-942e-6b696361645f,rev?*%
%TF.SameCoordinates,Original*%
%TF.FileFunction,Copper,L2,Bot*%
%TF.FilePolarity,Positive*%
%FSLAX46Y46*%
G04 Gerber Fmt 4.6, Leading zero omitted, Abs format (unit mm)*
G04 Created by KiCad (PCBNEW (6.0.8-1)-1) date 2024-05-09 21:57:39*
%MOMM*%
%LPD*%
G01*
G04 APERTURE LIST*
%TA.AperFunction,ComponentPad*%
%ADD10R,1.397000X1.397000*%
%TD*%
%TA.AperFunction,ComponentPad*%
%ADD11C,1.397000*%
%TD*%
%TA.AperFunction,ComponentPad*%
%ADD12R,3.500000X3.500000*%
%TD*%
%TA.AperFunction,ComponentPad*%
%ADD13C,4.000000*%
%TD*%
%TA.AperFunction,ViaPad*%
%ADD14C,0.800000*%
%TD*%
%TA.AperFunction,Conductor*%
%ADD15C,0.250000*%
%TD*%
%TA.AperFunction,Conductor*%
%ADD16C,0.200000*%
%TD*%
G04 APERTURE END LIST*
D10*
%TO.P,REF\u002A\u002A,1*%
%TO.N,N/C*%
X59500100Y-241237500D03*
D11*
%TO.P,REF\u002A\u002A,2*%
X59500100Y-238697500D03*
%TO.P,REF\u002A\u002A,3*%
X59500100Y-236157500D03*
%TD*%
D10*
%TO.P,REF\u002A\u002A,1*%
%TO.N,N/C*%
X59400100Y-186737500D03*
D11*
%TO.P,REF\u002A\u002A,2*%
X59400100Y-184197500D03*
%TO.P,REF\u002A\u002A,3*%
X59400100Y-181657500D03*
%TD*%
D12*
%TO.P,LEDs,1*%
%TO.N,N/C*%
X55387500Y-314087500D03*
D13*
%TO.P,LEDs,2*%
X60412500Y-319112500D03*
X60412500Y-309062500D03*
X50362500Y-319112500D03*
X50362500Y-309062500D03*
%TD*%
D10*
%TO.P,REF\u002A\u002A,1*%
%TO.N,N/C*%
X59350100Y-132087500D03*
D11*
%TO.P,REF\u002A\u002A,2*%
X59350100Y-129547500D03*
%TO.P,REF\u002A\u002A,3*%
X59350100Y-127007500D03*
%TD*%
D10*
%TO.P,REF\u002A\u002A,1*%
%TO.N,N/C*%
X59500100Y-204977500D03*
D11*
%TO.P,REF\u002A\u002A,2*%
X59500100Y-202437500D03*
%TO.P,REF\u002A\u002A,3*%
X59500100Y-199897500D03*
%TD*%
D10*
%TO.P,REF\u002A\u002A,1*%
%TO.N,N/C*%
X59350100Y-113827500D03*
D11*
%TO.P,REF\u002A\u002A,2*%
X59350100Y-111287500D03*
%TO.P,REF\u002A\u002A,3*%
X59350100Y-108747500D03*
%TD*%
D10*
%TO.P,REF\u002A\u002A,1*%
%TO.N,N/C*%
X59250100Y-41127500D03*
D11*
%TO.P,REF\u002A\u002A,2*%
X59250100Y-38587500D03*
%TO.P,REF\u002A\u002A,3*%
X59250100Y-36047500D03*
%TD*%
D10*
%TO.P,REF\u002A\u002A,1*%
%TO.N,N/C*%
X59350100Y-150087500D03*
D11*
%TO.P,REF\u002A\u002A,2*%
X59350100Y-147547500D03*
%TO.P,REF\u002A\u002A,3*%
X59350100Y-145007500D03*
%TD*%
D10*
%TO.P,REF\u002A\u002A,1*%
%TO.N,N/C*%
X59350100Y-168287500D03*
D11*
%TO.P,REF\u002A\u002A,2*%
X59350100Y-165747500D03*
%TO.P,REF\u002A\u002A,3*%
X59350100Y-163207500D03*
%TD*%
D10*
%TO.P,REF\u002A\u002A,1*%
%TO.N,N/C*%
X59250100Y-95587500D03*
D11*
%TO.P,REF\u002A\u002A,2*%
X59250100Y-93047500D03*
%TO.P,REF\u002A\u002A,3*%
X59250100Y-90507500D03*
%TD*%
D10*
%TO.P,REF\u002A\u002A,1*%
%TO.N,N/C*%
X59250100Y-77387500D03*
D11*
%TO.P,REF\u002A\u002A,2*%
X59250100Y-74847500D03*
%TO.P,REF\u002A\u002A,3*%
X59250100Y-72307500D03*
%TD*%
D10*
%TO.P,REF\u002A\u002A,1*%
%TO.N,N/C*%
X59250100Y-59387500D03*
D11*
%TO.P,REF\u002A\u002A,2*%
X59250100Y-56847500D03*
%TO.P,REF\u002A\u002A,3*%
X59250100Y-54307500D03*
%TD*%
D10*
%TO.P,REF\u002A\u002A,1*%
%TO.N,N/C*%
X59500100Y-223237500D03*
D11*
%TO.P,REF\u002A\u002A,2*%
X59500100Y-220697500D03*
%TO.P,REF\u002A\u002A,3*%
X59500100Y-218157500D03*
%TD*%
D10*
%TO.P,REF\u002A\u002A,1*%
%TO.N,N/C*%
X59500100Y-259437500D03*
D11*
%TO.P,REF\u002A\u002A,2*%
X59500100Y-256897500D03*
%TO.P,REF\u002A\u002A,3*%
X59500100Y-254357500D03*
%TD*%
D10*
%TO.P,REF\u002A\u002A,1*%
%TO.N,N/C*%
X59350100Y-172312500D03*
D11*
%TO.P,REF\u002A\u002A,2*%
X59350100Y-174852500D03*
%TO.P,REF\u002A\u002A,3*%
X59350100Y-177392500D03*
%TD*%
D10*
%TO.P,REF\u002A\u002A,1*%
%TO.N,N/C*%
X59250100Y-99612500D03*
D11*
%TO.P,REF\u002A\u002A,2*%
X59250100Y-102152500D03*
%TO.P,REF\u002A\u002A,3*%
X59250100Y-104692500D03*
%TD*%
D10*
%TO.P,REF\u002A\u002A,1*%
%TO.N,N/C*%
X59350100Y-135912500D03*
D11*
%TO.P,REF\u002A\u002A,2*%
X59350100Y-138452500D03*
%TO.P,REF\u002A\u002A,3*%
X59350100Y-140992500D03*
%TD*%
D10*
%TO.P,REF\u002A\u002A,1*%
%TO.N,N/C*%
X60437600Y-290100000D03*
D11*
%TO.P,REF\u002A\u002A,2*%
X60437600Y-292640000D03*
%TO.P,REF\u002A\u002A,3*%
X60437600Y-295180000D03*
%TD*%
D10*
%TO.P,REF\u002A\u002A,1*%
%TO.N,N/C*%
X59450000Y-245250000D03*
D11*
%TO.P,REF\u002A\u002A,2*%
X59450000Y-247790000D03*
%TO.P,REF\u002A\u002A,3*%
X59450000Y-250330000D03*
%TD*%
D10*
%TO.P,REF\u002A\u002A,1*%
%TO.N,N/C*%
X59250100Y-63212500D03*
D11*
%TO.P,REF\u002A\u002A,2*%
X59250100Y-65752500D03*
%TO.P,REF\u002A\u002A,3*%
X59250100Y-68292500D03*
%TD*%
D10*
%TO.P,REF\u002A\u002A,1*%
%TO.N,N/C*%
X59400100Y-190762500D03*
D11*
%TO.P,REF\u002A\u002A,2*%
X59400100Y-193302500D03*
%TO.P,REF\u002A\u002A,3*%
X59400100Y-195842500D03*
%TD*%
D10*
%TO.P,REF\u002A\u002A,1*%
%TO.N,N/C*%
X59200000Y-81400000D03*
D11*
%TO.P,REF\u002A\u002A,2*%
X59200000Y-83940000D03*
%TO.P,REF\u002A\u002A,3*%
X59200000Y-86480000D03*
%TD*%
D10*
%TO.P,REF\u002A\u002A,1*%
%TO.N,N/C*%
X59350100Y-117912500D03*
D11*
%TO.P,REF\u002A\u002A,2*%
X59350100Y-120452500D03*
%TO.P,REF\u002A\u002A,3*%
X59350100Y-122992500D03*
%TD*%
D10*
%TO.P,REF\u002A\u002A,1*%
%TO.N,N/C*%
X59500100Y-227062500D03*
D11*
%TO.P,REF\u002A\u002A,2*%
X59500100Y-229602500D03*
%TO.P,REF\u002A\u002A,3*%
X59500100Y-232142500D03*
%TD*%
D10*
%TO.P,REF\u002A\u002A,1*%
%TO.N,N/C*%
X59500100Y-209062500D03*
D11*
%TO.P,REF\u002A\u002A,2*%
X59500100Y-211602500D03*
%TO.P,REF\u002A\u002A,3*%
X59500100Y-214142500D03*
%TD*%
D10*
%TO.P,REF\u002A\u002A,1*%
%TO.N,N/C*%
X59300000Y-154100000D03*
D11*
%TO.P,REF\u002A\u002A,2*%
X59300000Y-156640000D03*
%TO.P,REF\u002A\u002A,3*%
X59300000Y-159180000D03*
%TD*%
D10*
%TO.P,REF\u002A\u002A,1*%
%TO.N,N/C*%
X59250100Y-45212500D03*
D11*
%TO.P,REF\u002A\u002A,2*%
X59250100Y-47752500D03*
%TO.P,REF\u002A\u002A,3*%
X59250100Y-50292500D03*
%TD*%
D14*
%TO.N,*%
X70000000Y-54300000D03*
X178130000Y-286600000D03*
X71500000Y-168500000D03*
X70200000Y-59100000D03*
X271830000Y-142100000D03*
X275930000Y-139700000D03*
X178230000Y-191100000D03*
X67800000Y-168900000D03*
X66150000Y-245250000D03*
X228130000Y-235300000D03*
X323730000Y-91900000D03*
X176430000Y-187600000D03*
X228130000Y-91900000D03*
X128430000Y-190000000D03*
X224030000Y-142100000D03*
X70300000Y-131800000D03*
X225930000Y-286600000D03*
X128430000Y-237700000D03*
X72400000Y-96200000D03*
X69050000Y-241250000D03*
X67112500Y-63212500D03*
X319830000Y-283200000D03*
X128630000Y-235400000D03*
X72300000Y-127300000D03*
X69950000Y-200450000D03*
X271730000Y-190000000D03*
X66000000Y-154100000D03*
X319630000Y-285500000D03*
X72400000Y-259500000D03*
X132530000Y-187500000D03*
X178130000Y-95400000D03*
X224230000Y-139800000D03*
X72400000Y-308200000D03*
X178230000Y-143200000D03*
X128630000Y-187600000D03*
X128630000Y-283200000D03*
X67362500Y-227062500D03*
X70850000Y-261850000D03*
X272030000Y-139800000D03*
X321530000Y-286500000D03*
X67212500Y-135912500D03*
X128430000Y-94400000D03*
X176430000Y-139800000D03*
X176230000Y-285600000D03*
X223930000Y-285600000D03*
X71800000Y-241237500D03*
X128430000Y-142100000D03*
X224230000Y-235400000D03*
X272030000Y-235400000D03*
X176130000Y-94300000D03*
X71500000Y-186700000D03*
X66100000Y-41637506D03*
X130430000Y-143200000D03*
X130430000Y-191000000D03*
X176430000Y-92000000D03*
X132530000Y-91900000D03*
X226030000Y-191000000D03*
X224230000Y-92000000D03*
X323730000Y-283100000D03*
X319830000Y-187600000D03*
X70800000Y-193600000D03*
X271730000Y-94300000D03*
X176430000Y-283200000D03*
X321530000Y-191100000D03*
X65900000Y-81400000D03*
X67887500Y-291437500D03*
X130430000Y-95500000D03*
X323730000Y-235300000D03*
X272030000Y-187600000D03*
X180330000Y-283100000D03*
X70100000Y-38000000D03*
X69800000Y-109300000D03*
X67887500Y-293637500D03*
X132530000Y-283100000D03*
X67862500Y-209062500D03*
X69950000Y-256550000D03*
X130330000Y-286600000D03*
X69700000Y-92700000D03*
X225930000Y-143200000D03*
X319530000Y-237700000D03*
X72900000Y-75700000D03*
X68800000Y-77400000D03*
X273730000Y-286600000D03*
X275930000Y-283100000D03*
X65937500Y-292587500D03*
X271730000Y-237800000D03*
X223930000Y-237700000D03*
X176130000Y-237700000D03*
X223930000Y-189900000D03*
X70250000Y-218150000D03*
X69700000Y-36600000D03*
X67612500Y-45212500D03*
X72200000Y-318000000D03*
X228130000Y-139700000D03*
X176230000Y-142200000D03*
X319830000Y-92000000D03*
X178230000Y-238800000D03*
X319530000Y-94300000D03*
X72400000Y-204100000D03*
X323730000Y-139700000D03*
X180330000Y-235300000D03*
X180330000Y-91900000D03*
X176430000Y-235400000D03*
X321530000Y-95400000D03*
X65300000Y-75500000D03*
X226030000Y-95400000D03*
X128330000Y-285500000D03*
X132530000Y-139700000D03*
X176030000Y-190000000D03*
X323730000Y-187500000D03*
X69100000Y-112600000D03*
X273830000Y-95400000D03*
X128630000Y-139800000D03*
X275930000Y-91900000D03*
X275930000Y-235300000D03*
X70600000Y-98000000D03*
X72700000Y-185500000D03*
X321730000Y-238800000D03*
X72900000Y-238200000D03*
X67712500Y-117912500D03*
X70000000Y-101000000D03*
X68900000Y-150100000D03*
X130330000Y-238900000D03*
X69050000Y-236450000D03*
X71300000Y-147600000D03*
X180330000Y-187500000D03*
X180330000Y-139700000D03*
X72100000Y-56800000D03*
X319830000Y-139800000D03*
X272030000Y-92000000D03*
X228130000Y-283100000D03*
X132530000Y-235300000D03*
X273730000Y-238900000D03*
X224230000Y-283200000D03*
X226030000Y-238800000D03*
X66200000Y-114337506D03*
X68100000Y-161800000D03*
X275930000Y-187500000D03*
X128630000Y-92000000D03*
X271830000Y-285600000D03*
X228130000Y-187500000D03*
X66350000Y-205487506D03*
X319530000Y-190000000D03*
X70100000Y-173700000D03*
X272030000Y-283200000D03*
X273730000Y-191000000D03*
X224230000Y-187600000D03*
X70450000Y-222950000D03*
X71500000Y-219900000D03*
X68900000Y-145300000D03*
X223930000Y-94400000D03*
X319530000Y-142100000D03*
X69850000Y-183850000D03*
X321530000Y-143300000D03*
X319830000Y-235400000D03*
X273830000Y-143200000D03*
X70100000Y-127000000D03*
%TD*%
D15*
%TO.N,*%
X128430000Y-91800000D02*
X128630000Y-92000000D01*
D16*
X55800000Y-82200000D02*
X55800000Y-81200000D01*
D15*
X52200000Y-146000000D02*
X52200000Y-147750000D01*
X67100000Y-112000000D02*
X67100000Y-113437506D01*
X81210000Y-112310000D02*
X81210000Y-111390000D01*
X72400000Y-96200000D02*
X78300000Y-96200000D01*
X78700000Y-76600000D02*
X80900000Y-78800000D01*
D16*
X169930000Y-194500000D02*
X170030000Y-194500000D01*
D15*
X125400000Y-153300000D02*
X122200000Y-153300000D01*
D16*
X57600000Y-97900000D02*
X69000000Y-97900000D01*
D15*
X92200000Y-72200000D02*
X92200000Y-76970000D01*
D16*
X132530000Y-187500000D02*
X176330000Y-187500000D01*
D15*
X52200000Y-147750000D02*
X54725000Y-150275000D01*
X59200000Y-86480000D02*
X57480000Y-86480000D01*
D16*
X99515000Y-116115000D02*
X125500000Y-142100000D01*
D15*
X56100000Y-177300000D02*
X56192500Y-177392500D01*
D16*
X77137500Y-241237500D02*
X77137500Y-250207500D01*
D15*
X67800000Y-168400000D02*
X68100000Y-168100000D01*
X51800000Y-291400000D02*
X51800000Y-264700000D01*
D16*
X224130000Y-139700000D02*
X224230000Y-139800000D01*
X59300000Y-156640000D02*
X57640000Y-156640000D01*
D15*
X87700000Y-178200000D02*
X78000000Y-168500000D01*
D16*
X292430000Y-220200000D02*
X118900000Y-220200000D01*
X99515000Y-108115000D02*
X99515000Y-116115000D01*
X70100000Y-114200000D02*
X70230000Y-114330000D01*
D15*
X66200000Y-114337506D02*
X69962494Y-114337506D01*
D16*
X60437600Y-290100000D02*
X64175000Y-290100000D01*
X68100000Y-81400000D02*
X98415000Y-111715000D01*
D15*
X129830000Y-220600000D02*
X128630000Y-221800000D01*
X103165000Y-160165000D02*
X103165000Y-168435000D01*
X87700000Y-184400000D02*
X87700000Y-178200000D01*
X52350000Y-237150000D02*
X51850000Y-236650000D01*
D16*
X114730000Y-256600000D02*
X303930000Y-256600000D01*
D15*
X69950000Y-200450000D02*
X67250000Y-203150000D01*
D16*
X96415000Y-205285000D02*
X128430000Y-237300000D01*
X228130000Y-139700000D02*
X271930000Y-139700000D01*
X74750000Y-192650000D02*
X73900000Y-191800000D01*
D15*
X51600000Y-39490000D02*
X54532494Y-36557506D01*
X69950000Y-256550000D02*
X69950000Y-258950000D01*
X87430000Y-243800000D02*
X87430000Y-226030000D01*
D16*
X271930000Y-91900000D02*
X272030000Y-92000000D01*
X68462500Y-209062500D02*
X73150000Y-213750000D01*
X171730000Y-286600000D02*
X178130000Y-286600000D01*
X262130000Y-154900000D02*
X126200000Y-154900000D01*
X305980000Y-158850000D02*
X321530000Y-143300000D01*
D15*
X117150000Y-156850000D02*
X122050000Y-156850000D01*
X55192500Y-163207500D02*
X54300000Y-164100000D01*
X53700000Y-155300000D02*
X53700000Y-151300000D01*
D16*
X180330000Y-283100000D02*
X224130000Y-283100000D01*
D15*
X127230000Y-96400000D02*
X115430000Y-84600000D01*
D16*
X93000000Y-62300000D02*
X93000000Y-71270000D01*
D15*
X68800000Y-77400000D02*
X67200000Y-77400000D01*
D16*
X57207500Y-122992500D02*
X56300000Y-123900000D01*
X57500000Y-134400000D02*
X57600000Y-134300000D01*
X56450000Y-215050000D02*
X55450000Y-216050000D01*
X57750000Y-225450000D02*
X73450000Y-225450000D01*
D15*
X303530000Y-125000000D02*
X129830000Y-125000000D01*
X57580000Y-159180000D02*
X53700000Y-155300000D01*
D16*
X95680000Y-234850000D02*
X95680000Y-225880000D01*
D15*
X128630000Y-174000000D02*
X128630000Y-187600000D01*
X57300000Y-43700000D02*
X74000000Y-43700000D01*
D16*
X123700000Y-250900000D02*
X261730000Y-250900000D01*
D15*
X54350000Y-189550000D02*
X56350000Y-191550000D01*
D16*
X60437600Y-292640000D02*
X61190100Y-291887500D01*
X80850000Y-213750000D02*
X94300000Y-227200000D01*
X59350100Y-122992500D02*
X57207500Y-122992500D01*
D15*
X72200000Y-318000000D02*
X73900000Y-316300000D01*
X117430000Y-102200000D02*
X147730000Y-102200000D01*
D16*
X109930000Y-183100000D02*
X109930000Y-180430000D01*
D15*
X69800000Y-109300000D02*
X67100000Y-112000000D01*
D16*
X79700000Y-162300000D02*
X95165000Y-177765000D01*
X86930000Y-247700000D02*
X85800000Y-247700000D01*
X70100000Y-173700000D02*
X72300000Y-175900000D01*
X87600000Y-81000000D02*
X92100000Y-85500000D01*
D15*
X149430000Y-64000000D02*
X128430000Y-85000000D01*
X74300000Y-189400000D02*
X75400000Y-189400000D01*
X113630000Y-84600000D02*
X111000000Y-81970000D01*
D16*
X73000000Y-122600000D02*
X68312500Y-117912500D01*
D15*
X56350000Y-191550000D02*
X56350000Y-195550000D01*
D16*
X91300000Y-219400000D02*
X91300000Y-218900000D01*
D15*
X86450000Y-246850000D02*
X88280000Y-246850000D01*
D16*
X94100000Y-164600000D02*
X94100000Y-161500000D01*
D15*
X69050000Y-241250000D02*
X69050000Y-236450000D01*
D16*
X176330000Y-91900000D02*
X176430000Y-92000000D01*
X67400000Y-191800000D02*
X64650000Y-189050000D01*
X57307500Y-54307500D02*
X59250100Y-54307500D01*
X224230000Y-238800000D02*
X226030000Y-238800000D01*
D15*
X89050000Y-68150000D02*
X80000000Y-59100000D01*
D16*
X95400000Y-159200000D02*
X94700000Y-159200000D01*
D15*
X128500000Y-242000000D02*
X172930000Y-242000000D01*
X122700000Y-145800000D02*
X175530000Y-145800000D01*
D16*
X271930000Y-283100000D02*
X272030000Y-283200000D01*
X224130000Y-283100000D02*
X224230000Y-283200000D01*
D15*
X323730000Y-235300000D02*
X324830000Y-236400000D01*
X72250000Y-210950000D02*
X80250000Y-210950000D01*
D16*
X256930000Y-109100000D02*
X271730000Y-94300000D01*
D15*
X70000000Y-54300000D02*
X70000000Y-58900000D01*
X318415000Y-312615000D02*
X318030000Y-313000000D01*
X324830000Y-188600000D02*
X324830000Y-199300000D01*
D16*
X85800000Y-247700000D02*
X83800000Y-245700000D01*
D15*
X67250000Y-204587506D02*
X66350000Y-205487506D01*
X59300000Y-159180000D02*
X57580000Y-159180000D01*
X130430000Y-95500000D02*
X129530000Y-96400000D01*
D16*
X97900000Y-123600000D02*
X90800000Y-116500000D01*
D15*
X81000000Y-151500000D02*
X79587500Y-150087500D01*
D16*
X82000000Y-108500000D02*
X82000000Y-109300000D01*
X247530000Y-217200000D02*
X122330000Y-217200000D01*
X273730000Y-286600000D02*
X256830000Y-303500000D01*
X319730000Y-187500000D02*
X319830000Y-187600000D01*
X91442500Y-87112500D02*
X91442500Y-86142500D01*
D15*
X67100000Y-113437506D02*
X66200000Y-114337506D01*
D16*
X130200000Y-301200000D02*
X126500000Y-301200000D01*
D15*
X89300000Y-63300000D02*
X89300000Y-64100000D01*
D16*
X121930000Y-214800000D02*
X246930000Y-214800000D01*
X70100000Y-77400000D02*
X70900000Y-76600000D01*
X120850000Y-158850000D02*
X116950000Y-158850000D01*
X175430000Y-191100000D02*
X170230000Y-196300000D01*
X180330000Y-187500000D02*
X224130000Y-187500000D01*
X57407500Y-127007500D02*
X59350100Y-127007500D01*
X300630000Y-116900000D02*
X111800000Y-116900000D01*
D15*
X54020000Y-144420000D02*
X52261068Y-146178932D01*
D16*
X93100000Y-177600000D02*
X77800000Y-162300000D01*
X56300000Y-123900000D02*
X55300000Y-124900000D01*
X228130000Y-91900000D02*
X271930000Y-91900000D01*
D15*
X91400000Y-205200000D02*
X92500000Y-206300000D01*
X80100000Y-119800000D02*
X117150000Y-156850000D01*
D16*
X275930000Y-187500000D02*
X319730000Y-187500000D01*
D15*
X98700000Y-60700000D02*
X79630000Y-41630000D01*
D16*
X319730000Y-91900000D02*
X319830000Y-92000000D01*
D15*
X70850000Y-261850000D02*
X75250000Y-261850000D01*
X52400000Y-237200000D02*
X52350000Y-237150000D01*
D16*
X170230000Y-196300000D02*
X123130000Y-196300000D01*
X126680000Y-287450000D02*
X129230000Y-290000000D01*
X180330000Y-91900000D02*
X224130000Y-91900000D01*
X57557500Y-218157500D02*
X59500100Y-218157500D01*
D15*
X59500100Y-254357500D02*
X55342500Y-254357500D01*
X59250100Y-47752500D02*
X57300000Y-45802400D01*
X51850000Y-203340000D02*
X54782494Y-200407506D01*
X56000000Y-104600000D02*
X56092500Y-104692500D01*
X54507500Y-72307500D02*
X59250100Y-72307500D01*
D16*
X319730000Y-235300000D02*
X319830000Y-235400000D01*
D15*
X70600000Y-96000000D02*
X70600000Y-98000000D01*
X52350000Y-238900000D02*
X54875000Y-241425000D01*
D16*
X61190100Y-291887500D02*
X63787500Y-291887500D01*
X69100000Y-170600000D02*
X57700000Y-170600000D01*
D15*
X51600000Y-72800000D02*
X51600000Y-47800000D01*
D16*
X59200000Y-83940000D02*
X57540000Y-83940000D01*
X98800000Y-200200000D02*
X118800000Y-220200000D01*
X132530000Y-283100000D02*
X176330000Y-283100000D01*
X271930000Y-139700000D02*
X272030000Y-139800000D01*
X226030000Y-191000000D02*
X226030000Y-193300000D01*
X68800000Y-77400000D02*
X70100000Y-77400000D01*
D15*
X57550000Y-207550000D02*
X68850000Y-207550000D01*
D16*
X258130000Y-111100000D02*
X115430000Y-111100000D01*
D15*
X51850000Y-236650000D02*
X51850000Y-211650000D01*
D16*
X123000000Y-151700000D02*
X126300000Y-151700000D01*
X170030000Y-285600000D02*
X176230000Y-285600000D01*
D15*
X54982500Y-234757500D02*
X54170000Y-235570000D01*
X71600000Y-186700000D02*
X74300000Y-189400000D01*
D16*
X95465000Y-196865000D02*
X95465000Y-206335000D01*
X57650000Y-225550000D02*
X57750000Y-225450000D01*
X76500000Y-49900000D02*
X80600000Y-49900000D01*
D15*
X53850000Y-242450000D02*
X54875000Y-241425000D01*
X122130000Y-98200000D02*
X172430000Y-98200000D01*
X329630000Y-289000000D02*
X323730000Y-283100000D01*
X122200000Y-153300000D02*
X81210000Y-112310000D01*
X56350000Y-195550000D02*
X56150000Y-195750000D01*
X334830000Y-64000000D02*
X149430000Y-64000000D01*
D16*
X86500000Y-71900000D02*
X77812500Y-63212500D01*
D15*
X67800000Y-168900000D02*
X69900000Y-168900000D01*
D16*
X82300000Y-246770000D02*
X127330000Y-291800000D01*
D15*
X52100000Y-73300000D02*
X52100000Y-75050000D01*
X59450000Y-250330000D02*
X57730000Y-250330000D01*
X128630000Y-221800000D02*
X128630000Y-235400000D01*
X103165000Y-168435000D02*
X125730000Y-191000000D01*
X56300000Y-173100000D02*
X56300000Y-177100000D01*
D16*
X126300000Y-151700000D02*
X225930000Y-151700000D01*
X321530000Y-286500000D02*
X321530000Y-289400000D01*
X59250100Y-65752500D02*
X57400000Y-63902400D01*
D15*
X81300000Y-219900000D02*
X71500000Y-219900000D01*
X70100000Y-131600000D02*
X70300000Y-131800000D01*
X81675000Y-308200000D02*
X72400000Y-308200000D01*
X68912500Y-150087500D02*
X68900000Y-150100000D01*
X125400000Y-153300000D02*
X260630000Y-153300000D01*
X115430000Y-84600000D02*
X113630000Y-84600000D01*
X86250000Y-109250000D02*
X86250000Y-111950000D01*
D16*
X126630000Y-287400000D02*
X86930000Y-247700000D01*
D15*
X54350000Y-182550000D02*
X54350000Y-189550000D01*
X80900000Y-78800000D02*
X80900000Y-86800000D01*
D16*
X57400000Y-63902400D02*
X57400000Y-61700000D01*
D15*
X129530000Y-96400000D02*
X127230000Y-96400000D01*
D16*
X273730000Y-191000000D02*
X247530000Y-217200000D01*
D15*
X126930000Y-94400000D02*
X128430000Y-94400000D01*
D16*
X82300000Y-237800000D02*
X82300000Y-246770000D01*
X85500000Y-204900000D02*
X85500000Y-201000000D01*
D15*
X98930000Y-97330000D02*
X98930000Y-98400000D01*
X260730000Y-248800000D02*
X271730000Y-237800000D01*
X124100000Y-248800000D02*
X126900000Y-248800000D01*
X54020000Y-144420000D02*
X54607500Y-145007500D01*
X52200000Y-146000000D02*
X51700000Y-145500000D01*
D16*
X83800000Y-245700000D02*
X83800000Y-235800000D01*
D15*
X128330000Y-284700000D02*
X87430000Y-243800000D01*
X95500000Y-118600000D02*
X122700000Y-145800000D01*
X73960000Y-202540000D02*
X80540000Y-202540000D01*
X70300000Y-131800000D02*
X77200000Y-131800000D01*
D16*
X56050000Y-246050000D02*
X57790000Y-247790000D01*
X132530000Y-235300000D02*
X176330000Y-235300000D01*
D15*
X94930000Y-71000000D02*
X94930000Y-62030000D01*
D16*
X215930000Y-246900000D02*
X216030000Y-247000000D01*
D15*
X59400100Y-209699900D02*
X59375000Y-209725000D01*
X54832500Y-143607500D02*
X54020000Y-144420000D01*
D16*
X74600000Y-174700000D02*
X74600000Y-174500000D01*
D15*
X72040000Y-40000000D02*
X73670000Y-41630000D01*
X68900000Y-150100000D02*
X68900000Y-145300000D01*
D16*
X56450000Y-215050000D02*
X55250000Y-215050000D01*
X98415000Y-117815000D02*
X123800000Y-143200000D01*
X128430000Y-237300000D02*
X128430000Y-237700000D01*
X55300000Y-124900000D02*
X57407500Y-127007500D01*
D15*
X299730000Y-114100000D02*
X319530000Y-94300000D01*
X94630000Y-166830000D02*
X83900000Y-156100000D01*
D16*
X125900000Y-246900000D02*
X215930000Y-246900000D01*
D15*
X226030000Y-95400000D02*
X216030000Y-105400000D01*
D16*
X223930000Y-189900000D02*
X212430000Y-201400000D01*
X57750000Y-189050000D02*
X57750000Y-191652400D01*
X173130000Y-243900000D02*
X126000000Y-243900000D01*
D15*
X57400000Y-118502400D02*
X57400000Y-116400000D01*
D16*
X178230000Y-191100000D02*
X175430000Y-191100000D01*
D15*
X69962494Y-114337506D02*
X70100000Y-114200000D01*
D16*
X273830000Y-95400000D02*
X258130000Y-111100000D01*
X95930000Y-183400000D02*
X95930000Y-175530000D01*
X123800000Y-143200000D02*
X130430000Y-143200000D01*
X93100000Y-187970000D02*
X93100000Y-177600000D01*
X87600000Y-70200000D02*
X87600000Y-81000000D01*
X71812500Y-45212500D02*
X76500000Y-49900000D01*
X77137500Y-250207500D02*
X123930000Y-297000000D01*
X74650000Y-194350000D02*
X84600000Y-204300000D01*
X95900000Y-159700000D02*
X95400000Y-159200000D01*
X72350000Y-194350000D02*
X74650000Y-194350000D01*
D15*
X51600000Y-47800000D02*
X51600000Y-39490000D01*
D16*
X125700000Y-245100000D02*
X85500000Y-204900000D01*
X96415000Y-205285000D02*
X96415000Y-196515000D01*
X178230000Y-145800000D02*
X176530000Y-147500000D01*
X126000000Y-243900000D02*
X86400000Y-204300000D01*
X77812500Y-63212500D02*
X67112500Y-63212500D01*
D15*
X83900000Y-156100000D02*
X83900000Y-150800000D01*
X54300000Y-164100000D02*
X54300000Y-171100000D01*
X80000000Y-59100000D02*
X70200000Y-59100000D01*
D16*
X67362500Y-227062500D02*
X71562500Y-227062500D01*
D15*
X51800000Y-264700000D02*
X54450000Y-262050000D01*
D16*
X126830000Y-301200000D02*
X130200000Y-301200000D01*
X132530000Y-91900000D02*
X176330000Y-91900000D01*
D15*
X70100000Y-38000000D02*
X70800000Y-37300000D01*
D16*
X186230000Y-102200000D02*
X147730000Y-102200000D01*
D15*
X101100000Y-60700000D02*
X98700000Y-60700000D01*
X303530000Y-220600000D02*
X129830000Y-220600000D01*
X77100000Y-127300000D02*
X88950000Y-139150000D01*
D16*
X81000000Y-160600000D02*
X81000000Y-159200000D01*
X289830000Y-237700000D02*
X273530000Y-254000000D01*
X141000000Y-303500000D02*
X140500000Y-304000000D01*
D15*
X94930000Y-71000000D02*
X122130000Y-98200000D01*
X70850000Y-259850000D02*
X70850000Y-261850000D01*
D16*
X59250100Y-104692500D02*
X59250100Y-108647500D01*
D15*
X180730000Y-139500000D02*
X180630000Y-139600000D01*
X57400000Y-116400000D02*
X68700000Y-116400000D01*
D16*
X56300000Y-123900000D02*
X55100000Y-123900000D01*
D15*
X57480000Y-86480000D02*
X53600000Y-82600000D01*
D16*
X79700000Y-155700000D02*
X79700000Y-162300000D01*
D15*
X54732500Y-70907500D02*
X57347500Y-68292500D01*
D16*
X57600000Y-134300000D02*
X73400000Y-134300000D01*
X109930000Y-180430000D02*
X94100000Y-164600000D01*
X58250000Y-242850000D02*
X56050000Y-245050000D01*
X56050000Y-245050000D02*
X56050000Y-246050000D01*
X121900000Y-147500000D02*
X98000000Y-123600000D01*
D15*
X95500000Y-113400000D02*
X78300000Y-96200000D01*
X101265000Y-200735000D02*
X101265000Y-197965000D01*
X70000000Y-58900000D02*
X70200000Y-59100000D01*
D16*
X57790000Y-247790000D02*
X59450000Y-247790000D01*
X71600000Y-193600000D02*
X72350000Y-194350000D01*
D15*
X69700000Y-36600000D02*
X67000000Y-39300000D01*
X70600000Y-98000000D02*
X75000000Y-98000000D01*
X323730000Y-139700000D02*
X324830000Y-140800000D01*
D16*
X246930000Y-214800000D02*
X271730000Y-190000000D01*
D15*
X95500000Y-118600000D02*
X95500000Y-113400000D01*
X79300000Y-238200000D02*
X72900000Y-238200000D01*
D16*
X73450000Y-225450000D02*
X73650000Y-225450000D01*
X173430000Y-100100000D02*
X178130000Y-95400000D01*
X180330000Y-139700000D02*
X224130000Y-139700000D01*
X95165000Y-188035000D02*
X121930000Y-214800000D01*
X84600000Y-205600000D02*
X125900000Y-246900000D01*
D15*
X112765000Y-68955000D02*
X81110000Y-37300000D01*
D16*
X86500000Y-81200000D02*
X86500000Y-71900000D01*
D15*
X56200000Y-100400000D02*
X56200000Y-104400000D01*
X72300000Y-127300000D02*
X77100000Y-127300000D01*
X70100000Y-127000000D02*
X70100000Y-131600000D01*
D16*
X74300000Y-101800000D02*
X74600000Y-101500000D01*
D15*
X81000000Y-159200000D02*
X81000000Y-151500000D01*
X216030000Y-105400000D02*
X116030000Y-105400000D01*
X59350100Y-191249900D02*
X59325000Y-191275000D01*
D16*
X176330000Y-235300000D02*
X176430000Y-235400000D01*
X256830000Y-303500000D02*
X141000000Y-303500000D01*
X59250100Y-108647500D02*
X59350100Y-108747500D01*
D15*
X52250000Y-146050000D02*
X52200000Y-146000000D01*
D16*
X64650000Y-189050000D02*
X57750000Y-189050000D01*
D15*
X319630000Y-285500000D02*
X298030000Y-307100000D01*
D16*
X120300000Y-154900000D02*
X126200000Y-154900000D01*
D15*
X86350000Y-184650000D02*
X90900000Y-189200000D01*
D16*
X69287500Y-290687500D02*
X69287500Y-293187500D01*
X68312500Y-117912500D02*
X67712500Y-117912500D01*
D15*
X77400000Y-47100000D02*
X80000000Y-47100000D01*
D16*
X67862500Y-209062500D02*
X68462500Y-209062500D01*
D15*
X89300000Y-64100000D02*
X91200000Y-66000000D01*
X70900000Y-76600000D02*
X78700000Y-76600000D01*
X54982500Y-234757500D02*
X57597500Y-232142500D01*
X119030000Y-218500000D02*
X291030000Y-218500000D01*
D16*
X223930000Y-94400000D02*
X194030000Y-94400000D01*
D15*
X78400000Y-52400000D02*
X89300000Y-63300000D01*
D16*
X74500000Y-175900000D02*
X95465000Y-196865000D01*
D15*
X54200000Y-91400000D02*
X54200000Y-98400000D01*
X303530000Y-172800000D02*
X129830000Y-172800000D01*
X74700000Y-187500000D02*
X80700000Y-187500000D01*
D16*
X57600000Y-100502400D02*
X57600000Y-97900000D01*
X72200000Y-103200000D02*
X74500000Y-103200000D01*
D15*
X54757500Y-236157500D02*
X59500100Y-236157500D01*
D16*
X216530000Y-245100000D02*
X125700000Y-245100000D01*
D15*
X80700000Y-187500000D02*
X91400000Y-198200000D01*
X101265000Y-200735000D02*
X119030000Y-218500000D01*
D16*
X223930000Y-237700000D02*
X216530000Y-245100000D01*
D15*
X324830000Y-151500000D02*
X303530000Y-172800000D01*
X73350000Y-222950000D02*
X85600000Y-235200000D01*
D16*
X95465000Y-206335000D02*
X128030000Y-238900000D01*
X85500000Y-201000000D02*
X77150000Y-192650000D01*
X59500100Y-229602500D02*
X57650000Y-227752400D01*
X75000000Y-101500000D02*
X82000000Y-108500000D01*
X178230000Y-143200000D02*
X178230000Y-145800000D01*
X73900000Y-191800000D02*
X67400000Y-191800000D01*
D15*
X75000000Y-170600000D02*
X86350000Y-181950000D01*
D16*
X123700000Y-250900000D02*
X122800000Y-250900000D01*
D15*
X51850000Y-211650000D02*
X51850000Y-203340000D01*
D16*
X271930000Y-187500000D02*
X272030000Y-187600000D01*
D15*
X53850000Y-246450000D02*
X53850000Y-242450000D01*
D16*
X57650000Y-227752400D02*
X57650000Y-225550000D01*
D15*
X104330000Y-165900000D02*
X128430000Y-190000000D01*
D16*
X129230000Y-290000000D02*
X165630000Y-290000000D01*
D15*
X124530000Y-201400000D02*
X94630000Y-171500000D01*
D16*
X214330000Y-297000000D02*
X224730000Y-286600000D01*
X176330000Y-187500000D02*
X176430000Y-187600000D01*
X114830000Y-254000000D02*
X95680000Y-234850000D01*
X273530000Y-254000000D02*
X114830000Y-254000000D01*
D15*
X339715000Y-68885000D02*
X339715000Y-295685000D01*
D16*
X93000000Y-71270000D02*
X120930000Y-99200000D01*
X95680000Y-225880000D02*
X80750000Y-210950000D01*
D15*
X75000000Y-98000000D02*
X86250000Y-109250000D01*
X69700000Y-92700000D02*
X69700000Y-95100000D01*
D16*
X59250100Y-102152500D02*
X57600000Y-100502400D01*
X226030000Y-193300000D02*
X215930000Y-203400000D01*
X55900000Y-153900000D02*
X58100000Y-151700000D01*
D15*
X215830000Y-293700000D02*
X125830000Y-293700000D01*
X59500100Y-250380100D02*
X59450000Y-250330000D01*
X83900000Y-150800000D02*
X80700000Y-147600000D01*
D16*
X86400000Y-204300000D02*
X86400000Y-200400000D01*
X59400100Y-199797500D02*
X59500100Y-199897500D01*
D15*
X59350100Y-120452500D02*
X57400000Y-118502400D01*
X67000000Y-39300000D02*
X67000000Y-40000000D01*
X88950000Y-139150000D02*
X89400000Y-139600000D01*
D16*
X275930000Y-139700000D02*
X319730000Y-139700000D01*
D15*
X54832500Y-143607500D02*
X57447500Y-140992500D01*
D16*
X98000000Y-123600000D02*
X97900000Y-123600000D01*
X56200000Y-51200000D02*
X55200000Y-52200000D01*
X57640000Y-156640000D02*
X55900000Y-154900000D01*
X92230000Y-85500000D02*
X115830000Y-109100000D01*
X174430000Y-190000000D02*
X176030000Y-190000000D01*
X176530000Y-147500000D02*
X121900000Y-147500000D01*
X82000000Y-109300000D02*
X122500000Y-149800000D01*
D15*
X79300000Y-245700000D02*
X79300000Y-238200000D01*
D16*
X68350000Y-245250000D02*
X66150000Y-245250000D01*
D15*
X128430000Y-85000000D02*
X128430000Y-91800000D01*
D16*
X120930000Y-100100000D02*
X173430000Y-100100000D01*
X83800000Y-235800000D02*
X73450000Y-225450000D01*
D15*
X81210000Y-111390000D02*
X70310000Y-111390000D01*
D16*
X64175000Y-290100000D02*
X68700000Y-290100000D01*
D15*
X78000000Y-168500000D02*
X71500000Y-168500000D01*
D16*
X59250100Y-50292500D02*
X57107500Y-50292500D01*
X215930000Y-203400000D02*
X115930000Y-203400000D01*
D15*
X57730000Y-250330000D02*
X53850000Y-246450000D01*
X59250100Y-90507500D02*
X59250100Y-86530100D01*
X81000000Y-159500000D02*
X81000000Y-159200000D01*
X339715000Y-68885000D02*
X334830000Y-64000000D01*
D16*
X169930000Y-194500000D02*
X174430000Y-190000000D01*
D15*
X55242500Y-181657500D02*
X54350000Y-182550000D01*
X83775000Y-306100000D02*
X81675000Y-308200000D01*
D16*
X59500100Y-214142500D02*
X57357500Y-214142500D01*
X275930000Y-91900000D02*
X319730000Y-91900000D01*
X69287500Y-293187500D02*
X68837500Y-293637500D01*
X120930000Y-99200000D02*
X120930000Y-100100000D01*
D15*
X172430000Y-98200000D02*
X176130000Y-94500000D01*
X128030000Y-286600000D02*
X130330000Y-286600000D01*
X111000000Y-70600000D02*
X101100000Y-60700000D01*
D16*
X66100000Y-41637506D02*
X66107506Y-41630000D01*
D15*
X54450000Y-255250000D02*
X54450000Y-262050000D01*
D16*
X70800000Y-193600000D02*
X71600000Y-193600000D01*
X132530000Y-139700000D02*
X176330000Y-139700000D01*
D15*
X60437600Y-295180000D02*
X63195000Y-295180000D01*
D16*
X176330000Y-139700000D02*
X176430000Y-139800000D01*
D15*
X114630000Y-114100000D02*
X299730000Y-114100000D01*
X94630000Y-171500000D02*
X94630000Y-166830000D01*
D16*
X57700000Y-170600000D02*
X57700000Y-173202400D01*
D15*
X68850000Y-207550000D02*
X72250000Y-210950000D01*
X77200000Y-134200000D02*
X103165000Y-160165000D01*
D16*
X72420000Y-205480000D02*
X72520000Y-205480000D01*
X275930000Y-283100000D02*
X319730000Y-283100000D01*
D15*
X80700000Y-147600000D02*
X71300000Y-147600000D01*
D16*
X80750000Y-210950000D02*
X80250000Y-210950000D01*
D15*
X324830000Y-103700000D02*
X303530000Y-125000000D01*
X318800000Y-316600000D02*
X74200000Y-316600000D01*
D16*
X95150000Y-129750000D02*
X120300000Y-154900000D01*
X87100000Y-93000000D02*
X80900000Y-86800000D01*
D15*
X70800000Y-37300000D02*
X81110000Y-37300000D01*
X260630000Y-153300000D02*
X271830000Y-142100000D01*
X85600000Y-235200000D02*
X85600000Y-246000000D01*
D16*
X55100000Y-123900000D02*
X51700000Y-120500000D01*
X122330000Y-217200000D02*
X93115000Y-187985000D01*
X63787500Y-291887500D02*
X65187500Y-290487500D01*
X123130000Y-196300000D02*
X109930000Y-183100000D01*
X194030000Y-94400000D02*
X186230000Y-102200000D01*
D15*
X51700000Y-120500000D02*
X51700000Y-112190000D01*
X75250000Y-261850000D02*
X124000000Y-310600000D01*
D16*
X57400000Y-61700000D02*
X57500000Y-61600000D01*
D15*
X91400000Y-198200000D02*
X91400000Y-205200000D01*
D16*
X91300000Y-218900000D02*
X77880000Y-205480000D01*
D15*
X56192500Y-177392500D02*
X59350100Y-177392500D01*
X59500100Y-254357500D02*
X59500100Y-250380100D01*
D16*
X115930000Y-203400000D02*
X95930000Y-183400000D01*
D15*
X55580000Y-295180000D02*
X51800000Y-291400000D01*
D16*
X70230000Y-114330000D02*
X78670000Y-114330000D01*
X70400000Y-79000000D02*
X99515000Y-108115000D01*
D15*
X67200000Y-77400000D02*
X65300000Y-75500000D01*
D16*
X180330000Y-235300000D02*
X224130000Y-235300000D01*
X225930000Y-151700000D02*
X225930000Y-143200000D01*
D15*
X55342500Y-254357500D02*
X54450000Y-255250000D01*
X59250100Y-118549900D02*
X59225000Y-118575000D01*
X54632494Y-109257506D02*
X59370100Y-109257506D01*
D16*
X76600000Y-154100000D02*
X66000000Y-154100000D01*
X122800000Y-250900000D02*
X91300000Y-219400000D01*
D15*
X176130000Y-94500000D02*
X176130000Y-94300000D01*
X111000000Y-81970000D02*
X111000000Y-70600000D01*
D16*
X67612500Y-45212500D02*
X71812500Y-45212500D01*
D15*
X85600000Y-246000000D02*
X86450000Y-246850000D01*
X324830000Y-140800000D02*
X324830000Y-151500000D01*
D16*
X74500000Y-103200000D02*
X123000000Y-151700000D01*
D15*
X52350000Y-237150000D02*
X52350000Y-238900000D01*
X78000000Y-259500000D02*
X72400000Y-259500000D01*
D16*
X115830000Y-109100000D02*
X256930000Y-109100000D01*
D15*
X71600000Y-170600000D02*
X75000000Y-170600000D01*
X90675000Y-313000000D02*
X83775000Y-306100000D01*
D16*
X176330000Y-283100000D02*
X176430000Y-283200000D01*
D15*
X128330000Y-285500000D02*
X128330000Y-284700000D01*
X129830000Y-125000000D02*
X128630000Y-126200000D01*
X51700000Y-145500000D02*
X51700000Y-120500000D01*
D16*
X321530000Y-289400000D02*
X300330000Y-310600000D01*
X57500000Y-61600000D02*
X79000000Y-61600000D01*
X319530000Y-237700000D02*
X289830000Y-237700000D01*
X74600000Y-174500000D02*
X73000000Y-174500000D01*
D15*
X70250000Y-218150000D02*
X70250000Y-222750000D01*
X59350100Y-163207500D02*
X55192500Y-163207500D01*
X69900000Y-168900000D02*
X71600000Y-170600000D01*
X323730000Y-91900000D02*
X324830000Y-93000000D01*
X116030000Y-105400000D02*
X103980000Y-93350000D01*
X104330000Y-165900000D02*
X104330000Y-154530000D01*
X66350000Y-205487506D02*
X72512494Y-205487506D01*
X57300000Y-45802400D02*
X57300000Y-43700000D01*
X339715000Y-295685000D02*
X318800000Y-316600000D01*
D16*
X71562500Y-227062500D02*
X82300000Y-237800000D01*
X228130000Y-235300000D02*
X271930000Y-235300000D01*
X122500000Y-149800000D02*
X123500000Y-149800000D01*
D15*
X176230000Y-145100000D02*
X176230000Y-142200000D01*
D16*
X68150000Y-242850000D02*
X58250000Y-242850000D01*
D15*
X67000000Y-40000000D02*
X67000000Y-40737506D01*
X56150000Y-195750000D02*
X56242500Y-195842500D01*
X74100000Y-74500000D02*
X84000000Y-74500000D01*
X128630000Y-269600000D02*
X128630000Y-283200000D01*
X57447500Y-140992500D02*
X59350100Y-140992500D01*
X324830000Y-236400000D02*
X324830000Y-247100000D01*
D16*
X71412500Y-135912500D02*
X67212500Y-135912500D01*
X127330000Y-291800000D02*
X166530000Y-291800000D01*
D15*
X176130000Y-238800000D02*
X176130000Y-237700000D01*
X79630000Y-41630000D02*
X78570000Y-41630000D01*
X59500100Y-211602500D02*
X57550000Y-209652400D01*
D16*
X224130000Y-187500000D02*
X224230000Y-187600000D01*
X77800000Y-162300000D02*
X77800000Y-155300000D01*
D15*
X72100000Y-119800000D02*
X80100000Y-119800000D01*
X91200000Y-71200000D02*
X92200000Y-72200000D01*
D16*
X56200000Y-51200000D02*
X55000000Y-51200000D01*
X80600000Y-49900000D02*
X93000000Y-62300000D01*
D15*
X124000000Y-310600000D02*
X125700000Y-310600000D01*
D16*
X57750000Y-191652400D02*
X59400100Y-193302500D01*
X127100000Y-304000000D02*
X68350000Y-245250000D01*
X319730000Y-139700000D02*
X319830000Y-139800000D01*
D15*
X72100000Y-56800000D02*
X76500000Y-52400000D01*
X53920000Y-71720000D02*
X52161068Y-73478932D01*
D16*
X111800000Y-116900000D02*
X87900000Y-93000000D01*
D15*
X84600000Y-206600000D02*
X84600000Y-209300000D01*
X318030000Y-313000000D02*
X90675000Y-313000000D01*
D16*
X58100000Y-151700000D02*
X75700000Y-151700000D01*
X94700000Y-159200000D02*
X71412500Y-135912500D01*
X126500000Y-301200000D02*
X68150000Y-242850000D01*
X74600000Y-101500000D02*
X75000000Y-101500000D01*
D15*
X104330000Y-154530000D02*
X88950000Y-139150000D01*
D16*
X256230000Y-301200000D02*
X271830000Y-285600000D01*
X92100000Y-85500000D02*
X92230000Y-85500000D01*
D15*
X54170000Y-235570000D02*
X54757500Y-236157500D01*
X59350100Y-163207500D02*
X59350100Y-159230100D01*
D16*
X67887500Y-290687500D02*
X67887500Y-291437500D01*
D15*
X59400100Y-181657500D02*
X55242500Y-181657500D01*
D16*
X224030000Y-142100000D02*
X216330000Y-149800000D01*
D15*
X84000000Y-74500000D02*
X84000000Y-82400000D01*
D16*
X321530000Y-96000000D02*
X300630000Y-116900000D01*
X304780000Y-156850000D02*
X122050000Y-156850000D01*
D15*
X98930000Y-98400000D02*
X114630000Y-114100000D01*
X72900000Y-75700000D02*
X74100000Y-74500000D01*
D16*
X95165000Y-177765000D02*
X95165000Y-188035000D01*
D15*
X86250000Y-111950000D02*
X90800000Y-116500000D01*
D16*
X77880000Y-205480000D02*
X72520000Y-205480000D01*
X73150000Y-213750000D02*
X80850000Y-213750000D01*
X57107500Y-50292500D02*
X56200000Y-51200000D01*
X98800000Y-197100000D02*
X90900000Y-189200000D01*
D15*
X77200000Y-131800000D02*
X77200000Y-134200000D01*
D16*
X216330000Y-149800000D02*
X123500000Y-149800000D01*
D15*
X59250100Y-86530100D02*
X59200000Y-86480000D01*
D16*
X166530000Y-291800000D02*
X171730000Y-286600000D01*
X96415000Y-196515000D02*
X74600000Y-174700000D01*
D15*
X51700000Y-112190000D02*
X54632494Y-109257506D01*
D16*
X65900000Y-81400000D02*
X68100000Y-81400000D01*
D15*
X52150000Y-73350000D02*
X52100000Y-73300000D01*
X72700000Y-185500000D02*
X74700000Y-187500000D01*
D16*
X228130000Y-187500000D02*
X271930000Y-187500000D01*
D15*
X55092500Y-90507500D02*
X54200000Y-91400000D01*
D16*
X303930000Y-256600000D02*
X321730000Y-238800000D01*
X77800000Y-155300000D02*
X76600000Y-154100000D01*
D15*
X53920000Y-71720000D02*
X54507500Y-72307500D01*
D16*
X275930000Y-235300000D02*
X319730000Y-235300000D01*
D15*
X60437600Y-295180000D02*
X55580000Y-295180000D01*
D16*
X57357500Y-214142500D02*
X56450000Y-215050000D01*
D15*
X52100000Y-75050000D02*
X54625000Y-77575000D01*
X69700000Y-95100000D02*
X70600000Y-96000000D01*
X324830000Y-93000000D02*
X324830000Y-103700000D01*
D16*
X94100000Y-161500000D02*
X95900000Y-159700000D01*
D15*
X60437600Y-295180000D02*
X60437600Y-309037400D01*
D16*
X319530000Y-142100000D02*
X304780000Y-156850000D01*
D15*
X324830000Y-247100000D02*
X303530000Y-268400000D01*
X92500000Y-206300000D02*
X92800000Y-206300000D01*
X72512494Y-205487506D02*
X72520000Y-205480000D01*
D16*
X321530000Y-191100000D02*
X292430000Y-220200000D01*
D15*
X318415000Y-312615000D02*
X329630000Y-301400000D01*
D16*
X58000000Y-79000000D02*
X70400000Y-79000000D01*
D15*
X57550000Y-209652400D02*
X57550000Y-207550000D01*
D16*
X140500000Y-304000000D02*
X127100000Y-304000000D01*
X98415000Y-111715000D02*
X98415000Y-117815000D01*
D15*
X74000000Y-43700000D02*
X77400000Y-47100000D01*
D16*
X72300000Y-175900000D02*
X74500000Y-175900000D01*
X216030000Y-247000000D02*
X224230000Y-238800000D01*
D15*
X67000000Y-40000000D02*
X72040000Y-40000000D01*
D16*
X73000000Y-174500000D02*
X69100000Y-170600000D01*
D15*
X129830000Y-172800000D02*
X128630000Y-174000000D01*
X53700000Y-151300000D02*
X54725000Y-150275000D01*
D16*
X118800000Y-220200000D02*
X118900000Y-220200000D01*
D15*
X291030000Y-218500000D02*
X319530000Y-190000000D01*
X57597500Y-232142500D02*
X59500100Y-232142500D01*
X129830000Y-268400000D02*
X128630000Y-269600000D01*
D16*
X72900000Y-101800000D02*
X74300000Y-101800000D01*
X115430000Y-111100000D02*
X91442500Y-87112500D01*
X126630000Y-194500000D02*
X169930000Y-194500000D01*
D15*
X329630000Y-301400000D02*
X329630000Y-289000000D01*
X76500000Y-52400000D02*
X78400000Y-52400000D01*
X75400000Y-189400000D02*
X86400000Y-200400000D01*
X92800000Y-206300000D02*
X128500000Y-242000000D01*
D16*
X93115000Y-187985000D02*
X93100000Y-187970000D01*
X79000000Y-61600000D02*
X87600000Y-70200000D01*
D15*
X59350100Y-159230100D02*
X59300000Y-159180000D01*
D16*
X228130000Y-283100000D02*
X271930000Y-283100000D01*
D15*
X87430000Y-226030000D02*
X81300000Y-219900000D01*
D16*
X67687500Y-290487500D02*
X67887500Y-290687500D01*
D15*
X71500000Y-186700000D02*
X71600000Y-186700000D01*
X54300000Y-171100000D02*
X56300000Y-173100000D01*
X70450000Y-222950000D02*
X73350000Y-222950000D01*
X223930000Y-285600000D02*
X215830000Y-293700000D01*
X91200000Y-66000000D02*
X91200000Y-71200000D01*
X128630000Y-126200000D02*
X128630000Y-139800000D01*
D16*
X68700000Y-290100000D02*
X69287500Y-290687500D01*
X116950000Y-158850000D02*
X80700000Y-122600000D01*
D15*
X70310000Y-111390000D02*
X69100000Y-112600000D01*
D16*
X125500000Y-142100000D02*
X128430000Y-142100000D01*
D15*
X67800000Y-168900000D02*
X67800000Y-168400000D01*
X79730000Y-114330000D02*
X78670000Y-114330000D01*
D16*
X128030000Y-238900000D02*
X130330000Y-238900000D01*
D15*
X74200000Y-316600000D02*
X73900000Y-316300000D01*
X94230000Y-262100000D02*
X94230000Y-260630000D01*
X103980000Y-91180000D02*
X89050000Y-76250000D01*
X175530000Y-145800000D02*
X176230000Y-145100000D01*
D16*
X77150000Y-192650000D02*
X74750000Y-192650000D01*
X130200000Y-301200000D02*
X256230000Y-301200000D01*
X59400100Y-195842500D02*
X59400100Y-199797500D01*
X123930000Y-297000000D02*
X214330000Y-297000000D01*
X94300000Y-236170000D02*
X114730000Y-256600000D01*
X57700000Y-173202400D02*
X59350100Y-174852500D01*
D15*
X89050000Y-76250000D02*
X89050000Y-68150000D01*
D16*
X271930000Y-235300000D02*
X272030000Y-235400000D01*
X80700000Y-122600000D02*
X73000000Y-122600000D01*
X65187500Y-290487500D02*
X67687500Y-290487500D01*
X165630000Y-290000000D02*
X170030000Y-285600000D01*
X69000000Y-97900000D02*
X72900000Y-101800000D01*
D15*
X112765000Y-80235000D02*
X112765000Y-68955000D01*
D16*
X57540000Y-83940000D02*
X55800000Y-82200000D01*
X273830000Y-143200000D02*
X262130000Y-154900000D01*
X55450000Y-216050000D02*
X57557500Y-218157500D01*
D15*
X303530000Y-268400000D02*
X129830000Y-268400000D01*
D16*
X84600000Y-204300000D02*
X84600000Y-205600000D01*
X101465000Y-169335000D02*
X126630000Y-194500000D01*
D15*
X54200000Y-98400000D02*
X56200000Y-100400000D01*
D16*
X55800000Y-81200000D02*
X58000000Y-79000000D01*
D15*
X125730000Y-191000000D02*
X130430000Y-191000000D01*
X53600000Y-78600000D02*
X54625000Y-77575000D01*
X101265000Y-197965000D02*
X87700000Y-184400000D01*
X68100000Y-168100000D02*
X68100000Y-161800000D01*
D16*
X71800000Y-241237500D02*
X77137500Y-241237500D01*
X75700000Y-151700000D02*
X79700000Y-155700000D01*
X73670000Y-41630000D02*
X78570000Y-41630000D01*
D15*
X95150000Y-129750000D02*
X79730000Y-114330000D01*
X125600000Y-307100000D02*
X78000000Y-259500000D01*
D16*
X57500000Y-136602400D02*
X57500000Y-134400000D01*
D15*
X57347500Y-68292500D02*
X59250100Y-68292500D01*
X323730000Y-187500000D02*
X324830000Y-188600000D01*
D16*
X94300000Y-227200000D02*
X94300000Y-236170000D01*
D15*
X94230000Y-260630000D02*
X79300000Y-245700000D01*
X80540000Y-202540000D02*
X84600000Y-206600000D01*
D16*
X55900000Y-154900000D02*
X55900000Y-153900000D01*
D15*
X172930000Y-242000000D02*
X176130000Y-238800000D01*
D16*
X70000000Y-101000000D02*
X72200000Y-103200000D01*
D15*
X125830000Y-293700000D02*
X94230000Y-262100000D01*
D16*
X55250000Y-215050000D02*
X51850000Y-211650000D01*
D15*
X67250000Y-203150000D02*
X67250000Y-204587506D01*
X324830000Y-199300000D02*
X303530000Y-220600000D01*
X56300000Y-177100000D02*
X56100000Y-177300000D01*
X72400000Y-204100000D02*
X73960000Y-202540000D01*
X53600000Y-82600000D02*
X53600000Y-78600000D01*
X71500000Y-186700000D02*
X69850000Y-185050000D01*
D16*
X178230000Y-238800000D02*
X173130000Y-243900000D01*
D15*
X94930000Y-62030000D02*
X80000000Y-47100000D01*
X56242500Y-195842500D02*
X59400100Y-195842500D01*
X69850000Y-185050000D02*
X69850000Y-183850000D01*
X54732500Y-70907500D02*
X53920000Y-71720000D01*
D16*
X59350100Y-138452500D02*
X57500000Y-136602400D01*
D15*
X84600000Y-209300000D02*
X124100000Y-248800000D01*
D16*
X120850000Y-158850000D02*
X305980000Y-158850000D01*
D15*
X79587500Y-150087500D02*
X68912500Y-150087500D01*
D16*
X55000000Y-51200000D02*
X51600000Y-47800000D01*
D15*
X52100000Y-73300000D02*
X51600000Y-72800000D01*
D16*
X300330000Y-310600000D02*
X125700000Y-310600000D01*
D15*
X88280000Y-246850000D02*
X128030000Y-286600000D01*
D16*
X224730000Y-286600000D02*
X225930000Y-286600000D01*
X212430000Y-201400000D02*
X124530000Y-201400000D01*
X98800000Y-200200000D02*
X98800000Y-197100000D01*
D15*
X112765000Y-80235000D02*
X126930000Y-94400000D01*
X56200000Y-104400000D02*
X56000000Y-104600000D01*
D16*
X321530000Y-95400000D02*
X321530000Y-96000000D01*
X261730000Y-250900000D02*
X273730000Y-238900000D01*
X68837500Y-293637500D02*
X67887500Y-293637500D01*
D15*
X54607500Y-145007500D02*
X59350100Y-145007500D01*
X84000000Y-82400000D02*
X98930000Y-97330000D01*
D16*
X319730000Y-283100000D02*
X319830000Y-283200000D01*
X101465000Y-169335000D02*
X101465000Y-162365000D01*
X55200000Y-52200000D02*
X57307500Y-54307500D01*
D15*
X59250100Y-90507500D02*
X55092500Y-90507500D01*
D16*
X91442500Y-86142500D02*
X86500000Y-81200000D01*
X95930000Y-175530000D02*
X81000000Y-160600000D01*
D15*
X63195000Y-295180000D02*
X65937500Y-292437500D01*
X68700000Y-116400000D02*
X72100000Y-119800000D01*
D16*
X87900000Y-93000000D02*
X87100000Y-93000000D01*
D15*
X54450000Y-262050000D02*
X54450000Y-262250000D01*
X70250000Y-222750000D02*
X70450000Y-222950000D01*
X54782494Y-200407506D02*
X59520100Y-200407506D01*
D16*
X224130000Y-235300000D02*
X224230000Y-235400000D01*
D15*
X67000000Y-40737506D02*
X66100000Y-41637506D01*
X54532494Y-36557506D02*
X59270100Y-36557506D01*
D16*
X101465000Y-162365000D02*
X73400000Y-134300000D01*
D15*
X54170000Y-235570000D02*
X52411068Y-237328932D01*
X103980000Y-93350000D02*
X103980000Y-91180000D01*
X126900000Y-248800000D02*
X260730000Y-248800000D01*
D16*
X224130000Y-91900000D02*
X224230000Y-92000000D01*
D15*
X69950000Y-258950000D02*
X70850000Y-259850000D01*
X298030000Y-307100000D02*
X125600000Y-307100000D01*
X56092500Y-104692500D02*
X59250100Y-104692500D01*
X92200000Y-76970000D02*
X117430000Y-102200000D01*
X86350000Y-181950000D02*
X86350000Y-184650000D01*
%TD*%
M02*
