%TF.GenerationSoftware,KiCad,Pcbnew,(6.0.8-1)-1*%
%TF.CreationDate,2024-05-08T11:05:11-04:00*%
%TF.ProjectId,Untitled,556e7469-746c-4656-942e-6b696361645f,rev?*%
%TF.SameCoordinates,Original*%
%TF.FileFunction,Paste,Top*%
%TF.FilePolarity,Positive*%
%FSLAX46Y46*%
G04 Gerber Fmt 4.6, Leading zero omitted, Abs format (unit mm)*
G04 Created by KiCad (PCBNEW (6.0.8-1)-1) date 2024-05-08 11:05:11*
%MOMM*%
%LPD*%
G01*
G04 APERTURE LIST*
G04 Aperture macros list*
%AMRoundRect*
0 Rectangle with rounded corners*
0 $1 Rounding radius*
0 $2 $3 $4 $5 $6 $7 $8 $9 X,Y pos of 4 corners*
0 Add a 4 corners polygon primitive as box body*
4,1,4,$2,$3,$4,$5,$6,$7,$8,$9,$2,$3,0*
0 Add four circle primitives for the rounded corners*
1,1,$1+$1,$2,$3*
1,1,$1+$1,$4,$5*
1,1,$1+$1,$6,$7*
1,1,$1+$1,$8,$9*
0 Add four rect primitives between the rounded corners*
20,1,$1+$1,$2,$3,$4,$5,0*
20,1,$1+$1,$4,$5,$6,$7,0*
20,1,$1+$1,$6,$7,$8,$9,0*
20,1,$1+$1,$8,$9,$2,$3,0*%
G04 Aperture macros list end*
%ADD10RoundRect,0.250000X-0.312500X-0.625000X0.312500X-0.625000X0.312500X0.625000X-0.312500X0.625000X0*%
%ADD11RoundRect,0.087500X-0.087500X-0.337500X0.087500X-0.337500X0.087500X0.337500X-0.087500X0.337500X0*%
%ADD12RoundRect,0.237500X-0.287500X-0.237500X0.287500X-0.237500X0.287500X0.237500X-0.287500X0.237500X0*%
%ADD13R,0.700000X0.700000*%
%ADD14RoundRect,0.250000X-0.325000X-1.100000X0.325000X-1.100000X0.325000X1.100000X-0.325000X1.100000X0*%
G04 APERTURE END LIST*
D10*
%TO.C,50 \u03A9*%
X65337500Y-306800000D03*
X68262500Y-306800000D03*
%TD*%
D11*
%TO.C,Temp1*%
X65937500Y-293687500D03*
X66587500Y-293687500D03*
X67237500Y-293687500D03*
X67237500Y-291487500D03*
X65937500Y-291487500D03*
%TD*%
%TO.C,*%
X67237500Y-293687500D03*
%TD*%
D12*
%TO.C,REF\u002A\u002A21*%
X162615000Y-259275000D03*
D13*
X164242500Y-260610000D03*
X162217500Y-260610000D03*
D12*
X164365000Y-259275000D03*
D13*
X162217500Y-261660000D03*
X164242500Y-261710000D03*
%TD*%
D14*
%TO.C,10 nF*%
X64975000Y-218150000D03*
X67925000Y-218150000D03*
%TD*%
%TO.C,10 nF*%
X63525000Y-173000000D03*
X66475000Y-173000000D03*
%TD*%
D12*
%TO.C,REF\u002A\u002A20*%
X114815000Y-259275000D03*
D13*
X116442500Y-260610000D03*
X114417500Y-260610000D03*
D12*
X116565000Y-259275000D03*
D13*
X114417500Y-261660000D03*
X116442500Y-261710000D03*
%TD*%
D14*
%TO.C,10 nF*%
X64825000Y-102200000D03*
X67775000Y-102200000D03*
%TD*%
%TO.C,10 nF*%
X64825000Y-127000000D03*
X67775000Y-127000000D03*
%TD*%
D13*
%TO.C,REF\u002A\u002A5*%
X116442500Y-117210000D03*
D12*
X114815000Y-115875000D03*
D13*
X114417500Y-117210000D03*
D12*
X116565000Y-115875000D03*
D13*
X114417500Y-118260000D03*
X116442500Y-118310000D03*
%TD*%
D12*
%TO.C,REF\u002A\u002A3*%
X258215000Y-68075000D03*
D13*
X259842500Y-69410000D03*
D12*
X259965000Y-68075000D03*
D13*
X257817500Y-69410000D03*
X257817500Y-70460000D03*
X259842500Y-70510000D03*
%TD*%
D14*
%TO.C,10 nF*%
X64975000Y-193350000D03*
X67925000Y-193350000D03*
%TD*%
D12*
%TO.C,REF\u002A\u002A4*%
X306015000Y-68075000D03*
D13*
X307642500Y-69410000D03*
D12*
X307765000Y-68075000D03*
D13*
X305617500Y-69410000D03*
X305617500Y-70460000D03*
X307642500Y-70510000D03*
%TD*%
D14*
%TO.C,10 nF*%
X64875000Y-199950000D03*
X67825000Y-199950000D03*
%TD*%
D13*
%TO.C,REF\u002A\u002A2*%
X212042500Y-69410000D03*
D12*
X210415000Y-68075000D03*
D13*
X210017500Y-69410000D03*
D12*
X212165000Y-68075000D03*
D13*
X210017500Y-70460000D03*
X212042500Y-70510000D03*
%TD*%
D12*
%TO.C,REF\u002A\u002A19*%
X306015000Y-211475000D03*
D13*
X307642500Y-212810000D03*
D12*
X307765000Y-211475000D03*
D13*
X305617500Y-212810000D03*
X305617500Y-213860000D03*
X307642500Y-213910000D03*
%TD*%
D14*
%TO.C,10 nF*%
X65075000Y-211550000D03*
X68025000Y-211550000D03*
%TD*%
%TO.C,10 nF*%
X64625000Y-36100000D03*
X67575000Y-36100000D03*
%TD*%
D13*
%TO.C,REF\u002A\u002A7*%
X212042500Y-117210000D03*
D12*
X210415000Y-115875000D03*
D13*
X210017500Y-117210000D03*
D12*
X212165000Y-115875000D03*
D13*
X210017500Y-118260000D03*
X212042500Y-118310000D03*
%TD*%
%TO.C,REF\u002A\u002A8*%
X259842500Y-117210000D03*
D12*
X258215000Y-115875000D03*
X259965000Y-115875000D03*
D13*
X257817500Y-117210000D03*
X257817500Y-118260000D03*
X259842500Y-118310000D03*
%TD*%
D12*
%TO.C,REF\u002A\u002A14*%
X306015000Y-163675000D03*
D13*
X307642500Y-165010000D03*
X305617500Y-165010000D03*
D12*
X307765000Y-163675000D03*
D13*
X305617500Y-166060000D03*
X307642500Y-166110000D03*
%TD*%
%TO.C,REF\u002A\u002A23*%
X259842500Y-260610000D03*
D12*
X258215000Y-259275000D03*
D13*
X257817500Y-260610000D03*
D12*
X259965000Y-259275000D03*
D13*
X257817500Y-261660000D03*
X259842500Y-261710000D03*
%TD*%
%TO.C,REF\u002A\u002A24*%
X307642500Y-260610000D03*
D12*
X306015000Y-259275000D03*
D13*
X305617500Y-260610000D03*
D12*
X307765000Y-259275000D03*
D13*
X305617500Y-261660000D03*
X307642500Y-261710000D03*
%TD*%
%TO.C,REF\u002A\u002A16*%
X164242500Y-212810000D03*
D12*
X162615000Y-211475000D03*
X164365000Y-211475000D03*
D13*
X162217500Y-212810000D03*
X162217500Y-213860000D03*
X164242500Y-213910000D03*
%TD*%
D14*
%TO.C,10 nF*%
X65025000Y-182400000D03*
X67975000Y-182400000D03*
%TD*%
%TO.C,10 nF*%
X64975000Y-236450000D03*
X67925000Y-236450000D03*
%TD*%
%TO.C,10 nF*%
X64525000Y-66200000D03*
X67475000Y-66200000D03*
%TD*%
D13*
%TO.C,REF\u002A\u002A10*%
X116442500Y-165010000D03*
D12*
X114815000Y-163675000D03*
X116565000Y-163675000D03*
D13*
X114417500Y-165010000D03*
X114417500Y-166060000D03*
X116442500Y-166110000D03*
%TD*%
D14*
%TO.C,10 nF*%
X64825000Y-90400000D03*
X67775000Y-90400000D03*
%TD*%
D13*
%TO.C,REF\u002A\u002A6*%
X164242500Y-117210000D03*
D12*
X162615000Y-115875000D03*
X164365000Y-115875000D03*
D13*
X162217500Y-117210000D03*
X162217500Y-118260000D03*
X164242500Y-118310000D03*
%TD*%
%TO.C,REF\u002A\u002A17*%
X212042500Y-212810000D03*
D12*
X210415000Y-211475000D03*
D13*
X210017500Y-212810000D03*
D12*
X212165000Y-211475000D03*
D13*
X210017500Y-213860000D03*
X212042500Y-213910000D03*
%TD*%
D14*
%TO.C,10 nF*%
X63825000Y-156700000D03*
X66775000Y-156700000D03*
%TD*%
%TO.C,10 nF*%
X64825000Y-47700000D03*
X67775000Y-47700000D03*
%TD*%
%TO.C,10 nF*%
X64725000Y-72600000D03*
X67675000Y-72600000D03*
%TD*%
%TO.C,10 nF*%
X64625000Y-138900000D03*
X67575000Y-138900000D03*
%TD*%
%TO.C,10 nF*%
X64725000Y-54300000D03*
X67675000Y-54300000D03*
%TD*%
%TO.C,10 nF*%
X63725000Y-84000000D03*
X66675000Y-84000000D03*
%TD*%
D12*
%TO.C,REF\u002A\u002A12*%
X210415000Y-163675000D03*
D13*
X212042500Y-165010000D03*
D12*
X212165000Y-163675000D03*
D13*
X210017500Y-165010000D03*
X210017500Y-166060000D03*
X212042500Y-166110000D03*
%TD*%
D12*
%TO.C,REF\u002A\u002A22*%
X210415000Y-259275000D03*
D13*
X212042500Y-260610000D03*
X210017500Y-260610000D03*
D12*
X212165000Y-259275000D03*
D13*
X210017500Y-261660000D03*
X212042500Y-261710000D03*
%TD*%
D14*
%TO.C,10 nF*%
X64775000Y-230050000D03*
X67725000Y-230050000D03*
%TD*%
D13*
%TO.C,REF\u002A\u002A15*%
X116442500Y-212810000D03*
D12*
X114815000Y-211475000D03*
D13*
X114417500Y-212810000D03*
D12*
X116565000Y-211475000D03*
D13*
X114417500Y-213860000D03*
X116442500Y-213910000D03*
%TD*%
D14*
%TO.C,10 nF*%
X64925000Y-120400000D03*
X67875000Y-120400000D03*
%TD*%
%TO.C,10 nF*%
X65075000Y-254250000D03*
X68025000Y-254250000D03*
%TD*%
D12*
%TO.C,REF\u002A\u002A9*%
X306015000Y-115875000D03*
D13*
X307642500Y-117210000D03*
X305617500Y-117210000D03*
D12*
X307765000Y-115875000D03*
D13*
X305617500Y-118260000D03*
X307642500Y-118310000D03*
%TD*%
%TO.C,REF\u002A\u002A13*%
X259842500Y-165010000D03*
D12*
X258215000Y-163675000D03*
D13*
X257817500Y-165010000D03*
D12*
X259965000Y-163675000D03*
D13*
X257817500Y-166060000D03*
X259842500Y-166110000D03*
%TD*%
D14*
%TO.C,10 nF*%
X63975000Y-247850000D03*
X66925000Y-247850000D03*
%TD*%
D13*
%TO.C,REF\u002A\u002A1*%
X164242500Y-69410000D03*
D12*
X162615000Y-68075000D03*
X164365000Y-68075000D03*
D13*
X162217500Y-69410000D03*
X162217500Y-70460000D03*
X164242500Y-70510000D03*
%TD*%
D14*
%TO.C,10 nF*%
X64825000Y-145300000D03*
X67775000Y-145300000D03*
%TD*%
D12*
%TO.C,REF\u002A\u002A18*%
X258215000Y-211475000D03*
D13*
X259842500Y-212810000D03*
X257817500Y-212810000D03*
D12*
X259965000Y-211475000D03*
D13*
X257817500Y-213860000D03*
X259842500Y-213910000D03*
%TD*%
D14*
%TO.C,10 nF*%
X64725000Y-108800000D03*
X67675000Y-108800000D03*
%TD*%
D12*
%TO.C,REF\u002A\u002A*%
X114815000Y-68075000D03*
D13*
X116442500Y-69410000D03*
X114417500Y-69410000D03*
D12*
X116565000Y-68075000D03*
D13*
X114417500Y-70460000D03*
X116442500Y-70510000D03*
%TD*%
D14*
%TO.C,10 nF*%
X64925000Y-163100000D03*
X67875000Y-163100000D03*
%TD*%
D13*
%TO.C,REF\u002A\u002A11*%
X164242500Y-165010000D03*
D12*
X162615000Y-163675000D03*
X164365000Y-163675000D03*
D13*
X162217500Y-165010000D03*
X162217500Y-166060000D03*
X164242500Y-166110000D03*
%TD*%
M02*
