%TF.GenerationSoftware,KiCad,Pcbnew,(6.0.8-1)-1*%
%TF.CreationDate,2024-05-08T15:02:10-04:00*%
%TF.ProjectId,Untitled,556e7469-746c-4656-942e-6b696361645f,rev?*%
%TF.SameCoordinates,Original*%
%TF.FileFunction,Copper,L1,Top*%
%TF.FilePolarity,Positive*%
%FSLAX46Y46*%
G04 Gerber Fmt 4.6, Leading zero omitted, Abs format (unit mm)*
G04 Created by KiCad (PCBNEW (6.0.8-1)-1) date 2024-05-08 15:02:10*
%MOMM*%
%LPD*%
G01*
G04 APERTURE LIST*
G04 Aperture macros list*
%AMRoundRect*
0 Rectangle with rounded corners*
0 $1 Rounding radius*
0 $2 $3 $4 $5 $6 $7 $8 $9 X,Y pos of 4 corners*
0 Add a 4 corners polygon primitive as box body*
4,1,4,$2,$3,$4,$5,$6,$7,$8,$9,$2,$3,0*
0 Add four circle primitives for the rounded corners*
1,1,$1+$1,$2,$3*
1,1,$1+$1,$4,$5*
1,1,$1+$1,$6,$7*
1,1,$1+$1,$8,$9*
0 Add four rect primitives between the rounded corners*
20,1,$1+$1,$2,$3,$4,$5,0*
20,1,$1+$1,$4,$5,$6,$7,0*
20,1,$1+$1,$6,$7,$8,$9,0*
20,1,$1+$1,$8,$9,$2,$3,0*%
G04 Aperture macros list end*
%TA.AperFunction,SMDPad,CuDef*%
%ADD10RoundRect,0.237500X-0.287500X-0.237500X0.287500X-0.237500X0.287500X0.237500X-0.287500X0.237500X0*%
%TD*%
%TA.AperFunction,SMDPad,CuDef*%
%ADD11R,0.700000X0.700000*%
%TD*%
%TA.AperFunction,SMDPad,CuDef*%
%ADD12RoundRect,0.250000X-0.325000X-1.100000X0.325000X-1.100000X0.325000X1.100000X-0.325000X1.100000X0*%
%TD*%
%TA.AperFunction,ComponentPad*%
%ADD13R,1.397000X1.397000*%
%TD*%
%TA.AperFunction,ComponentPad*%
%ADD14C,1.397000*%
%TD*%
%TA.AperFunction,ComponentPad*%
%ADD15R,3.500000X3.500000*%
%TD*%
%TA.AperFunction,ComponentPad*%
%ADD16C,4.000000*%
%TD*%
%TA.AperFunction,SMDPad,CuDef*%
%ADD17RoundRect,0.087500X-0.087500X-0.337500X0.087500X-0.337500X0.087500X0.337500X-0.087500X0.337500X0*%
%TD*%
%TA.AperFunction,SMDPad,CuDef*%
%ADD18RoundRect,0.250000X-0.312500X-0.625000X0.312500X-0.625000X0.312500X0.625000X-0.312500X0.625000X0*%
%TD*%
%TA.AperFunction,ViaPad*%
%ADD19C,0.800000*%
%TD*%
%TA.AperFunction,Conductor*%
%ADD20C,0.250000*%
%TD*%
%TA.AperFunction,Conductor*%
%ADD21C,0.200000*%
%TD*%
G04 APERTURE END LIST*
D10*
%TO.P,REF\u002A\u002A21,1*%
%TO.N,N/C*%
X162615000Y-259275000D03*
D11*
X164242500Y-260610000D03*
%TO.P,REF\u002A\u002A21,2*%
X162217500Y-260610000D03*
D10*
X164365000Y-259275000D03*
D11*
%TO.P,REF\u002A\u002A21,3*%
X162217500Y-261660000D03*
%TO.P,REF\u002A\u002A21,4*%
X164242500Y-261710000D03*
%TD*%
D12*
%TO.P,10 nF,1*%
%TO.N,N/C*%
X64975000Y-218150000D03*
%TO.P,10 nF,2*%
X67925000Y-218150000D03*
%TD*%
%TO.P,10 nF,1*%
%TO.N,N/C*%
X63525000Y-173000000D03*
%TO.P,10 nF,2*%
X66475000Y-173000000D03*
%TD*%
D10*
%TO.P,REF\u002A\u002A20,1*%
%TO.N,N/C*%
X114815000Y-259275000D03*
D11*
X116442500Y-260610000D03*
%TO.P,REF\u002A\u002A20,2*%
X114417500Y-260610000D03*
D10*
X116565000Y-259275000D03*
D11*
%TO.P,REF\u002A\u002A20,3*%
X114417500Y-261660000D03*
%TO.P,REF\u002A\u002A20,4*%
X116442500Y-261710000D03*
%TD*%
D12*
%TO.P,10 nF,1*%
%TO.N,N/C*%
X64825000Y-102200000D03*
%TO.P,10 nF,2*%
X67775000Y-102200000D03*
%TD*%
D13*
%TO.P,REF\u002A\u002A,1*%
%TO.N,N/C*%
X59500100Y-241237500D03*
D14*
%TO.P,REF\u002A\u002A,2*%
X59500100Y-238697500D03*
%TO.P,REF\u002A\u002A,3*%
X59500100Y-236157500D03*
%TD*%
D12*
%TO.P,10 nF,1*%
%TO.N,N/C*%
X64825000Y-127000000D03*
%TO.P,10 nF,2*%
X67775000Y-127000000D03*
%TD*%
D11*
%TO.P,REF\u002A\u002A5,1*%
%TO.N,N/C*%
X116442500Y-117210000D03*
D10*
X114815000Y-115875000D03*
D11*
%TO.P,REF\u002A\u002A5,2*%
X114417500Y-117210000D03*
D10*
X116565000Y-115875000D03*
D11*
%TO.P,REF\u002A\u002A5,3*%
X114417500Y-118260000D03*
%TO.P,REF\u002A\u002A5,4*%
X116442500Y-118310000D03*
%TD*%
D10*
%TO.P,REF\u002A\u002A3,1*%
%TO.N,N/C*%
X258215000Y-68075000D03*
D11*
X259842500Y-69410000D03*
D10*
%TO.P,REF\u002A\u002A3,2*%
X259965000Y-68075000D03*
D11*
X257817500Y-69410000D03*
%TO.P,REF\u002A\u002A3,3*%
X257817500Y-70460000D03*
%TO.P,REF\u002A\u002A3,4*%
X259842500Y-70510000D03*
%TD*%
D12*
%TO.P,10 nF,1*%
%TO.N,N/C*%
X64975000Y-193350000D03*
%TO.P,10 nF,2*%
X67925000Y-193350000D03*
%TD*%
D13*
%TO.P,REF\u002A\u002A,1*%
%TO.N,N/C*%
X59400100Y-186737500D03*
D14*
%TO.P,REF\u002A\u002A,2*%
X59400100Y-184197500D03*
%TO.P,REF\u002A\u002A,3*%
X59400100Y-181657500D03*
%TD*%
D10*
%TO.P,REF\u002A\u002A4,1*%
%TO.N,N/C*%
X306015000Y-68075000D03*
D11*
X307642500Y-69410000D03*
D10*
%TO.P,REF\u002A\u002A4,2*%
X307765000Y-68075000D03*
D11*
X305617500Y-69410000D03*
%TO.P,REF\u002A\u002A4,3*%
X305617500Y-70460000D03*
%TO.P,REF\u002A\u002A4,4*%
X307642500Y-70510000D03*
%TD*%
D15*
%TO.P,LEDs,1*%
%TO.N,N/C*%
X55387500Y-314087500D03*
D16*
%TO.P,LEDs,2*%
X60412500Y-319112500D03*
X60412500Y-309062500D03*
X50362500Y-319112500D03*
X50362500Y-309062500D03*
%TD*%
D12*
%TO.P,10 nF,1*%
%TO.N,N/C*%
X64875000Y-199950000D03*
%TO.P,10 nF,2*%
X67825000Y-199950000D03*
%TD*%
D11*
%TO.P,REF\u002A\u002A2,1*%
%TO.N,N/C*%
X212042500Y-69410000D03*
D10*
X210415000Y-68075000D03*
D11*
%TO.P,REF\u002A\u002A2,2*%
X210017500Y-69410000D03*
D10*
X212165000Y-68075000D03*
D11*
%TO.P,REF\u002A\u002A2,3*%
X210017500Y-70460000D03*
%TO.P,REF\u002A\u002A2,4*%
X212042500Y-70510000D03*
%TD*%
D10*
%TO.P,REF\u002A\u002A19,1*%
%TO.N,N/C*%
X306015000Y-211475000D03*
D11*
X307642500Y-212810000D03*
D10*
%TO.P,REF\u002A\u002A19,2*%
X307765000Y-211475000D03*
D11*
X305617500Y-212810000D03*
%TO.P,REF\u002A\u002A19,3*%
X305617500Y-213860000D03*
%TO.P,REF\u002A\u002A19,4*%
X307642500Y-213910000D03*
%TD*%
D12*
%TO.P,10 nF,1*%
%TO.N,N/C*%
X65075000Y-211550000D03*
%TO.P,10 nF,2*%
X68025000Y-211550000D03*
%TD*%
%TO.P,10 nF,1*%
%TO.N,N/C*%
X64625000Y-36100000D03*
%TO.P,10 nF,2*%
X67575000Y-36100000D03*
%TD*%
D11*
%TO.P,REF\u002A\u002A7,1*%
%TO.N,N/C*%
X212042500Y-117210000D03*
D10*
X210415000Y-115875000D03*
D11*
%TO.P,REF\u002A\u002A7,2*%
X210017500Y-117210000D03*
D10*
X212165000Y-115875000D03*
D11*
%TO.P,REF\u002A\u002A7,3*%
X210017500Y-118260000D03*
%TO.P,REF\u002A\u002A7,4*%
X212042500Y-118310000D03*
%TD*%
%TO.P,REF\u002A\u002A8,1*%
%TO.N,N/C*%
X259842500Y-117210000D03*
D10*
X258215000Y-115875000D03*
%TO.P,REF\u002A\u002A8,2*%
X259965000Y-115875000D03*
D11*
X257817500Y-117210000D03*
%TO.P,REF\u002A\u002A8,3*%
X257817500Y-118260000D03*
%TO.P,REF\u002A\u002A8,4*%
X259842500Y-118310000D03*
%TD*%
D10*
%TO.P,REF\u002A\u002A14,1*%
%TO.N,N/C*%
X306015000Y-163675000D03*
D11*
X307642500Y-165010000D03*
%TO.P,REF\u002A\u002A14,2*%
X305617500Y-165010000D03*
D10*
X307765000Y-163675000D03*
D11*
%TO.P,REF\u002A\u002A14,3*%
X305617500Y-166060000D03*
%TO.P,REF\u002A\u002A14,4*%
X307642500Y-166110000D03*
%TD*%
%TO.P,REF\u002A\u002A23,1*%
%TO.N,N/C*%
X259842500Y-260610000D03*
D10*
X258215000Y-259275000D03*
D11*
%TO.P,REF\u002A\u002A23,2*%
X257817500Y-260610000D03*
D10*
X259965000Y-259275000D03*
D11*
%TO.P,REF\u002A\u002A23,3*%
X257817500Y-261660000D03*
%TO.P,REF\u002A\u002A23,4*%
X259842500Y-261710000D03*
%TD*%
%TO.P,REF\u002A\u002A24,1*%
%TO.N,N/C*%
X307642500Y-260610000D03*
D10*
X306015000Y-259275000D03*
D11*
%TO.P,REF\u002A\u002A24,2*%
X305617500Y-260610000D03*
D10*
X307765000Y-259275000D03*
D11*
%TO.P,REF\u002A\u002A24,3*%
X305617500Y-261660000D03*
%TO.P,REF\u002A\u002A24,4*%
X307642500Y-261710000D03*
%TD*%
%TO.P,REF\u002A\u002A16,1*%
%TO.N,N/C*%
X164242500Y-212810000D03*
D10*
X162615000Y-211475000D03*
%TO.P,REF\u002A\u002A16,2*%
X164365000Y-211475000D03*
D11*
X162217500Y-212810000D03*
%TO.P,REF\u002A\u002A16,3*%
X162217500Y-213860000D03*
%TO.P,REF\u002A\u002A16,4*%
X164242500Y-213910000D03*
%TD*%
D17*
%TO.P,,3*%
%TO.N,N/C*%
X67237500Y-293687500D03*
%TD*%
D12*
%TO.P,10 nF,1*%
%TO.N,N/C*%
X65025000Y-182400000D03*
%TO.P,10 nF,2*%
X67975000Y-182400000D03*
%TD*%
%TO.P,10 nF,1*%
%TO.N,N/C*%
X64975000Y-236450000D03*
%TO.P,10 nF,2*%
X67925000Y-236450000D03*
%TD*%
%TO.P,10 nF,1*%
%TO.N,N/C*%
X64525000Y-66200000D03*
%TO.P,10 nF,2*%
X67475000Y-66200000D03*
%TD*%
D13*
%TO.P,REF\u002A\u002A,1*%
%TO.N,N/C*%
X59350100Y-132087500D03*
D14*
%TO.P,REF\u002A\u002A,2*%
X59350100Y-129547500D03*
%TO.P,REF\u002A\u002A,3*%
X59350100Y-127007500D03*
%TD*%
D13*
%TO.P,REF\u002A\u002A,1*%
%TO.N,N/C*%
X59500100Y-204977500D03*
D14*
%TO.P,REF\u002A\u002A,2*%
X59500100Y-202437500D03*
%TO.P,REF\u002A\u002A,3*%
X59500100Y-199897500D03*
%TD*%
D13*
%TO.P,REF\u002A\u002A,1*%
%TO.N,N/C*%
X59350100Y-113827500D03*
D14*
%TO.P,REF\u002A\u002A,2*%
X59350100Y-111287500D03*
%TO.P,REF\u002A\u002A,3*%
X59350100Y-108747500D03*
%TD*%
D11*
%TO.P,REF\u002A\u002A10,1*%
%TO.N,N/C*%
X116442500Y-165010000D03*
D10*
X114815000Y-163675000D03*
%TO.P,REF\u002A\u002A10,2*%
X116565000Y-163675000D03*
D11*
X114417500Y-165010000D03*
%TO.P,REF\u002A\u002A10,3*%
X114417500Y-166060000D03*
%TO.P,REF\u002A\u002A10,4*%
X116442500Y-166110000D03*
%TD*%
D12*
%TO.P,10 nF,1*%
%TO.N,N/C*%
X64825000Y-90400000D03*
%TO.P,10 nF,2*%
X67775000Y-90400000D03*
%TD*%
D11*
%TO.P,REF\u002A\u002A6,1*%
%TO.N,N/C*%
X164242500Y-117210000D03*
D10*
X162615000Y-115875000D03*
%TO.P,REF\u002A\u002A6,2*%
X164365000Y-115875000D03*
D11*
X162217500Y-117210000D03*
%TO.P,REF\u002A\u002A6,3*%
X162217500Y-118260000D03*
%TO.P,REF\u002A\u002A6,4*%
X164242500Y-118310000D03*
%TD*%
D13*
%TO.P,REF\u002A\u002A,1*%
%TO.N,N/C*%
X59250100Y-41127500D03*
D14*
%TO.P,REF\u002A\u002A,2*%
X59250100Y-38587500D03*
%TO.P,REF\u002A\u002A,3*%
X59250100Y-36047500D03*
%TD*%
D11*
%TO.P,REF\u002A\u002A17,1*%
%TO.N,N/C*%
X212042500Y-212810000D03*
D10*
X210415000Y-211475000D03*
D11*
%TO.P,REF\u002A\u002A17,2*%
X210017500Y-212810000D03*
D10*
X212165000Y-211475000D03*
D11*
%TO.P,REF\u002A\u002A17,3*%
X210017500Y-213860000D03*
%TO.P,REF\u002A\u002A17,4*%
X212042500Y-213910000D03*
%TD*%
D13*
%TO.P,REF\u002A\u002A,1*%
%TO.N,N/C*%
X59350100Y-150087500D03*
D14*
%TO.P,REF\u002A\u002A,2*%
X59350100Y-147547500D03*
%TO.P,REF\u002A\u002A,3*%
X59350100Y-145007500D03*
%TD*%
D12*
%TO.P,10 nF,1*%
%TO.N,N/C*%
X63825000Y-156700000D03*
%TO.P,10 nF,2*%
X66775000Y-156700000D03*
%TD*%
%TO.P,10 nF,1*%
%TO.N,N/C*%
X63025000Y-47900000D03*
%TO.P,10 nF,2*%
X65975000Y-47900000D03*
%TD*%
%TO.P,10 nF,1*%
%TO.N,N/C*%
X64725000Y-72600000D03*
%TO.P,10 nF,2*%
X67675000Y-72600000D03*
%TD*%
%TO.P,10 nF,1*%
%TO.N,N/C*%
X64625000Y-138900000D03*
%TO.P,10 nF,2*%
X67575000Y-138900000D03*
%TD*%
%TO.P,10 nF,1*%
%TO.N,N/C*%
X63825000Y-54300000D03*
%TO.P,10 nF,2*%
X66775000Y-54300000D03*
%TD*%
D13*
%TO.P,REF\u002A\u002A,1*%
%TO.N,N/C*%
X59350100Y-168287500D03*
D14*
%TO.P,REF\u002A\u002A,2*%
X59350100Y-165747500D03*
%TO.P,REF\u002A\u002A,3*%
X59350100Y-163207500D03*
%TD*%
D12*
%TO.P,10 nF,1*%
%TO.N,N/C*%
X63725000Y-84000000D03*
%TO.P,10 nF,2*%
X66675000Y-84000000D03*
%TD*%
D13*
%TO.P,REF\u002A\u002A,1*%
%TO.N,N/C*%
X59250100Y-95587500D03*
D14*
%TO.P,REF\u002A\u002A,2*%
X59250100Y-93047500D03*
%TO.P,REF\u002A\u002A,3*%
X59250100Y-90507500D03*
%TD*%
D10*
%TO.P,REF\u002A\u002A12,1*%
%TO.N,N/C*%
X210415000Y-163675000D03*
D11*
X212042500Y-165010000D03*
D10*
%TO.P,REF\u002A\u002A12,2*%
X212165000Y-163675000D03*
D11*
X210017500Y-165010000D03*
%TO.P,REF\u002A\u002A12,3*%
X210017500Y-166060000D03*
%TO.P,REF\u002A\u002A12,4*%
X212042500Y-166110000D03*
%TD*%
D10*
%TO.P,REF\u002A\u002A22,1*%
%TO.N,N/C*%
X210415000Y-259275000D03*
D11*
X212042500Y-260610000D03*
%TO.P,REF\u002A\u002A22,2*%
X210017500Y-260610000D03*
D10*
X212165000Y-259275000D03*
D11*
%TO.P,REF\u002A\u002A22,3*%
X210017500Y-261660000D03*
%TO.P,REF\u002A\u002A22,4*%
X212042500Y-261710000D03*
%TD*%
D12*
%TO.P,10 nF,1*%
%TO.N,N/C*%
X64775000Y-230050000D03*
%TO.P,10 nF,2*%
X67725000Y-230050000D03*
%TD*%
D11*
%TO.P,REF\u002A\u002A15,1*%
%TO.N,N/C*%
X116442500Y-212810000D03*
D10*
X114815000Y-211475000D03*
D11*
%TO.P,REF\u002A\u002A15,2*%
X114417500Y-212810000D03*
D10*
X116565000Y-211475000D03*
D11*
%TO.P,REF\u002A\u002A15,3*%
X114417500Y-213860000D03*
%TO.P,REF\u002A\u002A15,4*%
X116442500Y-213910000D03*
%TD*%
D12*
%TO.P,10 nF,1*%
%TO.N,N/C*%
X64925000Y-120400000D03*
%TO.P,10 nF,2*%
X67875000Y-120400000D03*
%TD*%
D17*
%TO.P,Temp1,1*%
%TO.N,N/C*%
X65937500Y-293687500D03*
%TO.P,Temp1,2*%
X66587500Y-293687500D03*
%TO.P,Temp1,3*%
X67237500Y-293687500D03*
%TO.P,Temp1,4*%
X67237500Y-291487500D03*
%TO.P,Temp1,5*%
X65937500Y-291487500D03*
%TD*%
D12*
%TO.P,10 nF,1*%
%TO.N,N/C*%
X65075000Y-254250000D03*
%TO.P,10 nF,2*%
X68025000Y-254250000D03*
%TD*%
D18*
%TO.P,50 \u03A9,1*%
%TO.N,N/C*%
X65337500Y-306800000D03*
%TO.P,50 \u03A9,2*%
X68262500Y-306800000D03*
%TD*%
D13*
%TO.P,REF\u002A\u002A,1*%
%TO.N,N/C*%
X59250100Y-77387500D03*
D14*
%TO.P,REF\u002A\u002A,2*%
X59250100Y-74847500D03*
%TO.P,REF\u002A\u002A,3*%
X59250100Y-72307500D03*
%TD*%
D10*
%TO.P,REF\u002A\u002A9,1*%
%TO.N,N/C*%
X306015000Y-115875000D03*
D11*
X307642500Y-117210000D03*
%TO.P,REF\u002A\u002A9,2*%
X305617500Y-117210000D03*
D10*
X307765000Y-115875000D03*
D11*
%TO.P,REF\u002A\u002A9,3*%
X305617500Y-118260000D03*
%TO.P,REF\u002A\u002A9,4*%
X307642500Y-118310000D03*
%TD*%
%TO.P,REF\u002A\u002A13,1*%
%TO.N,N/C*%
X259842500Y-165010000D03*
D10*
X258215000Y-163675000D03*
D11*
%TO.P,REF\u002A\u002A13,2*%
X257817500Y-165010000D03*
D10*
X259965000Y-163675000D03*
D11*
%TO.P,REF\u002A\u002A13,3*%
X257817500Y-166060000D03*
%TO.P,REF\u002A\u002A13,4*%
X259842500Y-166110000D03*
%TD*%
D12*
%TO.P,10 nF,1*%
%TO.N,N/C*%
X63975000Y-247850000D03*
%TO.P,10 nF,2*%
X66925000Y-247850000D03*
%TD*%
D11*
%TO.P,REF\u002A\u002A1,1*%
%TO.N,N/C*%
X164242500Y-69410000D03*
D10*
X162615000Y-68075000D03*
%TO.P,REF\u002A\u002A1,2*%
X164365000Y-68075000D03*
D11*
X162217500Y-69410000D03*
%TO.P,REF\u002A\u002A1,3*%
X162217500Y-70460000D03*
%TO.P,REF\u002A\u002A1,4*%
X164242500Y-70510000D03*
%TD*%
D12*
%TO.P,10 nF,1*%
%TO.N,N/C*%
X64825000Y-145300000D03*
%TO.P,10 nF,2*%
X67775000Y-145300000D03*
%TD*%
D13*
%TO.P,REF\u002A\u002A,1*%
%TO.N,N/C*%
X59250100Y-59387500D03*
D14*
%TO.P,REF\u002A\u002A,2*%
X59250100Y-56847500D03*
%TO.P,REF\u002A\u002A,3*%
X59250100Y-54307500D03*
%TD*%
D10*
%TO.P,REF\u002A\u002A18,1*%
%TO.N,N/C*%
X258215000Y-211475000D03*
D11*
X259842500Y-212810000D03*
%TO.P,REF\u002A\u002A18,2*%
X257817500Y-212810000D03*
D10*
X259965000Y-211475000D03*
D11*
%TO.P,REF\u002A\u002A18,3*%
X257817500Y-213860000D03*
%TO.P,REF\u002A\u002A18,4*%
X259842500Y-213910000D03*
%TD*%
D13*
%TO.P,REF\u002A\u002A,1*%
%TO.N,N/C*%
X59500100Y-223237500D03*
D14*
%TO.P,REF\u002A\u002A,2*%
X59500100Y-220697500D03*
%TO.P,REF\u002A\u002A,3*%
X59500100Y-218157500D03*
%TD*%
D13*
%TO.P,REF\u002A\u002A,1*%
%TO.N,N/C*%
X59500100Y-259437500D03*
D14*
%TO.P,REF\u002A\u002A,2*%
X59500100Y-256897500D03*
%TO.P,REF\u002A\u002A,3*%
X59500100Y-254357500D03*
%TD*%
D12*
%TO.P,10 nF,1*%
%TO.N,N/C*%
X64725000Y-108800000D03*
%TO.P,10 nF,2*%
X67675000Y-108800000D03*
%TD*%
D10*
%TO.P,REF\u002A\u002A,1*%
%TO.N,N/C*%
X114815000Y-68075000D03*
D11*
X116442500Y-69410000D03*
%TO.P,REF\u002A\u002A,2*%
X114417500Y-69410000D03*
D10*
X116565000Y-68075000D03*
D11*
%TO.P,REF\u002A\u002A,3*%
X114417500Y-70460000D03*
%TO.P,REF\u002A\u002A,4*%
X116442500Y-70510000D03*
%TD*%
D12*
%TO.P,10 nF,1*%
%TO.N,N/C*%
X63925000Y-161700000D03*
%TO.P,10 nF,2*%
X66875000Y-161700000D03*
%TD*%
D11*
%TO.P,REF\u002A\u002A11,1*%
%TO.N,N/C*%
X164242500Y-165010000D03*
D10*
X162615000Y-163675000D03*
%TO.P,REF\u002A\u002A11,2*%
X164365000Y-163675000D03*
D11*
X162217500Y-165010000D03*
%TO.P,REF\u002A\u002A11,3*%
X162217500Y-166060000D03*
%TO.P,REF\u002A\u002A11,4*%
X164242500Y-166110000D03*
%TD*%
D13*
%TO.P,REF\u002A\u002A,1*%
%TO.N,N/C*%
X59350100Y-172312500D03*
D14*
%TO.P,REF\u002A\u002A,2*%
X59350100Y-174852500D03*
%TO.P,REF\u002A\u002A,3*%
X59350100Y-177392500D03*
%TD*%
D13*
%TO.P,REF\u002A\u002A,1*%
%TO.N,N/C*%
X59250100Y-99612500D03*
D14*
%TO.P,REF\u002A\u002A,2*%
X59250100Y-102152500D03*
%TO.P,REF\u002A\u002A,3*%
X59250100Y-104692500D03*
%TD*%
D13*
%TO.P,REF\u002A\u002A,1*%
%TO.N,N/C*%
X59350100Y-135912500D03*
D14*
%TO.P,REF\u002A\u002A,2*%
X59350100Y-138452500D03*
%TO.P,REF\u002A\u002A,3*%
X59350100Y-140992500D03*
%TD*%
D13*
%TO.P,REF\u002A\u002A,1*%
%TO.N,N/C*%
X60437600Y-290100000D03*
D14*
%TO.P,REF\u002A\u002A,2*%
X60437600Y-292640000D03*
%TO.P,REF\u002A\u002A,3*%
X60437600Y-295180000D03*
%TD*%
D13*
%TO.P,REF\u002A\u002A,1*%
%TO.N,N/C*%
X59450000Y-245250000D03*
D14*
%TO.P,REF\u002A\u002A,2*%
X59450000Y-247790000D03*
%TO.P,REF\u002A\u002A,3*%
X59450000Y-250330000D03*
%TD*%
D13*
%TO.P,REF\u002A\u002A,1*%
%TO.N,N/C*%
X59250100Y-63212500D03*
D14*
%TO.P,REF\u002A\u002A,2*%
X59250100Y-65752500D03*
%TO.P,REF\u002A\u002A,3*%
X59250100Y-68292500D03*
%TD*%
D13*
%TO.P,REF\u002A\u002A,1*%
%TO.N,N/C*%
X59400100Y-190762500D03*
D14*
%TO.P,REF\u002A\u002A,2*%
X59400100Y-193302500D03*
%TO.P,REF\u002A\u002A,3*%
X59400100Y-195842500D03*
%TD*%
D13*
%TO.P,REF\u002A\u002A,1*%
%TO.N,N/C*%
X59200000Y-81400000D03*
D14*
%TO.P,REF\u002A\u002A,2*%
X59200000Y-83940000D03*
%TO.P,REF\u002A\u002A,3*%
X59200000Y-86480000D03*
%TD*%
D13*
%TO.P,REF\u002A\u002A,1*%
%TO.N,N/C*%
X59350100Y-117912500D03*
D14*
%TO.P,REF\u002A\u002A,2*%
X59350100Y-120452500D03*
%TO.P,REF\u002A\u002A,3*%
X59350100Y-122992500D03*
%TD*%
D13*
%TO.P,REF\u002A\u002A,1*%
%TO.N,N/C*%
X59500100Y-227062500D03*
D14*
%TO.P,REF\u002A\u002A,2*%
X59500100Y-229602500D03*
%TO.P,REF\u002A\u002A,3*%
X59500100Y-232142500D03*
%TD*%
D13*
%TO.P,REF\u002A\u002A,1*%
%TO.N,N/C*%
X59500100Y-209062500D03*
D14*
%TO.P,REF\u002A\u002A,2*%
X59500100Y-211602500D03*
%TO.P,REF\u002A\u002A,3*%
X59500100Y-214142500D03*
%TD*%
D13*
%TO.P,REF\u002A\u002A,1*%
%TO.N,N/C*%
X59300000Y-154100000D03*
D14*
%TO.P,REF\u002A\u002A,2*%
X59300000Y-156640000D03*
%TO.P,REF\u002A\u002A,3*%
X59300000Y-159180000D03*
%TD*%
D13*
%TO.P,REF\u002A\u002A,1*%
%TO.N,N/C*%
X59250100Y-45212500D03*
D14*
%TO.P,REF\u002A\u002A,2*%
X59250100Y-47752500D03*
%TO.P,REF\u002A\u002A,3*%
X59250100Y-50292500D03*
%TD*%
D19*
%TO.N,*%
X70000000Y-54300000D03*
X163200000Y-262700000D03*
X71500000Y-168500000D03*
X70200000Y-59100000D03*
X256900000Y-118200000D03*
X261000000Y-115800000D03*
X163300000Y-167200000D03*
X67800000Y-168900000D03*
X66150000Y-245250000D03*
X213200000Y-211400000D03*
X308800000Y-68000000D03*
X161500000Y-163700000D03*
X213200000Y-68000000D03*
X113500000Y-166100000D03*
X209100000Y-118200000D03*
X70300000Y-131800000D03*
X211000000Y-262700000D03*
X113500000Y-213800000D03*
X72400000Y-96200000D03*
X69050000Y-241250000D03*
X67112500Y-63212500D03*
X304900000Y-259300000D03*
X113700000Y-211500000D03*
X72300000Y-127300000D03*
X69950000Y-200450000D03*
X256800000Y-166100000D03*
X66000000Y-154100000D03*
X304700000Y-261600000D03*
X72400000Y-259500000D03*
X117600000Y-163600000D03*
X163200000Y-71500000D03*
X209300000Y-115900000D03*
X72400000Y-308200000D03*
X163300000Y-119300000D03*
X113700000Y-163700000D03*
X113700000Y-259300000D03*
X67362500Y-227062500D03*
X70850000Y-261850000D03*
X257100000Y-115900000D03*
X306600000Y-262600000D03*
X67212500Y-135912500D03*
X113500000Y-70500000D03*
X161500000Y-115900000D03*
X161300000Y-261700000D03*
X209000000Y-261700000D03*
X71800000Y-241237500D03*
X113500000Y-118200000D03*
X209300000Y-211500000D03*
X257100000Y-211500000D03*
X161200000Y-70400000D03*
X70750000Y-189150000D03*
X66100000Y-41637506D03*
X115500000Y-119300000D03*
X115500000Y-167100000D03*
X161500000Y-68100000D03*
X117600000Y-68000000D03*
X211100000Y-167100000D03*
X209300000Y-68100000D03*
X308800000Y-259200000D03*
X304900000Y-163700000D03*
X70150000Y-192150000D03*
X256800000Y-70400000D03*
X161500000Y-259300000D03*
X306600000Y-167200000D03*
X65900000Y-81400000D03*
X67887500Y-291437500D03*
X115500000Y-71600000D03*
X308800000Y-211400000D03*
X257100000Y-163700000D03*
X165400000Y-259200000D03*
X70100000Y-38000000D03*
X69800000Y-109300000D03*
X67887500Y-293637500D03*
X117600000Y-259200000D03*
X67862500Y-209062500D03*
X69950000Y-256550000D03*
X115400000Y-262700000D03*
X69700000Y-92700000D03*
X211000000Y-119300000D03*
X304600000Y-213800000D03*
X71800000Y-74200000D03*
X68800000Y-77400000D03*
X258800000Y-262700000D03*
X261000000Y-259200000D03*
X65937500Y-292587500D03*
X256800000Y-213900000D03*
X209000000Y-213800000D03*
X161200000Y-213800000D03*
X209000000Y-166000000D03*
X70250000Y-218150000D03*
X69700000Y-36600000D03*
X67612500Y-45212500D03*
X72200000Y-318000000D03*
X213200000Y-115800000D03*
X161300000Y-118300000D03*
X304900000Y-68100000D03*
X163300000Y-214900000D03*
X304600000Y-70400000D03*
X72400000Y-204100000D03*
X308800000Y-115800000D03*
X165400000Y-211400000D03*
X165400000Y-68000000D03*
X161500000Y-211500000D03*
X306600000Y-71500000D03*
X68800000Y-72600000D03*
X211100000Y-71500000D03*
X113400000Y-261600000D03*
X117600000Y-115800000D03*
X161100000Y-166100000D03*
X308800000Y-163600000D03*
X69100000Y-112600000D03*
X258900000Y-71500000D03*
X113700000Y-115900000D03*
X261000000Y-68000000D03*
X261000000Y-211400000D03*
X70600000Y-98000000D03*
X72700000Y-187500000D03*
X306800000Y-214900000D03*
X72900000Y-238200000D03*
X67712500Y-117912500D03*
X70000000Y-101000000D03*
X68900000Y-150100000D03*
X115400000Y-215000000D03*
X69050000Y-236450000D03*
X71300000Y-147600000D03*
X165400000Y-163600000D03*
X165400000Y-115800000D03*
X72100000Y-56800000D03*
X304900000Y-115900000D03*
X257100000Y-68100000D03*
X213200000Y-259200000D03*
X117600000Y-211400000D03*
X258800000Y-215000000D03*
X209300000Y-259300000D03*
X211100000Y-214900000D03*
X66200000Y-114337506D03*
X68100000Y-161800000D03*
X261000000Y-163600000D03*
X113700000Y-68100000D03*
X256900000Y-261700000D03*
X213200000Y-163600000D03*
X66350000Y-205487506D03*
X304600000Y-166100000D03*
X70100000Y-173700000D03*
X257100000Y-259300000D03*
X258800000Y-167100000D03*
X209300000Y-163700000D03*
X70450000Y-222950000D03*
X71500000Y-219900000D03*
X68900000Y-145300000D03*
X209000000Y-70500000D03*
X304600000Y-118200000D03*
X69850000Y-183850000D03*
X306600000Y-119400000D03*
X304900000Y-211500000D03*
X258900000Y-119300000D03*
X70100000Y-127000000D03*
%TD*%
D20*
%TO.N,*%
X72100000Y-56800000D02*
X69800000Y-56800000D01*
X69800000Y-56800000D02*
X69752500Y-56847500D01*
X69752500Y-56847500D02*
X59250100Y-56847500D01*
D21*
X63025000Y-47900000D02*
X60632500Y-50292500D01*
X60632500Y-50292500D02*
X59250100Y-50292500D01*
X65975000Y-47900000D02*
X67612500Y-46262500D01*
X67612500Y-46262500D02*
X67612500Y-45212500D01*
X59250100Y-54307500D02*
X63817500Y-54307500D01*
X63817500Y-54307500D02*
X63825000Y-54300000D01*
X66775000Y-54300000D02*
X70000000Y-54300000D01*
X59250100Y-45212500D02*
X62987500Y-45212500D01*
X62987500Y-45212500D02*
X64800000Y-43400000D01*
X64800000Y-43400000D02*
X67200000Y-43400000D01*
X67200000Y-43400000D02*
X67612500Y-43812500D01*
X67612500Y-43812500D02*
X67612500Y-45212500D01*
D20*
X71450000Y-168450000D02*
X71500000Y-168500000D01*
X67713497Y-167013497D02*
X69150000Y-168450000D01*
X69150000Y-168450000D02*
X71450000Y-168450000D01*
X67800000Y-168900000D02*
X67600000Y-168900000D01*
X67600000Y-168900000D02*
X66987500Y-168287500D01*
X66987500Y-168287500D02*
X59350100Y-168287500D01*
X63925000Y-161700000D02*
X62417500Y-163207500D01*
X62417500Y-163207500D02*
X59350100Y-163207500D01*
D21*
X210017500Y-261660000D02*
X209040000Y-261660000D01*
X209957500Y-166000000D02*
X210017500Y-166060000D01*
X161260000Y-213860000D02*
X161200000Y-213800000D01*
D20*
X69950000Y-200450000D02*
X69450000Y-199950000D01*
D21*
X162910000Y-165010000D02*
X163300000Y-165400000D01*
D20*
X69450000Y-199950000D02*
X67225000Y-199950000D01*
D21*
X259965000Y-211475000D02*
X260925000Y-211475000D01*
D20*
X59500100Y-241237500D02*
X71800000Y-241237500D01*
D21*
X305557500Y-70400000D02*
X305617500Y-70460000D01*
X61457500Y-214142500D02*
X64050000Y-211550000D01*
X304600000Y-118200000D02*
X305557500Y-118200000D01*
X306600000Y-117900000D02*
X306600000Y-119400000D01*
X209000000Y-70500000D02*
X209977500Y-70500000D01*
D20*
X257100000Y-211500000D02*
X258190000Y-211500000D01*
D21*
X162810000Y-69410000D02*
X163200000Y-69800000D01*
X258900000Y-117700000D02*
X258900000Y-119300000D01*
X256900000Y-261700000D02*
X257777500Y-261700000D01*
X210810000Y-69410000D02*
X211100000Y-69700000D01*
X114417500Y-260610000D02*
X115110000Y-260610000D01*
X163300000Y-261000000D02*
X163300000Y-262600000D01*
D20*
X59270100Y-39097506D02*
X66397506Y-39097506D01*
D21*
X68800000Y-102200000D02*
X67775000Y-102200000D01*
X164365000Y-115875000D02*
X165325000Y-115875000D01*
X115110000Y-260610000D02*
X115400000Y-260900000D01*
X63275000Y-173250000D02*
X59350100Y-177174900D01*
X114377500Y-166100000D02*
X114417500Y-166060000D01*
X70100000Y-173700000D02*
X66600000Y-170200000D01*
X305577500Y-166100000D02*
X305617500Y-166060000D01*
D20*
X161500000Y-68100000D02*
X162590000Y-68100000D01*
D21*
X210017500Y-213860000D02*
X209060000Y-213860000D01*
X258900000Y-213500000D02*
X258900000Y-214900000D01*
X210017500Y-117210000D02*
X210610000Y-117210000D01*
X67725000Y-227425000D02*
X67725000Y-230050000D01*
X69850000Y-254250000D02*
X69950000Y-254350000D01*
X114910000Y-165010000D02*
X114417500Y-165010000D01*
X211100000Y-165700000D02*
X211100000Y-167100000D01*
X116565000Y-115875000D02*
X117525000Y-115875000D01*
X63972500Y-36047500D02*
X64525000Y-36600000D01*
D20*
X71500000Y-219900000D02*
X70800000Y-219900000D01*
D21*
X61345000Y-159180000D02*
X59300000Y-159180000D01*
X59350100Y-177174900D02*
X59350100Y-177392500D01*
X66000000Y-154100000D02*
X66775000Y-154875000D01*
X67362500Y-227062500D02*
X59500100Y-227062500D01*
D20*
X69012500Y-132087500D02*
X69300000Y-131800000D01*
X65839994Y-204977500D02*
X66350000Y-205487506D01*
D21*
X305617500Y-69410000D02*
X305910000Y-69410000D01*
X212165000Y-115875000D02*
X213125000Y-115875000D01*
X67112500Y-63212500D02*
X67475000Y-63575000D01*
D20*
X70850000Y-261850000D02*
X68175000Y-261850000D01*
D21*
X113500000Y-166100000D02*
X114377500Y-166100000D01*
D20*
X59500100Y-256897500D02*
X63897500Y-256897500D01*
D21*
X67712500Y-117912500D02*
X67712500Y-120237500D01*
X258210000Y-260610000D02*
X258900000Y-261300000D01*
D20*
X72100000Y-127300000D02*
X72300000Y-127300000D01*
D21*
X69700000Y-92700000D02*
X69700000Y-90500000D01*
X258900000Y-262600000D02*
X258800000Y-262700000D01*
X67775000Y-145300000D02*
X67575000Y-145100000D01*
D20*
X59887700Y-132087500D02*
X69012500Y-132087500D01*
D21*
X306700000Y-262500000D02*
X306600000Y-262600000D01*
D20*
X67502494Y-39097506D02*
X68600000Y-38000000D01*
X257100000Y-115900000D02*
X258190000Y-115900000D01*
D21*
X305617500Y-212810000D02*
X306110000Y-212810000D01*
D20*
X65337500Y-310937500D02*
X65337500Y-306800000D01*
X69200000Y-59100000D02*
X70200000Y-59100000D01*
X64600000Y-72400000D02*
X59342600Y-72400000D01*
X62187500Y-314087500D02*
X65337500Y-310937500D01*
X72900000Y-238200000D02*
X72950000Y-238250000D01*
D21*
X305617500Y-117210000D02*
X305910000Y-117210000D01*
X63725000Y-84000000D02*
X61245000Y-86480000D01*
X62482500Y-195842500D02*
X59400100Y-195842500D01*
X211100000Y-213500000D02*
X211100000Y-214900000D01*
X116565000Y-259275000D02*
X117525000Y-259275000D01*
X210510000Y-260610000D02*
X211000000Y-261100000D01*
X70100000Y-127000000D02*
X67775000Y-127000000D01*
D20*
X69162500Y-223237500D02*
X60037700Y-223237500D01*
D21*
X65937500Y-291287500D02*
X65937500Y-292437500D01*
D20*
X72950000Y-238350000D02*
X72602500Y-238697500D01*
X63525000Y-90507500D02*
X59250100Y-90507500D01*
D21*
X162910000Y-260610000D02*
X163300000Y-261000000D01*
X258410000Y-117210000D02*
X258900000Y-117700000D01*
D20*
X59250100Y-54307500D02*
X59257600Y-54300000D01*
D21*
X259965000Y-259275000D02*
X260925000Y-259275000D01*
D20*
X304900000Y-211500000D02*
X305990000Y-211500000D01*
X72200000Y-96400000D02*
X72400000Y-96200000D01*
X64975000Y-218150000D02*
X64775000Y-217950000D01*
X71087500Y-319112500D02*
X60412500Y-319112500D01*
D21*
X164365000Y-68075000D02*
X165325000Y-68075000D01*
D20*
X69950000Y-260250000D02*
X70050000Y-260350000D01*
X209300000Y-163700000D02*
X210390000Y-163700000D01*
D21*
X67712500Y-120237500D02*
X67875000Y-120400000D01*
X68775000Y-182400000D02*
X68900000Y-182400000D01*
D20*
X69850000Y-187550000D02*
X69950000Y-187650000D01*
X69950000Y-260250000D02*
X71650000Y-260250000D01*
X64717500Y-90507500D02*
X64825000Y-90400000D01*
X69700000Y-96400000D02*
X69800000Y-96500000D01*
D21*
X62332500Y-104692500D02*
X59250100Y-104692500D01*
X70000000Y-101000000D02*
X68612500Y-99612500D01*
D20*
X69850000Y-187550000D02*
X72650000Y-187550000D01*
D21*
X69600000Y-90400000D02*
X69700000Y-90500000D01*
D20*
X59400100Y-184197500D02*
X63797500Y-184197500D01*
D21*
X67112500Y-63212500D02*
X59250100Y-63212500D01*
X114357500Y-261600000D02*
X114417500Y-261660000D01*
D20*
X64967500Y-254357500D02*
X65075000Y-254250000D01*
X69450000Y-222950000D02*
X69162500Y-223237500D01*
X113700000Y-115900000D02*
X114790000Y-115900000D01*
X257100000Y-68100000D02*
X258190000Y-68100000D01*
D21*
X65937500Y-292437500D02*
X65937500Y-293487500D01*
D20*
X63675000Y-181657500D02*
X59400100Y-181657500D01*
D21*
X212165000Y-68075000D02*
X213125000Y-68075000D01*
X70250000Y-218150000D02*
X67925000Y-218150000D01*
X258210000Y-212810000D02*
X258900000Y-213500000D01*
D20*
X59342600Y-72400000D02*
X59250100Y-72307500D01*
X65512500Y-95587500D02*
X59250100Y-95587500D01*
D21*
X258900000Y-214900000D02*
X258800000Y-215000000D01*
X164365000Y-211475000D02*
X165325000Y-211475000D01*
D20*
X69852500Y-129547500D02*
X72100000Y-127300000D01*
X59370100Y-111797506D02*
X68297506Y-111797506D01*
X59500100Y-204977500D02*
X65839994Y-204977500D01*
X72400000Y-308200000D02*
X69662500Y-308200000D01*
D21*
X305910000Y-117210000D02*
X306600000Y-117900000D01*
X210017500Y-260610000D02*
X210510000Y-260610000D01*
X259965000Y-163675000D02*
X260925000Y-163675000D01*
X163300000Y-165400000D02*
X163300000Y-167200000D01*
D20*
X65689994Y-113827500D02*
X66200000Y-114337506D01*
X209300000Y-211500000D02*
X210390000Y-211500000D01*
D21*
X162177500Y-166100000D02*
X162217500Y-166060000D01*
X67862500Y-209062500D02*
X67862500Y-211387500D01*
X256840000Y-213860000D02*
X256800000Y-213900000D01*
D20*
X69700000Y-96400000D02*
X72200000Y-96400000D01*
D21*
X67212500Y-135912500D02*
X59350100Y-135912500D01*
D20*
X63525000Y-90507500D02*
X64717500Y-90507500D01*
D21*
X64975000Y-193350000D02*
X62482500Y-195842500D01*
X162217500Y-117210000D02*
X162810000Y-117210000D01*
X64222500Y-199897500D02*
X64775000Y-200450000D01*
X64050000Y-211550000D02*
X65075000Y-211550000D01*
X161200000Y-70400000D02*
X162157500Y-70400000D01*
D20*
X67613497Y-94313497D02*
X69700000Y-96400000D01*
D21*
X164365000Y-163675000D02*
X165325000Y-163675000D01*
D20*
X113700000Y-211500000D02*
X114790000Y-211500000D01*
D21*
X65900000Y-81400000D02*
X66675000Y-82175000D01*
D20*
X67763497Y-185463497D02*
X69850000Y-187550000D01*
X59500100Y-218157500D02*
X59507600Y-218150000D01*
X59507600Y-218150000D02*
X64975000Y-218150000D01*
X64913497Y-94313497D02*
X67613497Y-94313497D01*
X71152500Y-74847500D02*
X59250100Y-74847500D01*
D21*
X59500100Y-214142500D02*
X61457500Y-214142500D01*
X257777500Y-261700000D02*
X257817500Y-261660000D01*
D20*
X65163497Y-258163497D02*
X67863497Y-258163497D01*
D21*
X70000000Y-101000000D02*
X68800000Y-102200000D01*
D20*
X69662500Y-308200000D02*
X68262500Y-306800000D01*
X59350100Y-165747500D02*
X63747500Y-165747500D01*
X67925000Y-98000000D02*
X65512500Y-95587500D01*
D21*
X162810000Y-117210000D02*
X163300000Y-117700000D01*
X64775000Y-230050000D02*
X61592600Y-230050000D01*
X210410000Y-165010000D02*
X211100000Y-165700000D01*
X64625000Y-138900000D02*
X61442600Y-138900000D01*
X114417500Y-212810000D02*
X115010000Y-212810000D01*
X210017500Y-69410000D02*
X210810000Y-69410000D01*
D20*
X68600000Y-38000000D02*
X70100000Y-38000000D01*
D21*
X68900000Y-145300000D02*
X67775000Y-145300000D01*
X63000000Y-170200000D02*
X60887500Y-172312500D01*
X69850000Y-183850000D02*
X69850000Y-181650000D01*
X163300000Y-213400000D02*
X163300000Y-214900000D01*
X67862500Y-211387500D02*
X68025000Y-211550000D01*
D20*
X59357600Y-127000000D02*
X64825000Y-127000000D01*
D21*
X66150000Y-245250000D02*
X66925000Y-246025000D01*
D20*
X67863497Y-258163497D02*
X69950000Y-260250000D01*
X114790000Y-68100000D02*
X114815000Y-68075000D01*
X257100000Y-259300000D02*
X258190000Y-259300000D01*
X304900000Y-163700000D02*
X305990000Y-163700000D01*
D21*
X67675000Y-72600000D02*
X67475000Y-72400000D01*
D20*
X64700000Y-145100000D02*
X59442600Y-145100000D01*
D21*
X69400000Y-173000000D02*
X66475000Y-173000000D01*
X70150000Y-192150000D02*
X68762500Y-190762500D01*
D20*
X113500000Y-70500000D02*
X114377500Y-70500000D01*
X68175000Y-261850000D02*
X65762500Y-259437500D01*
D21*
X59350100Y-108747500D02*
X64072500Y-108747500D01*
X68025000Y-254250000D02*
X69850000Y-254250000D01*
D20*
X69200000Y-36100000D02*
X66975000Y-36100000D01*
D21*
X257817500Y-166060000D02*
X256840000Y-166060000D01*
D20*
X71650000Y-260250000D02*
X72400000Y-259500000D01*
X64850000Y-236250000D02*
X59592600Y-236250000D01*
D21*
X115500000Y-165600000D02*
X114910000Y-165010000D01*
X67575000Y-136275000D02*
X67575000Y-138900000D01*
D20*
X71800000Y-74200000D02*
X71152500Y-74847500D01*
D21*
X59500100Y-199897500D02*
X64222500Y-199897500D01*
D20*
X63647500Y-93047500D02*
X64913497Y-94313497D01*
D21*
X59250100Y-77387500D02*
X68787500Y-77387500D01*
D20*
X59592600Y-236250000D02*
X59500100Y-236157500D01*
D21*
X113400000Y-261600000D02*
X114357500Y-261600000D01*
X210610000Y-117210000D02*
X211000000Y-117600000D01*
X306800000Y-167000000D02*
X306600000Y-167200000D01*
D20*
X63775000Y-254357500D02*
X59500100Y-254357500D01*
X72200000Y-318000000D02*
X71087500Y-319112500D01*
D21*
X68787500Y-77387500D02*
X68800000Y-77400000D01*
X61442600Y-138900000D02*
X59350100Y-140992500D01*
X115010000Y-212810000D02*
X115400000Y-213200000D01*
D20*
X63775000Y-254357500D02*
X64967500Y-254357500D01*
X63675000Y-181657500D02*
X64867500Y-181657500D01*
D21*
X162217500Y-165010000D02*
X162910000Y-165010000D01*
X61495000Y-250330000D02*
X59450000Y-250330000D01*
X210017500Y-212810000D02*
X210410000Y-212810000D01*
X59350100Y-122992500D02*
X61307500Y-122992500D01*
X162217500Y-212810000D02*
X162710000Y-212810000D01*
X306110000Y-212810000D02*
X306800000Y-213500000D01*
D20*
X63747500Y-165747500D02*
X65013497Y-167013497D01*
D21*
X210017500Y-165010000D02*
X210410000Y-165010000D01*
X67925000Y-181550000D02*
X68775000Y-182400000D01*
D20*
X69300000Y-131800000D02*
X70300000Y-131800000D01*
D21*
X258900000Y-261300000D02*
X258900000Y-262600000D01*
D20*
X209300000Y-68100000D02*
X210390000Y-68100000D01*
X113700000Y-259300000D02*
X114790000Y-259300000D01*
D21*
X115500000Y-167100000D02*
X115500000Y-165600000D01*
D20*
X68075000Y-189150000D02*
X65662500Y-186737500D01*
D21*
X211100000Y-69700000D02*
X211100000Y-71500000D01*
X68800000Y-72600000D02*
X67675000Y-72600000D01*
X66587500Y-293637500D02*
X65937500Y-293637500D01*
D20*
X115500000Y-71600000D02*
X115500000Y-69700000D01*
D21*
X66675000Y-82175000D02*
X66675000Y-84000000D01*
X67775000Y-90400000D02*
X69600000Y-90400000D01*
D20*
X65013497Y-167013497D02*
X67713497Y-167013497D01*
D21*
X61245000Y-86480000D02*
X59200000Y-86480000D01*
X258900000Y-69800000D02*
X258900000Y-71500000D01*
X66600000Y-170200000D02*
X63000000Y-170200000D01*
X258310000Y-165010000D02*
X258800000Y-165500000D01*
X67362500Y-227062500D02*
X67725000Y-227425000D01*
X209000000Y-166000000D02*
X209957500Y-166000000D01*
X257817500Y-117210000D02*
X258410000Y-117210000D01*
D20*
X71247500Y-147547500D02*
X59350100Y-147547500D01*
D21*
X161300000Y-261700000D02*
X162177500Y-261700000D01*
D20*
X115500000Y-69700000D02*
X115210000Y-69410000D01*
X59350100Y-131549900D02*
X59887700Y-132087500D01*
D21*
X257817500Y-213860000D02*
X256840000Y-213860000D01*
X67925000Y-236450000D02*
X67725000Y-236250000D01*
X162177500Y-261700000D02*
X162217500Y-261660000D01*
X104640000Y-56100000D02*
X104615000Y-56125000D01*
X306310000Y-260610000D02*
X306700000Y-261000000D01*
X307765000Y-115875000D02*
X308725000Y-115875000D01*
X67475000Y-63575000D02*
X67475000Y-66200000D01*
X115400000Y-260900000D02*
X115400000Y-262700000D01*
X162217500Y-213860000D02*
X161260000Y-213860000D01*
X63975000Y-247850000D02*
X61495000Y-250330000D01*
X163300000Y-117700000D02*
X163300000Y-119300000D01*
X59200000Y-81400000D02*
X65900000Y-81400000D01*
X116565000Y-68075000D02*
X117525000Y-68075000D01*
X68950000Y-193350000D02*
X67925000Y-193350000D01*
D20*
X209300000Y-259300000D02*
X210390000Y-259300000D01*
D21*
X161300000Y-118300000D02*
X162177500Y-118300000D01*
D20*
X70800000Y-219900000D02*
X70000000Y-220700000D01*
X65063497Y-185463497D02*
X67763497Y-185463497D01*
X63797500Y-184197500D02*
X65063497Y-185463497D01*
D21*
X257817500Y-165010000D02*
X258310000Y-165010000D01*
X68612500Y-99612500D02*
X59250100Y-99612500D01*
D20*
X161500000Y-259300000D02*
X162590000Y-259300000D01*
D21*
X306800000Y-213500000D02*
X306800000Y-214900000D01*
X64072500Y-108747500D02*
X64625000Y-109300000D01*
D20*
X161500000Y-163700000D02*
X162590000Y-163700000D01*
D21*
X306700000Y-261000000D02*
X306700000Y-262500000D01*
D20*
X257100000Y-163700000D02*
X258190000Y-163700000D01*
X59500100Y-220697500D02*
X70002500Y-220697500D01*
X70750000Y-189150000D02*
X68075000Y-189150000D01*
D21*
X210017500Y-118260000D02*
X209160000Y-118260000D01*
X114357500Y-213800000D02*
X114417500Y-213860000D01*
X307765000Y-68075000D02*
X308725000Y-68075000D01*
D20*
X59250100Y-58849900D02*
X59787700Y-59387500D01*
D21*
X305617500Y-261660000D02*
X304760000Y-261660000D01*
D20*
X161500000Y-211500000D02*
X162590000Y-211500000D01*
D21*
X68900000Y-182400000D02*
X69750000Y-181550000D01*
X162217500Y-260610000D02*
X162910000Y-260610000D01*
X259965000Y-115875000D02*
X260925000Y-115875000D01*
X212165000Y-211475000D02*
X213125000Y-211475000D01*
D20*
X69300000Y-108800000D02*
X67075000Y-108800000D01*
X65762500Y-259437500D02*
X59500100Y-259437500D01*
D21*
X257817500Y-69410000D02*
X258510000Y-69410000D01*
X257757500Y-70400000D02*
X257817500Y-70460000D01*
D20*
X115210000Y-69410000D02*
X114417500Y-69410000D01*
X59442600Y-145100000D02*
X59350100Y-145007500D01*
D21*
X305910000Y-69410000D02*
X306600000Y-70100000D01*
X66925000Y-246025000D02*
X66925000Y-247850000D01*
X209060000Y-213860000D02*
X209000000Y-213800000D01*
X305617500Y-165010000D02*
X306010000Y-165010000D01*
X306800000Y-165800000D02*
X306800000Y-167000000D01*
D20*
X113700000Y-163700000D02*
X114790000Y-163700000D01*
D21*
X162710000Y-212810000D02*
X163300000Y-213400000D01*
X70150000Y-192150000D02*
X68950000Y-193350000D01*
X63825000Y-156700000D02*
X61345000Y-159180000D01*
X304660000Y-213860000D02*
X304600000Y-213800000D01*
X68762500Y-190762500D02*
X59400100Y-190762500D01*
X67212500Y-135912500D02*
X67575000Y-136275000D01*
D20*
X69700000Y-36600000D02*
X69200000Y-36100000D01*
D21*
X70100000Y-173700000D02*
X69400000Y-173000000D01*
X210410000Y-212810000D02*
X211100000Y-213500000D01*
X59250100Y-41127500D02*
X65589994Y-41127500D01*
D20*
X63897500Y-256897500D02*
X65163497Y-258163497D01*
X72602500Y-238697500D02*
X59500100Y-238697500D01*
X304900000Y-115900000D02*
X305990000Y-115900000D01*
X66397506Y-39097506D02*
X67502494Y-39097506D01*
D21*
X59300000Y-154100000D02*
X66000000Y-154100000D01*
D20*
X69800000Y-109300000D02*
X69300000Y-108800000D01*
X72650000Y-187550000D02*
X72700000Y-187500000D01*
D21*
X305557500Y-118200000D02*
X305617500Y-118260000D01*
X116565000Y-163675000D02*
X117525000Y-163675000D01*
D20*
X59250100Y-93047500D02*
X63647500Y-93047500D01*
D21*
X67237500Y-293637500D02*
X67887500Y-293637500D01*
X256800000Y-70400000D02*
X257757500Y-70400000D01*
D20*
X55387500Y-314087500D02*
X62187500Y-314087500D01*
X113700000Y-68100000D02*
X114790000Y-68100000D01*
X72950000Y-238250000D02*
X72950000Y-238350000D01*
D21*
X69950000Y-256550000D02*
X69950000Y-254350000D01*
D20*
X304900000Y-68100000D02*
X305990000Y-68100000D01*
X59520100Y-202947506D02*
X71247506Y-202947506D01*
D21*
X64825000Y-102200000D02*
X62332500Y-104692500D01*
X60887500Y-172312500D02*
X59350100Y-172312500D01*
X305617500Y-213860000D02*
X304660000Y-213860000D01*
X212165000Y-259275000D02*
X213125000Y-259275000D01*
D20*
X64825000Y-144975000D02*
X64700000Y-145100000D01*
X64825000Y-127000000D02*
X64625000Y-126800000D01*
D21*
X117525000Y-68075000D02*
X117600000Y-68000000D01*
X163300000Y-262600000D02*
X163200000Y-262700000D01*
D20*
X59350100Y-150087500D02*
X68887500Y-150087500D01*
D21*
X256840000Y-166060000D02*
X256800000Y-166100000D01*
D20*
X65662500Y-186737500D02*
X59400100Y-186737500D01*
D21*
X209977500Y-70500000D02*
X210017500Y-70460000D01*
X305617500Y-260610000D02*
X306310000Y-260610000D01*
X69050000Y-236450000D02*
X67925000Y-236450000D01*
X304600000Y-166100000D02*
X305577500Y-166100000D01*
X66775000Y-154875000D02*
X66775000Y-156700000D01*
D20*
X304900000Y-259300000D02*
X305990000Y-259300000D01*
D21*
X64525000Y-66200000D02*
X61342600Y-66200000D01*
X259965000Y-68075000D02*
X260925000Y-68075000D01*
X257817500Y-212810000D02*
X258210000Y-212810000D01*
X63900000Y-120400000D02*
X64925000Y-120400000D01*
X161100000Y-166100000D02*
X162177500Y-166100000D01*
X258800000Y-165500000D02*
X258800000Y-167100000D01*
X164365000Y-259275000D02*
X165325000Y-259275000D01*
X257817500Y-118260000D02*
X256960000Y-118260000D01*
X59450000Y-245250000D02*
X66150000Y-245250000D01*
D20*
X64725000Y-72275000D02*
X64600000Y-72400000D01*
D21*
X59500100Y-209062500D02*
X67862500Y-209062500D01*
X67237500Y-291437500D02*
X67887500Y-291437500D01*
X258510000Y-69410000D02*
X258900000Y-69800000D01*
X59250100Y-36047500D02*
X63972500Y-36047500D01*
X306600000Y-70100000D02*
X306600000Y-71500000D01*
D20*
X68297506Y-111797506D02*
X69100000Y-112600000D01*
X59350100Y-127007500D02*
X59357600Y-127000000D01*
D21*
X212165000Y-163675000D02*
X213125000Y-163675000D01*
X163200000Y-69800000D02*
X163200000Y-71500000D01*
X61307500Y-122992500D02*
X63900000Y-120400000D01*
X116565000Y-211475000D02*
X117525000Y-211475000D01*
D20*
X64975000Y-236125000D02*
X64850000Y-236250000D01*
X71300000Y-147600000D02*
X71247500Y-147547500D01*
X209300000Y-115900000D02*
X210390000Y-115900000D01*
X59787700Y-59387500D02*
X68912500Y-59387500D01*
D21*
X162177500Y-118300000D02*
X162217500Y-118260000D01*
X307765000Y-211475000D02*
X308725000Y-211475000D01*
X307765000Y-259275000D02*
X308725000Y-259275000D01*
X209160000Y-118260000D02*
X209100000Y-118200000D01*
X65589994Y-41127500D02*
X66100000Y-41637506D01*
X211000000Y-117600000D02*
X211000000Y-119300000D01*
X61342600Y-66200000D02*
X59250100Y-68292500D01*
D20*
X68912500Y-59387500D02*
X69200000Y-59100000D01*
X70600000Y-98000000D02*
X67925000Y-98000000D01*
D21*
X256960000Y-118260000D02*
X256900000Y-118200000D01*
D20*
X68887500Y-150087500D02*
X68900000Y-150100000D01*
D21*
X257817500Y-260610000D02*
X258210000Y-260610000D01*
D20*
X69450000Y-222950000D02*
X70450000Y-222950000D01*
D21*
X306010000Y-165010000D02*
X306800000Y-165800000D01*
X162217500Y-69410000D02*
X162810000Y-69410000D01*
D20*
X71247506Y-202947506D02*
X72400000Y-204100000D01*
X114417500Y-70460000D02*
X114257500Y-70300000D01*
D21*
X209040000Y-261660000D02*
X209000000Y-261700000D01*
D20*
X59350100Y-129547500D02*
X69852500Y-129547500D01*
D21*
X211000000Y-261100000D02*
X211000000Y-262700000D01*
X59350100Y-117912500D02*
X67712500Y-117912500D01*
X304600000Y-70400000D02*
X305557500Y-70400000D01*
D20*
X161500000Y-115900000D02*
X162590000Y-115900000D01*
D21*
X61592600Y-230050000D02*
X59500100Y-232142500D01*
X162157500Y-70400000D02*
X162217500Y-70460000D01*
D20*
X60037700Y-223237500D02*
X59500100Y-222699900D01*
D21*
X115400000Y-213200000D02*
X115400000Y-215000000D01*
D20*
X59350100Y-113827500D02*
X65689994Y-113827500D01*
D21*
X304760000Y-261660000D02*
X304700000Y-261600000D01*
X113500000Y-213800000D02*
X114357500Y-213800000D01*
X307765000Y-163675000D02*
X308725000Y-163675000D01*
%TD*%
M02*
