%TF.GenerationSoftware,KiCad,Pcbnew,(6.0.8-1)-1*%
%TF.CreationDate,2022-11-30T21:42:07-05:00*%
%TF.ProjectId,Untitled,556e7469-746c-4656-942e-6b696361645f,rev?*%
%TF.SameCoordinates,Original*%
%TF.FileFunction,Legend,Bot*%
%TF.FilePolarity,Positive*%
%FSLAX46Y46*%
G04 Gerber Fmt 4.6, Leading zero omitted, Abs format (unit mm)*
G04 Created by KiCad (PCBNEW (6.0.8-1)-1) date 2022-11-30 21:42:07*
%MOMM*%
%LPD*%
G01*
G04 APERTURE LIST*
%ADD10C,0.150000*%
%ADD11C,0.120000*%
G04 APERTURE END LIST*
D10*
X94570095Y-61471428D02*
X95370095Y-61471428D01*
X95370095Y-61280952D01*
X95332000Y-61166666D01*
X95255809Y-61090476D01*
X95179619Y-61052380D01*
X95027238Y-61014285D01*
X94912952Y-61014285D01*
X94760571Y-61052380D01*
X94684380Y-61090476D01*
X94608190Y-61166666D01*
X94570095Y-61280952D01*
X94570095Y-61471428D01*
X94608190Y-60366666D02*
X94570095Y-60442857D01*
X94570095Y-60595238D01*
X94608190Y-60671428D01*
X94684380Y-60709523D01*
X94989142Y-60709523D01*
X95065333Y-60671428D01*
X95103428Y-60595238D01*
X95103428Y-60442857D01*
X95065333Y-60366666D01*
X94989142Y-60328571D01*
X94912952Y-60328571D01*
X94836761Y-60709523D01*
X94608190Y-60023809D02*
X94570095Y-59947619D01*
X94570095Y-59795238D01*
X94608190Y-59719047D01*
X94684380Y-59680952D01*
X94722476Y-59680952D01*
X94798666Y-59719047D01*
X94836761Y-59795238D01*
X94836761Y-59909523D01*
X94874857Y-59985714D01*
X94951047Y-60023809D01*
X94989142Y-60023809D01*
X95065333Y-59985714D01*
X95103428Y-59909523D01*
X95103428Y-59795238D01*
X95065333Y-59719047D01*
X94570095Y-59338095D02*
X95103428Y-59338095D01*
X95370095Y-59338095D02*
X95332000Y-59376190D01*
X95293904Y-59338095D01*
X95332000Y-59300000D01*
X95370095Y-59338095D01*
X95293904Y-59338095D01*
X95103428Y-58614285D02*
X94455809Y-58614285D01*
X94379619Y-58652380D01*
X94341523Y-58690476D01*
X94303428Y-58766666D01*
X94303428Y-58880952D01*
X94341523Y-58957142D01*
X94608190Y-58614285D02*
X94570095Y-58690476D01*
X94570095Y-58842857D01*
X94608190Y-58919047D01*
X94646285Y-58957142D01*
X94722476Y-58995238D01*
X94951047Y-58995238D01*
X95027238Y-58957142D01*
X95065333Y-58919047D01*
X95103428Y-58842857D01*
X95103428Y-58690476D01*
X95065333Y-58614285D01*
X95103428Y-58233333D02*
X94570095Y-58233333D01*
X95027238Y-58233333D02*
X95065333Y-58195238D01*
X95103428Y-58119047D01*
X95103428Y-58004761D01*
X95065333Y-57928571D01*
X94989142Y-57890476D01*
X94570095Y-57890476D01*
X94608190Y-57204761D02*
X94570095Y-57280952D01*
X94570095Y-57433333D01*
X94608190Y-57509523D01*
X94684380Y-57547619D01*
X94989142Y-57547619D01*
X95065333Y-57509523D01*
X95103428Y-57433333D01*
X95103428Y-57280952D01*
X95065333Y-57204761D01*
X94989142Y-57166666D01*
X94912952Y-57166666D01*
X94836761Y-57547619D01*
X94570095Y-56480952D02*
X95370095Y-56480952D01*
X94608190Y-56480952D02*
X94570095Y-56557142D01*
X94570095Y-56709523D01*
X94608190Y-56785714D01*
X94646285Y-56823809D01*
X94722476Y-56861904D01*
X94951047Y-56861904D01*
X95027238Y-56823809D01*
X95065333Y-56785714D01*
X95103428Y-56709523D01*
X95103428Y-56557142D01*
X95065333Y-56480952D01*
X94570095Y-55490476D02*
X95370095Y-55490476D01*
X95065333Y-55490476D02*
X95103428Y-55414285D01*
X95103428Y-55261904D01*
X95065333Y-55185714D01*
X95027238Y-55147619D01*
X94951047Y-55109523D01*
X94722476Y-55109523D01*
X94646285Y-55147619D01*
X94608190Y-55185714D01*
X94570095Y-55261904D01*
X94570095Y-55414285D01*
X94608190Y-55490476D01*
X95103428Y-54842857D02*
X94570095Y-54652380D01*
X95103428Y-54461904D02*
X94570095Y-54652380D01*
X94379619Y-54728571D01*
X94341523Y-54766666D01*
X94303428Y-54842857D01*
X93320190Y-62157142D02*
X93282095Y-62042857D01*
X93282095Y-61852380D01*
X93320190Y-61776190D01*
X93358285Y-61738095D01*
X93434476Y-61700000D01*
X93510666Y-61700000D01*
X93586857Y-61738095D01*
X93624952Y-61776190D01*
X93663047Y-61852380D01*
X93701142Y-62004761D01*
X93739238Y-62080952D01*
X93777333Y-62119047D01*
X93853523Y-62157142D01*
X93929714Y-62157142D01*
X94005904Y-62119047D01*
X94044000Y-62080952D01*
X94082095Y-62004761D01*
X94082095Y-61814285D01*
X94044000Y-61700000D01*
X93320190Y-61052380D02*
X93282095Y-61128571D01*
X93282095Y-61280952D01*
X93320190Y-61357142D01*
X93396380Y-61395238D01*
X93701142Y-61395238D01*
X93777333Y-61357142D01*
X93815428Y-61280952D01*
X93815428Y-61128571D01*
X93777333Y-61052380D01*
X93701142Y-61014285D01*
X93624952Y-61014285D01*
X93548761Y-61395238D01*
X93282095Y-60671428D02*
X94082095Y-60671428D01*
X93777333Y-60671428D02*
X93815428Y-60595238D01*
X93815428Y-60442857D01*
X93777333Y-60366666D01*
X93739238Y-60328571D01*
X93663047Y-60290476D01*
X93434476Y-60290476D01*
X93358285Y-60328571D01*
X93320190Y-60366666D01*
X93282095Y-60442857D01*
X93282095Y-60595238D01*
X93320190Y-60671428D01*
X93282095Y-59833333D02*
X93320190Y-59909523D01*
X93358285Y-59947619D01*
X93434476Y-59985714D01*
X93663047Y-59985714D01*
X93739238Y-59947619D01*
X93777333Y-59909523D01*
X93815428Y-59833333D01*
X93815428Y-59719047D01*
X93777333Y-59642857D01*
X93739238Y-59604761D01*
X93663047Y-59566666D01*
X93434476Y-59566666D01*
X93358285Y-59604761D01*
X93320190Y-59642857D01*
X93282095Y-59719047D01*
X93282095Y-59833333D01*
X93815428Y-58880952D02*
X93282095Y-58880952D01*
X93815428Y-59223809D02*
X93396380Y-59223809D01*
X93320190Y-59185714D01*
X93282095Y-59109523D01*
X93282095Y-58995238D01*
X93320190Y-58919047D01*
X93358285Y-58880952D01*
X93282095Y-58500000D02*
X94082095Y-58500000D01*
X93282095Y-58157142D02*
X93701142Y-58157142D01*
X93777333Y-58195238D01*
X93815428Y-58271428D01*
X93815428Y-58385714D01*
X93777333Y-58461904D01*
X93739238Y-58500000D01*
X94082095Y-56938095D02*
X93510666Y-56938095D01*
X93396380Y-56976190D01*
X93320190Y-57052380D01*
X93282095Y-57166666D01*
X93282095Y-57242857D01*
X93358285Y-56557142D02*
X93320190Y-56519047D01*
X93282095Y-56557142D01*
X93320190Y-56595238D01*
X93358285Y-56557142D01*
X93282095Y-56557142D01*
X93282095Y-55566666D02*
X94082095Y-55566666D01*
X94082095Y-55261904D01*
X94044000Y-55185714D01*
X94005904Y-55147619D01*
X93929714Y-55109523D01*
X93815428Y-55109523D01*
X93739238Y-55147619D01*
X93701142Y-55185714D01*
X93663047Y-55261904D01*
X93663047Y-55566666D01*
X93282095Y-54423809D02*
X93701142Y-54423809D01*
X93777333Y-54461904D01*
X93815428Y-54538095D01*
X93815428Y-54690476D01*
X93777333Y-54766666D01*
X93320190Y-54423809D02*
X93282095Y-54500000D01*
X93282095Y-54690476D01*
X93320190Y-54766666D01*
X93396380Y-54804761D01*
X93472571Y-54804761D01*
X93548761Y-54766666D01*
X93586857Y-54690476D01*
X93586857Y-54500000D01*
X93624952Y-54423809D01*
X93815428Y-53700000D02*
X93282095Y-53700000D01*
X93815428Y-54042857D02*
X93396380Y-54042857D01*
X93320190Y-54004761D01*
X93282095Y-53928571D01*
X93282095Y-53814285D01*
X93320190Y-53738095D01*
X93358285Y-53700000D01*
X93282095Y-53204761D02*
X93320190Y-53280952D01*
X93396380Y-53319047D01*
X94082095Y-53319047D01*
X92527428Y-58880952D02*
X91994095Y-58690476D01*
X92527428Y-58500000D01*
X92717904Y-58233333D02*
X92756000Y-58195238D01*
X92794095Y-58119047D01*
X92794095Y-57928571D01*
X92756000Y-57852380D01*
X92717904Y-57814285D01*
X92641714Y-57776190D01*
X92565523Y-57776190D01*
X92451238Y-57814285D01*
X91994095Y-58271428D01*
X91994095Y-57776190D01*
X90744190Y-64214285D02*
X90706095Y-64138095D01*
X90706095Y-63985714D01*
X90744190Y-63909523D01*
X90820380Y-63871428D01*
X90858476Y-63871428D01*
X90934666Y-63909523D01*
X90972761Y-63985714D01*
X90972761Y-64100000D01*
X91010857Y-64176190D01*
X91087047Y-64214285D01*
X91125142Y-64214285D01*
X91201333Y-64176190D01*
X91239428Y-64100000D01*
X91239428Y-63985714D01*
X91201333Y-63909523D01*
X90706095Y-63528571D02*
X91239428Y-63528571D01*
X91506095Y-63528571D02*
X91468000Y-63566666D01*
X91429904Y-63528571D01*
X91468000Y-63490476D01*
X91506095Y-63528571D01*
X91429904Y-63528571D01*
X90706095Y-62804761D02*
X91506095Y-62804761D01*
X90744190Y-62804761D02*
X90706095Y-62880952D01*
X90706095Y-63033333D01*
X90744190Y-63109523D01*
X90782285Y-63147619D01*
X90858476Y-63185714D01*
X91087047Y-63185714D01*
X91163238Y-63147619D01*
X91201333Y-63109523D01*
X91239428Y-63033333D01*
X91239428Y-62880952D01*
X91201333Y-62804761D01*
X90744190Y-62119047D02*
X90706095Y-62195238D01*
X90706095Y-62347619D01*
X90744190Y-62423809D01*
X90820380Y-62461904D01*
X91125142Y-62461904D01*
X91201333Y-62423809D01*
X91239428Y-62347619D01*
X91239428Y-62195238D01*
X91201333Y-62119047D01*
X91125142Y-62080952D01*
X91048952Y-62080952D01*
X90972761Y-62461904D01*
X90706095Y-61623809D02*
X90744190Y-61700000D01*
X90820380Y-61738095D01*
X91506095Y-61738095D01*
X90744190Y-61014285D02*
X90706095Y-61090476D01*
X90706095Y-61242857D01*
X90744190Y-61319047D01*
X90820380Y-61357142D01*
X91125142Y-61357142D01*
X91201333Y-61319047D01*
X91239428Y-61242857D01*
X91239428Y-61090476D01*
X91201333Y-61014285D01*
X91125142Y-60976190D01*
X91048952Y-60976190D01*
X90972761Y-61357142D01*
X91239428Y-60633333D02*
X90706095Y-60633333D01*
X91163238Y-60633333D02*
X91201333Y-60595238D01*
X91239428Y-60519047D01*
X91239428Y-60404761D01*
X91201333Y-60328571D01*
X91125142Y-60290476D01*
X90706095Y-60290476D01*
X91239428Y-59566666D02*
X90591809Y-59566666D01*
X90515619Y-59604761D01*
X90477523Y-59642857D01*
X90439428Y-59719047D01*
X90439428Y-59833333D01*
X90477523Y-59909523D01*
X90744190Y-59566666D02*
X90706095Y-59642857D01*
X90706095Y-59795238D01*
X90744190Y-59871428D01*
X90782285Y-59909523D01*
X90858476Y-59947619D01*
X91087047Y-59947619D01*
X91163238Y-59909523D01*
X91201333Y-59871428D01*
X91239428Y-59795238D01*
X91239428Y-59642857D01*
X91201333Y-59566666D01*
X91239428Y-59300000D02*
X91239428Y-58995238D01*
X91506095Y-59185714D02*
X90820380Y-59185714D01*
X90744190Y-59147619D01*
X90706095Y-59071428D01*
X90706095Y-58995238D01*
X90706095Y-58728571D02*
X91506095Y-58728571D01*
X90706095Y-58385714D02*
X91125142Y-58385714D01*
X91201333Y-58423809D01*
X91239428Y-58500000D01*
X91239428Y-58614285D01*
X91201333Y-58690476D01*
X91163238Y-58728571D01*
X91125142Y-58004761D02*
X91125142Y-57395238D01*
X90896571Y-57395238D02*
X90896571Y-58004761D01*
X90706095Y-56595238D02*
X90706095Y-57052380D01*
X90706095Y-56823809D02*
X91506095Y-56823809D01*
X91391809Y-56900000D01*
X91315619Y-56976190D01*
X91277523Y-57052380D01*
X90706095Y-56214285D02*
X90706095Y-56061904D01*
X90744190Y-55985714D01*
X90782285Y-55947619D01*
X90896571Y-55871428D01*
X91048952Y-55833333D01*
X91353714Y-55833333D01*
X91429904Y-55871428D01*
X91468000Y-55909523D01*
X91506095Y-55985714D01*
X91506095Y-56138095D01*
X91468000Y-56214285D01*
X91429904Y-56252380D01*
X91353714Y-56290476D01*
X91163238Y-56290476D01*
X91087047Y-56252380D01*
X91048952Y-56214285D01*
X91010857Y-56138095D01*
X91010857Y-55985714D01*
X91048952Y-55909523D01*
X91087047Y-55871428D01*
X91163238Y-55833333D01*
X90782285Y-55490476D02*
X90744190Y-55452380D01*
X90706095Y-55490476D01*
X90744190Y-55528571D01*
X90782285Y-55490476D01*
X90706095Y-55490476D01*
X90706095Y-55071428D02*
X90706095Y-54919047D01*
X90744190Y-54842857D01*
X90782285Y-54804761D01*
X90896571Y-54728571D01*
X91048952Y-54690476D01*
X91353714Y-54690476D01*
X91429904Y-54728571D01*
X91468000Y-54766666D01*
X91506095Y-54842857D01*
X91506095Y-54995238D01*
X91468000Y-55071428D01*
X91429904Y-55109523D01*
X91353714Y-55147619D01*
X91163238Y-55147619D01*
X91087047Y-55109523D01*
X91048952Y-55071428D01*
X91010857Y-54995238D01*
X91010857Y-54842857D01*
X91048952Y-54766666D01*
X91087047Y-54728571D01*
X91163238Y-54690476D01*
X91506095Y-54423809D02*
X91506095Y-53928571D01*
X91201333Y-54195238D01*
X91201333Y-54080952D01*
X91163238Y-54004761D01*
X91125142Y-53966666D01*
X91048952Y-53928571D01*
X90858476Y-53928571D01*
X90782285Y-53966666D01*
X90744190Y-54004761D01*
X90706095Y-54080952D01*
X90706095Y-54309523D01*
X90744190Y-54385714D01*
X90782285Y-54423809D01*
X90706095Y-52976190D02*
X91239428Y-52976190D01*
X91163238Y-52976190D02*
X91201333Y-52938095D01*
X91239428Y-52861904D01*
X91239428Y-52747619D01*
X91201333Y-52671428D01*
X91125142Y-52633333D01*
X90706095Y-52633333D01*
X91125142Y-52633333D02*
X91201333Y-52595238D01*
X91239428Y-52519047D01*
X91239428Y-52404761D01*
X91201333Y-52328571D01*
X91125142Y-52290476D01*
X90706095Y-52290476D01*
X90706095Y-51909523D02*
X91239428Y-51909523D01*
X91163238Y-51909523D02*
X91201333Y-51871428D01*
X91239428Y-51795238D01*
X91239428Y-51680952D01*
X91201333Y-51604761D01*
X91125142Y-51566666D01*
X90706095Y-51566666D01*
X91125142Y-51566666D02*
X91201333Y-51528571D01*
X91239428Y-51452380D01*
X91239428Y-51338095D01*
X91201333Y-51261904D01*
X91125142Y-51223809D01*
X90706095Y-51223809D01*
X117395314Y-55132249D02*
X117807707Y-54894154D01*
X117307707Y-54028128D01*
X116844734Y-54845283D02*
X116556059Y-55011950D01*
X116694245Y-55537011D02*
X117106639Y-55298916D01*
X116606639Y-54432890D01*
X116194245Y-54670986D01*
X116323092Y-55751297D02*
X115823092Y-54885271D01*
X115616895Y-55004319D01*
X115516987Y-55116987D01*
X115482127Y-55247084D01*
X115488507Y-55353373D01*
X115542506Y-55542139D01*
X115613934Y-55665857D01*
X115750412Y-55807005D01*
X115839270Y-55865674D01*
X115969368Y-55900534D01*
X116116895Y-55870344D01*
X116323092Y-55751297D01*
X115003434Y-56513201D02*
X115498306Y-56227487D01*
X115250870Y-56370344D02*
X114750870Y-55504319D01*
X114904777Y-55580418D01*
X115034875Y-55615277D01*
X115141163Y-55608898D01*
X99557829Y-52427411D02*
X99483110Y-52351549D01*
X99438965Y-52215684D01*
X99440108Y-52065103D01*
X99501255Y-51945096D01*
X99577116Y-51870378D01*
X99743555Y-51766229D01*
X99879420Y-51722084D01*
X100075289Y-51708512D01*
X100180581Y-51724370D01*
X100300588Y-51785516D01*
X100390021Y-51906667D01*
X100419452Y-51997243D01*
X100418308Y-52147824D01*
X100387735Y-52207827D01*
X100070716Y-52310833D01*
X100011856Y-52129679D01*
X100610748Y-52585993D02*
X99659691Y-52895010D01*
X100787329Y-53129454D01*
X99836272Y-53438471D01*
X100934480Y-53582338D02*
X99983423Y-53891355D01*
X100056999Y-54117797D01*
X100146433Y-54238947D01*
X100266440Y-54300093D01*
X100371731Y-54315952D01*
X100567600Y-54302380D01*
X100703465Y-54258234D01*
X100869904Y-54154086D01*
X100945766Y-54079367D01*
X101006912Y-53959360D01*
X101008055Y-53808780D01*
X100934480Y-53582338D01*
X102009513Y-51680880D02*
X101058456Y-51989897D01*
X101511340Y-51842746D02*
X101687922Y-52386207D01*
X102186094Y-52224341D02*
X101235038Y-52533358D01*
X101338043Y-52850377D02*
X102392105Y-52858379D01*
X101544055Y-53484414D01*
X102501367Y-51220650D02*
X102560227Y-51401803D01*
X102634946Y-51477665D01*
X102754953Y-51538812D01*
X102950822Y-51525240D01*
X103267840Y-51422234D01*
X103434279Y-51318085D01*
X103495426Y-51198078D01*
X103511284Y-51092786D01*
X103452423Y-50911633D01*
X103377705Y-50835771D01*
X103257698Y-50774624D01*
X103061829Y-50788196D01*
X102744810Y-50891202D01*
X102578372Y-50995351D01*
X102517225Y-51115358D01*
X102501367Y-51220650D01*
X102766239Y-52035841D02*
X103536141Y-51785684D01*
X103641433Y-51801542D01*
X103701437Y-51832116D01*
X103776155Y-51907978D01*
X103835016Y-52089131D01*
X103819158Y-52194423D01*
X103788584Y-52254427D01*
X103712723Y-52329145D01*
X102942820Y-52579302D01*
X103045825Y-52896321D02*
X103222406Y-53439781D01*
X104085172Y-52859034D02*
X103134116Y-53168051D01*
X108125058Y-65555032D02*
X108126201Y-65705612D01*
X108052625Y-65932055D01*
X107977907Y-66007916D01*
X107917903Y-66038490D01*
X107812611Y-66054348D01*
X107722034Y-66024918D01*
X107646173Y-65950199D01*
X107615599Y-65890195D01*
X107599741Y-65784904D01*
X107613313Y-65589035D01*
X107597455Y-65483743D01*
X107566882Y-65423739D01*
X107491020Y-65349021D01*
X107400443Y-65319591D01*
X107295151Y-65335449D01*
X107235148Y-65366022D01*
X107160429Y-65441884D01*
X107086854Y-65668326D01*
X107087997Y-65818906D01*
X107861329Y-66520804D02*
X107227291Y-66314792D01*
X106910272Y-66211787D02*
X106970276Y-66181213D01*
X107000849Y-66241217D01*
X106940846Y-66271790D01*
X106910272Y-66211787D01*
X107000849Y-66241217D01*
X107714178Y-66973688D02*
X106763122Y-66664671D01*
X106645401Y-67026978D01*
X106661259Y-67132270D01*
X106691832Y-67192273D01*
X106767694Y-67266992D01*
X106903559Y-67311137D01*
X107008851Y-67295279D01*
X107068855Y-67264706D01*
X107143573Y-67188844D01*
X107261294Y-66826537D01*
X107405161Y-67924744D02*
X106454105Y-67615727D01*
X107030425Y-68153473D01*
X106248093Y-68249765D01*
X107199150Y-68558782D01*
X106890133Y-69509839D02*
X107066714Y-68966378D01*
X106978423Y-69238108D02*
X106027367Y-68929091D01*
X106192662Y-68882660D01*
X106312669Y-68821513D01*
X106387388Y-68745651D01*
X108407328Y-53188884D02*
X108465997Y-53100026D01*
X108589715Y-53028597D01*
X108737243Y-52998408D01*
X108867340Y-53033268D01*
X108956199Y-53091937D01*
X109092676Y-53233085D01*
X109164105Y-53356802D01*
X109218104Y-53545569D01*
X109224483Y-53651857D01*
X109189624Y-53781955D01*
X109089715Y-53894623D01*
X109007237Y-53942242D01*
X108859709Y-53972431D01*
X108794661Y-53955001D01*
X108627994Y-53666326D01*
X108792951Y-53571088D01*
X108471126Y-54251766D02*
X107971126Y-53385740D01*
X107976254Y-54537480D01*
X107476254Y-53671455D01*
X107563861Y-54775575D02*
X107063861Y-53909550D01*
X106857665Y-54028597D01*
X106757756Y-54141265D01*
X106722897Y-54271363D01*
X106729276Y-54377651D01*
X106783275Y-54566418D01*
X106854704Y-54690136D01*
X106991181Y-54831284D01*
X107080039Y-54889953D01*
X107210137Y-54924812D01*
X107357665Y-54894623D01*
X107563861Y-54775575D01*
X109647280Y-55431781D02*
X109147280Y-54565756D01*
X109385375Y-54978149D02*
X108890503Y-55263863D01*
X109152408Y-55717495D02*
X108652408Y-54851470D01*
X108363733Y-55018137D02*
X108575058Y-56050829D01*
X107786382Y-55351470D01*
X107534498Y-48127264D02*
X107357917Y-47583803D01*
X106495151Y-48164550D02*
X107446208Y-47855533D01*
X106231423Y-47198779D02*
X106215564Y-47304070D01*
X106274425Y-47485224D01*
X106349143Y-47561086D01*
X106454435Y-47576944D01*
X106816743Y-47459223D01*
X106892604Y-47384505D01*
X106908462Y-47279213D01*
X106849602Y-47098059D01*
X106774883Y-47022197D01*
X106669592Y-47006339D01*
X106579015Y-47035769D01*
X106635589Y-47518084D01*
X106038983Y-46760610D02*
X106673021Y-46554598D01*
X106582444Y-46584028D02*
X106613017Y-46524025D01*
X106628876Y-46418733D01*
X106584730Y-46282868D01*
X106510012Y-46207006D01*
X106404720Y-46191148D01*
X105906547Y-46353014D01*
X106404720Y-46191148D02*
X106480582Y-46116429D01*
X106496440Y-46011137D01*
X106452294Y-45875272D01*
X106377576Y-45799410D01*
X106272284Y-45783552D01*
X105774112Y-45945418D01*
X106260998Y-45286523D02*
X105309942Y-45595540D01*
X106215710Y-45301238D02*
X106231568Y-45195946D01*
X106172708Y-45014792D01*
X106097989Y-44938931D01*
X106037986Y-44908357D01*
X105932694Y-44892499D01*
X105660963Y-44980790D01*
X105585102Y-45055508D01*
X105554528Y-45115512D01*
X105538670Y-45220804D01*
X105597530Y-45401957D01*
X105672249Y-45477819D01*
X105185508Y-44133882D02*
X105362089Y-44677343D01*
X105273798Y-44405612D02*
X106224855Y-44096595D01*
X106118420Y-44231318D01*
X106057273Y-44351325D01*
X106041415Y-44456616D01*
%TO.C,REF\u002A\u002A*%
X100233216Y-44342662D02*
X100403084Y-43786772D01*
X100776677Y-44166081D02*
X100467660Y-43215024D01*
X100105353Y-43332745D01*
X100029491Y-43407463D01*
X99998918Y-43467467D01*
X99983060Y-43572759D01*
X100027205Y-43708624D01*
X100101924Y-43784486D01*
X100161927Y-43815059D01*
X100267219Y-43830917D01*
X100629526Y-43713196D01*
X99663755Y-43976925D02*
X99346736Y-44079931D01*
X99372737Y-44622248D02*
X99825621Y-44475098D01*
X99516604Y-43524041D01*
X99063720Y-43671192D01*
X98486256Y-44359518D02*
X98803275Y-44256512D01*
X98965141Y-44754684D02*
X98656124Y-43803628D01*
X98203240Y-43950779D01*
X97705067Y-44112645D02*
X97778643Y-44339087D01*
X97975655Y-44174935D02*
X97778643Y-44339087D01*
X97522771Y-44322086D01*
X97973368Y-44476095D02*
X97778643Y-44339087D01*
X97701638Y-44564386D01*
X96980453Y-44348086D02*
X97054028Y-44574528D01*
X97251040Y-44410376D02*
X97054028Y-44574528D01*
X96798156Y-44557527D01*
X97248754Y-44711537D02*
X97054028Y-44574528D01*
X96977024Y-44799827D01*
X98461201Y-68100645D02*
X97997031Y-68450523D01*
X97917740Y-67924064D02*
X97608723Y-68875120D01*
X97971030Y-68992841D01*
X98076322Y-68976983D01*
X98136325Y-68946410D01*
X98211044Y-68870548D01*
X98255189Y-68734683D01*
X98239331Y-68629391D01*
X98208758Y-68569387D01*
X98132896Y-68494669D01*
X97770589Y-68376948D01*
X98706930Y-68731253D02*
X99023949Y-68834259D01*
X99321680Y-68380232D02*
X98868796Y-68233081D01*
X98559779Y-69184137D01*
X99012663Y-69331288D01*
X99884429Y-69113846D02*
X99567410Y-69010840D01*
X99729276Y-68512668D02*
X99420259Y-69463724D01*
X99873143Y-69610875D01*
X100371315Y-69772741D02*
X100444891Y-69546299D01*
X100189019Y-69563300D02*
X100444891Y-69546299D01*
X100641903Y-69710451D01*
X100367886Y-69321000D02*
X100444891Y-69546299D01*
X100639616Y-69409291D01*
X101095930Y-70008183D02*
X101169505Y-69781741D01*
X100913633Y-69798742D02*
X101169505Y-69781741D01*
X101366517Y-69945893D01*
X101092501Y-69556442D02*
X101169505Y-69781741D01*
X101364231Y-69644732D01*
X91706442Y-66006030D02*
X91675869Y-65946027D01*
X91554719Y-65856593D01*
X91464142Y-65827163D01*
X91313562Y-65828306D01*
X91193555Y-65889453D01*
X91118836Y-65965314D01*
X91014687Y-66131753D01*
X90970542Y-66267618D01*
X90956970Y-66463487D01*
X90972828Y-66568779D01*
X91033975Y-66688786D01*
X91155125Y-66778219D01*
X91245702Y-66807650D01*
X91396282Y-66806506D01*
X91456286Y-66775933D01*
X92015605Y-67057806D02*
X92196758Y-67116667D01*
X92302050Y-67100808D01*
X92422057Y-67039662D01*
X92526206Y-66873223D01*
X92629212Y-66556204D01*
X92642784Y-66360336D01*
X92581637Y-66240329D01*
X92505775Y-66165610D01*
X92324622Y-66106750D01*
X92219330Y-66122608D01*
X92099323Y-66183754D01*
X91995174Y-66350193D01*
X91892168Y-66667212D01*
X91878596Y-66863081D01*
X91939743Y-66983088D01*
X92015605Y-67057806D01*
X93139813Y-66371621D02*
X92830796Y-67322678D01*
X93683274Y-66548202D01*
X93374257Y-67499259D01*
X94136158Y-66695353D02*
X93827141Y-67646410D01*
X94679619Y-66871935D01*
X94370602Y-67822991D01*
X94935491Y-66854933D02*
X95660105Y-67090375D01*
X95457523Y-68176153D02*
X96046273Y-68367450D01*
X95846975Y-67902137D01*
X95982840Y-67946282D01*
X96088132Y-67930424D01*
X96148135Y-67899850D01*
X96222854Y-67823989D01*
X96296429Y-67597547D01*
X96280571Y-67492255D01*
X96249998Y-67432251D01*
X96174136Y-67357533D01*
X95902406Y-67269242D01*
X95797114Y-67285100D01*
X95737110Y-67315674D01*
X96645165Y-67911136D02*
X97369779Y-68146578D01*
X98438556Y-68093287D02*
X97895095Y-67916706D01*
X98166826Y-68004997D02*
X97857809Y-68956053D01*
X97811377Y-68790758D01*
X97750231Y-68670751D01*
X97674369Y-68596032D01*
X98718289Y-69235640D02*
X98808865Y-69265070D01*
X98914157Y-69249212D01*
X98974161Y-69218639D01*
X99048879Y-69142777D01*
X99153028Y-68976339D01*
X99226604Y-68749897D01*
X99240176Y-68554028D01*
X99224317Y-68448736D01*
X99193744Y-68388732D01*
X99117882Y-68314014D01*
X99027306Y-68284584D01*
X98922014Y-68300442D01*
X98862010Y-68331015D01*
X98787292Y-68406877D01*
X98683143Y-68573315D01*
X98609567Y-68799757D01*
X98595995Y-68995626D01*
X98611854Y-69100918D01*
X98642427Y-69160922D01*
X98718289Y-69235640D01*
X99427045Y-69365790D02*
X99457618Y-69425793D01*
X99533480Y-69500512D01*
X99759922Y-69574087D01*
X99865214Y-69558229D01*
X99925217Y-69527656D01*
X99999936Y-69451794D01*
X100029366Y-69361217D01*
X100028223Y-69210637D01*
X99661343Y-68490595D01*
X100250093Y-68681891D01*
X100332813Y-69660092D02*
X100363386Y-69720095D01*
X100439248Y-69794814D01*
X100665690Y-69868389D01*
X100770982Y-69852531D01*
X100830985Y-69821958D01*
X100905704Y-69746096D01*
X100935134Y-69655519D01*
X100933991Y-69504939D01*
X100567111Y-68784897D01*
X101155861Y-68976193D01*
X101435593Y-70118546D02*
X101526170Y-70147976D01*
X101631462Y-70132118D01*
X101691465Y-70101545D01*
X101766184Y-70025683D01*
X101870333Y-69859244D01*
X101943908Y-69632802D01*
X101957480Y-69436934D01*
X101941622Y-69331642D01*
X101911048Y-69271638D01*
X101835187Y-69196920D01*
X101744610Y-69167489D01*
X101639318Y-69183348D01*
X101579315Y-69213921D01*
X101504596Y-69289783D01*
X101400447Y-69456221D01*
X101326872Y-69682663D01*
X101313300Y-69878532D01*
X101329158Y-69983824D01*
X101359731Y-70043827D01*
X101435593Y-70118546D01*
X102069631Y-70324557D02*
X102658380Y-70515853D01*
X102459082Y-70050541D01*
X102594947Y-70094686D01*
X102700239Y-70078828D01*
X102760242Y-70048254D01*
X102834961Y-69972393D01*
X102908537Y-69745951D01*
X102892678Y-69640659D01*
X102862105Y-69580655D01*
X102786243Y-69505937D01*
X102514513Y-69417646D01*
X102409221Y-69433504D01*
X102349217Y-69464078D01*
X103257272Y-70059540D02*
X103981886Y-70294982D01*
X104754075Y-70846299D02*
X104960087Y-70212261D01*
X104409913Y-71135031D02*
X104404197Y-70382129D01*
X104992946Y-70573425D01*
X105261247Y-70209975D02*
X105985862Y-70445416D01*
X105737991Y-71516480D02*
X106281452Y-71693061D01*
X106318739Y-70653714D02*
X106009722Y-71604770D01*
X106745622Y-71343183D02*
X107062641Y-71446188D01*
X107360372Y-70992161D02*
X106907488Y-70845010D01*
X106598471Y-71796067D01*
X107051355Y-71943218D01*
X108281999Y-71391755D02*
X108251425Y-71331751D01*
X108130275Y-71242318D01*
X108039698Y-71212888D01*
X107889118Y-71214031D01*
X107769111Y-71275177D01*
X107694392Y-71351039D01*
X107590244Y-71517478D01*
X107546098Y-71653343D01*
X107532526Y-71849211D01*
X107548385Y-71954503D01*
X107609531Y-72074510D01*
X107730681Y-72163944D01*
X107821258Y-72193374D01*
X107971838Y-72192231D01*
X108031842Y-72161658D01*
X101835943Y-70248627D02*
X101909518Y-70022185D01*
X101653646Y-70039186D02*
X101909518Y-70022185D01*
X102106530Y-70186337D01*
X101832514Y-69796886D02*
X101909518Y-70022185D01*
X102104244Y-69885177D01*
X114919549Y-48157498D02*
X114338374Y-48167724D01*
X114583671Y-47695203D02*
X113774654Y-48282988D01*
X113998573Y-48591185D01*
X114093077Y-48640245D01*
X114159591Y-48650779D01*
X114264630Y-48633324D01*
X114380204Y-48549355D01*
X114429264Y-48454851D01*
X114439798Y-48388337D01*
X114422343Y-48283298D01*
X114198425Y-47975101D01*
X114747686Y-48812107D02*
X114943614Y-49081780D01*
X115451354Y-48889466D02*
X115171457Y-48504220D01*
X114362440Y-49092005D01*
X114642337Y-49477251D01*
X115475420Y-49813747D02*
X115279492Y-49544075D01*
X115703262Y-49236188D02*
X114894245Y-49823973D01*
X115174143Y-50209219D01*
X115482031Y-50632990D02*
X115674654Y-50493041D01*
X115457656Y-50356397D02*
X115674654Y-50493041D01*
X115737553Y-50741644D01*
X115744783Y-50265508D02*
X115674654Y-50493041D01*
X115912722Y-50496656D01*
X115929867Y-51249384D02*
X116122490Y-51109435D01*
X115905492Y-50972791D02*
X116122490Y-51109435D01*
X116185390Y-51358038D01*
X116192619Y-50881902D02*
X116122490Y-51109435D01*
X116360558Y-51113050D01*
D11*
X102971894Y-43818320D02*
X104160714Y-43432049D01*
X103968102Y-43810071D02*
X104199865Y-44523364D01*
X97500918Y-45911387D02*
X100829616Y-44829827D01*
X97732681Y-46624679D02*
X97500918Y-45911387D01*
X94349831Y-46924722D02*
X103974523Y-43797470D01*
X94594194Y-47644435D02*
X94362432Y-46931143D01*
X101061379Y-45543120D02*
X97732681Y-46624679D01*
X104861698Y-48987328D02*
X100772155Y-50316101D01*
X95771012Y-48839257D02*
X96682612Y-51644874D01*
X100829616Y-44829827D02*
X101061379Y-45543120D01*
X96306096Y-47088205D02*
X94594194Y-47644435D01*
X94362432Y-46931143D02*
X96074333Y-46374912D01*
X103950098Y-46181711D02*
X104861698Y-48987328D01*
X96074333Y-46374912D02*
X96306096Y-47088205D01*
X95057720Y-49071020D02*
X95771012Y-48839257D01*
X104199865Y-44523364D02*
X102487963Y-45079594D01*
X105819354Y-49475278D02*
X96194662Y-52602530D01*
X104160714Y-43432049D02*
X104546986Y-44620870D01*
X102487963Y-45079594D02*
X102256201Y-44366302D01*
X96682612Y-51644874D02*
X100772155Y-50316101D01*
X104663391Y-45949948D02*
X103950098Y-46181711D01*
X96194662Y-52602530D02*
X94349831Y-46924722D01*
X103974523Y-43797470D02*
X105819354Y-49475278D01*
X102256201Y-44366302D02*
X103968102Y-43810071D01*
X105647572Y-56462737D02*
X105859042Y-57866805D01*
X93822785Y-69018815D02*
X98210393Y-55515144D01*
X105859042Y-57866805D02*
X106855414Y-56855189D01*
X104210224Y-72393899D02*
X93822785Y-69018815D01*
X108597832Y-58890228D02*
X104210224Y-72393899D01*
X98210393Y-55515144D02*
X108597832Y-58890228D01*
X106855414Y-56855189D02*
X105647572Y-56462737D01*
X113146677Y-59363563D02*
X114323092Y-58508848D01*
X112076908Y-57891152D02*
X113253323Y-57036437D01*
X108586774Y-63156178D02*
X109026352Y-61803296D01*
X111173648Y-63996704D02*
X111613226Y-62643822D01*
X115016168Y-52207528D02*
X115622931Y-51766689D01*
X110834327Y-49003670D02*
X108447727Y-50737636D01*
X114860656Y-54545436D02*
X114419817Y-53938674D01*
X107386157Y-50569500D02*
X112215988Y-47060422D01*
X114134490Y-50994002D02*
X113546705Y-50184985D01*
X116074181Y-53663758D02*
X115016168Y-52207528D01*
X114419817Y-53938674D02*
X112033217Y-55672640D01*
X111607013Y-47515229D02*
X112213776Y-47074390D01*
X117099985Y-53289289D02*
X116088713Y-54024021D01*
X112033217Y-55672640D02*
X110240472Y-53205138D01*
X114741253Y-50553163D02*
X114134490Y-50994002D01*
X112213776Y-47074390D02*
X113271790Y-48530621D01*
X116680944Y-53222919D02*
X116074181Y-53663758D01*
X115622931Y-51766689D02*
X116680944Y-53222919D01*
X116365253Y-52278018D02*
X117099985Y-53289289D01*
X113271790Y-48530621D02*
X112665027Y-48971460D01*
X112665027Y-48971460D02*
X111607013Y-47515229D01*
X116694912Y-53225132D02*
X111865081Y-56734210D01*
X113546705Y-50184985D02*
X114153467Y-49744146D01*
X114153467Y-49744146D02*
X114741253Y-50553163D01*
X112215988Y-47060422D02*
X116694912Y-53225132D01*
X110393488Y-48396907D02*
X110834327Y-49003670D01*
X111865081Y-56734210D02*
X107386157Y-50569500D01*
X108447727Y-50737636D02*
X110240472Y-53205138D01*
%TO.C,G\u002A\u002A\u002A*%
G36*
X112855676Y-63504616D02*
G01*
X112867589Y-63513902D01*
X112890008Y-63531608D01*
X112922260Y-63557197D01*
X112963675Y-63590135D01*
X113013580Y-63629885D01*
X113071303Y-63675909D01*
X113136174Y-63727676D01*
X113207521Y-63784645D01*
X113284671Y-63846283D01*
X113366953Y-63912054D01*
X113453695Y-63981420D01*
X113544225Y-64053847D01*
X113637873Y-64128799D01*
X113683909Y-64165651D01*
X113776041Y-64239386D01*
X113864688Y-64310314D01*
X113949183Y-64377904D01*
X114028857Y-64441618D01*
X114103043Y-64500926D01*
X114171071Y-64555291D01*
X114232275Y-64604181D01*
X114285985Y-64647062D01*
X114331534Y-64683399D01*
X114368252Y-64712659D01*
X114395473Y-64734307D01*
X114412526Y-64747811D01*
X114418745Y-64752636D01*
X114417616Y-64757307D01*
X114410577Y-64773413D01*
X114398119Y-64799284D01*
X114381118Y-64833153D01*
X114360451Y-64873251D01*
X114336992Y-64917807D01*
X114317573Y-64954040D01*
X114295408Y-64994645D01*
X114276170Y-65029055D01*
X114260836Y-65055553D01*
X114250383Y-65072424D01*
X114245790Y-65077954D01*
X114243853Y-65077289D01*
X114229815Y-65072788D01*
X114202921Y-65064283D01*
X114163987Y-65052028D01*
X114113830Y-65036280D01*
X114053267Y-65017294D01*
X113983112Y-64995325D01*
X113904183Y-64970629D01*
X113817296Y-64943462D01*
X113723267Y-64914077D01*
X113622913Y-64882733D01*
X113517050Y-64849683D01*
X113406494Y-64815182D01*
X113292062Y-64779488D01*
X113236428Y-64762135D01*
X113123676Y-64726948D01*
X113015155Y-64693057D01*
X112911687Y-64660719D01*
X112814089Y-64630193D01*
X112723182Y-64601733D01*
X112639787Y-64575598D01*
X112564723Y-64552047D01*
X112498810Y-64531335D01*
X112442869Y-64513717D01*
X112397717Y-64499455D01*
X112364177Y-64488803D01*
X112343068Y-64482020D01*
X112335209Y-64479361D01*
X112334099Y-64476903D01*
X112336236Y-64467297D01*
X112343490Y-64449580D01*
X112356402Y-64422577D01*
X112375515Y-64385113D01*
X112401371Y-64336014D01*
X112425794Y-64290151D01*
X112444365Y-64255711D01*
X112458132Y-64231136D01*
X112468148Y-64214857D01*
X112475470Y-64205298D01*
X112481153Y-64200885D01*
X112486253Y-64200045D01*
X112491827Y-64201207D01*
X112493685Y-64201781D01*
X112507825Y-64206504D01*
X112534535Y-64215607D01*
X112572836Y-64228747D01*
X112621748Y-64245587D01*
X112680290Y-64265788D01*
X112747482Y-64289013D01*
X112822343Y-64314920D01*
X112903893Y-64343172D01*
X112991150Y-64373430D01*
X113083136Y-64405355D01*
X113178868Y-64438609D01*
X113218333Y-64452315D01*
X113312039Y-64484800D01*
X113401289Y-64515657D01*
X113485140Y-64544563D01*
X113562643Y-64571196D01*
X113632854Y-64595232D01*
X113694826Y-64616349D01*
X113747613Y-64634226D01*
X113790270Y-64648537D01*
X113821849Y-64658962D01*
X113841407Y-64665177D01*
X113847995Y-64666859D01*
X113846501Y-64665482D01*
X113835053Y-64656389D01*
X113812999Y-64639365D01*
X113781140Y-64615020D01*
X113740277Y-64583957D01*
X113691212Y-64546783D01*
X113634745Y-64504106D01*
X113571679Y-64456528D01*
X113502814Y-64404657D01*
X113428953Y-64349099D01*
X113350895Y-64290460D01*
X113269443Y-64229345D01*
X112692350Y-63796610D01*
X112769193Y-63647871D01*
X112793911Y-63600392D01*
X112814871Y-63561127D01*
X112830683Y-63532924D01*
X112842011Y-63514643D01*
X112849522Y-63505150D01*
X112853884Y-63503305D01*
X112855676Y-63504616D01*
G37*
G36*
X118031315Y-60514422D02*
G01*
X118073139Y-60536730D01*
X118129748Y-60567163D01*
X118181131Y-60595063D01*
X118225989Y-60619708D01*
X118263016Y-60640376D01*
X118290911Y-60656346D01*
X118308373Y-60666893D01*
X118314096Y-60671294D01*
X118311108Y-60673713D01*
X118297264Y-60684301D01*
X118272785Y-60702808D01*
X118238372Y-60728711D01*
X118194723Y-60761489D01*
X118142538Y-60800620D01*
X118082517Y-60845582D01*
X118015358Y-60895854D01*
X117941759Y-60950913D01*
X117862422Y-61010239D01*
X117778045Y-61073309D01*
X117689327Y-61139601D01*
X117596967Y-61208593D01*
X117501666Y-61279765D01*
X117404121Y-61352594D01*
X117305033Y-61426558D01*
X117205100Y-61501136D01*
X117105022Y-61575805D01*
X117005498Y-61650045D01*
X116907229Y-61723333D01*
X116810911Y-61795147D01*
X116717245Y-61864966D01*
X116626931Y-61932268D01*
X116540667Y-61996532D01*
X116459152Y-62057234D01*
X116383087Y-62113854D01*
X116313170Y-62165871D01*
X116250100Y-62212761D01*
X116194578Y-62254003D01*
X116147300Y-62289076D01*
X116108968Y-62317459D01*
X116080281Y-62338628D01*
X116061938Y-62352063D01*
X116054637Y-62357240D01*
X116049396Y-62358142D01*
X116031685Y-62353688D01*
X116006047Y-62341836D01*
X115989710Y-62332888D01*
X115976404Y-62324024D01*
X115972707Y-62317637D01*
X115976438Y-62311487D01*
X115977805Y-62310014D01*
X115987739Y-62299144D01*
X116006685Y-62278346D01*
X116034028Y-62248295D01*
X116069152Y-62209671D01*
X116111442Y-62163150D01*
X116160284Y-62109409D01*
X116215062Y-62049127D01*
X116275162Y-61982979D01*
X116339968Y-61911644D01*
X116408865Y-61835798D01*
X116481238Y-61756120D01*
X116556472Y-61673286D01*
X116633953Y-61587974D01*
X116713065Y-61500861D01*
X116793193Y-61412624D01*
X116873722Y-61323941D01*
X116954036Y-61235489D01*
X117033522Y-61147946D01*
X117111563Y-61061987D01*
X117187545Y-60978293D01*
X117260851Y-60897538D01*
X117330870Y-60820401D01*
X117396984Y-60747559D01*
X117458579Y-60679690D01*
X117515038Y-60617470D01*
X117565748Y-60561576D01*
X117610093Y-60512687D01*
X117647460Y-60471481D01*
X117677231Y-60438632D01*
X117698792Y-60414819D01*
X117711529Y-60400721D01*
X117745833Y-60362629D01*
X118031315Y-60514422D01*
G37*
G36*
X112199078Y-68938638D02*
G01*
X112043404Y-69231418D01*
X110293237Y-68300837D01*
X110448910Y-68008058D01*
X112199078Y-68938638D01*
G37*
G36*
X113261116Y-66941235D02*
G01*
X112564953Y-66571079D01*
X112489410Y-66713154D01*
X112523057Y-66747971D01*
X112523484Y-66748411D01*
X112536779Y-66762100D01*
X112558926Y-66784833D01*
X112588542Y-66815192D01*
X112624243Y-66851763D01*
X112664648Y-66893126D01*
X112708371Y-66937867D01*
X112754030Y-66984569D01*
X112798685Y-67030259D01*
X112844907Y-67077608D01*
X112888795Y-67122619D01*
X112928751Y-67163652D01*
X112963182Y-67199069D01*
X112990492Y-67227232D01*
X113009087Y-67246504D01*
X113066817Y-67306658D01*
X112908529Y-67604355D01*
X112608663Y-67286489D01*
X112557827Y-67232680D01*
X112506372Y-67178384D01*
X112458709Y-67128262D01*
X112415738Y-67083251D01*
X112378361Y-67044288D01*
X112347475Y-67012313D01*
X112323981Y-66988264D01*
X112308779Y-66973078D01*
X112302771Y-66967693D01*
X112301803Y-66967755D01*
X112290551Y-66971926D01*
X112270778Y-66981248D01*
X112246063Y-66994060D01*
X112226523Y-67003675D01*
X112164472Y-67024700D01*
X112098767Y-67034651D01*
X112034704Y-67032564D01*
X112031910Y-67032177D01*
X112018940Y-67030148D01*
X112006430Y-67027449D01*
X111992875Y-67023394D01*
X111976775Y-67017301D01*
X111956626Y-67008486D01*
X111930927Y-66996265D01*
X111898175Y-66979954D01*
X111856867Y-66958870D01*
X111805501Y-66932331D01*
X111742575Y-66899652D01*
X111700655Y-66877818D01*
X111637146Y-66844440D01*
X111584626Y-66816225D01*
X111541715Y-66792238D01*
X111507032Y-66771545D01*
X111479197Y-66753213D01*
X111456828Y-66736310D01*
X111438545Y-66719902D01*
X111422967Y-66703056D01*
X111408714Y-66684838D01*
X111394405Y-66664317D01*
X111377863Y-66636916D01*
X111352235Y-66573789D01*
X111340070Y-66504860D01*
X111341371Y-66430269D01*
X111345448Y-66408157D01*
X111660780Y-66408157D01*
X111664409Y-66429935D01*
X111666307Y-66437507D01*
X111672607Y-66456472D01*
X111681626Y-66473454D01*
X111694866Y-66489667D01*
X111713825Y-66506324D01*
X111740006Y-66524638D01*
X111774909Y-66545820D01*
X111820035Y-66571083D01*
X111876882Y-66601641D01*
X111884247Y-66605555D01*
X111933458Y-66631533D01*
X111971919Y-66651387D01*
X112001543Y-66665985D01*
X112024242Y-66676191D01*
X112041929Y-66682873D01*
X112056514Y-66686897D01*
X112069911Y-66689130D01*
X112075478Y-66689685D01*
X112117709Y-66686831D01*
X112157225Y-66672729D01*
X112189194Y-66649004D01*
X112192084Y-66645629D01*
X112204535Y-66627885D01*
X112221250Y-66601040D01*
X112240398Y-66568109D01*
X112260148Y-66532109D01*
X112311211Y-66436162D01*
X111771197Y-66149031D01*
X111720206Y-66245017D01*
X111716586Y-66251852D01*
X111693081Y-66297659D01*
X111676494Y-66333727D01*
X111666077Y-66362520D01*
X111661087Y-66386508D01*
X111660780Y-66408157D01*
X111345448Y-66408157D01*
X111356142Y-66350158D01*
X111384386Y-66264666D01*
X111392381Y-66246338D01*
X111407055Y-66215352D01*
X111426863Y-66175091D01*
X111450824Y-66127505D01*
X111477957Y-66074539D01*
X111507280Y-66018142D01*
X111537812Y-65960259D01*
X111666622Y-65717875D01*
X111926870Y-65856252D01*
X113416789Y-66648456D01*
X113261116Y-66941235D01*
G37*
G36*
X118109616Y-59610917D02*
G01*
X118105941Y-59615354D01*
X118092284Y-59631831D01*
X118069903Y-59658833D01*
X118039232Y-59695831D01*
X118000710Y-59742300D01*
X117954773Y-59797714D01*
X117901857Y-59861545D01*
X117842398Y-59933267D01*
X117776833Y-60012354D01*
X117705599Y-60098278D01*
X117629133Y-60190514D01*
X117547869Y-60288535D01*
X117462246Y-60391814D01*
X117372700Y-60499826D01*
X117279667Y-60612042D01*
X117183583Y-60727937D01*
X117084886Y-60846985D01*
X116984012Y-60968658D01*
X116920384Y-61045406D01*
X116821608Y-61164561D01*
X116725584Y-61280409D01*
X116632728Y-61392445D01*
X116543455Y-61500169D01*
X116458184Y-61603077D01*
X116377328Y-61700669D01*
X116301304Y-61792440D01*
X116230527Y-61877890D01*
X116165415Y-61956516D01*
X116106383Y-62027814D01*
X116053845Y-62091285D01*
X116008220Y-62146424D01*
X115969923Y-62192731D01*
X115939368Y-62229702D01*
X115916975Y-62256836D01*
X115903155Y-62273630D01*
X115898328Y-62279581D01*
X115897560Y-62279338D01*
X115886812Y-62274116D01*
X115863881Y-62262403D01*
X115829387Y-62244523D01*
X115783952Y-62220808D01*
X115728197Y-62191583D01*
X115662742Y-62157177D01*
X115588208Y-62117917D01*
X115505216Y-62074131D01*
X115414388Y-62026147D01*
X115316341Y-61974292D01*
X115211701Y-61918894D01*
X115101085Y-61860281D01*
X114985115Y-61798781D01*
X114864412Y-61734720D01*
X114739597Y-61668428D01*
X114611290Y-61600231D01*
X114536544Y-61560485D01*
X114388224Y-61481595D01*
X114252186Y-61409205D01*
X114127927Y-61343043D01*
X114014946Y-61282836D01*
X113912740Y-61228313D01*
X113820808Y-61179204D01*
X113738646Y-61135236D01*
X113665754Y-61096137D01*
X113601627Y-61061636D01*
X113545764Y-61031461D01*
X113497663Y-61005341D01*
X113456821Y-60983003D01*
X113422737Y-60964177D01*
X113394908Y-60948590D01*
X113372831Y-60935972D01*
X113356005Y-60926049D01*
X113343927Y-60918551D01*
X113336094Y-60913206D01*
X113332006Y-60909743D01*
X113331158Y-60907889D01*
X113331630Y-60907176D01*
X113338725Y-60897225D01*
X113353922Y-60876193D01*
X113376755Y-60844714D01*
X113406759Y-60803426D01*
X113443470Y-60752968D01*
X113486423Y-60693974D01*
X113529286Y-60635135D01*
X114429111Y-60635135D01*
X114437616Y-60705605D01*
X114459142Y-60770136D01*
X114493877Y-60829440D01*
X114542014Y-60884226D01*
X114544124Y-60886220D01*
X114556986Y-60897177D01*
X114573789Y-60909465D01*
X114596049Y-60924006D01*
X114625281Y-60941726D01*
X114663001Y-60963549D01*
X114710725Y-60990398D01*
X114769969Y-61023198D01*
X114965234Y-61130755D01*
X115117522Y-60844343D01*
X114951335Y-60752729D01*
X114946525Y-60750076D01*
X114886674Y-60716648D01*
X114839548Y-60689457D01*
X114804694Y-60668226D01*
X114781657Y-60652682D01*
X114769983Y-60642547D01*
X114760149Y-60628810D01*
X114743552Y-60589161D01*
X114739481Y-60545150D01*
X114747683Y-60498793D01*
X114767899Y-60452104D01*
X114799875Y-60407103D01*
X114831273Y-60379733D01*
X114870456Y-60361962D01*
X114912249Y-60357467D01*
X114918456Y-60358069D01*
X114925633Y-60359437D01*
X114934436Y-60362000D01*
X114945741Y-60366199D01*
X114960423Y-60372477D01*
X114979356Y-60381274D01*
X115003418Y-60393031D01*
X115033481Y-60408192D01*
X115070422Y-60427197D01*
X115115117Y-60450487D01*
X115168438Y-60478504D01*
X115231264Y-60511691D01*
X115304467Y-60550487D01*
X115388924Y-60595334D01*
X115485510Y-60646677D01*
X115578969Y-60696382D01*
X115663782Y-60741535D01*
X115737255Y-60780726D01*
X115800244Y-60814432D01*
X115853605Y-60843135D01*
X115898193Y-60867311D01*
X115934862Y-60887440D01*
X115964470Y-60904000D01*
X115987871Y-60917471D01*
X116005920Y-60928330D01*
X116019474Y-60937056D01*
X116029387Y-60944128D01*
X116036515Y-60950025D01*
X116041714Y-60955226D01*
X116045838Y-60960207D01*
X116064588Y-60994786D01*
X116072586Y-61036976D01*
X116067528Y-61081126D01*
X116049016Y-61131497D01*
X116022081Y-61174827D01*
X115988785Y-61207386D01*
X115950464Y-61228191D01*
X115908456Y-61236259D01*
X115864101Y-61230608D01*
X115857605Y-61228428D01*
X115834327Y-61218699D01*
X115800848Y-61203102D01*
X115759029Y-61182543D01*
X115710732Y-61157932D01*
X115657818Y-61130171D01*
X115488977Y-61040396D01*
X115336138Y-61327845D01*
X115557268Y-61441694D01*
X115592680Y-61459885D01*
X115650257Y-61489211D01*
X115697029Y-61512598D01*
X115734424Y-61530715D01*
X115763871Y-61544227D01*
X115786799Y-61553801D01*
X115804636Y-61560106D01*
X115818811Y-61563806D01*
X115859894Y-61570479D01*
X115929827Y-61572609D01*
X115995152Y-61561599D01*
X116057074Y-61537050D01*
X116116797Y-61498563D01*
X116175528Y-61445740D01*
X116186865Y-61433672D01*
X116202074Y-61415497D01*
X116217442Y-61394151D01*
X116234612Y-61367146D01*
X116255224Y-61331999D01*
X116280922Y-61286223D01*
X116299842Y-61251537D01*
X116320323Y-61212656D01*
X116337729Y-61178188D01*
X116350653Y-61150930D01*
X116357685Y-61133679D01*
X116365715Y-61106826D01*
X116382521Y-61025455D01*
X116385976Y-60950187D01*
X116376038Y-60880835D01*
X116352667Y-60817208D01*
X116315821Y-60759119D01*
X116265462Y-60706376D01*
X116261538Y-60703305D01*
X116243059Y-60691169D01*
X116213156Y-60673184D01*
X116172987Y-60649969D01*
X116123714Y-60622138D01*
X116066494Y-60590307D01*
X116002488Y-60555094D01*
X115932852Y-60517114D01*
X115858748Y-60476983D01*
X115781336Y-60435318D01*
X115701772Y-60392734D01*
X115621217Y-60349848D01*
X115540830Y-60307275D01*
X115461770Y-60265633D01*
X115385197Y-60225537D01*
X115312269Y-60187604D01*
X115244146Y-60152450D01*
X115181987Y-60120689D01*
X115126950Y-60092940D01*
X115080197Y-60069818D01*
X115042884Y-60051939D01*
X115016172Y-60039919D01*
X115001220Y-60034375D01*
X114958629Y-60026277D01*
X114887796Y-60023410D01*
X114820017Y-60034712D01*
X114754919Y-60060304D01*
X114692129Y-60100306D01*
X114631273Y-60154842D01*
X114621836Y-60164736D01*
X114607444Y-60181001D01*
X114594194Y-60198241D01*
X114580517Y-60218885D01*
X114564847Y-60245365D01*
X114545619Y-60280114D01*
X114521264Y-60325560D01*
X114507899Y-60350787D01*
X114487056Y-60390851D01*
X114471641Y-60422048D01*
X114460516Y-60447018D01*
X114452546Y-60468403D01*
X114446595Y-60488847D01*
X114441526Y-60510990D01*
X114433432Y-60558017D01*
X114429111Y-60635135D01*
X113529286Y-60635135D01*
X113535152Y-60627082D01*
X113589191Y-60552929D01*
X113648076Y-60472154D01*
X113711342Y-60385390D01*
X113778523Y-60293278D01*
X113849156Y-60196452D01*
X113922774Y-60095551D01*
X113998913Y-59991211D01*
X114077105Y-59884069D01*
X114156890Y-59774762D01*
X114237798Y-59663927D01*
X114270641Y-59618942D01*
X114917829Y-59618942D01*
X115658935Y-60010518D01*
X115698774Y-60031567D01*
X115770349Y-60069372D01*
X115808958Y-60089764D01*
X115907113Y-60141569D01*
X115993984Y-60187361D01*
X116070315Y-60227517D01*
X116136850Y-60262418D01*
X116194334Y-60292443D01*
X116243512Y-60317969D01*
X116285126Y-60339377D01*
X116319922Y-60357044D01*
X116348645Y-60371350D01*
X116372038Y-60382674D01*
X116390845Y-60391394D01*
X116405812Y-60397890D01*
X116417683Y-60402542D01*
X116427202Y-60405725D01*
X116435113Y-60407822D01*
X116442160Y-60409210D01*
X116506570Y-60416011D01*
X116576184Y-60412286D01*
X116640556Y-60395547D01*
X116700755Y-60365371D01*
X116757857Y-60321334D01*
X116812936Y-60263014D01*
X116815280Y-60260159D01*
X116846152Y-60217893D01*
X116878653Y-60166041D01*
X116910572Y-60108784D01*
X116939691Y-60050302D01*
X116963796Y-59994774D01*
X116980675Y-59946382D01*
X116996237Y-59875062D01*
X117000405Y-59800346D01*
X116990687Y-59730544D01*
X116967072Y-59665603D01*
X116929546Y-59605471D01*
X116878094Y-59550096D01*
X116876018Y-59548349D01*
X116866471Y-59541585D01*
X116850944Y-59531795D01*
X116828854Y-59518655D01*
X116799609Y-59501843D01*
X116762624Y-59481038D01*
X116717314Y-59455914D01*
X116663088Y-59426151D01*
X116599363Y-59391425D01*
X116525549Y-59351413D01*
X116441061Y-59305794D01*
X116345310Y-59254242D01*
X116237710Y-59196438D01*
X116117675Y-59132059D01*
X115385402Y-58739564D01*
X115233065Y-59026068D01*
X116640079Y-59778861D01*
X116663579Y-59812711D01*
X116678671Y-59841550D01*
X116686814Y-59883574D01*
X116681706Y-59928739D01*
X116663553Y-59975628D01*
X116632565Y-60022824D01*
X116626741Y-60029898D01*
X116595313Y-60059428D01*
X116561333Y-60076063D01*
X116521903Y-60081335D01*
X116487094Y-60081416D01*
X115778606Y-59706971D01*
X115070118Y-59332528D01*
X114917829Y-59618942D01*
X114270641Y-59618942D01*
X114319367Y-59552202D01*
X114401131Y-59440222D01*
X114482624Y-59328625D01*
X114563383Y-59218049D01*
X114642940Y-59109130D01*
X114720832Y-59002505D01*
X114796594Y-58898811D01*
X114869759Y-58798684D01*
X114939864Y-58702764D01*
X115006444Y-58611685D01*
X115069032Y-58526085D01*
X115127164Y-58446601D01*
X115180375Y-58373871D01*
X115228199Y-58308530D01*
X115270171Y-58251216D01*
X115305829Y-58202567D01*
X115334703Y-58163217D01*
X115356331Y-58133806D01*
X115370248Y-58114970D01*
X115375987Y-58107346D01*
X115389186Y-58091414D01*
X115654906Y-58232700D01*
X118151603Y-59560217D01*
X118109616Y-59610917D01*
G37*
G36*
X115347139Y-63017997D02*
G01*
X114650976Y-62647841D01*
X114575253Y-62790254D01*
X114636212Y-62852185D01*
X114643861Y-62859969D01*
X114666653Y-62883216D01*
X114697593Y-62914827D01*
X114735241Y-62953325D01*
X114778153Y-62997233D01*
X114824886Y-63045076D01*
X114873995Y-63095377D01*
X114924039Y-63146660D01*
X115150909Y-63379204D01*
X115074447Y-63527229D01*
X115065288Y-63544922D01*
X115041568Y-63590241D01*
X115023319Y-63624076D01*
X115009768Y-63647737D01*
X115000140Y-63662534D01*
X114993662Y-63669776D01*
X114989556Y-63670772D01*
X114984996Y-63666607D01*
X114970970Y-63652523D01*
X114948523Y-63629455D01*
X114918572Y-63598366D01*
X114882044Y-63560221D01*
X114839860Y-63515984D01*
X114792941Y-63466618D01*
X114742213Y-63413087D01*
X114688596Y-63356356D01*
X114644367Y-63309529D01*
X114593225Y-63255469D01*
X114545808Y-63205440D01*
X114503027Y-63160399D01*
X114465796Y-63121304D01*
X114435024Y-63089110D01*
X114411622Y-63064774D01*
X114396503Y-63049252D01*
X114390577Y-63043502D01*
X114388107Y-63043328D01*
X114375451Y-63047686D01*
X114357486Y-63057203D01*
X114316940Y-63078927D01*
X114254610Y-63101259D01*
X114189483Y-63110756D01*
X114118324Y-63108109D01*
X114114494Y-63107670D01*
X114102283Y-63106014D01*
X114090406Y-63103619D01*
X114077374Y-63099807D01*
X114061699Y-63093904D01*
X114041892Y-63085233D01*
X114016464Y-63073120D01*
X113983926Y-63056890D01*
X113942790Y-63035867D01*
X113891566Y-63009374D01*
X113828767Y-62976737D01*
X113794045Y-62958652D01*
X113734711Y-62927568D01*
X113686376Y-62901922D01*
X113647614Y-62880898D01*
X113616999Y-62863688D01*
X113593105Y-62849479D01*
X113574506Y-62837462D01*
X113559773Y-62826825D01*
X113547484Y-62816755D01*
X113504375Y-62773074D01*
X113464919Y-62715179D01*
X113438954Y-62651498D01*
X113426500Y-62582157D01*
X113427577Y-62507281D01*
X113432193Y-62481952D01*
X113746365Y-62481952D01*
X113749343Y-62503187D01*
X113753561Y-62520402D01*
X113759571Y-62536639D01*
X113768487Y-62551426D01*
X113781769Y-62565927D01*
X113800879Y-62581305D01*
X113827274Y-62598724D01*
X113862417Y-62619348D01*
X113907767Y-62644340D01*
X113964786Y-62674863D01*
X114002391Y-62694809D01*
X114046862Y-62718147D01*
X114081386Y-62735793D01*
X114107726Y-62748555D01*
X114127651Y-62757235D01*
X114142926Y-62762641D01*
X114155318Y-62765575D01*
X114166592Y-62766845D01*
X114202949Y-62764170D01*
X114242820Y-62749888D01*
X114275523Y-62725441D01*
X114278393Y-62722085D01*
X114290741Y-62704443D01*
X114307368Y-62677692D01*
X114326452Y-62644833D01*
X114346171Y-62608871D01*
X114397233Y-62512924D01*
X113857219Y-62225793D01*
X113806229Y-62321779D01*
X113805702Y-62322773D01*
X113781387Y-62369807D01*
X113764061Y-62406804D01*
X113752959Y-62436200D01*
X113747315Y-62460437D01*
X113746365Y-62481952D01*
X113432193Y-62481952D01*
X113442207Y-62426996D01*
X113470409Y-62341428D01*
X113478404Y-62323100D01*
X113493078Y-62292114D01*
X113512886Y-62251852D01*
X113536847Y-62204266D01*
X113563980Y-62151301D01*
X113593303Y-62094904D01*
X113623835Y-62037021D01*
X113752645Y-61794637D01*
X114012893Y-61933014D01*
X115502812Y-62725218D01*
X115347139Y-63017997D01*
G37*
G36*
X111722583Y-69830715D02*
G01*
X111701987Y-69868531D01*
X111668212Y-69930378D01*
X111640201Y-69981318D01*
X111617150Y-70022696D01*
X111598253Y-70055860D01*
X111582706Y-70082152D01*
X111569702Y-70102921D01*
X111558438Y-70119513D01*
X111548108Y-70133273D01*
X111537907Y-70145548D01*
X111527031Y-70157684D01*
X111502200Y-70183186D01*
X111441579Y-70233346D01*
X111378279Y-70269440D01*
X111312696Y-70291270D01*
X111245226Y-70298636D01*
X111241111Y-70298643D01*
X111225189Y-70298626D01*
X111210459Y-70298230D01*
X111196031Y-70297048D01*
X111181019Y-70294672D01*
X111164532Y-70290693D01*
X111145684Y-70284705D01*
X111123587Y-70276300D01*
X111097350Y-70265070D01*
X111066087Y-70250606D01*
X111028908Y-70232503D01*
X110984927Y-70210350D01*
X110933255Y-70183741D01*
X110873003Y-70152268D01*
X110803282Y-70115523D01*
X110723206Y-70073100D01*
X110631886Y-70024588D01*
X110528433Y-69969582D01*
X110507112Y-69958246D01*
X110406104Y-69904532D01*
X110317102Y-69857146D01*
X110239273Y-69815579D01*
X110171785Y-69779324D01*
X110113802Y-69747876D01*
X110064491Y-69720728D01*
X110023018Y-69697373D01*
X109988548Y-69677304D01*
X109960250Y-69660015D01*
X109937286Y-69644999D01*
X109918825Y-69631749D01*
X109904033Y-69619759D01*
X109892074Y-69608521D01*
X109882117Y-69597531D01*
X109873326Y-69586280D01*
X109864867Y-69574262D01*
X109855908Y-69560970D01*
X109853245Y-69556903D01*
X109831397Y-69514567D01*
X109813757Y-69464914D01*
X109802157Y-69414080D01*
X109798426Y-69368203D01*
X109798854Y-69353992D01*
X109801243Y-69320933D01*
X109804399Y-69299150D01*
X110121166Y-69299150D01*
X110130008Y-69340462D01*
X110150223Y-69377492D01*
X110152105Y-69379857D01*
X110156775Y-69384971D01*
X110163064Y-69390594D01*
X110171850Y-69397218D01*
X110184010Y-69405334D01*
X110200421Y-69415434D01*
X110221961Y-69428009D01*
X110249505Y-69443552D01*
X110283933Y-69462552D01*
X110326121Y-69485502D01*
X110376945Y-69512894D01*
X110437284Y-69545220D01*
X110508014Y-69582969D01*
X110590012Y-69626635D01*
X110684156Y-69676710D01*
X110729930Y-69701045D01*
X110818294Y-69747991D01*
X110894973Y-69788664D01*
X110960869Y-69823514D01*
X111016879Y-69852997D01*
X111063900Y-69877563D01*
X111102831Y-69897665D01*
X111134570Y-69913754D01*
X111160014Y-69926284D01*
X111180062Y-69935707D01*
X111195612Y-69942474D01*
X111207562Y-69947039D01*
X111216809Y-69949853D01*
X111224253Y-69951369D01*
X111230790Y-69952040D01*
X111267147Y-69949363D01*
X111307018Y-69935083D01*
X111339721Y-69910635D01*
X111341890Y-69908153D01*
X111353940Y-69891234D01*
X111370331Y-69865065D01*
X111389190Y-69832732D01*
X111408640Y-69797318D01*
X111457972Y-69704624D01*
X110228301Y-69050796D01*
X110179041Y-69143528D01*
X110174157Y-69152801D01*
X110156101Y-69188473D01*
X110140658Y-69221088D01*
X110129333Y-69247367D01*
X110123635Y-69264031D01*
X110121166Y-69299150D01*
X109804399Y-69299150D01*
X109806009Y-69288041D01*
X109813708Y-69253882D01*
X109824899Y-69217022D01*
X109840142Y-69176024D01*
X109859992Y-69129456D01*
X109885010Y-69075881D01*
X109915752Y-69013864D01*
X109952778Y-68941973D01*
X109996646Y-68858772D01*
X110123726Y-68619640D01*
X110383974Y-68758017D01*
X111874968Y-69550792D01*
X111722583Y-69830715D01*
G37*
G36*
X113966835Y-65613971D02*
G01*
X113555166Y-66388208D01*
X113294918Y-66249832D01*
X113554455Y-65761713D01*
X113304688Y-65631094D01*
X113054920Y-65500476D01*
X112946822Y-65699627D01*
X112838724Y-65898777D01*
X112585171Y-65763960D01*
X112799654Y-65360576D01*
X112324702Y-65108039D01*
X112068559Y-65589773D01*
X111941000Y-65519686D01*
X111813440Y-65449598D01*
X112015002Y-65066467D01*
X112216563Y-64683335D01*
X113966835Y-65613971D01*
G37*
G36*
X111244281Y-70734350D02*
G01*
X110832612Y-71508587D01*
X110572364Y-71370211D01*
X110828360Y-70888752D01*
X110327383Y-70622377D01*
X110116358Y-71019256D01*
X109862617Y-70884339D01*
X110073641Y-70487461D01*
X109598689Y-70234924D01*
X109346152Y-70709876D01*
X109085904Y-70571500D01*
X109494114Y-69803769D01*
X111244281Y-70734350D01*
G37*
G36*
X114866281Y-63922359D02*
G01*
X114710607Y-64215138D01*
X112960440Y-63284558D01*
X113116114Y-62991778D01*
X114866281Y-63922359D01*
G37*
G36*
X111289684Y-66999063D02*
G01*
X111298476Y-67001426D01*
X111317320Y-67007858D01*
X111340706Y-67017579D01*
X111370293Y-67031380D01*
X111407741Y-67050049D01*
X111454708Y-67074374D01*
X111512856Y-67105146D01*
X111553693Y-67126985D01*
X111605006Y-67154857D01*
X111645969Y-67177934D01*
X111678247Y-67197352D01*
X111703504Y-67214252D01*
X111723408Y-67229774D01*
X111739622Y-67245057D01*
X111753815Y-67261241D01*
X111767649Y-67279464D01*
X111770298Y-67283167D01*
X111788154Y-67311294D01*
X111803190Y-67341853D01*
X111815680Y-67376381D01*
X111825900Y-67416414D01*
X111834125Y-67463490D01*
X111840633Y-67519144D01*
X111845698Y-67584912D01*
X111849594Y-67662332D01*
X111852600Y-67752941D01*
X111853270Y-67775064D01*
X111855583Y-67830636D01*
X111858563Y-67880949D01*
X111862026Y-67923633D01*
X111865794Y-67956318D01*
X111869686Y-67976635D01*
X111870649Y-67979888D01*
X111879067Y-68003561D01*
X111889929Y-68023845D01*
X111905056Y-68042341D01*
X111926267Y-68060648D01*
X111955382Y-68080365D01*
X111994222Y-68103095D01*
X112044605Y-68130437D01*
X112048946Y-68132745D01*
X112089304Y-68154091D01*
X112119419Y-68169536D01*
X112141801Y-68180056D01*
X112158961Y-68186624D01*
X112173412Y-68190214D01*
X112187663Y-68191801D01*
X112204228Y-68192360D01*
X112237840Y-68189299D01*
X112279012Y-68173289D01*
X112314472Y-68143959D01*
X112343660Y-68101671D01*
X112358831Y-68066296D01*
X112367082Y-68019891D01*
X112361093Y-67976024D01*
X112340875Y-67935364D01*
X112315064Y-67898690D01*
X112005100Y-67733879D01*
X112157314Y-67447607D01*
X112345673Y-67547759D01*
X112378590Y-67565366D01*
X112433843Y-67595461D01*
X112481456Y-67622121D01*
X112520048Y-67644549D01*
X112548234Y-67661953D01*
X112564632Y-67673538D01*
X112595809Y-67702557D01*
X112639044Y-67757412D01*
X112668827Y-67818127D01*
X112685126Y-67884510D01*
X112687899Y-67956373D01*
X112677110Y-68033526D01*
X112652722Y-68115781D01*
X112642893Y-68140047D01*
X112621727Y-68184756D01*
X112595533Y-68234071D01*
X112566450Y-68284349D01*
X112536615Y-68331948D01*
X112508166Y-68373225D01*
X112483240Y-68404539D01*
X112472764Y-68415966D01*
X112416480Y-68467567D01*
X112357778Y-68504907D01*
X112295801Y-68528331D01*
X112229690Y-68538181D01*
X112158585Y-68534805D01*
X112156676Y-68534547D01*
X112143318Y-68532407D01*
X112130053Y-68529331D01*
X112115239Y-68524583D01*
X112097231Y-68517427D01*
X112074384Y-68507126D01*
X112045053Y-68492943D01*
X112007595Y-68474142D01*
X111960365Y-68449986D01*
X111901720Y-68419739D01*
X111862159Y-68399235D01*
X111803013Y-68368176D01*
X111754785Y-68342055D01*
X111716011Y-68319873D01*
X111685232Y-68300630D01*
X111660982Y-68283326D01*
X111641802Y-68266963D01*
X111626229Y-68250540D01*
X111612801Y-68233058D01*
X111600056Y-68213519D01*
X111592783Y-68201222D01*
X111576674Y-68169034D01*
X111563368Y-68133549D01*
X111552602Y-68093136D01*
X111544120Y-68046168D01*
X111537659Y-67991013D01*
X111532961Y-67926044D01*
X111529767Y-67849629D01*
X111527816Y-67760139D01*
X111526351Y-67698513D01*
X111522966Y-67633147D01*
X111517607Y-67579875D01*
X111510005Y-67537263D01*
X111499890Y-67503882D01*
X111486993Y-67478300D01*
X111471043Y-67459089D01*
X111467849Y-67456310D01*
X111448381Y-67442511D01*
X111419553Y-67424740D01*
X111384496Y-67404664D01*
X111346344Y-67383955D01*
X111308226Y-67364278D01*
X111273273Y-67347306D01*
X111244617Y-67334706D01*
X111225391Y-67328148D01*
X111219850Y-67327158D01*
X111192327Y-67326101D01*
X111164844Y-67329541D01*
X111164448Y-67329635D01*
X111128317Y-67345372D01*
X111095864Y-67372499D01*
X111069049Y-67407805D01*
X111049836Y-67448075D01*
X111040188Y-67490095D01*
X111042063Y-67530652D01*
X111044431Y-67541170D01*
X111049328Y-67557862D01*
X111056281Y-67572402D01*
X111066847Y-67586104D01*
X111082581Y-67600283D01*
X111105037Y-67616252D01*
X111135771Y-67635327D01*
X111176337Y-67658821D01*
X111228291Y-67688049D01*
X111379457Y-67772598D01*
X111227243Y-68058871D01*
X111051742Y-67965154D01*
X111016661Y-67946338D01*
X110962077Y-67916489D01*
X110918071Y-67891301D01*
X110882951Y-67869551D01*
X110855024Y-67850016D01*
X110832599Y-67831470D01*
X110813986Y-67812689D01*
X110797491Y-67792450D01*
X110781425Y-67769528D01*
X110780126Y-67767557D01*
X110752865Y-67713197D01*
X110735486Y-67650488D01*
X110728286Y-67582180D01*
X110731564Y-67511019D01*
X110745620Y-67439754D01*
X110748984Y-67428454D01*
X110766817Y-67380629D01*
X110791333Y-67326913D01*
X110820353Y-67271308D01*
X110851694Y-67217817D01*
X110883176Y-67170441D01*
X110912622Y-67133184D01*
X110954331Y-67091158D01*
X111015889Y-67043966D01*
X111080368Y-67011101D01*
X111147604Y-66992623D01*
X111217430Y-66988591D01*
X111289684Y-66999063D01*
G37*
%TD*%
M02*
