%TF.GenerationSoftware,KiCad,Pcbnew,(6.0.8-1)-1*%
%TF.CreationDate,2022-11-30T21:42:07-05:00*%
%TF.ProjectId,Untitled,556e7469-746c-4656-942e-6b696361645f,rev?*%
%TF.SameCoordinates,Original*%
%TF.FileFunction,Copper,L1,Top*%
%TF.FilePolarity,Positive*%
%FSLAX46Y46*%
G04 Gerber Fmt 4.6, Leading zero omitted, Abs format (unit mm)*
G04 Created by KiCad (PCBNEW (6.0.8-1)-1) date 2022-11-30 21:42:07*
%MOMM*%
%LPD*%
G01*
G04 APERTURE LIST*
G04 Aperture macros list*
%AMRoundRect*
0 Rectangle with rounded corners*
0 $1 Rounding radius*
0 $2 $3 $4 $5 $6 $7 $8 $9 X,Y pos of 4 corners*
0 Add a 4 corners polygon primitive as box body*
4,1,4,$2,$3,$4,$5,$6,$7,$8,$9,$2,$3,0*
0 Add four circle primitives for the rounded corners*
1,1,$1+$1,$2,$3*
1,1,$1+$1,$4,$5*
1,1,$1+$1,$6,$7*
1,1,$1+$1,$8,$9*
0 Add four rect primitives between the rounded corners*
20,1,$1+$1,$2,$3,$4,$5,0*
20,1,$1+$1,$4,$5,$6,$7,0*
20,1,$1+$1,$6,$7,$8,$9,0*
20,1,$1+$1,$8,$9,$2,$3,0*%
%AMHorizOval*
0 Thick line with rounded ends*
0 $1 width*
0 $2 $3 position (X,Y) of the first rounded end (center of the circle)*
0 $4 $5 position (X,Y) of the second rounded end (center of the circle)*
0 Add line between two ends*
20,1,$1,$2,$3,$4,$5,0*
0 Add two circle primitives to create the rounded ends*
1,1,$1,$2,$3*
1,1,$1,$4,$5*%
%AMRotRect*
0 Rectangle, with rotation*
0 The origin of the aperture is its center*
0 $1 length*
0 $2 width*
0 $3 Rotation angle, in degrees counterclockwise*
0 Add horizontal line*
21,1,$1,$2,0,0,$3*%
G04 Aperture macros list end*
%TA.AperFunction,SMDPad,CuDef*%
%ADD10RoundRect,0.237500X-0.287500X-0.237500X0.287500X-0.237500X0.287500X0.237500X-0.287500X0.237500X0*%
%TD*%
%TA.AperFunction,SMDPad,CuDef*%
%ADD11R,4.300000X1.100000*%
%TD*%
%TA.AperFunction,ComponentPad*%
%ADD12RoundRect,0.250000X0.346597X0.874926X-0.794671X0.504106X-0.346597X-0.874926X0.794671X-0.504106X0*%
%TD*%
%TA.AperFunction,ComponentPad*%
%ADD13HorizOval,1.700000X-0.038627X0.118882X0.038627X-0.118882X0*%
%TD*%
%TA.AperFunction,ComponentPad*%
%ADD14RotRect,1.397000X1.397000X162.000000*%
%TD*%
%TA.AperFunction,ComponentPad*%
%ADD15C,1.397000*%
%TD*%
%TA.AperFunction,ComponentPad*%
%ADD16RoundRect,0.250000X0.959434X-0.044571X0.254092X0.926249X-0.959434X0.044571X-0.254092X-0.926249X0*%
%TD*%
%TA.AperFunction,ComponentPad*%
%ADD17HorizOval,1.700000X0.121353X0.088168X-0.121353X-0.088168X0*%
%TD*%
%TA.AperFunction,ViaPad*%
%ADD18C,0.800000*%
%TD*%
%TA.AperFunction,Conductor*%
%ADD19C,0.200000*%
%TD*%
%TA.AperFunction,Conductor*%
%ADD20C,0.250000*%
%TD*%
G04 APERTURE END LIST*
D10*
%TO.P,REF\u002A\u002A,1*%
%TO.N,N/C*%
X102865000Y-55200000D03*
%TO.P,REF\u002A\u002A,2*%
X104615000Y-55200000D03*
%TD*%
D11*
%TO.P,REF\u002A\u002A,1*%
%TO.N,N/C*%
X103490000Y-56910000D03*
%TO.P,REF\u002A\u002A,2*%
X103490000Y-59110000D03*
%TD*%
D12*
%TO.P,REF\u002A\u002A,1*%
%TO.N,N/C*%
X102300000Y-46928153D03*
D13*
%TO.P,REF\u002A\u002A,2*%
X99922359Y-47700695D03*
%TO.P,REF\u002A\u002A,3*%
X97544717Y-48473238D03*
%TD*%
D14*
%TO.P,REF\u002A\u002A,1*%
%TO.N,N/C*%
X102005167Y-69727811D03*
D15*
%TO.P,REF\u002A\u002A,2*%
X99589483Y-68942908D03*
%TO.P,REF\u002A\u002A,3*%
X97173800Y-68158005D03*
%TD*%
D16*
%TO.P,REF\u002A\u002A,1*%
%TO.N,N/C*%
X113200000Y-52600000D03*
D17*
%TO.P,REF\u002A\u002A,2*%
X111730537Y-50577458D03*
%TD*%
D18*
%TO.N,*%
X110600000Y-52200000D03*
%TD*%
D19*
%TO.N,*%
X110600000Y-52200000D02*
X110000000Y-51600000D01*
D20*
X101890000Y-59110000D02*
X100200000Y-60800000D01*
X113200000Y-53300000D02*
X113200000Y-52600000D01*
X103490000Y-56910000D02*
X106110000Y-56910000D01*
D19*
X101000000Y-54000000D02*
X102200000Y-55200000D01*
D20*
X104815000Y-55200000D02*
X111300000Y-55200000D01*
D19*
X110000000Y-51600000D02*
X101600000Y-51600000D01*
D20*
X107000000Y-57800000D02*
X107000000Y-63800000D01*
X111300000Y-55200000D02*
X113200000Y-53300000D01*
X100200000Y-68332391D02*
X99589483Y-68942908D01*
D19*
X102005167Y-69727811D02*
X107000000Y-64732978D01*
X102200000Y-55200000D02*
X102865000Y-55200000D01*
X107000000Y-64732978D02*
X107000000Y-63800000D01*
D20*
X103490000Y-59110000D02*
X101890000Y-59110000D01*
X106110000Y-56910000D02*
X107000000Y-57800000D01*
D19*
X101000000Y-52200000D02*
X101000000Y-54000000D01*
X101600000Y-51600000D02*
X101000000Y-52200000D01*
D20*
X100200000Y-60800000D02*
X100200000Y-67400000D01*
X100200000Y-67400000D02*
X100200000Y-68332391D01*
%TD*%
M02*
