M48
; DRILL file {KiCad (6.0.8-1)-1} date Thursday, September 21, 2023 at 03:44:37 PM
; FORMAT={-:-/ absolute / inch / decimal}
; #@! TF.CreationDate,2023-09-21T15:44:37-04:00
; #@! TF.GenerationSoftware,Kicad,Pcbnew,(6.0.8-1)-1
; #@! TF.FileFunction,Plated,1,2,PTH
FMAT,2
INCH
; #@! TA.AperFunction,Plated,PTH,ViaDrill
T1C0.0157
; #@! TA.AperFunction,Plated,PTH,ComponentDrill
T2C0.0350
; #@! TA.AperFunction,Plated,PTH,ComponentDrill
T3C0.0433
; #@! TA.AperFunction,Plated,PTH,ComponentDrill
T4C0.0591
%
G90
G05
T1
X2.4685Y-1.7874
X2.5787Y-4.6299
X2.6496Y-1.6339
X2.6535Y-3.5551
X2.6654Y-4.5827
X2.6693Y-4.0669
X2.6693Y-4.6654
X2.6929Y-3.063
X2.7126Y-4.2402
X2.7205Y-1.7638
X2.7205Y-3.3976
X2.7244Y-2.126
X2.7244Y-2.9252
X2.7244Y-4.4291
X2.7283Y-2.0157
X2.7283Y-2.3661
X2.7283Y-3.8504
X2.7323Y-1.4213
X2.7402Y-2.6083
X2.748Y-1.8701
X3.0394Y-1.8228
X3.0528Y-3.0929
X3.0591Y-2.9764
X3.0591Y-5.063
X3.0606Y-3.3606
X3.0626Y-4.5476
X3.063Y-3.5433
X3.063Y-5.0236
X3.065Y-4.0965
X3.0697Y-4.4421
X3.0709Y-4.2992
X3.0776Y-1.639
X3.0787Y-1.5354
X3.0822Y-2.5083
X3.0827Y-2.0827
X3.0846Y-2.6083
X3.0906Y-2.126
X3.8465Y-3.1496
X3.8465Y-3.248
X3.8504Y-1.8898
X3.8504Y-2.0079
X3.8504Y-4.5
X3.8543Y-4.4055
X3.9252Y-3.2913
X3.9291Y-4.5433
X3.9331Y-2.0394
X4.0118Y-1.8937
X4.0157Y-4.4094
X4.0197Y-3.1496
X4.9291Y-2.6181
X4.9331Y-3.8701
X4.937Y-2.5236
X4.9409Y-3.7795
X5.0157Y-2.6575
X5.0157Y-3.9173
X5.1063Y-2.5197
X5.1063Y-3.7756
X6.0197Y-1.9882
X6.0197Y-3.2441
X6.0236Y-1.8898
X6.0236Y-3.1496
X6.0236Y-4.5
X6.0276Y-4.4016
X6.0984Y-2.0315
X6.1024Y-4.5472
X6.1063Y-3.2913
X6.189Y-1.8898
X6.189Y-3.1496
X6.189Y-4.4094
T2
X2.3307Y-1.7717
X2.3307Y-1.8717
X2.3307Y-1.9717
X2.3307Y-2.1307
X2.3307Y-2.2307
X2.3307Y-2.3307
X2.3327Y-1.4181
X2.3327Y-1.5181
X2.3327Y-1.6181
X2.3327Y-2.4808
X2.3327Y-2.5808
X2.3327Y-2.6808
X2.3327Y-2.831
X2.3327Y-2.931
X2.3327Y-3.031
X2.3327Y-3.1816
X2.3327Y-3.2816
X2.3327Y-3.3816
X2.3327Y-3.5318
X2.3327Y-3.6318
X2.3327Y-3.7318
X2.3327Y-3.8824
X2.3327Y-3.9824
X2.3327Y-4.0824
X2.3327Y-4.2326
X2.3327Y-4.3326
X2.3327Y-4.4326
T3
X2.1339Y-4.8504
T4
X1.936Y-4.6526
X1.936Y-5.0482
X2.3317Y-4.6526
X2.3317Y-5.0482
T0
M30
