%TF.GenerationSoftware,KiCad,Pcbnew,8.0.2-1*%
%TF.CreationDate,2024-08-05T19:08:03-04:00*%
%TF.ProjectId,3x3_6mSiPMs,3378335f-366d-4536-9950-4d732e6b6963,rev?*%
%TF.SameCoordinates,Original*%
%TF.FileFunction,Soldermask,Top*%
%TF.FilePolarity,Negative*%
%FSLAX46Y46*%
G04 Gerber Fmt 4.6, Leading zero omitted, Abs format (unit mm)*
G04 Created by KiCad (PCBNEW 8.0.2-1) date 2024-08-05 19:08:03*
%MOMM*%
%LPD*%
G01*
G04 APERTURE LIST*
G04 Aperture macros list*
%AMRoundRect*
0 Rectangle with rounded corners*
0 $1 Rounding radius*
0 $2 $3 $4 $5 $6 $7 $8 $9 X,Y pos of 4 corners*
0 Add a 4 corners polygon primitive as box body*
4,1,4,$2,$3,$4,$5,$6,$7,$8,$9,$2,$3,0*
0 Add four circle primitives for the rounded corners*
1,1,$1+$1,$2,$3*
1,1,$1+$1,$4,$5*
1,1,$1+$1,$6,$7*
1,1,$1+$1,$8,$9*
0 Add four rect primitives between the rounded corners*
20,1,$1+$1,$2,$3,$4,$5,0*
20,1,$1+$1,$4,$5,$6,$7,0*
20,1,$1+$1,$6,$7,$8,$9,0*
20,1,$1+$1,$8,$9,$2,$3,0*%
G04 Aperture macros list end*
%ADD10C,1.100000*%
%ADD11RoundRect,0.102000X0.699000X0.699000X-0.699000X0.699000X-0.699000X-0.699000X0.699000X-0.699000X0*%
%ADD12C,1.602000*%
%ADD13RoundRect,0.102000X0.699000X-0.699000X0.699000X0.699000X-0.699000X0.699000X-0.699000X-0.699000X0*%
%ADD14RoundRect,0.102000X-0.699000X-0.699000X0.699000X-0.699000X0.699000X0.699000X-0.699000X0.699000X0*%
%ADD15RoundRect,0.102000X-0.699000X0.699000X-0.699000X-0.699000X0.699000X-0.699000X0.699000X0.699000X0*%
G04 APERTURE END LIST*
D10*
%TO.C,REF\u002A\u002A*%
X94550000Y-40400000D03*
X89950000Y-40400000D03*
X89950000Y-44600000D03*
X94550000Y-44600000D03*
%TD*%
%TO.C,REF\u002A\u002A3*%
X94550000Y-47900000D03*
X89950000Y-47900000D03*
X89950000Y-52100000D03*
X94550000Y-52100000D03*
%TD*%
%TO.C,REF\u002A\u002A1*%
X102050000Y-40400000D03*
X97450000Y-40400000D03*
X97450000Y-44600000D03*
X102050000Y-44600000D03*
%TD*%
%TO.C,REF\u002A\u002A7*%
X94550000Y-55400000D03*
X89950000Y-55400000D03*
X89950000Y-59600000D03*
X94550000Y-59600000D03*
%TD*%
%TO.C,REF\u002A\u002A9*%
X102050000Y-55400000D03*
X97450000Y-55400000D03*
X97450000Y-59600000D03*
X102050000Y-59600000D03*
%TD*%
%TO.C,REF\u002A\u002A6*%
X109550000Y-47900000D03*
X104950000Y-47900000D03*
X104950000Y-52100000D03*
X109550000Y-52100000D03*
%TD*%
%TO.C,REF\u002A\u002A10*%
X109550000Y-55400000D03*
X104950000Y-55400000D03*
X104950000Y-59600000D03*
X109550000Y-59600000D03*
%TD*%
%TO.C,REF\u002A\u002A5*%
X102050000Y-47900000D03*
X97450000Y-47900000D03*
X97450000Y-52100000D03*
X102050000Y-52100000D03*
%TD*%
%TO.C,REF\u002A\u002A2*%
X109550000Y-40400000D03*
X104950000Y-40400000D03*
X104950000Y-44600000D03*
X109550000Y-44600000D03*
%TD*%
D11*
%TO.C,REF\u002A\u002A*%
X114540000Y-35500000D03*
D12*
X112000000Y-35500000D03*
X109460000Y-35500000D03*
%TD*%
D13*
%TO.C,REF\u002A\u002A*%
X114500000Y-47040000D03*
D12*
X114500000Y-44500000D03*
X114500000Y-41960000D03*
%TD*%
D14*
%TO.C,REF\u002A\u002A*%
X91460000Y-64500000D03*
D12*
X94000000Y-64500000D03*
X96540000Y-64500000D03*
%TD*%
D15*
%TO.C,REF\u002A\u002A*%
X85500000Y-53460000D03*
D12*
X85500000Y-56000000D03*
X85500000Y-58540000D03*
%TD*%
D13*
%TO.C,REF\u002A\u002A*%
X114500000Y-58540000D03*
D12*
X114500000Y-56000000D03*
X114500000Y-53460000D03*
%TD*%
D14*
%TO.C,REF\u002A\u002A*%
X103460000Y-64500000D03*
D12*
X106000000Y-64500000D03*
X108540000Y-64500000D03*
%TD*%
D11*
%TO.C,REF\u002A\u002A*%
X90540000Y-35500000D03*
D12*
X88000000Y-35500000D03*
X85460000Y-35500000D03*
%TD*%
D15*
%TO.C,REF\u002A\u002A*%
X85500000Y-41960000D03*
D12*
X85500000Y-44500000D03*
X85500000Y-47040000D03*
%TD*%
D11*
%TO.C,REF\u002A\u002A*%
X102540000Y-35500000D03*
D12*
X100000000Y-35500000D03*
X97460000Y-35500000D03*
%TD*%
M02*
