%TF.GenerationSoftware,KiCad,Pcbnew,(6.0.8-1)-1*%
%TF.CreationDate,2024-05-20T17:10:39-04:00*%
%TF.ProjectId,3x3_6mSiPMs,3378335f-366d-4536-9950-4d732e6b6963,rev?*%
%TF.SameCoordinates,Original*%
%TF.FileFunction,Drillmap*%
%TF.FilePolarity,Positive*%
%FSLAX45Y45*%
G04 Gerber Fmt 4.5, Leading zero omitted, Abs format (unit mm)*
G04 Created by KiCad (PCBNEW (6.0.8-1)-1) date 2024-05-20 17:10:39*
%MOMM*%
%LPD*%
G01*
G04 APERTURE LIST*
%ADD10C,0.100000*%
%ADD11C,0.200000*%
%ADD12C,0.040000*%
%ADD13C,0.089000*%
G04 APERTURE END LIST*
D10*
X8660000Y-6500000D02*
G75*
G03*
X8660000Y-6500000I-160000J0D01*
G01*
X11660000Y-6500000D02*
G75*
G03*
X11660000Y-6500000I-160000J0D01*
G01*
X8200000Y-3200000D02*
X11800000Y-3200000D01*
X11800000Y-3200000D02*
X11800000Y-6800000D01*
X11800000Y-6800000D02*
X8200000Y-6800000D01*
X8200000Y-6800000D02*
X8200000Y-3200000D01*
D11*
D12*
X9160000Y-5210000D02*
X9200000Y-5250000D01*
X9200000Y-5210000D02*
X9160000Y-5250000D01*
X9180000Y-5880000D02*
X9220000Y-5920000D01*
X9220000Y-5880000D02*
X9180000Y-5920000D01*
X9210000Y-4390000D02*
X9250000Y-4430000D01*
X9250000Y-4390000D02*
X9210000Y-4430000D01*
X9960000Y-5210000D02*
X10000000Y-5250000D01*
X10000000Y-5210000D02*
X9960000Y-5250000D01*
X9960000Y-6010000D02*
X10000000Y-6050000D01*
X10000000Y-6010000D02*
X9960000Y-6050000D01*
X9970000Y-4400000D02*
X10010000Y-4440000D01*
X10010000Y-4400000D02*
X9970000Y-4440000D01*
X10760000Y-4410000D02*
X10800000Y-4450000D01*
X10800000Y-4410000D02*
X10760000Y-4450000D01*
X10760000Y-5210000D02*
X10800000Y-5250000D01*
X10800000Y-5210000D02*
X10760000Y-5250000D01*
X10760000Y-5890000D02*
X10800000Y-5930000D01*
X10800000Y-5890000D02*
X10760000Y-5930000D01*
D13*
X8590500Y-3550000D02*
G75*
G03*
X8590500Y-3550000I-44500J0D01*
G01*
X8594500Y-4196000D02*
G75*
G03*
X8594500Y-4196000I-44500J0D01*
G01*
X8594500Y-4450000D02*
G75*
G03*
X8594500Y-4450000I-44500J0D01*
G01*
X8594500Y-4704000D02*
G75*
G03*
X8594500Y-4704000I-44500J0D01*
G01*
X8594500Y-5346000D02*
G75*
G03*
X8594500Y-5346000I-44500J0D01*
G01*
X8594500Y-5600000D02*
G75*
G03*
X8594500Y-5600000I-44500J0D01*
G01*
X8594500Y-5854000D02*
G75*
G03*
X8594500Y-5854000I-44500J0D01*
G01*
X8844500Y-3550000D02*
G75*
G03*
X8844500Y-3550000I-44500J0D01*
G01*
X9098500Y-3550000D02*
G75*
G03*
X9098500Y-3550000I-44500J0D01*
G01*
X9190500Y-6450000D02*
G75*
G03*
X9190500Y-6450000I-44500J0D01*
G01*
X9444500Y-6450000D02*
G75*
G03*
X9444500Y-6450000I-44500J0D01*
G01*
X9698500Y-6450000D02*
G75*
G03*
X9698500Y-6450000I-44500J0D01*
G01*
X9790500Y-3550000D02*
G75*
G03*
X9790500Y-3550000I-44500J0D01*
G01*
X10044500Y-3550000D02*
G75*
G03*
X10044500Y-3550000I-44500J0D01*
G01*
X10298500Y-3550000D02*
G75*
G03*
X10298500Y-3550000I-44500J0D01*
G01*
X10390500Y-6450000D02*
G75*
G03*
X10390500Y-6450000I-44500J0D01*
G01*
X10644500Y-6450000D02*
G75*
G03*
X10644500Y-6450000I-44500J0D01*
G01*
X10898500Y-6450000D02*
G75*
G03*
X10898500Y-6450000I-44500J0D01*
G01*
X10990500Y-3550000D02*
G75*
G03*
X10990500Y-3550000I-44500J0D01*
G01*
X11244500Y-3550000D02*
G75*
G03*
X11244500Y-3550000I-44500J0D01*
G01*
X11494500Y-4196000D02*
G75*
G03*
X11494500Y-4196000I-44500J0D01*
G01*
X11494500Y-4450000D02*
G75*
G03*
X11494500Y-4450000I-44500J0D01*
G01*
X11494500Y-4704000D02*
G75*
G03*
X11494500Y-4704000I-44500J0D01*
G01*
X11494500Y-5346000D02*
G75*
G03*
X11494500Y-5346000I-44500J0D01*
G01*
X11494500Y-5600000D02*
G75*
G03*
X11494500Y-5600000I-44500J0D01*
G01*
X11494500Y-5854000D02*
G75*
G03*
X11494500Y-5854000I-44500J0D01*
G01*
X11498500Y-3550000D02*
G75*
G03*
X11498500Y-3550000I-44500J0D01*
G01*
D11*
X8452619Y-7115476D02*
X8452619Y-6915476D01*
X8500238Y-6915476D01*
X8528810Y-6925000D01*
X8547857Y-6944048D01*
X8557381Y-6963095D01*
X8566905Y-7001190D01*
X8566905Y-7029762D01*
X8557381Y-7067857D01*
X8547857Y-7086905D01*
X8528810Y-7105952D01*
X8500238Y-7115476D01*
X8452619Y-7115476D01*
X8652619Y-7115476D02*
X8652619Y-6982143D01*
X8652619Y-7020238D02*
X8662143Y-7001190D01*
X8671667Y-6991667D01*
X8690714Y-6982143D01*
X8709762Y-6982143D01*
X8776429Y-7115476D02*
X8776429Y-6982143D01*
X8776429Y-6915476D02*
X8766905Y-6925000D01*
X8776429Y-6934524D01*
X8785952Y-6925000D01*
X8776429Y-6915476D01*
X8776429Y-6934524D01*
X8900238Y-7115476D02*
X8881190Y-7105952D01*
X8871667Y-7086905D01*
X8871667Y-6915476D01*
X9005000Y-7115476D02*
X8985952Y-7105952D01*
X8976429Y-7086905D01*
X8976429Y-6915476D01*
X9233571Y-7115476D02*
X9233571Y-6915476D01*
X9300238Y-7058333D01*
X9366905Y-6915476D01*
X9366905Y-7115476D01*
X9547857Y-7115476D02*
X9547857Y-7010714D01*
X9538333Y-6991667D01*
X9519286Y-6982143D01*
X9481190Y-6982143D01*
X9462143Y-6991667D01*
X9547857Y-7105952D02*
X9528810Y-7115476D01*
X9481190Y-7115476D01*
X9462143Y-7105952D01*
X9452619Y-7086905D01*
X9452619Y-7067857D01*
X9462143Y-7048809D01*
X9481190Y-7039286D01*
X9528810Y-7039286D01*
X9547857Y-7029762D01*
X9643095Y-6982143D02*
X9643095Y-7182143D01*
X9643095Y-6991667D02*
X9662143Y-6982143D01*
X9700238Y-6982143D01*
X9719286Y-6991667D01*
X9728810Y-7001190D01*
X9738333Y-7020238D01*
X9738333Y-7077381D01*
X9728810Y-7096428D01*
X9719286Y-7105952D01*
X9700238Y-7115476D01*
X9662143Y-7115476D01*
X9643095Y-7105952D01*
X9824048Y-7096428D02*
X9833571Y-7105952D01*
X9824048Y-7115476D01*
X9814524Y-7105952D01*
X9824048Y-7096428D01*
X9824048Y-7115476D01*
X9824048Y-6991667D02*
X9833571Y-7001190D01*
X9824048Y-7010714D01*
X9814524Y-7001190D01*
X9824048Y-6991667D01*
X9824048Y-7010714D01*
D12*
X8155000Y-7425000D02*
X8195000Y-7465000D01*
X8195000Y-7425000D02*
X8155000Y-7465000D01*
D11*
X8490714Y-7335476D02*
X8509762Y-7335476D01*
X8528810Y-7345000D01*
X8538333Y-7354524D01*
X8547857Y-7373571D01*
X8557381Y-7411667D01*
X8557381Y-7459286D01*
X8547857Y-7497381D01*
X8538333Y-7516428D01*
X8528810Y-7525952D01*
X8509762Y-7535476D01*
X8490714Y-7535476D01*
X8471667Y-7525952D01*
X8462143Y-7516428D01*
X8452619Y-7497381D01*
X8443095Y-7459286D01*
X8443095Y-7411667D01*
X8452619Y-7373571D01*
X8462143Y-7354524D01*
X8471667Y-7345000D01*
X8490714Y-7335476D01*
X8643095Y-7516428D02*
X8652619Y-7525952D01*
X8643095Y-7535476D01*
X8633571Y-7525952D01*
X8643095Y-7516428D01*
X8643095Y-7535476D01*
X8824048Y-7402143D02*
X8824048Y-7535476D01*
X8776429Y-7325952D02*
X8728810Y-7468809D01*
X8852619Y-7468809D01*
X8966905Y-7335476D02*
X8985952Y-7335476D01*
X9005000Y-7345000D01*
X9014524Y-7354524D01*
X9024048Y-7373571D01*
X9033571Y-7411667D01*
X9033571Y-7459286D01*
X9024048Y-7497381D01*
X9014524Y-7516428D01*
X9005000Y-7525952D01*
X8985952Y-7535476D01*
X8966905Y-7535476D01*
X8947857Y-7525952D01*
X8938333Y-7516428D01*
X8928810Y-7497381D01*
X8919286Y-7459286D01*
X8919286Y-7411667D01*
X8928810Y-7373571D01*
X8938333Y-7354524D01*
X8947857Y-7345000D01*
X8966905Y-7335476D01*
X9157381Y-7335476D02*
X9176429Y-7335476D01*
X9195476Y-7345000D01*
X9205000Y-7354524D01*
X9214524Y-7373571D01*
X9224048Y-7411667D01*
X9224048Y-7459286D01*
X9214524Y-7497381D01*
X9205000Y-7516428D01*
X9195476Y-7525952D01*
X9176429Y-7535476D01*
X9157381Y-7535476D01*
X9138333Y-7525952D01*
X9128810Y-7516428D01*
X9119286Y-7497381D01*
X9109762Y-7459286D01*
X9109762Y-7411667D01*
X9119286Y-7373571D01*
X9128810Y-7354524D01*
X9138333Y-7345000D01*
X9157381Y-7335476D01*
X9309762Y-7535476D02*
X9309762Y-7402143D01*
X9309762Y-7421190D02*
X9319286Y-7411667D01*
X9338333Y-7402143D01*
X9366905Y-7402143D01*
X9385952Y-7411667D01*
X9395476Y-7430714D01*
X9395476Y-7535476D01*
X9395476Y-7430714D02*
X9405000Y-7411667D01*
X9424048Y-7402143D01*
X9452619Y-7402143D01*
X9471667Y-7411667D01*
X9481190Y-7430714D01*
X9481190Y-7535476D01*
X9576429Y-7535476D02*
X9576429Y-7402143D01*
X9576429Y-7421190D02*
X9585952Y-7411667D01*
X9605000Y-7402143D01*
X9633571Y-7402143D01*
X9652619Y-7411667D01*
X9662143Y-7430714D01*
X9662143Y-7535476D01*
X9662143Y-7430714D02*
X9671667Y-7411667D01*
X9690714Y-7402143D01*
X9719286Y-7402143D01*
X9738333Y-7411667D01*
X9747857Y-7430714D01*
X9747857Y-7535476D01*
X10138333Y-7325952D02*
X9966905Y-7583095D01*
X10395476Y-7335476D02*
X10414524Y-7335476D01*
X10433571Y-7345000D01*
X10443095Y-7354524D01*
X10452619Y-7373571D01*
X10462143Y-7411667D01*
X10462143Y-7459286D01*
X10452619Y-7497381D01*
X10443095Y-7516428D01*
X10433571Y-7525952D01*
X10414524Y-7535476D01*
X10395476Y-7535476D01*
X10376429Y-7525952D01*
X10366905Y-7516428D01*
X10357381Y-7497381D01*
X10347857Y-7459286D01*
X10347857Y-7411667D01*
X10357381Y-7373571D01*
X10366905Y-7354524D01*
X10376429Y-7345000D01*
X10395476Y-7335476D01*
X10547857Y-7516428D02*
X10557381Y-7525952D01*
X10547857Y-7535476D01*
X10538333Y-7525952D01*
X10547857Y-7516428D01*
X10547857Y-7535476D01*
X10681190Y-7335476D02*
X10700238Y-7335476D01*
X10719286Y-7345000D01*
X10728810Y-7354524D01*
X10738333Y-7373571D01*
X10747857Y-7411667D01*
X10747857Y-7459286D01*
X10738333Y-7497381D01*
X10728810Y-7516428D01*
X10719286Y-7525952D01*
X10700238Y-7535476D01*
X10681190Y-7535476D01*
X10662143Y-7525952D01*
X10652619Y-7516428D01*
X10643095Y-7497381D01*
X10633571Y-7459286D01*
X10633571Y-7411667D01*
X10643095Y-7373571D01*
X10652619Y-7354524D01*
X10662143Y-7345000D01*
X10681190Y-7335476D01*
X10938333Y-7535476D02*
X10824048Y-7535476D01*
X10881190Y-7535476D02*
X10881190Y-7335476D01*
X10862143Y-7364048D01*
X10843095Y-7383095D01*
X10824048Y-7392619D01*
X11119286Y-7335476D02*
X11024048Y-7335476D01*
X11014524Y-7430714D01*
X11024048Y-7421190D01*
X11043095Y-7411667D01*
X11090714Y-7411667D01*
X11109762Y-7421190D01*
X11119286Y-7430714D01*
X11128810Y-7449762D01*
X11128810Y-7497381D01*
X11119286Y-7516428D01*
X11109762Y-7525952D01*
X11090714Y-7535476D01*
X11043095Y-7535476D01*
X11024048Y-7525952D01*
X11014524Y-7516428D01*
X11195476Y-7335476D02*
X11328809Y-7335476D01*
X11243095Y-7535476D01*
X11395476Y-7335476D02*
X11395476Y-7373571D01*
X11471667Y-7335476D02*
X11471667Y-7373571D01*
X11766905Y-7611667D02*
X11757381Y-7602143D01*
X11738333Y-7573571D01*
X11728809Y-7554524D01*
X11719286Y-7525952D01*
X11709762Y-7478333D01*
X11709762Y-7440238D01*
X11719286Y-7392619D01*
X11728809Y-7364048D01*
X11738333Y-7345000D01*
X11757381Y-7316428D01*
X11766905Y-7306905D01*
X11852619Y-7535476D02*
X11890714Y-7535476D01*
X11909762Y-7525952D01*
X11919286Y-7516428D01*
X11938333Y-7487857D01*
X11947857Y-7449762D01*
X11947857Y-7373571D01*
X11938333Y-7354524D01*
X11928809Y-7345000D01*
X11909762Y-7335476D01*
X11871667Y-7335476D01*
X11852619Y-7345000D01*
X11843095Y-7354524D01*
X11833571Y-7373571D01*
X11833571Y-7421190D01*
X11843095Y-7440238D01*
X11852619Y-7449762D01*
X11871667Y-7459286D01*
X11909762Y-7459286D01*
X11928809Y-7449762D01*
X11938333Y-7440238D01*
X11947857Y-7421190D01*
X12185952Y-7535476D02*
X12185952Y-7335476D01*
X12271667Y-7535476D02*
X12271667Y-7430714D01*
X12262143Y-7411667D01*
X12243095Y-7402143D01*
X12214524Y-7402143D01*
X12195476Y-7411667D01*
X12185952Y-7421190D01*
X12395476Y-7535476D02*
X12376428Y-7525952D01*
X12366905Y-7516428D01*
X12357381Y-7497381D01*
X12357381Y-7440238D01*
X12366905Y-7421190D01*
X12376428Y-7411667D01*
X12395476Y-7402143D01*
X12424048Y-7402143D01*
X12443095Y-7411667D01*
X12452619Y-7421190D01*
X12462143Y-7440238D01*
X12462143Y-7497381D01*
X12452619Y-7516428D01*
X12443095Y-7525952D01*
X12424048Y-7535476D01*
X12395476Y-7535476D01*
X12576428Y-7535476D02*
X12557381Y-7525952D01*
X12547857Y-7506905D01*
X12547857Y-7335476D01*
X12728809Y-7525952D02*
X12709762Y-7535476D01*
X12671667Y-7535476D01*
X12652619Y-7525952D01*
X12643095Y-7506905D01*
X12643095Y-7430714D01*
X12652619Y-7411667D01*
X12671667Y-7402143D01*
X12709762Y-7402143D01*
X12728809Y-7411667D01*
X12738333Y-7430714D01*
X12738333Y-7449762D01*
X12643095Y-7468809D01*
X12814524Y-7525952D02*
X12833571Y-7535476D01*
X12871667Y-7535476D01*
X12890714Y-7525952D01*
X12900238Y-7506905D01*
X12900238Y-7497381D01*
X12890714Y-7478333D01*
X12871667Y-7468809D01*
X12843095Y-7468809D01*
X12824048Y-7459286D01*
X12814524Y-7440238D01*
X12814524Y-7430714D01*
X12824048Y-7411667D01*
X12843095Y-7402143D01*
X12871667Y-7402143D01*
X12890714Y-7411667D01*
X12966905Y-7611667D02*
X12976428Y-7602143D01*
X12995476Y-7573571D01*
X13005000Y-7554524D01*
X13014524Y-7525952D01*
X13024048Y-7478333D01*
X13024048Y-7440238D01*
X13014524Y-7392619D01*
X13005000Y-7364048D01*
X12995476Y-7345000D01*
X12976428Y-7316428D01*
X12966905Y-7306905D01*
D13*
X8195000Y-7709000D02*
G75*
G03*
X8195000Y-7709000I-44500J0D01*
G01*
D11*
X8490714Y-7599476D02*
X8509762Y-7599476D01*
X8528810Y-7609000D01*
X8538333Y-7618524D01*
X8547857Y-7637571D01*
X8557381Y-7675667D01*
X8557381Y-7723286D01*
X8547857Y-7761381D01*
X8538333Y-7780428D01*
X8528810Y-7789952D01*
X8509762Y-7799476D01*
X8490714Y-7799476D01*
X8471667Y-7789952D01*
X8462143Y-7780428D01*
X8452619Y-7761381D01*
X8443095Y-7723286D01*
X8443095Y-7675667D01*
X8452619Y-7637571D01*
X8462143Y-7618524D01*
X8471667Y-7609000D01*
X8490714Y-7599476D01*
X8643095Y-7780428D02*
X8652619Y-7789952D01*
X8643095Y-7799476D01*
X8633571Y-7789952D01*
X8643095Y-7780428D01*
X8643095Y-7799476D01*
X8766905Y-7685190D02*
X8747857Y-7675667D01*
X8738333Y-7666143D01*
X8728810Y-7647095D01*
X8728810Y-7637571D01*
X8738333Y-7618524D01*
X8747857Y-7609000D01*
X8766905Y-7599476D01*
X8805000Y-7599476D01*
X8824048Y-7609000D01*
X8833571Y-7618524D01*
X8843095Y-7637571D01*
X8843095Y-7647095D01*
X8833571Y-7666143D01*
X8824048Y-7675667D01*
X8805000Y-7685190D01*
X8766905Y-7685190D01*
X8747857Y-7694714D01*
X8738333Y-7704238D01*
X8728810Y-7723286D01*
X8728810Y-7761381D01*
X8738333Y-7780428D01*
X8747857Y-7789952D01*
X8766905Y-7799476D01*
X8805000Y-7799476D01*
X8824048Y-7789952D01*
X8833571Y-7780428D01*
X8843095Y-7761381D01*
X8843095Y-7723286D01*
X8833571Y-7704238D01*
X8824048Y-7694714D01*
X8805000Y-7685190D01*
X8938333Y-7799476D02*
X8976429Y-7799476D01*
X8995476Y-7789952D01*
X9005000Y-7780428D01*
X9024048Y-7751857D01*
X9033571Y-7713762D01*
X9033571Y-7637571D01*
X9024048Y-7618524D01*
X9014524Y-7609000D01*
X8995476Y-7599476D01*
X8957381Y-7599476D01*
X8938333Y-7609000D01*
X8928810Y-7618524D01*
X8919286Y-7637571D01*
X8919286Y-7685190D01*
X8928810Y-7704238D01*
X8938333Y-7713762D01*
X8957381Y-7723286D01*
X8995476Y-7723286D01*
X9014524Y-7713762D01*
X9024048Y-7704238D01*
X9033571Y-7685190D01*
X9157381Y-7599476D02*
X9176429Y-7599476D01*
X9195476Y-7609000D01*
X9205000Y-7618524D01*
X9214524Y-7637571D01*
X9224048Y-7675667D01*
X9224048Y-7723286D01*
X9214524Y-7761381D01*
X9205000Y-7780428D01*
X9195476Y-7789952D01*
X9176429Y-7799476D01*
X9157381Y-7799476D01*
X9138333Y-7789952D01*
X9128810Y-7780428D01*
X9119286Y-7761381D01*
X9109762Y-7723286D01*
X9109762Y-7675667D01*
X9119286Y-7637571D01*
X9128810Y-7618524D01*
X9138333Y-7609000D01*
X9157381Y-7599476D01*
X9309762Y-7799476D02*
X9309762Y-7666143D01*
X9309762Y-7685190D02*
X9319286Y-7675667D01*
X9338333Y-7666143D01*
X9366905Y-7666143D01*
X9385952Y-7675667D01*
X9395476Y-7694714D01*
X9395476Y-7799476D01*
X9395476Y-7694714D02*
X9405000Y-7675667D01*
X9424048Y-7666143D01*
X9452619Y-7666143D01*
X9471667Y-7675667D01*
X9481190Y-7694714D01*
X9481190Y-7799476D01*
X9576429Y-7799476D02*
X9576429Y-7666143D01*
X9576429Y-7685190D02*
X9585952Y-7675667D01*
X9605000Y-7666143D01*
X9633571Y-7666143D01*
X9652619Y-7675667D01*
X9662143Y-7694714D01*
X9662143Y-7799476D01*
X9662143Y-7694714D02*
X9671667Y-7675667D01*
X9690714Y-7666143D01*
X9719286Y-7666143D01*
X9738333Y-7675667D01*
X9747857Y-7694714D01*
X9747857Y-7799476D01*
X10138333Y-7589952D02*
X9966905Y-7847095D01*
X10395476Y-7599476D02*
X10414524Y-7599476D01*
X10433571Y-7609000D01*
X10443095Y-7618524D01*
X10452619Y-7637571D01*
X10462143Y-7675667D01*
X10462143Y-7723286D01*
X10452619Y-7761381D01*
X10443095Y-7780428D01*
X10433571Y-7789952D01*
X10414524Y-7799476D01*
X10395476Y-7799476D01*
X10376429Y-7789952D01*
X10366905Y-7780428D01*
X10357381Y-7761381D01*
X10347857Y-7723286D01*
X10347857Y-7675667D01*
X10357381Y-7637571D01*
X10366905Y-7618524D01*
X10376429Y-7609000D01*
X10395476Y-7599476D01*
X10547857Y-7780428D02*
X10557381Y-7789952D01*
X10547857Y-7799476D01*
X10538333Y-7789952D01*
X10547857Y-7780428D01*
X10547857Y-7799476D01*
X10681190Y-7599476D02*
X10700238Y-7599476D01*
X10719286Y-7609000D01*
X10728810Y-7618524D01*
X10738333Y-7637571D01*
X10747857Y-7675667D01*
X10747857Y-7723286D01*
X10738333Y-7761381D01*
X10728810Y-7780428D01*
X10719286Y-7789952D01*
X10700238Y-7799476D01*
X10681190Y-7799476D01*
X10662143Y-7789952D01*
X10652619Y-7780428D01*
X10643095Y-7761381D01*
X10633571Y-7723286D01*
X10633571Y-7675667D01*
X10643095Y-7637571D01*
X10652619Y-7618524D01*
X10662143Y-7609000D01*
X10681190Y-7599476D01*
X10814524Y-7599476D02*
X10938333Y-7599476D01*
X10871667Y-7675667D01*
X10900238Y-7675667D01*
X10919286Y-7685190D01*
X10928810Y-7694714D01*
X10938333Y-7713762D01*
X10938333Y-7761381D01*
X10928810Y-7780428D01*
X10919286Y-7789952D01*
X10900238Y-7799476D01*
X10843095Y-7799476D01*
X10824048Y-7789952D01*
X10814524Y-7780428D01*
X11119286Y-7599476D02*
X11024048Y-7599476D01*
X11014524Y-7694714D01*
X11024048Y-7685190D01*
X11043095Y-7675667D01*
X11090714Y-7675667D01*
X11109762Y-7685190D01*
X11119286Y-7694714D01*
X11128810Y-7713762D01*
X11128810Y-7761381D01*
X11119286Y-7780428D01*
X11109762Y-7789952D01*
X11090714Y-7799476D01*
X11043095Y-7799476D01*
X11024048Y-7789952D01*
X11014524Y-7780428D01*
X11252619Y-7599476D02*
X11271667Y-7599476D01*
X11290714Y-7609000D01*
X11300238Y-7618524D01*
X11309762Y-7637571D01*
X11319286Y-7675667D01*
X11319286Y-7723286D01*
X11309762Y-7761381D01*
X11300238Y-7780428D01*
X11290714Y-7789952D01*
X11271667Y-7799476D01*
X11252619Y-7799476D01*
X11233571Y-7789952D01*
X11224048Y-7780428D01*
X11214524Y-7761381D01*
X11205000Y-7723286D01*
X11205000Y-7675667D01*
X11214524Y-7637571D01*
X11224048Y-7618524D01*
X11233571Y-7609000D01*
X11252619Y-7599476D01*
X11395476Y-7599476D02*
X11395476Y-7637571D01*
X11471667Y-7599476D02*
X11471667Y-7637571D01*
X11766905Y-7875667D02*
X11757381Y-7866143D01*
X11738333Y-7837571D01*
X11728809Y-7818524D01*
X11719286Y-7789952D01*
X11709762Y-7742333D01*
X11709762Y-7704238D01*
X11719286Y-7656619D01*
X11728809Y-7628048D01*
X11738333Y-7609000D01*
X11757381Y-7580428D01*
X11766905Y-7570905D01*
X11833571Y-7618524D02*
X11843095Y-7609000D01*
X11862143Y-7599476D01*
X11909762Y-7599476D01*
X11928809Y-7609000D01*
X11938333Y-7618524D01*
X11947857Y-7637571D01*
X11947857Y-7656619D01*
X11938333Y-7685190D01*
X11824048Y-7799476D01*
X11947857Y-7799476D01*
X12014524Y-7599476D02*
X12147857Y-7599476D01*
X12062143Y-7799476D01*
X12376428Y-7799476D02*
X12376428Y-7599476D01*
X12462143Y-7799476D02*
X12462143Y-7694714D01*
X12452619Y-7675667D01*
X12433571Y-7666143D01*
X12405000Y-7666143D01*
X12385952Y-7675667D01*
X12376428Y-7685190D01*
X12585952Y-7799476D02*
X12566905Y-7789952D01*
X12557381Y-7780428D01*
X12547857Y-7761381D01*
X12547857Y-7704238D01*
X12557381Y-7685190D01*
X12566905Y-7675667D01*
X12585952Y-7666143D01*
X12614524Y-7666143D01*
X12633571Y-7675667D01*
X12643095Y-7685190D01*
X12652619Y-7704238D01*
X12652619Y-7761381D01*
X12643095Y-7780428D01*
X12633571Y-7789952D01*
X12614524Y-7799476D01*
X12585952Y-7799476D01*
X12766905Y-7799476D02*
X12747857Y-7789952D01*
X12738333Y-7770905D01*
X12738333Y-7599476D01*
X12919286Y-7789952D02*
X12900238Y-7799476D01*
X12862143Y-7799476D01*
X12843095Y-7789952D01*
X12833571Y-7770905D01*
X12833571Y-7694714D01*
X12843095Y-7675667D01*
X12862143Y-7666143D01*
X12900238Y-7666143D01*
X12919286Y-7675667D01*
X12928809Y-7694714D01*
X12928809Y-7713762D01*
X12833571Y-7732809D01*
X13005000Y-7789952D02*
X13024048Y-7799476D01*
X13062143Y-7799476D01*
X13081190Y-7789952D01*
X13090714Y-7770905D01*
X13090714Y-7761381D01*
X13081190Y-7742333D01*
X13062143Y-7732809D01*
X13033571Y-7732809D01*
X13014524Y-7723286D01*
X13005000Y-7704238D01*
X13005000Y-7694714D01*
X13014524Y-7675667D01*
X13033571Y-7666143D01*
X13062143Y-7666143D01*
X13081190Y-7675667D01*
X13157381Y-7875667D02*
X13166905Y-7866143D01*
X13185952Y-7837571D01*
X13195476Y-7818524D01*
X13205000Y-7789952D01*
X13214524Y-7742333D01*
X13214524Y-7704238D01*
X13205000Y-7656619D01*
X13195476Y-7628048D01*
X13185952Y-7609000D01*
X13166905Y-7580428D01*
X13157381Y-7570905D01*
M02*
