M48
; DRILL file {KiCad (6.0.8-1)-1} date Monday, May 20, 2024 at 05:10:38 PM
; FORMAT={-:-/ absolute / inch / decimal}
; #@! TF.CreationDate,2024-05-20T17:10:38-04:00
; #@! TF.GenerationSoftware,Kicad,Pcbnew,(6.0.8-1)-1
; #@! TF.FileFunction,Plated,1,2,PTH
FMAT,2
INCH
; #@! TA.AperFunction,Plated,PTH,ViaDrill
T1C0.0157
; #@! TA.AperFunction,Plated,PTH,ComponentDrill
T2C0.0350
%
G90
G05
T1
X3.6142Y-2.0591
X3.622Y-2.3228
X3.6339Y-1.7362
X3.9291Y-2.0591
X3.9291Y-2.374
X3.9331Y-1.7402
X4.2441Y-1.7441
X4.2441Y-2.0591
X4.2441Y-2.3268
T2
X3.3646Y-1.3976
X3.3661Y-1.652
X3.3661Y-1.752
X3.3661Y-1.852
X3.3661Y-2.1047
X3.3661Y-2.2047
X3.3661Y-2.3047
X3.4646Y-1.3976
X3.5646Y-1.3976
X3.6008Y-2.5394
X3.7008Y-2.5394
X3.8008Y-2.5394
X3.837Y-1.3976
X3.937Y-1.3976
X4.037Y-1.3976
X4.0732Y-2.5394
X4.1732Y-2.5394
X4.2732Y-2.5394
X4.3094Y-1.3976
X4.4094Y-1.3976
X4.5079Y-1.652
X4.5079Y-1.752
X4.5079Y-1.852
X4.5079Y-2.1047
X4.5079Y-2.2047
X4.5079Y-2.3047
X4.5094Y-1.3976
T0
M30
