%TF.GenerationSoftware,KiCad,Pcbnew,8.0.2-1*%
%TF.CreationDate,2024-08-05T19:22:30-04:00*%
%TF.ProjectId,3x3_6mSiPMs,3378335f-366d-4536-9950-4d732e6b6963,rev?*%
%TF.SameCoordinates,Original*%
%TF.FileFunction,Copper,L1,Top*%
%TF.FilePolarity,Positive*%
%FSLAX46Y46*%
G04 Gerber Fmt 4.6, Leading zero omitted, Abs format (unit mm)*
G04 Created by KiCad (PCBNEW 8.0.2-1) date 2024-08-05 19:22:30*
%MOMM*%
%LPD*%
G01*
G04 APERTURE LIST*
%TA.AperFunction,SMDPad,CuDef*%
%ADD10C,1.100000*%
%TD*%
%TA.AperFunction,ComponentPad*%
%ADD11R,1.398000X1.398000*%
%TD*%
%TA.AperFunction,ComponentPad*%
%ADD12C,1.398000*%
%TD*%
%TA.AperFunction,ViaPad*%
%ADD13C,0.800000*%
%TD*%
%TA.AperFunction,Conductor*%
%ADD14C,0.200000*%
%TD*%
%TA.AperFunction,Conductor*%
%ADD15C,0.250000*%
%TD*%
G04 APERTURE END LIST*
D10*
%TO.P,REF\u002A\u002A,1*%
%TO.N,N/C*%
X94550000Y-40400000D03*
%TO.P,REF\u002A\u002A,2*%
X89950000Y-40400000D03*
%TO.P,REF\u002A\u002A,3*%
X89950000Y-44600000D03*
%TO.P,REF\u002A\u002A,4*%
X94550000Y-44600000D03*
%TD*%
%TO.P,REF\u002A\u002A3,1*%
%TO.N,N/C*%
X94550000Y-47900000D03*
%TO.P,REF\u002A\u002A3,2*%
X89950000Y-47900000D03*
%TO.P,REF\u002A\u002A3,3*%
X89950000Y-52100000D03*
%TO.P,REF\u002A\u002A3,4*%
X94550000Y-52100000D03*
%TD*%
%TO.P,REF\u002A\u002A1,1*%
%TO.N,N/C*%
X102050000Y-40400000D03*
%TO.P,REF\u002A\u002A1,2*%
X97450000Y-40400000D03*
%TO.P,REF\u002A\u002A1,3*%
X97450000Y-44600000D03*
%TO.P,REF\u002A\u002A1,4*%
X102050000Y-44600000D03*
%TD*%
%TO.P,REF\u002A\u002A7,1*%
%TO.N,N/C*%
X94550000Y-55400000D03*
%TO.P,REF\u002A\u002A7,2*%
X89950000Y-55400000D03*
%TO.P,REF\u002A\u002A7,3*%
X89950000Y-59600000D03*
%TO.P,REF\u002A\u002A7,4*%
X94550000Y-59600000D03*
%TD*%
%TO.P,REF\u002A\u002A9,1*%
%TO.N,N/C*%
X102050000Y-55400000D03*
%TO.P,REF\u002A\u002A9,2*%
X97450000Y-55400000D03*
%TO.P,REF\u002A\u002A9,3*%
X97450000Y-59600000D03*
%TO.P,REF\u002A\u002A9,4*%
X102050000Y-59600000D03*
%TD*%
%TO.P,REF\u002A\u002A6,1*%
%TO.N,N/C*%
X109550000Y-47900000D03*
%TO.P,REF\u002A\u002A6,2*%
X104950000Y-47900000D03*
%TO.P,REF\u002A\u002A6,3*%
X104950000Y-52100000D03*
%TO.P,REF\u002A\u002A6,4*%
X109550000Y-52100000D03*
%TD*%
%TO.P,REF\u002A\u002A10,1*%
%TO.N,N/C*%
X109550000Y-55400000D03*
%TO.P,REF\u002A\u002A10,2*%
X104950000Y-55400000D03*
%TO.P,REF\u002A\u002A10,3*%
X104950000Y-59600000D03*
%TO.P,REF\u002A\u002A10,4*%
X109550000Y-59600000D03*
%TD*%
%TO.P,REF\u002A\u002A5,1*%
%TO.N,N/C*%
X102050000Y-47900000D03*
%TO.P,REF\u002A\u002A5,2*%
X97450000Y-47900000D03*
%TO.P,REF\u002A\u002A5,3*%
X97450000Y-52100000D03*
%TO.P,REF\u002A\u002A5,4*%
X102050000Y-52100000D03*
%TD*%
%TO.P,REF\u002A\u002A2,1*%
%TO.N,N/C*%
X109550000Y-40400000D03*
%TO.P,REF\u002A\u002A2,2*%
X104950000Y-40400000D03*
%TO.P,REF\u002A\u002A2,3*%
X104950000Y-44600000D03*
%TO.P,REF\u002A\u002A2,4*%
X109550000Y-44600000D03*
%TD*%
D11*
%TO.P,REF\u002A\u002A,1*%
%TO.N,N/C*%
X114540000Y-35500000D03*
D12*
%TO.P,REF\u002A\u002A,2*%
X112000000Y-35500000D03*
%TO.P,REF\u002A\u002A,3*%
X109460000Y-35500000D03*
%TD*%
D11*
%TO.P,REF\u002A\u002A,1*%
%TO.N,N/C*%
X114500000Y-47040000D03*
D12*
%TO.P,REF\u002A\u002A,2*%
X114500000Y-44500000D03*
%TO.P,REF\u002A\u002A,3*%
X114500000Y-41960000D03*
%TD*%
D11*
%TO.P,REF\u002A\u002A,1*%
%TO.N,N/C*%
X91460000Y-64500000D03*
D12*
%TO.P,REF\u002A\u002A,2*%
X94000000Y-64500000D03*
%TO.P,REF\u002A\u002A,3*%
X96540000Y-64500000D03*
%TD*%
D11*
%TO.P,REF\u002A\u002A,1*%
%TO.N,N/C*%
X85500000Y-53460000D03*
D12*
%TO.P,REF\u002A\u002A,2*%
X85500000Y-56000000D03*
%TO.P,REF\u002A\u002A,3*%
X85500000Y-58540000D03*
%TD*%
D11*
%TO.P,REF\u002A\u002A,1*%
%TO.N,N/C*%
X114500000Y-58540000D03*
D12*
%TO.P,REF\u002A\u002A,2*%
X114500000Y-56000000D03*
%TO.P,REF\u002A\u002A,3*%
X114500000Y-53460000D03*
%TD*%
D11*
%TO.P,REF\u002A\u002A,1*%
%TO.N,N/C*%
X103460000Y-64500000D03*
D12*
%TO.P,REF\u002A\u002A,2*%
X106000000Y-64500000D03*
%TO.P,REF\u002A\u002A,3*%
X108540000Y-64500000D03*
%TD*%
D11*
%TO.P,REF\u002A\u002A,1*%
%TO.N,N/C*%
X90540000Y-35500000D03*
D12*
%TO.P,REF\u002A\u002A,2*%
X88000000Y-35500000D03*
%TO.P,REF\u002A\u002A,3*%
X85460000Y-35500000D03*
%TD*%
D11*
%TO.P,REF\u002A\u002A,1*%
%TO.N,N/C*%
X85500000Y-41960000D03*
D12*
%TO.P,REF\u002A\u002A,2*%
X85500000Y-44500000D03*
%TO.P,REF\u002A\u002A,3*%
X85500000Y-47040000D03*
%TD*%
D11*
%TO.P,REF\u002A\u002A,1*%
%TO.N,N/C*%
X102540000Y-35500000D03*
D12*
%TO.P,REF\u002A\u002A,2*%
X100000000Y-35500000D03*
%TO.P,REF\u002A\u002A,3*%
X97460000Y-35500000D03*
%TD*%
D13*
%TO.N,*%
X92500000Y-58500000D03*
X92800000Y-44600000D03*
X107300000Y-52300000D03*
X99800000Y-52300000D03*
X107037500Y-59437500D03*
X99900000Y-44700000D03*
X107300000Y-44800000D03*
X91800000Y-52300000D03*
X99800000Y-59800000D03*
%TD*%
D14*
%TO.N,*%
X107037500Y-59437500D02*
X106875000Y-59600000D01*
X106875000Y-59600000D02*
X104950000Y-59600000D01*
X111300000Y-35915000D02*
X111585000Y-35915000D01*
X111585000Y-35915000D02*
X112000000Y-35500000D01*
D15*
X104950000Y-40400000D02*
X105450000Y-39900000D01*
D14*
X101100000Y-62000000D02*
X100600000Y-61500000D01*
D15*
X89950000Y-44600000D02*
X92800000Y-44600000D01*
D14*
X97450000Y-39900000D02*
X97450000Y-38165000D01*
X85800000Y-55900000D02*
X89450000Y-55900000D01*
X108900000Y-46100000D02*
X112085000Y-46100000D01*
X109400000Y-37815000D02*
X111300000Y-35915000D01*
X96000000Y-48300000D02*
X96400000Y-47900000D01*
X107100000Y-47900000D02*
X108900000Y-46100000D01*
D15*
X91600000Y-52100000D02*
X91800000Y-52300000D01*
D14*
X100600000Y-61500000D02*
X100600000Y-58200000D01*
X97450000Y-44600000D02*
X99800000Y-44600000D01*
X97450000Y-59600000D02*
X97650000Y-59800000D01*
X91400000Y-59600000D02*
X89950000Y-59600000D01*
X97800000Y-55400000D02*
X97450000Y-55400000D01*
X106050000Y-54300000D02*
X112885000Y-54300000D01*
X97450000Y-52100000D02*
X99600000Y-52100000D01*
X86200000Y-44000000D02*
X85800000Y-44400000D01*
X94900000Y-61400000D02*
X94500000Y-61800000D01*
X89450000Y-55900000D02*
X89950000Y-55400000D01*
X112085000Y-46100000D02*
X113785000Y-44400000D01*
X94900000Y-61400000D02*
X96000000Y-60300000D01*
X88200000Y-38650000D02*
X89950000Y-40400000D01*
X105450000Y-39900000D02*
X107500000Y-39900000D01*
X104950000Y-55400000D02*
X106050000Y-54300000D01*
X107100000Y-44600000D02*
X107300000Y-44800000D01*
X86500000Y-44000000D02*
X86200000Y-44000000D01*
X99600000Y-52100000D02*
X99800000Y-52300000D01*
X89450000Y-47900000D02*
X89450000Y-46950000D01*
X97450000Y-38165000D02*
X99700000Y-35915000D01*
X105800000Y-62300000D02*
X105500000Y-62000000D01*
X89450000Y-46950000D02*
X86500000Y-44000000D01*
D15*
X89950000Y-52100000D02*
X91600000Y-52100000D01*
D14*
X107100000Y-52100000D02*
X104950000Y-52100000D01*
X104950000Y-44600000D02*
X107100000Y-44600000D01*
X113785000Y-44400000D02*
X114585000Y-44400000D01*
X99800000Y-44600000D02*
X99900000Y-44700000D01*
X105450000Y-47900000D02*
X107100000Y-47900000D01*
X107500000Y-39900000D02*
X109400000Y-38000000D01*
X96400000Y-47900000D02*
X97450000Y-47900000D01*
X112885000Y-54300000D02*
X114585000Y-56000000D01*
X88200000Y-35915000D02*
X88200000Y-38650000D01*
X97650000Y-59800000D02*
X99800000Y-59800000D01*
X96000000Y-60300000D02*
X96000000Y-48300000D01*
X100600000Y-58200000D02*
X97800000Y-55400000D01*
X107300000Y-52300000D02*
X107100000Y-52100000D01*
X94500000Y-61800000D02*
X94500000Y-64385000D01*
X105500000Y-62000000D02*
X101100000Y-62000000D01*
X109400000Y-38000000D02*
X109400000Y-37815000D01*
X92500000Y-58500000D02*
X91400000Y-59600000D01*
X105800000Y-64385000D02*
X105800000Y-62300000D01*
%TD*%
M02*
