%TF.GenerationSoftware,KiCad,Pcbnew,8.0.2-1*%
%TF.CreationDate,2024-08-05T19:08:03-04:00*%
%TF.ProjectId,3x3_6mSiPMs,3378335f-366d-4536-9950-4d732e6b6963,rev?*%
%TF.SameCoordinates,Original*%
%TF.FileFunction,Copper,L2,Bot*%
%TF.FilePolarity,Positive*%
%FSLAX46Y46*%
G04 Gerber Fmt 4.6, Leading zero omitted, Abs format (unit mm)*
G04 Created by KiCad (PCBNEW 8.0.2-1) date 2024-08-05 19:08:03*
%MOMM*%
%LPD*%
G01*
G04 APERTURE LIST*
G04 Aperture macros list*
%AMRoundRect*
0 Rectangle with rounded corners*
0 $1 Rounding radius*
0 $2 $3 $4 $5 $6 $7 $8 $9 X,Y pos of 4 corners*
0 Add a 4 corners polygon primitive as box body*
4,1,4,$2,$3,$4,$5,$6,$7,$8,$9,$2,$3,0*
0 Add four circle primitives for the rounded corners*
1,1,$1+$1,$2,$3*
1,1,$1+$1,$4,$5*
1,1,$1+$1,$6,$7*
1,1,$1+$1,$8,$9*
0 Add four rect primitives between the rounded corners*
20,1,$1+$1,$2,$3,$4,$5,0*
20,1,$1+$1,$4,$5,$6,$7,0*
20,1,$1+$1,$6,$7,$8,$9,0*
20,1,$1+$1,$8,$9,$2,$3,0*%
G04 Aperture macros list end*
%TA.AperFunction,SMDPad,CuDef*%
%ADD10RoundRect,0.250000X0.325000X1.100000X-0.325000X1.100000X-0.325000X-1.100000X0.325000X-1.100000X0*%
%TD*%
%TA.AperFunction,ComponentPad*%
%ADD11R,1.398000X1.398000*%
%TD*%
%TA.AperFunction,ComponentPad*%
%ADD12C,1.398000*%
%TD*%
%TA.AperFunction,ViaPad*%
%ADD13C,0.800000*%
%TD*%
%TA.AperFunction,Conductor*%
%ADD14C,0.200000*%
%TD*%
%TA.AperFunction,Conductor*%
%ADD15C,0.250000*%
%TD*%
G04 APERTURE END LIST*
D10*
%TO.P,10 nF,1*%
%TO.N,N/C*%
X101475000Y-57500000D03*
%TO.P,10 nF,2*%
X98525000Y-57500000D03*
%TD*%
%TO.P,10 nF,1*%
%TO.N,N/C*%
X93975000Y-42500000D03*
%TO.P,10 nF,2*%
X91025000Y-42500000D03*
%TD*%
%TO.P,10 nF,1*%
%TO.N,N/C*%
X108975000Y-57500000D03*
%TO.P,10 nF,2*%
X106025000Y-57500000D03*
%TD*%
D11*
%TO.P,REF\u002A\u002A,1*%
%TO.N,N/C*%
X114540000Y-35500000D03*
D12*
%TO.P,REF\u002A\u002A,2*%
X112000000Y-35500000D03*
%TO.P,REF\u002A\u002A,3*%
X109460000Y-35500000D03*
%TD*%
D10*
%TO.P,10 nF,1*%
%TO.N,N/C*%
X108975000Y-42500000D03*
%TO.P,10 nF,2*%
X106025000Y-42500000D03*
%TD*%
%TO.P,10 nF,1*%
%TO.N,N/C*%
X93975000Y-50000000D03*
%TO.P,10 nF,2*%
X91025000Y-50000000D03*
%TD*%
D11*
%TO.P,REF\u002A\u002A,1*%
%TO.N,N/C*%
X114500000Y-47040000D03*
D12*
%TO.P,REF\u002A\u002A,2*%
X114500000Y-44500000D03*
%TO.P,REF\u002A\u002A,3*%
X114500000Y-41960000D03*
%TD*%
D11*
%TO.P,REF\u002A\u002A,1*%
%TO.N,N/C*%
X91460000Y-64500000D03*
D12*
%TO.P,REF\u002A\u002A,2*%
X94000000Y-64500000D03*
%TO.P,REF\u002A\u002A,3*%
X96540000Y-64500000D03*
%TD*%
D11*
%TO.P,REF\u002A\u002A,1*%
%TO.N,N/C*%
X85500000Y-53460000D03*
D12*
%TO.P,REF\u002A\u002A,2*%
X85500000Y-56000000D03*
%TO.P,REF\u002A\u002A,3*%
X85500000Y-58540000D03*
%TD*%
D10*
%TO.P,10 nF,1*%
%TO.N,N/C*%
X108975000Y-50000000D03*
%TO.P,10 nF,2*%
X106025000Y-50000000D03*
%TD*%
%TO.P,10 nF,1*%
%TO.N,N/C*%
X101475000Y-50000000D03*
%TO.P,10 nF,2*%
X98525000Y-50000000D03*
%TD*%
D11*
%TO.P,REF\u002A\u002A,1*%
%TO.N,N/C*%
X114500000Y-58540000D03*
D12*
%TO.P,REF\u002A\u002A,2*%
X114500000Y-56000000D03*
%TO.P,REF\u002A\u002A,3*%
X114500000Y-53460000D03*
%TD*%
D11*
%TO.P,REF\u002A\u002A,1*%
%TO.N,N/C*%
X103460000Y-64500000D03*
D12*
%TO.P,REF\u002A\u002A,2*%
X106000000Y-64500000D03*
%TO.P,REF\u002A\u002A,3*%
X108540000Y-64500000D03*
%TD*%
D11*
%TO.P,REF\u002A\u002A,1*%
%TO.N,N/C*%
X90540000Y-35500000D03*
D12*
%TO.P,REF\u002A\u002A,2*%
X88000000Y-35500000D03*
%TO.P,REF\u002A\u002A,3*%
X85460000Y-35500000D03*
%TD*%
D11*
%TO.P,REF\u002A\u002A,1*%
%TO.N,N/C*%
X85500000Y-41960000D03*
D12*
%TO.P,REF\u002A\u002A,2*%
X85500000Y-44500000D03*
%TO.P,REF\u002A\u002A,3*%
X85500000Y-47040000D03*
%TD*%
D10*
%TO.P,10 nF,1*%
%TO.N,N/C*%
X93975000Y-57500000D03*
%TO.P,10 nF,2*%
X91025000Y-57500000D03*
%TD*%
D11*
%TO.P,REF\u002A\u002A,1*%
%TO.N,N/C*%
X102540000Y-35500000D03*
D12*
%TO.P,REF\u002A\u002A,2*%
X100000000Y-35500000D03*
%TO.P,REF\u002A\u002A,3*%
X97460000Y-35500000D03*
%TD*%
D10*
%TO.P,10 nF,1*%
%TO.N,N/C*%
X101475000Y-42500000D03*
%TO.P,10 nF,2*%
X98525000Y-42500000D03*
%TD*%
D13*
%TO.N,*%
X92500000Y-58500000D03*
X92800000Y-44600000D03*
X107300000Y-52300000D03*
X99800000Y-52300000D03*
X107300000Y-58600000D03*
X99900000Y-44700000D03*
X107300000Y-44800000D03*
X91800000Y-52300000D03*
X99800000Y-59800000D03*
%TD*%
D14*
%TO.N,*%
X85800000Y-53360000D02*
X89335000Y-53360000D01*
X89335000Y-53360000D02*
X93975000Y-58000000D01*
X86560000Y-41460000D02*
X93975000Y-48875000D01*
X95100000Y-52700000D02*
X95100000Y-54000000D01*
D15*
X97160000Y-35915000D02*
X97160000Y-34840000D01*
X93500000Y-52300000D02*
X93975000Y-51825000D01*
D14*
X113840000Y-37635000D02*
X113840000Y-35915000D01*
X97800000Y-50000000D02*
X95100000Y-52700000D01*
X99800000Y-53000000D02*
X101000000Y-53000000D01*
X99700000Y-67000000D02*
X99825000Y-67000000D01*
X97400000Y-53000000D02*
X96400000Y-54000000D01*
X114485000Y-53360000D02*
X110740000Y-53360000D01*
X109475000Y-50625000D02*
X109475000Y-50000000D01*
D15*
X85660000Y-35915000D02*
X84085000Y-35915000D01*
D14*
X109475000Y-42000000D02*
X113840000Y-37635000D01*
D15*
X84085000Y-35915000D02*
X83300000Y-36700000D01*
D14*
X90740000Y-35915000D02*
X90740000Y-39265000D01*
X99825000Y-67000000D02*
X99862500Y-66962500D01*
X99800000Y-59800000D02*
X101475000Y-58125000D01*
X102240000Y-35915000D02*
X102240000Y-41235000D01*
X115600000Y-34800000D02*
X114900000Y-34100000D01*
X112200000Y-63500000D02*
X113487500Y-62212500D01*
X85800000Y-58440000D02*
X85800000Y-61500000D01*
D15*
X87465000Y-46940000D02*
X90525000Y-50000000D01*
X83400000Y-49300000D02*
X83400000Y-56040000D01*
X83400000Y-56040000D02*
X85800000Y-58440000D01*
D14*
X106000000Y-38675000D02*
X108760000Y-35915000D01*
X101000000Y-53000000D02*
X101475000Y-52525000D01*
X102240000Y-41235000D02*
X101475000Y-42000000D01*
X109475000Y-42625000D02*
X109475000Y-42000000D01*
X112200000Y-65700000D02*
X112200000Y-63500000D01*
X109915000Y-58440000D02*
X113785000Y-58440000D01*
D15*
X91400000Y-54000000D02*
X95100000Y-54000000D01*
D14*
X114585000Y-41860000D02*
X115600000Y-40845000D01*
X92500000Y-58500000D02*
X92975000Y-58500000D01*
X112535000Y-46940000D02*
X113785000Y-46940000D01*
X99800000Y-53000000D02*
X97400000Y-53000000D01*
D15*
X85660000Y-35915000D02*
X85660000Y-34160000D01*
D14*
X99862500Y-66962500D02*
X109637500Y-66962500D01*
X97040000Y-66540000D02*
X97500000Y-67000000D01*
X115600000Y-40045000D02*
X115600000Y-40000000D01*
X114900000Y-34100000D02*
X108900000Y-34100000D01*
D15*
X108900000Y-34100000D02*
X108760000Y-34240000D01*
D14*
X98525000Y-58000000D02*
X98525000Y-60225000D01*
X108340000Y-64385000D02*
X109655000Y-65700000D01*
X101475000Y-58000000D02*
X103260000Y-59785000D01*
X106025000Y-42500000D02*
X106000000Y-42475000D01*
X107875000Y-58600000D02*
X108975000Y-57500000D01*
X106525000Y-57575000D02*
X106525000Y-58000000D01*
D15*
X108200000Y-33400000D02*
X108900000Y-34100000D01*
D14*
X96400000Y-54000000D02*
X96400000Y-61400000D01*
X101475000Y-52525000D02*
X101475000Y-50000000D01*
X107300000Y-58600000D02*
X107875000Y-58600000D01*
X109475000Y-50000000D02*
X112535000Y-46940000D01*
X108860000Y-64385000D02*
X107860000Y-64385000D01*
X99900000Y-44075000D02*
X101475000Y-42500000D01*
X99700000Y-62400000D02*
X99700000Y-67000000D01*
D15*
X83440000Y-49300000D02*
X83400000Y-49300000D01*
D14*
X109655000Y-65700000D02*
X110900000Y-65700000D01*
X113372500Y-42272500D02*
X114172500Y-42272500D01*
X99900000Y-44700000D02*
X99900000Y-44075000D01*
X98600000Y-60300000D02*
X98600000Y-61300000D01*
X93475000Y-42925000D02*
X93475000Y-42000000D01*
D15*
X97160000Y-34840000D02*
X97160000Y-34340000D01*
D14*
X91960000Y-62440000D02*
X91960000Y-64385000D01*
D15*
X85800000Y-46940000D02*
X83440000Y-49300000D01*
D14*
X107300000Y-44800000D02*
X108975000Y-43125000D01*
X85800000Y-41460000D02*
X86560000Y-41460000D01*
X93975000Y-48875000D02*
X93975000Y-50125000D01*
D15*
X85660000Y-34160000D02*
X96740000Y-34160000D01*
D14*
X98600000Y-61300000D02*
X99700000Y-62400000D01*
X113487500Y-62212500D02*
X116112500Y-62212500D01*
X96400000Y-61400000D02*
X93000000Y-61400000D01*
X87800000Y-63500000D02*
X87800000Y-67000000D01*
D15*
X85800000Y-46940000D02*
X87465000Y-46940000D01*
D14*
X110900000Y-65700000D02*
X112200000Y-65700000D01*
X115600000Y-40845000D02*
X115600000Y-40000000D01*
X109637500Y-66962500D02*
X110900000Y-65700000D01*
X110740000Y-53360000D02*
X106525000Y-57575000D01*
X106000000Y-42475000D02*
X106000000Y-38675000D01*
X85660000Y-37135000D02*
X85660000Y-35915000D01*
X85800000Y-61500000D02*
X87800000Y-63500000D01*
X107300000Y-52300000D02*
X108975000Y-50625000D01*
X98525000Y-37280000D02*
X97160000Y-35915000D01*
X116700000Y-61625000D02*
X116700000Y-55575000D01*
D15*
X97160000Y-34060000D02*
X97160000Y-34840000D01*
D14*
X90740000Y-39265000D02*
X93475000Y-42000000D01*
X98525000Y-42000000D02*
X98525000Y-37280000D01*
X109475000Y-58000000D02*
X109915000Y-58440000D01*
X92800000Y-44600000D02*
X93975000Y-43425000D01*
X93000000Y-61400000D02*
X91960000Y-62440000D01*
D15*
X90525000Y-50000000D02*
X90525000Y-53125000D01*
D14*
X85800000Y-41860000D02*
X85800000Y-41460000D01*
D15*
X83300000Y-36700000D02*
X83300000Y-44440000D01*
D14*
X97040000Y-64385000D02*
X97040000Y-66540000D01*
X90525000Y-42000000D02*
X85660000Y-37135000D01*
X106525000Y-50000000D02*
X106525000Y-49120000D01*
X116700000Y-55575000D02*
X114485000Y-53360000D01*
D15*
X96740000Y-34160000D02*
X97000000Y-33900000D01*
X83300000Y-44440000D02*
X85800000Y-46940000D01*
X90085000Y-58440000D02*
X90525000Y-58000000D01*
D14*
X116112500Y-62212500D02*
X116700000Y-61625000D01*
D15*
X97000000Y-33900000D02*
X97160000Y-34060000D01*
X97160000Y-34340000D02*
X98100000Y-33400000D01*
X98100000Y-33400000D02*
X108200000Y-33400000D01*
X90525000Y-53125000D02*
X91400000Y-54000000D01*
D14*
X103260000Y-59785000D02*
X103260000Y-64385000D01*
X114172500Y-42272500D02*
X114585000Y-41860000D01*
X98525000Y-60225000D02*
X98600000Y-60300000D01*
D15*
X85800000Y-58440000D02*
X90085000Y-58440000D01*
D14*
X115600000Y-40000000D02*
X115600000Y-34800000D01*
D15*
X91800000Y-52300000D02*
X93500000Y-52300000D01*
D14*
X98525000Y-50000000D02*
X97800000Y-50000000D01*
X92975000Y-58500000D02*
X93975000Y-57500000D01*
D15*
X108760000Y-34240000D02*
X108760000Y-35915000D01*
D14*
X99800000Y-52300000D02*
X99800000Y-53000000D01*
D15*
X93975000Y-51825000D02*
X93975000Y-50000000D01*
D14*
X87800000Y-67000000D02*
X97500000Y-67000000D01*
X101475000Y-58625000D02*
X101475000Y-58000000D01*
X106525000Y-49120000D02*
X113372500Y-42272500D01*
X97500000Y-67000000D02*
X99700000Y-67000000D01*
%TD*%
M02*
