%TF.GenerationSoftware,KiCad,Pcbnew,(6.0.8-1)-1*%
%TF.CreationDate,2022-10-13T14:56:03-04:00*%
%TF.ProjectId,FCAL,4643414c-2e6b-4696-9361-645f70636258,rev?*%
%TF.SameCoordinates,Original*%
%TF.FileFunction,Copper,L1,Top*%
%TF.FilePolarity,Positive*%
%FSLAX46Y46*%
G04 Gerber Fmt 4.6, Leading zero omitted, Abs format (unit mm)*
G04 Created by KiCad (PCBNEW (6.0.8-1)-1) date 2022-10-13 14:56:03*
%MOMM*%
%LPD*%
G01*
G04 APERTURE LIST*
%TA.AperFunction,SMDPad,CuDef*%
%ADD10R,4.300000X1.100000*%
%TD*%
%TA.AperFunction,ComponentPad*%
%ADD11R,1.397000X1.397000*%
%TD*%
%TA.AperFunction,ComponentPad*%
%ADD12C,1.397000*%
%TD*%
%TA.AperFunction,Conductor*%
%ADD13C,0.200000*%
%TD*%
G04 APERTURE END LIST*
D10*
%TO.P,REF\u002A\u002A,1*%
%TO.N,N/C*%
X109750000Y-74550000D03*
%TO.P,REF\u002A\u002A,2*%
X109750000Y-76750000D03*
%TD*%
%TO.P,REF\u002A\u002A,1*%
%TO.N,N/C*%
X109750000Y-125850000D03*
%TO.P,REF\u002A\u002A,2*%
X109750000Y-128050000D03*
%TD*%
D11*
%TO.P,REF\u002A\u002A,1*%
%TO.N,N/C*%
X112540000Y-80200000D03*
D12*
%TO.P,REF\u002A\u002A,2*%
X110000000Y-80200000D03*
%TO.P,REF\u002A\u002A,3*%
X107460000Y-80200000D03*
%TD*%
D11*
%TO.P,REF\u002A\u002A,1*%
%TO.N,N/C*%
X112540000Y-131400000D03*
D12*
%TO.P,REF\u002A\u002A,2*%
X110000000Y-131400000D03*
%TO.P,REF\u002A\u002A,3*%
X107460000Y-131400000D03*
%TD*%
D13*
%TO.N,*%
X105800000Y-131400000D02*
X102400000Y-128000000D01*
X107460000Y-131400000D02*
X105800000Y-131400000D01*
X102400000Y-128000000D02*
X102400000Y-85260000D01*
X102400000Y-85260000D02*
X107460000Y-80200000D01*
X110000000Y-80200000D02*
X110000000Y-77000000D01*
X110000000Y-77000000D02*
X109750000Y-76750000D01*
X112540000Y-74740000D02*
X112200000Y-74400000D01*
X112540000Y-80200000D02*
X112540000Y-74740000D01*
X109900000Y-74400000D02*
X109750000Y-74550000D01*
X112200000Y-74400000D02*
X109900000Y-74400000D01*
X110000000Y-131400000D02*
X110000000Y-128300000D01*
X110000000Y-128300000D02*
X109750000Y-128050000D01*
X112200000Y-126200000D02*
X112540000Y-126540000D01*
X112540000Y-126540000D02*
X112540000Y-131400000D01*
X109750000Y-125850000D02*
X111850000Y-125850000D01*
X111850000Y-125850000D02*
X112400000Y-126400000D01*
%TD*%
M02*
