%TF.GenerationSoftware,KiCad,Pcbnew,(6.0.8-1)-1*%
%TF.CreationDate,2022-10-13T14:55:58-04:00*%
%TF.ProjectId,FCAL,4643414c-2e6b-4696-9361-645f70636258,rev?*%
%TF.SameCoordinates,Original*%
%TF.FileFunction,Drillmap*%
%TF.FilePolarity,Positive*%
%FSLAX45Y45*%
G04 Gerber Fmt 4.5, Leading zero omitted, Abs format (unit mm)*
G04 Created by KiCad (PCBNEW (6.0.8-1)-1) date 2022-10-13 14:55:58*
%MOMM*%
%LPD*%
G01*
G04 APERTURE LIST*
%ADD10C,0.100000*%
%ADD11C,0.200000*%
G04 APERTURE END LIST*
D10*
X11278150Y-8865000D02*
G75*
G03*
X11278150Y-8865000I-278150J0D01*
G01*
X11278150Y-13995000D02*
G75*
G03*
X11278150Y-13995000I-278150J0D01*
G01*
X10000000Y-5000000D02*
X12000000Y-5000000D01*
X12000000Y-5000000D02*
X12000000Y-15260000D01*
X12000000Y-15260000D02*
X10000000Y-15260000D01*
X10000000Y-15260000D02*
X10000000Y-5000000D01*
X11250000Y-5505000D02*
G75*
G03*
X11250000Y-5505000I-250000J0D01*
G01*
X11278150Y-6265000D02*
G75*
G03*
X11278150Y-6265000I-278150J0D01*
G01*
X11278150Y-11395000D02*
G75*
G03*
X11278150Y-11395000I-278150J0D01*
G01*
X11250000Y-14755000D02*
G75*
G03*
X11250000Y-14755000I-250000J0D01*
G01*
D11*
X10252619Y-15575476D02*
X10252619Y-15375476D01*
X10300238Y-15375476D01*
X10328810Y-15385000D01*
X10347857Y-15404048D01*
X10357381Y-15423095D01*
X10366905Y-15461190D01*
X10366905Y-15489762D01*
X10357381Y-15527857D01*
X10347857Y-15546905D01*
X10328810Y-15565952D01*
X10300238Y-15575476D01*
X10252619Y-15575476D01*
X10452619Y-15575476D02*
X10452619Y-15442143D01*
X10452619Y-15480238D02*
X10462143Y-15461190D01*
X10471667Y-15451667D01*
X10490714Y-15442143D01*
X10509762Y-15442143D01*
X10576429Y-15575476D02*
X10576429Y-15442143D01*
X10576429Y-15375476D02*
X10566905Y-15385000D01*
X10576429Y-15394524D01*
X10585952Y-15385000D01*
X10576429Y-15375476D01*
X10576429Y-15394524D01*
X10700238Y-15575476D02*
X10681190Y-15565952D01*
X10671667Y-15546905D01*
X10671667Y-15375476D01*
X10805000Y-15575476D02*
X10785952Y-15565952D01*
X10776429Y-15546905D01*
X10776429Y-15375476D01*
X11033571Y-15575476D02*
X11033571Y-15375476D01*
X11100238Y-15518333D01*
X11166905Y-15375476D01*
X11166905Y-15575476D01*
X11347857Y-15575476D02*
X11347857Y-15470714D01*
X11338333Y-15451667D01*
X11319286Y-15442143D01*
X11281190Y-15442143D01*
X11262143Y-15451667D01*
X11347857Y-15565952D02*
X11328809Y-15575476D01*
X11281190Y-15575476D01*
X11262143Y-15565952D01*
X11252619Y-15546905D01*
X11252619Y-15527857D01*
X11262143Y-15508809D01*
X11281190Y-15499286D01*
X11328809Y-15499286D01*
X11347857Y-15489762D01*
X11443095Y-15442143D02*
X11443095Y-15642143D01*
X11443095Y-15451667D02*
X11462143Y-15442143D01*
X11500238Y-15442143D01*
X11519286Y-15451667D01*
X11528809Y-15461190D01*
X11538333Y-15480238D01*
X11538333Y-15537381D01*
X11528809Y-15556428D01*
X11519286Y-15565952D01*
X11500238Y-15575476D01*
X11462143Y-15575476D01*
X11443095Y-15565952D01*
X11624048Y-15556428D02*
X11633571Y-15565952D01*
X11624048Y-15575476D01*
X11614524Y-15565952D01*
X11624048Y-15556428D01*
X11624048Y-15575476D01*
X11624048Y-15451667D02*
X11633571Y-15461190D01*
X11624048Y-15470714D01*
X11614524Y-15461190D01*
X11624048Y-15451667D01*
X11624048Y-15470714D01*
M02*
