%TF.GenerationSoftware,KiCad,Pcbnew,(6.0.8-1)-1*%
%TF.CreationDate,2022-10-13T14:56:03-04:00*%
%TF.ProjectId,FCAL,4643414c-2e6b-4696-9361-645f70636258,rev?*%
%TF.SameCoordinates,Original*%
%TF.FileFunction,Legend,Bot*%
%TF.FilePolarity,Positive*%
%FSLAX46Y46*%
G04 Gerber Fmt 4.6, Leading zero omitted, Abs format (unit mm)*
G04 Created by KiCad (PCBNEW (6.0.8-1)-1) date 2022-10-13 14:56:03*
%MOMM*%
%LPD*%
G01*
G04 APERTURE LIST*
%ADD10C,0.150000*%
%ADD11C,0.120000*%
G04 APERTURE END LIST*
D10*
%TO.C,REF\u002A\u002A*%
X111333333Y-133802380D02*
X111666666Y-133326190D01*
X111904761Y-133802380D02*
X111904761Y-132802380D01*
X111523809Y-132802380D01*
X111428571Y-132850000D01*
X111380952Y-132897619D01*
X111333333Y-132992857D01*
X111333333Y-133135714D01*
X111380952Y-133230952D01*
X111428571Y-133278571D01*
X111523809Y-133326190D01*
X111904761Y-133326190D01*
X110904761Y-133278571D02*
X110571428Y-133278571D01*
X110428571Y-133802380D02*
X110904761Y-133802380D01*
X110904761Y-132802380D01*
X110428571Y-132802380D01*
X109666666Y-133278571D02*
X110000000Y-133278571D01*
X110000000Y-133802380D02*
X110000000Y-132802380D01*
X109523809Y-132802380D01*
X109000000Y-132802380D02*
X109000000Y-133040476D01*
X109238095Y-132945238D02*
X109000000Y-133040476D01*
X108761904Y-132945238D01*
X109142857Y-133230952D02*
X109000000Y-133040476D01*
X108857142Y-133230952D01*
X108238095Y-132802380D02*
X108238095Y-133040476D01*
X108476190Y-132945238D02*
X108238095Y-133040476D01*
X108000000Y-132945238D01*
X108380952Y-133230952D02*
X108238095Y-133040476D01*
X108095238Y-133230952D01*
X111333333Y-82602380D02*
X111666666Y-82126190D01*
X111904761Y-82602380D02*
X111904761Y-81602380D01*
X111523809Y-81602380D01*
X111428571Y-81650000D01*
X111380952Y-81697619D01*
X111333333Y-81792857D01*
X111333333Y-81935714D01*
X111380952Y-82030952D01*
X111428571Y-82078571D01*
X111523809Y-82126190D01*
X111904761Y-82126190D01*
X110904761Y-82078571D02*
X110571428Y-82078571D01*
X110428571Y-82602380D02*
X110904761Y-82602380D01*
X110904761Y-81602380D01*
X110428571Y-81602380D01*
X109666666Y-82078571D02*
X110000000Y-82078571D01*
X110000000Y-82602380D02*
X110000000Y-81602380D01*
X109523809Y-81602380D01*
X109000000Y-81602380D02*
X109000000Y-81840476D01*
X109238095Y-81745238D02*
X109000000Y-81840476D01*
X108761904Y-81745238D01*
X109142857Y-82030952D02*
X109000000Y-81840476D01*
X108857142Y-82030952D01*
X108238095Y-81602380D02*
X108238095Y-81840476D01*
X108476190Y-81745238D02*
X108238095Y-81840476D01*
X108000000Y-81745238D01*
X108380952Y-82030952D02*
X108238095Y-81840476D01*
X108095238Y-82030952D01*
X111333333Y-80652380D02*
X111666666Y-80176190D01*
X111904761Y-80652380D02*
X111904761Y-79652380D01*
X111523809Y-79652380D01*
X111428571Y-79700000D01*
X111380952Y-79747619D01*
X111333333Y-79842857D01*
X111333333Y-79985714D01*
X111380952Y-80080952D01*
X111428571Y-80128571D01*
X111523809Y-80176190D01*
X111904761Y-80176190D01*
X110904761Y-80128571D02*
X110571428Y-80128571D01*
X110428571Y-80652380D02*
X110904761Y-80652380D01*
X110904761Y-79652380D01*
X110428571Y-79652380D01*
X109666666Y-80128571D02*
X110000000Y-80128571D01*
X110000000Y-80652380D02*
X110000000Y-79652380D01*
X109523809Y-79652380D01*
X109000000Y-79652380D02*
X109000000Y-79890476D01*
X109238095Y-79795238D02*
X109000000Y-79890476D01*
X108761904Y-79795238D01*
X109142857Y-80080952D02*
X109000000Y-79890476D01*
X108857142Y-80080952D01*
X108238095Y-79652380D02*
X108238095Y-79890476D01*
X108476190Y-79795238D02*
X108238095Y-79890476D01*
X108000000Y-79795238D01*
X108380952Y-80080952D02*
X108238095Y-79890476D01*
X108095238Y-80080952D01*
X118404761Y-80557142D02*
X118452380Y-80604761D01*
X118595238Y-80652380D01*
X118690476Y-80652380D01*
X118833333Y-80604761D01*
X118928571Y-80509523D01*
X118976190Y-80414285D01*
X119023809Y-80223809D01*
X119023809Y-80080952D01*
X118976190Y-79890476D01*
X118928571Y-79795238D01*
X118833333Y-79700000D01*
X118690476Y-79652380D01*
X118595238Y-79652380D01*
X118452380Y-79700000D01*
X118404761Y-79747619D01*
X117785714Y-79652380D02*
X117595238Y-79652380D01*
X117500000Y-79700000D01*
X117404761Y-79795238D01*
X117357142Y-79985714D01*
X117357142Y-80319047D01*
X117404761Y-80509523D01*
X117500000Y-80604761D01*
X117595238Y-80652380D01*
X117785714Y-80652380D01*
X117880952Y-80604761D01*
X117976190Y-80509523D01*
X118023809Y-80319047D01*
X118023809Y-79985714D01*
X117976190Y-79795238D01*
X117880952Y-79700000D01*
X117785714Y-79652380D01*
X116928571Y-80652380D02*
X116928571Y-79652380D01*
X116357142Y-80652380D01*
X116357142Y-79652380D01*
X115880952Y-80652380D02*
X115880952Y-79652380D01*
X115309523Y-80652380D01*
X115309523Y-79652380D01*
X115071428Y-80747619D02*
X114309523Y-80747619D01*
X114166666Y-79652380D02*
X113547619Y-79652380D01*
X113880952Y-80033333D01*
X113738095Y-80033333D01*
X113642857Y-80080952D01*
X113595238Y-80128571D01*
X113547619Y-80223809D01*
X113547619Y-80461904D01*
X113595238Y-80557142D01*
X113642857Y-80604761D01*
X113738095Y-80652380D01*
X114023809Y-80652380D01*
X114119047Y-80604761D01*
X114166666Y-80557142D01*
X113119047Y-80271428D02*
X112357142Y-80271428D01*
X111357142Y-80652380D02*
X111928571Y-80652380D01*
X111642857Y-80652380D02*
X111642857Y-79652380D01*
X111738095Y-79795238D01*
X111833333Y-79890476D01*
X111928571Y-79938095D01*
X110738095Y-79652380D02*
X110642857Y-79652380D01*
X110547619Y-79700000D01*
X110500000Y-79747619D01*
X110452380Y-79842857D01*
X110404761Y-80033333D01*
X110404761Y-80271428D01*
X110452380Y-80461904D01*
X110500000Y-80557142D01*
X110547619Y-80604761D01*
X110642857Y-80652380D01*
X110738095Y-80652380D01*
X110833333Y-80604761D01*
X110880952Y-80557142D01*
X110928571Y-80461904D01*
X110976190Y-80271428D01*
X110976190Y-80033333D01*
X110928571Y-79842857D01*
X110880952Y-79747619D01*
X110833333Y-79700000D01*
X110738095Y-79652380D01*
X110023809Y-79747619D02*
X109976190Y-79700000D01*
X109880952Y-79652380D01*
X109642857Y-79652380D01*
X109547619Y-79700000D01*
X109500000Y-79747619D01*
X109452380Y-79842857D01*
X109452380Y-79938095D01*
X109500000Y-80080952D01*
X110071428Y-80652380D01*
X109452380Y-80652380D01*
X109071428Y-79747619D02*
X109023809Y-79700000D01*
X108928571Y-79652380D01*
X108690476Y-79652380D01*
X108595238Y-79700000D01*
X108547619Y-79747619D01*
X108500000Y-79842857D01*
X108500000Y-79938095D01*
X108547619Y-80080952D01*
X109119047Y-80652380D01*
X108500000Y-80652380D01*
X107880952Y-79652380D02*
X107785714Y-79652380D01*
X107690476Y-79700000D01*
X107642857Y-79747619D01*
X107595238Y-79842857D01*
X107547619Y-80033333D01*
X107547619Y-80271428D01*
X107595238Y-80461904D01*
X107642857Y-80557142D01*
X107690476Y-80604761D01*
X107785714Y-80652380D01*
X107880952Y-80652380D01*
X107976190Y-80604761D01*
X108023809Y-80557142D01*
X108071428Y-80461904D01*
X108119047Y-80271428D01*
X108119047Y-80033333D01*
X108071428Y-79842857D01*
X108023809Y-79747619D01*
X107976190Y-79700000D01*
X107880952Y-79652380D01*
X107214285Y-79652380D02*
X106595238Y-79652380D01*
X106928571Y-80033333D01*
X106785714Y-80033333D01*
X106690476Y-80080952D01*
X106642857Y-80128571D01*
X106595238Y-80223809D01*
X106595238Y-80461904D01*
X106642857Y-80557142D01*
X106690476Y-80604761D01*
X106785714Y-80652380D01*
X107071428Y-80652380D01*
X107166666Y-80604761D01*
X107214285Y-80557142D01*
X106166666Y-80271428D02*
X105404761Y-80271428D01*
X104500000Y-79985714D02*
X104500000Y-80652380D01*
X104738095Y-79604761D02*
X104976190Y-80319047D01*
X104357142Y-80319047D01*
X104214285Y-80747619D02*
X103452380Y-80747619D01*
X103357142Y-79652380D02*
X102785714Y-79652380D01*
X103071428Y-80652380D02*
X103071428Y-79652380D01*
X102452380Y-80128571D02*
X102119047Y-80128571D01*
X101976190Y-80652380D02*
X102452380Y-80652380D01*
X102452380Y-79652380D01*
X101976190Y-79652380D01*
X100976190Y-80557142D02*
X101023809Y-80604761D01*
X101166666Y-80652380D01*
X101261904Y-80652380D01*
X101404761Y-80604761D01*
X101500000Y-80509523D01*
X101547619Y-80414285D01*
X101595238Y-80223809D01*
X101595238Y-80080952D01*
X101547619Y-79890476D01*
X101500000Y-79795238D01*
X101404761Y-79700000D01*
X101261904Y-79652380D01*
X101166666Y-79652380D01*
X101023809Y-79700000D01*
X100976190Y-79747619D01*
X112540000Y-79652380D02*
X112540000Y-79890476D01*
X112778095Y-79795238D02*
X112540000Y-79890476D01*
X112301904Y-79795238D01*
X112682857Y-80080952D02*
X112540000Y-79890476D01*
X112397142Y-80080952D01*
X111333333Y-131852380D02*
X111666666Y-131376190D01*
X111904761Y-131852380D02*
X111904761Y-130852380D01*
X111523809Y-130852380D01*
X111428571Y-130900000D01*
X111380952Y-130947619D01*
X111333333Y-131042857D01*
X111333333Y-131185714D01*
X111380952Y-131280952D01*
X111428571Y-131328571D01*
X111523809Y-131376190D01*
X111904761Y-131376190D01*
X110904761Y-131328571D02*
X110571428Y-131328571D01*
X110428571Y-131852380D02*
X110904761Y-131852380D01*
X110904761Y-130852380D01*
X110428571Y-130852380D01*
X109666666Y-131328571D02*
X110000000Y-131328571D01*
X110000000Y-131852380D02*
X110000000Y-130852380D01*
X109523809Y-130852380D01*
X109000000Y-130852380D02*
X109000000Y-131090476D01*
X109238095Y-130995238D02*
X109000000Y-131090476D01*
X108761904Y-130995238D01*
X109142857Y-131280952D02*
X109000000Y-131090476D01*
X108857142Y-131280952D01*
X108238095Y-130852380D02*
X108238095Y-131090476D01*
X108476190Y-130995238D02*
X108238095Y-131090476D01*
X108000000Y-130995238D01*
X108380952Y-131280952D02*
X108238095Y-131090476D01*
X108095238Y-131280952D01*
X118404761Y-131757142D02*
X118452380Y-131804761D01*
X118595238Y-131852380D01*
X118690476Y-131852380D01*
X118833333Y-131804761D01*
X118928571Y-131709523D01*
X118976190Y-131614285D01*
X119023809Y-131423809D01*
X119023809Y-131280952D01*
X118976190Y-131090476D01*
X118928571Y-130995238D01*
X118833333Y-130900000D01*
X118690476Y-130852380D01*
X118595238Y-130852380D01*
X118452380Y-130900000D01*
X118404761Y-130947619D01*
X117785714Y-130852380D02*
X117595238Y-130852380D01*
X117500000Y-130900000D01*
X117404761Y-130995238D01*
X117357142Y-131185714D01*
X117357142Y-131519047D01*
X117404761Y-131709523D01*
X117500000Y-131804761D01*
X117595238Y-131852380D01*
X117785714Y-131852380D01*
X117880952Y-131804761D01*
X117976190Y-131709523D01*
X118023809Y-131519047D01*
X118023809Y-131185714D01*
X117976190Y-130995238D01*
X117880952Y-130900000D01*
X117785714Y-130852380D01*
X116928571Y-131852380D02*
X116928571Y-130852380D01*
X116357142Y-131852380D01*
X116357142Y-130852380D01*
X115880952Y-131852380D02*
X115880952Y-130852380D01*
X115309523Y-131852380D01*
X115309523Y-130852380D01*
X115071428Y-131947619D02*
X114309523Y-131947619D01*
X114166666Y-130852380D02*
X113547619Y-130852380D01*
X113880952Y-131233333D01*
X113738095Y-131233333D01*
X113642857Y-131280952D01*
X113595238Y-131328571D01*
X113547619Y-131423809D01*
X113547619Y-131661904D01*
X113595238Y-131757142D01*
X113642857Y-131804761D01*
X113738095Y-131852380D01*
X114023809Y-131852380D01*
X114119047Y-131804761D01*
X114166666Y-131757142D01*
X113119047Y-131471428D02*
X112357142Y-131471428D01*
X111357142Y-131852380D02*
X111928571Y-131852380D01*
X111642857Y-131852380D02*
X111642857Y-130852380D01*
X111738095Y-130995238D01*
X111833333Y-131090476D01*
X111928571Y-131138095D01*
X110738095Y-130852380D02*
X110642857Y-130852380D01*
X110547619Y-130900000D01*
X110500000Y-130947619D01*
X110452380Y-131042857D01*
X110404761Y-131233333D01*
X110404761Y-131471428D01*
X110452380Y-131661904D01*
X110500000Y-131757142D01*
X110547619Y-131804761D01*
X110642857Y-131852380D01*
X110738095Y-131852380D01*
X110833333Y-131804761D01*
X110880952Y-131757142D01*
X110928571Y-131661904D01*
X110976190Y-131471428D01*
X110976190Y-131233333D01*
X110928571Y-131042857D01*
X110880952Y-130947619D01*
X110833333Y-130900000D01*
X110738095Y-130852380D01*
X110023809Y-130947619D02*
X109976190Y-130900000D01*
X109880952Y-130852380D01*
X109642857Y-130852380D01*
X109547619Y-130900000D01*
X109500000Y-130947619D01*
X109452380Y-131042857D01*
X109452380Y-131138095D01*
X109500000Y-131280952D01*
X110071428Y-131852380D01*
X109452380Y-131852380D01*
X109071428Y-130947619D02*
X109023809Y-130900000D01*
X108928571Y-130852380D01*
X108690476Y-130852380D01*
X108595238Y-130900000D01*
X108547619Y-130947619D01*
X108500000Y-131042857D01*
X108500000Y-131138095D01*
X108547619Y-131280952D01*
X109119047Y-131852380D01*
X108500000Y-131852380D01*
X107880952Y-130852380D02*
X107785714Y-130852380D01*
X107690476Y-130900000D01*
X107642857Y-130947619D01*
X107595238Y-131042857D01*
X107547619Y-131233333D01*
X107547619Y-131471428D01*
X107595238Y-131661904D01*
X107642857Y-131757142D01*
X107690476Y-131804761D01*
X107785714Y-131852380D01*
X107880952Y-131852380D01*
X107976190Y-131804761D01*
X108023809Y-131757142D01*
X108071428Y-131661904D01*
X108119047Y-131471428D01*
X108119047Y-131233333D01*
X108071428Y-131042857D01*
X108023809Y-130947619D01*
X107976190Y-130900000D01*
X107880952Y-130852380D01*
X107214285Y-130852380D02*
X106595238Y-130852380D01*
X106928571Y-131233333D01*
X106785714Y-131233333D01*
X106690476Y-131280952D01*
X106642857Y-131328571D01*
X106595238Y-131423809D01*
X106595238Y-131661904D01*
X106642857Y-131757142D01*
X106690476Y-131804761D01*
X106785714Y-131852380D01*
X107071428Y-131852380D01*
X107166666Y-131804761D01*
X107214285Y-131757142D01*
X106166666Y-131471428D02*
X105404761Y-131471428D01*
X104500000Y-131185714D02*
X104500000Y-131852380D01*
X104738095Y-130804761D02*
X104976190Y-131519047D01*
X104357142Y-131519047D01*
X104214285Y-131947619D02*
X103452380Y-131947619D01*
X103357142Y-130852380D02*
X102785714Y-130852380D01*
X103071428Y-131852380D02*
X103071428Y-130852380D01*
X102452380Y-131328571D02*
X102119047Y-131328571D01*
X101976190Y-131852380D02*
X102452380Y-131852380D01*
X102452380Y-130852380D01*
X101976190Y-130852380D01*
X100976190Y-131757142D02*
X101023809Y-131804761D01*
X101166666Y-131852380D01*
X101261904Y-131852380D01*
X101404761Y-131804761D01*
X101500000Y-131709523D01*
X101547619Y-131614285D01*
X101595238Y-131423809D01*
X101595238Y-131280952D01*
X101547619Y-131090476D01*
X101500000Y-130995238D01*
X101404761Y-130900000D01*
X101261904Y-130852380D01*
X101166666Y-130852380D01*
X101023809Y-130900000D01*
X100976190Y-130947619D01*
X112540000Y-130852380D02*
X112540000Y-131090476D01*
X112778095Y-130995238D02*
X112540000Y-131090476D01*
X112301904Y-130995238D01*
X112682857Y-131280952D02*
X112540000Y-131090476D01*
X112397142Y-131280952D01*
D11*
X110711252Y-136110000D02*
X109288748Y-136110000D01*
X110711252Y-134290000D02*
X109288748Y-134290000D01*
X110711252Y-83090000D02*
X109288748Y-83090000D01*
X110711252Y-84910000D02*
X109288748Y-84910000D01*
X112540000Y-67728600D02*
X113175000Y-66458600D01*
X115461000Y-82054200D02*
X104539000Y-82054200D01*
X104539000Y-82054200D02*
X104539000Y-67855600D01*
X113175000Y-66458600D02*
X111905000Y-66458600D01*
X115461000Y-67855600D02*
X115461000Y-82054200D01*
X104539000Y-67855600D02*
X115461000Y-67855600D01*
X111905000Y-66458600D02*
X112540000Y-67728600D01*
X112540000Y-118928600D02*
X113175000Y-117658600D01*
X115461000Y-133254200D02*
X104539000Y-133254200D01*
X104539000Y-133254200D02*
X104539000Y-119055600D01*
X113175000Y-117658600D02*
X111905000Y-117658600D01*
X115461000Y-119055600D02*
X115461000Y-133254200D01*
X104539000Y-119055600D02*
X115461000Y-119055600D01*
X111905000Y-117658600D02*
X112540000Y-118928600D01*
%TD*%
M02*
