%TF.GenerationSoftware,KiCad,Pcbnew,(6.0.8-1)-1*%
%TF.CreationDate,2022-10-13T14:55:58-04:00*%
%TF.ProjectId,FCAL,4643414c-2e6b-4696-9361-645f70636258,rev?*%
%TF.SameCoordinates,Original*%
%TF.FileFunction,Drillmap*%
%TF.FilePolarity,Positive*%
%FSLAX45Y45*%
G04 Gerber Fmt 4.5, Leading zero omitted, Abs format (unit mm)*
G04 Created by KiCad (PCBNEW (6.0.8-1)-1) date 2022-10-13 14:55:58*
%MOMM*%
%LPD*%
G01*
G04 APERTURE LIST*
%ADD10C,0.100000*%
%ADD11C,0.200000*%
%ADD12C,0.088900*%
G04 APERTURE END LIST*
D10*
X11278150Y-8865000D02*
G75*
G03*
X11278150Y-8865000I-278150J0D01*
G01*
X11278150Y-13995000D02*
G75*
G03*
X11278150Y-13995000I-278150J0D01*
G01*
X10000000Y-5000000D02*
X12000000Y-5000000D01*
X12000000Y-5000000D02*
X12000000Y-15260000D01*
X12000000Y-15260000D02*
X10000000Y-15260000D01*
X10000000Y-15260000D02*
X10000000Y-5000000D01*
X11250000Y-5505000D02*
G75*
G03*
X11250000Y-5505000I-250000J0D01*
G01*
X11278150Y-6265000D02*
G75*
G03*
X11278150Y-6265000I-278150J0D01*
G01*
X11278150Y-11395000D02*
G75*
G03*
X11278150Y-11395000I-278150J0D01*
G01*
X11250000Y-14755000D02*
G75*
G03*
X11250000Y-14755000I-250000J0D01*
G01*
D11*
D12*
X10701550Y-7975550D02*
X10790450Y-8064450D01*
X10790450Y-7975550D02*
X10701550Y-8064450D01*
X10701550Y-13095550D02*
X10790450Y-13184450D01*
X10790450Y-13095550D02*
X10701550Y-13184450D01*
X10955550Y-7975550D02*
X11044450Y-8064450D01*
X11044450Y-7975550D02*
X10955550Y-8064450D01*
X10955550Y-13095550D02*
X11044450Y-13184450D01*
X11044450Y-13095550D02*
X10955550Y-13184450D01*
X11209550Y-7975550D02*
X11298450Y-8064450D01*
X11298450Y-7975550D02*
X11209550Y-8064450D01*
X11209550Y-13095550D02*
X11298450Y-13184450D01*
X11298450Y-13095550D02*
X11209550Y-13184450D01*
D11*
X10252619Y-15575476D02*
X10252619Y-15375476D01*
X10300238Y-15375476D01*
X10328810Y-15385000D01*
X10347857Y-15404048D01*
X10357381Y-15423095D01*
X10366905Y-15461190D01*
X10366905Y-15489762D01*
X10357381Y-15527857D01*
X10347857Y-15546905D01*
X10328810Y-15565952D01*
X10300238Y-15575476D01*
X10252619Y-15575476D01*
X10452619Y-15575476D02*
X10452619Y-15442143D01*
X10452619Y-15480238D02*
X10462143Y-15461190D01*
X10471667Y-15451667D01*
X10490714Y-15442143D01*
X10509762Y-15442143D01*
X10576429Y-15575476D02*
X10576429Y-15442143D01*
X10576429Y-15375476D02*
X10566905Y-15385000D01*
X10576429Y-15394524D01*
X10585952Y-15385000D01*
X10576429Y-15375476D01*
X10576429Y-15394524D01*
X10700238Y-15575476D02*
X10681190Y-15565952D01*
X10671667Y-15546905D01*
X10671667Y-15375476D01*
X10805000Y-15575476D02*
X10785952Y-15565952D01*
X10776429Y-15546905D01*
X10776429Y-15375476D01*
X11033571Y-15575476D02*
X11033571Y-15375476D01*
X11100238Y-15518333D01*
X11166905Y-15375476D01*
X11166905Y-15575476D01*
X11347857Y-15575476D02*
X11347857Y-15470714D01*
X11338333Y-15451667D01*
X11319286Y-15442143D01*
X11281190Y-15442143D01*
X11262143Y-15451667D01*
X11347857Y-15565952D02*
X11328809Y-15575476D01*
X11281190Y-15575476D01*
X11262143Y-15565952D01*
X11252619Y-15546905D01*
X11252619Y-15527857D01*
X11262143Y-15508809D01*
X11281190Y-15499286D01*
X11328809Y-15499286D01*
X11347857Y-15489762D01*
X11443095Y-15442143D02*
X11443095Y-15642143D01*
X11443095Y-15451667D02*
X11462143Y-15442143D01*
X11500238Y-15442143D01*
X11519286Y-15451667D01*
X11528809Y-15461190D01*
X11538333Y-15480238D01*
X11538333Y-15537381D01*
X11528809Y-15556428D01*
X11519286Y-15565952D01*
X11500238Y-15575476D01*
X11462143Y-15575476D01*
X11443095Y-15565952D01*
X11624048Y-15556428D02*
X11633571Y-15565952D01*
X11624048Y-15575476D01*
X11614524Y-15565952D01*
X11624048Y-15556428D01*
X11624048Y-15575476D01*
X11624048Y-15451667D02*
X11633571Y-15461190D01*
X11624048Y-15470714D01*
X11614524Y-15461190D01*
X11624048Y-15451667D01*
X11624048Y-15470714D01*
D12*
X9906100Y-15860550D02*
X9995000Y-15949450D01*
X9995000Y-15860550D02*
X9906100Y-15949450D01*
D11*
X10290714Y-15795476D02*
X10309762Y-15795476D01*
X10328810Y-15805000D01*
X10338333Y-15814524D01*
X10347857Y-15833571D01*
X10357381Y-15871667D01*
X10357381Y-15919286D01*
X10347857Y-15957381D01*
X10338333Y-15976428D01*
X10328810Y-15985952D01*
X10309762Y-15995476D01*
X10290714Y-15995476D01*
X10271667Y-15985952D01*
X10262143Y-15976428D01*
X10252619Y-15957381D01*
X10243095Y-15919286D01*
X10243095Y-15871667D01*
X10252619Y-15833571D01*
X10262143Y-15814524D01*
X10271667Y-15805000D01*
X10290714Y-15795476D01*
X10443095Y-15976428D02*
X10452619Y-15985952D01*
X10443095Y-15995476D01*
X10433571Y-15985952D01*
X10443095Y-15976428D01*
X10443095Y-15995476D01*
X10566905Y-15881190D02*
X10547857Y-15871667D01*
X10538333Y-15862143D01*
X10528810Y-15843095D01*
X10528810Y-15833571D01*
X10538333Y-15814524D01*
X10547857Y-15805000D01*
X10566905Y-15795476D01*
X10605000Y-15795476D01*
X10624048Y-15805000D01*
X10633571Y-15814524D01*
X10643095Y-15833571D01*
X10643095Y-15843095D01*
X10633571Y-15862143D01*
X10624048Y-15871667D01*
X10605000Y-15881190D01*
X10566905Y-15881190D01*
X10547857Y-15890714D01*
X10538333Y-15900238D01*
X10528810Y-15919286D01*
X10528810Y-15957381D01*
X10538333Y-15976428D01*
X10547857Y-15985952D01*
X10566905Y-15995476D01*
X10605000Y-15995476D01*
X10624048Y-15985952D01*
X10633571Y-15976428D01*
X10643095Y-15957381D01*
X10643095Y-15919286D01*
X10633571Y-15900238D01*
X10624048Y-15890714D01*
X10605000Y-15881190D01*
X10757381Y-15881190D02*
X10738333Y-15871667D01*
X10728810Y-15862143D01*
X10719286Y-15843095D01*
X10719286Y-15833571D01*
X10728810Y-15814524D01*
X10738333Y-15805000D01*
X10757381Y-15795476D01*
X10795476Y-15795476D01*
X10814524Y-15805000D01*
X10824048Y-15814524D01*
X10833571Y-15833571D01*
X10833571Y-15843095D01*
X10824048Y-15862143D01*
X10814524Y-15871667D01*
X10795476Y-15881190D01*
X10757381Y-15881190D01*
X10738333Y-15890714D01*
X10728810Y-15900238D01*
X10719286Y-15919286D01*
X10719286Y-15957381D01*
X10728810Y-15976428D01*
X10738333Y-15985952D01*
X10757381Y-15995476D01*
X10795476Y-15995476D01*
X10814524Y-15985952D01*
X10824048Y-15976428D01*
X10833571Y-15957381D01*
X10833571Y-15919286D01*
X10824048Y-15900238D01*
X10814524Y-15890714D01*
X10795476Y-15881190D01*
X10928810Y-15995476D02*
X10966905Y-15995476D01*
X10985952Y-15985952D01*
X10995476Y-15976428D01*
X11014524Y-15947857D01*
X11024048Y-15909762D01*
X11024048Y-15833571D01*
X11014524Y-15814524D01*
X11005000Y-15805000D01*
X10985952Y-15795476D01*
X10947857Y-15795476D01*
X10928810Y-15805000D01*
X10919286Y-15814524D01*
X10909762Y-15833571D01*
X10909762Y-15881190D01*
X10919286Y-15900238D01*
X10928810Y-15909762D01*
X10947857Y-15919286D01*
X10985952Y-15919286D01*
X11005000Y-15909762D01*
X11014524Y-15900238D01*
X11024048Y-15881190D01*
X11109762Y-15995476D02*
X11109762Y-15862143D01*
X11109762Y-15881190D02*
X11119286Y-15871667D01*
X11138333Y-15862143D01*
X11166905Y-15862143D01*
X11185952Y-15871667D01*
X11195476Y-15890714D01*
X11195476Y-15995476D01*
X11195476Y-15890714D02*
X11205000Y-15871667D01*
X11224048Y-15862143D01*
X11252619Y-15862143D01*
X11271667Y-15871667D01*
X11281190Y-15890714D01*
X11281190Y-15995476D01*
X11376428Y-15995476D02*
X11376428Y-15862143D01*
X11376428Y-15881190D02*
X11385952Y-15871667D01*
X11405000Y-15862143D01*
X11433571Y-15862143D01*
X11452619Y-15871667D01*
X11462143Y-15890714D01*
X11462143Y-15995476D01*
X11462143Y-15890714D02*
X11471667Y-15871667D01*
X11490714Y-15862143D01*
X11519286Y-15862143D01*
X11538333Y-15871667D01*
X11547857Y-15890714D01*
X11547857Y-15995476D01*
X11938333Y-15785952D02*
X11766905Y-16043095D01*
X12195476Y-15795476D02*
X12214524Y-15795476D01*
X12233571Y-15805000D01*
X12243095Y-15814524D01*
X12252619Y-15833571D01*
X12262143Y-15871667D01*
X12262143Y-15919286D01*
X12252619Y-15957381D01*
X12243095Y-15976428D01*
X12233571Y-15985952D01*
X12214524Y-15995476D01*
X12195476Y-15995476D01*
X12176428Y-15985952D01*
X12166905Y-15976428D01*
X12157381Y-15957381D01*
X12147857Y-15919286D01*
X12147857Y-15871667D01*
X12157381Y-15833571D01*
X12166905Y-15814524D01*
X12176428Y-15805000D01*
X12195476Y-15795476D01*
X12347857Y-15976428D02*
X12357381Y-15985952D01*
X12347857Y-15995476D01*
X12338333Y-15985952D01*
X12347857Y-15976428D01*
X12347857Y-15995476D01*
X12481190Y-15795476D02*
X12500238Y-15795476D01*
X12519286Y-15805000D01*
X12528809Y-15814524D01*
X12538333Y-15833571D01*
X12547857Y-15871667D01*
X12547857Y-15919286D01*
X12538333Y-15957381D01*
X12528809Y-15976428D01*
X12519286Y-15985952D01*
X12500238Y-15995476D01*
X12481190Y-15995476D01*
X12462143Y-15985952D01*
X12452619Y-15976428D01*
X12443095Y-15957381D01*
X12433571Y-15919286D01*
X12433571Y-15871667D01*
X12443095Y-15833571D01*
X12452619Y-15814524D01*
X12462143Y-15805000D01*
X12481190Y-15795476D01*
X12614524Y-15795476D02*
X12738333Y-15795476D01*
X12671667Y-15871667D01*
X12700238Y-15871667D01*
X12719286Y-15881190D01*
X12728809Y-15890714D01*
X12738333Y-15909762D01*
X12738333Y-15957381D01*
X12728809Y-15976428D01*
X12719286Y-15985952D01*
X12700238Y-15995476D01*
X12643095Y-15995476D01*
X12624048Y-15985952D01*
X12614524Y-15976428D01*
X12919286Y-15795476D02*
X12824048Y-15795476D01*
X12814524Y-15890714D01*
X12824048Y-15881190D01*
X12843095Y-15871667D01*
X12890714Y-15871667D01*
X12909762Y-15881190D01*
X12919286Y-15890714D01*
X12928809Y-15909762D01*
X12928809Y-15957381D01*
X12919286Y-15976428D01*
X12909762Y-15985952D01*
X12890714Y-15995476D01*
X12843095Y-15995476D01*
X12824048Y-15985952D01*
X12814524Y-15976428D01*
X13052619Y-15795476D02*
X13071667Y-15795476D01*
X13090714Y-15805000D01*
X13100238Y-15814524D01*
X13109762Y-15833571D01*
X13119286Y-15871667D01*
X13119286Y-15919286D01*
X13109762Y-15957381D01*
X13100238Y-15976428D01*
X13090714Y-15985952D01*
X13071667Y-15995476D01*
X13052619Y-15995476D01*
X13033571Y-15985952D01*
X13024048Y-15976428D01*
X13014524Y-15957381D01*
X13005000Y-15919286D01*
X13005000Y-15871667D01*
X13014524Y-15833571D01*
X13024048Y-15814524D01*
X13033571Y-15805000D01*
X13052619Y-15795476D01*
X13195476Y-15795476D02*
X13195476Y-15833571D01*
X13271667Y-15795476D02*
X13271667Y-15833571D01*
X13566905Y-16071667D02*
X13557381Y-16062143D01*
X13538333Y-16033571D01*
X13528809Y-16014524D01*
X13519286Y-15985952D01*
X13509762Y-15938333D01*
X13509762Y-15900238D01*
X13519286Y-15852619D01*
X13528809Y-15824048D01*
X13538333Y-15805000D01*
X13557381Y-15776428D01*
X13566905Y-15766905D01*
X13728809Y-15795476D02*
X13690714Y-15795476D01*
X13671667Y-15805000D01*
X13662143Y-15814524D01*
X13643095Y-15843095D01*
X13633571Y-15881190D01*
X13633571Y-15957381D01*
X13643095Y-15976428D01*
X13652619Y-15985952D01*
X13671667Y-15995476D01*
X13709762Y-15995476D01*
X13728809Y-15985952D01*
X13738333Y-15976428D01*
X13747857Y-15957381D01*
X13747857Y-15909762D01*
X13738333Y-15890714D01*
X13728809Y-15881190D01*
X13709762Y-15871667D01*
X13671667Y-15871667D01*
X13652619Y-15881190D01*
X13643095Y-15890714D01*
X13633571Y-15909762D01*
X13985952Y-15995476D02*
X13985952Y-15795476D01*
X14071667Y-15995476D02*
X14071667Y-15890714D01*
X14062143Y-15871667D01*
X14043095Y-15862143D01*
X14014524Y-15862143D01*
X13995476Y-15871667D01*
X13985952Y-15881190D01*
X14195476Y-15995476D02*
X14176428Y-15985952D01*
X14166905Y-15976428D01*
X14157381Y-15957381D01*
X14157381Y-15900238D01*
X14166905Y-15881190D01*
X14176428Y-15871667D01*
X14195476Y-15862143D01*
X14224048Y-15862143D01*
X14243095Y-15871667D01*
X14252619Y-15881190D01*
X14262143Y-15900238D01*
X14262143Y-15957381D01*
X14252619Y-15976428D01*
X14243095Y-15985952D01*
X14224048Y-15995476D01*
X14195476Y-15995476D01*
X14376428Y-15995476D02*
X14357381Y-15985952D01*
X14347857Y-15966905D01*
X14347857Y-15795476D01*
X14528809Y-15985952D02*
X14509762Y-15995476D01*
X14471667Y-15995476D01*
X14452619Y-15985952D01*
X14443095Y-15966905D01*
X14443095Y-15890714D01*
X14452619Y-15871667D01*
X14471667Y-15862143D01*
X14509762Y-15862143D01*
X14528809Y-15871667D01*
X14538333Y-15890714D01*
X14538333Y-15909762D01*
X14443095Y-15928809D01*
X14614524Y-15985952D02*
X14633571Y-15995476D01*
X14671667Y-15995476D01*
X14690714Y-15985952D01*
X14700238Y-15966905D01*
X14700238Y-15957381D01*
X14690714Y-15938333D01*
X14671667Y-15928809D01*
X14643095Y-15928809D01*
X14624048Y-15919286D01*
X14614524Y-15900238D01*
X14614524Y-15890714D01*
X14624048Y-15871667D01*
X14643095Y-15862143D01*
X14671667Y-15862143D01*
X14690714Y-15871667D01*
X14766905Y-16071667D02*
X14776428Y-16062143D01*
X14795476Y-16033571D01*
X14805000Y-16014524D01*
X14814524Y-15985952D01*
X14824048Y-15938333D01*
X14824048Y-15900238D01*
X14814524Y-15852619D01*
X14805000Y-15824048D01*
X14795476Y-15805000D01*
X14776428Y-15776428D01*
X14766905Y-15766905D01*
M02*
