%TF.GenerationSoftware,KiCad,Pcbnew,8.0.2-1*%
%TF.CreationDate,2024-06-21T16:13:16-04:00*%
%TF.ProjectId,EvenLayers_3.0mm_SiPM,4576656e-4c61-4796-9572-735f332e306d,rev?*%
%TF.SameCoordinates,Original*%
%TF.FileFunction,Soldermask,Top*%
%TF.FilePolarity,Negative*%
%FSLAX46Y46*%
G04 Gerber Fmt 4.6, Leading zero omitted, Abs format (unit mm)*
G04 Created by KiCad (PCBNEW 8.0.2-1) date 2024-06-21 16:13:16*
%MOMM*%
%LPD*%
G01*
G04 APERTURE LIST*
G04 Aperture macros list*
%AMRoundRect*
0 Rectangle with rounded corners*
0 $1 Rounding radius*
0 $2 $3 $4 $5 $6 $7 $8 $9 X,Y pos of 4 corners*
0 Add a 4 corners polygon primitive as box body*
4,1,4,$2,$3,$4,$5,$6,$7,$8,$9,$2,$3,0*
0 Add four circle primitives for the rounded corners*
1,1,$1+$1,$2,$3*
1,1,$1+$1,$4,$5*
1,1,$1+$1,$6,$7*
1,1,$1+$1,$8,$9*
0 Add four rect primitives between the rounded corners*
20,1,$1+$1,$2,$3,$4,$5,0*
20,1,$1+$1,$4,$5,$6,$7,0*
20,1,$1+$1,$6,$7,$8,$9,0*
20,1,$1+$1,$8,$9,$2,$3,0*%
G04 Aperture macros list end*
%ADD10RoundRect,0.237500X-0.287500X-0.237500X0.287500X-0.237500X0.287500X0.237500X-0.287500X0.237500X0*%
%ADD11RoundRect,0.225000X-0.225000X-0.250000X0.225000X-0.250000X0.225000X0.250000X-0.225000X0.250000X0*%
%ADD12R,4.200000X1.000000*%
%ADD13C,1.270000*%
%ADD14RoundRect,0.102000X-0.600000X0.250000X-0.600000X-0.250000X0.600000X-0.250000X0.600000X0.250000X0*%
%ADD15C,1.552000*%
%ADD16RoundRect,0.250000X-0.312500X-0.625000X0.312500X-0.625000X0.312500X0.625000X-0.312500X0.625000X0*%
%ADD17R,3.500000X3.500000*%
%ADD18C,4.000000*%
G04 APERTURE END LIST*
D10*
%TO.C,REF\u002A\u002A34*%
X321675000Y-189165000D03*
D11*
X321775000Y-194700000D03*
D12*
X322300000Y-190850000D03*
D11*
X323325000Y-194700000D03*
D10*
X323425000Y-189165000D03*
D12*
X322300000Y-193050000D03*
%TD*%
D10*
%TO.C,REF\u002A\u002A40*%
X130475000Y-284765000D03*
D11*
X130575000Y-290300000D03*
D12*
X131100000Y-286450000D03*
D11*
X132125000Y-290300000D03*
D10*
X132225000Y-284765000D03*
D12*
X131100000Y-288650000D03*
%TD*%
D10*
%TO.C,REF\u002A\u002A30*%
X130475000Y-189165000D03*
D11*
X130575000Y-194700000D03*
D12*
X131100000Y-190850000D03*
D11*
X132125000Y-194700000D03*
D10*
X132225000Y-189165000D03*
D12*
X131100000Y-193050000D03*
%TD*%
D10*
%TO.C,REF\u002A\u002A24*%
X321675000Y-93565000D03*
D11*
X321775000Y-99100000D03*
D12*
X322300000Y-95250000D03*
D11*
X323325000Y-99100000D03*
D10*
X323425000Y-93565000D03*
D12*
X322300000Y-97450000D03*
%TD*%
D13*
%TO.C,REF\u002A\u002A*%
X58500000Y-129255000D03*
X58500000Y-150745000D03*
D14*
X58300000Y-133600000D03*
X61700000Y-133600000D03*
X58300000Y-134400000D03*
X61700000Y-134400000D03*
X58300000Y-135200000D03*
X61700000Y-135200000D03*
X58300000Y-136000000D03*
X61700000Y-136000000D03*
X58300000Y-136800000D03*
X61700000Y-136800000D03*
X58300000Y-137600000D03*
X61700000Y-137600000D03*
X58300000Y-141600000D03*
X61700000Y-141600000D03*
X58300000Y-142400000D03*
X61700000Y-142400000D03*
X58300000Y-143200000D03*
X61700000Y-143200000D03*
X58300000Y-144000000D03*
X61700000Y-144000000D03*
X58300000Y-144800000D03*
X61700000Y-144800000D03*
X58300000Y-145600000D03*
X61700000Y-145600000D03*
X58300000Y-146400000D03*
X61700000Y-146400000D03*
D15*
X60000000Y-130505000D03*
X60000000Y-149495000D03*
%TD*%
D10*
%TO.C,REF\u002A\u002A43*%
X273875000Y-284765000D03*
D11*
X273975000Y-290300000D03*
D12*
X274500000Y-286450000D03*
D11*
X275525000Y-290300000D03*
D10*
X275625000Y-284765000D03*
D12*
X274500000Y-288650000D03*
%TD*%
D10*
%TO.C,REF\u002A\u002A38*%
X273875000Y-236965000D03*
D11*
X273975000Y-242500000D03*
D12*
X274500000Y-238650000D03*
D11*
X275525000Y-242500000D03*
D10*
X275625000Y-236965000D03*
D12*
X274500000Y-240850000D03*
%TD*%
D10*
%TO.C,REF\u002A\u002A22*%
X226075000Y-93565000D03*
D11*
X226175000Y-99100000D03*
D12*
X226700000Y-95250000D03*
D11*
X227725000Y-99100000D03*
D10*
X227825000Y-93565000D03*
D12*
X226700000Y-97450000D03*
%TD*%
D13*
%TO.C,REF\u002A\u002A*%
X58500000Y-209255000D03*
X58500000Y-230745000D03*
D14*
X58300000Y-213600000D03*
X61700000Y-213600000D03*
X58300000Y-214400000D03*
X61700000Y-214400000D03*
X58300000Y-215200000D03*
X61700000Y-215200000D03*
X58300000Y-216000000D03*
X61700000Y-216000000D03*
X58300000Y-216800000D03*
X61700000Y-216800000D03*
X58300000Y-217600000D03*
X61700000Y-217600000D03*
X58300000Y-221600000D03*
X61700000Y-221600000D03*
X58300000Y-222400000D03*
X61700000Y-222400000D03*
X58300000Y-223200000D03*
X61700000Y-223200000D03*
X58300000Y-224000000D03*
X61700000Y-224000000D03*
X58300000Y-224800000D03*
X61700000Y-224800000D03*
X58300000Y-225600000D03*
X61700000Y-225600000D03*
X58300000Y-226400000D03*
X61700000Y-226400000D03*
D15*
X60000000Y-210505000D03*
X60000000Y-229495000D03*
%TD*%
D10*
%TO.C,REF\u002A\u002A28*%
X273875000Y-141365000D03*
D11*
X273975000Y-146900000D03*
D12*
X274500000Y-143050000D03*
D11*
X275525000Y-146900000D03*
D10*
X275625000Y-141365000D03*
D12*
X274500000Y-145250000D03*
%TD*%
D10*
%TO.C,REF\u002A\u002A23*%
X273875000Y-93565000D03*
D11*
X273975000Y-99100000D03*
D12*
X274500000Y-95250000D03*
D11*
X275525000Y-99100000D03*
D10*
X275625000Y-93565000D03*
D12*
X274500000Y-97450000D03*
%TD*%
D10*
%TO.C,REF\u002A\u002A32*%
X226075000Y-189165000D03*
D11*
X226175000Y-194700000D03*
D12*
X226700000Y-190850000D03*
D11*
X227725000Y-194700000D03*
D10*
X227825000Y-189165000D03*
D12*
X226700000Y-193050000D03*
%TD*%
D10*
%TO.C,REF\u002A\u002A44*%
X321675000Y-284765000D03*
D11*
X321775000Y-290300000D03*
D12*
X322300000Y-286450000D03*
D11*
X323325000Y-290300000D03*
D10*
X323425000Y-284765000D03*
D12*
X322300000Y-288650000D03*
%TD*%
D10*
%TO.C,REF\u002A\u002A26*%
X178275000Y-141365000D03*
D11*
X178375000Y-146900000D03*
D12*
X178900000Y-143050000D03*
D11*
X179925000Y-146900000D03*
D10*
X180025000Y-141365000D03*
D12*
X178900000Y-145250000D03*
%TD*%
D10*
%TO.C,REF\u002A\u002A36*%
X178275000Y-236965000D03*
D11*
X178375000Y-242500000D03*
D12*
X178900000Y-238650000D03*
D11*
X179925000Y-242500000D03*
D10*
X180025000Y-236965000D03*
D12*
X178900000Y-240850000D03*
%TD*%
D10*
%TO.C,REF\u002A\u002A20*%
X130475000Y-93565000D03*
D11*
X130575000Y-99100000D03*
D12*
X131100000Y-95250000D03*
D11*
X132125000Y-99100000D03*
D10*
X132225000Y-93565000D03*
D12*
X131100000Y-97450000D03*
%TD*%
D10*
%TO.C,REF\u002A\u002A25*%
X130475000Y-141365000D03*
D11*
X130575000Y-146900000D03*
D12*
X131100000Y-143050000D03*
D11*
X132125000Y-146900000D03*
D10*
X132225000Y-141365000D03*
D12*
X131100000Y-145250000D03*
%TD*%
D10*
%TO.C,REF\u002A\u002A37*%
X226075000Y-236965000D03*
D11*
X226175000Y-242500000D03*
D12*
X226700000Y-238650000D03*
D11*
X227725000Y-242500000D03*
D10*
X227825000Y-236965000D03*
D12*
X226700000Y-240850000D03*
%TD*%
D10*
%TO.C,REF\u002A\u002A31*%
X178275000Y-189165000D03*
D11*
X178375000Y-194700000D03*
D12*
X178900000Y-190850000D03*
D11*
X179925000Y-194700000D03*
D10*
X180025000Y-189165000D03*
D12*
X178900000Y-193050000D03*
%TD*%
D10*
%TO.C,REF\u002A\u002A27*%
X226075000Y-141365000D03*
D11*
X226175000Y-146900000D03*
D12*
X226700000Y-143050000D03*
D11*
X227725000Y-146900000D03*
D10*
X227825000Y-141365000D03*
D12*
X226700000Y-145250000D03*
%TD*%
D10*
%TO.C,REF\u002A\u002A41*%
X178275000Y-284765000D03*
D11*
X178375000Y-290300000D03*
D12*
X178900000Y-286450000D03*
D11*
X179925000Y-290300000D03*
D10*
X180025000Y-284765000D03*
D12*
X178900000Y-288650000D03*
%TD*%
D10*
%TO.C,REF\u002A\u002A29*%
X321675000Y-141365000D03*
D11*
X321775000Y-146900000D03*
D12*
X322300000Y-143050000D03*
D11*
X323325000Y-146900000D03*
D10*
X323425000Y-141365000D03*
D12*
X322300000Y-145250000D03*
%TD*%
D16*
%TO.C,50 \u03A9*%
X61837500Y-306300000D03*
X64762500Y-306300000D03*
%TD*%
D10*
%TO.C,REF\u002A\u002A21*%
X178275000Y-93565000D03*
D11*
X178375000Y-99100000D03*
D12*
X178900000Y-95250000D03*
D11*
X179925000Y-99100000D03*
D10*
X180025000Y-93565000D03*
D12*
X178900000Y-97450000D03*
%TD*%
D17*
%TO.C,LEDs*%
X63000000Y-317400000D03*
D18*
X57975000Y-322425000D03*
X68025000Y-322425000D03*
X57975000Y-312375000D03*
X68025000Y-312375000D03*
%TD*%
D10*
%TO.C,REF\u002A\u002A42*%
X226075000Y-284765000D03*
D11*
X226175000Y-290300000D03*
D12*
X226700000Y-286450000D03*
D11*
X227725000Y-290300000D03*
D10*
X227825000Y-284765000D03*
D12*
X226700000Y-288650000D03*
%TD*%
D10*
%TO.C,REF\u002A\u002A35*%
X130475000Y-236965000D03*
D11*
X130575000Y-242500000D03*
D12*
X131100000Y-238650000D03*
D11*
X132125000Y-242500000D03*
D10*
X132225000Y-236965000D03*
D12*
X131100000Y-240850000D03*
%TD*%
D10*
%TO.C,REF\u002A\u002A39*%
X321675000Y-236965000D03*
D11*
X321775000Y-242500000D03*
D12*
X322300000Y-238650000D03*
D11*
X323325000Y-242500000D03*
D10*
X323425000Y-236965000D03*
D12*
X322300000Y-240850000D03*
%TD*%
D10*
%TO.C,REF\u002A\u002A33*%
X273875000Y-189165000D03*
D11*
X273975000Y-194700000D03*
D12*
X274500000Y-190850000D03*
D11*
X275525000Y-194700000D03*
D10*
X275625000Y-189165000D03*
D12*
X274500000Y-193050000D03*
%TD*%
M02*
