%TF.GenerationSoftware,KiCad,Pcbnew,8.0.2-1*%
%TF.CreationDate,2024-06-21T16:13:16-04:00*%
%TF.ProjectId,EvenLayers_3.0mm_SiPM,4576656e-4c61-4796-9572-735f332e306d,rev?*%
%TF.SameCoordinates,Original*%
%TF.FileFunction,Copper,L1,Top*%
%TF.FilePolarity,Positive*%
%FSLAX46Y46*%
G04 Gerber Fmt 4.6, Leading zero omitted, Abs format (unit mm)*
G04 Created by KiCad (PCBNEW 8.0.2-1) date 2024-06-21 16:13:16*
%MOMM*%
%LPD*%
G01*
G04 APERTURE LIST*
G04 Aperture macros list*
%AMRoundRect*
0 Rectangle with rounded corners*
0 $1 Rounding radius*
0 $2 $3 $4 $5 $6 $7 $8 $9 X,Y pos of 4 corners*
0 Add a 4 corners polygon primitive as box body*
4,1,4,$2,$3,$4,$5,$6,$7,$8,$9,$2,$3,0*
0 Add four circle primitives for the rounded corners*
1,1,$1+$1,$2,$3*
1,1,$1+$1,$4,$5*
1,1,$1+$1,$6,$7*
1,1,$1+$1,$8,$9*
0 Add four rect primitives between the rounded corners*
20,1,$1+$1,$2,$3,$4,$5,0*
20,1,$1+$1,$4,$5,$6,$7,0*
20,1,$1+$1,$6,$7,$8,$9,0*
20,1,$1+$1,$8,$9,$2,$3,0*%
G04 Aperture macros list end*
%TA.AperFunction,EtchedComponent*%
%ADD10C,0.200000*%
%TD*%
%TA.AperFunction,SMDPad,CuDef*%
%ADD11RoundRect,0.237500X-0.287500X-0.237500X0.287500X-0.237500X0.287500X0.237500X-0.287500X0.237500X0*%
%TD*%
%TA.AperFunction,SMDPad,CuDef*%
%ADD12RoundRect,0.225000X-0.225000X-0.250000X0.225000X-0.250000X0.225000X0.250000X-0.225000X0.250000X0*%
%TD*%
%TA.AperFunction,SMDPad,CuDef*%
%ADD13R,4.200000X1.000000*%
%TD*%
%TA.AperFunction,ComponentPad*%
%ADD14C,0.800000*%
%TD*%
%TA.AperFunction,SMDPad,CuDef*%
%ADD15R,1.200000X0.500000*%
%TD*%
%TA.AperFunction,ComponentPad*%
%ADD16C,1.348000*%
%TD*%
%TA.AperFunction,SMDPad,CuDef*%
%ADD17RoundRect,0.250000X-0.312500X-0.625000X0.312500X-0.625000X0.312500X0.625000X-0.312500X0.625000X0*%
%TD*%
%TA.AperFunction,ComponentPad*%
%ADD18R,3.500000X3.500000*%
%TD*%
%TA.AperFunction,ComponentPad*%
%ADD19C,4.000000*%
%TD*%
%TA.AperFunction,ViaPad*%
%ADD20C,0.800000*%
%TD*%
%TA.AperFunction,ViaPad*%
%ADD21C,0.600000*%
%TD*%
%TA.AperFunction,Conductor*%
%ADD22C,0.250000*%
%TD*%
%TA.AperFunction,Conductor*%
%ADD23C,0.200000*%
%TD*%
G04 APERTURE END LIST*
D10*
%TO.C,REF\u002A\u002A34*%
X319700000Y-191150000D02*
X320200000Y-190850000D01*
X319700000Y-192650000D02*
X322300000Y-193050000D01*
X320450000Y-189150000D02*
X321675000Y-189165000D01*
X321775000Y-194750000D02*
X320250000Y-194750000D01*
X322300000Y-190850000D02*
X325450000Y-190850000D01*
X323425000Y-189165000D02*
X324550000Y-189150000D01*
X324950000Y-193950000D02*
X323325000Y-194700000D01*
X325450000Y-190850000D02*
X324950000Y-193950000D01*
%TO.C,REF\u002A\u002A40*%
X128500000Y-286750000D02*
X129000000Y-286450000D01*
X128500000Y-288250000D02*
X131100000Y-288650000D01*
X129250000Y-284750000D02*
X130475000Y-284765000D01*
X130575000Y-290350000D02*
X129050000Y-290350000D01*
X131100000Y-286450000D02*
X134250000Y-286450000D01*
X132225000Y-284765000D02*
X133350000Y-284750000D01*
X133750000Y-289550000D02*
X132125000Y-290300000D01*
X134250000Y-286450000D02*
X133750000Y-289550000D01*
%TO.C,REF\u002A\u002A30*%
X128500000Y-191150000D02*
X129000000Y-190850000D01*
X128500000Y-192650000D02*
X131100000Y-193050000D01*
X129250000Y-189150000D02*
X130475000Y-189165000D01*
X130575000Y-194750000D02*
X129050000Y-194750000D01*
X131100000Y-190850000D02*
X134250000Y-190850000D01*
X132225000Y-189165000D02*
X133350000Y-189150000D01*
X133750000Y-193950000D02*
X132125000Y-194700000D01*
X134250000Y-190850000D02*
X133750000Y-193950000D01*
%TO.C,REF\u002A\u002A24*%
X319700000Y-95550000D02*
X320200000Y-95250000D01*
X319700000Y-97050000D02*
X322300000Y-97450000D01*
X320450000Y-93550000D02*
X321675000Y-93565000D01*
X321775000Y-99150000D02*
X320250000Y-99150000D01*
X322300000Y-95250000D02*
X325450000Y-95250000D01*
X323425000Y-93565000D02*
X324550000Y-93550000D01*
X324950000Y-98350000D02*
X323325000Y-99100000D01*
X325450000Y-95250000D02*
X324950000Y-98350000D01*
%TO.C,REF\u002A\u002A43*%
X271900000Y-286750000D02*
X272400000Y-286450000D01*
X271900000Y-288250000D02*
X274500000Y-288650000D01*
X272650000Y-284750000D02*
X273875000Y-284765000D01*
X273975000Y-290350000D02*
X272450000Y-290350000D01*
X274500000Y-286450000D02*
X277650000Y-286450000D01*
X275625000Y-284765000D02*
X276750000Y-284750000D01*
X277150000Y-289550000D02*
X275525000Y-290300000D01*
X277650000Y-286450000D02*
X277150000Y-289550000D01*
%TO.C,REF\u002A\u002A38*%
X271900000Y-238950000D02*
X272400000Y-238650000D01*
X271900000Y-240450000D02*
X274500000Y-240850000D01*
X272650000Y-236950000D02*
X273875000Y-236965000D01*
X273975000Y-242550000D02*
X272450000Y-242550000D01*
X274500000Y-238650000D02*
X277650000Y-238650000D01*
X275625000Y-236965000D02*
X276750000Y-236950000D01*
X277150000Y-241750000D02*
X275525000Y-242500000D01*
X277650000Y-238650000D02*
X277150000Y-241750000D01*
%TO.C,REF\u002A\u002A22*%
X224100000Y-95550000D02*
X224600000Y-95250000D01*
X224100000Y-97050000D02*
X226700000Y-97450000D01*
X224850000Y-93550000D02*
X226075000Y-93565000D01*
X226175000Y-99150000D02*
X224650000Y-99150000D01*
X226700000Y-95250000D02*
X229850000Y-95250000D01*
X227825000Y-93565000D02*
X228950000Y-93550000D01*
X229350000Y-98350000D02*
X227725000Y-99100000D01*
X229850000Y-95250000D02*
X229350000Y-98350000D01*
%TO.C,REF\u002A\u002A28*%
X271900000Y-143350000D02*
X272400000Y-143050000D01*
X271900000Y-144850000D02*
X274500000Y-145250000D01*
X272650000Y-141350000D02*
X273875000Y-141365000D01*
X273975000Y-146950000D02*
X272450000Y-146950000D01*
X274500000Y-143050000D02*
X277650000Y-143050000D01*
X275625000Y-141365000D02*
X276750000Y-141350000D01*
X277150000Y-146150000D02*
X275525000Y-146900000D01*
X277650000Y-143050000D02*
X277150000Y-146150000D01*
%TO.C,REF\u002A\u002A23*%
X271900000Y-95550000D02*
X272400000Y-95250000D01*
X271900000Y-97050000D02*
X274500000Y-97450000D01*
X272650000Y-93550000D02*
X273875000Y-93565000D01*
X273975000Y-99150000D02*
X272450000Y-99150000D01*
X274500000Y-95250000D02*
X277650000Y-95250000D01*
X275625000Y-93565000D02*
X276750000Y-93550000D01*
X277150000Y-98350000D02*
X275525000Y-99100000D01*
X277650000Y-95250000D02*
X277150000Y-98350000D01*
%TO.C,REF\u002A\u002A32*%
X224100000Y-191150000D02*
X224600000Y-190850000D01*
X224100000Y-192650000D02*
X226700000Y-193050000D01*
X224850000Y-189150000D02*
X226075000Y-189165000D01*
X226175000Y-194750000D02*
X224650000Y-194750000D01*
X226700000Y-190850000D02*
X229850000Y-190850000D01*
X227825000Y-189165000D02*
X228950000Y-189150000D01*
X229350000Y-193950000D02*
X227725000Y-194700000D01*
X229850000Y-190850000D02*
X229350000Y-193950000D01*
%TO.C,REF\u002A\u002A44*%
X319700000Y-286750000D02*
X320200000Y-286450000D01*
X319700000Y-288250000D02*
X322300000Y-288650000D01*
X320450000Y-284750000D02*
X321675000Y-284765000D01*
X321775000Y-290350000D02*
X320250000Y-290350000D01*
X322300000Y-286450000D02*
X325450000Y-286450000D01*
X323425000Y-284765000D02*
X324550000Y-284750000D01*
X324950000Y-289550000D02*
X323325000Y-290300000D01*
X325450000Y-286450000D02*
X324950000Y-289550000D01*
%TO.C,REF\u002A\u002A26*%
X176300000Y-143350000D02*
X176800000Y-143050000D01*
X176300000Y-144850000D02*
X178900000Y-145250000D01*
X177050000Y-141350000D02*
X178275000Y-141365000D01*
X178375000Y-146950000D02*
X176850000Y-146950000D01*
X178900000Y-143050000D02*
X182050000Y-143050000D01*
X180025000Y-141365000D02*
X181150000Y-141350000D01*
X181550000Y-146150000D02*
X179925000Y-146900000D01*
X182050000Y-143050000D02*
X181550000Y-146150000D01*
%TO.C,REF\u002A\u002A36*%
X176300000Y-238950000D02*
X176800000Y-238650000D01*
X176300000Y-240450000D02*
X178900000Y-240850000D01*
X177050000Y-236950000D02*
X178275000Y-236965000D01*
X178375000Y-242550000D02*
X176850000Y-242550000D01*
X178900000Y-238650000D02*
X182050000Y-238650000D01*
X180025000Y-236965000D02*
X181150000Y-236950000D01*
X181550000Y-241750000D02*
X179925000Y-242500000D01*
X182050000Y-238650000D02*
X181550000Y-241750000D01*
%TO.C,REF\u002A\u002A20*%
X128500000Y-95550000D02*
X129000000Y-95250000D01*
X128500000Y-97050000D02*
X131100000Y-97450000D01*
X129250000Y-93550000D02*
X130475000Y-93565000D01*
X130575000Y-99150000D02*
X129050000Y-99150000D01*
X131100000Y-95250000D02*
X134250000Y-95250000D01*
X132225000Y-93565000D02*
X133350000Y-93550000D01*
X133750000Y-98350000D02*
X132125000Y-99100000D01*
X134250000Y-95250000D02*
X133750000Y-98350000D01*
%TO.C,REF\u002A\u002A25*%
X128500000Y-143350000D02*
X129000000Y-143050000D01*
X128500000Y-144850000D02*
X131100000Y-145250000D01*
X129250000Y-141350000D02*
X130475000Y-141365000D01*
X130575000Y-146950000D02*
X129050000Y-146950000D01*
X131100000Y-143050000D02*
X134250000Y-143050000D01*
X132225000Y-141365000D02*
X133350000Y-141350000D01*
X133750000Y-146150000D02*
X132125000Y-146900000D01*
X134250000Y-143050000D02*
X133750000Y-146150000D01*
%TO.C,REF\u002A\u002A37*%
X224100000Y-238950000D02*
X224600000Y-238650000D01*
X224100000Y-240450000D02*
X226700000Y-240850000D01*
X224850000Y-236950000D02*
X226075000Y-236965000D01*
X226175000Y-242550000D02*
X224650000Y-242550000D01*
X226700000Y-238650000D02*
X229850000Y-238650000D01*
X227825000Y-236965000D02*
X228950000Y-236950000D01*
X229350000Y-241750000D02*
X227725000Y-242500000D01*
X229850000Y-238650000D02*
X229350000Y-241750000D01*
%TO.C,REF\u002A\u002A31*%
X176300000Y-191150000D02*
X176800000Y-190850000D01*
X176300000Y-192650000D02*
X178900000Y-193050000D01*
X177050000Y-189150000D02*
X178275000Y-189165000D01*
X178375000Y-194750000D02*
X176850000Y-194750000D01*
X178900000Y-190850000D02*
X182050000Y-190850000D01*
X180025000Y-189165000D02*
X181150000Y-189150000D01*
X181550000Y-193950000D02*
X179925000Y-194700000D01*
X182050000Y-190850000D02*
X181550000Y-193950000D01*
%TO.C,REF\u002A\u002A27*%
X224100000Y-143350000D02*
X224600000Y-143050000D01*
X224100000Y-144850000D02*
X226700000Y-145250000D01*
X224850000Y-141350000D02*
X226075000Y-141365000D01*
X226175000Y-146950000D02*
X224650000Y-146950000D01*
X226700000Y-143050000D02*
X229850000Y-143050000D01*
X227825000Y-141365000D02*
X228950000Y-141350000D01*
X229350000Y-146150000D02*
X227725000Y-146900000D01*
X229850000Y-143050000D02*
X229350000Y-146150000D01*
%TO.C,REF\u002A\u002A41*%
X176300000Y-286750000D02*
X176800000Y-286450000D01*
X176300000Y-288250000D02*
X178900000Y-288650000D01*
X177050000Y-284750000D02*
X178275000Y-284765000D01*
X178375000Y-290350000D02*
X176850000Y-290350000D01*
X178900000Y-286450000D02*
X182050000Y-286450000D01*
X180025000Y-284765000D02*
X181150000Y-284750000D01*
X181550000Y-289550000D02*
X179925000Y-290300000D01*
X182050000Y-286450000D02*
X181550000Y-289550000D01*
%TO.C,REF\u002A\u002A29*%
X319700000Y-143350000D02*
X320200000Y-143050000D01*
X319700000Y-144850000D02*
X322300000Y-145250000D01*
X320450000Y-141350000D02*
X321675000Y-141365000D01*
X321775000Y-146950000D02*
X320250000Y-146950000D01*
X322300000Y-143050000D02*
X325450000Y-143050000D01*
X323425000Y-141365000D02*
X324550000Y-141350000D01*
X324950000Y-146150000D02*
X323325000Y-146900000D01*
X325450000Y-143050000D02*
X324950000Y-146150000D01*
%TO.C,REF\u002A\u002A21*%
X176300000Y-95550000D02*
X176800000Y-95250000D01*
X176300000Y-97050000D02*
X178900000Y-97450000D01*
X177050000Y-93550000D02*
X178275000Y-93565000D01*
X178375000Y-99150000D02*
X176850000Y-99150000D01*
X178900000Y-95250000D02*
X182050000Y-95250000D01*
X180025000Y-93565000D02*
X181150000Y-93550000D01*
X181550000Y-98350000D02*
X179925000Y-99100000D01*
X182050000Y-95250000D02*
X181550000Y-98350000D01*
%TO.C,REF\u002A\u002A42*%
X224100000Y-286750000D02*
X224600000Y-286450000D01*
X224100000Y-288250000D02*
X226700000Y-288650000D01*
X224850000Y-284750000D02*
X226075000Y-284765000D01*
X226175000Y-290350000D02*
X224650000Y-290350000D01*
X226700000Y-286450000D02*
X229850000Y-286450000D01*
X227825000Y-284765000D02*
X228950000Y-284750000D01*
X229350000Y-289550000D02*
X227725000Y-290300000D01*
X229850000Y-286450000D02*
X229350000Y-289550000D01*
%TO.C,REF\u002A\u002A35*%
X128500000Y-238950000D02*
X129000000Y-238650000D01*
X128500000Y-240450000D02*
X131100000Y-240850000D01*
X129250000Y-236950000D02*
X130475000Y-236965000D01*
X130575000Y-242550000D02*
X129050000Y-242550000D01*
X131100000Y-238650000D02*
X134250000Y-238650000D01*
X132225000Y-236965000D02*
X133350000Y-236950000D01*
X133750000Y-241750000D02*
X132125000Y-242500000D01*
X134250000Y-238650000D02*
X133750000Y-241750000D01*
%TO.C,REF\u002A\u002A39*%
X319700000Y-238950000D02*
X320200000Y-238650000D01*
X319700000Y-240450000D02*
X322300000Y-240850000D01*
X320450000Y-236950000D02*
X321675000Y-236965000D01*
X321775000Y-242550000D02*
X320250000Y-242550000D01*
X322300000Y-238650000D02*
X325450000Y-238650000D01*
X323425000Y-236965000D02*
X324550000Y-236950000D01*
X324950000Y-241750000D02*
X323325000Y-242500000D01*
X325450000Y-238650000D02*
X324950000Y-241750000D01*
%TO.C,REF\u002A\u002A33*%
X271900000Y-191150000D02*
X272400000Y-190850000D01*
X271900000Y-192650000D02*
X274500000Y-193050000D01*
X272650000Y-189150000D02*
X273875000Y-189165000D01*
X273975000Y-194750000D02*
X272450000Y-194750000D01*
X274500000Y-190850000D02*
X277650000Y-190850000D01*
X275625000Y-189165000D02*
X276750000Y-189150000D01*
X277150000Y-193950000D02*
X275525000Y-194700000D01*
X277650000Y-190850000D02*
X277150000Y-193950000D01*
%TD*%
D11*
%TO.P,REF\u002A\u002A34,1*%
%TO.N,N/C*%
X321675000Y-189165000D03*
D12*
X321775000Y-194700000D03*
D13*
X322300000Y-190850000D03*
D12*
%TO.P,REF\u002A\u002A34,2*%
X323325000Y-194700000D03*
D11*
X323425000Y-189165000D03*
D13*
%TO.P,REF\u002A\u002A34,4*%
X322300000Y-193050000D03*
D14*
%TO.P,REF\u002A\u002A34,5*%
X320450000Y-189150000D03*
%TO.P,REF\u002A\u002A34,6*%
X324550000Y-189150000D03*
%TO.P,REF\u002A\u002A34,7*%
%TO.N,K14*%
X319700000Y-191150000D03*
%TO.P,REF\u002A\u002A34,8*%
%TO.N,A14*%
X319700000Y-192650000D03*
%TO.P,REF\u002A\u002A34,9*%
%TO.N,GND*%
X320250000Y-194750000D03*
%TD*%
D11*
%TO.P,REF\u002A\u002A40,1*%
%TO.N,N/C*%
X130475000Y-284765000D03*
D12*
X130575000Y-290300000D03*
D13*
X131100000Y-286450000D03*
D12*
%TO.P,REF\u002A\u002A40,2*%
X132125000Y-290300000D03*
D11*
X132225000Y-284765000D03*
D13*
%TO.P,REF\u002A\u002A40,4*%
X131100000Y-288650000D03*
D14*
%TO.P,REF\u002A\u002A40,5*%
X129250000Y-284750000D03*
%TO.P,REF\u002A\u002A40,6*%
X133350000Y-284750000D03*
%TO.P,REF\u002A\u002A40,7*%
%TO.N,K20*%
X128500000Y-286750000D03*
%TO.P,REF\u002A\u002A40,8*%
%TO.N,A20*%
X128500000Y-288250000D03*
%TO.P,REF\u002A\u002A40,9*%
%TO.N,GND*%
X129050000Y-290350000D03*
%TD*%
D11*
%TO.P,REF\u002A\u002A30,1*%
%TO.N,N/C*%
X130475000Y-189165000D03*
D12*
X130575000Y-194700000D03*
D13*
X131100000Y-190850000D03*
D12*
%TO.P,REF\u002A\u002A30,2*%
X132125000Y-194700000D03*
D11*
X132225000Y-189165000D03*
D13*
%TO.P,REF\u002A\u002A30,4*%
X131100000Y-193050000D03*
D14*
%TO.P,REF\u002A\u002A30,5*%
X129250000Y-189150000D03*
%TO.P,REF\u002A\u002A30,6*%
X133350000Y-189150000D03*
%TO.P,REF\u002A\u002A30,7*%
%TO.N,K10*%
X128500000Y-191150000D03*
%TO.P,REF\u002A\u002A30,8*%
%TO.N,A10*%
X128500000Y-192650000D03*
%TO.P,REF\u002A\u002A30,9*%
%TO.N,GND*%
X129050000Y-194750000D03*
%TD*%
D11*
%TO.P,REF\u002A\u002A24,1*%
%TO.N,N/C*%
X321675000Y-93565000D03*
D12*
X321775000Y-99100000D03*
D13*
X322300000Y-95250000D03*
D12*
%TO.P,REF\u002A\u002A24,2*%
X323325000Y-99100000D03*
D11*
X323425000Y-93565000D03*
D13*
%TO.P,REF\u002A\u002A24,4*%
X322300000Y-97450000D03*
D14*
%TO.P,REF\u002A\u002A24,5*%
X320450000Y-93550000D03*
%TO.P,REF\u002A\u002A24,6*%
X324550000Y-93550000D03*
%TO.P,REF\u002A\u002A24,7*%
%TO.N,K4*%
X319700000Y-95550000D03*
%TO.P,REF\u002A\u002A24,8*%
%TO.N,A4*%
X319700000Y-97050000D03*
%TO.P,REF\u002A\u002A24,9*%
%TO.N,GND*%
X320250000Y-99150000D03*
%TD*%
D15*
%TO.P,REF\u002A\u002A,01*%
%TO.N,A0*%
X58300000Y-133600000D03*
%TO.P,REF\u002A\u002A,02*%
%TO.N,K0*%
X61700000Y-133600000D03*
%TO.N,A1*%
X58300000Y-134400000D03*
%TO.P,REF\u002A\u002A,04*%
%TO.N,K1*%
X61700000Y-134400000D03*
%TO.P,REF\u002A\u002A,05*%
%TO.N,A2*%
X58300000Y-135200000D03*
%TO.P,REF\u002A\u002A,06*%
%TO.N,K2*%
X61700000Y-135200000D03*
%TO.P,REF\u002A\u002A,07*%
%TO.N,A3*%
X58300000Y-136000000D03*
%TO.P,REF\u002A\u002A,08*%
%TO.N,K3*%
X61700000Y-136000000D03*
%TO.P,REF\u002A\u002A,09*%
%TO.N,A4*%
X58300000Y-136800000D03*
%TO.P,REF\u002A\u002A,10*%
%TO.N,K4*%
X61700000Y-136800000D03*
%TO.P,REF\u002A\u002A,11*%
%TO.N,A5*%
X58300000Y-137600000D03*
%TO.P,REF\u002A\u002A,12*%
%TO.N,K5*%
X61700000Y-137600000D03*
%TO.P,REF\u002A\u002A,13*%
%TO.N,A6*%
X58300000Y-141600000D03*
%TO.P,REF\u002A\u002A,14*%
%TO.N,K6*%
X61700000Y-141600000D03*
%TO.P,REF\u002A\u002A,15*%
%TO.N,A7*%
X58300000Y-142400000D03*
%TO.P,REF\u002A\u002A,16*%
%TO.N,K7*%
X61700000Y-142400000D03*
%TO.P,REF\u002A\u002A,17*%
%TO.N,A8*%
X58300000Y-143200000D03*
%TO.P,REF\u002A\u002A,18*%
%TO.N,K8*%
X61700000Y-143200000D03*
%TO.P,REF\u002A\u002A,19*%
%TO.N,A9*%
X58300000Y-144000000D03*
%TO.P,REF\u002A\u002A,20*%
%TO.N,K9*%
X61700000Y-144000000D03*
%TO.P,REF\u002A\u002A,21*%
%TO.N,A10*%
X58300000Y-144800000D03*
%TO.P,REF\u002A\u002A,22*%
%TO.N,K10*%
X61700000Y-144800000D03*
%TO.P,REF\u002A\u002A,23*%
%TO.N,A11*%
X58300000Y-145600000D03*
%TO.P,REF\u002A\u002A,24*%
%TO.N,K11*%
X61700000Y-145600000D03*
%TO.P,REF\u002A\u002A,25*%
%TO.N,A12*%
X58300000Y-146400000D03*
%TO.P,REF\u002A\u002A,26*%
%TO.N,K12*%
X61700000Y-146400000D03*
D16*
%TO.P,REF\u002A\u002A,S1*%
%TO.N,N/C*%
X60000000Y-130505000D03*
%TO.P,REF\u002A\u002A,S2*%
X60000000Y-149495000D03*
%TD*%
D11*
%TO.P,REF\u002A\u002A43,1*%
%TO.N,N/C*%
X273875000Y-284765000D03*
D12*
X273975000Y-290300000D03*
D13*
X274500000Y-286450000D03*
D12*
%TO.P,REF\u002A\u002A43,2*%
X275525000Y-290300000D03*
D11*
X275625000Y-284765000D03*
D13*
%TO.P,REF\u002A\u002A43,4*%
X274500000Y-288650000D03*
D14*
%TO.P,REF\u002A\u002A43,5*%
X272650000Y-284750000D03*
%TO.P,REF\u002A\u002A43,6*%
X276750000Y-284750000D03*
%TO.P,REF\u002A\u002A43,7*%
%TO.N,K23*%
X271900000Y-286750000D03*
%TO.P,REF\u002A\u002A43,8*%
%TO.N,A23*%
X271900000Y-288250000D03*
%TO.P,REF\u002A\u002A43,9*%
%TO.N,GND*%
X272450000Y-290350000D03*
%TD*%
D11*
%TO.P,REF\u002A\u002A38,1*%
%TO.N,N/C*%
X273875000Y-236965000D03*
D12*
X273975000Y-242500000D03*
D13*
X274500000Y-238650000D03*
D12*
%TO.P,REF\u002A\u002A38,2*%
X275525000Y-242500000D03*
D11*
X275625000Y-236965000D03*
D13*
%TO.P,REF\u002A\u002A38,4*%
X274500000Y-240850000D03*
D14*
%TO.P,REF\u002A\u002A38,5*%
X272650000Y-236950000D03*
%TO.P,REF\u002A\u002A38,6*%
X276750000Y-236950000D03*
%TO.P,REF\u002A\u002A38,7*%
%TO.N,K18*%
X271900000Y-238950000D03*
%TO.P,REF\u002A\u002A38,8*%
%TO.N,A18*%
X271900000Y-240450000D03*
%TO.P,REF\u002A\u002A38,9*%
%TO.N,GND*%
X272450000Y-242550000D03*
%TD*%
D11*
%TO.P,REF\u002A\u002A22,1*%
%TO.N,N/C*%
X226075000Y-93565000D03*
D12*
X226175000Y-99100000D03*
D13*
X226700000Y-95250000D03*
D12*
%TO.P,REF\u002A\u002A22,2*%
X227725000Y-99100000D03*
D11*
X227825000Y-93565000D03*
D13*
%TO.P,REF\u002A\u002A22,4*%
X226700000Y-97450000D03*
D14*
%TO.P,REF\u002A\u002A22,5*%
X224850000Y-93550000D03*
%TO.P,REF\u002A\u002A22,6*%
X228950000Y-93550000D03*
%TO.P,REF\u002A\u002A22,7*%
%TO.N,K2*%
X224100000Y-95550000D03*
%TO.P,REF\u002A\u002A22,8*%
%TO.N,A2*%
X224100000Y-97050000D03*
%TO.P,REF\u002A\u002A22,9*%
%TO.N,GND*%
X224650000Y-99150000D03*
%TD*%
D15*
%TO.P,REF\u002A\u002A,01*%
%TO.N,A13*%
X58300000Y-213600000D03*
%TO.P,REF\u002A\u002A,02*%
%TO.N,K13*%
X61700000Y-213600000D03*
%TO.N,A14*%
X58300000Y-214400000D03*
%TO.P,REF\u002A\u002A,04*%
%TO.N,K14*%
X61700000Y-214400000D03*
%TO.P,REF\u002A\u002A,05*%
%TO.N,A15*%
X58300000Y-215200000D03*
%TO.P,REF\u002A\u002A,06*%
%TO.N,K15*%
X61700000Y-215200000D03*
%TO.P,REF\u002A\u002A,07*%
%TO.N,A16*%
X58300000Y-216000000D03*
%TO.P,REF\u002A\u002A,08*%
%TO.N,K16*%
X61700000Y-216000000D03*
%TO.P,REF\u002A\u002A,09*%
%TO.N,A17*%
X58300000Y-216800000D03*
%TO.P,REF\u002A\u002A,10*%
%TO.N,K17*%
X61700000Y-216800000D03*
%TO.P,REF\u002A\u002A,11*%
%TO.N,A18*%
X58300000Y-217600000D03*
%TO.P,REF\u002A\u002A,12*%
%TO.N,K18*%
X61700000Y-217600000D03*
%TO.P,REF\u002A\u002A,13*%
%TO.N,A19*%
X58300000Y-221600000D03*
%TO.P,REF\u002A\u002A,14*%
%TO.N,K19*%
X61700000Y-221600000D03*
%TO.P,REF\u002A\u002A,15*%
%TO.N,A20*%
X58300000Y-222400000D03*
%TO.P,REF\u002A\u002A,16*%
%TO.N,K20*%
X61700000Y-222400000D03*
%TO.P,REF\u002A\u002A,17*%
%TO.N,A21*%
X58300000Y-223200000D03*
%TO.P,REF\u002A\u002A,18*%
%TO.N,K21*%
X61700000Y-223200000D03*
%TO.P,REF\u002A\u002A,19*%
%TO.N,A22*%
X58300000Y-224000000D03*
%TO.P,REF\u002A\u002A,20*%
%TO.N,K22*%
X61700000Y-224000000D03*
%TO.P,REF\u002A\u002A,21*%
%TO.N,A23*%
X58300000Y-224800000D03*
%TO.P,REF\u002A\u002A,22*%
%TO.N,K23*%
X61700000Y-224800000D03*
%TO.P,REF\u002A\u002A,23*%
%TO.N,A24*%
X58300000Y-225600000D03*
%TO.P,REF\u002A\u002A,24*%
%TO.N,K24*%
X61700000Y-225600000D03*
%TO.P,REF\u002A\u002A,25*%
%TO.N,GND*%
X58300000Y-226400000D03*
%TO.P,REF\u002A\u002A,26*%
X61700000Y-226400000D03*
D16*
%TO.P,REF\u002A\u002A,S1*%
%TO.N,N/C*%
X60000000Y-210505000D03*
%TO.P,REF\u002A\u002A,S2*%
X60000000Y-229495000D03*
%TD*%
D11*
%TO.P,REF\u002A\u002A28,1*%
%TO.N,N/C*%
X273875000Y-141365000D03*
D12*
X273975000Y-146900000D03*
D13*
X274500000Y-143050000D03*
D12*
%TO.P,REF\u002A\u002A28,2*%
X275525000Y-146900000D03*
D11*
X275625000Y-141365000D03*
D13*
%TO.P,REF\u002A\u002A28,4*%
X274500000Y-145250000D03*
D14*
%TO.P,REF\u002A\u002A28,5*%
X272650000Y-141350000D03*
%TO.P,REF\u002A\u002A28,6*%
X276750000Y-141350000D03*
%TO.P,REF\u002A\u002A28,7*%
%TO.N,K8*%
X271900000Y-143350000D03*
%TO.P,REF\u002A\u002A28,8*%
%TO.N,A8*%
X271900000Y-144850000D03*
%TO.P,REF\u002A\u002A28,9*%
%TO.N,GND*%
X272450000Y-146950000D03*
%TD*%
D11*
%TO.P,REF\u002A\u002A23,1*%
%TO.N,N/C*%
X273875000Y-93565000D03*
D12*
X273975000Y-99100000D03*
D13*
X274500000Y-95250000D03*
D12*
%TO.P,REF\u002A\u002A23,2*%
X275525000Y-99100000D03*
D11*
X275625000Y-93565000D03*
D13*
%TO.P,REF\u002A\u002A23,4*%
X274500000Y-97450000D03*
D14*
%TO.P,REF\u002A\u002A23,5*%
X272650000Y-93550000D03*
%TO.P,REF\u002A\u002A23,6*%
X276750000Y-93550000D03*
%TO.P,REF\u002A\u002A23,7*%
%TO.N,K3*%
X271900000Y-95550000D03*
%TO.P,REF\u002A\u002A23,8*%
%TO.N,A3*%
X271900000Y-97050000D03*
%TO.P,REF\u002A\u002A23,9*%
%TO.N,GND*%
X272450000Y-99150000D03*
%TD*%
D11*
%TO.P,REF\u002A\u002A32,1*%
%TO.N,N/C*%
X226075000Y-189165000D03*
D12*
X226175000Y-194700000D03*
D13*
X226700000Y-190850000D03*
D12*
%TO.P,REF\u002A\u002A32,2*%
X227725000Y-194700000D03*
D11*
X227825000Y-189165000D03*
D13*
%TO.P,REF\u002A\u002A32,4*%
X226700000Y-193050000D03*
D14*
%TO.P,REF\u002A\u002A32,5*%
X224850000Y-189150000D03*
%TO.P,REF\u002A\u002A32,6*%
X228950000Y-189150000D03*
%TO.P,REF\u002A\u002A32,7*%
%TO.N,K12*%
X224100000Y-191150000D03*
%TO.P,REF\u002A\u002A32,8*%
%TO.N,A12*%
X224100000Y-192650000D03*
%TO.P,REF\u002A\u002A32,9*%
%TO.N,GND*%
X224650000Y-194750000D03*
%TD*%
D11*
%TO.P,REF\u002A\u002A44,1*%
%TO.N,N/C*%
X321675000Y-284765000D03*
D12*
X321775000Y-290300000D03*
D13*
X322300000Y-286450000D03*
D12*
%TO.P,REF\u002A\u002A44,2*%
X323325000Y-290300000D03*
D11*
X323425000Y-284765000D03*
D13*
%TO.P,REF\u002A\u002A44,4*%
X322300000Y-288650000D03*
D14*
%TO.P,REF\u002A\u002A44,5*%
X320450000Y-284750000D03*
%TO.P,REF\u002A\u002A44,6*%
X324550000Y-284750000D03*
%TO.P,REF\u002A\u002A44,7*%
%TO.N,K24*%
X319700000Y-286750000D03*
%TO.P,REF\u002A\u002A44,8*%
%TO.N,A24*%
X319700000Y-288250000D03*
%TO.P,REF\u002A\u002A44,9*%
%TO.N,GND*%
X320250000Y-290350000D03*
%TD*%
D11*
%TO.P,REF\u002A\u002A26,1*%
%TO.N,N/C*%
X178275000Y-141365000D03*
D12*
X178375000Y-146900000D03*
D13*
X178900000Y-143050000D03*
D12*
%TO.P,REF\u002A\u002A26,2*%
X179925000Y-146900000D03*
D11*
X180025000Y-141365000D03*
D13*
%TO.P,REF\u002A\u002A26,4*%
X178900000Y-145250000D03*
D14*
%TO.P,REF\u002A\u002A26,5*%
X177050000Y-141350000D03*
%TO.P,REF\u002A\u002A26,6*%
X181150000Y-141350000D03*
%TO.P,REF\u002A\u002A26,7*%
%TO.N,K6*%
X176300000Y-143350000D03*
%TO.P,REF\u002A\u002A26,8*%
%TO.N,A6*%
X176300000Y-144850000D03*
%TO.P,REF\u002A\u002A26,9*%
%TO.N,GND*%
X176850000Y-146950000D03*
%TD*%
D11*
%TO.P,REF\u002A\u002A36,1*%
%TO.N,N/C*%
X178275000Y-236965000D03*
D12*
X178375000Y-242500000D03*
D13*
X178900000Y-238650000D03*
D12*
%TO.P,REF\u002A\u002A36,2*%
X179925000Y-242500000D03*
D11*
X180025000Y-236965000D03*
D13*
%TO.P,REF\u002A\u002A36,4*%
X178900000Y-240850000D03*
D14*
%TO.P,REF\u002A\u002A36,5*%
X177050000Y-236950000D03*
%TO.P,REF\u002A\u002A36,6*%
X181150000Y-236950000D03*
%TO.P,REF\u002A\u002A36,7*%
%TO.N,K16*%
X176300000Y-238950000D03*
%TO.P,REF\u002A\u002A36,8*%
%TO.N,A16*%
X176300000Y-240450000D03*
%TO.P,REF\u002A\u002A36,9*%
%TO.N,GND*%
X176850000Y-242550000D03*
%TD*%
D11*
%TO.P,REF\u002A\u002A20,1*%
%TO.N,N/C*%
X130475000Y-93565000D03*
D12*
X130575000Y-99100000D03*
D13*
X131100000Y-95250000D03*
D12*
%TO.P,REF\u002A\u002A20,2*%
X132125000Y-99100000D03*
D11*
X132225000Y-93565000D03*
D13*
%TO.P,REF\u002A\u002A20,4*%
X131100000Y-97450000D03*
D14*
%TO.P,REF\u002A\u002A20,5*%
%TO.N,GND*%
X129250000Y-93550000D03*
%TO.P,REF\u002A\u002A20,6*%
%TO.N,N/C*%
X133350000Y-93550000D03*
%TO.P,REF\u002A\u002A20,7*%
%TO.N,K0*%
X128500000Y-95550000D03*
%TO.P,REF\u002A\u002A20,8*%
%TO.N,A0*%
X128500000Y-97050000D03*
%TO.P,REF\u002A\u002A20,9*%
%TO.N,GND*%
X129050000Y-99150000D03*
%TD*%
D11*
%TO.P,REF\u002A\u002A25,1*%
%TO.N,N/C*%
X130475000Y-141365000D03*
D12*
X130575000Y-146900000D03*
D13*
X131100000Y-143050000D03*
D12*
%TO.P,REF\u002A\u002A25,2*%
X132125000Y-146900000D03*
D11*
X132225000Y-141365000D03*
D13*
%TO.P,REF\u002A\u002A25,4*%
X131100000Y-145250000D03*
D14*
%TO.P,REF\u002A\u002A25,5*%
X129250000Y-141350000D03*
%TO.P,REF\u002A\u002A25,6*%
X133350000Y-141350000D03*
%TO.P,REF\u002A\u002A25,7*%
%TO.N,K5*%
X128500000Y-143350000D03*
%TO.P,REF\u002A\u002A25,8*%
%TO.N,A5*%
X128500000Y-144850000D03*
%TO.P,REF\u002A\u002A25,9*%
%TO.N,GND*%
X129050000Y-146950000D03*
%TD*%
D11*
%TO.P,REF\u002A\u002A37,1*%
%TO.N,N/C*%
X226075000Y-236965000D03*
D12*
X226175000Y-242500000D03*
D13*
X226700000Y-238650000D03*
D12*
%TO.P,REF\u002A\u002A37,2*%
X227725000Y-242500000D03*
D11*
X227825000Y-236965000D03*
D13*
%TO.P,REF\u002A\u002A37,4*%
X226700000Y-240850000D03*
D14*
%TO.P,REF\u002A\u002A37,5*%
X224850000Y-236950000D03*
%TO.P,REF\u002A\u002A37,6*%
X228950000Y-236950000D03*
%TO.P,REF\u002A\u002A37,7*%
%TO.N,K17*%
X224100000Y-238950000D03*
%TO.P,REF\u002A\u002A37,8*%
%TO.N,A17*%
X224100000Y-240450000D03*
%TO.P,REF\u002A\u002A37,9*%
%TO.N,GND*%
X224650000Y-242550000D03*
%TD*%
D11*
%TO.P,REF\u002A\u002A31,1*%
%TO.N,N/C*%
X178275000Y-189165000D03*
D12*
X178375000Y-194700000D03*
D13*
X178900000Y-190850000D03*
D12*
%TO.P,REF\u002A\u002A31,2*%
X179925000Y-194700000D03*
D11*
X180025000Y-189165000D03*
D13*
%TO.P,REF\u002A\u002A31,4*%
X178900000Y-193050000D03*
D14*
%TO.P,REF\u002A\u002A31,5*%
X177050000Y-189150000D03*
%TO.P,REF\u002A\u002A31,6*%
X181150000Y-189150000D03*
%TO.P,REF\u002A\u002A31,7*%
%TO.N,K11*%
X176300000Y-191150000D03*
%TO.P,REF\u002A\u002A31,8*%
%TO.N,A11*%
X176300000Y-192650000D03*
%TO.P,REF\u002A\u002A31,9*%
%TO.N,GND*%
X176850000Y-194750000D03*
%TD*%
D11*
%TO.P,REF\u002A\u002A27,1*%
%TO.N,N/C*%
X226075000Y-141365000D03*
D12*
X226175000Y-146900000D03*
D13*
X226700000Y-143050000D03*
D12*
%TO.P,REF\u002A\u002A27,2*%
X227725000Y-146900000D03*
D11*
X227825000Y-141365000D03*
D13*
%TO.P,REF\u002A\u002A27,4*%
X226700000Y-145250000D03*
D14*
%TO.P,REF\u002A\u002A27,5*%
X224850000Y-141350000D03*
%TO.P,REF\u002A\u002A27,6*%
X228950000Y-141350000D03*
%TO.P,REF\u002A\u002A27,7*%
%TO.N,K7*%
X224100000Y-143350000D03*
%TO.P,REF\u002A\u002A27,8*%
%TO.N,A7*%
X224100000Y-144850000D03*
%TO.P,REF\u002A\u002A27,9*%
%TO.N,GND*%
X224650000Y-146950000D03*
%TD*%
D11*
%TO.P,REF\u002A\u002A41,1*%
%TO.N,N/C*%
X178275000Y-284765000D03*
D12*
X178375000Y-290300000D03*
D13*
X178900000Y-286450000D03*
D12*
%TO.P,REF\u002A\u002A41,2*%
X179925000Y-290300000D03*
D11*
X180025000Y-284765000D03*
D13*
%TO.P,REF\u002A\u002A41,4*%
X178900000Y-288650000D03*
D14*
%TO.P,REF\u002A\u002A41,5*%
X177050000Y-284750000D03*
%TO.P,REF\u002A\u002A41,6*%
X181150000Y-284750000D03*
%TO.P,REF\u002A\u002A41,7*%
%TO.N,K21*%
X176300000Y-286750000D03*
%TO.P,REF\u002A\u002A41,8*%
%TO.N,A21*%
X176300000Y-288250000D03*
%TO.P,REF\u002A\u002A41,9*%
%TO.N,GND*%
X176850000Y-290350000D03*
%TD*%
D11*
%TO.P,REF\u002A\u002A29,1*%
%TO.N,N/C*%
X321675000Y-141365000D03*
D12*
X321775000Y-146900000D03*
D13*
X322300000Y-143050000D03*
D12*
%TO.P,REF\u002A\u002A29,2*%
X323325000Y-146900000D03*
D11*
X323425000Y-141365000D03*
D13*
%TO.P,REF\u002A\u002A29,4*%
X322300000Y-145250000D03*
D14*
%TO.P,REF\u002A\u002A29,5*%
X320450000Y-141350000D03*
%TO.P,REF\u002A\u002A29,6*%
X324550000Y-141350000D03*
%TO.P,REF\u002A\u002A29,7*%
%TO.N,K9*%
X319700000Y-143350000D03*
%TO.P,REF\u002A\u002A29,8*%
%TO.N,A9*%
X319700000Y-144850000D03*
%TO.P,REF\u002A\u002A29,9*%
%TO.N,GND*%
X320250000Y-146950000D03*
%TD*%
D17*
%TO.P,50 \u03A9,1*%
%TO.N,N/C*%
X61837500Y-306300000D03*
%TO.P,50 \u03A9,2*%
X64762500Y-306300000D03*
%TD*%
D11*
%TO.P,REF\u002A\u002A21,1*%
%TO.N,N/C*%
X178275000Y-93565000D03*
D12*
X178375000Y-99100000D03*
D13*
X178900000Y-95250000D03*
D12*
%TO.P,REF\u002A\u002A21,2*%
X179925000Y-99100000D03*
D11*
X180025000Y-93565000D03*
D13*
%TO.P,REF\u002A\u002A21,4*%
X178900000Y-97450000D03*
D14*
%TO.P,REF\u002A\u002A21,5*%
X177050000Y-93550000D03*
%TO.P,REF\u002A\u002A21,6*%
X181150000Y-93550000D03*
%TO.P,REF\u002A\u002A21,7*%
%TO.N,K1*%
X176300000Y-95550000D03*
%TO.P,REF\u002A\u002A21,8*%
%TO.N,A1*%
X176300000Y-97050000D03*
%TO.P,REF\u002A\u002A21,9*%
%TO.N,GND*%
X176850000Y-99150000D03*
%TD*%
D18*
%TO.P,LEDs,1*%
%TO.N,N/C*%
X63000000Y-317400000D03*
D19*
%TO.P,LEDs,2*%
%TO.N,GND*%
X57975000Y-322425000D03*
X68025000Y-322425000D03*
X57975000Y-312375000D03*
X68025000Y-312375000D03*
%TD*%
D11*
%TO.P,REF\u002A\u002A42,1*%
%TO.N,N/C*%
X226075000Y-284765000D03*
D12*
X226175000Y-290300000D03*
D13*
X226700000Y-286450000D03*
D12*
%TO.P,REF\u002A\u002A42,2*%
X227725000Y-290300000D03*
D11*
X227825000Y-284765000D03*
D13*
%TO.P,REF\u002A\u002A42,4*%
X226700000Y-288650000D03*
D14*
%TO.P,REF\u002A\u002A42,5*%
X224850000Y-284750000D03*
%TO.P,REF\u002A\u002A42,6*%
X228950000Y-284750000D03*
%TO.P,REF\u002A\u002A42,7*%
%TO.N,K22*%
X224100000Y-286750000D03*
%TO.P,REF\u002A\u002A42,8*%
%TO.N,A22*%
X224100000Y-288250000D03*
%TO.P,REF\u002A\u002A42,9*%
%TO.N,GND*%
X224650000Y-290350000D03*
%TD*%
D11*
%TO.P,REF\u002A\u002A35,1*%
%TO.N,N/C*%
X130475000Y-236965000D03*
D12*
X130575000Y-242500000D03*
D13*
X131100000Y-238650000D03*
D12*
%TO.P,REF\u002A\u002A35,2*%
X132125000Y-242500000D03*
D11*
X132225000Y-236965000D03*
D13*
%TO.P,REF\u002A\u002A35,4*%
X131100000Y-240850000D03*
D14*
%TO.P,REF\u002A\u002A35,5*%
X129250000Y-236950000D03*
%TO.P,REF\u002A\u002A35,6*%
X133350000Y-236950000D03*
%TO.P,REF\u002A\u002A35,7*%
%TO.N,K15*%
X128500000Y-238950000D03*
%TO.P,REF\u002A\u002A35,8*%
%TO.N,A15*%
X128500000Y-240450000D03*
%TO.P,REF\u002A\u002A35,9*%
%TO.N,GND*%
X129050000Y-242550000D03*
%TD*%
D11*
%TO.P,REF\u002A\u002A39,1*%
%TO.N,N/C*%
X321675000Y-236965000D03*
D12*
X321775000Y-242500000D03*
D13*
X322300000Y-238650000D03*
D12*
%TO.P,REF\u002A\u002A39,2*%
X323325000Y-242500000D03*
D11*
X323425000Y-236965000D03*
D13*
%TO.P,REF\u002A\u002A39,4*%
X322300000Y-240850000D03*
D14*
%TO.P,REF\u002A\u002A39,5*%
X320450000Y-236950000D03*
%TO.P,REF\u002A\u002A39,6*%
X324550000Y-236950000D03*
%TO.P,REF\u002A\u002A39,7*%
%TO.N,K19*%
X319700000Y-238950000D03*
%TO.P,REF\u002A\u002A39,8*%
%TO.N,A19*%
X319700000Y-240450000D03*
%TO.P,REF\u002A\u002A39,9*%
%TO.N,GND*%
X320250000Y-242550000D03*
%TD*%
D11*
%TO.P,REF\u002A\u002A33,1*%
%TO.N,N/C*%
X273875000Y-189165000D03*
D12*
X273975000Y-194700000D03*
D13*
X274500000Y-190850000D03*
D12*
%TO.P,REF\u002A\u002A33,2*%
X275525000Y-194700000D03*
D11*
X275625000Y-189165000D03*
D13*
%TO.P,REF\u002A\u002A33,4*%
X274500000Y-193050000D03*
D14*
%TO.P,REF\u002A\u002A33,5*%
X272650000Y-189150000D03*
%TO.P,REF\u002A\u002A33,6*%
X276750000Y-189150000D03*
%TO.P,REF\u002A\u002A33,7*%
%TO.N,K13*%
X271900000Y-191150000D03*
%TO.P,REF\u002A\u002A33,8*%
%TO.N,A13*%
X271900000Y-192650000D03*
%TO.P,REF\u002A\u002A33,9*%
%TO.N,GND*%
X272450000Y-194750000D03*
%TD*%
D20*
%TO.N,*%
X72500000Y-310900000D03*
%TO.N,GND*%
X72600000Y-322000000D03*
D21*
%TO.N,K0*%
X70200000Y-129600000D03*
%TO.N,A0*%
X57250000Y-133600000D03*
%TO.N,K1*%
X68124265Y-133124265D03*
%TO.N,A1*%
X57250000Y-134400000D03*
%TO.N,K2*%
X69600000Y-133600000D03*
%TO.N,A2*%
X57250000Y-135200000D03*
%TO.N,K3*%
X72600000Y-133200000D03*
%TO.N,A3*%
X57250000Y-136000000D03*
%TO.N,K4*%
X71800000Y-135600000D03*
%TO.N,A4*%
X57250000Y-136800000D03*
%TO.N,K5*%
X67800000Y-137600000D03*
%TO.N,A5*%
X57250000Y-137600000D03*
%TO.N,K6*%
X67400000Y-141600000D03*
%TO.N,A6*%
X57250000Y-141600000D03*
%TO.N,K7*%
X68200000Y-142800000D03*
%TO.N,A7*%
X57250000Y-142400000D03*
%TO.N,K8*%
X70200000Y-145200000D03*
%TO.N,A8*%
X57250000Y-143200000D03*
%TO.N,K9*%
X68200000Y-145600000D03*
%TO.N,A9*%
X57250000Y-144000000D03*
%TO.N,A10*%
X57250000Y-144800000D03*
%TO.N,K10*%
X67600000Y-147000000D03*
%TO.N,A11*%
X57250000Y-145600000D03*
%TO.N,K11*%
X68200000Y-148400000D03*
%TO.N,A12*%
X57250000Y-146400000D03*
%TO.N,K12*%
X67600000Y-154600000D03*
%TO.N,K14*%
X72000000Y-211600000D03*
%TO.N,A14*%
X57200000Y-214400000D03*
%TO.N,K13*%
X72600000Y-206400000D03*
%TO.N,A13*%
X57200000Y-213600000D03*
%TO.N,K15*%
X68400000Y-215200000D03*
%TO.N,A15*%
X57200000Y-215200000D03*
%TO.N,K16*%
X71200000Y-223600000D03*
%TO.N,A16*%
X57200000Y-216000000D03*
%TO.N,K17*%
X74400000Y-229600000D03*
%TO.N,A17*%
X57200000Y-216800000D03*
%TO.N,K18*%
X74400000Y-231200000D03*
%TO.N,A18*%
X57200000Y-217600000D03*
%TO.N,K19*%
X66400000Y-225200000D03*
%TO.N,A19*%
X57200000Y-221600000D03*
%TO.N,K20*%
X70600000Y-232600000D03*
%TO.N,A20*%
X57200000Y-222400000D03*
%TO.N,K21*%
X69400000Y-232000000D03*
%TO.N,A21*%
X57200000Y-223200000D03*
%TO.N,K22*%
X68200000Y-241000000D03*
%TO.N,A22*%
X57200000Y-224000000D03*
%TO.N,K23*%
X66000000Y-240200000D03*
%TO.N,A23*%
X57200000Y-224800000D03*
%TO.N,K24*%
X63400000Y-236400000D03*
%TO.N,A24*%
X57200000Y-225600000D03*
%TD*%
D22*
%TO.N,*%
X71662500Y-306300000D02*
X64762500Y-306300000D01*
X72500000Y-307137500D02*
X71662500Y-306300000D01*
X63000000Y-317400000D02*
X63000000Y-307462500D01*
X72500000Y-310900000D02*
X72500000Y-307137500D01*
X63000000Y-307462500D02*
X61837500Y-306300000D01*
D23*
%TO.N,GND*%
X61700000Y-232900000D02*
X61700000Y-226400000D01*
X57975000Y-312375000D02*
X57975000Y-239425000D01*
X57975000Y-322425000D02*
X57975000Y-312375000D01*
X57975000Y-239425000D02*
X62800000Y-234600000D01*
X62800000Y-234600000D02*
X62800000Y-234000000D01*
D22*
X72600000Y-322000000D02*
X72175000Y-322425000D01*
D23*
X58300000Y-226400000D02*
X61700000Y-226400000D01*
X68025000Y-322425000D02*
X57975000Y-322425000D01*
X68025000Y-312375000D02*
X68025000Y-322425000D01*
D22*
X72175000Y-322425000D02*
X68025000Y-322425000D01*
D23*
X62800000Y-234000000D02*
X61700000Y-232900000D01*
%TO.N,K0*%
X66200000Y-133600000D02*
X70200000Y-129600000D01*
X61700000Y-133600000D02*
X66200000Y-133600000D01*
%TO.N,A0*%
X58350000Y-133600000D02*
X57250000Y-133600000D01*
%TO.N,K1*%
X66848530Y-134400000D02*
X61700000Y-134400000D01*
X68124265Y-133124265D02*
X66848530Y-134400000D01*
%TO.N,A1*%
X58350000Y-134400000D02*
X57250000Y-134400000D01*
%TO.N,K2*%
X68000000Y-134200000D02*
X67000000Y-135200000D01*
X69000000Y-134200000D02*
X68000000Y-134200000D01*
X69600000Y-133600000D02*
X69000000Y-134200000D01*
X67000000Y-135200000D02*
X61700000Y-135200000D01*
%TO.N,A2*%
X58350000Y-135200000D02*
X57250000Y-135200000D01*
%TO.N,K3*%
X72600000Y-133200000D02*
X71200000Y-133200000D01*
X71200000Y-133200000D02*
X68400000Y-136000000D01*
X68400000Y-136000000D02*
X61700000Y-136000000D01*
%TO.N,A3*%
X58350000Y-136000000D02*
X57250000Y-136000000D01*
%TO.N,K4*%
X68600000Y-136800000D02*
X61700000Y-136800000D01*
X71800000Y-135600000D02*
X69800000Y-135600000D01*
X69800000Y-135600000D02*
X68600000Y-136800000D01*
%TO.N,A4*%
X58350000Y-136800000D02*
X57250000Y-136800000D01*
%TO.N,K5*%
X61700000Y-137600000D02*
X67800000Y-137600000D01*
%TO.N,A5*%
X58350000Y-137600000D02*
X57250000Y-137600000D01*
%TO.N,K6*%
X67400000Y-141600000D02*
X61700000Y-141600000D01*
%TO.N,A6*%
X58350000Y-141600000D02*
X57250000Y-141600000D01*
%TO.N,K7*%
X67800000Y-142400000D02*
X61700000Y-142400000D01*
X68200000Y-142800000D02*
X67800000Y-142400000D01*
%TO.N,A7*%
X58350000Y-142400000D02*
X57250000Y-142400000D01*
%TO.N,K8*%
X61700000Y-143200000D02*
X61900000Y-143400000D01*
X68400000Y-143400000D02*
X70200000Y-145200000D01*
X61900000Y-143400000D02*
X68400000Y-143400000D01*
%TO.N,A8*%
X58350000Y-143200000D02*
X57250000Y-143200000D01*
%TO.N,K9*%
X68200000Y-145600000D02*
X66600000Y-144000000D01*
X66600000Y-144000000D02*
X61700000Y-144000000D01*
%TO.N,A9*%
X58350000Y-144000000D02*
X57250000Y-144000000D01*
%TO.N,A10*%
X58350000Y-144800000D02*
X57250000Y-144800000D01*
%TO.N,K10*%
X65200000Y-144800000D02*
X61700000Y-144800000D01*
X67400000Y-147000000D02*
X65200000Y-144800000D01*
X67600000Y-147000000D02*
X67400000Y-147000000D01*
%TO.N,A11*%
X58350000Y-145600000D02*
X57250000Y-145600000D01*
%TO.N,K11*%
X67000000Y-148400000D02*
X64200000Y-145600000D01*
X68200000Y-148400000D02*
X67000000Y-148400000D01*
X64200000Y-145600000D02*
X61700000Y-145600000D01*
%TO.N,A12*%
X58350000Y-146400000D02*
X57250000Y-146400000D01*
%TO.N,K12*%
X67600000Y-150600000D02*
X63400000Y-146400000D01*
X67600000Y-154600000D02*
X67600000Y-150600000D01*
X63400000Y-146400000D02*
X61700000Y-146400000D01*
%TO.N,K14*%
X72000000Y-211600000D02*
X69200000Y-214400000D01*
X69200000Y-214400000D02*
X61700000Y-214400000D01*
%TO.N,A14*%
X58300000Y-214400000D02*
X57200000Y-214400000D01*
%TO.N,K13*%
X72600000Y-206400000D02*
X65400000Y-213600000D01*
X65400000Y-213600000D02*
X61700000Y-213600000D01*
%TO.N,A13*%
X58300000Y-213600000D02*
X57200000Y-213600000D01*
%TO.N,K15*%
X61700000Y-215200000D02*
X68400000Y-215200000D01*
%TO.N,A15*%
X58300000Y-215200000D02*
X57200000Y-215200000D01*
%TO.N,K16*%
X71200000Y-223600000D02*
X63600000Y-216000000D01*
X63600000Y-216000000D02*
X61700000Y-216000000D01*
%TO.N,A16*%
X58300000Y-216000000D02*
X57200000Y-216000000D01*
%TO.N,K17*%
X62500000Y-216800000D02*
X61700000Y-216800000D01*
X74400000Y-229600000D02*
X74400000Y-228700000D01*
X74400000Y-228700000D02*
X62500000Y-216800000D01*
%TO.N,A17*%
X58300000Y-216800000D02*
X57200000Y-216800000D01*
%TO.N,K18*%
X74400000Y-231200000D02*
X61700000Y-218500000D01*
X61700000Y-218500000D02*
X61700000Y-217600000D01*
%TO.N,A18*%
X58300000Y-217600000D02*
X57200000Y-217600000D01*
%TO.N,K19*%
X66400000Y-225200000D02*
X62800000Y-221600000D01*
X62800000Y-221600000D02*
X61700000Y-221600000D01*
%TO.N,A19*%
X58300000Y-221600000D02*
X57200000Y-221600000D01*
%TO.N,K20*%
X70600000Y-230500000D02*
X62500000Y-222400000D01*
X62500000Y-222400000D02*
X61700000Y-222400000D01*
X70600000Y-232600000D02*
X70600000Y-230500000D01*
%TO.N,A20*%
X58300000Y-222400000D02*
X57200000Y-222400000D01*
%TO.N,K21*%
X69400000Y-230100000D02*
X62500000Y-223200000D01*
X62500000Y-223200000D02*
X61700000Y-223200000D01*
X69400000Y-232000000D02*
X69400000Y-230100000D01*
%TO.N,A21*%
X58300000Y-223200000D02*
X57200000Y-223200000D01*
%TO.N,K22*%
X68200000Y-241000000D02*
X68200000Y-229700000D01*
X68200000Y-229700000D02*
X62500000Y-224000000D01*
X62500000Y-224000000D02*
X61700000Y-224000000D01*
%TO.N,A22*%
X58300000Y-224000000D02*
X57200000Y-224000000D01*
%TO.N,K23*%
X66000000Y-228300000D02*
X66000000Y-240200000D01*
X62500000Y-224800000D02*
X66000000Y-228300000D01*
X61700000Y-224800000D02*
X62500000Y-224800000D01*
%TO.N,A23*%
X58300000Y-224800000D02*
X57200000Y-224800000D01*
%TO.N,K24*%
X62400000Y-225600000D02*
X63400000Y-226600000D01*
X63400000Y-226600000D02*
X63400000Y-236400000D01*
X61700000Y-225600000D02*
X62400000Y-225600000D01*
%TO.N,A24*%
X58300000Y-225600000D02*
X57200000Y-225600000D01*
%TD*%
M02*
