%TF.GenerationSoftware,KiCad,Pcbnew,8.0.2-1*%
%TF.CreationDate,2024-07-15T16:51:55-04:00*%
%TF.ProjectId,Untitled,556e7469-746c-4656-942e-6b696361645f,rev?*%
%TF.SameCoordinates,Original*%
%TF.FileFunction,Legend,Top*%
%TF.FilePolarity,Positive*%
%FSLAX46Y46*%
G04 Gerber Fmt 4.6, Leading zero omitted, Abs format (unit mm)*
G04 Created by KiCad (PCBNEW 8.0.2-1) date 2024-07-15 16:51:55*
%MOMM*%
%LPD*%
G01*
G04 APERTURE LIST*
%ADD10C,0.150000*%
%ADD11C,0.120000*%
%ADD12C,0.200000*%
G04 APERTURE END LIST*
D10*
X98500588Y-63302438D02*
X98405350Y-63254819D01*
X98405350Y-63254819D02*
X98262493Y-63254819D01*
X98262493Y-63254819D02*
X98119636Y-63302438D01*
X98119636Y-63302438D02*
X98024398Y-63397676D01*
X98024398Y-63397676D02*
X97976779Y-63492914D01*
X97976779Y-63492914D02*
X97929160Y-63683390D01*
X97929160Y-63683390D02*
X97929160Y-63826247D01*
X97929160Y-63826247D02*
X97976779Y-64016723D01*
X97976779Y-64016723D02*
X98024398Y-64111961D01*
X98024398Y-64111961D02*
X98119636Y-64207200D01*
X98119636Y-64207200D02*
X98262493Y-64254819D01*
X98262493Y-64254819D02*
X98357731Y-64254819D01*
X98357731Y-64254819D02*
X98500588Y-64207200D01*
X98500588Y-64207200D02*
X98548207Y-64159580D01*
X98548207Y-64159580D02*
X98548207Y-63826247D01*
X98548207Y-63826247D02*
X98357731Y-63826247D01*
X98976779Y-64254819D02*
X98976779Y-63254819D01*
X98976779Y-63254819D02*
X99548207Y-64254819D01*
X99548207Y-64254819D02*
X99548207Y-63254819D01*
X100024398Y-64254819D02*
X100024398Y-63254819D01*
X100024398Y-63254819D02*
X100262493Y-63254819D01*
X100262493Y-63254819D02*
X100405350Y-63302438D01*
X100405350Y-63302438D02*
X100500588Y-63397676D01*
X100500588Y-63397676D02*
X100548207Y-63492914D01*
X100548207Y-63492914D02*
X100595826Y-63683390D01*
X100595826Y-63683390D02*
X100595826Y-63826247D01*
X100595826Y-63826247D02*
X100548207Y-64016723D01*
X100548207Y-64016723D02*
X100500588Y-64111961D01*
X100500588Y-64111961D02*
X100405350Y-64207200D01*
X100405350Y-64207200D02*
X100262493Y-64254819D01*
X100262493Y-64254819D02*
X100024398Y-64254819D01*
D11*
%TO.C,REF\u002A\u002A*%
X96065000Y-58260000D02*
X97365000Y-58260000D01*
X96665000Y-59360000D02*
X96665000Y-56360000D01*
X99815000Y-61435000D02*
X99815000Y-54585000D01*
X99815000Y-61435000D02*
X107165000Y-61435000D01*
X102040000Y-50760000D02*
X105040000Y-50760000D01*
X102080000Y-52990000D02*
X102080000Y-54460000D01*
X102080000Y-54460000D02*
X104540000Y-54460000D01*
X103140000Y-51360000D02*
X103140000Y-50060000D01*
X103599420Y-61750000D02*
X103880580Y-61750000D01*
X103599420Y-62770000D02*
X103880580Y-62770000D01*
X104540000Y-52990000D02*
X102080000Y-52990000D01*
X107165000Y-54585000D02*
X99815000Y-54585000D01*
X107165000Y-54585000D02*
X107165000Y-61435000D01*
X100740000Y-55010000D02*
X106740000Y-55010000D01*
X106740000Y-61010000D01*
X100740000Y-61010000D01*
X100740000Y-55010000D01*
X108340000Y-57385000D02*
X107115000Y-57385000D01*
X107115000Y-56610000D01*
X108340000Y-56610000D01*
X108340000Y-57385000D01*
G36*
X108340000Y-57385000D02*
G01*
X107115000Y-57385000D01*
X107115000Y-56610000D01*
X108340000Y-56610000D01*
X108340000Y-57385000D01*
G37*
X108340000Y-58610000D02*
X107115000Y-58610000D01*
X107115000Y-59410000D01*
X108340000Y-59410000D01*
X108340000Y-58610000D01*
G36*
X108340000Y-58610000D02*
G01*
X107115000Y-58610000D01*
X107115000Y-59410000D01*
X108340000Y-59410000D01*
X108340000Y-58610000D01*
G37*
X109740000Y-58010000D02*
G75*
G02*
X97740000Y-58010000I-6000000J0D01*
G01*
X97740000Y-58010000D02*
G75*
G02*
X109740000Y-58010000I6000000J0D01*
G01*
X96665000Y-58260000D02*
X96065000Y-57260000D01*
X97265000Y-57260000D01*
X96665000Y-58260000D01*
G36*
X96665000Y-58260000D02*
G01*
X96065000Y-57260000D01*
X97265000Y-57260000D01*
X96665000Y-58260000D01*
G37*
X104140000Y-51360000D02*
X103140000Y-50760000D01*
X104140000Y-50160000D01*
X104140000Y-51360000D01*
G36*
X104140000Y-51360000D02*
G01*
X103140000Y-50760000D01*
X104140000Y-50160000D01*
X104140000Y-51360000D01*
G37*
X108490000Y-61560000D02*
X107840000Y-62310000D01*
X107290000Y-62760000D01*
X106690000Y-63160000D01*
X105890000Y-63560000D01*
X105290000Y-63710000D01*
X105290000Y-61460000D01*
X107240000Y-61510000D01*
X107240000Y-60610000D01*
X108390000Y-60610000D01*
X108490000Y-61560000D01*
G36*
X108490000Y-61560000D02*
G01*
X107840000Y-62310000D01*
X107290000Y-62760000D01*
X106690000Y-63160000D01*
X105890000Y-63560000D01*
X105290000Y-63710000D01*
X105290000Y-61460000D01*
X107240000Y-61510000D01*
X107240000Y-60610000D01*
X108390000Y-60610000D01*
X108490000Y-61560000D01*
G37*
X99790000Y-54610000D02*
X99790000Y-61510000D01*
X99740000Y-62360000D01*
X99090000Y-61660000D01*
X98390000Y-60610000D01*
X97890000Y-59060000D01*
X97790000Y-58010000D01*
X97890000Y-56960000D01*
X98240000Y-55710000D01*
X98790000Y-54660000D01*
X99440000Y-53910000D01*
X99790000Y-54610000D01*
G36*
X99790000Y-54610000D02*
G01*
X99790000Y-61510000D01*
X99740000Y-62360000D01*
X99090000Y-61660000D01*
X98390000Y-60610000D01*
X97890000Y-59060000D01*
X97790000Y-58010000D01*
X97890000Y-56960000D01*
X98240000Y-55710000D01*
X98790000Y-54660000D01*
X99440000Y-53910000D01*
X99790000Y-54610000D01*
G37*
X102190000Y-61460000D02*
X102190000Y-63060000D01*
X105290000Y-63060000D01*
X105340000Y-63760000D01*
X104740000Y-63860000D01*
X104290000Y-63910000D01*
X103140000Y-63910000D01*
X102040000Y-63710000D01*
X100890000Y-63260000D01*
X99790000Y-62510000D01*
X99815000Y-61435000D01*
X102190000Y-61460000D01*
G36*
X102190000Y-61460000D02*
G01*
X102190000Y-63060000D01*
X105290000Y-63060000D01*
X105340000Y-63760000D01*
X104740000Y-63860000D01*
X104290000Y-63910000D01*
X103140000Y-63910000D01*
X102040000Y-63710000D01*
X100890000Y-63260000D01*
X99790000Y-62510000D01*
X99815000Y-61435000D01*
X102190000Y-61460000D01*
G37*
X107990000Y-53860000D02*
X108690000Y-54760000D01*
X109040000Y-55360000D01*
X109390000Y-56160000D01*
X109590000Y-57010000D01*
X109690000Y-57960000D01*
X109590000Y-59060000D01*
X109240000Y-60260000D01*
X108640000Y-61360000D01*
X108490000Y-61560000D01*
X108390000Y-60610000D01*
X108340000Y-55410000D01*
X107140000Y-55410000D01*
X107140000Y-54460000D01*
X107090000Y-53160000D01*
X107990000Y-53860000D01*
G36*
X107990000Y-53860000D02*
G01*
X108690000Y-54760000D01*
X109040000Y-55360000D01*
X109390000Y-56160000D01*
X109590000Y-57010000D01*
X109690000Y-57960000D01*
X109590000Y-59060000D01*
X109240000Y-60260000D01*
X108640000Y-61360000D01*
X108490000Y-61560000D01*
X108390000Y-60610000D01*
X108340000Y-55410000D01*
X107140000Y-55410000D01*
X107140000Y-54460000D01*
X107090000Y-53160000D01*
X107990000Y-53860000D01*
G37*
D12*
X105340000Y-52260000D02*
X106240000Y-52610000D01*
X106990000Y-53010000D01*
X107140000Y-54460000D01*
X105540000Y-54460000D01*
X105540000Y-52810000D01*
X102090000Y-52810000D01*
X102090000Y-52910000D01*
X102040000Y-54510000D01*
X99840000Y-54560000D01*
X99490000Y-53860000D01*
X99640000Y-53660000D01*
X100640000Y-52910000D01*
X101790000Y-52360000D01*
X103090000Y-52110000D01*
X104240000Y-52060000D01*
X105340000Y-52260000D01*
G36*
X105340000Y-52260000D02*
G01*
X106240000Y-52610000D01*
X106990000Y-53010000D01*
X107140000Y-54460000D01*
X105540000Y-54460000D01*
X105540000Y-52810000D01*
X102090000Y-52810000D01*
X102090000Y-52910000D01*
X102040000Y-54510000D01*
X99840000Y-54560000D01*
X99490000Y-53860000D01*
X99640000Y-53660000D01*
X100640000Y-52910000D01*
X101790000Y-52360000D01*
X103090000Y-52110000D01*
X104240000Y-52060000D01*
X105340000Y-52260000D01*
G37*
D11*
X108340000Y-56610000D02*
X107440000Y-56610000D01*
X107440000Y-56510000D01*
X107740000Y-56210000D01*
X108040000Y-56510000D01*
X108240000Y-56310000D01*
X107940000Y-56010000D01*
X108240000Y-55710000D01*
X108040000Y-55510000D01*
X107740000Y-55810000D01*
X107440000Y-55510000D01*
X107240000Y-55710000D01*
X107540000Y-56010000D01*
X107240000Y-56310000D01*
X107390000Y-56460000D01*
X107415000Y-56610000D01*
X107140000Y-56610000D01*
X107140000Y-55410000D01*
X108340000Y-55410000D01*
X108340000Y-56610000D01*
G36*
X108340000Y-56610000D02*
G01*
X107440000Y-56610000D01*
X107440000Y-56510000D01*
X107740000Y-56210000D01*
X108040000Y-56510000D01*
X108240000Y-56310000D01*
X107940000Y-56010000D01*
X108240000Y-55710000D01*
X108040000Y-55510000D01*
X107740000Y-55810000D01*
X107440000Y-55510000D01*
X107240000Y-55710000D01*
X107540000Y-56010000D01*
X107240000Y-56310000D01*
X107390000Y-56460000D01*
X107415000Y-56610000D01*
X107140000Y-56610000D01*
X107140000Y-55410000D01*
X108340000Y-55410000D01*
X108340000Y-56610000D01*
G37*
X108340000Y-58610000D02*
X107440000Y-58610000D01*
X107440000Y-58510000D01*
X107740000Y-58210000D01*
X108040000Y-58510000D01*
X108240000Y-58310000D01*
X107940000Y-58010000D01*
X108240000Y-57710000D01*
X108040000Y-57510000D01*
X107740000Y-57810000D01*
X107440000Y-57510000D01*
X107240000Y-57710000D01*
X107540000Y-58010000D01*
X107240000Y-58310000D01*
X107390000Y-58460000D01*
X107415000Y-58610000D01*
X107140000Y-58610000D01*
X107140000Y-57410000D01*
X108340000Y-57410000D01*
X108340000Y-58610000D01*
G36*
X108340000Y-58610000D02*
G01*
X107440000Y-58610000D01*
X107440000Y-58510000D01*
X107740000Y-58210000D01*
X108040000Y-58510000D01*
X108240000Y-58310000D01*
X107940000Y-58010000D01*
X108240000Y-57710000D01*
X108040000Y-57510000D01*
X107740000Y-57810000D01*
X107440000Y-57510000D01*
X107240000Y-57710000D01*
X107540000Y-58010000D01*
X107240000Y-58310000D01*
X107390000Y-58460000D01*
X107415000Y-58610000D01*
X107140000Y-58610000D01*
X107140000Y-57410000D01*
X108340000Y-57410000D01*
X108340000Y-58610000D01*
G37*
X108340000Y-60610000D02*
X107440000Y-60610000D01*
X107440000Y-60510000D01*
X107740000Y-60210000D01*
X108040000Y-60510000D01*
X108240000Y-60310000D01*
X107940000Y-60010000D01*
X108240000Y-59710000D01*
X108040000Y-59510000D01*
X107740000Y-59810000D01*
X107440000Y-59510000D01*
X107240000Y-59710000D01*
X107540000Y-60010000D01*
X107240000Y-60310000D01*
X107390000Y-60460000D01*
X107415000Y-60610000D01*
X107140000Y-60610000D01*
X107140000Y-59410000D01*
X108340000Y-59410000D01*
X108340000Y-60610000D01*
G36*
X108340000Y-60610000D02*
G01*
X107440000Y-60610000D01*
X107440000Y-60510000D01*
X107740000Y-60210000D01*
X108040000Y-60510000D01*
X108240000Y-60310000D01*
X107940000Y-60010000D01*
X108240000Y-59710000D01*
X108040000Y-59510000D01*
X107740000Y-59810000D01*
X107440000Y-59510000D01*
X107240000Y-59710000D01*
X107540000Y-60010000D01*
X107240000Y-60310000D01*
X107390000Y-60460000D01*
X107415000Y-60610000D01*
X107140000Y-60610000D01*
X107140000Y-59410000D01*
X108340000Y-59410000D01*
X108340000Y-60610000D01*
G37*
%TD*%
M02*
