%TF.GenerationSoftware,KiCad,Pcbnew,8.0.2-1*%
%TF.CreationDate,2024-08-19T13:09:19-04:00*%
%TF.ProjectId,Untitled,556e7469-746c-4656-942e-6b696361645f,rev?*%
%TF.SameCoordinates,Original*%
%TF.FileFunction,Copper,L2,Bot*%
%TF.FilePolarity,Positive*%
%FSLAX46Y46*%
G04 Gerber Fmt 4.6, Leading zero omitted, Abs format (unit mm)*
G04 Created by KiCad (PCBNEW 8.0.2-1) date 2024-08-19 13:09:19*
%MOMM*%
%LPD*%
G01*
G04 APERTURE LIST*
G04 Aperture macros list*
%AMRoundRect*
0 Rectangle with rounded corners*
0 $1 Rounding radius*
0 $2 $3 $4 $5 $6 $7 $8 $9 X,Y pos of 4 corners*
0 Add a 4 corners polygon primitive as box body*
4,1,4,$2,$3,$4,$5,$6,$7,$8,$9,$2,$3,0*
0 Add four circle primitives for the rounded corners*
1,1,$1+$1,$2,$3*
1,1,$1+$1,$4,$5*
1,1,$1+$1,$6,$7*
1,1,$1+$1,$8,$9*
0 Add four rect primitives between the rounded corners*
20,1,$1+$1,$2,$3,$4,$5,0*
20,1,$1+$1,$4,$5,$6,$7,0*
20,1,$1+$1,$6,$7,$8,$9,0*
20,1,$1+$1,$8,$9,$2,$3,0*%
%AMHorizOval*
0 Thick line with rounded ends*
0 $1 width*
0 $2 $3 position (X,Y) of the first rounded end (center of the circle)*
0 $4 $5 position (X,Y) of the second rounded end (center of the circle)*
0 Add line between two ends*
20,1,$1,$2,$3,$4,$5,0*
0 Add two circle primitives to create the rounded ends*
1,1,$1,$2,$3*
1,1,$1,$4,$5*%
G04 Aperture macros list end*
%TA.AperFunction,ComponentPad*%
%ADD10C,0.800000*%
%TD*%
%TA.AperFunction,SMDPad,CuDef*%
%ADD11RoundRect,0.087500X0.087500X0.337500X-0.087500X0.337500X-0.087500X-0.337500X0.087500X-0.337500X0*%
%TD*%
%TA.AperFunction,ComponentPad*%
%ADD12RoundRect,0.250000X-0.327868X0.882115X-0.927868X-0.157115X0.327868X-0.882115X0.927868X0.157115X0*%
%TD*%
%TA.AperFunction,ComponentPad*%
%ADD13HorizOval,1.700000X-0.108253X0.062500X0.108253X-0.062500X0*%
%TD*%
%TA.AperFunction,ComponentPad*%
%ADD14R,1.397000X1.397000*%
%TD*%
%TA.AperFunction,ComponentPad*%
%ADD15C,1.397000*%
%TD*%
%TA.AperFunction,SMDPad,CuDef*%
%ADD16RoundRect,0.250000X-0.385016X0.583133X-0.697516X0.041867X0.385016X-0.583133X0.697516X-0.041867X0*%
%TD*%
%TA.AperFunction,ComponentPad*%
%ADD17RoundRect,0.250000X0.949519X-0.144615X0.349519X0.894615X-0.949519X0.144615X-0.349519X-0.894615X0*%
%TD*%
%TA.AperFunction,ComponentPad*%
%ADD18HorizOval,1.700000X0.129904X0.075000X-0.129904X-0.075000X0*%
%TD*%
%TA.AperFunction,Conductor*%
%ADD19C,0.200000*%
%TD*%
%TA.AperFunction,Conductor*%
%ADD20C,0.250000*%
%TD*%
G04 APERTURE END LIST*
D10*
%TO.P,REF\u002A\u002A,5*%
%TO.N,N/C*%
X101640000Y-53710000D03*
%TO.P,REF\u002A\u002A,6*%
X105740000Y-53710000D03*
%TO.P,REF\u002A\u002A,7*%
X98940000Y-56710000D03*
%TO.P,REF\u002A\u002A,8*%
X98940000Y-59310000D03*
%TO.P,REF\u002A\u002A,9*%
X101165000Y-62735000D03*
%TD*%
D11*
%TO.P,REF\u002A\u002A,1*%
%TO.N,N/C*%
X104350000Y-59100000D03*
%TO.P,REF\u002A\u002A,2*%
X103700000Y-59100000D03*
%TO.P,REF\u002A\u002A,3*%
X103050000Y-59100000D03*
%TO.P,REF\u002A\u002A,4*%
X103050000Y-56900000D03*
%TO.P,REF\u002A\u002A,5*%
X104350000Y-56900000D03*
%TD*%
D12*
%TO.P,REF\u002A\u002A,1*%
%TO.N,N/C*%
X90600000Y-47800000D03*
D13*
%TO.P,REF\u002A\u002A,2*%
X89350000Y-49965064D03*
%TO.P,REF\u002A\u002A,3*%
X88100000Y-52130127D03*
%TD*%
D14*
%TO.P,REF\u002A\u002A,1*%
%TO.N,N/C*%
X106187500Y-75250100D03*
D15*
%TO.P,REF\u002A\u002A,2*%
X103647500Y-75250100D03*
%TO.P,REF\u002A\u002A,3*%
X101107500Y-75250100D03*
%TD*%
D16*
%TO.P,REF\u002A\u002A,1*%
%TO.N,N/C*%
X118931250Y-59933438D03*
%TO.P,REF\u002A\u002A,2*%
X117468750Y-62466562D03*
%TD*%
D17*
%TO.P,REF\u002A\u002A,1*%
%TO.N,N/C*%
X118879664Y-51220032D03*
D18*
%TO.P,REF\u002A\u002A,2*%
X117629664Y-49054968D03*
%TD*%
D19*
%TO.N,*%
X100790000Y-63110000D02*
X98600000Y-63110000D01*
X118455000Y-59457188D02*
X118455000Y-54345000D01*
X93000000Y-57600000D02*
X93000000Y-55000000D01*
X104350000Y-61650000D02*
X103200000Y-62800000D01*
X101820000Y-65220000D02*
X101820000Y-68620000D01*
X88100000Y-54100000D02*
X88100000Y-52130127D01*
X94700000Y-60700000D02*
X88100000Y-54100000D01*
X102950000Y-58050000D02*
X103600000Y-57400000D01*
X87000000Y-51030127D02*
X87000000Y-50000000D01*
X101107500Y-69332500D02*
X101820000Y-68620000D01*
X116200000Y-52090000D02*
X116200000Y-50200000D01*
D20*
X100250000Y-55400000D02*
X104600000Y-55400000D01*
X98940000Y-56710000D02*
X100250000Y-55400000D01*
D19*
X100090000Y-64600000D02*
X101200000Y-64600000D01*
X94600000Y-57800000D02*
X94600000Y-51800000D01*
X103600000Y-56400000D02*
X103100000Y-55900000D01*
X97200000Y-56000000D02*
X97200000Y-57600000D01*
X104350000Y-59100000D02*
X104350000Y-61650000D01*
D20*
X111545032Y-49054968D02*
X111054968Y-49054968D01*
D19*
X90053380Y-47253380D02*
X89927611Y-47253380D01*
X97110000Y-63110000D02*
X94700000Y-60700000D01*
X87000000Y-50000000D02*
X88600000Y-48400000D01*
X103600000Y-57400000D02*
X103600000Y-56400000D01*
X102600000Y-64600000D02*
X103200000Y-64000000D01*
X106000000Y-54800000D02*
X98400000Y-54800000D01*
D20*
X111545032Y-49054968D02*
X117629664Y-49054968D01*
D19*
X101200000Y-64600000D02*
X101820000Y-65220000D01*
X89350000Y-51350000D02*
X89350000Y-49965064D01*
X110600000Y-52200000D02*
X116000000Y-57600000D01*
X99600000Y-62400000D02*
X97800000Y-62400000D01*
X113400000Y-61200000D02*
X116400000Y-64200000D01*
D20*
X103647500Y-69952500D02*
X103647500Y-75250100D01*
D19*
X94600000Y-51800000D02*
X90053380Y-47253380D01*
X103700000Y-59100000D02*
X104350000Y-59100000D01*
D20*
X101640000Y-52160000D02*
X104600000Y-49200000D01*
D19*
X116400000Y-64200000D02*
X119400000Y-64200000D01*
X95000000Y-61000000D02*
X94700000Y-60700000D01*
D20*
X111054968Y-49054968D02*
X109200000Y-47200000D01*
D19*
X100800000Y-57100000D02*
X100800000Y-59600000D01*
X88800000Y-47600000D02*
X88800000Y-46800000D01*
D20*
X106600000Y-57400000D02*
X106600000Y-67000000D01*
D19*
X109800000Y-58600000D02*
X106000000Y-54800000D01*
X113400000Y-60400000D02*
X113400000Y-61200000D01*
X108600000Y-55600000D02*
X113400000Y-60400000D01*
X91000000Y-44600000D02*
X106600000Y-44600000D01*
X98400000Y-54800000D02*
X97200000Y-56000000D01*
X105740000Y-53710000D02*
X107630000Y-55600000D01*
X88838020Y-49453084D02*
X89350000Y-49965064D01*
X116000000Y-60997812D02*
X117468750Y-62466562D01*
X103100000Y-55900000D02*
X102000000Y-55900000D01*
X97800000Y-62400000D02*
X93000000Y-57600000D01*
X118879664Y-52279664D02*
X118879664Y-51220032D01*
X117345032Y-49054968D02*
X117629664Y-49054968D01*
X93000000Y-55000000D02*
X89350000Y-51350000D01*
X106187500Y-70212500D02*
X109800000Y-66600000D01*
D20*
X106600000Y-67000000D02*
X103647500Y-69952500D01*
D19*
X104350000Y-59100000D02*
X104350000Y-56900000D01*
X88600000Y-48400000D02*
X88600000Y-47800000D01*
X103050000Y-56900000D02*
X103050000Y-56950000D01*
X116200000Y-50200000D02*
X117345032Y-49054968D01*
X101107500Y-75250100D02*
X101107500Y-69332500D01*
X106187500Y-75250100D02*
X106187500Y-70212500D01*
X88800000Y-46800000D02*
X87700000Y-47900000D01*
D20*
X105200000Y-49200000D02*
X108200000Y-52200000D01*
D19*
X101500000Y-58500000D02*
X101500000Y-60500000D01*
X101200000Y-64600000D02*
X102600000Y-64600000D01*
D20*
X104600000Y-49200000D02*
X105200000Y-49200000D01*
D19*
X102000000Y-55900000D02*
X100800000Y-57100000D01*
D20*
X104600000Y-55400000D02*
X106600000Y-57400000D01*
D19*
X98230000Y-58600000D02*
X98200000Y-58600000D01*
X118455000Y-54345000D02*
X116200000Y-52090000D01*
X88100000Y-52130127D02*
X87000000Y-51030127D01*
X98600000Y-63110000D02*
X97110000Y-63110000D01*
X121800000Y-61800000D02*
X121800000Y-55200000D01*
X101500000Y-60500000D02*
X99600000Y-62400000D01*
X103200000Y-62800000D02*
X103200000Y-64000000D01*
X98800000Y-61600000D02*
X98400000Y-61600000D01*
X98200000Y-58600000D02*
X97200000Y-57600000D01*
X103050000Y-56950000D02*
X101500000Y-58500000D01*
D20*
X101640000Y-53710000D02*
X101640000Y-52160000D01*
D19*
X116000000Y-57600000D02*
X116000000Y-60997812D01*
D20*
X108200000Y-52200000D02*
X110600000Y-52200000D01*
D19*
X118931250Y-59933438D02*
X118455000Y-59457188D01*
X88600000Y-47800000D02*
X88800000Y-47600000D01*
X102950000Y-59000000D02*
X102950000Y-58050000D01*
X109800000Y-66600000D02*
X109800000Y-58600000D01*
X98600000Y-63110000D02*
X100090000Y-64600000D01*
X121800000Y-55200000D02*
X118879664Y-52279664D01*
X107630000Y-55600000D02*
X108600000Y-55600000D01*
X119400000Y-64200000D02*
X121800000Y-61800000D01*
X98230000Y-58600000D02*
X98940000Y-59310000D01*
X118455000Y-51644696D02*
X118879664Y-51220032D01*
X100800000Y-59600000D02*
X98800000Y-61600000D01*
X88657611Y-49453084D02*
X88838020Y-49453084D01*
X106600000Y-44600000D02*
X109200000Y-47200000D01*
X98400000Y-61600000D02*
X94600000Y-57800000D01*
X87700000Y-47900000D02*
X91000000Y-44600000D01*
X101165000Y-62735000D02*
X100790000Y-63110000D01*
%TD*%
M02*
