%TF.GenerationSoftware,KiCad,Pcbnew,(6.0.8-1)-1*%
%TF.CreationDate,2022-10-31T21:03:20-04:00*%
%TF.ProjectId,Untitled,556e7469-746c-4656-942e-6b696361645f,rev?*%
%TF.SameCoordinates,Original*%
%TF.FileFunction,Legend,Bot*%
%TF.FilePolarity,Positive*%
%FSLAX46Y46*%
G04 Gerber Fmt 4.6, Leading zero omitted, Abs format (unit mm)*
G04 Created by KiCad (PCBNEW (6.0.8-1)-1) date 2022-10-31 21:03:20*
%MOMM*%
%LPD*%
G01*
G04 APERTURE LIST*
%ADD10C,0.150000*%
%ADD11C,0.120000*%
G04 APERTURE END LIST*
D10*
%TO.C,REF\u002A\u002A*%
X59702480Y-46219166D02*
X59226290Y-45885833D01*
X59702480Y-45647738D02*
X58702480Y-45647738D01*
X58702480Y-46028690D01*
X58750100Y-46123928D01*
X58797719Y-46171547D01*
X58892957Y-46219166D01*
X59035814Y-46219166D01*
X59131052Y-46171547D01*
X59178671Y-46123928D01*
X59226290Y-46028690D01*
X59226290Y-45647738D01*
X59178671Y-46647738D02*
X59178671Y-46981071D01*
X59702480Y-47123928D02*
X59702480Y-46647738D01*
X58702480Y-46647738D01*
X58702480Y-47123928D01*
X59178671Y-47885833D02*
X59178671Y-47552500D01*
X59702480Y-47552500D02*
X58702480Y-47552500D01*
X58702480Y-48028690D01*
X58702480Y-48552500D02*
X58940576Y-48552500D01*
X58845338Y-48314404D02*
X58940576Y-48552500D01*
X58845338Y-48790595D01*
X59131052Y-48409642D02*
X58940576Y-48552500D01*
X59131052Y-48695357D01*
X58702480Y-49314404D02*
X58940576Y-49314404D01*
X58845338Y-49076309D02*
X58940576Y-49314404D01*
X58845338Y-49552500D01*
X59131052Y-49171547D02*
X58940576Y-49314404D01*
X59131052Y-49457261D01*
X59607242Y-39147738D02*
X59654861Y-39100119D01*
X59702480Y-38957261D01*
X59702480Y-38862023D01*
X59654861Y-38719166D01*
X59559623Y-38623928D01*
X59464385Y-38576309D01*
X59273909Y-38528690D01*
X59131052Y-38528690D01*
X58940576Y-38576309D01*
X58845338Y-38623928D01*
X58750100Y-38719166D01*
X58702480Y-38862023D01*
X58702480Y-38957261D01*
X58750100Y-39100119D01*
X58797719Y-39147738D01*
X58702480Y-39766785D02*
X58702480Y-39957261D01*
X58750100Y-40052500D01*
X58845338Y-40147738D01*
X59035814Y-40195357D01*
X59369147Y-40195357D01*
X59559623Y-40147738D01*
X59654861Y-40052500D01*
X59702480Y-39957261D01*
X59702480Y-39766785D01*
X59654861Y-39671547D01*
X59559623Y-39576309D01*
X59369147Y-39528690D01*
X59035814Y-39528690D01*
X58845338Y-39576309D01*
X58750100Y-39671547D01*
X58702480Y-39766785D01*
X59702480Y-40623928D02*
X58702480Y-40623928D01*
X59702480Y-41195357D01*
X58702480Y-41195357D01*
X59702480Y-41671547D02*
X58702480Y-41671547D01*
X59702480Y-42242976D01*
X58702480Y-42242976D01*
X59797719Y-42481071D02*
X59797719Y-43242976D01*
X58702480Y-43385833D02*
X58702480Y-44004880D01*
X59083433Y-43671547D01*
X59083433Y-43814404D01*
X59131052Y-43909642D01*
X59178671Y-43957261D01*
X59273909Y-44004880D01*
X59512004Y-44004880D01*
X59607242Y-43957261D01*
X59654861Y-43909642D01*
X59702480Y-43814404D01*
X59702480Y-43528690D01*
X59654861Y-43433452D01*
X59607242Y-43385833D01*
X59321528Y-44433452D02*
X59321528Y-45195357D01*
X59702480Y-46195357D02*
X59702480Y-45623928D01*
X59702480Y-45909642D02*
X58702480Y-45909642D01*
X58845338Y-45814404D01*
X58940576Y-45719166D01*
X58988195Y-45623928D01*
X58702480Y-46814404D02*
X58702480Y-46909642D01*
X58750100Y-47004880D01*
X58797719Y-47052500D01*
X58892957Y-47100119D01*
X59083433Y-47147738D01*
X59321528Y-47147738D01*
X59512004Y-47100119D01*
X59607242Y-47052500D01*
X59654861Y-47004880D01*
X59702480Y-46909642D01*
X59702480Y-46814404D01*
X59654861Y-46719166D01*
X59607242Y-46671547D01*
X59512004Y-46623928D01*
X59321528Y-46576309D01*
X59083433Y-46576309D01*
X58892957Y-46623928D01*
X58797719Y-46671547D01*
X58750100Y-46719166D01*
X58702480Y-46814404D01*
X58797719Y-47528690D02*
X58750100Y-47576309D01*
X58702480Y-47671547D01*
X58702480Y-47909642D01*
X58750100Y-48004880D01*
X58797719Y-48052500D01*
X58892957Y-48100119D01*
X58988195Y-48100119D01*
X59131052Y-48052500D01*
X59702480Y-47481071D01*
X59702480Y-48100119D01*
X58797719Y-48481071D02*
X58750100Y-48528690D01*
X58702480Y-48623928D01*
X58702480Y-48862023D01*
X58750100Y-48957261D01*
X58797719Y-49004880D01*
X58892957Y-49052499D01*
X58988195Y-49052499D01*
X59131052Y-49004880D01*
X59702480Y-48433452D01*
X59702480Y-49052499D01*
X58702480Y-49671547D02*
X58702480Y-49766785D01*
X58750100Y-49862023D01*
X58797719Y-49909642D01*
X58892957Y-49957261D01*
X59083433Y-50004880D01*
X59321528Y-50004880D01*
X59512004Y-49957261D01*
X59607242Y-49909642D01*
X59654861Y-49862023D01*
X59702480Y-49766785D01*
X59702480Y-49671547D01*
X59654861Y-49576309D01*
X59607242Y-49528690D01*
X59512004Y-49481071D01*
X59321528Y-49433452D01*
X59083433Y-49433452D01*
X58892957Y-49481071D01*
X58797719Y-49528690D01*
X58750100Y-49576309D01*
X58702480Y-49671547D01*
X58702480Y-50338214D02*
X58702480Y-50957261D01*
X59083433Y-50623928D01*
X59083433Y-50766785D01*
X59131052Y-50862023D01*
X59178671Y-50909642D01*
X59273909Y-50957261D01*
X59512004Y-50957261D01*
X59607242Y-50909642D01*
X59654861Y-50862023D01*
X59702480Y-50766785D01*
X59702480Y-50481071D01*
X59654861Y-50385833D01*
X59607242Y-50338214D01*
X59321528Y-51385833D02*
X59321528Y-52147738D01*
X59035814Y-53052499D02*
X59702480Y-53052499D01*
X58654861Y-52814404D02*
X59369147Y-52576309D01*
X59369147Y-53195357D01*
X59797719Y-53338214D02*
X59797719Y-54100119D01*
X58702480Y-54195357D02*
X58702480Y-54766785D01*
X59702480Y-54481071D02*
X58702480Y-54481071D01*
X59178671Y-55100119D02*
X59178671Y-55433452D01*
X59702480Y-55576309D02*
X59702480Y-55100119D01*
X58702480Y-55100119D01*
X58702480Y-55576309D01*
X59607242Y-56576309D02*
X59654861Y-56528690D01*
X59702480Y-56385833D01*
X59702480Y-56290595D01*
X59654861Y-56147738D01*
X59559623Y-56052499D01*
X59464385Y-56004880D01*
X59273909Y-55957261D01*
X59131052Y-55957261D01*
X58940576Y-56004880D01*
X58845338Y-56052499D01*
X58750100Y-56147738D01*
X58702480Y-56290595D01*
X58702480Y-56385833D01*
X58750100Y-56528690D01*
X58797719Y-56576309D01*
X58702480Y-45012500D02*
X58940576Y-45012500D01*
X58845338Y-44774404D02*
X58940576Y-45012500D01*
X58845338Y-45250595D01*
X59131052Y-44869642D02*
X58940576Y-45012500D01*
X59131052Y-45155357D01*
%TO.C,G\u002A\u002A\u002A*%
G36*
X100046398Y-99256919D02*
G01*
X100046398Y-68981523D01*
X116132429Y-68981523D01*
X116138380Y-69677686D01*
X116140537Y-69725978D01*
X116232160Y-70605852D01*
X116427267Y-71383272D01*
X116739699Y-72089930D01*
X117183299Y-72757519D01*
X117771908Y-73417729D01*
X118012514Y-73648812D01*
X118688145Y-74188869D01*
X119397223Y-74592397D01*
X120170612Y-74878186D01*
X120884549Y-75034895D01*
X121832690Y-75105778D01*
X122773055Y-75025641D01*
X123678206Y-74795132D01*
X124285936Y-74539809D01*
X125072858Y-74065986D01*
X125776615Y-73470123D01*
X126375125Y-72771767D01*
X126846310Y-71990466D01*
X127108775Y-71370533D01*
X127357079Y-70471877D01*
X127464204Y-69560691D01*
X127427678Y-68662912D01*
X127245030Y-67804480D01*
X127214953Y-67710217D01*
X126856532Y-66863037D01*
X126367712Y-66079889D01*
X125767241Y-65382903D01*
X125073869Y-64794209D01*
X124306345Y-64335937D01*
X123881006Y-64145699D01*
X123066746Y-63876740D01*
X122256981Y-63744395D01*
X121411860Y-63740467D01*
X121063837Y-63773820D01*
X120138347Y-63969176D01*
X119271762Y-64308867D01*
X118478404Y-64783273D01*
X117772594Y-65382774D01*
X117168650Y-66097750D01*
X116680894Y-66918581D01*
X116514663Y-67279451D01*
X116309912Y-67836615D01*
X116186054Y-68385903D01*
X116132429Y-68981523D01*
X100046398Y-68981523D01*
X100046398Y-62884977D01*
X124145062Y-62884977D01*
X124685647Y-63137947D01*
X124786790Y-63186538D01*
X125552306Y-63632975D01*
X126283800Y-64190989D01*
X126938523Y-64824408D01*
X127473725Y-65497059D01*
X127828799Y-66078601D01*
X128260232Y-67028619D01*
X128542934Y-68018047D01*
X128676400Y-69030727D01*
X128667942Y-69560691D01*
X128660124Y-70050503D01*
X128493602Y-71061215D01*
X128176330Y-72046708D01*
X127707803Y-72990823D01*
X127349024Y-73518079D01*
X126819555Y-74134475D01*
X126214759Y-74706614D01*
X125574641Y-75197238D01*
X124939210Y-75569093D01*
X124793625Y-75646916D01*
X124621042Y-75766209D01*
X124553746Y-75854241D01*
X124562272Y-75894629D01*
X124653490Y-76068953D01*
X124829102Y-76327513D01*
X125069765Y-76646088D01*
X125356141Y-77000459D01*
X125668886Y-77366407D01*
X125988662Y-77719711D01*
X126296127Y-78036153D01*
X126438426Y-78173874D01*
X127518889Y-79092316D01*
X128693323Y-79882034D01*
X129949729Y-80536656D01*
X131276105Y-81049809D01*
X132660448Y-81415121D01*
X132803081Y-81441594D01*
X133284761Y-81506205D01*
X133864616Y-81557763D01*
X134499497Y-81594684D01*
X135146253Y-81615386D01*
X135761734Y-81618284D01*
X136302790Y-81601795D01*
X136726270Y-81564335D01*
X138035180Y-81315336D01*
X139395422Y-80903569D01*
X140686851Y-80350416D01*
X141900631Y-79662333D01*
X143027928Y-78845779D01*
X144059906Y-77907212D01*
X144987731Y-76853088D01*
X145802567Y-75689865D01*
X146495579Y-74424001D01*
X146514963Y-74383287D01*
X147031749Y-73106763D01*
X147400647Y-71781985D01*
X147621640Y-70425358D01*
X147694708Y-69053285D01*
X147619834Y-67682174D01*
X147396999Y-66328428D01*
X147026186Y-65008453D01*
X146507377Y-63738653D01*
X145860404Y-62536793D01*
X145056997Y-61356570D01*
X144143433Y-60295481D01*
X143119852Y-59353669D01*
X141986395Y-58531278D01*
X140743203Y-57828452D01*
X140500706Y-57710039D01*
X139771262Y-57380722D01*
X139085309Y-57120591D01*
X138377776Y-56906743D01*
X137583593Y-56716272D01*
X137387399Y-56678489D01*
X136811932Y-56602951D01*
X136137592Y-56552106D01*
X135407539Y-56526283D01*
X134664935Y-56525810D01*
X133952942Y-56551017D01*
X133314720Y-56602232D01*
X132793432Y-56679783D01*
X132650133Y-56709724D01*
X131366180Y-57057427D01*
X130103636Y-57537346D01*
X128902256Y-58132391D01*
X127801792Y-58825475D01*
X127138433Y-59341240D01*
X126337927Y-60074627D01*
X125575603Y-60888589D01*
X124890580Y-61740816D01*
X124321978Y-62588999D01*
X124145062Y-62884977D01*
X100046398Y-62884977D01*
X100046398Y-36771296D01*
X162045120Y-36771296D01*
X162045120Y-99256919D01*
X100046398Y-99256919D01*
G37*
G36*
X143613033Y-115546673D02*
G01*
X143817662Y-116141609D01*
X143991273Y-116646174D01*
X144123010Y-117028804D01*
X144328954Y-117626850D01*
X144583864Y-118367515D01*
X144851029Y-119144166D01*
X145117421Y-119918915D01*
X145370016Y-120653877D01*
X145595786Y-121311166D01*
X145781705Y-121852896D01*
X145866153Y-122104182D01*
X145965495Y-122415613D01*
X146033393Y-122648595D01*
X146058539Y-122765835D01*
X146037008Y-122780626D01*
X145883010Y-122806215D01*
X145598270Y-122828107D01*
X145203510Y-122846290D01*
X144719452Y-122860749D01*
X144166816Y-122871471D01*
X143566325Y-122878443D01*
X142938700Y-122881651D01*
X142304662Y-122881081D01*
X141684934Y-122876720D01*
X141100237Y-122868554D01*
X140571292Y-122856570D01*
X140118821Y-122840754D01*
X139763545Y-122821092D01*
X139526187Y-122797571D01*
X139427467Y-122770178D01*
X139426542Y-122768905D01*
X139381424Y-122656240D01*
X139304905Y-122413401D01*
X139204621Y-122066750D01*
X139088206Y-121642650D01*
X138963295Y-121167462D01*
X138840923Y-120693458D01*
X138721364Y-120233205D01*
X138617693Y-119836989D01*
X138538040Y-119535874D01*
X138490534Y-119360920D01*
X138404163Y-119055655D01*
X132232607Y-119098133D01*
X131962451Y-120234236D01*
X131953683Y-120271088D01*
X131835796Y-120763413D01*
X131713094Y-121270937D01*
X131599592Y-121735938D01*
X131509303Y-122100689D01*
X131326310Y-122831041D01*
X128046457Y-122852262D01*
X128015902Y-122852457D01*
X127232232Y-122855561D01*
X126528663Y-122854699D01*
X125918890Y-122850091D01*
X125416611Y-122841955D01*
X125035522Y-122830511D01*
X124789318Y-122815978D01*
X124691696Y-122798575D01*
X124689895Y-122796595D01*
X124677800Y-122675199D01*
X124723587Y-122430433D01*
X124822601Y-122087578D01*
X124901456Y-121843938D01*
X125027557Y-121454456D01*
X125180161Y-120983205D01*
X125346736Y-120468888D01*
X125514746Y-119950210D01*
X125522708Y-119925629D01*
X125680591Y-119437760D01*
X125875508Y-118834759D01*
X126095465Y-118153777D01*
X126328467Y-117431961D01*
X126562517Y-116706462D01*
X126785621Y-116014427D01*
X126792746Y-115992316D01*
X127018505Y-115292380D01*
X127256707Y-114554878D01*
X127275302Y-114497376D01*
X133429469Y-114497376D01*
X133457123Y-114532700D01*
X133535642Y-114558195D01*
X133683598Y-114575464D01*
X133919564Y-114586107D01*
X134262113Y-114591726D01*
X134729817Y-114593923D01*
X135341249Y-114594299D01*
X135534729Y-114594162D01*
X136135138Y-114591166D01*
X136592515Y-114583658D01*
X136921920Y-114570857D01*
X137138413Y-114551979D01*
X137257056Y-114526241D01*
X137292910Y-114492862D01*
X137274089Y-114385055D01*
X137221092Y-114152604D01*
X137142255Y-113831997D01*
X137045925Y-113458197D01*
X137025631Y-113381012D01*
X136847208Y-112697332D01*
X136661794Y-111978732D01*
X136474164Y-111244413D01*
X136289094Y-110513578D01*
X136111360Y-109805427D01*
X135945739Y-109139163D01*
X135797006Y-108533987D01*
X135669938Y-108009100D01*
X135569310Y-107583706D01*
X135499899Y-107277004D01*
X135466481Y-107108197D01*
X135443395Y-106979582D01*
X135390726Y-106795183D01*
X135339050Y-106722734D01*
X135325385Y-106723890D01*
X135289053Y-106749407D01*
X135255179Y-106828726D01*
X135216941Y-106988493D01*
X135167514Y-107255356D01*
X135100075Y-107655961D01*
X135070728Y-107806623D01*
X135002769Y-108116713D01*
X134904890Y-108543070D01*
X134782637Y-109063048D01*
X134641560Y-109654005D01*
X134487206Y-110293296D01*
X134325123Y-110958277D01*
X134160861Y-111626304D01*
X133999967Y-112274732D01*
X133847989Y-112880919D01*
X133710476Y-113422219D01*
X133592976Y-113875989D01*
X133501037Y-114219585D01*
X133440208Y-114430363D01*
X133434108Y-114450621D01*
X133429469Y-114497376D01*
X127275302Y-114497376D01*
X127494921Y-113818225D01*
X127720720Y-113120835D01*
X127921674Y-112501120D01*
X128085354Y-111997494D01*
X128229935Y-111553005D01*
X128439068Y-110909012D01*
X128652474Y-110250856D01*
X128851949Y-109634688D01*
X129019289Y-109116664D01*
X129142487Y-108735099D01*
X129335795Y-108137486D01*
X129547391Y-107484295D01*
X129759079Y-106831689D01*
X129952663Y-106235833D01*
X130103881Y-105770401D01*
X130305740Y-105148023D01*
X130507957Y-104523521D01*
X130693648Y-103949041D01*
X130845933Y-103476728D01*
X130913248Y-103272033D01*
X131052454Y-102875236D01*
X131180148Y-102544156D01*
X131284468Y-102308659D01*
X131353552Y-102198613D01*
X131378708Y-102185731D01*
X131485107Y-102162533D01*
X131674595Y-102143398D01*
X131958487Y-102128028D01*
X132348096Y-102116123D01*
X132854737Y-102107384D01*
X133489724Y-102101513D01*
X134264370Y-102098210D01*
X135189991Y-102097175D01*
X135790100Y-102097558D01*
X136611331Y-102099857D01*
X137288884Y-102104497D01*
X137834148Y-102111784D01*
X138258516Y-102122024D01*
X138573377Y-102135522D01*
X138790123Y-102152582D01*
X138920145Y-102173511D01*
X138974833Y-102198613D01*
X138977128Y-102201547D01*
X138988315Y-102213873D01*
X138998066Y-102223975D01*
X139008962Y-102239266D01*
X139023584Y-102267161D01*
X139044514Y-102315075D01*
X139074335Y-102390422D01*
X139115627Y-102500616D01*
X139170973Y-102653072D01*
X139242954Y-102855204D01*
X139334152Y-103114427D01*
X139447148Y-103438156D01*
X139584525Y-103833804D01*
X139748865Y-104308786D01*
X139942748Y-104870517D01*
X140168757Y-105526411D01*
X140429474Y-106283882D01*
X140727479Y-107150345D01*
X141065356Y-108133215D01*
X141445685Y-109239906D01*
X141871049Y-110477831D01*
X142344028Y-111854407D01*
X142867206Y-113377047D01*
X142921575Y-113535270D01*
X143154135Y-114211941D01*
X143250708Y-114492862D01*
X143388240Y-114892930D01*
X143613033Y-115546673D01*
G37*
G36*
X106213810Y-122871616D02*
G01*
X99965248Y-122871616D01*
X99965248Y-102178325D01*
X106213810Y-102178325D01*
X106213810Y-122871616D01*
G37*
G36*
X122119242Y-122872564D02*
G01*
X115485216Y-122851803D01*
X108851190Y-122831041D01*
X108829695Y-120416823D01*
X108808200Y-118002606D01*
X112282635Y-118002606D01*
X113106753Y-118001606D01*
X113874580Y-117997989D01*
X114499945Y-117991463D01*
X114993265Y-117981741D01*
X115364959Y-117968540D01*
X115625442Y-117951577D01*
X115785133Y-117930567D01*
X115854449Y-117905226D01*
X115860053Y-117895970D01*
X115876553Y-117817267D01*
X115891139Y-117657858D01*
X115903902Y-117410326D01*
X115914935Y-117067252D01*
X115924328Y-116621219D01*
X115932172Y-116064810D01*
X115938559Y-115390608D01*
X115943580Y-114591194D01*
X115947326Y-113659153D01*
X115949889Y-112587066D01*
X115951359Y-111367516D01*
X115951829Y-109993085D01*
X115951829Y-102178325D01*
X122119242Y-102178325D01*
X122119242Y-122872564D01*
G37*
G36*
X162045120Y-122790466D02*
G01*
X148249593Y-122790466D01*
X148249593Y-117678006D01*
X149811734Y-117676596D01*
X150495533Y-117670113D01*
X151097520Y-117647072D01*
X151597660Y-117602208D01*
X152026952Y-117530235D01*
X152416399Y-117425865D01*
X152796999Y-117283812D01*
X153199753Y-117098788D01*
X153363450Y-117015770D01*
X153758251Y-116782430D01*
X154117735Y-116507185D01*
X154505085Y-116143812D01*
X154512892Y-116135989D01*
X154952433Y-115662416D01*
X155286322Y-115217421D01*
X155548692Y-114748821D01*
X155773677Y-114204433D01*
X155789622Y-114159833D01*
X156006740Y-113306766D01*
X156072294Y-112435840D01*
X155991713Y-111568119D01*
X155770425Y-110724668D01*
X155413859Y-109926550D01*
X154927443Y-109194830D01*
X154316606Y-108550573D01*
X154300191Y-108536209D01*
X153918353Y-108254020D01*
X153436062Y-107968209D01*
X152908863Y-107706481D01*
X152392302Y-107496542D01*
X151941925Y-107366098D01*
X151902879Y-107358731D01*
X151579490Y-107321134D01*
X151116927Y-107295322D01*
X150534698Y-107282077D01*
X149852309Y-107282184D01*
X148249593Y-107297733D01*
X148249593Y-102097175D01*
X162045120Y-102097175D01*
X162045120Y-122790466D01*
G37*
D11*
%TO.C,REF\u002A\u002A*%
X45508700Y-45647500D02*
X46778700Y-45012500D01*
X46905700Y-42091500D02*
X61104300Y-42091500D01*
X45508700Y-44377500D02*
X45508700Y-45647500D01*
X46905700Y-53013500D02*
X46905700Y-42091500D01*
X61104300Y-42091500D02*
X61104300Y-53013500D01*
X61104300Y-53013500D02*
X46905700Y-53013500D01*
X46778700Y-45012500D02*
X45508700Y-44377500D01*
%TD*%
M02*
