%TF.GenerationSoftware,KiCad,Pcbnew,(6.0.8-1)-1*%
%TF.CreationDate,2022-10-31T21:03:16-04:00*%
%TF.ProjectId,Untitled,556e7469-746c-4656-942e-6b696361645f,rev?*%
%TF.SameCoordinates,Original*%
%TF.FileFunction,Drillmap*%
%TF.FilePolarity,Positive*%
%FSLAX45Y45*%
G04 Gerber Fmt 4.5, Leading zero omitted, Abs format (unit mm)*
G04 Created by KiCad (PCBNEW (6.0.8-1)-1) date 2022-10-31 21:03:16*
%MOMM*%
%LPD*%
G01*
G04 APERTURE LIST*
%ADD10C,0.100000*%
%ADD11C,0.200000*%
G04 APERTURE END LIST*
D10*
X7520000Y-5640000D02*
G75*
G03*
X7520000Y-5640000I-160000J0D01*
G01*
X7520000Y-11840000D02*
G75*
G03*
X7520000Y-11840000I-160000J0D01*
G01*
X7520000Y-10600000D02*
G75*
G03*
X7520000Y-10600000I-160000J0D01*
G01*
X4572000Y-3292000D02*
X17764000Y-3292000D01*
X17764000Y-3292000D02*
X17764000Y-13091000D01*
X17764000Y-13091000D02*
X4572000Y-13091000D01*
X4572000Y-13091000D02*
X4572000Y-3292000D01*
X7520000Y-6880000D02*
G75*
G03*
X7520000Y-6880000I-160000J0D01*
G01*
X7520000Y-8120000D02*
G75*
G03*
X7520000Y-8120000I-160000J0D01*
G01*
X7520000Y-9360000D02*
G75*
G03*
X7520000Y-9360000I-160000J0D01*
G01*
X7520000Y-4400000D02*
G75*
G03*
X7520000Y-4400000I-160000J0D01*
G01*
D11*
X4824619Y-13406476D02*
X4824619Y-13206476D01*
X4872238Y-13206476D01*
X4900810Y-13216000D01*
X4919857Y-13235048D01*
X4929381Y-13254095D01*
X4938905Y-13292190D01*
X4938905Y-13320762D01*
X4929381Y-13358857D01*
X4919857Y-13377905D01*
X4900810Y-13396952D01*
X4872238Y-13406476D01*
X4824619Y-13406476D01*
X5024619Y-13406476D02*
X5024619Y-13273143D01*
X5024619Y-13311238D02*
X5034143Y-13292190D01*
X5043667Y-13282667D01*
X5062714Y-13273143D01*
X5081762Y-13273143D01*
X5148429Y-13406476D02*
X5148429Y-13273143D01*
X5148429Y-13206476D02*
X5138905Y-13216000D01*
X5148429Y-13225524D01*
X5157952Y-13216000D01*
X5148429Y-13206476D01*
X5148429Y-13225524D01*
X5272238Y-13406476D02*
X5253190Y-13396952D01*
X5243667Y-13377905D01*
X5243667Y-13206476D01*
X5377000Y-13406476D02*
X5357952Y-13396952D01*
X5348429Y-13377905D01*
X5348429Y-13206476D01*
X5605571Y-13406476D02*
X5605571Y-13206476D01*
X5672238Y-13349333D01*
X5738905Y-13206476D01*
X5738905Y-13406476D01*
X5919857Y-13406476D02*
X5919857Y-13301714D01*
X5910333Y-13282667D01*
X5891286Y-13273143D01*
X5853190Y-13273143D01*
X5834143Y-13282667D01*
X5919857Y-13396952D02*
X5900809Y-13406476D01*
X5853190Y-13406476D01*
X5834143Y-13396952D01*
X5824619Y-13377905D01*
X5824619Y-13358857D01*
X5834143Y-13339809D01*
X5853190Y-13330286D01*
X5900809Y-13330286D01*
X5919857Y-13320762D01*
X6015095Y-13273143D02*
X6015095Y-13473143D01*
X6015095Y-13282667D02*
X6034143Y-13273143D01*
X6072238Y-13273143D01*
X6091286Y-13282667D01*
X6100809Y-13292190D01*
X6110333Y-13311238D01*
X6110333Y-13368381D01*
X6100809Y-13387428D01*
X6091286Y-13396952D01*
X6072238Y-13406476D01*
X6034143Y-13406476D01*
X6015095Y-13396952D01*
X6196048Y-13387428D02*
X6205571Y-13396952D01*
X6196048Y-13406476D01*
X6186524Y-13396952D01*
X6196048Y-13387428D01*
X6196048Y-13406476D01*
X6196048Y-13282667D02*
X6205571Y-13292190D01*
X6196048Y-13301714D01*
X6186524Y-13292190D01*
X6196048Y-13282667D01*
X6196048Y-13301714D01*
M02*
