%TF.GenerationSoftware,KiCad,Pcbnew,(6.0.8-1)-1*%
%TF.CreationDate,2022-10-31T21:03:20-04:00*%
%TF.ProjectId,Untitled,556e7469-746c-4656-942e-6b696361645f,rev?*%
%TF.SameCoordinates,Original*%
%TF.FileFunction,Legend,Top*%
%TF.FilePolarity,Positive*%
%FSLAX46Y46*%
G04 Gerber Fmt 4.6, Leading zero omitted, Abs format (unit mm)*
G04 Created by KiCad (PCBNEW (6.0.8-1)-1) date 2022-10-31 21:03:20*
%MOMM*%
%LPD*%
G01*
G04 APERTURE LIST*
%ADD10C,0.300000*%
%ADD11C,0.150000*%
%ADD12C,0.120000*%
G04 APERTURE END LIST*
D10*
X151849730Y-120729604D02*
X151849730Y-119229604D01*
X152206873Y-119229604D01*
X152421159Y-119301033D01*
X152564016Y-119443890D01*
X152635444Y-119586747D01*
X152706873Y-119872461D01*
X152706873Y-120086747D01*
X152635444Y-120372461D01*
X152564016Y-120515318D01*
X152421159Y-120658175D01*
X152206873Y-120729604D01*
X151849730Y-120729604D01*
X153921159Y-120658175D02*
X153778301Y-120729604D01*
X153492587Y-120729604D01*
X153349730Y-120658175D01*
X153278301Y-120515318D01*
X153278301Y-119943890D01*
X153349730Y-119801033D01*
X153492587Y-119729604D01*
X153778301Y-119729604D01*
X153921159Y-119801033D01*
X153992587Y-119943890D01*
X153992587Y-120086747D01*
X153278301Y-120229604D01*
X154564016Y-120658175D02*
X154706873Y-120729604D01*
X154992587Y-120729604D01*
X155135444Y-120658175D01*
X155206873Y-120515318D01*
X155206873Y-120443890D01*
X155135444Y-120301033D01*
X154992587Y-120229604D01*
X154778301Y-120229604D01*
X154635444Y-120158175D01*
X154564016Y-120015318D01*
X154564016Y-119943890D01*
X154635444Y-119801033D01*
X154778301Y-119729604D01*
X154992587Y-119729604D01*
X155135444Y-119801033D01*
X155849730Y-120729604D02*
X155849730Y-119729604D01*
X155849730Y-119229604D02*
X155778301Y-119301033D01*
X155849730Y-119372461D01*
X155921159Y-119301033D01*
X155849730Y-119229604D01*
X155849730Y-119372461D01*
X157206873Y-119729604D02*
X157206873Y-120943890D01*
X157135444Y-121086747D01*
X157064016Y-121158175D01*
X156921159Y-121229604D01*
X156706873Y-121229604D01*
X156564016Y-121158175D01*
X157206873Y-120658175D02*
X157064016Y-120729604D01*
X156778301Y-120729604D01*
X156635444Y-120658175D01*
X156564016Y-120586747D01*
X156492587Y-120443890D01*
X156492587Y-120015318D01*
X156564016Y-119872461D01*
X156635444Y-119801033D01*
X156778301Y-119729604D01*
X157064016Y-119729604D01*
X157206873Y-119801033D01*
X157921159Y-119729604D02*
X157921159Y-120729604D01*
X157921159Y-119872461D02*
X157992587Y-119801033D01*
X158135444Y-119729604D01*
X158349730Y-119729604D01*
X158492587Y-119801033D01*
X158564016Y-119943890D01*
X158564016Y-120729604D01*
X159849730Y-120658175D02*
X159706873Y-120729604D01*
X159421159Y-120729604D01*
X159278301Y-120658175D01*
X159206873Y-120515318D01*
X159206873Y-119943890D01*
X159278301Y-119801033D01*
X159421159Y-119729604D01*
X159706873Y-119729604D01*
X159849730Y-119801033D01*
X159921159Y-119943890D01*
X159921159Y-120086747D01*
X159206873Y-120229604D01*
X161206873Y-120729604D02*
X161206873Y-119229604D01*
X161206873Y-120658175D02*
X161064016Y-120729604D01*
X160778301Y-120729604D01*
X160635444Y-120658175D01*
X160564016Y-120586747D01*
X160492587Y-120443890D01*
X160492587Y-120015318D01*
X160564016Y-119872461D01*
X160635444Y-119801033D01*
X160778301Y-119729604D01*
X161064016Y-119729604D01*
X161206873Y-119801033D01*
X163064016Y-120729604D02*
X163064016Y-119229604D01*
X163064016Y-119801033D02*
X163206873Y-119729604D01*
X163492587Y-119729604D01*
X163635444Y-119801033D01*
X163706873Y-119872461D01*
X163778301Y-120015318D01*
X163778301Y-120443890D01*
X163706873Y-120586747D01*
X163635444Y-120658175D01*
X163492587Y-120729604D01*
X163206873Y-120729604D01*
X163064016Y-120658175D01*
X164278301Y-119729604D02*
X164635444Y-120729604D01*
X164992587Y-119729604D02*
X164635444Y-120729604D01*
X164492587Y-121086747D01*
X164421159Y-121158175D01*
X164278301Y-121229604D01*
X150921159Y-123073175D02*
X151135444Y-123144604D01*
X151492587Y-123144604D01*
X151635444Y-123073175D01*
X151706873Y-123001747D01*
X151778301Y-122858890D01*
X151778301Y-122716033D01*
X151706873Y-122573175D01*
X151635444Y-122501747D01*
X151492587Y-122430318D01*
X151206873Y-122358890D01*
X151064016Y-122287461D01*
X150992587Y-122216033D01*
X150921159Y-122073175D01*
X150921159Y-121930318D01*
X150992587Y-121787461D01*
X151064016Y-121716033D01*
X151206873Y-121644604D01*
X151564016Y-121644604D01*
X151778301Y-121716033D01*
X152992587Y-123073175D02*
X152849730Y-123144604D01*
X152564016Y-123144604D01*
X152421159Y-123073175D01*
X152349730Y-122930318D01*
X152349730Y-122358890D01*
X152421159Y-122216033D01*
X152564016Y-122144604D01*
X152849730Y-122144604D01*
X152992587Y-122216033D01*
X153064016Y-122358890D01*
X153064016Y-122501747D01*
X152349730Y-122644604D01*
X153706873Y-123144604D02*
X153706873Y-121644604D01*
X153706873Y-122216033D02*
X153849730Y-122144604D01*
X154135444Y-122144604D01*
X154278301Y-122216033D01*
X154349730Y-122287461D01*
X154421159Y-122430318D01*
X154421159Y-122858890D01*
X154349730Y-123001747D01*
X154278301Y-123073175D01*
X154135444Y-123144604D01*
X153849730Y-123144604D01*
X153706873Y-123073175D01*
X155278301Y-123144604D02*
X155135444Y-123073175D01*
X155064016Y-123001747D01*
X154992587Y-122858890D01*
X154992587Y-122430318D01*
X155064016Y-122287461D01*
X155135444Y-122216033D01*
X155278301Y-122144604D01*
X155492587Y-122144604D01*
X155635444Y-122216033D01*
X155706873Y-122287461D01*
X155778301Y-122430318D01*
X155778301Y-122858890D01*
X155706873Y-123001747D01*
X155635444Y-123073175D01*
X155492587Y-123144604D01*
X155278301Y-123144604D01*
X157064016Y-122144604D02*
X157064016Y-123144604D01*
X156421159Y-122144604D02*
X156421159Y-122930318D01*
X156492587Y-123073175D01*
X156635444Y-123144604D01*
X156849730Y-123144604D01*
X156992587Y-123073175D01*
X157064016Y-123001747D01*
X157778301Y-123144604D02*
X157778301Y-121644604D01*
X158421159Y-123144604D02*
X158421159Y-122358890D01*
X158349730Y-122216033D01*
X158206873Y-122144604D01*
X157992587Y-122144604D01*
X157849730Y-122216033D01*
X157778301Y-122287461D01*
X160706873Y-121644604D02*
X160706873Y-122716033D01*
X160635444Y-122930318D01*
X160492587Y-123073175D01*
X160278301Y-123144604D01*
X160135444Y-123144604D01*
X162564016Y-123144604D02*
X162564016Y-121644604D01*
X163135444Y-121644604D01*
X163278301Y-121716033D01*
X163349730Y-121787461D01*
X163421159Y-121930318D01*
X163421159Y-122144604D01*
X163349730Y-122287461D01*
X163278301Y-122358890D01*
X163135444Y-122430318D01*
X162564016Y-122430318D01*
X164706873Y-123144604D02*
X164706873Y-122358890D01*
X164635444Y-122216033D01*
X164492587Y-122144604D01*
X164206873Y-122144604D01*
X164064016Y-122216033D01*
X164706873Y-123073175D02*
X164564016Y-123144604D01*
X164206873Y-123144604D01*
X164064016Y-123073175D01*
X163992587Y-122930318D01*
X163992587Y-122787461D01*
X164064016Y-122644604D01*
X164206873Y-122573175D01*
X164564016Y-122573175D01*
X164706873Y-122501747D01*
X166064016Y-122144604D02*
X166064016Y-123144604D01*
X165421159Y-122144604D02*
X165421159Y-122930318D01*
X165492587Y-123073175D01*
X165635444Y-123144604D01*
X165849730Y-123144604D01*
X165992587Y-123073175D01*
X166064016Y-123001747D01*
X166992587Y-123144604D02*
X166849730Y-123073175D01*
X166778301Y-122930318D01*
X166778301Y-121644604D01*
X153706873Y-126474604D02*
X154206873Y-127974604D01*
X154706873Y-126474604D01*
X155778301Y-127903175D02*
X155635444Y-127974604D01*
X155349730Y-127974604D01*
X155206873Y-127903175D01*
X155135444Y-127760318D01*
X155135444Y-127188890D01*
X155206873Y-127046033D01*
X155349730Y-126974604D01*
X155635444Y-126974604D01*
X155778301Y-127046033D01*
X155849730Y-127188890D01*
X155849730Y-127331747D01*
X155135444Y-127474604D01*
X156492587Y-127974604D02*
X156492587Y-126974604D01*
X156492587Y-127260318D02*
X156564016Y-127117461D01*
X156635444Y-127046033D01*
X156778301Y-126974604D01*
X156921159Y-126974604D01*
X157349730Y-127903175D02*
X157492587Y-127974604D01*
X157778301Y-127974604D01*
X157921159Y-127903175D01*
X157992587Y-127760318D01*
X157992587Y-127688890D01*
X157921159Y-127546033D01*
X157778301Y-127474604D01*
X157564016Y-127474604D01*
X157421159Y-127403175D01*
X157349730Y-127260318D01*
X157349730Y-127188890D01*
X157421159Y-127046033D01*
X157564016Y-126974604D01*
X157778301Y-126974604D01*
X157921159Y-127046033D01*
X158635444Y-127974604D02*
X158635444Y-126974604D01*
X158635444Y-126474604D02*
X158564016Y-126546033D01*
X158635444Y-126617461D01*
X158706873Y-126546033D01*
X158635444Y-126474604D01*
X158635444Y-126617461D01*
X159564016Y-127974604D02*
X159421159Y-127903175D01*
X159349730Y-127831747D01*
X159278301Y-127688890D01*
X159278301Y-127260318D01*
X159349730Y-127117461D01*
X159421159Y-127046033D01*
X159564016Y-126974604D01*
X159778301Y-126974604D01*
X159921159Y-127046033D01*
X159992587Y-127117461D01*
X160064016Y-127260318D01*
X160064016Y-127688890D01*
X159992587Y-127831747D01*
X159921159Y-127903175D01*
X159778301Y-127974604D01*
X159564016Y-127974604D01*
X160706873Y-126974604D02*
X160706873Y-127974604D01*
X160706873Y-127117461D02*
X160778301Y-127046033D01*
X160921159Y-126974604D01*
X161135444Y-126974604D01*
X161278301Y-127046033D01*
X161349730Y-127188890D01*
X161349730Y-127974604D01*
X163064016Y-126474604D02*
X163992587Y-126474604D01*
X163492587Y-127046033D01*
X163706873Y-127046033D01*
X163849730Y-127117461D01*
X163921159Y-127188890D01*
X163992587Y-127331747D01*
X163992587Y-127688890D01*
X163921159Y-127831747D01*
X163849730Y-127903175D01*
X163706873Y-127974604D01*
X163278301Y-127974604D01*
X163135444Y-127903175D01*
X163064016Y-127831747D01*
D11*
X175600000Y-33000000D02*
X175640000Y-130800000D01*
X79630000Y-32920000D02*
X79630000Y-130910000D01*
%TO.C,REF\u002A\u002A*%
X67026666Y-34352380D02*
X66693333Y-33876190D01*
X66455238Y-34352380D02*
X66455238Y-33352380D01*
X66836190Y-33352380D01*
X66931428Y-33400000D01*
X66979047Y-33447619D01*
X67026666Y-33542857D01*
X67026666Y-33685714D01*
X66979047Y-33780952D01*
X66931428Y-33828571D01*
X66836190Y-33876190D01*
X66455238Y-33876190D01*
X67455238Y-33828571D02*
X67788571Y-33828571D01*
X67931428Y-34352380D02*
X67455238Y-34352380D01*
X67455238Y-33352380D01*
X67931428Y-33352380D01*
X68693333Y-33828571D02*
X68360000Y-33828571D01*
X68360000Y-34352380D02*
X68360000Y-33352380D01*
X68836190Y-33352380D01*
X69360000Y-33352380D02*
X69360000Y-33590476D01*
X69121904Y-33495238D02*
X69360000Y-33590476D01*
X69598095Y-33495238D01*
X69217142Y-33780952D02*
X69360000Y-33590476D01*
X69502857Y-33780952D01*
X70121904Y-33352380D02*
X70121904Y-33590476D01*
X69883809Y-33495238D02*
X70121904Y-33590476D01*
X70360000Y-33495238D01*
X69979047Y-33780952D02*
X70121904Y-33590476D01*
X70264761Y-33780952D01*
X62952380Y-88533333D02*
X62476190Y-88866666D01*
X62952380Y-89104761D02*
X61952380Y-89104761D01*
X61952380Y-88723809D01*
X62000000Y-88628571D01*
X62047619Y-88580952D01*
X62142857Y-88533333D01*
X62285714Y-88533333D01*
X62380952Y-88580952D01*
X62428571Y-88628571D01*
X62476190Y-88723809D01*
X62476190Y-89104761D01*
X62428571Y-88104761D02*
X62428571Y-87771428D01*
X62952380Y-87628571D02*
X62952380Y-88104761D01*
X61952380Y-88104761D01*
X61952380Y-87628571D01*
X62428571Y-86866666D02*
X62428571Y-87200000D01*
X62952380Y-87200000D02*
X61952380Y-87200000D01*
X61952380Y-86723809D01*
X61952380Y-86200000D02*
X62190476Y-86200000D01*
X62095238Y-86438095D02*
X62190476Y-86200000D01*
X62095238Y-85961904D01*
X62380952Y-86342857D02*
X62190476Y-86200000D01*
X62380952Y-86057142D01*
X61952380Y-85438095D02*
X62190476Y-85438095D01*
X62095238Y-85676190D02*
X62190476Y-85438095D01*
X62095238Y-85200000D01*
X62380952Y-85580952D02*
X62190476Y-85438095D01*
X62380952Y-85295238D01*
X59702480Y-39920833D02*
X59226290Y-40254166D01*
X59702480Y-40492261D02*
X58702480Y-40492261D01*
X58702480Y-40111309D01*
X58750100Y-40016071D01*
X58797719Y-39968452D01*
X58892957Y-39920833D01*
X59035814Y-39920833D01*
X59131052Y-39968452D01*
X59178671Y-40016071D01*
X59226290Y-40111309D01*
X59226290Y-40492261D01*
X59178671Y-39492261D02*
X59178671Y-39158928D01*
X59702480Y-39016071D02*
X59702480Y-39492261D01*
X58702480Y-39492261D01*
X58702480Y-39016071D01*
X59178671Y-38254166D02*
X59178671Y-38587500D01*
X59702480Y-38587500D02*
X58702480Y-38587500D01*
X58702480Y-38111309D01*
X58702480Y-37587500D02*
X58940576Y-37587500D01*
X58845338Y-37825595D02*
X58940576Y-37587500D01*
X58845338Y-37349404D01*
X59131052Y-37730357D02*
X58940576Y-37587500D01*
X59131052Y-37444642D01*
X58702480Y-36825595D02*
X58940576Y-36825595D01*
X58845338Y-37063690D02*
X58940576Y-36825595D01*
X58845338Y-36587500D01*
X59131052Y-36968452D02*
X58940576Y-36825595D01*
X59131052Y-36682738D01*
X59607242Y-46992261D02*
X59654861Y-47039880D01*
X59702480Y-47182738D01*
X59702480Y-47277976D01*
X59654861Y-47420833D01*
X59559623Y-47516071D01*
X59464385Y-47563690D01*
X59273909Y-47611309D01*
X59131052Y-47611309D01*
X58940576Y-47563690D01*
X58845338Y-47516071D01*
X58750100Y-47420833D01*
X58702480Y-47277976D01*
X58702480Y-47182738D01*
X58750100Y-47039880D01*
X58797719Y-46992261D01*
X58702480Y-46373214D02*
X58702480Y-46182738D01*
X58750100Y-46087500D01*
X58845338Y-45992261D01*
X59035814Y-45944642D01*
X59369147Y-45944642D01*
X59559623Y-45992261D01*
X59654861Y-46087500D01*
X59702480Y-46182738D01*
X59702480Y-46373214D01*
X59654861Y-46468452D01*
X59559623Y-46563690D01*
X59369147Y-46611309D01*
X59035814Y-46611309D01*
X58845338Y-46563690D01*
X58750100Y-46468452D01*
X58702480Y-46373214D01*
X59702480Y-45516071D02*
X58702480Y-45516071D01*
X59702480Y-44944642D01*
X58702480Y-44944642D01*
X59702480Y-44468452D02*
X58702480Y-44468452D01*
X59702480Y-43897023D01*
X58702480Y-43897023D01*
X59797719Y-43658928D02*
X59797719Y-42897023D01*
X58702480Y-42754166D02*
X58702480Y-42135119D01*
X59083433Y-42468452D01*
X59083433Y-42325595D01*
X59131052Y-42230357D01*
X59178671Y-42182738D01*
X59273909Y-42135119D01*
X59512004Y-42135119D01*
X59607242Y-42182738D01*
X59654861Y-42230357D01*
X59702480Y-42325595D01*
X59702480Y-42611309D01*
X59654861Y-42706547D01*
X59607242Y-42754166D01*
X59321528Y-41706547D02*
X59321528Y-40944642D01*
X59702480Y-39944642D02*
X59702480Y-40516071D01*
X59702480Y-40230357D02*
X58702480Y-40230357D01*
X58845338Y-40325595D01*
X58940576Y-40420833D01*
X58988195Y-40516071D01*
X58702480Y-39325595D02*
X58702480Y-39230357D01*
X58750100Y-39135119D01*
X58797719Y-39087500D01*
X58892957Y-39039880D01*
X59083433Y-38992261D01*
X59321528Y-38992261D01*
X59512004Y-39039880D01*
X59607242Y-39087500D01*
X59654861Y-39135119D01*
X59702480Y-39230357D01*
X59702480Y-39325595D01*
X59654861Y-39420833D01*
X59607242Y-39468452D01*
X59512004Y-39516071D01*
X59321528Y-39563690D01*
X59083433Y-39563690D01*
X58892957Y-39516071D01*
X58797719Y-39468452D01*
X58750100Y-39420833D01*
X58702480Y-39325595D01*
X58797719Y-38611309D02*
X58750100Y-38563690D01*
X58702480Y-38468452D01*
X58702480Y-38230357D01*
X58750100Y-38135119D01*
X58797719Y-38087500D01*
X58892957Y-38039880D01*
X58988195Y-38039880D01*
X59131052Y-38087500D01*
X59702480Y-38658928D01*
X59702480Y-38039880D01*
X58797719Y-37658928D02*
X58750100Y-37611309D01*
X58702480Y-37516071D01*
X58702480Y-37277976D01*
X58750100Y-37182738D01*
X58797719Y-37135119D01*
X58892957Y-37087500D01*
X58988195Y-37087500D01*
X59131052Y-37135119D01*
X59702480Y-37706547D01*
X59702480Y-37087500D01*
X58702480Y-36468452D02*
X58702480Y-36373214D01*
X58750100Y-36277976D01*
X58797719Y-36230357D01*
X58892957Y-36182738D01*
X59083433Y-36135119D01*
X59321528Y-36135119D01*
X59512004Y-36182738D01*
X59607242Y-36230357D01*
X59654861Y-36277976D01*
X59702480Y-36373214D01*
X59702480Y-36468452D01*
X59654861Y-36563690D01*
X59607242Y-36611309D01*
X59512004Y-36658928D01*
X59321528Y-36706547D01*
X59083433Y-36706547D01*
X58892957Y-36658928D01*
X58797719Y-36611309D01*
X58750100Y-36563690D01*
X58702480Y-36468452D01*
X58702480Y-35801785D02*
X58702480Y-35182738D01*
X59083433Y-35516071D01*
X59083433Y-35373214D01*
X59131052Y-35277976D01*
X59178671Y-35230357D01*
X59273909Y-35182738D01*
X59512004Y-35182738D01*
X59607242Y-35230357D01*
X59654861Y-35277976D01*
X59702480Y-35373214D01*
X59702480Y-35658928D01*
X59654861Y-35754166D01*
X59607242Y-35801785D01*
X59321528Y-34754166D02*
X59321528Y-33992261D01*
X59035814Y-33087500D02*
X59702480Y-33087500D01*
X58654861Y-33325595D02*
X59369147Y-33563690D01*
X59369147Y-32944642D01*
X59797719Y-32801785D02*
X59797719Y-32039880D01*
X58702480Y-31944642D02*
X58702480Y-31373214D01*
X59702480Y-31658928D02*
X58702480Y-31658928D01*
X59178671Y-31039880D02*
X59178671Y-30706547D01*
X59702480Y-30563690D02*
X59702480Y-31039880D01*
X58702480Y-31039880D01*
X58702480Y-30563690D01*
X59607242Y-29563690D02*
X59654861Y-29611309D01*
X59702480Y-29754166D01*
X59702480Y-29849404D01*
X59654861Y-29992261D01*
X59559623Y-30087500D01*
X59464385Y-30135119D01*
X59273909Y-30182738D01*
X59131052Y-30182738D01*
X58940576Y-30135119D01*
X58845338Y-30087500D01*
X58750100Y-29992261D01*
X58702480Y-29849404D01*
X58702480Y-29754166D01*
X58750100Y-29611309D01*
X58797719Y-29563690D01*
X58702480Y-41127500D02*
X58940576Y-41127500D01*
X58845338Y-41365595D02*
X58940576Y-41127500D01*
X58845338Y-40889404D01*
X59131052Y-41270357D02*
X58940576Y-41127500D01*
X59131052Y-40984642D01*
X126296666Y-85472380D02*
X125963333Y-84996190D01*
X125725238Y-85472380D02*
X125725238Y-84472380D01*
X126106190Y-84472380D01*
X126201428Y-84520000D01*
X126249047Y-84567619D01*
X126296666Y-84662857D01*
X126296666Y-84805714D01*
X126249047Y-84900952D01*
X126201428Y-84948571D01*
X126106190Y-84996190D01*
X125725238Y-84996190D01*
X126725238Y-84948571D02*
X127058571Y-84948571D01*
X127201428Y-85472380D02*
X126725238Y-85472380D01*
X126725238Y-84472380D01*
X127201428Y-84472380D01*
X127963333Y-84948571D02*
X127630000Y-84948571D01*
X127630000Y-85472380D02*
X127630000Y-84472380D01*
X128106190Y-84472380D01*
X128630000Y-84472380D02*
X128630000Y-84710476D01*
X128391904Y-84615238D02*
X128630000Y-84710476D01*
X128868095Y-84615238D01*
X128487142Y-84900952D02*
X128630000Y-84710476D01*
X128772857Y-84900952D01*
X129391904Y-84472380D02*
X129391904Y-84710476D01*
X129153809Y-84615238D02*
X129391904Y-84710476D01*
X129630000Y-84615238D01*
X129249047Y-84900952D02*
X129391904Y-84710476D01*
X129534761Y-84900952D01*
X126296666Y-81872380D02*
X125963333Y-81396190D01*
X125725238Y-81872380D02*
X125725238Y-80872380D01*
X126106190Y-80872380D01*
X126201428Y-80920000D01*
X126249047Y-80967619D01*
X126296666Y-81062857D01*
X126296666Y-81205714D01*
X126249047Y-81300952D01*
X126201428Y-81348571D01*
X126106190Y-81396190D01*
X125725238Y-81396190D01*
X126725238Y-81348571D02*
X127058571Y-81348571D01*
X127201428Y-81872380D02*
X126725238Y-81872380D01*
X126725238Y-80872380D01*
X127201428Y-80872380D01*
X127963333Y-81348571D02*
X127630000Y-81348571D01*
X127630000Y-81872380D02*
X127630000Y-80872380D01*
X128106190Y-80872380D01*
X128630000Y-80872380D02*
X128630000Y-81110476D01*
X128391904Y-81015238D02*
X128630000Y-81110476D01*
X128868095Y-81015238D01*
X128487142Y-81300952D02*
X128630000Y-81110476D01*
X128772857Y-81300952D01*
X129391904Y-80872380D02*
X129391904Y-81110476D01*
X129153809Y-81015238D02*
X129391904Y-81110476D01*
X129630000Y-81015238D01*
X129249047Y-81300952D02*
X129391904Y-81110476D01*
X129534761Y-81300952D01*
X67576666Y-87682380D02*
X67243333Y-87206190D01*
X67005238Y-87682380D02*
X67005238Y-86682380D01*
X67386190Y-86682380D01*
X67481428Y-86730000D01*
X67529047Y-86777619D01*
X67576666Y-86872857D01*
X67576666Y-87015714D01*
X67529047Y-87110952D01*
X67481428Y-87158571D01*
X67386190Y-87206190D01*
X67005238Y-87206190D01*
X68005238Y-87158571D02*
X68338571Y-87158571D01*
X68481428Y-87682380D02*
X68005238Y-87682380D01*
X68005238Y-86682380D01*
X68481428Y-86682380D01*
X69243333Y-87158571D02*
X68910000Y-87158571D01*
X68910000Y-87682380D02*
X68910000Y-86682380D01*
X69386190Y-86682380D01*
X69910000Y-86682380D02*
X69910000Y-86920476D01*
X69671904Y-86825238D02*
X69910000Y-86920476D01*
X70148095Y-86825238D01*
X69767142Y-87110952D02*
X69910000Y-86920476D01*
X70052857Y-87110952D01*
X70671904Y-86682380D02*
X70671904Y-86920476D01*
X70433809Y-86825238D02*
X70671904Y-86920476D01*
X70910000Y-86825238D01*
X70529047Y-87110952D02*
X70671904Y-86920476D01*
X70814761Y-87110952D01*
X126296666Y-78182380D02*
X125963333Y-77706190D01*
X125725238Y-78182380D02*
X125725238Y-77182380D01*
X126106190Y-77182380D01*
X126201428Y-77230000D01*
X126249047Y-77277619D01*
X126296666Y-77372857D01*
X126296666Y-77515714D01*
X126249047Y-77610952D01*
X126201428Y-77658571D01*
X126106190Y-77706190D01*
X125725238Y-77706190D01*
X126725238Y-77658571D02*
X127058571Y-77658571D01*
X127201428Y-78182380D02*
X126725238Y-78182380D01*
X126725238Y-77182380D01*
X127201428Y-77182380D01*
X127963333Y-77658571D02*
X127630000Y-77658571D01*
X127630000Y-78182380D02*
X127630000Y-77182380D01*
X128106190Y-77182380D01*
X128630000Y-77182380D02*
X128630000Y-77420476D01*
X128391904Y-77325238D02*
X128630000Y-77420476D01*
X128868095Y-77325238D01*
X128487142Y-77610952D02*
X128630000Y-77420476D01*
X128772857Y-77610952D01*
X129391904Y-77182380D02*
X129391904Y-77420476D01*
X129153809Y-77325238D02*
X129391904Y-77420476D01*
X129630000Y-77325238D01*
X129249047Y-77610952D02*
X129391904Y-77420476D01*
X129534761Y-77610952D01*
%TO.C,G\u002A\u002A\u002A*%
G36*
X104302801Y-39299879D02*
G01*
X104591675Y-38527571D01*
X104920765Y-38526807D01*
X105215684Y-39311116D01*
X105283436Y-39491799D01*
X105345677Y-39658754D01*
X105400574Y-39806991D01*
X105446297Y-39931522D01*
X105481011Y-40027357D01*
X105502886Y-40089506D01*
X105510105Y-40112855D01*
X105488732Y-40122134D01*
X105433788Y-40128456D01*
X105373024Y-40130284D01*
X105236441Y-40130284D01*
X105085609Y-39711986D01*
X104423083Y-39711986D01*
X104347667Y-39921135D01*
X104272252Y-40130284D01*
X104133182Y-40130284D01*
X104051637Y-40127287D01*
X104010658Y-40117462D01*
X104004020Y-40101235D01*
X104014219Y-40073374D01*
X104038795Y-40007124D01*
X104075832Y-39907625D01*
X104123413Y-39780018D01*
X104179622Y-39629441D01*
X104233438Y-39485407D01*
X104511141Y-39485407D01*
X104532443Y-39492524D01*
X104590712Y-39498237D01*
X104676441Y-39501874D01*
X104757057Y-39502836D01*
X104866535Y-39502190D01*
X104937168Y-39499368D01*
X104976576Y-39493048D01*
X104992384Y-39481909D01*
X104992214Y-39464628D01*
X104991509Y-39462169D01*
X104979720Y-39426376D01*
X104955696Y-39355781D01*
X104922551Y-39259455D01*
X104883395Y-39146466D01*
X104868175Y-39102734D01*
X104757105Y-38783967D01*
X104634524Y-39125973D01*
X104592433Y-39244335D01*
X104556473Y-39347222D01*
X104529356Y-39426728D01*
X104513798Y-39474948D01*
X104511141Y-39485407D01*
X104233438Y-39485407D01*
X104242544Y-39461034D01*
X104302801Y-39299879D01*
G37*
G36*
X102720952Y-41176030D02*
G01*
X102163221Y-41176030D01*
X102163221Y-42547118D01*
X101907594Y-42547118D01*
X101907594Y-41176030D01*
X101349863Y-41176030D01*
X101349863Y-40943642D01*
X102720952Y-40943642D01*
X102720952Y-41176030D01*
G37*
G36*
X97956999Y-38759195D02*
G01*
X97050687Y-38759195D01*
X97050687Y-39200732D01*
X97747850Y-39200732D01*
X97747850Y-39431878D01*
X97062306Y-39444740D01*
X97049444Y-40130284D01*
X96795060Y-40130284D01*
X96795060Y-38526807D01*
X97956999Y-38526807D01*
X97956999Y-38759195D01*
G37*
G36*
X109546427Y-38509482D02*
G01*
X109705614Y-38540671D01*
X109842419Y-38598341D01*
X109862313Y-38610650D01*
X109915349Y-38654526D01*
X109970579Y-38714398D01*
X110020457Y-38779747D01*
X110057439Y-38840056D01*
X110073978Y-38884808D01*
X110070258Y-38900514D01*
X110040208Y-38918339D01*
X109982837Y-38946237D01*
X109943552Y-38963807D01*
X109834313Y-39011195D01*
X109775260Y-38910428D01*
X109695057Y-38816391D01*
X109587648Y-38758927D01*
X109456143Y-38739379D01*
X109388724Y-38743453D01*
X109248778Y-38779406D01*
X109136358Y-38852174D01*
X109047731Y-38964177D01*
X109047507Y-38964557D01*
X109019170Y-39016253D01*
X109000742Y-39063714D01*
X108990116Y-39118989D01*
X108985182Y-39194128D01*
X108983832Y-39301179D01*
X108983806Y-39328546D01*
X108984691Y-39443861D01*
X108988734Y-39524729D01*
X108998023Y-39583169D01*
X109014644Y-39631197D01*
X109040681Y-39680833D01*
X109046761Y-39691260D01*
X109113744Y-39785467D01*
X109191525Y-39848629D01*
X109295668Y-39892303D01*
X109331237Y-39902497D01*
X109418149Y-39918495D01*
X109498931Y-39912678D01*
X109547347Y-39901391D01*
X109640793Y-39862578D01*
X109727107Y-39802761D01*
X109793072Y-39732921D01*
X109823849Y-39671670D01*
X109832697Y-39639669D01*
X109846138Y-39624462D01*
X109875184Y-39625068D01*
X109930848Y-39640507D01*
X109984419Y-39657369D01*
X110053568Y-39680629D01*
X110087071Y-39699800D01*
X110093838Y-39724022D01*
X110083852Y-39759367D01*
X110036114Y-39847309D01*
X109958246Y-39939453D01*
X109863150Y-40022440D01*
X109778032Y-40075994D01*
X109643040Y-40123895D01*
X109486167Y-40147355D01*
X109325691Y-40145332D01*
X109179890Y-40116786D01*
X109162860Y-40111034D01*
X109002993Y-40032227D01*
X108875637Y-39921280D01*
X108779793Y-39776972D01*
X108714462Y-39598082D01*
X108702949Y-39548616D01*
X108678444Y-39343865D01*
X108690874Y-39149169D01*
X108738082Y-38970165D01*
X108817909Y-38812490D01*
X108928201Y-38681781D01*
X109066798Y-38583673D01*
X109073558Y-38580170D01*
X109216502Y-38528695D01*
X109378758Y-38505311D01*
X109546427Y-38509482D01*
G37*
G36*
X92227367Y-38530082D02*
G01*
X92363933Y-38578823D01*
X92376445Y-38585381D01*
X92454751Y-38638645D01*
X92529259Y-38707278D01*
X92590216Y-38780190D01*
X92627867Y-38846292D01*
X92635229Y-38879576D01*
X92615504Y-38905412D01*
X92565159Y-38937869D01*
X92525620Y-38956725D01*
X92459423Y-38984821D01*
X92411333Y-39005238D01*
X92397894Y-39010949D01*
X92381963Y-38999607D01*
X92379689Y-38983683D01*
X92361847Y-38934824D01*
X92316416Y-38874871D01*
X92255541Y-38816844D01*
X92191366Y-38773763D01*
X92178181Y-38767655D01*
X92064501Y-38740922D01*
X91939435Y-38744683D01*
X91818264Y-38775900D01*
X91716266Y-38831538D01*
X91677603Y-38867146D01*
X91605126Y-38978899D01*
X91558011Y-39115139D01*
X91535907Y-39265444D01*
X91538463Y-39419392D01*
X91565328Y-39566559D01*
X91616150Y-39696522D01*
X91690579Y-39798858D01*
X91709578Y-39816203D01*
X91809635Y-39875886D01*
X91932314Y-39912679D01*
X92020374Y-39921005D01*
X92121634Y-39901217D01*
X92225883Y-39848263D01*
X92319234Y-39772282D01*
X92387801Y-39683415D01*
X92408312Y-39637737D01*
X92432640Y-39629227D01*
X92483642Y-39636605D01*
X92546442Y-39654926D01*
X92606167Y-39679244D01*
X92647941Y-39704616D01*
X92658555Y-39720923D01*
X92642970Y-39770339D01*
X92602555Y-39838397D01*
X92546816Y-39912417D01*
X92485264Y-39979720D01*
X92429665Y-40026153D01*
X92270700Y-40104663D01*
X92094073Y-40145682D01*
X91911396Y-40147817D01*
X91734278Y-40109680D01*
X91733766Y-40109503D01*
X91576764Y-40031990D01*
X91447453Y-39919685D01*
X91348043Y-39776667D01*
X91280747Y-39607017D01*
X91247777Y-39414812D01*
X91250049Y-39217347D01*
X91286355Y-39029655D01*
X91356156Y-38862849D01*
X91455519Y-38722324D01*
X91580509Y-38613479D01*
X91727193Y-38541709D01*
X91746956Y-38535586D01*
X91902754Y-38507188D01*
X92068266Y-38505779D01*
X92227367Y-38530082D01*
G37*
G36*
X98112433Y-41353285D02*
G01*
X98191956Y-41204148D01*
X98304936Y-41084437D01*
X98432415Y-41002151D01*
X98502473Y-40968599D01*
X98562801Y-40947814D01*
X98628748Y-40936802D01*
X98715660Y-40932571D01*
X98791953Y-40932040D01*
X98908963Y-40934240D01*
X98994613Y-40942393D01*
X99063879Y-40958865D01*
X99130558Y-40985474D01*
X99281032Y-41078904D01*
X99401750Y-41207565D01*
X99482654Y-41347390D01*
X99512990Y-41418410D01*
X99532277Y-41481345D01*
X99542976Y-41550651D01*
X99547548Y-41640783D01*
X99548442Y-41733761D01*
X99543086Y-41903714D01*
X99523856Y-42039144D01*
X99486985Y-42150892D01*
X99428706Y-42249801D01*
X99345252Y-42346713D01*
X99330177Y-42361900D01*
X99232877Y-42448369D01*
X99142519Y-42504302D01*
X99075603Y-42530610D01*
X98931076Y-42560513D01*
X98770962Y-42567561D01*
X98616282Y-42551833D01*
X98525864Y-42528494D01*
X98363958Y-42451706D01*
X98236139Y-42344673D01*
X98141920Y-42206596D01*
X98080812Y-42036672D01*
X98052327Y-41834101D01*
X98049955Y-41747236D01*
X98050089Y-41745380D01*
X98328820Y-41745380D01*
X98344968Y-41929866D01*
X98393178Y-42082261D01*
X98473094Y-42201492D01*
X98482934Y-42211668D01*
X98591659Y-42289142D01*
X98720053Y-42329990D01*
X98857005Y-42332411D01*
X98991401Y-42294599D01*
X98992087Y-42294288D01*
X99106911Y-42217789D01*
X99196136Y-42108624D01*
X99237955Y-42019026D01*
X99259593Y-41917775D01*
X99268519Y-41790476D01*
X99265071Y-41655658D01*
X99249584Y-41531853D01*
X99227613Y-41450168D01*
X99159277Y-41328102D01*
X99065749Y-41238696D01*
X98954739Y-41181786D01*
X98833960Y-41157206D01*
X98711123Y-41164794D01*
X98593941Y-41204384D01*
X98490125Y-41275813D01*
X98407386Y-41378915D01*
X98366591Y-41468516D01*
X98346385Y-41553226D01*
X98332744Y-41659614D01*
X98328820Y-41745380D01*
X98050089Y-41745380D01*
X98065416Y-41533697D01*
X98112433Y-41353285D01*
G37*
G36*
X103720220Y-40130284D02*
G01*
X103441354Y-40130284D01*
X103441354Y-38526807D01*
X103720220Y-38526807D01*
X103720220Y-40130284D01*
G37*
G36*
X107670815Y-38759195D02*
G01*
X106764502Y-38759195D01*
X106764502Y-39200732D01*
X107461665Y-39200732D01*
X107461665Y-39433120D01*
X106764502Y-39433120D01*
X106764502Y-39897896D01*
X107694053Y-39897896D01*
X107694053Y-40130284D01*
X106508875Y-40130284D01*
X106508875Y-38526807D01*
X107670815Y-38526807D01*
X107670815Y-38759195D01*
G37*
G36*
X83828510Y-42051212D02*
G01*
X85025108Y-42051212D01*
X85039332Y-42090307D01*
X85078910Y-42136279D01*
X85113017Y-42168623D01*
X85297452Y-42316457D01*
X85515422Y-42454087D01*
X85754097Y-42574526D01*
X86000643Y-42670787D01*
X86081977Y-42696183D01*
X86198805Y-42729015D01*
X86280070Y-42747178D01*
X86334382Y-42750459D01*
X86370349Y-42738649D01*
X86396581Y-42711534D01*
X86411075Y-42688100D01*
X86449689Y-42620226D01*
X86352978Y-42604278D01*
X86109156Y-42545580D01*
X85856716Y-42451102D01*
X85607597Y-42326750D01*
X85373737Y-42178431D01*
X85180568Y-42024306D01*
X85119481Y-41971335D01*
X85073178Y-41934909D01*
X85050845Y-41922203D01*
X85050283Y-41922513D01*
X85041272Y-41949142D01*
X85029543Y-42001623D01*
X85028940Y-42004770D01*
X85025108Y-42051212D01*
X83828510Y-42051212D01*
X83798082Y-42004501D01*
X83621148Y-41653145D01*
X83481869Y-41280237D01*
X83393536Y-40943642D01*
X83373996Y-40817890D01*
X83359973Y-40657407D01*
X83351468Y-40473614D01*
X83348480Y-40277927D01*
X83348586Y-40269717D01*
X83658752Y-40269717D01*
X83672491Y-40594760D01*
X83715717Y-40896890D01*
X83791443Y-41188939D01*
X83902682Y-41483739D01*
X83986134Y-41664044D01*
X84039914Y-41772762D01*
X84076989Y-41844266D01*
X84100920Y-41883170D01*
X84115263Y-41894089D01*
X84123578Y-41881637D01*
X84129422Y-41850429D01*
X84129492Y-41849955D01*
X84130475Y-41794984D01*
X84114900Y-41731040D01*
X84079194Y-41646044D01*
X84053909Y-41594328D01*
X83986698Y-41444443D01*
X83919341Y-41265858D01*
X83857573Y-41075974D01*
X83807132Y-40892195D01*
X83778151Y-40757731D01*
X83761239Y-40624220D01*
X83751077Y-40459259D01*
X83748910Y-40347884D01*
X83828712Y-40347884D01*
X83850491Y-40636911D01*
X83861866Y-40713192D01*
X83911167Y-40949264D01*
X83977924Y-41181604D01*
X84057024Y-41393770D01*
X84107244Y-41502492D01*
X84146242Y-41577248D01*
X84172206Y-41616504D01*
X84191975Y-41626771D01*
X84212389Y-41614565D01*
X84218602Y-41608558D01*
X84240000Y-41582080D01*
X84244211Y-41552219D01*
X84230806Y-41503798D01*
X84214403Y-41460229D01*
X84107090Y-41162177D01*
X84028106Y-40891078D01*
X83976065Y-40638146D01*
X83949585Y-40394593D01*
X83948648Y-40295890D01*
X84036080Y-40295890D01*
X84061757Y-40630510D01*
X84126295Y-40953340D01*
X84172754Y-41106313D01*
X84223742Y-41250854D01*
X84265211Y-41355228D01*
X84300192Y-41424020D01*
X84331717Y-41461816D01*
X84362818Y-41473200D01*
X84396524Y-41462757D01*
X84405054Y-41457692D01*
X84421071Y-41437097D01*
X84414805Y-41400714D01*
X84390536Y-41347663D01*
X84303208Y-41139703D01*
X84233276Y-40900766D01*
X84183576Y-40644010D01*
X84156947Y-40382598D01*
X84153342Y-40253115D01*
X84232791Y-40253115D01*
X84257084Y-40591305D01*
X84326442Y-40925350D01*
X84431795Y-41229987D01*
X84468875Y-41316287D01*
X84496922Y-41368720D01*
X84523972Y-41396646D01*
X84558063Y-41409428D01*
X84590051Y-41414333D01*
X84647247Y-41420175D01*
X84679852Y-41421042D01*
X84682029Y-41420422D01*
X84675711Y-41398810D01*
X84653698Y-41345084D01*
X84620136Y-41269161D01*
X84604391Y-41234763D01*
X84558942Y-41125585D01*
X84511712Y-40994618D01*
X84471042Y-40865437D01*
X84461275Y-40830210D01*
X84437142Y-40733212D01*
X84420363Y-40646098D01*
X84409617Y-40556172D01*
X84403582Y-40450740D01*
X84400938Y-40317107D01*
X84400818Y-40297364D01*
X84480056Y-40297364D01*
X84487867Y-40478479D01*
X84505589Y-40636400D01*
X84511248Y-40668542D01*
X84567269Y-40899268D01*
X84642247Y-41114195D01*
X84732361Y-41304585D01*
X84833791Y-41461703D01*
X84884445Y-41521741D01*
X84944798Y-41593921D01*
X84995633Y-41667693D01*
X85018842Y-41711471D01*
X85057979Y-41773869D01*
X85127661Y-41854112D01*
X85219703Y-41944355D01*
X85325919Y-42036752D01*
X85438123Y-42123457D01*
X85477768Y-42151332D01*
X85741679Y-42306333D01*
X86029341Y-42429528D01*
X86314364Y-42511913D01*
X86397797Y-42528644D01*
X86464525Y-42535639D01*
X86530588Y-42532284D01*
X86612022Y-42517968D01*
X86704024Y-42497027D01*
X86785583Y-42481576D01*
X86850700Y-42482712D01*
X86925522Y-42501740D01*
X86948031Y-42509181D01*
X87012221Y-42529168D01*
X87064434Y-42538119D01*
X87120795Y-42536183D01*
X87197433Y-42523510D01*
X87254086Y-42512014D01*
X87571614Y-42423399D01*
X87867161Y-42293864D01*
X88141131Y-42123190D01*
X88393929Y-41911158D01*
X88430861Y-41874959D01*
X88645778Y-41628476D01*
X88820975Y-41360812D01*
X88955791Y-41075978D01*
X89049565Y-40777984D01*
X89101635Y-40470841D01*
X89111342Y-40158557D01*
X89078024Y-39845143D01*
X89001019Y-39534609D01*
X88879668Y-39230965D01*
X88869942Y-39210979D01*
X88706588Y-38930768D01*
X88507303Y-38678632D01*
X88274811Y-38456847D01*
X88011840Y-38267683D01*
X87721116Y-38113417D01*
X87418207Y-38000191D01*
X87337775Y-37976743D01*
X87267641Y-37959831D01*
X87197488Y-37948373D01*
X87117000Y-37941287D01*
X87015859Y-37937489D01*
X86883748Y-37935899D01*
X86802379Y-37935592D01*
X86647044Y-37935917D01*
X86528110Y-37938341D01*
X86435515Y-37943747D01*
X86359199Y-37953021D01*
X86289101Y-37967048D01*
X86215159Y-37986713D01*
X86212485Y-37987483D01*
X85892858Y-38102267D01*
X85599277Y-38253409D01*
X85334078Y-38438433D01*
X85099597Y-38654863D01*
X84898172Y-38900221D01*
X84732139Y-39172031D01*
X84603835Y-39467816D01*
X84515596Y-39785098D01*
X84515301Y-39786532D01*
X84493852Y-39934223D01*
X84482077Y-40110223D01*
X84480056Y-40297364D01*
X84400818Y-40297364D01*
X84400509Y-40246478D01*
X84401222Y-40091256D01*
X84405353Y-39970037D01*
X84413997Y-39870404D01*
X84428250Y-39779943D01*
X84449208Y-39686235D01*
X84450359Y-39681613D01*
X84554012Y-39358857D01*
X84696569Y-39059848D01*
X84875669Y-38786946D01*
X85088951Y-38542513D01*
X85334053Y-38328912D01*
X85608614Y-38148502D01*
X85910273Y-38003647D01*
X86234587Y-37897244D01*
X86327159Y-37875239D01*
X86413555Y-37860111D01*
X86506131Y-37850714D01*
X86617243Y-37845904D01*
X86759248Y-37844533D01*
X86802379Y-37844598D01*
X86951292Y-37846036D01*
X87066593Y-37850232D01*
X87161128Y-37858548D01*
X87247740Y-37872343D01*
X87339276Y-37892979D01*
X87394968Y-37907365D01*
X87705683Y-38012579D01*
X87992685Y-38154947D01*
X88253986Y-38330888D01*
X88487600Y-38536822D01*
X88691537Y-38769166D01*
X88863810Y-39024340D01*
X89002431Y-39298763D01*
X89105412Y-39588853D01*
X89170764Y-39891030D01*
X89196501Y-40201712D01*
X89180634Y-40517318D01*
X89121175Y-40834267D01*
X89086613Y-40954711D01*
X88964684Y-41265812D01*
X88803585Y-41553328D01*
X88605776Y-41814334D01*
X88373721Y-42045907D01*
X88109880Y-42245123D01*
X87894602Y-42370519D01*
X87734745Y-42445000D01*
X87560632Y-42512519D01*
X87389442Y-42567055D01*
X87238352Y-42602591D01*
X87226373Y-42604644D01*
X87127494Y-42620959D01*
X87176796Y-42690198D01*
X87212840Y-42733771D01*
X87249352Y-42749837D01*
X87306649Y-42745818D01*
X87322153Y-42743297D01*
X87392378Y-42727717D01*
X87486784Y-42701907D01*
X87585776Y-42671251D01*
X87592498Y-42669020D01*
X87814043Y-42582441D01*
X88038873Y-42472013D01*
X88219945Y-42364416D01*
X88325359Y-42286047D01*
X88447606Y-42180589D01*
X88576124Y-42058499D01*
X88700350Y-41930232D01*
X88809722Y-41806245D01*
X88892581Y-41698581D01*
X89069859Y-41402604D01*
X89204255Y-41091843D01*
X89295500Y-40770075D01*
X89343321Y-40441077D01*
X89347448Y-40108628D01*
X89307610Y-39776504D01*
X89223536Y-39448483D01*
X89094955Y-39128342D01*
X89079268Y-39096158D01*
X88908988Y-38802994D01*
X88705598Y-38539881D01*
X88472813Y-38308516D01*
X88214349Y-38110596D01*
X87933922Y-37947819D01*
X87635248Y-37821881D01*
X87322043Y-37734479D01*
X86998024Y-37687311D01*
X86666906Y-37682073D01*
X86332405Y-37720463D01*
X86152785Y-37759648D01*
X85834291Y-37864421D01*
X85533826Y-38009895D01*
X85255332Y-38192657D01*
X85002750Y-38409295D01*
X84780021Y-38656395D01*
X84591087Y-38930545D01*
X84439887Y-39228332D01*
X84430332Y-39251151D01*
X84319412Y-39579289D01*
X84253566Y-39914527D01*
X84232791Y-40253115D01*
X84153342Y-40253115D01*
X84153157Y-40246478D01*
X84175285Y-39890799D01*
X84241319Y-39550026D01*
X84350729Y-39225462D01*
X84502987Y-38918411D01*
X84697564Y-38630175D01*
X84905719Y-38390715D01*
X85062502Y-38245158D01*
X85244584Y-38102135D01*
X85437947Y-37971358D01*
X85628571Y-37862540D01*
X85749920Y-37805858D01*
X86081900Y-37692496D01*
X86424294Y-37623368D01*
X86772464Y-37598736D01*
X87121774Y-37618861D01*
X87467585Y-37684005D01*
X87543820Y-37704716D01*
X87856882Y-37818388D01*
X88151956Y-37972600D01*
X88425517Y-38163722D01*
X88674040Y-38388125D01*
X88893998Y-38642177D01*
X89081867Y-38922250D01*
X89234121Y-39224713D01*
X89347233Y-39545936D01*
X89353253Y-39567770D01*
X89375064Y-39651848D01*
X89390998Y-39725808D01*
X89401964Y-39799581D01*
X89408873Y-39883093D01*
X89412634Y-39986275D01*
X89414156Y-40119054D01*
X89414378Y-40234858D01*
X89413885Y-40394135D01*
X89411798Y-40516886D01*
X89407200Y-40613058D01*
X89399177Y-40692597D01*
X89386812Y-40765449D01*
X89369191Y-40841562D01*
X89352831Y-40903609D01*
X89244745Y-41220537D01*
X89097772Y-41523132D01*
X88916137Y-41805251D01*
X88704067Y-42060748D01*
X88465787Y-42283480D01*
X88336139Y-42382049D01*
X88112406Y-42525787D01*
X87882918Y-42643270D01*
X87634521Y-42740374D01*
X87354061Y-42822976D01*
X87342681Y-42825885D01*
X87279695Y-42846142D01*
X87250789Y-42870991D01*
X87243916Y-42910062D01*
X87245584Y-42936106D01*
X87254942Y-42952224D01*
X87278522Y-42957857D01*
X87322859Y-42952447D01*
X87394485Y-42935436D01*
X87499932Y-42906267D01*
X87589671Y-42880533D01*
X87898512Y-42768193D01*
X88195800Y-42614340D01*
X88475645Y-42423593D01*
X88732156Y-42200570D01*
X88959442Y-41949891D01*
X89151614Y-41676172D01*
X89174369Y-41638009D01*
X89329093Y-41327792D01*
X89443331Y-40999452D01*
X89516466Y-40658748D01*
X89547883Y-40311441D01*
X89536966Y-39963292D01*
X89483099Y-39620062D01*
X89416186Y-39375563D01*
X89287312Y-39054353D01*
X89118478Y-38752876D01*
X88913334Y-38474807D01*
X88675536Y-38223820D01*
X88408736Y-38003588D01*
X88116587Y-37817787D01*
X87802744Y-37670091D01*
X87673732Y-37623101D01*
X87332868Y-37532332D01*
X86990939Y-37486144D01*
X86651403Y-37482861D01*
X86317716Y-37520805D01*
X85993337Y-37598302D01*
X85681723Y-37713674D01*
X85386331Y-37865245D01*
X85110619Y-38051340D01*
X84858045Y-38270281D01*
X84632065Y-38520393D01*
X84436137Y-38799999D01*
X84273719Y-39107423D01*
X84191280Y-39311496D01*
X84100935Y-39627364D01*
X84049170Y-39958502D01*
X84036080Y-40295890D01*
X83948648Y-40295890D01*
X83947279Y-40151633D01*
X83967764Y-39900479D01*
X83968154Y-39897286D01*
X84034537Y-39543743D01*
X84144137Y-39203565D01*
X84294659Y-38880692D01*
X84483808Y-38579063D01*
X84709290Y-38302620D01*
X84968809Y-38055301D01*
X85102495Y-37949792D01*
X85400863Y-37755945D01*
X85712864Y-37604416D01*
X86034950Y-37494338D01*
X86363572Y-37424844D01*
X86695181Y-37395067D01*
X87026229Y-37404140D01*
X87353167Y-37451195D01*
X87672448Y-37535366D01*
X87980521Y-37655786D01*
X88273839Y-37811587D01*
X88548853Y-38001903D01*
X88802015Y-38225866D01*
X89029776Y-38482610D01*
X89228587Y-38771266D01*
X89346092Y-38986679D01*
X89463201Y-39254670D01*
X89546979Y-39519546D01*
X89600929Y-39795413D01*
X89628554Y-40096375D01*
X89630081Y-40130284D01*
X89622500Y-40494653D01*
X89570151Y-40848404D01*
X89474035Y-41188996D01*
X89335154Y-41513891D01*
X89154510Y-41820548D01*
X88933104Y-42106428D01*
X88791300Y-42256880D01*
X88528486Y-42489875D01*
X88250824Y-42681220D01*
X87951710Y-42835006D01*
X87705487Y-42929444D01*
X87593229Y-42965085D01*
X87485641Y-42995972D01*
X87397136Y-43018132D01*
X87353539Y-43026425D01*
X87279918Y-43043020D01*
X87238125Y-43072154D01*
X87223121Y-43097147D01*
X87203931Y-43143703D01*
X87197439Y-43166678D01*
X87218370Y-43172928D01*
X87275620Y-43167752D01*
X87360875Y-43152683D01*
X87465817Y-43129254D01*
X87582131Y-43098998D01*
X87614723Y-43089766D01*
X87933510Y-42979573D01*
X88225668Y-42839004D01*
X88498928Y-42663432D01*
X88761017Y-42448232D01*
X88885246Y-42329378D01*
X89137485Y-42048126D01*
X89345708Y-41752390D01*
X89510494Y-41440767D01*
X89632426Y-41111857D01*
X89712085Y-40764256D01*
X89750052Y-40396563D01*
X89753706Y-40234858D01*
X89738597Y-39902815D01*
X89691279Y-39594549D01*
X89608763Y-39297699D01*
X89488062Y-38999898D01*
X89423260Y-38867665D01*
X89235876Y-38552625D01*
X89013343Y-38266943D01*
X88757880Y-38012341D01*
X88471709Y-37790539D01*
X88157048Y-37603259D01*
X87816117Y-37452224D01*
X87453065Y-37339635D01*
X87367070Y-37319559D01*
X87287697Y-37304949D01*
X87204813Y-37294955D01*
X87108284Y-37288727D01*
X86987977Y-37285414D01*
X86833759Y-37284168D01*
X86790760Y-37284082D01*
X86632134Y-37284343D01*
X86509691Y-37286219D01*
X86413142Y-37290678D01*
X86332196Y-37298687D01*
X86256563Y-37311214D01*
X86175954Y-37329226D01*
X86096752Y-37349334D01*
X85733215Y-37466804D01*
X85393777Y-37622519D01*
X85080657Y-37814526D01*
X84796077Y-38040871D01*
X84542257Y-38299602D01*
X84321418Y-38588764D01*
X84135781Y-38906405D01*
X84013234Y-39181963D01*
X83929081Y-39447366D01*
X83869368Y-39739337D01*
X83835458Y-40044101D01*
X83828712Y-40347884D01*
X83748910Y-40347884D01*
X83747519Y-40276399D01*
X83750420Y-40089190D01*
X83759633Y-39911183D01*
X83775014Y-39755927D01*
X83789893Y-39665508D01*
X83889441Y-39294692D01*
X84028468Y-38945841D01*
X84204685Y-38621276D01*
X84415803Y-38323316D01*
X84659532Y-38054278D01*
X84933583Y-37816481D01*
X85235666Y-37612246D01*
X85563492Y-37443890D01*
X85914770Y-37313732D01*
X86179526Y-37245273D01*
X86389591Y-37212059D01*
X86626865Y-37194191D01*
X86874894Y-37191672D01*
X87117224Y-37204508D01*
X87337401Y-37232701D01*
X87400399Y-37244948D01*
X87759731Y-37341690D01*
X88090443Y-37473033D01*
X88397774Y-37641824D01*
X88686962Y-37850907D01*
X88943268Y-38083064D01*
X89193055Y-38360221D01*
X89400905Y-38653117D01*
X89569258Y-38966240D01*
X89700552Y-39304079D01*
X89791282Y-39643210D01*
X89809261Y-39740907D01*
X89821677Y-39847203D01*
X89829250Y-39972474D01*
X89832698Y-40127100D01*
X89833071Y-40246478D01*
X89831904Y-40405534D01*
X89828408Y-40530101D01*
X89821477Y-40632150D01*
X89810006Y-40723652D01*
X89792890Y-40816579D01*
X89771661Y-40911683D01*
X89662528Y-41278769D01*
X89512991Y-41623567D01*
X89324430Y-41944149D01*
X89098220Y-42238588D01*
X88835741Y-42504955D01*
X88538369Y-42741323D01*
X88397096Y-42835156D01*
X88163150Y-42965675D01*
X87908049Y-43079219D01*
X87645970Y-43170572D01*
X87391094Y-43234518D01*
X87249698Y-43257294D01*
X87164451Y-43273676D01*
X87089714Y-43298086D01*
X87057157Y-43315110D01*
X86992089Y-43351665D01*
X86918084Y-43381545D01*
X86917724Y-43381657D01*
X86894958Y-43392756D01*
X86910727Y-43398621D01*
X86957446Y-43399765D01*
X87027529Y-43396700D01*
X87113390Y-43389937D01*
X87207444Y-43379990D01*
X87302104Y-43367370D01*
X87389786Y-43352589D01*
X87411019Y-43348349D01*
X87779884Y-43248746D01*
X88127927Y-43108853D01*
X88452815Y-42931020D01*
X88752215Y-42717599D01*
X89023795Y-42470940D01*
X89265222Y-42193396D01*
X89474162Y-41887316D01*
X89648283Y-41555052D01*
X89785253Y-41198956D01*
X89873426Y-40866684D01*
X89906679Y-40653485D01*
X89923919Y-40413587D01*
X89925147Y-40163924D01*
X89910362Y-39921429D01*
X89879565Y-39703036D01*
X89873426Y-39672749D01*
X89774253Y-39299515D01*
X89640774Y-38955891D01*
X89470915Y-38637999D01*
X89262602Y-38341962D01*
X89013758Y-38063900D01*
X89010986Y-38061126D01*
X88725455Y-37805068D01*
X88421673Y-37590642D01*
X88096443Y-37416111D01*
X87746567Y-37279740D01*
X87401201Y-37186713D01*
X87266914Y-37165401D01*
X87099313Y-37150983D01*
X86911041Y-37143449D01*
X86714747Y-37142788D01*
X86523075Y-37148987D01*
X86348673Y-37162036D01*
X86204185Y-37181924D01*
X86174932Y-37187807D01*
X85871837Y-37271070D01*
X85564672Y-37387361D01*
X85269071Y-37529854D01*
X85000673Y-37691724D01*
X84966515Y-37715294D01*
X84806784Y-37840365D01*
X84638053Y-37995013D01*
X84471958Y-38167172D01*
X84320138Y-38344774D01*
X84194231Y-38515754D01*
X84193665Y-38516603D01*
X83999141Y-38844410D01*
X83849743Y-39177232D01*
X83744119Y-39519490D01*
X83680923Y-39875606D01*
X83658804Y-40250000D01*
X83658752Y-40269717D01*
X83348586Y-40269717D01*
X83351010Y-40081767D01*
X83359057Y-39896552D01*
X83372622Y-39733700D01*
X83391704Y-39604630D01*
X83393536Y-39595792D01*
X83499913Y-39202774D01*
X83645851Y-38830976D01*
X83829237Y-38482763D01*
X84047960Y-38160500D01*
X84299907Y-37866552D01*
X84582967Y-37603285D01*
X84895028Y-37373062D01*
X85233977Y-37178251D01*
X85597703Y-37021214D01*
X85734238Y-36974405D01*
X85917254Y-36919137D01*
X86080940Y-36878257D01*
X86238436Y-36849878D01*
X86402880Y-36832111D01*
X86587412Y-36823066D01*
X86802379Y-36820849D01*
X86974605Y-36822292D01*
X87111498Y-36826351D01*
X87224172Y-36833885D01*
X87323736Y-36845751D01*
X87421304Y-36862808D01*
X87466187Y-36872120D01*
X87866598Y-36980662D01*
X88243087Y-37128199D01*
X88594024Y-37313481D01*
X88917779Y-37535260D01*
X89212723Y-37792286D01*
X89477227Y-38083312D01*
X89709661Y-38407088D01*
X89893432Y-38732127D01*
X90047290Y-39090666D01*
X90158399Y-39463025D01*
X90226748Y-39844753D01*
X90252324Y-40231400D01*
X90235115Y-40618517D01*
X90175108Y-41001651D01*
X90072291Y-41376353D01*
X89926653Y-41738173D01*
X89901899Y-41789467D01*
X89703333Y-42140944D01*
X89470025Y-42462570D01*
X89204278Y-42752565D01*
X88908395Y-43009146D01*
X88584677Y-43230533D01*
X88235429Y-43414945D01*
X87862951Y-43560600D01*
X87478993Y-43663731D01*
X87372212Y-43681311D01*
X87233624Y-43696842D01*
X87075123Y-43709711D01*
X86908604Y-43719306D01*
X86745962Y-43725012D01*
X86599090Y-43726217D01*
X86479883Y-43722308D01*
X86430558Y-43717773D01*
X86020607Y-43644441D01*
X85633978Y-43531224D01*
X85268870Y-43377337D01*
X84923482Y-43181997D01*
X84596012Y-42944421D01*
X84533264Y-42892407D01*
X84256296Y-42627818D01*
X84010517Y-42330621D01*
X83997649Y-42310866D01*
X84424430Y-42310866D01*
X84431125Y-42336292D01*
X84462385Y-42376570D01*
X84522085Y-42438714D01*
X84602382Y-42515545D01*
X84695430Y-42599885D01*
X84793385Y-42684557D01*
X84888404Y-42762381D01*
X84941808Y-42803602D01*
X85085319Y-42900495D01*
X85259040Y-43001136D01*
X85448121Y-43097898D01*
X85637707Y-43183153D01*
X85803394Y-43246080D01*
X85964266Y-43294349D01*
X86140017Y-43337076D01*
X86316227Y-43371460D01*
X86478477Y-43394699D01*
X86612351Y-43403993D01*
X86616469Y-43404032D01*
X86744282Y-43404914D01*
X86657348Y-43373886D01*
X86585519Y-43344268D01*
X86524005Y-43312561D01*
X86517915Y-43308749D01*
X86465030Y-43286347D01*
X86387313Y-43266433D01*
X86337603Y-43258174D01*
X86000185Y-43191471D01*
X85667129Y-43079345D01*
X85340513Y-42922793D01*
X85022416Y-42722813D01*
X84714914Y-42480403D01*
X84710888Y-42476882D01*
X84629259Y-42410376D01*
X84553474Y-42357342D01*
X84489858Y-42320961D01*
X84488939Y-42320624D01*
X84684244Y-42320624D01*
X84761472Y-42402082D01*
X84892745Y-42523333D01*
X85057450Y-42648609D01*
X85243981Y-42770447D01*
X85440734Y-42881383D01*
X85636106Y-42973956D01*
X85676793Y-42990734D01*
X85788068Y-43032088D01*
X85908552Y-43071542D01*
X86030346Y-43107154D01*
X86145552Y-43136985D01*
X86246272Y-43159095D01*
X86324607Y-43171544D01*
X86372661Y-43172391D01*
X86384081Y-43164459D01*
X86368164Y-43103171D01*
X86329400Y-43054339D01*
X86282681Y-43035133D01*
X86223501Y-43027287D01*
X86132186Y-43005986D01*
X86019932Y-42974583D01*
X85897935Y-42936429D01*
X85777392Y-42894879D01*
X85669499Y-42853286D01*
X85654625Y-42847049D01*
X85452317Y-42747507D01*
X85236887Y-42616839D01*
X85020776Y-42462733D01*
X84975405Y-42427266D01*
X84889680Y-42361438D01*
X84829517Y-42322111D01*
X84786009Y-42304606D01*
X84750248Y-42304245D01*
X84743887Y-42305654D01*
X84684244Y-42320624D01*
X84488939Y-42320624D01*
X84444735Y-42304409D01*
X84424430Y-42310866D01*
X83997649Y-42310866D01*
X83930641Y-42207998D01*
X84902560Y-42207998D01*
X84905024Y-42239961D01*
X84940073Y-42282861D01*
X84979395Y-42318955D01*
X85259865Y-42534559D01*
X85565199Y-42711282D01*
X85892841Y-42847774D01*
X86093596Y-42908367D01*
X86202121Y-42936725D01*
X86273124Y-42953742D01*
X86314185Y-42959305D01*
X86332882Y-42953303D01*
X86336794Y-42935622D01*
X86333501Y-42906151D01*
X86333337Y-42904808D01*
X86326340Y-42875668D01*
X86307848Y-42853743D01*
X86269152Y-42834538D01*
X86201537Y-42813558D01*
X86110673Y-42789926D01*
X85846754Y-42704685D01*
X85580026Y-42583945D01*
X85325025Y-42435328D01*
X85096289Y-42266456D01*
X85070606Y-42244596D01*
X85006092Y-42192502D01*
X84964297Y-42169924D01*
X84936104Y-42172520D01*
X84929256Y-42177289D01*
X84902560Y-42207998D01*
X83930641Y-42207998D01*
X83828510Y-42051212D01*
G37*
G36*
X105688912Y-40948547D02*
G01*
X105891456Y-40955261D01*
X106014255Y-41303843D01*
X106066458Y-41454430D01*
X106122281Y-41619465D01*
X106175636Y-41780716D01*
X106220434Y-41919947D01*
X106227460Y-41942356D01*
X106317866Y-42232288D01*
X106369600Y-42058550D01*
X106393282Y-41982663D01*
X106429028Y-41872777D01*
X106473554Y-41738761D01*
X106523577Y-41590486D01*
X106575813Y-41437823D01*
X106583957Y-41414227D01*
X106746580Y-40943642D01*
X107136322Y-40943642D01*
X107136322Y-42547118D01*
X106874672Y-42547118D01*
X106884998Y-41895823D01*
X106887891Y-41705902D01*
X106889695Y-41558231D01*
X106890204Y-41448593D01*
X106889211Y-41372771D01*
X106886509Y-41326545D01*
X106881892Y-41305698D01*
X106875153Y-41306012D01*
X106866086Y-41323268D01*
X106857968Y-41343902D01*
X106839850Y-41393273D01*
X106808819Y-41479118D01*
X106767504Y-41594110D01*
X106718535Y-41730920D01*
X106664539Y-41882220D01*
X106624317Y-41995197D01*
X106428023Y-42547118D01*
X106311587Y-42546833D01*
X106195151Y-42546547D01*
X105965894Y-41896146D01*
X105908052Y-41732337D01*
X105855359Y-41583660D01*
X105809742Y-41455504D01*
X105773124Y-41353260D01*
X105747433Y-41282316D01*
X105734593Y-41248062D01*
X105733506Y-41245728D01*
X105732950Y-41267980D01*
X105732937Y-41330828D01*
X105733428Y-41428392D01*
X105734383Y-41554794D01*
X105735764Y-41704156D01*
X105737532Y-41870597D01*
X105737825Y-41896414D01*
X105745274Y-42547118D01*
X105486368Y-42547118D01*
X105486368Y-40941832D01*
X105688912Y-40948547D01*
G37*
G36*
X95400938Y-41414227D02*
G01*
X95488734Y-41557941D01*
X95573715Y-41698724D01*
X95651001Y-41828365D01*
X95715714Y-41938655D01*
X95762974Y-42021383D01*
X95777275Y-42047484D01*
X95864285Y-42210156D01*
X95864897Y-41576899D01*
X95865508Y-40943642D01*
X96121135Y-40943642D01*
X96121135Y-42549154D01*
X95954673Y-42542327D01*
X95788211Y-42535499D01*
X95488727Y-42047484D01*
X95401075Y-41903776D01*
X95317635Y-41765343D01*
X95242817Y-41639630D01*
X95181033Y-41534083D01*
X95136696Y-41456145D01*
X95120362Y-41425847D01*
X95084371Y-41357528D01*
X95057515Y-41309353D01*
X95046006Y-41292205D01*
X95044829Y-41314439D01*
X95044279Y-41377160D01*
X95044335Y-41474381D01*
X95044978Y-41600115D01*
X95046190Y-41748378D01*
X95047950Y-41913182D01*
X95048027Y-41919653D01*
X95055523Y-42547118D01*
X94796524Y-42547118D01*
X94796524Y-40943642D01*
X95111611Y-40943642D01*
X95400938Y-41414227D01*
G37*
G36*
X100484218Y-38531208D02*
G01*
X100660912Y-38535366D01*
X100798382Y-38542579D01*
X100903871Y-38554833D01*
X100984621Y-38574114D01*
X101047873Y-38602408D01*
X101100869Y-38641701D01*
X101150852Y-38693980D01*
X101172403Y-38719934D01*
X101226515Y-38819647D01*
X101254799Y-38946307D01*
X101254935Y-39086767D01*
X101246931Y-39142055D01*
X101211917Y-39230182D01*
X101145993Y-39320120D01*
X101061564Y-39396832D01*
X101010556Y-39428548D01*
X100933862Y-39467978D01*
X101141862Y-39787473D01*
X101211460Y-39895052D01*
X101271163Y-39988626D01*
X101316746Y-40061464D01*
X101343979Y-40106838D01*
X101349863Y-40118626D01*
X101328673Y-40124593D01*
X101273280Y-40128796D01*
X101200484Y-40130284D01*
X101051104Y-40130284D01*
X100641080Y-39479356D01*
X100478408Y-39485286D01*
X100315737Y-39491217D01*
X100309271Y-39810750D01*
X100302806Y-40130284D01*
X100048491Y-40130284D01*
X100048491Y-39270449D01*
X100304117Y-39270449D01*
X100524416Y-39270449D01*
X100679754Y-39264541D01*
X100794452Y-39247052D01*
X100834984Y-39234330D01*
X100915003Y-39185297D01*
X100961223Y-39112134D01*
X100977838Y-39007730D01*
X100978042Y-38991785D01*
X100958866Y-38893421D01*
X100922011Y-38836017D01*
X100896602Y-38808524D01*
X100870130Y-38789820D01*
X100833285Y-38777888D01*
X100776756Y-38770714D01*
X100691234Y-38766280D01*
X100585048Y-38763059D01*
X100304117Y-38755303D01*
X100304117Y-39270449D01*
X100048491Y-39270449D01*
X100048491Y-38523990D01*
X100484218Y-38531208D01*
G37*
G36*
X97186986Y-40925858D02*
G01*
X97329877Y-40943016D01*
X97451499Y-40975433D01*
X97472451Y-40984007D01*
X97536177Y-41019795D01*
X97607970Y-41071257D01*
X97677324Y-41129284D01*
X97733731Y-41184766D01*
X97766686Y-41228593D01*
X97771089Y-41242947D01*
X97754457Y-41267707D01*
X97711504Y-41310327D01*
X97668681Y-41347302D01*
X97566272Y-41431218D01*
X97518536Y-41350312D01*
X97440349Y-41260573D01*
X97334029Y-41196909D01*
X97211174Y-41161282D01*
X97083386Y-41155655D01*
X96962265Y-41181990D01*
X96862783Y-41239370D01*
X96816360Y-41286528D01*
X96799082Y-41335748D01*
X96799683Y-41392905D01*
X96811756Y-41451780D01*
X96842215Y-41499316D01*
X96897006Y-41539006D01*
X96982074Y-41574341D01*
X97103365Y-41608811D01*
X97209462Y-41633515D01*
X97396474Y-41682332D01*
X97541020Y-41738535D01*
X97646922Y-41805333D01*
X97718003Y-41885939D01*
X97758086Y-41983565D01*
X97770995Y-42101420D01*
X97771002Y-42105219D01*
X97749630Y-42242069D01*
X97687247Y-42359322D01*
X97586157Y-42454232D01*
X97448665Y-42524054D01*
X97408242Y-42537458D01*
X97294970Y-42559104D01*
X97156664Y-42567422D01*
X97012758Y-42562601D01*
X96882687Y-42544831D01*
X96831138Y-42531839D01*
X96714618Y-42484226D01*
X96605124Y-42418587D01*
X96517640Y-42344823D01*
X96482383Y-42301447D01*
X96441502Y-42239054D01*
X96539557Y-42143269D01*
X96597326Y-42092638D01*
X96635853Y-42070954D01*
X96648167Y-42075367D01*
X96703010Y-42161326D01*
X96792977Y-42237187D01*
X96906795Y-42295579D01*
X97033190Y-42329132D01*
X97037181Y-42329694D01*
X97174457Y-42335794D01*
X97293712Y-42316804D01*
X97389502Y-42276198D01*
X97456385Y-42217450D01*
X97488916Y-42144033D01*
X97481652Y-42059421D01*
X97477788Y-42048525D01*
X97452357Y-42013544D01*
X97400786Y-41980805D01*
X97317752Y-41948106D01*
X97197930Y-41913246D01*
X97081255Y-41884482D01*
X96884757Y-41829135D01*
X96729412Y-41765193D01*
X96616841Y-41693485D01*
X96548663Y-41614839D01*
X96546889Y-41611573D01*
X96513987Y-41508693D01*
X96507661Y-41388165D01*
X96527188Y-41269956D01*
X96562210Y-41188396D01*
X96654657Y-41079702D01*
X96778203Y-40994395D01*
X96914111Y-40942956D01*
X97042004Y-40925368D01*
X97186986Y-40925858D01*
G37*
G36*
X92209112Y-40943601D02*
G01*
X92359273Y-40995224D01*
X92421307Y-41030035D01*
X92481486Y-41079187D01*
X92542794Y-41145101D01*
X92595171Y-41214905D01*
X92628559Y-41275726D01*
X92635316Y-41303882D01*
X92616715Y-41324888D01*
X92570237Y-41353021D01*
X92509869Y-41382079D01*
X92449597Y-41405860D01*
X92403410Y-41418164D01*
X92385540Y-41414626D01*
X92350692Y-41347169D01*
X92296044Y-41273719D01*
X92238345Y-41216039D01*
X92225541Y-41206722D01*
X92144570Y-41175435D01*
X92038679Y-41163708D01*
X91924996Y-41171298D01*
X91820648Y-41197960D01*
X91787100Y-41212992D01*
X91687339Y-41290099D01*
X91609415Y-41400913D01*
X91556175Y-41536719D01*
X91530468Y-41688803D01*
X91535142Y-41848449D01*
X91551272Y-41934617D01*
X91603258Y-42084925D01*
X91677212Y-42197322D01*
X91776609Y-42276537D01*
X91817594Y-42297095D01*
X91924706Y-42326872D01*
X92042486Y-42331943D01*
X92153552Y-42313297D01*
X92238889Y-42273146D01*
X92291989Y-42223290D01*
X92348026Y-42155445D01*
X92392618Y-42088168D01*
X92408312Y-42054571D01*
X92432365Y-42047129D01*
X92483544Y-42054346D01*
X92546703Y-42071558D01*
X92606697Y-42094104D01*
X92648380Y-42117318D01*
X92658555Y-42131613D01*
X92648724Y-42164664D01*
X92624076Y-42220811D01*
X92612879Y-42243443D01*
X92538316Y-42348396D01*
X92433275Y-42442837D01*
X92313688Y-42513760D01*
X92254483Y-42536022D01*
X92119683Y-42561393D01*
X91967212Y-42567156D01*
X91818849Y-42553540D01*
X91722293Y-42530392D01*
X91578528Y-42459432D01*
X91458577Y-42354493D01*
X91363671Y-42222220D01*
X91295040Y-42069258D01*
X91253918Y-41902252D01*
X91241535Y-41727846D01*
X91259124Y-41552686D01*
X91307915Y-41383416D01*
X91389141Y-41226680D01*
X91462958Y-41131283D01*
X91576620Y-41038000D01*
X91718551Y-40971482D01*
X91878266Y-40932838D01*
X92045282Y-40923175D01*
X92209112Y-40943601D01*
G37*
G36*
X103301922Y-42547118D02*
G01*
X103023056Y-42547118D01*
X103023056Y-40943642D01*
X103301922Y-40943642D01*
X103301922Y-42547118D01*
G37*
G36*
X94866240Y-39897896D02*
G01*
X95749314Y-39897896D01*
X95749314Y-40130284D01*
X94610613Y-40130284D01*
X94610613Y-38526807D01*
X94866240Y-38526807D01*
X94866240Y-39897896D01*
G37*
G36*
X84701729Y-40480648D02*
G01*
X84694043Y-40345277D01*
X84694053Y-40085342D01*
X84718522Y-39852998D01*
X84770336Y-39634664D01*
X84852381Y-39416764D01*
X84922615Y-39270241D01*
X85080877Y-39010396D01*
X85269531Y-38782604D01*
X85484470Y-38587775D01*
X85721585Y-38426818D01*
X85976770Y-38300644D01*
X86245916Y-38210162D01*
X86524916Y-38156281D01*
X86809661Y-38139912D01*
X87096046Y-38161963D01*
X87379961Y-38223344D01*
X87657299Y-38324966D01*
X87923953Y-38467738D01*
X88075209Y-38572099D01*
X88299550Y-38769622D01*
X88494170Y-38999443D01*
X88654980Y-39255089D01*
X88777891Y-39530087D01*
X88857151Y-39809771D01*
X88887077Y-40026586D01*
X88895096Y-40263991D01*
X88881633Y-40502737D01*
X88847112Y-40723575D01*
X88835947Y-40770962D01*
X88739174Y-41062225D01*
X88604599Y-41330203D01*
X88435922Y-41572534D01*
X88236843Y-41786851D01*
X88011064Y-41970793D01*
X87762285Y-42121994D01*
X87494206Y-42238092D01*
X87210528Y-42316721D01*
X86914951Y-42355519D01*
X86611176Y-42352122D01*
X86403473Y-42324804D01*
X86107992Y-42248252D01*
X85829849Y-42130104D01*
X85572673Y-41973176D01*
X85340091Y-41780280D01*
X85135732Y-41554231D01*
X84963222Y-41297844D01*
X84883751Y-41146010D01*
X84809489Y-40976049D01*
X84756947Y-40819262D01*
X84752382Y-40798213D01*
X85156978Y-40798213D01*
X85179522Y-40847297D01*
X85233722Y-40891354D01*
X85331968Y-40936003D01*
X85429770Y-40937704D01*
X85489273Y-40920446D01*
X85531371Y-40894508D01*
X85528113Y-40867646D01*
X85480518Y-40842019D01*
X85447575Y-40832148D01*
X85389673Y-40806242D01*
X85375895Y-40775226D01*
X85405701Y-40746848D01*
X85454529Y-40732276D01*
X85571841Y-40701716D01*
X85654727Y-40655940D01*
X85704375Y-40603587D01*
X85751592Y-40538768D01*
X85850688Y-40607441D01*
X85917372Y-40660918D01*
X85995964Y-40734401D01*
X86067528Y-40809878D01*
X86185271Y-40943642D01*
X86329641Y-40943642D01*
X86438891Y-40938118D01*
X86519477Y-40923577D01*
X86568241Y-40903065D01*
X86582029Y-40879627D01*
X86557686Y-40856310D01*
X86492054Y-40836158D01*
X86448449Y-40828967D01*
X86349223Y-40815619D01*
X86353380Y-40618194D01*
X86357538Y-40420769D01*
X86510242Y-40413885D01*
X86587552Y-40413359D01*
X86642480Y-40418634D01*
X86662946Y-40428360D01*
X86654167Y-40460342D01*
X86631698Y-40518875D01*
X86613693Y-40561065D01*
X86564439Y-40672411D01*
X86611680Y-40769647D01*
X86639870Y-40823164D01*
X86668138Y-40853722D01*
X86710866Y-40869773D01*
X86782438Y-40879768D01*
X86802758Y-40881917D01*
X86881865Y-40887748D01*
X86942745Y-40887774D01*
X86968956Y-40883131D01*
X86974099Y-40859475D01*
X86951353Y-40825929D01*
X86913297Y-40795463D01*
X86872510Y-40781043D01*
X86869865Y-40780970D01*
X86830394Y-40774205D01*
X86822241Y-40751412D01*
X86846927Y-40708848D01*
X86905975Y-40642767D01*
X86939953Y-40608519D01*
X87075330Y-40474554D01*
X87235149Y-40634312D01*
X87392108Y-40779856D01*
X87531514Y-40885347D01*
X87652375Y-40950098D01*
X87720142Y-40969948D01*
X87801967Y-40977626D01*
X87891065Y-40976139D01*
X87969379Y-40966632D01*
X88017551Y-40951087D01*
X88019453Y-40930369D01*
X87991887Y-40900652D01*
X87947920Y-40871671D01*
X87900620Y-40853158D01*
X87882983Y-40850847D01*
X87848484Y-40847369D01*
X87818317Y-40833550D01*
X87784032Y-40802088D01*
X87737178Y-40745681D01*
X87689523Y-40683689D01*
X87616736Y-40570028D01*
X87558871Y-40446445D01*
X87544517Y-40404824D01*
X87521794Y-40328953D01*
X87505662Y-40272901D01*
X87499720Y-40249317D01*
X87519098Y-40244355D01*
X87567786Y-40250451D01*
X87630915Y-40264233D01*
X87693616Y-40282329D01*
X87741020Y-40301367D01*
X87748542Y-40305749D01*
X87796393Y-40331298D01*
X87825183Y-40339433D01*
X87855884Y-40355616D01*
X87898241Y-40395300D01*
X87904675Y-40402584D01*
X87944174Y-40442648D01*
X87972245Y-40449540D01*
X87997049Y-40434154D01*
X88028097Y-40416935D01*
X88066989Y-40420259D01*
X88128295Y-40444596D01*
X88202641Y-40468807D01*
X88247514Y-40463387D01*
X88259325Y-40430150D01*
X88243454Y-40386415D01*
X88225819Y-40337807D01*
X88241162Y-40321548D01*
X88285988Y-40337467D01*
X88341551Y-40351086D01*
X88375124Y-40346460D01*
X88415334Y-40325103D01*
X88449887Y-40297939D01*
X88466569Y-40276035D01*
X88459803Y-40269716D01*
X88427901Y-40250701D01*
X88386956Y-40202980D01*
X88346306Y-40140536D01*
X88315287Y-40077350D01*
X88303720Y-40035994D01*
X88283367Y-39965349D01*
X88246229Y-39897045D01*
X88245985Y-39896715D01*
X88212179Y-39837195D01*
X88196795Y-39782882D01*
X88196707Y-39779738D01*
X88190618Y-39745972D01*
X88163285Y-39737905D01*
X88124791Y-39743798D01*
X88064185Y-39746225D01*
X88020287Y-39717618D01*
X88010247Y-39706035D01*
X87974817Y-39672065D01*
X87947495Y-39674834D01*
X87938399Y-39682620D01*
X87907918Y-39698142D01*
X87871494Y-39677199D01*
X87867984Y-39674069D01*
X87828858Y-39646591D01*
X87760604Y-39605942D01*
X87675789Y-39559484D01*
X87645737Y-39543841D01*
X87551145Y-39495104D01*
X87461610Y-39448672D01*
X87393234Y-39412903D01*
X87381083Y-39406473D01*
X87305164Y-39376304D01*
X87213794Y-39353300D01*
X87181153Y-39348276D01*
X87104645Y-39344165D01*
X87035442Y-39355063D01*
X86953198Y-39384925D01*
X86921783Y-39398692D01*
X86849254Y-39429632D01*
X86791628Y-39447228D01*
X86732693Y-39453595D01*
X86656237Y-39450853D01*
X86575601Y-39443900D01*
X86448696Y-39434481D01*
X86304754Y-39427457D01*
X86173206Y-39424237D01*
X86163312Y-39424183D01*
X86054821Y-39425694D01*
X85975066Y-39433416D01*
X85906390Y-39450774D01*
X85831136Y-39481196D01*
X85803111Y-39494096D01*
X85713263Y-39545479D01*
X85622242Y-39613506D01*
X85536059Y-39691416D01*
X85460730Y-39772453D01*
X85402266Y-39849858D01*
X85366682Y-39916871D01*
X85359992Y-39966734D01*
X85368630Y-39982415D01*
X85369202Y-40009931D01*
X85355849Y-40064490D01*
X85346816Y-40091717D01*
X85326878Y-40163894D01*
X85307221Y-40261708D01*
X85291977Y-40364477D01*
X85291518Y-40368401D01*
X85263025Y-40522743D01*
X85216835Y-40640010D01*
X85211549Y-40649308D01*
X85167967Y-40735641D01*
X85156978Y-40798213D01*
X84752382Y-40798213D01*
X84722302Y-40659508D01*
X84701729Y-40480648D01*
G37*
G36*
X100317066Y-40943642D02*
G01*
X100497782Y-40945356D01*
X100639468Y-40951378D01*
X100749478Y-40963029D01*
X100835163Y-40981628D01*
X100903875Y-41008495D01*
X100962967Y-41044951D01*
X100987342Y-41063980D01*
X101075443Y-41153992D01*
X101126980Y-41254153D01*
X101147899Y-41377617D01*
X101149095Y-41421840D01*
X101133594Y-41567516D01*
X101084141Y-41684708D01*
X100997456Y-41779850D01*
X100948672Y-41815096D01*
X100891045Y-41858119D01*
X100855961Y-41895535D01*
X100850419Y-41913107D01*
X100865889Y-41941807D01*
X100902114Y-42001679D01*
X100954324Y-42085051D01*
X101017753Y-42184252D01*
X101046740Y-42229018D01*
X101112538Y-42331238D01*
X101168194Y-42419570D01*
X101209237Y-42486774D01*
X101231201Y-42525609D01*
X101233669Y-42531877D01*
X101212497Y-42539731D01*
X101157222Y-42545234D01*
X101086605Y-42547118D01*
X100939541Y-42547118D01*
X100743833Y-42234268D01*
X100548125Y-41921419D01*
X100379644Y-41920545D01*
X100211162Y-41919671D01*
X100211162Y-42547118D01*
X99932297Y-42547118D01*
X99932297Y-41687283D01*
X100211162Y-41687283D01*
X100432677Y-41687283D01*
X100574409Y-41682473D01*
X100682414Y-41668570D01*
X100735618Y-41653261D01*
X100812900Y-41598829D01*
X100859639Y-41520522D01*
X100875120Y-41430107D01*
X100858630Y-41339352D01*
X100809453Y-41260023D01*
X100761818Y-41221483D01*
X100717543Y-41199760D01*
X100663402Y-41186067D01*
X100588093Y-41178762D01*
X100480318Y-41176205D01*
X100449360Y-41176116D01*
X100211162Y-41176030D01*
X100211162Y-41687283D01*
X99932297Y-41687283D01*
X99932297Y-40943642D01*
X100317066Y-40943642D01*
G37*
G36*
X96330284Y-40130284D02*
G01*
X96051418Y-40130284D01*
X96051418Y-38526807D01*
X96330284Y-38526807D01*
X96330284Y-40130284D01*
G37*
G36*
X104003399Y-41507182D02*
G01*
X104006677Y-41708055D01*
X104011652Y-41867938D01*
X104019719Y-41992318D01*
X104032272Y-42086682D01*
X104050705Y-42156515D01*
X104076413Y-42207305D01*
X104110790Y-42244539D01*
X104155229Y-42273703D01*
X104204159Y-42297223D01*
X104314131Y-42328229D01*
X104433018Y-42333488D01*
X104543805Y-42313855D01*
X104621687Y-42276228D01*
X104663928Y-42242545D01*
X104697040Y-42206730D01*
X104722126Y-42162904D01*
X104740290Y-42105186D01*
X104752633Y-42027696D01*
X104760260Y-41924553D01*
X104764273Y-41789878D01*
X104765774Y-41617788D01*
X104765929Y-41507182D01*
X104765966Y-40943642D01*
X105044831Y-40943642D01*
X105044831Y-41520472D01*
X105044323Y-41709448D01*
X105042566Y-41858253D01*
X105039211Y-41973182D01*
X105033910Y-42060534D01*
X105026313Y-42126604D01*
X105016071Y-42177690D01*
X105006659Y-42209330D01*
X104939125Y-42339315D01*
X104837414Y-42445947D01*
X104711256Y-42519834D01*
X104670073Y-42534218D01*
X104538631Y-42559399D01*
X104386335Y-42567366D01*
X104234702Y-42558181D01*
X104107614Y-42532636D01*
X103998341Y-42479843D01*
X103895274Y-42396571D01*
X103812467Y-42296218D01*
X103769394Y-42210156D01*
X103757391Y-42154403D01*
X103747271Y-42062059D01*
X103738880Y-41930684D01*
X103732064Y-41757838D01*
X103726668Y-41541079D01*
X103726459Y-41530421D01*
X103715089Y-40943642D01*
X103996093Y-40943642D01*
X104003399Y-41507182D01*
G37*
G36*
X102999817Y-40132320D02*
G01*
X102833380Y-40125492D01*
X102666942Y-40118664D01*
X102387911Y-39665508D01*
X102300579Y-39522628D01*
X102215201Y-39381043D01*
X102137019Y-39249586D01*
X102071274Y-39137090D01*
X102023205Y-39052387D01*
X102012454Y-39032671D01*
X101916026Y-38852991D01*
X101926472Y-39491637D01*
X101936917Y-40130284D01*
X101675206Y-40130284D01*
X101675206Y-38526807D01*
X101988930Y-38526837D01*
X102290817Y-39020647D01*
X102379058Y-39165656D01*
X102463532Y-39305710D01*
X102539777Y-39433318D01*
X102603331Y-39540986D01*
X102649730Y-39621220D01*
X102667919Y-39653889D01*
X102743135Y-39793321D01*
X102744191Y-38526807D01*
X102999817Y-38526807D01*
X102999817Y-40132320D01*
G37*
G36*
X98187636Y-39035751D02*
G01*
X98258156Y-38864883D01*
X98360568Y-38720200D01*
X98412840Y-38668732D01*
X98533839Y-38583196D01*
X98669351Y-38530315D01*
X98828236Y-38507522D01*
X98965764Y-38508500D01*
X99155377Y-38538443D01*
X99316965Y-38605189D01*
X99449577Y-38707764D01*
X99552261Y-38845194D01*
X99624066Y-39016504D01*
X99664040Y-39220720D01*
X99664398Y-39224076D01*
X99666563Y-39376403D01*
X99645532Y-39537815D01*
X99604835Y-39690823D01*
X99548003Y-39817939D01*
X99542733Y-39826679D01*
X99437703Y-39954181D01*
X99302586Y-40052553D01*
X99145400Y-40119277D01*
X98974162Y-40151837D01*
X98796890Y-40147715D01*
X98638650Y-40110506D01*
X98475765Y-40031976D01*
X98345350Y-39920204D01*
X98247435Y-39775232D01*
X98182049Y-39597100D01*
X98152671Y-39425778D01*
X98152219Y-39340578D01*
X98437364Y-39340578D01*
X98452583Y-39499375D01*
X98492613Y-39641530D01*
X98553827Y-39756419D01*
X98595741Y-39804635D01*
X98699484Y-39872132D01*
X98825373Y-39907620D01*
X98960684Y-39909820D01*
X99092692Y-39877449D01*
X99133689Y-39858793D01*
X99214024Y-39798582D01*
X99286443Y-39710785D01*
X99292262Y-39701650D01*
X99325839Y-39642481D01*
X99347360Y-39586604D01*
X99360236Y-39519653D01*
X99367878Y-39427262D01*
X99370599Y-39371697D01*
X99369957Y-39209151D01*
X99350310Y-39079214D01*
X99309024Y-38970995D01*
X99252979Y-38885431D01*
X99164826Y-38808549D01*
X99050048Y-38759253D01*
X98921085Y-38739946D01*
X98790377Y-38753032D01*
X98709562Y-38780415D01*
X98595996Y-38856490D01*
X98512550Y-38967392D01*
X98459694Y-39112159D01*
X98437894Y-39289830D01*
X98437364Y-39340578D01*
X98152219Y-39340578D01*
X98151607Y-39225238D01*
X98187636Y-39035751D01*
G37*
G36*
X93396803Y-38538427D02*
G01*
X93731062Y-38538427D01*
X93981329Y-39200732D01*
X94046580Y-39373478D01*
X94108870Y-39538505D01*
X94165640Y-39689027D01*
X94214332Y-39818256D01*
X94252389Y-39919405D01*
X94277251Y-39985688D01*
X94281345Y-39996661D01*
X94331095Y-40130284D01*
X94186179Y-40130218D01*
X94041263Y-40130151D01*
X93969466Y-39926878D01*
X93897670Y-39723605D01*
X93562787Y-39717333D01*
X93227905Y-39711060D01*
X93084441Y-40118664D01*
X92941214Y-40125583D01*
X92866718Y-40128167D01*
X92815152Y-40128014D01*
X92798610Y-40125583D01*
X92806682Y-40103033D01*
X92829381Y-40041900D01*
X92864872Y-39947066D01*
X92911323Y-39823413D01*
X92966898Y-39675822D01*
X93029765Y-39509176D01*
X93040704Y-39480226D01*
X93317323Y-39480226D01*
X93328849Y-39491995D01*
X93363187Y-39498801D01*
X93427822Y-39501970D01*
X93530238Y-39502826D01*
X93550762Y-39502836D01*
X93676654Y-39500580D01*
X93757484Y-39493724D01*
X93794453Y-39482143D01*
X93797256Y-39476734D01*
X93789910Y-39446286D01*
X93769759Y-39380838D01*
X93739633Y-39289157D01*
X93702363Y-39180011D01*
X93690356Y-39145581D01*
X93650699Y-39032122D01*
X93616196Y-38932857D01*
X93589973Y-38856822D01*
X93575157Y-38813050D01*
X93573470Y-38807780D01*
X93562910Y-38816693D01*
X93540438Y-38862987D01*
X93508884Y-38939967D01*
X93471078Y-39040935D01*
X93450734Y-39098265D01*
X93409516Y-39215927D01*
X93372649Y-39320235D01*
X93343337Y-39402189D01*
X93324787Y-39452792D01*
X93321126Y-39462169D01*
X93317323Y-39480226D01*
X93040704Y-39480226D01*
X93098018Y-39328546D01*
X93396803Y-38538427D01*
G37*
G36*
X92946623Y-41430746D02*
G01*
X93012103Y-41271767D01*
X93098327Y-41146732D01*
X93216746Y-41045379D01*
X93361998Y-40973844D01*
X93524607Y-40932932D01*
X93695096Y-40923446D01*
X93863992Y-40946187D01*
X94021817Y-41001961D01*
X94119389Y-41060182D01*
X94237764Y-41173578D01*
X94328978Y-41318647D01*
X94390576Y-41487694D01*
X94420099Y-41673021D01*
X94415092Y-41866935D01*
X94402516Y-41946986D01*
X94347954Y-42134900D01*
X94263867Y-42288428D01*
X94147951Y-42410856D01*
X94018024Y-42495352D01*
X93896706Y-42539165D01*
X93750285Y-42563238D01*
X93596082Y-42566814D01*
X93451420Y-42549135D01*
X93365579Y-42523894D01*
X93274448Y-42478753D01*
X93182969Y-42419723D01*
X93152037Y-42395355D01*
X93048485Y-42277684D01*
X92972150Y-42130940D01*
X92923415Y-41964000D01*
X92902661Y-41785737D01*
X92906875Y-41685661D01*
X93197490Y-41685661D01*
X93200459Y-41874558D01*
X93230052Y-42027723D01*
X93287643Y-42148445D01*
X93374603Y-42240012D01*
X93447976Y-42285682D01*
X93585235Y-42329979D01*
X93728968Y-42331137D01*
X93858050Y-42293511D01*
X93971597Y-42217424D01*
X94055113Y-42106384D01*
X94108171Y-41961271D01*
X94130341Y-41782962D01*
X94131010Y-41733761D01*
X94113383Y-41557947D01*
X94064586Y-41410197D01*
X93987427Y-41293485D01*
X93884714Y-41210783D01*
X93759253Y-41165066D01*
X93613854Y-41159306D01*
X93591140Y-41161984D01*
X93455502Y-41201892D01*
X93344625Y-41281112D01*
X93269515Y-41379770D01*
X93236025Y-41445455D01*
X93215145Y-41513132D01*
X93203078Y-41598923D01*
X93197490Y-41685661D01*
X92906875Y-41685661D01*
X92910270Y-41605028D01*
X92946623Y-41430746D01*
G37*
G36*
X108298262Y-40130284D02*
G01*
X108042635Y-40130284D01*
X108042635Y-38526807D01*
X108298262Y-38526807D01*
X108298262Y-40130284D01*
G37*
D12*
%TO.C,REF\u002A\u002A*%
X67648748Y-34840000D02*
X69071252Y-34840000D01*
X67648748Y-37560000D02*
X69071252Y-37560000D01*
X125700000Y-76400000D02*
X128700000Y-76400000D01*
X126800000Y-77000000D02*
X126800000Y-75700000D01*
G36*
X127800000Y-77000000D02*
G01*
X126800000Y-76400000D01*
X127800000Y-75800000D01*
X127800000Y-77000000D01*
G37*
X127800000Y-77000000D02*
X126800000Y-76400000D01*
X127800000Y-75800000D01*
X127800000Y-77000000D01*
X59930000Y-90025000D02*
X59930000Y-84375000D01*
X51375000Y-92930000D02*
X57025000Y-92930000D01*
X57025000Y-81470000D02*
X51375000Y-81470000D01*
X48900000Y-87200000D02*
X49600000Y-86700000D01*
X48700000Y-84375000D02*
X48700000Y-90025000D01*
X48900000Y-87200000D02*
X49600000Y-87700000D01*
X61104300Y-33126500D02*
X46905700Y-33126500D01*
X46905700Y-44048500D02*
X61104300Y-44048500D01*
X45508700Y-40492500D02*
X46778700Y-41127500D01*
X46905700Y-33126500D02*
X46905700Y-44048500D01*
X46778700Y-41127500D02*
X45508700Y-41762500D01*
X61104300Y-44048500D02*
X61104300Y-33126500D01*
X45508700Y-41762500D02*
X45508700Y-40492500D01*
X129555000Y-79995000D02*
X125205000Y-79995000D01*
X123330000Y-82620000D02*
X124630000Y-82620000D01*
X123930000Y-83720000D02*
X123930000Y-80720000D01*
X129555000Y-79995000D02*
X129555000Y-83845000D01*
X125205000Y-83845000D02*
X129555000Y-83845000D01*
X125205000Y-83845000D02*
X125205000Y-79995000D01*
X126130000Y-80420000D02*
X129130000Y-80420000D01*
X129130000Y-80420000D02*
X129130000Y-83420000D01*
X129130000Y-83420000D02*
X126130000Y-83420000D01*
X126130000Y-83420000D02*
X126130000Y-80420000D01*
G36*
X123930000Y-82620000D02*
G01*
X123330000Y-81620000D01*
X124530000Y-81620000D01*
X123930000Y-82620000D01*
G37*
X123930000Y-82620000D02*
X123330000Y-81620000D01*
X124530000Y-81620000D01*
X123930000Y-82620000D01*
X68756359Y-88780000D02*
X69063641Y-88780000D01*
X68756359Y-88020000D02*
X69063641Y-88020000D01*
X125970000Y-78425000D02*
X125970000Y-79895000D01*
X128430000Y-78425000D02*
X125970000Y-78425000D01*
X125970000Y-79895000D02*
X128430000Y-79895000D01*
%TO.C,G\u002A\u002A\u002A*%
G36*
X153654198Y-36093662D02*
G01*
X153794480Y-36094124D01*
X153930735Y-36095381D01*
X154058291Y-36097329D01*
X154172474Y-36099867D01*
X154268611Y-36102893D01*
X154342029Y-36106306D01*
X154384764Y-36109616D01*
X154575105Y-36142352D01*
X154741786Y-36195460D01*
X154884591Y-36268775D01*
X155003302Y-36362131D01*
X155097702Y-36475364D01*
X155167574Y-36608307D01*
X155206867Y-36733863D01*
X155213557Y-36767257D01*
X155218865Y-36805845D01*
X155222892Y-36853144D01*
X155225737Y-36912669D01*
X155227501Y-36987935D01*
X155228284Y-37082459D01*
X155228184Y-37199755D01*
X155227304Y-37343339D01*
X155226591Y-37427260D01*
X155225163Y-37578968D01*
X155223756Y-37702582D01*
X155222150Y-37801600D01*
X155220124Y-37879520D01*
X155217459Y-37939839D01*
X155213936Y-37986054D01*
X155209334Y-38021664D01*
X155203434Y-38050166D01*
X155196016Y-38075057D01*
X155186860Y-38099835D01*
X155183837Y-38107525D01*
X155117235Y-38244877D01*
X155033716Y-38358586D01*
X154928719Y-38454086D01*
X154846798Y-38508967D01*
X154810703Y-38533391D01*
X154789719Y-38552962D01*
X154787563Y-38557809D01*
X154792482Y-38574813D01*
X154806644Y-38619051D01*
X154829154Y-38687835D01*
X154859121Y-38778479D01*
X154895649Y-38888294D01*
X154937846Y-39014593D01*
X154984817Y-39154689D01*
X155035670Y-39305894D01*
X155079789Y-39436732D01*
X155133208Y-39595310D01*
X155183475Y-39745199D01*
X155229694Y-39883683D01*
X155270969Y-40008047D01*
X155306406Y-40115574D01*
X155335107Y-40203548D01*
X155356177Y-40269253D01*
X155368720Y-40309973D01*
X155372015Y-40322797D01*
X155365997Y-40329562D01*
X155345769Y-40334537D01*
X155308074Y-40337868D01*
X155249653Y-40339704D01*
X155167247Y-40340193D01*
X155057598Y-40339482D01*
X155014892Y-40339010D01*
X154657769Y-40334764D01*
X154445944Y-39671331D01*
X154399243Y-39525000D01*
X154353459Y-39381426D01*
X154309935Y-39244825D01*
X154270013Y-39119416D01*
X154235035Y-39009415D01*
X154206344Y-38919039D01*
X154185280Y-38852505D01*
X154178247Y-38830193D01*
X154122374Y-38652488D01*
X153776617Y-38652488D01*
X153776617Y-40342662D01*
X153065796Y-40342662D01*
X153065796Y-38036443D01*
X153776617Y-38036443D01*
X154009609Y-38036355D01*
X154097522Y-38035222D01*
X154178919Y-38032171D01*
X154246285Y-38027624D01*
X154292104Y-38022006D01*
X154301344Y-38019952D01*
X154380529Y-37982657D01*
X154447684Y-37921563D01*
X154489339Y-37855442D01*
X154498283Y-37832824D01*
X154505198Y-37806417D01*
X154510340Y-37772065D01*
X154513962Y-37725617D01*
X154516317Y-37662919D01*
X154517659Y-37579817D01*
X154518243Y-37472157D01*
X154518336Y-37380908D01*
X154517945Y-37242268D01*
X154516282Y-37131279D01*
X154512614Y-37044008D01*
X154506208Y-36976517D01*
X154496333Y-36924873D01*
X154482254Y-36885140D01*
X154463238Y-36853383D01*
X154438554Y-36825666D01*
X154410215Y-36800358D01*
X154373022Y-36773351D01*
X154331342Y-36753496D01*
X154279789Y-36739787D01*
X154212976Y-36731216D01*
X154125515Y-36726778D01*
X154012020Y-36725463D01*
X154009609Y-36725462D01*
X153776617Y-36725373D01*
X153776617Y-38036443D01*
X153065796Y-38036443D01*
X153065796Y-36093533D01*
X153654198Y-36093662D01*
G37*
G36*
X156683085Y-40342662D02*
G01*
X155972264Y-40342662D01*
X155972264Y-36093533D01*
X156683085Y-36093533D01*
X156683085Y-40342662D01*
G37*
G36*
X159354808Y-36094007D02*
G01*
X159444953Y-36095534D01*
X159509057Y-36098271D01*
X159549890Y-36102372D01*
X159570222Y-36107994D01*
X159573757Y-36112569D01*
X159570880Y-36130118D01*
X159562476Y-36176899D01*
X159548883Y-36251101D01*
X159530439Y-36350914D01*
X159507483Y-36474526D01*
X159480353Y-36620128D01*
X159449388Y-36785907D01*
X159414925Y-36970053D01*
X159377304Y-37170756D01*
X159336863Y-37386205D01*
X159293939Y-37614589D01*
X159248873Y-37854096D01*
X159202001Y-38102918D01*
X159178856Y-38225681D01*
X159131253Y-38478194D01*
X159085290Y-38722168D01*
X159041306Y-38955800D01*
X158999639Y-39177289D01*
X158960626Y-39384832D01*
X158924605Y-39576628D01*
X158891915Y-39750873D01*
X158862894Y-39905766D01*
X158837879Y-40039505D01*
X158817209Y-40150288D01*
X158801221Y-40236311D01*
X158790254Y-40295774D01*
X158784645Y-40326874D01*
X158783956Y-40331210D01*
X158768865Y-40334340D01*
X158726412Y-40337144D01*
X158660827Y-40339500D01*
X158576339Y-40341283D01*
X158477177Y-40342373D01*
X158389055Y-40342662D01*
X158281112Y-40342223D01*
X158184419Y-40340988D01*
X158103205Y-40339080D01*
X158041700Y-40336622D01*
X158004132Y-40333738D01*
X157994155Y-40331174D01*
X157991281Y-40314547D01*
X157982884Y-40268679D01*
X157969302Y-40195371D01*
X157950874Y-40096426D01*
X157927937Y-39973645D01*
X157900829Y-39828832D01*
X157869888Y-39663788D01*
X157835451Y-39480314D01*
X157797858Y-39280214D01*
X157757446Y-39065289D01*
X157714552Y-38837342D01*
X157669515Y-38598174D01*
X157622673Y-38349588D01*
X157599254Y-38225367D01*
X157551635Y-37972687D01*
X157505658Y-37728446D01*
X157461661Y-37494457D01*
X157419983Y-37272528D01*
X157380961Y-37064472D01*
X157344934Y-36872099D01*
X157312241Y-36697220D01*
X157283220Y-36541644D01*
X157258208Y-36407184D01*
X157237545Y-36295649D01*
X157221569Y-36208851D01*
X157210619Y-36148599D01*
X157205031Y-36116705D01*
X157204354Y-36111994D01*
X157212236Y-36105596D01*
X157237764Y-36100932D01*
X157283764Y-36097888D01*
X157353057Y-36096346D01*
X157448470Y-36096189D01*
X157563211Y-36097185D01*
X157922069Y-36101431D01*
X158160345Y-37629213D01*
X158194046Y-37844887D01*
X158226478Y-38051644D01*
X158257301Y-38247358D01*
X158286174Y-38429902D01*
X158312757Y-38597151D01*
X158336709Y-38746978D01*
X158357690Y-38877256D01*
X158375360Y-38985859D01*
X158389377Y-39070661D01*
X158399402Y-39129535D01*
X158405094Y-39160356D01*
X158406196Y-39164571D01*
X158409642Y-39150407D01*
X158417560Y-39107136D01*
X158429611Y-39036872D01*
X158445451Y-38941731D01*
X158464741Y-38823828D01*
X158487139Y-38685279D01*
X158512304Y-38528199D01*
X158539894Y-38354703D01*
X158569568Y-38166906D01*
X158600985Y-37966924D01*
X158633803Y-37756872D01*
X158647577Y-37668380D01*
X158680981Y-37453718D01*
X158713128Y-37247485D01*
X158743673Y-37051878D01*
X158772269Y-36869093D01*
X158798573Y-36701328D01*
X158822237Y-36550780D01*
X158842917Y-36419645D01*
X158860267Y-36310119D01*
X158873942Y-36224400D01*
X158883595Y-36164684D01*
X158888883Y-36133169D01*
X158889668Y-36129074D01*
X158893079Y-36117356D01*
X158899800Y-36108547D01*
X158913871Y-36102231D01*
X158939333Y-36097993D01*
X158980227Y-36095419D01*
X159040593Y-36094095D01*
X159124471Y-36093604D01*
X159235855Y-36093533D01*
X159354808Y-36094007D01*
G37*
G36*
X168861816Y-40342662D02*
G01*
X168150995Y-40342662D01*
X168150995Y-36093533D01*
X168861816Y-36093533D01*
X168861816Y-40342662D01*
G37*
G36*
X161007245Y-36097355D02*
G01*
X161935262Y-36101431D01*
X161939545Y-36413402D01*
X161943827Y-36725373D01*
X160774254Y-36725373D01*
X160774254Y-37878483D01*
X161753607Y-37878483D01*
X161753607Y-38494071D01*
X161267880Y-38498248D01*
X160782152Y-38502426D01*
X160778015Y-39106623D01*
X160773879Y-39710821D01*
X161958956Y-39710821D01*
X161958956Y-40342662D01*
X160079229Y-40342662D01*
X160079229Y-36093280D01*
X161007245Y-36097355D01*
G37*
G36*
X144453017Y-35455255D02*
G01*
X144473223Y-35452064D01*
X144522880Y-35444681D01*
X144600313Y-35433343D01*
X144703849Y-35418291D01*
X144831815Y-35399763D01*
X144982536Y-35377999D01*
X145154338Y-35353238D01*
X145345549Y-35325719D01*
X145554494Y-35295682D01*
X145779500Y-35263366D01*
X146018893Y-35229009D01*
X146270998Y-35192852D01*
X146534144Y-35155134D01*
X146806655Y-35116094D01*
X147086857Y-35075970D01*
X147373078Y-35035003D01*
X147663644Y-34993432D01*
X147956880Y-34951495D01*
X148251114Y-34909432D01*
X148544671Y-34867483D01*
X148835877Y-34825887D01*
X149123059Y-34784882D01*
X149404544Y-34744709D01*
X149678657Y-34705606D01*
X149943725Y-34667812D01*
X150198073Y-34631568D01*
X150440029Y-34597111D01*
X150667919Y-34564682D01*
X150880068Y-34534520D01*
X151074804Y-34506864D01*
X151250451Y-34481953D01*
X151405338Y-34460026D01*
X151537789Y-34441323D01*
X151646132Y-34426083D01*
X151728692Y-34414545D01*
X151783796Y-34406949D01*
X151809770Y-34403533D01*
X151811594Y-34403359D01*
X151814249Y-34406828D01*
X151816690Y-34418052D01*
X151818924Y-34438256D01*
X151820960Y-34468662D01*
X151822807Y-34510496D01*
X151824473Y-34564981D01*
X151825967Y-34633341D01*
X151827298Y-34716800D01*
X151828475Y-34816582D01*
X151829506Y-34933912D01*
X151830400Y-35070013D01*
X151831165Y-35226110D01*
X151831810Y-35403426D01*
X151832344Y-35603185D01*
X151832776Y-35826612D01*
X151833114Y-36074930D01*
X151833367Y-36349364D01*
X151833543Y-36651138D01*
X151833652Y-36981475D01*
X151833702Y-37341601D01*
X151833707Y-37523072D01*
X151833660Y-37834556D01*
X151833522Y-38137515D01*
X151833298Y-38430444D01*
X151832992Y-38711838D01*
X151832609Y-38980192D01*
X151832153Y-39234001D01*
X151831629Y-39471761D01*
X151831041Y-39691967D01*
X151830394Y-39893115D01*
X151829693Y-40073698D01*
X151828941Y-40232213D01*
X151828145Y-40367154D01*
X151827307Y-40477017D01*
X151826433Y-40560297D01*
X151825527Y-40615489D01*
X151824594Y-40641089D01*
X151824283Y-40642786D01*
X151808159Y-40645934D01*
X151762466Y-40655188D01*
X151688572Y-40670268D01*
X151587846Y-40690892D01*
X151461657Y-40716777D01*
X151311376Y-40747641D01*
X151138371Y-40783204D01*
X150944011Y-40823183D01*
X150729665Y-40867296D01*
X150496703Y-40915261D01*
X150246494Y-40966797D01*
X149980408Y-41021622D01*
X149699812Y-41079454D01*
X149406077Y-41140011D01*
X149100572Y-41203011D01*
X148784667Y-41268172D01*
X148459729Y-41335214D01*
X148250433Y-41378404D01*
X147918619Y-41446883D01*
X147593966Y-41513883D01*
X147277909Y-41579109D01*
X146971886Y-41642263D01*
X146677331Y-41703050D01*
X146395681Y-41761173D01*
X146128371Y-41816336D01*
X145876837Y-41868242D01*
X145642516Y-41916596D01*
X145426842Y-41961101D01*
X145231253Y-42001461D01*
X145057184Y-42037379D01*
X144906070Y-42068559D01*
X144779348Y-42094705D01*
X144678453Y-42115520D01*
X144604822Y-42130709D01*
X144559890Y-42139975D01*
X144547793Y-42142467D01*
X144409578Y-42170912D01*
X144409578Y-36109329D01*
X145640162Y-36109329D01*
X145646102Y-37890330D01*
X145647156Y-38182317D01*
X145648277Y-38444147D01*
X145649487Y-38677258D01*
X145650805Y-38883083D01*
X145652251Y-39063060D01*
X145653845Y-39218625D01*
X145655608Y-39351212D01*
X145657560Y-39462257D01*
X145659720Y-39553198D01*
X145662108Y-39625469D01*
X145664745Y-39680506D01*
X145667651Y-39719745D01*
X145670845Y-39744622D01*
X145672062Y-39750311D01*
X145725093Y-39903424D01*
X145801141Y-40034968D01*
X145900291Y-40145020D01*
X146022628Y-40233660D01*
X146168239Y-40300965D01*
X146318891Y-40343285D01*
X146427471Y-40360041D01*
X146556830Y-40370296D01*
X146696827Y-40374037D01*
X146837322Y-40371248D01*
X146968173Y-40361912D01*
X147079240Y-40346016D01*
X147087003Y-40344453D01*
X147252818Y-40298897D01*
X147393634Y-40235135D01*
X147511334Y-40151562D01*
X147607799Y-40046572D01*
X147684909Y-39918559D01*
X147736855Y-39789801D01*
X147741321Y-39775066D01*
X147745315Y-39757983D01*
X147748868Y-39736762D01*
X147752012Y-39709614D01*
X147754779Y-39674748D01*
X147757201Y-39630373D01*
X147759311Y-39574700D01*
X147761139Y-39505939D01*
X147762717Y-39422298D01*
X147764079Y-39321989D01*
X147765255Y-39203220D01*
X147766278Y-39064202D01*
X147767180Y-38903145D01*
X147767992Y-38718257D01*
X147768747Y-38507749D01*
X147769476Y-38269832D01*
X147769734Y-38176232D01*
X148450685Y-38176232D01*
X148450788Y-38371861D01*
X148451316Y-38565310D01*
X148452270Y-38753764D01*
X148453651Y-38934410D01*
X148455458Y-39104433D01*
X148457692Y-39261019D01*
X148460353Y-39401355D01*
X148463441Y-39522625D01*
X148466958Y-39622017D01*
X148470903Y-39696715D01*
X148475277Y-39743905D01*
X148477141Y-39754422D01*
X148526287Y-39902820D01*
X148599155Y-40031019D01*
X148696063Y-40139287D01*
X148817328Y-40227892D01*
X148963265Y-40297101D01*
X149134193Y-40347182D01*
X149193100Y-40359009D01*
X149232829Y-40363060D01*
X149297427Y-40366032D01*
X149380182Y-40367774D01*
X149474385Y-40368136D01*
X149559080Y-40367234D01*
X149671582Y-40364664D01*
X149758851Y-40361022D01*
X149827243Y-40355702D01*
X149883113Y-40348096D01*
X149932818Y-40337599D01*
X149967070Y-40328286D01*
X150126157Y-40270285D01*
X150259107Y-40195978D01*
X150367888Y-40103483D01*
X150454469Y-39990920D01*
X150520817Y-39856410D01*
X150549533Y-39771937D01*
X150556793Y-39741383D01*
X150562812Y-39701278D01*
X150567764Y-39648245D01*
X150571825Y-39578910D01*
X150575170Y-39489899D01*
X150577974Y-39377835D01*
X150580413Y-39239345D01*
X150581619Y-39154012D01*
X150588676Y-38620896D01*
X149890796Y-38620896D01*
X149890796Y-39030815D01*
X149890088Y-39158903D01*
X149888067Y-39275086D01*
X149884891Y-39374928D01*
X149880720Y-39453993D01*
X149875709Y-39507845D01*
X149873297Y-39522332D01*
X149839354Y-39611973D01*
X149781807Y-39683362D01*
X149703863Y-39734955D01*
X149608729Y-39765210D01*
X149499610Y-39772584D01*
X149385640Y-39756927D01*
X149296985Y-39722070D01*
X149225181Y-39664473D01*
X149178603Y-39594185D01*
X149173324Y-39581365D01*
X149168713Y-39566292D01*
X149164725Y-39546866D01*
X149161316Y-39520985D01*
X149158439Y-39486550D01*
X149156051Y-39441459D01*
X149154105Y-39383610D01*
X149152558Y-39310905D01*
X149151363Y-39221241D01*
X149150475Y-39112517D01*
X149149851Y-38982634D01*
X149149444Y-38829490D01*
X149149209Y-38650984D01*
X149149102Y-38445015D01*
X149149077Y-38218097D01*
X149149104Y-37983617D01*
X149149215Y-37778628D01*
X149149455Y-37601029D01*
X149149868Y-37448719D01*
X149150501Y-37319599D01*
X149151398Y-37211566D01*
X149152605Y-37122520D01*
X149154165Y-37050360D01*
X149156125Y-36992985D01*
X149158530Y-36948296D01*
X149161424Y-36914189D01*
X149164852Y-36888566D01*
X149168861Y-36869324D01*
X149173494Y-36854364D01*
X149178603Y-36842010D01*
X149229170Y-36767430D01*
X149302237Y-36711151D01*
X149385640Y-36679267D01*
X149502997Y-36664035D01*
X149611711Y-36672757D01*
X149707707Y-36703888D01*
X149786913Y-36755885D01*
X149845255Y-36827202D01*
X149861356Y-36859640D01*
X149868791Y-36891932D01*
X149875028Y-36951179D01*
X149880134Y-37038516D01*
X149884174Y-37155078D01*
X149887212Y-37302001D01*
X149887394Y-37313775D01*
X149893546Y-37720523D01*
X150588909Y-37720523D01*
X150581845Y-37242693D01*
X150579385Y-37097550D01*
X150576594Y-36980201D01*
X150573251Y-36886844D01*
X150569130Y-36813683D01*
X150564008Y-36756917D01*
X150557662Y-36712747D01*
X150549868Y-36677375D01*
X150548216Y-36671374D01*
X150492966Y-36525129D01*
X150415678Y-36399702D01*
X150315199Y-36294017D01*
X150190379Y-36206998D01*
X150040066Y-36137569D01*
X149942910Y-36105560D01*
X149895897Y-36092869D01*
X149851213Y-36083559D01*
X149802714Y-36077121D01*
X149744257Y-36073048D01*
X149669697Y-36070830D01*
X149572891Y-36069958D01*
X149511692Y-36069869D01*
X149401163Y-36070228D01*
X149316043Y-36071653D01*
X149250153Y-36074662D01*
X149197315Y-36079772D01*
X149151350Y-36087503D01*
X149106079Y-36098374D01*
X149077856Y-36106278D01*
X148913390Y-36166578D01*
X148774484Y-36245165D01*
X148660533Y-36342623D01*
X148570930Y-36459537D01*
X148505070Y-36596491D01*
X148477534Y-36685253D01*
X148472980Y-36719133D01*
X148468848Y-36781788D01*
X148465137Y-36870404D01*
X148461849Y-36982167D01*
X148458984Y-37114262D01*
X148456541Y-37263876D01*
X148454522Y-37428195D01*
X148452926Y-37604404D01*
X148451755Y-37789689D01*
X148451008Y-37981236D01*
X148450685Y-38176232D01*
X147769734Y-38176232D01*
X147770211Y-38002713D01*
X147770465Y-37906126D01*
X147775153Y-36109329D01*
X147079785Y-36109329D01*
X147071207Y-39544963D01*
X147036023Y-39610766D01*
X146986364Y-39680091D01*
X146920679Y-39727666D01*
X146833159Y-39757430D01*
X146813908Y-39761336D01*
X146693394Y-39772489D01*
X146586377Y-39759659D01*
X146495749Y-39723876D01*
X146424404Y-39666170D01*
X146385008Y-39608581D01*
X146344590Y-39530034D01*
X146340169Y-37819681D01*
X146335749Y-36109329D01*
X145640162Y-36109329D01*
X144409578Y-36109329D01*
X144409578Y-35464202D01*
X144453017Y-35455255D01*
G37*
G36*
X151829827Y-40835291D02*
G01*
X151833212Y-40869397D01*
X151833707Y-40909322D01*
X151830339Y-40969774D01*
X151820944Y-41007781D01*
X151813962Y-41016794D01*
X151796814Y-41025400D01*
X151752926Y-41046599D01*
X151683988Y-41079593D01*
X151591692Y-41123581D01*
X151477729Y-41177767D01*
X151343790Y-41241351D01*
X151191566Y-41313536D01*
X151022750Y-41393522D01*
X150839031Y-41480512D01*
X150642102Y-41573707D01*
X150433654Y-41672308D01*
X150215378Y-41775518D01*
X149988965Y-41882538D01*
X149756107Y-41992569D01*
X149518494Y-42104812D01*
X149277819Y-42218471D01*
X149035773Y-42332745D01*
X148794046Y-42446837D01*
X148554331Y-42559949D01*
X148318317Y-42671281D01*
X148087698Y-42780036D01*
X147864164Y-42885414D01*
X147649406Y-42986619D01*
X147445115Y-43082850D01*
X147252984Y-43173311D01*
X147074703Y-43257202D01*
X146911963Y-43333724D01*
X146766456Y-43402081D01*
X146639873Y-43461472D01*
X146533906Y-43511100D01*
X146450245Y-43550166D01*
X146390582Y-43577873D01*
X146356609Y-43593420D01*
X146349023Y-43596642D01*
X146346452Y-43581378D01*
X146344062Y-43537715D01*
X146341910Y-43468845D01*
X146340054Y-43377961D01*
X146338550Y-43268256D01*
X146337455Y-43142921D01*
X146336825Y-43005150D01*
X146336692Y-42903538D01*
X146336692Y-42210433D01*
X146443315Y-42183840D01*
X146482818Y-42173922D01*
X146549587Y-42157076D01*
X146641721Y-42133785D01*
X146757320Y-42104531D01*
X146894483Y-42069798D01*
X147051308Y-42030066D01*
X147225894Y-41985820D01*
X147416341Y-41937542D01*
X147620748Y-41885713D01*
X147837213Y-41830816D01*
X148063836Y-41773335D01*
X148298716Y-41713750D01*
X148539951Y-41652546D01*
X148785641Y-41590204D01*
X149033884Y-41527207D01*
X149282781Y-41464037D01*
X149530429Y-41401176D01*
X149774928Y-41339108D01*
X150014377Y-41278315D01*
X150246875Y-41219279D01*
X150470520Y-41162482D01*
X150683413Y-41108408D01*
X150883651Y-41057538D01*
X151069335Y-41010355D01*
X151238563Y-40967342D01*
X151389433Y-40928981D01*
X151520046Y-40895755D01*
X151628500Y-40868145D01*
X151712893Y-40846635D01*
X151771326Y-40831707D01*
X151801897Y-40823844D01*
X151806064Y-40822737D01*
X151821456Y-40821864D01*
X151829827Y-40835291D01*
G37*
G36*
X174374627Y-36725373D02*
G01*
X173221518Y-36725373D01*
X173221518Y-37878483D01*
X174185075Y-37878483D01*
X174185075Y-38494528D01*
X173221518Y-38494528D01*
X173221518Y-39710821D01*
X174390423Y-39710821D01*
X174390423Y-40342662D01*
X172510697Y-40342662D01*
X172510697Y-36093533D01*
X174374627Y-36093533D01*
X174374627Y-36725373D01*
G37*
G36*
X170216325Y-36093662D02*
G01*
X170417952Y-36094365D01*
X170591286Y-36096635D01*
X170739604Y-36100859D01*
X170866185Y-36107424D01*
X170974305Y-36116719D01*
X171067241Y-36129129D01*
X171148272Y-36145043D01*
X171220674Y-36164847D01*
X171287724Y-36188929D01*
X171352701Y-36217675D01*
X171380031Y-36231167D01*
X171463108Y-36284399D01*
X171547649Y-36357514D01*
X171623878Y-36440872D01*
X171682021Y-36524830D01*
X171687039Y-36533963D01*
X171703180Y-36564298D01*
X171717414Y-36592403D01*
X171729863Y-36620365D01*
X171740644Y-36650273D01*
X171749878Y-36684216D01*
X171757685Y-36724281D01*
X171764185Y-36772557D01*
X171769497Y-36831132D01*
X171773741Y-36902095D01*
X171777036Y-36987533D01*
X171779503Y-37089535D01*
X171781262Y-37210190D01*
X171782431Y-37351585D01*
X171783131Y-37515809D01*
X171783482Y-37704950D01*
X171783603Y-37921096D01*
X171783614Y-38166336D01*
X171783613Y-38218097D01*
X171783612Y-38469265D01*
X171783528Y-38690932D01*
X171783238Y-38885190D01*
X171782621Y-39054131D01*
X171781553Y-39199846D01*
X171779914Y-39324427D01*
X171777581Y-39429966D01*
X171774432Y-39518554D01*
X171770345Y-39592283D01*
X171765197Y-39653244D01*
X171758866Y-39703529D01*
X171751231Y-39745229D01*
X171742169Y-39780437D01*
X171731558Y-39811243D01*
X171719276Y-39839740D01*
X171705201Y-39868019D01*
X171689210Y-39898171D01*
X171685055Y-39905954D01*
X171603212Y-40026242D01*
X171495892Y-40128406D01*
X171363871Y-40211893D01*
X171207925Y-40276150D01*
X171134665Y-40297483D01*
X171100750Y-40305857D01*
X171067252Y-40312811D01*
X171030811Y-40318515D01*
X170988071Y-40323137D01*
X170935674Y-40326847D01*
X170870262Y-40329814D01*
X170788476Y-40332206D01*
X170686959Y-40334194D01*
X170562353Y-40335945D01*
X170411300Y-40337630D01*
X170318999Y-40338557D01*
X169635821Y-40345270D01*
X169635821Y-39710821D01*
X170346642Y-39710821D01*
X170571735Y-39710733D01*
X170658338Y-39709560D01*
X170738515Y-39706405D01*
X170804541Y-39701716D01*
X170848692Y-39695938D01*
X170855573Y-39694330D01*
X170934758Y-39657035D01*
X171001913Y-39595941D01*
X171043568Y-39529820D01*
X171048878Y-39516772D01*
X171053499Y-39501158D01*
X171057479Y-39480823D01*
X171060865Y-39453611D01*
X171063705Y-39417368D01*
X171066047Y-39369940D01*
X171067939Y-39309170D01*
X171069427Y-39232905D01*
X171070560Y-39138989D01*
X171071385Y-39025268D01*
X171071949Y-38889586D01*
X171072302Y-38729788D01*
X171072489Y-38543721D01*
X171072559Y-38329228D01*
X171072565Y-38218097D01*
X171072534Y-37989514D01*
X171072407Y-37790368D01*
X171072138Y-37618504D01*
X171071679Y-37471768D01*
X171070982Y-37348003D01*
X171070000Y-37245056D01*
X171068685Y-37160772D01*
X171066989Y-37092995D01*
X171064864Y-37039571D01*
X171062264Y-36998345D01*
X171059140Y-36967161D01*
X171055445Y-36943865D01*
X171051131Y-36926303D01*
X171046150Y-36912318D01*
X171043568Y-36906374D01*
X170993826Y-36830848D01*
X170924529Y-36772536D01*
X170855573Y-36741865D01*
X170818299Y-36735879D01*
X170757162Y-36730867D01*
X170679888Y-36727275D01*
X170594201Y-36725549D01*
X170571735Y-36725462D01*
X170346642Y-36725373D01*
X170346642Y-39710821D01*
X169635821Y-39710821D01*
X169635821Y-36093533D01*
X170216325Y-36093662D01*
G37*
G36*
X166517157Y-36056154D02*
G01*
X166643501Y-36063810D01*
X166751968Y-36078186D01*
X166776742Y-36083193D01*
X166925773Y-36128310D01*
X167063761Y-36193719D01*
X167185806Y-36276091D01*
X167287005Y-36372095D01*
X167362459Y-36478401D01*
X167364884Y-36482842D01*
X167392100Y-36536321D01*
X167413807Y-36587909D01*
X167430621Y-36642040D01*
X167443156Y-36703147D01*
X167452027Y-36775665D01*
X167457848Y-36864028D01*
X167461234Y-36972668D01*
X167462801Y-37106020D01*
X167463109Y-37191356D01*
X167463869Y-37617849D01*
X166768844Y-37617849D01*
X166760946Y-37246642D01*
X166757910Y-37118892D01*
X166754267Y-37018466D01*
X166749094Y-36941099D01*
X166741467Y-36882524D01*
X166730465Y-36838476D01*
X166715164Y-36804688D01*
X166694643Y-36776894D01*
X166667977Y-36750828D01*
X166650450Y-36735760D01*
X166575576Y-36691393D01*
X166486332Y-36667369D01*
X166390776Y-36663206D01*
X166296966Y-36678427D01*
X166212959Y-36712552D01*
X166146814Y-36765101D01*
X166146237Y-36765755D01*
X166112066Y-36814312D01*
X166086370Y-36867469D01*
X166082667Y-36878953D01*
X166075730Y-36921945D01*
X166070739Y-36988863D01*
X166067688Y-37072099D01*
X166066567Y-37164048D01*
X166067369Y-37257104D01*
X166070087Y-37343659D01*
X166074712Y-37416108D01*
X166081237Y-37466845D01*
X166083282Y-37475684D01*
X166103594Y-37525209D01*
X166139032Y-37575365D01*
X166192034Y-37628104D01*
X166265036Y-37685376D01*
X166360475Y-37749132D01*
X166480787Y-37821323D01*
X166595954Y-37886114D01*
X166763372Y-37979868D01*
X166904791Y-38062818D01*
X167023034Y-38137094D01*
X167120925Y-38204829D01*
X167201286Y-38268153D01*
X167266942Y-38329199D01*
X167320714Y-38390097D01*
X167365427Y-38452980D01*
X167381381Y-38479121D01*
X167405539Y-38522908D01*
X167425113Y-38565917D01*
X167440525Y-38611920D01*
X167452194Y-38664691D01*
X167460541Y-38728003D01*
X167465987Y-38805628D01*
X167468951Y-38901340D01*
X167469854Y-39018911D01*
X167469117Y-39162114D01*
X167468112Y-39257628D01*
X167466342Y-39399069D01*
X167464532Y-39512772D01*
X167462420Y-39602591D01*
X167459746Y-39672380D01*
X167456250Y-39725991D01*
X167451672Y-39767278D01*
X167445749Y-39800096D01*
X167438222Y-39828296D01*
X167428830Y-39855734D01*
X167427398Y-39859608D01*
X167362229Y-39997588D01*
X167277050Y-40112805D01*
X167170343Y-40206538D01*
X167040593Y-40280066D01*
X166886282Y-40334667D01*
X166854109Y-40342995D01*
X166769756Y-40358659D01*
X166662997Y-40370966D01*
X166542879Y-40379533D01*
X166418446Y-40383981D01*
X166298745Y-40383929D01*
X166192822Y-40378995D01*
X166137003Y-40373178D01*
X165956772Y-40336559D01*
X165799883Y-40279333D01*
X165666656Y-40201762D01*
X165557412Y-40104107D01*
X165472471Y-39986631D01*
X165412154Y-39849595D01*
X165388605Y-39761381D01*
X165383180Y-39718684D01*
X165378605Y-39647820D01*
X165374991Y-39552205D01*
X165372451Y-39435256D01*
X165371096Y-39300389D01*
X165370896Y-39220367D01*
X165370896Y-38763060D01*
X166065921Y-38763060D01*
X166065921Y-39515604D01*
X166109360Y-39601366D01*
X166165969Y-39680552D01*
X166242972Y-39736035D01*
X166339109Y-39767120D01*
X166421331Y-39774005D01*
X166530744Y-39761318D01*
X166621947Y-39723719D01*
X166693684Y-39661905D01*
X166733303Y-39601366D01*
X166748916Y-39569452D01*
X166760255Y-39540879D01*
X166768002Y-39509915D01*
X166772841Y-39470825D01*
X166775454Y-39417875D01*
X166776527Y-39345332D01*
X166776741Y-39247461D01*
X166776742Y-39236922D01*
X166775696Y-39114043D01*
X166771763Y-39017656D01*
X166763743Y-38942705D01*
X166750440Y-38884135D01*
X166730656Y-38836891D01*
X166703195Y-38795917D01*
X166666859Y-38756159D01*
X166661673Y-38751062D01*
X166627134Y-38723250D01*
X166569061Y-38683225D01*
X166491759Y-38633712D01*
X166399528Y-38577439D01*
X166296672Y-38517133D01*
X166255473Y-38493601D01*
X166087000Y-38396725D01*
X165944385Y-38311434D01*
X165824999Y-38235660D01*
X165726210Y-38167335D01*
X165645387Y-38104390D01*
X165579900Y-38044757D01*
X165527117Y-37986368D01*
X165484409Y-37927155D01*
X165449144Y-37865051D01*
X165444800Y-37856311D01*
X165424230Y-37811787D01*
X165407882Y-37768639D01*
X165395274Y-37722567D01*
X165385926Y-37669274D01*
X165379357Y-37604459D01*
X165375086Y-37523823D01*
X165372634Y-37423068D01*
X165371520Y-37297894D01*
X165371282Y-37198624D01*
X165371559Y-37057597D01*
X165372784Y-36944218D01*
X165375136Y-36854552D01*
X165378790Y-36784663D01*
X165383924Y-36730616D01*
X165390715Y-36688476D01*
X165395090Y-36669457D01*
X165447985Y-36522161D01*
X165525890Y-36394055D01*
X165628528Y-36285392D01*
X165755624Y-36196425D01*
X165906898Y-36127408D01*
X166028417Y-36090756D01*
X166128568Y-36072519D01*
X166249921Y-36060607D01*
X166382707Y-36055120D01*
X166517157Y-36056154D01*
G37*
G36*
X163179198Y-36093662D02*
G01*
X163319480Y-36094124D01*
X163455735Y-36095381D01*
X163583291Y-36097329D01*
X163697474Y-36099867D01*
X163793611Y-36102893D01*
X163867029Y-36106306D01*
X163909764Y-36109616D01*
X164100002Y-36142196D01*
X164266497Y-36194861D01*
X164408987Y-36267465D01*
X164527209Y-36359860D01*
X164620902Y-36471897D01*
X164656115Y-36530782D01*
X164680557Y-36578519D01*
X164700694Y-36623830D01*
X164716902Y-36670268D01*
X164729559Y-36721386D01*
X164739040Y-36780735D01*
X164745723Y-36851869D01*
X164749984Y-36938339D01*
X164752202Y-37043699D01*
X164752751Y-37171501D01*
X164752010Y-37325296D01*
X164751148Y-37426614D01*
X164749674Y-37578605D01*
X164748213Y-37702536D01*
X164746547Y-37801938D01*
X164744457Y-37880345D01*
X164741725Y-37941286D01*
X164738133Y-37988294D01*
X164733463Y-38024899D01*
X164727496Y-38054635D01*
X164720015Y-38081031D01*
X164710801Y-38107620D01*
X164708721Y-38113299D01*
X164648200Y-38236654D01*
X164563242Y-38351000D01*
X164461000Y-38447288D01*
X164423135Y-38474596D01*
X164374014Y-38508483D01*
X164336471Y-38536524D01*
X164317251Y-38553624D01*
X164316158Y-38555393D01*
X164320303Y-38572186D01*
X164333749Y-38616241D01*
X164355625Y-38684911D01*
X164385062Y-38775549D01*
X164421191Y-38885507D01*
X164463140Y-39012138D01*
X164510042Y-39152794D01*
X164561027Y-39304828D01*
X164611711Y-39455197D01*
X164911568Y-40342662D01*
X164188806Y-40342662D01*
X164133049Y-40172855D01*
X164115286Y-40118266D01*
X164089464Y-40038232D01*
X164057079Y-39937420D01*
X164019627Y-39820498D01*
X163978602Y-39692133D01*
X163935499Y-39556993D01*
X163893960Y-39426493D01*
X163851518Y-39293070D01*
X163810837Y-39165287D01*
X163773208Y-39047185D01*
X163739920Y-38942809D01*
X163712262Y-38856201D01*
X163691525Y-38791404D01*
X163678996Y-38752462D01*
X163678591Y-38751213D01*
X163646554Y-38652488D01*
X163301617Y-38652488D01*
X163301617Y-40342662D01*
X162590796Y-40342662D01*
X162590796Y-38036443D01*
X163301617Y-38036443D01*
X163534609Y-38036355D01*
X163622624Y-38035204D01*
X163704223Y-38032103D01*
X163771855Y-38027482D01*
X163817971Y-38021772D01*
X163827267Y-38019697D01*
X163904346Y-37983065D01*
X163970806Y-37922464D01*
X164018708Y-37845405D01*
X164023260Y-37834308D01*
X164032515Y-37806705D01*
X164039578Y-37775048D01*
X164044730Y-37734848D01*
X164048257Y-37681613D01*
X164050442Y-37610851D01*
X164051570Y-37518073D01*
X164051924Y-37398787D01*
X164051928Y-37380908D01*
X164051301Y-37242558D01*
X164048897Y-37131723D01*
X164043931Y-37044344D01*
X164035617Y-36976360D01*
X164023171Y-36923710D01*
X164005807Y-36882335D01*
X163982741Y-36848173D01*
X163953187Y-36817164D01*
X163940763Y-36805951D01*
X163903196Y-36777164D01*
X163861911Y-36755959D01*
X163811487Y-36741263D01*
X163746505Y-36732001D01*
X163661546Y-36727100D01*
X163551190Y-36725486D01*
X163534609Y-36725462D01*
X163301617Y-36725373D01*
X163301617Y-38036443D01*
X162590796Y-38036443D01*
X162590796Y-36093533D01*
X163179198Y-36093662D01*
G37*
%TD*%
M02*
