%TF.GenerationSoftware,KiCad,Pcbnew,8.0.2-1*%
%TF.CreationDate,2024-09-17T16:57:38-04:00*%
%TF.ProjectId,Dummy Board,44756d6d-7920-4426-9f61-72642e6b6963,rev?*%
%TF.SameCoordinates,Original*%
%TF.FileFunction,Legend,Top*%
%TF.FilePolarity,Positive*%
%FSLAX46Y46*%
G04 Gerber Fmt 4.6, Leading zero omitted, Abs format (unit mm)*
G04 Created by KiCad (PCBNEW 8.0.2-1) date 2024-09-17 16:57:38*
%MOMM*%
%LPD*%
G01*
G04 APERTURE LIST*
%ADD10C,0.100000*%
%ADD11C,0.150000*%
%ADD12C,0.120000*%
%ADD13C,0.200000*%
G04 APERTURE END LIST*
D10*
X207468169Y-106616969D02*
X207468169Y-105766969D01*
X207751503Y-105766969D02*
X208034836Y-106616969D01*
X208034836Y-106616969D02*
X208318170Y-105766969D01*
X209532455Y-106171731D02*
X209653883Y-106212207D01*
X209653883Y-106212207D02*
X209694360Y-106252683D01*
X209694360Y-106252683D02*
X209734836Y-106333635D01*
X209734836Y-106333635D02*
X209734836Y-106455064D01*
X209734836Y-106455064D02*
X209694360Y-106536016D01*
X209694360Y-106536016D02*
X209653883Y-106576493D01*
X209653883Y-106576493D02*
X209572931Y-106616969D01*
X209572931Y-106616969D02*
X209249121Y-106616969D01*
X209249121Y-106616969D02*
X209249121Y-105766969D01*
X209249121Y-105766969D02*
X209532455Y-105766969D01*
X209532455Y-105766969D02*
X209613407Y-105807445D01*
X209613407Y-105807445D02*
X209653883Y-105847921D01*
X209653883Y-105847921D02*
X209694360Y-105928873D01*
X209694360Y-105928873D02*
X209694360Y-106009826D01*
X209694360Y-106009826D02*
X209653883Y-106090778D01*
X209653883Y-106090778D02*
X209613407Y-106131254D01*
X209613407Y-106131254D02*
X209532455Y-106171731D01*
X209532455Y-106171731D02*
X209249121Y-106171731D01*
X210220550Y-106616969D02*
X210139598Y-106576493D01*
X210139598Y-106576493D02*
X210099121Y-106536016D01*
X210099121Y-106536016D02*
X210058645Y-106455064D01*
X210058645Y-106455064D02*
X210058645Y-106212207D01*
X210058645Y-106212207D02*
X210099121Y-106131254D01*
X210099121Y-106131254D02*
X210139598Y-106090778D01*
X210139598Y-106090778D02*
X210220550Y-106050302D01*
X210220550Y-106050302D02*
X210341979Y-106050302D01*
X210341979Y-106050302D02*
X210422931Y-106090778D01*
X210422931Y-106090778D02*
X210463407Y-106131254D01*
X210463407Y-106131254D02*
X210503883Y-106212207D01*
X210503883Y-106212207D02*
X210503883Y-106455064D01*
X210503883Y-106455064D02*
X210463407Y-106536016D01*
X210463407Y-106536016D02*
X210422931Y-106576493D01*
X210422931Y-106576493D02*
X210341979Y-106616969D01*
X210341979Y-106616969D02*
X210220550Y-106616969D01*
X211232455Y-106616969D02*
X211232455Y-106171731D01*
X211232455Y-106171731D02*
X211191979Y-106090778D01*
X211191979Y-106090778D02*
X211111027Y-106050302D01*
X211111027Y-106050302D02*
X210949122Y-106050302D01*
X210949122Y-106050302D02*
X210868169Y-106090778D01*
X211232455Y-106576493D02*
X211151503Y-106616969D01*
X211151503Y-106616969D02*
X210949122Y-106616969D01*
X210949122Y-106616969D02*
X210868169Y-106576493D01*
X210868169Y-106576493D02*
X210827693Y-106495540D01*
X210827693Y-106495540D02*
X210827693Y-106414588D01*
X210827693Y-106414588D02*
X210868169Y-106333635D01*
X210868169Y-106333635D02*
X210949122Y-106293159D01*
X210949122Y-106293159D02*
X211151503Y-106293159D01*
X211151503Y-106293159D02*
X211232455Y-106252683D01*
X211637217Y-106616969D02*
X211637217Y-106050302D01*
X211637217Y-106212207D02*
X211677694Y-106131254D01*
X211677694Y-106131254D02*
X211718170Y-106090778D01*
X211718170Y-106090778D02*
X211799122Y-106050302D01*
X211799122Y-106050302D02*
X211880075Y-106050302D01*
X212527693Y-106616969D02*
X212527693Y-105766969D01*
X212527693Y-106576493D02*
X212446741Y-106616969D01*
X212446741Y-106616969D02*
X212284836Y-106616969D01*
X212284836Y-106616969D02*
X212203884Y-106576493D01*
X212203884Y-106576493D02*
X212163407Y-106536016D01*
X212163407Y-106536016D02*
X212122931Y-106455064D01*
X212122931Y-106455064D02*
X212122931Y-106212207D01*
X212122931Y-106212207D02*
X212163407Y-106131254D01*
X212163407Y-106131254D02*
X212203884Y-106090778D01*
X212203884Y-106090778D02*
X212284836Y-106050302D01*
X212284836Y-106050302D02*
X212446741Y-106050302D01*
X212446741Y-106050302D02*
X212527693Y-106090778D01*
X207913408Y-107985421D02*
X207427693Y-107985421D01*
X207670550Y-107985421D02*
X207670550Y-107135421D01*
X207670550Y-107135421D02*
X207589598Y-107256849D01*
X207589598Y-107256849D02*
X207508646Y-107337802D01*
X207508646Y-107337802D02*
X207427693Y-107378278D01*
X208196741Y-107135421D02*
X208722932Y-107135421D01*
X208722932Y-107135421D02*
X208439598Y-107459230D01*
X208439598Y-107459230D02*
X208561027Y-107459230D01*
X208561027Y-107459230D02*
X208641979Y-107499706D01*
X208641979Y-107499706D02*
X208682455Y-107540183D01*
X208682455Y-107540183D02*
X208722932Y-107621135D01*
X208722932Y-107621135D02*
X208722932Y-107823516D01*
X208722932Y-107823516D02*
X208682455Y-107904468D01*
X208682455Y-107904468D02*
X208641979Y-107944945D01*
X208641979Y-107944945D02*
X208561027Y-107985421D01*
X208561027Y-107985421D02*
X208318170Y-107985421D01*
X208318170Y-107985421D02*
X208237217Y-107944945D01*
X208237217Y-107944945D02*
X208196741Y-107904468D01*
X209087217Y-107661611D02*
X209734837Y-107661611D01*
X210139598Y-107418754D02*
X210139598Y-108268754D01*
X210139598Y-107459230D02*
X210220551Y-107418754D01*
X210220551Y-107418754D02*
X210382456Y-107418754D01*
X210382456Y-107418754D02*
X210463408Y-107459230D01*
X210463408Y-107459230D02*
X210503884Y-107499706D01*
X210503884Y-107499706D02*
X210544360Y-107580659D01*
X210544360Y-107580659D02*
X210544360Y-107823516D01*
X210544360Y-107823516D02*
X210503884Y-107904468D01*
X210503884Y-107904468D02*
X210463408Y-107944945D01*
X210463408Y-107944945D02*
X210382456Y-107985421D01*
X210382456Y-107985421D02*
X210220551Y-107985421D01*
X210220551Y-107985421D02*
X210139598Y-107944945D01*
X210908646Y-107985421D02*
X210908646Y-107418754D01*
X210908646Y-107135421D02*
X210868170Y-107175897D01*
X210868170Y-107175897D02*
X210908646Y-107216373D01*
X210908646Y-107216373D02*
X210949123Y-107175897D01*
X210949123Y-107175897D02*
X210908646Y-107135421D01*
X210908646Y-107135421D02*
X210908646Y-107216373D01*
X211313408Y-107418754D02*
X211313408Y-107985421D01*
X211313408Y-107499706D02*
X211353885Y-107459230D01*
X211353885Y-107459230D02*
X211434837Y-107418754D01*
X211434837Y-107418754D02*
X211556266Y-107418754D01*
X211556266Y-107418754D02*
X211637218Y-107459230D01*
X211637218Y-107459230D02*
X211677694Y-107540183D01*
X211677694Y-107540183D02*
X211677694Y-107985421D01*
X212730075Y-107985421D02*
X212730075Y-107135421D01*
X212730075Y-107540183D02*
X213215790Y-107540183D01*
X213215790Y-107985421D02*
X213215790Y-107135421D01*
X213580075Y-107944945D02*
X213701504Y-107985421D01*
X213701504Y-107985421D02*
X213903885Y-107985421D01*
X213903885Y-107985421D02*
X213984837Y-107944945D01*
X213984837Y-107944945D02*
X214025313Y-107904468D01*
X214025313Y-107904468D02*
X214065790Y-107823516D01*
X214065790Y-107823516D02*
X214065790Y-107742564D01*
X214065790Y-107742564D02*
X214025313Y-107661611D01*
X214025313Y-107661611D02*
X213984837Y-107621135D01*
X213984837Y-107621135D02*
X213903885Y-107580659D01*
X213903885Y-107580659D02*
X213741980Y-107540183D01*
X213741980Y-107540183D02*
X213661028Y-107499706D01*
X213661028Y-107499706D02*
X213620551Y-107459230D01*
X213620551Y-107459230D02*
X213580075Y-107378278D01*
X213580075Y-107378278D02*
X213580075Y-107297325D01*
X213580075Y-107297325D02*
X213620551Y-107216373D01*
X213620551Y-107216373D02*
X213661028Y-107175897D01*
X213661028Y-107175897D02*
X213741980Y-107135421D01*
X213741980Y-107135421D02*
X213944361Y-107135421D01*
X213944361Y-107135421D02*
X214065790Y-107175897D01*
X214430075Y-107540183D02*
X214713409Y-107540183D01*
X214834837Y-107985421D02*
X214430075Y-107985421D01*
X214430075Y-107985421D02*
X214430075Y-107135421D01*
X214430075Y-107135421D02*
X214834837Y-107135421D01*
X215684838Y-107904468D02*
X215644362Y-107944945D01*
X215644362Y-107944945D02*
X215522933Y-107985421D01*
X215522933Y-107985421D02*
X215441981Y-107985421D01*
X215441981Y-107985421D02*
X215320552Y-107944945D01*
X215320552Y-107944945D02*
X215239600Y-107863992D01*
X215239600Y-107863992D02*
X215199123Y-107783040D01*
X215199123Y-107783040D02*
X215158647Y-107621135D01*
X215158647Y-107621135D02*
X215158647Y-107499706D01*
X215158647Y-107499706D02*
X215199123Y-107337802D01*
X215199123Y-107337802D02*
X215239600Y-107256849D01*
X215239600Y-107256849D02*
X215320552Y-107175897D01*
X215320552Y-107175897D02*
X215441981Y-107135421D01*
X215441981Y-107135421D02*
X215522933Y-107135421D01*
X215522933Y-107135421D02*
X215644362Y-107175897D01*
X215644362Y-107175897D02*
X215684838Y-107216373D01*
X216170552Y-107499706D02*
X216089600Y-107459230D01*
X216089600Y-107459230D02*
X216049123Y-107418754D01*
X216049123Y-107418754D02*
X216008647Y-107337802D01*
X216008647Y-107337802D02*
X216008647Y-107297325D01*
X216008647Y-107297325D02*
X216049123Y-107216373D01*
X216049123Y-107216373D02*
X216089600Y-107175897D01*
X216089600Y-107175897D02*
X216170552Y-107135421D01*
X216170552Y-107135421D02*
X216332457Y-107135421D01*
X216332457Y-107135421D02*
X216413409Y-107175897D01*
X216413409Y-107175897D02*
X216453885Y-107216373D01*
X216453885Y-107216373D02*
X216494362Y-107297325D01*
X216494362Y-107297325D02*
X216494362Y-107337802D01*
X216494362Y-107337802D02*
X216453885Y-107418754D01*
X216453885Y-107418754D02*
X216413409Y-107459230D01*
X216413409Y-107459230D02*
X216332457Y-107499706D01*
X216332457Y-107499706D02*
X216170552Y-107499706D01*
X216170552Y-107499706D02*
X216089600Y-107540183D01*
X216089600Y-107540183D02*
X216049123Y-107580659D01*
X216049123Y-107580659D02*
X216008647Y-107661611D01*
X216008647Y-107661611D02*
X216008647Y-107823516D01*
X216008647Y-107823516D02*
X216049123Y-107904468D01*
X216049123Y-107904468D02*
X216089600Y-107944945D01*
X216089600Y-107944945D02*
X216170552Y-107985421D01*
X216170552Y-107985421D02*
X216332457Y-107985421D01*
X216332457Y-107985421D02*
X216413409Y-107944945D01*
X216413409Y-107944945D02*
X216453885Y-107904468D01*
X216453885Y-107904468D02*
X216494362Y-107823516D01*
X216494362Y-107823516D02*
X216494362Y-107661611D01*
X216494362Y-107661611D02*
X216453885Y-107580659D01*
X216453885Y-107580659D02*
X216413409Y-107540183D01*
X216413409Y-107540183D02*
X216332457Y-107499706D01*
X217870552Y-107944945D02*
X217789600Y-107985421D01*
X217789600Y-107985421D02*
X217627695Y-107985421D01*
X217627695Y-107985421D02*
X217546743Y-107944945D01*
X217546743Y-107944945D02*
X217506266Y-107904468D01*
X217506266Y-107904468D02*
X217465790Y-107823516D01*
X217465790Y-107823516D02*
X217465790Y-107580659D01*
X217465790Y-107580659D02*
X217506266Y-107499706D01*
X217506266Y-107499706D02*
X217546743Y-107459230D01*
X217546743Y-107459230D02*
X217627695Y-107418754D01*
X217627695Y-107418754D02*
X217789600Y-107418754D01*
X217789600Y-107418754D02*
X217870552Y-107459230D01*
X218356266Y-107985421D02*
X218275314Y-107944945D01*
X218275314Y-107944945D02*
X218234837Y-107904468D01*
X218234837Y-107904468D02*
X218194361Y-107823516D01*
X218194361Y-107823516D02*
X218194361Y-107580659D01*
X218194361Y-107580659D02*
X218234837Y-107499706D01*
X218234837Y-107499706D02*
X218275314Y-107459230D01*
X218275314Y-107459230D02*
X218356266Y-107418754D01*
X218356266Y-107418754D02*
X218477695Y-107418754D01*
X218477695Y-107418754D02*
X218558647Y-107459230D01*
X218558647Y-107459230D02*
X218599123Y-107499706D01*
X218599123Y-107499706D02*
X218639599Y-107580659D01*
X218639599Y-107580659D02*
X218639599Y-107823516D01*
X218639599Y-107823516D02*
X218599123Y-107904468D01*
X218599123Y-107904468D02*
X218558647Y-107944945D01*
X218558647Y-107944945D02*
X218477695Y-107985421D01*
X218477695Y-107985421D02*
X218356266Y-107985421D01*
X219003885Y-107418754D02*
X219003885Y-107985421D01*
X219003885Y-107499706D02*
X219044362Y-107459230D01*
X219044362Y-107459230D02*
X219125314Y-107418754D01*
X219125314Y-107418754D02*
X219246743Y-107418754D01*
X219246743Y-107418754D02*
X219327695Y-107459230D01*
X219327695Y-107459230D02*
X219368171Y-107540183D01*
X219368171Y-107540183D02*
X219368171Y-107985421D01*
X219772933Y-107418754D02*
X219772933Y-107985421D01*
X219772933Y-107499706D02*
X219813410Y-107459230D01*
X219813410Y-107459230D02*
X219894362Y-107418754D01*
X219894362Y-107418754D02*
X220015791Y-107418754D01*
X220015791Y-107418754D02*
X220096743Y-107459230D01*
X220096743Y-107459230D02*
X220137219Y-107540183D01*
X220137219Y-107540183D02*
X220137219Y-107985421D01*
X220865791Y-107944945D02*
X220784839Y-107985421D01*
X220784839Y-107985421D02*
X220622934Y-107985421D01*
X220622934Y-107985421D02*
X220541981Y-107944945D01*
X220541981Y-107944945D02*
X220501505Y-107863992D01*
X220501505Y-107863992D02*
X220501505Y-107540183D01*
X220501505Y-107540183D02*
X220541981Y-107459230D01*
X220541981Y-107459230D02*
X220622934Y-107418754D01*
X220622934Y-107418754D02*
X220784839Y-107418754D01*
X220784839Y-107418754D02*
X220865791Y-107459230D01*
X220865791Y-107459230D02*
X220906267Y-107540183D01*
X220906267Y-107540183D02*
X220906267Y-107621135D01*
X220906267Y-107621135D02*
X220501505Y-107702087D01*
X221634838Y-107944945D02*
X221553886Y-107985421D01*
X221553886Y-107985421D02*
X221391981Y-107985421D01*
X221391981Y-107985421D02*
X221311029Y-107944945D01*
X221311029Y-107944945D02*
X221270552Y-107904468D01*
X221270552Y-107904468D02*
X221230076Y-107823516D01*
X221230076Y-107823516D02*
X221230076Y-107580659D01*
X221230076Y-107580659D02*
X221270552Y-107499706D01*
X221270552Y-107499706D02*
X221311029Y-107459230D01*
X221311029Y-107459230D02*
X221391981Y-107418754D01*
X221391981Y-107418754D02*
X221553886Y-107418754D01*
X221553886Y-107418754D02*
X221634838Y-107459230D01*
X221877695Y-107418754D02*
X222201504Y-107418754D01*
X221999123Y-107135421D02*
X221999123Y-107863992D01*
X221999123Y-107863992D02*
X222039600Y-107944945D01*
X222039600Y-107944945D02*
X222120552Y-107985421D01*
X222120552Y-107985421D02*
X222201504Y-107985421D01*
X222606266Y-107985421D02*
X222525314Y-107944945D01*
X222525314Y-107944945D02*
X222484837Y-107904468D01*
X222484837Y-107904468D02*
X222444361Y-107823516D01*
X222444361Y-107823516D02*
X222444361Y-107580659D01*
X222444361Y-107580659D02*
X222484837Y-107499706D01*
X222484837Y-107499706D02*
X222525314Y-107459230D01*
X222525314Y-107459230D02*
X222606266Y-107418754D01*
X222606266Y-107418754D02*
X222727695Y-107418754D01*
X222727695Y-107418754D02*
X222808647Y-107459230D01*
X222808647Y-107459230D02*
X222849123Y-107499706D01*
X222849123Y-107499706D02*
X222889599Y-107580659D01*
X222889599Y-107580659D02*
X222889599Y-107823516D01*
X222889599Y-107823516D02*
X222849123Y-107904468D01*
X222849123Y-107904468D02*
X222808647Y-107944945D01*
X222808647Y-107944945D02*
X222727695Y-107985421D01*
X222727695Y-107985421D02*
X222606266Y-107985421D01*
X223253885Y-107985421D02*
X223253885Y-107418754D01*
X223253885Y-107580659D02*
X223294362Y-107499706D01*
X223294362Y-107499706D02*
X223334838Y-107459230D01*
X223334838Y-107459230D02*
X223415790Y-107418754D01*
X223415790Y-107418754D02*
X223496743Y-107418754D01*
X207994360Y-108787206D02*
X208318169Y-108787206D01*
X208115788Y-108503873D02*
X208115788Y-109232444D01*
X208115788Y-109232444D02*
X208156265Y-109313397D01*
X208156265Y-109313397D02*
X208237217Y-109353873D01*
X208237217Y-109353873D02*
X208318169Y-109353873D01*
X208722931Y-109353873D02*
X208641979Y-109313397D01*
X208641979Y-109313397D02*
X208601502Y-109272920D01*
X208601502Y-109272920D02*
X208561026Y-109191968D01*
X208561026Y-109191968D02*
X208561026Y-108949111D01*
X208561026Y-108949111D02*
X208601502Y-108868158D01*
X208601502Y-108868158D02*
X208641979Y-108827682D01*
X208641979Y-108827682D02*
X208722931Y-108787206D01*
X208722931Y-108787206D02*
X208844360Y-108787206D01*
X208844360Y-108787206D02*
X208925312Y-108827682D01*
X208925312Y-108827682D02*
X208965788Y-108868158D01*
X208965788Y-108868158D02*
X209006264Y-108949111D01*
X209006264Y-108949111D02*
X209006264Y-109191968D01*
X209006264Y-109191968D02*
X208965788Y-109272920D01*
X208965788Y-109272920D02*
X208925312Y-109313397D01*
X208925312Y-109313397D02*
X208844360Y-109353873D01*
X208844360Y-109353873D02*
X208722931Y-109353873D01*
X210463408Y-109353873D02*
X209977693Y-109353873D01*
X210220550Y-109353873D02*
X210220550Y-108503873D01*
X210220550Y-108503873D02*
X210139598Y-108625301D01*
X210139598Y-108625301D02*
X210058646Y-108706254D01*
X210058646Y-108706254D02*
X209977693Y-108746730D01*
X210746741Y-108503873D02*
X211272932Y-108503873D01*
X211272932Y-108503873D02*
X210989598Y-108827682D01*
X210989598Y-108827682D02*
X211111027Y-108827682D01*
X211111027Y-108827682D02*
X211191979Y-108868158D01*
X211191979Y-108868158D02*
X211232455Y-108908635D01*
X211232455Y-108908635D02*
X211272932Y-108989587D01*
X211272932Y-108989587D02*
X211272932Y-109191968D01*
X211272932Y-109191968D02*
X211232455Y-109272920D01*
X211232455Y-109272920D02*
X211191979Y-109313397D01*
X211191979Y-109313397D02*
X211111027Y-109353873D01*
X211111027Y-109353873D02*
X210868170Y-109353873D01*
X210868170Y-109353873D02*
X210787217Y-109313397D01*
X210787217Y-109313397D02*
X210746741Y-109272920D01*
X212244360Y-109313397D02*
X212365789Y-109353873D01*
X212365789Y-109353873D02*
X212568170Y-109353873D01*
X212568170Y-109353873D02*
X212649122Y-109313397D01*
X212649122Y-109313397D02*
X212689598Y-109272920D01*
X212689598Y-109272920D02*
X212730075Y-109191968D01*
X212730075Y-109191968D02*
X212730075Y-109111016D01*
X212730075Y-109111016D02*
X212689598Y-109030063D01*
X212689598Y-109030063D02*
X212649122Y-108989587D01*
X212649122Y-108989587D02*
X212568170Y-108949111D01*
X212568170Y-108949111D02*
X212406265Y-108908635D01*
X212406265Y-108908635D02*
X212325313Y-108868158D01*
X212325313Y-108868158D02*
X212284836Y-108827682D01*
X212284836Y-108827682D02*
X212244360Y-108746730D01*
X212244360Y-108746730D02*
X212244360Y-108665777D01*
X212244360Y-108665777D02*
X212284836Y-108584825D01*
X212284836Y-108584825D02*
X212325313Y-108544349D01*
X212325313Y-108544349D02*
X212406265Y-108503873D01*
X212406265Y-108503873D02*
X212608646Y-108503873D01*
X212608646Y-108503873D02*
X212730075Y-108544349D01*
X213094360Y-109353873D02*
X213094360Y-108503873D01*
X213094360Y-108503873D02*
X213377694Y-109111016D01*
X213377694Y-109111016D02*
X213661027Y-108503873D01*
X213661027Y-108503873D02*
X213661027Y-109353873D01*
X214025313Y-109111016D02*
X214430075Y-109111016D01*
X213944361Y-109353873D02*
X214227694Y-108503873D01*
X214227694Y-108503873D02*
X214511028Y-109353873D01*
X215806265Y-109313397D02*
X215725313Y-109353873D01*
X215725313Y-109353873D02*
X215563408Y-109353873D01*
X215563408Y-109353873D02*
X215482456Y-109313397D01*
X215482456Y-109313397D02*
X215441979Y-109272920D01*
X215441979Y-109272920D02*
X215401503Y-109191968D01*
X215401503Y-109191968D02*
X215401503Y-108949111D01*
X215401503Y-108949111D02*
X215441979Y-108868158D01*
X215441979Y-108868158D02*
X215482456Y-108827682D01*
X215482456Y-108827682D02*
X215563408Y-108787206D01*
X215563408Y-108787206D02*
X215725313Y-108787206D01*
X215725313Y-108787206D02*
X215806265Y-108827682D01*
X216291979Y-109353873D02*
X216211027Y-109313397D01*
X216211027Y-109313397D02*
X216170550Y-109272920D01*
X216170550Y-109272920D02*
X216130074Y-109191968D01*
X216130074Y-109191968D02*
X216130074Y-108949111D01*
X216130074Y-108949111D02*
X216170550Y-108868158D01*
X216170550Y-108868158D02*
X216211027Y-108827682D01*
X216211027Y-108827682D02*
X216291979Y-108787206D01*
X216291979Y-108787206D02*
X216413408Y-108787206D01*
X216413408Y-108787206D02*
X216494360Y-108827682D01*
X216494360Y-108827682D02*
X216534836Y-108868158D01*
X216534836Y-108868158D02*
X216575312Y-108949111D01*
X216575312Y-108949111D02*
X216575312Y-109191968D01*
X216575312Y-109191968D02*
X216534836Y-109272920D01*
X216534836Y-109272920D02*
X216494360Y-109313397D01*
X216494360Y-109313397D02*
X216413408Y-109353873D01*
X216413408Y-109353873D02*
X216291979Y-109353873D01*
X216939598Y-108787206D02*
X216939598Y-109353873D01*
X216939598Y-108868158D02*
X216980075Y-108827682D01*
X216980075Y-108827682D02*
X217061027Y-108787206D01*
X217061027Y-108787206D02*
X217182456Y-108787206D01*
X217182456Y-108787206D02*
X217263408Y-108827682D01*
X217263408Y-108827682D02*
X217303884Y-108908635D01*
X217303884Y-108908635D02*
X217303884Y-109353873D01*
X217708646Y-108787206D02*
X217708646Y-109353873D01*
X217708646Y-108868158D02*
X217749123Y-108827682D01*
X217749123Y-108827682D02*
X217830075Y-108787206D01*
X217830075Y-108787206D02*
X217951504Y-108787206D01*
X217951504Y-108787206D02*
X218032456Y-108827682D01*
X218032456Y-108827682D02*
X218072932Y-108908635D01*
X218072932Y-108908635D02*
X218072932Y-109353873D01*
X218801504Y-109313397D02*
X218720552Y-109353873D01*
X218720552Y-109353873D02*
X218558647Y-109353873D01*
X218558647Y-109353873D02*
X218477694Y-109313397D01*
X218477694Y-109313397D02*
X218437218Y-109232444D01*
X218437218Y-109232444D02*
X218437218Y-108908635D01*
X218437218Y-108908635D02*
X218477694Y-108827682D01*
X218477694Y-108827682D02*
X218558647Y-108787206D01*
X218558647Y-108787206D02*
X218720552Y-108787206D01*
X218720552Y-108787206D02*
X218801504Y-108827682D01*
X218801504Y-108827682D02*
X218841980Y-108908635D01*
X218841980Y-108908635D02*
X218841980Y-108989587D01*
X218841980Y-108989587D02*
X218437218Y-109070539D01*
X219570551Y-109313397D02*
X219489599Y-109353873D01*
X219489599Y-109353873D02*
X219327694Y-109353873D01*
X219327694Y-109353873D02*
X219246742Y-109313397D01*
X219246742Y-109313397D02*
X219206265Y-109272920D01*
X219206265Y-109272920D02*
X219165789Y-109191968D01*
X219165789Y-109191968D02*
X219165789Y-108949111D01*
X219165789Y-108949111D02*
X219206265Y-108868158D01*
X219206265Y-108868158D02*
X219246742Y-108827682D01*
X219246742Y-108827682D02*
X219327694Y-108787206D01*
X219327694Y-108787206D02*
X219489599Y-108787206D01*
X219489599Y-108787206D02*
X219570551Y-108827682D01*
X219813408Y-108787206D02*
X220137217Y-108787206D01*
X219934836Y-108503873D02*
X219934836Y-109232444D01*
X219934836Y-109232444D02*
X219975313Y-109313397D01*
X219975313Y-109313397D02*
X220056265Y-109353873D01*
X220056265Y-109353873D02*
X220137217Y-109353873D01*
X220541979Y-109353873D02*
X220461027Y-109313397D01*
X220461027Y-109313397D02*
X220420550Y-109272920D01*
X220420550Y-109272920D02*
X220380074Y-109191968D01*
X220380074Y-109191968D02*
X220380074Y-108949111D01*
X220380074Y-108949111D02*
X220420550Y-108868158D01*
X220420550Y-108868158D02*
X220461027Y-108827682D01*
X220461027Y-108827682D02*
X220541979Y-108787206D01*
X220541979Y-108787206D02*
X220663408Y-108787206D01*
X220663408Y-108787206D02*
X220744360Y-108827682D01*
X220744360Y-108827682D02*
X220784836Y-108868158D01*
X220784836Y-108868158D02*
X220825312Y-108949111D01*
X220825312Y-108949111D02*
X220825312Y-109191968D01*
X220825312Y-109191968D02*
X220784836Y-109272920D01*
X220784836Y-109272920D02*
X220744360Y-109313397D01*
X220744360Y-109313397D02*
X220663408Y-109353873D01*
X220663408Y-109353873D02*
X220541979Y-109353873D01*
X221189598Y-109353873D02*
X221189598Y-108787206D01*
X221189598Y-108949111D02*
X221230075Y-108868158D01*
X221230075Y-108868158D02*
X221270551Y-108827682D01*
X221270551Y-108827682D02*
X221351503Y-108787206D01*
X221351503Y-108787206D02*
X221432456Y-108787206D01*
X221675312Y-109313397D02*
X221756265Y-109353873D01*
X221756265Y-109353873D02*
X221918169Y-109353873D01*
X221918169Y-109353873D02*
X221999122Y-109313397D01*
X221999122Y-109313397D02*
X222039598Y-109232444D01*
X222039598Y-109232444D02*
X222039598Y-109191968D01*
X222039598Y-109191968D02*
X221999122Y-109111016D01*
X221999122Y-109111016D02*
X221918169Y-109070539D01*
X221918169Y-109070539D02*
X221796741Y-109070539D01*
X221796741Y-109070539D02*
X221715788Y-109030063D01*
X221715788Y-109030063D02*
X221675312Y-108949111D01*
X221675312Y-108949111D02*
X221675312Y-108908635D01*
X221675312Y-108908635D02*
X221715788Y-108827682D01*
X221715788Y-108827682D02*
X221796741Y-108787206D01*
X221796741Y-108787206D02*
X221918169Y-108787206D01*
X221918169Y-108787206D02*
X221999122Y-108827682D01*
X207346741Y-109872325D02*
X207630074Y-110722325D01*
X207630074Y-110722325D02*
X207913408Y-109872325D01*
X208520550Y-110681849D02*
X208439598Y-110722325D01*
X208439598Y-110722325D02*
X208277693Y-110722325D01*
X208277693Y-110722325D02*
X208196740Y-110681849D01*
X208196740Y-110681849D02*
X208156264Y-110600896D01*
X208156264Y-110600896D02*
X208156264Y-110277087D01*
X208156264Y-110277087D02*
X208196740Y-110196134D01*
X208196740Y-110196134D02*
X208277693Y-110155658D01*
X208277693Y-110155658D02*
X208439598Y-110155658D01*
X208439598Y-110155658D02*
X208520550Y-110196134D01*
X208520550Y-110196134D02*
X208561026Y-110277087D01*
X208561026Y-110277087D02*
X208561026Y-110358039D01*
X208561026Y-110358039D02*
X208156264Y-110438991D01*
X208925311Y-110722325D02*
X208925311Y-110155658D01*
X208925311Y-110317563D02*
X208965788Y-110236610D01*
X208965788Y-110236610D02*
X209006264Y-110196134D01*
X209006264Y-110196134D02*
X209087216Y-110155658D01*
X209087216Y-110155658D02*
X209168169Y-110155658D01*
X209411025Y-110681849D02*
X209491978Y-110722325D01*
X209491978Y-110722325D02*
X209653882Y-110722325D01*
X209653882Y-110722325D02*
X209734835Y-110681849D01*
X209734835Y-110681849D02*
X209775311Y-110600896D01*
X209775311Y-110600896D02*
X209775311Y-110560420D01*
X209775311Y-110560420D02*
X209734835Y-110479468D01*
X209734835Y-110479468D02*
X209653882Y-110438991D01*
X209653882Y-110438991D02*
X209532454Y-110438991D01*
X209532454Y-110438991D02*
X209451501Y-110398515D01*
X209451501Y-110398515D02*
X209411025Y-110317563D01*
X209411025Y-110317563D02*
X209411025Y-110277087D01*
X209411025Y-110277087D02*
X209451501Y-110196134D01*
X209451501Y-110196134D02*
X209532454Y-110155658D01*
X209532454Y-110155658D02*
X209653882Y-110155658D01*
X209653882Y-110155658D02*
X209734835Y-110196134D01*
X210139596Y-110722325D02*
X210139596Y-110155658D01*
X210139596Y-109872325D02*
X210099120Y-109912801D01*
X210099120Y-109912801D02*
X210139596Y-109953277D01*
X210139596Y-109953277D02*
X210180073Y-109912801D01*
X210180073Y-109912801D02*
X210139596Y-109872325D01*
X210139596Y-109872325D02*
X210139596Y-109953277D01*
X210665787Y-110722325D02*
X210584835Y-110681849D01*
X210584835Y-110681849D02*
X210544358Y-110641372D01*
X210544358Y-110641372D02*
X210503882Y-110560420D01*
X210503882Y-110560420D02*
X210503882Y-110317563D01*
X210503882Y-110317563D02*
X210544358Y-110236610D01*
X210544358Y-110236610D02*
X210584835Y-110196134D01*
X210584835Y-110196134D02*
X210665787Y-110155658D01*
X210665787Y-110155658D02*
X210787216Y-110155658D01*
X210787216Y-110155658D02*
X210868168Y-110196134D01*
X210868168Y-110196134D02*
X210908644Y-110236610D01*
X210908644Y-110236610D02*
X210949120Y-110317563D01*
X210949120Y-110317563D02*
X210949120Y-110560420D01*
X210949120Y-110560420D02*
X210908644Y-110641372D01*
X210908644Y-110641372D02*
X210868168Y-110681849D01*
X210868168Y-110681849D02*
X210787216Y-110722325D01*
X210787216Y-110722325D02*
X210665787Y-110722325D01*
X211313406Y-110155658D02*
X211313406Y-110722325D01*
X211313406Y-110236610D02*
X211353883Y-110196134D01*
X211353883Y-110196134D02*
X211434835Y-110155658D01*
X211434835Y-110155658D02*
X211556264Y-110155658D01*
X211556264Y-110155658D02*
X211637216Y-110196134D01*
X211637216Y-110196134D02*
X211677692Y-110277087D01*
X211677692Y-110277087D02*
X211677692Y-110722325D01*
X213175312Y-110722325D02*
X212689597Y-110722325D01*
X212932454Y-110722325D02*
X212932454Y-109872325D01*
X212932454Y-109872325D02*
X212851502Y-109993753D01*
X212851502Y-109993753D02*
X212770550Y-110074706D01*
X212770550Y-110074706D02*
X212689597Y-110115182D01*
X207468169Y-112090777D02*
X207468169Y-111240777D01*
X207468169Y-111240777D02*
X207670550Y-111240777D01*
X207670550Y-111240777D02*
X207791979Y-111281253D01*
X207791979Y-111281253D02*
X207872931Y-111362205D01*
X207872931Y-111362205D02*
X207913408Y-111443158D01*
X207913408Y-111443158D02*
X207953884Y-111605062D01*
X207953884Y-111605062D02*
X207953884Y-111726491D01*
X207953884Y-111726491D02*
X207913408Y-111888396D01*
X207913408Y-111888396D02*
X207872931Y-111969348D01*
X207872931Y-111969348D02*
X207791979Y-112050301D01*
X207791979Y-112050301D02*
X207670550Y-112090777D01*
X207670550Y-112090777D02*
X207468169Y-112090777D01*
X208641979Y-112050301D02*
X208561027Y-112090777D01*
X208561027Y-112090777D02*
X208399122Y-112090777D01*
X208399122Y-112090777D02*
X208318169Y-112050301D01*
X208318169Y-112050301D02*
X208277693Y-111969348D01*
X208277693Y-111969348D02*
X208277693Y-111645539D01*
X208277693Y-111645539D02*
X208318169Y-111564586D01*
X208318169Y-111564586D02*
X208399122Y-111524110D01*
X208399122Y-111524110D02*
X208561027Y-111524110D01*
X208561027Y-111524110D02*
X208641979Y-111564586D01*
X208641979Y-111564586D02*
X208682455Y-111645539D01*
X208682455Y-111645539D02*
X208682455Y-111726491D01*
X208682455Y-111726491D02*
X208277693Y-111807443D01*
X209006264Y-112050301D02*
X209087217Y-112090777D01*
X209087217Y-112090777D02*
X209249121Y-112090777D01*
X209249121Y-112090777D02*
X209330074Y-112050301D01*
X209330074Y-112050301D02*
X209370550Y-111969348D01*
X209370550Y-111969348D02*
X209370550Y-111928872D01*
X209370550Y-111928872D02*
X209330074Y-111847920D01*
X209330074Y-111847920D02*
X209249121Y-111807443D01*
X209249121Y-111807443D02*
X209127693Y-111807443D01*
X209127693Y-111807443D02*
X209046740Y-111766967D01*
X209046740Y-111766967D02*
X209006264Y-111686015D01*
X209006264Y-111686015D02*
X209006264Y-111645539D01*
X209006264Y-111645539D02*
X209046740Y-111564586D01*
X209046740Y-111564586D02*
X209127693Y-111524110D01*
X209127693Y-111524110D02*
X209249121Y-111524110D01*
X209249121Y-111524110D02*
X209330074Y-111564586D01*
X209734835Y-112090777D02*
X209734835Y-111524110D01*
X209734835Y-111240777D02*
X209694359Y-111281253D01*
X209694359Y-111281253D02*
X209734835Y-111321729D01*
X209734835Y-111321729D02*
X209775312Y-111281253D01*
X209775312Y-111281253D02*
X209734835Y-111240777D01*
X209734835Y-111240777D02*
X209734835Y-111321729D01*
X210503883Y-111524110D02*
X210503883Y-112212205D01*
X210503883Y-112212205D02*
X210463407Y-112293158D01*
X210463407Y-112293158D02*
X210422931Y-112333634D01*
X210422931Y-112333634D02*
X210341978Y-112374110D01*
X210341978Y-112374110D02*
X210220550Y-112374110D01*
X210220550Y-112374110D02*
X210139597Y-112333634D01*
X210503883Y-112050301D02*
X210422931Y-112090777D01*
X210422931Y-112090777D02*
X210261026Y-112090777D01*
X210261026Y-112090777D02*
X210180074Y-112050301D01*
X210180074Y-112050301D02*
X210139597Y-112009824D01*
X210139597Y-112009824D02*
X210099121Y-111928872D01*
X210099121Y-111928872D02*
X210099121Y-111686015D01*
X210099121Y-111686015D02*
X210139597Y-111605062D01*
X210139597Y-111605062D02*
X210180074Y-111564586D01*
X210180074Y-111564586D02*
X210261026Y-111524110D01*
X210261026Y-111524110D02*
X210422931Y-111524110D01*
X210422931Y-111524110D02*
X210503883Y-111564586D01*
X210908645Y-111524110D02*
X210908645Y-112090777D01*
X210908645Y-111605062D02*
X210949122Y-111564586D01*
X210949122Y-111564586D02*
X211030074Y-111524110D01*
X211030074Y-111524110D02*
X211151503Y-111524110D01*
X211151503Y-111524110D02*
X211232455Y-111564586D01*
X211232455Y-111564586D02*
X211272931Y-111645539D01*
X211272931Y-111645539D02*
X211272931Y-112090777D01*
X212001503Y-112050301D02*
X211920551Y-112090777D01*
X211920551Y-112090777D02*
X211758646Y-112090777D01*
X211758646Y-112090777D02*
X211677693Y-112050301D01*
X211677693Y-112050301D02*
X211637217Y-111969348D01*
X211637217Y-111969348D02*
X211637217Y-111645539D01*
X211637217Y-111645539D02*
X211677693Y-111564586D01*
X211677693Y-111564586D02*
X211758646Y-111524110D01*
X211758646Y-111524110D02*
X211920551Y-111524110D01*
X211920551Y-111524110D02*
X212001503Y-111564586D01*
X212001503Y-111564586D02*
X212041979Y-111645539D01*
X212041979Y-111645539D02*
X212041979Y-111726491D01*
X212041979Y-111726491D02*
X211637217Y-111807443D01*
X212770550Y-112090777D02*
X212770550Y-111240777D01*
X212770550Y-112050301D02*
X212689598Y-112090777D01*
X212689598Y-112090777D02*
X212527693Y-112090777D01*
X212527693Y-112090777D02*
X212446741Y-112050301D01*
X212446741Y-112050301D02*
X212406264Y-112009824D01*
X212406264Y-112009824D02*
X212365788Y-111928872D01*
X212365788Y-111928872D02*
X212365788Y-111686015D01*
X212365788Y-111686015D02*
X212406264Y-111605062D01*
X212406264Y-111605062D02*
X212446741Y-111564586D01*
X212446741Y-111564586D02*
X212527693Y-111524110D01*
X212527693Y-111524110D02*
X212689598Y-111524110D01*
X212689598Y-111524110D02*
X212770550Y-111564586D01*
X213822931Y-112090777D02*
X213822931Y-111240777D01*
X213822931Y-111564586D02*
X213903884Y-111524110D01*
X213903884Y-111524110D02*
X214065789Y-111524110D01*
X214065789Y-111524110D02*
X214146741Y-111564586D01*
X214146741Y-111564586D02*
X214187217Y-111605062D01*
X214187217Y-111605062D02*
X214227693Y-111686015D01*
X214227693Y-111686015D02*
X214227693Y-111928872D01*
X214227693Y-111928872D02*
X214187217Y-112009824D01*
X214187217Y-112009824D02*
X214146741Y-112050301D01*
X214146741Y-112050301D02*
X214065789Y-112090777D01*
X214065789Y-112090777D02*
X213903884Y-112090777D01*
X213903884Y-112090777D02*
X213822931Y-112050301D01*
X214511027Y-111524110D02*
X214713408Y-112090777D01*
X214915789Y-111524110D02*
X214713408Y-112090777D01*
X214713408Y-112090777D02*
X214632456Y-112293158D01*
X214632456Y-112293158D02*
X214591979Y-112333634D01*
X214591979Y-112333634D02*
X214511027Y-112374110D01*
X215846741Y-112050301D02*
X215968170Y-112090777D01*
X215968170Y-112090777D02*
X216170551Y-112090777D01*
X216170551Y-112090777D02*
X216251503Y-112050301D01*
X216251503Y-112050301D02*
X216291979Y-112009824D01*
X216291979Y-112009824D02*
X216332456Y-111928872D01*
X216332456Y-111928872D02*
X216332456Y-111847920D01*
X216332456Y-111847920D02*
X216291979Y-111766967D01*
X216291979Y-111766967D02*
X216251503Y-111726491D01*
X216251503Y-111726491D02*
X216170551Y-111686015D01*
X216170551Y-111686015D02*
X216008646Y-111645539D01*
X216008646Y-111645539D02*
X215927694Y-111605062D01*
X215927694Y-111605062D02*
X215887217Y-111564586D01*
X215887217Y-111564586D02*
X215846741Y-111483634D01*
X215846741Y-111483634D02*
X215846741Y-111402681D01*
X215846741Y-111402681D02*
X215887217Y-111321729D01*
X215887217Y-111321729D02*
X215927694Y-111281253D01*
X215927694Y-111281253D02*
X216008646Y-111240777D01*
X216008646Y-111240777D02*
X216211027Y-111240777D01*
X216211027Y-111240777D02*
X216332456Y-111281253D01*
X217020551Y-112050301D02*
X216939599Y-112090777D01*
X216939599Y-112090777D02*
X216777694Y-112090777D01*
X216777694Y-112090777D02*
X216696741Y-112050301D01*
X216696741Y-112050301D02*
X216656265Y-111969348D01*
X216656265Y-111969348D02*
X216656265Y-111645539D01*
X216656265Y-111645539D02*
X216696741Y-111564586D01*
X216696741Y-111564586D02*
X216777694Y-111524110D01*
X216777694Y-111524110D02*
X216939599Y-111524110D01*
X216939599Y-111524110D02*
X217020551Y-111564586D01*
X217020551Y-111564586D02*
X217061027Y-111645539D01*
X217061027Y-111645539D02*
X217061027Y-111726491D01*
X217061027Y-111726491D02*
X216656265Y-111807443D01*
X217425312Y-112090777D02*
X217425312Y-111240777D01*
X217425312Y-111564586D02*
X217506265Y-111524110D01*
X217506265Y-111524110D02*
X217668170Y-111524110D01*
X217668170Y-111524110D02*
X217749122Y-111564586D01*
X217749122Y-111564586D02*
X217789598Y-111605062D01*
X217789598Y-111605062D02*
X217830074Y-111686015D01*
X217830074Y-111686015D02*
X217830074Y-111928872D01*
X217830074Y-111928872D02*
X217789598Y-112009824D01*
X217789598Y-112009824D02*
X217749122Y-112050301D01*
X217749122Y-112050301D02*
X217668170Y-112090777D01*
X217668170Y-112090777D02*
X217506265Y-112090777D01*
X217506265Y-112090777D02*
X217425312Y-112050301D01*
X218315789Y-112090777D02*
X218234837Y-112050301D01*
X218234837Y-112050301D02*
X218194360Y-112009824D01*
X218194360Y-112009824D02*
X218153884Y-111928872D01*
X218153884Y-111928872D02*
X218153884Y-111686015D01*
X218153884Y-111686015D02*
X218194360Y-111605062D01*
X218194360Y-111605062D02*
X218234837Y-111564586D01*
X218234837Y-111564586D02*
X218315789Y-111524110D01*
X218315789Y-111524110D02*
X218437218Y-111524110D01*
X218437218Y-111524110D02*
X218518170Y-111564586D01*
X218518170Y-111564586D02*
X218558646Y-111605062D01*
X218558646Y-111605062D02*
X218599122Y-111686015D01*
X218599122Y-111686015D02*
X218599122Y-111928872D01*
X218599122Y-111928872D02*
X218558646Y-112009824D01*
X218558646Y-112009824D02*
X218518170Y-112050301D01*
X218518170Y-112050301D02*
X218437218Y-112090777D01*
X218437218Y-112090777D02*
X218315789Y-112090777D01*
X219327694Y-111524110D02*
X219327694Y-112090777D01*
X218963408Y-111524110D02*
X218963408Y-111969348D01*
X218963408Y-111969348D02*
X219003885Y-112050301D01*
X219003885Y-112050301D02*
X219084837Y-112090777D01*
X219084837Y-112090777D02*
X219206266Y-112090777D01*
X219206266Y-112090777D02*
X219287218Y-112050301D01*
X219287218Y-112050301D02*
X219327694Y-112009824D01*
X219732456Y-112090777D02*
X219732456Y-111240777D01*
X220096742Y-112090777D02*
X220096742Y-111645539D01*
X220096742Y-111645539D02*
X220056266Y-111564586D01*
X220056266Y-111564586D02*
X219975314Y-111524110D01*
X219975314Y-111524110D02*
X219853885Y-111524110D01*
X219853885Y-111524110D02*
X219772933Y-111564586D01*
X219772933Y-111564586D02*
X219732456Y-111605062D01*
X221149123Y-112090777D02*
X221149123Y-111240777D01*
X221149123Y-111240777D02*
X221472933Y-111240777D01*
X221472933Y-111240777D02*
X221553885Y-111281253D01*
X221553885Y-111281253D02*
X221594362Y-111321729D01*
X221594362Y-111321729D02*
X221634838Y-111402681D01*
X221634838Y-111402681D02*
X221634838Y-111524110D01*
X221634838Y-111524110D02*
X221594362Y-111605062D01*
X221594362Y-111605062D02*
X221553885Y-111645539D01*
X221553885Y-111645539D02*
X221472933Y-111686015D01*
X221472933Y-111686015D02*
X221149123Y-111686015D01*
X222363409Y-112090777D02*
X222363409Y-111645539D01*
X222363409Y-111645539D02*
X222322933Y-111564586D01*
X222322933Y-111564586D02*
X222241981Y-111524110D01*
X222241981Y-111524110D02*
X222080076Y-111524110D01*
X222080076Y-111524110D02*
X221999123Y-111564586D01*
X222363409Y-112050301D02*
X222282457Y-112090777D01*
X222282457Y-112090777D02*
X222080076Y-112090777D01*
X222080076Y-112090777D02*
X221999123Y-112050301D01*
X221999123Y-112050301D02*
X221958647Y-111969348D01*
X221958647Y-111969348D02*
X221958647Y-111888396D01*
X221958647Y-111888396D02*
X221999123Y-111807443D01*
X221999123Y-111807443D02*
X222080076Y-111766967D01*
X222080076Y-111766967D02*
X222282457Y-111766967D01*
X222282457Y-111766967D02*
X222363409Y-111726491D01*
X223132457Y-111524110D02*
X223132457Y-112090777D01*
X222768171Y-111524110D02*
X222768171Y-111969348D01*
X222768171Y-111969348D02*
X222808648Y-112050301D01*
X222808648Y-112050301D02*
X222889600Y-112090777D01*
X222889600Y-112090777D02*
X223011029Y-112090777D01*
X223011029Y-112090777D02*
X223091981Y-112050301D01*
X223091981Y-112050301D02*
X223132457Y-112009824D01*
X223658648Y-112090777D02*
X223577696Y-112050301D01*
X223577696Y-112050301D02*
X223537219Y-111969348D01*
X223537219Y-111969348D02*
X223537219Y-111240777D01*
D11*
X216390475Y-92704819D02*
X216057142Y-92228628D01*
X215819047Y-92704819D02*
X215819047Y-91704819D01*
X215819047Y-91704819D02*
X216199999Y-91704819D01*
X216199999Y-91704819D02*
X216295237Y-91752438D01*
X216295237Y-91752438D02*
X216342856Y-91800057D01*
X216342856Y-91800057D02*
X216390475Y-91895295D01*
X216390475Y-91895295D02*
X216390475Y-92038152D01*
X216390475Y-92038152D02*
X216342856Y-92133390D01*
X216342856Y-92133390D02*
X216295237Y-92181009D01*
X216295237Y-92181009D02*
X216199999Y-92228628D01*
X216199999Y-92228628D02*
X215819047Y-92228628D01*
X216819047Y-92181009D02*
X217152380Y-92181009D01*
X217295237Y-92704819D02*
X216819047Y-92704819D01*
X216819047Y-92704819D02*
X216819047Y-91704819D01*
X216819047Y-91704819D02*
X217295237Y-91704819D01*
X218057142Y-92181009D02*
X217723809Y-92181009D01*
X217723809Y-92704819D02*
X217723809Y-91704819D01*
X217723809Y-91704819D02*
X218199999Y-91704819D01*
X218723809Y-91704819D02*
X218723809Y-91942914D01*
X218485714Y-91847676D02*
X218723809Y-91942914D01*
X218723809Y-91942914D02*
X218961904Y-91847676D01*
X218580952Y-92133390D02*
X218723809Y-91942914D01*
X218723809Y-91942914D02*
X218866666Y-92133390D01*
X219485714Y-91704819D02*
X219485714Y-91942914D01*
X219247619Y-91847676D02*
X219485714Y-91942914D01*
X219485714Y-91942914D02*
X219723809Y-91847676D01*
X219342857Y-92133390D02*
X219485714Y-91942914D01*
X219485714Y-91942914D02*
X219628571Y-92133390D01*
X220533333Y-91704819D02*
X220342857Y-91704819D01*
X220342857Y-91704819D02*
X220247619Y-91752438D01*
X220247619Y-91752438D02*
X220200000Y-91800057D01*
X220200000Y-91800057D02*
X220104762Y-91942914D01*
X220104762Y-91942914D02*
X220057143Y-92133390D01*
X220057143Y-92133390D02*
X220057143Y-92514342D01*
X220057143Y-92514342D02*
X220104762Y-92609580D01*
X220104762Y-92609580D02*
X220152381Y-92657200D01*
X220152381Y-92657200D02*
X220247619Y-92704819D01*
X220247619Y-92704819D02*
X220438095Y-92704819D01*
X220438095Y-92704819D02*
X220533333Y-92657200D01*
X220533333Y-92657200D02*
X220580952Y-92609580D01*
X220580952Y-92609580D02*
X220628571Y-92514342D01*
X220628571Y-92514342D02*
X220628571Y-92276247D01*
X220628571Y-92276247D02*
X220580952Y-92181009D01*
X220580952Y-92181009D02*
X220533333Y-92133390D01*
X220533333Y-92133390D02*
X220438095Y-92085771D01*
X220438095Y-92085771D02*
X220247619Y-92085771D01*
X220247619Y-92085771D02*
X220152381Y-92133390D01*
X220152381Y-92133390D02*
X220104762Y-92181009D01*
X220104762Y-92181009D02*
X220057143Y-92276247D01*
X128390475Y-104704819D02*
X128057142Y-104228628D01*
X127819047Y-104704819D02*
X127819047Y-103704819D01*
X127819047Y-103704819D02*
X128199999Y-103704819D01*
X128199999Y-103704819D02*
X128295237Y-103752438D01*
X128295237Y-103752438D02*
X128342856Y-103800057D01*
X128342856Y-103800057D02*
X128390475Y-103895295D01*
X128390475Y-103895295D02*
X128390475Y-104038152D01*
X128390475Y-104038152D02*
X128342856Y-104133390D01*
X128342856Y-104133390D02*
X128295237Y-104181009D01*
X128295237Y-104181009D02*
X128199999Y-104228628D01*
X128199999Y-104228628D02*
X127819047Y-104228628D01*
X128819047Y-104181009D02*
X129152380Y-104181009D01*
X129295237Y-104704819D02*
X128819047Y-104704819D01*
X128819047Y-104704819D02*
X128819047Y-103704819D01*
X128819047Y-103704819D02*
X129295237Y-103704819D01*
X130057142Y-104181009D02*
X129723809Y-104181009D01*
X129723809Y-104704819D02*
X129723809Y-103704819D01*
X129723809Y-103704819D02*
X130199999Y-103704819D01*
X130723809Y-103704819D02*
X130723809Y-103942914D01*
X130485714Y-103847676D02*
X130723809Y-103942914D01*
X130723809Y-103942914D02*
X130961904Y-103847676D01*
X130580952Y-104133390D02*
X130723809Y-103942914D01*
X130723809Y-103942914D02*
X130866666Y-104133390D01*
X131485714Y-103704819D02*
X131485714Y-103942914D01*
X131247619Y-103847676D02*
X131485714Y-103942914D01*
X131485714Y-103942914D02*
X131723809Y-103847676D01*
X131342857Y-104133390D02*
X131485714Y-103942914D01*
X131485714Y-103942914D02*
X131628571Y-104133390D01*
X132009524Y-103704819D02*
X132676190Y-103704819D01*
X132676190Y-103704819D02*
X132247619Y-104704819D01*
X175914285Y-104704819D02*
X175580952Y-104228628D01*
X175342857Y-104704819D02*
X175342857Y-103704819D01*
X175342857Y-103704819D02*
X175723809Y-103704819D01*
X175723809Y-103704819D02*
X175819047Y-103752438D01*
X175819047Y-103752438D02*
X175866666Y-103800057D01*
X175866666Y-103800057D02*
X175914285Y-103895295D01*
X175914285Y-103895295D02*
X175914285Y-104038152D01*
X175914285Y-104038152D02*
X175866666Y-104133390D01*
X175866666Y-104133390D02*
X175819047Y-104181009D01*
X175819047Y-104181009D02*
X175723809Y-104228628D01*
X175723809Y-104228628D02*
X175342857Y-104228628D01*
X176342857Y-104181009D02*
X176676190Y-104181009D01*
X176819047Y-104704819D02*
X176342857Y-104704819D01*
X176342857Y-104704819D02*
X176342857Y-103704819D01*
X176342857Y-103704819D02*
X176819047Y-103704819D01*
X177580952Y-104181009D02*
X177247619Y-104181009D01*
X177247619Y-104704819D02*
X177247619Y-103704819D01*
X177247619Y-103704819D02*
X177723809Y-103704819D01*
X178247619Y-103704819D02*
X178247619Y-103942914D01*
X178009524Y-103847676D02*
X178247619Y-103942914D01*
X178247619Y-103942914D02*
X178485714Y-103847676D01*
X178104762Y-104133390D02*
X178247619Y-103942914D01*
X178247619Y-103942914D02*
X178390476Y-104133390D01*
X179009524Y-103704819D02*
X179009524Y-103942914D01*
X178771429Y-103847676D02*
X179009524Y-103942914D01*
X179009524Y-103942914D02*
X179247619Y-103847676D01*
X178866667Y-104133390D02*
X179009524Y-103942914D01*
X179009524Y-103942914D02*
X179152381Y-104133390D01*
X180152381Y-104704819D02*
X179580953Y-104704819D01*
X179866667Y-104704819D02*
X179866667Y-103704819D01*
X179866667Y-103704819D02*
X179771429Y-103847676D01*
X179771429Y-103847676D02*
X179676191Y-103942914D01*
X179676191Y-103942914D02*
X179580953Y-103990533D01*
X181104762Y-104704819D02*
X180533334Y-104704819D01*
X180819048Y-104704819D02*
X180819048Y-103704819D01*
X180819048Y-103704819D02*
X180723810Y-103847676D01*
X180723810Y-103847676D02*
X180628572Y-103942914D01*
X180628572Y-103942914D02*
X180533334Y-103990533D01*
X187914285Y-104704819D02*
X187580952Y-104228628D01*
X187342857Y-104704819D02*
X187342857Y-103704819D01*
X187342857Y-103704819D02*
X187723809Y-103704819D01*
X187723809Y-103704819D02*
X187819047Y-103752438D01*
X187819047Y-103752438D02*
X187866666Y-103800057D01*
X187866666Y-103800057D02*
X187914285Y-103895295D01*
X187914285Y-103895295D02*
X187914285Y-104038152D01*
X187914285Y-104038152D02*
X187866666Y-104133390D01*
X187866666Y-104133390D02*
X187819047Y-104181009D01*
X187819047Y-104181009D02*
X187723809Y-104228628D01*
X187723809Y-104228628D02*
X187342857Y-104228628D01*
X188342857Y-104181009D02*
X188676190Y-104181009D01*
X188819047Y-104704819D02*
X188342857Y-104704819D01*
X188342857Y-104704819D02*
X188342857Y-103704819D01*
X188342857Y-103704819D02*
X188819047Y-103704819D01*
X189580952Y-104181009D02*
X189247619Y-104181009D01*
X189247619Y-104704819D02*
X189247619Y-103704819D01*
X189247619Y-103704819D02*
X189723809Y-103704819D01*
X190247619Y-103704819D02*
X190247619Y-103942914D01*
X190009524Y-103847676D02*
X190247619Y-103942914D01*
X190247619Y-103942914D02*
X190485714Y-103847676D01*
X190104762Y-104133390D02*
X190247619Y-103942914D01*
X190247619Y-103942914D02*
X190390476Y-104133390D01*
X191009524Y-103704819D02*
X191009524Y-103942914D01*
X190771429Y-103847676D02*
X191009524Y-103942914D01*
X191009524Y-103942914D02*
X191247619Y-103847676D01*
X190866667Y-104133390D02*
X191009524Y-103942914D01*
X191009524Y-103942914D02*
X191152381Y-104133390D01*
X192152381Y-104704819D02*
X191580953Y-104704819D01*
X191866667Y-104704819D02*
X191866667Y-103704819D01*
X191866667Y-103704819D02*
X191771429Y-103847676D01*
X191771429Y-103847676D02*
X191676191Y-103942914D01*
X191676191Y-103942914D02*
X191580953Y-103990533D01*
X192533334Y-103800057D02*
X192580953Y-103752438D01*
X192580953Y-103752438D02*
X192676191Y-103704819D01*
X192676191Y-103704819D02*
X192914286Y-103704819D01*
X192914286Y-103704819D02*
X193009524Y-103752438D01*
X193009524Y-103752438D02*
X193057143Y-103800057D01*
X193057143Y-103800057D02*
X193104762Y-103895295D01*
X193104762Y-103895295D02*
X193104762Y-103990533D01*
X193104762Y-103990533D02*
X193057143Y-104133390D01*
X193057143Y-104133390D02*
X192485715Y-104704819D01*
X192485715Y-104704819D02*
X193104762Y-104704819D01*
X140390475Y-92704819D02*
X140057142Y-92228628D01*
X139819047Y-92704819D02*
X139819047Y-91704819D01*
X139819047Y-91704819D02*
X140199999Y-91704819D01*
X140199999Y-91704819D02*
X140295237Y-91752438D01*
X140295237Y-91752438D02*
X140342856Y-91800057D01*
X140342856Y-91800057D02*
X140390475Y-91895295D01*
X140390475Y-91895295D02*
X140390475Y-92038152D01*
X140390475Y-92038152D02*
X140342856Y-92133390D01*
X140342856Y-92133390D02*
X140295237Y-92181009D01*
X140295237Y-92181009D02*
X140199999Y-92228628D01*
X140199999Y-92228628D02*
X139819047Y-92228628D01*
X140819047Y-92181009D02*
X141152380Y-92181009D01*
X141295237Y-92704819D02*
X140819047Y-92704819D01*
X140819047Y-92704819D02*
X140819047Y-91704819D01*
X140819047Y-91704819D02*
X141295237Y-91704819D01*
X142057142Y-92181009D02*
X141723809Y-92181009D01*
X141723809Y-92704819D02*
X141723809Y-91704819D01*
X141723809Y-91704819D02*
X142199999Y-91704819D01*
X142723809Y-91704819D02*
X142723809Y-91942914D01*
X142485714Y-91847676D02*
X142723809Y-91942914D01*
X142723809Y-91942914D02*
X142961904Y-91847676D01*
X142580952Y-92133390D02*
X142723809Y-91942914D01*
X142723809Y-91942914D02*
X142866666Y-92133390D01*
X143485714Y-91704819D02*
X143485714Y-91942914D01*
X143247619Y-91847676D02*
X143485714Y-91942914D01*
X143485714Y-91942914D02*
X143723809Y-91847676D01*
X143342857Y-92133390D02*
X143485714Y-91942914D01*
X143485714Y-91942914D02*
X143628571Y-92133390D01*
X144057143Y-91800057D02*
X144104762Y-91752438D01*
X144104762Y-91752438D02*
X144200000Y-91704819D01*
X144200000Y-91704819D02*
X144438095Y-91704819D01*
X144438095Y-91704819D02*
X144533333Y-91752438D01*
X144533333Y-91752438D02*
X144580952Y-91800057D01*
X144580952Y-91800057D02*
X144628571Y-91895295D01*
X144628571Y-91895295D02*
X144628571Y-91990533D01*
X144628571Y-91990533D02*
X144580952Y-92133390D01*
X144580952Y-92133390D02*
X144009524Y-92704819D01*
X144009524Y-92704819D02*
X144628571Y-92704819D01*
X140390475Y-104704819D02*
X140057142Y-104228628D01*
X139819047Y-104704819D02*
X139819047Y-103704819D01*
X139819047Y-103704819D02*
X140199999Y-103704819D01*
X140199999Y-103704819D02*
X140295237Y-103752438D01*
X140295237Y-103752438D02*
X140342856Y-103800057D01*
X140342856Y-103800057D02*
X140390475Y-103895295D01*
X140390475Y-103895295D02*
X140390475Y-104038152D01*
X140390475Y-104038152D02*
X140342856Y-104133390D01*
X140342856Y-104133390D02*
X140295237Y-104181009D01*
X140295237Y-104181009D02*
X140199999Y-104228628D01*
X140199999Y-104228628D02*
X139819047Y-104228628D01*
X140819047Y-104181009D02*
X141152380Y-104181009D01*
X141295237Y-104704819D02*
X140819047Y-104704819D01*
X140819047Y-104704819D02*
X140819047Y-103704819D01*
X140819047Y-103704819D02*
X141295237Y-103704819D01*
X142057142Y-104181009D02*
X141723809Y-104181009D01*
X141723809Y-104704819D02*
X141723809Y-103704819D01*
X141723809Y-103704819D02*
X142199999Y-103704819D01*
X142723809Y-103704819D02*
X142723809Y-103942914D01*
X142485714Y-103847676D02*
X142723809Y-103942914D01*
X142723809Y-103942914D02*
X142961904Y-103847676D01*
X142580952Y-104133390D02*
X142723809Y-103942914D01*
X142723809Y-103942914D02*
X142866666Y-104133390D01*
X143485714Y-103704819D02*
X143485714Y-103942914D01*
X143247619Y-103847676D02*
X143485714Y-103942914D01*
X143485714Y-103942914D02*
X143723809Y-103847676D01*
X143342857Y-104133390D02*
X143485714Y-103942914D01*
X143485714Y-103942914D02*
X143628571Y-104133390D01*
X144247619Y-104133390D02*
X144152381Y-104085771D01*
X144152381Y-104085771D02*
X144104762Y-104038152D01*
X144104762Y-104038152D02*
X144057143Y-103942914D01*
X144057143Y-103942914D02*
X144057143Y-103895295D01*
X144057143Y-103895295D02*
X144104762Y-103800057D01*
X144104762Y-103800057D02*
X144152381Y-103752438D01*
X144152381Y-103752438D02*
X144247619Y-103704819D01*
X144247619Y-103704819D02*
X144438095Y-103704819D01*
X144438095Y-103704819D02*
X144533333Y-103752438D01*
X144533333Y-103752438D02*
X144580952Y-103800057D01*
X144580952Y-103800057D02*
X144628571Y-103895295D01*
X144628571Y-103895295D02*
X144628571Y-103942914D01*
X144628571Y-103942914D02*
X144580952Y-104038152D01*
X144580952Y-104038152D02*
X144533333Y-104085771D01*
X144533333Y-104085771D02*
X144438095Y-104133390D01*
X144438095Y-104133390D02*
X144247619Y-104133390D01*
X144247619Y-104133390D02*
X144152381Y-104181009D01*
X144152381Y-104181009D02*
X144104762Y-104228628D01*
X144104762Y-104228628D02*
X144057143Y-104323866D01*
X144057143Y-104323866D02*
X144057143Y-104514342D01*
X144057143Y-104514342D02*
X144104762Y-104609580D01*
X144104762Y-104609580D02*
X144152381Y-104657200D01*
X144152381Y-104657200D02*
X144247619Y-104704819D01*
X144247619Y-104704819D02*
X144438095Y-104704819D01*
X144438095Y-104704819D02*
X144533333Y-104657200D01*
X144533333Y-104657200D02*
X144580952Y-104609580D01*
X144580952Y-104609580D02*
X144628571Y-104514342D01*
X144628571Y-104514342D02*
X144628571Y-104323866D01*
X144628571Y-104323866D02*
X144580952Y-104228628D01*
X144580952Y-104228628D02*
X144533333Y-104181009D01*
X144533333Y-104181009D02*
X144438095Y-104133390D01*
X152390475Y-104704819D02*
X152057142Y-104228628D01*
X151819047Y-104704819D02*
X151819047Y-103704819D01*
X151819047Y-103704819D02*
X152199999Y-103704819D01*
X152199999Y-103704819D02*
X152295237Y-103752438D01*
X152295237Y-103752438D02*
X152342856Y-103800057D01*
X152342856Y-103800057D02*
X152390475Y-103895295D01*
X152390475Y-103895295D02*
X152390475Y-104038152D01*
X152390475Y-104038152D02*
X152342856Y-104133390D01*
X152342856Y-104133390D02*
X152295237Y-104181009D01*
X152295237Y-104181009D02*
X152199999Y-104228628D01*
X152199999Y-104228628D02*
X151819047Y-104228628D01*
X152819047Y-104181009D02*
X153152380Y-104181009D01*
X153295237Y-104704819D02*
X152819047Y-104704819D01*
X152819047Y-104704819D02*
X152819047Y-103704819D01*
X152819047Y-103704819D02*
X153295237Y-103704819D01*
X154057142Y-104181009D02*
X153723809Y-104181009D01*
X153723809Y-104704819D02*
X153723809Y-103704819D01*
X153723809Y-103704819D02*
X154199999Y-103704819D01*
X154723809Y-103704819D02*
X154723809Y-103942914D01*
X154485714Y-103847676D02*
X154723809Y-103942914D01*
X154723809Y-103942914D02*
X154961904Y-103847676D01*
X154580952Y-104133390D02*
X154723809Y-103942914D01*
X154723809Y-103942914D02*
X154866666Y-104133390D01*
X155485714Y-103704819D02*
X155485714Y-103942914D01*
X155247619Y-103847676D02*
X155485714Y-103942914D01*
X155485714Y-103942914D02*
X155723809Y-103847676D01*
X155342857Y-104133390D02*
X155485714Y-103942914D01*
X155485714Y-103942914D02*
X155628571Y-104133390D01*
X156152381Y-104704819D02*
X156342857Y-104704819D01*
X156342857Y-104704819D02*
X156438095Y-104657200D01*
X156438095Y-104657200D02*
X156485714Y-104609580D01*
X156485714Y-104609580D02*
X156580952Y-104466723D01*
X156580952Y-104466723D02*
X156628571Y-104276247D01*
X156628571Y-104276247D02*
X156628571Y-103895295D01*
X156628571Y-103895295D02*
X156580952Y-103800057D01*
X156580952Y-103800057D02*
X156533333Y-103752438D01*
X156533333Y-103752438D02*
X156438095Y-103704819D01*
X156438095Y-103704819D02*
X156247619Y-103704819D01*
X156247619Y-103704819D02*
X156152381Y-103752438D01*
X156152381Y-103752438D02*
X156104762Y-103800057D01*
X156104762Y-103800057D02*
X156057143Y-103895295D01*
X156057143Y-103895295D02*
X156057143Y-104133390D01*
X156057143Y-104133390D02*
X156104762Y-104228628D01*
X156104762Y-104228628D02*
X156152381Y-104276247D01*
X156152381Y-104276247D02*
X156247619Y-104323866D01*
X156247619Y-104323866D02*
X156438095Y-104323866D01*
X156438095Y-104323866D02*
X156533333Y-104276247D01*
X156533333Y-104276247D02*
X156580952Y-104228628D01*
X156580952Y-104228628D02*
X156628571Y-104133390D01*
X128390475Y-92704819D02*
X128057142Y-92228628D01*
X127819047Y-92704819D02*
X127819047Y-91704819D01*
X127819047Y-91704819D02*
X128199999Y-91704819D01*
X128199999Y-91704819D02*
X128295237Y-91752438D01*
X128295237Y-91752438D02*
X128342856Y-91800057D01*
X128342856Y-91800057D02*
X128390475Y-91895295D01*
X128390475Y-91895295D02*
X128390475Y-92038152D01*
X128390475Y-92038152D02*
X128342856Y-92133390D01*
X128342856Y-92133390D02*
X128295237Y-92181009D01*
X128295237Y-92181009D02*
X128199999Y-92228628D01*
X128199999Y-92228628D02*
X127819047Y-92228628D01*
X128819047Y-92181009D02*
X129152380Y-92181009D01*
X129295237Y-92704819D02*
X128819047Y-92704819D01*
X128819047Y-92704819D02*
X128819047Y-91704819D01*
X128819047Y-91704819D02*
X129295237Y-91704819D01*
X130057142Y-92181009D02*
X129723809Y-92181009D01*
X129723809Y-92704819D02*
X129723809Y-91704819D01*
X129723809Y-91704819D02*
X130199999Y-91704819D01*
X130723809Y-91704819D02*
X130723809Y-91942914D01*
X130485714Y-91847676D02*
X130723809Y-91942914D01*
X130723809Y-91942914D02*
X130961904Y-91847676D01*
X130580952Y-92133390D02*
X130723809Y-91942914D01*
X130723809Y-91942914D02*
X130866666Y-92133390D01*
X131485714Y-91704819D02*
X131485714Y-91942914D01*
X131247619Y-91847676D02*
X131485714Y-91942914D01*
X131485714Y-91942914D02*
X131723809Y-91847676D01*
X131342857Y-92133390D02*
X131485714Y-91942914D01*
X131485714Y-91942914D02*
X131628571Y-92133390D01*
X132628571Y-92704819D02*
X132057143Y-92704819D01*
X132342857Y-92704819D02*
X132342857Y-91704819D01*
X132342857Y-91704819D02*
X132247619Y-91847676D01*
X132247619Y-91847676D02*
X132152381Y-91942914D01*
X132152381Y-91942914D02*
X132057143Y-91990533D01*
X163914285Y-104704819D02*
X163580952Y-104228628D01*
X163342857Y-104704819D02*
X163342857Y-103704819D01*
X163342857Y-103704819D02*
X163723809Y-103704819D01*
X163723809Y-103704819D02*
X163819047Y-103752438D01*
X163819047Y-103752438D02*
X163866666Y-103800057D01*
X163866666Y-103800057D02*
X163914285Y-103895295D01*
X163914285Y-103895295D02*
X163914285Y-104038152D01*
X163914285Y-104038152D02*
X163866666Y-104133390D01*
X163866666Y-104133390D02*
X163819047Y-104181009D01*
X163819047Y-104181009D02*
X163723809Y-104228628D01*
X163723809Y-104228628D02*
X163342857Y-104228628D01*
X164342857Y-104181009D02*
X164676190Y-104181009D01*
X164819047Y-104704819D02*
X164342857Y-104704819D01*
X164342857Y-104704819D02*
X164342857Y-103704819D01*
X164342857Y-103704819D02*
X164819047Y-103704819D01*
X165580952Y-104181009D02*
X165247619Y-104181009D01*
X165247619Y-104704819D02*
X165247619Y-103704819D01*
X165247619Y-103704819D02*
X165723809Y-103704819D01*
X166247619Y-103704819D02*
X166247619Y-103942914D01*
X166009524Y-103847676D02*
X166247619Y-103942914D01*
X166247619Y-103942914D02*
X166485714Y-103847676D01*
X166104762Y-104133390D02*
X166247619Y-103942914D01*
X166247619Y-103942914D02*
X166390476Y-104133390D01*
X167009524Y-103704819D02*
X167009524Y-103942914D01*
X166771429Y-103847676D02*
X167009524Y-103942914D01*
X167009524Y-103942914D02*
X167247619Y-103847676D01*
X166866667Y-104133390D02*
X167009524Y-103942914D01*
X167009524Y-103942914D02*
X167152381Y-104133390D01*
X168152381Y-104704819D02*
X167580953Y-104704819D01*
X167866667Y-104704819D02*
X167866667Y-103704819D01*
X167866667Y-103704819D02*
X167771429Y-103847676D01*
X167771429Y-103847676D02*
X167676191Y-103942914D01*
X167676191Y-103942914D02*
X167580953Y-103990533D01*
X168771429Y-103704819D02*
X168866667Y-103704819D01*
X168866667Y-103704819D02*
X168961905Y-103752438D01*
X168961905Y-103752438D02*
X169009524Y-103800057D01*
X169009524Y-103800057D02*
X169057143Y-103895295D01*
X169057143Y-103895295D02*
X169104762Y-104085771D01*
X169104762Y-104085771D02*
X169104762Y-104323866D01*
X169104762Y-104323866D02*
X169057143Y-104514342D01*
X169057143Y-104514342D02*
X169009524Y-104609580D01*
X169009524Y-104609580D02*
X168961905Y-104657200D01*
X168961905Y-104657200D02*
X168866667Y-104704819D01*
X168866667Y-104704819D02*
X168771429Y-104704819D01*
X168771429Y-104704819D02*
X168676191Y-104657200D01*
X168676191Y-104657200D02*
X168628572Y-104609580D01*
X168628572Y-104609580D02*
X168580953Y-104514342D01*
X168580953Y-104514342D02*
X168533334Y-104323866D01*
X168533334Y-104323866D02*
X168533334Y-104085771D01*
X168533334Y-104085771D02*
X168580953Y-103895295D01*
X168580953Y-103895295D02*
X168628572Y-103800057D01*
X168628572Y-103800057D02*
X168676191Y-103752438D01*
X168676191Y-103752438D02*
X168771429Y-103704819D01*
X192390475Y-92704819D02*
X192057142Y-92228628D01*
X191819047Y-92704819D02*
X191819047Y-91704819D01*
X191819047Y-91704819D02*
X192199999Y-91704819D01*
X192199999Y-91704819D02*
X192295237Y-91752438D01*
X192295237Y-91752438D02*
X192342856Y-91800057D01*
X192342856Y-91800057D02*
X192390475Y-91895295D01*
X192390475Y-91895295D02*
X192390475Y-92038152D01*
X192390475Y-92038152D02*
X192342856Y-92133390D01*
X192342856Y-92133390D02*
X192295237Y-92181009D01*
X192295237Y-92181009D02*
X192199999Y-92228628D01*
X192199999Y-92228628D02*
X191819047Y-92228628D01*
X192819047Y-92181009D02*
X193152380Y-92181009D01*
X193295237Y-92704819D02*
X192819047Y-92704819D01*
X192819047Y-92704819D02*
X192819047Y-91704819D01*
X192819047Y-91704819D02*
X193295237Y-91704819D01*
X194057142Y-92181009D02*
X193723809Y-92181009D01*
X193723809Y-92704819D02*
X193723809Y-91704819D01*
X193723809Y-91704819D02*
X194199999Y-91704819D01*
X194723809Y-91704819D02*
X194723809Y-91942914D01*
X194485714Y-91847676D02*
X194723809Y-91942914D01*
X194723809Y-91942914D02*
X194961904Y-91847676D01*
X194580952Y-92133390D02*
X194723809Y-91942914D01*
X194723809Y-91942914D02*
X194866666Y-92133390D01*
X195485714Y-91704819D02*
X195485714Y-91942914D01*
X195247619Y-91847676D02*
X195485714Y-91942914D01*
X195485714Y-91942914D02*
X195723809Y-91847676D01*
X195342857Y-92133390D02*
X195485714Y-91942914D01*
X195485714Y-91942914D02*
X195628571Y-92133390D01*
X196533333Y-92038152D02*
X196533333Y-92704819D01*
X196295238Y-91657200D02*
X196057143Y-92371485D01*
X196057143Y-92371485D02*
X196676190Y-92371485D01*
X204390475Y-92704819D02*
X204057142Y-92228628D01*
X203819047Y-92704819D02*
X203819047Y-91704819D01*
X203819047Y-91704819D02*
X204199999Y-91704819D01*
X204199999Y-91704819D02*
X204295237Y-91752438D01*
X204295237Y-91752438D02*
X204342856Y-91800057D01*
X204342856Y-91800057D02*
X204390475Y-91895295D01*
X204390475Y-91895295D02*
X204390475Y-92038152D01*
X204390475Y-92038152D02*
X204342856Y-92133390D01*
X204342856Y-92133390D02*
X204295237Y-92181009D01*
X204295237Y-92181009D02*
X204199999Y-92228628D01*
X204199999Y-92228628D02*
X203819047Y-92228628D01*
X204819047Y-92181009D02*
X205152380Y-92181009D01*
X205295237Y-92704819D02*
X204819047Y-92704819D01*
X204819047Y-92704819D02*
X204819047Y-91704819D01*
X204819047Y-91704819D02*
X205295237Y-91704819D01*
X206057142Y-92181009D02*
X205723809Y-92181009D01*
X205723809Y-92704819D02*
X205723809Y-91704819D01*
X205723809Y-91704819D02*
X206199999Y-91704819D01*
X206723809Y-91704819D02*
X206723809Y-91942914D01*
X206485714Y-91847676D02*
X206723809Y-91942914D01*
X206723809Y-91942914D02*
X206961904Y-91847676D01*
X206580952Y-92133390D02*
X206723809Y-91942914D01*
X206723809Y-91942914D02*
X206866666Y-92133390D01*
X207485714Y-91704819D02*
X207485714Y-91942914D01*
X207247619Y-91847676D02*
X207485714Y-91942914D01*
X207485714Y-91942914D02*
X207723809Y-91847676D01*
X207342857Y-92133390D02*
X207485714Y-91942914D01*
X207485714Y-91942914D02*
X207628571Y-92133390D01*
X208580952Y-91704819D02*
X208104762Y-91704819D01*
X208104762Y-91704819D02*
X208057143Y-92181009D01*
X208057143Y-92181009D02*
X208104762Y-92133390D01*
X208104762Y-92133390D02*
X208200000Y-92085771D01*
X208200000Y-92085771D02*
X208438095Y-92085771D01*
X208438095Y-92085771D02*
X208533333Y-92133390D01*
X208533333Y-92133390D02*
X208580952Y-92181009D01*
X208580952Y-92181009D02*
X208628571Y-92276247D01*
X208628571Y-92276247D02*
X208628571Y-92514342D01*
X208628571Y-92514342D02*
X208580952Y-92609580D01*
X208580952Y-92609580D02*
X208533333Y-92657200D01*
X208533333Y-92657200D02*
X208438095Y-92704819D01*
X208438095Y-92704819D02*
X208200000Y-92704819D01*
X208200000Y-92704819D02*
X208104762Y-92657200D01*
X208104762Y-92657200D02*
X208057143Y-92609580D01*
X165211666Y-88299819D02*
X164878333Y-87823628D01*
X164640238Y-88299819D02*
X164640238Y-87299819D01*
X164640238Y-87299819D02*
X165021190Y-87299819D01*
X165021190Y-87299819D02*
X165116428Y-87347438D01*
X165116428Y-87347438D02*
X165164047Y-87395057D01*
X165164047Y-87395057D02*
X165211666Y-87490295D01*
X165211666Y-87490295D02*
X165211666Y-87633152D01*
X165211666Y-87633152D02*
X165164047Y-87728390D01*
X165164047Y-87728390D02*
X165116428Y-87776009D01*
X165116428Y-87776009D02*
X165021190Y-87823628D01*
X165021190Y-87823628D02*
X164640238Y-87823628D01*
X165640238Y-87776009D02*
X165973571Y-87776009D01*
X166116428Y-88299819D02*
X165640238Y-88299819D01*
X165640238Y-88299819D02*
X165640238Y-87299819D01*
X165640238Y-87299819D02*
X166116428Y-87299819D01*
X166878333Y-87776009D02*
X166545000Y-87776009D01*
X166545000Y-88299819D02*
X166545000Y-87299819D01*
X166545000Y-87299819D02*
X167021190Y-87299819D01*
X167545000Y-87299819D02*
X167545000Y-87537914D01*
X167306905Y-87442676D02*
X167545000Y-87537914D01*
X167545000Y-87537914D02*
X167783095Y-87442676D01*
X167402143Y-87728390D02*
X167545000Y-87537914D01*
X167545000Y-87537914D02*
X167687857Y-87728390D01*
X168306905Y-87299819D02*
X168306905Y-87537914D01*
X168068810Y-87442676D02*
X168306905Y-87537914D01*
X168306905Y-87537914D02*
X168545000Y-87442676D01*
X168164048Y-87728390D02*
X168306905Y-87537914D01*
X168306905Y-87537914D02*
X168449762Y-87728390D01*
X199914285Y-104704819D02*
X199580952Y-104228628D01*
X199342857Y-104704819D02*
X199342857Y-103704819D01*
X199342857Y-103704819D02*
X199723809Y-103704819D01*
X199723809Y-103704819D02*
X199819047Y-103752438D01*
X199819047Y-103752438D02*
X199866666Y-103800057D01*
X199866666Y-103800057D02*
X199914285Y-103895295D01*
X199914285Y-103895295D02*
X199914285Y-104038152D01*
X199914285Y-104038152D02*
X199866666Y-104133390D01*
X199866666Y-104133390D02*
X199819047Y-104181009D01*
X199819047Y-104181009D02*
X199723809Y-104228628D01*
X199723809Y-104228628D02*
X199342857Y-104228628D01*
X200342857Y-104181009D02*
X200676190Y-104181009D01*
X200819047Y-104704819D02*
X200342857Y-104704819D01*
X200342857Y-104704819D02*
X200342857Y-103704819D01*
X200342857Y-103704819D02*
X200819047Y-103704819D01*
X201580952Y-104181009D02*
X201247619Y-104181009D01*
X201247619Y-104704819D02*
X201247619Y-103704819D01*
X201247619Y-103704819D02*
X201723809Y-103704819D01*
X202247619Y-103704819D02*
X202247619Y-103942914D01*
X202009524Y-103847676D02*
X202247619Y-103942914D01*
X202247619Y-103942914D02*
X202485714Y-103847676D01*
X202104762Y-104133390D02*
X202247619Y-103942914D01*
X202247619Y-103942914D02*
X202390476Y-104133390D01*
X203009524Y-103704819D02*
X203009524Y-103942914D01*
X202771429Y-103847676D02*
X203009524Y-103942914D01*
X203009524Y-103942914D02*
X203247619Y-103847676D01*
X202866667Y-104133390D02*
X203009524Y-103942914D01*
X203009524Y-103942914D02*
X203152381Y-104133390D01*
X204152381Y-104704819D02*
X203580953Y-104704819D01*
X203866667Y-104704819D02*
X203866667Y-103704819D01*
X203866667Y-103704819D02*
X203771429Y-103847676D01*
X203771429Y-103847676D02*
X203676191Y-103942914D01*
X203676191Y-103942914D02*
X203580953Y-103990533D01*
X204485715Y-103704819D02*
X205104762Y-103704819D01*
X205104762Y-103704819D02*
X204771429Y-104085771D01*
X204771429Y-104085771D02*
X204914286Y-104085771D01*
X204914286Y-104085771D02*
X205009524Y-104133390D01*
X205009524Y-104133390D02*
X205057143Y-104181009D01*
X205057143Y-104181009D02*
X205104762Y-104276247D01*
X205104762Y-104276247D02*
X205104762Y-104514342D01*
X205104762Y-104514342D02*
X205057143Y-104609580D01*
X205057143Y-104609580D02*
X205009524Y-104657200D01*
X205009524Y-104657200D02*
X204914286Y-104704819D01*
X204914286Y-104704819D02*
X204628572Y-104704819D01*
X204628572Y-104704819D02*
X204533334Y-104657200D01*
X204533334Y-104657200D02*
X204485715Y-104609580D01*
X152390475Y-92704819D02*
X152057142Y-92228628D01*
X151819047Y-92704819D02*
X151819047Y-91704819D01*
X151819047Y-91704819D02*
X152199999Y-91704819D01*
X152199999Y-91704819D02*
X152295237Y-91752438D01*
X152295237Y-91752438D02*
X152342856Y-91800057D01*
X152342856Y-91800057D02*
X152390475Y-91895295D01*
X152390475Y-91895295D02*
X152390475Y-92038152D01*
X152390475Y-92038152D02*
X152342856Y-92133390D01*
X152342856Y-92133390D02*
X152295237Y-92181009D01*
X152295237Y-92181009D02*
X152199999Y-92228628D01*
X152199999Y-92228628D02*
X151819047Y-92228628D01*
X152819047Y-92181009D02*
X153152380Y-92181009D01*
X153295237Y-92704819D02*
X152819047Y-92704819D01*
X152819047Y-92704819D02*
X152819047Y-91704819D01*
X152819047Y-91704819D02*
X153295237Y-91704819D01*
X154057142Y-92181009D02*
X153723809Y-92181009D01*
X153723809Y-92704819D02*
X153723809Y-91704819D01*
X153723809Y-91704819D02*
X154199999Y-91704819D01*
X154723809Y-91704819D02*
X154723809Y-91942914D01*
X154485714Y-91847676D02*
X154723809Y-91942914D01*
X154723809Y-91942914D02*
X154961904Y-91847676D01*
X154580952Y-92133390D02*
X154723809Y-91942914D01*
X154723809Y-91942914D02*
X154866666Y-92133390D01*
X155485714Y-91704819D02*
X155485714Y-91942914D01*
X155247619Y-91847676D02*
X155485714Y-91942914D01*
X155485714Y-91942914D02*
X155723809Y-91847676D01*
X155342857Y-92133390D02*
X155485714Y-91942914D01*
X155485714Y-91942914D02*
X155628571Y-92133390D01*
X156009524Y-91704819D02*
X156628571Y-91704819D01*
X156628571Y-91704819D02*
X156295238Y-92085771D01*
X156295238Y-92085771D02*
X156438095Y-92085771D01*
X156438095Y-92085771D02*
X156533333Y-92133390D01*
X156533333Y-92133390D02*
X156580952Y-92181009D01*
X156580952Y-92181009D02*
X156628571Y-92276247D01*
X156628571Y-92276247D02*
X156628571Y-92514342D01*
X156628571Y-92514342D02*
X156580952Y-92609580D01*
X156580952Y-92609580D02*
X156533333Y-92657200D01*
X156533333Y-92657200D02*
X156438095Y-92704819D01*
X156438095Y-92704819D02*
X156152381Y-92704819D01*
X156152381Y-92704819D02*
X156057143Y-92657200D01*
X156057143Y-92657200D02*
X156009524Y-92609580D01*
D12*
%TO.C,REF\u002A\u002A6*%
X221555000Y-95550000D02*
X221555000Y-98450000D01*
X216750000Y-100355000D02*
X219650000Y-100355000D01*
X216750000Y-93645000D02*
X219650000Y-93645000D01*
X214845000Y-95550000D02*
X214845000Y-98450000D01*
%TO.C,REF\u002A\u002A7*%
X126845000Y-107550000D02*
X126845000Y-110450000D01*
X128750000Y-105645000D02*
X131650000Y-105645000D01*
X128750000Y-112355000D02*
X131650000Y-112355000D01*
X133555000Y-107550000D02*
X133555000Y-110450000D01*
%TO.C,REF\u002A\u002A11*%
X174845000Y-107550000D02*
X174845000Y-110450000D01*
X176750000Y-105645000D02*
X179650000Y-105645000D01*
X176750000Y-112355000D02*
X179650000Y-112355000D01*
X181555000Y-107550000D02*
X181555000Y-110450000D01*
%TO.C,REF\u002A\u002A12*%
X186845000Y-107550000D02*
X186845000Y-110450000D01*
X188750000Y-105645000D02*
X191650000Y-105645000D01*
X188750000Y-112355000D02*
X191650000Y-112355000D01*
X193555000Y-107550000D02*
X193555000Y-110450000D01*
%TO.C,REF\u002A\u002A2*%
X138845000Y-95550000D02*
X138845000Y-98450000D01*
X140750000Y-93645000D02*
X143650000Y-93645000D01*
X140750000Y-100355000D02*
X143650000Y-100355000D01*
X145555000Y-95550000D02*
X145555000Y-98450000D01*
%TO.C,REF\u002A\u002A8*%
X138845000Y-107550000D02*
X138845000Y-110450000D01*
X140750000Y-105645000D02*
X143650000Y-105645000D01*
X140750000Y-112355000D02*
X143650000Y-112355000D01*
X145555000Y-107550000D02*
X145555000Y-110450000D01*
%TO.C,REF\u002A\u002A9*%
X150845000Y-107550000D02*
X150845000Y-110450000D01*
X152750000Y-105645000D02*
X155650000Y-105645000D01*
X152750000Y-112355000D02*
X155650000Y-112355000D01*
X157555000Y-107550000D02*
X157555000Y-110450000D01*
%TO.C,REF\u002A\u002A1*%
X126845000Y-95550000D02*
X126845000Y-98450000D01*
X128750000Y-93645000D02*
X131650000Y-93645000D01*
X128750000Y-100355000D02*
X131650000Y-100355000D01*
X133555000Y-95550000D02*
X133555000Y-98450000D01*
%TO.C,REF\u002A\u002A10*%
X162845000Y-107550000D02*
X162845000Y-110450000D01*
X164750000Y-105645000D02*
X167650000Y-105645000D01*
X164750000Y-112355000D02*
X167650000Y-112355000D01*
X169555000Y-107550000D02*
X169555000Y-110450000D01*
%TO.C,REF\u002A\u002A4*%
X197555000Y-95550000D02*
X197555000Y-98450000D01*
X192750000Y-100355000D02*
X195650000Y-100355000D01*
X192750000Y-93645000D02*
X195650000Y-93645000D01*
X190845000Y-95550000D02*
X190845000Y-98450000D01*
%TO.C,REF\u002A\u002A5*%
X209555000Y-95550000D02*
X209555000Y-98450000D01*
X204750000Y-100355000D02*
X207650000Y-100355000D01*
X204750000Y-93645000D02*
X207650000Y-93645000D01*
X202845000Y-95550000D02*
X202845000Y-98450000D01*
D13*
%TO.C,REF\u002A\u002A*%
X168500000Y-100100000D02*
G75*
G02*
X168300000Y-100100000I-100000J0D01*
G01*
X168300000Y-100100000D02*
G75*
G02*
X168500000Y-100100000I100000J0D01*
G01*
X186835000Y-99600000D02*
X162765000Y-99600000D01*
X186835000Y-92600000D02*
X186835000Y-99600000D01*
X162765000Y-99600000D02*
X162765000Y-92600000D01*
X162765000Y-92600000D02*
X186835000Y-92600000D01*
D12*
%TO.C,REF\u002A\u002A13*%
X198845000Y-107550000D02*
X198845000Y-110450000D01*
X200750000Y-105645000D02*
X203650000Y-105645000D01*
X200750000Y-112355000D02*
X203650000Y-112355000D01*
X205555000Y-107550000D02*
X205555000Y-110450000D01*
%TO.C,REF\u002A\u002A3*%
X150845000Y-95550000D02*
X150845000Y-98450000D01*
X152750000Y-93645000D02*
X155650000Y-93645000D01*
X152750000Y-100355000D02*
X155650000Y-100355000D01*
X157555000Y-95550000D02*
X157555000Y-98450000D01*
%TD*%
M02*
