%TF.GenerationSoftware,KiCad,Pcbnew,8.0.2-1*%
%TF.CreationDate,2024-09-17T16:57:37-04:00*%
%TF.ProjectId,Dummy Board,44756d6d-7920-4426-9f61-72642e6b6963,rev?*%
%TF.SameCoordinates,Original*%
%TF.FileFunction,Copper,L2,Bot*%
%TF.FilePolarity,Positive*%
%FSLAX46Y46*%
G04 Gerber Fmt 4.6, Leading zero omitted, Abs format (unit mm)*
G04 Created by KiCad (PCBNEW 8.0.2-1) date 2024-09-17 16:57:37*
%MOMM*%
%LPD*%
G01*
G04 APERTURE LIST*
%TA.AperFunction,ComponentPad*%
%ADD10C,2.250000*%
%TD*%
%TA.AperFunction,ComponentPad*%
%ADD11C,2.050000*%
%TD*%
%TA.AperFunction,ComponentPad*%
%ADD12C,1.348000*%
%TD*%
%TA.AperFunction,ViaPad*%
%ADD13C,0.600000*%
%TD*%
%TA.AperFunction,Conductor*%
%ADD14C,0.200000*%
%TD*%
G04 APERTURE END LIST*
D10*
%TO.P,REF\u002A\u002A6,2*%
%TO.N,N/C*%
X220740000Y-99540000D03*
X220740000Y-94460000D03*
X215660000Y-99540000D03*
%TO.N,K5*%
X215660000Y-94460000D03*
D11*
%TO.P,REF\u002A\u002A6,1*%
%TO.N,A5*%
X218200000Y-97000000D03*
%TD*%
%TO.P,REF\u002A\u002A7,1*%
%TO.N,A6*%
X130200000Y-109000000D03*
D10*
%TO.P,REF\u002A\u002A7,2*%
%TO.N,K6*%
X127660000Y-106460000D03*
%TO.N,N/C*%
X127660000Y-111540000D03*
X132740000Y-106460000D03*
X132740000Y-111540000D03*
%TD*%
D11*
%TO.P,REF\u002A\u002A11,1*%
%TO.N,A10*%
X178200000Y-109000000D03*
D10*
%TO.P,REF\u002A\u002A11,2*%
%TO.N,K10*%
X175660000Y-106460000D03*
%TO.N,N/C*%
X175660000Y-111540000D03*
X180740000Y-106460000D03*
X180740000Y-111540000D03*
%TD*%
D11*
%TO.P,REF\u002A\u002A12,1*%
%TO.N,A11*%
X190200000Y-109000000D03*
D10*
%TO.P,REF\u002A\u002A12,2*%
%TO.N,K11*%
X187660000Y-106460000D03*
%TO.N,N/C*%
X187660000Y-111540000D03*
X192740000Y-106460000D03*
X192740000Y-111540000D03*
%TD*%
D11*
%TO.P,REF\u002A\u002A2,1*%
%TO.N,A1*%
X142200000Y-97000000D03*
D10*
%TO.P,REF\u002A\u002A2,2*%
%TO.N,K1*%
X139660000Y-94460000D03*
%TO.N,N/C*%
X139660000Y-99540000D03*
X144740000Y-94460000D03*
X144740000Y-99540000D03*
%TD*%
D11*
%TO.P,REF\u002A\u002A8,1*%
%TO.N,A7*%
X142200000Y-109000000D03*
D10*
%TO.P,REF\u002A\u002A8,2*%
%TO.N,K7*%
X139660000Y-106460000D03*
%TO.N,N/C*%
X139660000Y-111540000D03*
X144740000Y-106460000D03*
X144740000Y-111540000D03*
%TD*%
D11*
%TO.P,REF\u002A\u002A9,1*%
%TO.N,A8*%
X154200000Y-109000000D03*
D10*
%TO.P,REF\u002A\u002A9,2*%
%TO.N,K8*%
X151660000Y-106460000D03*
%TO.N,N/C*%
X151660000Y-111540000D03*
X156740000Y-106460000D03*
X156740000Y-111540000D03*
%TD*%
D11*
%TO.P,REF\u002A\u002A1,1*%
%TO.N,A0*%
X130200000Y-97000000D03*
D10*
%TO.P,REF\u002A\u002A1,2*%
%TO.N,K0*%
X127660000Y-94460000D03*
%TO.N,N/C*%
X127660000Y-99540000D03*
X132740000Y-94460000D03*
X132740000Y-99540000D03*
%TD*%
D11*
%TO.P,REF\u002A\u002A10,1*%
%TO.N,A9*%
X166200000Y-109000000D03*
D10*
%TO.P,REF\u002A\u002A10,2*%
%TO.N,K9*%
X163660000Y-106460000D03*
%TO.N,N/C*%
X163660000Y-111540000D03*
X168740000Y-106460000D03*
X168740000Y-111540000D03*
%TD*%
%TO.P,REF\u002A\u002A4,2*%
%TO.N,N/C*%
X196740000Y-99540000D03*
X196740000Y-94460000D03*
X191660000Y-99540000D03*
%TO.N,K3*%
X191660000Y-94460000D03*
D11*
%TO.P,REF\u002A\u002A4,1*%
%TO.N,A3*%
X194200000Y-97000000D03*
%TD*%
D10*
%TO.P,REF\u002A\u002A5,2*%
%TO.N,N/C*%
X208740000Y-99540000D03*
X208740000Y-94460000D03*
X203660000Y-99540000D03*
%TO.N,K4*%
X203660000Y-94460000D03*
D11*
%TO.P,REF\u002A\u002A5,1*%
%TO.N,A4*%
X206200000Y-97000000D03*
%TD*%
D12*
%TO.P,REF\u002A\u002A,S2*%
%TO.N,N/C*%
X184295000Y-96100000D03*
%TO.P,REF\u002A\u002A,S1*%
X165305000Y-96100000D03*
%TD*%
D11*
%TO.P,REF\u002A\u002A13,1*%
%TO.N,A12*%
X202200000Y-109000000D03*
D10*
%TO.P,REF\u002A\u002A13,2*%
%TO.N,K12*%
X199660000Y-106460000D03*
%TO.N,N/C*%
X199660000Y-111540000D03*
X204740000Y-106460000D03*
X204740000Y-111540000D03*
%TD*%
D11*
%TO.P,REF\u002A\u002A3,1*%
%TO.N,A2*%
X154200000Y-97000000D03*
D10*
%TO.P,REF\u002A\u002A3,2*%
%TO.N,K2*%
X151660000Y-94460000D03*
%TO.N,N/C*%
X151660000Y-99540000D03*
X156740000Y-94460000D03*
X156740000Y-99540000D03*
%TD*%
D13*
%TO.N,K5*%
X178600000Y-91800000D03*
%TO.N,K4*%
X190800000Y-92000000D03*
%TO.N,K12*%
X181200000Y-93200000D03*
%TO.N,K11*%
X180400000Y-93200000D03*
%TO.N,K10*%
X179600000Y-93200000D03*
%TO.N,K9*%
X178800000Y-93200000D03*
%TO.N,K8*%
X178000000Y-93200000D03*
%TO.N,K7*%
X177200000Y-93200000D03*
%TO.N,K6*%
X176400000Y-93200000D03*
%TO.N,K2*%
X166000000Y-91600000D03*
%TO.N,K1*%
X169200000Y-93200000D03*
%TO.N,A1*%
X169200000Y-99000000D03*
%TD*%
D14*
%TO.N,K12*%
X183600000Y-102800000D02*
X187730000Y-102800000D01*
%TO.N,K11*%
X185200000Y-104000000D02*
X183600000Y-104000000D01*
%TO.N,K10*%
X175660000Y-106460000D02*
X179600000Y-102520000D01*
X179600000Y-102520000D02*
X179600000Y-93200000D01*
%TO.N,K9*%
X178800000Y-101335255D02*
X176867628Y-103267628D01*
X163660000Y-106460000D02*
X165740000Y-106460000D01*
X165740000Y-106460000D02*
X167800000Y-104400000D01*
X167800000Y-104400000D02*
X174400000Y-104400000D01*
X174400000Y-104400000D02*
X175532372Y-103267628D01*
X175532372Y-103267628D02*
X176867628Y-103267628D01*
%TO.N,K8*%
X151660000Y-106460000D02*
X154120000Y-104000000D01*
X154120000Y-104000000D02*
X174000000Y-104000000D01*
X178000000Y-100000000D02*
X178000000Y-93200000D01*
X174000000Y-104000000D02*
X178000000Y-100000000D01*
%TO.N,K7*%
X139660000Y-106460000D02*
X142520000Y-103600000D01*
X142520000Y-103600000D02*
X173000000Y-103600000D01*
X173000000Y-103600000D02*
X177200000Y-99400000D01*
X177200000Y-99400000D02*
X177200000Y-93200000D01*
%TO.N,K6*%
X128600000Y-103200000D02*
X163600000Y-103200000D01*
X163600000Y-103200000D02*
X164200000Y-102600000D01*
X172800000Y-102600000D02*
X176400000Y-99000000D01*
X164200000Y-102600000D02*
X172800000Y-102600000D01*
X176400000Y-99000000D02*
X176400000Y-93200000D01*
%TO.N,A1*%
X166600000Y-101600000D02*
X143000000Y-101600000D01*
X142200000Y-101000000D02*
X142800000Y-101600000D01*
X142800000Y-101600000D02*
X143000000Y-101600000D01*
X169200000Y-99000000D02*
X166600000Y-101600000D01*
%TO.N,K2*%
X151660000Y-94460000D02*
X154520000Y-91600000D01*
X154520000Y-91600000D02*
X166000000Y-91600000D01*
%TO.N,K1*%
X169200000Y-93200000D02*
X166800000Y-90800000D01*
X166800000Y-90800000D02*
X143320000Y-90800000D01*
X143320000Y-90800000D02*
X139660000Y-94460000D01*
%TO.N,K6*%
X127660000Y-104140000D02*
X128600000Y-103200000D01*
X127660000Y-106460000D02*
X127660000Y-104140000D01*
%TO.N,K5*%
X215660000Y-94460000D02*
X212600000Y-91400000D01*
X212600000Y-91400000D02*
X190200000Y-91400000D01*
X190200000Y-91400000D02*
X189800000Y-91800000D01*
X189800000Y-91800000D02*
X178600000Y-91800000D01*
%TO.N,K4*%
X190800000Y-92000000D02*
X201200000Y-92000000D01*
X201200000Y-92000000D02*
X203660000Y-94460000D01*
%TO.N,K12*%
X183600000Y-102800000D02*
X181200000Y-100400000D01*
X199660000Y-106460000D02*
X198235000Y-105035000D01*
X189965000Y-105035000D02*
X187730000Y-102800000D01*
X181200000Y-100400000D02*
X181200000Y-93200000D01*
X198235000Y-105035000D02*
X189965000Y-105035000D01*
%TO.N,K11*%
X187660000Y-106460000D02*
X185200000Y-104000000D01*
X180400000Y-100800000D02*
X180400000Y-93200000D01*
X183600000Y-104000000D02*
X180400000Y-100800000D01*
%TO.N,K9*%
X178800000Y-93200000D02*
X178800000Y-101335255D01*
%TO.N,A1*%
X142200000Y-101000000D02*
X142200000Y-97000000D01*
%TD*%
M02*
