%TF.GenerationSoftware,KiCad,Pcbnew,8.0.2-1*%
%TF.CreationDate,2024-09-17T16:57:38-04:00*%
%TF.ProjectId,Dummy Board,44756d6d-7920-4426-9f61-72642e6b6963,rev?*%
%TF.SameCoordinates,Original*%
%TF.FileFunction,Soldermask,Bot*%
%TF.FilePolarity,Negative*%
%FSLAX46Y46*%
G04 Gerber Fmt 4.6, Leading zero omitted, Abs format (unit mm)*
G04 Created by KiCad (PCBNEW 8.0.2-1) date 2024-09-17 16:57:38*
%MOMM*%
%LPD*%
G01*
G04 APERTURE LIST*
%ADD10C,2.250000*%
%ADD11C,2.050000*%
%ADD12C,1.552000*%
%ADD13C,1.270000*%
G04 APERTURE END LIST*
D10*
%TO.C,REF\u002A\u002A6*%
X220740000Y-99540000D03*
X220740000Y-94460000D03*
X215660000Y-99540000D03*
X215660000Y-94460000D03*
D11*
X218200000Y-97000000D03*
%TD*%
%TO.C,REF\u002A\u002A7*%
X130200000Y-109000000D03*
D10*
X127660000Y-106460000D03*
X127660000Y-111540000D03*
X132740000Y-106460000D03*
X132740000Y-111540000D03*
%TD*%
D11*
%TO.C,REF\u002A\u002A11*%
X178200000Y-109000000D03*
D10*
X175660000Y-106460000D03*
X175660000Y-111540000D03*
X180740000Y-106460000D03*
X180740000Y-111540000D03*
%TD*%
D11*
%TO.C,REF\u002A\u002A12*%
X190200000Y-109000000D03*
D10*
X187660000Y-106460000D03*
X187660000Y-111540000D03*
X192740000Y-106460000D03*
X192740000Y-111540000D03*
%TD*%
D11*
%TO.C,REF\u002A\u002A2*%
X142200000Y-97000000D03*
D10*
X139660000Y-94460000D03*
X139660000Y-99540000D03*
X144740000Y-94460000D03*
X144740000Y-99540000D03*
%TD*%
D11*
%TO.C,REF\u002A\u002A8*%
X142200000Y-109000000D03*
D10*
X139660000Y-106460000D03*
X139660000Y-111540000D03*
X144740000Y-106460000D03*
X144740000Y-111540000D03*
%TD*%
D11*
%TO.C,REF\u002A\u002A9*%
X154200000Y-109000000D03*
D10*
X151660000Y-106460000D03*
X151660000Y-111540000D03*
X156740000Y-106460000D03*
X156740000Y-111540000D03*
%TD*%
D11*
%TO.C,REF\u002A\u002A1*%
X130200000Y-97000000D03*
D10*
X127660000Y-94460000D03*
X127660000Y-99540000D03*
X132740000Y-94460000D03*
X132740000Y-99540000D03*
%TD*%
D11*
%TO.C,REF\u002A\u002A10*%
X166200000Y-109000000D03*
D10*
X163660000Y-106460000D03*
X163660000Y-111540000D03*
X168740000Y-106460000D03*
X168740000Y-111540000D03*
%TD*%
%TO.C,REF\u002A\u002A4*%
X196740000Y-99540000D03*
X196740000Y-94460000D03*
X191660000Y-99540000D03*
X191660000Y-94460000D03*
D11*
X194200000Y-97000000D03*
%TD*%
D10*
%TO.C,REF\u002A\u002A5*%
X208740000Y-99540000D03*
X208740000Y-94460000D03*
X203660000Y-99540000D03*
X203660000Y-94460000D03*
D11*
X206200000Y-97000000D03*
%TD*%
D12*
%TO.C,REF\u002A\u002A*%
X184295000Y-96100000D03*
X165305000Y-96100000D03*
D13*
X185545000Y-97600000D03*
X164055000Y-97600000D03*
%TD*%
D11*
%TO.C,REF\u002A\u002A13*%
X202200000Y-109000000D03*
D10*
X199660000Y-106460000D03*
X199660000Y-111540000D03*
X204740000Y-106460000D03*
X204740000Y-111540000D03*
%TD*%
D11*
%TO.C,REF\u002A\u002A3*%
X154200000Y-97000000D03*
D10*
X151660000Y-94460000D03*
X151660000Y-99540000D03*
X156740000Y-94460000D03*
X156740000Y-99540000D03*
%TD*%
M02*
