M48
; DRILL file {KiCad 8.0.2-1} date 2024-09-17T16:57:36-0400
; FORMAT={-:-/ absolute / inch / decimal}
; #@! TF.CreationDate,2024-09-17T16:57:36-04:00
; #@! TF.GenerationSoftware,Kicad,Pcbnew,8.0.2-1
; #@! TF.FileFunction,Plated,1,2,PTH
FMAT,2
INCH
; #@! TA.AperFunction,Plated,PTH,ViaDrill
T1C0.0118
; #@! TA.AperFunction,Plated,PTH,ComponentDrill
T2C0.0331
; #@! TA.AperFunction,Plated,PTH,ComponentDrill
T3C0.0591
; #@! TA.AperFunction,Plated,PTH,ComponentDrill
T4C0.0669
%
G90
G05
T1
X6.5354Y-3.6063
X6.6614Y-3.6693
X6.6614Y-3.8976
X6.9449Y-3.6693
X6.9764Y-3.6693
X7.0079Y-3.6693
X7.0315Y-3.6142
X7.0394Y-3.6693
X7.0709Y-3.6693
X7.1024Y-3.6693
X7.1339Y-3.6693
X7.5118Y-3.622
T2
X6.5081Y-3.7835
X7.2557Y-3.7835
T3
X5.126Y-3.8189
X5.126Y-4.2913
X5.5984Y-3.8189
X5.5984Y-4.2913
X6.0709Y-3.8189
X6.0709Y-4.2913
X6.5433Y-4.2913
X7.0157Y-4.2913
X7.4882Y-4.2913
X7.6457Y-3.8189
X7.9606Y-4.2913
X8.1181Y-3.8189
X8.5906Y-3.8189
T4
X5.026Y-3.7189
X5.026Y-3.9189
X5.026Y-4.1913
X5.026Y-4.3913
X5.226Y-3.7189
X5.226Y-3.9189
X5.226Y-4.1913
X5.226Y-4.3913
X5.4984Y-3.7189
X5.4984Y-3.9189
X5.4984Y-4.1913
X5.4984Y-4.3913
X5.6984Y-3.7189
X5.6984Y-3.9189
X5.6984Y-4.1913
X5.6984Y-4.3913
X5.9709Y-3.7189
X5.9709Y-3.9189
X5.9709Y-4.1913
X5.9709Y-4.3913
X6.1709Y-3.7189
X6.1709Y-3.9189
X6.1709Y-4.1913
X6.1709Y-4.3913
X6.4433Y-4.1913
X6.4433Y-4.3913
X6.6433Y-4.1913
X6.6433Y-4.3913
X6.9157Y-4.1913
X6.9157Y-4.3913
X7.1157Y-4.1913
X7.1157Y-4.3913
X7.3882Y-4.1913
X7.3882Y-4.3913
X7.5457Y-3.7189
X7.5457Y-3.9189
X7.5882Y-4.1913
X7.5882Y-4.3913
X7.7457Y-3.7189
X7.7457Y-3.9189
X7.8606Y-4.1913
X7.8606Y-4.3913
X8.0181Y-3.7189
X8.0181Y-3.9189
X8.0606Y-4.1913
X8.0606Y-4.3913
X8.2181Y-3.7189
X8.2181Y-3.9189
X8.4906Y-3.7189
X8.4906Y-3.9189
X8.6906Y-3.7189
X8.6906Y-3.9189
M30
