%TF.GenerationSoftware,KiCad,Pcbnew,8.0.2-1*%
%TF.CreationDate,2024-06-17T18:27:34-04:00*%
%TF.ProjectId,Dummy Board,44756d6d-7920-4426-9f61-72642e6b6963,rev?*%
%TF.SameCoordinates,Original*%
%TF.FileFunction,Profile,NP*%
%FSLAX46Y46*%
G04 Gerber Fmt 4.6, Leading zero omitted, Abs format (unit mm)*
G04 Created by KiCad (PCBNEW 8.0.2-1) date 2024-06-17 18:27:34*
%MOMM*%
%LPD*%
G01*
G04 APERTURE LIST*
%TA.AperFunction,Profile*%
%ADD10C,0.050000*%
%TD*%
%TA.AperFunction,Profile*%
%ADD11C,0.120000*%
%TD*%
G04 APERTURE END LIST*
D10*
X126400000Y-80000000D02*
X126400000Y-78600000D01*
X130575000Y-78600000D02*
X126400000Y-78600000D01*
X150000000Y-78600000D02*
X150000000Y-80000000D01*
X145425000Y-78600000D02*
X150000000Y-78600000D01*
X150000000Y-87200000D02*
X150000000Y-80000000D01*
X126400000Y-87200000D02*
X126400000Y-80000000D01*
X130575000Y-87200000D02*
X126400000Y-87200000D01*
X145425000Y-87200000D02*
X150000000Y-87200000D01*
D11*
%TO.C,REF\u002A\u002A*%
X130575000Y-73600000D02*
X130575000Y-78600000D01*
X136405000Y-73600000D02*
X130575000Y-73600000D01*
X136405000Y-78800000D02*
X136405000Y-73600000D01*
X138805000Y-73600000D02*
X138805000Y-78800000D01*
X145425000Y-73600000D02*
X138805000Y-73600000D01*
X145425000Y-78600000D02*
X145425000Y-73600000D01*
X138805000Y-78800000D02*
G75*
G02*
X136405000Y-78800000I-1200000J0D01*
G01*
X130575000Y-87200000D02*
X130575000Y-92200000D01*
X130575000Y-92200000D02*
X136405000Y-92200000D01*
X136405000Y-92200000D02*
X136405000Y-87000000D01*
X138805000Y-87000000D02*
X138805000Y-92200000D01*
X138805000Y-92200000D02*
X145425000Y-92200000D01*
X145425000Y-92200000D02*
X145425000Y-87200000D01*
X136405000Y-87000000D02*
G75*
G02*
X138805000Y-87000000I1200000J0D01*
G01*
%TD*%
M02*
