%TF.GenerationSoftware,KiCad,Pcbnew,8.0.2-1*%
%TF.CreationDate,2024-06-17T18:27:34-04:00*%
%TF.ProjectId,Dummy Board,44756d6d-7920-4426-9f61-72642e6b6963,rev?*%
%TF.SameCoordinates,Original*%
%TF.FileFunction,Legend,Top*%
%TF.FilePolarity,Positive*%
%FSLAX46Y46*%
G04 Gerber Fmt 4.6, Leading zero omitted, Abs format (unit mm)*
G04 Created by KiCad (PCBNEW 8.0.2-1) date 2024-06-17 18:27:34*
%MOMM*%
%LPD*%
G01*
G04 APERTURE LIST*
%ADD10C,0.150000*%
%ADD11C,0.120000*%
G04 APERTURE END LIST*
D10*
X129593922Y-80659875D02*
X130165350Y-80659875D01*
X129879636Y-81659875D02*
X129879636Y-80659875D01*
X130879636Y-81612256D02*
X130784398Y-81659875D01*
X130784398Y-81659875D02*
X130593922Y-81659875D01*
X130593922Y-81659875D02*
X130498684Y-81612256D01*
X130498684Y-81612256D02*
X130451065Y-81517017D01*
X130451065Y-81517017D02*
X130451065Y-81136065D01*
X130451065Y-81136065D02*
X130498684Y-81040827D01*
X130498684Y-81040827D02*
X130593922Y-80993208D01*
X130593922Y-80993208D02*
X130784398Y-80993208D01*
X130784398Y-80993208D02*
X130879636Y-81040827D01*
X130879636Y-81040827D02*
X130927255Y-81136065D01*
X130927255Y-81136065D02*
X130927255Y-81231303D01*
X130927255Y-81231303D02*
X130451065Y-81326541D01*
X131308208Y-81612256D02*
X131403446Y-81659875D01*
X131403446Y-81659875D02*
X131593922Y-81659875D01*
X131593922Y-81659875D02*
X131689160Y-81612256D01*
X131689160Y-81612256D02*
X131736779Y-81517017D01*
X131736779Y-81517017D02*
X131736779Y-81469398D01*
X131736779Y-81469398D02*
X131689160Y-81374160D01*
X131689160Y-81374160D02*
X131593922Y-81326541D01*
X131593922Y-81326541D02*
X131451065Y-81326541D01*
X131451065Y-81326541D02*
X131355827Y-81278922D01*
X131355827Y-81278922D02*
X131308208Y-81183684D01*
X131308208Y-81183684D02*
X131308208Y-81136065D01*
X131308208Y-81136065D02*
X131355827Y-81040827D01*
X131355827Y-81040827D02*
X131451065Y-80993208D01*
X131451065Y-80993208D02*
X131593922Y-80993208D01*
X131593922Y-80993208D02*
X131689160Y-81040827D01*
X132022494Y-80993208D02*
X132403446Y-80993208D01*
X132165351Y-80659875D02*
X132165351Y-81517017D01*
X132165351Y-81517017D02*
X132212970Y-81612256D01*
X132212970Y-81612256D02*
X132308208Y-81659875D01*
X132308208Y-81659875D02*
X132403446Y-81659875D01*
X133498685Y-81659875D02*
X133498685Y-80659875D01*
X133498685Y-81040827D02*
X133593923Y-80993208D01*
X133593923Y-80993208D02*
X133784399Y-80993208D01*
X133784399Y-80993208D02*
X133879637Y-81040827D01*
X133879637Y-81040827D02*
X133927256Y-81088446D01*
X133927256Y-81088446D02*
X133974875Y-81183684D01*
X133974875Y-81183684D02*
X133974875Y-81469398D01*
X133974875Y-81469398D02*
X133927256Y-81564636D01*
X133927256Y-81564636D02*
X133879637Y-81612256D01*
X133879637Y-81612256D02*
X133784399Y-81659875D01*
X133784399Y-81659875D02*
X133593923Y-81659875D01*
X133593923Y-81659875D02*
X133498685Y-81612256D01*
X134546304Y-81659875D02*
X134451066Y-81612256D01*
X134451066Y-81612256D02*
X134403447Y-81564636D01*
X134403447Y-81564636D02*
X134355828Y-81469398D01*
X134355828Y-81469398D02*
X134355828Y-81183684D01*
X134355828Y-81183684D02*
X134403447Y-81088446D01*
X134403447Y-81088446D02*
X134451066Y-81040827D01*
X134451066Y-81040827D02*
X134546304Y-80993208D01*
X134546304Y-80993208D02*
X134689161Y-80993208D01*
X134689161Y-80993208D02*
X134784399Y-81040827D01*
X134784399Y-81040827D02*
X134832018Y-81088446D01*
X134832018Y-81088446D02*
X134879637Y-81183684D01*
X134879637Y-81183684D02*
X134879637Y-81469398D01*
X134879637Y-81469398D02*
X134832018Y-81564636D01*
X134832018Y-81564636D02*
X134784399Y-81612256D01*
X134784399Y-81612256D02*
X134689161Y-81659875D01*
X134689161Y-81659875D02*
X134546304Y-81659875D01*
X135736780Y-81659875D02*
X135736780Y-81136065D01*
X135736780Y-81136065D02*
X135689161Y-81040827D01*
X135689161Y-81040827D02*
X135593923Y-80993208D01*
X135593923Y-80993208D02*
X135403447Y-80993208D01*
X135403447Y-80993208D02*
X135308209Y-81040827D01*
X135736780Y-81612256D02*
X135641542Y-81659875D01*
X135641542Y-81659875D02*
X135403447Y-81659875D01*
X135403447Y-81659875D02*
X135308209Y-81612256D01*
X135308209Y-81612256D02*
X135260590Y-81517017D01*
X135260590Y-81517017D02*
X135260590Y-81421779D01*
X135260590Y-81421779D02*
X135308209Y-81326541D01*
X135308209Y-81326541D02*
X135403447Y-81278922D01*
X135403447Y-81278922D02*
X135641542Y-81278922D01*
X135641542Y-81278922D02*
X135736780Y-81231303D01*
X136212971Y-81659875D02*
X136212971Y-80993208D01*
X136212971Y-81183684D02*
X136260590Y-81088446D01*
X136260590Y-81088446D02*
X136308209Y-81040827D01*
X136308209Y-81040827D02*
X136403447Y-80993208D01*
X136403447Y-80993208D02*
X136498685Y-80993208D01*
X137260590Y-81659875D02*
X137260590Y-80659875D01*
X137260590Y-81612256D02*
X137165352Y-81659875D01*
X137165352Y-81659875D02*
X136974876Y-81659875D01*
X136974876Y-81659875D02*
X136879638Y-81612256D01*
X136879638Y-81612256D02*
X136832019Y-81564636D01*
X136832019Y-81564636D02*
X136784400Y-81469398D01*
X136784400Y-81469398D02*
X136784400Y-81183684D01*
X136784400Y-81183684D02*
X136832019Y-81088446D01*
X136832019Y-81088446D02*
X136879638Y-81040827D01*
X136879638Y-81040827D02*
X136974876Y-80993208D01*
X136974876Y-80993208D02*
X137165352Y-80993208D01*
X137165352Y-80993208D02*
X137260590Y-81040827D01*
X138355829Y-80993208D02*
X138736781Y-80993208D01*
X138498686Y-81659875D02*
X138498686Y-80802732D01*
X138498686Y-80802732D02*
X138546305Y-80707494D01*
X138546305Y-80707494D02*
X138641543Y-80659875D01*
X138641543Y-80659875D02*
X138736781Y-80659875D01*
X139212972Y-81659875D02*
X139117734Y-81612256D01*
X139117734Y-81612256D02*
X139070115Y-81564636D01*
X139070115Y-81564636D02*
X139022496Y-81469398D01*
X139022496Y-81469398D02*
X139022496Y-81183684D01*
X139022496Y-81183684D02*
X139070115Y-81088446D01*
X139070115Y-81088446D02*
X139117734Y-81040827D01*
X139117734Y-81040827D02*
X139212972Y-80993208D01*
X139212972Y-80993208D02*
X139355829Y-80993208D01*
X139355829Y-80993208D02*
X139451067Y-81040827D01*
X139451067Y-81040827D02*
X139498686Y-81088446D01*
X139498686Y-81088446D02*
X139546305Y-81183684D01*
X139546305Y-81183684D02*
X139546305Y-81469398D01*
X139546305Y-81469398D02*
X139498686Y-81564636D01*
X139498686Y-81564636D02*
X139451067Y-81612256D01*
X139451067Y-81612256D02*
X139355829Y-81659875D01*
X139355829Y-81659875D02*
X139212972Y-81659875D01*
X139974877Y-81659875D02*
X139974877Y-80993208D01*
X139974877Y-81183684D02*
X140022496Y-81088446D01*
X140022496Y-81088446D02*
X140070115Y-81040827D01*
X140070115Y-81040827D02*
X140165353Y-80993208D01*
X140165353Y-80993208D02*
X140260591Y-80993208D01*
X129736779Y-83269819D02*
X129736779Y-82269819D01*
X129736779Y-82746009D02*
X130308207Y-82746009D01*
X130308207Y-83269819D02*
X130308207Y-82269819D01*
X130736779Y-83222200D02*
X130879636Y-83269819D01*
X130879636Y-83269819D02*
X131117731Y-83269819D01*
X131117731Y-83269819D02*
X131212969Y-83222200D01*
X131212969Y-83222200D02*
X131260588Y-83174580D01*
X131260588Y-83174580D02*
X131308207Y-83079342D01*
X131308207Y-83079342D02*
X131308207Y-82984104D01*
X131308207Y-82984104D02*
X131260588Y-82888866D01*
X131260588Y-82888866D02*
X131212969Y-82841247D01*
X131212969Y-82841247D02*
X131117731Y-82793628D01*
X131117731Y-82793628D02*
X130927255Y-82746009D01*
X130927255Y-82746009D02*
X130832017Y-82698390D01*
X130832017Y-82698390D02*
X130784398Y-82650771D01*
X130784398Y-82650771D02*
X130736779Y-82555533D01*
X130736779Y-82555533D02*
X130736779Y-82460295D01*
X130736779Y-82460295D02*
X130784398Y-82365057D01*
X130784398Y-82365057D02*
X130832017Y-82317438D01*
X130832017Y-82317438D02*
X130927255Y-82269819D01*
X130927255Y-82269819D02*
X131165350Y-82269819D01*
X131165350Y-82269819D02*
X131308207Y-82317438D01*
X131736779Y-82746009D02*
X132070112Y-82746009D01*
X132212969Y-83269819D02*
X131736779Y-83269819D01*
X131736779Y-83269819D02*
X131736779Y-82269819D01*
X131736779Y-82269819D02*
X132212969Y-82269819D01*
X133212969Y-83174580D02*
X133165350Y-83222200D01*
X133165350Y-83222200D02*
X133022493Y-83269819D01*
X133022493Y-83269819D02*
X132927255Y-83269819D01*
X132927255Y-83269819D02*
X132784398Y-83222200D01*
X132784398Y-83222200D02*
X132689160Y-83126961D01*
X132689160Y-83126961D02*
X132641541Y-83031723D01*
X132641541Y-83031723D02*
X132593922Y-82841247D01*
X132593922Y-82841247D02*
X132593922Y-82698390D01*
X132593922Y-82698390D02*
X132641541Y-82507914D01*
X132641541Y-82507914D02*
X132689160Y-82412676D01*
X132689160Y-82412676D02*
X132784398Y-82317438D01*
X132784398Y-82317438D02*
X132927255Y-82269819D01*
X132927255Y-82269819D02*
X133022493Y-82269819D01*
X133022493Y-82269819D02*
X133165350Y-82317438D01*
X133165350Y-82317438D02*
X133212969Y-82365057D01*
X133784398Y-82698390D02*
X133689160Y-82650771D01*
X133689160Y-82650771D02*
X133641541Y-82603152D01*
X133641541Y-82603152D02*
X133593922Y-82507914D01*
X133593922Y-82507914D02*
X133593922Y-82460295D01*
X133593922Y-82460295D02*
X133641541Y-82365057D01*
X133641541Y-82365057D02*
X133689160Y-82317438D01*
X133689160Y-82317438D02*
X133784398Y-82269819D01*
X133784398Y-82269819D02*
X133974874Y-82269819D01*
X133974874Y-82269819D02*
X134070112Y-82317438D01*
X134070112Y-82317438D02*
X134117731Y-82365057D01*
X134117731Y-82365057D02*
X134165350Y-82460295D01*
X134165350Y-82460295D02*
X134165350Y-82507914D01*
X134165350Y-82507914D02*
X134117731Y-82603152D01*
X134117731Y-82603152D02*
X134070112Y-82650771D01*
X134070112Y-82650771D02*
X133974874Y-82698390D01*
X133974874Y-82698390D02*
X133784398Y-82698390D01*
X133784398Y-82698390D02*
X133689160Y-82746009D01*
X133689160Y-82746009D02*
X133641541Y-82793628D01*
X133641541Y-82793628D02*
X133593922Y-82888866D01*
X133593922Y-82888866D02*
X133593922Y-83079342D01*
X133593922Y-83079342D02*
X133641541Y-83174580D01*
X133641541Y-83174580D02*
X133689160Y-83222200D01*
X133689160Y-83222200D02*
X133784398Y-83269819D01*
X133784398Y-83269819D02*
X133974874Y-83269819D01*
X133974874Y-83269819D02*
X134070112Y-83222200D01*
X134070112Y-83222200D02*
X134117731Y-83174580D01*
X134117731Y-83174580D02*
X134165350Y-83079342D01*
X134165350Y-83079342D02*
X134165350Y-82888866D01*
X134165350Y-82888866D02*
X134117731Y-82793628D01*
X134117731Y-82793628D02*
X134070112Y-82746009D01*
X134070112Y-82746009D02*
X133974874Y-82698390D01*
X134593922Y-82888866D02*
X135355827Y-82888866D01*
X136355826Y-83269819D02*
X135784398Y-83269819D01*
X136070112Y-83269819D02*
X136070112Y-82269819D01*
X136070112Y-82269819D02*
X135974874Y-82412676D01*
X135974874Y-82412676D02*
X135879636Y-82507914D01*
X135879636Y-82507914D02*
X135784398Y-82555533D01*
X136689160Y-82269819D02*
X137308207Y-82269819D01*
X137308207Y-82269819D02*
X136974874Y-82650771D01*
X136974874Y-82650771D02*
X137117731Y-82650771D01*
X137117731Y-82650771D02*
X137212969Y-82698390D01*
X137212969Y-82698390D02*
X137260588Y-82746009D01*
X137260588Y-82746009D02*
X137308207Y-82841247D01*
X137308207Y-82841247D02*
X137308207Y-83079342D01*
X137308207Y-83079342D02*
X137260588Y-83174580D01*
X137260588Y-83174580D02*
X137212969Y-83222200D01*
X137212969Y-83222200D02*
X137117731Y-83269819D01*
X137117731Y-83269819D02*
X136832017Y-83269819D01*
X136832017Y-83269819D02*
X136736779Y-83222200D01*
X136736779Y-83222200D02*
X136689160Y-83174580D01*
X137927255Y-82269819D02*
X138022493Y-82269819D01*
X138022493Y-82269819D02*
X138117731Y-82317438D01*
X138117731Y-82317438D02*
X138165350Y-82365057D01*
X138165350Y-82365057D02*
X138212969Y-82460295D01*
X138212969Y-82460295D02*
X138260588Y-82650771D01*
X138260588Y-82650771D02*
X138260588Y-82888866D01*
X138260588Y-82888866D02*
X138212969Y-83079342D01*
X138212969Y-83079342D02*
X138165350Y-83174580D01*
X138165350Y-83174580D02*
X138117731Y-83222200D01*
X138117731Y-83222200D02*
X138022493Y-83269819D01*
X138022493Y-83269819D02*
X137927255Y-83269819D01*
X137927255Y-83269819D02*
X137832017Y-83222200D01*
X137832017Y-83222200D02*
X137784398Y-83174580D01*
X137784398Y-83174580D02*
X137736779Y-83079342D01*
X137736779Y-83079342D02*
X137689160Y-82888866D01*
X137689160Y-82888866D02*
X137689160Y-82650771D01*
X137689160Y-82650771D02*
X137736779Y-82460295D01*
X137736779Y-82460295D02*
X137784398Y-82365057D01*
X137784398Y-82365057D02*
X137832017Y-82317438D01*
X137832017Y-82317438D02*
X137927255Y-82269819D01*
X139832017Y-83222200D02*
X139736779Y-83269819D01*
X139736779Y-83269819D02*
X139546303Y-83269819D01*
X139546303Y-83269819D02*
X139451065Y-83222200D01*
X139451065Y-83222200D02*
X139403446Y-83126961D01*
X139403446Y-83126961D02*
X139403446Y-82746009D01*
X139403446Y-82746009D02*
X139451065Y-82650771D01*
X139451065Y-82650771D02*
X139546303Y-82603152D01*
X139546303Y-82603152D02*
X139736779Y-82603152D01*
X139736779Y-82603152D02*
X139832017Y-82650771D01*
X139832017Y-82650771D02*
X139879636Y-82746009D01*
X139879636Y-82746009D02*
X139879636Y-82841247D01*
X139879636Y-82841247D02*
X139403446Y-82936485D01*
X140736779Y-83269819D02*
X140736779Y-82269819D01*
X140736779Y-83222200D02*
X140641541Y-83269819D01*
X140641541Y-83269819D02*
X140451065Y-83269819D01*
X140451065Y-83269819D02*
X140355827Y-83222200D01*
X140355827Y-83222200D02*
X140308208Y-83174580D01*
X140308208Y-83174580D02*
X140260589Y-83079342D01*
X140260589Y-83079342D02*
X140260589Y-82793628D01*
X140260589Y-82793628D02*
X140308208Y-82698390D01*
X140308208Y-82698390D02*
X140355827Y-82650771D01*
X140355827Y-82650771D02*
X140451065Y-82603152D01*
X140451065Y-82603152D02*
X140641541Y-82603152D01*
X140641541Y-82603152D02*
X140736779Y-82650771D01*
X141641541Y-82603152D02*
X141641541Y-83412676D01*
X141641541Y-83412676D02*
X141593922Y-83507914D01*
X141593922Y-83507914D02*
X141546303Y-83555533D01*
X141546303Y-83555533D02*
X141451065Y-83603152D01*
X141451065Y-83603152D02*
X141308208Y-83603152D01*
X141308208Y-83603152D02*
X141212970Y-83555533D01*
X141641541Y-83222200D02*
X141546303Y-83269819D01*
X141546303Y-83269819D02*
X141355827Y-83269819D01*
X141355827Y-83269819D02*
X141260589Y-83222200D01*
X141260589Y-83222200D02*
X141212970Y-83174580D01*
X141212970Y-83174580D02*
X141165351Y-83079342D01*
X141165351Y-83079342D02*
X141165351Y-82793628D01*
X141165351Y-82793628D02*
X141212970Y-82698390D01*
X141212970Y-82698390D02*
X141260589Y-82650771D01*
X141260589Y-82650771D02*
X141355827Y-82603152D01*
X141355827Y-82603152D02*
X141546303Y-82603152D01*
X141546303Y-82603152D02*
X141641541Y-82650771D01*
X142498684Y-83222200D02*
X142403446Y-83269819D01*
X142403446Y-83269819D02*
X142212970Y-83269819D01*
X142212970Y-83269819D02*
X142117732Y-83222200D01*
X142117732Y-83222200D02*
X142070113Y-83126961D01*
X142070113Y-83126961D02*
X142070113Y-82746009D01*
X142070113Y-82746009D02*
X142117732Y-82650771D01*
X142117732Y-82650771D02*
X142212970Y-82603152D01*
X142212970Y-82603152D02*
X142403446Y-82603152D01*
X142403446Y-82603152D02*
X142498684Y-82650771D01*
X142498684Y-82650771D02*
X142546303Y-82746009D01*
X142546303Y-82746009D02*
X142546303Y-82841247D01*
X142546303Y-82841247D02*
X142070113Y-82936485D01*
X143403446Y-83222200D02*
X143308208Y-83269819D01*
X143308208Y-83269819D02*
X143117732Y-83269819D01*
X143117732Y-83269819D02*
X143022494Y-83222200D01*
X143022494Y-83222200D02*
X142974875Y-83174580D01*
X142974875Y-83174580D02*
X142927256Y-83079342D01*
X142927256Y-83079342D02*
X142927256Y-82793628D01*
X142927256Y-82793628D02*
X142974875Y-82698390D01*
X142974875Y-82698390D02*
X143022494Y-82650771D01*
X143022494Y-82650771D02*
X143117732Y-82603152D01*
X143117732Y-82603152D02*
X143308208Y-82603152D01*
X143308208Y-82603152D02*
X143403446Y-82650771D01*
X144260589Y-83269819D02*
X144260589Y-82746009D01*
X144260589Y-82746009D02*
X144212970Y-82650771D01*
X144212970Y-82650771D02*
X144117732Y-82603152D01*
X144117732Y-82603152D02*
X143927256Y-82603152D01*
X143927256Y-82603152D02*
X143832018Y-82650771D01*
X144260589Y-83222200D02*
X144165351Y-83269819D01*
X144165351Y-83269819D02*
X143927256Y-83269819D01*
X143927256Y-83269819D02*
X143832018Y-83222200D01*
X143832018Y-83222200D02*
X143784399Y-83126961D01*
X143784399Y-83126961D02*
X143784399Y-83031723D01*
X143784399Y-83031723D02*
X143832018Y-82936485D01*
X143832018Y-82936485D02*
X143927256Y-82888866D01*
X143927256Y-82888866D02*
X144165351Y-82888866D01*
X144165351Y-82888866D02*
X144260589Y-82841247D01*
X144736780Y-83269819D02*
X144736780Y-82603152D01*
X144736780Y-82793628D02*
X144784399Y-82698390D01*
X144784399Y-82698390D02*
X144832018Y-82650771D01*
X144832018Y-82650771D02*
X144927256Y-82603152D01*
X144927256Y-82603152D02*
X145022494Y-82603152D01*
X145784399Y-83269819D02*
X145784399Y-82269819D01*
X145784399Y-83222200D02*
X145689161Y-83269819D01*
X145689161Y-83269819D02*
X145498685Y-83269819D01*
X145498685Y-83269819D02*
X145403447Y-83222200D01*
X145403447Y-83222200D02*
X145355828Y-83174580D01*
X145355828Y-83174580D02*
X145308209Y-83079342D01*
X145308209Y-83079342D02*
X145308209Y-82793628D01*
X145308209Y-82793628D02*
X145355828Y-82698390D01*
X145355828Y-82698390D02*
X145403447Y-82650771D01*
X145403447Y-82650771D02*
X145498685Y-82603152D01*
X145498685Y-82603152D02*
X145689161Y-82603152D01*
X145689161Y-82603152D02*
X145784399Y-82650771D01*
X143453571Y-77810592D02*
X143489285Y-77774878D01*
X143489285Y-77774878D02*
X143560714Y-77739164D01*
X143560714Y-77739164D02*
X143739285Y-77739164D01*
X143739285Y-77739164D02*
X143810714Y-77774878D01*
X143810714Y-77774878D02*
X143846428Y-77810592D01*
X143846428Y-77810592D02*
X143882142Y-77882021D01*
X143882142Y-77882021D02*
X143882142Y-77953450D01*
X143882142Y-77953450D02*
X143846428Y-78060592D01*
X143846428Y-78060592D02*
X143417856Y-78489164D01*
X143417856Y-78489164D02*
X143882142Y-78489164D01*
X144525000Y-77739164D02*
X144382142Y-77739164D01*
X144382142Y-77739164D02*
X144310714Y-77774878D01*
X144310714Y-77774878D02*
X144275000Y-77810592D01*
X144275000Y-77810592D02*
X144203571Y-77917735D01*
X144203571Y-77917735D02*
X144167857Y-78060592D01*
X144167857Y-78060592D02*
X144167857Y-78346307D01*
X144167857Y-78346307D02*
X144203571Y-78417735D01*
X144203571Y-78417735D02*
X144239285Y-78453450D01*
X144239285Y-78453450D02*
X144310714Y-78489164D01*
X144310714Y-78489164D02*
X144453571Y-78489164D01*
X144453571Y-78489164D02*
X144525000Y-78453450D01*
X144525000Y-78453450D02*
X144560714Y-78417735D01*
X144560714Y-78417735D02*
X144596428Y-78346307D01*
X144596428Y-78346307D02*
X144596428Y-78167735D01*
X144596428Y-78167735D02*
X144560714Y-78096307D01*
X144560714Y-78096307D02*
X144525000Y-78060592D01*
X144525000Y-78060592D02*
X144453571Y-78024878D01*
X144453571Y-78024878D02*
X144310714Y-78024878D01*
X144310714Y-78024878D02*
X144239285Y-78060592D01*
X144239285Y-78060592D02*
X144203571Y-78096307D01*
X144203571Y-78096307D02*
X144167857Y-78167735D01*
X135082142Y-78489164D02*
X134653571Y-78489164D01*
X134867856Y-78489164D02*
X134867856Y-77739164D01*
X134867856Y-77739164D02*
X134796428Y-77846307D01*
X134796428Y-77846307D02*
X134724999Y-77917735D01*
X134724999Y-77917735D02*
X134653571Y-77953450D01*
X135367857Y-77810592D02*
X135403571Y-77774878D01*
X135403571Y-77774878D02*
X135475000Y-77739164D01*
X135475000Y-77739164D02*
X135653571Y-77739164D01*
X135653571Y-77739164D02*
X135725000Y-77774878D01*
X135725000Y-77774878D02*
X135760714Y-77810592D01*
X135760714Y-77810592D02*
X135796428Y-77882021D01*
X135796428Y-77882021D02*
X135796428Y-77953450D01*
X135796428Y-77953450D02*
X135760714Y-78060592D01*
X135760714Y-78060592D02*
X135332142Y-78489164D01*
X135332142Y-78489164D02*
X135796428Y-78489164D01*
X131385714Y-77810592D02*
X131421428Y-77774878D01*
X131421428Y-77774878D02*
X131492857Y-77739164D01*
X131492857Y-77739164D02*
X131671428Y-77739164D01*
X131671428Y-77739164D02*
X131742857Y-77774878D01*
X131742857Y-77774878D02*
X131778571Y-77810592D01*
X131778571Y-77810592D02*
X131814285Y-77882021D01*
X131814285Y-77882021D02*
X131814285Y-77953450D01*
X131814285Y-77953450D02*
X131778571Y-78060592D01*
X131778571Y-78060592D02*
X131349999Y-78489164D01*
X131349999Y-78489164D02*
X131814285Y-78489164D01*
X139832142Y-78489164D02*
X139403571Y-78489164D01*
X139617856Y-78489164D02*
X139617856Y-77739164D01*
X139617856Y-77739164D02*
X139546428Y-77846307D01*
X139546428Y-77846307D02*
X139474999Y-77917735D01*
X139474999Y-77917735D02*
X139403571Y-77953450D01*
X140475000Y-77989164D02*
X140475000Y-78489164D01*
X140296428Y-77703450D02*
X140117857Y-78239164D01*
X140117857Y-78239164D02*
X140582142Y-78239164D01*
X143453571Y-87310592D02*
X143489285Y-87274878D01*
X143489285Y-87274878D02*
X143560714Y-87239164D01*
X143560714Y-87239164D02*
X143739285Y-87239164D01*
X143739285Y-87239164D02*
X143810714Y-87274878D01*
X143810714Y-87274878D02*
X143846428Y-87310592D01*
X143846428Y-87310592D02*
X143882142Y-87382021D01*
X143882142Y-87382021D02*
X143882142Y-87453450D01*
X143882142Y-87453450D02*
X143846428Y-87560592D01*
X143846428Y-87560592D02*
X143417856Y-87989164D01*
X143417856Y-87989164D02*
X143882142Y-87989164D01*
X144560714Y-87239164D02*
X144203571Y-87239164D01*
X144203571Y-87239164D02*
X144167857Y-87596307D01*
X144167857Y-87596307D02*
X144203571Y-87560592D01*
X144203571Y-87560592D02*
X144275000Y-87524878D01*
X144275000Y-87524878D02*
X144453571Y-87524878D01*
X144453571Y-87524878D02*
X144525000Y-87560592D01*
X144525000Y-87560592D02*
X144560714Y-87596307D01*
X144560714Y-87596307D02*
X144596428Y-87667735D01*
X144596428Y-87667735D02*
X144596428Y-87846307D01*
X144596428Y-87846307D02*
X144560714Y-87917735D01*
X144560714Y-87917735D02*
X144525000Y-87953450D01*
X144525000Y-87953450D02*
X144453571Y-87989164D01*
X144453571Y-87989164D02*
X144275000Y-87989164D01*
X144275000Y-87989164D02*
X144203571Y-87953450D01*
X144203571Y-87953450D02*
X144167857Y-87917735D01*
X135082142Y-87989164D02*
X134653571Y-87989164D01*
X134867856Y-87989164D02*
X134867856Y-87239164D01*
X134867856Y-87239164D02*
X134796428Y-87346307D01*
X134796428Y-87346307D02*
X134724999Y-87417735D01*
X134724999Y-87417735D02*
X134653571Y-87453450D01*
X135796428Y-87989164D02*
X135367857Y-87989164D01*
X135582142Y-87989164D02*
X135582142Y-87239164D01*
X135582142Y-87239164D02*
X135510714Y-87346307D01*
X135510714Y-87346307D02*
X135439285Y-87417735D01*
X135439285Y-87417735D02*
X135367857Y-87453450D01*
X131814285Y-87989164D02*
X131385714Y-87989164D01*
X131599999Y-87989164D02*
X131599999Y-87239164D01*
X131599999Y-87239164D02*
X131528571Y-87346307D01*
X131528571Y-87346307D02*
X131457142Y-87417735D01*
X131457142Y-87417735D02*
X131385714Y-87453450D01*
X139832142Y-87989164D02*
X139403571Y-87989164D01*
X139617856Y-87989164D02*
X139617856Y-87239164D01*
X139617856Y-87239164D02*
X139546428Y-87346307D01*
X139546428Y-87346307D02*
X139474999Y-87417735D01*
X139474999Y-87417735D02*
X139403571Y-87453450D01*
X140082142Y-87239164D02*
X140546428Y-87239164D01*
X140546428Y-87239164D02*
X140296428Y-87524878D01*
X140296428Y-87524878D02*
X140403571Y-87524878D01*
X140403571Y-87524878D02*
X140475000Y-87560592D01*
X140475000Y-87560592D02*
X140510714Y-87596307D01*
X140510714Y-87596307D02*
X140546428Y-87667735D01*
X140546428Y-87667735D02*
X140546428Y-87846307D01*
X140546428Y-87846307D02*
X140510714Y-87917735D01*
X140510714Y-87917735D02*
X140475000Y-87953450D01*
X140475000Y-87953450D02*
X140403571Y-87989164D01*
X140403571Y-87989164D02*
X140189285Y-87989164D01*
X140189285Y-87989164D02*
X140117857Y-87953450D01*
X140117857Y-87953450D02*
X140082142Y-87917735D01*
D11*
%TO.C,REF\u002A\u002A*%
X130575000Y-80000000D02*
X130575000Y-80000000D01*
X145425000Y-80000000D02*
X130575000Y-80000000D01*
X130575000Y-87070000D02*
X131845000Y-85800000D01*
X131845000Y-85800000D02*
X145425000Y-85800000D01*
%TD*%
M02*
