%TF.GenerationSoftware,KiCad,Pcbnew,8.0.2-1*%
%TF.CreationDate,2024-06-17T16:09:02-04:00*%
%TF.ProjectId,Dummy Board,44756d6d-7920-4426-9f61-72642e6b6963,rev?*%
%TF.SameCoordinates,Original*%
%TF.FileFunction,Drillmap*%
%TF.FilePolarity,Positive*%
%FSLAX45Y45*%
G04 Gerber Fmt 4.5, Leading zero omitted, Abs format (unit mm)*
G04 Created by KiCad (PCBNEW 8.0.2-1) date 2024-06-17 16:09:02*
%MOMM*%
%LPD*%
G01*
G04 APERTURE LIST*
%ADD10C,0.050000*%
%ADD11C,0.120000*%
%ADD12C,0.200000*%
G04 APERTURE END LIST*
D10*
X15000000Y-8000000D02*
X14940000Y-8000000D01*
X15000000Y-8720000D02*
X15000000Y-8000000D01*
X14542500Y-8720000D02*
X15000000Y-8720000D01*
X12640000Y-8000000D02*
X14940000Y-8000000D01*
X12640000Y-8720000D02*
X12640000Y-8000000D01*
X13057500Y-8720000D02*
X12640000Y-8720000D01*
D11*
X13057500Y-8720000D02*
X13057500Y-9220000D01*
X13057500Y-9220000D02*
X13640500Y-9220000D01*
X13640500Y-9220000D02*
X13640500Y-8700000D01*
X13880500Y-8700000D02*
X13880500Y-9220000D01*
X13880500Y-9220000D02*
X14542500Y-9220000D01*
X14542500Y-9220000D02*
X14542500Y-8720000D01*
X13640500Y-8700000D02*
G75*
G02*
X13880500Y-8700000I120000J0D01*
G01*
D12*
X12898277Y-9537484D02*
X12898277Y-9337484D01*
X12898277Y-9337484D02*
X12945896Y-9337484D01*
X12945896Y-9337484D02*
X12974467Y-9347008D01*
X12974467Y-9347008D02*
X12993515Y-9366055D01*
X12993515Y-9366055D02*
X13003039Y-9385103D01*
X13003039Y-9385103D02*
X13012562Y-9423198D01*
X13012562Y-9423198D02*
X13012562Y-9451770D01*
X13012562Y-9451770D02*
X13003039Y-9489865D01*
X13003039Y-9489865D02*
X12993515Y-9508912D01*
X12993515Y-9508912D02*
X12974467Y-9527960D01*
X12974467Y-9527960D02*
X12945896Y-9537484D01*
X12945896Y-9537484D02*
X12898277Y-9537484D01*
X13098277Y-9537484D02*
X13098277Y-9404150D01*
X13098277Y-9442246D02*
X13107801Y-9423198D01*
X13107801Y-9423198D02*
X13117324Y-9413674D01*
X13117324Y-9413674D02*
X13136372Y-9404150D01*
X13136372Y-9404150D02*
X13155420Y-9404150D01*
X13222086Y-9537484D02*
X13222086Y-9404150D01*
X13222086Y-9337484D02*
X13212562Y-9347008D01*
X13212562Y-9347008D02*
X13222086Y-9356531D01*
X13222086Y-9356531D02*
X13231610Y-9347008D01*
X13231610Y-9347008D02*
X13222086Y-9337484D01*
X13222086Y-9337484D02*
X13222086Y-9356531D01*
X13345896Y-9537484D02*
X13326848Y-9527960D01*
X13326848Y-9527960D02*
X13317324Y-9508912D01*
X13317324Y-9508912D02*
X13317324Y-9337484D01*
X13450658Y-9537484D02*
X13431610Y-9527960D01*
X13431610Y-9527960D02*
X13422086Y-9508912D01*
X13422086Y-9508912D02*
X13422086Y-9337484D01*
X13679229Y-9537484D02*
X13679229Y-9337484D01*
X13679229Y-9337484D02*
X13745896Y-9480341D01*
X13745896Y-9480341D02*
X13812562Y-9337484D01*
X13812562Y-9337484D02*
X13812562Y-9537484D01*
X13993515Y-9537484D02*
X13993515Y-9432722D01*
X13993515Y-9432722D02*
X13983991Y-9413674D01*
X13983991Y-9413674D02*
X13964943Y-9404150D01*
X13964943Y-9404150D02*
X13926848Y-9404150D01*
X13926848Y-9404150D02*
X13907801Y-9413674D01*
X13993515Y-9527960D02*
X13974467Y-9537484D01*
X13974467Y-9537484D02*
X13926848Y-9537484D01*
X13926848Y-9537484D02*
X13907801Y-9527960D01*
X13907801Y-9527960D02*
X13898277Y-9508912D01*
X13898277Y-9508912D02*
X13898277Y-9489865D01*
X13898277Y-9489865D02*
X13907801Y-9470817D01*
X13907801Y-9470817D02*
X13926848Y-9461293D01*
X13926848Y-9461293D02*
X13974467Y-9461293D01*
X13974467Y-9461293D02*
X13993515Y-9451770D01*
X14088753Y-9404150D02*
X14088753Y-9604150D01*
X14088753Y-9413674D02*
X14107801Y-9404150D01*
X14107801Y-9404150D02*
X14145896Y-9404150D01*
X14145896Y-9404150D02*
X14164943Y-9413674D01*
X14164943Y-9413674D02*
X14174467Y-9423198D01*
X14174467Y-9423198D02*
X14183991Y-9442246D01*
X14183991Y-9442246D02*
X14183991Y-9499389D01*
X14183991Y-9499389D02*
X14174467Y-9518436D01*
X14174467Y-9518436D02*
X14164943Y-9527960D01*
X14164943Y-9527960D02*
X14145896Y-9537484D01*
X14145896Y-9537484D02*
X14107801Y-9537484D01*
X14107801Y-9537484D02*
X14088753Y-9527960D01*
X14269705Y-9518436D02*
X14279229Y-9527960D01*
X14279229Y-9527960D02*
X14269705Y-9537484D01*
X14269705Y-9537484D02*
X14260182Y-9527960D01*
X14260182Y-9527960D02*
X14269705Y-9518436D01*
X14269705Y-9518436D02*
X14269705Y-9537484D01*
X14269705Y-9413674D02*
X14279229Y-9423198D01*
X14279229Y-9423198D02*
X14269705Y-9432722D01*
X14269705Y-9432722D02*
X14260182Y-9423198D01*
X14260182Y-9423198D02*
X14269705Y-9413674D01*
X14269705Y-9413674D02*
X14269705Y-9432722D01*
M02*
