%TF.GenerationSoftware,KiCad,Pcbnew,(6.0.8-1)-1*%
%TF.CreationDate,2022-11-16T20:26:14-05:00*%
%TF.ProjectId,Untitled,556e7469-746c-4656-942e-6b696361645f,rev?*%
%TF.SameCoordinates,Original*%
%TF.FileFunction,Drillmap*%
%TF.FilePolarity,Positive*%
%FSLAX45Y45*%
G04 Gerber Fmt 4.5, Leading zero omitted, Abs format (unit mm)*
G04 Created by KiCad (PCBNEW (6.0.8-1)-1) date 2022-11-16 20:26:14*
%MOMM*%
%LPD*%
G01*
G04 APERTURE LIST*
%ADD10C,0.100000*%
%ADD11C,0.200000*%
%ADD12C,0.040000*%
%ADD13C,0.088900*%
%ADD14C,0.095000*%
G04 APERTURE END LIST*
D10*
X9455000Y-7531000D02*
G75*
G03*
X9455000Y-7531000I-80000J0D01*
G01*
X8456000Y-5801000D02*
G75*
G03*
X8456000Y-5801000I-80000J0D01*
G01*
X9275000Y-3898000D02*
X8176000Y-5801000D01*
X11453000Y-7531000D02*
G75*
G03*
X11453000Y-7531000I-80000J0D01*
G01*
X11473000Y-3898000D02*
X9275000Y-3898000D01*
X9275000Y-7704000D02*
X11473000Y-7704000D01*
X8176000Y-5801000D02*
X9275000Y-7704000D01*
X12572000Y-5801000D02*
X11473000Y-7704000D01*
X12452000Y-5801000D02*
G75*
G03*
X12452000Y-5801000I-80000J0D01*
G01*
X11453000Y-4071000D02*
G75*
G03*
X11453000Y-4071000I-80000J0D01*
G01*
X9455000Y-4071000D02*
G75*
G03*
X9455000Y-4071000I-80000J0D01*
G01*
X12572000Y-5801000D02*
X11473000Y-3898000D01*
D11*
D12*
X10291000Y-6149000D02*
X10331000Y-6189000D01*
X10331000Y-6149000D02*
X10291000Y-6189000D01*
X10509000Y-6031000D02*
X10549000Y-6071000D01*
X10549000Y-6031000D02*
X10509000Y-6071000D01*
X10529000Y-6251000D02*
X10569000Y-6291000D01*
X10569000Y-6251000D02*
X10529000Y-6291000D01*
X11040000Y-5200000D02*
X11080000Y-5240000D01*
X11080000Y-5200000D02*
X11040000Y-5240000D01*
D13*
X10155200Y-7500000D02*
G75*
G03*
X10155200Y-7500000I-44450J0D01*
G01*
X10409200Y-7500000D02*
G75*
G03*
X10409200Y-7500000I-44450J0D01*
G01*
X10663200Y-7500000D02*
G75*
G03*
X10663200Y-7500000I-44450J0D01*
G01*
D14*
X8829534Y-5192756D02*
X8829534Y-5287756D01*
X8782034Y-5240256D02*
X8877034Y-5240256D01*
X8954534Y-4976250D02*
X8954534Y-5071250D01*
X8907034Y-5023750D02*
X9002034Y-5023750D01*
X9079534Y-4759744D02*
X9079534Y-4854744D01*
X9032034Y-4807244D02*
X9127034Y-4807244D01*
D10*
X11760356Y-4940853D02*
X11760356Y-4870141D01*
X11689644Y-4870141D01*
X11689644Y-4940853D01*
X11760356Y-4940853D01*
X11885356Y-5157359D02*
X11885356Y-5086648D01*
X11814644Y-5086648D01*
X11814644Y-5157359D01*
X11885356Y-5157359D01*
D11*
X8428619Y-8019476D02*
X8428619Y-7819476D01*
X8476238Y-7819476D01*
X8504810Y-7829000D01*
X8523857Y-7848048D01*
X8533381Y-7867095D01*
X8542905Y-7905190D01*
X8542905Y-7933762D01*
X8533381Y-7971857D01*
X8523857Y-7990905D01*
X8504810Y-8009952D01*
X8476238Y-8019476D01*
X8428619Y-8019476D01*
X8628619Y-8019476D02*
X8628619Y-7886143D01*
X8628619Y-7924238D02*
X8638143Y-7905190D01*
X8647667Y-7895667D01*
X8666714Y-7886143D01*
X8685762Y-7886143D01*
X8752429Y-8019476D02*
X8752429Y-7886143D01*
X8752429Y-7819476D02*
X8742905Y-7829000D01*
X8752429Y-7838524D01*
X8761952Y-7829000D01*
X8752429Y-7819476D01*
X8752429Y-7838524D01*
X8876238Y-8019476D02*
X8857190Y-8009952D01*
X8847667Y-7990905D01*
X8847667Y-7819476D01*
X8981000Y-8019476D02*
X8961952Y-8009952D01*
X8952429Y-7990905D01*
X8952429Y-7819476D01*
X9209571Y-8019476D02*
X9209571Y-7819476D01*
X9276238Y-7962333D01*
X9342905Y-7819476D01*
X9342905Y-8019476D01*
X9523857Y-8019476D02*
X9523857Y-7914714D01*
X9514333Y-7895667D01*
X9495286Y-7886143D01*
X9457190Y-7886143D01*
X9438143Y-7895667D01*
X9523857Y-8009952D02*
X9504810Y-8019476D01*
X9457190Y-8019476D01*
X9438143Y-8009952D01*
X9428619Y-7990905D01*
X9428619Y-7971857D01*
X9438143Y-7952809D01*
X9457190Y-7943286D01*
X9504810Y-7943286D01*
X9523857Y-7933762D01*
X9619095Y-7886143D02*
X9619095Y-8086143D01*
X9619095Y-7895667D02*
X9638143Y-7886143D01*
X9676238Y-7886143D01*
X9695286Y-7895667D01*
X9704810Y-7905190D01*
X9714333Y-7924238D01*
X9714333Y-7981381D01*
X9704810Y-8000428D01*
X9695286Y-8009952D01*
X9676238Y-8019476D01*
X9638143Y-8019476D01*
X9619095Y-8009952D01*
X9800048Y-8000428D02*
X9809571Y-8009952D01*
X9800048Y-8019476D01*
X9790524Y-8009952D01*
X9800048Y-8000428D01*
X9800048Y-8019476D01*
X9800048Y-7895667D02*
X9809571Y-7905190D01*
X9800048Y-7914714D01*
X9790524Y-7905190D01*
X9800048Y-7895667D01*
X9800048Y-7914714D01*
D12*
X8131000Y-8329000D02*
X8171000Y-8369000D01*
X8171000Y-8329000D02*
X8131000Y-8369000D01*
D11*
X8466714Y-8239476D02*
X8485762Y-8239476D01*
X8504810Y-8249000D01*
X8514333Y-8258524D01*
X8523857Y-8277571D01*
X8533381Y-8315667D01*
X8533381Y-8363286D01*
X8523857Y-8401381D01*
X8514333Y-8420429D01*
X8504810Y-8429952D01*
X8485762Y-8439476D01*
X8466714Y-8439476D01*
X8447667Y-8429952D01*
X8438143Y-8420429D01*
X8428619Y-8401381D01*
X8419095Y-8363286D01*
X8419095Y-8315667D01*
X8428619Y-8277571D01*
X8438143Y-8258524D01*
X8447667Y-8249000D01*
X8466714Y-8239476D01*
X8619095Y-8420429D02*
X8628619Y-8429952D01*
X8619095Y-8439476D01*
X8609571Y-8429952D01*
X8619095Y-8420429D01*
X8619095Y-8439476D01*
X8800048Y-8306143D02*
X8800048Y-8439476D01*
X8752429Y-8229952D02*
X8704810Y-8372809D01*
X8828619Y-8372809D01*
X8942905Y-8239476D02*
X8961952Y-8239476D01*
X8981000Y-8249000D01*
X8990524Y-8258524D01*
X9000048Y-8277571D01*
X9009571Y-8315667D01*
X9009571Y-8363286D01*
X9000048Y-8401381D01*
X8990524Y-8420429D01*
X8981000Y-8429952D01*
X8961952Y-8439476D01*
X8942905Y-8439476D01*
X8923857Y-8429952D01*
X8914333Y-8420429D01*
X8904810Y-8401381D01*
X8895286Y-8363286D01*
X8895286Y-8315667D01*
X8904810Y-8277571D01*
X8914333Y-8258524D01*
X8923857Y-8249000D01*
X8942905Y-8239476D01*
X9133381Y-8239476D02*
X9152429Y-8239476D01*
X9171476Y-8249000D01*
X9181000Y-8258524D01*
X9190524Y-8277571D01*
X9200048Y-8315667D01*
X9200048Y-8363286D01*
X9190524Y-8401381D01*
X9181000Y-8420429D01*
X9171476Y-8429952D01*
X9152429Y-8439476D01*
X9133381Y-8439476D01*
X9114333Y-8429952D01*
X9104810Y-8420429D01*
X9095286Y-8401381D01*
X9085762Y-8363286D01*
X9085762Y-8315667D01*
X9095286Y-8277571D01*
X9104810Y-8258524D01*
X9114333Y-8249000D01*
X9133381Y-8239476D01*
X9285762Y-8439476D02*
X9285762Y-8306143D01*
X9285762Y-8325190D02*
X9295286Y-8315667D01*
X9314333Y-8306143D01*
X9342905Y-8306143D01*
X9361952Y-8315667D01*
X9371476Y-8334714D01*
X9371476Y-8439476D01*
X9371476Y-8334714D02*
X9381000Y-8315667D01*
X9400048Y-8306143D01*
X9428619Y-8306143D01*
X9447667Y-8315667D01*
X9457190Y-8334714D01*
X9457190Y-8439476D01*
X9552429Y-8439476D02*
X9552429Y-8306143D01*
X9552429Y-8325190D02*
X9561952Y-8315667D01*
X9581000Y-8306143D01*
X9609571Y-8306143D01*
X9628619Y-8315667D01*
X9638143Y-8334714D01*
X9638143Y-8439476D01*
X9638143Y-8334714D02*
X9647667Y-8315667D01*
X9666714Y-8306143D01*
X9695286Y-8306143D01*
X9714333Y-8315667D01*
X9723857Y-8334714D01*
X9723857Y-8439476D01*
X10114333Y-8229952D02*
X9942905Y-8487095D01*
X10371476Y-8239476D02*
X10390524Y-8239476D01*
X10409571Y-8249000D01*
X10419095Y-8258524D01*
X10428619Y-8277571D01*
X10438143Y-8315667D01*
X10438143Y-8363286D01*
X10428619Y-8401381D01*
X10419095Y-8420429D01*
X10409571Y-8429952D01*
X10390524Y-8439476D01*
X10371476Y-8439476D01*
X10352429Y-8429952D01*
X10342905Y-8420429D01*
X10333381Y-8401381D01*
X10323857Y-8363286D01*
X10323857Y-8315667D01*
X10333381Y-8277571D01*
X10342905Y-8258524D01*
X10352429Y-8249000D01*
X10371476Y-8239476D01*
X10523857Y-8420429D02*
X10533381Y-8429952D01*
X10523857Y-8439476D01*
X10514333Y-8429952D01*
X10523857Y-8420429D01*
X10523857Y-8439476D01*
X10657190Y-8239476D02*
X10676238Y-8239476D01*
X10695286Y-8249000D01*
X10704810Y-8258524D01*
X10714333Y-8277571D01*
X10723857Y-8315667D01*
X10723857Y-8363286D01*
X10714333Y-8401381D01*
X10704810Y-8420429D01*
X10695286Y-8429952D01*
X10676238Y-8439476D01*
X10657190Y-8439476D01*
X10638143Y-8429952D01*
X10628619Y-8420429D01*
X10619095Y-8401381D01*
X10609571Y-8363286D01*
X10609571Y-8315667D01*
X10619095Y-8277571D01*
X10628619Y-8258524D01*
X10638143Y-8249000D01*
X10657190Y-8239476D01*
X10914333Y-8439476D02*
X10800048Y-8439476D01*
X10857190Y-8439476D02*
X10857190Y-8239476D01*
X10838143Y-8268048D01*
X10819095Y-8287095D01*
X10800048Y-8296619D01*
X11095286Y-8239476D02*
X11000048Y-8239476D01*
X10990524Y-8334714D01*
X11000048Y-8325190D01*
X11019095Y-8315667D01*
X11066714Y-8315667D01*
X11085762Y-8325190D01*
X11095286Y-8334714D01*
X11104810Y-8353762D01*
X11104810Y-8401381D01*
X11095286Y-8420429D01*
X11085762Y-8429952D01*
X11066714Y-8439476D01*
X11019095Y-8439476D01*
X11000048Y-8429952D01*
X10990524Y-8420429D01*
X11171476Y-8239476D02*
X11304809Y-8239476D01*
X11219095Y-8439476D01*
X11371476Y-8239476D02*
X11371476Y-8277571D01*
X11447667Y-8239476D02*
X11447667Y-8277571D01*
X11742905Y-8515667D02*
X11733381Y-8506143D01*
X11714333Y-8477571D01*
X11704809Y-8458524D01*
X11695286Y-8429952D01*
X11685762Y-8382333D01*
X11685762Y-8344238D01*
X11695286Y-8296619D01*
X11704809Y-8268048D01*
X11714333Y-8249000D01*
X11733381Y-8220428D01*
X11742905Y-8210905D01*
X11904809Y-8306143D02*
X11904809Y-8439476D01*
X11857190Y-8229952D02*
X11809571Y-8372809D01*
X11933381Y-8372809D01*
X12161952Y-8439476D02*
X12161952Y-8239476D01*
X12247667Y-8439476D02*
X12247667Y-8334714D01*
X12238143Y-8315667D01*
X12219095Y-8306143D01*
X12190524Y-8306143D01*
X12171476Y-8315667D01*
X12161952Y-8325190D01*
X12371476Y-8439476D02*
X12352428Y-8429952D01*
X12342905Y-8420429D01*
X12333381Y-8401381D01*
X12333381Y-8344238D01*
X12342905Y-8325190D01*
X12352428Y-8315667D01*
X12371476Y-8306143D01*
X12400048Y-8306143D01*
X12419095Y-8315667D01*
X12428619Y-8325190D01*
X12438143Y-8344238D01*
X12438143Y-8401381D01*
X12428619Y-8420429D01*
X12419095Y-8429952D01*
X12400048Y-8439476D01*
X12371476Y-8439476D01*
X12552428Y-8439476D02*
X12533381Y-8429952D01*
X12523857Y-8410905D01*
X12523857Y-8239476D01*
X12704809Y-8429952D02*
X12685762Y-8439476D01*
X12647667Y-8439476D01*
X12628619Y-8429952D01*
X12619095Y-8410905D01*
X12619095Y-8334714D01*
X12628619Y-8315667D01*
X12647667Y-8306143D01*
X12685762Y-8306143D01*
X12704809Y-8315667D01*
X12714333Y-8334714D01*
X12714333Y-8353762D01*
X12619095Y-8372809D01*
X12790524Y-8429952D02*
X12809571Y-8439476D01*
X12847667Y-8439476D01*
X12866714Y-8429952D01*
X12876238Y-8410905D01*
X12876238Y-8401381D01*
X12866714Y-8382333D01*
X12847667Y-8372809D01*
X12819095Y-8372809D01*
X12800048Y-8363286D01*
X12790524Y-8344238D01*
X12790524Y-8334714D01*
X12800048Y-8315667D01*
X12819095Y-8306143D01*
X12847667Y-8306143D01*
X12866714Y-8315667D01*
X12942905Y-8515667D02*
X12952428Y-8506143D01*
X12971476Y-8477571D01*
X12981000Y-8458524D01*
X12990524Y-8429952D01*
X13000048Y-8382333D01*
X13000048Y-8344238D01*
X12990524Y-8296619D01*
X12981000Y-8268048D01*
X12971476Y-8249000D01*
X12952428Y-8220428D01*
X12942905Y-8210905D01*
D13*
X8171000Y-8613000D02*
G75*
G03*
X8171000Y-8613000I-44450J0D01*
G01*
D11*
X8466714Y-8503476D02*
X8485762Y-8503476D01*
X8504810Y-8513000D01*
X8514333Y-8522524D01*
X8523857Y-8541571D01*
X8533381Y-8579667D01*
X8533381Y-8627286D01*
X8523857Y-8665381D01*
X8514333Y-8684429D01*
X8504810Y-8693952D01*
X8485762Y-8703476D01*
X8466714Y-8703476D01*
X8447667Y-8693952D01*
X8438143Y-8684429D01*
X8428619Y-8665381D01*
X8419095Y-8627286D01*
X8419095Y-8579667D01*
X8428619Y-8541571D01*
X8438143Y-8522524D01*
X8447667Y-8513000D01*
X8466714Y-8503476D01*
X8619095Y-8684429D02*
X8628619Y-8693952D01*
X8619095Y-8703476D01*
X8609571Y-8693952D01*
X8619095Y-8684429D01*
X8619095Y-8703476D01*
X8742905Y-8589190D02*
X8723857Y-8579667D01*
X8714333Y-8570143D01*
X8704810Y-8551095D01*
X8704810Y-8541571D01*
X8714333Y-8522524D01*
X8723857Y-8513000D01*
X8742905Y-8503476D01*
X8781000Y-8503476D01*
X8800048Y-8513000D01*
X8809571Y-8522524D01*
X8819095Y-8541571D01*
X8819095Y-8551095D01*
X8809571Y-8570143D01*
X8800048Y-8579667D01*
X8781000Y-8589190D01*
X8742905Y-8589190D01*
X8723857Y-8598714D01*
X8714333Y-8608238D01*
X8704810Y-8627286D01*
X8704810Y-8665381D01*
X8714333Y-8684429D01*
X8723857Y-8693952D01*
X8742905Y-8703476D01*
X8781000Y-8703476D01*
X8800048Y-8693952D01*
X8809571Y-8684429D01*
X8819095Y-8665381D01*
X8819095Y-8627286D01*
X8809571Y-8608238D01*
X8800048Y-8598714D01*
X8781000Y-8589190D01*
X8933381Y-8589190D02*
X8914333Y-8579667D01*
X8904810Y-8570143D01*
X8895286Y-8551095D01*
X8895286Y-8541571D01*
X8904810Y-8522524D01*
X8914333Y-8513000D01*
X8933381Y-8503476D01*
X8971476Y-8503476D01*
X8990524Y-8513000D01*
X9000048Y-8522524D01*
X9009571Y-8541571D01*
X9009571Y-8551095D01*
X9000048Y-8570143D01*
X8990524Y-8579667D01*
X8971476Y-8589190D01*
X8933381Y-8589190D01*
X8914333Y-8598714D01*
X8904810Y-8608238D01*
X8895286Y-8627286D01*
X8895286Y-8665381D01*
X8904810Y-8684429D01*
X8914333Y-8693952D01*
X8933381Y-8703476D01*
X8971476Y-8703476D01*
X8990524Y-8693952D01*
X9000048Y-8684429D01*
X9009571Y-8665381D01*
X9009571Y-8627286D01*
X9000048Y-8608238D01*
X8990524Y-8598714D01*
X8971476Y-8589190D01*
X9104810Y-8703476D02*
X9142905Y-8703476D01*
X9161952Y-8693952D01*
X9171476Y-8684429D01*
X9190524Y-8655857D01*
X9200048Y-8617762D01*
X9200048Y-8541571D01*
X9190524Y-8522524D01*
X9181000Y-8513000D01*
X9161952Y-8503476D01*
X9123857Y-8503476D01*
X9104810Y-8513000D01*
X9095286Y-8522524D01*
X9085762Y-8541571D01*
X9085762Y-8589190D01*
X9095286Y-8608238D01*
X9104810Y-8617762D01*
X9123857Y-8627286D01*
X9161952Y-8627286D01*
X9181000Y-8617762D01*
X9190524Y-8608238D01*
X9200048Y-8589190D01*
X9285762Y-8703476D02*
X9285762Y-8570143D01*
X9285762Y-8589190D02*
X9295286Y-8579667D01*
X9314333Y-8570143D01*
X9342905Y-8570143D01*
X9361952Y-8579667D01*
X9371476Y-8598714D01*
X9371476Y-8703476D01*
X9371476Y-8598714D02*
X9381000Y-8579667D01*
X9400048Y-8570143D01*
X9428619Y-8570143D01*
X9447667Y-8579667D01*
X9457190Y-8598714D01*
X9457190Y-8703476D01*
X9552429Y-8703476D02*
X9552429Y-8570143D01*
X9552429Y-8589190D02*
X9561952Y-8579667D01*
X9581000Y-8570143D01*
X9609571Y-8570143D01*
X9628619Y-8579667D01*
X9638143Y-8598714D01*
X9638143Y-8703476D01*
X9638143Y-8598714D02*
X9647667Y-8579667D01*
X9666714Y-8570143D01*
X9695286Y-8570143D01*
X9714333Y-8579667D01*
X9723857Y-8598714D01*
X9723857Y-8703476D01*
X10114333Y-8493952D02*
X9942905Y-8751095D01*
X10371476Y-8503476D02*
X10390524Y-8503476D01*
X10409571Y-8513000D01*
X10419095Y-8522524D01*
X10428619Y-8541571D01*
X10438143Y-8579667D01*
X10438143Y-8627286D01*
X10428619Y-8665381D01*
X10419095Y-8684429D01*
X10409571Y-8693952D01*
X10390524Y-8703476D01*
X10371476Y-8703476D01*
X10352429Y-8693952D01*
X10342905Y-8684429D01*
X10333381Y-8665381D01*
X10323857Y-8627286D01*
X10323857Y-8579667D01*
X10333381Y-8541571D01*
X10342905Y-8522524D01*
X10352429Y-8513000D01*
X10371476Y-8503476D01*
X10523857Y-8684429D02*
X10533381Y-8693952D01*
X10523857Y-8703476D01*
X10514333Y-8693952D01*
X10523857Y-8684429D01*
X10523857Y-8703476D01*
X10657190Y-8503476D02*
X10676238Y-8503476D01*
X10695286Y-8513000D01*
X10704810Y-8522524D01*
X10714333Y-8541571D01*
X10723857Y-8579667D01*
X10723857Y-8627286D01*
X10714333Y-8665381D01*
X10704810Y-8684429D01*
X10695286Y-8693952D01*
X10676238Y-8703476D01*
X10657190Y-8703476D01*
X10638143Y-8693952D01*
X10628619Y-8684429D01*
X10619095Y-8665381D01*
X10609571Y-8627286D01*
X10609571Y-8579667D01*
X10619095Y-8541571D01*
X10628619Y-8522524D01*
X10638143Y-8513000D01*
X10657190Y-8503476D01*
X10790524Y-8503476D02*
X10914333Y-8503476D01*
X10847667Y-8579667D01*
X10876238Y-8579667D01*
X10895286Y-8589190D01*
X10904810Y-8598714D01*
X10914333Y-8617762D01*
X10914333Y-8665381D01*
X10904810Y-8684429D01*
X10895286Y-8693952D01*
X10876238Y-8703476D01*
X10819095Y-8703476D01*
X10800048Y-8693952D01*
X10790524Y-8684429D01*
X11095286Y-8503476D02*
X11000048Y-8503476D01*
X10990524Y-8598714D01*
X11000048Y-8589190D01*
X11019095Y-8579667D01*
X11066714Y-8579667D01*
X11085762Y-8589190D01*
X11095286Y-8598714D01*
X11104810Y-8617762D01*
X11104810Y-8665381D01*
X11095286Y-8684429D01*
X11085762Y-8693952D01*
X11066714Y-8703476D01*
X11019095Y-8703476D01*
X11000048Y-8693952D01*
X10990524Y-8684429D01*
X11228619Y-8503476D02*
X11247667Y-8503476D01*
X11266714Y-8513000D01*
X11276238Y-8522524D01*
X11285762Y-8541571D01*
X11295286Y-8579667D01*
X11295286Y-8627286D01*
X11285762Y-8665381D01*
X11276238Y-8684429D01*
X11266714Y-8693952D01*
X11247667Y-8703476D01*
X11228619Y-8703476D01*
X11209571Y-8693952D01*
X11200048Y-8684429D01*
X11190524Y-8665381D01*
X11181000Y-8627286D01*
X11181000Y-8579667D01*
X11190524Y-8541571D01*
X11200048Y-8522524D01*
X11209571Y-8513000D01*
X11228619Y-8503476D01*
X11371476Y-8503476D02*
X11371476Y-8541571D01*
X11447667Y-8503476D02*
X11447667Y-8541571D01*
X11742905Y-8779667D02*
X11733381Y-8770143D01*
X11714333Y-8741571D01*
X11704809Y-8722524D01*
X11695286Y-8693952D01*
X11685762Y-8646333D01*
X11685762Y-8608238D01*
X11695286Y-8560619D01*
X11704809Y-8532048D01*
X11714333Y-8513000D01*
X11733381Y-8484429D01*
X11742905Y-8474905D01*
X11800048Y-8503476D02*
X11923857Y-8503476D01*
X11857190Y-8579667D01*
X11885762Y-8579667D01*
X11904809Y-8589190D01*
X11914333Y-8598714D01*
X11923857Y-8617762D01*
X11923857Y-8665381D01*
X11914333Y-8684429D01*
X11904809Y-8693952D01*
X11885762Y-8703476D01*
X11828619Y-8703476D01*
X11809571Y-8693952D01*
X11800048Y-8684429D01*
X12161952Y-8703476D02*
X12161952Y-8503476D01*
X12247667Y-8703476D02*
X12247667Y-8598714D01*
X12238143Y-8579667D01*
X12219095Y-8570143D01*
X12190524Y-8570143D01*
X12171476Y-8579667D01*
X12161952Y-8589190D01*
X12371476Y-8703476D02*
X12352428Y-8693952D01*
X12342905Y-8684429D01*
X12333381Y-8665381D01*
X12333381Y-8608238D01*
X12342905Y-8589190D01*
X12352428Y-8579667D01*
X12371476Y-8570143D01*
X12400048Y-8570143D01*
X12419095Y-8579667D01*
X12428619Y-8589190D01*
X12438143Y-8608238D01*
X12438143Y-8665381D01*
X12428619Y-8684429D01*
X12419095Y-8693952D01*
X12400048Y-8703476D01*
X12371476Y-8703476D01*
X12552428Y-8703476D02*
X12533381Y-8693952D01*
X12523857Y-8674905D01*
X12523857Y-8503476D01*
X12704809Y-8693952D02*
X12685762Y-8703476D01*
X12647667Y-8703476D01*
X12628619Y-8693952D01*
X12619095Y-8674905D01*
X12619095Y-8598714D01*
X12628619Y-8579667D01*
X12647667Y-8570143D01*
X12685762Y-8570143D01*
X12704809Y-8579667D01*
X12714333Y-8598714D01*
X12714333Y-8617762D01*
X12619095Y-8636810D01*
X12790524Y-8693952D02*
X12809571Y-8703476D01*
X12847667Y-8703476D01*
X12866714Y-8693952D01*
X12876238Y-8674905D01*
X12876238Y-8665381D01*
X12866714Y-8646333D01*
X12847667Y-8636810D01*
X12819095Y-8636810D01*
X12800048Y-8627286D01*
X12790524Y-8608238D01*
X12790524Y-8598714D01*
X12800048Y-8579667D01*
X12819095Y-8570143D01*
X12847667Y-8570143D01*
X12866714Y-8579667D01*
X12942905Y-8779667D02*
X12952428Y-8770143D01*
X12971476Y-8741571D01*
X12981000Y-8722524D01*
X12990524Y-8693952D01*
X13000048Y-8646333D01*
X13000048Y-8608238D01*
X12990524Y-8560619D01*
X12981000Y-8532048D01*
X12971476Y-8513000D01*
X12952428Y-8484429D01*
X12942905Y-8474905D01*
D14*
X8123500Y-8829500D02*
X8123500Y-8924500D01*
X8076000Y-8877000D02*
X8171000Y-8877000D01*
D11*
X8466714Y-8767476D02*
X8485762Y-8767476D01*
X8504810Y-8777000D01*
X8514333Y-8786524D01*
X8523857Y-8805571D01*
X8533381Y-8843667D01*
X8533381Y-8891286D01*
X8523857Y-8929381D01*
X8514333Y-8948429D01*
X8504810Y-8957952D01*
X8485762Y-8967476D01*
X8466714Y-8967476D01*
X8447667Y-8957952D01*
X8438143Y-8948429D01*
X8428619Y-8929381D01*
X8419095Y-8891286D01*
X8419095Y-8843667D01*
X8428619Y-8805571D01*
X8438143Y-8786524D01*
X8447667Y-8777000D01*
X8466714Y-8767476D01*
X8619095Y-8948429D02*
X8628619Y-8957952D01*
X8619095Y-8967476D01*
X8609571Y-8957952D01*
X8619095Y-8948429D01*
X8619095Y-8967476D01*
X8723857Y-8967476D02*
X8761952Y-8967476D01*
X8781000Y-8957952D01*
X8790524Y-8948429D01*
X8809571Y-8919857D01*
X8819095Y-8881762D01*
X8819095Y-8805571D01*
X8809571Y-8786524D01*
X8800048Y-8777000D01*
X8781000Y-8767476D01*
X8742905Y-8767476D01*
X8723857Y-8777000D01*
X8714333Y-8786524D01*
X8704810Y-8805571D01*
X8704810Y-8853190D01*
X8714333Y-8872238D01*
X8723857Y-8881762D01*
X8742905Y-8891286D01*
X8781000Y-8891286D01*
X8800048Y-8881762D01*
X8809571Y-8872238D01*
X8819095Y-8853190D01*
X9000048Y-8767476D02*
X8904810Y-8767476D01*
X8895286Y-8862714D01*
X8904810Y-8853190D01*
X8923857Y-8843667D01*
X8971476Y-8843667D01*
X8990524Y-8853190D01*
X9000048Y-8862714D01*
X9009571Y-8881762D01*
X9009571Y-8929381D01*
X9000048Y-8948429D01*
X8990524Y-8957952D01*
X8971476Y-8967476D01*
X8923857Y-8967476D01*
X8904810Y-8957952D01*
X8895286Y-8948429D01*
X9133381Y-8767476D02*
X9152429Y-8767476D01*
X9171476Y-8777000D01*
X9181000Y-8786524D01*
X9190524Y-8805571D01*
X9200048Y-8843667D01*
X9200048Y-8891286D01*
X9190524Y-8929381D01*
X9181000Y-8948429D01*
X9171476Y-8957952D01*
X9152429Y-8967476D01*
X9133381Y-8967476D01*
X9114333Y-8957952D01*
X9104810Y-8948429D01*
X9095286Y-8929381D01*
X9085762Y-8891286D01*
X9085762Y-8843667D01*
X9095286Y-8805571D01*
X9104810Y-8786524D01*
X9114333Y-8777000D01*
X9133381Y-8767476D01*
X9285762Y-8967476D02*
X9285762Y-8834143D01*
X9285762Y-8853190D02*
X9295286Y-8843667D01*
X9314333Y-8834143D01*
X9342905Y-8834143D01*
X9361952Y-8843667D01*
X9371476Y-8862714D01*
X9371476Y-8967476D01*
X9371476Y-8862714D02*
X9381000Y-8843667D01*
X9400048Y-8834143D01*
X9428619Y-8834143D01*
X9447667Y-8843667D01*
X9457190Y-8862714D01*
X9457190Y-8967476D01*
X9552429Y-8967476D02*
X9552429Y-8834143D01*
X9552429Y-8853190D02*
X9561952Y-8843667D01*
X9581000Y-8834143D01*
X9609571Y-8834143D01*
X9628619Y-8843667D01*
X9638143Y-8862714D01*
X9638143Y-8967476D01*
X9638143Y-8862714D02*
X9647667Y-8843667D01*
X9666714Y-8834143D01*
X9695286Y-8834143D01*
X9714333Y-8843667D01*
X9723857Y-8862714D01*
X9723857Y-8967476D01*
X10114333Y-8757952D02*
X9942905Y-9015095D01*
X10371476Y-8767476D02*
X10390524Y-8767476D01*
X10409571Y-8777000D01*
X10419095Y-8786524D01*
X10428619Y-8805571D01*
X10438143Y-8843667D01*
X10438143Y-8891286D01*
X10428619Y-8929381D01*
X10419095Y-8948429D01*
X10409571Y-8957952D01*
X10390524Y-8967476D01*
X10371476Y-8967476D01*
X10352429Y-8957952D01*
X10342905Y-8948429D01*
X10333381Y-8929381D01*
X10323857Y-8891286D01*
X10323857Y-8843667D01*
X10333381Y-8805571D01*
X10342905Y-8786524D01*
X10352429Y-8777000D01*
X10371476Y-8767476D01*
X10523857Y-8948429D02*
X10533381Y-8957952D01*
X10523857Y-8967476D01*
X10514333Y-8957952D01*
X10523857Y-8948429D01*
X10523857Y-8967476D01*
X10657190Y-8767476D02*
X10676238Y-8767476D01*
X10695286Y-8777000D01*
X10704810Y-8786524D01*
X10714333Y-8805571D01*
X10723857Y-8843667D01*
X10723857Y-8891286D01*
X10714333Y-8929381D01*
X10704810Y-8948429D01*
X10695286Y-8957952D01*
X10676238Y-8967476D01*
X10657190Y-8967476D01*
X10638143Y-8957952D01*
X10628619Y-8948429D01*
X10619095Y-8929381D01*
X10609571Y-8891286D01*
X10609571Y-8843667D01*
X10619095Y-8805571D01*
X10628619Y-8786524D01*
X10638143Y-8777000D01*
X10657190Y-8767476D01*
X10790524Y-8767476D02*
X10914333Y-8767476D01*
X10847667Y-8843667D01*
X10876238Y-8843667D01*
X10895286Y-8853190D01*
X10904810Y-8862714D01*
X10914333Y-8881762D01*
X10914333Y-8929381D01*
X10904810Y-8948429D01*
X10895286Y-8957952D01*
X10876238Y-8967476D01*
X10819095Y-8967476D01*
X10800048Y-8957952D01*
X10790524Y-8948429D01*
X10981000Y-8767476D02*
X11114333Y-8767476D01*
X11028619Y-8967476D01*
X11276238Y-8834143D02*
X11276238Y-8967476D01*
X11228619Y-8757952D02*
X11181000Y-8900810D01*
X11304809Y-8900810D01*
X11371476Y-8767476D02*
X11371476Y-8805571D01*
X11447667Y-8767476D02*
X11447667Y-8805571D01*
X11742905Y-9043667D02*
X11733381Y-9034143D01*
X11714333Y-9005571D01*
X11704809Y-8986524D01*
X11695286Y-8957952D01*
X11685762Y-8910333D01*
X11685762Y-8872238D01*
X11695286Y-8824619D01*
X11704809Y-8796048D01*
X11714333Y-8777000D01*
X11733381Y-8748429D01*
X11742905Y-8738905D01*
X11800048Y-8767476D02*
X11923857Y-8767476D01*
X11857190Y-8843667D01*
X11885762Y-8843667D01*
X11904809Y-8853190D01*
X11914333Y-8862714D01*
X11923857Y-8881762D01*
X11923857Y-8929381D01*
X11914333Y-8948429D01*
X11904809Y-8957952D01*
X11885762Y-8967476D01*
X11828619Y-8967476D01*
X11809571Y-8957952D01*
X11800048Y-8948429D01*
X12161952Y-8967476D02*
X12161952Y-8767476D01*
X12247667Y-8967476D02*
X12247667Y-8862714D01*
X12238143Y-8843667D01*
X12219095Y-8834143D01*
X12190524Y-8834143D01*
X12171476Y-8843667D01*
X12161952Y-8853190D01*
X12371476Y-8967476D02*
X12352428Y-8957952D01*
X12342905Y-8948429D01*
X12333381Y-8929381D01*
X12333381Y-8872238D01*
X12342905Y-8853190D01*
X12352428Y-8843667D01*
X12371476Y-8834143D01*
X12400048Y-8834143D01*
X12419095Y-8843667D01*
X12428619Y-8853190D01*
X12438143Y-8872238D01*
X12438143Y-8929381D01*
X12428619Y-8948429D01*
X12419095Y-8957952D01*
X12400048Y-8967476D01*
X12371476Y-8967476D01*
X12552428Y-8967476D02*
X12533381Y-8957952D01*
X12523857Y-8938905D01*
X12523857Y-8767476D01*
X12704809Y-8957952D02*
X12685762Y-8967476D01*
X12647667Y-8967476D01*
X12628619Y-8957952D01*
X12619095Y-8938905D01*
X12619095Y-8862714D01*
X12628619Y-8843667D01*
X12647667Y-8834143D01*
X12685762Y-8834143D01*
X12704809Y-8843667D01*
X12714333Y-8862714D01*
X12714333Y-8881762D01*
X12619095Y-8900810D01*
X12790524Y-8957952D02*
X12809571Y-8967476D01*
X12847667Y-8967476D01*
X12866714Y-8957952D01*
X12876238Y-8938905D01*
X12876238Y-8929381D01*
X12866714Y-8910333D01*
X12847667Y-8900810D01*
X12819095Y-8900810D01*
X12800048Y-8891286D01*
X12790524Y-8872238D01*
X12790524Y-8862714D01*
X12800048Y-8843667D01*
X12819095Y-8834143D01*
X12847667Y-8834143D01*
X12866714Y-8843667D01*
X12942905Y-9043667D02*
X12952428Y-9034143D01*
X12971476Y-9005571D01*
X12981000Y-8986524D01*
X12990524Y-8957952D01*
X13000048Y-8910333D01*
X13000048Y-8872238D01*
X12990524Y-8824619D01*
X12981000Y-8796048D01*
X12971476Y-8777000D01*
X12952428Y-8748429D01*
X12942905Y-8738905D01*
D10*
X8156356Y-9176356D02*
X8156356Y-9105644D01*
X8085644Y-9105644D01*
X8085644Y-9176356D01*
X8156356Y-9176356D01*
D11*
X8533381Y-9231476D02*
X8419095Y-9231476D01*
X8476238Y-9231476D02*
X8476238Y-9031476D01*
X8457190Y-9060048D01*
X8438143Y-9079095D01*
X8419095Y-9088619D01*
X8619095Y-9212429D02*
X8628619Y-9221952D01*
X8619095Y-9231476D01*
X8609571Y-9221952D01*
X8619095Y-9212429D01*
X8619095Y-9231476D01*
X8752429Y-9031476D02*
X8771476Y-9031476D01*
X8790524Y-9041000D01*
X8800048Y-9050524D01*
X8809571Y-9069571D01*
X8819095Y-9107667D01*
X8819095Y-9155286D01*
X8809571Y-9193381D01*
X8800048Y-9212429D01*
X8790524Y-9221952D01*
X8771476Y-9231476D01*
X8752429Y-9231476D01*
X8733381Y-9221952D01*
X8723857Y-9212429D01*
X8714333Y-9193381D01*
X8704810Y-9155286D01*
X8704810Y-9107667D01*
X8714333Y-9069571D01*
X8723857Y-9050524D01*
X8733381Y-9041000D01*
X8752429Y-9031476D01*
X8942905Y-9031476D02*
X8961952Y-9031476D01*
X8981000Y-9041000D01*
X8990524Y-9050524D01*
X9000048Y-9069571D01*
X9009571Y-9107667D01*
X9009571Y-9155286D01*
X9000048Y-9193381D01*
X8990524Y-9212429D01*
X8981000Y-9221952D01*
X8961952Y-9231476D01*
X8942905Y-9231476D01*
X8923857Y-9221952D01*
X8914333Y-9212429D01*
X8904810Y-9193381D01*
X8895286Y-9155286D01*
X8895286Y-9107667D01*
X8904810Y-9069571D01*
X8914333Y-9050524D01*
X8923857Y-9041000D01*
X8942905Y-9031476D01*
X9133381Y-9031476D02*
X9152429Y-9031476D01*
X9171476Y-9041000D01*
X9181000Y-9050524D01*
X9190524Y-9069571D01*
X9200048Y-9107667D01*
X9200048Y-9155286D01*
X9190524Y-9193381D01*
X9181000Y-9212429D01*
X9171476Y-9221952D01*
X9152429Y-9231476D01*
X9133381Y-9231476D01*
X9114333Y-9221952D01*
X9104810Y-9212429D01*
X9095286Y-9193381D01*
X9085762Y-9155286D01*
X9085762Y-9107667D01*
X9095286Y-9069571D01*
X9104810Y-9050524D01*
X9114333Y-9041000D01*
X9133381Y-9031476D01*
X9285762Y-9231476D02*
X9285762Y-9098143D01*
X9285762Y-9117190D02*
X9295286Y-9107667D01*
X9314333Y-9098143D01*
X9342905Y-9098143D01*
X9361952Y-9107667D01*
X9371476Y-9126714D01*
X9371476Y-9231476D01*
X9371476Y-9126714D02*
X9381000Y-9107667D01*
X9400048Y-9098143D01*
X9428619Y-9098143D01*
X9447667Y-9107667D01*
X9457190Y-9126714D01*
X9457190Y-9231476D01*
X9552429Y-9231476D02*
X9552429Y-9098143D01*
X9552429Y-9117190D02*
X9561952Y-9107667D01*
X9581000Y-9098143D01*
X9609571Y-9098143D01*
X9628619Y-9107667D01*
X9638143Y-9126714D01*
X9638143Y-9231476D01*
X9638143Y-9126714D02*
X9647667Y-9107667D01*
X9666714Y-9098143D01*
X9695286Y-9098143D01*
X9714333Y-9107667D01*
X9723857Y-9126714D01*
X9723857Y-9231476D01*
X10114333Y-9021952D02*
X9942905Y-9279095D01*
X10371476Y-9031476D02*
X10390524Y-9031476D01*
X10409571Y-9041000D01*
X10419095Y-9050524D01*
X10428619Y-9069571D01*
X10438143Y-9107667D01*
X10438143Y-9155286D01*
X10428619Y-9193381D01*
X10419095Y-9212429D01*
X10409571Y-9221952D01*
X10390524Y-9231476D01*
X10371476Y-9231476D01*
X10352429Y-9221952D01*
X10342905Y-9212429D01*
X10333381Y-9193381D01*
X10323857Y-9155286D01*
X10323857Y-9107667D01*
X10333381Y-9069571D01*
X10342905Y-9050524D01*
X10352429Y-9041000D01*
X10371476Y-9031476D01*
X10523857Y-9212429D02*
X10533381Y-9221952D01*
X10523857Y-9231476D01*
X10514333Y-9221952D01*
X10523857Y-9212429D01*
X10523857Y-9231476D01*
X10657190Y-9031476D02*
X10676238Y-9031476D01*
X10695286Y-9041000D01*
X10704810Y-9050524D01*
X10714333Y-9069571D01*
X10723857Y-9107667D01*
X10723857Y-9155286D01*
X10714333Y-9193381D01*
X10704810Y-9212429D01*
X10695286Y-9221952D01*
X10676238Y-9231476D01*
X10657190Y-9231476D01*
X10638143Y-9221952D01*
X10628619Y-9212429D01*
X10619095Y-9193381D01*
X10609571Y-9155286D01*
X10609571Y-9107667D01*
X10619095Y-9069571D01*
X10628619Y-9050524D01*
X10638143Y-9041000D01*
X10657190Y-9031476D01*
X10790524Y-9031476D02*
X10914333Y-9031476D01*
X10847667Y-9107667D01*
X10876238Y-9107667D01*
X10895286Y-9117190D01*
X10904810Y-9126714D01*
X10914333Y-9145762D01*
X10914333Y-9193381D01*
X10904810Y-9212429D01*
X10895286Y-9221952D01*
X10876238Y-9231476D01*
X10819095Y-9231476D01*
X10800048Y-9221952D01*
X10790524Y-9212429D01*
X11009571Y-9231476D02*
X11047667Y-9231476D01*
X11066714Y-9221952D01*
X11076238Y-9212429D01*
X11095286Y-9183857D01*
X11104810Y-9145762D01*
X11104810Y-9069571D01*
X11095286Y-9050524D01*
X11085762Y-9041000D01*
X11066714Y-9031476D01*
X11028619Y-9031476D01*
X11009571Y-9041000D01*
X11000048Y-9050524D01*
X10990524Y-9069571D01*
X10990524Y-9117190D01*
X11000048Y-9136238D01*
X11009571Y-9145762D01*
X11028619Y-9155286D01*
X11066714Y-9155286D01*
X11085762Y-9145762D01*
X11095286Y-9136238D01*
X11104810Y-9117190D01*
X11276238Y-9098143D02*
X11276238Y-9231476D01*
X11228619Y-9021952D02*
X11181000Y-9164810D01*
X11304809Y-9164810D01*
X11371476Y-9031476D02*
X11371476Y-9069571D01*
X11447667Y-9031476D02*
X11447667Y-9069571D01*
X11742905Y-9307667D02*
X11733381Y-9298143D01*
X11714333Y-9269571D01*
X11704809Y-9250524D01*
X11695286Y-9221952D01*
X11685762Y-9174333D01*
X11685762Y-9136238D01*
X11695286Y-9088619D01*
X11704809Y-9060048D01*
X11714333Y-9041000D01*
X11733381Y-9012429D01*
X11742905Y-9002905D01*
X11809571Y-9050524D02*
X11819095Y-9041000D01*
X11838143Y-9031476D01*
X11885762Y-9031476D01*
X11904809Y-9041000D01*
X11914333Y-9050524D01*
X11923857Y-9069571D01*
X11923857Y-9088619D01*
X11914333Y-9117190D01*
X11800048Y-9231476D01*
X11923857Y-9231476D01*
X12161952Y-9231476D02*
X12161952Y-9031476D01*
X12247667Y-9231476D02*
X12247667Y-9126714D01*
X12238143Y-9107667D01*
X12219095Y-9098143D01*
X12190524Y-9098143D01*
X12171476Y-9107667D01*
X12161952Y-9117190D01*
X12371476Y-9231476D02*
X12352428Y-9221952D01*
X12342905Y-9212429D01*
X12333381Y-9193381D01*
X12333381Y-9136238D01*
X12342905Y-9117190D01*
X12352428Y-9107667D01*
X12371476Y-9098143D01*
X12400048Y-9098143D01*
X12419095Y-9107667D01*
X12428619Y-9117190D01*
X12438143Y-9136238D01*
X12438143Y-9193381D01*
X12428619Y-9212429D01*
X12419095Y-9221952D01*
X12400048Y-9231476D01*
X12371476Y-9231476D01*
X12552428Y-9231476D02*
X12533381Y-9221952D01*
X12523857Y-9202905D01*
X12523857Y-9031476D01*
X12704809Y-9221952D02*
X12685762Y-9231476D01*
X12647667Y-9231476D01*
X12628619Y-9221952D01*
X12619095Y-9202905D01*
X12619095Y-9126714D01*
X12628619Y-9107667D01*
X12647667Y-9098143D01*
X12685762Y-9098143D01*
X12704809Y-9107667D01*
X12714333Y-9126714D01*
X12714333Y-9145762D01*
X12619095Y-9164810D01*
X12790524Y-9221952D02*
X12809571Y-9231476D01*
X12847667Y-9231476D01*
X12866714Y-9221952D01*
X12876238Y-9202905D01*
X12876238Y-9193381D01*
X12866714Y-9174333D01*
X12847667Y-9164810D01*
X12819095Y-9164810D01*
X12800048Y-9155286D01*
X12790524Y-9136238D01*
X12790524Y-9126714D01*
X12800048Y-9107667D01*
X12819095Y-9098143D01*
X12847667Y-9098143D01*
X12866714Y-9107667D01*
X12942905Y-9307667D02*
X12952428Y-9298143D01*
X12971476Y-9269571D01*
X12981000Y-9250524D01*
X12990524Y-9221952D01*
X13000048Y-9174333D01*
X13000048Y-9136238D01*
X12990524Y-9088619D01*
X12981000Y-9060048D01*
X12971476Y-9041000D01*
X12952428Y-9012429D01*
X12942905Y-9002905D01*
M02*
