%TF.GenerationSoftware,KiCad,Pcbnew,(6.0.8-1)-1*%
%TF.CreationDate,2022-11-30T21:47:03-05:00*%
%TF.ProjectId,Untitled,556e7469-746c-4656-942e-6b696361645f,rev?*%
%TF.SameCoordinates,Original*%
%TF.FileFunction,Legend,Bot*%
%TF.FilePolarity,Positive*%
%FSLAX46Y46*%
G04 Gerber Fmt 4.6, Leading zero omitted, Abs format (unit mm)*
G04 Created by KiCad (PCBNEW (6.0.8-1)-1) date 2022-11-30 21:47:03*
%MOMM*%
%LPD*%
G01*
G04 APERTURE LIST*
%ADD10C,0.150000*%
%ADD11C,0.120000*%
G04 APERTURE END LIST*
D10*
X94856820Y-68501381D02*
X95722845Y-68001381D01*
X95603798Y-67795185D01*
X95491130Y-67695276D01*
X95361032Y-67660417D01*
X95254744Y-67666796D01*
X95065977Y-67720795D01*
X94942259Y-67792224D01*
X94801112Y-67928701D01*
X94742443Y-68017560D01*
X94707583Y-68147657D01*
X94737772Y-68295185D01*
X94856820Y-68501381D01*
X94207583Y-67281632D02*
X94213963Y-67387920D01*
X94309201Y-67552877D01*
X94398059Y-67611546D01*
X94504347Y-67605166D01*
X94834262Y-67414690D01*
X94892931Y-67325832D01*
X94886551Y-67219544D01*
X94791313Y-67054587D01*
X94702455Y-66995918D01*
X94596167Y-67002297D01*
X94513688Y-67049916D01*
X94669305Y-67509928D01*
X93993297Y-66910478D02*
X93904439Y-66851809D01*
X93809201Y-66686852D01*
X93802821Y-66580564D01*
X93861490Y-66491705D01*
X93902730Y-66467896D01*
X94009018Y-66461516D01*
X94097876Y-66520185D01*
X94169305Y-66643903D01*
X94258163Y-66702572D01*
X94364451Y-66696192D01*
X94405690Y-66672383D01*
X94464359Y-66583524D01*
X94457980Y-66477236D01*
X94386551Y-66353518D01*
X94297693Y-66294849D01*
X93523487Y-66191980D02*
X94100837Y-65858647D01*
X94389512Y-65691980D02*
X94372082Y-65757029D01*
X94307033Y-65739599D01*
X94324463Y-65674550D01*
X94389512Y-65691980D01*
X94307033Y-65739599D01*
X93648456Y-65075100D02*
X92947388Y-65479862D01*
X92888719Y-65568720D01*
X92871289Y-65633769D01*
X92877669Y-65740057D01*
X92949097Y-65863775D01*
X93037956Y-65922444D01*
X93112345Y-65384624D02*
X93118725Y-65490912D01*
X93213963Y-65655869D01*
X93302821Y-65714538D01*
X93367870Y-65731968D01*
X93474158Y-65725588D01*
X93721594Y-65582731D01*
X93780263Y-65493873D01*
X93797693Y-65428824D01*
X93791313Y-65322536D01*
X93696075Y-65157579D01*
X93607217Y-65098909D01*
X93410361Y-64662707D02*
X92833010Y-64996040D01*
X93327882Y-64710326D02*
X93345312Y-64645277D01*
X93338932Y-64538989D01*
X93267504Y-64415271D01*
X93178645Y-64356602D01*
X93072357Y-64362982D01*
X92618725Y-64624887D01*
X92231393Y-63858769D02*
X92237772Y-63965058D01*
X92333010Y-64130015D01*
X92421869Y-64188684D01*
X92528157Y-64182304D01*
X92858071Y-63991828D01*
X92916740Y-63902970D01*
X92910361Y-63796682D01*
X92815123Y-63631724D01*
X92726264Y-63573055D01*
X92619976Y-63579435D01*
X92537498Y-63627054D01*
X92693114Y-64087066D01*
X91737772Y-63099032D02*
X92603798Y-62599032D01*
X91779012Y-63075223D02*
X91785391Y-63181511D01*
X91880629Y-63346468D01*
X91969488Y-63405137D01*
X92034537Y-63422567D01*
X92140825Y-63416187D01*
X92388261Y-63273330D01*
X92446930Y-63184472D01*
X92464359Y-63119423D01*
X92457980Y-63013135D01*
X92362742Y-62848177D01*
X92273883Y-62789508D01*
X91118725Y-62026810D02*
X91984750Y-61526810D01*
X91654836Y-61717286D02*
X91648456Y-61610998D01*
X91553218Y-61446041D01*
X91464359Y-61387372D01*
X91399311Y-61369942D01*
X91293023Y-61376322D01*
X91045587Y-61519179D01*
X90986918Y-61608037D01*
X90969488Y-61673086D01*
X90975868Y-61779374D01*
X91071106Y-61944332D01*
X91159964Y-62003001D01*
X91291313Y-60992409D02*
X90594915Y-61119546D01*
X91053218Y-60580016D02*
X90594915Y-61119546D01*
X90436338Y-61321072D01*
X90418908Y-61386121D01*
X90425288Y-61492409D01*
X93932330Y-70024879D02*
X93819662Y-69924971D01*
X93700614Y-69718774D01*
X93694234Y-69612486D01*
X93711664Y-69547437D01*
X93770333Y-69458579D01*
X93852812Y-69410960D01*
X93959100Y-69404580D01*
X94024149Y-69422010D01*
X94113007Y-69480679D01*
X94249485Y-69621827D01*
X94338343Y-69680496D01*
X94403392Y-69697926D01*
X94509680Y-69691546D01*
X94592159Y-69643927D01*
X94650828Y-69555068D01*
X94668257Y-69490020D01*
X94661878Y-69383731D01*
X94542830Y-69177535D01*
X94430162Y-69077627D01*
X93241854Y-68828939D02*
X93248233Y-68935227D01*
X93343471Y-69100185D01*
X93432330Y-69158854D01*
X93538618Y-69152474D01*
X93868532Y-68961998D01*
X93927201Y-68873139D01*
X93920822Y-68766851D01*
X93825584Y-68601894D01*
X93736725Y-68543225D01*
X93630437Y-68549605D01*
X93547958Y-68597224D01*
X93703575Y-69057236D01*
X92962519Y-68440356D02*
X93828544Y-67940356D01*
X93498630Y-68130832D02*
X93492250Y-68024544D01*
X93397012Y-67859587D01*
X93308154Y-67800918D01*
X93243105Y-67783488D01*
X93136817Y-67789867D01*
X92889381Y-67932725D01*
X92830712Y-68021583D01*
X92813282Y-68086632D01*
X92819662Y-68192920D01*
X92914900Y-68357877D01*
X93003758Y-68416546D01*
X92438709Y-67533091D02*
X92527568Y-67591760D01*
X92592617Y-67609190D01*
X92698905Y-67602810D01*
X92946341Y-67459953D01*
X93005010Y-67371095D01*
X93022439Y-67306046D01*
X93016060Y-67199758D01*
X92944631Y-67076040D01*
X92855773Y-67017371D01*
X92790724Y-66999941D01*
X92684436Y-67006321D01*
X92437000Y-67149178D01*
X92378331Y-67238036D01*
X92360901Y-67303085D01*
X92367281Y-67409373D01*
X92438709Y-67533091D01*
X92420822Y-66168775D02*
X91843471Y-66502108D01*
X92635107Y-66539929D02*
X92181475Y-66801834D01*
X92075187Y-66808213D01*
X91986328Y-66749544D01*
X91914900Y-66625826D01*
X91908520Y-66519538D01*
X91925950Y-66454489D01*
X91605376Y-66089715D02*
X92471402Y-65589715D01*
X91391090Y-65718562D02*
X91844723Y-65456657D01*
X91951011Y-65450277D01*
X92039869Y-65508946D01*
X92111298Y-65632664D01*
X92117678Y-65738952D01*
X92100248Y-65804001D01*
X91495211Y-63898904D02*
X90876621Y-64256047D01*
X90776713Y-64368715D01*
X90741854Y-64498812D01*
X90772043Y-64646340D01*
X90819662Y-64728818D01*
X90473569Y-63938892D02*
X90408520Y-63921462D01*
X90391090Y-63986511D01*
X90456139Y-64003941D01*
X90473569Y-63938892D01*
X90391090Y-63986511D01*
X89772043Y-62914289D02*
X90638068Y-62414289D01*
X90447592Y-62084374D01*
X90358734Y-62025705D01*
X90293685Y-62008276D01*
X90187397Y-62014655D01*
X90063679Y-62086084D01*
X90005010Y-62174942D01*
X89987580Y-62239991D01*
X89993960Y-62346279D01*
X90184436Y-62676194D01*
X89057757Y-61677110D02*
X89511389Y-61415205D01*
X89617678Y-61408825D01*
X89706536Y-61467494D01*
X89801774Y-61632452D01*
X89808154Y-61738740D01*
X89098996Y-61653300D02*
X89105376Y-61759588D01*
X89224424Y-61965785D01*
X89313282Y-62024454D01*
X89419570Y-62018074D01*
X89502049Y-61970455D01*
X89560718Y-61881597D01*
X89554338Y-61775309D01*
X89435291Y-61569112D01*
X89428911Y-61462824D01*
X89182726Y-60560230D02*
X88605376Y-60893563D01*
X89397012Y-60931383D02*
X88943380Y-61193288D01*
X88837092Y-61199668D01*
X88748233Y-61140999D01*
X88676805Y-61017281D01*
X88670425Y-60910993D01*
X88687855Y-60845944D01*
X88295852Y-60357452D02*
X88384711Y-60416121D01*
X88490999Y-60409741D01*
X89233306Y-59981170D01*
X90645568Y-66313946D02*
X89949170Y-66441083D01*
X90407473Y-65901553D01*
X90447003Y-65493830D02*
X90464433Y-65428782D01*
X90458053Y-65322493D01*
X90339005Y-65116297D01*
X90250147Y-65057628D01*
X90185098Y-65040198D01*
X90078810Y-65046578D01*
X89996331Y-65094197D01*
X89896423Y-65206865D01*
X89687266Y-65987451D01*
X89377742Y-65451340D01*
X92429442Y-73861802D02*
X92340584Y-73803133D01*
X92245346Y-73638175D01*
X92238966Y-73531887D01*
X92297635Y-73443029D01*
X92338874Y-73419219D01*
X92445162Y-73412840D01*
X92534021Y-73471509D01*
X92605449Y-73595227D01*
X92694308Y-73653896D01*
X92800596Y-73647516D01*
X92841835Y-73623706D01*
X92900504Y-73534848D01*
X92894124Y-73428560D01*
X92822696Y-73304842D01*
X92733837Y-73246173D01*
X91959631Y-73143304D02*
X92536982Y-72809970D01*
X92825657Y-72643304D02*
X92808227Y-72708352D01*
X92743178Y-72690923D01*
X92760608Y-72625874D01*
X92825657Y-72643304D01*
X92743178Y-72690923D01*
X91507250Y-72359757D02*
X92373276Y-71859757D01*
X91548490Y-72335947D02*
X91554869Y-72442235D01*
X91650107Y-72607193D01*
X91738966Y-72665862D01*
X91804015Y-72683292D01*
X91910303Y-72676912D01*
X92157739Y-72534055D01*
X92216408Y-72445196D01*
X92233837Y-72380147D01*
X92227458Y-72273859D01*
X92132220Y-72108902D01*
X92043361Y-72050233D01*
X91119918Y-71593640D02*
X91126298Y-71699928D01*
X91221536Y-71864885D01*
X91310394Y-71923554D01*
X91416682Y-71917175D01*
X91746597Y-71726698D01*
X91805266Y-71637840D01*
X91798886Y-71531552D01*
X91703648Y-71366595D01*
X91614790Y-71307926D01*
X91508502Y-71314305D01*
X91426023Y-71361924D01*
X91581640Y-71821936D01*
X90769155Y-71081338D02*
X90858013Y-71140007D01*
X90964302Y-71133628D01*
X91706609Y-70705056D01*
X90429442Y-70397700D02*
X90435822Y-70503988D01*
X90531060Y-70668945D01*
X90619918Y-70727614D01*
X90726206Y-70721235D01*
X91056121Y-70530758D01*
X91114790Y-70441900D01*
X91108410Y-70335612D01*
X91013172Y-70170655D01*
X90924314Y-70111986D01*
X90818026Y-70118365D01*
X90735547Y-70165984D01*
X90891164Y-70625997D01*
X90727458Y-69675783D02*
X90150107Y-70009116D01*
X90644979Y-69723402D02*
X90662409Y-69658353D01*
X90656029Y-69552065D01*
X90584601Y-69428347D01*
X90495742Y-69369678D01*
X90389454Y-69376058D01*
X89935822Y-69637963D01*
X90060791Y-68521083D02*
X89359723Y-68925844D01*
X89301054Y-69014703D01*
X89283624Y-69079752D01*
X89290004Y-69186040D01*
X89361432Y-69309758D01*
X89450291Y-69368427D01*
X89524680Y-68830606D02*
X89531060Y-68936895D01*
X89626298Y-69101852D01*
X89715156Y-69160521D01*
X89780205Y-69177951D01*
X89886493Y-69171571D01*
X90133929Y-69028714D01*
X90192598Y-68939855D01*
X90210028Y-68874807D01*
X90203648Y-68768518D01*
X90108410Y-68603561D01*
X90019552Y-68544892D01*
X89894124Y-68232407D02*
X89703648Y-67902493D01*
X90111371Y-67942023D02*
X89369063Y-68370594D01*
X89262775Y-68376974D01*
X89173917Y-68318305D01*
X89126298Y-68235826D01*
X88959631Y-67947151D02*
X89825657Y-67447151D01*
X88745346Y-67575997D02*
X89198978Y-67314093D01*
X89305266Y-67307713D01*
X89394124Y-67366382D01*
X89465553Y-67490100D01*
X89471933Y-67596388D01*
X89454503Y-67661437D01*
X88960883Y-66901700D02*
X88579930Y-66241871D01*
X88332494Y-66384728D02*
X88713447Y-67044557D01*
X88695559Y-65680241D02*
X88712989Y-65615192D01*
X88706609Y-65508904D01*
X88587561Y-65302707D01*
X88498703Y-65244038D01*
X88433654Y-65226608D01*
X88327366Y-65232988D01*
X88244887Y-65280607D01*
X88144979Y-65393275D01*
X87935822Y-66173861D01*
X87626298Y-65637750D01*
X87150107Y-64812964D02*
X87435822Y-65307836D01*
X87292965Y-65060400D02*
X88158990Y-64560400D01*
X88082891Y-64714307D01*
X88048032Y-64844405D01*
X88054411Y-64950693D01*
X87018300Y-64394191D02*
X86953252Y-64376761D01*
X86935822Y-64441810D01*
X87000871Y-64459240D01*
X87018300Y-64394191D01*
X86935822Y-64441810D01*
X86673917Y-63988178D02*
X86578679Y-63823221D01*
X86572299Y-63716933D01*
X86589729Y-63651884D01*
X86665828Y-63497977D01*
X86806975Y-63361499D01*
X87136890Y-63171023D01*
X87243178Y-63164643D01*
X87308227Y-63182073D01*
X87397085Y-63240742D01*
X87492323Y-63405699D01*
X87498703Y-63511987D01*
X87481273Y-63577036D01*
X87422604Y-63665895D01*
X87216408Y-63784942D01*
X87110120Y-63791322D01*
X87045071Y-63773892D01*
X86956212Y-63715223D01*
X86860974Y-63550266D01*
X86854595Y-63443978D01*
X86872024Y-63378929D01*
X86930693Y-63290071D01*
X86644979Y-62795199D02*
X86733837Y-62853868D01*
X86798886Y-62871298D01*
X86905174Y-62864918D01*
X86946414Y-62841109D01*
X87005083Y-62752250D01*
X87022513Y-62687201D01*
X87016133Y-62580913D01*
X86920895Y-62415956D01*
X86832036Y-62357287D01*
X86766988Y-62339857D01*
X86660699Y-62346237D01*
X86619460Y-62370046D01*
X86560791Y-62458905D01*
X86543361Y-62523954D01*
X86549741Y-62630242D01*
X86644979Y-62795199D01*
X86651359Y-62901487D01*
X86633929Y-62966536D01*
X86575260Y-63055394D01*
X86410303Y-63150632D01*
X86304015Y-63157012D01*
X86238966Y-63139582D01*
X86150107Y-63080913D01*
X86054869Y-62915956D01*
X86048490Y-62809668D01*
X86065919Y-62744619D01*
X86124588Y-62655761D01*
X86289546Y-62560523D01*
X86395834Y-62554143D01*
X86460883Y-62571573D01*
X86549741Y-62630242D01*
X85364393Y-61720016D02*
X85941743Y-61386683D01*
X85859265Y-61434302D02*
X85876695Y-61369253D01*
X85870315Y-61262965D01*
X85798886Y-61139247D01*
X85710028Y-61080578D01*
X85603740Y-61086958D01*
X85150107Y-61348862D01*
X85603740Y-61086958D02*
X85662409Y-60998099D01*
X85656029Y-60891811D01*
X85584601Y-60768093D01*
X85495742Y-60709424D01*
X85389454Y-60715804D01*
X84935822Y-60977709D01*
X84697726Y-60565316D02*
X85275077Y-60231982D01*
X85192598Y-60279601D02*
X85210028Y-60214553D01*
X85203648Y-60108264D01*
X85132220Y-59984546D01*
X85043361Y-59925877D01*
X84937073Y-59932257D01*
X84483441Y-60194162D01*
X84937073Y-59932257D02*
X84995742Y-59843399D01*
X84989362Y-59737111D01*
X84917934Y-59613393D01*
X84829076Y-59554724D01*
X84722787Y-59561103D01*
X84269155Y-59823008D01*
X121895314Y-54532249D02*
X122307707Y-54294154D01*
X121807707Y-53428128D01*
X121344734Y-54245283D02*
X121056059Y-54411950D01*
X121194245Y-54937011D02*
X121606639Y-54698916D01*
X121106639Y-53832890D01*
X120694245Y-54070986D01*
X120823092Y-55151297D02*
X120323092Y-54285271D01*
X120116895Y-54404319D01*
X120016987Y-54516987D01*
X119982127Y-54647084D01*
X119988507Y-54753373D01*
X120042506Y-54942139D01*
X120113934Y-55065857D01*
X120250412Y-55207005D01*
X120339270Y-55265674D01*
X120469368Y-55300534D01*
X120616895Y-55270344D01*
X120823092Y-55151297D01*
X119503434Y-55913201D02*
X119998306Y-55627487D01*
X119750870Y-55770344D02*
X119250870Y-54904319D01*
X119404777Y-54980418D01*
X119534875Y-55015277D01*
X119641163Y-55008898D01*
X92485171Y-54246361D02*
X92378882Y-54239981D01*
X92255165Y-54168553D01*
X92155256Y-54055885D01*
X92120397Y-53925787D01*
X92126776Y-53819499D01*
X92180775Y-53630732D01*
X92252204Y-53507014D01*
X92388681Y-53365866D01*
X92477539Y-53307197D01*
X92607637Y-53272338D01*
X92755165Y-53302527D01*
X92837643Y-53350146D01*
X92937552Y-53462814D01*
X92954981Y-53527863D01*
X92788315Y-53816538D01*
X92623357Y-53721300D01*
X93373754Y-53659670D02*
X92873754Y-54525695D01*
X93868626Y-53945384D01*
X93368626Y-54811410D01*
X94281019Y-54183479D02*
X93781019Y-55049505D01*
X93987215Y-55168553D01*
X94134743Y-55198742D01*
X94264840Y-55163882D01*
X94353699Y-55105213D01*
X94490176Y-54964065D01*
X94561605Y-54840348D01*
X94615604Y-54651581D01*
X94621983Y-54545293D01*
X94587124Y-54415195D01*
X94487215Y-54302527D01*
X94281019Y-54183479D01*
X93807600Y-52051083D02*
X93307600Y-52917109D01*
X93545696Y-52504716D02*
X94040567Y-52790430D01*
X94302472Y-52336798D02*
X93802472Y-53202823D01*
X94091147Y-53369490D02*
X94879822Y-52670131D01*
X94668497Y-53702823D01*
X93865165Y-51379951D02*
X94030122Y-51475189D01*
X94136410Y-51481568D01*
X94266508Y-51446709D01*
X94402985Y-51305561D01*
X94569652Y-51016886D01*
X94623650Y-50828119D01*
X94588791Y-50698022D01*
X94530122Y-50609163D01*
X94365165Y-50513925D01*
X94258876Y-50507545D01*
X94128779Y-50542405D01*
X93992301Y-50683553D01*
X93825635Y-50972228D01*
X93771636Y-51160994D01*
X93806495Y-51291092D01*
X93865165Y-51379951D01*
X94607472Y-51808522D02*
X95012234Y-51107454D01*
X95101092Y-51048785D01*
X95166141Y-51031355D01*
X95272429Y-51037735D01*
X95437387Y-51132973D01*
X95496056Y-51221831D01*
X95513485Y-51286880D01*
X95507106Y-51393168D01*
X95102344Y-52094236D01*
X95391019Y-52260903D02*
X95885891Y-52546617D01*
X96138455Y-51537735D02*
X95638455Y-52403760D01*
X96495238Y-67671428D02*
X96447619Y-67528571D01*
X96447619Y-67290476D01*
X96495238Y-67195238D01*
X96542857Y-67147619D01*
X96638095Y-67100000D01*
X96733333Y-67100000D01*
X96828571Y-67147619D01*
X96876190Y-67195238D01*
X96923809Y-67290476D01*
X96971428Y-67480952D01*
X97019047Y-67576190D01*
X97066666Y-67623809D01*
X97161904Y-67671428D01*
X97257142Y-67671428D01*
X97352380Y-67623809D01*
X97400000Y-67576190D01*
X97447619Y-67480952D01*
X97447619Y-67242857D01*
X97400000Y-67100000D01*
X96447619Y-66671428D02*
X97114285Y-66671428D01*
X97447619Y-66671428D02*
X97400000Y-66719047D01*
X97352380Y-66671428D01*
X97400000Y-66623809D01*
X97447619Y-66671428D01*
X97352380Y-66671428D01*
X96447619Y-66195238D02*
X97447619Y-66195238D01*
X97447619Y-65814285D01*
X97400000Y-65719047D01*
X97352380Y-65671428D01*
X97257142Y-65623809D01*
X97114285Y-65623809D01*
X97019047Y-65671428D01*
X96971428Y-65719047D01*
X96923809Y-65814285D01*
X96923809Y-66195238D01*
X96447619Y-65195238D02*
X97447619Y-65195238D01*
X96733333Y-64861904D01*
X97447619Y-64528571D01*
X96447619Y-64528571D01*
X96447619Y-63528571D02*
X96447619Y-64100000D01*
X96447619Y-63814285D02*
X97447619Y-63814285D01*
X97304761Y-63909523D01*
X97209523Y-64004761D01*
X97161904Y-64100000D01*
X113607328Y-51088884D02*
X113665997Y-51000026D01*
X113789715Y-50928597D01*
X113937243Y-50898408D01*
X114067340Y-50933268D01*
X114156199Y-50991937D01*
X114292676Y-51133085D01*
X114364105Y-51256802D01*
X114418104Y-51445569D01*
X114424483Y-51551857D01*
X114389624Y-51681955D01*
X114289715Y-51794623D01*
X114207237Y-51842242D01*
X114059709Y-51872431D01*
X113994661Y-51855001D01*
X113827994Y-51566326D01*
X113992951Y-51471088D01*
X113671126Y-52151766D02*
X113171126Y-51285740D01*
X113176254Y-52437480D01*
X112676254Y-51571455D01*
X112763861Y-52675575D02*
X112263861Y-51809550D01*
X112057665Y-51928597D01*
X111957756Y-52041265D01*
X111922897Y-52171363D01*
X111929276Y-52277651D01*
X111983275Y-52466418D01*
X112054704Y-52590136D01*
X112191181Y-52731284D01*
X112280039Y-52789953D01*
X112410137Y-52824812D01*
X112557665Y-52794623D01*
X112763861Y-52675575D01*
X114847280Y-53331781D02*
X114347280Y-52465756D01*
X114585375Y-52878149D02*
X114090503Y-53163863D01*
X114352408Y-53617495D02*
X113852408Y-52751470D01*
X113563733Y-52918137D02*
X113775058Y-53950829D01*
X112986382Y-53251470D01*
X91226084Y-44319490D02*
X91720955Y-44605204D01*
X91973520Y-43596321D02*
X91473520Y-44462347D01*
X92815735Y-44137561D02*
X92757066Y-44048702D01*
X92592109Y-43953464D01*
X92485821Y-43947084D01*
X92396963Y-44005754D01*
X92206486Y-44335668D01*
X92200107Y-44441956D01*
X92258776Y-44530814D01*
X92423733Y-44626053D01*
X92530021Y-44632432D01*
X92618879Y-44573763D01*
X92666499Y-44491285D01*
X92301725Y-44170711D01*
X93251938Y-44334417D02*
X92918605Y-44911767D01*
X92966224Y-44829288D02*
X92983653Y-44894337D01*
X93042323Y-44983195D01*
X93166040Y-45054624D01*
X93272329Y-45061004D01*
X93361187Y-45002335D01*
X93623092Y-44548702D01*
X93361187Y-45002335D02*
X93354807Y-45108623D01*
X93413476Y-45197481D01*
X93537194Y-45268910D01*
X93643482Y-45275289D01*
X93732341Y-45216620D01*
X93994245Y-44762988D01*
X94073305Y-45578434D02*
X94573305Y-44712408D01*
X94097115Y-45537194D02*
X94155784Y-45626053D01*
X94320741Y-45721291D01*
X94427029Y-45727670D01*
X94492078Y-45710241D01*
X94580936Y-45651572D01*
X94723793Y-45404136D01*
X94730173Y-45297848D01*
X94712743Y-45232799D01*
X94654074Y-45143940D01*
X94489117Y-45048702D01*
X94382829Y-45042323D01*
X95643818Y-45715369D02*
X95148946Y-45429655D01*
X95396382Y-45572512D02*
X94896382Y-46438537D01*
X94885332Y-46267200D01*
X94850472Y-46137103D01*
X94791803Y-46048244D01*
%TO.C,REF\u002A\u002A*%
X105033333Y-57952380D02*
X105366666Y-57476190D01*
X105604761Y-57952380D02*
X105604761Y-56952380D01*
X105223809Y-56952380D01*
X105128571Y-57000000D01*
X105080952Y-57047619D01*
X105033333Y-57142857D01*
X105033333Y-57285714D01*
X105080952Y-57380952D01*
X105128571Y-57428571D01*
X105223809Y-57476190D01*
X105604761Y-57476190D01*
X104604761Y-57428571D02*
X104271428Y-57428571D01*
X104128571Y-57952380D02*
X104604761Y-57952380D01*
X104604761Y-56952380D01*
X104128571Y-56952380D01*
X103366666Y-57428571D02*
X103700000Y-57428571D01*
X103700000Y-57952380D02*
X103700000Y-56952380D01*
X103223809Y-56952380D01*
X102700000Y-56952380D02*
X102700000Y-57190476D01*
X102938095Y-57095238D02*
X102700000Y-57190476D01*
X102461904Y-57095238D01*
X102842857Y-57380952D02*
X102700000Y-57190476D01*
X102557142Y-57380952D01*
X101938095Y-56952380D02*
X101938095Y-57190476D01*
X102176190Y-57095238D02*
X101938095Y-57190476D01*
X101700000Y-57095238D01*
X102080952Y-57380952D02*
X101938095Y-57190476D01*
X101795238Y-57380952D01*
X87529387Y-47533990D02*
X87283660Y-47007220D01*
X87815101Y-47039119D02*
X86949075Y-46539119D01*
X86758599Y-46869033D01*
X86752220Y-46975321D01*
X86769649Y-47040370D01*
X86828318Y-47129229D01*
X86952036Y-47200657D01*
X87058324Y-47207037D01*
X87123373Y-47189607D01*
X87212232Y-47130938D01*
X87402708Y-46801024D01*
X86861468Y-47643239D02*
X86694802Y-47931915D01*
X87077006Y-48317537D02*
X87315101Y-47905144D01*
X86449075Y-47405144D01*
X86210980Y-47817537D01*
X86242421Y-48715461D02*
X86409088Y-48426786D01*
X86862720Y-48688691D02*
X85996694Y-48188691D01*
X85758599Y-48601084D01*
X85496694Y-49054716D02*
X85702891Y-49173764D01*
X85739460Y-48919948D02*
X85702891Y-49173764D01*
X85501365Y-49332341D01*
X85939277Y-49145284D02*
X85702891Y-49173764D01*
X85796420Y-49392720D01*
X85115742Y-49714545D02*
X85321939Y-49833593D01*
X85358508Y-49579777D02*
X85321939Y-49833593D01*
X85120412Y-49992170D01*
X85558324Y-49805113D02*
X85321939Y-49833593D01*
X85415467Y-50052549D01*
X104980833Y-75452380D02*
X105314166Y-74976190D01*
X105552261Y-75452380D02*
X105552261Y-74452380D01*
X105171309Y-74452380D01*
X105076071Y-74500000D01*
X105028452Y-74547619D01*
X104980833Y-74642857D01*
X104980833Y-74785714D01*
X105028452Y-74880952D01*
X105076071Y-74928571D01*
X105171309Y-74976190D01*
X105552261Y-74976190D01*
X104552261Y-74928571D02*
X104218928Y-74928571D01*
X104076071Y-75452380D02*
X104552261Y-75452380D01*
X104552261Y-74452380D01*
X104076071Y-74452380D01*
X103314166Y-74928571D02*
X103647500Y-74928571D01*
X103647500Y-75452380D02*
X103647500Y-74452380D01*
X103171309Y-74452380D01*
X102647500Y-74452380D02*
X102647500Y-74690476D01*
X102885595Y-74595238D02*
X102647500Y-74690476D01*
X102409404Y-74595238D01*
X102790357Y-74880952D02*
X102647500Y-74690476D01*
X102504642Y-74880952D01*
X101885595Y-74452380D02*
X101885595Y-74690476D01*
X102123690Y-74595238D02*
X101885595Y-74690476D01*
X101647500Y-74595238D01*
X102028452Y-74880952D02*
X101885595Y-74690476D01*
X101742738Y-74880952D01*
X112052261Y-75357142D02*
X112099880Y-75404761D01*
X112242738Y-75452380D01*
X112337976Y-75452380D01*
X112480833Y-75404761D01*
X112576071Y-75309523D01*
X112623690Y-75214285D01*
X112671309Y-75023809D01*
X112671309Y-74880952D01*
X112623690Y-74690476D01*
X112576071Y-74595238D01*
X112480833Y-74500000D01*
X112337976Y-74452380D01*
X112242738Y-74452380D01*
X112099880Y-74500000D01*
X112052261Y-74547619D01*
X111433214Y-74452380D02*
X111242738Y-74452380D01*
X111147500Y-74500000D01*
X111052261Y-74595238D01*
X111004642Y-74785714D01*
X111004642Y-75119047D01*
X111052261Y-75309523D01*
X111147500Y-75404761D01*
X111242738Y-75452380D01*
X111433214Y-75452380D01*
X111528452Y-75404761D01*
X111623690Y-75309523D01*
X111671309Y-75119047D01*
X111671309Y-74785714D01*
X111623690Y-74595238D01*
X111528452Y-74500000D01*
X111433214Y-74452380D01*
X110576071Y-75452380D02*
X110576071Y-74452380D01*
X110004642Y-75452380D01*
X110004642Y-74452380D01*
X109528452Y-75452380D02*
X109528452Y-74452380D01*
X108957023Y-75452380D01*
X108957023Y-74452380D01*
X108718928Y-75547619D02*
X107957023Y-75547619D01*
X107814166Y-74452380D02*
X107195119Y-74452380D01*
X107528452Y-74833333D01*
X107385595Y-74833333D01*
X107290357Y-74880952D01*
X107242738Y-74928571D01*
X107195119Y-75023809D01*
X107195119Y-75261904D01*
X107242738Y-75357142D01*
X107290357Y-75404761D01*
X107385595Y-75452380D01*
X107671309Y-75452380D01*
X107766547Y-75404761D01*
X107814166Y-75357142D01*
X106766547Y-75071428D02*
X106004642Y-75071428D01*
X105004642Y-75452380D02*
X105576071Y-75452380D01*
X105290357Y-75452380D02*
X105290357Y-74452380D01*
X105385595Y-74595238D01*
X105480833Y-74690476D01*
X105576071Y-74738095D01*
X104385595Y-74452380D02*
X104290357Y-74452380D01*
X104195119Y-74500000D01*
X104147500Y-74547619D01*
X104099880Y-74642857D01*
X104052261Y-74833333D01*
X104052261Y-75071428D01*
X104099880Y-75261904D01*
X104147500Y-75357142D01*
X104195119Y-75404761D01*
X104290357Y-75452380D01*
X104385595Y-75452380D01*
X104480833Y-75404761D01*
X104528452Y-75357142D01*
X104576071Y-75261904D01*
X104623690Y-75071428D01*
X104623690Y-74833333D01*
X104576071Y-74642857D01*
X104528452Y-74547619D01*
X104480833Y-74500000D01*
X104385595Y-74452380D01*
X103671309Y-74547619D02*
X103623690Y-74500000D01*
X103528452Y-74452380D01*
X103290357Y-74452380D01*
X103195119Y-74500000D01*
X103147500Y-74547619D01*
X103099880Y-74642857D01*
X103099880Y-74738095D01*
X103147500Y-74880952D01*
X103718928Y-75452380D01*
X103099880Y-75452380D01*
X102718928Y-74547619D02*
X102671309Y-74500000D01*
X102576071Y-74452380D01*
X102337976Y-74452380D01*
X102242738Y-74500000D01*
X102195119Y-74547619D01*
X102147500Y-74642857D01*
X102147500Y-74738095D01*
X102195119Y-74880952D01*
X102766547Y-75452380D01*
X102147500Y-75452380D01*
X101528452Y-74452380D02*
X101433214Y-74452380D01*
X101337976Y-74500000D01*
X101290357Y-74547619D01*
X101242738Y-74642857D01*
X101195119Y-74833333D01*
X101195119Y-75071428D01*
X101242738Y-75261904D01*
X101290357Y-75357142D01*
X101337976Y-75404761D01*
X101433214Y-75452380D01*
X101528452Y-75452380D01*
X101623690Y-75404761D01*
X101671309Y-75357142D01*
X101718928Y-75261904D01*
X101766547Y-75071428D01*
X101766547Y-74833333D01*
X101718928Y-74642857D01*
X101671309Y-74547619D01*
X101623690Y-74500000D01*
X101528452Y-74452380D01*
X100861785Y-74452380D02*
X100242738Y-74452380D01*
X100576071Y-74833333D01*
X100433214Y-74833333D01*
X100337976Y-74880952D01*
X100290357Y-74928571D01*
X100242738Y-75023809D01*
X100242738Y-75261904D01*
X100290357Y-75357142D01*
X100337976Y-75404761D01*
X100433214Y-75452380D01*
X100718928Y-75452380D01*
X100814166Y-75404761D01*
X100861785Y-75357142D01*
X99814166Y-75071428D02*
X99052261Y-75071428D01*
X98147500Y-74785714D02*
X98147500Y-75452380D01*
X98385595Y-74404761D02*
X98623690Y-75119047D01*
X98004642Y-75119047D01*
X97861785Y-75547619D02*
X97099880Y-75547619D01*
X97004642Y-74452380D02*
X96433214Y-74452380D01*
X96718928Y-75452380D02*
X96718928Y-74452380D01*
X96099880Y-74928571D02*
X95766547Y-74928571D01*
X95623690Y-75452380D02*
X96099880Y-75452380D01*
X96099880Y-74452380D01*
X95623690Y-74452380D01*
X94623690Y-75357142D02*
X94671309Y-75404761D01*
X94814166Y-75452380D01*
X94909404Y-75452380D01*
X95052261Y-75404761D01*
X95147500Y-75309523D01*
X95195119Y-75214285D01*
X95242738Y-75023809D01*
X95242738Y-74880952D01*
X95195119Y-74690476D01*
X95147500Y-74595238D01*
X95052261Y-74500000D01*
X94909404Y-74452380D01*
X94814166Y-74452380D01*
X94671309Y-74500000D01*
X94623690Y-74547619D01*
X106187500Y-74452380D02*
X106187500Y-74690476D01*
X106425595Y-74595238D02*
X106187500Y-74690476D01*
X105949404Y-74595238D01*
X106330357Y-74880952D02*
X106187500Y-74690476D01*
X106044642Y-74880952D01*
X117682274Y-59361489D02*
X117436547Y-58834719D01*
X117967988Y-58866618D02*
X117101962Y-58366618D01*
X116911486Y-58696532D01*
X116905107Y-58802820D01*
X116922536Y-58867869D01*
X116981205Y-58956728D01*
X117104923Y-59028156D01*
X117211211Y-59034536D01*
X117276260Y-59017106D01*
X117365119Y-58958437D01*
X117555595Y-58628523D01*
X117014355Y-59470738D02*
X116847689Y-59759414D01*
X117229893Y-60145036D02*
X117467988Y-59732643D01*
X116601962Y-59232643D01*
X116363867Y-59645036D01*
X116395308Y-60542960D02*
X116561975Y-60254285D01*
X117015607Y-60516190D02*
X116149581Y-60016190D01*
X115911486Y-60428583D01*
X115649581Y-60882215D02*
X115855778Y-61001263D01*
X115892347Y-60747447D02*
X115855778Y-61001263D01*
X115654252Y-61159840D01*
X116092164Y-60972783D02*
X115855778Y-61001263D01*
X115949307Y-61220219D01*
X115268629Y-61542044D02*
X115474826Y-61661092D01*
X115511395Y-61407276D02*
X115474826Y-61661092D01*
X115273299Y-61819669D01*
X115711211Y-61632612D02*
X115474826Y-61661092D01*
X115568354Y-61880048D01*
X112466582Y-64921489D02*
X112220855Y-64394719D01*
X112752296Y-64426618D02*
X111886270Y-63926618D01*
X111695794Y-64256532D01*
X111689415Y-64362820D01*
X111706844Y-64427869D01*
X111765513Y-64516728D01*
X111889231Y-64588156D01*
X111995519Y-64594536D01*
X112060568Y-64577106D01*
X112149427Y-64518437D01*
X112339903Y-64188523D01*
X111798663Y-65030738D02*
X111631997Y-65319414D01*
X112014201Y-65705036D02*
X112252296Y-65292643D01*
X111386270Y-64792643D01*
X111148175Y-65205036D01*
X111179616Y-66102960D02*
X111346283Y-65814285D01*
X111799915Y-66076190D02*
X110933889Y-65576190D01*
X110695794Y-65988583D01*
X110433889Y-66442215D02*
X110640086Y-66561263D01*
X110676655Y-66307447D02*
X110640086Y-66561263D01*
X110438560Y-66719840D01*
X110876472Y-66532783D02*
X110640086Y-66561263D01*
X110733615Y-66780219D01*
X110052937Y-67102044D02*
X110259134Y-67221092D01*
X110295703Y-66967276D02*
X110259134Y-67221092D01*
X110057607Y-67379669D01*
X110495519Y-67192612D02*
X110259134Y-67221092D01*
X110352662Y-67440048D01*
X120674496Y-46981608D02*
X120095437Y-46931029D01*
X120388782Y-46486737D02*
X119522757Y-46986737D01*
X119713233Y-47316651D01*
X119802091Y-47375320D01*
X119867140Y-47392750D01*
X119973428Y-47386370D01*
X120097146Y-47314942D01*
X120155815Y-47226083D01*
X120173245Y-47161035D01*
X120166865Y-47054747D01*
X119976389Y-46724832D01*
X120435150Y-47614667D02*
X120601816Y-47903342D01*
X121126877Y-47765155D02*
X120888782Y-47352762D01*
X120022757Y-47852762D01*
X120260852Y-48265155D01*
X121054197Y-48686889D02*
X120887531Y-48398214D01*
X121341163Y-48136309D02*
X120475137Y-48636309D01*
X120713233Y-49048702D01*
X120975137Y-49502334D02*
X121181334Y-49383287D01*
X120979808Y-49224709D02*
X121181334Y-49383287D01*
X121217903Y-49637102D01*
X121274863Y-49164331D02*
X121181334Y-49383287D01*
X121417720Y-49411767D01*
X121356090Y-50162163D02*
X121562286Y-50043116D01*
X121360760Y-49884538D02*
X121562286Y-50043116D01*
X121598855Y-50296931D01*
X121655815Y-49824160D02*
X121562286Y-50043116D01*
X121798672Y-50071596D01*
D11*
X89213767Y-45311796D02*
X89838767Y-44229265D01*
X89948575Y-44639072D02*
X90598094Y-45014072D01*
X86548575Y-50528045D02*
X88298575Y-47496956D01*
X87198094Y-50903045D02*
X86548575Y-50528045D01*
X84884915Y-53389589D02*
X89944915Y-44625412D01*
X85548094Y-53760929D02*
X84898575Y-53385929D01*
X88948094Y-47871956D02*
X87198094Y-50903045D01*
X94076907Y-47888591D02*
X91926907Y-51612501D01*
X87222132Y-53861410D02*
X89776907Y-55336410D01*
X88298575Y-47496956D02*
X88948094Y-47871956D01*
X86448094Y-52202083D02*
X85548094Y-53760929D01*
X84898575Y-53385929D02*
X85798575Y-51827083D01*
X91522132Y-46413591D02*
X94076907Y-47888591D01*
X85798575Y-51827083D02*
X86448094Y-52202083D01*
X86847132Y-54510929D02*
X87222132Y-53861410D01*
X90598094Y-45014072D02*
X89698094Y-46572918D01*
X95115086Y-47610412D02*
X90055086Y-56374589D01*
X89838767Y-44229265D02*
X90921299Y-44854265D01*
X89698094Y-46572918D02*
X89048575Y-46197918D01*
X89776907Y-55336410D02*
X91926907Y-51612501D01*
X91897132Y-45764072D02*
X91522132Y-46413591D01*
X90055086Y-56374589D02*
X84884915Y-53389589D01*
X89944915Y-44625412D02*
X95115086Y-47610412D01*
X89048575Y-46197918D02*
X89948575Y-44639072D01*
X105552500Y-61258600D02*
X106187500Y-62528600D01*
X98186500Y-76854200D02*
X98186500Y-62655600D01*
X106187500Y-62528600D02*
X106822500Y-61258600D01*
X109108500Y-76854200D02*
X98186500Y-76854200D01*
X109108500Y-62655600D02*
X109108500Y-76854200D01*
X98186500Y-62655600D02*
X109108500Y-62655600D01*
X106822500Y-61258600D02*
X105552500Y-61258600D01*
X119351615Y-61025344D02*
X118624551Y-62284656D01*
X117775449Y-60115344D02*
X117048385Y-61374656D01*
X114933421Y-67064038D02*
X114222169Y-68295962D01*
X112577831Y-65704038D02*
X111866579Y-66935962D01*
X120347243Y-51019551D02*
X120996762Y-50644551D01*
X116523205Y-47396123D02*
X113968430Y-48871123D01*
X119948205Y-53328397D02*
X119573205Y-52678878D01*
X112930251Y-48592943D02*
X118100422Y-45607943D01*
X119597243Y-49720513D02*
X119097243Y-48854488D01*
X121247243Y-52578397D02*
X120347243Y-51019551D01*
X119573205Y-52678878D02*
X117018430Y-54153878D01*
X117447243Y-45996604D02*
X118096762Y-45621604D01*
X122306570Y-52313204D02*
X121224038Y-52938204D01*
X117018430Y-54153878D02*
X115493430Y-51512500D01*
X120246762Y-49345513D02*
X119597243Y-49720513D01*
X118096762Y-45621604D02*
X118996762Y-47180449D01*
X121896762Y-52203397D02*
X121247243Y-52578397D01*
X120996762Y-50644551D02*
X121896762Y-52203397D01*
X121681570Y-51230673D02*
X122306570Y-52313204D01*
X118996762Y-47180449D02*
X118347243Y-47555449D01*
X118347243Y-47555449D02*
X117447243Y-45996604D01*
X121910422Y-52207057D02*
X116740251Y-55192057D01*
X119097243Y-48854488D02*
X119746762Y-48479488D01*
X119746762Y-48479488D02*
X120246762Y-49345513D01*
X118100422Y-45607943D02*
X121910422Y-52207057D01*
X116148205Y-46746604D02*
X116523205Y-47396123D01*
X116740251Y-55192057D02*
X112930251Y-48592943D01*
X113968430Y-48871123D02*
X115493430Y-51512500D01*
%TO.C,G\u002A\u002A\u002A*%
G36*
X104528533Y-41644187D02*
G01*
X104567661Y-41644416D01*
X104595822Y-41645034D01*
X104614898Y-41646235D01*
X104626776Y-41648212D01*
X104633340Y-41651158D01*
X104636476Y-41655267D01*
X104638067Y-41660734D01*
X104638433Y-41662644D01*
X104640900Y-41677346D01*
X104645403Y-41705203D01*
X104651782Y-41745190D01*
X104659876Y-41796283D01*
X104669523Y-41857456D01*
X104680562Y-41927686D01*
X104692832Y-42005947D01*
X104706172Y-42091215D01*
X104720421Y-42182464D01*
X104735418Y-42278670D01*
X104751000Y-42378809D01*
X104757426Y-42420089D01*
X104772735Y-42518077D01*
X104787391Y-42611367D01*
X104801234Y-42698973D01*
X104814104Y-42779908D01*
X104825843Y-42853185D01*
X104836292Y-42917817D01*
X104845290Y-42972817D01*
X104852680Y-43017200D01*
X104858301Y-43049977D01*
X104861995Y-43070163D01*
X104863603Y-43076770D01*
X104864117Y-43074804D01*
X104866772Y-43060427D01*
X104871449Y-43032962D01*
X104877988Y-42993403D01*
X104886230Y-42942740D01*
X104896018Y-42881966D01*
X104907191Y-42812073D01*
X104919592Y-42734053D01*
X104933061Y-42648897D01*
X104947440Y-42557598D01*
X104962569Y-42461148D01*
X104978291Y-42360538D01*
X105089445Y-41647838D01*
X105256849Y-41645858D01*
X105310375Y-41645393D01*
X105354884Y-41645466D01*
X105387209Y-41646186D01*
X105408668Y-41647606D01*
X105420576Y-41649781D01*
X105424253Y-41652766D01*
X105423937Y-41654964D01*
X105421331Y-41669842D01*
X105416222Y-41697949D01*
X105408770Y-41738440D01*
X105399131Y-41790470D01*
X105387463Y-41853195D01*
X105373925Y-41925769D01*
X105358673Y-42007349D01*
X105341867Y-42097090D01*
X105323664Y-42194147D01*
X105304221Y-42297675D01*
X105283697Y-42406829D01*
X105262249Y-42520765D01*
X105240035Y-42638639D01*
X105229110Y-42696587D01*
X105207259Y-42812551D01*
X105186250Y-42924121D01*
X105166240Y-43030457D01*
X105147388Y-43130717D01*
X105129851Y-43224063D01*
X105113787Y-43309651D01*
X105099353Y-43386643D01*
X105086707Y-43454198D01*
X105076007Y-43511474D01*
X105067410Y-43557631D01*
X105061075Y-43591829D01*
X105057158Y-43613226D01*
X105055817Y-43620982D01*
X105051163Y-43622178D01*
X105033638Y-43623524D01*
X105004946Y-43624670D01*
X104967060Y-43625560D01*
X104921953Y-43626137D01*
X104871599Y-43626341D01*
X104830491Y-43626206D01*
X104784233Y-43625698D01*
X104744819Y-43624866D01*
X104714224Y-43623767D01*
X104694420Y-43622459D01*
X104687381Y-43620999D01*
X104687059Y-43618977D01*
X104684443Y-43604469D01*
X104679326Y-43576730D01*
X104671868Y-43536600D01*
X104662226Y-43484921D01*
X104650557Y-43422533D01*
X104637018Y-43350276D01*
X104621769Y-43268992D01*
X104604965Y-43179521D01*
X104586766Y-43082703D01*
X104567328Y-42979381D01*
X104546810Y-42870393D01*
X104525369Y-42756581D01*
X104503163Y-42638786D01*
X104492366Y-42581517D01*
X104470500Y-42465444D01*
X104449477Y-42353715D01*
X104429454Y-42247176D01*
X104410588Y-42146671D01*
X104393038Y-42053044D01*
X104376962Y-41967141D01*
X104362516Y-41889807D01*
X104349860Y-41821885D01*
X104339152Y-41764221D01*
X104330548Y-41717659D01*
X104324207Y-41683044D01*
X104320286Y-41661221D01*
X104318944Y-41653034D01*
X104320593Y-41650900D01*
X104330078Y-41648277D01*
X104349127Y-41646364D01*
X104379031Y-41645088D01*
X104421082Y-41644375D01*
X104476573Y-41644154D01*
X104528533Y-41644187D01*
G37*
G36*
X107942516Y-43850293D02*
G01*
X107944459Y-43850809D01*
X107958720Y-43854477D01*
X107985979Y-43861441D01*
X108025348Y-43871475D01*
X108075941Y-43884355D01*
X108136871Y-43899855D01*
X108207251Y-43917750D01*
X108286194Y-43937815D01*
X108372814Y-43959826D01*
X108466224Y-43983556D01*
X108565537Y-44008781D01*
X108669866Y-44035276D01*
X108778324Y-44062816D01*
X108890025Y-44091176D01*
X109004082Y-44120130D01*
X109119609Y-44149454D01*
X109235717Y-44178923D01*
X109351521Y-44208310D01*
X109466133Y-44237393D01*
X109578668Y-44265944D01*
X109688237Y-44293740D01*
X109793955Y-44320554D01*
X109894935Y-44346163D01*
X109990289Y-44370341D01*
X110079131Y-44392863D01*
X110160574Y-44413503D01*
X110233732Y-44432037D01*
X110297717Y-44448240D01*
X110351643Y-44461887D01*
X110394623Y-44472752D01*
X110425771Y-44480610D01*
X110444198Y-44485237D01*
X110493937Y-44497643D01*
X110493937Y-44820971D01*
X110493875Y-44868372D01*
X110493581Y-44932642D01*
X110493070Y-44991109D01*
X110492369Y-45042286D01*
X110491503Y-45084683D01*
X110490499Y-45116810D01*
X110489384Y-45137179D01*
X110488185Y-45144299D01*
X110484646Y-45142796D01*
X110468798Y-45135543D01*
X110440965Y-45122618D01*
X110401938Y-45104394D01*
X110352505Y-45081243D01*
X110293455Y-45053537D01*
X110225578Y-45021650D01*
X110149661Y-44985953D01*
X110066494Y-44946818D01*
X109976866Y-44904619D01*
X109881566Y-44859728D01*
X109781383Y-44812517D01*
X109677106Y-44763358D01*
X109569524Y-44712625D01*
X109459425Y-44660689D01*
X109347600Y-44607924D01*
X109234836Y-44554700D01*
X109121923Y-44501392D01*
X109009650Y-44448371D01*
X108898806Y-44396011D01*
X108790179Y-44344682D01*
X108684559Y-44294758D01*
X108582735Y-44246612D01*
X108485495Y-44200615D01*
X108393629Y-44157140D01*
X108307926Y-44116560D01*
X108229174Y-44079247D01*
X108158163Y-44045573D01*
X108095682Y-44015912D01*
X108042519Y-43990634D01*
X107999463Y-43970114D01*
X107967304Y-43954723D01*
X107946830Y-43944834D01*
X107938831Y-43940819D01*
X107935574Y-43936614D01*
X107931192Y-43918885D01*
X107929620Y-43890684D01*
X107929851Y-43872059D01*
X107931431Y-43856149D01*
X107935335Y-43849886D01*
X107942516Y-43850293D01*
G37*
G36*
X100317726Y-43626341D02*
G01*
X99986133Y-43626341D01*
X99986133Y-41644154D01*
X100317726Y-41644154D01*
X100317726Y-43626341D01*
G37*
G36*
X102579925Y-43626341D02*
G01*
X102579925Y-42837888D01*
X102419015Y-42837888D01*
X102404070Y-42883942D01*
X102403881Y-42884525D01*
X102398036Y-42902691D01*
X102388362Y-42932918D01*
X102375460Y-42973320D01*
X102359931Y-43022011D01*
X102342378Y-43077105D01*
X102323401Y-43136715D01*
X102303601Y-43198955D01*
X102284224Y-43259833D01*
X102264117Y-43322874D01*
X102244979Y-43382756D01*
X102227507Y-43437299D01*
X102212400Y-43484327D01*
X102200355Y-43521662D01*
X102192068Y-43547128D01*
X102166058Y-43626341D01*
X101828895Y-43626341D01*
X101968776Y-43212346D01*
X101992420Y-43142199D01*
X102016204Y-43071277D01*
X102038083Y-43005662D01*
X102057652Y-42946589D01*
X102074506Y-42895295D01*
X102088238Y-42853013D01*
X102098443Y-42820979D01*
X102104715Y-42800427D01*
X102106649Y-42792594D01*
X102106139Y-42791768D01*
X102097174Y-42783792D01*
X102079660Y-42770710D01*
X102056745Y-42754902D01*
X102039082Y-42742164D01*
X101991387Y-42697246D01*
X101951754Y-42643904D01*
X101923521Y-42586360D01*
X101922551Y-42583711D01*
X101918253Y-42571307D01*
X101914763Y-42558994D01*
X101911980Y-42545122D01*
X101909801Y-42528046D01*
X101908125Y-42506117D01*
X101906851Y-42477689D01*
X101905876Y-42441113D01*
X101905099Y-42394742D01*
X101904417Y-42336929D01*
X101903729Y-42266027D01*
X101903548Y-42244705D01*
X102229910Y-42244705D01*
X102229912Y-42253046D01*
X102230078Y-42308692D01*
X102230604Y-42351972D01*
X102231623Y-42384982D01*
X102233268Y-42409815D01*
X102235672Y-42428569D01*
X102238966Y-42443336D01*
X102243284Y-42456213D01*
X102245407Y-42461389D01*
X102267753Y-42497337D01*
X102298756Y-42525607D01*
X102334713Y-42542696D01*
X102339050Y-42543663D01*
X102360562Y-42546327D01*
X102392112Y-42548482D01*
X102430178Y-42549929D01*
X102471236Y-42550466D01*
X102579925Y-42550507D01*
X102579925Y-41938903D01*
X102471236Y-41938944D01*
X102463501Y-41938956D01*
X102412021Y-41939708D01*
X102372388Y-41941995D01*
X102342075Y-41946315D01*
X102318552Y-41953171D01*
X102299293Y-41963063D01*
X102281768Y-41976492D01*
X102275973Y-41981723D01*
X102262186Y-41996188D01*
X102251426Y-42012124D01*
X102243326Y-42031426D01*
X102237520Y-42055986D01*
X102233641Y-42087700D01*
X102231324Y-42128462D01*
X102230203Y-42180166D01*
X102229910Y-42244705D01*
X101903548Y-42244705D01*
X101903327Y-42218763D01*
X101902982Y-42147018D01*
X101903238Y-42087400D01*
X101904272Y-42038250D01*
X101906260Y-41997912D01*
X101909378Y-41964729D01*
X101913801Y-41937043D01*
X101919705Y-41913197D01*
X101927266Y-41891534D01*
X101936660Y-41870396D01*
X101948062Y-41848128D01*
X101964489Y-41820658D01*
X102008195Y-41768394D01*
X102063345Y-41725292D01*
X102129816Y-41691423D01*
X102207484Y-41666855D01*
X102296229Y-41651657D01*
X102316165Y-41650112D01*
X102350413Y-41648521D01*
X102395261Y-41647109D01*
X102448526Y-41645925D01*
X102508030Y-41645016D01*
X102571592Y-41644430D01*
X102637033Y-41644214D01*
X102911518Y-41644154D01*
X102911518Y-43626341D01*
X102579925Y-43626341D01*
G37*
G36*
X111328445Y-44465937D02*
G01*
X111322802Y-44464775D01*
X111301842Y-44460452D01*
X111267493Y-44453367D01*
X111220427Y-44443656D01*
X111161312Y-44431459D01*
X111090818Y-44416914D01*
X111009616Y-44400159D01*
X110918375Y-44381331D01*
X110817765Y-44360570D01*
X110708456Y-44338013D01*
X110591118Y-44313799D01*
X110466419Y-44288066D01*
X110335032Y-44260952D01*
X110197624Y-44232596D01*
X110054866Y-44203135D01*
X109907428Y-44172707D01*
X109755980Y-44141452D01*
X109601191Y-44109508D01*
X109503556Y-44089359D01*
X109351975Y-44058085D01*
X109204607Y-44027688D01*
X109062092Y-43998299D01*
X108925066Y-43970049D01*
X108794171Y-43943071D01*
X108670043Y-43917496D01*
X108553323Y-43893455D01*
X108444648Y-43871079D01*
X108344657Y-43850501D01*
X108253990Y-43831851D01*
X108173284Y-43815261D01*
X108103179Y-43800863D01*
X108044313Y-43788788D01*
X107997325Y-43779167D01*
X107962854Y-43772133D01*
X107941538Y-43767815D01*
X107934017Y-43766347D01*
X107933871Y-43765555D01*
X107933436Y-43753613D01*
X107933013Y-43727867D01*
X107932606Y-43689017D01*
X107932215Y-43637767D01*
X107931843Y-43574818D01*
X107931493Y-43500872D01*
X107931166Y-43416631D01*
X107930864Y-43322797D01*
X107930590Y-43220073D01*
X107930345Y-43109159D01*
X107930133Y-42990759D01*
X107929954Y-42865574D01*
X107929811Y-42734306D01*
X107929707Y-42597657D01*
X107929642Y-42456329D01*
X107929634Y-42403133D01*
X108510309Y-42403133D01*
X108834691Y-42403133D01*
X108837561Y-42213388D01*
X108837646Y-42207896D01*
X108839063Y-42139357D01*
X108840947Y-42084982D01*
X108843329Y-42044240D01*
X108846239Y-42016602D01*
X108849707Y-42001537D01*
X108857219Y-41986405D01*
X108884435Y-41953136D01*
X108921383Y-41928880D01*
X108966165Y-41914358D01*
X109016879Y-41910289D01*
X109071625Y-41917395D01*
X109110532Y-41932269D01*
X109144618Y-41958522D01*
X109168207Y-41993313D01*
X109170590Y-41999076D01*
X109172751Y-42006055D01*
X109174621Y-42015031D01*
X109176221Y-42026984D01*
X109177571Y-42042895D01*
X109178692Y-42063742D01*
X109179607Y-42090507D01*
X109180335Y-42124169D01*
X109180897Y-42165708D01*
X109181316Y-42216105D01*
X109181611Y-42276338D01*
X109181804Y-42347390D01*
X109181916Y-42430238D01*
X109181968Y-42525864D01*
X109181980Y-42635248D01*
X109181969Y-42741103D01*
X109181919Y-42837186D01*
X109181809Y-42920458D01*
X109181619Y-42991898D01*
X109181328Y-43052488D01*
X109180914Y-43103207D01*
X109180357Y-43145034D01*
X109179635Y-43178951D01*
X109178727Y-43205937D01*
X109177613Y-43226971D01*
X109176271Y-43243035D01*
X109174681Y-43255108D01*
X109172820Y-43264170D01*
X109170669Y-43271202D01*
X109168207Y-43277182D01*
X109146478Y-43309971D01*
X109112982Y-43336840D01*
X109071625Y-43353101D01*
X109018459Y-43360404D01*
X108967556Y-43356964D01*
X108923177Y-43342851D01*
X108886816Y-43318783D01*
X108859971Y-43285480D01*
X108844137Y-43243663D01*
X108843012Y-43236905D01*
X108840674Y-43211784D01*
X108838728Y-43174901D01*
X108837247Y-43128325D01*
X108836304Y-43074127D01*
X108835974Y-43014374D01*
X108835974Y-42823150D01*
X108510418Y-42823150D01*
X108513710Y-43071845D01*
X108514273Y-43111652D01*
X108515410Y-43176257D01*
X108516719Y-43228534D01*
X108518279Y-43270057D01*
X108520173Y-43302401D01*
X108522484Y-43327140D01*
X108525291Y-43345849D01*
X108528678Y-43360102D01*
X108542074Y-43399509D01*
X108573025Y-43462256D01*
X108613414Y-43514766D01*
X108664160Y-43557914D01*
X108726180Y-43592578D01*
X108800393Y-43619635D01*
X108816371Y-43623980D01*
X108839558Y-43628876D01*
X108865621Y-43632424D01*
X108897525Y-43634906D01*
X108938235Y-43636605D01*
X108990717Y-43637804D01*
X109030226Y-43638225D01*
X109074171Y-43638056D01*
X109112776Y-43637243D01*
X109142911Y-43635857D01*
X109161444Y-43633967D01*
X109188923Y-43628450D01*
X109268660Y-43605087D01*
X109336739Y-43572802D01*
X109393308Y-43531468D01*
X109438515Y-43480962D01*
X109472507Y-43421158D01*
X109495434Y-43351932D01*
X109496303Y-43347026D01*
X109498343Y-43325012D01*
X109500184Y-43290166D01*
X109501824Y-43243800D01*
X109503265Y-43187229D01*
X109504507Y-43121763D01*
X109505549Y-43048717D01*
X109506391Y-42969402D01*
X109507035Y-42885132D01*
X109507481Y-42797220D01*
X109507727Y-42706977D01*
X109507775Y-42615718D01*
X109507625Y-42524754D01*
X109507276Y-42435398D01*
X109506730Y-42348964D01*
X109505985Y-42266764D01*
X109505043Y-42190111D01*
X109503904Y-42120317D01*
X109502567Y-42058695D01*
X109501033Y-42006559D01*
X109499302Y-41965220D01*
X109497375Y-41935992D01*
X109495250Y-41920187D01*
X109482405Y-41878780D01*
X109451682Y-41814892D01*
X109409883Y-41760353D01*
X109356725Y-41714889D01*
X109291927Y-41678229D01*
X109219088Y-41651523D01*
X109822906Y-41651523D01*
X109825093Y-42489715D01*
X109825211Y-42534773D01*
X109825434Y-42615718D01*
X109825554Y-42659381D01*
X109825894Y-42770368D01*
X109826246Y-42868568D01*
X109826625Y-42954817D01*
X109827046Y-43029949D01*
X109827523Y-43094800D01*
X109828072Y-43150205D01*
X109828707Y-43196999D01*
X109829443Y-43236016D01*
X109830296Y-43268093D01*
X109831280Y-43294064D01*
X109832410Y-43314764D01*
X109833701Y-43331029D01*
X109835167Y-43343694D01*
X109836825Y-43353593D01*
X109838688Y-43361562D01*
X109840771Y-43368436D01*
X109865004Y-43428500D01*
X109900975Y-43488217D01*
X109945975Y-43537195D01*
X110000881Y-43576181D01*
X110066571Y-43605925D01*
X110143923Y-43627177D01*
X110147544Y-43627906D01*
X110199356Y-43635322D01*
X110260397Y-43639676D01*
X110325937Y-43640978D01*
X110391244Y-43639233D01*
X110451589Y-43634448D01*
X110502241Y-43626632D01*
X110572519Y-43606890D01*
X110640446Y-43575493D01*
X110697515Y-43534143D01*
X110743768Y-43482804D01*
X110779244Y-43421440D01*
X110803982Y-43350014D01*
X110804550Y-43347360D01*
X110806040Y-43335755D01*
X110807395Y-43317450D01*
X110808626Y-43291776D01*
X110809740Y-43258062D01*
X110810747Y-43215639D01*
X110811658Y-43163837D01*
X110812480Y-43101986D01*
X110813224Y-43029417D01*
X110813899Y-42945459D01*
X110814513Y-42849443D01*
X110815078Y-42740698D01*
X110815601Y-42618556D01*
X110816092Y-42482347D01*
X110818863Y-41651523D01*
X110494377Y-41651523D01*
X110490253Y-43247257D01*
X110471398Y-43283898D01*
X110453020Y-43310763D01*
X110419738Y-43337682D01*
X110377461Y-43354375D01*
X110327538Y-43360360D01*
X110271319Y-43355157D01*
X110262339Y-43353335D01*
X110221511Y-43339450D01*
X110190870Y-43317257D01*
X110167704Y-43284917D01*
X110151291Y-43254221D01*
X110149291Y-42452872D01*
X110147290Y-41651523D01*
X109822906Y-41651523D01*
X109219088Y-41651523D01*
X109215204Y-41650099D01*
X109202038Y-41646412D01*
X109180920Y-41641341D01*
X109159478Y-41637735D01*
X109134829Y-41635351D01*
X109104092Y-41633947D01*
X109064384Y-41633283D01*
X109012823Y-41633115D01*
X108984274Y-41633157D01*
X108939115Y-41633563D01*
X108904333Y-41634598D01*
X108877063Y-41636498D01*
X108854439Y-41639501D01*
X108833594Y-41643844D01*
X108811663Y-41649764D01*
X108766341Y-41664696D01*
X108696221Y-41697085D01*
X108637993Y-41737678D01*
X108591121Y-41786980D01*
X108555066Y-41845490D01*
X108529292Y-41913713D01*
X108528522Y-41916512D01*
X108524886Y-41933013D01*
X108521925Y-41953618D01*
X108519536Y-41980099D01*
X108517614Y-42014228D01*
X108516054Y-42057778D01*
X108514752Y-42112521D01*
X108513605Y-42180229D01*
X108510309Y-42403133D01*
X107929634Y-42403133D01*
X107929620Y-42311024D01*
X107929623Y-42226368D01*
X107929646Y-42058373D01*
X107929697Y-41904273D01*
X107929779Y-41763498D01*
X107929897Y-41635476D01*
X107930055Y-41519637D01*
X107930256Y-41415410D01*
X107930505Y-41322224D01*
X107930806Y-41239508D01*
X107931163Y-41166690D01*
X107931580Y-41103200D01*
X107932061Y-41048466D01*
X107932610Y-41001918D01*
X107933231Y-40962985D01*
X107933928Y-40931096D01*
X107934705Y-40905679D01*
X107935567Y-40886164D01*
X107936517Y-40871980D01*
X107937559Y-40862555D01*
X107938697Y-40857319D01*
X107939936Y-40855700D01*
X107940787Y-40855782D01*
X107952904Y-40857375D01*
X107978609Y-40860919D01*
X108017123Y-40866301D01*
X108067664Y-40873410D01*
X108129451Y-40882135D01*
X108201705Y-40892364D01*
X108283643Y-40903985D01*
X108374486Y-40916886D01*
X108473452Y-40930957D01*
X108579761Y-40946084D01*
X108692631Y-40962158D01*
X108811283Y-40979066D01*
X108934935Y-40996696D01*
X109062807Y-41014938D01*
X109194117Y-41033678D01*
X109328086Y-41052807D01*
X109463931Y-41072211D01*
X109600873Y-41091780D01*
X109738131Y-41111402D01*
X109874924Y-41130965D01*
X110010471Y-41150358D01*
X110143991Y-41169469D01*
X110274703Y-41188186D01*
X110401827Y-41206398D01*
X110524583Y-41223993D01*
X110642188Y-41240860D01*
X110753863Y-41256887D01*
X110858827Y-41271963D01*
X110956298Y-41285975D01*
X111045496Y-41298812D01*
X111125641Y-41310363D01*
X111195951Y-41320515D01*
X111255646Y-41329159D01*
X111303945Y-41336180D01*
X111340067Y-41341469D01*
X111363232Y-41344914D01*
X111372658Y-41346402D01*
X111392922Y-41350576D01*
X111392922Y-44479207D01*
X111328445Y-44465937D01*
G37*
G36*
X107023267Y-43626341D02*
G01*
X107023267Y-42837888D01*
X106861974Y-42837888D01*
X106835910Y-42920786D01*
X106832629Y-42931194D01*
X106822803Y-42962232D01*
X106809418Y-43004391D01*
X106793101Y-43055706D01*
X106774478Y-43114209D01*
X106754175Y-43177932D01*
X106732817Y-43244908D01*
X106711031Y-43313170D01*
X106612216Y-43622657D01*
X106445621Y-43624638D01*
X106425699Y-43624858D01*
X106374549Y-43625190D01*
X106336107Y-43624962D01*
X106308854Y-43624105D01*
X106291269Y-43622551D01*
X106281833Y-43620231D01*
X106279026Y-43617074D01*
X106280563Y-43611092D01*
X106286414Y-43592096D01*
X106296243Y-43561446D01*
X106309632Y-43520406D01*
X106326163Y-43470246D01*
X106345418Y-43412231D01*
X106366978Y-43347629D01*
X106390428Y-43277707D01*
X106415347Y-43203732D01*
X106435928Y-43142697D01*
X106459651Y-43072161D01*
X106481563Y-43006807D01*
X106501247Y-42947889D01*
X106518287Y-42896661D01*
X106532266Y-42854377D01*
X106542767Y-42822289D01*
X106549374Y-42801653D01*
X106551669Y-42793721D01*
X106550663Y-42791459D01*
X106540874Y-42782330D01*
X106524036Y-42770936D01*
X106485820Y-42745335D01*
X106436840Y-42700785D01*
X106397879Y-42647740D01*
X106366809Y-42583667D01*
X106365399Y-42580079D01*
X106361128Y-42568520D01*
X106357667Y-42556909D01*
X106354915Y-42543613D01*
X106352768Y-42527001D01*
X106351125Y-42505442D01*
X106349882Y-42477304D01*
X106348937Y-42440955D01*
X106348187Y-42394764D01*
X106347531Y-42337098D01*
X106346865Y-42266328D01*
X106346681Y-42244705D01*
X106677261Y-42244705D01*
X106677304Y-42287272D01*
X106677576Y-42337494D01*
X106678203Y-42376261D01*
X106679301Y-42405509D01*
X106680991Y-42427177D01*
X106683389Y-42443202D01*
X106686616Y-42455521D01*
X106690788Y-42466072D01*
X106710219Y-42496917D01*
X106741547Y-42525416D01*
X106778486Y-42542814D01*
X106782796Y-42543772D01*
X106804170Y-42546393D01*
X106835596Y-42548514D01*
X106873568Y-42549938D01*
X106914578Y-42550466D01*
X107023267Y-42550507D01*
X107023267Y-41938903D01*
X106914578Y-41938944D01*
X106913453Y-41938945D01*
X106860509Y-41939558D01*
X106819709Y-41941629D01*
X106788541Y-41945627D01*
X106764492Y-41952022D01*
X106745049Y-41961284D01*
X106727698Y-41973883D01*
X106714478Y-41985689D01*
X106702963Y-41998618D01*
X106694093Y-42013433D01*
X106687525Y-42031968D01*
X106682918Y-42056060D01*
X106679930Y-42087543D01*
X106678219Y-42128255D01*
X106677443Y-42180030D01*
X106677261Y-42244705D01*
X106346681Y-42244705D01*
X106346532Y-42227180D01*
X106346122Y-42160198D01*
X106346075Y-42105481D01*
X106346440Y-42061386D01*
X106347263Y-42026275D01*
X106348591Y-41998507D01*
X106350469Y-41976443D01*
X106352945Y-41958441D01*
X106356066Y-41942863D01*
X106374396Y-41884293D01*
X106406991Y-41822275D01*
X106451028Y-41769453D01*
X106506406Y-41725903D01*
X106573023Y-41691702D01*
X106650779Y-41666928D01*
X106739571Y-41651657D01*
X106759507Y-41650112D01*
X106793755Y-41648521D01*
X106838603Y-41647109D01*
X106891868Y-41645925D01*
X106951372Y-41645016D01*
X107014934Y-41644430D01*
X107080375Y-41644214D01*
X107354860Y-41644154D01*
X107354860Y-43626341D01*
X107023267Y-43626341D01*
G37*
G36*
X99306368Y-43624426D02*
G01*
X99263310Y-43623994D01*
X99192845Y-43623208D01*
X99134718Y-43622391D01*
X99087361Y-43621464D01*
X99049208Y-43620348D01*
X99018694Y-43618964D01*
X98994251Y-43617233D01*
X98974313Y-43615077D01*
X98957314Y-43612416D01*
X98941687Y-43609172D01*
X98925866Y-43605266D01*
X98891691Y-43595314D01*
X98818943Y-43565338D01*
X98757356Y-43526392D01*
X98707292Y-43478734D01*
X98669113Y-43422620D01*
X98667175Y-43418990D01*
X98659715Y-43404924D01*
X98653149Y-43391732D01*
X98647420Y-43378438D01*
X98642470Y-43364068D01*
X98638243Y-43347643D01*
X98634681Y-43328190D01*
X98631728Y-43304733D01*
X98629326Y-43276295D01*
X98627420Y-43241901D01*
X98625950Y-43200575D01*
X98624862Y-43151342D01*
X98624098Y-43093226D01*
X98623600Y-43025251D01*
X98623312Y-42946441D01*
X98623176Y-42855821D01*
X98623137Y-42752415D01*
X98623137Y-42635248D01*
X98954835Y-42635248D01*
X98954838Y-42687089D01*
X98954871Y-42787149D01*
X98954958Y-42873948D01*
X98955123Y-42948492D01*
X98955386Y-43011787D01*
X98955771Y-43064837D01*
X98956299Y-43108648D01*
X98956994Y-43144225D01*
X98957876Y-43172574D01*
X98958968Y-43194699D01*
X98960293Y-43211606D01*
X98961873Y-43224300D01*
X98963729Y-43233786D01*
X98965885Y-43241070D01*
X98968362Y-43247157D01*
X98987794Y-43278002D01*
X99019121Y-43306501D01*
X99056060Y-43323899D01*
X99059270Y-43324649D01*
X99079866Y-43327345D01*
X99110667Y-43329532D01*
X99148069Y-43331004D01*
X99188469Y-43331551D01*
X99293473Y-43331592D01*
X99293473Y-41938903D01*
X99188469Y-41938944D01*
X99177989Y-41938985D01*
X99138016Y-41939790D01*
X99101968Y-41941466D01*
X99073448Y-41943804D01*
X99056060Y-41946596D01*
X99023893Y-41960904D01*
X98991567Y-41988106D01*
X98968362Y-42023339D01*
X98967158Y-42026111D01*
X98964834Y-42032635D01*
X98962822Y-42040828D01*
X98961098Y-42051695D01*
X98959641Y-42066242D01*
X98958428Y-42085474D01*
X98957437Y-42110396D01*
X98956645Y-42142013D01*
X98956032Y-42181331D01*
X98955574Y-42229355D01*
X98955249Y-42287090D01*
X98955034Y-42355542D01*
X98954909Y-42435715D01*
X98954850Y-42528615D01*
X98954835Y-42635248D01*
X98623137Y-42635248D01*
X98623136Y-42611101D01*
X98623142Y-42496699D01*
X98623198Y-42395868D01*
X98623361Y-42307635D01*
X98623688Y-42231026D01*
X98624234Y-42165066D01*
X98625054Y-42108782D01*
X98626205Y-42061199D01*
X98627742Y-42021342D01*
X98629722Y-41988239D01*
X98632200Y-41960914D01*
X98635232Y-41938393D01*
X98638874Y-41919703D01*
X98643182Y-41903869D01*
X98648211Y-41889917D01*
X98654018Y-41876873D01*
X98660658Y-41863763D01*
X98668188Y-41849612D01*
X98670529Y-41845351D01*
X98697652Y-41806185D01*
X98733212Y-41767299D01*
X98772650Y-41733192D01*
X98811405Y-41708360D01*
X98824154Y-41702066D01*
X98854465Y-41688655D01*
X98885744Y-41677421D01*
X98919519Y-41668183D01*
X98957319Y-41660759D01*
X99000673Y-41654970D01*
X99051110Y-41650634D01*
X99110159Y-41647572D01*
X99179349Y-41645601D01*
X99260208Y-41644542D01*
X99354265Y-41644214D01*
X99625066Y-41644154D01*
X99625066Y-43627558D01*
X99306368Y-43624426D01*
G37*
G36*
X104083145Y-43626341D02*
G01*
X103206267Y-43626341D01*
X103206267Y-43331592D01*
X103759096Y-43331592D01*
X103757167Y-43049739D01*
X103755237Y-42767885D01*
X103528648Y-42765936D01*
X103302060Y-42763987D01*
X103302060Y-42476820D01*
X103758921Y-42476820D01*
X103758921Y-41938903D01*
X103213324Y-41938903D01*
X103215322Y-41793371D01*
X103217320Y-41647838D01*
X103650232Y-41645937D01*
X104083145Y-41644036D01*
X104083145Y-43626341D01*
G37*
G36*
X98283957Y-43626341D02*
G01*
X97407079Y-43626341D01*
X97407079Y-43331592D01*
X97952365Y-43331592D01*
X97952365Y-42764200D01*
X97502872Y-42764200D01*
X97502872Y-42476820D01*
X97952365Y-42476820D01*
X97952365Y-41938903D01*
X97414448Y-41938903D01*
X97414448Y-41644154D01*
X98283957Y-41644154D01*
X98283957Y-43626341D01*
G37*
G36*
X105999014Y-43626341D02*
G01*
X105667421Y-43626341D01*
X105667421Y-41644154D01*
X105999014Y-41644154D01*
X105999014Y-43626341D01*
G37*
G36*
X101204563Y-41628795D02*
G01*
X101261173Y-41634351D01*
X101307893Y-41642859D01*
X101364581Y-41659956D01*
X101435149Y-41692153D01*
X101494438Y-41733655D01*
X101542318Y-41784346D01*
X101578660Y-41844106D01*
X101603335Y-41912818D01*
X101605376Y-41921691D01*
X101608544Y-41941349D01*
X101610939Y-41966561D01*
X101612644Y-41999164D01*
X101613741Y-42040993D01*
X101614313Y-42093883D01*
X101614442Y-42159671D01*
X101614331Y-42205980D01*
X101613811Y-42264372D01*
X101612667Y-42311374D01*
X101610675Y-42348990D01*
X101607611Y-42379225D01*
X101603250Y-42404087D01*
X101597368Y-42425578D01*
X101589742Y-42445707D01*
X101580146Y-42466477D01*
X101578120Y-42470554D01*
X101561669Y-42499525D01*
X101541746Y-42527148D01*
X101517123Y-42554386D01*
X101486574Y-42582204D01*
X101448870Y-42611567D01*
X101402786Y-42643441D01*
X101347093Y-42678789D01*
X101280565Y-42718576D01*
X101201973Y-42763768D01*
X101182754Y-42774746D01*
X101134773Y-42802878D01*
X101091748Y-42829129D01*
X101055686Y-42852226D01*
X101028596Y-42870898D01*
X101012484Y-42883872D01*
X101010064Y-42886250D01*
X100993114Y-42904796D01*
X100980304Y-42923910D01*
X100971075Y-42945949D01*
X100964869Y-42973272D01*
X100961128Y-43008236D01*
X100959293Y-43053200D01*
X100958805Y-43110522D01*
X100958805Y-43115438D01*
X100958905Y-43161094D01*
X100959406Y-43194935D01*
X100960625Y-43219636D01*
X100962882Y-43237871D01*
X100966496Y-43252316D01*
X100971785Y-43265644D01*
X100979069Y-43280532D01*
X100997551Y-43308773D01*
X101031016Y-43337609D01*
X101073561Y-43355149D01*
X101124601Y-43361067D01*
X101162958Y-43357855D01*
X101207805Y-43343354D01*
X101243726Y-43317472D01*
X101270134Y-43280532D01*
X101290398Y-43240525D01*
X101290398Y-42889469D01*
X101614622Y-42889469D01*
X101614622Y-43102799D01*
X101614529Y-43140129D01*
X101613897Y-43203043D01*
X101612711Y-43257599D01*
X101611026Y-43302203D01*
X101608891Y-43335260D01*
X101606361Y-43355178D01*
X101595375Y-43396329D01*
X101567238Y-43460256D01*
X101527613Y-43515057D01*
X101476652Y-43560613D01*
X101414503Y-43596799D01*
X101341315Y-43623494D01*
X101257239Y-43640577D01*
X101231199Y-43643291D01*
X101181787Y-43645592D01*
X101125947Y-43645616D01*
X101067900Y-43643541D01*
X101011866Y-43639545D01*
X100962064Y-43633804D01*
X100922714Y-43626497D01*
X100907706Y-43622612D01*
X100835721Y-43597141D01*
X100775193Y-43562841D01*
X100725415Y-43519115D01*
X100685680Y-43465367D01*
X100655279Y-43401000D01*
X100654611Y-43399193D01*
X100650229Y-43386394D01*
X100646718Y-43373238D01*
X100643955Y-43357929D01*
X100641819Y-43338669D01*
X100640189Y-43313660D01*
X100638941Y-43281104D01*
X100637956Y-43239204D01*
X100637112Y-43186162D01*
X100636286Y-43120181D01*
X100635817Y-43075625D01*
X100635473Y-43008821D01*
X100635895Y-42953975D01*
X100637277Y-42909326D01*
X100639818Y-42873115D01*
X100643712Y-42843580D01*
X100649155Y-42818963D01*
X100656345Y-42797503D01*
X100665476Y-42777440D01*
X100676745Y-42757013D01*
X100684188Y-42744819D01*
X100705046Y-42715484D01*
X100730130Y-42687076D01*
X100760758Y-42658598D01*
X100798246Y-42629058D01*
X100843912Y-42597460D01*
X100899071Y-42562811D01*
X100965042Y-42524116D01*
X101043141Y-42480380D01*
X101096866Y-42450155D01*
X101152991Y-42416479D01*
X101197512Y-42386737D01*
X101231567Y-42360020D01*
X101256292Y-42335418D01*
X101272824Y-42312020D01*
X101282299Y-42288918D01*
X101283253Y-42284794D01*
X101286297Y-42261126D01*
X101288454Y-42227329D01*
X101289722Y-42186951D01*
X101290096Y-42143542D01*
X101289574Y-42100648D01*
X101288150Y-42061819D01*
X101285822Y-42030602D01*
X101282586Y-42010547D01*
X101280859Y-42005190D01*
X101268871Y-41980392D01*
X101252931Y-41957741D01*
X101252662Y-41957436D01*
X101221805Y-41932922D01*
X101182617Y-41917003D01*
X101138855Y-41909902D01*
X101094279Y-41911844D01*
X101052648Y-41923052D01*
X101017719Y-41943748D01*
X101009543Y-41950777D01*
X100997104Y-41962937D01*
X100987530Y-41975902D01*
X100980393Y-41991664D01*
X100975260Y-42012213D01*
X100971703Y-42039538D01*
X100969289Y-42075629D01*
X100967590Y-42122477D01*
X100966174Y-42182071D01*
X100962490Y-42355236D01*
X100638266Y-42355236D01*
X100638620Y-42156280D01*
X100638764Y-42116472D01*
X100639494Y-42054264D01*
X100641074Y-42003584D01*
X100643790Y-41962364D01*
X100647928Y-41928535D01*
X100653775Y-41900028D01*
X100661619Y-41874777D01*
X100671745Y-41850711D01*
X100684441Y-41825764D01*
X100685572Y-41823692D01*
X100720771Y-41774101D01*
X100767980Y-41729316D01*
X100824913Y-41690890D01*
X100889283Y-41660377D01*
X100958805Y-41639331D01*
X100970362Y-41636995D01*
X101020961Y-41630289D01*
X101079899Y-41626717D01*
X101142619Y-41626235D01*
X101204563Y-41628795D01*
G37*
%TD*%
M02*
