%TF.GenerationSoftware,KiCad,Pcbnew,(6.0.8-1)-1*%
%TF.CreationDate,2022-11-30T21:47:02-05:00*%
%TF.ProjectId,Untitled,556e7469-746c-4656-942e-6b696361645f,rev?*%
%TF.SameCoordinates,Original*%
%TF.FileFunction,Copper,L2,Bot*%
%TF.FilePolarity,Positive*%
%FSLAX46Y46*%
G04 Gerber Fmt 4.6, Leading zero omitted, Abs format (unit mm)*
G04 Created by KiCad (PCBNEW (6.0.8-1)-1) date 2022-11-30 21:47:02*
%MOMM*%
%LPD*%
G01*
G04 APERTURE LIST*
G04 Aperture macros list*
%AMRoundRect*
0 Rectangle with rounded corners*
0 $1 Rounding radius*
0 $2 $3 $4 $5 $6 $7 $8 $9 X,Y pos of 4 corners*
0 Add a 4 corners polygon primitive as box body*
4,1,4,$2,$3,$4,$5,$6,$7,$8,$9,$2,$3,0*
0 Add four circle primitives for the rounded corners*
1,1,$1+$1,$2,$3*
1,1,$1+$1,$4,$5*
1,1,$1+$1,$6,$7*
1,1,$1+$1,$8,$9*
0 Add four rect primitives between the rounded corners*
20,1,$1+$1,$2,$3,$4,$5,0*
20,1,$1+$1,$4,$5,$6,$7,0*
20,1,$1+$1,$6,$7,$8,$9,0*
20,1,$1+$1,$8,$9,$2,$3,0*%
%AMHorizOval*
0 Thick line with rounded ends*
0 $1 width*
0 $2 $3 position (X,Y) of the first rounded end (center of the circle)*
0 $4 $5 position (X,Y) of the second rounded end (center of the circle)*
0 Add line between two ends*
20,1,$1,$2,$3,$4,$5,0*
0 Add two circle primitives to create the rounded ends*
1,1,$1,$2,$3*
1,1,$1,$4,$5*%
G04 Aperture macros list end*
%TA.AperFunction,SMDPad,CuDef*%
%ADD10RoundRect,0.087500X0.087500X0.337500X-0.087500X0.337500X-0.087500X-0.337500X0.087500X-0.337500X0*%
%TD*%
%TA.AperFunction,ComponentPad*%
%ADD11RoundRect,0.250000X-0.327868X0.882115X-0.927868X-0.157115X0.327868X-0.882115X0.927868X0.157115X0*%
%TD*%
%TA.AperFunction,ComponentPad*%
%ADD12HorizOval,1.700000X-0.108253X0.062500X0.108253X-0.062500X0*%
%TD*%
%TA.AperFunction,ComponentPad*%
%ADD13R,1.397000X1.397000*%
%TD*%
%TA.AperFunction,ComponentPad*%
%ADD14C,1.397000*%
%TD*%
%TA.AperFunction,SMDPad,CuDef*%
%ADD15RoundRect,0.250000X-0.385016X0.583133X-0.697516X0.041867X0.385016X-0.583133X0.697516X-0.041867X0*%
%TD*%
%TA.AperFunction,SMDPad,CuDef*%
%ADD16RoundRect,0.250000X-0.790128X0.831458X-1.115128X0.268542X0.790128X-0.831458X1.115128X-0.268542X0*%
%TD*%
%TA.AperFunction,ComponentPad*%
%ADD17RoundRect,0.250000X0.949519X-0.144615X0.349519X0.894615X-0.949519X0.144615X-0.349519X-0.894615X0*%
%TD*%
%TA.AperFunction,ComponentPad*%
%ADD18HorizOval,1.700000X0.129904X0.075000X-0.129904X-0.075000X0*%
%TD*%
%TA.AperFunction,ViaPad*%
%ADD19C,0.800000*%
%TD*%
%TA.AperFunction,Conductor*%
%ADD20C,0.200000*%
%TD*%
%TA.AperFunction,Conductor*%
%ADD21C,0.250000*%
%TD*%
G04 APERTURE END LIST*
D10*
%TO.P,REF\u002A\u002A,1*%
%TO.N,N/C*%
X104350000Y-59100000D03*
%TO.P,REF\u002A\u002A,2*%
X103700000Y-59100000D03*
%TO.P,REF\u002A\u002A,3*%
X103050000Y-59100000D03*
%TO.P,REF\u002A\u002A,4*%
X103050000Y-56900000D03*
%TO.P,REF\u002A\u002A,5*%
X104350000Y-56900000D03*
%TD*%
D11*
%TO.P,REF\u002A\u002A,1*%
%TO.N,N/C*%
X90795337Y-48072437D03*
D12*
%TO.P,REF\u002A\u002A,2*%
X89545337Y-50237501D03*
%TO.P,REF\u002A\u002A,3*%
X88295337Y-52402564D03*
%TD*%
D13*
%TO.P,REF\u002A\u002A,1*%
%TO.N,N/C*%
X106187500Y-75000000D03*
D14*
%TO.P,REF\u002A\u002A,2*%
X103647500Y-75000000D03*
%TO.P,REF\u002A\u002A,3*%
X101107500Y-75000000D03*
%TD*%
D15*
%TO.P,REF\u002A\u002A,1*%
%TO.N,N/C*%
X118931250Y-59933438D03*
%TO.P,REF\u002A\u002A,2*%
X117468750Y-62466562D03*
%TD*%
D16*
%TO.P,REF\u002A\u002A,1*%
%TO.N,N/C*%
X114137500Y-65722613D03*
%TO.P,REF\u002A\u002A,2*%
X112662500Y-68277387D03*
%TD*%
D17*
%TO.P,REF\u002A\u002A,1*%
%TO.N,N/C*%
X118500000Y-51220032D03*
D18*
%TO.P,REF\u002A\u002A,2*%
X117250000Y-49054968D03*
%TD*%
D19*
%TO.N,*%
X110600000Y-52200000D03*
%TD*%
D20*
%TO.N,*%
X111400000Y-62985113D02*
X114137500Y-65722613D01*
X104420000Y-65220000D02*
X103850000Y-64650000D01*
X106740000Y-65220000D02*
X106020000Y-65220000D01*
X116200000Y-52090000D02*
X116200000Y-50200000D01*
X102550000Y-54950000D02*
X103700000Y-56100000D01*
X88100000Y-54100000D02*
X88100000Y-52130127D01*
X94700000Y-60700000D02*
X88100000Y-54100000D01*
X103700000Y-59100000D02*
X104350000Y-59100000D01*
D21*
X109000000Y-53400000D02*
X109000000Y-51600000D01*
D20*
X104390000Y-64110000D02*
X103850000Y-64650000D01*
X109580000Y-62380000D02*
X108680000Y-63280000D01*
X118455000Y-59457188D02*
X118455000Y-54345000D01*
X97110000Y-63110000D02*
X94700000Y-60700000D01*
X116000000Y-57600000D02*
X116000000Y-60997812D01*
X100150000Y-57350000D02*
X102550000Y-54950000D01*
X117345032Y-49054968D02*
X117629664Y-49054968D01*
X103050000Y-58350000D02*
X103050000Y-59100000D01*
D21*
X111545032Y-49054968D02*
X117629664Y-49054968D01*
D20*
X108680000Y-63280000D02*
X106740000Y-65220000D01*
X109620000Y-62380000D02*
X109580000Y-62380000D01*
D21*
X111600000Y-56000000D02*
X109000000Y-53400000D01*
D20*
X106020000Y-65220000D02*
X105220000Y-65220000D01*
X106187500Y-74752387D02*
X112662500Y-68277387D01*
X111400000Y-60600000D02*
X111400000Y-62985113D01*
X95000000Y-61000000D02*
X94700000Y-60700000D01*
X99792468Y-60407532D02*
X89350000Y-49965064D01*
D21*
X101200000Y-77732500D02*
X101132500Y-77800000D01*
D20*
X103110000Y-63110000D02*
X97110000Y-63110000D01*
X103050000Y-57150000D02*
X99792468Y-60407532D01*
X104390000Y-62700000D02*
X104390000Y-64110000D01*
D21*
X109000000Y-51600000D02*
X111545032Y-49054968D01*
D20*
X90795337Y-48072437D02*
X90872437Y-48072437D01*
X103050000Y-56900000D02*
X103050000Y-57150000D01*
X118455000Y-54345000D02*
X116200000Y-52090000D01*
X90872437Y-48072437D02*
X100150000Y-57350000D01*
X101107500Y-75250100D02*
X101107500Y-69332500D01*
X110600000Y-52200000D02*
X116000000Y-57600000D01*
X103700000Y-56100000D02*
X103700000Y-57700000D01*
X105220000Y-65220000D02*
X104420000Y-65220000D01*
X101107500Y-69332500D02*
X105220000Y-65220000D01*
X118931250Y-59933438D02*
X118455000Y-59457188D01*
D21*
X111400000Y-60600000D02*
X111600000Y-60400000D01*
D20*
X106187500Y-75250100D02*
X106187500Y-74752387D01*
X104390000Y-62700000D02*
X104390000Y-60500000D01*
X116000000Y-60997812D02*
X117468750Y-62466562D01*
X104350000Y-59300000D02*
X104350000Y-61500000D01*
X103850000Y-64650000D02*
X103110000Y-63910000D01*
D21*
X111600000Y-60400000D02*
X111600000Y-56000000D01*
D20*
X111400000Y-60600000D02*
X109620000Y-62380000D01*
X109470000Y-62490000D02*
X109580000Y-62380000D01*
X104350000Y-59100000D02*
X104350000Y-56900000D01*
X105490000Y-62710000D02*
X105490000Y-62690000D01*
X116200000Y-50200000D02*
X117345032Y-49054968D01*
X103110000Y-63910000D02*
X103110000Y-63110000D01*
X103700000Y-57700000D02*
X103050000Y-58350000D01*
X118455000Y-51644696D02*
X118879664Y-51220032D01*
%TD*%
M02*
