%TF.GenerationSoftware,KiCad,Pcbnew,(6.0.8-1)-1*%
%TF.CreationDate,2022-11-30T21:43:56-05:00*%
%TF.ProjectId,Untitled,556e7469-746c-4656-942e-6b696361645f,rev?*%
%TF.SameCoordinates,Original*%
%TF.FileFunction,Drillmap*%
%TF.FilePolarity,Positive*%
%FSLAX45Y45*%
G04 Gerber Fmt 4.5, Leading zero omitted, Abs format (unit mm)*
G04 Created by KiCad (PCBNEW (6.0.8-1)-1) date 2022-11-30 21:43:56*
%MOMM*%
%LPD*%
G01*
G04 APERTURE LIST*
%ADD10C,0.100000*%
%ADD11C,0.200000*%
G04 APERTURE END LIST*
D10*
X9539000Y-7386000D02*
G75*
G03*
X9539000Y-7386000I-80000J0D01*
G01*
X8624000Y-5801000D02*
G75*
G03*
X8624000Y-5801000I-80000J0D01*
G01*
X9359000Y-4043000D02*
X8344000Y-5801000D01*
X11369000Y-7386000D02*
G75*
G03*
X11369000Y-7386000I-80000J0D01*
G01*
X11389000Y-4043000D02*
X9359000Y-4043000D01*
X9359000Y-7559000D02*
X11389000Y-7559000D01*
X8344000Y-5801000D02*
X9359000Y-7559000D01*
X12404000Y-5801000D02*
X11389000Y-7559000D01*
X12284000Y-5801000D02*
G75*
G03*
X12284000Y-5801000I-80000J0D01*
G01*
X11369000Y-4216000D02*
G75*
G03*
X11369000Y-4216000I-80000J0D01*
G01*
X9539000Y-4216000D02*
G75*
G03*
X9539000Y-4216000I-80000J0D01*
G01*
X12404000Y-5801000D02*
X11389000Y-4043000D01*
D11*
X8596619Y-7874476D02*
X8596619Y-7674476D01*
X8644238Y-7674476D01*
X8672810Y-7684000D01*
X8691857Y-7703048D01*
X8701381Y-7722095D01*
X8710905Y-7760190D01*
X8710905Y-7788762D01*
X8701381Y-7826857D01*
X8691857Y-7845905D01*
X8672810Y-7864952D01*
X8644238Y-7874476D01*
X8596619Y-7874476D01*
X8796619Y-7874476D02*
X8796619Y-7741143D01*
X8796619Y-7779238D02*
X8806143Y-7760190D01*
X8815667Y-7750667D01*
X8834714Y-7741143D01*
X8853762Y-7741143D01*
X8920429Y-7874476D02*
X8920429Y-7741143D01*
X8920429Y-7674476D02*
X8910905Y-7684000D01*
X8920429Y-7693524D01*
X8929952Y-7684000D01*
X8920429Y-7674476D01*
X8920429Y-7693524D01*
X9044238Y-7874476D02*
X9025190Y-7864952D01*
X9015667Y-7845905D01*
X9015667Y-7674476D01*
X9149000Y-7874476D02*
X9129952Y-7864952D01*
X9120429Y-7845905D01*
X9120429Y-7674476D01*
X9377571Y-7874476D02*
X9377571Y-7674476D01*
X9444238Y-7817333D01*
X9510905Y-7674476D01*
X9510905Y-7874476D01*
X9691857Y-7874476D02*
X9691857Y-7769714D01*
X9682333Y-7750667D01*
X9663286Y-7741143D01*
X9625190Y-7741143D01*
X9606143Y-7750667D01*
X9691857Y-7864952D02*
X9672810Y-7874476D01*
X9625190Y-7874476D01*
X9606143Y-7864952D01*
X9596619Y-7845905D01*
X9596619Y-7826857D01*
X9606143Y-7807809D01*
X9625190Y-7798286D01*
X9672810Y-7798286D01*
X9691857Y-7788762D01*
X9787095Y-7741143D02*
X9787095Y-7941143D01*
X9787095Y-7750667D02*
X9806143Y-7741143D01*
X9844238Y-7741143D01*
X9863286Y-7750667D01*
X9872810Y-7760190D01*
X9882333Y-7779238D01*
X9882333Y-7836381D01*
X9872810Y-7855428D01*
X9863286Y-7864952D01*
X9844238Y-7874476D01*
X9806143Y-7874476D01*
X9787095Y-7864952D01*
X9968048Y-7855428D02*
X9977571Y-7864952D01*
X9968048Y-7874476D01*
X9958524Y-7864952D01*
X9968048Y-7855428D01*
X9968048Y-7874476D01*
X9968048Y-7750667D02*
X9977571Y-7760190D01*
X9968048Y-7769714D01*
X9958524Y-7760190D01*
X9968048Y-7750667D01*
X9968048Y-7769714D01*
M02*
