%TF.GenerationSoftware,KiCad,Pcbnew,(6.0.8-1)-1*%
%TF.CreationDate,2022-11-01T09:45:04-04:00*%
%TF.ProjectId,Untitled,556e7469-746c-4656-942e-6b696361645f,rev?*%
%TF.SameCoordinates,Original*%
%TF.FileFunction,Legend,Bot*%
%TF.FilePolarity,Positive*%
%FSLAX46Y46*%
G04 Gerber Fmt 4.6, Leading zero omitted, Abs format (unit mm)*
G04 Created by KiCad (PCBNEW (6.0.8-1)-1) date 2022-11-01 09:45:04*
%MOMM*%
%LPD*%
G01*
G04 APERTURE LIST*
%ADD10C,0.150000*%
%ADD11C,0.300000*%
%ADD12C,0.120000*%
G04 APERTURE END LIST*
D10*
X62052380Y-45204761D02*
X62052380Y-45776189D01*
X63052380Y-45490475D02*
X62052380Y-45490475D01*
X63004761Y-46490475D02*
X63052380Y-46395237D01*
X63052380Y-46204761D01*
X63004761Y-46109523D01*
X62909523Y-46061904D01*
X62528571Y-46061904D01*
X62433333Y-46109523D01*
X62385714Y-46204761D01*
X62385714Y-46395237D01*
X62433333Y-46490475D01*
X62528571Y-46538094D01*
X62623809Y-46538094D01*
X62719047Y-46061904D01*
X63052380Y-46966665D02*
X62385714Y-46966665D01*
X62480952Y-46966665D02*
X62433333Y-47014285D01*
X62385714Y-47109523D01*
X62385714Y-47252380D01*
X62433333Y-47347618D01*
X62528571Y-47395237D01*
X63052380Y-47395237D01*
X62528571Y-47395237D02*
X62433333Y-47442856D01*
X62385714Y-47538094D01*
X62385714Y-47680951D01*
X62433333Y-47776189D01*
X62528571Y-47823808D01*
X63052380Y-47823808D01*
X62385714Y-48299999D02*
X63385714Y-48299999D01*
X62433333Y-48299999D02*
X62385714Y-48395237D01*
X62385714Y-48585713D01*
X62433333Y-48680951D01*
X62480952Y-48728570D01*
X62576190Y-48776189D01*
X62861904Y-48776189D01*
X62957142Y-48728570D01*
X63004761Y-48680951D01*
X63052380Y-48585713D01*
X63052380Y-48395237D01*
X63004761Y-48299999D01*
X63052380Y-49728570D02*
X63052380Y-49157142D01*
X63052380Y-49442856D02*
X62052380Y-49442856D01*
X62195238Y-49347618D01*
X62290476Y-49252380D01*
X62338095Y-49157142D01*
D11*
%TO.C,G\u002A\u002A\u002A*%
X106742571Y-56638000D02*
X106887714Y-56565428D01*
X107105428Y-56565428D01*
X107323142Y-56638000D01*
X107468285Y-56783142D01*
X107540857Y-56928285D01*
X107613428Y-57218571D01*
X107613428Y-57436285D01*
X107540857Y-57726571D01*
X107468285Y-57871714D01*
X107323142Y-58016857D01*
X107105428Y-58089428D01*
X106960285Y-58089428D01*
X106742571Y-58016857D01*
X106670000Y-57944285D01*
X106670000Y-57436285D01*
X106960285Y-57436285D01*
X105799142Y-56565428D02*
X105799142Y-56928285D01*
X106162000Y-56783142D02*
X105799142Y-56928285D01*
X105436285Y-56783142D01*
X106016857Y-57218571D02*
X105799142Y-56928285D01*
X105581428Y-57218571D01*
X104638000Y-56565428D02*
X104638000Y-56928285D01*
X105000857Y-56783142D02*
X104638000Y-56928285D01*
X104275142Y-56783142D01*
X104855714Y-57218571D02*
X104638000Y-56928285D01*
X104420285Y-57218571D01*
X103476857Y-56565428D02*
X103476857Y-56928285D01*
X103839714Y-56783142D02*
X103476857Y-56928285D01*
X103114000Y-56783142D01*
X103694571Y-57218571D02*
X103476857Y-56928285D01*
X103259142Y-57218571D01*
D10*
%TO.C,REF\u002A\u002A*%
X59702480Y-46419166D02*
X59226290Y-46085833D01*
X59702480Y-45847738D02*
X58702480Y-45847738D01*
X58702480Y-46228690D01*
X58750100Y-46323928D01*
X58797719Y-46371547D01*
X58892957Y-46419166D01*
X59035814Y-46419166D01*
X59131052Y-46371547D01*
X59178671Y-46323928D01*
X59226290Y-46228690D01*
X59226290Y-45847738D01*
X59178671Y-46847738D02*
X59178671Y-47181071D01*
X59702480Y-47323928D02*
X59702480Y-46847738D01*
X58702480Y-46847738D01*
X58702480Y-47323928D01*
X59178671Y-48085833D02*
X59178671Y-47752500D01*
X59702480Y-47752500D02*
X58702480Y-47752500D01*
X58702480Y-48228690D01*
X58702480Y-48752500D02*
X58940576Y-48752500D01*
X58845338Y-48514404D02*
X58940576Y-48752500D01*
X58845338Y-48990595D01*
X59131052Y-48609642D02*
X58940576Y-48752500D01*
X59131052Y-48895357D01*
X58702480Y-49514404D02*
X58940576Y-49514404D01*
X58845338Y-49276309D02*
X58940576Y-49514404D01*
X58845338Y-49752500D01*
X59131052Y-49371547D02*
X58940576Y-49514404D01*
X59131052Y-49657261D01*
X59607242Y-39347738D02*
X59654861Y-39300119D01*
X59702480Y-39157261D01*
X59702480Y-39062023D01*
X59654861Y-38919166D01*
X59559623Y-38823928D01*
X59464385Y-38776309D01*
X59273909Y-38728690D01*
X59131052Y-38728690D01*
X58940576Y-38776309D01*
X58845338Y-38823928D01*
X58750100Y-38919166D01*
X58702480Y-39062023D01*
X58702480Y-39157261D01*
X58750100Y-39300119D01*
X58797719Y-39347738D01*
X58702480Y-39966785D02*
X58702480Y-40157261D01*
X58750100Y-40252500D01*
X58845338Y-40347738D01*
X59035814Y-40395357D01*
X59369147Y-40395357D01*
X59559623Y-40347738D01*
X59654861Y-40252500D01*
X59702480Y-40157261D01*
X59702480Y-39966785D01*
X59654861Y-39871547D01*
X59559623Y-39776309D01*
X59369147Y-39728690D01*
X59035814Y-39728690D01*
X58845338Y-39776309D01*
X58750100Y-39871547D01*
X58702480Y-39966785D01*
X59702480Y-40823928D02*
X58702480Y-40823928D01*
X59702480Y-41395357D01*
X58702480Y-41395357D01*
X59702480Y-41871547D02*
X58702480Y-41871547D01*
X59702480Y-42442976D01*
X58702480Y-42442976D01*
X59797719Y-42681071D02*
X59797719Y-43442976D01*
X58702480Y-43585833D02*
X58702480Y-44204880D01*
X59083433Y-43871547D01*
X59083433Y-44014404D01*
X59131052Y-44109642D01*
X59178671Y-44157261D01*
X59273909Y-44204880D01*
X59512004Y-44204880D01*
X59607242Y-44157261D01*
X59654861Y-44109642D01*
X59702480Y-44014404D01*
X59702480Y-43728690D01*
X59654861Y-43633452D01*
X59607242Y-43585833D01*
X59321528Y-44633452D02*
X59321528Y-45395357D01*
X59702480Y-46395357D02*
X59702480Y-45823928D01*
X59702480Y-46109642D02*
X58702480Y-46109642D01*
X58845338Y-46014404D01*
X58940576Y-45919166D01*
X58988195Y-45823928D01*
X58702480Y-47014404D02*
X58702480Y-47109642D01*
X58750100Y-47204880D01*
X58797719Y-47252500D01*
X58892957Y-47300119D01*
X59083433Y-47347738D01*
X59321528Y-47347738D01*
X59512004Y-47300119D01*
X59607242Y-47252500D01*
X59654861Y-47204880D01*
X59702480Y-47109642D01*
X59702480Y-47014404D01*
X59654861Y-46919166D01*
X59607242Y-46871547D01*
X59512004Y-46823928D01*
X59321528Y-46776309D01*
X59083433Y-46776309D01*
X58892957Y-46823928D01*
X58797719Y-46871547D01*
X58750100Y-46919166D01*
X58702480Y-47014404D01*
X58797719Y-47728690D02*
X58750100Y-47776309D01*
X58702480Y-47871547D01*
X58702480Y-48109642D01*
X58750100Y-48204880D01*
X58797719Y-48252500D01*
X58892957Y-48300119D01*
X58988195Y-48300119D01*
X59131052Y-48252500D01*
X59702480Y-47681071D01*
X59702480Y-48300119D01*
X58797719Y-48681071D02*
X58750100Y-48728690D01*
X58702480Y-48823928D01*
X58702480Y-49062023D01*
X58750100Y-49157261D01*
X58797719Y-49204880D01*
X58892957Y-49252499D01*
X58988195Y-49252499D01*
X59131052Y-49204880D01*
X59702480Y-48633452D01*
X59702480Y-49252499D01*
X58702480Y-49871547D02*
X58702480Y-49966785D01*
X58750100Y-50062023D01*
X58797719Y-50109642D01*
X58892957Y-50157261D01*
X59083433Y-50204880D01*
X59321528Y-50204880D01*
X59512004Y-50157261D01*
X59607242Y-50109642D01*
X59654861Y-50062023D01*
X59702480Y-49966785D01*
X59702480Y-49871547D01*
X59654861Y-49776309D01*
X59607242Y-49728690D01*
X59512004Y-49681071D01*
X59321528Y-49633452D01*
X59083433Y-49633452D01*
X58892957Y-49681071D01*
X58797719Y-49728690D01*
X58750100Y-49776309D01*
X58702480Y-49871547D01*
X58702480Y-50538214D02*
X58702480Y-51157261D01*
X59083433Y-50823928D01*
X59083433Y-50966785D01*
X59131052Y-51062023D01*
X59178671Y-51109642D01*
X59273909Y-51157261D01*
X59512004Y-51157261D01*
X59607242Y-51109642D01*
X59654861Y-51062023D01*
X59702480Y-50966785D01*
X59702480Y-50681071D01*
X59654861Y-50585833D01*
X59607242Y-50538214D01*
X59321528Y-51585833D02*
X59321528Y-52347738D01*
X59035814Y-53252499D02*
X59702480Y-53252499D01*
X58654861Y-53014404D02*
X59369147Y-52776309D01*
X59369147Y-53395357D01*
X59797719Y-53538214D02*
X59797719Y-54300119D01*
X58702480Y-54395357D02*
X58702480Y-54966785D01*
X59702480Y-54681071D02*
X58702480Y-54681071D01*
X59178671Y-55300119D02*
X59178671Y-55633452D01*
X59702480Y-55776309D02*
X59702480Y-55300119D01*
X58702480Y-55300119D01*
X58702480Y-55776309D01*
X59607242Y-56776309D02*
X59654861Y-56728690D01*
X59702480Y-56585833D01*
X59702480Y-56490595D01*
X59654861Y-56347738D01*
X59559623Y-56252499D01*
X59464385Y-56204880D01*
X59273909Y-56157261D01*
X59131052Y-56157261D01*
X58940576Y-56204880D01*
X58845338Y-56252499D01*
X58750100Y-56347738D01*
X58702480Y-56490595D01*
X58702480Y-56585833D01*
X58750100Y-56728690D01*
X58797719Y-56776309D01*
X58702480Y-45212500D02*
X58940576Y-45212500D01*
X58845338Y-44974404D02*
X58940576Y-45212500D01*
X58845338Y-45450595D01*
X59131052Y-45069642D02*
X58940576Y-45212500D01*
X59131052Y-45355357D01*
%TO.C,G\u002A\u002A\u002A*%
G36*
X112262512Y-75963423D02*
G01*
X112371439Y-76280115D01*
X112463854Y-76548701D01*
X112533979Y-76752381D01*
X112643606Y-77070728D01*
X112779298Y-77464994D01*
X112921513Y-77878415D01*
X113063317Y-78290824D01*
X113197777Y-78682054D01*
X113317957Y-79031937D01*
X113416924Y-79320307D01*
X113461876Y-79454070D01*
X113514758Y-79619849D01*
X113550901Y-79743868D01*
X113564286Y-79806276D01*
X113552825Y-79814150D01*
X113470850Y-79827771D01*
X113319279Y-79839424D01*
X113109143Y-79849103D01*
X112851473Y-79856800D01*
X112557298Y-79862508D01*
X112237648Y-79866219D01*
X111903555Y-79867926D01*
X111566049Y-79867623D01*
X111236160Y-79865302D01*
X110924918Y-79860955D01*
X110643354Y-79854576D01*
X110402497Y-79846156D01*
X110213380Y-79835690D01*
X110087031Y-79823170D01*
X110034481Y-79808588D01*
X110033988Y-79807910D01*
X110009972Y-79747938D01*
X109969240Y-79618671D01*
X109915857Y-79434145D01*
X109853888Y-79208390D01*
X109787396Y-78955442D01*
X109722256Y-78703123D01*
X109658613Y-78458125D01*
X109603428Y-78247214D01*
X109561028Y-78086926D01*
X109535739Y-77993796D01*
X109489763Y-77831299D01*
X107847164Y-77842605D01*
X106204564Y-77853911D01*
X106060757Y-78458673D01*
X106056089Y-78478290D01*
X105993336Y-78740361D01*
X105928021Y-79010523D01*
X105867602Y-79258049D01*
X105819540Y-79452211D01*
X105722131Y-79840986D01*
X103976222Y-79852283D01*
X103959957Y-79852386D01*
X103542800Y-79854039D01*
X103168281Y-79853580D01*
X102843691Y-79851127D01*
X102576321Y-79846796D01*
X102373462Y-79840704D01*
X102242405Y-79832968D01*
X102190440Y-79823704D01*
X102189481Y-79822650D01*
X102183042Y-79758030D01*
X102207415Y-79627738D01*
X102260122Y-79445231D01*
X102302098Y-79315539D01*
X102369223Y-79108212D01*
X102450456Y-78857359D01*
X102539126Y-78583582D01*
X102628560Y-78307483D01*
X102632798Y-78294398D01*
X102716841Y-78034699D01*
X102820598Y-77713714D01*
X102937684Y-77351218D01*
X103061714Y-76966986D01*
X103186302Y-76580794D01*
X103305063Y-76212415D01*
X103308856Y-76200645D01*
X103429030Y-75828059D01*
X103555828Y-75435478D01*
X103565727Y-75404868D01*
X106841669Y-75404868D01*
X106856390Y-75423672D01*
X106898186Y-75437244D01*
X106976945Y-75446436D01*
X107102553Y-75452101D01*
X107284896Y-75455092D01*
X107533861Y-75456262D01*
X107859334Y-75456462D01*
X107962326Y-75456389D01*
X108281932Y-75454794D01*
X108525399Y-75450798D01*
X108700746Y-75443983D01*
X108815988Y-75433934D01*
X108879143Y-75420234D01*
X108898228Y-75402466D01*
X108888210Y-75345079D01*
X108859999Y-75221342D01*
X108818033Y-75050679D01*
X108766755Y-74851700D01*
X108755953Y-74810614D01*
X108660976Y-74446682D01*
X108562277Y-74064162D01*
X108462399Y-73673274D01*
X108363884Y-73284241D01*
X108269274Y-72907284D01*
X108181112Y-72552622D01*
X108101940Y-72230479D01*
X108034300Y-71951076D01*
X107980734Y-71724633D01*
X107943786Y-71561371D01*
X107925997Y-71471513D01*
X107913708Y-71403050D01*
X107885671Y-71304892D01*
X107858163Y-71266326D01*
X107850890Y-71266941D01*
X107831549Y-71280525D01*
X107813518Y-71322747D01*
X107793163Y-71407793D01*
X107766853Y-71549848D01*
X107730954Y-71763095D01*
X107715332Y-71843294D01*
X107679157Y-72008359D01*
X107627055Y-72235314D01*
X107561978Y-72512106D01*
X107486881Y-72826680D01*
X107404716Y-73166983D01*
X107318437Y-73520960D01*
X107230998Y-73876560D01*
X107145352Y-74221727D01*
X107064453Y-74544408D01*
X106991253Y-74832549D01*
X106928706Y-75074097D01*
X106879766Y-75256997D01*
X106847386Y-75369197D01*
X106844138Y-75379980D01*
X106841669Y-75404868D01*
X103565727Y-75404868D01*
X103682633Y-75043348D01*
X103802828Y-74672118D01*
X103909799Y-74342236D01*
X103996927Y-74074149D01*
X104073890Y-73837542D01*
X104185214Y-73494736D01*
X104298813Y-73144391D01*
X104404996Y-72816397D01*
X104494073Y-72540646D01*
X104559653Y-72337534D01*
X104662553Y-72019417D01*
X104775189Y-71671715D01*
X104887873Y-71324324D01*
X104990920Y-71007143D01*
X105071416Y-70759387D01*
X105178868Y-70428087D01*
X105286510Y-70095657D01*
X105385356Y-69789854D01*
X105466419Y-69538435D01*
X105502252Y-69429474D01*
X105576353Y-69218254D01*
X105644327Y-69042015D01*
X105699857Y-68916657D01*
X105736631Y-68858078D01*
X105750022Y-68851221D01*
X105806660Y-68838872D01*
X105907527Y-68828686D01*
X106058646Y-68820505D01*
X106266040Y-68814168D01*
X106535732Y-68809516D01*
X106873743Y-68806391D01*
X107286098Y-68804632D01*
X107778818Y-68804081D01*
X108098263Y-68804285D01*
X108535416Y-68805509D01*
X108896085Y-68807979D01*
X109186337Y-68811858D01*
X109412233Y-68817309D01*
X109579838Y-68824494D01*
X109695215Y-68833575D01*
X109764427Y-68844716D01*
X109793538Y-68858078D01*
X109794759Y-68859640D01*
X109800715Y-68866201D01*
X109805905Y-68871579D01*
X109811705Y-68879718D01*
X109819489Y-68894567D01*
X109830630Y-68920072D01*
X109846504Y-68960180D01*
X109868484Y-69018838D01*
X109897946Y-69099992D01*
X109936262Y-69207590D01*
X109984808Y-69345578D01*
X110044958Y-69517903D01*
X110118085Y-69728511D01*
X110205565Y-69981350D01*
X110308772Y-70280367D01*
X110429079Y-70629508D01*
X110567862Y-71032720D01*
X110726494Y-71493949D01*
X110906350Y-72017143D01*
X111108804Y-72606249D01*
X111335231Y-73265213D01*
X111587004Y-73997982D01*
X111865498Y-74808503D01*
X111894440Y-74892727D01*
X112018235Y-75252928D01*
X112069642Y-75402466D01*
X112142851Y-75615427D01*
X112262512Y-75963423D01*
G37*
G36*
X100821089Y-79863090D02*
G01*
X97289711Y-79852038D01*
X93758334Y-79840986D01*
X93746892Y-78555867D01*
X93735449Y-77270748D01*
X95584936Y-77270748D01*
X96023625Y-77270215D01*
X96432349Y-77268290D01*
X96765239Y-77264816D01*
X97027839Y-77259641D01*
X97225697Y-77252614D01*
X97364355Y-77243585D01*
X97449361Y-77232401D01*
X97486259Y-77218911D01*
X97489242Y-77213984D01*
X97498025Y-77172090D01*
X97505789Y-77087234D01*
X97512583Y-76955469D01*
X97518456Y-76772847D01*
X97523456Y-76535418D01*
X97527632Y-76239234D01*
X97531031Y-75880347D01*
X97533704Y-75454809D01*
X97535698Y-74958672D01*
X97537063Y-74387986D01*
X97537845Y-73738804D01*
X97538096Y-73007177D01*
X97538096Y-68847279D01*
X100821089Y-68847279D01*
X100821089Y-79863090D01*
G37*
G36*
X92354422Y-79862585D02*
G01*
X89028232Y-79862585D01*
X89028232Y-68847279D01*
X92354422Y-68847279D01*
X92354422Y-79862585D01*
G37*
G36*
X122074150Y-79819387D02*
G01*
X114730613Y-79819387D01*
X114730613Y-77097959D01*
X115562160Y-77097209D01*
X115926155Y-77093758D01*
X116246601Y-77081493D01*
X116512832Y-77057611D01*
X116741350Y-77019299D01*
X116948657Y-76963741D01*
X117151255Y-76888124D01*
X117365647Y-76789634D01*
X117452785Y-76745443D01*
X117662943Y-76621232D01*
X117854300Y-76474716D01*
X118060492Y-76281288D01*
X118064648Y-76277124D01*
X118298621Y-76025035D01*
X118476354Y-75788158D01*
X118616017Y-75538716D01*
X118735780Y-75248931D01*
X118744268Y-75225190D01*
X118859842Y-74771092D01*
X118894738Y-74307486D01*
X118851843Y-73845587D01*
X118734049Y-73396607D01*
X118544244Y-72971759D01*
X118285319Y-72582255D01*
X117960162Y-72239308D01*
X117951424Y-72231663D01*
X117748167Y-72081450D01*
X117491437Y-71929309D01*
X117210802Y-71789987D01*
X116935830Y-71678234D01*
X116696089Y-71608797D01*
X116675304Y-71604876D01*
X116503160Y-71584862D01*
X116256932Y-71571122D01*
X115947003Y-71564072D01*
X115583759Y-71564129D01*
X114730613Y-71572406D01*
X114730613Y-68804081D01*
X122074150Y-68804081D01*
X122074150Y-79819387D01*
G37*
G36*
X89071429Y-67292177D02*
G01*
X89071429Y-51176192D01*
X97634231Y-51176192D01*
X97637399Y-51546768D01*
X97638547Y-51572475D01*
X97687319Y-52040843D01*
X97791177Y-52454674D01*
X97957489Y-52830837D01*
X98193623Y-53186203D01*
X98506947Y-53537642D01*
X98635024Y-53660650D01*
X98994672Y-53948130D01*
X99372123Y-54162932D01*
X99783808Y-54315062D01*
X100163846Y-54398480D01*
X100668554Y-54436212D01*
X101169122Y-54393554D01*
X101650946Y-54270851D01*
X101974448Y-54134939D01*
X102393337Y-53882717D01*
X102767956Y-53565532D01*
X103086551Y-53193788D01*
X103337369Y-52777891D01*
X103477082Y-52447893D01*
X103609258Y-51969526D01*
X103666281Y-51484490D01*
X103646838Y-51006591D01*
X103549612Y-50549636D01*
X103533602Y-50499459D01*
X103342810Y-50048494D01*
X103082605Y-49631614D01*
X102762966Y-49260600D01*
X102393875Y-48947231D01*
X101985312Y-48703286D01*
X101758899Y-48602020D01*
X101325458Y-48458850D01*
X100894409Y-48388401D01*
X100444540Y-48386310D01*
X100259284Y-48404064D01*
X99766633Y-48508055D01*
X99305339Y-48688877D01*
X98883024Y-48941409D01*
X98507312Y-49260531D01*
X98185825Y-49641122D01*
X97926186Y-50078061D01*
X97837699Y-50270157D01*
X97728708Y-50566743D01*
X97662776Y-50859135D01*
X97634231Y-51176192D01*
X89071429Y-51176192D01*
X89071429Y-47930922D01*
X101899459Y-47930922D01*
X102187219Y-48065581D01*
X102241060Y-48091446D01*
X102648553Y-48329090D01*
X103037937Y-48626129D01*
X103386455Y-48963306D01*
X103671350Y-49321367D01*
X103860360Y-49630929D01*
X104090018Y-50136636D01*
X104240503Y-50663321D01*
X104311549Y-51202384D01*
X104307046Y-51484490D01*
X104302885Y-51745224D01*
X104214243Y-52283239D01*
X104045355Y-52807829D01*
X103795952Y-53310394D01*
X103604970Y-53591059D01*
X103323126Y-53919175D01*
X103001185Y-54223732D01*
X102660443Y-54484897D01*
X102322194Y-54682841D01*
X102244698Y-54724267D01*
X102152830Y-54787768D01*
X102117007Y-54834629D01*
X102121546Y-54856128D01*
X102170102Y-54948923D01*
X102263582Y-55086557D01*
X102391691Y-55256139D01*
X102544132Y-55444775D01*
X102710611Y-55639574D01*
X102880831Y-55827642D01*
X103044499Y-55996088D01*
X103120247Y-56069399D01*
X103695391Y-56558298D01*
X104320557Y-56978675D01*
X104989359Y-57327138D01*
X105695405Y-57600296D01*
X106432309Y-57794757D01*
X106508235Y-57808848D01*
X106764639Y-57843242D01*
X107073304Y-57870687D01*
X107411259Y-57890341D01*
X107755535Y-57901360D01*
X108083164Y-57902903D01*
X108371175Y-57894126D01*
X108596599Y-57874185D01*
X109293349Y-57741640D01*
X110017423Y-57522451D01*
X110704867Y-57228000D01*
X111350978Y-56861725D01*
X111951053Y-56427063D01*
X112500388Y-55927451D01*
X112994281Y-55366327D01*
X113428029Y-54747129D01*
X113796928Y-54073293D01*
X113807246Y-54051620D01*
X114082338Y-53372111D01*
X114278708Y-52666914D01*
X114396345Y-51944764D01*
X114435240Y-51214392D01*
X114395384Y-50484531D01*
X114276766Y-49763915D01*
X114079377Y-49061275D01*
X113803208Y-48385345D01*
X113458817Y-47745579D01*
X113031152Y-47117331D01*
X112544850Y-46552499D01*
X111999985Y-46051160D01*
X111396631Y-45613391D01*
X110734864Y-45239268D01*
X110605780Y-45176235D01*
X110217488Y-45000935D01*
X109852346Y-44862465D01*
X109475717Y-44748630D01*
X109052963Y-44647240D01*
X108948526Y-44627128D01*
X108642198Y-44586918D01*
X108283238Y-44559853D01*
X107894621Y-44546107D01*
X107499324Y-44545855D01*
X107120320Y-44559273D01*
X106780587Y-44586535D01*
X106503098Y-44627817D01*
X106426818Y-44643755D01*
X105743354Y-44828841D01*
X105071285Y-45084308D01*
X104431775Y-45401059D01*
X103845984Y-45769996D01*
X103492869Y-46044545D01*
X103066749Y-46434936D01*
X102660954Y-46868218D01*
X102296308Y-47321870D01*
X101993634Y-47773369D01*
X101899459Y-47930922D01*
X89071429Y-47930922D01*
X89071429Y-34030272D01*
X122074150Y-34030272D01*
X122074150Y-67292177D01*
X89071429Y-67292177D01*
G37*
D12*
%TO.C,REF\u002A\u002A*%
X45508700Y-44577500D02*
X45508700Y-45847500D01*
X61104300Y-53213500D02*
X46905700Y-53213500D01*
X46778700Y-45212500D02*
X45508700Y-44577500D01*
X46905700Y-42291500D02*
X61104300Y-42291500D01*
X45508700Y-45847500D02*
X46778700Y-45212500D01*
X46905700Y-53213500D02*
X46905700Y-42291500D01*
X61104300Y-42291500D02*
X61104300Y-53213500D01*
%TD*%
M02*
