%TF.GenerationSoftware,KiCad,Pcbnew,(6.0.8-1)-1*%
%TF.CreationDate,2022-11-01T09:45:00-04:00*%
%TF.ProjectId,Untitled,556e7469-746c-4656-942e-6b696361645f,rev?*%
%TF.SameCoordinates,Original*%
%TF.FileFunction,Drillmap*%
%TF.FilePolarity,Positive*%
%FSLAX45Y45*%
G04 Gerber Fmt 4.5, Leading zero omitted, Abs format (unit mm)*
G04 Created by KiCad (PCBNEW (6.0.8-1)-1) date 2022-11-01 09:45:00*
%MOMM*%
%LPD*%
G01*
G04 APERTURE LIST*
%ADD10C,0.100000*%
%ADD11C,0.200000*%
G04 APERTURE END LIST*
D10*
X7520000Y-5640000D02*
G75*
G03*
X7520000Y-5640000I-160000J0D01*
G01*
X4572000Y-3291000D02*
X12964000Y-3291000D01*
X12964000Y-3291000D02*
X12964000Y-8192000D01*
X12964000Y-8192000D02*
X4572000Y-8192000D01*
X4572000Y-8192000D02*
X4572000Y-3291000D01*
X7520000Y-6880000D02*
G75*
G03*
X7520000Y-6880000I-160000J0D01*
G01*
X7520000Y-4400000D02*
G75*
G03*
X7520000Y-4400000I-160000J0D01*
G01*
D11*
X4824619Y-8507476D02*
X4824619Y-8307476D01*
X4872238Y-8307476D01*
X4900810Y-8317000D01*
X4919857Y-8336048D01*
X4929381Y-8355095D01*
X4938905Y-8393190D01*
X4938905Y-8421762D01*
X4929381Y-8459857D01*
X4919857Y-8478905D01*
X4900810Y-8497952D01*
X4872238Y-8507476D01*
X4824619Y-8507476D01*
X5024619Y-8507476D02*
X5024619Y-8374143D01*
X5024619Y-8412238D02*
X5034143Y-8393190D01*
X5043667Y-8383667D01*
X5062714Y-8374143D01*
X5081762Y-8374143D01*
X5148429Y-8507476D02*
X5148429Y-8374143D01*
X5148429Y-8307476D02*
X5138905Y-8317000D01*
X5148429Y-8326524D01*
X5157952Y-8317000D01*
X5148429Y-8307476D01*
X5148429Y-8326524D01*
X5272238Y-8507476D02*
X5253190Y-8497952D01*
X5243667Y-8478905D01*
X5243667Y-8307476D01*
X5377000Y-8507476D02*
X5357952Y-8497952D01*
X5348429Y-8478905D01*
X5348429Y-8307476D01*
X5605571Y-8507476D02*
X5605571Y-8307476D01*
X5672238Y-8450333D01*
X5738905Y-8307476D01*
X5738905Y-8507476D01*
X5919857Y-8507476D02*
X5919857Y-8402714D01*
X5910333Y-8383667D01*
X5891286Y-8374143D01*
X5853190Y-8374143D01*
X5834143Y-8383667D01*
X5919857Y-8497952D02*
X5900809Y-8507476D01*
X5853190Y-8507476D01*
X5834143Y-8497952D01*
X5824619Y-8478905D01*
X5824619Y-8459857D01*
X5834143Y-8440810D01*
X5853190Y-8431286D01*
X5900809Y-8431286D01*
X5919857Y-8421762D01*
X6015095Y-8374143D02*
X6015095Y-8574143D01*
X6015095Y-8383667D02*
X6034143Y-8374143D01*
X6072238Y-8374143D01*
X6091286Y-8383667D01*
X6100809Y-8393190D01*
X6110333Y-8412238D01*
X6110333Y-8469381D01*
X6100809Y-8488429D01*
X6091286Y-8497952D01*
X6072238Y-8507476D01*
X6034143Y-8507476D01*
X6015095Y-8497952D01*
X6196048Y-8488429D02*
X6205571Y-8497952D01*
X6196048Y-8507476D01*
X6186524Y-8497952D01*
X6196048Y-8488429D01*
X6196048Y-8507476D01*
X6196048Y-8383667D02*
X6205571Y-8393190D01*
X6196048Y-8402714D01*
X6186524Y-8393190D01*
X6196048Y-8383667D01*
X6196048Y-8402714D01*
M02*
