%TF.GenerationSoftware,KiCad,Pcbnew,(6.0.8-1)-1*%
%TF.CreationDate,2022-11-01T09:45:04-04:00*%
%TF.ProjectId,Untitled,556e7469-746c-4656-942e-6b696361645f,rev?*%
%TF.SameCoordinates,Original*%
%TF.FileFunction,Copper,L2,Bot*%
%TF.FilePolarity,Positive*%
%FSLAX46Y46*%
G04 Gerber Fmt 4.6, Leading zero omitted, Abs format (unit mm)*
G04 Created by KiCad (PCBNEW (6.0.8-1)-1) date 2022-11-01 09:45:04*
%MOMM*%
%LPD*%
G01*
G04 APERTURE LIST*
%TA.AperFunction,ComponentPad*%
%ADD10R,1.397000X1.397000*%
%TD*%
%TA.AperFunction,ComponentPad*%
%ADD11C,1.397000*%
%TD*%
%TA.AperFunction,ComponentPad*%
%ADD12R,3.500000X3.500000*%
%TD*%
%TA.AperFunction,ComponentPad*%
%ADD13C,4.000000*%
%TD*%
%TA.AperFunction,ViaPad*%
%ADD14C,0.800000*%
%TD*%
%TA.AperFunction,Conductor*%
%ADD15C,0.250000*%
%TD*%
%TA.AperFunction,Conductor*%
%ADD16C,0.200000*%
%TD*%
G04 APERTURE END LIST*
D10*
%TO.P,REF\u002A\u002A,1*%
%TO.N,N/C*%
X59250100Y-41127500D03*
D11*
%TO.P,REF\u002A\u002A,2*%
X59250100Y-38587500D03*
%TO.P,REF\u002A\u002A,3*%
X59250100Y-36047500D03*
%TD*%
D12*
%TO.P,REF\u002A\u002A,1*%
%TO.N,N/C*%
X53335000Y-74200000D03*
D13*
%TO.P,REF\u002A\u002A,2*%
X58360000Y-79225000D03*
X58360000Y-69175000D03*
X48310000Y-79225000D03*
X48310000Y-69175000D03*
%TD*%
D10*
%TO.P,REF\u002A\u002A,1*%
%TO.N,N/C*%
X59250100Y-45212500D03*
D11*
%TO.P,REF\u002A\u002A,2*%
X59250100Y-47752500D03*
%TO.P,REF\u002A\u002A,3*%
X59250100Y-50292500D03*
%TD*%
D14*
%TO.N,*%
X105490000Y-62710000D03*
X69800000Y-41637506D03*
X105290000Y-60510000D03*
X72000000Y-36400000D03*
X103110000Y-61690000D03*
%TD*%
D15*
%TO.N,*%
X103110000Y-61690000D02*
X102410000Y-62390000D01*
X102410000Y-62390000D02*
X86790000Y-62390000D01*
X86790000Y-62390000D02*
X74800000Y-50400000D01*
X74800000Y-50400000D02*
X59357600Y-50400000D01*
X59357600Y-50400000D02*
X59250100Y-50292500D01*
X105130000Y-60510000D02*
X103110000Y-58490000D01*
X103110000Y-58490000D02*
X84490000Y-58490000D01*
X73800000Y-47800000D02*
X59297600Y-47800000D01*
X59297600Y-47800000D02*
X59250100Y-47752500D01*
X84490000Y-58490000D02*
X73800000Y-47800000D01*
D16*
X59250100Y-50292500D02*
X53492500Y-50292500D01*
X53492500Y-50292500D02*
X51600000Y-48400000D01*
X51600000Y-48400000D02*
X51600000Y-47800000D01*
D15*
X51600000Y-39490000D02*
X54532494Y-36557506D01*
X72000000Y-39437506D02*
X72000000Y-36400000D01*
D16*
X68587500Y-45212500D02*
X59250100Y-45212500D01*
X107690000Y-62710000D02*
X107690000Y-60670000D01*
D15*
X51600000Y-47800000D02*
X51600000Y-39490000D01*
D16*
X106410000Y-59390000D02*
X88220000Y-41200000D01*
X107690000Y-60670000D02*
X106410000Y-59390000D01*
X72200000Y-41200000D02*
X69600000Y-43800000D01*
X69600000Y-44200000D02*
X68587500Y-45212500D01*
X69600000Y-43800000D02*
X69600000Y-44200000D01*
X107690000Y-62710000D02*
X105490000Y-62710000D01*
D15*
X69800000Y-41637506D02*
X72000000Y-39437506D01*
D16*
X88220000Y-41200000D02*
X72200000Y-41200000D01*
D15*
X54532494Y-36557506D02*
X59270100Y-36557506D01*
%TD*%
M02*
