%TF.GenerationSoftware,KiCad,Pcbnew,(6.0.8-1)-1*%
%TF.CreationDate,2022-11-01T09:45:04-04:00*%
%TF.ProjectId,Untitled,556e7469-746c-4656-942e-6b696361645f,rev?*%
%TF.SameCoordinates,Original*%
%TF.FileFunction,Legend,Top*%
%TF.FilePolarity,Positive*%
%FSLAX46Y46*%
G04 Gerber Fmt 4.6, Leading zero omitted, Abs format (unit mm)*
G04 Created by KiCad (PCBNEW (6.0.8-1)-1) date 2022-11-01 09:45:04*
%MOMM*%
%LPD*%
G01*
G04 APERTURE LIST*
%ADD10C,0.150000*%
%ADD11C,0.300000*%
%ADD12C,0.120000*%
G04 APERTURE END LIST*
D10*
X79630000Y-32920000D02*
X79630000Y-81920000D01*
X127640000Y-81920000D02*
X127640000Y-32910000D01*
X63004761Y-40271428D02*
X63052380Y-40128571D01*
X63052380Y-39890476D01*
X63004761Y-39795238D01*
X62957142Y-39747619D01*
X62861904Y-39700000D01*
X62766666Y-39700000D01*
X62671428Y-39747619D01*
X62623809Y-39795238D01*
X62576190Y-39890476D01*
X62528571Y-40080952D01*
X62480952Y-40176190D01*
X62433333Y-40223809D01*
X62338095Y-40271428D01*
X62242857Y-40271428D01*
X62147619Y-40223809D01*
X62100000Y-40176190D01*
X62052380Y-40080952D01*
X62052380Y-39842857D01*
X62100000Y-39700000D01*
X63052380Y-39271428D02*
X62385714Y-39271428D01*
X62052380Y-39271428D02*
X62100000Y-39319047D01*
X62147619Y-39271428D01*
X62100000Y-39223809D01*
X62052380Y-39271428D01*
X62147619Y-39271428D01*
X63052380Y-38795238D02*
X62052380Y-38795238D01*
X62052380Y-38414285D01*
X62100000Y-38319047D01*
X62147619Y-38271428D01*
X62242857Y-38223809D01*
X62385714Y-38223809D01*
X62480952Y-38271428D01*
X62528571Y-38319047D01*
X62576190Y-38414285D01*
X62576190Y-38795238D01*
X63052380Y-37795238D02*
X62052380Y-37795238D01*
X62766666Y-37461904D01*
X62052380Y-37128571D01*
X63052380Y-37128571D01*
X63052380Y-36128571D02*
X63052380Y-36700000D01*
X63052380Y-36414285D02*
X62052380Y-36414285D01*
X62195238Y-36509523D01*
X62290476Y-36604761D01*
X62338095Y-36700000D01*
D11*
X111128571Y-72656071D02*
X111128571Y-71156071D01*
X111485714Y-71156071D01*
X111700000Y-71227500D01*
X111842857Y-71370357D01*
X111914285Y-71513214D01*
X111985714Y-71798928D01*
X111985714Y-72013214D01*
X111914285Y-72298928D01*
X111842857Y-72441785D01*
X111700000Y-72584642D01*
X111485714Y-72656071D01*
X111128571Y-72656071D01*
X113200000Y-72584642D02*
X113057142Y-72656071D01*
X112771428Y-72656071D01*
X112628571Y-72584642D01*
X112557142Y-72441785D01*
X112557142Y-71870357D01*
X112628571Y-71727500D01*
X112771428Y-71656071D01*
X113057142Y-71656071D01*
X113200000Y-71727500D01*
X113271428Y-71870357D01*
X113271428Y-72013214D01*
X112557142Y-72156071D01*
X113842857Y-72584642D02*
X113985714Y-72656071D01*
X114271428Y-72656071D01*
X114414285Y-72584642D01*
X114485714Y-72441785D01*
X114485714Y-72370357D01*
X114414285Y-72227500D01*
X114271428Y-72156071D01*
X114057142Y-72156071D01*
X113914285Y-72084642D01*
X113842857Y-71941785D01*
X113842857Y-71870357D01*
X113914285Y-71727500D01*
X114057142Y-71656071D01*
X114271428Y-71656071D01*
X114414285Y-71727500D01*
X115128571Y-72656071D02*
X115128571Y-71656071D01*
X115128571Y-71156071D02*
X115057142Y-71227500D01*
X115128571Y-71298928D01*
X115200000Y-71227500D01*
X115128571Y-71156071D01*
X115128571Y-71298928D01*
X116485714Y-71656071D02*
X116485714Y-72870357D01*
X116414285Y-73013214D01*
X116342857Y-73084642D01*
X116200000Y-73156071D01*
X115985714Y-73156071D01*
X115842857Y-73084642D01*
X116485714Y-72584642D02*
X116342857Y-72656071D01*
X116057142Y-72656071D01*
X115914285Y-72584642D01*
X115842857Y-72513214D01*
X115771428Y-72370357D01*
X115771428Y-71941785D01*
X115842857Y-71798928D01*
X115914285Y-71727500D01*
X116057142Y-71656071D01*
X116342857Y-71656071D01*
X116485714Y-71727500D01*
X117200000Y-71656071D02*
X117200000Y-72656071D01*
X117200000Y-71798928D02*
X117271428Y-71727500D01*
X117414285Y-71656071D01*
X117628571Y-71656071D01*
X117771428Y-71727500D01*
X117842857Y-71870357D01*
X117842857Y-72656071D01*
X119128571Y-72584642D02*
X118985714Y-72656071D01*
X118700000Y-72656071D01*
X118557142Y-72584642D01*
X118485714Y-72441785D01*
X118485714Y-71870357D01*
X118557142Y-71727500D01*
X118700000Y-71656071D01*
X118985714Y-71656071D01*
X119128571Y-71727500D01*
X119200000Y-71870357D01*
X119200000Y-72013214D01*
X118485714Y-72156071D01*
X120485714Y-72656071D02*
X120485714Y-71156071D01*
X120485714Y-72584642D02*
X120342857Y-72656071D01*
X120057142Y-72656071D01*
X119914285Y-72584642D01*
X119842857Y-72513214D01*
X119771428Y-72370357D01*
X119771428Y-71941785D01*
X119842857Y-71798928D01*
X119914285Y-71727500D01*
X120057142Y-71656071D01*
X120342857Y-71656071D01*
X120485714Y-71727500D01*
X122342857Y-72656071D02*
X122342857Y-71156071D01*
X122342857Y-71727500D02*
X122485714Y-71656071D01*
X122771428Y-71656071D01*
X122914285Y-71727500D01*
X122985714Y-71798928D01*
X123057142Y-71941785D01*
X123057142Y-72370357D01*
X122985714Y-72513214D01*
X122914285Y-72584642D01*
X122771428Y-72656071D01*
X122485714Y-72656071D01*
X122342857Y-72584642D01*
X123557142Y-71656071D02*
X123914285Y-72656071D01*
X124271428Y-71656071D02*
X123914285Y-72656071D01*
X123771428Y-73013214D01*
X123700000Y-73084642D01*
X123557142Y-73156071D01*
X110200000Y-74999642D02*
X110414285Y-75071071D01*
X110771428Y-75071071D01*
X110914285Y-74999642D01*
X110985714Y-74928214D01*
X111057142Y-74785357D01*
X111057142Y-74642500D01*
X110985714Y-74499642D01*
X110914285Y-74428214D01*
X110771428Y-74356785D01*
X110485714Y-74285357D01*
X110342857Y-74213928D01*
X110271428Y-74142500D01*
X110200000Y-73999642D01*
X110200000Y-73856785D01*
X110271428Y-73713928D01*
X110342857Y-73642500D01*
X110485714Y-73571071D01*
X110842857Y-73571071D01*
X111057142Y-73642500D01*
X112271428Y-74999642D02*
X112128571Y-75071071D01*
X111842857Y-75071071D01*
X111700000Y-74999642D01*
X111628571Y-74856785D01*
X111628571Y-74285357D01*
X111700000Y-74142500D01*
X111842857Y-74071071D01*
X112128571Y-74071071D01*
X112271428Y-74142500D01*
X112342857Y-74285357D01*
X112342857Y-74428214D01*
X111628571Y-74571071D01*
X112985714Y-75071071D02*
X112985714Y-73571071D01*
X112985714Y-74142500D02*
X113128571Y-74071071D01*
X113414285Y-74071071D01*
X113557142Y-74142500D01*
X113628571Y-74213928D01*
X113700000Y-74356785D01*
X113700000Y-74785357D01*
X113628571Y-74928214D01*
X113557142Y-74999642D01*
X113414285Y-75071071D01*
X113128571Y-75071071D01*
X112985714Y-74999642D01*
X114557142Y-75071071D02*
X114414285Y-74999642D01*
X114342857Y-74928214D01*
X114271428Y-74785357D01*
X114271428Y-74356785D01*
X114342857Y-74213928D01*
X114414285Y-74142500D01*
X114557142Y-74071071D01*
X114771428Y-74071071D01*
X114914285Y-74142500D01*
X114985714Y-74213928D01*
X115057142Y-74356785D01*
X115057142Y-74785357D01*
X114985714Y-74928214D01*
X114914285Y-74999642D01*
X114771428Y-75071071D01*
X114557142Y-75071071D01*
X116342857Y-74071071D02*
X116342857Y-75071071D01*
X115700000Y-74071071D02*
X115700000Y-74856785D01*
X115771428Y-74999642D01*
X115914285Y-75071071D01*
X116128571Y-75071071D01*
X116271428Y-74999642D01*
X116342857Y-74928214D01*
X117057142Y-75071071D02*
X117057142Y-73571071D01*
X117700000Y-75071071D02*
X117700000Y-74285357D01*
X117628571Y-74142500D01*
X117485714Y-74071071D01*
X117271428Y-74071071D01*
X117128571Y-74142500D01*
X117057142Y-74213928D01*
X119985714Y-73571071D02*
X119985714Y-74642500D01*
X119914285Y-74856785D01*
X119771428Y-74999642D01*
X119557142Y-75071071D01*
X119414285Y-75071071D01*
X121842857Y-75071071D02*
X121842857Y-73571071D01*
X122414285Y-73571071D01*
X122557142Y-73642500D01*
X122628571Y-73713928D01*
X122700000Y-73856785D01*
X122700000Y-74071071D01*
X122628571Y-74213928D01*
X122557142Y-74285357D01*
X122414285Y-74356785D01*
X121842857Y-74356785D01*
X123985714Y-75071071D02*
X123985714Y-74285357D01*
X123914285Y-74142500D01*
X123771428Y-74071071D01*
X123485714Y-74071071D01*
X123342857Y-74142500D01*
X123985714Y-74999642D02*
X123842857Y-75071071D01*
X123485714Y-75071071D01*
X123342857Y-74999642D01*
X123271428Y-74856785D01*
X123271428Y-74713928D01*
X123342857Y-74571071D01*
X123485714Y-74499642D01*
X123842857Y-74499642D01*
X123985714Y-74428214D01*
X125342857Y-74071071D02*
X125342857Y-75071071D01*
X124700000Y-74071071D02*
X124700000Y-74856785D01*
X124771428Y-74999642D01*
X124914285Y-75071071D01*
X125128571Y-75071071D01*
X125271428Y-74999642D01*
X125342857Y-74928214D01*
X126271428Y-75071071D02*
X126128571Y-74999642D01*
X126057142Y-74856785D01*
X126057142Y-73571071D01*
X112985714Y-78401071D02*
X113485714Y-79901071D01*
X113985714Y-78401071D01*
X115057142Y-79829642D02*
X114914285Y-79901071D01*
X114628571Y-79901071D01*
X114485714Y-79829642D01*
X114414285Y-79686785D01*
X114414285Y-79115357D01*
X114485714Y-78972500D01*
X114628571Y-78901071D01*
X114914285Y-78901071D01*
X115057142Y-78972500D01*
X115128571Y-79115357D01*
X115128571Y-79258214D01*
X114414285Y-79401071D01*
X115771428Y-79901071D02*
X115771428Y-78901071D01*
X115771428Y-79186785D02*
X115842857Y-79043928D01*
X115914285Y-78972500D01*
X116057142Y-78901071D01*
X116200000Y-78901071D01*
X116628571Y-79829642D02*
X116771428Y-79901071D01*
X117057142Y-79901071D01*
X117200000Y-79829642D01*
X117271428Y-79686785D01*
X117271428Y-79615357D01*
X117200000Y-79472500D01*
X117057142Y-79401071D01*
X116842857Y-79401071D01*
X116700000Y-79329642D01*
X116628571Y-79186785D01*
X116628571Y-79115357D01*
X116700000Y-78972500D01*
X116842857Y-78901071D01*
X117057142Y-78901071D01*
X117200000Y-78972500D01*
X117914285Y-79901071D02*
X117914285Y-78901071D01*
X117914285Y-78401071D02*
X117842857Y-78472500D01*
X117914285Y-78543928D01*
X117985714Y-78472500D01*
X117914285Y-78401071D01*
X117914285Y-78543928D01*
X118842857Y-79901071D02*
X118700000Y-79829642D01*
X118628571Y-79758214D01*
X118557142Y-79615357D01*
X118557142Y-79186785D01*
X118628571Y-79043928D01*
X118700000Y-78972500D01*
X118842857Y-78901071D01*
X119057142Y-78901071D01*
X119200000Y-78972500D01*
X119271428Y-79043928D01*
X119342857Y-79186785D01*
X119342857Y-79615357D01*
X119271428Y-79758214D01*
X119200000Y-79829642D01*
X119057142Y-79901071D01*
X118842857Y-79901071D01*
X119985714Y-78901071D02*
X119985714Y-79901071D01*
X119985714Y-79043928D02*
X120057142Y-78972500D01*
X120200000Y-78901071D01*
X120414285Y-78901071D01*
X120557142Y-78972500D01*
X120628571Y-79115357D01*
X120628571Y-79901071D01*
X122342857Y-78401071D02*
X123271428Y-78401071D01*
X122771428Y-78972500D01*
X122985714Y-78972500D01*
X123128571Y-79043928D01*
X123200000Y-79115357D01*
X123271428Y-79258214D01*
X123271428Y-79615357D01*
X123200000Y-79758214D01*
X123128571Y-79829642D01*
X122985714Y-79901071D01*
X122557142Y-79901071D01*
X122414285Y-79829642D01*
X122342857Y-79758214D01*
D10*
X104597142Y-49647142D02*
X102882857Y-49647142D01*
X103740000Y-49647142D02*
X103740000Y-46647142D01*
X103454285Y-47075714D01*
X103168571Y-47361428D01*
X102882857Y-47504285D01*
%TO.C,REF\u002A\u002A*%
X102406666Y-54222380D02*
X102073333Y-53746190D01*
X101835238Y-54222380D02*
X101835238Y-53222380D01*
X102216190Y-53222380D01*
X102311428Y-53270000D01*
X102359047Y-53317619D01*
X102406666Y-53412857D01*
X102406666Y-53555714D01*
X102359047Y-53650952D01*
X102311428Y-53698571D01*
X102216190Y-53746190D01*
X101835238Y-53746190D01*
X102835238Y-53698571D02*
X103168571Y-53698571D01*
X103311428Y-54222380D02*
X102835238Y-54222380D01*
X102835238Y-53222380D01*
X103311428Y-53222380D01*
X104073333Y-53698571D02*
X103740000Y-53698571D01*
X103740000Y-54222380D02*
X103740000Y-53222380D01*
X104216190Y-53222380D01*
X104740000Y-53222380D02*
X104740000Y-53460476D01*
X104501904Y-53365238D02*
X104740000Y-53460476D01*
X104978095Y-53365238D01*
X104597142Y-53650952D02*
X104740000Y-53460476D01*
X104882857Y-53650952D01*
X105501904Y-53222380D02*
X105501904Y-53460476D01*
X105263809Y-53365238D02*
X105501904Y-53460476D01*
X105740000Y-53365238D01*
X105359047Y-53650952D02*
X105501904Y-53460476D01*
X105644761Y-53650952D01*
%TO.C,*%
%TO.C,REF\u002A\u002A*%
X102406666Y-61552380D02*
X102073333Y-61076190D01*
X101835238Y-61552380D02*
X101835238Y-60552380D01*
X102216190Y-60552380D01*
X102311428Y-60600000D01*
X102359047Y-60647619D01*
X102406666Y-60742857D01*
X102406666Y-60885714D01*
X102359047Y-60980952D01*
X102311428Y-61028571D01*
X102216190Y-61076190D01*
X101835238Y-61076190D01*
X102835238Y-61028571D02*
X103168571Y-61028571D01*
X103311428Y-61552380D02*
X102835238Y-61552380D01*
X102835238Y-60552380D01*
X103311428Y-60552380D01*
X104073333Y-61028571D02*
X103740000Y-61028571D01*
X103740000Y-61552380D02*
X103740000Y-60552380D01*
X104216190Y-60552380D01*
X104740000Y-60552380D02*
X104740000Y-60790476D01*
X104501904Y-60695238D02*
X104740000Y-60790476D01*
X104978095Y-60695238D01*
X104597142Y-60980952D02*
X104740000Y-60790476D01*
X104882857Y-60980952D01*
X105501904Y-60552380D02*
X105501904Y-60790476D01*
X105263809Y-60695238D02*
X105501904Y-60790476D01*
X105740000Y-60695238D01*
X105359047Y-60980952D02*
X105501904Y-60790476D01*
X105644761Y-60980952D01*
X67026666Y-34612380D02*
X66693333Y-34136190D01*
X66455238Y-34612380D02*
X66455238Y-33612380D01*
X66836190Y-33612380D01*
X66931428Y-33660000D01*
X66979047Y-33707619D01*
X67026666Y-33802857D01*
X67026666Y-33945714D01*
X66979047Y-34040952D01*
X66931428Y-34088571D01*
X66836190Y-34136190D01*
X66455238Y-34136190D01*
X67455238Y-34088571D02*
X67788571Y-34088571D01*
X67931428Y-34612380D02*
X67455238Y-34612380D01*
X67455238Y-33612380D01*
X67931428Y-33612380D01*
X68693333Y-34088571D02*
X68360000Y-34088571D01*
X68360000Y-34612380D02*
X68360000Y-33612380D01*
X68836190Y-33612380D01*
X69360000Y-33612380D02*
X69360000Y-33850476D01*
X69121904Y-33755238D02*
X69360000Y-33850476D01*
X69598095Y-33755238D01*
X69217142Y-34040952D02*
X69360000Y-33850476D01*
X69502857Y-34040952D01*
X70121904Y-33612380D02*
X70121904Y-33850476D01*
X69883809Y-33755238D02*
X70121904Y-33850476D01*
X70360000Y-33755238D01*
X69979047Y-34040952D02*
X70121904Y-33850476D01*
X70264761Y-34040952D01*
X62389166Y-74894880D02*
X62055833Y-74418690D01*
X61817738Y-74894880D02*
X61817738Y-73894880D01*
X62198690Y-73894880D01*
X62293928Y-73942500D01*
X62341547Y-73990119D01*
X62389166Y-74085357D01*
X62389166Y-74228214D01*
X62341547Y-74323452D01*
X62293928Y-74371071D01*
X62198690Y-74418690D01*
X61817738Y-74418690D01*
X62817738Y-74371071D02*
X63151071Y-74371071D01*
X63293928Y-74894880D02*
X62817738Y-74894880D01*
X62817738Y-73894880D01*
X63293928Y-73894880D01*
X64055833Y-74371071D02*
X63722500Y-74371071D01*
X63722500Y-74894880D02*
X63722500Y-73894880D01*
X64198690Y-73894880D01*
X64722500Y-73894880D02*
X64722500Y-74132976D01*
X64484404Y-74037738D02*
X64722500Y-74132976D01*
X64960595Y-74037738D01*
X64579642Y-74323452D02*
X64722500Y-74132976D01*
X64865357Y-74323452D01*
X65484404Y-73894880D02*
X65484404Y-74132976D01*
X65246309Y-74037738D02*
X65484404Y-74132976D01*
X65722500Y-74037738D01*
X65341547Y-74323452D02*
X65484404Y-74132976D01*
X65627261Y-74323452D01*
X59702480Y-39920833D02*
X59226290Y-40254166D01*
X59702480Y-40492261D02*
X58702480Y-40492261D01*
X58702480Y-40111309D01*
X58750100Y-40016071D01*
X58797719Y-39968452D01*
X58892957Y-39920833D01*
X59035814Y-39920833D01*
X59131052Y-39968452D01*
X59178671Y-40016071D01*
X59226290Y-40111309D01*
X59226290Y-40492261D01*
X59178671Y-39492261D02*
X59178671Y-39158928D01*
X59702480Y-39016071D02*
X59702480Y-39492261D01*
X58702480Y-39492261D01*
X58702480Y-39016071D01*
X59178671Y-38254166D02*
X59178671Y-38587500D01*
X59702480Y-38587500D02*
X58702480Y-38587500D01*
X58702480Y-38111309D01*
X58702480Y-37587500D02*
X58940576Y-37587500D01*
X58845338Y-37825595D02*
X58940576Y-37587500D01*
X58845338Y-37349404D01*
X59131052Y-37730357D02*
X58940576Y-37587500D01*
X59131052Y-37444642D01*
X58702480Y-36825595D02*
X58940576Y-36825595D01*
X58845338Y-37063690D02*
X58940576Y-36825595D01*
X58845338Y-36587500D01*
X59131052Y-36968452D02*
X58940576Y-36825595D01*
X59131052Y-36682738D01*
X59607242Y-46992261D02*
X59654861Y-47039880D01*
X59702480Y-47182738D01*
X59702480Y-47277976D01*
X59654861Y-47420833D01*
X59559623Y-47516071D01*
X59464385Y-47563690D01*
X59273909Y-47611309D01*
X59131052Y-47611309D01*
X58940576Y-47563690D01*
X58845338Y-47516071D01*
X58750100Y-47420833D01*
X58702480Y-47277976D01*
X58702480Y-47182738D01*
X58750100Y-47039880D01*
X58797719Y-46992261D01*
X58702480Y-46373214D02*
X58702480Y-46182738D01*
X58750100Y-46087500D01*
X58845338Y-45992261D01*
X59035814Y-45944642D01*
X59369147Y-45944642D01*
X59559623Y-45992261D01*
X59654861Y-46087500D01*
X59702480Y-46182738D01*
X59702480Y-46373214D01*
X59654861Y-46468452D01*
X59559623Y-46563690D01*
X59369147Y-46611309D01*
X59035814Y-46611309D01*
X58845338Y-46563690D01*
X58750100Y-46468452D01*
X58702480Y-46373214D01*
X59702480Y-45516071D02*
X58702480Y-45516071D01*
X59702480Y-44944642D01*
X58702480Y-44944642D01*
X59702480Y-44468452D02*
X58702480Y-44468452D01*
X59702480Y-43897023D01*
X58702480Y-43897023D01*
X59797719Y-43658928D02*
X59797719Y-42897023D01*
X58702480Y-42754166D02*
X58702480Y-42135119D01*
X59083433Y-42468452D01*
X59083433Y-42325595D01*
X59131052Y-42230357D01*
X59178671Y-42182738D01*
X59273909Y-42135119D01*
X59512004Y-42135119D01*
X59607242Y-42182738D01*
X59654861Y-42230357D01*
X59702480Y-42325595D01*
X59702480Y-42611309D01*
X59654861Y-42706547D01*
X59607242Y-42754166D01*
X59321528Y-41706547D02*
X59321528Y-40944642D01*
X59702480Y-39944642D02*
X59702480Y-40516071D01*
X59702480Y-40230357D02*
X58702480Y-40230357D01*
X58845338Y-40325595D01*
X58940576Y-40420833D01*
X58988195Y-40516071D01*
X58702480Y-39325595D02*
X58702480Y-39230357D01*
X58750100Y-39135119D01*
X58797719Y-39087500D01*
X58892957Y-39039880D01*
X59083433Y-38992261D01*
X59321528Y-38992261D01*
X59512004Y-39039880D01*
X59607242Y-39087500D01*
X59654861Y-39135119D01*
X59702480Y-39230357D01*
X59702480Y-39325595D01*
X59654861Y-39420833D01*
X59607242Y-39468452D01*
X59512004Y-39516071D01*
X59321528Y-39563690D01*
X59083433Y-39563690D01*
X58892957Y-39516071D01*
X58797719Y-39468452D01*
X58750100Y-39420833D01*
X58702480Y-39325595D01*
X58797719Y-38611309D02*
X58750100Y-38563690D01*
X58702480Y-38468452D01*
X58702480Y-38230357D01*
X58750100Y-38135119D01*
X58797719Y-38087500D01*
X58892957Y-38039880D01*
X58988195Y-38039880D01*
X59131052Y-38087500D01*
X59702480Y-38658928D01*
X59702480Y-38039880D01*
X58797719Y-37658928D02*
X58750100Y-37611309D01*
X58702480Y-37516071D01*
X58702480Y-37277976D01*
X58750100Y-37182738D01*
X58797719Y-37135119D01*
X58892957Y-37087500D01*
X58988195Y-37087500D01*
X59131052Y-37135119D01*
X59702480Y-37706547D01*
X59702480Y-37087500D01*
X58702480Y-36468452D02*
X58702480Y-36373214D01*
X58750100Y-36277976D01*
X58797719Y-36230357D01*
X58892957Y-36182738D01*
X59083433Y-36135119D01*
X59321528Y-36135119D01*
X59512004Y-36182738D01*
X59607242Y-36230357D01*
X59654861Y-36277976D01*
X59702480Y-36373214D01*
X59702480Y-36468452D01*
X59654861Y-36563690D01*
X59607242Y-36611309D01*
X59512004Y-36658928D01*
X59321528Y-36706547D01*
X59083433Y-36706547D01*
X58892957Y-36658928D01*
X58797719Y-36611309D01*
X58750100Y-36563690D01*
X58702480Y-36468452D01*
X58702480Y-35801785D02*
X58702480Y-35182738D01*
X59083433Y-35516071D01*
X59083433Y-35373214D01*
X59131052Y-35277976D01*
X59178671Y-35230357D01*
X59273909Y-35182738D01*
X59512004Y-35182738D01*
X59607242Y-35230357D01*
X59654861Y-35277976D01*
X59702480Y-35373214D01*
X59702480Y-35658928D01*
X59654861Y-35754166D01*
X59607242Y-35801785D01*
X59321528Y-34754166D02*
X59321528Y-33992261D01*
X59035814Y-33087500D02*
X59702480Y-33087500D01*
X58654861Y-33325595D02*
X59369147Y-33563690D01*
X59369147Y-32944642D01*
X59797719Y-32801785D02*
X59797719Y-32039880D01*
X58702480Y-31944642D02*
X58702480Y-31373214D01*
X59702480Y-31658928D02*
X58702480Y-31658928D01*
X59178671Y-31039880D02*
X59178671Y-30706547D01*
X59702480Y-30563690D02*
X59702480Y-31039880D01*
X58702480Y-31039880D01*
X58702480Y-30563690D01*
X59607242Y-29563690D02*
X59654861Y-29611309D01*
X59702480Y-29754166D01*
X59702480Y-29849404D01*
X59654861Y-29992261D01*
X59559623Y-30087500D01*
X59464385Y-30135119D01*
X59273909Y-30182738D01*
X59131052Y-30182738D01*
X58940576Y-30135119D01*
X58845338Y-30087500D01*
X58750100Y-29992261D01*
X58702480Y-29849404D01*
X58702480Y-29754166D01*
X58750100Y-29611309D01*
X58797719Y-29563690D01*
X58702480Y-41127500D02*
X58940576Y-41127500D01*
X58845338Y-41365595D02*
X58940576Y-41127500D01*
X58845338Y-40889404D01*
X59131052Y-41270357D02*
X58940576Y-41127500D01*
X59131052Y-40984642D01*
X62087380Y-75533333D02*
X61611190Y-75866666D01*
X62087380Y-76104761D02*
X61087380Y-76104761D01*
X61087380Y-75723809D01*
X61135000Y-75628571D01*
X61182619Y-75580952D01*
X61277857Y-75533333D01*
X61420714Y-75533333D01*
X61515952Y-75580952D01*
X61563571Y-75628571D01*
X61611190Y-75723809D01*
X61611190Y-76104761D01*
X61563571Y-75104761D02*
X61563571Y-74771428D01*
X62087380Y-74628571D02*
X62087380Y-75104761D01*
X61087380Y-75104761D01*
X61087380Y-74628571D01*
X61563571Y-73866666D02*
X61563571Y-74200000D01*
X62087380Y-74200000D02*
X61087380Y-74200000D01*
X61087380Y-73723809D01*
X61087380Y-73200000D02*
X61325476Y-73200000D01*
X61230238Y-73438095D02*
X61325476Y-73200000D01*
X61230238Y-72961904D01*
X61515952Y-73342857D02*
X61325476Y-73200000D01*
X61515952Y-73057142D01*
X61087380Y-72438095D02*
X61325476Y-72438095D01*
X61230238Y-72676190D02*
X61325476Y-72438095D01*
X61230238Y-72200000D01*
X61515952Y-72580952D02*
X61325476Y-72438095D01*
X61515952Y-72295238D01*
%TO.C,*%
%TO.C,REF\u002A\u002A*%
X102406666Y-57962380D02*
X102073333Y-57486190D01*
X101835238Y-57962380D02*
X101835238Y-56962380D01*
X102216190Y-56962380D01*
X102311428Y-57010000D01*
X102359047Y-57057619D01*
X102406666Y-57152857D01*
X102406666Y-57295714D01*
X102359047Y-57390952D01*
X102311428Y-57438571D01*
X102216190Y-57486190D01*
X101835238Y-57486190D01*
X102835238Y-57438571D02*
X103168571Y-57438571D01*
X103311428Y-57962380D02*
X102835238Y-57962380D01*
X102835238Y-56962380D01*
X103311428Y-56962380D01*
X104073333Y-57438571D02*
X103740000Y-57438571D01*
X103740000Y-57962380D02*
X103740000Y-56962380D01*
X104216190Y-56962380D01*
X104740000Y-56962380D02*
X104740000Y-57200476D01*
X104501904Y-57105238D02*
X104740000Y-57200476D01*
X104978095Y-57105238D01*
X104597142Y-57390952D02*
X104740000Y-57200476D01*
X104882857Y-57390952D01*
X105501904Y-56962380D02*
X105501904Y-57200476D01*
X105263809Y-57105238D02*
X105501904Y-57200476D01*
X105740000Y-57105238D01*
X105359047Y-57390952D02*
X105501904Y-57200476D01*
X105644761Y-57390952D01*
%TO.C,G\u002A\u002A\u002A*%
G36*
X90854198Y-64093662D02*
G01*
X90994480Y-64094124D01*
X91130735Y-64095381D01*
X91258291Y-64097329D01*
X91372474Y-64099867D01*
X91468611Y-64102893D01*
X91542029Y-64106306D01*
X91584764Y-64109616D01*
X91775105Y-64142352D01*
X91941786Y-64195460D01*
X92084591Y-64268775D01*
X92203302Y-64362131D01*
X92297702Y-64475364D01*
X92367574Y-64608307D01*
X92406867Y-64733863D01*
X92413557Y-64767257D01*
X92418865Y-64805845D01*
X92422892Y-64853144D01*
X92425737Y-64912669D01*
X92427501Y-64987935D01*
X92428284Y-65082459D01*
X92428184Y-65199755D01*
X92427304Y-65343339D01*
X92426591Y-65427260D01*
X92425163Y-65578968D01*
X92423756Y-65702582D01*
X92422150Y-65801600D01*
X92420124Y-65879520D01*
X92417459Y-65939839D01*
X92413936Y-65986054D01*
X92409334Y-66021664D01*
X92403434Y-66050166D01*
X92396016Y-66075057D01*
X92386860Y-66099835D01*
X92383837Y-66107525D01*
X92317235Y-66244877D01*
X92233716Y-66358586D01*
X92128719Y-66454086D01*
X92046798Y-66508967D01*
X92010703Y-66533391D01*
X91989719Y-66552962D01*
X91987563Y-66557809D01*
X91992482Y-66574813D01*
X92006644Y-66619051D01*
X92029154Y-66687835D01*
X92059121Y-66778479D01*
X92095649Y-66888294D01*
X92137846Y-67014593D01*
X92184817Y-67154689D01*
X92235670Y-67305894D01*
X92279789Y-67436732D01*
X92333208Y-67595310D01*
X92383475Y-67745199D01*
X92429694Y-67883683D01*
X92470969Y-68008047D01*
X92506406Y-68115574D01*
X92535107Y-68203548D01*
X92556177Y-68269253D01*
X92568720Y-68309973D01*
X92572015Y-68322797D01*
X92565997Y-68329562D01*
X92545769Y-68334537D01*
X92508074Y-68337868D01*
X92449653Y-68339704D01*
X92367247Y-68340193D01*
X92257598Y-68339482D01*
X92214892Y-68339010D01*
X91857769Y-68334764D01*
X91645944Y-67671331D01*
X91599243Y-67525000D01*
X91553459Y-67381426D01*
X91509935Y-67244825D01*
X91470013Y-67119416D01*
X91435035Y-67009415D01*
X91406344Y-66919039D01*
X91385280Y-66852505D01*
X91378247Y-66830193D01*
X91322374Y-66652488D01*
X90976617Y-66652488D01*
X90976617Y-68342662D01*
X90265796Y-68342662D01*
X90265796Y-66036443D01*
X90976617Y-66036443D01*
X91209609Y-66036355D01*
X91297522Y-66035222D01*
X91378919Y-66032171D01*
X91446285Y-66027624D01*
X91492104Y-66022006D01*
X91501344Y-66019952D01*
X91580529Y-65982657D01*
X91647684Y-65921563D01*
X91689339Y-65855442D01*
X91698283Y-65832824D01*
X91705198Y-65806417D01*
X91710340Y-65772065D01*
X91713962Y-65725617D01*
X91716317Y-65662919D01*
X91717659Y-65579817D01*
X91718243Y-65472157D01*
X91718336Y-65380908D01*
X91717945Y-65242268D01*
X91716282Y-65131279D01*
X91712614Y-65044008D01*
X91706208Y-64976517D01*
X91696333Y-64924873D01*
X91682254Y-64885140D01*
X91663238Y-64853383D01*
X91638554Y-64825666D01*
X91610215Y-64800358D01*
X91573022Y-64773351D01*
X91531342Y-64753496D01*
X91479789Y-64739787D01*
X91412976Y-64731216D01*
X91325515Y-64726778D01*
X91212020Y-64725463D01*
X91209609Y-64725462D01*
X90976617Y-64725373D01*
X90976617Y-66036443D01*
X90265796Y-66036443D01*
X90265796Y-64093533D01*
X90854198Y-64093662D01*
G37*
G36*
X106061816Y-68342662D02*
G01*
X105350995Y-68342662D01*
X105350995Y-64093533D01*
X106061816Y-64093533D01*
X106061816Y-68342662D01*
G37*
G36*
X89029827Y-68835291D02*
G01*
X89033212Y-68869397D01*
X89033707Y-68909322D01*
X89030339Y-68969774D01*
X89020944Y-69007781D01*
X89013962Y-69016794D01*
X88996814Y-69025400D01*
X88952926Y-69046599D01*
X88883988Y-69079593D01*
X88791692Y-69123581D01*
X88677729Y-69177767D01*
X88543790Y-69241351D01*
X88391566Y-69313536D01*
X88222750Y-69393522D01*
X88039031Y-69480512D01*
X87842102Y-69573707D01*
X87633654Y-69672308D01*
X87415378Y-69775518D01*
X87188965Y-69882538D01*
X86956107Y-69992569D01*
X86718494Y-70104812D01*
X86477819Y-70218471D01*
X86235773Y-70332745D01*
X85994046Y-70446837D01*
X85754331Y-70559949D01*
X85518317Y-70671281D01*
X85287698Y-70780036D01*
X85064164Y-70885414D01*
X84849406Y-70986619D01*
X84645115Y-71082850D01*
X84452984Y-71173311D01*
X84274703Y-71257202D01*
X84111963Y-71333724D01*
X83966456Y-71402081D01*
X83839873Y-71461472D01*
X83733906Y-71511100D01*
X83650245Y-71550166D01*
X83590582Y-71577873D01*
X83556609Y-71593420D01*
X83549023Y-71596642D01*
X83546452Y-71581378D01*
X83544062Y-71537715D01*
X83541910Y-71468845D01*
X83540054Y-71377961D01*
X83538550Y-71268256D01*
X83537455Y-71142921D01*
X83536825Y-71005150D01*
X83536692Y-70903538D01*
X83536692Y-70210433D01*
X83643315Y-70183840D01*
X83682818Y-70173922D01*
X83749587Y-70157076D01*
X83841721Y-70133785D01*
X83957320Y-70104531D01*
X84094483Y-70069798D01*
X84251308Y-70030066D01*
X84425894Y-69985820D01*
X84616341Y-69937542D01*
X84820748Y-69885713D01*
X85037213Y-69830816D01*
X85263836Y-69773335D01*
X85498716Y-69713750D01*
X85739951Y-69652546D01*
X85985641Y-69590204D01*
X86233884Y-69527207D01*
X86482781Y-69464037D01*
X86730429Y-69401176D01*
X86974928Y-69339108D01*
X87214377Y-69278315D01*
X87446875Y-69219279D01*
X87670520Y-69162482D01*
X87883413Y-69108408D01*
X88083651Y-69057538D01*
X88269335Y-69010355D01*
X88438563Y-68967342D01*
X88589433Y-68928981D01*
X88720046Y-68895755D01*
X88828500Y-68868145D01*
X88912893Y-68846635D01*
X88971326Y-68831707D01*
X89001897Y-68823844D01*
X89006064Y-68822737D01*
X89021456Y-68821864D01*
X89029827Y-68835291D01*
G37*
G36*
X111574627Y-64725373D02*
G01*
X110421518Y-64725373D01*
X110421518Y-65878483D01*
X111385075Y-65878483D01*
X111385075Y-66494528D01*
X110421518Y-66494528D01*
X110421518Y-67710821D01*
X111590423Y-67710821D01*
X111590423Y-68342662D01*
X109710697Y-68342662D01*
X109710697Y-64093533D01*
X111574627Y-64093533D01*
X111574627Y-64725373D01*
G37*
G36*
X96554808Y-64094007D02*
G01*
X96644953Y-64095534D01*
X96709057Y-64098271D01*
X96749890Y-64102372D01*
X96770222Y-64107994D01*
X96773757Y-64112569D01*
X96770880Y-64130118D01*
X96762476Y-64176899D01*
X96748883Y-64251101D01*
X96730439Y-64350914D01*
X96707483Y-64474526D01*
X96680353Y-64620128D01*
X96649388Y-64785907D01*
X96614925Y-64970053D01*
X96577304Y-65170756D01*
X96536863Y-65386205D01*
X96493939Y-65614589D01*
X96448873Y-65854096D01*
X96402001Y-66102918D01*
X96378856Y-66225681D01*
X96331253Y-66478194D01*
X96285290Y-66722168D01*
X96241306Y-66955800D01*
X96199639Y-67177289D01*
X96160626Y-67384832D01*
X96124605Y-67576628D01*
X96091915Y-67750873D01*
X96062894Y-67905766D01*
X96037879Y-68039505D01*
X96017209Y-68150288D01*
X96001221Y-68236311D01*
X95990254Y-68295774D01*
X95984645Y-68326874D01*
X95983956Y-68331210D01*
X95968865Y-68334340D01*
X95926412Y-68337144D01*
X95860827Y-68339500D01*
X95776339Y-68341283D01*
X95677177Y-68342373D01*
X95589055Y-68342662D01*
X95481112Y-68342223D01*
X95384419Y-68340988D01*
X95303205Y-68339080D01*
X95241700Y-68336622D01*
X95204132Y-68333738D01*
X95194155Y-68331174D01*
X95191281Y-68314547D01*
X95182884Y-68268679D01*
X95169302Y-68195371D01*
X95150874Y-68096426D01*
X95127937Y-67973645D01*
X95100829Y-67828832D01*
X95069888Y-67663788D01*
X95035451Y-67480314D01*
X94997858Y-67280214D01*
X94957446Y-67065289D01*
X94914552Y-66837342D01*
X94869515Y-66598174D01*
X94822673Y-66349588D01*
X94799254Y-66225367D01*
X94751635Y-65972687D01*
X94705658Y-65728446D01*
X94661661Y-65494457D01*
X94619983Y-65272528D01*
X94580961Y-65064472D01*
X94544934Y-64872099D01*
X94512241Y-64697220D01*
X94483220Y-64541644D01*
X94458208Y-64407184D01*
X94437545Y-64295649D01*
X94421569Y-64208851D01*
X94410619Y-64148599D01*
X94405031Y-64116705D01*
X94404354Y-64111994D01*
X94412236Y-64105596D01*
X94437764Y-64100932D01*
X94483764Y-64097888D01*
X94553057Y-64096346D01*
X94648470Y-64096189D01*
X94763211Y-64097185D01*
X95122069Y-64101431D01*
X95360345Y-65629213D01*
X95394046Y-65844887D01*
X95426478Y-66051644D01*
X95457301Y-66247358D01*
X95486174Y-66429902D01*
X95512757Y-66597151D01*
X95536709Y-66746978D01*
X95557690Y-66877256D01*
X95575360Y-66985859D01*
X95589377Y-67070661D01*
X95599402Y-67129535D01*
X95605094Y-67160356D01*
X95606196Y-67164571D01*
X95609642Y-67150407D01*
X95617560Y-67107136D01*
X95629611Y-67036872D01*
X95645451Y-66941731D01*
X95664741Y-66823828D01*
X95687139Y-66685279D01*
X95712304Y-66528199D01*
X95739894Y-66354703D01*
X95769568Y-66166906D01*
X95800985Y-65966924D01*
X95833803Y-65756872D01*
X95847577Y-65668380D01*
X95880981Y-65453718D01*
X95913128Y-65247485D01*
X95943673Y-65051878D01*
X95972269Y-64869093D01*
X95998573Y-64701328D01*
X96022237Y-64550780D01*
X96042917Y-64419645D01*
X96060267Y-64310119D01*
X96073942Y-64224400D01*
X96083595Y-64164684D01*
X96088883Y-64133169D01*
X96089668Y-64129074D01*
X96093079Y-64117356D01*
X96099800Y-64108547D01*
X96113871Y-64102231D01*
X96139333Y-64097993D01*
X96180227Y-64095419D01*
X96240593Y-64094095D01*
X96324471Y-64093604D01*
X96435855Y-64093533D01*
X96554808Y-64094007D01*
G37*
G36*
X107416325Y-64093662D02*
G01*
X107617952Y-64094365D01*
X107791286Y-64096635D01*
X107939604Y-64100859D01*
X108066185Y-64107424D01*
X108174305Y-64116719D01*
X108267241Y-64129129D01*
X108348272Y-64145043D01*
X108420674Y-64164847D01*
X108487724Y-64188929D01*
X108552701Y-64217675D01*
X108580031Y-64231167D01*
X108663108Y-64284399D01*
X108747649Y-64357514D01*
X108823878Y-64440872D01*
X108882021Y-64524830D01*
X108887039Y-64533963D01*
X108903180Y-64564298D01*
X108917414Y-64592403D01*
X108929863Y-64620365D01*
X108940644Y-64650273D01*
X108949878Y-64684216D01*
X108957685Y-64724281D01*
X108964185Y-64772557D01*
X108969497Y-64831132D01*
X108973741Y-64902095D01*
X108977036Y-64987533D01*
X108979503Y-65089535D01*
X108981262Y-65210190D01*
X108982431Y-65351585D01*
X108983131Y-65515809D01*
X108983482Y-65704950D01*
X108983603Y-65921096D01*
X108983614Y-66166336D01*
X108983613Y-66218097D01*
X108983612Y-66469265D01*
X108983528Y-66690932D01*
X108983238Y-66885190D01*
X108982621Y-67054131D01*
X108981553Y-67199846D01*
X108979914Y-67324427D01*
X108977581Y-67429966D01*
X108974432Y-67518554D01*
X108970345Y-67592283D01*
X108965197Y-67653244D01*
X108958866Y-67703529D01*
X108951231Y-67745229D01*
X108942169Y-67780437D01*
X108931558Y-67811243D01*
X108919276Y-67839740D01*
X108905201Y-67868019D01*
X108889210Y-67898171D01*
X108885055Y-67905954D01*
X108803212Y-68026242D01*
X108695892Y-68128406D01*
X108563871Y-68211893D01*
X108407925Y-68276150D01*
X108334665Y-68297483D01*
X108300750Y-68305857D01*
X108267252Y-68312811D01*
X108230811Y-68318515D01*
X108188071Y-68323137D01*
X108135674Y-68326847D01*
X108070262Y-68329814D01*
X107988476Y-68332206D01*
X107886959Y-68334194D01*
X107762353Y-68335945D01*
X107611300Y-68337630D01*
X107518999Y-68338557D01*
X106835821Y-68345270D01*
X106835821Y-67710821D01*
X107546642Y-67710821D01*
X107771735Y-67710733D01*
X107858338Y-67709560D01*
X107938515Y-67706405D01*
X108004541Y-67701716D01*
X108048692Y-67695938D01*
X108055573Y-67694330D01*
X108134758Y-67657035D01*
X108201913Y-67595941D01*
X108243568Y-67529820D01*
X108248878Y-67516772D01*
X108253499Y-67501158D01*
X108257479Y-67480823D01*
X108260865Y-67453611D01*
X108263705Y-67417368D01*
X108266047Y-67369940D01*
X108267939Y-67309170D01*
X108269427Y-67232905D01*
X108270560Y-67138989D01*
X108271385Y-67025268D01*
X108271949Y-66889586D01*
X108272302Y-66729788D01*
X108272489Y-66543721D01*
X108272559Y-66329228D01*
X108272565Y-66218097D01*
X108272534Y-65989514D01*
X108272407Y-65790368D01*
X108272138Y-65618504D01*
X108271679Y-65471768D01*
X108270982Y-65348003D01*
X108270000Y-65245056D01*
X108268685Y-65160772D01*
X108266989Y-65092995D01*
X108264864Y-65039571D01*
X108262264Y-64998345D01*
X108259140Y-64967161D01*
X108255445Y-64943865D01*
X108251131Y-64926303D01*
X108246150Y-64912318D01*
X108243568Y-64906374D01*
X108193826Y-64830848D01*
X108124529Y-64772536D01*
X108055573Y-64741865D01*
X108018299Y-64735879D01*
X107957162Y-64730867D01*
X107879888Y-64727275D01*
X107794201Y-64725549D01*
X107771735Y-64725462D01*
X107546642Y-64725373D01*
X107546642Y-67710821D01*
X106835821Y-67710821D01*
X106835821Y-64093533D01*
X107416325Y-64093662D01*
G37*
G36*
X93883085Y-68342662D02*
G01*
X93172264Y-68342662D01*
X93172264Y-64093533D01*
X93883085Y-64093533D01*
X93883085Y-68342662D01*
G37*
G36*
X98207245Y-64097355D02*
G01*
X99135262Y-64101431D01*
X99139545Y-64413402D01*
X99143827Y-64725373D01*
X97974254Y-64725373D01*
X97974254Y-65878483D01*
X98953607Y-65878483D01*
X98953607Y-66494071D01*
X98467880Y-66498248D01*
X97982152Y-66502426D01*
X97978015Y-67106623D01*
X97973879Y-67710821D01*
X99158956Y-67710821D01*
X99158956Y-68342662D01*
X97279229Y-68342662D01*
X97279229Y-64093280D01*
X98207245Y-64097355D01*
G37*
G36*
X81653017Y-63455255D02*
G01*
X81673223Y-63452064D01*
X81722880Y-63444681D01*
X81800313Y-63433343D01*
X81903849Y-63418291D01*
X82031815Y-63399763D01*
X82182536Y-63377999D01*
X82354338Y-63353238D01*
X82545549Y-63325719D01*
X82754494Y-63295682D01*
X82979500Y-63263366D01*
X83218893Y-63229009D01*
X83470998Y-63192852D01*
X83734144Y-63155134D01*
X84006655Y-63116094D01*
X84286857Y-63075970D01*
X84573078Y-63035003D01*
X84863644Y-62993432D01*
X85156880Y-62951495D01*
X85451114Y-62909432D01*
X85744671Y-62867483D01*
X86035877Y-62825887D01*
X86323059Y-62784882D01*
X86604544Y-62744709D01*
X86878657Y-62705606D01*
X87143725Y-62667812D01*
X87398073Y-62631568D01*
X87640029Y-62597111D01*
X87867919Y-62564682D01*
X88080068Y-62534520D01*
X88274804Y-62506864D01*
X88450451Y-62481953D01*
X88605338Y-62460026D01*
X88737789Y-62441323D01*
X88846132Y-62426083D01*
X88928692Y-62414545D01*
X88983796Y-62406949D01*
X89009770Y-62403533D01*
X89011594Y-62403359D01*
X89014249Y-62406828D01*
X89016690Y-62418052D01*
X89018924Y-62438256D01*
X89020960Y-62468662D01*
X89022807Y-62510496D01*
X89024473Y-62564981D01*
X89025967Y-62633341D01*
X89027298Y-62716800D01*
X89028475Y-62816582D01*
X89029506Y-62933912D01*
X89030400Y-63070013D01*
X89031165Y-63226110D01*
X89031810Y-63403426D01*
X89032344Y-63603185D01*
X89032776Y-63826612D01*
X89033114Y-64074930D01*
X89033367Y-64349364D01*
X89033543Y-64651138D01*
X89033652Y-64981475D01*
X89033702Y-65341601D01*
X89033707Y-65523072D01*
X89033660Y-65834556D01*
X89033522Y-66137515D01*
X89033298Y-66430444D01*
X89032992Y-66711838D01*
X89032609Y-66980192D01*
X89032153Y-67234001D01*
X89031629Y-67471761D01*
X89031041Y-67691967D01*
X89030394Y-67893115D01*
X89029693Y-68073698D01*
X89028941Y-68232213D01*
X89028145Y-68367154D01*
X89027307Y-68477017D01*
X89026433Y-68560297D01*
X89025527Y-68615489D01*
X89024594Y-68641089D01*
X89024283Y-68642786D01*
X89008159Y-68645934D01*
X88962466Y-68655188D01*
X88888572Y-68670268D01*
X88787846Y-68690892D01*
X88661657Y-68716777D01*
X88511376Y-68747641D01*
X88338371Y-68783204D01*
X88144011Y-68823183D01*
X87929665Y-68867296D01*
X87696703Y-68915261D01*
X87446494Y-68966797D01*
X87180408Y-69021622D01*
X86899812Y-69079454D01*
X86606077Y-69140011D01*
X86300572Y-69203011D01*
X85984667Y-69268172D01*
X85659729Y-69335214D01*
X85450433Y-69378404D01*
X85118619Y-69446883D01*
X84793966Y-69513883D01*
X84477909Y-69579109D01*
X84171886Y-69642263D01*
X83877331Y-69703050D01*
X83595681Y-69761173D01*
X83328371Y-69816336D01*
X83076837Y-69868242D01*
X82842516Y-69916596D01*
X82626842Y-69961101D01*
X82431253Y-70001461D01*
X82257184Y-70037379D01*
X82106070Y-70068559D01*
X81979348Y-70094705D01*
X81878453Y-70115520D01*
X81804822Y-70130709D01*
X81759890Y-70139975D01*
X81747793Y-70142467D01*
X81609578Y-70170912D01*
X81609578Y-64109329D01*
X82840162Y-64109329D01*
X82846102Y-65890330D01*
X82847156Y-66182317D01*
X82848277Y-66444147D01*
X82849487Y-66677258D01*
X82850805Y-66883083D01*
X82852251Y-67063060D01*
X82853845Y-67218625D01*
X82855608Y-67351212D01*
X82857560Y-67462257D01*
X82859720Y-67553198D01*
X82862108Y-67625469D01*
X82864745Y-67680506D01*
X82867651Y-67719745D01*
X82870845Y-67744622D01*
X82872062Y-67750311D01*
X82925093Y-67903424D01*
X83001141Y-68034968D01*
X83100291Y-68145020D01*
X83222628Y-68233660D01*
X83368239Y-68300965D01*
X83518891Y-68343285D01*
X83627471Y-68360041D01*
X83756830Y-68370296D01*
X83896827Y-68374037D01*
X84037322Y-68371248D01*
X84168173Y-68361912D01*
X84279240Y-68346016D01*
X84287003Y-68344453D01*
X84452818Y-68298897D01*
X84593634Y-68235135D01*
X84711334Y-68151562D01*
X84807799Y-68046572D01*
X84884909Y-67918559D01*
X84936855Y-67789801D01*
X84941321Y-67775066D01*
X84945315Y-67757983D01*
X84948868Y-67736762D01*
X84952012Y-67709614D01*
X84954779Y-67674748D01*
X84957201Y-67630373D01*
X84959311Y-67574700D01*
X84961139Y-67505939D01*
X84962717Y-67422298D01*
X84964079Y-67321989D01*
X84965255Y-67203220D01*
X84966278Y-67064202D01*
X84967180Y-66903145D01*
X84967992Y-66718257D01*
X84968747Y-66507749D01*
X84969476Y-66269832D01*
X84969734Y-66176232D01*
X85650685Y-66176232D01*
X85650788Y-66371861D01*
X85651316Y-66565310D01*
X85652270Y-66753764D01*
X85653651Y-66934410D01*
X85655458Y-67104433D01*
X85657692Y-67261019D01*
X85660353Y-67401355D01*
X85663441Y-67522625D01*
X85666958Y-67622017D01*
X85670903Y-67696715D01*
X85675277Y-67743905D01*
X85677141Y-67754422D01*
X85726287Y-67902820D01*
X85799155Y-68031019D01*
X85896063Y-68139287D01*
X86017328Y-68227892D01*
X86163265Y-68297101D01*
X86334193Y-68347182D01*
X86393100Y-68359009D01*
X86432829Y-68363060D01*
X86497427Y-68366032D01*
X86580182Y-68367774D01*
X86674385Y-68368136D01*
X86759080Y-68367234D01*
X86871582Y-68364664D01*
X86958851Y-68361022D01*
X87027243Y-68355702D01*
X87083113Y-68348096D01*
X87132818Y-68337599D01*
X87167070Y-68328286D01*
X87326157Y-68270285D01*
X87459107Y-68195978D01*
X87567888Y-68103483D01*
X87654469Y-67990920D01*
X87720817Y-67856410D01*
X87749533Y-67771937D01*
X87756793Y-67741383D01*
X87762812Y-67701278D01*
X87767764Y-67648245D01*
X87771825Y-67578910D01*
X87775170Y-67489899D01*
X87777974Y-67377835D01*
X87780413Y-67239345D01*
X87781619Y-67154012D01*
X87788676Y-66620896D01*
X87090796Y-66620896D01*
X87090796Y-67030815D01*
X87090088Y-67158903D01*
X87088067Y-67275086D01*
X87084891Y-67374928D01*
X87080720Y-67453993D01*
X87075709Y-67507845D01*
X87073297Y-67522332D01*
X87039354Y-67611973D01*
X86981807Y-67683362D01*
X86903863Y-67734955D01*
X86808729Y-67765210D01*
X86699610Y-67772584D01*
X86585640Y-67756927D01*
X86496985Y-67722070D01*
X86425181Y-67664473D01*
X86378603Y-67594185D01*
X86373324Y-67581365D01*
X86368713Y-67566292D01*
X86364725Y-67546866D01*
X86361316Y-67520985D01*
X86358439Y-67486550D01*
X86356051Y-67441459D01*
X86354105Y-67383610D01*
X86352558Y-67310905D01*
X86351363Y-67221241D01*
X86350475Y-67112517D01*
X86349851Y-66982634D01*
X86349444Y-66829490D01*
X86349209Y-66650984D01*
X86349102Y-66445015D01*
X86349077Y-66218097D01*
X86349104Y-65983617D01*
X86349215Y-65778628D01*
X86349455Y-65601029D01*
X86349868Y-65448719D01*
X86350501Y-65319599D01*
X86351398Y-65211566D01*
X86352605Y-65122520D01*
X86354165Y-65050360D01*
X86356125Y-64992985D01*
X86358530Y-64948296D01*
X86361424Y-64914189D01*
X86364852Y-64888566D01*
X86368861Y-64869324D01*
X86373494Y-64854364D01*
X86378603Y-64842010D01*
X86429170Y-64767430D01*
X86502237Y-64711151D01*
X86585640Y-64679267D01*
X86702997Y-64664035D01*
X86811711Y-64672757D01*
X86907707Y-64703888D01*
X86986913Y-64755885D01*
X87045255Y-64827202D01*
X87061356Y-64859640D01*
X87068791Y-64891932D01*
X87075028Y-64951179D01*
X87080134Y-65038516D01*
X87084174Y-65155078D01*
X87087212Y-65302001D01*
X87087394Y-65313775D01*
X87093546Y-65720523D01*
X87788909Y-65720523D01*
X87781845Y-65242693D01*
X87779385Y-65097550D01*
X87776594Y-64980201D01*
X87773251Y-64886844D01*
X87769130Y-64813683D01*
X87764008Y-64756917D01*
X87757662Y-64712747D01*
X87749868Y-64677375D01*
X87748216Y-64671374D01*
X87692966Y-64525129D01*
X87615678Y-64399702D01*
X87515199Y-64294017D01*
X87390379Y-64206998D01*
X87240066Y-64137569D01*
X87142910Y-64105560D01*
X87095897Y-64092869D01*
X87051213Y-64083559D01*
X87002714Y-64077121D01*
X86944257Y-64073048D01*
X86869697Y-64070830D01*
X86772891Y-64069958D01*
X86711692Y-64069869D01*
X86601163Y-64070228D01*
X86516043Y-64071653D01*
X86450153Y-64074662D01*
X86397315Y-64079772D01*
X86351350Y-64087503D01*
X86306079Y-64098374D01*
X86277856Y-64106278D01*
X86113390Y-64166578D01*
X85974484Y-64245165D01*
X85860533Y-64342623D01*
X85770930Y-64459537D01*
X85705070Y-64596491D01*
X85677534Y-64685253D01*
X85672980Y-64719133D01*
X85668848Y-64781788D01*
X85665137Y-64870404D01*
X85661849Y-64982167D01*
X85658984Y-65114262D01*
X85656541Y-65263876D01*
X85654522Y-65428195D01*
X85652926Y-65604404D01*
X85651755Y-65789689D01*
X85651008Y-65981236D01*
X85650685Y-66176232D01*
X84969734Y-66176232D01*
X84970211Y-66002713D01*
X84970465Y-65906126D01*
X84975153Y-64109329D01*
X84279785Y-64109329D01*
X84271207Y-67544963D01*
X84236023Y-67610766D01*
X84186364Y-67680091D01*
X84120679Y-67727666D01*
X84033159Y-67757430D01*
X84013908Y-67761336D01*
X83893394Y-67772489D01*
X83786377Y-67759659D01*
X83695749Y-67723876D01*
X83624404Y-67666170D01*
X83585008Y-67608581D01*
X83544590Y-67530034D01*
X83540169Y-65819681D01*
X83535749Y-64109329D01*
X82840162Y-64109329D01*
X81609578Y-64109329D01*
X81609578Y-63464202D01*
X81653017Y-63455255D01*
G37*
G36*
X103717157Y-64056154D02*
G01*
X103843501Y-64063810D01*
X103951968Y-64078186D01*
X103976742Y-64083193D01*
X104125773Y-64128310D01*
X104263761Y-64193719D01*
X104385806Y-64276091D01*
X104487005Y-64372095D01*
X104562459Y-64478401D01*
X104564884Y-64482842D01*
X104592100Y-64536321D01*
X104613807Y-64587909D01*
X104630621Y-64642040D01*
X104643156Y-64703147D01*
X104652027Y-64775665D01*
X104657848Y-64864028D01*
X104661234Y-64972668D01*
X104662801Y-65106020D01*
X104663109Y-65191356D01*
X104663869Y-65617849D01*
X103968844Y-65617849D01*
X103960946Y-65246642D01*
X103957910Y-65118892D01*
X103954267Y-65018466D01*
X103949094Y-64941099D01*
X103941467Y-64882524D01*
X103930465Y-64838476D01*
X103915164Y-64804688D01*
X103894643Y-64776894D01*
X103867977Y-64750828D01*
X103850450Y-64735760D01*
X103775576Y-64691393D01*
X103686332Y-64667369D01*
X103590776Y-64663206D01*
X103496966Y-64678427D01*
X103412959Y-64712552D01*
X103346814Y-64765101D01*
X103346237Y-64765755D01*
X103312066Y-64814312D01*
X103286370Y-64867469D01*
X103282667Y-64878953D01*
X103275730Y-64921945D01*
X103270739Y-64988863D01*
X103267688Y-65072099D01*
X103266567Y-65164048D01*
X103267369Y-65257104D01*
X103270087Y-65343659D01*
X103274712Y-65416108D01*
X103281237Y-65466845D01*
X103283282Y-65475684D01*
X103303594Y-65525209D01*
X103339032Y-65575365D01*
X103392034Y-65628104D01*
X103465036Y-65685376D01*
X103560475Y-65749132D01*
X103680787Y-65821323D01*
X103795954Y-65886114D01*
X103963372Y-65979868D01*
X104104791Y-66062818D01*
X104223034Y-66137094D01*
X104320925Y-66204829D01*
X104401286Y-66268153D01*
X104466942Y-66329199D01*
X104520714Y-66390097D01*
X104565427Y-66452980D01*
X104581381Y-66479121D01*
X104605539Y-66522908D01*
X104625113Y-66565917D01*
X104640525Y-66611920D01*
X104652194Y-66664691D01*
X104660541Y-66728003D01*
X104665987Y-66805628D01*
X104668951Y-66901340D01*
X104669854Y-67018911D01*
X104669117Y-67162114D01*
X104668112Y-67257628D01*
X104666342Y-67399069D01*
X104664532Y-67512772D01*
X104662420Y-67602591D01*
X104659746Y-67672380D01*
X104656250Y-67725991D01*
X104651672Y-67767278D01*
X104645749Y-67800096D01*
X104638222Y-67828296D01*
X104628830Y-67855734D01*
X104627398Y-67859608D01*
X104562229Y-67997588D01*
X104477050Y-68112805D01*
X104370343Y-68206538D01*
X104240593Y-68280066D01*
X104086282Y-68334667D01*
X104054109Y-68342995D01*
X103969756Y-68358659D01*
X103862997Y-68370966D01*
X103742879Y-68379533D01*
X103618446Y-68383981D01*
X103498745Y-68383929D01*
X103392822Y-68378995D01*
X103337003Y-68373178D01*
X103156772Y-68336559D01*
X102999883Y-68279333D01*
X102866656Y-68201762D01*
X102757412Y-68104107D01*
X102672471Y-67986631D01*
X102612154Y-67849595D01*
X102588605Y-67761381D01*
X102583180Y-67718684D01*
X102578605Y-67647820D01*
X102574991Y-67552205D01*
X102572451Y-67435256D01*
X102571096Y-67300389D01*
X102570896Y-67220367D01*
X102570896Y-66763060D01*
X103265921Y-66763060D01*
X103265921Y-67515604D01*
X103309360Y-67601366D01*
X103365969Y-67680552D01*
X103442972Y-67736035D01*
X103539109Y-67767120D01*
X103621331Y-67774005D01*
X103730744Y-67761318D01*
X103821947Y-67723719D01*
X103893684Y-67661905D01*
X103933303Y-67601366D01*
X103948916Y-67569452D01*
X103960255Y-67540879D01*
X103968002Y-67509915D01*
X103972841Y-67470825D01*
X103975454Y-67417875D01*
X103976527Y-67345332D01*
X103976741Y-67247461D01*
X103976742Y-67236922D01*
X103975696Y-67114043D01*
X103971763Y-67017656D01*
X103963743Y-66942705D01*
X103950440Y-66884135D01*
X103930656Y-66836891D01*
X103903195Y-66795917D01*
X103866859Y-66756159D01*
X103861673Y-66751062D01*
X103827134Y-66723250D01*
X103769061Y-66683225D01*
X103691759Y-66633712D01*
X103599528Y-66577439D01*
X103496672Y-66517133D01*
X103455473Y-66493601D01*
X103287000Y-66396725D01*
X103144385Y-66311434D01*
X103024999Y-66235660D01*
X102926210Y-66167335D01*
X102845387Y-66104390D01*
X102779900Y-66044757D01*
X102727117Y-65986368D01*
X102684409Y-65927155D01*
X102649144Y-65865051D01*
X102644800Y-65856311D01*
X102624230Y-65811787D01*
X102607882Y-65768639D01*
X102595274Y-65722567D01*
X102585926Y-65669274D01*
X102579357Y-65604459D01*
X102575086Y-65523823D01*
X102572634Y-65423068D01*
X102571520Y-65297894D01*
X102571282Y-65198624D01*
X102571559Y-65057597D01*
X102572784Y-64944218D01*
X102575136Y-64854552D01*
X102578790Y-64784663D01*
X102583924Y-64730616D01*
X102590715Y-64688476D01*
X102595090Y-64669457D01*
X102647985Y-64522161D01*
X102725890Y-64394055D01*
X102828528Y-64285392D01*
X102955624Y-64196425D01*
X103106898Y-64127408D01*
X103228417Y-64090756D01*
X103328568Y-64072519D01*
X103449921Y-64060607D01*
X103582707Y-64055120D01*
X103717157Y-64056154D01*
G37*
G36*
X100379198Y-64093662D02*
G01*
X100519480Y-64094124D01*
X100655735Y-64095381D01*
X100783291Y-64097329D01*
X100897474Y-64099867D01*
X100993611Y-64102893D01*
X101067029Y-64106306D01*
X101109764Y-64109616D01*
X101300002Y-64142196D01*
X101466497Y-64194861D01*
X101608987Y-64267465D01*
X101727209Y-64359860D01*
X101820902Y-64471897D01*
X101856115Y-64530782D01*
X101880557Y-64578519D01*
X101900694Y-64623830D01*
X101916902Y-64670268D01*
X101929559Y-64721386D01*
X101939040Y-64780735D01*
X101945723Y-64851869D01*
X101949984Y-64938339D01*
X101952202Y-65043699D01*
X101952751Y-65171501D01*
X101952010Y-65325296D01*
X101951148Y-65426614D01*
X101949674Y-65578605D01*
X101948213Y-65702536D01*
X101946547Y-65801938D01*
X101944457Y-65880345D01*
X101941725Y-65941286D01*
X101938133Y-65988294D01*
X101933463Y-66024899D01*
X101927496Y-66054635D01*
X101920015Y-66081031D01*
X101910801Y-66107620D01*
X101908721Y-66113299D01*
X101848200Y-66236654D01*
X101763242Y-66351000D01*
X101661000Y-66447288D01*
X101623135Y-66474596D01*
X101574014Y-66508483D01*
X101536471Y-66536524D01*
X101517251Y-66553624D01*
X101516158Y-66555393D01*
X101520303Y-66572186D01*
X101533749Y-66616241D01*
X101555625Y-66684911D01*
X101585062Y-66775549D01*
X101621191Y-66885507D01*
X101663140Y-67012138D01*
X101710042Y-67152794D01*
X101761027Y-67304828D01*
X101811711Y-67455197D01*
X102111568Y-68342662D01*
X101388806Y-68342662D01*
X101333049Y-68172855D01*
X101315286Y-68118266D01*
X101289464Y-68038232D01*
X101257079Y-67937420D01*
X101219627Y-67820498D01*
X101178602Y-67692133D01*
X101135499Y-67556993D01*
X101093960Y-67426493D01*
X101051518Y-67293070D01*
X101010837Y-67165287D01*
X100973208Y-67047185D01*
X100939920Y-66942809D01*
X100912262Y-66856201D01*
X100891525Y-66791404D01*
X100878996Y-66752462D01*
X100878591Y-66751213D01*
X100846554Y-66652488D01*
X100501617Y-66652488D01*
X100501617Y-68342662D01*
X99790796Y-68342662D01*
X99790796Y-66036443D01*
X100501617Y-66036443D01*
X100734609Y-66036355D01*
X100822624Y-66035204D01*
X100904223Y-66032103D01*
X100971855Y-66027482D01*
X101017971Y-66021772D01*
X101027267Y-66019697D01*
X101104346Y-65983065D01*
X101170806Y-65922464D01*
X101218708Y-65845405D01*
X101223260Y-65834308D01*
X101232515Y-65806705D01*
X101239578Y-65775048D01*
X101244730Y-65734848D01*
X101248257Y-65681613D01*
X101250442Y-65610851D01*
X101251570Y-65518073D01*
X101251924Y-65398787D01*
X101251928Y-65380908D01*
X101251301Y-65242558D01*
X101248897Y-65131723D01*
X101243931Y-65044344D01*
X101235617Y-64976360D01*
X101223171Y-64923710D01*
X101205807Y-64882335D01*
X101182741Y-64848173D01*
X101153187Y-64817164D01*
X101140763Y-64805951D01*
X101103196Y-64777164D01*
X101061911Y-64755959D01*
X101011487Y-64741263D01*
X100946505Y-64732001D01*
X100861546Y-64727100D01*
X100751190Y-64725486D01*
X100734609Y-64725462D01*
X100501617Y-64725373D01*
X100501617Y-66036443D01*
X99790796Y-66036443D01*
X99790796Y-64093533D01*
X100379198Y-64093662D01*
G37*
D12*
%TO.C,REF\u002A\u002A*%
X102300000Y-52200000D02*
X105300000Y-52200000D01*
X103400000Y-52800000D02*
X103400000Y-51500000D01*
G36*
X104400000Y-52800000D02*
G01*
X103400000Y-52200000D01*
X104400000Y-51600000D01*
X104400000Y-52800000D01*
G37*
X104400000Y-52800000D02*
X103400000Y-52200000D01*
X104400000Y-51600000D01*
X104400000Y-52800000D01*
X102080000Y-54465000D02*
X102080000Y-55935000D01*
X104540000Y-54465000D02*
X102080000Y-54465000D01*
X102080000Y-55935000D02*
X104540000Y-55935000D01*
X67648748Y-37820000D02*
X69071252Y-37820000D01*
X67648748Y-35100000D02*
X69071252Y-35100000D01*
X63568859Y-75232500D02*
X63876141Y-75232500D01*
X63568859Y-75992500D02*
X63876141Y-75992500D01*
X45508700Y-40492500D02*
X46778700Y-41127500D01*
X61104300Y-33126500D02*
X46905700Y-33126500D01*
X46778700Y-41127500D02*
X45508700Y-41762500D01*
X61104300Y-44048500D02*
X61104300Y-33126500D01*
X46905700Y-44048500D02*
X61104300Y-44048500D01*
X46905700Y-33126500D02*
X46905700Y-44048500D01*
X45508700Y-41762500D02*
X45508700Y-40492500D01*
X50510000Y-79930000D02*
X56160000Y-79930000D01*
X48035000Y-74200000D02*
X48735000Y-74700000D01*
X56160000Y-68470000D02*
X50510000Y-68470000D01*
X47835000Y-71375000D02*
X47835000Y-77025000D01*
X59065000Y-77025000D02*
X59065000Y-71375000D01*
X48035000Y-74200000D02*
X48735000Y-73700000D01*
%TO.C,G\u002A\u002A\u002A*%
G36*
X101902801Y-36299879D02*
G01*
X102191675Y-35527571D01*
X102520765Y-35526807D01*
X102815684Y-36311116D01*
X102883436Y-36491799D01*
X102945677Y-36658754D01*
X103000574Y-36806991D01*
X103046297Y-36931522D01*
X103081011Y-37027357D01*
X103102886Y-37089506D01*
X103110105Y-37112855D01*
X103088732Y-37122134D01*
X103033788Y-37128456D01*
X102973024Y-37130284D01*
X102836441Y-37130284D01*
X102685609Y-36711986D01*
X102023083Y-36711986D01*
X101947667Y-36921135D01*
X101872252Y-37130284D01*
X101733182Y-37130284D01*
X101651637Y-37127287D01*
X101610658Y-37117462D01*
X101604020Y-37101235D01*
X101614219Y-37073374D01*
X101638795Y-37007124D01*
X101675832Y-36907625D01*
X101723413Y-36780018D01*
X101779622Y-36629441D01*
X101833438Y-36485407D01*
X102111141Y-36485407D01*
X102132443Y-36492524D01*
X102190712Y-36498237D01*
X102276441Y-36501874D01*
X102357057Y-36502836D01*
X102466535Y-36502190D01*
X102537168Y-36499368D01*
X102576576Y-36493048D01*
X102592384Y-36481909D01*
X102592214Y-36464628D01*
X102591509Y-36462169D01*
X102579720Y-36426376D01*
X102555696Y-36355781D01*
X102522551Y-36259455D01*
X102483395Y-36146466D01*
X102468175Y-36102734D01*
X102357105Y-35783967D01*
X102234524Y-36125973D01*
X102192433Y-36244335D01*
X102156473Y-36347222D01*
X102129356Y-36426728D01*
X102113798Y-36474948D01*
X102111141Y-36485407D01*
X101833438Y-36485407D01*
X101842544Y-36461034D01*
X101902801Y-36299879D01*
G37*
G36*
X100320952Y-38176030D02*
G01*
X99763221Y-38176030D01*
X99763221Y-39547118D01*
X99507594Y-39547118D01*
X99507594Y-38176030D01*
X98949863Y-38176030D01*
X98949863Y-37943642D01*
X100320952Y-37943642D01*
X100320952Y-38176030D01*
G37*
G36*
X95556999Y-35759195D02*
G01*
X94650687Y-35759195D01*
X94650687Y-36200732D01*
X95347850Y-36200732D01*
X95347850Y-36431878D01*
X94662306Y-36444740D01*
X94649444Y-37130284D01*
X94395060Y-37130284D01*
X94395060Y-35526807D01*
X95556999Y-35526807D01*
X95556999Y-35759195D01*
G37*
G36*
X107146427Y-35509482D02*
G01*
X107305614Y-35540671D01*
X107442419Y-35598341D01*
X107462313Y-35610650D01*
X107515349Y-35654526D01*
X107570579Y-35714398D01*
X107620457Y-35779747D01*
X107657439Y-35840056D01*
X107673978Y-35884808D01*
X107670258Y-35900514D01*
X107640208Y-35918339D01*
X107582837Y-35946237D01*
X107543552Y-35963807D01*
X107434313Y-36011195D01*
X107375260Y-35910428D01*
X107295057Y-35816391D01*
X107187648Y-35758927D01*
X107056143Y-35739379D01*
X106988724Y-35743453D01*
X106848778Y-35779406D01*
X106736358Y-35852174D01*
X106647731Y-35964177D01*
X106647507Y-35964557D01*
X106619170Y-36016253D01*
X106600742Y-36063714D01*
X106590116Y-36118989D01*
X106585182Y-36194128D01*
X106583832Y-36301179D01*
X106583806Y-36328546D01*
X106584691Y-36443861D01*
X106588734Y-36524729D01*
X106598023Y-36583169D01*
X106614644Y-36631197D01*
X106640681Y-36680833D01*
X106646761Y-36691260D01*
X106713744Y-36785467D01*
X106791525Y-36848629D01*
X106895668Y-36892303D01*
X106931237Y-36902497D01*
X107018149Y-36918495D01*
X107098931Y-36912678D01*
X107147347Y-36901391D01*
X107240793Y-36862578D01*
X107327107Y-36802761D01*
X107393072Y-36732921D01*
X107423849Y-36671670D01*
X107432697Y-36639669D01*
X107446138Y-36624462D01*
X107475184Y-36625068D01*
X107530848Y-36640507D01*
X107584419Y-36657369D01*
X107653568Y-36680629D01*
X107687071Y-36699800D01*
X107693838Y-36724022D01*
X107683852Y-36759367D01*
X107636114Y-36847309D01*
X107558246Y-36939453D01*
X107463150Y-37022440D01*
X107378032Y-37075994D01*
X107243040Y-37123895D01*
X107086167Y-37147355D01*
X106925691Y-37145332D01*
X106779890Y-37116786D01*
X106762860Y-37111034D01*
X106602993Y-37032227D01*
X106475637Y-36921280D01*
X106379793Y-36776972D01*
X106314462Y-36598082D01*
X106302949Y-36548616D01*
X106278444Y-36343865D01*
X106290874Y-36149169D01*
X106338082Y-35970165D01*
X106417909Y-35812490D01*
X106528201Y-35681781D01*
X106666798Y-35583673D01*
X106673558Y-35580170D01*
X106816502Y-35528695D01*
X106978758Y-35505311D01*
X107146427Y-35509482D01*
G37*
G36*
X89827367Y-35530082D02*
G01*
X89963933Y-35578823D01*
X89976445Y-35585381D01*
X90054751Y-35638645D01*
X90129259Y-35707278D01*
X90190216Y-35780190D01*
X90227867Y-35846292D01*
X90235229Y-35879576D01*
X90215504Y-35905412D01*
X90165159Y-35937869D01*
X90125620Y-35956725D01*
X90059423Y-35984821D01*
X90011333Y-36005238D01*
X89997894Y-36010949D01*
X89981963Y-35999607D01*
X89979689Y-35983683D01*
X89961847Y-35934824D01*
X89916416Y-35874871D01*
X89855541Y-35816844D01*
X89791366Y-35773763D01*
X89778181Y-35767655D01*
X89664501Y-35740922D01*
X89539435Y-35744683D01*
X89418264Y-35775900D01*
X89316266Y-35831538D01*
X89277603Y-35867146D01*
X89205126Y-35978899D01*
X89158011Y-36115139D01*
X89135907Y-36265444D01*
X89138463Y-36419392D01*
X89165328Y-36566559D01*
X89216150Y-36696522D01*
X89290579Y-36798858D01*
X89309578Y-36816203D01*
X89409635Y-36875886D01*
X89532314Y-36912679D01*
X89620374Y-36921005D01*
X89721634Y-36901217D01*
X89825883Y-36848263D01*
X89919234Y-36772282D01*
X89987801Y-36683415D01*
X90008312Y-36637737D01*
X90032640Y-36629227D01*
X90083642Y-36636605D01*
X90146442Y-36654926D01*
X90206167Y-36679244D01*
X90247941Y-36704616D01*
X90258555Y-36720923D01*
X90242970Y-36770339D01*
X90202555Y-36838397D01*
X90146816Y-36912417D01*
X90085264Y-36979720D01*
X90029665Y-37026153D01*
X89870700Y-37104663D01*
X89694073Y-37145682D01*
X89511396Y-37147817D01*
X89334278Y-37109680D01*
X89333766Y-37109503D01*
X89176764Y-37031990D01*
X89047453Y-36919685D01*
X88948043Y-36776667D01*
X88880747Y-36607017D01*
X88847777Y-36414812D01*
X88850049Y-36217347D01*
X88886355Y-36029655D01*
X88956156Y-35862849D01*
X89055519Y-35722324D01*
X89180509Y-35613479D01*
X89327193Y-35541709D01*
X89346956Y-35535586D01*
X89502754Y-35507188D01*
X89668266Y-35505779D01*
X89827367Y-35530082D01*
G37*
G36*
X95712433Y-38353285D02*
G01*
X95791956Y-38204148D01*
X95904936Y-38084437D01*
X96032415Y-38002151D01*
X96102473Y-37968599D01*
X96162801Y-37947814D01*
X96228748Y-37936802D01*
X96315660Y-37932571D01*
X96391953Y-37932040D01*
X96508963Y-37934240D01*
X96594613Y-37942393D01*
X96663879Y-37958865D01*
X96730558Y-37985474D01*
X96881032Y-38078904D01*
X97001750Y-38207565D01*
X97082654Y-38347390D01*
X97112990Y-38418410D01*
X97132277Y-38481345D01*
X97142976Y-38550651D01*
X97147548Y-38640783D01*
X97148442Y-38733761D01*
X97143086Y-38903714D01*
X97123856Y-39039144D01*
X97086985Y-39150892D01*
X97028706Y-39249801D01*
X96945252Y-39346713D01*
X96930177Y-39361900D01*
X96832877Y-39448369D01*
X96742519Y-39504302D01*
X96675603Y-39530610D01*
X96531076Y-39560513D01*
X96370962Y-39567561D01*
X96216282Y-39551833D01*
X96125864Y-39528494D01*
X95963958Y-39451706D01*
X95836139Y-39344673D01*
X95741920Y-39206596D01*
X95680812Y-39036672D01*
X95652327Y-38834101D01*
X95649955Y-38747236D01*
X95650089Y-38745380D01*
X95928820Y-38745380D01*
X95944968Y-38929866D01*
X95993178Y-39082261D01*
X96073094Y-39201492D01*
X96082934Y-39211668D01*
X96191659Y-39289142D01*
X96320053Y-39329990D01*
X96457005Y-39332411D01*
X96591401Y-39294599D01*
X96592087Y-39294288D01*
X96706911Y-39217789D01*
X96796136Y-39108624D01*
X96837955Y-39019026D01*
X96859593Y-38917775D01*
X96868519Y-38790476D01*
X96865071Y-38655658D01*
X96849584Y-38531853D01*
X96827613Y-38450168D01*
X96759277Y-38328102D01*
X96665749Y-38238696D01*
X96554739Y-38181786D01*
X96433960Y-38157206D01*
X96311123Y-38164794D01*
X96193941Y-38204384D01*
X96090125Y-38275813D01*
X96007386Y-38378915D01*
X95966591Y-38468516D01*
X95946385Y-38553226D01*
X95932744Y-38659614D01*
X95928820Y-38745380D01*
X95650089Y-38745380D01*
X95665416Y-38533697D01*
X95712433Y-38353285D01*
G37*
G36*
X101320220Y-37130284D02*
G01*
X101041354Y-37130284D01*
X101041354Y-35526807D01*
X101320220Y-35526807D01*
X101320220Y-37130284D01*
G37*
G36*
X105270815Y-35759195D02*
G01*
X104364502Y-35759195D01*
X104364502Y-36200732D01*
X105061665Y-36200732D01*
X105061665Y-36433120D01*
X104364502Y-36433120D01*
X104364502Y-36897896D01*
X105294053Y-36897896D01*
X105294053Y-37130284D01*
X104108875Y-37130284D01*
X104108875Y-35526807D01*
X105270815Y-35526807D01*
X105270815Y-35759195D01*
G37*
G36*
X81428510Y-39051212D02*
G01*
X82625108Y-39051212D01*
X82639332Y-39090307D01*
X82678910Y-39136279D01*
X82713017Y-39168623D01*
X82897452Y-39316457D01*
X83115422Y-39454087D01*
X83354097Y-39574526D01*
X83600643Y-39670787D01*
X83681977Y-39696183D01*
X83798805Y-39729015D01*
X83880070Y-39747178D01*
X83934382Y-39750459D01*
X83970349Y-39738649D01*
X83996581Y-39711534D01*
X84011075Y-39688100D01*
X84049689Y-39620226D01*
X83952978Y-39604278D01*
X83709156Y-39545580D01*
X83456716Y-39451102D01*
X83207597Y-39326750D01*
X82973737Y-39178431D01*
X82780568Y-39024306D01*
X82719481Y-38971335D01*
X82673178Y-38934909D01*
X82650845Y-38922203D01*
X82650283Y-38922513D01*
X82641272Y-38949142D01*
X82629543Y-39001623D01*
X82628940Y-39004770D01*
X82625108Y-39051212D01*
X81428510Y-39051212D01*
X81398082Y-39004501D01*
X81221148Y-38653145D01*
X81081869Y-38280237D01*
X80993536Y-37943642D01*
X80973996Y-37817890D01*
X80959973Y-37657407D01*
X80951468Y-37473614D01*
X80948480Y-37277927D01*
X80948586Y-37269717D01*
X81258752Y-37269717D01*
X81272491Y-37594760D01*
X81315717Y-37896890D01*
X81391443Y-38188939D01*
X81502682Y-38483739D01*
X81586134Y-38664044D01*
X81639914Y-38772762D01*
X81676989Y-38844266D01*
X81700920Y-38883170D01*
X81715263Y-38894089D01*
X81723578Y-38881637D01*
X81729422Y-38850429D01*
X81729492Y-38849955D01*
X81730475Y-38794984D01*
X81714900Y-38731040D01*
X81679194Y-38646044D01*
X81653909Y-38594328D01*
X81586698Y-38444443D01*
X81519341Y-38265858D01*
X81457573Y-38075974D01*
X81407132Y-37892195D01*
X81378151Y-37757731D01*
X81361239Y-37624220D01*
X81351077Y-37459259D01*
X81348910Y-37347884D01*
X81428712Y-37347884D01*
X81450491Y-37636911D01*
X81461866Y-37713192D01*
X81511167Y-37949264D01*
X81577924Y-38181604D01*
X81657024Y-38393770D01*
X81707244Y-38502492D01*
X81746242Y-38577248D01*
X81772206Y-38616504D01*
X81791975Y-38626771D01*
X81812389Y-38614565D01*
X81818602Y-38608558D01*
X81840000Y-38582080D01*
X81844211Y-38552219D01*
X81830806Y-38503798D01*
X81814403Y-38460229D01*
X81707090Y-38162177D01*
X81628106Y-37891078D01*
X81576065Y-37638146D01*
X81549585Y-37394593D01*
X81548648Y-37295890D01*
X81636080Y-37295890D01*
X81661757Y-37630510D01*
X81726295Y-37953340D01*
X81772754Y-38106313D01*
X81823742Y-38250854D01*
X81865211Y-38355228D01*
X81900192Y-38424020D01*
X81931717Y-38461816D01*
X81962818Y-38473200D01*
X81996524Y-38462757D01*
X82005054Y-38457692D01*
X82021071Y-38437097D01*
X82014805Y-38400714D01*
X81990536Y-38347663D01*
X81903208Y-38139703D01*
X81833276Y-37900766D01*
X81783576Y-37644010D01*
X81756947Y-37382598D01*
X81753342Y-37253115D01*
X81832791Y-37253115D01*
X81857084Y-37591305D01*
X81926442Y-37925350D01*
X82031795Y-38229987D01*
X82068875Y-38316287D01*
X82096922Y-38368720D01*
X82123972Y-38396646D01*
X82158063Y-38409428D01*
X82190051Y-38414333D01*
X82247247Y-38420175D01*
X82279852Y-38421042D01*
X82282029Y-38420422D01*
X82275711Y-38398810D01*
X82253698Y-38345084D01*
X82220136Y-38269161D01*
X82204391Y-38234763D01*
X82158942Y-38125585D01*
X82111712Y-37994618D01*
X82071042Y-37865437D01*
X82061275Y-37830210D01*
X82037142Y-37733212D01*
X82020363Y-37646098D01*
X82009617Y-37556172D01*
X82003582Y-37450740D01*
X82000938Y-37317107D01*
X82000818Y-37297364D01*
X82080056Y-37297364D01*
X82087867Y-37478479D01*
X82105589Y-37636400D01*
X82111248Y-37668542D01*
X82167269Y-37899268D01*
X82242247Y-38114195D01*
X82332361Y-38304585D01*
X82433791Y-38461703D01*
X82484445Y-38521741D01*
X82544798Y-38593921D01*
X82595633Y-38667693D01*
X82618842Y-38711471D01*
X82657979Y-38773869D01*
X82727661Y-38854112D01*
X82819703Y-38944355D01*
X82925919Y-39036752D01*
X83038123Y-39123457D01*
X83077768Y-39151332D01*
X83341679Y-39306333D01*
X83629341Y-39429528D01*
X83914364Y-39511913D01*
X83997797Y-39528644D01*
X84064525Y-39535639D01*
X84130588Y-39532284D01*
X84212022Y-39517968D01*
X84304024Y-39497027D01*
X84385583Y-39481576D01*
X84450700Y-39482712D01*
X84525522Y-39501740D01*
X84548031Y-39509181D01*
X84612221Y-39529168D01*
X84664434Y-39538119D01*
X84720795Y-39536183D01*
X84797433Y-39523510D01*
X84854086Y-39512014D01*
X85171614Y-39423399D01*
X85467161Y-39293864D01*
X85741131Y-39123190D01*
X85993929Y-38911158D01*
X86030861Y-38874959D01*
X86245778Y-38628476D01*
X86420975Y-38360812D01*
X86555791Y-38075978D01*
X86649565Y-37777984D01*
X86701635Y-37470841D01*
X86711342Y-37158557D01*
X86678024Y-36845143D01*
X86601019Y-36534609D01*
X86479668Y-36230965D01*
X86469942Y-36210979D01*
X86306588Y-35930768D01*
X86107303Y-35678632D01*
X85874811Y-35456847D01*
X85611840Y-35267683D01*
X85321116Y-35113417D01*
X85018207Y-35000191D01*
X84937775Y-34976743D01*
X84867641Y-34959831D01*
X84797488Y-34948373D01*
X84717000Y-34941287D01*
X84615859Y-34937489D01*
X84483748Y-34935899D01*
X84402379Y-34935592D01*
X84247044Y-34935917D01*
X84128110Y-34938341D01*
X84035515Y-34943747D01*
X83959199Y-34953021D01*
X83889101Y-34967048D01*
X83815159Y-34986713D01*
X83812485Y-34987483D01*
X83492858Y-35102267D01*
X83199277Y-35253409D01*
X82934078Y-35438433D01*
X82699597Y-35654863D01*
X82498172Y-35900221D01*
X82332139Y-36172031D01*
X82203835Y-36467816D01*
X82115596Y-36785098D01*
X82115301Y-36786532D01*
X82093852Y-36934223D01*
X82082077Y-37110223D01*
X82080056Y-37297364D01*
X82000818Y-37297364D01*
X82000509Y-37246478D01*
X82001222Y-37091256D01*
X82005353Y-36970037D01*
X82013997Y-36870404D01*
X82028250Y-36779943D01*
X82049208Y-36686235D01*
X82050359Y-36681613D01*
X82154012Y-36358857D01*
X82296569Y-36059848D01*
X82475669Y-35786946D01*
X82688951Y-35542513D01*
X82934053Y-35328912D01*
X83208614Y-35148502D01*
X83510273Y-35003647D01*
X83834587Y-34897244D01*
X83927159Y-34875239D01*
X84013555Y-34860111D01*
X84106131Y-34850714D01*
X84217243Y-34845904D01*
X84359248Y-34844533D01*
X84402379Y-34844598D01*
X84551292Y-34846036D01*
X84666593Y-34850232D01*
X84761128Y-34858548D01*
X84847740Y-34872343D01*
X84939276Y-34892979D01*
X84994968Y-34907365D01*
X85305683Y-35012579D01*
X85592685Y-35154947D01*
X85853986Y-35330888D01*
X86087600Y-35536822D01*
X86291537Y-35769166D01*
X86463810Y-36024340D01*
X86602431Y-36298763D01*
X86705412Y-36588853D01*
X86770764Y-36891030D01*
X86796501Y-37201712D01*
X86780634Y-37517318D01*
X86721175Y-37834267D01*
X86686613Y-37954711D01*
X86564684Y-38265812D01*
X86403585Y-38553328D01*
X86205776Y-38814334D01*
X85973721Y-39045907D01*
X85709880Y-39245123D01*
X85494602Y-39370519D01*
X85334745Y-39445000D01*
X85160632Y-39512519D01*
X84989442Y-39567055D01*
X84838352Y-39602591D01*
X84826373Y-39604644D01*
X84727494Y-39620959D01*
X84776796Y-39690198D01*
X84812840Y-39733771D01*
X84849352Y-39749837D01*
X84906649Y-39745818D01*
X84922153Y-39743297D01*
X84992378Y-39727717D01*
X85086784Y-39701907D01*
X85185776Y-39671251D01*
X85192498Y-39669020D01*
X85414043Y-39582441D01*
X85638873Y-39472013D01*
X85819945Y-39364416D01*
X85925359Y-39286047D01*
X86047606Y-39180589D01*
X86176124Y-39058499D01*
X86300350Y-38930232D01*
X86409722Y-38806245D01*
X86492581Y-38698581D01*
X86669859Y-38402604D01*
X86804255Y-38091843D01*
X86895500Y-37770075D01*
X86943321Y-37441077D01*
X86947448Y-37108628D01*
X86907610Y-36776504D01*
X86823536Y-36448483D01*
X86694955Y-36128342D01*
X86679268Y-36096158D01*
X86508988Y-35802994D01*
X86305598Y-35539881D01*
X86072813Y-35308516D01*
X85814349Y-35110596D01*
X85533922Y-34947819D01*
X85235248Y-34821881D01*
X84922043Y-34734479D01*
X84598024Y-34687311D01*
X84266906Y-34682073D01*
X83932405Y-34720463D01*
X83752785Y-34759648D01*
X83434291Y-34864421D01*
X83133826Y-35009895D01*
X82855332Y-35192657D01*
X82602750Y-35409295D01*
X82380021Y-35656395D01*
X82191087Y-35930545D01*
X82039887Y-36228332D01*
X82030332Y-36251151D01*
X81919412Y-36579289D01*
X81853566Y-36914527D01*
X81832791Y-37253115D01*
X81753342Y-37253115D01*
X81753157Y-37246478D01*
X81775285Y-36890799D01*
X81841319Y-36550026D01*
X81950729Y-36225462D01*
X82102987Y-35918411D01*
X82297564Y-35630175D01*
X82505719Y-35390715D01*
X82662502Y-35245158D01*
X82844584Y-35102135D01*
X83037947Y-34971358D01*
X83228571Y-34862540D01*
X83349920Y-34805858D01*
X83681900Y-34692496D01*
X84024294Y-34623368D01*
X84372464Y-34598736D01*
X84721774Y-34618861D01*
X85067585Y-34684005D01*
X85143820Y-34704716D01*
X85456882Y-34818388D01*
X85751956Y-34972600D01*
X86025517Y-35163722D01*
X86274040Y-35388125D01*
X86493998Y-35642177D01*
X86681867Y-35922250D01*
X86834121Y-36224713D01*
X86947233Y-36545936D01*
X86953253Y-36567770D01*
X86975064Y-36651848D01*
X86990998Y-36725808D01*
X87001964Y-36799581D01*
X87008873Y-36883093D01*
X87012634Y-36986275D01*
X87014156Y-37119054D01*
X87014378Y-37234858D01*
X87013885Y-37394135D01*
X87011798Y-37516886D01*
X87007200Y-37613058D01*
X86999177Y-37692597D01*
X86986812Y-37765449D01*
X86969191Y-37841562D01*
X86952831Y-37903609D01*
X86844745Y-38220537D01*
X86697772Y-38523132D01*
X86516137Y-38805251D01*
X86304067Y-39060748D01*
X86065787Y-39283480D01*
X85936139Y-39382049D01*
X85712406Y-39525787D01*
X85482918Y-39643270D01*
X85234521Y-39740374D01*
X84954061Y-39822976D01*
X84942681Y-39825885D01*
X84879695Y-39846142D01*
X84850789Y-39870991D01*
X84843916Y-39910062D01*
X84845584Y-39936106D01*
X84854942Y-39952224D01*
X84878522Y-39957857D01*
X84922859Y-39952447D01*
X84994485Y-39935436D01*
X85099932Y-39906267D01*
X85189671Y-39880533D01*
X85498512Y-39768193D01*
X85795800Y-39614340D01*
X86075645Y-39423593D01*
X86332156Y-39200570D01*
X86559442Y-38949891D01*
X86751614Y-38676172D01*
X86774369Y-38638009D01*
X86929093Y-38327792D01*
X87043331Y-37999452D01*
X87116466Y-37658748D01*
X87147883Y-37311441D01*
X87136966Y-36963292D01*
X87083099Y-36620062D01*
X87016186Y-36375563D01*
X86887312Y-36054353D01*
X86718478Y-35752876D01*
X86513334Y-35474807D01*
X86275536Y-35223820D01*
X86008736Y-35003588D01*
X85716587Y-34817787D01*
X85402744Y-34670091D01*
X85273732Y-34623101D01*
X84932868Y-34532332D01*
X84590939Y-34486144D01*
X84251403Y-34482861D01*
X83917716Y-34520805D01*
X83593337Y-34598302D01*
X83281723Y-34713674D01*
X82986331Y-34865245D01*
X82710619Y-35051340D01*
X82458045Y-35270281D01*
X82232065Y-35520393D01*
X82036137Y-35799999D01*
X81873719Y-36107423D01*
X81791280Y-36311496D01*
X81700935Y-36627364D01*
X81649170Y-36958502D01*
X81636080Y-37295890D01*
X81548648Y-37295890D01*
X81547279Y-37151633D01*
X81567764Y-36900479D01*
X81568154Y-36897286D01*
X81634537Y-36543743D01*
X81744137Y-36203565D01*
X81894659Y-35880692D01*
X82083808Y-35579063D01*
X82309290Y-35302620D01*
X82568809Y-35055301D01*
X82702495Y-34949792D01*
X83000863Y-34755945D01*
X83312864Y-34604416D01*
X83634950Y-34494338D01*
X83963572Y-34424844D01*
X84295181Y-34395067D01*
X84626229Y-34404140D01*
X84953167Y-34451195D01*
X85272448Y-34535366D01*
X85580521Y-34655786D01*
X85873839Y-34811587D01*
X86148853Y-35001903D01*
X86402015Y-35225866D01*
X86629776Y-35482610D01*
X86828587Y-35771266D01*
X86946092Y-35986679D01*
X87063201Y-36254670D01*
X87146979Y-36519546D01*
X87200929Y-36795413D01*
X87228554Y-37096375D01*
X87230081Y-37130284D01*
X87222500Y-37494653D01*
X87170151Y-37848404D01*
X87074035Y-38188996D01*
X86935154Y-38513891D01*
X86754510Y-38820548D01*
X86533104Y-39106428D01*
X86391300Y-39256880D01*
X86128486Y-39489875D01*
X85850824Y-39681220D01*
X85551710Y-39835006D01*
X85305487Y-39929444D01*
X85193229Y-39965085D01*
X85085641Y-39995972D01*
X84997136Y-40018132D01*
X84953539Y-40026425D01*
X84879918Y-40043020D01*
X84838125Y-40072154D01*
X84823121Y-40097147D01*
X84803931Y-40143703D01*
X84797439Y-40166678D01*
X84818370Y-40172928D01*
X84875620Y-40167752D01*
X84960875Y-40152683D01*
X85065817Y-40129254D01*
X85182131Y-40098998D01*
X85214723Y-40089766D01*
X85533510Y-39979573D01*
X85825668Y-39839004D01*
X86098928Y-39663432D01*
X86361017Y-39448232D01*
X86485246Y-39329378D01*
X86737485Y-39048126D01*
X86945708Y-38752390D01*
X87110494Y-38440767D01*
X87232426Y-38111857D01*
X87312085Y-37764256D01*
X87350052Y-37396563D01*
X87353706Y-37234858D01*
X87338597Y-36902815D01*
X87291279Y-36594549D01*
X87208763Y-36297699D01*
X87088062Y-35999898D01*
X87023260Y-35867665D01*
X86835876Y-35552625D01*
X86613343Y-35266943D01*
X86357880Y-35012341D01*
X86071709Y-34790539D01*
X85757048Y-34603259D01*
X85416117Y-34452224D01*
X85053065Y-34339635D01*
X84967070Y-34319559D01*
X84887697Y-34304949D01*
X84804813Y-34294955D01*
X84708284Y-34288727D01*
X84587977Y-34285414D01*
X84433759Y-34284168D01*
X84390760Y-34284082D01*
X84232134Y-34284343D01*
X84109691Y-34286219D01*
X84013142Y-34290678D01*
X83932196Y-34298687D01*
X83856563Y-34311214D01*
X83775954Y-34329226D01*
X83696752Y-34349334D01*
X83333215Y-34466804D01*
X82993777Y-34622519D01*
X82680657Y-34814526D01*
X82396077Y-35040871D01*
X82142257Y-35299602D01*
X81921418Y-35588764D01*
X81735781Y-35906405D01*
X81613234Y-36181963D01*
X81529081Y-36447366D01*
X81469368Y-36739337D01*
X81435458Y-37044101D01*
X81428712Y-37347884D01*
X81348910Y-37347884D01*
X81347519Y-37276399D01*
X81350420Y-37089190D01*
X81359633Y-36911183D01*
X81375014Y-36755927D01*
X81389893Y-36665508D01*
X81489441Y-36294692D01*
X81628468Y-35945841D01*
X81804685Y-35621276D01*
X82015803Y-35323316D01*
X82259532Y-35054278D01*
X82533583Y-34816481D01*
X82835666Y-34612246D01*
X83163492Y-34443890D01*
X83514770Y-34313732D01*
X83779526Y-34245273D01*
X83989591Y-34212059D01*
X84226865Y-34194191D01*
X84474894Y-34191672D01*
X84717224Y-34204508D01*
X84937401Y-34232701D01*
X85000399Y-34244948D01*
X85359731Y-34341690D01*
X85690443Y-34473033D01*
X85997774Y-34641824D01*
X86286962Y-34850907D01*
X86543268Y-35083064D01*
X86793055Y-35360221D01*
X87000905Y-35653117D01*
X87169258Y-35966240D01*
X87300552Y-36304079D01*
X87391282Y-36643210D01*
X87409261Y-36740907D01*
X87421677Y-36847203D01*
X87429250Y-36972474D01*
X87432698Y-37127100D01*
X87433071Y-37246478D01*
X87431904Y-37405534D01*
X87428408Y-37530101D01*
X87421477Y-37632150D01*
X87410006Y-37723652D01*
X87392890Y-37816579D01*
X87371661Y-37911683D01*
X87262528Y-38278769D01*
X87112991Y-38623567D01*
X86924430Y-38944149D01*
X86698220Y-39238588D01*
X86435741Y-39504955D01*
X86138369Y-39741323D01*
X85997096Y-39835156D01*
X85763150Y-39965675D01*
X85508049Y-40079219D01*
X85245970Y-40170572D01*
X84991094Y-40234518D01*
X84849698Y-40257294D01*
X84764451Y-40273676D01*
X84689714Y-40298086D01*
X84657157Y-40315110D01*
X84592089Y-40351665D01*
X84518084Y-40381545D01*
X84517724Y-40381657D01*
X84494958Y-40392756D01*
X84510727Y-40398621D01*
X84557446Y-40399765D01*
X84627529Y-40396700D01*
X84713390Y-40389937D01*
X84807444Y-40379990D01*
X84902104Y-40367370D01*
X84989786Y-40352589D01*
X85011019Y-40348349D01*
X85379884Y-40248746D01*
X85727927Y-40108853D01*
X86052815Y-39931020D01*
X86352215Y-39717599D01*
X86623795Y-39470940D01*
X86865222Y-39193396D01*
X87074162Y-38887316D01*
X87248283Y-38555052D01*
X87385253Y-38198956D01*
X87473426Y-37866684D01*
X87506679Y-37653485D01*
X87523919Y-37413587D01*
X87525147Y-37163924D01*
X87510362Y-36921429D01*
X87479565Y-36703036D01*
X87473426Y-36672749D01*
X87374253Y-36299515D01*
X87240774Y-35955891D01*
X87070915Y-35637999D01*
X86862602Y-35341962D01*
X86613758Y-35063900D01*
X86610986Y-35061126D01*
X86325455Y-34805068D01*
X86021673Y-34590642D01*
X85696443Y-34416111D01*
X85346567Y-34279740D01*
X85001201Y-34186713D01*
X84866914Y-34165401D01*
X84699313Y-34150983D01*
X84511041Y-34143449D01*
X84314747Y-34142788D01*
X84123075Y-34148987D01*
X83948673Y-34162036D01*
X83804185Y-34181924D01*
X83774932Y-34187807D01*
X83471837Y-34271070D01*
X83164672Y-34387361D01*
X82869071Y-34529854D01*
X82600673Y-34691724D01*
X82566515Y-34715294D01*
X82406784Y-34840365D01*
X82238053Y-34995013D01*
X82071958Y-35167172D01*
X81920138Y-35344774D01*
X81794231Y-35515754D01*
X81793665Y-35516603D01*
X81599141Y-35844410D01*
X81449743Y-36177232D01*
X81344119Y-36519490D01*
X81280923Y-36875606D01*
X81258804Y-37250000D01*
X81258752Y-37269717D01*
X80948586Y-37269717D01*
X80951010Y-37081767D01*
X80959057Y-36896552D01*
X80972622Y-36733700D01*
X80991704Y-36604630D01*
X80993536Y-36595792D01*
X81099913Y-36202774D01*
X81245851Y-35830976D01*
X81429237Y-35482763D01*
X81647960Y-35160500D01*
X81899907Y-34866552D01*
X82182967Y-34603285D01*
X82495028Y-34373062D01*
X82833977Y-34178251D01*
X83197703Y-34021214D01*
X83334238Y-33974405D01*
X83517254Y-33919137D01*
X83680940Y-33878257D01*
X83838436Y-33849878D01*
X84002880Y-33832111D01*
X84187412Y-33823066D01*
X84402379Y-33820849D01*
X84574605Y-33822292D01*
X84711498Y-33826351D01*
X84824172Y-33833885D01*
X84923736Y-33845751D01*
X85021304Y-33862808D01*
X85066187Y-33872120D01*
X85466598Y-33980662D01*
X85843087Y-34128199D01*
X86194024Y-34313481D01*
X86517779Y-34535260D01*
X86812723Y-34792286D01*
X87077227Y-35083312D01*
X87309661Y-35407088D01*
X87493432Y-35732127D01*
X87647290Y-36090666D01*
X87758399Y-36463025D01*
X87826748Y-36844753D01*
X87852324Y-37231400D01*
X87835115Y-37618517D01*
X87775108Y-38001651D01*
X87672291Y-38376353D01*
X87526653Y-38738173D01*
X87501899Y-38789467D01*
X87303333Y-39140944D01*
X87070025Y-39462570D01*
X86804278Y-39752565D01*
X86508395Y-40009146D01*
X86184677Y-40230533D01*
X85835429Y-40414945D01*
X85462951Y-40560600D01*
X85078993Y-40663731D01*
X84972212Y-40681311D01*
X84833624Y-40696842D01*
X84675123Y-40709711D01*
X84508604Y-40719306D01*
X84345962Y-40725012D01*
X84199090Y-40726217D01*
X84079883Y-40722308D01*
X84030558Y-40717773D01*
X83620607Y-40644441D01*
X83233978Y-40531224D01*
X82868870Y-40377337D01*
X82523482Y-40181997D01*
X82196012Y-39944421D01*
X82133264Y-39892407D01*
X81856296Y-39627818D01*
X81610517Y-39330621D01*
X81597649Y-39310866D01*
X82024430Y-39310866D01*
X82031125Y-39336292D01*
X82062385Y-39376570D01*
X82122085Y-39438714D01*
X82202382Y-39515545D01*
X82295430Y-39599885D01*
X82393385Y-39684557D01*
X82488404Y-39762381D01*
X82541808Y-39803602D01*
X82685319Y-39900495D01*
X82859040Y-40001136D01*
X83048121Y-40097898D01*
X83237707Y-40183153D01*
X83403394Y-40246080D01*
X83564266Y-40294349D01*
X83740017Y-40337076D01*
X83916227Y-40371460D01*
X84078477Y-40394699D01*
X84212351Y-40403993D01*
X84216469Y-40404032D01*
X84344282Y-40404914D01*
X84257348Y-40373886D01*
X84185519Y-40344268D01*
X84124005Y-40312561D01*
X84117915Y-40308749D01*
X84065030Y-40286347D01*
X83987313Y-40266433D01*
X83937603Y-40258174D01*
X83600185Y-40191471D01*
X83267129Y-40079345D01*
X82940513Y-39922793D01*
X82622416Y-39722813D01*
X82314914Y-39480403D01*
X82310888Y-39476882D01*
X82229259Y-39410376D01*
X82153474Y-39357342D01*
X82089858Y-39320961D01*
X82088939Y-39320624D01*
X82284244Y-39320624D01*
X82361472Y-39402082D01*
X82492745Y-39523333D01*
X82657450Y-39648609D01*
X82843981Y-39770447D01*
X83040734Y-39881383D01*
X83236106Y-39973956D01*
X83276793Y-39990734D01*
X83388068Y-40032088D01*
X83508552Y-40071542D01*
X83630346Y-40107154D01*
X83745552Y-40136985D01*
X83846272Y-40159095D01*
X83924607Y-40171544D01*
X83972661Y-40172391D01*
X83984081Y-40164459D01*
X83968164Y-40103171D01*
X83929400Y-40054339D01*
X83882681Y-40035133D01*
X83823501Y-40027287D01*
X83732186Y-40005986D01*
X83619932Y-39974583D01*
X83497935Y-39936429D01*
X83377392Y-39894879D01*
X83269499Y-39853286D01*
X83254625Y-39847049D01*
X83052317Y-39747507D01*
X82836887Y-39616839D01*
X82620776Y-39462733D01*
X82575405Y-39427266D01*
X82489680Y-39361438D01*
X82429517Y-39322111D01*
X82386009Y-39304606D01*
X82350248Y-39304245D01*
X82343887Y-39305654D01*
X82284244Y-39320624D01*
X82088939Y-39320624D01*
X82044735Y-39304409D01*
X82024430Y-39310866D01*
X81597649Y-39310866D01*
X81530641Y-39207998D01*
X82502560Y-39207998D01*
X82505024Y-39239961D01*
X82540073Y-39282861D01*
X82579395Y-39318955D01*
X82859865Y-39534559D01*
X83165199Y-39711282D01*
X83492841Y-39847774D01*
X83693596Y-39908367D01*
X83802121Y-39936725D01*
X83873124Y-39953742D01*
X83914185Y-39959305D01*
X83932882Y-39953303D01*
X83936794Y-39935622D01*
X83933501Y-39906151D01*
X83933337Y-39904808D01*
X83926340Y-39875668D01*
X83907848Y-39853743D01*
X83869152Y-39834538D01*
X83801537Y-39813558D01*
X83710673Y-39789926D01*
X83446754Y-39704685D01*
X83180026Y-39583945D01*
X82925025Y-39435328D01*
X82696289Y-39266456D01*
X82670606Y-39244596D01*
X82606092Y-39192502D01*
X82564297Y-39169924D01*
X82536104Y-39172520D01*
X82529256Y-39177289D01*
X82502560Y-39207998D01*
X81530641Y-39207998D01*
X81428510Y-39051212D01*
G37*
G36*
X103288912Y-37948547D02*
G01*
X103491456Y-37955261D01*
X103614255Y-38303843D01*
X103666458Y-38454430D01*
X103722281Y-38619465D01*
X103775636Y-38780716D01*
X103820434Y-38919947D01*
X103827460Y-38942356D01*
X103917866Y-39232288D01*
X103969600Y-39058550D01*
X103993282Y-38982663D01*
X104029028Y-38872777D01*
X104073554Y-38738761D01*
X104123577Y-38590486D01*
X104175813Y-38437823D01*
X104183957Y-38414227D01*
X104346580Y-37943642D01*
X104736322Y-37943642D01*
X104736322Y-39547118D01*
X104474672Y-39547118D01*
X104484998Y-38895823D01*
X104487891Y-38705902D01*
X104489695Y-38558231D01*
X104490204Y-38448593D01*
X104489211Y-38372771D01*
X104486509Y-38326545D01*
X104481892Y-38305698D01*
X104475153Y-38306012D01*
X104466086Y-38323268D01*
X104457968Y-38343902D01*
X104439850Y-38393273D01*
X104408819Y-38479118D01*
X104367504Y-38594110D01*
X104318535Y-38730920D01*
X104264539Y-38882220D01*
X104224317Y-38995197D01*
X104028023Y-39547118D01*
X103911587Y-39546833D01*
X103795151Y-39546547D01*
X103565894Y-38896146D01*
X103508052Y-38732337D01*
X103455359Y-38583660D01*
X103409742Y-38455504D01*
X103373124Y-38353260D01*
X103347433Y-38282316D01*
X103334593Y-38248062D01*
X103333506Y-38245728D01*
X103332950Y-38267980D01*
X103332937Y-38330828D01*
X103333428Y-38428392D01*
X103334383Y-38554794D01*
X103335764Y-38704156D01*
X103337532Y-38870597D01*
X103337825Y-38896414D01*
X103345274Y-39547118D01*
X103086368Y-39547118D01*
X103086368Y-37941832D01*
X103288912Y-37948547D01*
G37*
G36*
X93000938Y-38414227D02*
G01*
X93088734Y-38557941D01*
X93173715Y-38698724D01*
X93251001Y-38828365D01*
X93315714Y-38938655D01*
X93362974Y-39021383D01*
X93377275Y-39047484D01*
X93464285Y-39210156D01*
X93464897Y-38576899D01*
X93465508Y-37943642D01*
X93721135Y-37943642D01*
X93721135Y-39549154D01*
X93554673Y-39542327D01*
X93388211Y-39535499D01*
X93088727Y-39047484D01*
X93001075Y-38903776D01*
X92917635Y-38765343D01*
X92842817Y-38639630D01*
X92781033Y-38534083D01*
X92736696Y-38456145D01*
X92720362Y-38425847D01*
X92684371Y-38357528D01*
X92657515Y-38309353D01*
X92646006Y-38292205D01*
X92644829Y-38314439D01*
X92644279Y-38377160D01*
X92644335Y-38474381D01*
X92644978Y-38600115D01*
X92646190Y-38748378D01*
X92647950Y-38913182D01*
X92648027Y-38919653D01*
X92655523Y-39547118D01*
X92396524Y-39547118D01*
X92396524Y-37943642D01*
X92711611Y-37943642D01*
X93000938Y-38414227D01*
G37*
G36*
X98084218Y-35531208D02*
G01*
X98260912Y-35535366D01*
X98398382Y-35542579D01*
X98503871Y-35554833D01*
X98584621Y-35574114D01*
X98647873Y-35602408D01*
X98700869Y-35641701D01*
X98750852Y-35693980D01*
X98772403Y-35719934D01*
X98826515Y-35819647D01*
X98854799Y-35946307D01*
X98854935Y-36086767D01*
X98846931Y-36142055D01*
X98811917Y-36230182D01*
X98745993Y-36320120D01*
X98661564Y-36396832D01*
X98610556Y-36428548D01*
X98533862Y-36467978D01*
X98741862Y-36787473D01*
X98811460Y-36895052D01*
X98871163Y-36988626D01*
X98916746Y-37061464D01*
X98943979Y-37106838D01*
X98949863Y-37118626D01*
X98928673Y-37124593D01*
X98873280Y-37128796D01*
X98800484Y-37130284D01*
X98651104Y-37130284D01*
X98241080Y-36479356D01*
X98078408Y-36485286D01*
X97915737Y-36491217D01*
X97909271Y-36810750D01*
X97902806Y-37130284D01*
X97648491Y-37130284D01*
X97648491Y-36270449D01*
X97904117Y-36270449D01*
X98124416Y-36270449D01*
X98279754Y-36264541D01*
X98394452Y-36247052D01*
X98434984Y-36234330D01*
X98515003Y-36185297D01*
X98561223Y-36112134D01*
X98577838Y-36007730D01*
X98578042Y-35991785D01*
X98558866Y-35893421D01*
X98522011Y-35836017D01*
X98496602Y-35808524D01*
X98470130Y-35789820D01*
X98433285Y-35777888D01*
X98376756Y-35770714D01*
X98291234Y-35766280D01*
X98185048Y-35763059D01*
X97904117Y-35755303D01*
X97904117Y-36270449D01*
X97648491Y-36270449D01*
X97648491Y-35523990D01*
X98084218Y-35531208D01*
G37*
G36*
X94786986Y-37925858D02*
G01*
X94929877Y-37943016D01*
X95051499Y-37975433D01*
X95072451Y-37984007D01*
X95136177Y-38019795D01*
X95207970Y-38071257D01*
X95277324Y-38129284D01*
X95333731Y-38184766D01*
X95366686Y-38228593D01*
X95371089Y-38242947D01*
X95354457Y-38267707D01*
X95311504Y-38310327D01*
X95268681Y-38347302D01*
X95166272Y-38431218D01*
X95118536Y-38350312D01*
X95040349Y-38260573D01*
X94934029Y-38196909D01*
X94811174Y-38161282D01*
X94683386Y-38155655D01*
X94562265Y-38181990D01*
X94462783Y-38239370D01*
X94416360Y-38286528D01*
X94399082Y-38335748D01*
X94399683Y-38392905D01*
X94411756Y-38451780D01*
X94442215Y-38499316D01*
X94497006Y-38539006D01*
X94582074Y-38574341D01*
X94703365Y-38608811D01*
X94809462Y-38633515D01*
X94996474Y-38682332D01*
X95141020Y-38738535D01*
X95246922Y-38805333D01*
X95318003Y-38885939D01*
X95358086Y-38983565D01*
X95370995Y-39101420D01*
X95371002Y-39105219D01*
X95349630Y-39242069D01*
X95287247Y-39359322D01*
X95186157Y-39454232D01*
X95048665Y-39524054D01*
X95008242Y-39537458D01*
X94894970Y-39559104D01*
X94756664Y-39567422D01*
X94612758Y-39562601D01*
X94482687Y-39544831D01*
X94431138Y-39531839D01*
X94314618Y-39484226D01*
X94205124Y-39418587D01*
X94117640Y-39344823D01*
X94082383Y-39301447D01*
X94041502Y-39239054D01*
X94139557Y-39143269D01*
X94197326Y-39092638D01*
X94235853Y-39070954D01*
X94248167Y-39075367D01*
X94303010Y-39161326D01*
X94392977Y-39237187D01*
X94506795Y-39295579D01*
X94633190Y-39329132D01*
X94637181Y-39329694D01*
X94774457Y-39335794D01*
X94893712Y-39316804D01*
X94989502Y-39276198D01*
X95056385Y-39217450D01*
X95088916Y-39144033D01*
X95081652Y-39059421D01*
X95077788Y-39048525D01*
X95052357Y-39013544D01*
X95000786Y-38980805D01*
X94917752Y-38948106D01*
X94797930Y-38913246D01*
X94681255Y-38884482D01*
X94484757Y-38829135D01*
X94329412Y-38765193D01*
X94216841Y-38693485D01*
X94148663Y-38614839D01*
X94146889Y-38611573D01*
X94113987Y-38508693D01*
X94107661Y-38388165D01*
X94127188Y-38269956D01*
X94162210Y-38188396D01*
X94254657Y-38079702D01*
X94378203Y-37994395D01*
X94514111Y-37942956D01*
X94642004Y-37925368D01*
X94786986Y-37925858D01*
G37*
G36*
X89809112Y-37943601D02*
G01*
X89959273Y-37995224D01*
X90021307Y-38030035D01*
X90081486Y-38079187D01*
X90142794Y-38145101D01*
X90195171Y-38214905D01*
X90228559Y-38275726D01*
X90235316Y-38303882D01*
X90216715Y-38324888D01*
X90170237Y-38353021D01*
X90109869Y-38382079D01*
X90049597Y-38405860D01*
X90003410Y-38418164D01*
X89985540Y-38414626D01*
X89950692Y-38347169D01*
X89896044Y-38273719D01*
X89838345Y-38216039D01*
X89825541Y-38206722D01*
X89744570Y-38175435D01*
X89638679Y-38163708D01*
X89524996Y-38171298D01*
X89420648Y-38197960D01*
X89387100Y-38212992D01*
X89287339Y-38290099D01*
X89209415Y-38400913D01*
X89156175Y-38536719D01*
X89130468Y-38688803D01*
X89135142Y-38848449D01*
X89151272Y-38934617D01*
X89203258Y-39084925D01*
X89277212Y-39197322D01*
X89376609Y-39276537D01*
X89417594Y-39297095D01*
X89524706Y-39326872D01*
X89642486Y-39331943D01*
X89753552Y-39313297D01*
X89838889Y-39273146D01*
X89891989Y-39223290D01*
X89948026Y-39155445D01*
X89992618Y-39088168D01*
X90008312Y-39054571D01*
X90032365Y-39047129D01*
X90083544Y-39054346D01*
X90146703Y-39071558D01*
X90206697Y-39094104D01*
X90248380Y-39117318D01*
X90258555Y-39131613D01*
X90248724Y-39164664D01*
X90224076Y-39220811D01*
X90212879Y-39243443D01*
X90138316Y-39348396D01*
X90033275Y-39442837D01*
X89913688Y-39513760D01*
X89854483Y-39536022D01*
X89719683Y-39561393D01*
X89567212Y-39567156D01*
X89418849Y-39553540D01*
X89322293Y-39530392D01*
X89178528Y-39459432D01*
X89058577Y-39354493D01*
X88963671Y-39222220D01*
X88895040Y-39069258D01*
X88853918Y-38902252D01*
X88841535Y-38727846D01*
X88859124Y-38552686D01*
X88907915Y-38383416D01*
X88989141Y-38226680D01*
X89062958Y-38131283D01*
X89176620Y-38038000D01*
X89318551Y-37971482D01*
X89478266Y-37932838D01*
X89645282Y-37923175D01*
X89809112Y-37943601D01*
G37*
G36*
X100901922Y-39547118D02*
G01*
X100623056Y-39547118D01*
X100623056Y-37943642D01*
X100901922Y-37943642D01*
X100901922Y-39547118D01*
G37*
G36*
X92466240Y-36897896D02*
G01*
X93349314Y-36897896D01*
X93349314Y-37130284D01*
X92210613Y-37130284D01*
X92210613Y-35526807D01*
X92466240Y-35526807D01*
X92466240Y-36897896D01*
G37*
G36*
X82301729Y-37480648D02*
G01*
X82294043Y-37345277D01*
X82294053Y-37085342D01*
X82318522Y-36852998D01*
X82370336Y-36634664D01*
X82452381Y-36416764D01*
X82522615Y-36270241D01*
X82680877Y-36010396D01*
X82869531Y-35782604D01*
X83084470Y-35587775D01*
X83321585Y-35426818D01*
X83576770Y-35300644D01*
X83845916Y-35210162D01*
X84124916Y-35156281D01*
X84409661Y-35139912D01*
X84696046Y-35161963D01*
X84979961Y-35223344D01*
X85257299Y-35324966D01*
X85523953Y-35467738D01*
X85675209Y-35572099D01*
X85899550Y-35769622D01*
X86094170Y-35999443D01*
X86254980Y-36255089D01*
X86377891Y-36530087D01*
X86457151Y-36809771D01*
X86487077Y-37026586D01*
X86495096Y-37263991D01*
X86481633Y-37502737D01*
X86447112Y-37723575D01*
X86435947Y-37770962D01*
X86339174Y-38062225D01*
X86204599Y-38330203D01*
X86035922Y-38572534D01*
X85836843Y-38786851D01*
X85611064Y-38970793D01*
X85362285Y-39121994D01*
X85094206Y-39238092D01*
X84810528Y-39316721D01*
X84514951Y-39355519D01*
X84211176Y-39352122D01*
X84003473Y-39324804D01*
X83707992Y-39248252D01*
X83429849Y-39130104D01*
X83172673Y-38973176D01*
X82940091Y-38780280D01*
X82735732Y-38554231D01*
X82563222Y-38297844D01*
X82483751Y-38146010D01*
X82409489Y-37976049D01*
X82356947Y-37819262D01*
X82352382Y-37798213D01*
X82756978Y-37798213D01*
X82779522Y-37847297D01*
X82833722Y-37891354D01*
X82931968Y-37936003D01*
X83029770Y-37937704D01*
X83089273Y-37920446D01*
X83131371Y-37894508D01*
X83128113Y-37867646D01*
X83080518Y-37842019D01*
X83047575Y-37832148D01*
X82989673Y-37806242D01*
X82975895Y-37775226D01*
X83005701Y-37746848D01*
X83054529Y-37732276D01*
X83171841Y-37701716D01*
X83254727Y-37655940D01*
X83304375Y-37603587D01*
X83351592Y-37538768D01*
X83450688Y-37607441D01*
X83517372Y-37660918D01*
X83595964Y-37734401D01*
X83667528Y-37809878D01*
X83785271Y-37943642D01*
X83929641Y-37943642D01*
X84038891Y-37938118D01*
X84119477Y-37923577D01*
X84168241Y-37903065D01*
X84182029Y-37879627D01*
X84157686Y-37856310D01*
X84092054Y-37836158D01*
X84048449Y-37828967D01*
X83949223Y-37815619D01*
X83953380Y-37618194D01*
X83957538Y-37420769D01*
X84110242Y-37413885D01*
X84187552Y-37413359D01*
X84242480Y-37418634D01*
X84262946Y-37428360D01*
X84254167Y-37460342D01*
X84231698Y-37518875D01*
X84213693Y-37561065D01*
X84164439Y-37672411D01*
X84211680Y-37769647D01*
X84239870Y-37823164D01*
X84268138Y-37853722D01*
X84310866Y-37869773D01*
X84382438Y-37879768D01*
X84402758Y-37881917D01*
X84481865Y-37887748D01*
X84542745Y-37887774D01*
X84568956Y-37883131D01*
X84574099Y-37859475D01*
X84551353Y-37825929D01*
X84513297Y-37795463D01*
X84472510Y-37781043D01*
X84469865Y-37780970D01*
X84430394Y-37774205D01*
X84422241Y-37751412D01*
X84446927Y-37708848D01*
X84505975Y-37642767D01*
X84539953Y-37608519D01*
X84675330Y-37474554D01*
X84835149Y-37634312D01*
X84992108Y-37779856D01*
X85131514Y-37885347D01*
X85252375Y-37950098D01*
X85320142Y-37969948D01*
X85401967Y-37977626D01*
X85491065Y-37976139D01*
X85569379Y-37966632D01*
X85617551Y-37951087D01*
X85619453Y-37930369D01*
X85591887Y-37900652D01*
X85547920Y-37871671D01*
X85500620Y-37853158D01*
X85482983Y-37850847D01*
X85448484Y-37847369D01*
X85418317Y-37833550D01*
X85384032Y-37802088D01*
X85337178Y-37745681D01*
X85289523Y-37683689D01*
X85216736Y-37570028D01*
X85158871Y-37446445D01*
X85144517Y-37404824D01*
X85121794Y-37328953D01*
X85105662Y-37272901D01*
X85099720Y-37249317D01*
X85119098Y-37244355D01*
X85167786Y-37250451D01*
X85230915Y-37264233D01*
X85293616Y-37282329D01*
X85341020Y-37301367D01*
X85348542Y-37305749D01*
X85396393Y-37331298D01*
X85425183Y-37339433D01*
X85455884Y-37355616D01*
X85498241Y-37395300D01*
X85504675Y-37402584D01*
X85544174Y-37442648D01*
X85572245Y-37449540D01*
X85597049Y-37434154D01*
X85628097Y-37416935D01*
X85666989Y-37420259D01*
X85728295Y-37444596D01*
X85802641Y-37468807D01*
X85847514Y-37463387D01*
X85859325Y-37430150D01*
X85843454Y-37386415D01*
X85825819Y-37337807D01*
X85841162Y-37321548D01*
X85885988Y-37337467D01*
X85941551Y-37351086D01*
X85975124Y-37346460D01*
X86015334Y-37325103D01*
X86049887Y-37297939D01*
X86066569Y-37276035D01*
X86059803Y-37269716D01*
X86027901Y-37250701D01*
X85986956Y-37202980D01*
X85946306Y-37140536D01*
X85915287Y-37077350D01*
X85903720Y-37035994D01*
X85883367Y-36965349D01*
X85846229Y-36897045D01*
X85845985Y-36896715D01*
X85812179Y-36837195D01*
X85796795Y-36782882D01*
X85796707Y-36779738D01*
X85790618Y-36745972D01*
X85763285Y-36737905D01*
X85724791Y-36743798D01*
X85664185Y-36746225D01*
X85620287Y-36717618D01*
X85610247Y-36706035D01*
X85574817Y-36672065D01*
X85547495Y-36674834D01*
X85538399Y-36682620D01*
X85507918Y-36698142D01*
X85471494Y-36677199D01*
X85467984Y-36674069D01*
X85428858Y-36646591D01*
X85360604Y-36605942D01*
X85275789Y-36559484D01*
X85245737Y-36543841D01*
X85151145Y-36495104D01*
X85061610Y-36448672D01*
X84993234Y-36412903D01*
X84981083Y-36406473D01*
X84905164Y-36376304D01*
X84813794Y-36353300D01*
X84781153Y-36348276D01*
X84704645Y-36344165D01*
X84635442Y-36355063D01*
X84553198Y-36384925D01*
X84521783Y-36398692D01*
X84449254Y-36429632D01*
X84391628Y-36447228D01*
X84332693Y-36453595D01*
X84256237Y-36450853D01*
X84175601Y-36443900D01*
X84048696Y-36434481D01*
X83904754Y-36427457D01*
X83773206Y-36424237D01*
X83763312Y-36424183D01*
X83654821Y-36425694D01*
X83575066Y-36433416D01*
X83506390Y-36450774D01*
X83431136Y-36481196D01*
X83403111Y-36494096D01*
X83313263Y-36545479D01*
X83222242Y-36613506D01*
X83136059Y-36691416D01*
X83060730Y-36772453D01*
X83002266Y-36849858D01*
X82966682Y-36916871D01*
X82959992Y-36966734D01*
X82968630Y-36982415D01*
X82969202Y-37009931D01*
X82955849Y-37064490D01*
X82946816Y-37091717D01*
X82926878Y-37163894D01*
X82907221Y-37261708D01*
X82891977Y-37364477D01*
X82891518Y-37368401D01*
X82863025Y-37522743D01*
X82816835Y-37640010D01*
X82811549Y-37649308D01*
X82767967Y-37735641D01*
X82756978Y-37798213D01*
X82352382Y-37798213D01*
X82322302Y-37659508D01*
X82301729Y-37480648D01*
G37*
G36*
X97917066Y-37943642D02*
G01*
X98097782Y-37945356D01*
X98239468Y-37951378D01*
X98349478Y-37963029D01*
X98435163Y-37981628D01*
X98503875Y-38008495D01*
X98562967Y-38044951D01*
X98587342Y-38063980D01*
X98675443Y-38153992D01*
X98726980Y-38254153D01*
X98747899Y-38377617D01*
X98749095Y-38421840D01*
X98733594Y-38567516D01*
X98684141Y-38684708D01*
X98597456Y-38779850D01*
X98548672Y-38815096D01*
X98491045Y-38858119D01*
X98455961Y-38895535D01*
X98450419Y-38913107D01*
X98465889Y-38941807D01*
X98502114Y-39001679D01*
X98554324Y-39085051D01*
X98617753Y-39184252D01*
X98646740Y-39229018D01*
X98712538Y-39331238D01*
X98768194Y-39419570D01*
X98809237Y-39486774D01*
X98831201Y-39525609D01*
X98833669Y-39531877D01*
X98812497Y-39539731D01*
X98757222Y-39545234D01*
X98686605Y-39547118D01*
X98539541Y-39547118D01*
X98343833Y-39234268D01*
X98148125Y-38921419D01*
X97979644Y-38920545D01*
X97811162Y-38919671D01*
X97811162Y-39547118D01*
X97532297Y-39547118D01*
X97532297Y-38687283D01*
X97811162Y-38687283D01*
X98032677Y-38687283D01*
X98174409Y-38682473D01*
X98282414Y-38668570D01*
X98335618Y-38653261D01*
X98412900Y-38598829D01*
X98459639Y-38520522D01*
X98475120Y-38430107D01*
X98458630Y-38339352D01*
X98409453Y-38260023D01*
X98361818Y-38221483D01*
X98317543Y-38199760D01*
X98263402Y-38186067D01*
X98188093Y-38178762D01*
X98080318Y-38176205D01*
X98049360Y-38176116D01*
X97811162Y-38176030D01*
X97811162Y-38687283D01*
X97532297Y-38687283D01*
X97532297Y-37943642D01*
X97917066Y-37943642D01*
G37*
G36*
X93930284Y-37130284D02*
G01*
X93651418Y-37130284D01*
X93651418Y-35526807D01*
X93930284Y-35526807D01*
X93930284Y-37130284D01*
G37*
G36*
X101603399Y-38507182D02*
G01*
X101606677Y-38708055D01*
X101611652Y-38867938D01*
X101619719Y-38992318D01*
X101632272Y-39086682D01*
X101650705Y-39156515D01*
X101676413Y-39207305D01*
X101710790Y-39244539D01*
X101755229Y-39273703D01*
X101804159Y-39297223D01*
X101914131Y-39328229D01*
X102033018Y-39333488D01*
X102143805Y-39313855D01*
X102221687Y-39276228D01*
X102263928Y-39242545D01*
X102297040Y-39206730D01*
X102322126Y-39162904D01*
X102340290Y-39105186D01*
X102352633Y-39027696D01*
X102360260Y-38924553D01*
X102364273Y-38789878D01*
X102365774Y-38617788D01*
X102365929Y-38507182D01*
X102365966Y-37943642D01*
X102644831Y-37943642D01*
X102644831Y-38520472D01*
X102644323Y-38709448D01*
X102642566Y-38858253D01*
X102639211Y-38973182D01*
X102633910Y-39060534D01*
X102626313Y-39126604D01*
X102616071Y-39177690D01*
X102606659Y-39209330D01*
X102539125Y-39339315D01*
X102437414Y-39445947D01*
X102311256Y-39519834D01*
X102270073Y-39534218D01*
X102138631Y-39559399D01*
X101986335Y-39567366D01*
X101834702Y-39558181D01*
X101707614Y-39532636D01*
X101598341Y-39479843D01*
X101495274Y-39396571D01*
X101412467Y-39296218D01*
X101369394Y-39210156D01*
X101357391Y-39154403D01*
X101347271Y-39062059D01*
X101338880Y-38930684D01*
X101332064Y-38757838D01*
X101326668Y-38541079D01*
X101326459Y-38530421D01*
X101315089Y-37943642D01*
X101596093Y-37943642D01*
X101603399Y-38507182D01*
G37*
G36*
X100599817Y-37132320D02*
G01*
X100433380Y-37125492D01*
X100266942Y-37118664D01*
X99987911Y-36665508D01*
X99900579Y-36522628D01*
X99815201Y-36381043D01*
X99737019Y-36249586D01*
X99671274Y-36137090D01*
X99623205Y-36052387D01*
X99612454Y-36032671D01*
X99516026Y-35852991D01*
X99526472Y-36491637D01*
X99536917Y-37130284D01*
X99275206Y-37130284D01*
X99275206Y-35526807D01*
X99588930Y-35526837D01*
X99890817Y-36020647D01*
X99979058Y-36165656D01*
X100063532Y-36305710D01*
X100139777Y-36433318D01*
X100203331Y-36540986D01*
X100249730Y-36621220D01*
X100267919Y-36653889D01*
X100343135Y-36793321D01*
X100344191Y-35526807D01*
X100599817Y-35526807D01*
X100599817Y-37132320D01*
G37*
G36*
X95787636Y-36035751D02*
G01*
X95858156Y-35864883D01*
X95960568Y-35720200D01*
X96012840Y-35668732D01*
X96133839Y-35583196D01*
X96269351Y-35530315D01*
X96428236Y-35507522D01*
X96565764Y-35508500D01*
X96755377Y-35538443D01*
X96916965Y-35605189D01*
X97049577Y-35707764D01*
X97152261Y-35845194D01*
X97224066Y-36016504D01*
X97264040Y-36220720D01*
X97264398Y-36224076D01*
X97266563Y-36376403D01*
X97245532Y-36537815D01*
X97204835Y-36690823D01*
X97148003Y-36817939D01*
X97142733Y-36826679D01*
X97037703Y-36954181D01*
X96902586Y-37052553D01*
X96745400Y-37119277D01*
X96574162Y-37151837D01*
X96396890Y-37147715D01*
X96238650Y-37110506D01*
X96075765Y-37031976D01*
X95945350Y-36920204D01*
X95847435Y-36775232D01*
X95782049Y-36597100D01*
X95752671Y-36425778D01*
X95752219Y-36340578D01*
X96037364Y-36340578D01*
X96052583Y-36499375D01*
X96092613Y-36641530D01*
X96153827Y-36756419D01*
X96195741Y-36804635D01*
X96299484Y-36872132D01*
X96425373Y-36907620D01*
X96560684Y-36909820D01*
X96692692Y-36877449D01*
X96733689Y-36858793D01*
X96814024Y-36798582D01*
X96886443Y-36710785D01*
X96892262Y-36701650D01*
X96925839Y-36642481D01*
X96947360Y-36586604D01*
X96960236Y-36519653D01*
X96967878Y-36427262D01*
X96970599Y-36371697D01*
X96969957Y-36209151D01*
X96950310Y-36079214D01*
X96909024Y-35970995D01*
X96852979Y-35885431D01*
X96764826Y-35808549D01*
X96650048Y-35759253D01*
X96521085Y-35739946D01*
X96390377Y-35753032D01*
X96309562Y-35780415D01*
X96195996Y-35856490D01*
X96112550Y-35967392D01*
X96059694Y-36112159D01*
X96037894Y-36289830D01*
X96037364Y-36340578D01*
X95752219Y-36340578D01*
X95751607Y-36225238D01*
X95787636Y-36035751D01*
G37*
G36*
X90996803Y-35538427D02*
G01*
X91331062Y-35538427D01*
X91581329Y-36200732D01*
X91646580Y-36373478D01*
X91708870Y-36538505D01*
X91765640Y-36689027D01*
X91814332Y-36818256D01*
X91852389Y-36919405D01*
X91877251Y-36985688D01*
X91881345Y-36996661D01*
X91931095Y-37130284D01*
X91786179Y-37130218D01*
X91641263Y-37130151D01*
X91569466Y-36926878D01*
X91497670Y-36723605D01*
X91162787Y-36717333D01*
X90827905Y-36711060D01*
X90684441Y-37118664D01*
X90541214Y-37125583D01*
X90466718Y-37128167D01*
X90415152Y-37128014D01*
X90398610Y-37125583D01*
X90406682Y-37103033D01*
X90429381Y-37041900D01*
X90464872Y-36947066D01*
X90511323Y-36823413D01*
X90566898Y-36675822D01*
X90629765Y-36509176D01*
X90640704Y-36480226D01*
X90917323Y-36480226D01*
X90928849Y-36491995D01*
X90963187Y-36498801D01*
X91027822Y-36501970D01*
X91130238Y-36502826D01*
X91150762Y-36502836D01*
X91276654Y-36500580D01*
X91357484Y-36493724D01*
X91394453Y-36482143D01*
X91397256Y-36476734D01*
X91389910Y-36446286D01*
X91369759Y-36380838D01*
X91339633Y-36289157D01*
X91302363Y-36180011D01*
X91290356Y-36145581D01*
X91250699Y-36032122D01*
X91216196Y-35932857D01*
X91189973Y-35856822D01*
X91175157Y-35813050D01*
X91173470Y-35807780D01*
X91162910Y-35816693D01*
X91140438Y-35862987D01*
X91108884Y-35939967D01*
X91071078Y-36040935D01*
X91050734Y-36098265D01*
X91009516Y-36215927D01*
X90972649Y-36320235D01*
X90943337Y-36402189D01*
X90924787Y-36452792D01*
X90921126Y-36462169D01*
X90917323Y-36480226D01*
X90640704Y-36480226D01*
X90698018Y-36328546D01*
X90996803Y-35538427D01*
G37*
G36*
X90546623Y-38430746D02*
G01*
X90612103Y-38271767D01*
X90698327Y-38146732D01*
X90816746Y-38045379D01*
X90961998Y-37973844D01*
X91124607Y-37932932D01*
X91295096Y-37923446D01*
X91463992Y-37946187D01*
X91621817Y-38001961D01*
X91719389Y-38060182D01*
X91837764Y-38173578D01*
X91928978Y-38318647D01*
X91990576Y-38487694D01*
X92020099Y-38673021D01*
X92015092Y-38866935D01*
X92002516Y-38946986D01*
X91947954Y-39134900D01*
X91863867Y-39288428D01*
X91747951Y-39410856D01*
X91618024Y-39495352D01*
X91496706Y-39539165D01*
X91350285Y-39563238D01*
X91196082Y-39566814D01*
X91051420Y-39549135D01*
X90965579Y-39523894D01*
X90874448Y-39478753D01*
X90782969Y-39419723D01*
X90752037Y-39395355D01*
X90648485Y-39277684D01*
X90572150Y-39130940D01*
X90523415Y-38964000D01*
X90502661Y-38785737D01*
X90506875Y-38685661D01*
X90797490Y-38685661D01*
X90800459Y-38874558D01*
X90830052Y-39027723D01*
X90887643Y-39148445D01*
X90974603Y-39240012D01*
X91047976Y-39285682D01*
X91185235Y-39329979D01*
X91328968Y-39331137D01*
X91458050Y-39293511D01*
X91571597Y-39217424D01*
X91655113Y-39106384D01*
X91708171Y-38961271D01*
X91730341Y-38782962D01*
X91731010Y-38733761D01*
X91713383Y-38557947D01*
X91664586Y-38410197D01*
X91587427Y-38293485D01*
X91484714Y-38210783D01*
X91359253Y-38165066D01*
X91213854Y-38159306D01*
X91191140Y-38161984D01*
X91055502Y-38201892D01*
X90944625Y-38281112D01*
X90869515Y-38379770D01*
X90836025Y-38445455D01*
X90815145Y-38513132D01*
X90803078Y-38598923D01*
X90797490Y-38685661D01*
X90506875Y-38685661D01*
X90510270Y-38605028D01*
X90546623Y-38430746D01*
G37*
G36*
X105898262Y-37130284D02*
G01*
X105642635Y-37130284D01*
X105642635Y-35526807D01*
X105898262Y-35526807D01*
X105898262Y-37130284D01*
G37*
%TO.C,REF\u002A\u002A*%
X101315000Y-59935000D02*
X101315000Y-56085000D01*
X107440000Y-57710000D02*
X108040000Y-58310000D01*
X99440000Y-58710000D02*
X100740000Y-58710000D01*
X105665000Y-56085000D02*
X105665000Y-59935000D01*
X100040000Y-59810000D02*
X100040000Y-56810000D01*
X108040000Y-55710000D02*
X107440000Y-56310000D01*
X107440000Y-55710000D02*
X108040000Y-56310000D01*
X101315000Y-59935000D02*
X105665000Y-59935000D01*
X105665000Y-56085000D02*
X101315000Y-56085000D01*
X107440000Y-59710000D02*
X108040000Y-60310000D01*
X108040000Y-59710000D02*
X107440000Y-60310000D01*
X108040000Y-57710000D02*
X107440000Y-58310000D01*
X102240000Y-56510000D02*
X105240000Y-56510000D01*
X105240000Y-56510000D02*
X105240000Y-59510000D01*
X105240000Y-59510000D02*
X102240000Y-59510000D01*
X102240000Y-59510000D02*
X102240000Y-56510000D01*
G36*
X100040000Y-58710000D02*
G01*
X99440000Y-57710000D01*
X100640000Y-57710000D01*
X100040000Y-58710000D01*
G37*
X100040000Y-58710000D02*
X99440000Y-57710000D01*
X100640000Y-57710000D01*
X100040000Y-58710000D01*
%TD*%
M02*
