%TF.GenerationSoftware,KiCad,Pcbnew,(6.0.8-1)-1*%
%TF.CreationDate,2022-11-01T09:45:00-04:00*%
%TF.ProjectId,Untitled,556e7469-746c-4656-942e-6b696361645f,rev?*%
%TF.SameCoordinates,Original*%
%TF.FileFunction,Drillmap*%
%TF.FilePolarity,Positive*%
%FSLAX45Y45*%
G04 Gerber Fmt 4.5, Leading zero omitted, Abs format (unit mm)*
G04 Created by KiCad (PCBNEW (6.0.8-1)-1) date 2022-11-01 09:45:00*
%MOMM*%
%LPD*%
G01*
G04 APERTURE LIST*
%ADD10C,0.100000*%
%ADD11C,0.200000*%
%ADD12C,0.040000*%
%ADD13C,0.088900*%
%ADD14C,0.110000*%
%ADD15C,0.150000*%
G04 APERTURE END LIST*
D10*
X7520000Y-5640000D02*
G75*
G03*
X7520000Y-5640000I-160000J0D01*
G01*
X4572000Y-3291000D02*
X12964000Y-3291000D01*
X12964000Y-3291000D02*
X12964000Y-8192000D01*
X12964000Y-8192000D02*
X4572000Y-8192000D01*
X4572000Y-8192000D02*
X4572000Y-3291000D01*
X7520000Y-6880000D02*
G75*
G03*
X7520000Y-6880000I-160000J0D01*
G01*
X7520000Y-4400000D02*
G75*
G03*
X7520000Y-4400000I-160000J0D01*
G01*
D11*
D12*
X6960000Y-4143751D02*
X7000000Y-4183751D01*
X7000000Y-4143751D02*
X6960000Y-4183751D01*
X7180000Y-3620000D02*
X7220000Y-3660000D01*
X7220000Y-3620000D02*
X7180000Y-3660000D01*
X10291000Y-6149000D02*
X10331000Y-6189000D01*
X10331000Y-6149000D02*
X10291000Y-6189000D01*
X10509000Y-6031000D02*
X10549000Y-6071000D01*
X10549000Y-6031000D02*
X10509000Y-6071000D01*
X10529000Y-6251000D02*
X10569000Y-6291000D01*
X10569000Y-6251000D02*
X10529000Y-6291000D01*
D13*
X5969460Y-3604750D02*
G75*
G03*
X5969460Y-3604750I-44450J0D01*
G01*
X5969460Y-3858750D02*
G75*
G03*
X5969460Y-3858750I-44450J0D01*
G01*
X5969460Y-4112750D02*
G75*
G03*
X5969460Y-4112750I-44450J0D01*
G01*
X5969460Y-4521250D02*
G75*
G03*
X5969460Y-4521250I-44450J0D01*
G01*
X5969460Y-4775250D02*
G75*
G03*
X5969460Y-4775250I-44450J0D01*
G01*
X5969460Y-5029250D02*
G75*
G03*
X5969460Y-5029250I-44450J0D01*
G01*
D14*
X5333500Y-7365000D02*
X5333500Y-7475000D01*
X5278500Y-7420000D02*
X5388500Y-7420000D01*
D15*
X4884034Y-6970533D02*
X4884034Y-6864466D01*
X4777967Y-6864466D01*
X4777967Y-6970533D01*
X4884034Y-6970533D01*
X4884034Y-7975533D02*
X4884034Y-7869466D01*
X4777967Y-7869466D01*
X4777967Y-7975533D01*
X4884034Y-7975533D01*
X5889033Y-6970533D02*
X5889033Y-6864466D01*
X5782966Y-6864466D01*
X5782966Y-6970533D01*
X5889033Y-6970533D01*
X5889033Y-7975533D02*
X5889033Y-7869466D01*
X5782966Y-7869466D01*
X5782966Y-7975533D01*
X5889033Y-7975533D01*
D11*
X4824619Y-8507476D02*
X4824619Y-8307476D01*
X4872238Y-8307476D01*
X4900810Y-8317000D01*
X4919857Y-8336048D01*
X4929381Y-8355095D01*
X4938905Y-8393190D01*
X4938905Y-8421762D01*
X4929381Y-8459857D01*
X4919857Y-8478905D01*
X4900810Y-8497952D01*
X4872238Y-8507476D01*
X4824619Y-8507476D01*
X5024619Y-8507476D02*
X5024619Y-8374143D01*
X5024619Y-8412238D02*
X5034143Y-8393190D01*
X5043667Y-8383667D01*
X5062714Y-8374143D01*
X5081762Y-8374143D01*
X5148429Y-8507476D02*
X5148429Y-8374143D01*
X5148429Y-8307476D02*
X5138905Y-8317000D01*
X5148429Y-8326524D01*
X5157952Y-8317000D01*
X5148429Y-8307476D01*
X5148429Y-8326524D01*
X5272238Y-8507476D02*
X5253190Y-8497952D01*
X5243667Y-8478905D01*
X5243667Y-8307476D01*
X5377000Y-8507476D02*
X5357952Y-8497952D01*
X5348429Y-8478905D01*
X5348429Y-8307476D01*
X5605571Y-8507476D02*
X5605571Y-8307476D01*
X5672238Y-8450333D01*
X5738905Y-8307476D01*
X5738905Y-8507476D01*
X5919857Y-8507476D02*
X5919857Y-8402714D01*
X5910333Y-8383667D01*
X5891286Y-8374143D01*
X5853190Y-8374143D01*
X5834143Y-8383667D01*
X5919857Y-8497952D02*
X5900809Y-8507476D01*
X5853190Y-8507476D01*
X5834143Y-8497952D01*
X5824619Y-8478905D01*
X5824619Y-8459857D01*
X5834143Y-8440810D01*
X5853190Y-8431286D01*
X5900809Y-8431286D01*
X5919857Y-8421762D01*
X6015095Y-8374143D02*
X6015095Y-8574143D01*
X6015095Y-8383667D02*
X6034143Y-8374143D01*
X6072238Y-8374143D01*
X6091286Y-8383667D01*
X6100809Y-8393190D01*
X6110333Y-8412238D01*
X6110333Y-8469381D01*
X6100809Y-8488429D01*
X6091286Y-8497952D01*
X6072238Y-8507476D01*
X6034143Y-8507476D01*
X6015095Y-8497952D01*
X6196048Y-8488429D02*
X6205571Y-8497952D01*
X6196048Y-8507476D01*
X6186524Y-8497952D01*
X6196048Y-8488429D01*
X6196048Y-8507476D01*
X6196048Y-8383667D02*
X6205571Y-8393190D01*
X6196048Y-8402714D01*
X6186524Y-8393190D01*
X6196048Y-8383667D01*
X6196048Y-8402714D01*
D12*
X4527000Y-8817000D02*
X4567000Y-8857000D01*
X4567000Y-8817000D02*
X4527000Y-8857000D01*
D11*
X4862714Y-8727476D02*
X4881762Y-8727476D01*
X4900810Y-8737000D01*
X4910333Y-8746524D01*
X4919857Y-8765571D01*
X4929381Y-8803667D01*
X4929381Y-8851286D01*
X4919857Y-8889381D01*
X4910333Y-8908429D01*
X4900810Y-8917952D01*
X4881762Y-8927476D01*
X4862714Y-8927476D01*
X4843667Y-8917952D01*
X4834143Y-8908429D01*
X4824619Y-8889381D01*
X4815095Y-8851286D01*
X4815095Y-8803667D01*
X4824619Y-8765571D01*
X4834143Y-8746524D01*
X4843667Y-8737000D01*
X4862714Y-8727476D01*
X5015095Y-8908429D02*
X5024619Y-8917952D01*
X5015095Y-8927476D01*
X5005571Y-8917952D01*
X5015095Y-8908429D01*
X5015095Y-8927476D01*
X5196048Y-8794143D02*
X5196048Y-8927476D01*
X5148429Y-8717952D02*
X5100810Y-8860810D01*
X5224619Y-8860810D01*
X5338905Y-8727476D02*
X5357952Y-8727476D01*
X5377000Y-8737000D01*
X5386524Y-8746524D01*
X5396048Y-8765571D01*
X5405571Y-8803667D01*
X5405571Y-8851286D01*
X5396048Y-8889381D01*
X5386524Y-8908429D01*
X5377000Y-8917952D01*
X5357952Y-8927476D01*
X5338905Y-8927476D01*
X5319857Y-8917952D01*
X5310333Y-8908429D01*
X5300810Y-8889381D01*
X5291286Y-8851286D01*
X5291286Y-8803667D01*
X5300810Y-8765571D01*
X5310333Y-8746524D01*
X5319857Y-8737000D01*
X5338905Y-8727476D01*
X5529381Y-8727476D02*
X5548429Y-8727476D01*
X5567476Y-8737000D01*
X5577000Y-8746524D01*
X5586524Y-8765571D01*
X5596048Y-8803667D01*
X5596048Y-8851286D01*
X5586524Y-8889381D01*
X5577000Y-8908429D01*
X5567476Y-8917952D01*
X5548429Y-8927476D01*
X5529381Y-8927476D01*
X5510333Y-8917952D01*
X5500810Y-8908429D01*
X5491286Y-8889381D01*
X5481762Y-8851286D01*
X5481762Y-8803667D01*
X5491286Y-8765571D01*
X5500810Y-8746524D01*
X5510333Y-8737000D01*
X5529381Y-8727476D01*
X5681762Y-8927476D02*
X5681762Y-8794143D01*
X5681762Y-8813190D02*
X5691286Y-8803667D01*
X5710333Y-8794143D01*
X5738905Y-8794143D01*
X5757952Y-8803667D01*
X5767476Y-8822714D01*
X5767476Y-8927476D01*
X5767476Y-8822714D02*
X5777000Y-8803667D01*
X5796048Y-8794143D01*
X5824619Y-8794143D01*
X5843667Y-8803667D01*
X5853190Y-8822714D01*
X5853190Y-8927476D01*
X5948428Y-8927476D02*
X5948428Y-8794143D01*
X5948428Y-8813190D02*
X5957952Y-8803667D01*
X5977000Y-8794143D01*
X6005571Y-8794143D01*
X6024619Y-8803667D01*
X6034143Y-8822714D01*
X6034143Y-8927476D01*
X6034143Y-8822714D02*
X6043667Y-8803667D01*
X6062714Y-8794143D01*
X6091286Y-8794143D01*
X6110333Y-8803667D01*
X6119857Y-8822714D01*
X6119857Y-8927476D01*
X6510333Y-8717952D02*
X6338905Y-8975095D01*
X6767476Y-8727476D02*
X6786524Y-8727476D01*
X6805571Y-8737000D01*
X6815095Y-8746524D01*
X6824619Y-8765571D01*
X6834143Y-8803667D01*
X6834143Y-8851286D01*
X6824619Y-8889381D01*
X6815095Y-8908429D01*
X6805571Y-8917952D01*
X6786524Y-8927476D01*
X6767476Y-8927476D01*
X6748428Y-8917952D01*
X6738905Y-8908429D01*
X6729381Y-8889381D01*
X6719857Y-8851286D01*
X6719857Y-8803667D01*
X6729381Y-8765571D01*
X6738905Y-8746524D01*
X6748428Y-8737000D01*
X6767476Y-8727476D01*
X6919857Y-8908429D02*
X6929381Y-8917952D01*
X6919857Y-8927476D01*
X6910333Y-8917952D01*
X6919857Y-8908429D01*
X6919857Y-8927476D01*
X7053190Y-8727476D02*
X7072238Y-8727476D01*
X7091286Y-8737000D01*
X7100809Y-8746524D01*
X7110333Y-8765571D01*
X7119857Y-8803667D01*
X7119857Y-8851286D01*
X7110333Y-8889381D01*
X7100809Y-8908429D01*
X7091286Y-8917952D01*
X7072238Y-8927476D01*
X7053190Y-8927476D01*
X7034143Y-8917952D01*
X7024619Y-8908429D01*
X7015095Y-8889381D01*
X7005571Y-8851286D01*
X7005571Y-8803667D01*
X7015095Y-8765571D01*
X7024619Y-8746524D01*
X7034143Y-8737000D01*
X7053190Y-8727476D01*
X7310333Y-8927476D02*
X7196048Y-8927476D01*
X7253190Y-8927476D02*
X7253190Y-8727476D01*
X7234143Y-8756048D01*
X7215095Y-8775095D01*
X7196048Y-8784619D01*
X7491286Y-8727476D02*
X7396048Y-8727476D01*
X7386524Y-8822714D01*
X7396048Y-8813190D01*
X7415095Y-8803667D01*
X7462714Y-8803667D01*
X7481762Y-8813190D01*
X7491286Y-8822714D01*
X7500809Y-8841762D01*
X7500809Y-8889381D01*
X7491286Y-8908429D01*
X7481762Y-8917952D01*
X7462714Y-8927476D01*
X7415095Y-8927476D01*
X7396048Y-8917952D01*
X7386524Y-8908429D01*
X7567476Y-8727476D02*
X7700809Y-8727476D01*
X7615095Y-8927476D01*
X7767476Y-8727476D02*
X7767476Y-8765571D01*
X7843667Y-8727476D02*
X7843667Y-8765571D01*
X8138905Y-9003667D02*
X8129381Y-8994143D01*
X8110333Y-8965571D01*
X8100809Y-8946524D01*
X8091286Y-8917952D01*
X8081762Y-8870333D01*
X8081762Y-8832238D01*
X8091286Y-8784619D01*
X8100809Y-8756048D01*
X8110333Y-8737000D01*
X8129381Y-8708429D01*
X8138905Y-8698905D01*
X8310333Y-8727476D02*
X8215095Y-8727476D01*
X8205571Y-8822714D01*
X8215095Y-8813190D01*
X8234143Y-8803667D01*
X8281762Y-8803667D01*
X8300809Y-8813190D01*
X8310333Y-8822714D01*
X8319857Y-8841762D01*
X8319857Y-8889381D01*
X8310333Y-8908429D01*
X8300809Y-8917952D01*
X8281762Y-8927476D01*
X8234143Y-8927476D01*
X8215095Y-8917952D01*
X8205571Y-8908429D01*
X8557952Y-8927476D02*
X8557952Y-8727476D01*
X8643667Y-8927476D02*
X8643667Y-8822714D01*
X8634143Y-8803667D01*
X8615095Y-8794143D01*
X8586524Y-8794143D01*
X8567476Y-8803667D01*
X8557952Y-8813190D01*
X8767476Y-8927476D02*
X8748429Y-8917952D01*
X8738905Y-8908429D01*
X8729381Y-8889381D01*
X8729381Y-8832238D01*
X8738905Y-8813190D01*
X8748429Y-8803667D01*
X8767476Y-8794143D01*
X8796048Y-8794143D01*
X8815095Y-8803667D01*
X8824619Y-8813190D01*
X8834143Y-8832238D01*
X8834143Y-8889381D01*
X8824619Y-8908429D01*
X8815095Y-8917952D01*
X8796048Y-8927476D01*
X8767476Y-8927476D01*
X8948429Y-8927476D02*
X8929381Y-8917952D01*
X8919857Y-8898905D01*
X8919857Y-8727476D01*
X9100810Y-8917952D02*
X9081762Y-8927476D01*
X9043667Y-8927476D01*
X9024619Y-8917952D01*
X9015095Y-8898905D01*
X9015095Y-8822714D01*
X9024619Y-8803667D01*
X9043667Y-8794143D01*
X9081762Y-8794143D01*
X9100810Y-8803667D01*
X9110333Y-8822714D01*
X9110333Y-8841762D01*
X9015095Y-8860810D01*
X9186524Y-8917952D02*
X9205571Y-8927476D01*
X9243667Y-8927476D01*
X9262714Y-8917952D01*
X9272238Y-8898905D01*
X9272238Y-8889381D01*
X9262714Y-8870333D01*
X9243667Y-8860810D01*
X9215095Y-8860810D01*
X9196048Y-8851286D01*
X9186524Y-8832238D01*
X9186524Y-8822714D01*
X9196048Y-8803667D01*
X9215095Y-8794143D01*
X9243667Y-8794143D01*
X9262714Y-8803667D01*
X9338905Y-9003667D02*
X9348429Y-8994143D01*
X9367476Y-8965571D01*
X9377000Y-8946524D01*
X9386524Y-8917952D01*
X9396048Y-8870333D01*
X9396048Y-8832238D01*
X9386524Y-8784619D01*
X9377000Y-8756048D01*
X9367476Y-8737000D01*
X9348429Y-8708429D01*
X9338905Y-8698905D01*
D13*
X4567000Y-9101000D02*
G75*
G03*
X4567000Y-9101000I-44450J0D01*
G01*
D11*
X4862714Y-8991476D02*
X4881762Y-8991476D01*
X4900810Y-9001000D01*
X4910333Y-9010524D01*
X4919857Y-9029571D01*
X4929381Y-9067667D01*
X4929381Y-9115286D01*
X4919857Y-9153381D01*
X4910333Y-9172429D01*
X4900810Y-9181952D01*
X4881762Y-9191476D01*
X4862714Y-9191476D01*
X4843667Y-9181952D01*
X4834143Y-9172429D01*
X4824619Y-9153381D01*
X4815095Y-9115286D01*
X4815095Y-9067667D01*
X4824619Y-9029571D01*
X4834143Y-9010524D01*
X4843667Y-9001000D01*
X4862714Y-8991476D01*
X5015095Y-9172429D02*
X5024619Y-9181952D01*
X5015095Y-9191476D01*
X5005571Y-9181952D01*
X5015095Y-9172429D01*
X5015095Y-9191476D01*
X5138905Y-9077190D02*
X5119857Y-9067667D01*
X5110333Y-9058143D01*
X5100810Y-9039095D01*
X5100810Y-9029571D01*
X5110333Y-9010524D01*
X5119857Y-9001000D01*
X5138905Y-8991476D01*
X5177000Y-8991476D01*
X5196048Y-9001000D01*
X5205571Y-9010524D01*
X5215095Y-9029571D01*
X5215095Y-9039095D01*
X5205571Y-9058143D01*
X5196048Y-9067667D01*
X5177000Y-9077190D01*
X5138905Y-9077190D01*
X5119857Y-9086714D01*
X5110333Y-9096238D01*
X5100810Y-9115286D01*
X5100810Y-9153381D01*
X5110333Y-9172429D01*
X5119857Y-9181952D01*
X5138905Y-9191476D01*
X5177000Y-9191476D01*
X5196048Y-9181952D01*
X5205571Y-9172429D01*
X5215095Y-9153381D01*
X5215095Y-9115286D01*
X5205571Y-9096238D01*
X5196048Y-9086714D01*
X5177000Y-9077190D01*
X5329381Y-9077190D02*
X5310333Y-9067667D01*
X5300810Y-9058143D01*
X5291286Y-9039095D01*
X5291286Y-9029571D01*
X5300810Y-9010524D01*
X5310333Y-9001000D01*
X5329381Y-8991476D01*
X5367476Y-8991476D01*
X5386524Y-9001000D01*
X5396048Y-9010524D01*
X5405571Y-9029571D01*
X5405571Y-9039095D01*
X5396048Y-9058143D01*
X5386524Y-9067667D01*
X5367476Y-9077190D01*
X5329381Y-9077190D01*
X5310333Y-9086714D01*
X5300810Y-9096238D01*
X5291286Y-9115286D01*
X5291286Y-9153381D01*
X5300810Y-9172429D01*
X5310333Y-9181952D01*
X5329381Y-9191476D01*
X5367476Y-9191476D01*
X5386524Y-9181952D01*
X5396048Y-9172429D01*
X5405571Y-9153381D01*
X5405571Y-9115286D01*
X5396048Y-9096238D01*
X5386524Y-9086714D01*
X5367476Y-9077190D01*
X5500810Y-9191476D02*
X5538905Y-9191476D01*
X5557952Y-9181952D01*
X5567476Y-9172429D01*
X5586524Y-9143857D01*
X5596048Y-9105762D01*
X5596048Y-9029571D01*
X5586524Y-9010524D01*
X5577000Y-9001000D01*
X5557952Y-8991476D01*
X5519857Y-8991476D01*
X5500810Y-9001000D01*
X5491286Y-9010524D01*
X5481762Y-9029571D01*
X5481762Y-9077190D01*
X5491286Y-9096238D01*
X5500810Y-9105762D01*
X5519857Y-9115286D01*
X5557952Y-9115286D01*
X5577000Y-9105762D01*
X5586524Y-9096238D01*
X5596048Y-9077190D01*
X5681762Y-9191476D02*
X5681762Y-9058143D01*
X5681762Y-9077190D02*
X5691286Y-9067667D01*
X5710333Y-9058143D01*
X5738905Y-9058143D01*
X5757952Y-9067667D01*
X5767476Y-9086714D01*
X5767476Y-9191476D01*
X5767476Y-9086714D02*
X5777000Y-9067667D01*
X5796048Y-9058143D01*
X5824619Y-9058143D01*
X5843667Y-9067667D01*
X5853190Y-9086714D01*
X5853190Y-9191476D01*
X5948428Y-9191476D02*
X5948428Y-9058143D01*
X5948428Y-9077190D02*
X5957952Y-9067667D01*
X5977000Y-9058143D01*
X6005571Y-9058143D01*
X6024619Y-9067667D01*
X6034143Y-9086714D01*
X6034143Y-9191476D01*
X6034143Y-9086714D02*
X6043667Y-9067667D01*
X6062714Y-9058143D01*
X6091286Y-9058143D01*
X6110333Y-9067667D01*
X6119857Y-9086714D01*
X6119857Y-9191476D01*
X6510333Y-8981952D02*
X6338905Y-9239095D01*
X6767476Y-8991476D02*
X6786524Y-8991476D01*
X6805571Y-9001000D01*
X6815095Y-9010524D01*
X6824619Y-9029571D01*
X6834143Y-9067667D01*
X6834143Y-9115286D01*
X6824619Y-9153381D01*
X6815095Y-9172429D01*
X6805571Y-9181952D01*
X6786524Y-9191476D01*
X6767476Y-9191476D01*
X6748428Y-9181952D01*
X6738905Y-9172429D01*
X6729381Y-9153381D01*
X6719857Y-9115286D01*
X6719857Y-9067667D01*
X6729381Y-9029571D01*
X6738905Y-9010524D01*
X6748428Y-9001000D01*
X6767476Y-8991476D01*
X6919857Y-9172429D02*
X6929381Y-9181952D01*
X6919857Y-9191476D01*
X6910333Y-9181952D01*
X6919857Y-9172429D01*
X6919857Y-9191476D01*
X7053190Y-8991476D02*
X7072238Y-8991476D01*
X7091286Y-9001000D01*
X7100809Y-9010524D01*
X7110333Y-9029571D01*
X7119857Y-9067667D01*
X7119857Y-9115286D01*
X7110333Y-9153381D01*
X7100809Y-9172429D01*
X7091286Y-9181952D01*
X7072238Y-9191476D01*
X7053190Y-9191476D01*
X7034143Y-9181952D01*
X7024619Y-9172429D01*
X7015095Y-9153381D01*
X7005571Y-9115286D01*
X7005571Y-9067667D01*
X7015095Y-9029571D01*
X7024619Y-9010524D01*
X7034143Y-9001000D01*
X7053190Y-8991476D01*
X7186524Y-8991476D02*
X7310333Y-8991476D01*
X7243667Y-9067667D01*
X7272238Y-9067667D01*
X7291286Y-9077190D01*
X7300809Y-9086714D01*
X7310333Y-9105762D01*
X7310333Y-9153381D01*
X7300809Y-9172429D01*
X7291286Y-9181952D01*
X7272238Y-9191476D01*
X7215095Y-9191476D01*
X7196048Y-9181952D01*
X7186524Y-9172429D01*
X7491286Y-8991476D02*
X7396048Y-8991476D01*
X7386524Y-9086714D01*
X7396048Y-9077190D01*
X7415095Y-9067667D01*
X7462714Y-9067667D01*
X7481762Y-9077190D01*
X7491286Y-9086714D01*
X7500809Y-9105762D01*
X7500809Y-9153381D01*
X7491286Y-9172429D01*
X7481762Y-9181952D01*
X7462714Y-9191476D01*
X7415095Y-9191476D01*
X7396048Y-9181952D01*
X7386524Y-9172429D01*
X7624619Y-8991476D02*
X7643667Y-8991476D01*
X7662714Y-9001000D01*
X7672238Y-9010524D01*
X7681762Y-9029571D01*
X7691286Y-9067667D01*
X7691286Y-9115286D01*
X7681762Y-9153381D01*
X7672238Y-9172429D01*
X7662714Y-9181952D01*
X7643667Y-9191476D01*
X7624619Y-9191476D01*
X7605571Y-9181952D01*
X7596048Y-9172429D01*
X7586524Y-9153381D01*
X7577000Y-9115286D01*
X7577000Y-9067667D01*
X7586524Y-9029571D01*
X7596048Y-9010524D01*
X7605571Y-9001000D01*
X7624619Y-8991476D01*
X7767476Y-8991476D02*
X7767476Y-9029571D01*
X7843667Y-8991476D02*
X7843667Y-9029571D01*
X8138905Y-9267667D02*
X8129381Y-9258143D01*
X8110333Y-9229571D01*
X8100809Y-9210524D01*
X8091286Y-9181952D01*
X8081762Y-9134333D01*
X8081762Y-9096238D01*
X8091286Y-9048619D01*
X8100809Y-9020048D01*
X8110333Y-9001000D01*
X8129381Y-8972429D01*
X8138905Y-8962905D01*
X8300809Y-8991476D02*
X8262714Y-8991476D01*
X8243667Y-9001000D01*
X8234143Y-9010524D01*
X8215095Y-9039095D01*
X8205571Y-9077190D01*
X8205571Y-9153381D01*
X8215095Y-9172429D01*
X8224619Y-9181952D01*
X8243667Y-9191476D01*
X8281762Y-9191476D01*
X8300809Y-9181952D01*
X8310333Y-9172429D01*
X8319857Y-9153381D01*
X8319857Y-9105762D01*
X8310333Y-9086714D01*
X8300809Y-9077190D01*
X8281762Y-9067667D01*
X8243667Y-9067667D01*
X8224619Y-9077190D01*
X8215095Y-9086714D01*
X8205571Y-9105762D01*
X8557952Y-9191476D02*
X8557952Y-8991476D01*
X8643667Y-9191476D02*
X8643667Y-9086714D01*
X8634143Y-9067667D01*
X8615095Y-9058143D01*
X8586524Y-9058143D01*
X8567476Y-9067667D01*
X8557952Y-9077190D01*
X8767476Y-9191476D02*
X8748429Y-9181952D01*
X8738905Y-9172429D01*
X8729381Y-9153381D01*
X8729381Y-9096238D01*
X8738905Y-9077190D01*
X8748429Y-9067667D01*
X8767476Y-9058143D01*
X8796048Y-9058143D01*
X8815095Y-9067667D01*
X8824619Y-9077190D01*
X8834143Y-9096238D01*
X8834143Y-9153381D01*
X8824619Y-9172429D01*
X8815095Y-9181952D01*
X8796048Y-9191476D01*
X8767476Y-9191476D01*
X8948429Y-9191476D02*
X8929381Y-9181952D01*
X8919857Y-9162905D01*
X8919857Y-8991476D01*
X9100810Y-9181952D02*
X9081762Y-9191476D01*
X9043667Y-9191476D01*
X9024619Y-9181952D01*
X9015095Y-9162905D01*
X9015095Y-9086714D01*
X9024619Y-9067667D01*
X9043667Y-9058143D01*
X9081762Y-9058143D01*
X9100810Y-9067667D01*
X9110333Y-9086714D01*
X9110333Y-9105762D01*
X9015095Y-9124810D01*
X9186524Y-9181952D02*
X9205571Y-9191476D01*
X9243667Y-9191476D01*
X9262714Y-9181952D01*
X9272238Y-9162905D01*
X9272238Y-9153381D01*
X9262714Y-9134333D01*
X9243667Y-9124810D01*
X9215095Y-9124810D01*
X9196048Y-9115286D01*
X9186524Y-9096238D01*
X9186524Y-9086714D01*
X9196048Y-9067667D01*
X9215095Y-9058143D01*
X9243667Y-9058143D01*
X9262714Y-9067667D01*
X9338905Y-9267667D02*
X9348429Y-9258143D01*
X9367476Y-9229571D01*
X9377000Y-9210524D01*
X9386524Y-9181952D01*
X9396048Y-9134333D01*
X9396048Y-9096238D01*
X9386524Y-9048619D01*
X9377000Y-9020048D01*
X9367476Y-9001000D01*
X9348429Y-8972429D01*
X9338905Y-8962905D01*
D14*
X4512000Y-9310000D02*
X4512000Y-9420000D01*
X4457000Y-9365000D02*
X4567000Y-9365000D01*
D11*
X4929381Y-9455476D02*
X4815095Y-9455476D01*
X4872238Y-9455476D02*
X4872238Y-9255476D01*
X4853190Y-9284048D01*
X4834143Y-9303095D01*
X4815095Y-9312619D01*
X5015095Y-9436429D02*
X5024619Y-9445952D01*
X5015095Y-9455476D01*
X5005571Y-9445952D01*
X5015095Y-9436429D01*
X5015095Y-9455476D01*
X5215095Y-9455476D02*
X5100810Y-9455476D01*
X5157952Y-9455476D02*
X5157952Y-9255476D01*
X5138905Y-9284048D01*
X5119857Y-9303095D01*
X5100810Y-9312619D01*
X5338905Y-9255476D02*
X5357952Y-9255476D01*
X5377000Y-9265000D01*
X5386524Y-9274524D01*
X5396048Y-9293571D01*
X5405571Y-9331667D01*
X5405571Y-9379286D01*
X5396048Y-9417381D01*
X5386524Y-9436429D01*
X5377000Y-9445952D01*
X5357952Y-9455476D01*
X5338905Y-9455476D01*
X5319857Y-9445952D01*
X5310333Y-9436429D01*
X5300810Y-9417381D01*
X5291286Y-9379286D01*
X5291286Y-9331667D01*
X5300810Y-9293571D01*
X5310333Y-9274524D01*
X5319857Y-9265000D01*
X5338905Y-9255476D01*
X5529381Y-9255476D02*
X5548429Y-9255476D01*
X5567476Y-9265000D01*
X5577000Y-9274524D01*
X5586524Y-9293571D01*
X5596048Y-9331667D01*
X5596048Y-9379286D01*
X5586524Y-9417381D01*
X5577000Y-9436429D01*
X5567476Y-9445952D01*
X5548429Y-9455476D01*
X5529381Y-9455476D01*
X5510333Y-9445952D01*
X5500810Y-9436429D01*
X5491286Y-9417381D01*
X5481762Y-9379286D01*
X5481762Y-9331667D01*
X5491286Y-9293571D01*
X5500810Y-9274524D01*
X5510333Y-9265000D01*
X5529381Y-9255476D01*
X5681762Y-9455476D02*
X5681762Y-9322143D01*
X5681762Y-9341190D02*
X5691286Y-9331667D01*
X5710333Y-9322143D01*
X5738905Y-9322143D01*
X5757952Y-9331667D01*
X5767476Y-9350714D01*
X5767476Y-9455476D01*
X5767476Y-9350714D02*
X5777000Y-9331667D01*
X5796048Y-9322143D01*
X5824619Y-9322143D01*
X5843667Y-9331667D01*
X5853190Y-9350714D01*
X5853190Y-9455476D01*
X5948428Y-9455476D02*
X5948428Y-9322143D01*
X5948428Y-9341190D02*
X5957952Y-9331667D01*
X5977000Y-9322143D01*
X6005571Y-9322143D01*
X6024619Y-9331667D01*
X6034143Y-9350714D01*
X6034143Y-9455476D01*
X6034143Y-9350714D02*
X6043667Y-9331667D01*
X6062714Y-9322143D01*
X6091286Y-9322143D01*
X6110333Y-9331667D01*
X6119857Y-9350714D01*
X6119857Y-9455476D01*
X6510333Y-9245952D02*
X6338905Y-9503095D01*
X6767476Y-9255476D02*
X6786524Y-9255476D01*
X6805571Y-9265000D01*
X6815095Y-9274524D01*
X6824619Y-9293571D01*
X6834143Y-9331667D01*
X6834143Y-9379286D01*
X6824619Y-9417381D01*
X6815095Y-9436429D01*
X6805571Y-9445952D01*
X6786524Y-9455476D01*
X6767476Y-9455476D01*
X6748428Y-9445952D01*
X6738905Y-9436429D01*
X6729381Y-9417381D01*
X6719857Y-9379286D01*
X6719857Y-9331667D01*
X6729381Y-9293571D01*
X6738905Y-9274524D01*
X6748428Y-9265000D01*
X6767476Y-9255476D01*
X6919857Y-9436429D02*
X6929381Y-9445952D01*
X6919857Y-9455476D01*
X6910333Y-9445952D01*
X6919857Y-9436429D01*
X6919857Y-9455476D01*
X7053190Y-9255476D02*
X7072238Y-9255476D01*
X7091286Y-9265000D01*
X7100809Y-9274524D01*
X7110333Y-9293571D01*
X7119857Y-9331667D01*
X7119857Y-9379286D01*
X7110333Y-9417381D01*
X7100809Y-9436429D01*
X7091286Y-9445952D01*
X7072238Y-9455476D01*
X7053190Y-9455476D01*
X7034143Y-9445952D01*
X7024619Y-9436429D01*
X7015095Y-9417381D01*
X7005571Y-9379286D01*
X7005571Y-9331667D01*
X7015095Y-9293571D01*
X7024619Y-9274524D01*
X7034143Y-9265000D01*
X7053190Y-9255476D01*
X7291286Y-9322143D02*
X7291286Y-9455476D01*
X7243667Y-9245952D02*
X7196048Y-9388810D01*
X7319857Y-9388810D01*
X7377000Y-9255476D02*
X7500809Y-9255476D01*
X7434143Y-9331667D01*
X7462714Y-9331667D01*
X7481762Y-9341190D01*
X7491286Y-9350714D01*
X7500809Y-9369762D01*
X7500809Y-9417381D01*
X7491286Y-9436429D01*
X7481762Y-9445952D01*
X7462714Y-9455476D01*
X7405571Y-9455476D01*
X7386524Y-9445952D01*
X7377000Y-9436429D01*
X7567476Y-9255476D02*
X7691286Y-9255476D01*
X7624619Y-9331667D01*
X7653190Y-9331667D01*
X7672238Y-9341190D01*
X7681762Y-9350714D01*
X7691286Y-9369762D01*
X7691286Y-9417381D01*
X7681762Y-9436429D01*
X7672238Y-9445952D01*
X7653190Y-9455476D01*
X7596048Y-9455476D01*
X7577000Y-9445952D01*
X7567476Y-9436429D01*
X7767476Y-9255476D02*
X7767476Y-9293571D01*
X7843667Y-9255476D02*
X7843667Y-9293571D01*
X8138905Y-9531667D02*
X8129381Y-9522143D01*
X8110333Y-9493571D01*
X8100809Y-9474524D01*
X8091286Y-9445952D01*
X8081762Y-9398333D01*
X8081762Y-9360238D01*
X8091286Y-9312619D01*
X8100809Y-9284048D01*
X8110333Y-9265000D01*
X8129381Y-9236429D01*
X8138905Y-9226905D01*
X8319857Y-9455476D02*
X8205571Y-9455476D01*
X8262714Y-9455476D02*
X8262714Y-9255476D01*
X8243667Y-9284048D01*
X8224619Y-9303095D01*
X8205571Y-9312619D01*
X8557952Y-9455476D02*
X8557952Y-9255476D01*
X8643667Y-9455476D02*
X8643667Y-9350714D01*
X8634143Y-9331667D01*
X8615095Y-9322143D01*
X8586524Y-9322143D01*
X8567476Y-9331667D01*
X8557952Y-9341190D01*
X8767476Y-9455476D02*
X8748429Y-9445952D01*
X8738905Y-9436429D01*
X8729381Y-9417381D01*
X8729381Y-9360238D01*
X8738905Y-9341190D01*
X8748429Y-9331667D01*
X8767476Y-9322143D01*
X8796048Y-9322143D01*
X8815095Y-9331667D01*
X8824619Y-9341190D01*
X8834143Y-9360238D01*
X8834143Y-9417381D01*
X8824619Y-9436429D01*
X8815095Y-9445952D01*
X8796048Y-9455476D01*
X8767476Y-9455476D01*
X8948429Y-9455476D02*
X8929381Y-9445952D01*
X8919857Y-9426905D01*
X8919857Y-9255476D01*
X9100810Y-9445952D02*
X9081762Y-9455476D01*
X9043667Y-9455476D01*
X9024619Y-9445952D01*
X9015095Y-9426905D01*
X9015095Y-9350714D01*
X9024619Y-9331667D01*
X9043667Y-9322143D01*
X9081762Y-9322143D01*
X9100810Y-9331667D01*
X9110333Y-9350714D01*
X9110333Y-9369762D01*
X9015095Y-9388810D01*
X9177000Y-9531667D02*
X9186524Y-9522143D01*
X9205571Y-9493571D01*
X9215095Y-9474524D01*
X9224619Y-9445952D01*
X9234143Y-9398333D01*
X9234143Y-9360238D01*
X9224619Y-9312619D01*
X9215095Y-9284048D01*
X9205571Y-9265000D01*
X9186524Y-9236429D01*
X9177000Y-9226905D01*
D15*
X4545034Y-9682034D02*
X4545034Y-9575967D01*
X4438967Y-9575967D01*
X4438967Y-9682034D01*
X4545034Y-9682034D01*
D11*
X4929381Y-9719476D02*
X4815095Y-9719476D01*
X4872238Y-9719476D02*
X4872238Y-9519476D01*
X4853190Y-9548048D01*
X4834143Y-9567095D01*
X4815095Y-9576619D01*
X5015095Y-9700429D02*
X5024619Y-9709952D01*
X5015095Y-9719476D01*
X5005571Y-9709952D01*
X5015095Y-9700429D01*
X5015095Y-9719476D01*
X5205571Y-9519476D02*
X5110333Y-9519476D01*
X5100810Y-9614714D01*
X5110333Y-9605190D01*
X5129381Y-9595667D01*
X5177000Y-9595667D01*
X5196048Y-9605190D01*
X5205571Y-9614714D01*
X5215095Y-9633762D01*
X5215095Y-9681381D01*
X5205571Y-9700429D01*
X5196048Y-9709952D01*
X5177000Y-9719476D01*
X5129381Y-9719476D01*
X5110333Y-9709952D01*
X5100810Y-9700429D01*
X5338905Y-9519476D02*
X5357952Y-9519476D01*
X5377000Y-9529000D01*
X5386524Y-9538524D01*
X5396048Y-9557571D01*
X5405571Y-9595667D01*
X5405571Y-9643286D01*
X5396048Y-9681381D01*
X5386524Y-9700429D01*
X5377000Y-9709952D01*
X5357952Y-9719476D01*
X5338905Y-9719476D01*
X5319857Y-9709952D01*
X5310333Y-9700429D01*
X5300810Y-9681381D01*
X5291286Y-9643286D01*
X5291286Y-9595667D01*
X5300810Y-9557571D01*
X5310333Y-9538524D01*
X5319857Y-9529000D01*
X5338905Y-9519476D01*
X5529381Y-9519476D02*
X5548429Y-9519476D01*
X5567476Y-9529000D01*
X5577000Y-9538524D01*
X5586524Y-9557571D01*
X5596048Y-9595667D01*
X5596048Y-9643286D01*
X5586524Y-9681381D01*
X5577000Y-9700429D01*
X5567476Y-9709952D01*
X5548429Y-9719476D01*
X5529381Y-9719476D01*
X5510333Y-9709952D01*
X5500810Y-9700429D01*
X5491286Y-9681381D01*
X5481762Y-9643286D01*
X5481762Y-9595667D01*
X5491286Y-9557571D01*
X5500810Y-9538524D01*
X5510333Y-9529000D01*
X5529381Y-9519476D01*
X5681762Y-9719476D02*
X5681762Y-9586143D01*
X5681762Y-9605190D02*
X5691286Y-9595667D01*
X5710333Y-9586143D01*
X5738905Y-9586143D01*
X5757952Y-9595667D01*
X5767476Y-9614714D01*
X5767476Y-9719476D01*
X5767476Y-9614714D02*
X5777000Y-9595667D01*
X5796048Y-9586143D01*
X5824619Y-9586143D01*
X5843667Y-9595667D01*
X5853190Y-9614714D01*
X5853190Y-9719476D01*
X5948428Y-9719476D02*
X5948428Y-9586143D01*
X5948428Y-9605190D02*
X5957952Y-9595667D01*
X5977000Y-9586143D01*
X6005571Y-9586143D01*
X6024619Y-9595667D01*
X6034143Y-9614714D01*
X6034143Y-9719476D01*
X6034143Y-9614714D02*
X6043667Y-9595667D01*
X6062714Y-9586143D01*
X6091286Y-9586143D01*
X6110333Y-9595667D01*
X6119857Y-9614714D01*
X6119857Y-9719476D01*
X6510333Y-9509952D02*
X6338905Y-9767095D01*
X6767476Y-9519476D02*
X6786524Y-9519476D01*
X6805571Y-9529000D01*
X6815095Y-9538524D01*
X6824619Y-9557571D01*
X6834143Y-9595667D01*
X6834143Y-9643286D01*
X6824619Y-9681381D01*
X6815095Y-9700429D01*
X6805571Y-9709952D01*
X6786524Y-9719476D01*
X6767476Y-9719476D01*
X6748428Y-9709952D01*
X6738905Y-9700429D01*
X6729381Y-9681381D01*
X6719857Y-9643286D01*
X6719857Y-9595667D01*
X6729381Y-9557571D01*
X6738905Y-9538524D01*
X6748428Y-9529000D01*
X6767476Y-9519476D01*
X6919857Y-9700429D02*
X6929381Y-9709952D01*
X6919857Y-9719476D01*
X6910333Y-9709952D01*
X6919857Y-9700429D01*
X6919857Y-9719476D01*
X7053190Y-9519476D02*
X7072238Y-9519476D01*
X7091286Y-9529000D01*
X7100809Y-9538524D01*
X7110333Y-9557571D01*
X7119857Y-9595667D01*
X7119857Y-9643286D01*
X7110333Y-9681381D01*
X7100809Y-9700429D01*
X7091286Y-9709952D01*
X7072238Y-9719476D01*
X7053190Y-9719476D01*
X7034143Y-9709952D01*
X7024619Y-9700429D01*
X7015095Y-9681381D01*
X7005571Y-9643286D01*
X7005571Y-9595667D01*
X7015095Y-9557571D01*
X7024619Y-9538524D01*
X7034143Y-9529000D01*
X7053190Y-9519476D01*
X7300809Y-9519476D02*
X7205571Y-9519476D01*
X7196048Y-9614714D01*
X7205571Y-9605190D01*
X7224619Y-9595667D01*
X7272238Y-9595667D01*
X7291286Y-9605190D01*
X7300809Y-9614714D01*
X7310333Y-9633762D01*
X7310333Y-9681381D01*
X7300809Y-9700429D01*
X7291286Y-9709952D01*
X7272238Y-9719476D01*
X7224619Y-9719476D01*
X7205571Y-9709952D01*
X7196048Y-9700429D01*
X7405571Y-9719476D02*
X7443667Y-9719476D01*
X7462714Y-9709952D01*
X7472238Y-9700429D01*
X7491286Y-9671857D01*
X7500809Y-9633762D01*
X7500809Y-9557571D01*
X7491286Y-9538524D01*
X7481762Y-9529000D01*
X7462714Y-9519476D01*
X7424619Y-9519476D01*
X7405571Y-9529000D01*
X7396048Y-9538524D01*
X7386524Y-9557571D01*
X7386524Y-9605190D01*
X7396048Y-9624238D01*
X7405571Y-9633762D01*
X7424619Y-9643286D01*
X7462714Y-9643286D01*
X7481762Y-9633762D01*
X7491286Y-9624238D01*
X7500809Y-9605190D01*
X7691286Y-9719476D02*
X7577000Y-9719476D01*
X7634143Y-9719476D02*
X7634143Y-9519476D01*
X7615095Y-9548048D01*
X7596048Y-9567095D01*
X7577000Y-9576619D01*
X7767476Y-9519476D02*
X7767476Y-9557571D01*
X7843667Y-9519476D02*
X7843667Y-9557571D01*
X8138905Y-9795667D02*
X8129381Y-9786143D01*
X8110333Y-9757571D01*
X8100809Y-9738524D01*
X8091286Y-9709952D01*
X8081762Y-9662333D01*
X8081762Y-9624238D01*
X8091286Y-9576619D01*
X8100809Y-9548048D01*
X8110333Y-9529000D01*
X8129381Y-9500429D01*
X8138905Y-9490905D01*
X8300809Y-9586143D02*
X8300809Y-9719476D01*
X8253190Y-9509952D02*
X8205571Y-9652810D01*
X8329381Y-9652810D01*
X8557952Y-9719476D02*
X8557952Y-9519476D01*
X8643667Y-9719476D02*
X8643667Y-9614714D01*
X8634143Y-9595667D01*
X8615095Y-9586143D01*
X8586524Y-9586143D01*
X8567476Y-9595667D01*
X8557952Y-9605190D01*
X8767476Y-9719476D02*
X8748429Y-9709952D01*
X8738905Y-9700429D01*
X8729381Y-9681381D01*
X8729381Y-9624238D01*
X8738905Y-9605190D01*
X8748429Y-9595667D01*
X8767476Y-9586143D01*
X8796048Y-9586143D01*
X8815095Y-9595667D01*
X8824619Y-9605190D01*
X8834143Y-9624238D01*
X8834143Y-9681381D01*
X8824619Y-9700429D01*
X8815095Y-9709952D01*
X8796048Y-9719476D01*
X8767476Y-9719476D01*
X8948429Y-9719476D02*
X8929381Y-9709952D01*
X8919857Y-9690905D01*
X8919857Y-9519476D01*
X9100810Y-9709952D02*
X9081762Y-9719476D01*
X9043667Y-9719476D01*
X9024619Y-9709952D01*
X9015095Y-9690905D01*
X9015095Y-9614714D01*
X9024619Y-9595667D01*
X9043667Y-9586143D01*
X9081762Y-9586143D01*
X9100810Y-9595667D01*
X9110333Y-9614714D01*
X9110333Y-9633762D01*
X9015095Y-9652810D01*
X9186524Y-9709952D02*
X9205571Y-9719476D01*
X9243667Y-9719476D01*
X9262714Y-9709952D01*
X9272238Y-9690905D01*
X9272238Y-9681381D01*
X9262714Y-9662333D01*
X9243667Y-9652810D01*
X9215095Y-9652810D01*
X9196048Y-9643286D01*
X9186524Y-9624238D01*
X9186524Y-9614714D01*
X9196048Y-9595667D01*
X9215095Y-9586143D01*
X9243667Y-9586143D01*
X9262714Y-9595667D01*
X9338905Y-9795667D02*
X9348429Y-9786143D01*
X9367476Y-9757571D01*
X9377000Y-9738524D01*
X9386524Y-9709952D01*
X9396048Y-9662333D01*
X9396048Y-9624238D01*
X9386524Y-9576619D01*
X9377000Y-9548048D01*
X9367476Y-9529000D01*
X9348429Y-9500429D01*
X9338905Y-9490905D01*
M02*
