%TF.GenerationSoftware,KiCad,Pcbnew,8.0.2-1*%
%TF.CreationDate,2024-09-13T14:37:28-04:00*%
%TF.ProjectId,Dummy Board,44756d6d-7920-4426-9f61-72642e6b6963,rev?*%
%TF.SameCoordinates,Original*%
%TF.FileFunction,Legend,Bot*%
%TF.FilePolarity,Positive*%
%FSLAX46Y46*%
G04 Gerber Fmt 4.6, Leading zero omitted, Abs format (unit mm)*
G04 Created by KiCad (PCBNEW 8.0.2-1) date 2024-09-13 14:37:28*
%MOMM*%
%LPD*%
G01*
G04 APERTURE LIST*
%ADD10C,0.150000*%
%ADD11C,0.120000*%
G04 APERTURE END LIST*
D10*
X144596428Y-77810592D02*
X144560714Y-77774878D01*
X144560714Y-77774878D02*
X144489286Y-77739164D01*
X144489286Y-77739164D02*
X144310714Y-77739164D01*
X144310714Y-77739164D02*
X144239286Y-77774878D01*
X144239286Y-77774878D02*
X144203571Y-77810592D01*
X144203571Y-77810592D02*
X144167857Y-77882021D01*
X144167857Y-77882021D02*
X144167857Y-77953450D01*
X144167857Y-77953450D02*
X144203571Y-78060592D01*
X144203571Y-78060592D02*
X144632143Y-78489164D01*
X144632143Y-78489164D02*
X144167857Y-78489164D01*
X143489285Y-77739164D02*
X143846428Y-77739164D01*
X143846428Y-77739164D02*
X143882142Y-78096307D01*
X143882142Y-78096307D02*
X143846428Y-78060592D01*
X143846428Y-78060592D02*
X143775000Y-78024878D01*
X143775000Y-78024878D02*
X143596428Y-78024878D01*
X143596428Y-78024878D02*
X143525000Y-78060592D01*
X143525000Y-78060592D02*
X143489285Y-78096307D01*
X143489285Y-78096307D02*
X143453571Y-78167735D01*
X143453571Y-78167735D02*
X143453571Y-78346307D01*
X143453571Y-78346307D02*
X143489285Y-78417735D01*
X143489285Y-78417735D02*
X143525000Y-78453450D01*
X143525000Y-78453450D02*
X143596428Y-78489164D01*
X143596428Y-78489164D02*
X143775000Y-78489164D01*
X143775000Y-78489164D02*
X143846428Y-78453450D01*
X143846428Y-78453450D02*
X143882142Y-78417735D01*
X135367857Y-78489164D02*
X135796428Y-78489164D01*
X135582143Y-78489164D02*
X135582143Y-77739164D01*
X135582143Y-77739164D02*
X135653571Y-77846307D01*
X135653571Y-77846307D02*
X135725000Y-77917735D01*
X135725000Y-77917735D02*
X135796428Y-77953450D01*
X134653571Y-78489164D02*
X135082142Y-78489164D01*
X134867857Y-78489164D02*
X134867857Y-77739164D01*
X134867857Y-77739164D02*
X134939285Y-77846307D01*
X134939285Y-77846307D02*
X135010714Y-77917735D01*
X135010714Y-77917735D02*
X135082142Y-77953450D01*
X131385714Y-78489164D02*
X131814285Y-78489164D01*
X131600000Y-78489164D02*
X131600000Y-77739164D01*
X131600000Y-77739164D02*
X131671428Y-77846307D01*
X131671428Y-77846307D02*
X131742857Y-77917735D01*
X131742857Y-77917735D02*
X131814285Y-77953450D01*
X140117857Y-78489164D02*
X140546428Y-78489164D01*
X140332143Y-78489164D02*
X140332143Y-77739164D01*
X140332143Y-77739164D02*
X140403571Y-77846307D01*
X140403571Y-77846307D02*
X140475000Y-77917735D01*
X140475000Y-77917735D02*
X140546428Y-77953450D01*
X139867857Y-77739164D02*
X139403571Y-77739164D01*
X139403571Y-77739164D02*
X139653571Y-78024878D01*
X139653571Y-78024878D02*
X139546428Y-78024878D01*
X139546428Y-78024878D02*
X139475000Y-78060592D01*
X139475000Y-78060592D02*
X139439285Y-78096307D01*
X139439285Y-78096307D02*
X139403571Y-78167735D01*
X139403571Y-78167735D02*
X139403571Y-78346307D01*
X139403571Y-78346307D02*
X139439285Y-78417735D01*
X139439285Y-78417735D02*
X139475000Y-78453450D01*
X139475000Y-78453450D02*
X139546428Y-78489164D01*
X139546428Y-78489164D02*
X139760714Y-78489164D01*
X139760714Y-78489164D02*
X139832142Y-78453450D01*
X139832142Y-78453450D02*
X139867857Y-78417735D01*
D11*
%TO.C,REF\u002A\u002A*%
X131845000Y-80000000D02*
X130575000Y-78730000D01*
X145425000Y-80000000D02*
X131845000Y-80000000D01*
%TD*%
M02*
