%TF.GenerationSoftware,KiCad,Pcbnew,8.0.2-1*%
%TF.CreationDate,2024-09-13T14:37:28-04:00*%
%TF.ProjectId,Dummy Board,44756d6d-7920-4426-9f61-72642e6b6963,rev?*%
%TF.SameCoordinates,Original*%
%TF.FileFunction,Soldermask,Top*%
%TF.FilePolarity,Negative*%
%FSLAX46Y46*%
G04 Gerber Fmt 4.6, Leading zero omitted, Abs format (unit mm)*
G04 Created by KiCad (PCBNEW 8.0.2-1) date 2024-09-13 14:37:28*
%MOMM*%
%LPD*%
G01*
G04 APERTURE LIST*
%ADD10C,0.200000*%
%ADD11R,0.550000X2.800000*%
G04 APERTURE END LIST*
D10*
X127000000Y-88400000D02*
X127800000Y-88400000D01*
X127800000Y-91200000D01*
X127000000Y-91200000D01*
X127000000Y-88400000D01*
G36*
X127000000Y-88400000D02*
G01*
X127800000Y-88400000D01*
X127800000Y-91200000D01*
X127000000Y-91200000D01*
X127000000Y-88400000D01*
G37*
X128800000Y-88400000D02*
X129600000Y-88400000D01*
X129600000Y-91200000D01*
X128800000Y-91200000D01*
X128800000Y-88400000D01*
G36*
X128800000Y-88400000D02*
G01*
X129600000Y-88400000D01*
X129600000Y-91200000D01*
X128800000Y-91200000D01*
X128800000Y-88400000D01*
G37*
X130600000Y-88400000D02*
X131400000Y-88400000D01*
X131400000Y-91200000D01*
X130600000Y-91200000D01*
X130600000Y-88400000D01*
G36*
X130600000Y-88400000D02*
G01*
X131400000Y-88400000D01*
X131400000Y-91200000D01*
X130600000Y-91200000D01*
X130600000Y-88400000D01*
G37*
X132400000Y-88400000D02*
X133200000Y-88400000D01*
X133200000Y-91200000D01*
X132400000Y-91200000D01*
X132400000Y-88400000D01*
G36*
X132400000Y-88400000D02*
G01*
X133200000Y-88400000D01*
X133200000Y-91200000D01*
X132400000Y-91200000D01*
X132400000Y-88400000D01*
G37*
X134200000Y-88400000D02*
X135000000Y-88400000D01*
X135000000Y-91200000D01*
X134200000Y-91200000D01*
X134200000Y-88400000D01*
G36*
X134200000Y-88400000D02*
G01*
X135000000Y-88400000D01*
X135000000Y-91200000D01*
X134200000Y-91200000D01*
X134200000Y-88400000D01*
G37*
X136000000Y-88400000D02*
X136800000Y-88400000D01*
X136800000Y-91200000D01*
X136000000Y-91200000D01*
X136000000Y-88400000D01*
G36*
X136000000Y-88400000D02*
G01*
X136800000Y-88400000D01*
X136800000Y-91200000D01*
X136000000Y-91200000D01*
X136000000Y-88400000D01*
G37*
X137800000Y-88400000D02*
X138600000Y-88400000D01*
X138600000Y-91200000D01*
X137800000Y-91200000D01*
X137800000Y-88400000D01*
G36*
X137800000Y-88400000D02*
G01*
X138600000Y-88400000D01*
X138600000Y-91200000D01*
X137800000Y-91200000D01*
X137800000Y-88400000D01*
G37*
X139600000Y-88400000D02*
X140400000Y-88400000D01*
X140400000Y-91200000D01*
X139600000Y-91200000D01*
X139600000Y-88400000D01*
G36*
X139600000Y-88400000D02*
G01*
X140400000Y-88400000D01*
X140400000Y-91200000D01*
X139600000Y-91200000D01*
X139600000Y-88400000D01*
G37*
X141400000Y-88400000D02*
X142200000Y-88400000D01*
X142200000Y-91200000D01*
X141400000Y-91200000D01*
X141400000Y-88400000D01*
G36*
X141400000Y-88400000D02*
G01*
X142200000Y-88400000D01*
X142200000Y-91200000D01*
X141400000Y-91200000D01*
X141400000Y-88400000D01*
G37*
X143200000Y-88400000D02*
X144000000Y-88400000D01*
X144000000Y-91200000D01*
X143200000Y-91200000D01*
X143200000Y-88400000D01*
G36*
X143200000Y-88400000D02*
G01*
X144000000Y-88400000D01*
X144000000Y-91200000D01*
X143200000Y-91200000D01*
X143200000Y-88400000D01*
G37*
X145000000Y-88400000D02*
X145800000Y-88400000D01*
X145800000Y-91200000D01*
X145000000Y-91200000D01*
X145000000Y-88400000D01*
G36*
X145000000Y-88400000D02*
G01*
X145800000Y-88400000D01*
X145800000Y-91200000D01*
X145000000Y-91200000D01*
X145000000Y-88400000D01*
G37*
X146800000Y-88400000D02*
X147600000Y-88400000D01*
X147600000Y-91200000D01*
X146800000Y-91200000D01*
X146800000Y-88400000D01*
G36*
X146800000Y-88400000D02*
G01*
X147600000Y-88400000D01*
X147600000Y-91200000D01*
X146800000Y-91200000D01*
X146800000Y-88400000D01*
G37*
X148600000Y-88400000D02*
X149400000Y-88400000D01*
X149400000Y-91200000D01*
X148600000Y-91200000D01*
X148600000Y-88400000D01*
G36*
X148600000Y-88400000D02*
G01*
X149400000Y-88400000D01*
X149400000Y-91200000D01*
X148600000Y-91200000D01*
X148600000Y-88400000D01*
G37*
D11*
%TO.C,REF\u002A\u002A*%
X131600000Y-76000000D03*
X132400000Y-76000000D03*
X133200000Y-76000000D03*
X134000000Y-76000000D03*
X134800000Y-76000000D03*
X135600000Y-76000000D03*
X139600000Y-76000000D03*
X140400000Y-76000000D03*
X141200000Y-76000000D03*
X142000000Y-76000000D03*
X142800000Y-76000000D03*
X143600000Y-76000000D03*
X144400000Y-76000000D03*
%TD*%
M02*
