%TF.GenerationSoftware,KiCad,Pcbnew,8.0.2-1*%
%TF.CreationDate,2024-09-13T14:37:28-04:00*%
%TF.ProjectId,Dummy Board,44756d6d-7920-4426-9f61-72642e6b6963,rev?*%
%TF.SameCoordinates,Original*%
%TF.FileFunction,Copper,L1,Top*%
%TF.FilePolarity,Positive*%
%FSLAX46Y46*%
G04 Gerber Fmt 4.6, Leading zero omitted, Abs format (unit mm)*
G04 Created by KiCad (PCBNEW 8.0.2-1) date 2024-09-13 14:37:28*
%MOMM*%
%LPD*%
G01*
G04 APERTURE LIST*
%TA.AperFunction,ConnectorPad*%
%ADD10R,0.550000X2.800000*%
%TD*%
%TA.AperFunction,Conductor*%
%ADD11C,0.200000*%
%TD*%
G04 APERTURE END LIST*
%TA.AperFunction,Conductor*%
%TO.N,2*%
G36*
X127000000Y-88374600D02*
G01*
X127800000Y-88374600D01*
X127800000Y-91200000D01*
X127000000Y-91200000D01*
X127000000Y-88374600D01*
G37*
%TD.AperFunction*%
%TA.AperFunction,Conductor*%
%TO.N,4*%
G36*
X128800000Y-88374600D02*
G01*
X129600000Y-88374600D01*
X129600000Y-91200000D01*
X128800000Y-91200000D01*
X128800000Y-88374600D01*
G37*
%TD.AperFunction*%
%TA.AperFunction,Conductor*%
%TO.N,6*%
G36*
X130600000Y-88374600D02*
G01*
X131400000Y-88374600D01*
X131400000Y-91200000D01*
X130600000Y-91200000D01*
X130600000Y-88374600D01*
G37*
%TD.AperFunction*%
%TA.AperFunction,Conductor*%
%TO.N,8*%
G36*
X132400000Y-88374600D02*
G01*
X133200000Y-88374600D01*
X133200000Y-91200000D01*
X132400000Y-91200000D01*
X132400000Y-88374600D01*
G37*
%TD.AperFunction*%
%TA.AperFunction,Conductor*%
%TO.N,10*%
G36*
X134200000Y-88374600D02*
G01*
X135000000Y-88374600D01*
X135000000Y-91200000D01*
X134200000Y-91200000D01*
X134200000Y-88374600D01*
G37*
%TD.AperFunction*%
%TA.AperFunction,Conductor*%
%TO.N,12*%
G36*
X136000000Y-88374600D02*
G01*
X136800000Y-88374600D01*
X136800000Y-91200000D01*
X136000000Y-91200000D01*
X136000000Y-88374600D01*
G37*
%TD.AperFunction*%
%TA.AperFunction,Conductor*%
%TO.N,26*%
G36*
X148600000Y-88374600D02*
G01*
X149400000Y-88374600D01*
X149400000Y-91200000D01*
X148600000Y-91200000D01*
X148600000Y-88374600D01*
G37*
%TD.AperFunction*%
%TA.AperFunction,Conductor*%
%TO.N,24*%
G36*
X146800000Y-88374600D02*
G01*
X147600000Y-88374600D01*
X147600000Y-91200000D01*
X146800000Y-91200000D01*
X146800000Y-88374600D01*
G37*
%TD.AperFunction*%
%TA.AperFunction,Conductor*%
%TO.N,22*%
G36*
X145000000Y-88374600D02*
G01*
X145800000Y-88374600D01*
X145800000Y-91200000D01*
X145000000Y-91200000D01*
X145000000Y-88374600D01*
G37*
%TD.AperFunction*%
%TA.AperFunction,Conductor*%
%TO.N,20*%
G36*
X143200000Y-88374600D02*
G01*
X144000000Y-88374600D01*
X144000000Y-91200000D01*
X143200000Y-91200000D01*
X143200000Y-88374600D01*
G37*
%TD.AperFunction*%
%TA.AperFunction,Conductor*%
%TO.N,18*%
G36*
X141400000Y-88374600D02*
G01*
X142200000Y-88374600D01*
X142200000Y-91200000D01*
X141400000Y-91200000D01*
X141400000Y-88374600D01*
G37*
%TD.AperFunction*%
%TA.AperFunction,Conductor*%
%TO.N,16*%
G36*
X139600000Y-88374600D02*
G01*
X140400000Y-88374600D01*
X140400000Y-91200000D01*
X139600000Y-91200000D01*
X139600000Y-88374600D01*
G37*
%TD.AperFunction*%
%TA.AperFunction,Conductor*%
%TO.N,14*%
G36*
X137800000Y-88374600D02*
G01*
X138600000Y-88374600D01*
X138600000Y-91200000D01*
X137800000Y-91200000D01*
X137800000Y-88374600D01*
G37*
%TD.AperFunction*%
%TD*%
D10*
%TO.P,REF\u002A\u002A,2*%
%TO.N,2*%
X131600000Y-76000000D03*
%TO.P,REF\u002A\u002A,4*%
%TO.N,4*%
X132400000Y-76000000D03*
%TO.P,REF\u002A\u002A,6*%
%TO.N,6*%
X133200000Y-76000000D03*
%TO.P,REF\u002A\u002A,8*%
%TO.N,8*%
X134000000Y-76000000D03*
%TO.P,REF\u002A\u002A,10*%
%TO.N,10*%
X134800000Y-76000000D03*
%TO.P,REF\u002A\u002A,12*%
%TO.N,12*%
X135600000Y-76000000D03*
%TO.P,REF\u002A\u002A,14*%
%TO.N,14*%
X139600000Y-76000000D03*
%TO.P,REF\u002A\u002A,16*%
%TO.N,16*%
X140400000Y-76000000D03*
%TO.P,REF\u002A\u002A,18*%
%TO.N,18*%
X141200000Y-76000000D03*
%TO.P,REF\u002A\u002A,20*%
%TO.N,20*%
X142000000Y-76000000D03*
%TO.P,REF\u002A\u002A,22*%
%TO.N,22*%
X142800000Y-76000000D03*
%TO.P,REF\u002A\u002A,24*%
%TO.N,24*%
X143600000Y-76000000D03*
%TO.P,REF\u002A\u002A,26*%
%TO.N,26*%
X144400000Y-76000000D03*
%TD*%
D11*
%TO.N,24*%
X143600000Y-76000000D02*
X143600000Y-83400000D01*
X143600000Y-83400000D02*
X147200000Y-87000000D01*
X147200000Y-87000000D02*
X147200000Y-89787300D01*
%TO.N,26*%
X144400000Y-76000000D02*
X144400000Y-82200000D01*
X144400000Y-82200000D02*
X149000000Y-86800000D01*
X149000000Y-86800000D02*
X149000000Y-89787300D01*
%TO.N,22*%
X145400000Y-89787300D02*
X145400000Y-88000000D01*
X145400000Y-88000000D02*
X142800000Y-85400000D01*
X142800000Y-85400000D02*
X142800000Y-76000000D01*
%TO.N,8*%
X134000000Y-84800000D02*
X134000000Y-76000000D01*
X132800000Y-89787300D02*
X132800000Y-86000000D01*
X132800000Y-86000000D02*
X134000000Y-84800000D01*
%TO.N,6*%
X131000000Y-86600000D02*
X133200000Y-84400000D01*
X133200000Y-84400000D02*
X133200000Y-76000000D01*
X131000000Y-89787300D02*
X131000000Y-86600000D01*
%TO.N,4*%
X132400000Y-84200000D02*
X132400000Y-76000000D01*
X129200000Y-89787300D02*
X129200000Y-87400000D01*
X129200000Y-87400000D02*
X132400000Y-84200000D01*
%TO.N,2*%
X127400000Y-89787300D02*
X127400000Y-88250336D01*
X127400000Y-88250336D02*
X131600000Y-84050336D01*
X131600000Y-84050336D02*
X131600000Y-76000000D01*
%TO.N,10*%
X134600000Y-89787300D02*
X134600000Y-76200000D01*
X134600000Y-76200000D02*
X134800000Y-76000000D01*
%TO.N,12*%
X136400000Y-89000000D02*
X136400000Y-87800000D01*
X136400000Y-87800000D02*
X135600000Y-87000000D01*
X135600000Y-87000000D02*
X135600000Y-76000000D01*
%TO.N,14*%
X138200000Y-89787300D02*
X138200000Y-86600000D01*
X138200000Y-86600000D02*
X139600000Y-85200000D01*
X139600000Y-85200000D02*
X139600000Y-76000000D01*
%TO.N,16*%
X140000000Y-89787300D02*
X140000000Y-87000000D01*
X140000000Y-87000000D02*
X140400000Y-86600000D01*
X140400000Y-86600000D02*
X140400000Y-76000000D01*
%TO.N,18*%
X141800000Y-89787300D02*
X141800000Y-87800000D01*
X141800000Y-87800000D02*
X141200000Y-87200000D01*
X141200000Y-87200000D02*
X141200000Y-76000000D01*
%TO.N,20*%
X143600000Y-89787300D02*
X143600000Y-87800000D01*
X143600000Y-87800000D02*
X142000000Y-86200000D01*
X142000000Y-86200000D02*
X142000000Y-76000000D01*
%TD*%
M02*
