%TF.GenerationSoftware,KiCad,Pcbnew,8.0.2-1*%
%TF.CreationDate,2024-08-01T10:45:17-04:00*%
%TF.ProjectId,OddLayers_1.3mm_SiPM,4f64644c-6179-4657-9273-5f312e336d6d,rev?*%
%TF.SameCoordinates,Original*%
%TF.FileFunction,Copper,L2,Bot*%
%TF.FilePolarity,Positive*%
%FSLAX46Y46*%
G04 Gerber Fmt 4.6, Leading zero omitted, Abs format (unit mm)*
G04 Created by KiCad (PCBNEW 8.0.2-1) date 2024-08-01 10:45:17*
%MOMM*%
%LPD*%
G01*
G04 APERTURE LIST*
%TA.AperFunction,ComponentPad*%
%ADD10C,0.800000*%
%TD*%
%TA.AperFunction,ComponentPad*%
%ADD11C,1.348000*%
%TD*%
%TA.AperFunction,ComponentPad*%
%ADD12R,3.500000X3.500000*%
%TD*%
%TA.AperFunction,ComponentPad*%
%ADD13C,4.000000*%
%TD*%
%TA.AperFunction,ViaPad*%
%ADD14C,0.800000*%
%TD*%
%TA.AperFunction,ViaPad*%
%ADD15C,0.600000*%
%TD*%
%TA.AperFunction,Conductor*%
%ADD16C,0.200000*%
%TD*%
%TA.AperFunction,Conductor*%
%ADD17C,0.250000*%
%TD*%
G04 APERTURE END LIST*
D10*
%TO.P,REF\u002A\u002A34,5*%
%TO.N,N/C*%
X298300000Y-165900000D03*
%TO.P,REF\u002A\u002A34,6*%
X302400000Y-165900000D03*
%TO.P,REF\u002A\u002A34,7*%
%TO.N,K14*%
X297550000Y-167000000D03*
%TO.P,REF\u002A\u002A34,8*%
%TO.N,A14*%
X297550000Y-168500000D03*
%TO.P,REF\u002A\u002A34,9*%
%TO.N,GND*%
X298100000Y-169700000D03*
%TD*%
%TO.P,REF\u002A\u002A40,5*%
%TO.N,N/C*%
X103100000Y-263500000D03*
%TO.P,REF\u002A\u002A40,6*%
X107200000Y-263500000D03*
%TO.P,REF\u002A\u002A40,7*%
%TO.N,K20*%
X102350000Y-264600000D03*
%TO.P,REF\u002A\u002A40,8*%
%TO.N,A20*%
X102350000Y-266100000D03*
%TO.P,REF\u002A\u002A40,9*%
%TO.N,GND*%
X102900000Y-267300000D03*
%TD*%
%TO.P,REF\u002A\u002A30,5*%
%TO.N,N/C*%
X103100000Y-165900000D03*
%TO.P,REF\u002A\u002A30,6*%
X107200000Y-165900000D03*
%TO.P,REF\u002A\u002A30,7*%
%TO.N,K10*%
X102350000Y-167000000D03*
%TO.P,REF\u002A\u002A30,8*%
%TO.N,A10*%
X102350000Y-168500000D03*
%TO.P,REF\u002A\u002A30,9*%
%TO.N,GND*%
X102900000Y-169700000D03*
%TD*%
%TO.P,REF\u002A\u002A24,5*%
%TO.N,N/C*%
X298300000Y-68300000D03*
%TO.P,REF\u002A\u002A24,6*%
X302400000Y-68300000D03*
%TO.P,REF\u002A\u002A24,7*%
%TO.N,K4*%
X297550000Y-69400000D03*
%TO.P,REF\u002A\u002A24,8*%
%TO.N,A4*%
X297550000Y-70900000D03*
%TO.P,REF\u002A\u002A24,9*%
%TO.N,GND*%
X298100000Y-72100000D03*
%TD*%
D11*
%TO.P,REF\u002A\u002A,S1*%
%TO.N,N/C*%
X60000000Y-90505000D03*
%TO.P,REF\u002A\u002A,S2*%
X60000000Y-109495000D03*
%TD*%
D10*
%TO.P,REF\u002A\u002A43,5*%
%TO.N,N/C*%
X249500000Y-263500000D03*
%TO.P,REF\u002A\u002A43,6*%
X253600000Y-263500000D03*
%TO.P,REF\u002A\u002A43,7*%
%TO.N,K23*%
X248750000Y-264600000D03*
%TO.P,REF\u002A\u002A43,8*%
%TO.N,A23*%
X248750000Y-266100000D03*
%TO.P,REF\u002A\u002A43,9*%
%TO.N,GND*%
X249300000Y-267300000D03*
%TD*%
%TO.P,REF\u002A\u002A38,5*%
%TO.N,N/C*%
X249500000Y-214700000D03*
%TO.P,REF\u002A\u002A38,6*%
X253600000Y-214700000D03*
%TO.P,REF\u002A\u002A38,7*%
%TO.N,K18*%
X248750000Y-215800000D03*
%TO.P,REF\u002A\u002A38,8*%
%TO.N,A18*%
X248750000Y-217300000D03*
%TO.P,REF\u002A\u002A38,9*%
%TO.N,GND*%
X249300000Y-218500000D03*
%TD*%
%TO.P,REF\u002A\u002A22,5*%
%TO.N,N/C*%
X200700000Y-68300000D03*
%TO.P,REF\u002A\u002A22,6*%
X204800000Y-68300000D03*
%TO.P,REF\u002A\u002A22,7*%
%TO.N,K2*%
X199950000Y-69400000D03*
%TO.P,REF\u002A\u002A22,8*%
%TO.N,A2*%
X199950000Y-70900000D03*
%TO.P,REF\u002A\u002A22,9*%
%TO.N,GND*%
X200500000Y-72100000D03*
%TD*%
D11*
%TO.P,REF\u002A\u002A,S1*%
%TO.N,N/C*%
X60000000Y-170505000D03*
%TO.P,REF\u002A\u002A,S2*%
X60000000Y-189495000D03*
%TD*%
D10*
%TO.P,REF\u002A\u002A28,5*%
%TO.N,N/C*%
X249500000Y-117100000D03*
%TO.P,REF\u002A\u002A28,6*%
X253600000Y-117100000D03*
%TO.P,REF\u002A\u002A28,7*%
%TO.N,K8*%
X248750000Y-118200000D03*
%TO.P,REF\u002A\u002A28,8*%
%TO.N,A8*%
X248750000Y-119700000D03*
%TO.P,REF\u002A\u002A28,9*%
%TO.N,GND*%
X249300000Y-120900000D03*
%TD*%
%TO.P,REF\u002A\u002A23,5*%
%TO.N,N/C*%
X249500000Y-68300000D03*
%TO.P,REF\u002A\u002A23,6*%
X253600000Y-68300000D03*
%TO.P,REF\u002A\u002A23,7*%
%TO.N,K3*%
X248750000Y-69400000D03*
%TO.P,REF\u002A\u002A23,8*%
%TO.N,A3*%
X248750000Y-70900000D03*
%TO.P,REF\u002A\u002A23,9*%
%TO.N,GND*%
X249300000Y-72100000D03*
%TD*%
%TO.P,REF\u002A\u002A32,5*%
%TO.N,N/C*%
X200700000Y-165900000D03*
%TO.P,REF\u002A\u002A32,6*%
X204800000Y-165900000D03*
%TO.P,REF\u002A\u002A32,7*%
%TO.N,K12*%
X199950000Y-167000000D03*
%TO.P,REF\u002A\u002A32,8*%
%TO.N,A12*%
X199950000Y-168500000D03*
%TO.P,REF\u002A\u002A32,9*%
%TO.N,GND*%
X200500000Y-169700000D03*
%TD*%
%TO.P,REF\u002A\u002A44,5*%
%TO.N,N/C*%
X298300000Y-263500000D03*
%TO.P,REF\u002A\u002A44,6*%
X302400000Y-263500000D03*
%TO.P,REF\u002A\u002A44,7*%
%TO.N,K24*%
X297550000Y-264600000D03*
%TO.P,REF\u002A\u002A44,8*%
%TO.N,A24*%
X297550000Y-266100000D03*
%TO.P,REF\u002A\u002A44,9*%
%TO.N,GND*%
X298100000Y-267300000D03*
%TD*%
%TO.P,REF\u002A\u002A26,5*%
%TO.N,N/C*%
X151900000Y-117100000D03*
%TO.P,REF\u002A\u002A26,6*%
X156000000Y-117100000D03*
%TO.P,REF\u002A\u002A26,7*%
%TO.N,K6*%
X151150000Y-118200000D03*
%TO.P,REF\u002A\u002A26,8*%
%TO.N,A6*%
X151150000Y-119700000D03*
%TO.P,REF\u002A\u002A26,9*%
%TO.N,GND*%
X151700000Y-120900000D03*
%TD*%
%TO.P,REF\u002A\u002A36,5*%
%TO.N,N/C*%
X151900000Y-214700000D03*
%TO.P,REF\u002A\u002A36,6*%
X156000000Y-214700000D03*
%TO.P,REF\u002A\u002A36,7*%
%TO.N,K16*%
X151150000Y-215800000D03*
%TO.P,REF\u002A\u002A36,8*%
%TO.N,A16*%
X151150000Y-217300000D03*
%TO.P,REF\u002A\u002A36,9*%
%TO.N,GND*%
X151700000Y-218500000D03*
%TD*%
%TO.P,REF\u002A\u002A20,5*%
%TO.N,GND*%
X103100000Y-68300000D03*
%TO.P,REF\u002A\u002A20,6*%
%TO.N,N/C*%
X107200000Y-68300000D03*
%TO.P,REF\u002A\u002A20,7*%
%TO.N,K0*%
X102350000Y-69400000D03*
%TO.P,REF\u002A\u002A20,8*%
%TO.N,A0*%
X102350000Y-70900000D03*
%TO.P,REF\u002A\u002A20,9*%
%TO.N,GND*%
X102900000Y-72100000D03*
%TD*%
%TO.P,REF\u002A\u002A25,5*%
%TO.N,N/C*%
X103100000Y-117100000D03*
%TO.P,REF\u002A\u002A25,6*%
X107200000Y-117100000D03*
%TO.P,REF\u002A\u002A25,7*%
%TO.N,K5*%
X102350000Y-118200000D03*
%TO.P,REF\u002A\u002A25,8*%
%TO.N,A5*%
X102350000Y-119700000D03*
%TO.P,REF\u002A\u002A25,9*%
%TO.N,GND*%
X102900000Y-120900000D03*
%TD*%
%TO.P,REF\u002A\u002A37,5*%
%TO.N,N/C*%
X200700000Y-214700000D03*
%TO.P,REF\u002A\u002A37,6*%
X204800000Y-214700000D03*
%TO.P,REF\u002A\u002A37,7*%
%TO.N,K17*%
X199950000Y-215800000D03*
%TO.P,REF\u002A\u002A37,8*%
%TO.N,A17*%
X199950000Y-217300000D03*
%TO.P,REF\u002A\u002A37,9*%
%TO.N,GND*%
X200500000Y-218500000D03*
%TD*%
%TO.P,REF\u002A\u002A31,5*%
%TO.N,N/C*%
X151900000Y-165900000D03*
%TO.P,REF\u002A\u002A31,6*%
X156000000Y-165900000D03*
%TO.P,REF\u002A\u002A31,7*%
%TO.N,K11*%
X151150000Y-167000000D03*
%TO.P,REF\u002A\u002A31,8*%
%TO.N,A11*%
X151150000Y-168500000D03*
%TO.P,REF\u002A\u002A31,9*%
%TO.N,GND*%
X151700000Y-169700000D03*
%TD*%
%TO.P,REF\u002A\u002A27,5*%
%TO.N,N/C*%
X200700000Y-117100000D03*
%TO.P,REF\u002A\u002A27,6*%
X204800000Y-117100000D03*
%TO.P,REF\u002A\u002A27,7*%
%TO.N,K7*%
X199950000Y-118200000D03*
%TO.P,REF\u002A\u002A27,8*%
%TO.N,A7*%
X199950000Y-119700000D03*
%TO.P,REF\u002A\u002A27,9*%
%TO.N,GND*%
X200500000Y-120900000D03*
%TD*%
%TO.P,REF\u002A\u002A41,5*%
%TO.N,N/C*%
X151900000Y-263500000D03*
%TO.P,REF\u002A\u002A41,6*%
X156000000Y-263500000D03*
%TO.P,REF\u002A\u002A41,7*%
%TO.N,K21*%
X151150000Y-264600000D03*
%TO.P,REF\u002A\u002A41,8*%
%TO.N,A21*%
X151150000Y-266100000D03*
%TO.P,REF\u002A\u002A41,9*%
%TO.N,GND*%
X151700000Y-267300000D03*
%TD*%
%TO.P,REF\u002A\u002A29,5*%
%TO.N,N/C*%
X298300000Y-117100000D03*
%TO.P,REF\u002A\u002A29,6*%
X302400000Y-117100000D03*
%TO.P,REF\u002A\u002A29,7*%
%TO.N,K9*%
X297550000Y-118200000D03*
%TO.P,REF\u002A\u002A29,8*%
%TO.N,A9*%
X297550000Y-119700000D03*
%TO.P,REF\u002A\u002A29,9*%
%TO.N,GND*%
X298100000Y-120900000D03*
%TD*%
%TO.P,REF\u002A\u002A21,5*%
%TO.N,N/C*%
X151900000Y-68300000D03*
%TO.P,REF\u002A\u002A21,6*%
X156000000Y-68300000D03*
%TO.P,REF\u002A\u002A21,7*%
%TO.N,K1*%
X151150000Y-69400000D03*
%TO.P,REF\u002A\u002A21,8*%
%TO.N,A1*%
X151150000Y-70900000D03*
%TO.P,REF\u002A\u002A21,9*%
%TO.N,GND*%
X151700000Y-72100000D03*
%TD*%
D12*
%TO.P,LEDs,1*%
%TO.N,N/C*%
X63000000Y-317400000D03*
D13*
%TO.P,LEDs,2*%
%TO.N,GND*%
X57975000Y-322425000D03*
X68025000Y-322425000D03*
X57975000Y-312375000D03*
X68025000Y-312375000D03*
%TD*%
D10*
%TO.P,REF\u002A\u002A42,5*%
%TO.N,N/C*%
X200700000Y-263500000D03*
%TO.P,REF\u002A\u002A42,6*%
X204800000Y-263500000D03*
%TO.P,REF\u002A\u002A42,7*%
%TO.N,K22*%
X199950000Y-264600000D03*
%TO.P,REF\u002A\u002A42,8*%
%TO.N,A22*%
X199950000Y-266100000D03*
%TO.P,REF\u002A\u002A42,9*%
%TO.N,GND*%
X200500000Y-267300000D03*
%TD*%
%TO.P,REF\u002A\u002A35,5*%
%TO.N,N/C*%
X103100000Y-214700000D03*
%TO.P,REF\u002A\u002A35,6*%
X107200000Y-214700000D03*
%TO.P,REF\u002A\u002A35,7*%
%TO.N,K15*%
X102350000Y-215800000D03*
%TO.P,REF\u002A\u002A35,8*%
%TO.N,A15*%
X102350000Y-217300000D03*
%TO.P,REF\u002A\u002A35,9*%
%TO.N,GND*%
X102900000Y-218500000D03*
%TD*%
%TO.P,REF\u002A\u002A39,5*%
%TO.N,N/C*%
X298300000Y-214700000D03*
%TO.P,REF\u002A\u002A39,6*%
X302400000Y-214700000D03*
%TO.P,REF\u002A\u002A39,7*%
%TO.N,K19*%
X297550000Y-215800000D03*
%TO.P,REF\u002A\u002A39,8*%
%TO.N,A19*%
X297550000Y-217300000D03*
%TO.P,REF\u002A\u002A39,9*%
%TO.N,GND*%
X298100000Y-218500000D03*
%TD*%
%TO.P,REF\u002A\u002A33,5*%
%TO.N,N/C*%
X249500000Y-165900000D03*
%TO.P,REF\u002A\u002A33,6*%
X253600000Y-165900000D03*
%TO.P,REF\u002A\u002A33,7*%
%TO.N,K13*%
X248750000Y-167000000D03*
%TO.P,REF\u002A\u002A33,8*%
%TO.N,A13*%
X248750000Y-168500000D03*
%TO.P,REF\u002A\u002A33,9*%
%TO.N,GND*%
X249300000Y-169700000D03*
%TD*%
D14*
%TO.N,*%
X72500000Y-310900000D03*
%TO.N,GND*%
X72600000Y-322000000D03*
D15*
%TO.N,K0*%
X71100000Y-88400000D03*
%TO.N,A0*%
X57250000Y-93600000D03*
%TO.N,K1*%
X68124265Y-93124265D03*
%TO.N,A1*%
X57250000Y-94400000D03*
%TO.N,K2*%
X69600000Y-93600000D03*
%TO.N,A2*%
X57250000Y-95200000D03*
%TO.N,K3*%
X72900000Y-93400000D03*
%TO.N,A3*%
X57250000Y-96000000D03*
%TO.N,K4*%
X68700000Y-96600000D03*
%TO.N,A4*%
X57250000Y-96800000D03*
%TO.N,K5*%
X67800000Y-97600000D03*
%TO.N,A5*%
X57250000Y-97600000D03*
%TO.N,K6*%
X67400000Y-101600000D03*
%TO.N,A6*%
X57250000Y-101600000D03*
%TO.N,K7*%
X68200000Y-102800000D03*
%TO.N,A7*%
X57250000Y-102400000D03*
%TO.N,K8*%
X69500000Y-104600000D03*
%TO.N,A8*%
X57250000Y-103200000D03*
%TO.N,K9*%
X68200000Y-105600000D03*
%TO.N,A9*%
X57250000Y-104000000D03*
%TO.N,A10*%
X57250000Y-104800000D03*
%TO.N,K10*%
X67600000Y-107000000D03*
%TO.N,A11*%
X57250000Y-105600000D03*
%TO.N,K11*%
X68200000Y-108400000D03*
%TO.N,A12*%
X57250000Y-106400000D03*
%TO.N,K12*%
X67600000Y-114600000D03*
%TO.N,K14*%
X72100000Y-173800000D03*
%TO.N,A14*%
X57200000Y-174400000D03*
%TO.N,K13*%
X71900000Y-170700000D03*
%TO.N,A13*%
X57200000Y-173600000D03*
%TO.N,K15*%
X68400000Y-175200000D03*
%TO.N,A15*%
X57200000Y-175200000D03*
%TO.N,K16*%
X71500000Y-181200000D03*
%TO.N,A16*%
X57200000Y-176000000D03*
%TO.N,K17*%
X74300000Y-188600000D03*
%TO.N,A17*%
X57200000Y-176800000D03*
%TO.N,K18*%
X73600000Y-190900000D03*
%TO.N,A18*%
X57200000Y-177600000D03*
%TO.N,K19*%
X66400000Y-185200000D03*
%TO.N,A19*%
X57200000Y-181600000D03*
%TO.N,K20*%
X71067156Y-192032844D03*
%TO.N,A20*%
X57200000Y-182400000D03*
%TO.N,K21*%
X69400000Y-192000000D03*
%TO.N,A21*%
X57200000Y-183200000D03*
%TO.N,K22*%
X74700000Y-200150000D03*
%TO.N,A22*%
X57200000Y-184000000D03*
%TO.N,K23*%
X72723904Y-200824274D03*
%TO.N,A23*%
X57200000Y-184800000D03*
%TO.N,K24*%
X66400000Y-196000000D03*
%TO.N,A24*%
X57200000Y-185600000D03*
%TD*%
D16*
%TO.N,*%
X80500000Y-293800000D02*
X80500000Y-302900000D01*
X276900000Y-291700000D02*
X82600000Y-291700000D01*
X104700000Y-164300000D02*
X103100000Y-165900000D01*
X151900000Y-117100000D02*
X107200000Y-117100000D01*
X156000000Y-263500000D02*
X200700000Y-263500000D01*
X107200000Y-214700000D02*
X107300000Y-214800000D01*
X204900000Y-263400000D02*
X249400000Y-263400000D01*
X151900000Y-165900000D02*
X107200000Y-165900000D01*
X253600000Y-68300000D02*
X298300000Y-68300000D01*
X253700000Y-214600000D02*
X298200000Y-214600000D01*
X156000000Y-68300000D02*
X200700000Y-68300000D01*
X156100000Y-214800000D02*
X200600000Y-214800000D01*
X253600000Y-165900000D02*
X298300000Y-165900000D01*
X253700000Y-263600000D02*
X298200000Y-263600000D01*
X204800000Y-68300000D02*
X249500000Y-68300000D01*
X204800000Y-263500000D02*
X204900000Y-263400000D01*
X249400000Y-263400000D02*
X249500000Y-263500000D01*
X103100000Y-262900000D02*
X106100000Y-259900000D01*
X253600000Y-117100000D02*
X253700000Y-117200000D01*
X300500000Y-164300000D02*
X104700000Y-164300000D01*
X156000000Y-117100000D02*
X200700000Y-117100000D01*
X302400000Y-117100000D02*
X302400000Y-162400000D01*
X105000000Y-115200000D02*
X103100000Y-117100000D01*
X200600000Y-214800000D02*
X200700000Y-214700000D01*
X150150000Y-261750000D02*
X151900000Y-263500000D01*
X80500000Y-302900000D02*
X72500000Y-310900000D01*
X302400000Y-114800000D02*
X302000000Y-115200000D01*
X249400000Y-214800000D02*
X249500000Y-214700000D01*
X302400000Y-68300000D02*
X302400000Y-114800000D01*
X249500000Y-117100000D02*
X204800000Y-117100000D01*
X204900000Y-214800000D02*
X249400000Y-214800000D01*
X302000000Y-115200000D02*
X105000000Y-115200000D01*
X151800000Y-214800000D02*
X151900000Y-214700000D01*
X302400000Y-210200000D02*
X300500000Y-212100000D01*
X302400000Y-263500000D02*
X302400000Y-266200000D01*
X108950000Y-261750000D02*
X150150000Y-261750000D01*
X302400000Y-266200000D02*
X276900000Y-291700000D01*
X204900000Y-165800000D02*
X249400000Y-165800000D01*
X82600000Y-291700000D02*
X80500000Y-293800000D01*
X249400000Y-165800000D02*
X249500000Y-165900000D01*
X302400000Y-258000000D02*
X300500000Y-259900000D01*
X106100000Y-259900000D02*
X105350000Y-260650000D01*
X298200000Y-214600000D02*
X298300000Y-214700000D01*
X107300000Y-214800000D02*
X151800000Y-214800000D01*
X105700000Y-212100000D02*
X103100000Y-214700000D01*
X298200000Y-263600000D02*
X298300000Y-263500000D01*
X298200000Y-117200000D02*
X298300000Y-117100000D01*
X253700000Y-117200000D02*
X298200000Y-117200000D01*
X302400000Y-162400000D02*
X300500000Y-164300000D01*
X103100000Y-263500000D02*
X103100000Y-262900000D01*
X156000000Y-214700000D02*
X156100000Y-214800000D01*
X302400000Y-214700000D02*
X302400000Y-258000000D01*
X302400000Y-165900000D02*
X302400000Y-210200000D01*
X107200000Y-263500000D02*
X108950000Y-261750000D01*
X300500000Y-212100000D02*
X105700000Y-212100000D01*
X253600000Y-214700000D02*
X253700000Y-214600000D01*
X156000000Y-165900000D02*
X156100000Y-166000000D01*
X200600000Y-166000000D02*
X200700000Y-165900000D01*
X107200000Y-68300000D02*
X151900000Y-68300000D01*
X156100000Y-166000000D02*
X200600000Y-166000000D01*
X204800000Y-165900000D02*
X204900000Y-165800000D01*
X204800000Y-214700000D02*
X204900000Y-214800000D01*
X300500000Y-259900000D02*
X106100000Y-259900000D01*
%TO.N,GND*%
X105800000Y-263500000D02*
X108400000Y-260900000D01*
X201100000Y-267300000D02*
X202900000Y-265500000D01*
X300200000Y-116000000D02*
X250700000Y-116000000D01*
X249300000Y-169700000D02*
X250700000Y-168300000D01*
X300600000Y-167200000D02*
X300600000Y-165000000D01*
X250700000Y-265900000D02*
X250700000Y-265500000D01*
X104600000Y-118800000D02*
X104600000Y-119000000D01*
X304400000Y-116000000D02*
X304400000Y-117600000D01*
X250900000Y-213100000D02*
X202900000Y-213100000D01*
X153000000Y-266000000D02*
X154000000Y-265000000D01*
X152450000Y-217750000D02*
X151700000Y-218500000D01*
X203000000Y-118400000D02*
X200500000Y-120900000D01*
X153600000Y-119000000D02*
X153600000Y-116400000D01*
X203000000Y-116000000D02*
X203000000Y-118400000D01*
X252200000Y-66200000D02*
X300500000Y-66200000D01*
X304400000Y-163600000D02*
X303200000Y-163600000D01*
X153000000Y-266000000D02*
X151700000Y-267300000D01*
X250700000Y-213100000D02*
X300400000Y-213100000D01*
X202850000Y-71400000D02*
X201200000Y-71400000D01*
X153100000Y-72100000D02*
X153800000Y-71400000D01*
D17*
X304275000Y-292014950D02*
X304275000Y-260814950D01*
D16*
X300500000Y-69700000D02*
X300500000Y-66200000D01*
X200500000Y-267300000D02*
X201100000Y-267300000D01*
X151700000Y-120900000D02*
X153600000Y-119000000D01*
X250400000Y-165000000D02*
X202400000Y-165000000D01*
X300200000Y-116000000D02*
X300000000Y-116200000D01*
X104600000Y-117000000D02*
X104600000Y-118200000D01*
X250700000Y-168300000D02*
X250700000Y-165300000D01*
X304400000Y-163600000D02*
X304400000Y-260689950D01*
D17*
X88200000Y-306400000D02*
X88200000Y-298100000D01*
D16*
X104900000Y-66500000D02*
X104900000Y-70100000D01*
X202900000Y-260900000D02*
X202900000Y-265500000D01*
X298100000Y-267300000D02*
X299100000Y-267300000D01*
X153600000Y-116400000D02*
X105200000Y-116400000D01*
X104900000Y-66500000D02*
X103100000Y-68300000D01*
D17*
X88200000Y-298100000D02*
X295500000Y-298100000D01*
D16*
X153800000Y-66200000D02*
X203000000Y-66200000D01*
X249300000Y-120800000D02*
X250700000Y-119400000D01*
X102900000Y-120900000D02*
X104600000Y-119200000D01*
X300800000Y-260900000D02*
X298700000Y-260900000D01*
X202400000Y-167800000D02*
X202400000Y-165000000D01*
X251000000Y-165000000D02*
X250700000Y-165300000D01*
X304275000Y-261000000D02*
X304175000Y-260900000D01*
X250900000Y-260900000D02*
X202900000Y-260900000D01*
X300000000Y-116200000D02*
X300000000Y-119000000D01*
X104600000Y-119200000D02*
X104600000Y-118200000D01*
X203000000Y-66200000D02*
X252200000Y-66200000D01*
X249300000Y-218500000D02*
X249900000Y-218500000D01*
X104600000Y-166400000D02*
X104600000Y-168000000D01*
X304175000Y-260900000D02*
X300800000Y-260900000D01*
X298700000Y-260900000D02*
X250700000Y-260900000D01*
X155300000Y-213100000D02*
X106000000Y-213100000D01*
X105200000Y-116400000D02*
X104600000Y-117000000D01*
X102900000Y-267300000D02*
X105800000Y-264400000D01*
X154000000Y-260900000D02*
X203100000Y-260900000D01*
X249300000Y-120900000D02*
X249300000Y-120800000D01*
X107200000Y-66400000D02*
X107400000Y-66200000D01*
D17*
X295500000Y-298100000D02*
X301585050Y-292014950D01*
D16*
X201200000Y-71400000D02*
X200500000Y-72100000D01*
D17*
X301585050Y-292014950D02*
X304275000Y-292014950D01*
D16*
X300400000Y-216200000D02*
X300400000Y-213100000D01*
X104600000Y-118200000D02*
X104600000Y-118800000D01*
X298100000Y-169700000D02*
X300600000Y-167200000D01*
X153800000Y-71400000D02*
X153800000Y-66200000D01*
X249900000Y-218500000D02*
X250700000Y-217700000D01*
X154000000Y-265000000D02*
X154000000Y-260900000D01*
X155000000Y-165000000D02*
X106000000Y-165000000D01*
X203100000Y-213100000D02*
X154400000Y-213100000D01*
X154000000Y-116000000D02*
X153600000Y-116400000D01*
X250700000Y-260900000D02*
X250700000Y-265500000D01*
X299100000Y-267300000D02*
X300800000Y-265600000D01*
X107400000Y-66200000D02*
X153800000Y-66200000D01*
X301800000Y-165000000D02*
X251000000Y-165000000D01*
X202900000Y-216100000D02*
X200500000Y-218500000D01*
X250700000Y-165300000D02*
X250400000Y-165000000D01*
X154000000Y-165000000D02*
X153800000Y-165200000D01*
X304400000Y-260689950D02*
X304275000Y-260814950D01*
X105000000Y-66400000D02*
X107200000Y-66400000D01*
X104900000Y-66500000D02*
X105000000Y-66400000D01*
X252200000Y-69200000D02*
X252200000Y-66200000D01*
X304400000Y-117600000D02*
X304400000Y-163600000D01*
X154400000Y-213100000D02*
X154400000Y-215800000D01*
X300800000Y-265600000D02*
X300800000Y-260900000D01*
X202850000Y-66350000D02*
X203000000Y-66200000D01*
D17*
X72600000Y-322000000D02*
X88200000Y-306400000D01*
D16*
X104900000Y-70100000D02*
X102900000Y-72100000D01*
X249300000Y-267300000D02*
X250700000Y-265900000D01*
X201300000Y-168900000D02*
X202400000Y-167800000D01*
X151700000Y-72100000D02*
X153100000Y-72100000D01*
X300000000Y-119000000D02*
X298100000Y-120900000D01*
X154400000Y-215800000D02*
X152450000Y-217750000D01*
X153800000Y-167600000D02*
X151700000Y-169700000D01*
X202400000Y-165000000D02*
X154000000Y-165000000D01*
X304400000Y-68800000D02*
X304400000Y-116000000D01*
X153800000Y-165200000D02*
X153800000Y-167600000D01*
X104600000Y-168000000D02*
X102900000Y-169700000D01*
X201300000Y-168900000D02*
X200500000Y-169700000D01*
X106000000Y-165000000D02*
X104600000Y-166400000D01*
X249300000Y-72100000D02*
X252200000Y-69200000D01*
X250700000Y-217700000D02*
X250700000Y-213100000D01*
X250700000Y-116000000D02*
X203000000Y-116000000D01*
X106000000Y-213100000D02*
X106000000Y-215400000D01*
X304400000Y-116000000D02*
X300200000Y-116000000D01*
X301800000Y-66200000D02*
X304400000Y-68800000D01*
X202900000Y-213100000D02*
X202900000Y-216100000D01*
X105800000Y-264400000D02*
X105800000Y-263500000D01*
X203000000Y-116000000D02*
X154000000Y-116000000D01*
X202850000Y-71400000D02*
X202850000Y-66350000D01*
X250700000Y-119400000D02*
X250700000Y-116000000D01*
X300500000Y-66200000D02*
X301800000Y-66200000D01*
X298100000Y-72100000D02*
X300500000Y-69700000D01*
X304400000Y-213100000D02*
X300400000Y-213100000D01*
X298100000Y-218500000D02*
X300400000Y-216200000D01*
X108400000Y-260900000D02*
X155300000Y-260900000D01*
X303200000Y-163600000D02*
X301800000Y-165000000D01*
X106000000Y-215400000D02*
X102900000Y-218500000D01*
%TO.N,K0*%
X100600000Y-71650000D02*
X100600000Y-71150000D01*
X100600000Y-71150000D02*
X102350000Y-69400000D01*
X100650000Y-71650000D02*
X100600000Y-71650000D01*
X71100000Y-88400000D02*
X87850000Y-71650000D01*
X87850000Y-71650000D02*
X100600000Y-71650000D01*
%TO.N,A0*%
X88350000Y-72050000D02*
X66800000Y-93600000D01*
X66800000Y-93600000D02*
X57250000Y-93600000D01*
X102350000Y-70900000D02*
X101200000Y-72050000D01*
X101200000Y-72050000D02*
X88350000Y-72050000D01*
%TO.N,K1*%
X148725000Y-75325000D02*
X138750000Y-85300000D01*
X75948530Y-85300000D02*
X68124265Y-93124265D01*
X148725000Y-75325000D02*
X148725000Y-70675000D01*
X150000000Y-69400000D02*
X151150000Y-69400000D01*
X138750000Y-85300000D02*
X75948530Y-85300000D01*
X148725000Y-70675000D02*
X150000000Y-69400000D01*
%TO.N,A1*%
X57250000Y-94400000D02*
X67765686Y-94400000D01*
X139800000Y-85700000D02*
X140000000Y-85900000D01*
X67765686Y-94400000D02*
X76465686Y-85700000D01*
X150000000Y-75900000D02*
X150000000Y-72050000D01*
X150000000Y-72050000D02*
X151150000Y-70900000D01*
X140000000Y-85900000D02*
X150000000Y-75900000D01*
X76465686Y-85700000D02*
X139800000Y-85700000D01*
%TO.N,K2*%
X76900000Y-86300000D02*
X69600000Y-93600000D01*
X101300000Y-86500000D02*
X101100000Y-86300000D01*
X197300000Y-72050000D02*
X199950000Y-69400000D01*
X101100000Y-86300000D02*
X76900000Y-86300000D01*
X197300000Y-73900000D02*
X197300000Y-72050000D01*
X197300000Y-73900000D02*
X184700000Y-86500000D01*
X184700000Y-86500000D02*
X101300000Y-86500000D01*
%TO.N,A2*%
X186800000Y-86900000D02*
X77148529Y-86900000D01*
X199000000Y-74700000D02*
X186800000Y-86900000D01*
X199000000Y-71850000D02*
X199000000Y-74700000D01*
X199950000Y-70900000D02*
X199000000Y-71850000D01*
X77148529Y-86900000D02*
X68848529Y-95200000D01*
X68848529Y-95200000D02*
X57250000Y-95200000D01*
%TO.N,K3*%
X247325000Y-70825000D02*
X248750000Y-69400000D01*
X247325000Y-72325000D02*
X247325000Y-70825000D01*
X232350000Y-87300000D02*
X247325000Y-72325000D01*
X72900000Y-93400000D02*
X74400000Y-93400000D01*
X74400000Y-93400000D02*
X80500000Y-87300000D01*
X80500000Y-87300000D02*
X232350000Y-87300000D01*
%TO.N,A3*%
X107100000Y-88300000D02*
X106400000Y-89000000D01*
X248000000Y-71650000D02*
X248000000Y-73200000D01*
X248000000Y-73200000D02*
X232900000Y-88300000D01*
X248750000Y-70900000D02*
X248000000Y-71650000D01*
X79400000Y-89000000D02*
X72400000Y-96000000D01*
X72400000Y-96000000D02*
X57250000Y-96000000D01*
X232900000Y-88300000D02*
X107100000Y-88300000D01*
X106400000Y-89000000D02*
X79400000Y-89000000D01*
%TO.N,K4*%
X68700000Y-96600000D02*
X91600000Y-96600000D01*
X98800000Y-89400000D02*
X278000000Y-89400000D01*
X295800000Y-71650000D02*
X295800000Y-71150000D01*
X91600000Y-96600000D02*
X98800000Y-89400000D01*
X295750000Y-71650000D02*
X295800000Y-71650000D01*
X278000000Y-89400000D02*
X295750000Y-71650000D01*
X295800000Y-71150000D02*
X297550000Y-69400000D01*
%TO.N,A4*%
X92800000Y-97500000D02*
X68548529Y-97500000D01*
X279150000Y-89800000D02*
X100500000Y-89800000D01*
X100500000Y-89800000D02*
X92800000Y-97500000D01*
X68548529Y-97500000D02*
X67848529Y-96800000D01*
X295800000Y-73150000D02*
X295800000Y-72650000D01*
X67848529Y-96800000D02*
X57250000Y-96800000D01*
X295800000Y-73150000D02*
X279150000Y-89800000D01*
X295800000Y-72650000D02*
X297550000Y-70900000D01*
%TO.N,K5*%
X98700000Y-125900000D02*
X94900000Y-125900000D01*
X82700000Y-113700000D02*
X82700000Y-112500000D01*
X98700000Y-121850000D02*
X98700000Y-125900000D01*
X94900000Y-125900000D02*
X82700000Y-113700000D01*
X102350000Y-118200000D02*
X98700000Y-121850000D01*
X82700000Y-112500000D02*
X67800000Y-97600000D01*
%TO.N,A5*%
X57850000Y-98200000D02*
X57250000Y-97600000D01*
X99100000Y-122950000D02*
X102350000Y-119700000D01*
X94734314Y-126300000D02*
X99100000Y-126300000D01*
X67300000Y-98200000D02*
X67300000Y-98865686D01*
X67300000Y-98865686D02*
X94734314Y-126300000D01*
X67300000Y-98200000D02*
X57850000Y-98200000D01*
X99100000Y-126300000D02*
X99115686Y-126300000D01*
X99100000Y-126300000D02*
X99100000Y-122950000D01*
%TO.N,K6*%
X67400000Y-101600000D02*
X69468628Y-101600000D01*
X105900000Y-133100000D02*
X99390686Y-126590686D01*
X69468628Y-101600000D02*
X85884314Y-118015686D01*
X99390686Y-126590686D02*
X99281372Y-126700000D01*
X151175000Y-118225000D02*
X136300000Y-133100000D01*
X136300000Y-133100000D02*
X105900000Y-133100000D01*
X94568628Y-126700000D02*
X85768628Y-117900000D01*
X99281372Y-126700000D02*
X94568628Y-126700000D01*
%TO.N,A6*%
X94402942Y-127100000D02*
X85701471Y-118398529D01*
X66200000Y-102200000D02*
X65600000Y-101600000D01*
X65600000Y-101600000D02*
X57250000Y-101600000D01*
X69400000Y-102200000D02*
X66200000Y-102200000D01*
X105100000Y-133700000D02*
X98500000Y-127100000D01*
X98500000Y-127100000D02*
X94402942Y-127100000D01*
X85598529Y-118398529D02*
X69400000Y-102200000D01*
X85701471Y-118398529D02*
X85598529Y-118398529D01*
X85701471Y-118398529D02*
X85602942Y-118300000D01*
X151150000Y-119700000D02*
X137150000Y-133700000D01*
X137150000Y-133700000D02*
X105100000Y-133700000D01*
%TO.N,K7*%
X105134314Y-134300000D02*
X98817157Y-127982843D01*
X69434314Y-102800000D02*
X68200000Y-102800000D01*
X198725000Y-120925000D02*
X185350000Y-134300000D01*
X185350000Y-134300000D02*
X105134314Y-134300000D01*
X98817157Y-127982843D02*
X94082843Y-127982843D01*
X86500000Y-119865686D02*
X69434314Y-102800000D01*
X198725000Y-119425000D02*
X199950000Y-118200000D01*
X86500000Y-120400000D02*
X86500000Y-119865686D01*
X198725000Y-120925000D02*
X198725000Y-119425000D01*
X94082843Y-127982843D02*
X86500000Y-120400000D01*
%TO.N,A7*%
X86100000Y-121217157D02*
X86100000Y-120200000D01*
X104100000Y-134100000D02*
X102500000Y-134100000D01*
X86100000Y-120200000D02*
X69700000Y-103800000D01*
X94982843Y-128817157D02*
X93700000Y-128817157D01*
X97782843Y-131617157D02*
X94982843Y-128817157D01*
X199400000Y-120250000D02*
X199400000Y-122100000D01*
X104700000Y-134700000D02*
X104100000Y-134100000D01*
X69700000Y-103800000D02*
X60698529Y-103800000D01*
X59298529Y-102400000D02*
X57250000Y-102400000D01*
X100017157Y-131617157D02*
X97782843Y-131617157D01*
X60698529Y-103800000D02*
X59298529Y-102400000D01*
X199950000Y-119700000D02*
X199400000Y-120250000D01*
X93700000Y-128817157D02*
X86100000Y-121217157D01*
X102500000Y-134100000D02*
X100017157Y-131617157D01*
X186800000Y-134700000D02*
X104700000Y-134700000D01*
X199400000Y-122100000D02*
X186800000Y-134700000D01*
%TO.N,K8*%
X247600000Y-118200000D02*
X247000000Y-118800000D01*
X96900000Y-132300000D02*
X94300000Y-129700000D01*
X99500000Y-132300000D02*
X96900000Y-132300000D01*
X232350000Y-135100000D02*
X102300000Y-135100000D01*
X94300000Y-129700000D02*
X93100000Y-129700000D01*
X85700000Y-122300000D02*
X85700000Y-120800000D01*
X248750000Y-118200000D02*
X247600000Y-118200000D01*
X246825000Y-120625000D02*
X232350000Y-135100000D01*
X102300000Y-135100000D02*
X99500000Y-132300000D01*
X247000000Y-118800000D02*
X247000000Y-120450000D01*
X93100000Y-129700000D02*
X85700000Y-122300000D01*
X85700000Y-120800000D02*
X69500000Y-104600000D01*
X247000000Y-120450000D02*
X246825000Y-120625000D01*
%TO.N,A8*%
X103700000Y-135900000D02*
X103900000Y-136100000D01*
X59200000Y-103200000D02*
X60351471Y-104351471D01*
X248000000Y-120450000D02*
X248750000Y-119700000D01*
X103900000Y-136100000D02*
X233300000Y-136100000D01*
X68351471Y-104351471D02*
X85300000Y-121300000D01*
X102300000Y-135900000D02*
X103700000Y-135900000D01*
X99700000Y-133300000D02*
X102300000Y-135900000D01*
X57250000Y-103200000D02*
X59200000Y-103200000D01*
X248000000Y-121400000D02*
X248000000Y-120450000D01*
X85300000Y-122465686D02*
X96134314Y-133300000D01*
X60351471Y-104351471D02*
X68351471Y-104351471D01*
X96134314Y-133300000D02*
X99700000Y-133300000D01*
X85300000Y-121300000D02*
X85300000Y-122465686D01*
X233300000Y-136100000D02*
X248000000Y-121400000D01*
%TO.N,K9*%
X96568628Y-134300000D02*
X83300000Y-121031372D01*
X83300000Y-121031372D02*
X83300000Y-119900000D01*
X278600000Y-137200000D02*
X102800000Y-137200000D01*
X297550000Y-118250000D02*
X278600000Y-137200000D01*
X297550000Y-118200000D02*
X297550000Y-118250000D01*
X83300000Y-119900000D02*
X69000000Y-105600000D01*
X99900000Y-134300000D02*
X96568628Y-134300000D01*
X102800000Y-137200000D02*
X99900000Y-134300000D01*
X69000000Y-105600000D02*
X68200000Y-105600000D01*
%TO.N,A9*%
X297550000Y-119700000D02*
X297500000Y-119700000D01*
X59498529Y-106200000D02*
X57298529Y-104000000D01*
X97802942Y-136100000D02*
X82765685Y-121062743D01*
X82765685Y-120000000D02*
X68965685Y-106200000D01*
X57298529Y-104000000D02*
X57250000Y-104000000D01*
X99800000Y-137600000D02*
X98300000Y-136100000D01*
X98300000Y-136100000D02*
X97802942Y-136100000D01*
X82765685Y-121062743D02*
X82765685Y-120000000D01*
X279600000Y-137600000D02*
X99800000Y-137600000D01*
X68965685Y-106200000D02*
X59498529Y-106200000D01*
X297500000Y-119700000D02*
X279600000Y-137600000D01*
%TO.N,A10*%
X68800000Y-107800000D02*
X62565686Y-107800000D01*
X61365686Y-106600000D02*
X59200000Y-106600000D01*
X100525000Y-164675000D02*
X100525000Y-166675000D01*
X98875000Y-163025000D02*
X98875000Y-138875000D01*
X59200000Y-106600000D02*
X57400000Y-104800000D01*
X62565686Y-107800000D02*
X61365686Y-106600000D01*
X100525000Y-166675000D02*
X102350000Y-168500000D01*
X100525000Y-164675000D02*
X98875000Y-163025000D01*
X57400000Y-104800000D02*
X57250000Y-104800000D01*
X98875000Y-138875000D02*
X68800000Y-108800000D01*
X68800000Y-108800000D02*
X68800000Y-107800000D01*
%TO.N,K10*%
X67600000Y-107000000D02*
X69200000Y-107000000D01*
X100982843Y-165632843D02*
X100982843Y-161617157D01*
X75900000Y-114762744D02*
X99800000Y-138662744D01*
X69700000Y-108200000D02*
X75900000Y-114400000D01*
X69200000Y-108200000D02*
X69700000Y-108200000D01*
X75900000Y-114400000D02*
X75900000Y-114762744D01*
X99800000Y-138662744D02*
X99800000Y-160434314D01*
X99800000Y-160434314D02*
X100982843Y-161617157D01*
X69200000Y-107000000D02*
X69200000Y-108200000D01*
X102350000Y-167000000D02*
X100982843Y-165632843D01*
%TO.N,A11*%
X57298529Y-105600000D02*
X59498529Y-107800000D01*
X140000000Y-181500000D02*
X150850000Y-170650000D01*
X57250000Y-105600000D02*
X57298529Y-105600000D01*
X91100000Y-167500000D02*
X105100000Y-181500000D01*
X105100000Y-181500000D02*
X140000000Y-181500000D01*
X62000000Y-107800000D02*
X91100000Y-136900000D01*
X150850000Y-170650000D02*
X150850000Y-168800000D01*
X59498529Y-107800000D02*
X62000000Y-107800000D01*
X91100000Y-136900000D02*
X91100000Y-167500000D01*
X150850000Y-168800000D02*
X151150000Y-168500000D01*
%TO.N,K11*%
X94100000Y-135300000D02*
X68200000Y-109400000D01*
X149925000Y-169725000D02*
X138750000Y-180900000D01*
X149925000Y-169725000D02*
X149925000Y-168225000D01*
X68200000Y-109400000D02*
X68200000Y-108400000D01*
X149925000Y-168225000D02*
X151150000Y-167000000D01*
X94600000Y-169600000D02*
X94600000Y-164300000D01*
X138750000Y-180900000D02*
X105900000Y-180900000D01*
X94600000Y-164300000D02*
X94100000Y-163800000D01*
X105900000Y-180900000D02*
X94600000Y-169600000D01*
X94100000Y-163800000D02*
X94100000Y-135300000D01*
%TO.N,A12*%
X199950000Y-168850000D02*
X186300000Y-182500000D01*
X57250000Y-112250000D02*
X57250000Y-106400000D01*
X186300000Y-182500000D02*
X104700000Y-182500000D01*
X104700000Y-182500000D02*
X89900000Y-167700000D01*
X199950000Y-168500000D02*
X199950000Y-168850000D01*
X62000000Y-117000000D02*
X57250000Y-112250000D01*
X89900000Y-139900000D02*
X67000000Y-117000000D01*
X67000000Y-117000000D02*
X62000000Y-117000000D01*
X89900000Y-167700000D02*
X89900000Y-139900000D01*
%TO.N,K12*%
X90300000Y-137300000D02*
X67600000Y-114600000D01*
X185350000Y-182100000D02*
X105134315Y-182100000D01*
X90300000Y-167265685D02*
X90300000Y-137300000D01*
X199950000Y-167000000D02*
X199950000Y-167500000D01*
X199950000Y-167500000D02*
X185350000Y-182100000D01*
X105134315Y-182100000D02*
X90300000Y-167265685D01*
%TO.N,K14*%
X278050000Y-185000000D02*
X296050000Y-167000000D01*
X72100000Y-173800000D02*
X74200000Y-171700000D01*
X102800000Y-185000000D02*
X102800000Y-184965686D01*
X89500000Y-171700000D02*
X102800000Y-185000000D01*
X74200000Y-171700000D02*
X89500000Y-171700000D01*
X102800000Y-185000000D02*
X278050000Y-185000000D01*
X102800000Y-184965686D02*
X101500000Y-183665686D01*
X296050000Y-167000000D02*
X297550000Y-167000000D01*
%TO.N,A14*%
X296050000Y-168500000D02*
X297550000Y-168500000D01*
X279400000Y-185400000D02*
X295800000Y-169000000D01*
X295800000Y-168750000D02*
X296050000Y-168500000D01*
X57200000Y-174400000D02*
X88800000Y-174400000D01*
X88800000Y-174400000D02*
X99800000Y-185400000D01*
X295800000Y-169000000D02*
X295800000Y-168750000D01*
X99800000Y-185400000D02*
X279400000Y-185400000D01*
%TO.N,K13*%
X248000000Y-167250000D02*
X248500000Y-167250000D01*
X248500000Y-167250000D02*
X248750000Y-167000000D01*
X89700000Y-170700000D02*
X100700000Y-181700000D01*
X103334314Y-181700000D02*
X104534314Y-182900000D01*
X71900000Y-170700000D02*
X89700000Y-170700000D01*
X100700000Y-181700000D02*
X103334314Y-181700000D01*
X232350000Y-182900000D02*
X248000000Y-167250000D01*
X104534314Y-182900000D02*
X232350000Y-182900000D01*
%TO.N,A13*%
X103900000Y-183900000D02*
X233300000Y-183900000D01*
X100900000Y-182500000D02*
X102500000Y-182500000D01*
X89700000Y-171300000D02*
X100900000Y-182500000D01*
X57200000Y-173600000D02*
X67200000Y-173600000D01*
X69500000Y-171300000D02*
X89700000Y-171300000D01*
X67200000Y-173600000D02*
X69500000Y-171300000D01*
X233300000Y-183900000D02*
X248700000Y-168500000D01*
X102500000Y-182500000D02*
X103900000Y-183900000D01*
X248700000Y-168500000D02*
X248750000Y-168500000D01*
%TO.N,K15*%
X101082843Y-214532843D02*
X102350000Y-215800000D01*
X68400000Y-175200000D02*
X88400000Y-175200000D01*
X88400000Y-175200000D02*
X101082843Y-187882843D01*
X101082843Y-187882843D02*
X101082843Y-214532843D01*
%TO.N,A15*%
X102350000Y-217300000D02*
X101300000Y-217300000D01*
X68800000Y-177000000D02*
X67000000Y-175200000D01*
X100600000Y-188000000D02*
X100617157Y-187982843D01*
X89634314Y-177000000D02*
X68800000Y-177000000D01*
X101300000Y-217300000D02*
X100600000Y-216600000D01*
X67000000Y-175200000D02*
X57200000Y-175200000D01*
X100600000Y-216600000D02*
X100600000Y-188000000D01*
X100617157Y-187982843D02*
X89634314Y-177000000D01*
%TO.N,K16*%
X99500000Y-208100000D02*
X72600000Y-181200000D01*
X150225000Y-217225000D02*
X138750000Y-228700000D01*
X151150000Y-215800000D02*
X150225000Y-216725000D01*
X105900000Y-228700000D02*
X99500000Y-222300000D01*
X138750000Y-228700000D02*
X105900000Y-228700000D01*
X150225000Y-216725000D02*
X150225000Y-217225000D01*
X72600000Y-181200000D02*
X71500000Y-181200000D01*
X99500000Y-222300000D02*
X99500000Y-208100000D01*
%TO.N,A16*%
X105100000Y-229100000D02*
X98700000Y-222700000D01*
X62751471Y-176000000D02*
X57200000Y-176000000D01*
X70800000Y-184048529D02*
X70800000Y-184000000D01*
X70800000Y-184000000D02*
X70751471Y-184000000D01*
X70951471Y-184200000D02*
X70800000Y-184048529D01*
X72900000Y-184200000D02*
X70951471Y-184200000D01*
X149800000Y-219500000D02*
X140200000Y-229100000D01*
X151150000Y-217300000D02*
X149800000Y-218650000D01*
X70751471Y-184000000D02*
X62751471Y-176000000D01*
X98700000Y-222700000D02*
X98700000Y-210000000D01*
X98700000Y-210000000D02*
X72900000Y-184200000D01*
X140200000Y-229100000D02*
X105100000Y-229100000D01*
X149800000Y-218650000D02*
X149800000Y-219500000D01*
%TO.N,K17*%
X76100000Y-191400000D02*
X98300000Y-213600000D01*
X74300000Y-188600000D02*
X76100000Y-190400000D01*
X76100000Y-190400000D02*
X76100000Y-191400000D01*
X199450000Y-215800000D02*
X199950000Y-215800000D01*
X105300000Y-229900000D02*
X185350000Y-229900000D01*
X185350000Y-229900000D02*
X199450000Y-215800000D01*
X98300000Y-222900000D02*
X105300000Y-229900000D01*
X98300000Y-213600000D02*
X98300000Y-222900000D01*
%TO.N,A17*%
X57200000Y-176800000D02*
X60800000Y-176800000D01*
X105134314Y-230300000D02*
X186450000Y-230300000D01*
X74334314Y-190200000D02*
X97900000Y-213765686D01*
X199450000Y-217300000D02*
X199950000Y-217300000D01*
X97900000Y-223065686D02*
X105134314Y-230300000D01*
X74200000Y-190200000D02*
X74334314Y-190200000D01*
X186450000Y-230300000D02*
X199450000Y-217300000D01*
X97900000Y-213765686D02*
X97900000Y-223065686D01*
X60800000Y-176800000D02*
X74200000Y-190200000D01*
%TO.N,K18*%
X104968628Y-230700000D02*
X97500000Y-223231372D01*
X97500000Y-223231372D02*
X97500000Y-213931372D01*
X97500000Y-213931372D02*
X74468628Y-190900000D01*
X247250000Y-215800000D02*
X232350000Y-230700000D01*
X232350000Y-230700000D02*
X104968628Y-230700000D01*
X248750000Y-215800000D02*
X247250000Y-215800000D01*
X74468628Y-190900000D02*
X73600000Y-190900000D01*
%TO.N,A18*%
X62800000Y-180400000D02*
X68000000Y-185600000D01*
X74802942Y-191800000D02*
X97100000Y-214097058D01*
X68000000Y-186800000D02*
X73000000Y-191800000D01*
X97100000Y-214097058D02*
X97100000Y-224900000D01*
X103900000Y-231700000D02*
X232850000Y-231700000D01*
X68000000Y-185600000D02*
X68000000Y-186800000D01*
X73000000Y-191800000D02*
X74802942Y-191800000D01*
X232850000Y-231700000D02*
X247250000Y-217300000D01*
X59400000Y-180400000D02*
X62800000Y-180400000D01*
X97100000Y-224900000D02*
X103900000Y-231700000D01*
X57200000Y-177600000D02*
X57200000Y-178200000D01*
X57200000Y-178200000D02*
X59400000Y-180400000D01*
X247250000Y-217300000D02*
X248750000Y-217300000D01*
%TO.N,K19*%
X295050000Y-215800000D02*
X278050000Y-232800000D01*
X74637256Y-192200000D02*
X72648528Y-192200000D01*
X72648528Y-192200000D02*
X66400000Y-185951472D01*
X96700000Y-214262744D02*
X74637256Y-192200000D01*
X96700000Y-225065686D02*
X96700000Y-214262744D01*
X278050000Y-232800000D02*
X104434314Y-232800000D01*
X104434314Y-232800000D02*
X96700000Y-225065686D01*
X66400000Y-185951472D02*
X66400000Y-185200000D01*
X297550000Y-215800000D02*
X295050000Y-215800000D01*
%TO.N,A19*%
X279400000Y-233200000D02*
X295300000Y-217300000D01*
X96300000Y-214428430D02*
X96300000Y-225231372D01*
X66000000Y-186117158D02*
X72482842Y-192600000D01*
X72482842Y-192600000D02*
X74471570Y-192600000D01*
X74471570Y-192600000D02*
X96300000Y-214428430D01*
X96300000Y-225231372D02*
X104268628Y-233200000D01*
X295300000Y-217300000D02*
X297550000Y-217300000D01*
X61482843Y-181600000D02*
X66000000Y-186117158D01*
X57200000Y-181600000D02*
X61482843Y-181600000D01*
X104268628Y-233200000D02*
X279400000Y-233200000D01*
%TO.N,K20*%
X74305884Y-193000000D02*
X95900000Y-214594116D01*
X100600000Y-262850000D02*
X102350000Y-264600000D01*
X95900000Y-258300000D02*
X100450000Y-262850000D01*
X71067156Y-192032844D02*
X72034312Y-193000000D01*
X72034312Y-193000000D02*
X74305884Y-193000000D01*
X95900000Y-214594116D02*
X95900000Y-258300000D01*
X100450000Y-262850000D02*
X100600000Y-262850000D01*
%TO.N,A20*%
X95500000Y-259700000D02*
X95500000Y-214759802D01*
X70000000Y-191200000D02*
X61200000Y-182400000D01*
X61200000Y-182400000D02*
X57200000Y-182400000D01*
X74514462Y-193774264D02*
X71974264Y-193774264D01*
X101900000Y-266100000D02*
X95500000Y-259700000D01*
X70832844Y-192632844D02*
X70818627Y-192632844D01*
X95500000Y-214759802D02*
X74514462Y-193774264D01*
X70818627Y-192632844D02*
X70000000Y-191814217D01*
X71974264Y-193774264D02*
X70832844Y-192632844D01*
X102350000Y-266100000D02*
X101900000Y-266100000D01*
X70000000Y-191814217D02*
X70000000Y-191200000D01*
%TO.N,K21*%
X69400000Y-192000000D02*
X69400000Y-193214215D01*
X69400000Y-193214215D02*
X91345587Y-215159802D01*
X91345587Y-257151471D02*
X109994116Y-275800000D01*
X139200000Y-275800000D02*
X139950000Y-275800000D01*
X139950000Y-275800000D02*
X151150000Y-264600000D01*
X91345587Y-215159802D02*
X91345587Y-257151471D01*
X109994116Y-275800000D02*
X139400000Y-275800000D01*
%TO.N,A21*%
X110728430Y-277100000D02*
X90945587Y-257317157D01*
X90945587Y-215325488D02*
X67800000Y-192179901D01*
X60600000Y-183200000D02*
X57200000Y-183200000D01*
X67800000Y-192179901D02*
X67800000Y-190400000D01*
X67800000Y-190400000D02*
X60600000Y-183200000D01*
X90945587Y-257317157D02*
X90945587Y-215325488D01*
X151150000Y-266100000D02*
X140150000Y-277100000D01*
X140150000Y-277100000D02*
X110728430Y-277100000D01*
%TO.N,K22*%
X74700000Y-200150000D02*
X74700000Y-200500000D01*
X90545587Y-257482843D02*
X110762744Y-277700000D01*
X74700000Y-200500000D02*
X90545587Y-216345587D01*
X199015686Y-265534314D02*
X200000000Y-264550000D01*
X90545587Y-216345587D02*
X90545587Y-257482843D01*
X110762744Y-277700000D02*
X186634314Y-277700000D01*
X186634314Y-277700000D02*
X198800000Y-265534314D01*
X198800000Y-265534314D02*
X199015686Y-265534314D01*
%TO.N,A22*%
X199950000Y-266100000D02*
X198800000Y-266100000D01*
X67400000Y-192345587D02*
X67400000Y-191000000D01*
X198800000Y-266100000D02*
X186800000Y-278100000D01*
X74100000Y-241602942D02*
X74100000Y-199045587D01*
X110597058Y-278100000D02*
X74100000Y-241602942D01*
X186800000Y-278100000D02*
X110597058Y-278100000D01*
X74100000Y-199045587D02*
X67400000Y-192345587D01*
X60400000Y-184000000D02*
X57200000Y-184000000D01*
X67400000Y-191000000D02*
X60400000Y-184000000D01*
%TO.N,K23*%
X72723904Y-200824274D02*
X72723904Y-240792532D01*
X72723904Y-240792532D02*
X110431372Y-278500000D01*
X232350000Y-278500000D02*
X246250000Y-264600000D01*
X110431372Y-278500000D02*
X232350000Y-278500000D01*
X246250000Y-264600000D02*
X248750000Y-264600000D01*
%TO.N,A23*%
X71600000Y-240234314D02*
X110865686Y-279500000D01*
X59200000Y-184800000D02*
X64000000Y-189600000D01*
X64000000Y-189600000D02*
X64000000Y-192700000D01*
X71600000Y-200300000D02*
X71600000Y-240234314D01*
X233900000Y-279500000D02*
X247300000Y-266100000D01*
X57200000Y-184800000D02*
X59200000Y-184800000D01*
X247300000Y-266100000D02*
X248750000Y-266100000D01*
X110865686Y-279500000D02*
X233900000Y-279500000D01*
X64000000Y-192700000D02*
X71600000Y-200300000D01*
%TO.N,K24*%
X111400000Y-280600000D02*
X71000000Y-240200000D01*
X71000000Y-200600000D02*
X66400000Y-196000000D01*
X297550000Y-264600000D02*
X294050000Y-264600000D01*
X278050000Y-280600000D02*
X111400000Y-280600000D01*
X294050000Y-264600000D02*
X278050000Y-280600000D01*
X71000000Y-240200000D02*
X71000000Y-200600000D01*
%TO.N,A24*%
X62551471Y-193000000D02*
X62551471Y-189251471D01*
X297550000Y-266100000D02*
X294300000Y-266100000D01*
X62551471Y-189251471D02*
X58900000Y-185600000D01*
X58900000Y-185600000D02*
X57200000Y-185600000D01*
X70600000Y-240365686D02*
X70600000Y-201048529D01*
X279400000Y-281000000D02*
X111234314Y-281000000D01*
X70600000Y-201048529D02*
X62551471Y-193000000D01*
X294300000Y-266100000D02*
X279400000Y-281000000D01*
X111234314Y-281000000D02*
X70600000Y-240365686D01*
%TD*%
M02*
