%TF.GenerationSoftware,KiCad,Pcbnew,8.0.2-1*%
%TF.CreationDate,2024-06-20T16:04:37-04:00*%
%TF.ProjectId,OddLayers_1.3mm_SiPM,4f64644c-6179-4657-9273-5f312e336d6d,rev?*%
%TF.SameCoordinates,Original*%
%TF.FileFunction,Soldermask,Top*%
%TF.FilePolarity,Negative*%
%FSLAX46Y46*%
G04 Gerber Fmt 4.6, Leading zero omitted, Abs format (unit mm)*
G04 Created by KiCad (PCBNEW 8.0.2-1) date 2024-06-20 16:04:37*
%MOMM*%
%LPD*%
G01*
G04 APERTURE LIST*
G04 Aperture macros list*
%AMRoundRect*
0 Rectangle with rounded corners*
0 $1 Rounding radius*
0 $2 $3 $4 $5 $6 $7 $8 $9 X,Y pos of 4 corners*
0 Add a 4 corners polygon primitive as box body*
4,1,4,$2,$3,$4,$5,$6,$7,$8,$9,$2,$3,0*
0 Add four circle primitives for the rounded corners*
1,1,$1+$1,$2,$3*
1,1,$1+$1,$4,$5*
1,1,$1+$1,$6,$7*
1,1,$1+$1,$8,$9*
0 Add four rect primitives between the rounded corners*
20,1,$1+$1,$2,$3,$4,$5,0*
20,1,$1+$1,$4,$5,$6,$7,0*
20,1,$1+$1,$6,$7,$8,$9,0*
20,1,$1+$1,$8,$9,$2,$3,0*%
G04 Aperture macros list end*
%ADD10RoundRect,0.237500X-0.287500X-0.237500X0.287500X-0.237500X0.287500X0.237500X-0.287500X0.237500X0*%
%ADD11RoundRect,0.225000X-0.225000X-0.250000X0.225000X-0.250000X0.225000X0.250000X-0.225000X0.250000X0*%
%ADD12R,0.700000X0.700000*%
%ADD13C,1.270000*%
%ADD14RoundRect,0.102000X-0.600000X0.250000X-0.600000X-0.250000X0.600000X-0.250000X0.600000X0.250000X0*%
%ADD15C,1.552000*%
%ADD16RoundRect,0.250000X-0.312500X-0.625000X0.312500X-0.625000X0.312500X0.625000X-0.312500X0.625000X0*%
%ADD17R,3.500000X3.500000*%
%ADD18C,4.000000*%
G04 APERTURE END LIST*
D10*
%TO.C,REF\u002A\u002A34*%
X297775000Y-166165000D03*
D11*
X297875000Y-169950000D03*
D12*
X299402500Y-167500000D03*
X297377500Y-167500000D03*
D11*
X299425000Y-169950000D03*
D10*
X299525000Y-166165000D03*
D12*
X297377500Y-168600000D03*
X299402500Y-168600000D03*
%TD*%
D10*
%TO.C,REF\u002A\u002A40*%
X106575000Y-261765000D03*
D11*
X106675000Y-265550000D03*
D12*
X108202500Y-263100000D03*
X106177500Y-263100000D03*
D11*
X108225000Y-265550000D03*
D10*
X108325000Y-261765000D03*
D12*
X106177500Y-264200000D03*
X108202500Y-264200000D03*
%TD*%
D10*
%TO.C,REF\u002A\u002A30*%
X106575000Y-166165000D03*
D11*
X106675000Y-169950000D03*
D12*
X108202500Y-167500000D03*
X106177500Y-167500000D03*
D11*
X108225000Y-169950000D03*
D10*
X108325000Y-166165000D03*
D12*
X106177500Y-168600000D03*
X108202500Y-168600000D03*
%TD*%
D10*
%TO.C,REF\u002A\u002A24*%
X297775000Y-70565000D03*
D11*
X297875000Y-74350000D03*
D12*
X299402500Y-71900000D03*
X297377500Y-71900000D03*
D11*
X299425000Y-74350000D03*
D10*
X299525000Y-70565000D03*
D12*
X297377500Y-73000000D03*
X299402500Y-73000000D03*
%TD*%
D10*
%TO.C,REF\u002A\u002A43*%
X249975000Y-261765000D03*
D11*
X250075000Y-265550000D03*
D12*
X251602500Y-263100000D03*
X249577500Y-263100000D03*
D11*
X251625000Y-265550000D03*
D10*
X251725000Y-261765000D03*
D12*
X249577500Y-264200000D03*
X251602500Y-264200000D03*
%TD*%
D10*
%TO.C,REF\u002A\u002A38*%
X249975000Y-213965000D03*
D11*
X250075000Y-217750000D03*
D12*
X251602500Y-215300000D03*
X249577500Y-215300000D03*
D11*
X251625000Y-217750000D03*
D10*
X251725000Y-213965000D03*
D12*
X249577500Y-216400000D03*
X251602500Y-216400000D03*
%TD*%
D10*
%TO.C,REF\u002A\u002A22*%
X202175000Y-70565000D03*
D11*
X202275000Y-74350000D03*
D12*
X203802500Y-71900000D03*
X201777500Y-71900000D03*
D11*
X203825000Y-74350000D03*
D10*
X203925000Y-70565000D03*
D12*
X201777500Y-73000000D03*
X203802500Y-73000000D03*
%TD*%
D10*
%TO.C,REF\u002A\u002A28*%
X249975000Y-118365000D03*
D11*
X250075000Y-122150000D03*
D12*
X251602500Y-119700000D03*
X249577500Y-119700000D03*
D11*
X251625000Y-122150000D03*
D10*
X251725000Y-118365000D03*
D12*
X249577500Y-120800000D03*
X251602500Y-120800000D03*
%TD*%
D10*
%TO.C,REF\u002A\u002A23*%
X249975000Y-70565000D03*
D11*
X250075000Y-74350000D03*
D12*
X251602500Y-71900000D03*
X249577500Y-71900000D03*
D11*
X251625000Y-74350000D03*
D10*
X251725000Y-70565000D03*
D12*
X249577500Y-73000000D03*
X251602500Y-73000000D03*
%TD*%
D10*
%TO.C,REF\u002A\u002A32*%
X202175000Y-166165000D03*
D11*
X202275000Y-169950000D03*
D12*
X203802500Y-167500000D03*
X201777500Y-167500000D03*
D11*
X203825000Y-169950000D03*
D10*
X203925000Y-166165000D03*
D12*
X201777500Y-168600000D03*
X203802500Y-168600000D03*
%TD*%
D10*
%TO.C,REF\u002A\u002A44*%
X297775000Y-261765000D03*
D11*
X297875000Y-265550000D03*
D12*
X299402500Y-263100000D03*
X297377500Y-263100000D03*
D11*
X299425000Y-265550000D03*
D10*
X299525000Y-261765000D03*
D12*
X297377500Y-264200000D03*
X299402500Y-264200000D03*
%TD*%
D10*
%TO.C,REF\u002A\u002A26*%
X154375000Y-118365000D03*
D11*
X154475000Y-122150000D03*
D12*
X156002500Y-119700000D03*
X153977500Y-119700000D03*
D11*
X156025000Y-122150000D03*
D10*
X156125000Y-118365000D03*
D12*
X153977500Y-120800000D03*
X156002500Y-120800000D03*
%TD*%
D10*
%TO.C,REF\u002A\u002A36*%
X154375000Y-213965000D03*
D11*
X154475000Y-217750000D03*
D12*
X156002500Y-215300000D03*
X153977500Y-215300000D03*
D11*
X156025000Y-217750000D03*
D10*
X156125000Y-213965000D03*
D12*
X153977500Y-216400000D03*
X156002500Y-216400000D03*
%TD*%
D10*
%TO.C,REF\u002A\u002A20*%
X106575000Y-70565000D03*
D11*
X106675000Y-74350000D03*
D12*
X108202500Y-71900000D03*
X106177500Y-71900000D03*
D11*
X108225000Y-74350000D03*
D10*
X108325000Y-70565000D03*
D12*
X106177500Y-73000000D03*
X108202500Y-73000000D03*
%TD*%
D10*
%TO.C,REF\u002A\u002A25*%
X106575000Y-118365000D03*
D11*
X106675000Y-122150000D03*
D12*
X108202500Y-119700000D03*
X106177500Y-119700000D03*
D11*
X108225000Y-122150000D03*
D10*
X108325000Y-118365000D03*
D12*
X106177500Y-120800000D03*
X108202500Y-120800000D03*
%TD*%
D10*
%TO.C,REF\u002A\u002A37*%
X202175000Y-213965000D03*
D11*
X202275000Y-217750000D03*
D12*
X203802500Y-215300000D03*
X201777500Y-215300000D03*
D11*
X203825000Y-217750000D03*
D10*
X203925000Y-213965000D03*
D12*
X201777500Y-216400000D03*
X203802500Y-216400000D03*
%TD*%
D10*
%TO.C,REF\u002A\u002A31*%
X154375000Y-166165000D03*
D11*
X154475000Y-169950000D03*
D12*
X156002500Y-167500000D03*
X153977500Y-167500000D03*
D11*
X156025000Y-169950000D03*
D10*
X156125000Y-166165000D03*
D12*
X153977500Y-168600000D03*
X156002500Y-168600000D03*
%TD*%
D10*
%TO.C,REF\u002A\u002A27*%
X202175000Y-118365000D03*
D11*
X202275000Y-122150000D03*
D12*
X203802500Y-119700000D03*
X201777500Y-119700000D03*
D11*
X203825000Y-122150000D03*
D10*
X203925000Y-118365000D03*
D12*
X201777500Y-120800000D03*
X203802500Y-120800000D03*
%TD*%
D10*
%TO.C,REF\u002A\u002A41*%
X154375000Y-261765000D03*
D11*
X154475000Y-265550000D03*
D12*
X156002500Y-263100000D03*
X153977500Y-263100000D03*
D11*
X156025000Y-265550000D03*
D10*
X156125000Y-261765000D03*
D12*
X153977500Y-264200000D03*
X156002500Y-264200000D03*
%TD*%
D10*
%TO.C,REF\u002A\u002A29*%
X297775000Y-118365000D03*
D11*
X297875000Y-122150000D03*
D12*
X299402500Y-119700000D03*
X297377500Y-119700000D03*
D11*
X299425000Y-122150000D03*
D10*
X299525000Y-118365000D03*
D12*
X297377500Y-120800000D03*
X299402500Y-120800000D03*
%TD*%
D10*
%TO.C,REF\u002A\u002A21*%
X154375000Y-70565000D03*
D11*
X154475000Y-74350000D03*
D12*
X156002500Y-71900000D03*
X153977500Y-71900000D03*
D11*
X156025000Y-74350000D03*
D10*
X156125000Y-70565000D03*
D12*
X153977500Y-73000000D03*
X156002500Y-73000000D03*
%TD*%
D10*
%TO.C,REF\u002A\u002A42*%
X202175000Y-261765000D03*
D11*
X202275000Y-265550000D03*
D12*
X203802500Y-263100000D03*
X201777500Y-263100000D03*
D11*
X203825000Y-265550000D03*
D10*
X203925000Y-261765000D03*
D12*
X201777500Y-264200000D03*
X203802500Y-264200000D03*
%TD*%
D10*
%TO.C,REF\u002A\u002A35*%
X106575000Y-213965000D03*
D11*
X106675000Y-217750000D03*
D12*
X108202500Y-215300000D03*
X106177500Y-215300000D03*
D11*
X108225000Y-217750000D03*
D10*
X108325000Y-213965000D03*
D12*
X106177500Y-216400000D03*
X108202500Y-216400000D03*
%TD*%
D10*
%TO.C,REF\u002A\u002A39*%
X297775000Y-213965000D03*
D11*
X297875000Y-217750000D03*
D12*
X299402500Y-215300000D03*
X297377500Y-215300000D03*
D11*
X299425000Y-217750000D03*
D10*
X299525000Y-213965000D03*
D12*
X297377500Y-216400000D03*
X299402500Y-216400000D03*
%TD*%
D10*
%TO.C,REF\u002A\u002A33*%
X249975000Y-166165000D03*
D11*
X250075000Y-169950000D03*
D12*
X251602500Y-167500000D03*
X249577500Y-167500000D03*
D11*
X251625000Y-169950000D03*
D10*
X251725000Y-166165000D03*
D12*
X249577500Y-168600000D03*
X251602500Y-168600000D03*
%TD*%
D13*
%TO.C,REF\u002A\u002A*%
X58500000Y-89255000D03*
X58500000Y-110745000D03*
D14*
X58300000Y-93600000D03*
X61700000Y-93600000D03*
X58300000Y-94400000D03*
X61700000Y-94400000D03*
X58300000Y-95200000D03*
X61700000Y-95200000D03*
X58300000Y-96000000D03*
X61700000Y-96000000D03*
X58300000Y-96800000D03*
X61700000Y-96800000D03*
X58300000Y-97600000D03*
X61700000Y-97600000D03*
X58300000Y-101600000D03*
X61700000Y-101600000D03*
X58300000Y-102400000D03*
X61700000Y-102400000D03*
X58300000Y-103200000D03*
X61700000Y-103200000D03*
X58300000Y-104000000D03*
X61700000Y-104000000D03*
X58300000Y-104800000D03*
X61700000Y-104800000D03*
X58300000Y-105600000D03*
X61700000Y-105600000D03*
X58300000Y-106400000D03*
X61700000Y-106400000D03*
D15*
X60000000Y-90505000D03*
X60000000Y-109495000D03*
%TD*%
D13*
%TO.C,REF\u002A\u002A*%
X58500000Y-169255000D03*
X58500000Y-190745000D03*
D14*
X58300000Y-173600000D03*
X61700000Y-173600000D03*
X58300000Y-174400000D03*
X61700000Y-174400000D03*
X58300000Y-175200000D03*
X61700000Y-175200000D03*
X58300000Y-176000000D03*
X61700000Y-176000000D03*
X58300000Y-176800000D03*
X61700000Y-176800000D03*
X58300000Y-177600000D03*
X61700000Y-177600000D03*
X58300000Y-181600000D03*
X61700000Y-181600000D03*
X58300000Y-182400000D03*
X61700000Y-182400000D03*
X58300000Y-183200000D03*
X61700000Y-183200000D03*
X58300000Y-184000000D03*
X61700000Y-184000000D03*
X58300000Y-184800000D03*
X61700000Y-184800000D03*
X58300000Y-185600000D03*
X61700000Y-185600000D03*
X58300000Y-186400000D03*
X61700000Y-186400000D03*
D15*
X60000000Y-170505000D03*
X60000000Y-189495000D03*
%TD*%
D16*
%TO.C,50 \u03A9*%
X61837500Y-306300000D03*
X64762500Y-306300000D03*
%TD*%
D17*
%TO.C,LEDs*%
X63000000Y-317400000D03*
D18*
X57975000Y-322425000D03*
X68025000Y-322425000D03*
X57975000Y-312375000D03*
X68025000Y-312375000D03*
%TD*%
M02*
