%TF.GenerationSoftware,KiCad,Pcbnew,8.0.2-1*%
%TF.CreationDate,2024-06-20T16:04:34-04:00*%
%TF.ProjectId,OddLayers_1.3mm_SiPM,4f64644c-6179-4657-9273-5f312e336d6d,rev?*%
%TF.SameCoordinates,Original*%
%TF.FileFunction,Drillmap*%
%TF.FilePolarity,Positive*%
%FSLAX45Y45*%
G04 Gerber Fmt 4.5, Leading zero omitted, Abs format (unit mm)*
G04 Created by KiCad (PCBNEW 8.0.2-1) date 2024-06-20 16:04:34*
%MOMM*%
%LPD*%
G01*
G04 APERTURE LIST*
%ADD10C,0.100000*%
%ADD11C,0.050000*%
%ADD12C,0.200000*%
%ADD13C,0.110000*%
%ADD14C,0.150000*%
G04 APERTURE END LIST*
D10*
X7160000Y-30000000D02*
G75*
G02*
X6840000Y-30000000I-160000J0D01*
G01*
X6840000Y-30000000D02*
G75*
G02*
X7160000Y-30000000I160000J0D01*
G01*
X7160000Y-6000000D02*
G75*
G02*
X6840000Y-6000000I-160000J0D01*
G01*
X6840000Y-6000000D02*
G75*
G02*
X7160000Y-6000000I160000J0D01*
G01*
D11*
X5500000Y-24000000D02*
X5500000Y-33000000D01*
X6700000Y-12000000D02*
X5500000Y-12000000D01*
X5500000Y-8000000D02*
X5500000Y-12000000D01*
X6700000Y-24000000D02*
X6700000Y-20000000D01*
X5500000Y-16000000D02*
X6500000Y-16000000D01*
X5500000Y-3000000D02*
X35000000Y-3000000D01*
X5500000Y-20000000D02*
X5500000Y-16000000D01*
X5500000Y-8000000D02*
X5500000Y-3000000D01*
X6700000Y-20000000D02*
X5500000Y-20000000D01*
D10*
X7160000Y-14000000D02*
G75*
G02*
X6840000Y-14000000I-160000J0D01*
G01*
X6840000Y-14000000D02*
G75*
G02*
X7160000Y-14000000I160000J0D01*
G01*
D11*
X35000000Y-3000000D02*
X35000000Y-33000000D01*
X6700000Y-16000000D02*
X6500000Y-16000000D01*
X6700000Y-16000000D02*
X6700000Y-12000000D01*
X35000000Y-33000000D02*
X5500000Y-33000000D01*
X5500000Y-24000000D02*
X6700000Y-24000000D01*
D12*
D10*
X5705000Y-17345000D02*
X5735000Y-17375000D01*
X5735000Y-17345000D02*
X5705000Y-17375000D01*
X5705000Y-17425000D02*
X5735000Y-17455000D01*
X5735000Y-17425000D02*
X5705000Y-17455000D01*
X5705000Y-17505000D02*
X5735000Y-17535000D01*
X5735000Y-17505000D02*
X5705000Y-17535000D01*
X5705000Y-17585000D02*
X5735000Y-17615000D01*
X5735000Y-17585000D02*
X5705000Y-17615000D01*
X5705000Y-17665000D02*
X5735000Y-17695000D01*
X5735000Y-17665000D02*
X5705000Y-17695000D01*
X5705000Y-17745000D02*
X5735000Y-17775000D01*
X5735000Y-17745000D02*
X5705000Y-17775000D01*
X5705000Y-18145000D02*
X5735000Y-18175000D01*
X5735000Y-18145000D02*
X5705000Y-18175000D01*
X5705000Y-18225000D02*
X5735000Y-18255000D01*
X5735000Y-18225000D02*
X5705000Y-18255000D01*
X5705000Y-18305000D02*
X5735000Y-18335000D01*
X5735000Y-18305000D02*
X5705000Y-18335000D01*
X5705000Y-18385000D02*
X5735000Y-18415000D01*
X5735000Y-18385000D02*
X5705000Y-18415000D01*
X5705000Y-18465000D02*
X5735000Y-18495000D01*
X5735000Y-18465000D02*
X5705000Y-18495000D01*
X5705000Y-18545000D02*
X5735000Y-18575000D01*
X5735000Y-18545000D02*
X5705000Y-18575000D01*
X5710000Y-9345000D02*
X5740000Y-9375000D01*
X5740000Y-9345000D02*
X5710000Y-9375000D01*
X5710000Y-9425000D02*
X5740000Y-9455000D01*
X5740000Y-9425000D02*
X5710000Y-9455000D01*
X5710000Y-9505000D02*
X5740000Y-9535000D01*
X5740000Y-9505000D02*
X5710000Y-9535000D01*
X5710000Y-9585000D02*
X5740000Y-9615000D01*
X5740000Y-9585000D02*
X5710000Y-9615000D01*
X5710000Y-9665000D02*
X5740000Y-9695000D01*
X5740000Y-9665000D02*
X5710000Y-9695000D01*
X5710000Y-9745000D02*
X5740000Y-9775000D01*
X5740000Y-9745000D02*
X5710000Y-9775000D01*
X5710000Y-10145000D02*
X5740000Y-10175000D01*
X5740000Y-10145000D02*
X5710000Y-10175000D01*
X5710000Y-10225000D02*
X5740000Y-10255000D01*
X5740000Y-10225000D02*
X5710000Y-10255000D01*
X5710000Y-10305000D02*
X5740000Y-10335000D01*
X5740000Y-10305000D02*
X5710000Y-10335000D01*
X5710000Y-10385000D02*
X5740000Y-10415000D01*
X5740000Y-10385000D02*
X5710000Y-10415000D01*
X5710000Y-10465000D02*
X5740000Y-10495000D01*
X5740000Y-10465000D02*
X5710000Y-10495000D01*
X5710000Y-10545000D02*
X5740000Y-10575000D01*
X5740000Y-10545000D02*
X5710000Y-10575000D01*
X5710000Y-10625000D02*
X5740000Y-10655000D01*
X5740000Y-10625000D02*
X5710000Y-10655000D01*
X6625000Y-18505000D02*
X6655000Y-18535000D01*
X6655000Y-18505000D02*
X6625000Y-18535000D01*
X6625000Y-19585000D02*
X6655000Y-19615000D01*
X6655000Y-19585000D02*
X6625000Y-19615000D01*
X6725000Y-10145000D02*
X6755000Y-10175000D01*
X6755000Y-10145000D02*
X6725000Y-10175000D01*
X6745000Y-10685000D02*
X6775000Y-10715000D01*
X6775000Y-10685000D02*
X6745000Y-10715000D01*
X6745000Y-11445000D02*
X6775000Y-11475000D01*
X6775000Y-11445000D02*
X6745000Y-11475000D01*
X6765000Y-9745000D02*
X6795000Y-9775000D01*
X6795000Y-9745000D02*
X6765000Y-9775000D01*
X6797426Y-9297427D02*
X6827426Y-9327427D01*
X6827426Y-9297427D02*
X6797426Y-9327427D01*
X6805000Y-10265000D02*
X6835000Y-10295000D01*
X6835000Y-10265000D02*
X6805000Y-10295000D01*
X6805000Y-10545000D02*
X6835000Y-10575000D01*
X6835000Y-10545000D02*
X6805000Y-10575000D01*
X6805000Y-10825000D02*
X6835000Y-10855000D01*
X6835000Y-10825000D02*
X6805000Y-10855000D01*
X6825000Y-17505000D02*
X6855000Y-17535000D01*
X6855000Y-17505000D02*
X6825000Y-17535000D01*
X6855000Y-9645000D02*
X6885000Y-9675000D01*
X6885000Y-9645000D02*
X6855000Y-9675000D01*
X6905000Y-8785000D02*
X6935000Y-8815000D01*
X6935000Y-8785000D02*
X6905000Y-8815000D01*
X6925000Y-19185000D02*
X6955000Y-19215000D01*
X6955000Y-19185000D02*
X6925000Y-19215000D01*
X6935000Y-10445000D02*
X6965000Y-10475000D01*
X6965000Y-10445000D02*
X6935000Y-10475000D01*
X6945000Y-9345000D02*
X6975000Y-9375000D01*
X6975000Y-9345000D02*
X6945000Y-9375000D01*
X7045000Y-19285000D02*
X7075000Y-19315000D01*
X7075000Y-19285000D02*
X7045000Y-19315000D01*
X7135000Y-18105000D02*
X7165000Y-18135000D01*
X7165000Y-18105000D02*
X7135000Y-18135000D01*
X7175000Y-17055000D02*
X7205000Y-17085000D01*
X7205000Y-17055000D02*
X7175000Y-17085000D01*
X7195000Y-17365000D02*
X7225000Y-17395000D01*
X7225000Y-17365000D02*
X7195000Y-17395000D01*
X7257390Y-20067427D02*
X7287390Y-20097427D01*
X7287390Y-20067427D02*
X7257390Y-20097427D01*
X7275000Y-9325000D02*
X7305000Y-9355000D01*
X7305000Y-9325000D02*
X7275000Y-9355000D01*
X7345000Y-19075000D02*
X7375000Y-19105000D01*
X7375000Y-19075000D02*
X7345000Y-19105000D01*
X7415000Y-18845000D02*
X7445000Y-18875000D01*
X7445000Y-18845000D02*
X7415000Y-18875000D01*
X7455000Y-20000000D02*
X7485000Y-20030000D01*
X7485000Y-20000000D02*
X7455000Y-20030000D01*
X7270000Y-31090000D02*
G75*
G02*
X7230000Y-31090000I-20000J0D01*
G01*
X7230000Y-31090000D02*
G75*
G02*
X7270000Y-31090000I20000J0D01*
G01*
X7280000Y-32200000D02*
G75*
G02*
X7240000Y-32200000I-20000J0D01*
G01*
X7240000Y-32200000D02*
G75*
G02*
X7280000Y-32200000I20000J0D01*
G01*
X10460000Y-7145000D02*
X10460000Y-7185000D01*
X10440000Y-7165000D02*
X10480000Y-7165000D01*
X10460000Y-7295000D02*
X10460000Y-7335000D01*
X10440000Y-7315000D02*
X10480000Y-7315000D01*
X10460000Y-11925000D02*
X10460000Y-11965000D01*
X10440000Y-11945000D02*
X10480000Y-11945000D01*
X10460000Y-12075000D02*
X10460000Y-12115000D01*
X10440000Y-12095000D02*
X10480000Y-12095000D01*
X10460000Y-16705000D02*
X10460000Y-16745000D01*
X10440000Y-16725000D02*
X10480000Y-16725000D01*
X10460000Y-16855000D02*
X10460000Y-16895000D01*
X10440000Y-16875000D02*
X10480000Y-16875000D01*
X10460000Y-21485000D02*
X10460000Y-21525000D01*
X10440000Y-21505000D02*
X10480000Y-21505000D01*
X10460000Y-21635000D02*
X10460000Y-21675000D01*
X10440000Y-21655000D02*
X10480000Y-21655000D01*
X10460000Y-26265000D02*
X10460000Y-26305000D01*
X10440000Y-26285000D02*
X10480000Y-26285000D01*
X10460000Y-26415000D02*
X10460000Y-26455000D01*
X10440000Y-26435000D02*
X10480000Y-26435000D01*
X10515000Y-7415000D02*
X10515000Y-7455000D01*
X10495000Y-7435000D02*
X10535000Y-7435000D01*
X10515000Y-12195000D02*
X10515000Y-12235000D01*
X10495000Y-12215000D02*
X10535000Y-12215000D01*
X10515000Y-16975000D02*
X10515000Y-17015000D01*
X10495000Y-16995000D02*
X10535000Y-16995000D01*
X10515000Y-21755000D02*
X10515000Y-21795000D01*
X10495000Y-21775000D02*
X10535000Y-21775000D01*
X10515000Y-26535000D02*
X10515000Y-26575000D01*
X10495000Y-26555000D02*
X10535000Y-26555000D01*
X10535000Y-7035000D02*
X10535000Y-7075000D01*
X10515000Y-7055000D02*
X10555000Y-7055000D01*
X10535000Y-11815000D02*
X10535000Y-11855000D01*
X10515000Y-11835000D02*
X10555000Y-11835000D01*
X10535000Y-16595000D02*
X10535000Y-16635000D01*
X10515000Y-16615000D02*
X10555000Y-16615000D01*
X10535000Y-21375000D02*
X10535000Y-21415000D01*
X10515000Y-21395000D02*
X10555000Y-21395000D01*
X10535000Y-26155000D02*
X10535000Y-26195000D01*
X10515000Y-26175000D02*
X10555000Y-26175000D01*
X10945000Y-7035000D02*
X10945000Y-7075000D01*
X10925000Y-7055000D02*
X10965000Y-7055000D01*
X10945000Y-11815000D02*
X10945000Y-11855000D01*
X10925000Y-11835000D02*
X10965000Y-11835000D01*
X10945000Y-16595000D02*
X10945000Y-16635000D01*
X10925000Y-16615000D02*
X10965000Y-16615000D01*
X10945000Y-21375000D02*
X10945000Y-21415000D01*
X10925000Y-21395000D02*
X10965000Y-21395000D01*
X10945000Y-26155000D02*
X10945000Y-26195000D01*
X10925000Y-26175000D02*
X10965000Y-26175000D01*
X15240000Y-7145000D02*
X15240000Y-7185000D01*
X15220000Y-7165000D02*
X15260000Y-7165000D01*
X15240000Y-7295000D02*
X15240000Y-7335000D01*
X15220000Y-7315000D02*
X15260000Y-7315000D01*
X15240000Y-11925000D02*
X15240000Y-11965000D01*
X15220000Y-11945000D02*
X15260000Y-11945000D01*
X15240000Y-12075000D02*
X15240000Y-12115000D01*
X15220000Y-12095000D02*
X15260000Y-12095000D01*
X15240000Y-16705000D02*
X15240000Y-16745000D01*
X15220000Y-16725000D02*
X15260000Y-16725000D01*
X15240000Y-16855000D02*
X15240000Y-16895000D01*
X15220000Y-16875000D02*
X15260000Y-16875000D01*
X15240000Y-21485000D02*
X15240000Y-21525000D01*
X15220000Y-21505000D02*
X15260000Y-21505000D01*
X15240000Y-21635000D02*
X15240000Y-21675000D01*
X15220000Y-21655000D02*
X15260000Y-21655000D01*
X15240000Y-26265000D02*
X15240000Y-26305000D01*
X15220000Y-26285000D02*
X15260000Y-26285000D01*
X15240000Y-26415000D02*
X15240000Y-26455000D01*
X15220000Y-26435000D02*
X15260000Y-26435000D01*
X15295000Y-7415000D02*
X15295000Y-7455000D01*
X15275000Y-7435000D02*
X15315000Y-7435000D01*
X15295000Y-12195000D02*
X15295000Y-12235000D01*
X15275000Y-12215000D02*
X15315000Y-12215000D01*
X15295000Y-16975000D02*
X15295000Y-17015000D01*
X15275000Y-16995000D02*
X15315000Y-16995000D01*
X15295000Y-21755000D02*
X15295000Y-21795000D01*
X15275000Y-21775000D02*
X15315000Y-21775000D01*
X15295000Y-26535000D02*
X15295000Y-26575000D01*
X15275000Y-26555000D02*
X15315000Y-26555000D01*
X15315000Y-7035000D02*
X15315000Y-7075000D01*
X15295000Y-7055000D02*
X15335000Y-7055000D01*
X15315000Y-11815000D02*
X15315000Y-11855000D01*
X15295000Y-11835000D02*
X15335000Y-11835000D01*
X15315000Y-16595000D02*
X15315000Y-16635000D01*
X15295000Y-16615000D02*
X15335000Y-16615000D01*
X15315000Y-21375000D02*
X15315000Y-21415000D01*
X15295000Y-21395000D02*
X15335000Y-21395000D01*
X15315000Y-26155000D02*
X15315000Y-26195000D01*
X15295000Y-26175000D02*
X15335000Y-26175000D01*
X15725000Y-7035000D02*
X15725000Y-7075000D01*
X15705000Y-7055000D02*
X15745000Y-7055000D01*
X15725000Y-11815000D02*
X15725000Y-11855000D01*
X15705000Y-11835000D02*
X15745000Y-11835000D01*
X15725000Y-16595000D02*
X15725000Y-16635000D01*
X15705000Y-16615000D02*
X15745000Y-16615000D01*
X15725000Y-21375000D02*
X15725000Y-21415000D01*
X15705000Y-21395000D02*
X15745000Y-21395000D01*
X15725000Y-26155000D02*
X15725000Y-26195000D01*
X15705000Y-26175000D02*
X15745000Y-26175000D01*
X20020000Y-7145000D02*
X20020000Y-7185000D01*
X20000000Y-7165000D02*
X20040000Y-7165000D01*
X20020000Y-7295000D02*
X20020000Y-7335000D01*
X20000000Y-7315000D02*
X20040000Y-7315000D01*
X20020000Y-11925000D02*
X20020000Y-11965000D01*
X20000000Y-11945000D02*
X20040000Y-11945000D01*
X20020000Y-12075000D02*
X20020000Y-12115000D01*
X20000000Y-12095000D02*
X20040000Y-12095000D01*
X20020000Y-16705000D02*
X20020000Y-16745000D01*
X20000000Y-16725000D02*
X20040000Y-16725000D01*
X20020000Y-16855000D02*
X20020000Y-16895000D01*
X20000000Y-16875000D02*
X20040000Y-16875000D01*
X20020000Y-21485000D02*
X20020000Y-21525000D01*
X20000000Y-21505000D02*
X20040000Y-21505000D01*
X20020000Y-21635000D02*
X20020000Y-21675000D01*
X20000000Y-21655000D02*
X20040000Y-21655000D01*
X20020000Y-26265000D02*
X20020000Y-26305000D01*
X20000000Y-26285000D02*
X20040000Y-26285000D01*
X20020000Y-26415000D02*
X20020000Y-26455000D01*
X20000000Y-26435000D02*
X20040000Y-26435000D01*
X20075000Y-7415000D02*
X20075000Y-7455000D01*
X20055000Y-7435000D02*
X20095000Y-7435000D01*
X20075000Y-12195000D02*
X20075000Y-12235000D01*
X20055000Y-12215000D02*
X20095000Y-12215000D01*
X20075000Y-16975000D02*
X20075000Y-17015000D01*
X20055000Y-16995000D02*
X20095000Y-16995000D01*
X20075000Y-21755000D02*
X20075000Y-21795000D01*
X20055000Y-21775000D02*
X20095000Y-21775000D01*
X20075000Y-26535000D02*
X20075000Y-26575000D01*
X20055000Y-26555000D02*
X20095000Y-26555000D01*
X20095000Y-7035000D02*
X20095000Y-7075000D01*
X20075000Y-7055000D02*
X20115000Y-7055000D01*
X20095000Y-11815000D02*
X20095000Y-11855000D01*
X20075000Y-11835000D02*
X20115000Y-11835000D01*
X20095000Y-16595000D02*
X20095000Y-16635000D01*
X20075000Y-16615000D02*
X20115000Y-16615000D01*
X20095000Y-21375000D02*
X20095000Y-21415000D01*
X20075000Y-21395000D02*
X20115000Y-21395000D01*
X20095000Y-26155000D02*
X20095000Y-26195000D01*
X20075000Y-26175000D02*
X20115000Y-26175000D01*
X20505000Y-7035000D02*
X20505000Y-7075000D01*
X20485000Y-7055000D02*
X20525000Y-7055000D01*
X20505000Y-11815000D02*
X20505000Y-11855000D01*
X20485000Y-11835000D02*
X20525000Y-11835000D01*
X20505000Y-16595000D02*
X20505000Y-16635000D01*
X20485000Y-16615000D02*
X20525000Y-16615000D01*
X20505000Y-21375000D02*
X20505000Y-21415000D01*
X20485000Y-21395000D02*
X20525000Y-21395000D01*
X20505000Y-26155000D02*
X20505000Y-26195000D01*
X20485000Y-26175000D02*
X20525000Y-26175000D01*
X24800000Y-7145000D02*
X24800000Y-7185000D01*
X24780000Y-7165000D02*
X24820000Y-7165000D01*
X24800000Y-7295000D02*
X24800000Y-7335000D01*
X24780000Y-7315000D02*
X24820000Y-7315000D01*
X24800000Y-11925000D02*
X24800000Y-11965000D01*
X24780000Y-11945000D02*
X24820000Y-11945000D01*
X24800000Y-12075000D02*
X24800000Y-12115000D01*
X24780000Y-12095000D02*
X24820000Y-12095000D01*
X24800000Y-16705000D02*
X24800000Y-16745000D01*
X24780000Y-16725000D02*
X24820000Y-16725000D01*
X24800000Y-16855000D02*
X24800000Y-16895000D01*
X24780000Y-16875000D02*
X24820000Y-16875000D01*
X24800000Y-21485000D02*
X24800000Y-21525000D01*
X24780000Y-21505000D02*
X24820000Y-21505000D01*
X24800000Y-21635000D02*
X24800000Y-21675000D01*
X24780000Y-21655000D02*
X24820000Y-21655000D01*
X24800000Y-26265000D02*
X24800000Y-26305000D01*
X24780000Y-26285000D02*
X24820000Y-26285000D01*
X24800000Y-26415000D02*
X24800000Y-26455000D01*
X24780000Y-26435000D02*
X24820000Y-26435000D01*
X24855000Y-7415000D02*
X24855000Y-7455000D01*
X24835000Y-7435000D02*
X24875000Y-7435000D01*
X24855000Y-12195000D02*
X24855000Y-12235000D01*
X24835000Y-12215000D02*
X24875000Y-12215000D01*
X24855000Y-16975000D02*
X24855000Y-17015000D01*
X24835000Y-16995000D02*
X24875000Y-16995000D01*
X24855000Y-21755000D02*
X24855000Y-21795000D01*
X24835000Y-21775000D02*
X24875000Y-21775000D01*
X24855000Y-26535000D02*
X24855000Y-26575000D01*
X24835000Y-26555000D02*
X24875000Y-26555000D01*
X24875000Y-7035000D02*
X24875000Y-7075000D01*
X24855000Y-7055000D02*
X24895000Y-7055000D01*
X24875000Y-11815000D02*
X24875000Y-11855000D01*
X24855000Y-11835000D02*
X24895000Y-11835000D01*
X24875000Y-16595000D02*
X24875000Y-16635000D01*
X24855000Y-16615000D02*
X24895000Y-16615000D01*
X24875000Y-21375000D02*
X24875000Y-21415000D01*
X24855000Y-21395000D02*
X24895000Y-21395000D01*
X24875000Y-26155000D02*
X24875000Y-26195000D01*
X24855000Y-26175000D02*
X24895000Y-26175000D01*
X25285000Y-7035000D02*
X25285000Y-7075000D01*
X25265000Y-7055000D02*
X25305000Y-7055000D01*
X25285000Y-11815000D02*
X25285000Y-11855000D01*
X25265000Y-11835000D02*
X25305000Y-11835000D01*
X25285000Y-16595000D02*
X25285000Y-16635000D01*
X25265000Y-16615000D02*
X25305000Y-16615000D01*
X25285000Y-21375000D02*
X25285000Y-21415000D01*
X25265000Y-21395000D02*
X25305000Y-21395000D01*
X25285000Y-26155000D02*
X25285000Y-26195000D01*
X25265000Y-26175000D02*
X25305000Y-26175000D01*
X29580000Y-7145000D02*
X29580000Y-7185000D01*
X29560000Y-7165000D02*
X29600000Y-7165000D01*
X29580000Y-7295000D02*
X29580000Y-7335000D01*
X29560000Y-7315000D02*
X29600000Y-7315000D01*
X29580000Y-11925000D02*
X29580000Y-11965000D01*
X29560000Y-11945000D02*
X29600000Y-11945000D01*
X29580000Y-12075000D02*
X29580000Y-12115000D01*
X29560000Y-12095000D02*
X29600000Y-12095000D01*
X29580000Y-16705000D02*
X29580000Y-16745000D01*
X29560000Y-16725000D02*
X29600000Y-16725000D01*
X29580000Y-16855000D02*
X29580000Y-16895000D01*
X29560000Y-16875000D02*
X29600000Y-16875000D01*
X29580000Y-21485000D02*
X29580000Y-21525000D01*
X29560000Y-21505000D02*
X29600000Y-21505000D01*
X29580000Y-21635000D02*
X29580000Y-21675000D01*
X29560000Y-21655000D02*
X29600000Y-21655000D01*
X29580000Y-26265000D02*
X29580000Y-26305000D01*
X29560000Y-26285000D02*
X29600000Y-26285000D01*
X29580000Y-26415000D02*
X29580000Y-26455000D01*
X29560000Y-26435000D02*
X29600000Y-26435000D01*
X29635000Y-7415000D02*
X29635000Y-7455000D01*
X29615000Y-7435000D02*
X29655000Y-7435000D01*
X29635000Y-12195000D02*
X29635000Y-12235000D01*
X29615000Y-12215000D02*
X29655000Y-12215000D01*
X29635000Y-16975000D02*
X29635000Y-17015000D01*
X29615000Y-16995000D02*
X29655000Y-16995000D01*
X29635000Y-21755000D02*
X29635000Y-21795000D01*
X29615000Y-21775000D02*
X29655000Y-21775000D01*
X29635000Y-26535000D02*
X29635000Y-26575000D01*
X29615000Y-26555000D02*
X29655000Y-26555000D01*
X29655000Y-7035000D02*
X29655000Y-7075000D01*
X29635000Y-7055000D02*
X29675000Y-7055000D01*
X29655000Y-11815000D02*
X29655000Y-11855000D01*
X29635000Y-11835000D02*
X29675000Y-11835000D01*
X29655000Y-16595000D02*
X29655000Y-16635000D01*
X29635000Y-16615000D02*
X29675000Y-16615000D01*
X29655000Y-21375000D02*
X29655000Y-21415000D01*
X29635000Y-21395000D02*
X29675000Y-21395000D01*
X29655000Y-26155000D02*
X29655000Y-26195000D01*
X29635000Y-26175000D02*
X29675000Y-26175000D01*
X30065000Y-7035000D02*
X30065000Y-7075000D01*
X30045000Y-7055000D02*
X30085000Y-7055000D01*
X30065000Y-11815000D02*
X30065000Y-11855000D01*
X30045000Y-11835000D02*
X30085000Y-11835000D01*
X30065000Y-16595000D02*
X30065000Y-16635000D01*
X30045000Y-16615000D02*
X30085000Y-16615000D01*
X30065000Y-21375000D02*
X30065000Y-21415000D01*
X30045000Y-21395000D02*
X30085000Y-21395000D01*
X30065000Y-26155000D02*
X30065000Y-26195000D01*
X30045000Y-26175000D02*
X30085000Y-26175000D01*
X6029699Y-9080199D02*
X6029699Y-9020801D01*
X5970301Y-9020801D01*
X5970301Y-9080199D01*
X6029699Y-9080199D01*
X6029699Y-10979199D02*
X6029699Y-10919801D01*
X5970301Y-10919801D01*
X5970301Y-10979199D01*
X6029699Y-10979199D01*
X6029699Y-17080199D02*
X6029699Y-17020801D01*
X5970301Y-17020801D01*
X5970301Y-17080199D01*
X6029699Y-17080199D01*
X6029699Y-18979199D02*
X6029699Y-18919801D01*
X5970301Y-18919801D01*
X5970301Y-18979199D01*
X6029699Y-18979199D01*
D13*
X6300000Y-31795000D02*
X6355000Y-31740000D01*
X6300000Y-31685000D01*
X6245000Y-31740000D01*
X6300000Y-31795000D01*
D14*
X5722500Y-31162500D02*
X5872500Y-31312500D01*
X5872500Y-31162500D02*
X5722500Y-31312500D01*
X5872500Y-31237500D02*
G75*
G02*
X5722500Y-31237500I-75000J0D01*
G01*
X5722500Y-31237500D02*
G75*
G02*
X5872500Y-31237500I75000J0D01*
G01*
X5722500Y-32167500D02*
X5872500Y-32317500D01*
X5872500Y-32167500D02*
X5722500Y-32317500D01*
X5872500Y-32242500D02*
G75*
G02*
X5722500Y-32242500I-75000J0D01*
G01*
X5722500Y-32242500D02*
G75*
G02*
X5872500Y-32242500I75000J0D01*
G01*
X6727500Y-31162500D02*
X6877500Y-31312500D01*
X6877500Y-31162500D02*
X6727500Y-31312500D01*
X6877500Y-31237500D02*
G75*
G02*
X6727500Y-31237500I-75000J0D01*
G01*
X6727500Y-31237500D02*
G75*
G02*
X6877500Y-31237500I75000J0D01*
G01*
X6727500Y-32167500D02*
X6877500Y-32317500D01*
X6877500Y-32167500D02*
X6727500Y-32317500D01*
X6877500Y-32242500D02*
G75*
G02*
X6727500Y-32242500I-75000J0D01*
G01*
X6727500Y-32242500D02*
G75*
G02*
X6877500Y-32242500I75000J0D01*
G01*
D12*
X5758277Y-33313984D02*
X5758277Y-33113984D01*
X5758277Y-33113984D02*
X5805896Y-33113984D01*
X5805896Y-33113984D02*
X5834467Y-33123508D01*
X5834467Y-33123508D02*
X5853515Y-33142555D01*
X5853515Y-33142555D02*
X5863039Y-33161603D01*
X5863039Y-33161603D02*
X5872562Y-33199698D01*
X5872562Y-33199698D02*
X5872562Y-33228269D01*
X5872562Y-33228269D02*
X5863039Y-33266365D01*
X5863039Y-33266365D02*
X5853515Y-33285412D01*
X5853515Y-33285412D02*
X5834467Y-33304460D01*
X5834467Y-33304460D02*
X5805896Y-33313984D01*
X5805896Y-33313984D02*
X5758277Y-33313984D01*
X5958277Y-33313984D02*
X5958277Y-33180650D01*
X5958277Y-33218746D02*
X5967801Y-33199698D01*
X5967801Y-33199698D02*
X5977324Y-33190174D01*
X5977324Y-33190174D02*
X5996372Y-33180650D01*
X5996372Y-33180650D02*
X6015420Y-33180650D01*
X6082086Y-33313984D02*
X6082086Y-33180650D01*
X6082086Y-33113984D02*
X6072562Y-33123508D01*
X6072562Y-33123508D02*
X6082086Y-33133031D01*
X6082086Y-33133031D02*
X6091610Y-33123508D01*
X6091610Y-33123508D02*
X6082086Y-33113984D01*
X6082086Y-33113984D02*
X6082086Y-33133031D01*
X6205896Y-33313984D02*
X6186848Y-33304460D01*
X6186848Y-33304460D02*
X6177324Y-33285412D01*
X6177324Y-33285412D02*
X6177324Y-33113984D01*
X6310658Y-33313984D02*
X6291610Y-33304460D01*
X6291610Y-33304460D02*
X6282086Y-33285412D01*
X6282086Y-33285412D02*
X6282086Y-33113984D01*
X6539229Y-33313984D02*
X6539229Y-33113984D01*
X6539229Y-33113984D02*
X6605896Y-33256841D01*
X6605896Y-33256841D02*
X6672562Y-33113984D01*
X6672562Y-33113984D02*
X6672562Y-33313984D01*
X6853515Y-33313984D02*
X6853515Y-33209222D01*
X6853515Y-33209222D02*
X6843991Y-33190174D01*
X6843991Y-33190174D02*
X6824943Y-33180650D01*
X6824943Y-33180650D02*
X6786848Y-33180650D01*
X6786848Y-33180650D02*
X6767801Y-33190174D01*
X6853515Y-33304460D02*
X6834467Y-33313984D01*
X6834467Y-33313984D02*
X6786848Y-33313984D01*
X6786848Y-33313984D02*
X6767801Y-33304460D01*
X6767801Y-33304460D02*
X6758277Y-33285412D01*
X6758277Y-33285412D02*
X6758277Y-33266365D01*
X6758277Y-33266365D02*
X6767801Y-33247317D01*
X6767801Y-33247317D02*
X6786848Y-33237793D01*
X6786848Y-33237793D02*
X6834467Y-33237793D01*
X6834467Y-33237793D02*
X6853515Y-33228269D01*
X6948753Y-33180650D02*
X6948753Y-33380650D01*
X6948753Y-33190174D02*
X6967801Y-33180650D01*
X6967801Y-33180650D02*
X7005896Y-33180650D01*
X7005896Y-33180650D02*
X7024943Y-33190174D01*
X7024943Y-33190174D02*
X7034467Y-33199698D01*
X7034467Y-33199698D02*
X7043991Y-33218746D01*
X7043991Y-33218746D02*
X7043991Y-33275888D01*
X7043991Y-33275888D02*
X7034467Y-33294936D01*
X7034467Y-33294936D02*
X7024943Y-33304460D01*
X7024943Y-33304460D02*
X7005896Y-33313984D01*
X7005896Y-33313984D02*
X6967801Y-33313984D01*
X6967801Y-33313984D02*
X6948753Y-33304460D01*
X7129705Y-33294936D02*
X7139229Y-33304460D01*
X7139229Y-33304460D02*
X7129705Y-33313984D01*
X7129705Y-33313984D02*
X7120182Y-33304460D01*
X7120182Y-33304460D02*
X7129705Y-33294936D01*
X7129705Y-33294936D02*
X7129705Y-33313984D01*
X7129705Y-33190174D02*
X7139229Y-33199698D01*
X7139229Y-33199698D02*
X7129705Y-33209222D01*
X7129705Y-33209222D02*
X7120182Y-33199698D01*
X7120182Y-33199698D02*
X7129705Y-33190174D01*
X7129705Y-33190174D02*
X7129705Y-33209222D01*
D10*
X5467500Y-33627500D02*
X5497500Y-33657500D01*
X5497500Y-33627500D02*
X5467500Y-33657500D01*
D12*
X5796372Y-33533984D02*
X5815420Y-33533984D01*
X5815420Y-33533984D02*
X5834467Y-33543508D01*
X5834467Y-33543508D02*
X5843991Y-33553031D01*
X5843991Y-33553031D02*
X5853515Y-33572079D01*
X5853515Y-33572079D02*
X5863039Y-33610174D01*
X5863039Y-33610174D02*
X5863039Y-33657793D01*
X5863039Y-33657793D02*
X5853515Y-33695889D01*
X5853515Y-33695889D02*
X5843991Y-33714936D01*
X5843991Y-33714936D02*
X5834467Y-33724460D01*
X5834467Y-33724460D02*
X5815420Y-33733984D01*
X5815420Y-33733984D02*
X5796372Y-33733984D01*
X5796372Y-33733984D02*
X5777324Y-33724460D01*
X5777324Y-33724460D02*
X5767801Y-33714936D01*
X5767801Y-33714936D02*
X5758277Y-33695889D01*
X5758277Y-33695889D02*
X5748753Y-33657793D01*
X5748753Y-33657793D02*
X5748753Y-33610174D01*
X5748753Y-33610174D02*
X5758277Y-33572079D01*
X5758277Y-33572079D02*
X5767801Y-33553031D01*
X5767801Y-33553031D02*
X5777324Y-33543508D01*
X5777324Y-33543508D02*
X5796372Y-33533984D01*
X5948753Y-33714936D02*
X5958277Y-33724460D01*
X5958277Y-33724460D02*
X5948753Y-33733984D01*
X5948753Y-33733984D02*
X5939229Y-33724460D01*
X5939229Y-33724460D02*
X5948753Y-33714936D01*
X5948753Y-33714936D02*
X5948753Y-33733984D01*
X6024943Y-33533984D02*
X6148753Y-33533984D01*
X6148753Y-33533984D02*
X6082086Y-33610174D01*
X6082086Y-33610174D02*
X6110658Y-33610174D01*
X6110658Y-33610174D02*
X6129705Y-33619698D01*
X6129705Y-33619698D02*
X6139229Y-33629222D01*
X6139229Y-33629222D02*
X6148753Y-33648270D01*
X6148753Y-33648270D02*
X6148753Y-33695889D01*
X6148753Y-33695889D02*
X6139229Y-33714936D01*
X6139229Y-33714936D02*
X6129705Y-33724460D01*
X6129705Y-33724460D02*
X6110658Y-33733984D01*
X6110658Y-33733984D02*
X6053515Y-33733984D01*
X6053515Y-33733984D02*
X6034467Y-33724460D01*
X6034467Y-33724460D02*
X6024943Y-33714936D01*
X6272562Y-33533984D02*
X6291610Y-33533984D01*
X6291610Y-33533984D02*
X6310658Y-33543508D01*
X6310658Y-33543508D02*
X6320182Y-33553031D01*
X6320182Y-33553031D02*
X6329705Y-33572079D01*
X6329705Y-33572079D02*
X6339229Y-33610174D01*
X6339229Y-33610174D02*
X6339229Y-33657793D01*
X6339229Y-33657793D02*
X6329705Y-33695889D01*
X6329705Y-33695889D02*
X6320182Y-33714936D01*
X6320182Y-33714936D02*
X6310658Y-33724460D01*
X6310658Y-33724460D02*
X6291610Y-33733984D01*
X6291610Y-33733984D02*
X6272562Y-33733984D01*
X6272562Y-33733984D02*
X6253515Y-33724460D01*
X6253515Y-33724460D02*
X6243991Y-33714936D01*
X6243991Y-33714936D02*
X6234467Y-33695889D01*
X6234467Y-33695889D02*
X6224943Y-33657793D01*
X6224943Y-33657793D02*
X6224943Y-33610174D01*
X6224943Y-33610174D02*
X6234467Y-33572079D01*
X6234467Y-33572079D02*
X6243991Y-33553031D01*
X6243991Y-33553031D02*
X6253515Y-33543508D01*
X6253515Y-33543508D02*
X6272562Y-33533984D01*
X6463039Y-33533984D02*
X6482086Y-33533984D01*
X6482086Y-33533984D02*
X6501134Y-33543508D01*
X6501134Y-33543508D02*
X6510658Y-33553031D01*
X6510658Y-33553031D02*
X6520182Y-33572079D01*
X6520182Y-33572079D02*
X6529705Y-33610174D01*
X6529705Y-33610174D02*
X6529705Y-33657793D01*
X6529705Y-33657793D02*
X6520182Y-33695889D01*
X6520182Y-33695889D02*
X6510658Y-33714936D01*
X6510658Y-33714936D02*
X6501134Y-33724460D01*
X6501134Y-33724460D02*
X6482086Y-33733984D01*
X6482086Y-33733984D02*
X6463039Y-33733984D01*
X6463039Y-33733984D02*
X6443991Y-33724460D01*
X6443991Y-33724460D02*
X6434467Y-33714936D01*
X6434467Y-33714936D02*
X6424943Y-33695889D01*
X6424943Y-33695889D02*
X6415420Y-33657793D01*
X6415420Y-33657793D02*
X6415420Y-33610174D01*
X6415420Y-33610174D02*
X6424943Y-33572079D01*
X6424943Y-33572079D02*
X6434467Y-33553031D01*
X6434467Y-33553031D02*
X6443991Y-33543508D01*
X6443991Y-33543508D02*
X6463039Y-33533984D01*
X6615420Y-33733984D02*
X6615420Y-33600650D01*
X6615420Y-33619698D02*
X6624943Y-33610174D01*
X6624943Y-33610174D02*
X6643991Y-33600650D01*
X6643991Y-33600650D02*
X6672563Y-33600650D01*
X6672563Y-33600650D02*
X6691610Y-33610174D01*
X6691610Y-33610174D02*
X6701134Y-33629222D01*
X6701134Y-33629222D02*
X6701134Y-33733984D01*
X6701134Y-33629222D02*
X6710658Y-33610174D01*
X6710658Y-33610174D02*
X6729705Y-33600650D01*
X6729705Y-33600650D02*
X6758277Y-33600650D01*
X6758277Y-33600650D02*
X6777324Y-33610174D01*
X6777324Y-33610174D02*
X6786848Y-33629222D01*
X6786848Y-33629222D02*
X6786848Y-33733984D01*
X6882086Y-33733984D02*
X6882086Y-33600650D01*
X6882086Y-33619698D02*
X6891610Y-33610174D01*
X6891610Y-33610174D02*
X6910658Y-33600650D01*
X6910658Y-33600650D02*
X6939229Y-33600650D01*
X6939229Y-33600650D02*
X6958277Y-33610174D01*
X6958277Y-33610174D02*
X6967801Y-33629222D01*
X6967801Y-33629222D02*
X6967801Y-33733984D01*
X6967801Y-33629222D02*
X6977324Y-33610174D01*
X6977324Y-33610174D02*
X6996372Y-33600650D01*
X6996372Y-33600650D02*
X7024943Y-33600650D01*
X7024943Y-33600650D02*
X7043991Y-33610174D01*
X7043991Y-33610174D02*
X7053515Y-33629222D01*
X7053515Y-33629222D02*
X7053515Y-33733984D01*
X7443991Y-33524460D02*
X7272563Y-33781603D01*
X7701134Y-33533984D02*
X7720182Y-33533984D01*
X7720182Y-33533984D02*
X7739229Y-33543508D01*
X7739229Y-33543508D02*
X7748753Y-33553031D01*
X7748753Y-33553031D02*
X7758277Y-33572079D01*
X7758277Y-33572079D02*
X7767801Y-33610174D01*
X7767801Y-33610174D02*
X7767801Y-33657793D01*
X7767801Y-33657793D02*
X7758277Y-33695889D01*
X7758277Y-33695889D02*
X7748753Y-33714936D01*
X7748753Y-33714936D02*
X7739229Y-33724460D01*
X7739229Y-33724460D02*
X7720182Y-33733984D01*
X7720182Y-33733984D02*
X7701134Y-33733984D01*
X7701134Y-33733984D02*
X7682086Y-33724460D01*
X7682086Y-33724460D02*
X7672563Y-33714936D01*
X7672563Y-33714936D02*
X7663039Y-33695889D01*
X7663039Y-33695889D02*
X7653515Y-33657793D01*
X7653515Y-33657793D02*
X7653515Y-33610174D01*
X7653515Y-33610174D02*
X7663039Y-33572079D01*
X7663039Y-33572079D02*
X7672563Y-33553031D01*
X7672563Y-33553031D02*
X7682086Y-33543508D01*
X7682086Y-33543508D02*
X7701134Y-33533984D01*
X7853515Y-33714936D02*
X7863039Y-33724460D01*
X7863039Y-33724460D02*
X7853515Y-33733984D01*
X7853515Y-33733984D02*
X7843991Y-33724460D01*
X7843991Y-33724460D02*
X7853515Y-33714936D01*
X7853515Y-33714936D02*
X7853515Y-33733984D01*
X7986848Y-33533984D02*
X8005896Y-33533984D01*
X8005896Y-33533984D02*
X8024944Y-33543508D01*
X8024944Y-33543508D02*
X8034467Y-33553031D01*
X8034467Y-33553031D02*
X8043991Y-33572079D01*
X8043991Y-33572079D02*
X8053515Y-33610174D01*
X8053515Y-33610174D02*
X8053515Y-33657793D01*
X8053515Y-33657793D02*
X8043991Y-33695889D01*
X8043991Y-33695889D02*
X8034467Y-33714936D01*
X8034467Y-33714936D02*
X8024944Y-33724460D01*
X8024944Y-33724460D02*
X8005896Y-33733984D01*
X8005896Y-33733984D02*
X7986848Y-33733984D01*
X7986848Y-33733984D02*
X7967801Y-33724460D01*
X7967801Y-33724460D02*
X7958277Y-33714936D01*
X7958277Y-33714936D02*
X7948753Y-33695889D01*
X7948753Y-33695889D02*
X7939229Y-33657793D01*
X7939229Y-33657793D02*
X7939229Y-33610174D01*
X7939229Y-33610174D02*
X7948753Y-33572079D01*
X7948753Y-33572079D02*
X7958277Y-33553031D01*
X7958277Y-33553031D02*
X7967801Y-33543508D01*
X7967801Y-33543508D02*
X7986848Y-33533984D01*
X8243991Y-33733984D02*
X8129706Y-33733984D01*
X8186848Y-33733984D02*
X8186848Y-33533984D01*
X8186848Y-33533984D02*
X8167801Y-33562555D01*
X8167801Y-33562555D02*
X8148753Y-33581603D01*
X8148753Y-33581603D02*
X8129706Y-33591127D01*
X8434468Y-33733984D02*
X8320182Y-33733984D01*
X8377325Y-33733984D02*
X8377325Y-33533984D01*
X8377325Y-33533984D02*
X8358277Y-33562555D01*
X8358277Y-33562555D02*
X8339229Y-33581603D01*
X8339229Y-33581603D02*
X8320182Y-33591127D01*
X8548753Y-33619698D02*
X8529706Y-33610174D01*
X8529706Y-33610174D02*
X8520182Y-33600650D01*
X8520182Y-33600650D02*
X8510658Y-33581603D01*
X8510658Y-33581603D02*
X8510658Y-33572079D01*
X8510658Y-33572079D02*
X8520182Y-33553031D01*
X8520182Y-33553031D02*
X8529706Y-33543508D01*
X8529706Y-33543508D02*
X8548753Y-33533984D01*
X8548753Y-33533984D02*
X8586849Y-33533984D01*
X8586849Y-33533984D02*
X8605896Y-33543508D01*
X8605896Y-33543508D02*
X8615420Y-33553031D01*
X8615420Y-33553031D02*
X8624944Y-33572079D01*
X8624944Y-33572079D02*
X8624944Y-33581603D01*
X8624944Y-33581603D02*
X8615420Y-33600650D01*
X8615420Y-33600650D02*
X8605896Y-33610174D01*
X8605896Y-33610174D02*
X8586849Y-33619698D01*
X8586849Y-33619698D02*
X8548753Y-33619698D01*
X8548753Y-33619698D02*
X8529706Y-33629222D01*
X8529706Y-33629222D02*
X8520182Y-33638746D01*
X8520182Y-33638746D02*
X8510658Y-33657793D01*
X8510658Y-33657793D02*
X8510658Y-33695889D01*
X8510658Y-33695889D02*
X8520182Y-33714936D01*
X8520182Y-33714936D02*
X8529706Y-33724460D01*
X8529706Y-33724460D02*
X8548753Y-33733984D01*
X8548753Y-33733984D02*
X8586849Y-33733984D01*
X8586849Y-33733984D02*
X8605896Y-33724460D01*
X8605896Y-33724460D02*
X8615420Y-33714936D01*
X8615420Y-33714936D02*
X8624944Y-33695889D01*
X8624944Y-33695889D02*
X8624944Y-33657793D01*
X8624944Y-33657793D02*
X8615420Y-33638746D01*
X8615420Y-33638746D02*
X8605896Y-33629222D01*
X8605896Y-33629222D02*
X8586849Y-33619698D01*
X8701134Y-33533984D02*
X8701134Y-33572079D01*
X8777325Y-33533984D02*
X8777325Y-33572079D01*
X9072563Y-33810174D02*
X9063039Y-33800650D01*
X9063039Y-33800650D02*
X9043991Y-33772079D01*
X9043991Y-33772079D02*
X9034468Y-33753031D01*
X9034468Y-33753031D02*
X9024944Y-33724460D01*
X9024944Y-33724460D02*
X9015420Y-33676841D01*
X9015420Y-33676841D02*
X9015420Y-33638746D01*
X9015420Y-33638746D02*
X9024944Y-33591127D01*
X9024944Y-33591127D02*
X9034468Y-33562555D01*
X9034468Y-33562555D02*
X9043991Y-33543508D01*
X9043991Y-33543508D02*
X9063039Y-33514936D01*
X9063039Y-33514936D02*
X9072563Y-33505412D01*
X9243991Y-33533984D02*
X9148753Y-33533984D01*
X9148753Y-33533984D02*
X9139230Y-33629222D01*
X9139230Y-33629222D02*
X9148753Y-33619698D01*
X9148753Y-33619698D02*
X9167801Y-33610174D01*
X9167801Y-33610174D02*
X9215420Y-33610174D01*
X9215420Y-33610174D02*
X9234468Y-33619698D01*
X9234468Y-33619698D02*
X9243991Y-33629222D01*
X9243991Y-33629222D02*
X9253515Y-33648270D01*
X9253515Y-33648270D02*
X9253515Y-33695889D01*
X9253515Y-33695889D02*
X9243991Y-33714936D01*
X9243991Y-33714936D02*
X9234468Y-33724460D01*
X9234468Y-33724460D02*
X9215420Y-33733984D01*
X9215420Y-33733984D02*
X9167801Y-33733984D01*
X9167801Y-33733984D02*
X9148753Y-33724460D01*
X9148753Y-33724460D02*
X9139230Y-33714936D01*
X9377325Y-33533984D02*
X9396372Y-33533984D01*
X9396372Y-33533984D02*
X9415420Y-33543508D01*
X9415420Y-33543508D02*
X9424944Y-33553031D01*
X9424944Y-33553031D02*
X9434468Y-33572079D01*
X9434468Y-33572079D02*
X9443991Y-33610174D01*
X9443991Y-33610174D02*
X9443991Y-33657793D01*
X9443991Y-33657793D02*
X9434468Y-33695889D01*
X9434468Y-33695889D02*
X9424944Y-33714936D01*
X9424944Y-33714936D02*
X9415420Y-33724460D01*
X9415420Y-33724460D02*
X9396372Y-33733984D01*
X9396372Y-33733984D02*
X9377325Y-33733984D01*
X9377325Y-33733984D02*
X9358277Y-33724460D01*
X9358277Y-33724460D02*
X9348753Y-33714936D01*
X9348753Y-33714936D02*
X9339230Y-33695889D01*
X9339230Y-33695889D02*
X9329706Y-33657793D01*
X9329706Y-33657793D02*
X9329706Y-33610174D01*
X9329706Y-33610174D02*
X9339230Y-33572079D01*
X9339230Y-33572079D02*
X9348753Y-33553031D01*
X9348753Y-33553031D02*
X9358277Y-33543508D01*
X9358277Y-33543508D02*
X9377325Y-33533984D01*
X9682087Y-33733984D02*
X9682087Y-33533984D01*
X9767801Y-33733984D02*
X9767801Y-33629222D01*
X9767801Y-33629222D02*
X9758277Y-33610174D01*
X9758277Y-33610174D02*
X9739230Y-33600650D01*
X9739230Y-33600650D02*
X9710658Y-33600650D01*
X9710658Y-33600650D02*
X9691611Y-33610174D01*
X9691611Y-33610174D02*
X9682087Y-33619698D01*
X9891611Y-33733984D02*
X9872563Y-33724460D01*
X9872563Y-33724460D02*
X9863039Y-33714936D01*
X9863039Y-33714936D02*
X9853515Y-33695889D01*
X9853515Y-33695889D02*
X9853515Y-33638746D01*
X9853515Y-33638746D02*
X9863039Y-33619698D01*
X9863039Y-33619698D02*
X9872563Y-33610174D01*
X9872563Y-33610174D02*
X9891611Y-33600650D01*
X9891611Y-33600650D02*
X9920182Y-33600650D01*
X9920182Y-33600650D02*
X9939230Y-33610174D01*
X9939230Y-33610174D02*
X9948753Y-33619698D01*
X9948753Y-33619698D02*
X9958277Y-33638746D01*
X9958277Y-33638746D02*
X9958277Y-33695889D01*
X9958277Y-33695889D02*
X9948753Y-33714936D01*
X9948753Y-33714936D02*
X9939230Y-33724460D01*
X9939230Y-33724460D02*
X9920182Y-33733984D01*
X9920182Y-33733984D02*
X9891611Y-33733984D01*
X10072563Y-33733984D02*
X10053515Y-33724460D01*
X10053515Y-33724460D02*
X10043992Y-33705412D01*
X10043992Y-33705412D02*
X10043992Y-33533984D01*
X10224944Y-33724460D02*
X10205896Y-33733984D01*
X10205896Y-33733984D02*
X10167801Y-33733984D01*
X10167801Y-33733984D02*
X10148753Y-33724460D01*
X10148753Y-33724460D02*
X10139230Y-33705412D01*
X10139230Y-33705412D02*
X10139230Y-33629222D01*
X10139230Y-33629222D02*
X10148753Y-33610174D01*
X10148753Y-33610174D02*
X10167801Y-33600650D01*
X10167801Y-33600650D02*
X10205896Y-33600650D01*
X10205896Y-33600650D02*
X10224944Y-33610174D01*
X10224944Y-33610174D02*
X10234468Y-33629222D01*
X10234468Y-33629222D02*
X10234468Y-33648270D01*
X10234468Y-33648270D02*
X10139230Y-33667317D01*
X10310658Y-33724460D02*
X10329706Y-33733984D01*
X10329706Y-33733984D02*
X10367801Y-33733984D01*
X10367801Y-33733984D02*
X10386849Y-33724460D01*
X10386849Y-33724460D02*
X10396373Y-33705412D01*
X10396373Y-33705412D02*
X10396373Y-33695889D01*
X10396373Y-33695889D02*
X10386849Y-33676841D01*
X10386849Y-33676841D02*
X10367801Y-33667317D01*
X10367801Y-33667317D02*
X10339230Y-33667317D01*
X10339230Y-33667317D02*
X10320182Y-33657793D01*
X10320182Y-33657793D02*
X10310658Y-33638746D01*
X10310658Y-33638746D02*
X10310658Y-33629222D01*
X10310658Y-33629222D02*
X10320182Y-33610174D01*
X10320182Y-33610174D02*
X10339230Y-33600650D01*
X10339230Y-33600650D02*
X10367801Y-33600650D01*
X10367801Y-33600650D02*
X10386849Y-33610174D01*
X10463039Y-33810174D02*
X10472563Y-33800650D01*
X10472563Y-33800650D02*
X10491611Y-33772079D01*
X10491611Y-33772079D02*
X10501134Y-33753031D01*
X10501134Y-33753031D02*
X10510658Y-33724460D01*
X10510658Y-33724460D02*
X10520182Y-33676841D01*
X10520182Y-33676841D02*
X10520182Y-33638746D01*
X10520182Y-33638746D02*
X10510658Y-33591127D01*
X10510658Y-33591127D02*
X10501134Y-33562555D01*
X10501134Y-33562555D02*
X10491611Y-33543508D01*
X10491611Y-33543508D02*
X10472563Y-33514936D01*
X10472563Y-33514936D02*
X10463039Y-33505412D01*
D10*
X5497500Y-33906500D02*
G75*
G02*
X5457500Y-33906500I-20000J0D01*
G01*
X5457500Y-33906500D02*
G75*
G02*
X5497500Y-33906500I20000J0D01*
G01*
D12*
X5796372Y-33797984D02*
X5815420Y-33797984D01*
X5815420Y-33797984D02*
X5834467Y-33807508D01*
X5834467Y-33807508D02*
X5843991Y-33817031D01*
X5843991Y-33817031D02*
X5853515Y-33836079D01*
X5853515Y-33836079D02*
X5863039Y-33874174D01*
X5863039Y-33874174D02*
X5863039Y-33921793D01*
X5863039Y-33921793D02*
X5853515Y-33959889D01*
X5853515Y-33959889D02*
X5843991Y-33978936D01*
X5843991Y-33978936D02*
X5834467Y-33988460D01*
X5834467Y-33988460D02*
X5815420Y-33997984D01*
X5815420Y-33997984D02*
X5796372Y-33997984D01*
X5796372Y-33997984D02*
X5777324Y-33988460D01*
X5777324Y-33988460D02*
X5767801Y-33978936D01*
X5767801Y-33978936D02*
X5758277Y-33959889D01*
X5758277Y-33959889D02*
X5748753Y-33921793D01*
X5748753Y-33921793D02*
X5748753Y-33874174D01*
X5748753Y-33874174D02*
X5758277Y-33836079D01*
X5758277Y-33836079D02*
X5767801Y-33817031D01*
X5767801Y-33817031D02*
X5777324Y-33807508D01*
X5777324Y-33807508D02*
X5796372Y-33797984D01*
X5948753Y-33978936D02*
X5958277Y-33988460D01*
X5958277Y-33988460D02*
X5948753Y-33997984D01*
X5948753Y-33997984D02*
X5939229Y-33988460D01*
X5939229Y-33988460D02*
X5948753Y-33978936D01*
X5948753Y-33978936D02*
X5948753Y-33997984D01*
X6129705Y-33864650D02*
X6129705Y-33997984D01*
X6082086Y-33788460D02*
X6034467Y-33931317D01*
X6034467Y-33931317D02*
X6158277Y-33931317D01*
X6272562Y-33797984D02*
X6291610Y-33797984D01*
X6291610Y-33797984D02*
X6310658Y-33807508D01*
X6310658Y-33807508D02*
X6320182Y-33817031D01*
X6320182Y-33817031D02*
X6329705Y-33836079D01*
X6329705Y-33836079D02*
X6339229Y-33874174D01*
X6339229Y-33874174D02*
X6339229Y-33921793D01*
X6339229Y-33921793D02*
X6329705Y-33959889D01*
X6329705Y-33959889D02*
X6320182Y-33978936D01*
X6320182Y-33978936D02*
X6310658Y-33988460D01*
X6310658Y-33988460D02*
X6291610Y-33997984D01*
X6291610Y-33997984D02*
X6272562Y-33997984D01*
X6272562Y-33997984D02*
X6253515Y-33988460D01*
X6253515Y-33988460D02*
X6243991Y-33978936D01*
X6243991Y-33978936D02*
X6234467Y-33959889D01*
X6234467Y-33959889D02*
X6224943Y-33921793D01*
X6224943Y-33921793D02*
X6224943Y-33874174D01*
X6224943Y-33874174D02*
X6234467Y-33836079D01*
X6234467Y-33836079D02*
X6243991Y-33817031D01*
X6243991Y-33817031D02*
X6253515Y-33807508D01*
X6253515Y-33807508D02*
X6272562Y-33797984D01*
X6463039Y-33797984D02*
X6482086Y-33797984D01*
X6482086Y-33797984D02*
X6501134Y-33807508D01*
X6501134Y-33807508D02*
X6510658Y-33817031D01*
X6510658Y-33817031D02*
X6520182Y-33836079D01*
X6520182Y-33836079D02*
X6529705Y-33874174D01*
X6529705Y-33874174D02*
X6529705Y-33921793D01*
X6529705Y-33921793D02*
X6520182Y-33959889D01*
X6520182Y-33959889D02*
X6510658Y-33978936D01*
X6510658Y-33978936D02*
X6501134Y-33988460D01*
X6501134Y-33988460D02*
X6482086Y-33997984D01*
X6482086Y-33997984D02*
X6463039Y-33997984D01*
X6463039Y-33997984D02*
X6443991Y-33988460D01*
X6443991Y-33988460D02*
X6434467Y-33978936D01*
X6434467Y-33978936D02*
X6424943Y-33959889D01*
X6424943Y-33959889D02*
X6415420Y-33921793D01*
X6415420Y-33921793D02*
X6415420Y-33874174D01*
X6415420Y-33874174D02*
X6424943Y-33836079D01*
X6424943Y-33836079D02*
X6434467Y-33817031D01*
X6434467Y-33817031D02*
X6443991Y-33807508D01*
X6443991Y-33807508D02*
X6463039Y-33797984D01*
X6615420Y-33997984D02*
X6615420Y-33864650D01*
X6615420Y-33883698D02*
X6624943Y-33874174D01*
X6624943Y-33874174D02*
X6643991Y-33864650D01*
X6643991Y-33864650D02*
X6672563Y-33864650D01*
X6672563Y-33864650D02*
X6691610Y-33874174D01*
X6691610Y-33874174D02*
X6701134Y-33893222D01*
X6701134Y-33893222D02*
X6701134Y-33997984D01*
X6701134Y-33893222D02*
X6710658Y-33874174D01*
X6710658Y-33874174D02*
X6729705Y-33864650D01*
X6729705Y-33864650D02*
X6758277Y-33864650D01*
X6758277Y-33864650D02*
X6777324Y-33874174D01*
X6777324Y-33874174D02*
X6786848Y-33893222D01*
X6786848Y-33893222D02*
X6786848Y-33997984D01*
X6882086Y-33997984D02*
X6882086Y-33864650D01*
X6882086Y-33883698D02*
X6891610Y-33874174D01*
X6891610Y-33874174D02*
X6910658Y-33864650D01*
X6910658Y-33864650D02*
X6939229Y-33864650D01*
X6939229Y-33864650D02*
X6958277Y-33874174D01*
X6958277Y-33874174D02*
X6967801Y-33893222D01*
X6967801Y-33893222D02*
X6967801Y-33997984D01*
X6967801Y-33893222D02*
X6977324Y-33874174D01*
X6977324Y-33874174D02*
X6996372Y-33864650D01*
X6996372Y-33864650D02*
X7024943Y-33864650D01*
X7024943Y-33864650D02*
X7043991Y-33874174D01*
X7043991Y-33874174D02*
X7053515Y-33893222D01*
X7053515Y-33893222D02*
X7053515Y-33997984D01*
X7443991Y-33788460D02*
X7272563Y-34045603D01*
X7701134Y-33797984D02*
X7720182Y-33797984D01*
X7720182Y-33797984D02*
X7739229Y-33807508D01*
X7739229Y-33807508D02*
X7748753Y-33817031D01*
X7748753Y-33817031D02*
X7758277Y-33836079D01*
X7758277Y-33836079D02*
X7767801Y-33874174D01*
X7767801Y-33874174D02*
X7767801Y-33921793D01*
X7767801Y-33921793D02*
X7758277Y-33959889D01*
X7758277Y-33959889D02*
X7748753Y-33978936D01*
X7748753Y-33978936D02*
X7739229Y-33988460D01*
X7739229Y-33988460D02*
X7720182Y-33997984D01*
X7720182Y-33997984D02*
X7701134Y-33997984D01*
X7701134Y-33997984D02*
X7682086Y-33988460D01*
X7682086Y-33988460D02*
X7672563Y-33978936D01*
X7672563Y-33978936D02*
X7663039Y-33959889D01*
X7663039Y-33959889D02*
X7653515Y-33921793D01*
X7653515Y-33921793D02*
X7653515Y-33874174D01*
X7653515Y-33874174D02*
X7663039Y-33836079D01*
X7663039Y-33836079D02*
X7672563Y-33817031D01*
X7672563Y-33817031D02*
X7682086Y-33807508D01*
X7682086Y-33807508D02*
X7701134Y-33797984D01*
X7853515Y-33978936D02*
X7863039Y-33988460D01*
X7863039Y-33988460D02*
X7853515Y-33997984D01*
X7853515Y-33997984D02*
X7843991Y-33988460D01*
X7843991Y-33988460D02*
X7853515Y-33978936D01*
X7853515Y-33978936D02*
X7853515Y-33997984D01*
X7986848Y-33797984D02*
X8005896Y-33797984D01*
X8005896Y-33797984D02*
X8024944Y-33807508D01*
X8024944Y-33807508D02*
X8034467Y-33817031D01*
X8034467Y-33817031D02*
X8043991Y-33836079D01*
X8043991Y-33836079D02*
X8053515Y-33874174D01*
X8053515Y-33874174D02*
X8053515Y-33921793D01*
X8053515Y-33921793D02*
X8043991Y-33959889D01*
X8043991Y-33959889D02*
X8034467Y-33978936D01*
X8034467Y-33978936D02*
X8024944Y-33988460D01*
X8024944Y-33988460D02*
X8005896Y-33997984D01*
X8005896Y-33997984D02*
X7986848Y-33997984D01*
X7986848Y-33997984D02*
X7967801Y-33988460D01*
X7967801Y-33988460D02*
X7958277Y-33978936D01*
X7958277Y-33978936D02*
X7948753Y-33959889D01*
X7948753Y-33959889D02*
X7939229Y-33921793D01*
X7939229Y-33921793D02*
X7939229Y-33874174D01*
X7939229Y-33874174D02*
X7948753Y-33836079D01*
X7948753Y-33836079D02*
X7958277Y-33817031D01*
X7958277Y-33817031D02*
X7967801Y-33807508D01*
X7967801Y-33807508D02*
X7986848Y-33797984D01*
X8243991Y-33997984D02*
X8129706Y-33997984D01*
X8186848Y-33997984D02*
X8186848Y-33797984D01*
X8186848Y-33797984D02*
X8167801Y-33826555D01*
X8167801Y-33826555D02*
X8148753Y-33845603D01*
X8148753Y-33845603D02*
X8129706Y-33855127D01*
X8424944Y-33797984D02*
X8329706Y-33797984D01*
X8329706Y-33797984D02*
X8320182Y-33893222D01*
X8320182Y-33893222D02*
X8329706Y-33883698D01*
X8329706Y-33883698D02*
X8348753Y-33874174D01*
X8348753Y-33874174D02*
X8396372Y-33874174D01*
X8396372Y-33874174D02*
X8415420Y-33883698D01*
X8415420Y-33883698D02*
X8424944Y-33893222D01*
X8424944Y-33893222D02*
X8434468Y-33912270D01*
X8434468Y-33912270D02*
X8434468Y-33959889D01*
X8434468Y-33959889D02*
X8424944Y-33978936D01*
X8424944Y-33978936D02*
X8415420Y-33988460D01*
X8415420Y-33988460D02*
X8396372Y-33997984D01*
X8396372Y-33997984D02*
X8348753Y-33997984D01*
X8348753Y-33997984D02*
X8329706Y-33988460D01*
X8329706Y-33988460D02*
X8320182Y-33978936D01*
X8501134Y-33797984D02*
X8634468Y-33797984D01*
X8634468Y-33797984D02*
X8548753Y-33997984D01*
X8701134Y-33797984D02*
X8701134Y-33836079D01*
X8777325Y-33797984D02*
X8777325Y-33836079D01*
X9072563Y-34074174D02*
X9063039Y-34064650D01*
X9063039Y-34064650D02*
X9043991Y-34036079D01*
X9043991Y-34036079D02*
X9034468Y-34017031D01*
X9034468Y-34017031D02*
X9024944Y-33988460D01*
X9024944Y-33988460D02*
X9015420Y-33940841D01*
X9015420Y-33940841D02*
X9015420Y-33902746D01*
X9015420Y-33902746D02*
X9024944Y-33855127D01*
X9024944Y-33855127D02*
X9034468Y-33826555D01*
X9034468Y-33826555D02*
X9043991Y-33807508D01*
X9043991Y-33807508D02*
X9063039Y-33778936D01*
X9063039Y-33778936D02*
X9072563Y-33769412D01*
X9139230Y-33817031D02*
X9148753Y-33807508D01*
X9148753Y-33807508D02*
X9167801Y-33797984D01*
X9167801Y-33797984D02*
X9215420Y-33797984D01*
X9215420Y-33797984D02*
X9234468Y-33807508D01*
X9234468Y-33807508D02*
X9243991Y-33817031D01*
X9243991Y-33817031D02*
X9253515Y-33836079D01*
X9253515Y-33836079D02*
X9253515Y-33855127D01*
X9253515Y-33855127D02*
X9243991Y-33883698D01*
X9243991Y-33883698D02*
X9129706Y-33997984D01*
X9129706Y-33997984D02*
X9253515Y-33997984D01*
X9491611Y-33997984D02*
X9491611Y-33797984D01*
X9577325Y-33997984D02*
X9577325Y-33893222D01*
X9577325Y-33893222D02*
X9567801Y-33874174D01*
X9567801Y-33874174D02*
X9548753Y-33864650D01*
X9548753Y-33864650D02*
X9520182Y-33864650D01*
X9520182Y-33864650D02*
X9501134Y-33874174D01*
X9501134Y-33874174D02*
X9491611Y-33883698D01*
X9701134Y-33997984D02*
X9682087Y-33988460D01*
X9682087Y-33988460D02*
X9672563Y-33978936D01*
X9672563Y-33978936D02*
X9663039Y-33959889D01*
X9663039Y-33959889D02*
X9663039Y-33902746D01*
X9663039Y-33902746D02*
X9672563Y-33883698D01*
X9672563Y-33883698D02*
X9682087Y-33874174D01*
X9682087Y-33874174D02*
X9701134Y-33864650D01*
X9701134Y-33864650D02*
X9729706Y-33864650D01*
X9729706Y-33864650D02*
X9748753Y-33874174D01*
X9748753Y-33874174D02*
X9758277Y-33883698D01*
X9758277Y-33883698D02*
X9767801Y-33902746D01*
X9767801Y-33902746D02*
X9767801Y-33959889D01*
X9767801Y-33959889D02*
X9758277Y-33978936D01*
X9758277Y-33978936D02*
X9748753Y-33988460D01*
X9748753Y-33988460D02*
X9729706Y-33997984D01*
X9729706Y-33997984D02*
X9701134Y-33997984D01*
X9882087Y-33997984D02*
X9863039Y-33988460D01*
X9863039Y-33988460D02*
X9853515Y-33969412D01*
X9853515Y-33969412D02*
X9853515Y-33797984D01*
X10034468Y-33988460D02*
X10015420Y-33997984D01*
X10015420Y-33997984D02*
X9977325Y-33997984D01*
X9977325Y-33997984D02*
X9958277Y-33988460D01*
X9958277Y-33988460D02*
X9948753Y-33969412D01*
X9948753Y-33969412D02*
X9948753Y-33893222D01*
X9948753Y-33893222D02*
X9958277Y-33874174D01*
X9958277Y-33874174D02*
X9977325Y-33864650D01*
X9977325Y-33864650D02*
X10015420Y-33864650D01*
X10015420Y-33864650D02*
X10034468Y-33874174D01*
X10034468Y-33874174D02*
X10043992Y-33893222D01*
X10043992Y-33893222D02*
X10043992Y-33912270D01*
X10043992Y-33912270D02*
X9948753Y-33931317D01*
X10120182Y-33988460D02*
X10139230Y-33997984D01*
X10139230Y-33997984D02*
X10177325Y-33997984D01*
X10177325Y-33997984D02*
X10196373Y-33988460D01*
X10196373Y-33988460D02*
X10205896Y-33969412D01*
X10205896Y-33969412D02*
X10205896Y-33959889D01*
X10205896Y-33959889D02*
X10196373Y-33940841D01*
X10196373Y-33940841D02*
X10177325Y-33931317D01*
X10177325Y-33931317D02*
X10148753Y-33931317D01*
X10148753Y-33931317D02*
X10129706Y-33921793D01*
X10129706Y-33921793D02*
X10120182Y-33902746D01*
X10120182Y-33902746D02*
X10120182Y-33893222D01*
X10120182Y-33893222D02*
X10129706Y-33874174D01*
X10129706Y-33874174D02*
X10148753Y-33864650D01*
X10148753Y-33864650D02*
X10177325Y-33864650D01*
X10177325Y-33864650D02*
X10196373Y-33874174D01*
X10272563Y-34074174D02*
X10282087Y-34064650D01*
X10282087Y-34064650D02*
X10301134Y-34036079D01*
X10301134Y-34036079D02*
X10310658Y-34017031D01*
X10310658Y-34017031D02*
X10320182Y-33988460D01*
X10320182Y-33988460D02*
X10329706Y-33940841D01*
X10329706Y-33940841D02*
X10329706Y-33902746D01*
X10329706Y-33902746D02*
X10320182Y-33855127D01*
X10320182Y-33855127D02*
X10310658Y-33826555D01*
X10310658Y-33826555D02*
X10301134Y-33807508D01*
X10301134Y-33807508D02*
X10282087Y-33778936D01*
X10282087Y-33778936D02*
X10272563Y-33769412D01*
D10*
X5477500Y-34150500D02*
X5477500Y-34190500D01*
X5457500Y-34170500D02*
X5497500Y-34170500D01*
D12*
X5796372Y-34061984D02*
X5815420Y-34061984D01*
X5815420Y-34061984D02*
X5834467Y-34071508D01*
X5834467Y-34071508D02*
X5843991Y-34081031D01*
X5843991Y-34081031D02*
X5853515Y-34100079D01*
X5853515Y-34100079D02*
X5863039Y-34138174D01*
X5863039Y-34138174D02*
X5863039Y-34185793D01*
X5863039Y-34185793D02*
X5853515Y-34223889D01*
X5853515Y-34223889D02*
X5843991Y-34242936D01*
X5843991Y-34242936D02*
X5834467Y-34252460D01*
X5834467Y-34252460D02*
X5815420Y-34261984D01*
X5815420Y-34261984D02*
X5796372Y-34261984D01*
X5796372Y-34261984D02*
X5777324Y-34252460D01*
X5777324Y-34252460D02*
X5767801Y-34242936D01*
X5767801Y-34242936D02*
X5758277Y-34223889D01*
X5758277Y-34223889D02*
X5748753Y-34185793D01*
X5748753Y-34185793D02*
X5748753Y-34138174D01*
X5748753Y-34138174D02*
X5758277Y-34100079D01*
X5758277Y-34100079D02*
X5767801Y-34081031D01*
X5767801Y-34081031D02*
X5777324Y-34071508D01*
X5777324Y-34071508D02*
X5796372Y-34061984D01*
X5948753Y-34242936D02*
X5958277Y-34252460D01*
X5958277Y-34252460D02*
X5948753Y-34261984D01*
X5948753Y-34261984D02*
X5939229Y-34252460D01*
X5939229Y-34252460D02*
X5948753Y-34242936D01*
X5948753Y-34242936D02*
X5948753Y-34261984D01*
X6129705Y-34128650D02*
X6129705Y-34261984D01*
X6082086Y-34052460D02*
X6034467Y-34195317D01*
X6034467Y-34195317D02*
X6158277Y-34195317D01*
X6272562Y-34061984D02*
X6291610Y-34061984D01*
X6291610Y-34061984D02*
X6310658Y-34071508D01*
X6310658Y-34071508D02*
X6320182Y-34081031D01*
X6320182Y-34081031D02*
X6329705Y-34100079D01*
X6329705Y-34100079D02*
X6339229Y-34138174D01*
X6339229Y-34138174D02*
X6339229Y-34185793D01*
X6339229Y-34185793D02*
X6329705Y-34223889D01*
X6329705Y-34223889D02*
X6320182Y-34242936D01*
X6320182Y-34242936D02*
X6310658Y-34252460D01*
X6310658Y-34252460D02*
X6291610Y-34261984D01*
X6291610Y-34261984D02*
X6272562Y-34261984D01*
X6272562Y-34261984D02*
X6253515Y-34252460D01*
X6253515Y-34252460D02*
X6243991Y-34242936D01*
X6243991Y-34242936D02*
X6234467Y-34223889D01*
X6234467Y-34223889D02*
X6224943Y-34185793D01*
X6224943Y-34185793D02*
X6224943Y-34138174D01*
X6224943Y-34138174D02*
X6234467Y-34100079D01*
X6234467Y-34100079D02*
X6243991Y-34081031D01*
X6243991Y-34081031D02*
X6253515Y-34071508D01*
X6253515Y-34071508D02*
X6272562Y-34061984D01*
X6463039Y-34061984D02*
X6482086Y-34061984D01*
X6482086Y-34061984D02*
X6501134Y-34071508D01*
X6501134Y-34071508D02*
X6510658Y-34081031D01*
X6510658Y-34081031D02*
X6520182Y-34100079D01*
X6520182Y-34100079D02*
X6529705Y-34138174D01*
X6529705Y-34138174D02*
X6529705Y-34185793D01*
X6529705Y-34185793D02*
X6520182Y-34223889D01*
X6520182Y-34223889D02*
X6510658Y-34242936D01*
X6510658Y-34242936D02*
X6501134Y-34252460D01*
X6501134Y-34252460D02*
X6482086Y-34261984D01*
X6482086Y-34261984D02*
X6463039Y-34261984D01*
X6463039Y-34261984D02*
X6443991Y-34252460D01*
X6443991Y-34252460D02*
X6434467Y-34242936D01*
X6434467Y-34242936D02*
X6424943Y-34223889D01*
X6424943Y-34223889D02*
X6415420Y-34185793D01*
X6415420Y-34185793D02*
X6415420Y-34138174D01*
X6415420Y-34138174D02*
X6424943Y-34100079D01*
X6424943Y-34100079D02*
X6434467Y-34081031D01*
X6434467Y-34081031D02*
X6443991Y-34071508D01*
X6443991Y-34071508D02*
X6463039Y-34061984D01*
X6615420Y-34261984D02*
X6615420Y-34128650D01*
X6615420Y-34147698D02*
X6624943Y-34138174D01*
X6624943Y-34138174D02*
X6643991Y-34128650D01*
X6643991Y-34128650D02*
X6672563Y-34128650D01*
X6672563Y-34128650D02*
X6691610Y-34138174D01*
X6691610Y-34138174D02*
X6701134Y-34157222D01*
X6701134Y-34157222D02*
X6701134Y-34261984D01*
X6701134Y-34157222D02*
X6710658Y-34138174D01*
X6710658Y-34138174D02*
X6729705Y-34128650D01*
X6729705Y-34128650D02*
X6758277Y-34128650D01*
X6758277Y-34128650D02*
X6777324Y-34138174D01*
X6777324Y-34138174D02*
X6786848Y-34157222D01*
X6786848Y-34157222D02*
X6786848Y-34261984D01*
X6882086Y-34261984D02*
X6882086Y-34128650D01*
X6882086Y-34147698D02*
X6891610Y-34138174D01*
X6891610Y-34138174D02*
X6910658Y-34128650D01*
X6910658Y-34128650D02*
X6939229Y-34128650D01*
X6939229Y-34128650D02*
X6958277Y-34138174D01*
X6958277Y-34138174D02*
X6967801Y-34157222D01*
X6967801Y-34157222D02*
X6967801Y-34261984D01*
X6967801Y-34157222D02*
X6977324Y-34138174D01*
X6977324Y-34138174D02*
X6996372Y-34128650D01*
X6996372Y-34128650D02*
X7024943Y-34128650D01*
X7024943Y-34128650D02*
X7043991Y-34138174D01*
X7043991Y-34138174D02*
X7053515Y-34157222D01*
X7053515Y-34157222D02*
X7053515Y-34261984D01*
X7443991Y-34052460D02*
X7272563Y-34309603D01*
X7701134Y-34061984D02*
X7720182Y-34061984D01*
X7720182Y-34061984D02*
X7739229Y-34071508D01*
X7739229Y-34071508D02*
X7748753Y-34081031D01*
X7748753Y-34081031D02*
X7758277Y-34100079D01*
X7758277Y-34100079D02*
X7767801Y-34138174D01*
X7767801Y-34138174D02*
X7767801Y-34185793D01*
X7767801Y-34185793D02*
X7758277Y-34223889D01*
X7758277Y-34223889D02*
X7748753Y-34242936D01*
X7748753Y-34242936D02*
X7739229Y-34252460D01*
X7739229Y-34252460D02*
X7720182Y-34261984D01*
X7720182Y-34261984D02*
X7701134Y-34261984D01*
X7701134Y-34261984D02*
X7682086Y-34252460D01*
X7682086Y-34252460D02*
X7672563Y-34242936D01*
X7672563Y-34242936D02*
X7663039Y-34223889D01*
X7663039Y-34223889D02*
X7653515Y-34185793D01*
X7653515Y-34185793D02*
X7653515Y-34138174D01*
X7653515Y-34138174D02*
X7663039Y-34100079D01*
X7663039Y-34100079D02*
X7672563Y-34081031D01*
X7672563Y-34081031D02*
X7682086Y-34071508D01*
X7682086Y-34071508D02*
X7701134Y-34061984D01*
X7853515Y-34242936D02*
X7863039Y-34252460D01*
X7863039Y-34252460D02*
X7853515Y-34261984D01*
X7853515Y-34261984D02*
X7843991Y-34252460D01*
X7843991Y-34252460D02*
X7853515Y-34242936D01*
X7853515Y-34242936D02*
X7853515Y-34261984D01*
X7986848Y-34061984D02*
X8005896Y-34061984D01*
X8005896Y-34061984D02*
X8024944Y-34071508D01*
X8024944Y-34071508D02*
X8034467Y-34081031D01*
X8034467Y-34081031D02*
X8043991Y-34100079D01*
X8043991Y-34100079D02*
X8053515Y-34138174D01*
X8053515Y-34138174D02*
X8053515Y-34185793D01*
X8053515Y-34185793D02*
X8043991Y-34223889D01*
X8043991Y-34223889D02*
X8034467Y-34242936D01*
X8034467Y-34242936D02*
X8024944Y-34252460D01*
X8024944Y-34252460D02*
X8005896Y-34261984D01*
X8005896Y-34261984D02*
X7986848Y-34261984D01*
X7986848Y-34261984D02*
X7967801Y-34252460D01*
X7967801Y-34252460D02*
X7958277Y-34242936D01*
X7958277Y-34242936D02*
X7948753Y-34223889D01*
X7948753Y-34223889D02*
X7939229Y-34185793D01*
X7939229Y-34185793D02*
X7939229Y-34138174D01*
X7939229Y-34138174D02*
X7948753Y-34100079D01*
X7948753Y-34100079D02*
X7958277Y-34081031D01*
X7958277Y-34081031D02*
X7967801Y-34071508D01*
X7967801Y-34071508D02*
X7986848Y-34061984D01*
X8243991Y-34261984D02*
X8129706Y-34261984D01*
X8186848Y-34261984D02*
X8186848Y-34061984D01*
X8186848Y-34061984D02*
X8167801Y-34090555D01*
X8167801Y-34090555D02*
X8148753Y-34109603D01*
X8148753Y-34109603D02*
X8129706Y-34119127D01*
X8424944Y-34061984D02*
X8329706Y-34061984D01*
X8329706Y-34061984D02*
X8320182Y-34157222D01*
X8320182Y-34157222D02*
X8329706Y-34147698D01*
X8329706Y-34147698D02*
X8348753Y-34138174D01*
X8348753Y-34138174D02*
X8396372Y-34138174D01*
X8396372Y-34138174D02*
X8415420Y-34147698D01*
X8415420Y-34147698D02*
X8424944Y-34157222D01*
X8424944Y-34157222D02*
X8434468Y-34176270D01*
X8434468Y-34176270D02*
X8434468Y-34223889D01*
X8434468Y-34223889D02*
X8424944Y-34242936D01*
X8424944Y-34242936D02*
X8415420Y-34252460D01*
X8415420Y-34252460D02*
X8396372Y-34261984D01*
X8396372Y-34261984D02*
X8348753Y-34261984D01*
X8348753Y-34261984D02*
X8329706Y-34252460D01*
X8329706Y-34252460D02*
X8320182Y-34242936D01*
X8501134Y-34061984D02*
X8634468Y-34061984D01*
X8634468Y-34061984D02*
X8548753Y-34261984D01*
X8701134Y-34061984D02*
X8701134Y-34100079D01*
X8777325Y-34061984D02*
X8777325Y-34100079D01*
X9072563Y-34338174D02*
X9063039Y-34328650D01*
X9063039Y-34328650D02*
X9043991Y-34300079D01*
X9043991Y-34300079D02*
X9034468Y-34281031D01*
X9034468Y-34281031D02*
X9024944Y-34252460D01*
X9024944Y-34252460D02*
X9015420Y-34204841D01*
X9015420Y-34204841D02*
X9015420Y-34166746D01*
X9015420Y-34166746D02*
X9024944Y-34119127D01*
X9024944Y-34119127D02*
X9034468Y-34090555D01*
X9034468Y-34090555D02*
X9043991Y-34071508D01*
X9043991Y-34071508D02*
X9063039Y-34042936D01*
X9063039Y-34042936D02*
X9072563Y-34033412D01*
X9253515Y-34261984D02*
X9139230Y-34261984D01*
X9196372Y-34261984D02*
X9196372Y-34061984D01*
X9196372Y-34061984D02*
X9177325Y-34090555D01*
X9177325Y-34090555D02*
X9158277Y-34109603D01*
X9158277Y-34109603D02*
X9139230Y-34119127D01*
X9329706Y-34081031D02*
X9339230Y-34071508D01*
X9339230Y-34071508D02*
X9358277Y-34061984D01*
X9358277Y-34061984D02*
X9405896Y-34061984D01*
X9405896Y-34061984D02*
X9424944Y-34071508D01*
X9424944Y-34071508D02*
X9434468Y-34081031D01*
X9434468Y-34081031D02*
X9443991Y-34100079D01*
X9443991Y-34100079D02*
X9443991Y-34119127D01*
X9443991Y-34119127D02*
X9434468Y-34147698D01*
X9434468Y-34147698D02*
X9320182Y-34261984D01*
X9320182Y-34261984D02*
X9443991Y-34261984D01*
X9624944Y-34061984D02*
X9529706Y-34061984D01*
X9529706Y-34061984D02*
X9520182Y-34157222D01*
X9520182Y-34157222D02*
X9529706Y-34147698D01*
X9529706Y-34147698D02*
X9548753Y-34138174D01*
X9548753Y-34138174D02*
X9596372Y-34138174D01*
X9596372Y-34138174D02*
X9615420Y-34147698D01*
X9615420Y-34147698D02*
X9624944Y-34157222D01*
X9624944Y-34157222D02*
X9634468Y-34176270D01*
X9634468Y-34176270D02*
X9634468Y-34223889D01*
X9634468Y-34223889D02*
X9624944Y-34242936D01*
X9624944Y-34242936D02*
X9615420Y-34252460D01*
X9615420Y-34252460D02*
X9596372Y-34261984D01*
X9596372Y-34261984D02*
X9548753Y-34261984D01*
X9548753Y-34261984D02*
X9529706Y-34252460D01*
X9529706Y-34252460D02*
X9520182Y-34242936D01*
X9872563Y-34261984D02*
X9872563Y-34061984D01*
X9958277Y-34261984D02*
X9958277Y-34157222D01*
X9958277Y-34157222D02*
X9948753Y-34138174D01*
X9948753Y-34138174D02*
X9929706Y-34128650D01*
X9929706Y-34128650D02*
X9901134Y-34128650D01*
X9901134Y-34128650D02*
X9882087Y-34138174D01*
X9882087Y-34138174D02*
X9872563Y-34147698D01*
X10082087Y-34261984D02*
X10063039Y-34252460D01*
X10063039Y-34252460D02*
X10053515Y-34242936D01*
X10053515Y-34242936D02*
X10043992Y-34223889D01*
X10043992Y-34223889D02*
X10043992Y-34166746D01*
X10043992Y-34166746D02*
X10053515Y-34147698D01*
X10053515Y-34147698D02*
X10063039Y-34138174D01*
X10063039Y-34138174D02*
X10082087Y-34128650D01*
X10082087Y-34128650D02*
X10110658Y-34128650D01*
X10110658Y-34128650D02*
X10129706Y-34138174D01*
X10129706Y-34138174D02*
X10139230Y-34147698D01*
X10139230Y-34147698D02*
X10148753Y-34166746D01*
X10148753Y-34166746D02*
X10148753Y-34223889D01*
X10148753Y-34223889D02*
X10139230Y-34242936D01*
X10139230Y-34242936D02*
X10129706Y-34252460D01*
X10129706Y-34252460D02*
X10110658Y-34261984D01*
X10110658Y-34261984D02*
X10082087Y-34261984D01*
X10263039Y-34261984D02*
X10243992Y-34252460D01*
X10243992Y-34252460D02*
X10234468Y-34233412D01*
X10234468Y-34233412D02*
X10234468Y-34061984D01*
X10415420Y-34252460D02*
X10396373Y-34261984D01*
X10396373Y-34261984D02*
X10358277Y-34261984D01*
X10358277Y-34261984D02*
X10339230Y-34252460D01*
X10339230Y-34252460D02*
X10329706Y-34233412D01*
X10329706Y-34233412D02*
X10329706Y-34157222D01*
X10329706Y-34157222D02*
X10339230Y-34138174D01*
X10339230Y-34138174D02*
X10358277Y-34128650D01*
X10358277Y-34128650D02*
X10396373Y-34128650D01*
X10396373Y-34128650D02*
X10415420Y-34138174D01*
X10415420Y-34138174D02*
X10424944Y-34157222D01*
X10424944Y-34157222D02*
X10424944Y-34176270D01*
X10424944Y-34176270D02*
X10329706Y-34195317D01*
X10501134Y-34252460D02*
X10520182Y-34261984D01*
X10520182Y-34261984D02*
X10558277Y-34261984D01*
X10558277Y-34261984D02*
X10577325Y-34252460D01*
X10577325Y-34252460D02*
X10586849Y-34233412D01*
X10586849Y-34233412D02*
X10586849Y-34223889D01*
X10586849Y-34223889D02*
X10577325Y-34204841D01*
X10577325Y-34204841D02*
X10558277Y-34195317D01*
X10558277Y-34195317D02*
X10529706Y-34195317D01*
X10529706Y-34195317D02*
X10510658Y-34185793D01*
X10510658Y-34185793D02*
X10501134Y-34166746D01*
X10501134Y-34166746D02*
X10501134Y-34157222D01*
X10501134Y-34157222D02*
X10510658Y-34138174D01*
X10510658Y-34138174D02*
X10529706Y-34128650D01*
X10529706Y-34128650D02*
X10558277Y-34128650D01*
X10558277Y-34128650D02*
X10577325Y-34138174D01*
X10653515Y-34338174D02*
X10663039Y-34328650D01*
X10663039Y-34328650D02*
X10682087Y-34300079D01*
X10682087Y-34300079D02*
X10691611Y-34281031D01*
X10691611Y-34281031D02*
X10701134Y-34252460D01*
X10701134Y-34252460D02*
X10710658Y-34204841D01*
X10710658Y-34204841D02*
X10710658Y-34166746D01*
X10710658Y-34166746D02*
X10701134Y-34119127D01*
X10701134Y-34119127D02*
X10691611Y-34090555D01*
X10691611Y-34090555D02*
X10682087Y-34071508D01*
X10682087Y-34071508D02*
X10663039Y-34042936D01*
X10663039Y-34042936D02*
X10653515Y-34033412D01*
D10*
X5485199Y-34464199D02*
X5485199Y-34404801D01*
X5425801Y-34404801D01*
X5425801Y-34464199D01*
X5485199Y-34464199D01*
D12*
X5796372Y-34325984D02*
X5815420Y-34325984D01*
X5815420Y-34325984D02*
X5834467Y-34335508D01*
X5834467Y-34335508D02*
X5843991Y-34345031D01*
X5843991Y-34345031D02*
X5853515Y-34364079D01*
X5853515Y-34364079D02*
X5863039Y-34402174D01*
X5863039Y-34402174D02*
X5863039Y-34449793D01*
X5863039Y-34449793D02*
X5853515Y-34487889D01*
X5853515Y-34487889D02*
X5843991Y-34506936D01*
X5843991Y-34506936D02*
X5834467Y-34516460D01*
X5834467Y-34516460D02*
X5815420Y-34525984D01*
X5815420Y-34525984D02*
X5796372Y-34525984D01*
X5796372Y-34525984D02*
X5777324Y-34516460D01*
X5777324Y-34516460D02*
X5767801Y-34506936D01*
X5767801Y-34506936D02*
X5758277Y-34487889D01*
X5758277Y-34487889D02*
X5748753Y-34449793D01*
X5748753Y-34449793D02*
X5748753Y-34402174D01*
X5748753Y-34402174D02*
X5758277Y-34364079D01*
X5758277Y-34364079D02*
X5767801Y-34345031D01*
X5767801Y-34345031D02*
X5777324Y-34335508D01*
X5777324Y-34335508D02*
X5796372Y-34325984D01*
X5948753Y-34506936D02*
X5958277Y-34516460D01*
X5958277Y-34516460D02*
X5948753Y-34525984D01*
X5948753Y-34525984D02*
X5939229Y-34516460D01*
X5939229Y-34516460D02*
X5948753Y-34506936D01*
X5948753Y-34506936D02*
X5948753Y-34525984D01*
X6072562Y-34411698D02*
X6053515Y-34402174D01*
X6053515Y-34402174D02*
X6043991Y-34392650D01*
X6043991Y-34392650D02*
X6034467Y-34373603D01*
X6034467Y-34373603D02*
X6034467Y-34364079D01*
X6034467Y-34364079D02*
X6043991Y-34345031D01*
X6043991Y-34345031D02*
X6053515Y-34335508D01*
X6053515Y-34335508D02*
X6072562Y-34325984D01*
X6072562Y-34325984D02*
X6110658Y-34325984D01*
X6110658Y-34325984D02*
X6129705Y-34335508D01*
X6129705Y-34335508D02*
X6139229Y-34345031D01*
X6139229Y-34345031D02*
X6148753Y-34364079D01*
X6148753Y-34364079D02*
X6148753Y-34373603D01*
X6148753Y-34373603D02*
X6139229Y-34392650D01*
X6139229Y-34392650D02*
X6129705Y-34402174D01*
X6129705Y-34402174D02*
X6110658Y-34411698D01*
X6110658Y-34411698D02*
X6072562Y-34411698D01*
X6072562Y-34411698D02*
X6053515Y-34421222D01*
X6053515Y-34421222D02*
X6043991Y-34430746D01*
X6043991Y-34430746D02*
X6034467Y-34449793D01*
X6034467Y-34449793D02*
X6034467Y-34487889D01*
X6034467Y-34487889D02*
X6043991Y-34506936D01*
X6043991Y-34506936D02*
X6053515Y-34516460D01*
X6053515Y-34516460D02*
X6072562Y-34525984D01*
X6072562Y-34525984D02*
X6110658Y-34525984D01*
X6110658Y-34525984D02*
X6129705Y-34516460D01*
X6129705Y-34516460D02*
X6139229Y-34506936D01*
X6139229Y-34506936D02*
X6148753Y-34487889D01*
X6148753Y-34487889D02*
X6148753Y-34449793D01*
X6148753Y-34449793D02*
X6139229Y-34430746D01*
X6139229Y-34430746D02*
X6129705Y-34421222D01*
X6129705Y-34421222D02*
X6110658Y-34411698D01*
X6320182Y-34392650D02*
X6320182Y-34525984D01*
X6272562Y-34316460D02*
X6224943Y-34459317D01*
X6224943Y-34459317D02*
X6348753Y-34459317D01*
X6463039Y-34325984D02*
X6482086Y-34325984D01*
X6482086Y-34325984D02*
X6501134Y-34335508D01*
X6501134Y-34335508D02*
X6510658Y-34345031D01*
X6510658Y-34345031D02*
X6520182Y-34364079D01*
X6520182Y-34364079D02*
X6529705Y-34402174D01*
X6529705Y-34402174D02*
X6529705Y-34449793D01*
X6529705Y-34449793D02*
X6520182Y-34487889D01*
X6520182Y-34487889D02*
X6510658Y-34506936D01*
X6510658Y-34506936D02*
X6501134Y-34516460D01*
X6501134Y-34516460D02*
X6482086Y-34525984D01*
X6482086Y-34525984D02*
X6463039Y-34525984D01*
X6463039Y-34525984D02*
X6443991Y-34516460D01*
X6443991Y-34516460D02*
X6434467Y-34506936D01*
X6434467Y-34506936D02*
X6424943Y-34487889D01*
X6424943Y-34487889D02*
X6415420Y-34449793D01*
X6415420Y-34449793D02*
X6415420Y-34402174D01*
X6415420Y-34402174D02*
X6424943Y-34364079D01*
X6424943Y-34364079D02*
X6434467Y-34345031D01*
X6434467Y-34345031D02*
X6443991Y-34335508D01*
X6443991Y-34335508D02*
X6463039Y-34325984D01*
X6615420Y-34525984D02*
X6615420Y-34392650D01*
X6615420Y-34411698D02*
X6624943Y-34402174D01*
X6624943Y-34402174D02*
X6643991Y-34392650D01*
X6643991Y-34392650D02*
X6672563Y-34392650D01*
X6672563Y-34392650D02*
X6691610Y-34402174D01*
X6691610Y-34402174D02*
X6701134Y-34421222D01*
X6701134Y-34421222D02*
X6701134Y-34525984D01*
X6701134Y-34421222D02*
X6710658Y-34402174D01*
X6710658Y-34402174D02*
X6729705Y-34392650D01*
X6729705Y-34392650D02*
X6758277Y-34392650D01*
X6758277Y-34392650D02*
X6777324Y-34402174D01*
X6777324Y-34402174D02*
X6786848Y-34421222D01*
X6786848Y-34421222D02*
X6786848Y-34525984D01*
X6882086Y-34525984D02*
X6882086Y-34392650D01*
X6882086Y-34411698D02*
X6891610Y-34402174D01*
X6891610Y-34402174D02*
X6910658Y-34392650D01*
X6910658Y-34392650D02*
X6939229Y-34392650D01*
X6939229Y-34392650D02*
X6958277Y-34402174D01*
X6958277Y-34402174D02*
X6967801Y-34421222D01*
X6967801Y-34421222D02*
X6967801Y-34525984D01*
X6967801Y-34421222D02*
X6977324Y-34402174D01*
X6977324Y-34402174D02*
X6996372Y-34392650D01*
X6996372Y-34392650D02*
X7024943Y-34392650D01*
X7024943Y-34392650D02*
X7043991Y-34402174D01*
X7043991Y-34402174D02*
X7053515Y-34421222D01*
X7053515Y-34421222D02*
X7053515Y-34525984D01*
X7443991Y-34316460D02*
X7272563Y-34573603D01*
X7701134Y-34325984D02*
X7720182Y-34325984D01*
X7720182Y-34325984D02*
X7739229Y-34335508D01*
X7739229Y-34335508D02*
X7748753Y-34345031D01*
X7748753Y-34345031D02*
X7758277Y-34364079D01*
X7758277Y-34364079D02*
X7767801Y-34402174D01*
X7767801Y-34402174D02*
X7767801Y-34449793D01*
X7767801Y-34449793D02*
X7758277Y-34487889D01*
X7758277Y-34487889D02*
X7748753Y-34506936D01*
X7748753Y-34506936D02*
X7739229Y-34516460D01*
X7739229Y-34516460D02*
X7720182Y-34525984D01*
X7720182Y-34525984D02*
X7701134Y-34525984D01*
X7701134Y-34525984D02*
X7682086Y-34516460D01*
X7682086Y-34516460D02*
X7672563Y-34506936D01*
X7672563Y-34506936D02*
X7663039Y-34487889D01*
X7663039Y-34487889D02*
X7653515Y-34449793D01*
X7653515Y-34449793D02*
X7653515Y-34402174D01*
X7653515Y-34402174D02*
X7663039Y-34364079D01*
X7663039Y-34364079D02*
X7672563Y-34345031D01*
X7672563Y-34345031D02*
X7682086Y-34335508D01*
X7682086Y-34335508D02*
X7701134Y-34325984D01*
X7853515Y-34506936D02*
X7863039Y-34516460D01*
X7863039Y-34516460D02*
X7853515Y-34525984D01*
X7853515Y-34525984D02*
X7843991Y-34516460D01*
X7843991Y-34516460D02*
X7853515Y-34506936D01*
X7853515Y-34506936D02*
X7853515Y-34525984D01*
X7986848Y-34325984D02*
X8005896Y-34325984D01*
X8005896Y-34325984D02*
X8024944Y-34335508D01*
X8024944Y-34335508D02*
X8034467Y-34345031D01*
X8034467Y-34345031D02*
X8043991Y-34364079D01*
X8043991Y-34364079D02*
X8053515Y-34402174D01*
X8053515Y-34402174D02*
X8053515Y-34449793D01*
X8053515Y-34449793D02*
X8043991Y-34487889D01*
X8043991Y-34487889D02*
X8034467Y-34506936D01*
X8034467Y-34506936D02*
X8024944Y-34516460D01*
X8024944Y-34516460D02*
X8005896Y-34525984D01*
X8005896Y-34525984D02*
X7986848Y-34525984D01*
X7986848Y-34525984D02*
X7967801Y-34516460D01*
X7967801Y-34516460D02*
X7958277Y-34506936D01*
X7958277Y-34506936D02*
X7948753Y-34487889D01*
X7948753Y-34487889D02*
X7939229Y-34449793D01*
X7939229Y-34449793D02*
X7939229Y-34402174D01*
X7939229Y-34402174D02*
X7948753Y-34364079D01*
X7948753Y-34364079D02*
X7958277Y-34345031D01*
X7958277Y-34345031D02*
X7967801Y-34335508D01*
X7967801Y-34335508D02*
X7986848Y-34325984D01*
X8120182Y-34325984D02*
X8243991Y-34325984D01*
X8243991Y-34325984D02*
X8177325Y-34402174D01*
X8177325Y-34402174D02*
X8205896Y-34402174D01*
X8205896Y-34402174D02*
X8224944Y-34411698D01*
X8224944Y-34411698D02*
X8234467Y-34421222D01*
X8234467Y-34421222D02*
X8243991Y-34440270D01*
X8243991Y-34440270D02*
X8243991Y-34487889D01*
X8243991Y-34487889D02*
X8234467Y-34506936D01*
X8234467Y-34506936D02*
X8224944Y-34516460D01*
X8224944Y-34516460D02*
X8205896Y-34525984D01*
X8205896Y-34525984D02*
X8148753Y-34525984D01*
X8148753Y-34525984D02*
X8129706Y-34516460D01*
X8129706Y-34516460D02*
X8120182Y-34506936D01*
X8310658Y-34325984D02*
X8434468Y-34325984D01*
X8434468Y-34325984D02*
X8367801Y-34402174D01*
X8367801Y-34402174D02*
X8396372Y-34402174D01*
X8396372Y-34402174D02*
X8415420Y-34411698D01*
X8415420Y-34411698D02*
X8424944Y-34421222D01*
X8424944Y-34421222D02*
X8434468Y-34440270D01*
X8434468Y-34440270D02*
X8434468Y-34487889D01*
X8434468Y-34487889D02*
X8424944Y-34506936D01*
X8424944Y-34506936D02*
X8415420Y-34516460D01*
X8415420Y-34516460D02*
X8396372Y-34525984D01*
X8396372Y-34525984D02*
X8339229Y-34525984D01*
X8339229Y-34525984D02*
X8320182Y-34516460D01*
X8320182Y-34516460D02*
X8310658Y-34506936D01*
X8624944Y-34525984D02*
X8510658Y-34525984D01*
X8567801Y-34525984D02*
X8567801Y-34325984D01*
X8567801Y-34325984D02*
X8548753Y-34354555D01*
X8548753Y-34354555D02*
X8529706Y-34373603D01*
X8529706Y-34373603D02*
X8510658Y-34383127D01*
X8701134Y-34325984D02*
X8701134Y-34364079D01*
X8777325Y-34325984D02*
X8777325Y-34364079D01*
X9072563Y-34602174D02*
X9063039Y-34592650D01*
X9063039Y-34592650D02*
X9043991Y-34564079D01*
X9043991Y-34564079D02*
X9034468Y-34545031D01*
X9034468Y-34545031D02*
X9024944Y-34516460D01*
X9024944Y-34516460D02*
X9015420Y-34468841D01*
X9015420Y-34468841D02*
X9015420Y-34430746D01*
X9015420Y-34430746D02*
X9024944Y-34383127D01*
X9024944Y-34383127D02*
X9034468Y-34354555D01*
X9034468Y-34354555D02*
X9043991Y-34335508D01*
X9043991Y-34335508D02*
X9063039Y-34306936D01*
X9063039Y-34306936D02*
X9072563Y-34297412D01*
X9234468Y-34392650D02*
X9234468Y-34525984D01*
X9186849Y-34316460D02*
X9139230Y-34459317D01*
X9139230Y-34459317D02*
X9263039Y-34459317D01*
X9491611Y-34525984D02*
X9491611Y-34325984D01*
X9577325Y-34525984D02*
X9577325Y-34421222D01*
X9577325Y-34421222D02*
X9567801Y-34402174D01*
X9567801Y-34402174D02*
X9548753Y-34392650D01*
X9548753Y-34392650D02*
X9520182Y-34392650D01*
X9520182Y-34392650D02*
X9501134Y-34402174D01*
X9501134Y-34402174D02*
X9491611Y-34411698D01*
X9701134Y-34525984D02*
X9682087Y-34516460D01*
X9682087Y-34516460D02*
X9672563Y-34506936D01*
X9672563Y-34506936D02*
X9663039Y-34487889D01*
X9663039Y-34487889D02*
X9663039Y-34430746D01*
X9663039Y-34430746D02*
X9672563Y-34411698D01*
X9672563Y-34411698D02*
X9682087Y-34402174D01*
X9682087Y-34402174D02*
X9701134Y-34392650D01*
X9701134Y-34392650D02*
X9729706Y-34392650D01*
X9729706Y-34392650D02*
X9748753Y-34402174D01*
X9748753Y-34402174D02*
X9758277Y-34411698D01*
X9758277Y-34411698D02*
X9767801Y-34430746D01*
X9767801Y-34430746D02*
X9767801Y-34487889D01*
X9767801Y-34487889D02*
X9758277Y-34506936D01*
X9758277Y-34506936D02*
X9748753Y-34516460D01*
X9748753Y-34516460D02*
X9729706Y-34525984D01*
X9729706Y-34525984D02*
X9701134Y-34525984D01*
X9882087Y-34525984D02*
X9863039Y-34516460D01*
X9863039Y-34516460D02*
X9853515Y-34497412D01*
X9853515Y-34497412D02*
X9853515Y-34325984D01*
X10034468Y-34516460D02*
X10015420Y-34525984D01*
X10015420Y-34525984D02*
X9977325Y-34525984D01*
X9977325Y-34525984D02*
X9958277Y-34516460D01*
X9958277Y-34516460D02*
X9948753Y-34497412D01*
X9948753Y-34497412D02*
X9948753Y-34421222D01*
X9948753Y-34421222D02*
X9958277Y-34402174D01*
X9958277Y-34402174D02*
X9977325Y-34392650D01*
X9977325Y-34392650D02*
X10015420Y-34392650D01*
X10015420Y-34392650D02*
X10034468Y-34402174D01*
X10034468Y-34402174D02*
X10043992Y-34421222D01*
X10043992Y-34421222D02*
X10043992Y-34440270D01*
X10043992Y-34440270D02*
X9948753Y-34459317D01*
X10120182Y-34516460D02*
X10139230Y-34525984D01*
X10139230Y-34525984D02*
X10177325Y-34525984D01*
X10177325Y-34525984D02*
X10196373Y-34516460D01*
X10196373Y-34516460D02*
X10205896Y-34497412D01*
X10205896Y-34497412D02*
X10205896Y-34487889D01*
X10205896Y-34487889D02*
X10196373Y-34468841D01*
X10196373Y-34468841D02*
X10177325Y-34459317D01*
X10177325Y-34459317D02*
X10148753Y-34459317D01*
X10148753Y-34459317D02*
X10129706Y-34449793D01*
X10129706Y-34449793D02*
X10120182Y-34430746D01*
X10120182Y-34430746D02*
X10120182Y-34421222D01*
X10120182Y-34421222D02*
X10129706Y-34402174D01*
X10129706Y-34402174D02*
X10148753Y-34392650D01*
X10148753Y-34392650D02*
X10177325Y-34392650D01*
X10177325Y-34392650D02*
X10196373Y-34402174D01*
X10272563Y-34602174D02*
X10282087Y-34592650D01*
X10282087Y-34592650D02*
X10301134Y-34564079D01*
X10301134Y-34564079D02*
X10310658Y-34545031D01*
X10310658Y-34545031D02*
X10320182Y-34516460D01*
X10320182Y-34516460D02*
X10329706Y-34468841D01*
X10329706Y-34468841D02*
X10329706Y-34430746D01*
X10329706Y-34430746D02*
X10320182Y-34383127D01*
X10320182Y-34383127D02*
X10310658Y-34354555D01*
X10310658Y-34354555D02*
X10301134Y-34335508D01*
X10301134Y-34335508D02*
X10282087Y-34306936D01*
X10282087Y-34306936D02*
X10272563Y-34297412D01*
D13*
X5442500Y-34753500D02*
X5497500Y-34698500D01*
X5442500Y-34643500D01*
X5387500Y-34698500D01*
X5442500Y-34753500D01*
D12*
X5863039Y-34789984D02*
X5748753Y-34789984D01*
X5805896Y-34789984D02*
X5805896Y-34589984D01*
X5805896Y-34589984D02*
X5786848Y-34618555D01*
X5786848Y-34618555D02*
X5767801Y-34637603D01*
X5767801Y-34637603D02*
X5748753Y-34647127D01*
X5948753Y-34770936D02*
X5958277Y-34780460D01*
X5958277Y-34780460D02*
X5948753Y-34789984D01*
X5948753Y-34789984D02*
X5939229Y-34780460D01*
X5939229Y-34780460D02*
X5948753Y-34770936D01*
X5948753Y-34770936D02*
X5948753Y-34789984D01*
X6148753Y-34789984D02*
X6034467Y-34789984D01*
X6091610Y-34789984D02*
X6091610Y-34589984D01*
X6091610Y-34589984D02*
X6072562Y-34618555D01*
X6072562Y-34618555D02*
X6053515Y-34637603D01*
X6053515Y-34637603D02*
X6034467Y-34647127D01*
X6272562Y-34589984D02*
X6291610Y-34589984D01*
X6291610Y-34589984D02*
X6310658Y-34599508D01*
X6310658Y-34599508D02*
X6320182Y-34609031D01*
X6320182Y-34609031D02*
X6329705Y-34628079D01*
X6329705Y-34628079D02*
X6339229Y-34666174D01*
X6339229Y-34666174D02*
X6339229Y-34713793D01*
X6339229Y-34713793D02*
X6329705Y-34751889D01*
X6329705Y-34751889D02*
X6320182Y-34770936D01*
X6320182Y-34770936D02*
X6310658Y-34780460D01*
X6310658Y-34780460D02*
X6291610Y-34789984D01*
X6291610Y-34789984D02*
X6272562Y-34789984D01*
X6272562Y-34789984D02*
X6253515Y-34780460D01*
X6253515Y-34780460D02*
X6243991Y-34770936D01*
X6243991Y-34770936D02*
X6234467Y-34751889D01*
X6234467Y-34751889D02*
X6224943Y-34713793D01*
X6224943Y-34713793D02*
X6224943Y-34666174D01*
X6224943Y-34666174D02*
X6234467Y-34628079D01*
X6234467Y-34628079D02*
X6243991Y-34609031D01*
X6243991Y-34609031D02*
X6253515Y-34599508D01*
X6253515Y-34599508D02*
X6272562Y-34589984D01*
X6463039Y-34589984D02*
X6482086Y-34589984D01*
X6482086Y-34589984D02*
X6501134Y-34599508D01*
X6501134Y-34599508D02*
X6510658Y-34609031D01*
X6510658Y-34609031D02*
X6520182Y-34628079D01*
X6520182Y-34628079D02*
X6529705Y-34666174D01*
X6529705Y-34666174D02*
X6529705Y-34713793D01*
X6529705Y-34713793D02*
X6520182Y-34751889D01*
X6520182Y-34751889D02*
X6510658Y-34770936D01*
X6510658Y-34770936D02*
X6501134Y-34780460D01*
X6501134Y-34780460D02*
X6482086Y-34789984D01*
X6482086Y-34789984D02*
X6463039Y-34789984D01*
X6463039Y-34789984D02*
X6443991Y-34780460D01*
X6443991Y-34780460D02*
X6434467Y-34770936D01*
X6434467Y-34770936D02*
X6424943Y-34751889D01*
X6424943Y-34751889D02*
X6415420Y-34713793D01*
X6415420Y-34713793D02*
X6415420Y-34666174D01*
X6415420Y-34666174D02*
X6424943Y-34628079D01*
X6424943Y-34628079D02*
X6434467Y-34609031D01*
X6434467Y-34609031D02*
X6443991Y-34599508D01*
X6443991Y-34599508D02*
X6463039Y-34589984D01*
X6615420Y-34789984D02*
X6615420Y-34656650D01*
X6615420Y-34675698D02*
X6624943Y-34666174D01*
X6624943Y-34666174D02*
X6643991Y-34656650D01*
X6643991Y-34656650D02*
X6672563Y-34656650D01*
X6672563Y-34656650D02*
X6691610Y-34666174D01*
X6691610Y-34666174D02*
X6701134Y-34685222D01*
X6701134Y-34685222D02*
X6701134Y-34789984D01*
X6701134Y-34685222D02*
X6710658Y-34666174D01*
X6710658Y-34666174D02*
X6729705Y-34656650D01*
X6729705Y-34656650D02*
X6758277Y-34656650D01*
X6758277Y-34656650D02*
X6777324Y-34666174D01*
X6777324Y-34666174D02*
X6786848Y-34685222D01*
X6786848Y-34685222D02*
X6786848Y-34789984D01*
X6882086Y-34789984D02*
X6882086Y-34656650D01*
X6882086Y-34675698D02*
X6891610Y-34666174D01*
X6891610Y-34666174D02*
X6910658Y-34656650D01*
X6910658Y-34656650D02*
X6939229Y-34656650D01*
X6939229Y-34656650D02*
X6958277Y-34666174D01*
X6958277Y-34666174D02*
X6967801Y-34685222D01*
X6967801Y-34685222D02*
X6967801Y-34789984D01*
X6967801Y-34685222D02*
X6977324Y-34666174D01*
X6977324Y-34666174D02*
X6996372Y-34656650D01*
X6996372Y-34656650D02*
X7024943Y-34656650D01*
X7024943Y-34656650D02*
X7043991Y-34666174D01*
X7043991Y-34666174D02*
X7053515Y-34685222D01*
X7053515Y-34685222D02*
X7053515Y-34789984D01*
X7443991Y-34580460D02*
X7272563Y-34837603D01*
X7701134Y-34589984D02*
X7720182Y-34589984D01*
X7720182Y-34589984D02*
X7739229Y-34599508D01*
X7739229Y-34599508D02*
X7748753Y-34609031D01*
X7748753Y-34609031D02*
X7758277Y-34628079D01*
X7758277Y-34628079D02*
X7767801Y-34666174D01*
X7767801Y-34666174D02*
X7767801Y-34713793D01*
X7767801Y-34713793D02*
X7758277Y-34751889D01*
X7758277Y-34751889D02*
X7748753Y-34770936D01*
X7748753Y-34770936D02*
X7739229Y-34780460D01*
X7739229Y-34780460D02*
X7720182Y-34789984D01*
X7720182Y-34789984D02*
X7701134Y-34789984D01*
X7701134Y-34789984D02*
X7682086Y-34780460D01*
X7682086Y-34780460D02*
X7672563Y-34770936D01*
X7672563Y-34770936D02*
X7663039Y-34751889D01*
X7663039Y-34751889D02*
X7653515Y-34713793D01*
X7653515Y-34713793D02*
X7653515Y-34666174D01*
X7653515Y-34666174D02*
X7663039Y-34628079D01*
X7663039Y-34628079D02*
X7672563Y-34609031D01*
X7672563Y-34609031D02*
X7682086Y-34599508D01*
X7682086Y-34599508D02*
X7701134Y-34589984D01*
X7853515Y-34770936D02*
X7863039Y-34780460D01*
X7863039Y-34780460D02*
X7853515Y-34789984D01*
X7853515Y-34789984D02*
X7843991Y-34780460D01*
X7843991Y-34780460D02*
X7853515Y-34770936D01*
X7853515Y-34770936D02*
X7853515Y-34789984D01*
X7986848Y-34589984D02*
X8005896Y-34589984D01*
X8005896Y-34589984D02*
X8024944Y-34599508D01*
X8024944Y-34599508D02*
X8034467Y-34609031D01*
X8034467Y-34609031D02*
X8043991Y-34628079D01*
X8043991Y-34628079D02*
X8053515Y-34666174D01*
X8053515Y-34666174D02*
X8053515Y-34713793D01*
X8053515Y-34713793D02*
X8043991Y-34751889D01*
X8043991Y-34751889D02*
X8034467Y-34770936D01*
X8034467Y-34770936D02*
X8024944Y-34780460D01*
X8024944Y-34780460D02*
X8005896Y-34789984D01*
X8005896Y-34789984D02*
X7986848Y-34789984D01*
X7986848Y-34789984D02*
X7967801Y-34780460D01*
X7967801Y-34780460D02*
X7958277Y-34770936D01*
X7958277Y-34770936D02*
X7948753Y-34751889D01*
X7948753Y-34751889D02*
X7939229Y-34713793D01*
X7939229Y-34713793D02*
X7939229Y-34666174D01*
X7939229Y-34666174D02*
X7948753Y-34628079D01*
X7948753Y-34628079D02*
X7958277Y-34609031D01*
X7958277Y-34609031D02*
X7967801Y-34599508D01*
X7967801Y-34599508D02*
X7986848Y-34589984D01*
X8224944Y-34656650D02*
X8224944Y-34789984D01*
X8177325Y-34580460D02*
X8129706Y-34723317D01*
X8129706Y-34723317D02*
X8253515Y-34723317D01*
X8310658Y-34589984D02*
X8434468Y-34589984D01*
X8434468Y-34589984D02*
X8367801Y-34666174D01*
X8367801Y-34666174D02*
X8396372Y-34666174D01*
X8396372Y-34666174D02*
X8415420Y-34675698D01*
X8415420Y-34675698D02*
X8424944Y-34685222D01*
X8424944Y-34685222D02*
X8434468Y-34704270D01*
X8434468Y-34704270D02*
X8434468Y-34751889D01*
X8434468Y-34751889D02*
X8424944Y-34770936D01*
X8424944Y-34770936D02*
X8415420Y-34780460D01*
X8415420Y-34780460D02*
X8396372Y-34789984D01*
X8396372Y-34789984D02*
X8339229Y-34789984D01*
X8339229Y-34789984D02*
X8320182Y-34780460D01*
X8320182Y-34780460D02*
X8310658Y-34770936D01*
X8501134Y-34589984D02*
X8624944Y-34589984D01*
X8624944Y-34589984D02*
X8558277Y-34666174D01*
X8558277Y-34666174D02*
X8586849Y-34666174D01*
X8586849Y-34666174D02*
X8605896Y-34675698D01*
X8605896Y-34675698D02*
X8615420Y-34685222D01*
X8615420Y-34685222D02*
X8624944Y-34704270D01*
X8624944Y-34704270D02*
X8624944Y-34751889D01*
X8624944Y-34751889D02*
X8615420Y-34770936D01*
X8615420Y-34770936D02*
X8605896Y-34780460D01*
X8605896Y-34780460D02*
X8586849Y-34789984D01*
X8586849Y-34789984D02*
X8529706Y-34789984D01*
X8529706Y-34789984D02*
X8510658Y-34780460D01*
X8510658Y-34780460D02*
X8501134Y-34770936D01*
X8701134Y-34589984D02*
X8701134Y-34628079D01*
X8777325Y-34589984D02*
X8777325Y-34628079D01*
X9072563Y-34866174D02*
X9063039Y-34856650D01*
X9063039Y-34856650D02*
X9043991Y-34828079D01*
X9043991Y-34828079D02*
X9034468Y-34809031D01*
X9034468Y-34809031D02*
X9024944Y-34780460D01*
X9024944Y-34780460D02*
X9015420Y-34732841D01*
X9015420Y-34732841D02*
X9015420Y-34694746D01*
X9015420Y-34694746D02*
X9024944Y-34647127D01*
X9024944Y-34647127D02*
X9034468Y-34618555D01*
X9034468Y-34618555D02*
X9043991Y-34599508D01*
X9043991Y-34599508D02*
X9063039Y-34570936D01*
X9063039Y-34570936D02*
X9072563Y-34561412D01*
X9253515Y-34789984D02*
X9139230Y-34789984D01*
X9196372Y-34789984D02*
X9196372Y-34589984D01*
X9196372Y-34589984D02*
X9177325Y-34618555D01*
X9177325Y-34618555D02*
X9158277Y-34637603D01*
X9158277Y-34637603D02*
X9139230Y-34647127D01*
X9491611Y-34789984D02*
X9491611Y-34589984D01*
X9577325Y-34789984D02*
X9577325Y-34685222D01*
X9577325Y-34685222D02*
X9567801Y-34666174D01*
X9567801Y-34666174D02*
X9548753Y-34656650D01*
X9548753Y-34656650D02*
X9520182Y-34656650D01*
X9520182Y-34656650D02*
X9501134Y-34666174D01*
X9501134Y-34666174D02*
X9491611Y-34675698D01*
X9701134Y-34789984D02*
X9682087Y-34780460D01*
X9682087Y-34780460D02*
X9672563Y-34770936D01*
X9672563Y-34770936D02*
X9663039Y-34751889D01*
X9663039Y-34751889D02*
X9663039Y-34694746D01*
X9663039Y-34694746D02*
X9672563Y-34675698D01*
X9672563Y-34675698D02*
X9682087Y-34666174D01*
X9682087Y-34666174D02*
X9701134Y-34656650D01*
X9701134Y-34656650D02*
X9729706Y-34656650D01*
X9729706Y-34656650D02*
X9748753Y-34666174D01*
X9748753Y-34666174D02*
X9758277Y-34675698D01*
X9758277Y-34675698D02*
X9767801Y-34694746D01*
X9767801Y-34694746D02*
X9767801Y-34751889D01*
X9767801Y-34751889D02*
X9758277Y-34770936D01*
X9758277Y-34770936D02*
X9748753Y-34780460D01*
X9748753Y-34780460D02*
X9729706Y-34789984D01*
X9729706Y-34789984D02*
X9701134Y-34789984D01*
X9882087Y-34789984D02*
X9863039Y-34780460D01*
X9863039Y-34780460D02*
X9853515Y-34761412D01*
X9853515Y-34761412D02*
X9853515Y-34589984D01*
X10034468Y-34780460D02*
X10015420Y-34789984D01*
X10015420Y-34789984D02*
X9977325Y-34789984D01*
X9977325Y-34789984D02*
X9958277Y-34780460D01*
X9958277Y-34780460D02*
X9948753Y-34761412D01*
X9948753Y-34761412D02*
X9948753Y-34685222D01*
X9948753Y-34685222D02*
X9958277Y-34666174D01*
X9958277Y-34666174D02*
X9977325Y-34656650D01*
X9977325Y-34656650D02*
X10015420Y-34656650D01*
X10015420Y-34656650D02*
X10034468Y-34666174D01*
X10034468Y-34666174D02*
X10043992Y-34685222D01*
X10043992Y-34685222D02*
X10043992Y-34704270D01*
X10043992Y-34704270D02*
X9948753Y-34723317D01*
X10110658Y-34866174D02*
X10120182Y-34856650D01*
X10120182Y-34856650D02*
X10139230Y-34828079D01*
X10139230Y-34828079D02*
X10148753Y-34809031D01*
X10148753Y-34809031D02*
X10158277Y-34780460D01*
X10158277Y-34780460D02*
X10167801Y-34732841D01*
X10167801Y-34732841D02*
X10167801Y-34694746D01*
X10167801Y-34694746D02*
X10158277Y-34647127D01*
X10158277Y-34647127D02*
X10148753Y-34618555D01*
X10148753Y-34618555D02*
X10139230Y-34599508D01*
X10139230Y-34599508D02*
X10120182Y-34570936D01*
X10120182Y-34570936D02*
X10110658Y-34561412D01*
D14*
X5347500Y-34887500D02*
X5497500Y-35037500D01*
X5497500Y-34887500D02*
X5347500Y-35037500D01*
X5497500Y-34962500D02*
G75*
G02*
X5347500Y-34962500I-75000J0D01*
G01*
X5347500Y-34962500D02*
G75*
G02*
X5497500Y-34962500I75000J0D01*
G01*
D12*
X5863039Y-35053984D02*
X5748753Y-35053984D01*
X5805896Y-35053984D02*
X5805896Y-34853984D01*
X5805896Y-34853984D02*
X5786848Y-34882555D01*
X5786848Y-34882555D02*
X5767801Y-34901603D01*
X5767801Y-34901603D02*
X5748753Y-34911127D01*
X5948753Y-35034936D02*
X5958277Y-35044460D01*
X5958277Y-35044460D02*
X5948753Y-35053984D01*
X5948753Y-35053984D02*
X5939229Y-35044460D01*
X5939229Y-35044460D02*
X5948753Y-35034936D01*
X5948753Y-35034936D02*
X5948753Y-35053984D01*
X6139229Y-34853984D02*
X6043991Y-34853984D01*
X6043991Y-34853984D02*
X6034467Y-34949222D01*
X6034467Y-34949222D02*
X6043991Y-34939698D01*
X6043991Y-34939698D02*
X6063039Y-34930174D01*
X6063039Y-34930174D02*
X6110658Y-34930174D01*
X6110658Y-34930174D02*
X6129705Y-34939698D01*
X6129705Y-34939698D02*
X6139229Y-34949222D01*
X6139229Y-34949222D02*
X6148753Y-34968270D01*
X6148753Y-34968270D02*
X6148753Y-35015889D01*
X6148753Y-35015889D02*
X6139229Y-35034936D01*
X6139229Y-35034936D02*
X6129705Y-35044460D01*
X6129705Y-35044460D02*
X6110658Y-35053984D01*
X6110658Y-35053984D02*
X6063039Y-35053984D01*
X6063039Y-35053984D02*
X6043991Y-35044460D01*
X6043991Y-35044460D02*
X6034467Y-35034936D01*
X6272562Y-34853984D02*
X6291610Y-34853984D01*
X6291610Y-34853984D02*
X6310658Y-34863508D01*
X6310658Y-34863508D02*
X6320182Y-34873031D01*
X6320182Y-34873031D02*
X6329705Y-34892079D01*
X6329705Y-34892079D02*
X6339229Y-34930174D01*
X6339229Y-34930174D02*
X6339229Y-34977793D01*
X6339229Y-34977793D02*
X6329705Y-35015889D01*
X6329705Y-35015889D02*
X6320182Y-35034936D01*
X6320182Y-35034936D02*
X6310658Y-35044460D01*
X6310658Y-35044460D02*
X6291610Y-35053984D01*
X6291610Y-35053984D02*
X6272562Y-35053984D01*
X6272562Y-35053984D02*
X6253515Y-35044460D01*
X6253515Y-35044460D02*
X6243991Y-35034936D01*
X6243991Y-35034936D02*
X6234467Y-35015889D01*
X6234467Y-35015889D02*
X6224943Y-34977793D01*
X6224943Y-34977793D02*
X6224943Y-34930174D01*
X6224943Y-34930174D02*
X6234467Y-34892079D01*
X6234467Y-34892079D02*
X6243991Y-34873031D01*
X6243991Y-34873031D02*
X6253515Y-34863508D01*
X6253515Y-34863508D02*
X6272562Y-34853984D01*
X6463039Y-34853984D02*
X6482086Y-34853984D01*
X6482086Y-34853984D02*
X6501134Y-34863508D01*
X6501134Y-34863508D02*
X6510658Y-34873031D01*
X6510658Y-34873031D02*
X6520182Y-34892079D01*
X6520182Y-34892079D02*
X6529705Y-34930174D01*
X6529705Y-34930174D02*
X6529705Y-34977793D01*
X6529705Y-34977793D02*
X6520182Y-35015889D01*
X6520182Y-35015889D02*
X6510658Y-35034936D01*
X6510658Y-35034936D02*
X6501134Y-35044460D01*
X6501134Y-35044460D02*
X6482086Y-35053984D01*
X6482086Y-35053984D02*
X6463039Y-35053984D01*
X6463039Y-35053984D02*
X6443991Y-35044460D01*
X6443991Y-35044460D02*
X6434467Y-35034936D01*
X6434467Y-35034936D02*
X6424943Y-35015889D01*
X6424943Y-35015889D02*
X6415420Y-34977793D01*
X6415420Y-34977793D02*
X6415420Y-34930174D01*
X6415420Y-34930174D02*
X6424943Y-34892079D01*
X6424943Y-34892079D02*
X6434467Y-34873031D01*
X6434467Y-34873031D02*
X6443991Y-34863508D01*
X6443991Y-34863508D02*
X6463039Y-34853984D01*
X6615420Y-35053984D02*
X6615420Y-34920650D01*
X6615420Y-34939698D02*
X6624943Y-34930174D01*
X6624943Y-34930174D02*
X6643991Y-34920650D01*
X6643991Y-34920650D02*
X6672563Y-34920650D01*
X6672563Y-34920650D02*
X6691610Y-34930174D01*
X6691610Y-34930174D02*
X6701134Y-34949222D01*
X6701134Y-34949222D02*
X6701134Y-35053984D01*
X6701134Y-34949222D02*
X6710658Y-34930174D01*
X6710658Y-34930174D02*
X6729705Y-34920650D01*
X6729705Y-34920650D02*
X6758277Y-34920650D01*
X6758277Y-34920650D02*
X6777324Y-34930174D01*
X6777324Y-34930174D02*
X6786848Y-34949222D01*
X6786848Y-34949222D02*
X6786848Y-35053984D01*
X6882086Y-35053984D02*
X6882086Y-34920650D01*
X6882086Y-34939698D02*
X6891610Y-34930174D01*
X6891610Y-34930174D02*
X6910658Y-34920650D01*
X6910658Y-34920650D02*
X6939229Y-34920650D01*
X6939229Y-34920650D02*
X6958277Y-34930174D01*
X6958277Y-34930174D02*
X6967801Y-34949222D01*
X6967801Y-34949222D02*
X6967801Y-35053984D01*
X6967801Y-34949222D02*
X6977324Y-34930174D01*
X6977324Y-34930174D02*
X6996372Y-34920650D01*
X6996372Y-34920650D02*
X7024943Y-34920650D01*
X7024943Y-34920650D02*
X7043991Y-34930174D01*
X7043991Y-34930174D02*
X7053515Y-34949222D01*
X7053515Y-34949222D02*
X7053515Y-35053984D01*
X7443991Y-34844460D02*
X7272563Y-35101603D01*
X7701134Y-34853984D02*
X7720182Y-34853984D01*
X7720182Y-34853984D02*
X7739229Y-34863508D01*
X7739229Y-34863508D02*
X7748753Y-34873031D01*
X7748753Y-34873031D02*
X7758277Y-34892079D01*
X7758277Y-34892079D02*
X7767801Y-34930174D01*
X7767801Y-34930174D02*
X7767801Y-34977793D01*
X7767801Y-34977793D02*
X7758277Y-35015889D01*
X7758277Y-35015889D02*
X7748753Y-35034936D01*
X7748753Y-35034936D02*
X7739229Y-35044460D01*
X7739229Y-35044460D02*
X7720182Y-35053984D01*
X7720182Y-35053984D02*
X7701134Y-35053984D01*
X7701134Y-35053984D02*
X7682086Y-35044460D01*
X7682086Y-35044460D02*
X7672563Y-35034936D01*
X7672563Y-35034936D02*
X7663039Y-35015889D01*
X7663039Y-35015889D02*
X7653515Y-34977793D01*
X7653515Y-34977793D02*
X7653515Y-34930174D01*
X7653515Y-34930174D02*
X7663039Y-34892079D01*
X7663039Y-34892079D02*
X7672563Y-34873031D01*
X7672563Y-34873031D02*
X7682086Y-34863508D01*
X7682086Y-34863508D02*
X7701134Y-34853984D01*
X7853515Y-35034936D02*
X7863039Y-35044460D01*
X7863039Y-35044460D02*
X7853515Y-35053984D01*
X7853515Y-35053984D02*
X7843991Y-35044460D01*
X7843991Y-35044460D02*
X7853515Y-35034936D01*
X7853515Y-35034936D02*
X7853515Y-35053984D01*
X7986848Y-34853984D02*
X8005896Y-34853984D01*
X8005896Y-34853984D02*
X8024944Y-34863508D01*
X8024944Y-34863508D02*
X8034467Y-34873031D01*
X8034467Y-34873031D02*
X8043991Y-34892079D01*
X8043991Y-34892079D02*
X8053515Y-34930174D01*
X8053515Y-34930174D02*
X8053515Y-34977793D01*
X8053515Y-34977793D02*
X8043991Y-35015889D01*
X8043991Y-35015889D02*
X8034467Y-35034936D01*
X8034467Y-35034936D02*
X8024944Y-35044460D01*
X8024944Y-35044460D02*
X8005896Y-35053984D01*
X8005896Y-35053984D02*
X7986848Y-35053984D01*
X7986848Y-35053984D02*
X7967801Y-35044460D01*
X7967801Y-35044460D02*
X7958277Y-35034936D01*
X7958277Y-35034936D02*
X7948753Y-35015889D01*
X7948753Y-35015889D02*
X7939229Y-34977793D01*
X7939229Y-34977793D02*
X7939229Y-34930174D01*
X7939229Y-34930174D02*
X7948753Y-34892079D01*
X7948753Y-34892079D02*
X7958277Y-34873031D01*
X7958277Y-34873031D02*
X7967801Y-34863508D01*
X7967801Y-34863508D02*
X7986848Y-34853984D01*
X8234467Y-34853984D02*
X8139229Y-34853984D01*
X8139229Y-34853984D02*
X8129706Y-34949222D01*
X8129706Y-34949222D02*
X8139229Y-34939698D01*
X8139229Y-34939698D02*
X8158277Y-34930174D01*
X8158277Y-34930174D02*
X8205896Y-34930174D01*
X8205896Y-34930174D02*
X8224944Y-34939698D01*
X8224944Y-34939698D02*
X8234467Y-34949222D01*
X8234467Y-34949222D02*
X8243991Y-34968270D01*
X8243991Y-34968270D02*
X8243991Y-35015889D01*
X8243991Y-35015889D02*
X8234467Y-35034936D01*
X8234467Y-35034936D02*
X8224944Y-35044460D01*
X8224944Y-35044460D02*
X8205896Y-35053984D01*
X8205896Y-35053984D02*
X8158277Y-35053984D01*
X8158277Y-35053984D02*
X8139229Y-35044460D01*
X8139229Y-35044460D02*
X8129706Y-35034936D01*
X8339229Y-35053984D02*
X8377325Y-35053984D01*
X8377325Y-35053984D02*
X8396372Y-35044460D01*
X8396372Y-35044460D02*
X8405896Y-35034936D01*
X8405896Y-35034936D02*
X8424944Y-35006365D01*
X8424944Y-35006365D02*
X8434468Y-34968270D01*
X8434468Y-34968270D02*
X8434468Y-34892079D01*
X8434468Y-34892079D02*
X8424944Y-34873031D01*
X8424944Y-34873031D02*
X8415420Y-34863508D01*
X8415420Y-34863508D02*
X8396372Y-34853984D01*
X8396372Y-34853984D02*
X8358277Y-34853984D01*
X8358277Y-34853984D02*
X8339229Y-34863508D01*
X8339229Y-34863508D02*
X8329706Y-34873031D01*
X8329706Y-34873031D02*
X8320182Y-34892079D01*
X8320182Y-34892079D02*
X8320182Y-34939698D01*
X8320182Y-34939698D02*
X8329706Y-34958746D01*
X8329706Y-34958746D02*
X8339229Y-34968270D01*
X8339229Y-34968270D02*
X8358277Y-34977793D01*
X8358277Y-34977793D02*
X8396372Y-34977793D01*
X8396372Y-34977793D02*
X8415420Y-34968270D01*
X8415420Y-34968270D02*
X8424944Y-34958746D01*
X8424944Y-34958746D02*
X8434468Y-34939698D01*
X8624944Y-35053984D02*
X8510658Y-35053984D01*
X8567801Y-35053984D02*
X8567801Y-34853984D01*
X8567801Y-34853984D02*
X8548753Y-34882555D01*
X8548753Y-34882555D02*
X8529706Y-34901603D01*
X8529706Y-34901603D02*
X8510658Y-34911127D01*
X8701134Y-34853984D02*
X8701134Y-34892079D01*
X8777325Y-34853984D02*
X8777325Y-34892079D01*
X9072563Y-35130174D02*
X9063039Y-35120650D01*
X9063039Y-35120650D02*
X9043991Y-35092079D01*
X9043991Y-35092079D02*
X9034468Y-35073031D01*
X9034468Y-35073031D02*
X9024944Y-35044460D01*
X9024944Y-35044460D02*
X9015420Y-34996841D01*
X9015420Y-34996841D02*
X9015420Y-34958746D01*
X9015420Y-34958746D02*
X9024944Y-34911127D01*
X9024944Y-34911127D02*
X9034468Y-34882555D01*
X9034468Y-34882555D02*
X9043991Y-34863508D01*
X9043991Y-34863508D02*
X9063039Y-34834936D01*
X9063039Y-34834936D02*
X9072563Y-34825412D01*
X9234468Y-34920650D02*
X9234468Y-35053984D01*
X9186849Y-34844460D02*
X9139230Y-34987317D01*
X9139230Y-34987317D02*
X9263039Y-34987317D01*
X9491611Y-35053984D02*
X9491611Y-34853984D01*
X9577325Y-35053984D02*
X9577325Y-34949222D01*
X9577325Y-34949222D02*
X9567801Y-34930174D01*
X9567801Y-34930174D02*
X9548753Y-34920650D01*
X9548753Y-34920650D02*
X9520182Y-34920650D01*
X9520182Y-34920650D02*
X9501134Y-34930174D01*
X9501134Y-34930174D02*
X9491611Y-34939698D01*
X9701134Y-35053984D02*
X9682087Y-35044460D01*
X9682087Y-35044460D02*
X9672563Y-35034936D01*
X9672563Y-35034936D02*
X9663039Y-35015889D01*
X9663039Y-35015889D02*
X9663039Y-34958746D01*
X9663039Y-34958746D02*
X9672563Y-34939698D01*
X9672563Y-34939698D02*
X9682087Y-34930174D01*
X9682087Y-34930174D02*
X9701134Y-34920650D01*
X9701134Y-34920650D02*
X9729706Y-34920650D01*
X9729706Y-34920650D02*
X9748753Y-34930174D01*
X9748753Y-34930174D02*
X9758277Y-34939698D01*
X9758277Y-34939698D02*
X9767801Y-34958746D01*
X9767801Y-34958746D02*
X9767801Y-35015889D01*
X9767801Y-35015889D02*
X9758277Y-35034936D01*
X9758277Y-35034936D02*
X9748753Y-35044460D01*
X9748753Y-35044460D02*
X9729706Y-35053984D01*
X9729706Y-35053984D02*
X9701134Y-35053984D01*
X9882087Y-35053984D02*
X9863039Y-35044460D01*
X9863039Y-35044460D02*
X9853515Y-35025412D01*
X9853515Y-35025412D02*
X9853515Y-34853984D01*
X10034468Y-35044460D02*
X10015420Y-35053984D01*
X10015420Y-35053984D02*
X9977325Y-35053984D01*
X9977325Y-35053984D02*
X9958277Y-35044460D01*
X9958277Y-35044460D02*
X9948753Y-35025412D01*
X9948753Y-35025412D02*
X9948753Y-34949222D01*
X9948753Y-34949222D02*
X9958277Y-34930174D01*
X9958277Y-34930174D02*
X9977325Y-34920650D01*
X9977325Y-34920650D02*
X10015420Y-34920650D01*
X10015420Y-34920650D02*
X10034468Y-34930174D01*
X10034468Y-34930174D02*
X10043992Y-34949222D01*
X10043992Y-34949222D02*
X10043992Y-34968270D01*
X10043992Y-34968270D02*
X9948753Y-34987317D01*
X10120182Y-35044460D02*
X10139230Y-35053984D01*
X10139230Y-35053984D02*
X10177325Y-35053984D01*
X10177325Y-35053984D02*
X10196373Y-35044460D01*
X10196373Y-35044460D02*
X10205896Y-35025412D01*
X10205896Y-35025412D02*
X10205896Y-35015889D01*
X10205896Y-35015889D02*
X10196373Y-34996841D01*
X10196373Y-34996841D02*
X10177325Y-34987317D01*
X10177325Y-34987317D02*
X10148753Y-34987317D01*
X10148753Y-34987317D02*
X10129706Y-34977793D01*
X10129706Y-34977793D02*
X10120182Y-34958746D01*
X10120182Y-34958746D02*
X10120182Y-34949222D01*
X10120182Y-34949222D02*
X10129706Y-34930174D01*
X10129706Y-34930174D02*
X10148753Y-34920650D01*
X10148753Y-34920650D02*
X10177325Y-34920650D01*
X10177325Y-34920650D02*
X10196373Y-34930174D01*
X10272563Y-35130174D02*
X10282087Y-35120650D01*
X10282087Y-35120650D02*
X10301134Y-35092079D01*
X10301134Y-35092079D02*
X10310658Y-35073031D01*
X10310658Y-35073031D02*
X10320182Y-35044460D01*
X10320182Y-35044460D02*
X10329706Y-34996841D01*
X10329706Y-34996841D02*
X10329706Y-34958746D01*
X10329706Y-34958746D02*
X10320182Y-34911127D01*
X10320182Y-34911127D02*
X10310658Y-34882555D01*
X10310658Y-34882555D02*
X10301134Y-34863508D01*
X10301134Y-34863508D02*
X10282087Y-34834936D01*
X10282087Y-34834936D02*
X10272563Y-34825412D01*
M02*
