M48
; DRILL file {KiCad 8.0.2-1} date 2024-08-01T10:45:15-0400
; FORMAT={-:-/ absolute / inch / decimal}
; #@! TF.CreationDate,2024-08-01T10:45:15-04:00
; #@! TF.GenerationSoftware,Kicad,Pcbnew,8.0.2-1
; #@! TF.FileFunction,Plated,1,2,PTH
FMAT,2
INCH
; #@! TA.AperFunction,Plated,PTH,ViaDrill
T1C0.0118
; #@! TA.AperFunction,Plated,PTH,ViaDrill
T2C0.0157
; #@! TA.AperFunction,Plated,PTH,ComponentDrill
T3C0.0157
; #@! TA.AperFunction,Plated,PTH,ComponentDrill
T4C0.0331
; #@! TA.AperFunction,Plated,PTH,ComponentDrill
T5C0.0433
; #@! TA.AperFunction,Plated,PTH,ComponentDrill
T6C0.0591
%
G90
G05
T1
X2.252Y-6.8346
X2.252Y-6.8661
X2.252Y-6.8976
X2.252Y-6.9291
X2.252Y-6.9606
X2.252Y-6.9921
X2.252Y-7.1496
X2.252Y-7.1811
X2.252Y-7.2126
X2.252Y-7.2441
X2.252Y-7.2756
X2.252Y-7.3071
X2.2539Y-3.685
X2.2539Y-3.7165
X2.2539Y-3.748
X2.2539Y-3.7795
X2.2539Y-3.811
X2.2539Y-3.8425
X2.2539Y-4.0
X2.2539Y-4.0315
X2.2539Y-4.063
X2.2539Y-4.0945
X2.2539Y-4.126
X2.2539Y-4.1575
X2.2539Y-4.189
X2.6142Y-7.2913
X2.6142Y-7.7165
X2.6535Y-4.0
X2.6614Y-4.2126
X2.6614Y-4.5118
X2.6693Y-3.8425
X2.6821Y-3.6663
X2.685Y-4.0472
X2.685Y-4.1575
X2.685Y-4.2677
X2.6929Y-6.8976
X2.7047Y-3.8031
X2.7323Y-7.5591
X2.7362Y-4.1181
X2.7402Y-3.685
X2.7979Y-7.5603
X2.7992Y-3.4803
X2.815Y-7.1339
X2.8307Y-6.7205
X2.8386Y-6.8425
X2.8631Y-7.9065
X2.8701Y-3.6772
X2.8976Y-7.5157
X2.9252Y-7.4252
X2.9409Y-7.8799
T2
X2.8543Y-12.2402
X2.8583Y-12.6772
T3
X4.0295Y-2.7323
X4.0295Y-2.7913
X4.0295Y-4.6535
X4.0295Y-4.7126
X4.0295Y-6.5748
X4.0295Y-6.6339
X4.0295Y-8.4961
X4.0295Y-8.5551
X4.0295Y-10.4173
X4.0295Y-10.4764
X4.0512Y-2.8386
X4.0512Y-4.7598
X4.0512Y-6.6811
X4.0512Y-8.6024
X4.0512Y-10.5236
X4.0591Y-2.689
X4.0591Y-4.6102
X4.0591Y-6.5315
X4.0591Y-8.4528
X4.0591Y-10.374
X4.2205Y-2.689
X4.2205Y-4.6102
X4.2205Y-6.5315
X4.2205Y-8.4528
X4.2205Y-10.374
X5.9508Y-2.7323
X5.9508Y-2.7913
X5.9508Y-4.6535
X5.9508Y-4.7126
X5.9508Y-6.5748
X5.9508Y-6.6339
X5.9508Y-8.4961
X5.9508Y-8.5551
X5.9508Y-10.4173
X5.9508Y-10.4764
X5.9724Y-2.8386
X5.9724Y-4.7598
X5.9724Y-6.6811
X5.9724Y-8.6024
X5.9724Y-10.5236
X5.9803Y-2.689
X5.9803Y-4.6102
X5.9803Y-6.5315
X5.9803Y-8.4528
X5.9803Y-10.374
X6.1417Y-2.689
X6.1417Y-4.6102
X6.1417Y-6.5315
X6.1417Y-8.4528
X6.1417Y-10.374
X7.872Y-2.7323
X7.872Y-2.7913
X7.872Y-4.6535
X7.872Y-4.7126
X7.872Y-6.5748
X7.872Y-6.6339
X7.872Y-8.4961
X7.872Y-8.5551
X7.872Y-10.4173
X7.872Y-10.4764
X7.8937Y-2.8386
X7.8937Y-4.7598
X7.8937Y-6.6811
X7.8937Y-8.6024
X7.8937Y-10.5236
X7.9016Y-2.689
X7.9016Y-4.6102
X7.9016Y-6.5315
X7.9016Y-8.4528
X7.9016Y-10.374
X8.063Y-2.689
X8.063Y-4.6102
X8.063Y-6.5315
X8.063Y-8.4528
X8.063Y-10.374
X9.7933Y-2.7323
X9.7933Y-2.7913
X9.7933Y-4.6535
X9.7933Y-4.7126
X9.7933Y-6.5748
X9.7933Y-6.6339
X9.7933Y-8.4961
X9.7933Y-8.5551
X9.7933Y-10.4173
X9.7933Y-10.4764
X9.815Y-2.8386
X9.815Y-4.7598
X9.815Y-6.6811
X9.815Y-8.6024
X9.815Y-10.5236
X9.8228Y-2.689
X9.8228Y-4.6102
X9.8228Y-6.5315
X9.8228Y-8.4528
X9.8228Y-10.374
X9.9843Y-2.689
X9.9843Y-4.6102
X9.9843Y-6.5315
X9.9843Y-8.4528
X9.9843Y-10.374
X11.7146Y-2.7323
X11.7146Y-2.7913
X11.7146Y-4.6535
X11.7146Y-4.7126
X11.7146Y-6.5748
X11.7146Y-6.6339
X11.7146Y-8.4961
X11.7146Y-8.5551
X11.7146Y-10.4173
X11.7146Y-10.4764
X11.7362Y-2.8386
X11.7362Y-4.7598
X11.7362Y-6.6811
X11.7362Y-8.6024
X11.7362Y-10.5236
X11.7441Y-2.689
X11.7441Y-4.6102
X11.7441Y-6.5315
X11.7441Y-8.4528
X11.7441Y-10.374
X11.9055Y-2.689
X11.9055Y-4.6102
X11.9055Y-6.5315
X11.9055Y-8.4528
X11.9055Y-10.374
T4
X2.3622Y-3.5632
X2.3622Y-4.3108
X2.3622Y-6.7128
X2.3622Y-7.4604
T5
X2.4803Y-12.4961
T6
X2.2825Y-12.2982
X2.2825Y-12.6939
X2.6781Y-12.2982
X2.6781Y-12.6939
M30
