%TF.GenerationSoftware,KiCad,Pcbnew,8.0.2-1*%
%TF.CreationDate,2024-10-01T13:51:40-04:00*%
%TF.ProjectId,OddLayers_1.3mm_SiPM,4f64644c-6179-4657-9273-5f312e336d6d,rev?*%
%TF.SameCoordinates,Original*%
%TF.FileFunction,Profile,NP*%
%FSLAX46Y46*%
G04 Gerber Fmt 4.6, Leading zero omitted, Abs format (unit mm)*
G04 Created by KiCad (PCBNEW 8.0.2-1) date 2024-10-01 13:51:40*
%MOMM*%
%LPD*%
G01*
G04 APERTURE LIST*
%TA.AperFunction,Profile*%
%ADD10C,0.100000*%
%TD*%
%TA.AperFunction,Profile*%
%ADD11C,0.050000*%
%TD*%
G04 APERTURE END LIST*
D10*
X71600000Y-300000000D02*
G75*
G02*
X68400000Y-300000000I-1600000J0D01*
G01*
X68400000Y-300000000D02*
G75*
G02*
X71600000Y-300000000I1600000J0D01*
G01*
X71600000Y-60000000D02*
G75*
G02*
X68400000Y-60000000I-1600000J0D01*
G01*
X68400000Y-60000000D02*
G75*
G02*
X71600000Y-60000000I1600000J0D01*
G01*
D11*
X55000000Y-240000000D02*
X55000000Y-325000000D01*
X67000000Y-120000000D02*
X55000000Y-120000000D01*
X55000000Y-80000000D02*
X55000000Y-120000000D01*
X67000000Y-240000000D02*
X67000000Y-200000000D01*
X55000000Y-160000000D02*
X65000000Y-160000000D01*
X55000000Y-35000000D02*
X352000000Y-35000000D01*
X55000000Y-200000000D02*
X55000000Y-160000000D01*
X55000000Y-80000000D02*
X55000000Y-35000000D01*
X67000000Y-200000000D02*
X55000000Y-200000000D01*
D10*
X71600000Y-140000000D02*
G75*
G02*
X68400000Y-140000000I-1600000J0D01*
G01*
X68400000Y-140000000D02*
G75*
G02*
X71600000Y-140000000I1600000J0D01*
G01*
D11*
X352000000Y-35000000D02*
X352000000Y-325000000D01*
X67000000Y-160000000D02*
X65000000Y-160000000D01*
X67000000Y-160000000D02*
X67000000Y-120000000D01*
X352000000Y-325000000D02*
X55000000Y-325000000D01*
X55000000Y-240000000D02*
X67000000Y-240000000D01*
M02*
