%TF.GenerationSoftware,KiCad,Pcbnew,(6.0.8-1)-1*%
%TF.CreationDate,2022-11-16T14:14:46-05:00*%
%TF.ProjectId,Untitled,556e7469-746c-4656-942e-6b696361645f,rev?*%
%TF.SameCoordinates,Original*%
%TF.FileFunction,Legend,Bot*%
%TF.FilePolarity,Positive*%
%FSLAX46Y46*%
G04 Gerber Fmt 4.6, Leading zero omitted, Abs format (unit mm)*
G04 Created by KiCad (PCBNEW (6.0.8-1)-1) date 2022-11-16 14:14:46*
%MOMM*%
%LPD*%
G01*
G04 APERTURE LIST*
%ADD10C,0.150000*%
%ADD11C,0.300000*%
%ADD12C,0.120000*%
G04 APERTURE END LIST*
D10*
X63204761Y-99149996D02*
X63252380Y-99292853D01*
X63252380Y-99530948D01*
X63204761Y-99626186D01*
X63157142Y-99673805D01*
X63061904Y-99721425D01*
X62966666Y-99721425D01*
X62871428Y-99673805D01*
X62823809Y-99626186D01*
X62776190Y-99530948D01*
X62728571Y-99340472D01*
X62680952Y-99245234D01*
X62633333Y-99197615D01*
X62538095Y-99149996D01*
X62442857Y-99149996D01*
X62347619Y-99197615D01*
X62300000Y-99245234D01*
X62252380Y-99340472D01*
X62252380Y-99578567D01*
X62300000Y-99721425D01*
X63252380Y-100149996D02*
X62585714Y-100149996D01*
X62252380Y-100149996D02*
X62300000Y-100102377D01*
X62347619Y-100149996D01*
X62300000Y-100197615D01*
X62252380Y-100149996D01*
X62347619Y-100149996D01*
X63252380Y-100626186D02*
X62252380Y-100626186D01*
X62252380Y-101007139D01*
X62300000Y-101102377D01*
X62347619Y-101149996D01*
X62442857Y-101197615D01*
X62585714Y-101197615D01*
X62680952Y-101149996D01*
X62728571Y-101102377D01*
X62776190Y-101007139D01*
X62776190Y-100626186D01*
X63252380Y-101626186D02*
X62252380Y-101626186D01*
X62966666Y-101959520D01*
X62252380Y-102292853D01*
X63252380Y-102292853D01*
X62252380Y-103197615D02*
X62252380Y-103007139D01*
X62300000Y-102911901D01*
X62347619Y-102864282D01*
X62490476Y-102769044D01*
X62680952Y-102721425D01*
X63061904Y-102721425D01*
X63157142Y-102769044D01*
X63204761Y-102816663D01*
X63252380Y-102911901D01*
X63252380Y-103102377D01*
X63204761Y-103197615D01*
X63157142Y-103245234D01*
X63061904Y-103292853D01*
X62823809Y-103292853D01*
X62728571Y-103245234D01*
X62680952Y-103197615D01*
X62633333Y-103102377D01*
X62633333Y-102911901D01*
X62680952Y-102816663D01*
X62728571Y-102769044D01*
X62823809Y-102721425D01*
X62252380Y-45811904D02*
X62252380Y-46383332D01*
X63252380Y-46097618D02*
X62252380Y-46097618D01*
X63204761Y-47097618D02*
X63252380Y-47002380D01*
X63252380Y-46811904D01*
X63204761Y-46716666D01*
X63109523Y-46669047D01*
X62728571Y-46669047D01*
X62633333Y-46716666D01*
X62585714Y-46811904D01*
X62585714Y-47002380D01*
X62633333Y-47097618D01*
X62728571Y-47145237D01*
X62823809Y-47145237D01*
X62919047Y-46669047D01*
X63252380Y-47573808D02*
X62585714Y-47573808D01*
X62680952Y-47573808D02*
X62633333Y-47621428D01*
X62585714Y-47716666D01*
X62585714Y-47859523D01*
X62633333Y-47954761D01*
X62728571Y-48002380D01*
X63252380Y-48002380D01*
X62728571Y-48002380D02*
X62633333Y-48049999D01*
X62585714Y-48145237D01*
X62585714Y-48288094D01*
X62633333Y-48383332D01*
X62728571Y-48430951D01*
X63252380Y-48430951D01*
X62585714Y-48907142D02*
X63585714Y-48907142D01*
X62633333Y-48907142D02*
X62585714Y-49002380D01*
X62585714Y-49192856D01*
X62633333Y-49288094D01*
X62680952Y-49335713D01*
X62776190Y-49383332D01*
X63061904Y-49383332D01*
X63157142Y-49335713D01*
X63204761Y-49288094D01*
X63252380Y-49192856D01*
X63252380Y-49002380D01*
X63204761Y-48907142D01*
X63252380Y-50335713D02*
X63252380Y-49764285D01*
X63252380Y-50049999D02*
X62252380Y-50049999D01*
X62395238Y-49954761D01*
X62490476Y-49859523D01*
X62538095Y-49764285D01*
D11*
X97671428Y-121256071D02*
X97671428Y-119756071D01*
X97314285Y-119756071D01*
X97100000Y-119827500D01*
X96957142Y-119970357D01*
X96885714Y-120113214D01*
X96814285Y-120398928D01*
X96814285Y-120613214D01*
X96885714Y-120898928D01*
X96957142Y-121041785D01*
X97100000Y-121184642D01*
X97314285Y-121256071D01*
X97671428Y-121256071D01*
X95600000Y-121184642D02*
X95742857Y-121256071D01*
X96028571Y-121256071D01*
X96171428Y-121184642D01*
X96242857Y-121041785D01*
X96242857Y-120470357D01*
X96171428Y-120327500D01*
X96028571Y-120256071D01*
X95742857Y-120256071D01*
X95600000Y-120327500D01*
X95528571Y-120470357D01*
X95528571Y-120613214D01*
X96242857Y-120756071D01*
X94957142Y-121184642D02*
X94814285Y-121256071D01*
X94528571Y-121256071D01*
X94385714Y-121184642D01*
X94314285Y-121041785D01*
X94314285Y-120970357D01*
X94385714Y-120827500D01*
X94528571Y-120756071D01*
X94742857Y-120756071D01*
X94885714Y-120684642D01*
X94957142Y-120541785D01*
X94957142Y-120470357D01*
X94885714Y-120327500D01*
X94742857Y-120256071D01*
X94528571Y-120256071D01*
X94385714Y-120327500D01*
X93671428Y-121256071D02*
X93671428Y-120256071D01*
X93671428Y-119756071D02*
X93742857Y-119827500D01*
X93671428Y-119898928D01*
X93600000Y-119827500D01*
X93671428Y-119756071D01*
X93671428Y-119898928D01*
X92314285Y-120256071D02*
X92314285Y-121470357D01*
X92385714Y-121613214D01*
X92457142Y-121684642D01*
X92600000Y-121756071D01*
X92814285Y-121756071D01*
X92957142Y-121684642D01*
X92314285Y-121184642D02*
X92457142Y-121256071D01*
X92742857Y-121256071D01*
X92885714Y-121184642D01*
X92957142Y-121113214D01*
X93028571Y-120970357D01*
X93028571Y-120541785D01*
X92957142Y-120398928D01*
X92885714Y-120327500D01*
X92742857Y-120256071D01*
X92457142Y-120256071D01*
X92314285Y-120327500D01*
X91600000Y-120256071D02*
X91600000Y-121256071D01*
X91600000Y-120398928D02*
X91528571Y-120327500D01*
X91385714Y-120256071D01*
X91171428Y-120256071D01*
X91028571Y-120327500D01*
X90957142Y-120470357D01*
X90957142Y-121256071D01*
X89671428Y-121184642D02*
X89814285Y-121256071D01*
X90100000Y-121256071D01*
X90242857Y-121184642D01*
X90314285Y-121041785D01*
X90314285Y-120470357D01*
X90242857Y-120327500D01*
X90100000Y-120256071D01*
X89814285Y-120256071D01*
X89671428Y-120327500D01*
X89600000Y-120470357D01*
X89600000Y-120613214D01*
X90314285Y-120756071D01*
X88314285Y-121256071D02*
X88314285Y-119756071D01*
X88314285Y-121184642D02*
X88457142Y-121256071D01*
X88742857Y-121256071D01*
X88885714Y-121184642D01*
X88957142Y-121113214D01*
X89028571Y-120970357D01*
X89028571Y-120541785D01*
X88957142Y-120398928D01*
X88885714Y-120327500D01*
X88742857Y-120256071D01*
X88457142Y-120256071D01*
X88314285Y-120327500D01*
X86457142Y-121256071D02*
X86457142Y-119756071D01*
X86457142Y-120327500D02*
X86314285Y-120256071D01*
X86028571Y-120256071D01*
X85885714Y-120327500D01*
X85814285Y-120398928D01*
X85742857Y-120541785D01*
X85742857Y-120970357D01*
X85814285Y-121113214D01*
X85885714Y-121184642D01*
X86028571Y-121256071D01*
X86314285Y-121256071D01*
X86457142Y-121184642D01*
X85242857Y-120256071D02*
X84885714Y-121256071D01*
X84528571Y-120256071D02*
X84885714Y-121256071D01*
X85028571Y-121613214D01*
X85100000Y-121684642D01*
X85242857Y-121756071D01*
X98600000Y-123599642D02*
X98385714Y-123671071D01*
X98028571Y-123671071D01*
X97885714Y-123599642D01*
X97814285Y-123528214D01*
X97742857Y-123385357D01*
X97742857Y-123242500D01*
X97814285Y-123099642D01*
X97885714Y-123028214D01*
X98028571Y-122956785D01*
X98314285Y-122885357D01*
X98457142Y-122813928D01*
X98528571Y-122742500D01*
X98600000Y-122599642D01*
X98600000Y-122456785D01*
X98528571Y-122313928D01*
X98457142Y-122242500D01*
X98314285Y-122171071D01*
X97957142Y-122171071D01*
X97742857Y-122242500D01*
X96528571Y-123599642D02*
X96671428Y-123671071D01*
X96957142Y-123671071D01*
X97100000Y-123599642D01*
X97171428Y-123456785D01*
X97171428Y-122885357D01*
X97100000Y-122742500D01*
X96957142Y-122671071D01*
X96671428Y-122671071D01*
X96528571Y-122742500D01*
X96457142Y-122885357D01*
X96457142Y-123028214D01*
X97171428Y-123171071D01*
X95814285Y-123671071D02*
X95814285Y-122171071D01*
X95814285Y-122742500D02*
X95671428Y-122671071D01*
X95385714Y-122671071D01*
X95242857Y-122742500D01*
X95171428Y-122813928D01*
X95100000Y-122956785D01*
X95100000Y-123385357D01*
X95171428Y-123528214D01*
X95242857Y-123599642D01*
X95385714Y-123671071D01*
X95671428Y-123671071D01*
X95814285Y-123599642D01*
X94242857Y-123671071D02*
X94385714Y-123599642D01*
X94457142Y-123528214D01*
X94528571Y-123385357D01*
X94528571Y-122956785D01*
X94457142Y-122813928D01*
X94385714Y-122742500D01*
X94242857Y-122671071D01*
X94028571Y-122671071D01*
X93885714Y-122742500D01*
X93814285Y-122813928D01*
X93742857Y-122956785D01*
X93742857Y-123385357D01*
X93814285Y-123528214D01*
X93885714Y-123599642D01*
X94028571Y-123671071D01*
X94242857Y-123671071D01*
X92457142Y-122671071D02*
X92457142Y-123671071D01*
X93100000Y-122671071D02*
X93100000Y-123456785D01*
X93028571Y-123599642D01*
X92885714Y-123671071D01*
X92671428Y-123671071D01*
X92528571Y-123599642D01*
X92457142Y-123528214D01*
X91742857Y-123671071D02*
X91742857Y-122171071D01*
X91100000Y-123671071D02*
X91100000Y-122885357D01*
X91171428Y-122742500D01*
X91314285Y-122671071D01*
X91528571Y-122671071D01*
X91671428Y-122742500D01*
X91742857Y-122813928D01*
X88814285Y-122171071D02*
X88814285Y-123242500D01*
X88885714Y-123456785D01*
X89028571Y-123599642D01*
X89242857Y-123671071D01*
X89385714Y-123671071D01*
X86957142Y-123671071D02*
X86957142Y-122171071D01*
X86385714Y-122171071D01*
X86242857Y-122242500D01*
X86171428Y-122313928D01*
X86100000Y-122456785D01*
X86100000Y-122671071D01*
X86171428Y-122813928D01*
X86242857Y-122885357D01*
X86385714Y-122956785D01*
X86957142Y-122956785D01*
X84814285Y-123671071D02*
X84814285Y-122885357D01*
X84885714Y-122742500D01*
X85028571Y-122671071D01*
X85314285Y-122671071D01*
X85457142Y-122742500D01*
X84814285Y-123599642D02*
X84957142Y-123671071D01*
X85314285Y-123671071D01*
X85457142Y-123599642D01*
X85528571Y-123456785D01*
X85528571Y-123313928D01*
X85457142Y-123171071D01*
X85314285Y-123099642D01*
X84957142Y-123099642D01*
X84814285Y-123028214D01*
X83457142Y-122671071D02*
X83457142Y-123671071D01*
X84100000Y-122671071D02*
X84100000Y-123456785D01*
X84028571Y-123599642D01*
X83885714Y-123671071D01*
X83671428Y-123671071D01*
X83528571Y-123599642D01*
X83457142Y-123528214D01*
X82528571Y-123671071D02*
X82671428Y-123599642D01*
X82742857Y-123456785D01*
X82742857Y-122171071D01*
X95814285Y-127001071D02*
X95314285Y-128501071D01*
X94814285Y-127001071D01*
X93742857Y-128429642D02*
X93885714Y-128501071D01*
X94171428Y-128501071D01*
X94314285Y-128429642D01*
X94385714Y-128286785D01*
X94385714Y-127715357D01*
X94314285Y-127572500D01*
X94171428Y-127501071D01*
X93885714Y-127501071D01*
X93742857Y-127572500D01*
X93671428Y-127715357D01*
X93671428Y-127858214D01*
X94385714Y-128001071D01*
X93028571Y-128501071D02*
X93028571Y-127501071D01*
X93028571Y-127786785D02*
X92957142Y-127643928D01*
X92885714Y-127572500D01*
X92742857Y-127501071D01*
X92600000Y-127501071D01*
X92171428Y-128429642D02*
X92028571Y-128501071D01*
X91742857Y-128501071D01*
X91600000Y-128429642D01*
X91528571Y-128286785D01*
X91528571Y-128215357D01*
X91600000Y-128072500D01*
X91742857Y-128001071D01*
X91957142Y-128001071D01*
X92100000Y-127929642D01*
X92171428Y-127786785D01*
X92171428Y-127715357D01*
X92100000Y-127572500D01*
X91957142Y-127501071D01*
X91742857Y-127501071D01*
X91600000Y-127572500D01*
X90885714Y-128501071D02*
X90885714Y-127501071D01*
X90885714Y-127001071D02*
X90957142Y-127072500D01*
X90885714Y-127143928D01*
X90814285Y-127072500D01*
X90885714Y-127001071D01*
X90885714Y-127143928D01*
X89957142Y-128501071D02*
X90100000Y-128429642D01*
X90171428Y-128358214D01*
X90242857Y-128215357D01*
X90242857Y-127786785D01*
X90171428Y-127643928D01*
X90100000Y-127572500D01*
X89957142Y-127501071D01*
X89742857Y-127501071D01*
X89600000Y-127572500D01*
X89528571Y-127643928D01*
X89457142Y-127786785D01*
X89457142Y-128215357D01*
X89528571Y-128358214D01*
X89600000Y-128429642D01*
X89742857Y-128501071D01*
X89957142Y-128501071D01*
X88814285Y-127501071D02*
X88814285Y-128501071D01*
X88814285Y-127643928D02*
X88742857Y-127572500D01*
X88600000Y-127501071D01*
X88385714Y-127501071D01*
X88242857Y-127572500D01*
X88171428Y-127715357D01*
X88171428Y-128501071D01*
X85671428Y-127501071D02*
X85671428Y-128501071D01*
X86028571Y-126929642D02*
X86385714Y-128001071D01*
X85457142Y-128001071D01*
D10*
X63204761Y-81592854D02*
X63252380Y-81735711D01*
X63252380Y-81973806D01*
X63204761Y-82069044D01*
X63157142Y-82116663D01*
X63061904Y-82164283D01*
X62966666Y-82164283D01*
X62871428Y-82116663D01*
X62823809Y-82069044D01*
X62776190Y-81973806D01*
X62728571Y-81783330D01*
X62680952Y-81688092D01*
X62633333Y-81640473D01*
X62538095Y-81592854D01*
X62442857Y-81592854D01*
X62347619Y-81640473D01*
X62300000Y-81688092D01*
X62252380Y-81783330D01*
X62252380Y-82021425D01*
X62300000Y-82164283D01*
X63252380Y-82592854D02*
X62585714Y-82592854D01*
X62252380Y-82592854D02*
X62300000Y-82545235D01*
X62347619Y-82592854D01*
X62300000Y-82640473D01*
X62252380Y-82592854D01*
X62347619Y-82592854D01*
X63252380Y-83069044D02*
X62252380Y-83069044D01*
X62252380Y-83449997D01*
X62300000Y-83545235D01*
X62347619Y-83592854D01*
X62442857Y-83640473D01*
X62585714Y-83640473D01*
X62680952Y-83592854D01*
X62728571Y-83545235D01*
X62776190Y-83449997D01*
X62776190Y-83069044D01*
X63252380Y-84069044D02*
X62252380Y-84069044D01*
X62966666Y-84402378D01*
X62252380Y-84735711D01*
X63252380Y-84735711D01*
X62585714Y-85640473D02*
X63252380Y-85640473D01*
X62204761Y-85402378D02*
X62919047Y-85164283D01*
X62919047Y-85783330D01*
X62252380Y-63654760D02*
X62252380Y-64226188D01*
X63252380Y-63940474D02*
X62252380Y-63940474D01*
X63204761Y-64940474D02*
X63252380Y-64845236D01*
X63252380Y-64654760D01*
X63204761Y-64559522D01*
X63109523Y-64511903D01*
X62728571Y-64511903D01*
X62633333Y-64559522D01*
X62585714Y-64654760D01*
X62585714Y-64845236D01*
X62633333Y-64940474D01*
X62728571Y-64988093D01*
X62823809Y-64988093D01*
X62919047Y-64511903D01*
X63252380Y-65416664D02*
X62585714Y-65416664D01*
X62680952Y-65416664D02*
X62633333Y-65464284D01*
X62585714Y-65559522D01*
X62585714Y-65702379D01*
X62633333Y-65797617D01*
X62728571Y-65845236D01*
X63252380Y-65845236D01*
X62728571Y-65845236D02*
X62633333Y-65892855D01*
X62585714Y-65988093D01*
X62585714Y-66130950D01*
X62633333Y-66226188D01*
X62728571Y-66273807D01*
X63252380Y-66273807D01*
X62585714Y-66749998D02*
X63585714Y-66749998D01*
X62633333Y-66749998D02*
X62585714Y-66845236D01*
X62585714Y-67035712D01*
X62633333Y-67130950D01*
X62680952Y-67178569D01*
X62776190Y-67226188D01*
X63061904Y-67226188D01*
X63157142Y-67178569D01*
X63204761Y-67130950D01*
X63252380Y-67035712D01*
X63252380Y-66845236D01*
X63204761Y-66749998D01*
X62585714Y-68083331D02*
X63252380Y-68083331D01*
X62204761Y-67845236D02*
X62919047Y-67607141D01*
X62919047Y-68226188D01*
%TO.C,REF\u002A\u002A*%
X59702480Y-82019166D02*
X59226290Y-81685833D01*
X59702480Y-81447738D02*
X58702480Y-81447738D01*
X58702480Y-81828690D01*
X58750100Y-81923928D01*
X58797719Y-81971547D01*
X58892957Y-82019166D01*
X59035814Y-82019166D01*
X59131052Y-81971547D01*
X59178671Y-81923928D01*
X59226290Y-81828690D01*
X59226290Y-81447738D01*
X59178671Y-82447738D02*
X59178671Y-82781071D01*
X59702480Y-82923928D02*
X59702480Y-82447738D01*
X58702480Y-82447738D01*
X58702480Y-82923928D01*
X59178671Y-83685833D02*
X59178671Y-83352500D01*
X59702480Y-83352500D02*
X58702480Y-83352500D01*
X58702480Y-83828690D01*
X58702480Y-84352500D02*
X58940576Y-84352500D01*
X58845338Y-84114404D02*
X58940576Y-84352500D01*
X58845338Y-84590595D01*
X59131052Y-84209642D02*
X58940576Y-84352500D01*
X59131052Y-84495357D01*
X58702480Y-85114404D02*
X58940576Y-85114404D01*
X58845338Y-84876309D02*
X58940576Y-85114404D01*
X58845338Y-85352500D01*
X59131052Y-84971547D02*
X58940576Y-85114404D01*
X59131052Y-85257261D01*
X59607242Y-74947738D02*
X59654861Y-74900119D01*
X59702480Y-74757261D01*
X59702480Y-74662023D01*
X59654861Y-74519166D01*
X59559623Y-74423928D01*
X59464385Y-74376309D01*
X59273909Y-74328690D01*
X59131052Y-74328690D01*
X58940576Y-74376309D01*
X58845338Y-74423928D01*
X58750100Y-74519166D01*
X58702480Y-74662023D01*
X58702480Y-74757261D01*
X58750100Y-74900119D01*
X58797719Y-74947738D01*
X58702480Y-75566785D02*
X58702480Y-75757261D01*
X58750100Y-75852500D01*
X58845338Y-75947738D01*
X59035814Y-75995357D01*
X59369147Y-75995357D01*
X59559623Y-75947738D01*
X59654861Y-75852500D01*
X59702480Y-75757261D01*
X59702480Y-75566785D01*
X59654861Y-75471547D01*
X59559623Y-75376309D01*
X59369147Y-75328690D01*
X59035814Y-75328690D01*
X58845338Y-75376309D01*
X58750100Y-75471547D01*
X58702480Y-75566785D01*
X59702480Y-76423928D02*
X58702480Y-76423928D01*
X59702480Y-76995357D01*
X58702480Y-76995357D01*
X59702480Y-77471547D02*
X58702480Y-77471547D01*
X59702480Y-78042976D01*
X58702480Y-78042976D01*
X59797719Y-78281071D02*
X59797719Y-79042976D01*
X58702480Y-79185833D02*
X58702480Y-79804880D01*
X59083433Y-79471547D01*
X59083433Y-79614404D01*
X59131052Y-79709642D01*
X59178671Y-79757261D01*
X59273909Y-79804880D01*
X59512004Y-79804880D01*
X59607242Y-79757261D01*
X59654861Y-79709642D01*
X59702480Y-79614404D01*
X59702480Y-79328690D01*
X59654861Y-79233452D01*
X59607242Y-79185833D01*
X59321528Y-80233452D02*
X59321528Y-80995357D01*
X59702480Y-81995357D02*
X59702480Y-81423928D01*
X59702480Y-81709642D02*
X58702480Y-81709642D01*
X58845338Y-81614404D01*
X58940576Y-81519166D01*
X58988195Y-81423928D01*
X58702480Y-82614404D02*
X58702480Y-82709642D01*
X58750100Y-82804880D01*
X58797719Y-82852500D01*
X58892957Y-82900119D01*
X59083433Y-82947738D01*
X59321528Y-82947738D01*
X59512004Y-82900119D01*
X59607242Y-82852500D01*
X59654861Y-82804880D01*
X59702480Y-82709642D01*
X59702480Y-82614404D01*
X59654861Y-82519166D01*
X59607242Y-82471547D01*
X59512004Y-82423928D01*
X59321528Y-82376309D01*
X59083433Y-82376309D01*
X58892957Y-82423928D01*
X58797719Y-82471547D01*
X58750100Y-82519166D01*
X58702480Y-82614404D01*
X58797719Y-83328690D02*
X58750100Y-83376309D01*
X58702480Y-83471547D01*
X58702480Y-83709642D01*
X58750100Y-83804880D01*
X58797719Y-83852500D01*
X58892957Y-83900119D01*
X58988195Y-83900119D01*
X59131052Y-83852500D01*
X59702480Y-83281071D01*
X59702480Y-83900119D01*
X58797719Y-84281071D02*
X58750100Y-84328690D01*
X58702480Y-84423928D01*
X58702480Y-84662023D01*
X58750100Y-84757261D01*
X58797719Y-84804880D01*
X58892957Y-84852500D01*
X58988195Y-84852500D01*
X59131052Y-84804880D01*
X59702480Y-84233452D01*
X59702480Y-84852500D01*
X58702480Y-85471547D02*
X58702480Y-85566785D01*
X58750100Y-85662023D01*
X58797719Y-85709642D01*
X58892957Y-85757261D01*
X59083433Y-85804880D01*
X59321528Y-85804880D01*
X59512004Y-85757261D01*
X59607242Y-85709642D01*
X59654861Y-85662023D01*
X59702480Y-85566785D01*
X59702480Y-85471547D01*
X59654861Y-85376309D01*
X59607242Y-85328690D01*
X59512004Y-85281071D01*
X59321528Y-85233452D01*
X59083433Y-85233452D01*
X58892957Y-85281071D01*
X58797719Y-85328690D01*
X58750100Y-85376309D01*
X58702480Y-85471547D01*
X58702480Y-86138214D02*
X58702480Y-86757261D01*
X59083433Y-86423928D01*
X59083433Y-86566785D01*
X59131052Y-86662023D01*
X59178671Y-86709642D01*
X59273909Y-86757261D01*
X59512004Y-86757261D01*
X59607242Y-86709642D01*
X59654861Y-86662023D01*
X59702480Y-86566785D01*
X59702480Y-86281071D01*
X59654861Y-86185833D01*
X59607242Y-86138214D01*
X59321528Y-87185833D02*
X59321528Y-87947738D01*
X59035814Y-88852500D02*
X59702480Y-88852500D01*
X58654861Y-88614404D02*
X59369147Y-88376309D01*
X59369147Y-88995357D01*
X59797719Y-89138214D02*
X59797719Y-89900119D01*
X58702480Y-89995357D02*
X58702480Y-90566785D01*
X59702480Y-90281071D02*
X58702480Y-90281071D01*
X59178671Y-90900119D02*
X59178671Y-91233452D01*
X59702480Y-91376309D02*
X59702480Y-90900119D01*
X58702480Y-90900119D01*
X58702480Y-91376309D01*
X59607242Y-92376309D02*
X59654861Y-92328690D01*
X59702480Y-92185833D01*
X59702480Y-92090595D01*
X59654861Y-91947738D01*
X59559623Y-91852500D01*
X59464385Y-91804880D01*
X59273909Y-91757261D01*
X59131052Y-91757261D01*
X58940576Y-91804880D01*
X58845338Y-91852500D01*
X58750100Y-91947738D01*
X58702480Y-92090595D01*
X58702480Y-92185833D01*
X58750100Y-92328690D01*
X58797719Y-92376309D01*
X58702480Y-80812500D02*
X58940576Y-80812500D01*
X58845338Y-80574404D02*
X58940576Y-80812500D01*
X58845338Y-81050595D01*
X59131052Y-80669642D02*
X58940576Y-80812500D01*
X59131052Y-80955357D01*
X59652380Y-46206666D02*
X59176190Y-45873333D01*
X59652380Y-45635238D02*
X58652380Y-45635238D01*
X58652380Y-46016190D01*
X58700000Y-46111428D01*
X58747619Y-46159047D01*
X58842857Y-46206666D01*
X58985714Y-46206666D01*
X59080952Y-46159047D01*
X59128571Y-46111428D01*
X59176190Y-46016190D01*
X59176190Y-45635238D01*
X59128571Y-46635238D02*
X59128571Y-46968571D01*
X59652380Y-47111428D02*
X59652380Y-46635238D01*
X58652380Y-46635238D01*
X58652380Y-47111428D01*
X59128571Y-47873333D02*
X59128571Y-47540000D01*
X59652380Y-47540000D02*
X58652380Y-47540000D01*
X58652380Y-48016190D01*
X58652380Y-48540000D02*
X58890476Y-48540000D01*
X58795238Y-48301904D02*
X58890476Y-48540000D01*
X58795238Y-48778095D01*
X59080952Y-48397142D02*
X58890476Y-48540000D01*
X59080952Y-48682857D01*
X58652380Y-49301904D02*
X58890476Y-49301904D01*
X58795238Y-49063809D02*
X58890476Y-49301904D01*
X58795238Y-49540000D01*
X59080952Y-49159047D02*
X58890476Y-49301904D01*
X59080952Y-49444761D01*
X59557142Y-39135238D02*
X59604761Y-39087619D01*
X59652380Y-38944761D01*
X59652380Y-38849523D01*
X59604761Y-38706666D01*
X59509523Y-38611428D01*
X59414285Y-38563809D01*
X59223809Y-38516190D01*
X59080952Y-38516190D01*
X58890476Y-38563809D01*
X58795238Y-38611428D01*
X58700000Y-38706666D01*
X58652380Y-38849523D01*
X58652380Y-38944761D01*
X58700000Y-39087619D01*
X58747619Y-39135238D01*
X58652380Y-39754285D02*
X58652380Y-39944761D01*
X58700000Y-40040000D01*
X58795238Y-40135238D01*
X58985714Y-40182857D01*
X59319047Y-40182857D01*
X59509523Y-40135238D01*
X59604761Y-40040000D01*
X59652380Y-39944761D01*
X59652380Y-39754285D01*
X59604761Y-39659047D01*
X59509523Y-39563809D01*
X59319047Y-39516190D01*
X58985714Y-39516190D01*
X58795238Y-39563809D01*
X58700000Y-39659047D01*
X58652380Y-39754285D01*
X59652380Y-40611428D02*
X58652380Y-40611428D01*
X59652380Y-41182857D01*
X58652380Y-41182857D01*
X59652380Y-41659047D02*
X58652380Y-41659047D01*
X59652380Y-42230476D01*
X58652380Y-42230476D01*
X59747619Y-42468571D02*
X59747619Y-43230476D01*
X58652380Y-43373333D02*
X58652380Y-43992380D01*
X59033333Y-43659047D01*
X59033333Y-43801904D01*
X59080952Y-43897142D01*
X59128571Y-43944761D01*
X59223809Y-43992380D01*
X59461904Y-43992380D01*
X59557142Y-43944761D01*
X59604761Y-43897142D01*
X59652380Y-43801904D01*
X59652380Y-43516190D01*
X59604761Y-43420952D01*
X59557142Y-43373333D01*
X59271428Y-44420952D02*
X59271428Y-45182857D01*
X59652380Y-46182857D02*
X59652380Y-45611428D01*
X59652380Y-45897142D02*
X58652380Y-45897142D01*
X58795238Y-45801904D01*
X58890476Y-45706666D01*
X58938095Y-45611428D01*
X58652380Y-46801904D02*
X58652380Y-46897142D01*
X58700000Y-46992380D01*
X58747619Y-47040000D01*
X58842857Y-47087619D01*
X59033333Y-47135238D01*
X59271428Y-47135238D01*
X59461904Y-47087619D01*
X59557142Y-47040000D01*
X59604761Y-46992380D01*
X59652380Y-46897142D01*
X59652380Y-46801904D01*
X59604761Y-46706666D01*
X59557142Y-46659047D01*
X59461904Y-46611428D01*
X59271428Y-46563809D01*
X59033333Y-46563809D01*
X58842857Y-46611428D01*
X58747619Y-46659047D01*
X58700000Y-46706666D01*
X58652380Y-46801904D01*
X58747619Y-47516190D02*
X58700000Y-47563809D01*
X58652380Y-47659047D01*
X58652380Y-47897142D01*
X58700000Y-47992380D01*
X58747619Y-48040000D01*
X58842857Y-48087619D01*
X58938095Y-48087619D01*
X59080952Y-48040000D01*
X59652380Y-47468571D01*
X59652380Y-48087619D01*
X58747619Y-48468571D02*
X58700000Y-48516190D01*
X58652380Y-48611428D01*
X58652380Y-48849523D01*
X58700000Y-48944761D01*
X58747619Y-48992380D01*
X58842857Y-49039999D01*
X58938095Y-49039999D01*
X59080952Y-48992380D01*
X59652380Y-48420952D01*
X59652380Y-49039999D01*
X58652380Y-49659047D02*
X58652380Y-49754285D01*
X58700000Y-49849523D01*
X58747619Y-49897142D01*
X58842857Y-49944761D01*
X59033333Y-49992380D01*
X59271428Y-49992380D01*
X59461904Y-49944761D01*
X59557142Y-49897142D01*
X59604761Y-49849523D01*
X59652380Y-49754285D01*
X59652380Y-49659047D01*
X59604761Y-49563809D01*
X59557142Y-49516190D01*
X59461904Y-49468571D01*
X59271428Y-49420952D01*
X59033333Y-49420952D01*
X58842857Y-49468571D01*
X58747619Y-49516190D01*
X58700000Y-49563809D01*
X58652380Y-49659047D01*
X58652380Y-50325714D02*
X58652380Y-50944761D01*
X59033333Y-50611428D01*
X59033333Y-50754285D01*
X59080952Y-50849523D01*
X59128571Y-50897142D01*
X59223809Y-50944761D01*
X59461904Y-50944761D01*
X59557142Y-50897142D01*
X59604761Y-50849523D01*
X59652380Y-50754285D01*
X59652380Y-50468571D01*
X59604761Y-50373333D01*
X59557142Y-50325714D01*
X59271428Y-51373333D02*
X59271428Y-52135238D01*
X58985714Y-53039999D02*
X59652380Y-53039999D01*
X58604761Y-52801904D02*
X59319047Y-52563809D01*
X59319047Y-53182857D01*
X59747619Y-53325714D02*
X59747619Y-54087619D01*
X58652380Y-54182857D02*
X58652380Y-54754285D01*
X59652380Y-54468571D02*
X58652380Y-54468571D01*
X59128571Y-55087619D02*
X59128571Y-55420952D01*
X59652380Y-55563809D02*
X59652380Y-55087619D01*
X58652380Y-55087619D01*
X58652380Y-55563809D01*
X59557142Y-56563809D02*
X59604761Y-56516190D01*
X59652380Y-56373333D01*
X59652380Y-56278095D01*
X59604761Y-56135238D01*
X59509523Y-56039999D01*
X59414285Y-55992380D01*
X59223809Y-55944761D01*
X59080952Y-55944761D01*
X58890476Y-55992380D01*
X58795238Y-56039999D01*
X58700000Y-56135238D01*
X58652380Y-56278095D01*
X58652380Y-56373333D01*
X58700000Y-56516190D01*
X58747619Y-56563809D01*
X58652380Y-45000000D02*
X58890476Y-45000000D01*
X58795238Y-44761904D02*
X58890476Y-45000000D01*
X58795238Y-45238095D01*
X59080952Y-44857142D02*
X58890476Y-45000000D01*
X59080952Y-45142857D01*
X59702480Y-99819166D02*
X59226290Y-99485833D01*
X59702480Y-99247738D02*
X58702480Y-99247738D01*
X58702480Y-99628690D01*
X58750100Y-99723928D01*
X58797719Y-99771547D01*
X58892957Y-99819166D01*
X59035814Y-99819166D01*
X59131052Y-99771547D01*
X59178671Y-99723928D01*
X59226290Y-99628690D01*
X59226290Y-99247738D01*
X59178671Y-100247738D02*
X59178671Y-100581071D01*
X59702480Y-100723928D02*
X59702480Y-100247738D01*
X58702480Y-100247738D01*
X58702480Y-100723928D01*
X59178671Y-101485833D02*
X59178671Y-101152500D01*
X59702480Y-101152500D02*
X58702480Y-101152500D01*
X58702480Y-101628690D01*
X58702480Y-102152500D02*
X58940576Y-102152500D01*
X58845338Y-101914404D02*
X58940576Y-102152500D01*
X58845338Y-102390595D01*
X59131052Y-102009642D02*
X58940576Y-102152500D01*
X59131052Y-102295357D01*
X58702480Y-102914404D02*
X58940576Y-102914404D01*
X58845338Y-102676309D02*
X58940576Y-102914404D01*
X58845338Y-103152500D01*
X59131052Y-102771547D02*
X58940576Y-102914404D01*
X59131052Y-103057261D01*
X59607242Y-92747738D02*
X59654861Y-92700119D01*
X59702480Y-92557261D01*
X59702480Y-92462023D01*
X59654861Y-92319166D01*
X59559623Y-92223928D01*
X59464385Y-92176309D01*
X59273909Y-92128690D01*
X59131052Y-92128690D01*
X58940576Y-92176309D01*
X58845338Y-92223928D01*
X58750100Y-92319166D01*
X58702480Y-92462023D01*
X58702480Y-92557261D01*
X58750100Y-92700119D01*
X58797719Y-92747738D01*
X58702480Y-93366785D02*
X58702480Y-93557261D01*
X58750100Y-93652500D01*
X58845338Y-93747738D01*
X59035814Y-93795357D01*
X59369147Y-93795357D01*
X59559623Y-93747738D01*
X59654861Y-93652500D01*
X59702480Y-93557261D01*
X59702480Y-93366785D01*
X59654861Y-93271547D01*
X59559623Y-93176309D01*
X59369147Y-93128690D01*
X59035814Y-93128690D01*
X58845338Y-93176309D01*
X58750100Y-93271547D01*
X58702480Y-93366785D01*
X59702480Y-94223928D02*
X58702480Y-94223928D01*
X59702480Y-94795357D01*
X58702480Y-94795357D01*
X59702480Y-95271547D02*
X58702480Y-95271547D01*
X59702480Y-95842976D01*
X58702480Y-95842976D01*
X59797719Y-96081071D02*
X59797719Y-96842976D01*
X58702480Y-96985833D02*
X58702480Y-97604880D01*
X59083433Y-97271547D01*
X59083433Y-97414404D01*
X59131052Y-97509642D01*
X59178671Y-97557261D01*
X59273909Y-97604880D01*
X59512004Y-97604880D01*
X59607242Y-97557261D01*
X59654861Y-97509642D01*
X59702480Y-97414404D01*
X59702480Y-97128690D01*
X59654861Y-97033452D01*
X59607242Y-96985833D01*
X59321528Y-98033452D02*
X59321528Y-98795357D01*
X59702480Y-99795357D02*
X59702480Y-99223928D01*
X59702480Y-99509642D02*
X58702480Y-99509642D01*
X58845338Y-99414404D01*
X58940576Y-99319166D01*
X58988195Y-99223928D01*
X58702480Y-100414404D02*
X58702480Y-100509642D01*
X58750100Y-100604880D01*
X58797719Y-100652500D01*
X58892957Y-100700119D01*
X59083433Y-100747738D01*
X59321528Y-100747738D01*
X59512004Y-100700119D01*
X59607242Y-100652500D01*
X59654861Y-100604880D01*
X59702480Y-100509642D01*
X59702480Y-100414404D01*
X59654861Y-100319166D01*
X59607242Y-100271547D01*
X59512004Y-100223928D01*
X59321528Y-100176309D01*
X59083433Y-100176309D01*
X58892957Y-100223928D01*
X58797719Y-100271547D01*
X58750100Y-100319166D01*
X58702480Y-100414404D01*
X58797719Y-101128690D02*
X58750100Y-101176309D01*
X58702480Y-101271547D01*
X58702480Y-101509642D01*
X58750100Y-101604880D01*
X58797719Y-101652500D01*
X58892957Y-101700119D01*
X58988195Y-101700119D01*
X59131052Y-101652500D01*
X59702480Y-101081071D01*
X59702480Y-101700119D01*
X58797719Y-102081071D02*
X58750100Y-102128690D01*
X58702480Y-102223928D01*
X58702480Y-102462023D01*
X58750100Y-102557261D01*
X58797719Y-102604880D01*
X58892957Y-102652500D01*
X58988195Y-102652500D01*
X59131052Y-102604880D01*
X59702480Y-102033452D01*
X59702480Y-102652500D01*
X58702480Y-103271547D02*
X58702480Y-103366785D01*
X58750100Y-103462023D01*
X58797719Y-103509642D01*
X58892957Y-103557261D01*
X59083433Y-103604880D01*
X59321528Y-103604880D01*
X59512004Y-103557261D01*
X59607242Y-103509642D01*
X59654861Y-103462023D01*
X59702480Y-103366785D01*
X59702480Y-103271547D01*
X59654861Y-103176309D01*
X59607242Y-103128690D01*
X59512004Y-103081071D01*
X59321528Y-103033452D01*
X59083433Y-103033452D01*
X58892957Y-103081071D01*
X58797719Y-103128690D01*
X58750100Y-103176309D01*
X58702480Y-103271547D01*
X58702480Y-103938214D02*
X58702480Y-104557261D01*
X59083433Y-104223928D01*
X59083433Y-104366785D01*
X59131052Y-104462023D01*
X59178671Y-104509642D01*
X59273909Y-104557261D01*
X59512004Y-104557261D01*
X59607242Y-104509642D01*
X59654861Y-104462023D01*
X59702480Y-104366785D01*
X59702480Y-104081071D01*
X59654861Y-103985833D01*
X59607242Y-103938214D01*
X59321528Y-104985833D02*
X59321528Y-105747738D01*
X59035814Y-106652500D02*
X59702480Y-106652500D01*
X58654861Y-106414404D02*
X59369147Y-106176309D01*
X59369147Y-106795357D01*
X59797719Y-106938214D02*
X59797719Y-107700119D01*
X58702480Y-107795357D02*
X58702480Y-108366785D01*
X59702480Y-108081071D02*
X58702480Y-108081071D01*
X59178671Y-108700119D02*
X59178671Y-109033452D01*
X59702480Y-109176309D02*
X59702480Y-108700119D01*
X58702480Y-108700119D01*
X58702480Y-109176309D01*
X59607242Y-110176309D02*
X59654861Y-110128690D01*
X59702480Y-109985833D01*
X59702480Y-109890595D01*
X59654861Y-109747738D01*
X59559623Y-109652500D01*
X59464385Y-109604880D01*
X59273909Y-109557261D01*
X59131052Y-109557261D01*
X58940576Y-109604880D01*
X58845338Y-109652500D01*
X58750100Y-109747738D01*
X58702480Y-109890595D01*
X58702480Y-109985833D01*
X58750100Y-110128690D01*
X58797719Y-110176309D01*
X58702480Y-98612500D02*
X58940576Y-98612500D01*
X58845338Y-98374404D02*
X58940576Y-98612500D01*
X58845338Y-98850595D01*
X59131052Y-98469642D02*
X58940576Y-98612500D01*
X59131052Y-98755357D01*
X59702480Y-64219166D02*
X59226290Y-63885833D01*
X59702480Y-63647738D02*
X58702480Y-63647738D01*
X58702480Y-64028690D01*
X58750100Y-64123928D01*
X58797719Y-64171547D01*
X58892957Y-64219166D01*
X59035814Y-64219166D01*
X59131052Y-64171547D01*
X59178671Y-64123928D01*
X59226290Y-64028690D01*
X59226290Y-63647738D01*
X59178671Y-64647738D02*
X59178671Y-64981071D01*
X59702480Y-65123928D02*
X59702480Y-64647738D01*
X58702480Y-64647738D01*
X58702480Y-65123928D01*
X59178671Y-65885833D02*
X59178671Y-65552500D01*
X59702480Y-65552500D02*
X58702480Y-65552500D01*
X58702480Y-66028690D01*
X58702480Y-66552500D02*
X58940576Y-66552500D01*
X58845338Y-66314404D02*
X58940576Y-66552500D01*
X58845338Y-66790595D01*
X59131052Y-66409642D02*
X58940576Y-66552500D01*
X59131052Y-66695357D01*
X58702480Y-67314404D02*
X58940576Y-67314404D01*
X58845338Y-67076309D02*
X58940576Y-67314404D01*
X58845338Y-67552500D01*
X59131052Y-67171547D02*
X58940576Y-67314404D01*
X59131052Y-67457261D01*
X59607242Y-57147738D02*
X59654861Y-57100119D01*
X59702480Y-56957261D01*
X59702480Y-56862023D01*
X59654861Y-56719166D01*
X59559623Y-56623928D01*
X59464385Y-56576309D01*
X59273909Y-56528690D01*
X59131052Y-56528690D01*
X58940576Y-56576309D01*
X58845338Y-56623928D01*
X58750100Y-56719166D01*
X58702480Y-56862023D01*
X58702480Y-56957261D01*
X58750100Y-57100119D01*
X58797719Y-57147738D01*
X58702480Y-57766785D02*
X58702480Y-57957261D01*
X58750100Y-58052500D01*
X58845338Y-58147738D01*
X59035814Y-58195357D01*
X59369147Y-58195357D01*
X59559623Y-58147738D01*
X59654861Y-58052500D01*
X59702480Y-57957261D01*
X59702480Y-57766785D01*
X59654861Y-57671547D01*
X59559623Y-57576309D01*
X59369147Y-57528690D01*
X59035814Y-57528690D01*
X58845338Y-57576309D01*
X58750100Y-57671547D01*
X58702480Y-57766785D01*
X59702480Y-58623928D02*
X58702480Y-58623928D01*
X59702480Y-59195357D01*
X58702480Y-59195357D01*
X59702480Y-59671547D02*
X58702480Y-59671547D01*
X59702480Y-60242976D01*
X58702480Y-60242976D01*
X59797719Y-60481071D02*
X59797719Y-61242976D01*
X58702480Y-61385833D02*
X58702480Y-62004880D01*
X59083433Y-61671547D01*
X59083433Y-61814404D01*
X59131052Y-61909642D01*
X59178671Y-61957261D01*
X59273909Y-62004880D01*
X59512004Y-62004880D01*
X59607242Y-61957261D01*
X59654861Y-61909642D01*
X59702480Y-61814404D01*
X59702480Y-61528690D01*
X59654861Y-61433452D01*
X59607242Y-61385833D01*
X59321528Y-62433452D02*
X59321528Y-63195357D01*
X59702480Y-64195357D02*
X59702480Y-63623928D01*
X59702480Y-63909642D02*
X58702480Y-63909642D01*
X58845338Y-63814404D01*
X58940576Y-63719166D01*
X58988195Y-63623928D01*
X58702480Y-64814404D02*
X58702480Y-64909642D01*
X58750100Y-65004880D01*
X58797719Y-65052500D01*
X58892957Y-65100119D01*
X59083433Y-65147738D01*
X59321528Y-65147738D01*
X59512004Y-65100119D01*
X59607242Y-65052500D01*
X59654861Y-65004880D01*
X59702480Y-64909642D01*
X59702480Y-64814404D01*
X59654861Y-64719166D01*
X59607242Y-64671547D01*
X59512004Y-64623928D01*
X59321528Y-64576309D01*
X59083433Y-64576309D01*
X58892957Y-64623928D01*
X58797719Y-64671547D01*
X58750100Y-64719166D01*
X58702480Y-64814404D01*
X58797719Y-65528690D02*
X58750100Y-65576309D01*
X58702480Y-65671547D01*
X58702480Y-65909642D01*
X58750100Y-66004880D01*
X58797719Y-66052500D01*
X58892957Y-66100119D01*
X58988195Y-66100119D01*
X59131052Y-66052500D01*
X59702480Y-65481071D01*
X59702480Y-66100119D01*
X58797719Y-66481071D02*
X58750100Y-66528690D01*
X58702480Y-66623928D01*
X58702480Y-66862023D01*
X58750100Y-66957261D01*
X58797719Y-67004880D01*
X58892957Y-67052499D01*
X58988195Y-67052499D01*
X59131052Y-67004880D01*
X59702480Y-66433452D01*
X59702480Y-67052499D01*
X58702480Y-67671547D02*
X58702480Y-67766785D01*
X58750100Y-67862023D01*
X58797719Y-67909642D01*
X58892957Y-67957261D01*
X59083433Y-68004880D01*
X59321528Y-68004880D01*
X59512004Y-67957261D01*
X59607242Y-67909642D01*
X59654861Y-67862023D01*
X59702480Y-67766785D01*
X59702480Y-67671547D01*
X59654861Y-67576309D01*
X59607242Y-67528690D01*
X59512004Y-67481071D01*
X59321528Y-67433452D01*
X59083433Y-67433452D01*
X58892957Y-67481071D01*
X58797719Y-67528690D01*
X58750100Y-67576309D01*
X58702480Y-67671547D01*
X58702480Y-68338214D02*
X58702480Y-68957261D01*
X59083433Y-68623928D01*
X59083433Y-68766785D01*
X59131052Y-68862023D01*
X59178671Y-68909642D01*
X59273909Y-68957261D01*
X59512004Y-68957261D01*
X59607242Y-68909642D01*
X59654861Y-68862023D01*
X59702480Y-68766785D01*
X59702480Y-68481071D01*
X59654861Y-68385833D01*
X59607242Y-68338214D01*
X59321528Y-69385833D02*
X59321528Y-70147738D01*
X59035814Y-71052500D02*
X59702480Y-71052500D01*
X58654861Y-70814404D02*
X59369147Y-70576309D01*
X59369147Y-71195357D01*
X59797719Y-71338214D02*
X59797719Y-72100119D01*
X58702480Y-72195357D02*
X58702480Y-72766785D01*
X59702480Y-72481071D02*
X58702480Y-72481071D01*
X59178671Y-73100119D02*
X59178671Y-73433452D01*
X59702480Y-73576309D02*
X59702480Y-73100119D01*
X58702480Y-73100119D01*
X58702480Y-73576309D01*
X59607242Y-74576309D02*
X59654861Y-74528690D01*
X59702480Y-74385833D01*
X59702480Y-74290595D01*
X59654861Y-74147738D01*
X59559623Y-74052500D01*
X59464385Y-74004880D01*
X59273909Y-73957261D01*
X59131052Y-73957261D01*
X58940576Y-74004880D01*
X58845338Y-74052500D01*
X58750100Y-74147738D01*
X58702480Y-74290595D01*
X58702480Y-74385833D01*
X58750100Y-74528690D01*
X58797719Y-74576309D01*
X58702480Y-63012500D02*
X58940576Y-63012500D01*
X58845338Y-62774404D02*
X58940576Y-63012500D01*
X58845338Y-63250595D01*
X59131052Y-62869642D02*
X58940576Y-63012500D01*
X59131052Y-63155357D01*
D12*
X46905700Y-88813500D02*
X46905700Y-77891500D01*
X46905700Y-77891500D02*
X61104300Y-77891500D01*
X45508700Y-80177500D02*
X45508700Y-81447500D01*
X61104300Y-77891500D02*
X61104300Y-88813500D01*
X46778700Y-80812500D02*
X45508700Y-80177500D01*
X61104300Y-88813500D02*
X46905700Y-88813500D01*
X45508700Y-81447500D02*
X46778700Y-80812500D01*
X46855600Y-53001000D02*
X46855600Y-42079000D01*
X46855600Y-42079000D02*
X61054200Y-42079000D01*
X46728600Y-45000000D02*
X45458600Y-44365000D01*
X45458600Y-45635000D02*
X46728600Y-45000000D01*
X61054200Y-42079000D02*
X61054200Y-53001000D01*
X61054200Y-53001000D02*
X46855600Y-53001000D01*
X45458600Y-44365000D02*
X45458600Y-45635000D01*
X45508700Y-97977500D02*
X45508700Y-99247500D01*
X46905700Y-95691500D02*
X61104300Y-95691500D01*
X61104300Y-106613500D02*
X46905700Y-106613500D01*
X46778700Y-98612500D02*
X45508700Y-97977500D01*
X45508700Y-99247500D02*
X46778700Y-98612500D01*
X61104300Y-95691500D02*
X61104300Y-106613500D01*
X46905700Y-106613500D02*
X46905700Y-95691500D01*
X61104300Y-71013500D02*
X46905700Y-71013500D01*
X46905700Y-60091500D02*
X61104300Y-60091500D01*
X45508700Y-63647500D02*
X46778700Y-63012500D01*
X61104300Y-60091500D02*
X61104300Y-71013500D01*
X46905700Y-71013500D02*
X46905700Y-60091500D01*
X46778700Y-63012500D02*
X45508700Y-62377500D01*
X45508700Y-62377500D02*
X45508700Y-63647500D01*
%TO.C,G\u002A\u002A\u002A*%
G36*
X114008626Y-124845143D02*
G01*
X107760064Y-124845143D01*
X107760064Y-104151852D01*
X114008626Y-104151852D01*
X114008626Y-124845143D01*
G37*
G36*
X151407849Y-117520200D02*
G01*
X151612478Y-118115136D01*
X151786089Y-118619701D01*
X151917826Y-119002331D01*
X152123770Y-119600377D01*
X152378680Y-120341042D01*
X152645845Y-121117693D01*
X152912237Y-121892442D01*
X153164832Y-122627404D01*
X153390602Y-123284693D01*
X153576521Y-123826423D01*
X153660969Y-124077709D01*
X153760311Y-124389140D01*
X153828209Y-124622122D01*
X153853355Y-124739362D01*
X153831824Y-124754153D01*
X153677826Y-124779742D01*
X153393086Y-124801634D01*
X152998326Y-124819817D01*
X152514268Y-124834276D01*
X151961632Y-124844998D01*
X151361141Y-124851970D01*
X150733516Y-124855178D01*
X150099478Y-124854608D01*
X149479750Y-124850247D01*
X148895053Y-124842081D01*
X148366108Y-124830097D01*
X147913637Y-124814281D01*
X147558361Y-124794619D01*
X147321003Y-124771098D01*
X147222283Y-124743705D01*
X147221358Y-124742432D01*
X147176240Y-124629767D01*
X147099721Y-124386928D01*
X146999437Y-124040277D01*
X146883022Y-123616177D01*
X146758111Y-123140989D01*
X146635739Y-122666985D01*
X146516180Y-122206732D01*
X146412509Y-121810516D01*
X146332856Y-121509401D01*
X146285350Y-121334447D01*
X146198979Y-121029182D01*
X140027423Y-121071660D01*
X139757267Y-122207763D01*
X139748499Y-122244615D01*
X139630612Y-122736940D01*
X139507910Y-123244464D01*
X139394408Y-123709465D01*
X139304119Y-124074216D01*
X139121126Y-124804568D01*
X135841273Y-124825789D01*
X135810718Y-124825984D01*
X135027048Y-124829088D01*
X134323479Y-124828226D01*
X133713706Y-124823618D01*
X133211427Y-124815482D01*
X132830338Y-124804038D01*
X132584134Y-124789505D01*
X132486512Y-124772102D01*
X132484711Y-124770122D01*
X132472616Y-124648726D01*
X132518403Y-124403960D01*
X132617417Y-124061105D01*
X132696272Y-123817465D01*
X132822373Y-123427983D01*
X132974977Y-122956732D01*
X133141552Y-122442415D01*
X133309562Y-121923737D01*
X133317524Y-121899156D01*
X133475407Y-121411287D01*
X133670324Y-120808286D01*
X133890281Y-120127304D01*
X134123283Y-119405488D01*
X134357333Y-118679989D01*
X134580437Y-117987954D01*
X134587562Y-117965843D01*
X134813321Y-117265907D01*
X135051523Y-116528405D01*
X135070118Y-116470903D01*
X141224285Y-116470903D01*
X141251939Y-116506227D01*
X141330458Y-116531722D01*
X141478414Y-116548991D01*
X141714380Y-116559634D01*
X142056929Y-116565253D01*
X142524633Y-116567450D01*
X143136065Y-116567826D01*
X143329545Y-116567689D01*
X143929954Y-116564693D01*
X144387331Y-116557185D01*
X144716736Y-116544384D01*
X144933229Y-116525506D01*
X145051872Y-116499768D01*
X145087726Y-116466389D01*
X145068905Y-116358582D01*
X145015908Y-116126131D01*
X144937071Y-115805524D01*
X144840741Y-115431724D01*
X144820447Y-115354539D01*
X144642024Y-114670859D01*
X144456610Y-113952259D01*
X144268980Y-113217940D01*
X144083910Y-112487105D01*
X143906176Y-111778954D01*
X143740555Y-111112690D01*
X143591822Y-110507514D01*
X143464754Y-109982627D01*
X143364126Y-109557233D01*
X143294715Y-109250531D01*
X143261297Y-109081724D01*
X143238211Y-108953109D01*
X143185542Y-108768710D01*
X143133866Y-108696261D01*
X143120201Y-108697417D01*
X143083869Y-108722934D01*
X143049995Y-108802253D01*
X143011757Y-108962020D01*
X142962330Y-109228883D01*
X142894891Y-109629488D01*
X142865544Y-109780150D01*
X142797585Y-110090240D01*
X142699706Y-110516597D01*
X142577453Y-111036575D01*
X142436376Y-111627532D01*
X142282022Y-112266823D01*
X142119939Y-112931804D01*
X141955677Y-113599831D01*
X141794783Y-114248259D01*
X141642805Y-114854446D01*
X141505292Y-115395746D01*
X141387792Y-115849516D01*
X141295853Y-116193112D01*
X141235024Y-116403890D01*
X141228924Y-116424148D01*
X141224285Y-116470903D01*
X135070118Y-116470903D01*
X135289737Y-115791752D01*
X135515536Y-115094362D01*
X135716490Y-114474647D01*
X135880170Y-113971021D01*
X136024751Y-113526532D01*
X136233884Y-112882539D01*
X136447290Y-112224383D01*
X136646765Y-111608215D01*
X136814105Y-111090191D01*
X136937303Y-110708626D01*
X137130611Y-110111013D01*
X137342207Y-109457822D01*
X137553895Y-108805216D01*
X137747479Y-108209360D01*
X137898697Y-107743928D01*
X138100556Y-107121550D01*
X138302773Y-106497048D01*
X138488464Y-105922568D01*
X138640749Y-105450255D01*
X138708064Y-105245560D01*
X138847270Y-104848763D01*
X138974964Y-104517683D01*
X139079284Y-104282186D01*
X139148368Y-104172140D01*
X139173524Y-104159258D01*
X139279923Y-104136060D01*
X139469411Y-104116925D01*
X139753303Y-104101555D01*
X140142912Y-104089650D01*
X140649553Y-104080911D01*
X141284540Y-104075040D01*
X142059186Y-104071737D01*
X142984807Y-104070702D01*
X143584916Y-104071085D01*
X144406147Y-104073384D01*
X145083700Y-104078024D01*
X145628964Y-104085311D01*
X146053332Y-104095551D01*
X146368193Y-104109049D01*
X146584939Y-104126109D01*
X146714961Y-104147038D01*
X146769649Y-104172140D01*
X146771944Y-104175074D01*
X146783131Y-104187400D01*
X146792882Y-104197502D01*
X146803778Y-104212793D01*
X146818400Y-104240688D01*
X146839330Y-104288602D01*
X146869151Y-104363949D01*
X146910443Y-104474143D01*
X146965789Y-104626599D01*
X147037770Y-104828731D01*
X147128968Y-105087954D01*
X147241964Y-105411683D01*
X147379341Y-105807331D01*
X147543681Y-106282313D01*
X147737564Y-106844044D01*
X147963573Y-107499938D01*
X148224290Y-108257409D01*
X148522295Y-109123872D01*
X148860172Y-110106742D01*
X149240501Y-111213433D01*
X149665865Y-112451358D01*
X150138844Y-113827934D01*
X150662022Y-115350574D01*
X150716391Y-115508797D01*
X150948951Y-116185468D01*
X151045524Y-116466389D01*
X151183056Y-116866457D01*
X151407849Y-117520200D01*
G37*
G36*
X169839936Y-124763993D02*
G01*
X156044409Y-124763993D01*
X156044409Y-119651533D01*
X157606550Y-119650123D01*
X158290349Y-119643640D01*
X158892336Y-119620599D01*
X159392476Y-119575735D01*
X159821768Y-119503762D01*
X160211215Y-119399392D01*
X160591815Y-119257339D01*
X160994569Y-119072315D01*
X161158266Y-118989297D01*
X161553067Y-118755957D01*
X161912551Y-118480712D01*
X162299901Y-118117339D01*
X162307708Y-118109516D01*
X162747249Y-117635943D01*
X163081138Y-117190948D01*
X163343508Y-116722348D01*
X163568493Y-116177960D01*
X163584438Y-116133360D01*
X163801556Y-115280293D01*
X163867110Y-114409367D01*
X163786529Y-113541646D01*
X163565241Y-112698195D01*
X163208675Y-111900077D01*
X162722259Y-111168357D01*
X162111422Y-110524100D01*
X162095007Y-110509736D01*
X161713169Y-110227547D01*
X161230878Y-109941736D01*
X160703679Y-109680008D01*
X160187118Y-109470069D01*
X159736741Y-109339625D01*
X159697695Y-109332258D01*
X159374306Y-109294661D01*
X158911743Y-109268849D01*
X158329514Y-109255604D01*
X157647125Y-109255711D01*
X156044409Y-109271260D01*
X156044409Y-104070702D01*
X169839936Y-104070702D01*
X169839936Y-124763993D01*
G37*
G36*
X107841214Y-101230446D02*
G01*
X107841214Y-70955050D01*
X123927245Y-70955050D01*
X123933196Y-71651213D01*
X123935353Y-71699505D01*
X124026976Y-72579379D01*
X124222083Y-73356799D01*
X124534515Y-74063457D01*
X124978115Y-74731046D01*
X125566724Y-75391256D01*
X125807330Y-75622339D01*
X126482961Y-76162396D01*
X127192039Y-76565924D01*
X127965428Y-76851713D01*
X128679365Y-77008422D01*
X129627506Y-77079305D01*
X130567871Y-76999168D01*
X131473022Y-76768659D01*
X132080752Y-76513336D01*
X132867674Y-76039513D01*
X133571431Y-75443650D01*
X134169941Y-74745294D01*
X134641126Y-73963993D01*
X134903591Y-73344060D01*
X135151895Y-72445404D01*
X135259020Y-71534218D01*
X135222494Y-70636439D01*
X135039846Y-69778007D01*
X135009769Y-69683744D01*
X134651348Y-68836564D01*
X134162528Y-68053416D01*
X133562057Y-67356430D01*
X132868685Y-66767736D01*
X132101161Y-66309464D01*
X131675822Y-66119226D01*
X130861562Y-65850267D01*
X130051797Y-65717922D01*
X129206676Y-65713994D01*
X128858653Y-65747347D01*
X127933163Y-65942703D01*
X127066578Y-66282394D01*
X126273220Y-66756800D01*
X125567410Y-67356301D01*
X124963466Y-68071277D01*
X124475710Y-68892108D01*
X124309479Y-69252978D01*
X124104728Y-69810142D01*
X123980870Y-70359430D01*
X123927245Y-70955050D01*
X107841214Y-70955050D01*
X107841214Y-64858504D01*
X131939878Y-64858504D01*
X132480463Y-65111474D01*
X132581606Y-65160065D01*
X133347122Y-65606502D01*
X134078616Y-66164516D01*
X134733339Y-66797935D01*
X135268541Y-67470586D01*
X135623615Y-68052128D01*
X136055048Y-69002146D01*
X136337750Y-69991574D01*
X136471216Y-71004254D01*
X136462758Y-71534218D01*
X136454940Y-72024030D01*
X136288418Y-73034742D01*
X135971146Y-74020235D01*
X135502619Y-74964350D01*
X135143840Y-75491606D01*
X134614371Y-76108002D01*
X134009575Y-76680141D01*
X133369457Y-77170765D01*
X132734026Y-77542620D01*
X132588441Y-77620443D01*
X132415858Y-77739736D01*
X132348562Y-77827768D01*
X132357088Y-77868156D01*
X132448306Y-78042480D01*
X132623918Y-78301040D01*
X132864581Y-78619615D01*
X133150957Y-78973986D01*
X133463702Y-79339934D01*
X133783478Y-79693238D01*
X134090943Y-80009680D01*
X134233242Y-80147401D01*
X135313705Y-81065843D01*
X136488139Y-81855561D01*
X137744545Y-82510183D01*
X139070921Y-83023336D01*
X140455264Y-83388648D01*
X140597897Y-83415121D01*
X141079577Y-83479732D01*
X141659432Y-83531290D01*
X142294313Y-83568211D01*
X142941069Y-83588913D01*
X143556550Y-83591811D01*
X144097606Y-83575322D01*
X144521086Y-83537862D01*
X145829996Y-83288863D01*
X147190238Y-82877096D01*
X148481667Y-82323943D01*
X149695447Y-81635860D01*
X150822744Y-80819306D01*
X151854722Y-79880739D01*
X152782547Y-78826615D01*
X153597383Y-77663392D01*
X154290395Y-76397528D01*
X154309779Y-76356814D01*
X154826565Y-75080290D01*
X155195463Y-73755512D01*
X155416456Y-72398885D01*
X155489524Y-71026812D01*
X155414650Y-69655701D01*
X155191815Y-68301955D01*
X154821002Y-66981980D01*
X154302193Y-65712180D01*
X153655220Y-64510320D01*
X152851813Y-63330097D01*
X151938249Y-62269008D01*
X150914668Y-61327196D01*
X149781211Y-60504805D01*
X148538019Y-59801979D01*
X148295522Y-59683566D01*
X147566078Y-59354249D01*
X146880125Y-59094118D01*
X146172592Y-58880270D01*
X145378409Y-58689799D01*
X145182215Y-58652016D01*
X144606748Y-58576478D01*
X143932408Y-58525633D01*
X143202355Y-58499810D01*
X142459751Y-58499337D01*
X141747758Y-58524544D01*
X141109536Y-58575759D01*
X140588248Y-58653310D01*
X140444949Y-58683251D01*
X139160996Y-59030954D01*
X137898452Y-59510873D01*
X136697072Y-60105918D01*
X135596608Y-60799002D01*
X134933249Y-61314767D01*
X134132743Y-62048154D01*
X133370419Y-62862116D01*
X132685396Y-63714343D01*
X132116794Y-64562526D01*
X131939878Y-64858504D01*
X107841214Y-64858504D01*
X107841214Y-38744823D01*
X169839936Y-38744823D01*
X169839936Y-101230446D01*
X107841214Y-101230446D01*
G37*
G36*
X129914058Y-124846091D02*
G01*
X123280032Y-124825330D01*
X116646006Y-124804568D01*
X116624511Y-122390350D01*
X116603016Y-119976133D01*
X120077451Y-119976133D01*
X120901569Y-119975133D01*
X121669396Y-119971516D01*
X122294761Y-119964990D01*
X122788081Y-119955268D01*
X123159775Y-119942067D01*
X123420258Y-119925104D01*
X123579949Y-119904094D01*
X123649265Y-119878753D01*
X123654869Y-119869497D01*
X123671369Y-119790794D01*
X123685955Y-119631385D01*
X123698718Y-119383853D01*
X123709751Y-119040779D01*
X123719144Y-118594746D01*
X123726988Y-118038337D01*
X123733375Y-117364135D01*
X123738396Y-116564721D01*
X123742142Y-115632680D01*
X123744705Y-114560593D01*
X123746175Y-113341043D01*
X123746645Y-111966612D01*
X123746645Y-104151852D01*
X129914058Y-104151852D01*
X129914058Y-124846091D01*
G37*
G36*
X81456865Y-73593321D02*
G01*
X81532081Y-73453889D01*
X81550270Y-73421220D01*
X81596669Y-73340986D01*
X81660223Y-73233318D01*
X81736468Y-73105710D01*
X81820942Y-72965656D01*
X81909183Y-72820647D01*
X82211070Y-72326837D01*
X82524794Y-72326807D01*
X82524794Y-73930284D01*
X82263083Y-73930284D01*
X82273528Y-73291637D01*
X82283974Y-72652991D01*
X82187546Y-72832671D01*
X82176795Y-72852387D01*
X82128726Y-72937090D01*
X82062981Y-73049586D01*
X81984799Y-73181043D01*
X81899421Y-73322628D01*
X81812089Y-73465508D01*
X81533058Y-73918664D01*
X81366620Y-73925492D01*
X81200183Y-73932320D01*
X81200183Y-72326807D01*
X81455809Y-72326807D01*
X81456865Y-73593321D01*
G37*
G36*
X92321734Y-74732838D02*
G01*
X92481449Y-74771482D01*
X92623380Y-74838000D01*
X92737042Y-74931283D01*
X92810859Y-75026680D01*
X92892085Y-75183416D01*
X92940876Y-75352686D01*
X92958465Y-75527846D01*
X92946082Y-75702252D01*
X92904960Y-75869258D01*
X92836329Y-76022220D01*
X92741423Y-76154493D01*
X92621472Y-76259432D01*
X92477707Y-76330392D01*
X92381151Y-76353540D01*
X92232788Y-76367156D01*
X92080317Y-76361393D01*
X91945517Y-76336022D01*
X91886312Y-76313760D01*
X91766725Y-76242837D01*
X91661684Y-76148396D01*
X91587121Y-76043443D01*
X91575924Y-76020811D01*
X91551276Y-75964664D01*
X91541445Y-75931613D01*
X91551620Y-75917318D01*
X91593303Y-75894104D01*
X91653297Y-75871558D01*
X91716456Y-75854346D01*
X91767635Y-75847129D01*
X91791688Y-75854571D01*
X91807382Y-75888168D01*
X91851974Y-75955445D01*
X91908011Y-76023290D01*
X91961111Y-76073146D01*
X92046448Y-76113297D01*
X92157514Y-76131943D01*
X92275294Y-76126872D01*
X92382406Y-76097095D01*
X92423391Y-76076537D01*
X92522788Y-75997322D01*
X92596742Y-75884925D01*
X92648728Y-75734617D01*
X92664858Y-75648449D01*
X92669532Y-75488803D01*
X92643825Y-75336719D01*
X92590585Y-75200913D01*
X92512661Y-75090099D01*
X92412900Y-75012992D01*
X92379352Y-74997960D01*
X92275004Y-74971298D01*
X92161321Y-74963708D01*
X92055430Y-74975435D01*
X91974459Y-75006722D01*
X91961655Y-75016039D01*
X91903956Y-75073719D01*
X91849308Y-75147169D01*
X91814460Y-75214626D01*
X91796590Y-75218164D01*
X91750403Y-75205860D01*
X91690131Y-75182079D01*
X91629763Y-75153021D01*
X91583285Y-75124888D01*
X91564684Y-75103882D01*
X91571441Y-75075726D01*
X91604829Y-75014905D01*
X91657206Y-74945101D01*
X91718514Y-74879187D01*
X91778693Y-74830035D01*
X91840727Y-74795224D01*
X91990888Y-74743601D01*
X92154718Y-74723175D01*
X92321734Y-74732838D01*
G37*
G36*
X80758646Y-73930284D02*
G01*
X80479780Y-73930284D01*
X80479780Y-72326807D01*
X80758646Y-72326807D01*
X80758646Y-73930284D01*
G37*
G36*
X92297246Y-72307188D02*
G01*
X92453044Y-72335586D01*
X92472807Y-72341709D01*
X92619491Y-72413479D01*
X92744481Y-72522324D01*
X92843844Y-72662849D01*
X92913645Y-72829655D01*
X92949951Y-73017347D01*
X92952223Y-73214812D01*
X92919253Y-73407017D01*
X92851957Y-73576667D01*
X92752547Y-73719685D01*
X92623236Y-73831990D01*
X92466234Y-73909503D01*
X92465722Y-73909680D01*
X92288604Y-73947817D01*
X92105927Y-73945682D01*
X91929300Y-73904663D01*
X91770335Y-73826153D01*
X91714736Y-73779720D01*
X91653184Y-73712417D01*
X91597445Y-73638397D01*
X91557030Y-73570339D01*
X91541445Y-73520923D01*
X91552059Y-73504616D01*
X91593833Y-73479244D01*
X91653558Y-73454926D01*
X91716358Y-73436605D01*
X91767360Y-73429227D01*
X91791688Y-73437737D01*
X91812199Y-73483415D01*
X91880766Y-73572282D01*
X91974117Y-73648263D01*
X92078366Y-73701217D01*
X92179626Y-73721005D01*
X92267686Y-73712679D01*
X92390365Y-73675886D01*
X92490422Y-73616203D01*
X92509421Y-73598858D01*
X92583850Y-73496522D01*
X92634672Y-73366559D01*
X92661537Y-73219392D01*
X92664093Y-73065444D01*
X92641989Y-72915139D01*
X92594874Y-72778899D01*
X92522397Y-72667146D01*
X92483734Y-72631538D01*
X92381736Y-72575900D01*
X92260565Y-72544683D01*
X92135499Y-72540922D01*
X92021819Y-72567655D01*
X92008634Y-72573763D01*
X91944459Y-72616844D01*
X91883584Y-72674871D01*
X91838153Y-72734824D01*
X91820311Y-72783683D01*
X91818037Y-72799607D01*
X91802106Y-72810949D01*
X91788667Y-72805238D01*
X91740577Y-72784821D01*
X91674380Y-72756725D01*
X91634841Y-72737869D01*
X91584496Y-72705412D01*
X91564771Y-72679576D01*
X91572133Y-72646292D01*
X91609784Y-72580190D01*
X91670741Y-72507278D01*
X91745249Y-72438645D01*
X91823555Y-72385381D01*
X91836067Y-72378823D01*
X91972633Y-72330082D01*
X92131734Y-72305779D01*
X92297246Y-72307188D01*
G37*
G36*
X86147673Y-75634101D02*
G01*
X86119188Y-75836672D01*
X86058080Y-76006596D01*
X85963861Y-76144673D01*
X85836042Y-76251706D01*
X85674136Y-76328494D01*
X85583718Y-76351833D01*
X85429038Y-76367561D01*
X85268924Y-76360513D01*
X85124397Y-76330610D01*
X85057481Y-76304302D01*
X84967123Y-76248369D01*
X84869823Y-76161900D01*
X84854748Y-76146713D01*
X84771294Y-76049801D01*
X84713015Y-75950892D01*
X84676144Y-75839144D01*
X84656914Y-75703714D01*
X84653345Y-75590476D01*
X84931481Y-75590476D01*
X84940407Y-75717775D01*
X84962045Y-75819026D01*
X85003864Y-75908624D01*
X85093089Y-76017789D01*
X85207913Y-76094288D01*
X85208599Y-76094599D01*
X85342995Y-76132411D01*
X85479947Y-76129990D01*
X85608341Y-76089142D01*
X85717066Y-76011668D01*
X85726906Y-76001492D01*
X85806822Y-75882261D01*
X85855032Y-75729866D01*
X85871180Y-75545380D01*
X85867256Y-75459614D01*
X85853615Y-75353226D01*
X85833409Y-75268516D01*
X85792614Y-75178915D01*
X85709875Y-75075813D01*
X85606059Y-75004384D01*
X85488877Y-74964794D01*
X85366040Y-74957206D01*
X85245261Y-74981786D01*
X85134251Y-75038696D01*
X85040723Y-75128102D01*
X84972387Y-75250168D01*
X84950416Y-75331853D01*
X84934929Y-75455658D01*
X84931481Y-75590476D01*
X84653345Y-75590476D01*
X84651558Y-75533761D01*
X84652452Y-75440783D01*
X84657024Y-75350651D01*
X84667723Y-75281345D01*
X84687010Y-75218410D01*
X84717346Y-75147390D01*
X84798250Y-75007565D01*
X84918968Y-74878904D01*
X85069442Y-74785474D01*
X85136121Y-74758865D01*
X85205387Y-74742393D01*
X85291037Y-74734240D01*
X85408047Y-74732040D01*
X85484340Y-74732571D01*
X85571252Y-74736802D01*
X85637199Y-74747814D01*
X85697527Y-74768599D01*
X85767585Y-74802151D01*
X85895064Y-74884437D01*
X86008044Y-75004148D01*
X86087567Y-75153285D01*
X86134584Y-75333697D01*
X86149911Y-75545380D01*
X86150045Y-75547236D01*
X86147673Y-75634101D01*
G37*
G36*
X99390511Y-74776049D02*
G01*
X99316249Y-74946010D01*
X99236778Y-75097844D01*
X99064268Y-75354231D01*
X98859909Y-75580280D01*
X98627327Y-75773176D01*
X98370151Y-75930104D01*
X98092008Y-76048252D01*
X97796527Y-76124804D01*
X97588824Y-76152122D01*
X97285049Y-76155519D01*
X96989472Y-76116721D01*
X96705794Y-76038092D01*
X96437715Y-75921994D01*
X96188936Y-75770793D01*
X95963157Y-75586851D01*
X95764078Y-75372534D01*
X95595401Y-75130203D01*
X95460826Y-74862225D01*
X95364053Y-74570962D01*
X95352888Y-74523575D01*
X95318367Y-74302737D01*
X95305583Y-74076035D01*
X95733431Y-74076035D01*
X95750113Y-74097939D01*
X95784666Y-74125103D01*
X95824876Y-74146460D01*
X95858449Y-74151086D01*
X95914012Y-74137467D01*
X95958838Y-74121548D01*
X95974181Y-74137807D01*
X95956546Y-74186415D01*
X95940675Y-74230150D01*
X95952486Y-74263387D01*
X95997359Y-74268807D01*
X96071705Y-74244596D01*
X96133011Y-74220259D01*
X96171903Y-74216935D01*
X96202951Y-74234154D01*
X96227755Y-74249540D01*
X96255826Y-74242648D01*
X96295325Y-74202584D01*
X96301759Y-74195300D01*
X96344116Y-74155616D01*
X96374817Y-74139433D01*
X96403607Y-74131298D01*
X96451458Y-74105749D01*
X96458980Y-74101367D01*
X96506384Y-74082329D01*
X96569085Y-74064233D01*
X96632214Y-74050451D01*
X96680902Y-74044355D01*
X96700280Y-74049317D01*
X96694338Y-74072901D01*
X96678206Y-74128953D01*
X96655483Y-74204824D01*
X96641129Y-74246445D01*
X96583264Y-74370028D01*
X96510477Y-74483689D01*
X96462822Y-74545681D01*
X96415968Y-74602088D01*
X96381683Y-74633550D01*
X96351516Y-74647369D01*
X96317017Y-74650847D01*
X96299380Y-74653158D01*
X96252080Y-74671671D01*
X96208113Y-74700652D01*
X96180547Y-74730369D01*
X96182449Y-74751087D01*
X96230621Y-74766632D01*
X96308935Y-74776139D01*
X96398033Y-74777626D01*
X96479858Y-74769948D01*
X96547625Y-74750098D01*
X96668486Y-74685347D01*
X96807892Y-74579856D01*
X96964851Y-74434312D01*
X97124670Y-74274554D01*
X97260047Y-74408519D01*
X97294025Y-74442767D01*
X97353073Y-74508848D01*
X97377759Y-74551412D01*
X97369606Y-74574205D01*
X97330135Y-74580970D01*
X97327490Y-74581043D01*
X97286703Y-74595463D01*
X97248647Y-74625929D01*
X97225901Y-74659475D01*
X97231044Y-74683131D01*
X97257255Y-74687774D01*
X97318135Y-74687748D01*
X97397242Y-74681917D01*
X97417562Y-74679768D01*
X97489134Y-74669773D01*
X97531862Y-74653722D01*
X97560130Y-74623164D01*
X97588320Y-74569647D01*
X97635561Y-74472411D01*
X97586307Y-74361065D01*
X97568302Y-74318875D01*
X97545833Y-74260342D01*
X97537054Y-74228360D01*
X97557520Y-74218634D01*
X97612448Y-74213359D01*
X97689758Y-74213885D01*
X97842462Y-74220769D01*
X97846620Y-74418194D01*
X97850777Y-74615619D01*
X97751551Y-74628967D01*
X97707946Y-74636158D01*
X97642314Y-74656310D01*
X97617971Y-74679627D01*
X97631759Y-74703065D01*
X97680523Y-74723577D01*
X97761109Y-74738118D01*
X97870359Y-74743642D01*
X98014729Y-74743642D01*
X98132472Y-74609878D01*
X98204036Y-74534401D01*
X98282628Y-74460918D01*
X98349312Y-74407441D01*
X98448408Y-74338768D01*
X98495625Y-74403587D01*
X98545273Y-74455940D01*
X98628159Y-74501716D01*
X98745471Y-74532276D01*
X98794299Y-74546848D01*
X98824105Y-74575226D01*
X98810327Y-74606242D01*
X98752425Y-74632148D01*
X98719482Y-74642019D01*
X98671887Y-74667646D01*
X98668629Y-74694508D01*
X98710727Y-74720446D01*
X98770230Y-74737704D01*
X98868032Y-74736003D01*
X98966278Y-74691354D01*
X99020478Y-74647297D01*
X99043022Y-74598213D01*
X99032033Y-74535641D01*
X98988451Y-74449308D01*
X98983165Y-74440010D01*
X98936975Y-74322743D01*
X98908482Y-74168401D01*
X98908023Y-74164477D01*
X98892779Y-74061708D01*
X98873122Y-73963894D01*
X98853184Y-73891717D01*
X98844151Y-73864490D01*
X98830798Y-73809931D01*
X98831370Y-73782415D01*
X98840008Y-73766734D01*
X98833318Y-73716871D01*
X98797734Y-73649858D01*
X98739270Y-73572453D01*
X98663941Y-73491416D01*
X98577758Y-73413506D01*
X98486737Y-73345479D01*
X98396889Y-73294096D01*
X98368864Y-73281196D01*
X98293610Y-73250774D01*
X98224934Y-73233416D01*
X98145179Y-73225694D01*
X98036688Y-73224183D01*
X98026794Y-73224237D01*
X97895246Y-73227457D01*
X97751304Y-73234481D01*
X97624399Y-73243900D01*
X97543763Y-73250853D01*
X97467307Y-73253595D01*
X97408372Y-73247228D01*
X97350746Y-73229632D01*
X97278217Y-73198692D01*
X97246802Y-73184925D01*
X97164558Y-73155063D01*
X97095355Y-73144165D01*
X97018847Y-73148276D01*
X96986206Y-73153300D01*
X96894836Y-73176304D01*
X96818917Y-73206473D01*
X96806766Y-73212903D01*
X96738390Y-73248672D01*
X96648855Y-73295104D01*
X96554263Y-73343841D01*
X96524211Y-73359484D01*
X96439396Y-73405942D01*
X96371142Y-73446591D01*
X96332016Y-73474069D01*
X96328506Y-73477199D01*
X96292082Y-73498142D01*
X96261601Y-73482620D01*
X96252505Y-73474834D01*
X96225183Y-73472065D01*
X96189753Y-73506035D01*
X96179713Y-73517618D01*
X96135815Y-73546225D01*
X96075209Y-73543798D01*
X96036715Y-73537905D01*
X96009382Y-73545972D01*
X96003293Y-73579738D01*
X96003205Y-73582882D01*
X95987821Y-73637195D01*
X95954015Y-73696715D01*
X95953771Y-73697045D01*
X95916633Y-73765349D01*
X95896280Y-73835994D01*
X95884713Y-73877350D01*
X95853694Y-73940536D01*
X95813044Y-74002980D01*
X95772099Y-74050701D01*
X95740197Y-74069716D01*
X95733431Y-74076035D01*
X95305583Y-74076035D01*
X95304904Y-74063991D01*
X95312923Y-73826586D01*
X95342849Y-73609771D01*
X95422109Y-73330087D01*
X95545020Y-73055089D01*
X95705830Y-72799443D01*
X95900450Y-72569622D01*
X96124791Y-72372099D01*
X96276047Y-72267738D01*
X96542701Y-72124966D01*
X96820039Y-72023344D01*
X97103954Y-71961963D01*
X97390339Y-71939912D01*
X97675084Y-71956281D01*
X97954084Y-72010162D01*
X98223230Y-72100644D01*
X98478415Y-72226818D01*
X98715530Y-72387775D01*
X98930469Y-72582604D01*
X99119123Y-72810396D01*
X99277385Y-73070241D01*
X99347619Y-73216764D01*
X99429664Y-73434664D01*
X99481478Y-73652998D01*
X99505947Y-73885342D01*
X99505957Y-74145277D01*
X99498271Y-74280648D01*
X99477698Y-74459508D01*
X99447618Y-74598213D01*
X99443053Y-74619262D01*
X99390511Y-74776049D01*
G37*
G36*
X83988838Y-76347118D02*
G01*
X83988838Y-75719671D01*
X83820356Y-75720545D01*
X83651875Y-75721419D01*
X83456167Y-76034268D01*
X83260459Y-76347118D01*
X83113395Y-76347118D01*
X83042778Y-76345234D01*
X82987503Y-76339731D01*
X82966331Y-76331877D01*
X82968799Y-76325609D01*
X82990763Y-76286774D01*
X83031806Y-76219570D01*
X83087462Y-76131238D01*
X83153260Y-76029018D01*
X83182247Y-75984252D01*
X83245676Y-75885051D01*
X83297886Y-75801679D01*
X83334111Y-75741807D01*
X83349581Y-75713107D01*
X83344039Y-75695535D01*
X83308955Y-75658119D01*
X83251328Y-75615096D01*
X83202544Y-75579850D01*
X83115859Y-75484708D01*
X83066406Y-75367516D01*
X83051785Y-75230107D01*
X83324880Y-75230107D01*
X83340361Y-75320522D01*
X83387100Y-75398829D01*
X83464382Y-75453261D01*
X83517586Y-75468570D01*
X83625591Y-75482473D01*
X83767323Y-75487283D01*
X83988838Y-75487283D01*
X83988838Y-74976030D01*
X83750640Y-74976116D01*
X83719682Y-74976205D01*
X83611907Y-74978762D01*
X83536598Y-74986067D01*
X83482457Y-74999760D01*
X83438182Y-75021483D01*
X83390547Y-75060023D01*
X83341370Y-75139352D01*
X83324880Y-75230107D01*
X83051785Y-75230107D01*
X83050905Y-75221840D01*
X83052101Y-75177617D01*
X83073020Y-75054153D01*
X83124557Y-74953992D01*
X83212658Y-74863980D01*
X83237033Y-74844951D01*
X83296125Y-74808495D01*
X83364837Y-74781628D01*
X83450522Y-74763029D01*
X83560532Y-74751378D01*
X83702218Y-74745356D01*
X83882934Y-74743642D01*
X84267703Y-74743642D01*
X84267703Y-76347118D01*
X83988838Y-76347118D01*
G37*
G36*
X80076587Y-73580018D02*
G01*
X80124168Y-73707625D01*
X80161205Y-73807124D01*
X80185781Y-73873374D01*
X80195980Y-73901235D01*
X80189342Y-73917462D01*
X80148363Y-73927287D01*
X80066818Y-73930284D01*
X79927748Y-73930284D01*
X79852333Y-73721135D01*
X79776917Y-73511986D01*
X79114391Y-73511986D01*
X78963559Y-73930284D01*
X78826976Y-73930284D01*
X78766212Y-73928456D01*
X78711268Y-73922134D01*
X78689895Y-73912855D01*
X78697114Y-73889506D01*
X78718989Y-73827357D01*
X78753703Y-73731522D01*
X78799426Y-73606991D01*
X78854323Y-73458754D01*
X78916564Y-73291799D01*
X78920273Y-73281909D01*
X79207616Y-73281909D01*
X79223424Y-73293048D01*
X79262832Y-73299368D01*
X79333465Y-73302190D01*
X79442943Y-73302836D01*
X79523559Y-73301874D01*
X79609288Y-73298237D01*
X79667557Y-73292524D01*
X79688859Y-73285407D01*
X79686202Y-73274948D01*
X79670644Y-73226728D01*
X79643527Y-73147222D01*
X79607567Y-73044335D01*
X79565476Y-72925973D01*
X79442895Y-72583967D01*
X79331825Y-72902734D01*
X79316605Y-72946466D01*
X79277449Y-73059455D01*
X79244304Y-73155781D01*
X79220280Y-73226376D01*
X79208491Y-73262169D01*
X79207786Y-73264628D01*
X79207616Y-73281909D01*
X78920273Y-73281909D01*
X78984316Y-73111116D01*
X79279235Y-72326807D01*
X79608325Y-72327571D01*
X79897199Y-73099879D01*
X79957456Y-73261034D01*
X79966562Y-73285407D01*
X80020378Y-73429441D01*
X80076587Y-73580018D01*
G37*
G36*
X77691125Y-73930284D02*
G01*
X76505947Y-73930284D01*
X76505947Y-73697896D01*
X77435498Y-73697896D01*
X77435498Y-73233120D01*
X76738335Y-73233120D01*
X76738335Y-73000732D01*
X77435498Y-73000732D01*
X77435498Y-72559195D01*
X76529185Y-72559195D01*
X76529185Y-72326807D01*
X77691125Y-72326807D01*
X77691125Y-73930284D01*
G37*
G36*
X78713632Y-76347118D02*
G01*
X78454726Y-76347118D01*
X78462175Y-75696414D01*
X78462468Y-75670597D01*
X78464236Y-75504156D01*
X78465617Y-75354794D01*
X78466572Y-75228392D01*
X78467063Y-75130828D01*
X78467050Y-75067980D01*
X78466494Y-75045728D01*
X78465407Y-75048062D01*
X78452567Y-75082316D01*
X78426876Y-75153260D01*
X78390258Y-75255504D01*
X78344641Y-75383660D01*
X78291948Y-75532337D01*
X78234106Y-75696146D01*
X78004849Y-76346547D01*
X77888413Y-76346833D01*
X77771977Y-76347118D01*
X77575683Y-75795197D01*
X77535461Y-75682220D01*
X77481465Y-75530920D01*
X77432496Y-75394110D01*
X77391181Y-75279118D01*
X77360150Y-75193273D01*
X77342032Y-75143902D01*
X77333914Y-75123268D01*
X77324847Y-75106012D01*
X77318108Y-75105698D01*
X77313491Y-75126545D01*
X77310789Y-75172771D01*
X77309796Y-75248593D01*
X77310305Y-75358231D01*
X77312109Y-75505902D01*
X77315002Y-75695823D01*
X77325328Y-76347118D01*
X77063678Y-76347118D01*
X77063678Y-74743642D01*
X77453420Y-74743642D01*
X77616043Y-75214227D01*
X77624187Y-75237823D01*
X77676423Y-75390486D01*
X77726446Y-75538761D01*
X77770972Y-75672777D01*
X77806718Y-75782663D01*
X77830400Y-75858550D01*
X77882134Y-76032288D01*
X77972540Y-75742356D01*
X77979566Y-75719947D01*
X78024364Y-75580716D01*
X78077719Y-75419465D01*
X78133542Y-75254430D01*
X78185745Y-75103843D01*
X78308544Y-74755261D01*
X78511088Y-74748547D01*
X78713632Y-74741832D01*
X78713632Y-76347118D01*
G37*
G36*
X74983498Y-72328695D02*
G01*
X75126442Y-72380170D01*
X75133202Y-72383673D01*
X75271799Y-72481781D01*
X75382091Y-72612490D01*
X75461918Y-72770165D01*
X75509126Y-72949169D01*
X75521556Y-73143865D01*
X75497051Y-73348616D01*
X75485538Y-73398082D01*
X75420207Y-73576972D01*
X75324363Y-73721280D01*
X75197007Y-73832227D01*
X75037140Y-73911034D01*
X75020110Y-73916786D01*
X74874309Y-73945332D01*
X74713833Y-73947355D01*
X74556960Y-73923895D01*
X74421968Y-73875994D01*
X74336850Y-73822440D01*
X74241754Y-73739453D01*
X74163886Y-73647309D01*
X74116148Y-73559367D01*
X74106162Y-73524022D01*
X74112929Y-73499800D01*
X74146432Y-73480629D01*
X74215581Y-73457369D01*
X74269152Y-73440507D01*
X74324816Y-73425068D01*
X74353862Y-73424462D01*
X74367303Y-73439669D01*
X74376151Y-73471670D01*
X74406928Y-73532921D01*
X74472893Y-73602761D01*
X74559207Y-73662578D01*
X74652653Y-73701391D01*
X74701069Y-73712678D01*
X74781851Y-73718495D01*
X74868763Y-73702497D01*
X74904332Y-73692303D01*
X75008475Y-73648629D01*
X75086256Y-73585467D01*
X75153239Y-73491260D01*
X75159319Y-73480833D01*
X75185356Y-73431197D01*
X75201977Y-73383169D01*
X75211266Y-73324729D01*
X75215309Y-73243861D01*
X75216194Y-73128546D01*
X75216168Y-73101179D01*
X75214818Y-72994128D01*
X75209884Y-72918989D01*
X75199258Y-72863714D01*
X75180830Y-72816253D01*
X75152493Y-72764557D01*
X75152269Y-72764177D01*
X75063642Y-72652174D01*
X74951222Y-72579406D01*
X74811276Y-72543453D01*
X74743857Y-72539379D01*
X74612352Y-72558927D01*
X74504943Y-72616391D01*
X74424740Y-72710428D01*
X74365687Y-72811195D01*
X74256448Y-72763807D01*
X74217163Y-72746237D01*
X74159792Y-72718339D01*
X74129742Y-72700514D01*
X74126022Y-72684808D01*
X74142561Y-72640056D01*
X74179543Y-72579747D01*
X74229421Y-72514398D01*
X74284651Y-72454526D01*
X74337687Y-72410650D01*
X74357581Y-72398341D01*
X74494386Y-72340671D01*
X74653573Y-72309482D01*
X74821242Y-72305311D01*
X74983498Y-72328695D01*
G37*
G36*
X91233102Y-73475822D02*
G01*
X91288677Y-73623413D01*
X91335128Y-73747066D01*
X91370619Y-73841900D01*
X91393318Y-73903033D01*
X91401390Y-73925583D01*
X91384848Y-73928014D01*
X91333282Y-73928167D01*
X91258786Y-73925583D01*
X91115559Y-73918664D01*
X90972095Y-73511060D01*
X90637213Y-73517333D01*
X90302330Y-73523605D01*
X90230534Y-73726878D01*
X90158737Y-73930151D01*
X90013821Y-73930218D01*
X89868905Y-73930284D01*
X89918655Y-73796661D01*
X89922749Y-73785688D01*
X89947611Y-73719405D01*
X89985668Y-73618256D01*
X90034360Y-73489027D01*
X90091130Y-73338505D01*
X90114446Y-73276734D01*
X90402744Y-73276734D01*
X90405547Y-73282143D01*
X90442516Y-73293724D01*
X90523346Y-73300580D01*
X90649238Y-73302836D01*
X90669762Y-73302826D01*
X90772178Y-73301970D01*
X90836813Y-73298801D01*
X90871151Y-73291995D01*
X90882677Y-73280226D01*
X90878874Y-73262169D01*
X90875213Y-73252792D01*
X90856663Y-73202189D01*
X90827351Y-73120235D01*
X90790484Y-73015927D01*
X90749266Y-72898265D01*
X90728922Y-72840935D01*
X90691116Y-72739967D01*
X90659562Y-72662987D01*
X90637090Y-72616693D01*
X90626530Y-72607780D01*
X90624843Y-72613050D01*
X90610027Y-72656822D01*
X90583804Y-72732857D01*
X90549301Y-72832122D01*
X90509644Y-72945581D01*
X90497637Y-72980011D01*
X90460367Y-73089157D01*
X90430241Y-73180838D01*
X90410090Y-73246286D01*
X90402744Y-73276734D01*
X90114446Y-73276734D01*
X90153420Y-73173478D01*
X90218671Y-73000732D01*
X90468938Y-72338427D01*
X90803197Y-72338427D01*
X91101982Y-73128546D01*
X91159296Y-73280226D01*
X91170235Y-73309176D01*
X91233102Y-73475822D01*
G37*
G36*
X91276585Y-75764000D02*
G01*
X91227850Y-75930940D01*
X91151515Y-76077684D01*
X91047963Y-76195355D01*
X91017031Y-76219723D01*
X90925552Y-76278753D01*
X90834421Y-76323894D01*
X90748580Y-76349135D01*
X90603918Y-76366814D01*
X90449715Y-76363238D01*
X90303294Y-76339165D01*
X90181976Y-76295352D01*
X90052049Y-76210856D01*
X89936133Y-76088428D01*
X89852046Y-75934900D01*
X89797484Y-75746986D01*
X89784908Y-75666935D01*
X89781469Y-75533761D01*
X90068990Y-75533761D01*
X90069659Y-75582962D01*
X90091829Y-75761271D01*
X90144887Y-75906384D01*
X90228403Y-76017424D01*
X90341950Y-76093511D01*
X90471032Y-76131137D01*
X90614765Y-76129979D01*
X90752024Y-76085682D01*
X90825397Y-76040012D01*
X90912357Y-75948445D01*
X90969948Y-75827723D01*
X90999541Y-75674558D01*
X91002510Y-75485661D01*
X90996922Y-75398923D01*
X90984855Y-75313132D01*
X90963975Y-75245455D01*
X90930485Y-75179770D01*
X90855375Y-75081112D01*
X90744498Y-75001892D01*
X90608860Y-74961984D01*
X90586146Y-74959306D01*
X90440747Y-74965066D01*
X90315286Y-75010783D01*
X90212573Y-75093485D01*
X90135414Y-75210197D01*
X90086617Y-75357947D01*
X90068990Y-75533761D01*
X89781469Y-75533761D01*
X89779901Y-75473021D01*
X89809424Y-75287694D01*
X89871022Y-75118647D01*
X89962236Y-74973578D01*
X90080611Y-74860182D01*
X90178183Y-74801961D01*
X90336008Y-74746187D01*
X90504904Y-74723446D01*
X90675393Y-74732932D01*
X90838002Y-74773844D01*
X90983254Y-74845379D01*
X91101673Y-74946732D01*
X91187897Y-75071767D01*
X91253377Y-75230746D01*
X91289730Y-75405028D01*
X91293125Y-75485661D01*
X91297339Y-75585737D01*
X91276585Y-75764000D01*
G37*
G36*
X88148582Y-73930284D02*
G01*
X87869716Y-73930284D01*
X87869716Y-72326807D01*
X88148582Y-72326807D01*
X88148582Y-73930284D01*
G37*
G36*
X81176944Y-76347118D02*
G01*
X80898078Y-76347118D01*
X80898078Y-74743642D01*
X81176944Y-74743642D01*
X81176944Y-76347118D01*
G37*
G36*
X100202351Y-76110866D02*
G01*
X100189483Y-76130621D01*
X99943704Y-76427818D01*
X99666736Y-76692407D01*
X99603988Y-76744421D01*
X99276518Y-76981997D01*
X98931130Y-77177337D01*
X98566022Y-77331224D01*
X98179393Y-77444441D01*
X97769442Y-77517773D01*
X97720117Y-77522308D01*
X97600910Y-77526217D01*
X97454038Y-77525012D01*
X97291396Y-77519306D01*
X97124877Y-77509711D01*
X96966376Y-77496842D01*
X96827788Y-77481311D01*
X96721007Y-77463731D01*
X96337049Y-77360600D01*
X95964571Y-77214945D01*
X95945574Y-77204914D01*
X97455718Y-77204914D01*
X97583531Y-77204032D01*
X97587649Y-77203993D01*
X97721523Y-77194699D01*
X97883773Y-77171460D01*
X98059983Y-77137076D01*
X98235734Y-77094349D01*
X98396606Y-77046080D01*
X98562293Y-76983153D01*
X98751879Y-76897898D01*
X98940960Y-76801136D01*
X99114681Y-76700495D01*
X99258192Y-76603602D01*
X99311596Y-76562381D01*
X99406615Y-76484557D01*
X99504570Y-76399885D01*
X99597618Y-76315545D01*
X99677915Y-76238714D01*
X99737615Y-76176570D01*
X99768875Y-76136292D01*
X99775570Y-76110866D01*
X99755265Y-76104409D01*
X99711061Y-76120624D01*
X99710142Y-76120961D01*
X99646526Y-76157342D01*
X99570741Y-76210376D01*
X99489112Y-76276882D01*
X99485086Y-76280403D01*
X99177584Y-76522813D01*
X98859487Y-76722793D01*
X98532871Y-76879345D01*
X98199815Y-76991471D01*
X97862397Y-77058174D01*
X97812687Y-77066433D01*
X97734970Y-77086347D01*
X97682085Y-77108749D01*
X97675995Y-77112561D01*
X97614481Y-77144268D01*
X97542652Y-77173886D01*
X97455718Y-77204914D01*
X95945574Y-77204914D01*
X95615323Y-77030533D01*
X95291605Y-76809146D01*
X94995722Y-76552565D01*
X94729975Y-76262570D01*
X94496667Y-75940944D01*
X94298101Y-75589467D01*
X94273347Y-75538173D01*
X94127709Y-75176353D01*
X94024892Y-74801651D01*
X93964885Y-74418517D01*
X93947676Y-74031400D01*
X93952139Y-73963924D01*
X94274853Y-73963924D01*
X94276081Y-74213587D01*
X94293321Y-74453485D01*
X94326574Y-74666684D01*
X94414747Y-74998956D01*
X94551717Y-75355052D01*
X94725838Y-75687316D01*
X94934778Y-75993396D01*
X95176205Y-76270940D01*
X95447785Y-76517599D01*
X95747185Y-76731020D01*
X96072073Y-76908853D01*
X96420116Y-77048746D01*
X96788981Y-77148349D01*
X96810214Y-77152589D01*
X96897896Y-77167370D01*
X96992556Y-77179990D01*
X97086610Y-77189937D01*
X97172471Y-77196700D01*
X97242554Y-77199765D01*
X97289273Y-77198621D01*
X97305042Y-77192756D01*
X97282276Y-77181657D01*
X97281916Y-77181545D01*
X97207911Y-77151665D01*
X97142843Y-77115110D01*
X97110286Y-77098086D01*
X97035549Y-77073676D01*
X96950302Y-77057294D01*
X96808906Y-77034518D01*
X96554030Y-76970572D01*
X96291951Y-76879219D01*
X96036850Y-76765675D01*
X95802904Y-76635156D01*
X95661631Y-76541323D01*
X95364259Y-76304955D01*
X95101780Y-76038588D01*
X94875570Y-75744149D01*
X94687009Y-75423567D01*
X94537472Y-75078769D01*
X94428339Y-74711683D01*
X94407110Y-74616579D01*
X94389994Y-74523652D01*
X94378523Y-74432150D01*
X94371592Y-74330101D01*
X94368096Y-74205534D01*
X94366929Y-74046478D01*
X94366965Y-74034858D01*
X94446294Y-74034858D01*
X94449948Y-74196563D01*
X94487915Y-74564256D01*
X94567574Y-74911857D01*
X94689506Y-75240767D01*
X94854292Y-75552390D01*
X95062515Y-75848126D01*
X95314754Y-76129378D01*
X95438983Y-76248232D01*
X95701072Y-76463432D01*
X95974332Y-76639004D01*
X96266490Y-76779573D01*
X96585277Y-76889766D01*
X96617869Y-76898998D01*
X96734183Y-76929254D01*
X96839125Y-76952683D01*
X96924380Y-76967752D01*
X96981630Y-76972928D01*
X97002561Y-76966678D01*
X97001934Y-76964459D01*
X97815919Y-76964459D01*
X97827339Y-76972391D01*
X97875393Y-76971544D01*
X97953728Y-76959095D01*
X98054448Y-76936985D01*
X98169654Y-76907154D01*
X98291448Y-76871542D01*
X98411932Y-76832088D01*
X98523207Y-76790734D01*
X98563894Y-76773956D01*
X98759266Y-76681383D01*
X98956019Y-76570447D01*
X99142550Y-76448609D01*
X99307255Y-76323333D01*
X99438528Y-76202082D01*
X99515756Y-76120624D01*
X99456113Y-76105654D01*
X99449752Y-76104245D01*
X99413991Y-76104606D01*
X99370483Y-76122111D01*
X99310320Y-76161438D01*
X99224595Y-76227266D01*
X99179224Y-76262733D01*
X98963113Y-76416839D01*
X98747683Y-76547507D01*
X98545375Y-76647049D01*
X98530501Y-76653286D01*
X98422608Y-76694879D01*
X98302065Y-76736429D01*
X98180068Y-76774583D01*
X98067814Y-76805986D01*
X97976499Y-76827287D01*
X97917319Y-76835133D01*
X97870600Y-76854339D01*
X97831836Y-76903171D01*
X97815919Y-76964459D01*
X97001934Y-76964459D01*
X96996069Y-76943703D01*
X96976879Y-76897147D01*
X96961875Y-76872154D01*
X96920082Y-76843020D01*
X96846461Y-76826425D01*
X96802864Y-76818132D01*
X96714359Y-76795972D01*
X96606771Y-76765085D01*
X96494513Y-76729444D01*
X96248290Y-76635006D01*
X95949176Y-76481220D01*
X95671514Y-76289875D01*
X95408700Y-76056880D01*
X95266896Y-75906428D01*
X95045490Y-75620548D01*
X94864846Y-75313891D01*
X94725965Y-74988996D01*
X94629849Y-74648404D01*
X94577500Y-74294653D01*
X94573688Y-74111441D01*
X94652117Y-74111441D01*
X94683534Y-74458748D01*
X94756669Y-74799452D01*
X94870907Y-75127792D01*
X95025631Y-75438009D01*
X95048386Y-75476172D01*
X95240558Y-75749891D01*
X95467844Y-76000570D01*
X95724355Y-76223593D01*
X96004200Y-76414340D01*
X96301488Y-76568193D01*
X96610329Y-76680533D01*
X96700068Y-76706267D01*
X96805515Y-76735436D01*
X96877141Y-76752447D01*
X96921478Y-76757857D01*
X96945058Y-76752224D01*
X96954416Y-76736106D01*
X96954447Y-76735622D01*
X97863206Y-76735622D01*
X97867118Y-76753303D01*
X97885815Y-76759305D01*
X97926876Y-76753742D01*
X97997879Y-76736725D01*
X98106404Y-76708367D01*
X98307159Y-76647774D01*
X98634801Y-76511282D01*
X98940135Y-76334559D01*
X99220605Y-76118955D01*
X99259927Y-76082861D01*
X99294976Y-76039961D01*
X99297440Y-76007998D01*
X99270744Y-75977289D01*
X99263896Y-75972520D01*
X99235703Y-75969924D01*
X99193908Y-75992502D01*
X99129394Y-76044596D01*
X99103711Y-76066456D01*
X98874975Y-76235328D01*
X98619974Y-76383945D01*
X98353246Y-76504685D01*
X98089327Y-76589926D01*
X97998463Y-76613558D01*
X97930848Y-76634538D01*
X97892152Y-76653743D01*
X97873660Y-76675668D01*
X97866663Y-76704808D01*
X97866499Y-76706151D01*
X97863206Y-76735622D01*
X96954447Y-76735622D01*
X96956084Y-76710062D01*
X96949211Y-76670991D01*
X96920305Y-76646142D01*
X96857319Y-76625885D01*
X96845939Y-76622976D01*
X96565479Y-76540374D01*
X96317082Y-76443270D01*
X96087594Y-76325787D01*
X95863861Y-76182049D01*
X95734213Y-76083480D01*
X95495933Y-75860748D01*
X95283863Y-75605251D01*
X95102228Y-75323132D01*
X94955255Y-75020537D01*
X94847169Y-74703609D01*
X94830809Y-74641562D01*
X94813188Y-74565449D01*
X94800823Y-74492597D01*
X94792800Y-74413058D01*
X94788202Y-74316886D01*
X94786115Y-74194135D01*
X94785622Y-74034858D01*
X94785844Y-73919054D01*
X94785964Y-73908628D01*
X94852552Y-73908628D01*
X94856679Y-74241077D01*
X94904500Y-74570075D01*
X94995745Y-74891843D01*
X95130141Y-75202604D01*
X95307419Y-75498581D01*
X95390278Y-75606245D01*
X95499650Y-75730232D01*
X95623876Y-75858499D01*
X95752394Y-75980589D01*
X95874641Y-76086047D01*
X95980055Y-76164416D01*
X96161127Y-76272013D01*
X96385957Y-76382441D01*
X96607502Y-76469020D01*
X96614224Y-76471251D01*
X96713216Y-76501907D01*
X96807622Y-76527717D01*
X96877847Y-76543297D01*
X96893351Y-76545818D01*
X96950648Y-76549837D01*
X96987160Y-76533771D01*
X97023204Y-76490198D01*
X97072506Y-76420959D01*
X97068064Y-76420226D01*
X97750311Y-76420226D01*
X97788925Y-76488100D01*
X97803419Y-76511534D01*
X97829651Y-76538649D01*
X97865618Y-76550459D01*
X97919930Y-76547178D01*
X98001195Y-76529015D01*
X98118023Y-76496183D01*
X98199357Y-76470787D01*
X98445903Y-76374526D01*
X98684578Y-76254087D01*
X98902548Y-76116457D01*
X99086983Y-75968623D01*
X99121090Y-75936279D01*
X99160668Y-75890307D01*
X99174892Y-75851212D01*
X99171060Y-75804770D01*
X99170457Y-75801623D01*
X99158728Y-75749142D01*
X99149717Y-75722513D01*
X99149155Y-75722203D01*
X99126822Y-75734909D01*
X99080519Y-75771335D01*
X99019432Y-75824306D01*
X98826263Y-75978431D01*
X98592403Y-76126750D01*
X98343284Y-76251102D01*
X98090844Y-76345580D01*
X97847022Y-76404278D01*
X97750311Y-76420226D01*
X97068064Y-76420226D01*
X96973627Y-76404644D01*
X96961648Y-76402591D01*
X96810558Y-76367055D01*
X96639368Y-76312519D01*
X96465255Y-76245000D01*
X96305398Y-76170519D01*
X96090120Y-76045123D01*
X95826279Y-75845907D01*
X95594224Y-75614334D01*
X95396415Y-75353328D01*
X95235316Y-75065812D01*
X95113387Y-74754711D01*
X95078825Y-74634267D01*
X95019366Y-74317318D01*
X95003499Y-74001712D01*
X95007074Y-73958557D01*
X95088658Y-73958557D01*
X95098365Y-74270841D01*
X95150435Y-74577984D01*
X95244209Y-74875978D01*
X95379025Y-75160812D01*
X95554222Y-75428476D01*
X95769139Y-75674959D01*
X95806071Y-75711158D01*
X96058869Y-75923190D01*
X96332839Y-76093864D01*
X96628386Y-76223399D01*
X96945914Y-76312014D01*
X97002567Y-76323510D01*
X97079205Y-76336183D01*
X97135566Y-76338119D01*
X97187779Y-76329168D01*
X97251969Y-76309181D01*
X97274478Y-76301740D01*
X97349300Y-76282712D01*
X97414417Y-76281576D01*
X97495976Y-76297027D01*
X97587978Y-76317968D01*
X97669412Y-76332284D01*
X97735475Y-76335639D01*
X97802203Y-76328644D01*
X97885636Y-76311913D01*
X98170659Y-76229528D01*
X98458321Y-76106333D01*
X98722232Y-75951332D01*
X98761877Y-75923457D01*
X98874081Y-75836752D01*
X98980297Y-75744355D01*
X99072339Y-75654112D01*
X99142021Y-75573869D01*
X99181158Y-75511471D01*
X99204367Y-75467693D01*
X99255202Y-75393921D01*
X99315555Y-75321741D01*
X99366209Y-75261703D01*
X99467639Y-75104585D01*
X99557753Y-74914195D01*
X99632731Y-74699268D01*
X99688752Y-74468542D01*
X99694411Y-74436400D01*
X99712133Y-74278479D01*
X99719944Y-74097364D01*
X99717923Y-73910223D01*
X99706148Y-73734223D01*
X99684699Y-73586532D01*
X99684404Y-73585098D01*
X99596165Y-73267816D01*
X99467861Y-72972031D01*
X99301828Y-72700221D01*
X99100403Y-72454863D01*
X98865922Y-72238433D01*
X98600723Y-72053409D01*
X98307142Y-71902267D01*
X97987515Y-71787483D01*
X97984841Y-71786713D01*
X97910899Y-71767048D01*
X97840801Y-71753021D01*
X97764485Y-71743747D01*
X97671890Y-71738341D01*
X97552956Y-71735917D01*
X97397621Y-71735592D01*
X97316252Y-71735899D01*
X97184141Y-71737489D01*
X97083000Y-71741287D01*
X97002512Y-71748373D01*
X96932359Y-71759831D01*
X96862225Y-71776743D01*
X96781793Y-71800191D01*
X96478884Y-71913417D01*
X96188160Y-72067683D01*
X95925189Y-72256847D01*
X95692697Y-72478632D01*
X95493412Y-72730768D01*
X95330058Y-73010979D01*
X95320332Y-73030965D01*
X95198981Y-73334609D01*
X95121976Y-73645143D01*
X95088658Y-73958557D01*
X95007074Y-73958557D01*
X95029236Y-73691030D01*
X95094588Y-73388853D01*
X95197569Y-73098763D01*
X95336190Y-72824340D01*
X95508463Y-72569166D01*
X95712400Y-72336822D01*
X95946014Y-72130888D01*
X96207315Y-71954947D01*
X96494317Y-71812579D01*
X96805032Y-71707365D01*
X96860724Y-71692979D01*
X96952260Y-71672343D01*
X97038872Y-71658548D01*
X97133407Y-71650232D01*
X97248708Y-71646036D01*
X97397621Y-71644598D01*
X97440752Y-71644533D01*
X97582757Y-71645904D01*
X97693869Y-71650714D01*
X97786445Y-71660111D01*
X97872841Y-71675239D01*
X97965413Y-71697244D01*
X98289727Y-71803647D01*
X98591386Y-71948502D01*
X98865947Y-72128912D01*
X99111049Y-72342513D01*
X99324331Y-72586946D01*
X99503431Y-72859848D01*
X99645988Y-73158857D01*
X99749641Y-73481613D01*
X99750792Y-73486235D01*
X99771750Y-73579943D01*
X99786003Y-73670404D01*
X99794647Y-73770037D01*
X99798778Y-73891256D01*
X99799491Y-74046478D01*
X99799182Y-74097364D01*
X99799062Y-74117107D01*
X99796418Y-74250740D01*
X99790383Y-74356172D01*
X99779637Y-74446098D01*
X99762858Y-74533212D01*
X99738725Y-74630210D01*
X99728958Y-74665437D01*
X99688288Y-74794618D01*
X99641058Y-74925585D01*
X99595609Y-75034763D01*
X99579864Y-75069161D01*
X99546302Y-75145084D01*
X99524289Y-75198810D01*
X99517971Y-75220422D01*
X99520148Y-75221042D01*
X99552753Y-75220175D01*
X99609949Y-75214333D01*
X99641937Y-75209428D01*
X99676028Y-75196646D01*
X99703078Y-75168720D01*
X99731125Y-75116287D01*
X99768205Y-75029987D01*
X99873558Y-74725350D01*
X99942916Y-74391305D01*
X99967209Y-74053115D01*
X99946434Y-73714527D01*
X99880588Y-73379289D01*
X99769668Y-73051151D01*
X99760113Y-73028332D01*
X99608913Y-72730545D01*
X99419979Y-72456395D01*
X99197250Y-72209295D01*
X98944668Y-71992657D01*
X98666174Y-71809895D01*
X98365709Y-71664421D01*
X98047215Y-71559648D01*
X97867595Y-71520463D01*
X97533094Y-71482073D01*
X97201976Y-71487311D01*
X96877957Y-71534479D01*
X96564752Y-71621881D01*
X96266078Y-71747819D01*
X95985651Y-71910596D01*
X95727187Y-72108516D01*
X95494402Y-72339881D01*
X95291012Y-72602994D01*
X95120732Y-72896158D01*
X95105045Y-72928342D01*
X94976464Y-73248483D01*
X94892390Y-73576504D01*
X94852552Y-73908628D01*
X94785964Y-73908628D01*
X94787366Y-73786275D01*
X94791127Y-73683093D01*
X94798036Y-73599581D01*
X94809002Y-73525808D01*
X94824936Y-73451848D01*
X94846747Y-73367770D01*
X94852767Y-73345936D01*
X94965879Y-73024713D01*
X95118133Y-72722250D01*
X95306002Y-72442177D01*
X95525960Y-72188125D01*
X95774483Y-71963722D01*
X96048044Y-71772600D01*
X96343118Y-71618388D01*
X96656180Y-71504716D01*
X96732415Y-71484005D01*
X97078226Y-71418861D01*
X97427536Y-71398736D01*
X97775706Y-71423368D01*
X98118100Y-71492496D01*
X98450080Y-71605858D01*
X98571429Y-71662540D01*
X98762053Y-71771358D01*
X98955416Y-71902135D01*
X99137498Y-72045158D01*
X99294281Y-72190715D01*
X99502436Y-72430175D01*
X99697013Y-72718411D01*
X99849271Y-73025462D01*
X99958681Y-73350026D01*
X100024715Y-73690799D01*
X100046843Y-74046478D01*
X100046658Y-74053115D01*
X100043053Y-74182598D01*
X100016424Y-74444010D01*
X99966724Y-74700766D01*
X99896792Y-74939703D01*
X99809464Y-75147663D01*
X99785195Y-75200714D01*
X99778929Y-75237097D01*
X99794946Y-75257692D01*
X99803476Y-75262757D01*
X99837182Y-75273200D01*
X99868283Y-75261816D01*
X99899808Y-75224020D01*
X99934789Y-75155228D01*
X99976258Y-75050854D01*
X100027246Y-74906313D01*
X100073705Y-74753340D01*
X100138243Y-74430510D01*
X100163920Y-74095890D01*
X100150830Y-73758502D01*
X100099065Y-73427364D01*
X100008720Y-73111496D01*
X99926281Y-72907423D01*
X99763863Y-72599999D01*
X99567935Y-72320393D01*
X99341955Y-72070281D01*
X99089381Y-71851340D01*
X98813669Y-71665245D01*
X98518277Y-71513674D01*
X98206663Y-71398302D01*
X97882284Y-71320805D01*
X97548597Y-71282861D01*
X97209061Y-71286144D01*
X96867132Y-71332332D01*
X96526268Y-71423101D01*
X96397256Y-71470091D01*
X96083413Y-71617787D01*
X95791264Y-71803588D01*
X95524464Y-72023820D01*
X95286666Y-72274807D01*
X95081522Y-72552876D01*
X94912688Y-72854353D01*
X94783814Y-73175563D01*
X94716901Y-73420062D01*
X94663034Y-73763292D01*
X94652117Y-74111441D01*
X94573688Y-74111441D01*
X94569919Y-73930284D01*
X94571446Y-73896375D01*
X94599071Y-73595413D01*
X94653021Y-73319546D01*
X94736799Y-73054670D01*
X94853908Y-72786679D01*
X94971413Y-72571266D01*
X95170224Y-72282610D01*
X95397985Y-72025866D01*
X95651147Y-71801903D01*
X95926161Y-71611587D01*
X96219479Y-71455786D01*
X96527552Y-71335366D01*
X96846833Y-71251195D01*
X97173771Y-71204140D01*
X97504819Y-71195067D01*
X97836428Y-71224844D01*
X98165050Y-71294338D01*
X98487136Y-71404416D01*
X98799137Y-71555945D01*
X99097505Y-71749792D01*
X99231191Y-71855301D01*
X99490710Y-72102620D01*
X99716192Y-72379063D01*
X99905341Y-72680692D01*
X100055863Y-73003565D01*
X100165463Y-73343743D01*
X100231846Y-73697286D01*
X100232236Y-73700479D01*
X100252721Y-73951633D01*
X100251352Y-74095890D01*
X100250415Y-74194593D01*
X100223935Y-74438146D01*
X100171894Y-74691078D01*
X100092910Y-74962177D01*
X99985597Y-75260229D01*
X99969194Y-75303798D01*
X99955789Y-75352219D01*
X99960000Y-75382080D01*
X99981398Y-75408558D01*
X99987611Y-75414565D01*
X100008025Y-75426771D01*
X100027794Y-75416504D01*
X100053758Y-75377248D01*
X100092756Y-75302492D01*
X100142976Y-75193770D01*
X100222076Y-74981604D01*
X100288833Y-74749264D01*
X100338134Y-74513192D01*
X100349509Y-74436911D01*
X100371288Y-74147884D01*
X100364542Y-73844101D01*
X100330632Y-73539337D01*
X100270919Y-73247366D01*
X100186766Y-72981963D01*
X100064219Y-72706405D01*
X99878582Y-72388764D01*
X99657743Y-72099602D01*
X99403923Y-71840871D01*
X99119343Y-71614526D01*
X98806223Y-71422519D01*
X98466785Y-71266804D01*
X98103248Y-71149334D01*
X98024046Y-71129226D01*
X97943437Y-71111214D01*
X97867804Y-71098687D01*
X97786858Y-71090678D01*
X97690309Y-71086219D01*
X97567866Y-71084343D01*
X97409240Y-71084082D01*
X97366241Y-71084168D01*
X97212023Y-71085414D01*
X97091716Y-71088727D01*
X96995187Y-71094955D01*
X96912303Y-71104949D01*
X96832930Y-71119559D01*
X96746935Y-71139635D01*
X96383883Y-71252224D01*
X96042952Y-71403259D01*
X95728291Y-71590539D01*
X95442120Y-71812341D01*
X95186657Y-72066943D01*
X94964124Y-72352625D01*
X94776740Y-72667665D01*
X94711938Y-72799898D01*
X94591237Y-73097699D01*
X94508721Y-73394549D01*
X94461403Y-73702815D01*
X94446294Y-74034858D01*
X94366965Y-74034858D01*
X94367302Y-73927100D01*
X94370750Y-73772474D01*
X94378323Y-73647203D01*
X94390739Y-73540907D01*
X94408718Y-73443210D01*
X94499448Y-73104079D01*
X94630742Y-72766240D01*
X94799095Y-72453117D01*
X95006945Y-72160221D01*
X95256732Y-71883064D01*
X95513038Y-71650907D01*
X95802226Y-71441824D01*
X96109557Y-71273033D01*
X96440269Y-71141690D01*
X96799601Y-71044948D01*
X96862599Y-71032701D01*
X97082776Y-71004508D01*
X97325106Y-70991672D01*
X97573135Y-70994191D01*
X97810409Y-71012059D01*
X98020474Y-71045273D01*
X98285230Y-71113732D01*
X98636508Y-71243890D01*
X98964334Y-71412246D01*
X99266417Y-71616481D01*
X99540468Y-71854278D01*
X99784197Y-72123316D01*
X99995315Y-72421276D01*
X100171532Y-72745841D01*
X100310559Y-73094692D01*
X100410107Y-73465508D01*
X100424986Y-73555927D01*
X100440367Y-73711183D01*
X100449580Y-73889190D01*
X100452481Y-74076399D01*
X100451090Y-74147884D01*
X100448923Y-74259259D01*
X100438761Y-74424220D01*
X100421849Y-74557731D01*
X100392868Y-74692195D01*
X100342427Y-74875974D01*
X100280659Y-75065858D01*
X100213302Y-75244443D01*
X100146091Y-75394328D01*
X100120806Y-75446044D01*
X100085100Y-75531040D01*
X100069525Y-75594984D01*
X100070508Y-75649955D01*
X100070578Y-75650429D01*
X100076422Y-75681637D01*
X100084737Y-75694089D01*
X100099080Y-75683170D01*
X100123011Y-75644266D01*
X100160086Y-75572762D01*
X100213866Y-75464044D01*
X100297318Y-75283739D01*
X100408557Y-74988939D01*
X100484283Y-74696890D01*
X100527509Y-74394760D01*
X100541248Y-74069717D01*
X100541196Y-74050000D01*
X100519077Y-73675606D01*
X100455881Y-73319490D01*
X100350257Y-72977232D01*
X100200859Y-72644410D01*
X100006335Y-72316603D01*
X100005769Y-72315754D01*
X99879862Y-72144774D01*
X99728042Y-71967172D01*
X99561947Y-71795013D01*
X99393216Y-71640365D01*
X99233485Y-71515294D01*
X99199327Y-71491724D01*
X98930929Y-71329854D01*
X98635328Y-71187361D01*
X98328163Y-71071070D01*
X98025068Y-70987807D01*
X97995815Y-70981924D01*
X97851327Y-70962036D01*
X97676925Y-70948987D01*
X97485253Y-70942788D01*
X97288959Y-70943449D01*
X97100687Y-70950983D01*
X96933086Y-70965401D01*
X96798799Y-70986713D01*
X96453433Y-71079740D01*
X96103557Y-71216111D01*
X95778327Y-71390642D01*
X95474545Y-71605068D01*
X95189014Y-71861126D01*
X95186242Y-71863900D01*
X94937398Y-72141962D01*
X94729085Y-72437999D01*
X94559226Y-72755891D01*
X94425747Y-73099515D01*
X94326574Y-73472749D01*
X94320435Y-73503036D01*
X94289638Y-73721429D01*
X94274853Y-73963924D01*
X93952139Y-73963924D01*
X93973252Y-73644753D01*
X94041601Y-73263025D01*
X94152710Y-72890666D01*
X94306568Y-72532127D01*
X94490339Y-72207088D01*
X94722773Y-71883312D01*
X94987277Y-71592286D01*
X95282221Y-71335260D01*
X95605976Y-71113481D01*
X95956913Y-70928199D01*
X96333402Y-70780662D01*
X96733813Y-70672120D01*
X96778696Y-70662808D01*
X96876264Y-70645751D01*
X96975828Y-70633885D01*
X97088502Y-70626351D01*
X97225395Y-70622292D01*
X97397621Y-70620849D01*
X97612588Y-70623066D01*
X97797120Y-70632111D01*
X97961564Y-70649878D01*
X98119060Y-70678257D01*
X98282746Y-70719137D01*
X98465762Y-70774405D01*
X98602297Y-70821214D01*
X98966023Y-70978251D01*
X99304972Y-71173062D01*
X99617033Y-71403285D01*
X99900093Y-71666552D01*
X100152040Y-71960500D01*
X100370763Y-72282763D01*
X100554149Y-72630976D01*
X100700087Y-73002774D01*
X100806464Y-73395792D01*
X100808296Y-73404630D01*
X100827378Y-73533700D01*
X100840943Y-73696552D01*
X100848990Y-73881767D01*
X100851414Y-74069717D01*
X100851520Y-74077927D01*
X100848532Y-74273614D01*
X100840027Y-74457407D01*
X100826004Y-74617890D01*
X100806464Y-74743642D01*
X100718131Y-75080237D01*
X100578852Y-75453145D01*
X100401918Y-75804501D01*
X100371490Y-75851212D01*
X100269359Y-76007998D01*
X100202351Y-76110866D01*
G37*
G36*
X79434071Y-75307182D02*
G01*
X79434226Y-75417788D01*
X79435727Y-75589878D01*
X79439740Y-75724553D01*
X79447367Y-75827696D01*
X79459710Y-75905186D01*
X79477874Y-75962904D01*
X79502960Y-76006730D01*
X79536072Y-76042545D01*
X79578313Y-76076228D01*
X79656195Y-76113855D01*
X79766982Y-76133488D01*
X79885869Y-76128229D01*
X79995841Y-76097223D01*
X80044771Y-76073703D01*
X80089210Y-76044539D01*
X80123587Y-76007305D01*
X80149295Y-75956515D01*
X80167728Y-75886682D01*
X80180281Y-75792318D01*
X80188348Y-75667938D01*
X80193323Y-75508055D01*
X80196601Y-75307182D01*
X80203907Y-74743642D01*
X80484911Y-74743642D01*
X80473541Y-75330421D01*
X80473332Y-75341079D01*
X80467936Y-75557838D01*
X80461120Y-75730684D01*
X80452729Y-75862059D01*
X80442609Y-75954403D01*
X80430606Y-76010156D01*
X80387533Y-76096218D01*
X80304726Y-76196571D01*
X80201659Y-76279843D01*
X80092386Y-76332636D01*
X79965298Y-76358181D01*
X79813665Y-76367366D01*
X79661369Y-76359399D01*
X79529927Y-76334218D01*
X79488744Y-76319834D01*
X79362586Y-76245947D01*
X79260875Y-76139315D01*
X79193341Y-76009330D01*
X79183929Y-75977690D01*
X79173687Y-75926604D01*
X79166090Y-75860534D01*
X79160789Y-75773182D01*
X79157434Y-75658253D01*
X79155677Y-75509448D01*
X79155169Y-75320472D01*
X79155169Y-74743642D01*
X79434034Y-74743642D01*
X79434071Y-75307182D01*
G37*
G36*
X86017951Y-73397100D02*
G01*
X85952565Y-73575232D01*
X85854650Y-73720204D01*
X85724235Y-73831976D01*
X85561350Y-73910506D01*
X85403110Y-73947715D01*
X85225838Y-73951837D01*
X85054600Y-73919277D01*
X84897414Y-73852553D01*
X84762297Y-73754181D01*
X84657267Y-73626679D01*
X84651997Y-73617939D01*
X84595165Y-73490823D01*
X84554468Y-73337815D01*
X84533437Y-73176403D01*
X84533504Y-73171697D01*
X84829401Y-73171697D01*
X84832122Y-73227262D01*
X84839764Y-73319653D01*
X84852640Y-73386604D01*
X84874161Y-73442481D01*
X84907738Y-73501650D01*
X84913557Y-73510785D01*
X84985976Y-73598582D01*
X85066311Y-73658793D01*
X85107308Y-73677449D01*
X85239316Y-73709820D01*
X85374627Y-73707620D01*
X85500516Y-73672132D01*
X85604259Y-73604635D01*
X85646173Y-73556419D01*
X85707387Y-73441530D01*
X85747417Y-73299375D01*
X85762636Y-73140578D01*
X85762106Y-73089830D01*
X85740306Y-72912159D01*
X85687450Y-72767392D01*
X85604004Y-72656490D01*
X85490438Y-72580415D01*
X85409623Y-72553032D01*
X85278915Y-72539946D01*
X85149952Y-72559253D01*
X85035174Y-72608549D01*
X84947021Y-72685431D01*
X84890976Y-72770995D01*
X84849690Y-72879214D01*
X84830043Y-73009151D01*
X84829401Y-73171697D01*
X84533504Y-73171697D01*
X84535602Y-73024076D01*
X84535960Y-73020720D01*
X84575934Y-72816504D01*
X84647739Y-72645194D01*
X84750423Y-72507764D01*
X84883035Y-72405189D01*
X85044623Y-72338443D01*
X85234236Y-72308500D01*
X85371764Y-72307522D01*
X85530649Y-72330315D01*
X85666161Y-72383196D01*
X85787160Y-72468732D01*
X85839432Y-72520200D01*
X85941844Y-72664883D01*
X86012364Y-72835751D01*
X86048393Y-73025238D01*
X86047781Y-73140578D01*
X86047329Y-73225778D01*
X86017951Y-73397100D01*
G37*
G36*
X83897194Y-73930284D02*
G01*
X83890729Y-73610750D01*
X83884263Y-73291217D01*
X83721592Y-73285286D01*
X83558920Y-73279356D01*
X83148896Y-73930284D01*
X82999516Y-73930284D01*
X82926720Y-73928796D01*
X82871327Y-73924593D01*
X82850137Y-73918626D01*
X82856021Y-73906838D01*
X82883254Y-73861464D01*
X82928837Y-73788626D01*
X82988540Y-73695052D01*
X83058138Y-73587473D01*
X83266138Y-73267978D01*
X83189444Y-73228548D01*
X83138436Y-73196832D01*
X83054007Y-73120120D01*
X82988083Y-73030182D01*
X82953069Y-72942055D01*
X82945065Y-72886767D01*
X82945157Y-72791785D01*
X83221958Y-72791785D01*
X83222162Y-72807730D01*
X83238777Y-72912134D01*
X83284997Y-72985297D01*
X83365016Y-73034330D01*
X83405548Y-73047052D01*
X83520246Y-73064541D01*
X83675584Y-73070449D01*
X83895883Y-73070449D01*
X83895883Y-72555303D01*
X83614952Y-72563059D01*
X83508766Y-72566280D01*
X83423244Y-72570714D01*
X83366715Y-72577888D01*
X83329870Y-72589820D01*
X83303398Y-72608524D01*
X83277989Y-72636017D01*
X83241134Y-72693421D01*
X83221958Y-72791785D01*
X82945157Y-72791785D01*
X82945201Y-72746307D01*
X82973485Y-72619647D01*
X83027597Y-72519934D01*
X83049148Y-72493980D01*
X83099131Y-72441701D01*
X83152127Y-72402408D01*
X83215379Y-72374114D01*
X83296129Y-72354833D01*
X83401618Y-72342579D01*
X83539088Y-72335366D01*
X83715782Y-72331208D01*
X84151509Y-72323990D01*
X84151509Y-73930284D01*
X83897194Y-73930284D01*
G37*
G36*
X89589387Y-73930284D02*
G01*
X88450686Y-73930284D01*
X88450686Y-73697896D01*
X89333760Y-73697896D01*
X89333760Y-72326807D01*
X89589387Y-72326807D01*
X89589387Y-73930284D01*
G37*
G36*
X82850137Y-74976030D02*
G01*
X82292406Y-74976030D01*
X82292406Y-76347118D01*
X82036779Y-76347118D01*
X82036779Y-74976030D01*
X81479048Y-74976030D01*
X81479048Y-74743642D01*
X82850137Y-74743642D01*
X82850137Y-74976030D01*
G37*
G36*
X88335103Y-75376899D02*
G01*
X88335715Y-76010156D01*
X88422725Y-75847484D01*
X88437026Y-75821383D01*
X88484286Y-75738655D01*
X88548999Y-75628365D01*
X88626285Y-75498724D01*
X88711266Y-75357941D01*
X88799062Y-75214227D01*
X89088389Y-74743642D01*
X89403476Y-74743642D01*
X89403476Y-76347118D01*
X89144477Y-76347118D01*
X89151973Y-75719653D01*
X89152050Y-75713182D01*
X89153810Y-75548378D01*
X89155022Y-75400115D01*
X89155665Y-75274381D01*
X89155721Y-75177160D01*
X89155171Y-75114439D01*
X89153994Y-75092205D01*
X89142485Y-75109353D01*
X89115629Y-75157528D01*
X89079638Y-75225847D01*
X89063304Y-75256145D01*
X89018967Y-75334083D01*
X88957183Y-75439630D01*
X88882365Y-75565343D01*
X88798925Y-75703776D01*
X88711273Y-75847484D01*
X88411789Y-76335499D01*
X88245327Y-76342327D01*
X88078865Y-76349154D01*
X88078865Y-74743642D01*
X88334492Y-74743642D01*
X88335103Y-75376899D01*
G37*
G36*
X87404940Y-73930284D02*
G01*
X87150556Y-73930284D01*
X87137694Y-73244740D01*
X86452150Y-73231878D01*
X86452150Y-73000732D01*
X87149313Y-73000732D01*
X87149313Y-72559195D01*
X86243001Y-72559195D01*
X86243001Y-72326807D01*
X87404940Y-72326807D01*
X87404940Y-73930284D01*
G37*
G36*
X87285889Y-74742956D02*
G01*
X87421797Y-74794395D01*
X87545343Y-74879702D01*
X87637790Y-74988396D01*
X87672812Y-75069956D01*
X87692339Y-75188165D01*
X87686013Y-75308693D01*
X87653111Y-75411573D01*
X87651337Y-75414839D01*
X87583159Y-75493485D01*
X87470588Y-75565193D01*
X87315243Y-75629135D01*
X87118745Y-75684482D01*
X87002070Y-75713246D01*
X86882248Y-75748106D01*
X86799214Y-75780805D01*
X86747643Y-75813544D01*
X86722212Y-75848525D01*
X86718348Y-75859421D01*
X86711084Y-75944033D01*
X86743615Y-76017450D01*
X86810498Y-76076198D01*
X86906288Y-76116804D01*
X87025543Y-76135794D01*
X87162819Y-76129694D01*
X87166810Y-76129132D01*
X87293205Y-76095579D01*
X87407023Y-76037187D01*
X87496990Y-75961326D01*
X87551833Y-75875367D01*
X87564147Y-75870954D01*
X87602674Y-75892638D01*
X87660443Y-75943269D01*
X87758498Y-76039054D01*
X87717617Y-76101447D01*
X87682360Y-76144823D01*
X87594876Y-76218587D01*
X87485382Y-76284226D01*
X87368862Y-76331839D01*
X87317313Y-76344831D01*
X87187242Y-76362601D01*
X87043336Y-76367422D01*
X86905030Y-76359104D01*
X86791758Y-76337458D01*
X86751335Y-76324054D01*
X86613843Y-76254232D01*
X86512753Y-76159322D01*
X86450370Y-76042069D01*
X86428998Y-75905219D01*
X86429005Y-75901420D01*
X86441914Y-75783565D01*
X86481997Y-75685939D01*
X86553078Y-75605333D01*
X86658980Y-75538535D01*
X86803526Y-75482332D01*
X86990538Y-75433515D01*
X87096635Y-75408811D01*
X87217926Y-75374341D01*
X87302994Y-75339006D01*
X87357785Y-75299316D01*
X87388244Y-75251780D01*
X87400317Y-75192905D01*
X87400918Y-75135748D01*
X87383640Y-75086528D01*
X87337217Y-75039370D01*
X87237735Y-74981990D01*
X87116614Y-74955655D01*
X86988826Y-74961282D01*
X86865971Y-74996909D01*
X86759651Y-75060573D01*
X86681464Y-75150312D01*
X86633728Y-75231218D01*
X86531319Y-75147302D01*
X86488496Y-75110327D01*
X86445543Y-75067707D01*
X86428911Y-75042947D01*
X86433314Y-75028593D01*
X86466269Y-74984766D01*
X86522676Y-74929284D01*
X86592030Y-74871257D01*
X86663823Y-74819795D01*
X86727549Y-74784007D01*
X86748501Y-74775433D01*
X86870123Y-74743016D01*
X87013014Y-74725858D01*
X87157996Y-74725368D01*
X87285889Y-74742956D01*
G37*
G36*
X76157365Y-73930284D02*
G01*
X75901738Y-73930284D01*
X75901738Y-72326807D01*
X76157365Y-72326807D01*
X76157365Y-73930284D01*
G37*
G36*
X83350079Y-36660607D02*
G01*
X83471432Y-36672519D01*
X83571583Y-36690756D01*
X83693102Y-36727408D01*
X83844376Y-36796425D01*
X83971472Y-36885392D01*
X84074110Y-36994055D01*
X84152015Y-37122161D01*
X84204910Y-37269457D01*
X84209285Y-37288476D01*
X84216076Y-37330616D01*
X84221210Y-37384663D01*
X84224864Y-37454552D01*
X84227216Y-37544218D01*
X84228441Y-37657597D01*
X84228718Y-37798624D01*
X84228480Y-37897894D01*
X84227366Y-38023068D01*
X84224914Y-38123823D01*
X84220643Y-38204459D01*
X84214074Y-38269274D01*
X84204726Y-38322567D01*
X84192118Y-38368639D01*
X84175770Y-38411787D01*
X84155200Y-38456311D01*
X84150856Y-38465051D01*
X84115591Y-38527155D01*
X84072883Y-38586368D01*
X84020100Y-38644757D01*
X83954613Y-38704390D01*
X83873790Y-38767335D01*
X83775001Y-38835660D01*
X83655615Y-38911434D01*
X83513000Y-38996725D01*
X83344527Y-39093601D01*
X83303328Y-39117133D01*
X83200472Y-39177439D01*
X83108241Y-39233712D01*
X83030939Y-39283225D01*
X82972866Y-39323250D01*
X82938327Y-39351062D01*
X82933141Y-39356159D01*
X82896805Y-39395917D01*
X82869344Y-39436891D01*
X82849560Y-39484135D01*
X82836257Y-39542705D01*
X82828237Y-39617656D01*
X82824304Y-39714043D01*
X82823258Y-39836922D01*
X82823259Y-39847461D01*
X82823473Y-39945332D01*
X82824546Y-40017875D01*
X82827159Y-40070825D01*
X82831998Y-40109915D01*
X82839745Y-40140879D01*
X82851084Y-40169452D01*
X82866697Y-40201366D01*
X82906316Y-40261905D01*
X82978053Y-40323719D01*
X83069256Y-40361318D01*
X83178669Y-40374005D01*
X83260891Y-40367120D01*
X83357028Y-40336035D01*
X83434031Y-40280552D01*
X83490640Y-40201366D01*
X83534079Y-40115604D01*
X83534079Y-39363060D01*
X84229104Y-39363060D01*
X84229104Y-39820367D01*
X84228904Y-39900389D01*
X84227549Y-40035256D01*
X84225009Y-40152205D01*
X84221395Y-40247820D01*
X84216820Y-40318684D01*
X84211395Y-40361381D01*
X84187846Y-40449595D01*
X84127529Y-40586631D01*
X84042588Y-40704107D01*
X83933344Y-40801762D01*
X83800117Y-40879333D01*
X83643228Y-40936559D01*
X83462997Y-40973178D01*
X83407178Y-40978995D01*
X83301255Y-40983929D01*
X83181554Y-40983981D01*
X83057121Y-40979533D01*
X82937003Y-40970966D01*
X82830244Y-40958659D01*
X82745891Y-40942995D01*
X82713718Y-40934667D01*
X82559407Y-40880066D01*
X82429657Y-40806538D01*
X82322950Y-40712805D01*
X82237771Y-40597588D01*
X82172602Y-40459608D01*
X82171170Y-40455734D01*
X82161778Y-40428296D01*
X82154251Y-40400096D01*
X82148328Y-40367278D01*
X82143750Y-40325991D01*
X82140254Y-40272380D01*
X82137580Y-40202591D01*
X82135468Y-40112772D01*
X82133658Y-39999069D01*
X82131888Y-39857628D01*
X82130883Y-39762114D01*
X82130146Y-39618911D01*
X82131049Y-39501340D01*
X82134013Y-39405628D01*
X82139459Y-39328003D01*
X82147806Y-39264691D01*
X82159475Y-39211920D01*
X82174887Y-39165917D01*
X82194461Y-39122908D01*
X82218619Y-39079121D01*
X82234573Y-39052980D01*
X82279286Y-38990097D01*
X82333058Y-38929199D01*
X82398714Y-38868153D01*
X82479075Y-38804829D01*
X82576966Y-38737094D01*
X82695209Y-38662818D01*
X82836628Y-38579868D01*
X83004046Y-38486114D01*
X83119213Y-38421323D01*
X83239525Y-38349132D01*
X83334964Y-38285376D01*
X83407966Y-38228104D01*
X83460968Y-38175365D01*
X83496406Y-38125209D01*
X83516718Y-38075684D01*
X83518763Y-38066845D01*
X83525288Y-38016108D01*
X83529913Y-37943659D01*
X83532631Y-37857104D01*
X83533433Y-37764048D01*
X83532312Y-37672099D01*
X83529261Y-37588863D01*
X83524270Y-37521945D01*
X83517333Y-37478953D01*
X83513630Y-37467469D01*
X83487934Y-37414312D01*
X83453763Y-37365755D01*
X83453186Y-37365101D01*
X83387041Y-37312552D01*
X83303034Y-37278427D01*
X83209224Y-37263206D01*
X83113668Y-37267369D01*
X83024424Y-37291393D01*
X82949550Y-37335760D01*
X82932023Y-37350828D01*
X82905357Y-37376894D01*
X82884836Y-37404688D01*
X82869535Y-37438476D01*
X82858533Y-37482524D01*
X82850906Y-37541099D01*
X82845733Y-37618466D01*
X82842090Y-37718892D01*
X82839054Y-37846642D01*
X82831156Y-38217849D01*
X82136131Y-38217849D01*
X82136891Y-37791356D01*
X82137199Y-37706020D01*
X82138766Y-37572668D01*
X82142152Y-37464028D01*
X82147973Y-37375665D01*
X82156844Y-37303147D01*
X82169379Y-37242040D01*
X82186193Y-37187909D01*
X82207900Y-37136321D01*
X82235116Y-37082842D01*
X82237541Y-37078401D01*
X82312995Y-36972095D01*
X82414194Y-36876091D01*
X82536239Y-36793719D01*
X82674227Y-36728310D01*
X82823258Y-36683193D01*
X82848032Y-36678186D01*
X82956499Y-36663810D01*
X83082843Y-36656154D01*
X83217293Y-36655120D01*
X83350079Y-36660607D01*
G37*
G36*
X81449005Y-40942662D02*
G01*
X80738184Y-40942662D01*
X80738184Y-36693533D01*
X81449005Y-36693533D01*
X81449005Y-40942662D01*
G37*
G36*
X79281001Y-40938557D02*
G01*
X79188700Y-40937630D01*
X79037647Y-40935945D01*
X78913041Y-40934194D01*
X78811524Y-40932206D01*
X78729738Y-40929814D01*
X78664326Y-40926847D01*
X78611929Y-40923137D01*
X78569189Y-40918515D01*
X78532748Y-40912811D01*
X78499250Y-40905857D01*
X78465335Y-40897483D01*
X78392075Y-40876150D01*
X78236129Y-40811893D01*
X78104108Y-40728406D01*
X77996788Y-40626242D01*
X77914945Y-40505954D01*
X77910790Y-40498171D01*
X77894799Y-40468019D01*
X77880724Y-40439740D01*
X77868442Y-40411243D01*
X77857831Y-40380437D01*
X77848769Y-40345229D01*
X77841134Y-40303529D01*
X77834803Y-40253244D01*
X77829655Y-40192283D01*
X77825568Y-40118554D01*
X77822419Y-40029966D01*
X77820086Y-39924427D01*
X77818447Y-39799846D01*
X77817379Y-39654131D01*
X77816762Y-39485190D01*
X77816472Y-39290932D01*
X77816388Y-39069265D01*
X77816387Y-38818097D01*
X78527435Y-38818097D01*
X78527441Y-38929228D01*
X78527511Y-39143721D01*
X78527698Y-39329788D01*
X78528051Y-39489586D01*
X78528615Y-39625268D01*
X78529440Y-39738989D01*
X78530573Y-39832905D01*
X78532061Y-39909170D01*
X78533953Y-39969940D01*
X78536295Y-40017368D01*
X78539135Y-40053611D01*
X78542521Y-40080823D01*
X78546501Y-40101158D01*
X78551122Y-40116772D01*
X78556432Y-40129820D01*
X78598087Y-40195941D01*
X78665242Y-40257035D01*
X78744427Y-40294330D01*
X78751308Y-40295938D01*
X78795459Y-40301716D01*
X78861485Y-40306405D01*
X78941662Y-40309560D01*
X79028265Y-40310733D01*
X79253358Y-40310821D01*
X79253358Y-37325373D01*
X79028265Y-37325462D01*
X79005799Y-37325549D01*
X78920112Y-37327275D01*
X78842838Y-37330867D01*
X78781701Y-37335879D01*
X78744427Y-37341865D01*
X78675471Y-37372536D01*
X78606174Y-37430848D01*
X78556432Y-37506374D01*
X78553850Y-37512318D01*
X78548869Y-37526303D01*
X78544555Y-37543865D01*
X78540860Y-37567161D01*
X78537736Y-37598345D01*
X78535136Y-37639571D01*
X78533011Y-37692995D01*
X78531315Y-37760772D01*
X78530000Y-37845056D01*
X78529018Y-37948003D01*
X78528321Y-38071768D01*
X78527862Y-38218504D01*
X78527593Y-38390368D01*
X78527466Y-38589514D01*
X78527435Y-38818097D01*
X77816387Y-38818097D01*
X77816386Y-38766336D01*
X77816397Y-38521096D01*
X77816518Y-38304950D01*
X77816869Y-38115809D01*
X77817569Y-37951585D01*
X77818738Y-37810190D01*
X77820497Y-37689535D01*
X77822964Y-37587533D01*
X77826259Y-37502095D01*
X77830503Y-37431132D01*
X77835815Y-37372557D01*
X77842315Y-37324281D01*
X77850122Y-37284216D01*
X77859356Y-37250273D01*
X77870137Y-37220365D01*
X77882586Y-37192403D01*
X77896820Y-37164298D01*
X77912961Y-37133963D01*
X77917979Y-37124830D01*
X77976122Y-37040872D01*
X78052351Y-36957514D01*
X78136892Y-36884399D01*
X78219969Y-36831167D01*
X78247299Y-36817675D01*
X78312276Y-36788929D01*
X78379326Y-36764847D01*
X78451728Y-36745043D01*
X78532759Y-36729129D01*
X78625695Y-36716719D01*
X78733815Y-36707424D01*
X78860396Y-36700859D01*
X79008714Y-36696635D01*
X79182048Y-36694365D01*
X79383675Y-36693662D01*
X79964179Y-36693533D01*
X79964179Y-40945270D01*
X79281001Y-40938557D01*
G37*
G36*
X90475529Y-36693604D02*
G01*
X90559407Y-36694095D01*
X90619773Y-36695419D01*
X90660667Y-36697993D01*
X90686129Y-36702231D01*
X90700200Y-36708547D01*
X90706921Y-36717356D01*
X90710332Y-36729074D01*
X90711117Y-36733169D01*
X90716405Y-36764684D01*
X90726058Y-36824400D01*
X90739733Y-36910119D01*
X90757083Y-37019645D01*
X90777763Y-37150780D01*
X90801427Y-37301328D01*
X90827731Y-37469093D01*
X90856327Y-37651878D01*
X90886872Y-37847485D01*
X90919019Y-38053718D01*
X90952423Y-38268380D01*
X90966197Y-38356872D01*
X90999015Y-38566924D01*
X91030432Y-38766906D01*
X91060106Y-38954703D01*
X91087696Y-39128199D01*
X91112861Y-39285279D01*
X91135259Y-39423828D01*
X91154549Y-39541731D01*
X91170389Y-39636872D01*
X91182440Y-39707136D01*
X91190358Y-39750407D01*
X91193804Y-39764571D01*
X91194906Y-39760356D01*
X91200598Y-39729535D01*
X91210623Y-39670661D01*
X91224640Y-39585859D01*
X91242310Y-39477256D01*
X91263291Y-39346978D01*
X91287243Y-39197151D01*
X91313826Y-39029902D01*
X91342699Y-38847358D01*
X91373522Y-38651644D01*
X91405954Y-38444887D01*
X91439655Y-38229213D01*
X91677931Y-36701431D01*
X92036789Y-36697185D01*
X92151530Y-36696189D01*
X92246943Y-36696346D01*
X92316236Y-36697888D01*
X92362236Y-36700932D01*
X92387764Y-36705596D01*
X92395646Y-36711994D01*
X92394969Y-36716705D01*
X92389381Y-36748599D01*
X92378431Y-36808851D01*
X92362455Y-36895649D01*
X92341792Y-37007184D01*
X92316780Y-37141644D01*
X92287759Y-37297220D01*
X92255066Y-37472099D01*
X92219039Y-37664472D01*
X92180017Y-37872528D01*
X92138339Y-38094457D01*
X92094342Y-38328446D01*
X92048365Y-38572687D01*
X92000746Y-38825367D01*
X91977327Y-38949588D01*
X91930485Y-39198174D01*
X91885448Y-39437342D01*
X91842554Y-39665289D01*
X91802142Y-39880214D01*
X91764549Y-40080314D01*
X91730112Y-40263788D01*
X91699171Y-40428832D01*
X91672063Y-40573645D01*
X91649126Y-40696426D01*
X91630698Y-40795371D01*
X91617116Y-40868679D01*
X91608719Y-40914547D01*
X91605845Y-40931174D01*
X91595868Y-40933738D01*
X91558300Y-40936622D01*
X91496795Y-40939080D01*
X91415581Y-40940988D01*
X91318888Y-40942223D01*
X91210945Y-40942662D01*
X91122823Y-40942373D01*
X91023661Y-40941283D01*
X90939173Y-40939500D01*
X90873588Y-40937144D01*
X90831135Y-40934340D01*
X90816044Y-40931210D01*
X90815355Y-40926874D01*
X90809746Y-40895774D01*
X90798779Y-40836311D01*
X90782791Y-40750288D01*
X90762121Y-40639505D01*
X90737106Y-40505766D01*
X90708085Y-40350873D01*
X90675395Y-40176628D01*
X90639374Y-39984832D01*
X90600361Y-39777289D01*
X90558694Y-39555800D01*
X90514710Y-39322168D01*
X90468747Y-39078194D01*
X90421144Y-38825681D01*
X90397999Y-38702918D01*
X90351127Y-38454096D01*
X90306061Y-38214589D01*
X90263137Y-37986205D01*
X90222696Y-37770756D01*
X90185075Y-37570053D01*
X90150612Y-37385907D01*
X90119647Y-37220128D01*
X90092517Y-37074526D01*
X90069561Y-36950914D01*
X90051117Y-36851101D01*
X90037524Y-36776899D01*
X90029120Y-36730118D01*
X90026243Y-36712569D01*
X90029778Y-36707994D01*
X90050110Y-36702372D01*
X90090943Y-36698271D01*
X90155047Y-36695534D01*
X90245192Y-36694007D01*
X90364145Y-36693533D01*
X90475529Y-36693604D01*
G37*
G36*
X77089303Y-40942662D02*
G01*
X75209577Y-40942662D01*
X75209577Y-40310821D01*
X76378482Y-40310821D01*
X76378482Y-39094528D01*
X75414925Y-39094528D01*
X75414925Y-38478483D01*
X76378482Y-38478483D01*
X76378482Y-37325373D01*
X75225373Y-37325373D01*
X75225373Y-36693533D01*
X77089303Y-36693533D01*
X77089303Y-40942662D01*
G37*
G36*
X89520771Y-40942662D02*
G01*
X87641044Y-40942662D01*
X87641044Y-40310821D01*
X88826121Y-40310821D01*
X88821985Y-39706623D01*
X88817848Y-39102426D01*
X88332120Y-39098248D01*
X87846393Y-39094071D01*
X87846393Y-38478483D01*
X88825746Y-38478483D01*
X88825746Y-37325373D01*
X87656173Y-37325373D01*
X87660455Y-37013402D01*
X87664738Y-36701431D01*
X88592755Y-36697355D01*
X89520771Y-36693280D01*
X89520771Y-40942662D01*
G37*
G36*
X93627736Y-40942662D02*
G01*
X92916915Y-40942662D01*
X92916915Y-36693533D01*
X93627736Y-36693533D01*
X93627736Y-40942662D01*
G37*
G36*
X95823383Y-40942662D02*
G01*
X95823383Y-39252488D01*
X95477626Y-39252488D01*
X95421753Y-39430193D01*
X95414720Y-39452505D01*
X95393656Y-39519039D01*
X95364965Y-39609415D01*
X95329987Y-39719416D01*
X95290065Y-39844825D01*
X95246541Y-39981426D01*
X95200757Y-40125000D01*
X95154056Y-40271331D01*
X94942231Y-40934764D01*
X94585108Y-40939010D01*
X94542402Y-40939482D01*
X94432753Y-40940193D01*
X94350347Y-40939704D01*
X94291926Y-40937868D01*
X94254231Y-40934537D01*
X94234003Y-40929562D01*
X94227985Y-40922797D01*
X94231280Y-40909973D01*
X94243823Y-40869253D01*
X94264893Y-40803548D01*
X94293594Y-40715574D01*
X94329031Y-40608047D01*
X94370306Y-40483683D01*
X94416525Y-40345199D01*
X94466792Y-40195310D01*
X94520211Y-40036732D01*
X94564330Y-39905894D01*
X94615183Y-39754689D01*
X94662154Y-39614593D01*
X94704351Y-39488294D01*
X94740879Y-39378479D01*
X94770846Y-39287835D01*
X94793356Y-39219051D01*
X94807518Y-39174813D01*
X94812437Y-39157809D01*
X94810281Y-39152962D01*
X94789297Y-39133391D01*
X94753202Y-39108967D01*
X94671281Y-39054086D01*
X94566284Y-38958586D01*
X94482765Y-38844877D01*
X94416163Y-38707525D01*
X94413140Y-38699835D01*
X94403984Y-38675057D01*
X94396566Y-38650166D01*
X94390666Y-38621664D01*
X94386064Y-38586054D01*
X94382541Y-38539839D01*
X94379876Y-38479520D01*
X94377850Y-38401600D01*
X94376244Y-38302582D01*
X94374837Y-38178968D01*
X94373409Y-38027260D01*
X94373015Y-37980908D01*
X95081664Y-37980908D01*
X95081757Y-38072157D01*
X95082341Y-38179817D01*
X95083683Y-38262919D01*
X95086038Y-38325617D01*
X95089660Y-38372065D01*
X95094802Y-38406417D01*
X95101717Y-38432824D01*
X95110661Y-38455442D01*
X95152316Y-38521563D01*
X95219471Y-38582657D01*
X95298656Y-38619952D01*
X95307896Y-38622006D01*
X95353715Y-38627624D01*
X95421081Y-38632171D01*
X95502478Y-38635222D01*
X95590391Y-38636355D01*
X95823383Y-38636443D01*
X95823383Y-37325373D01*
X95590391Y-37325462D01*
X95587980Y-37325463D01*
X95474485Y-37326778D01*
X95387024Y-37331216D01*
X95320211Y-37339787D01*
X95268658Y-37353496D01*
X95226978Y-37373351D01*
X95189785Y-37400358D01*
X95161446Y-37425666D01*
X95136762Y-37453383D01*
X95117746Y-37485140D01*
X95103667Y-37524873D01*
X95093792Y-37576517D01*
X95087386Y-37644008D01*
X95083718Y-37731279D01*
X95082055Y-37842268D01*
X95081664Y-37980908D01*
X94373015Y-37980908D01*
X94372696Y-37943339D01*
X94371816Y-37799755D01*
X94371716Y-37682459D01*
X94372499Y-37587935D01*
X94374263Y-37512669D01*
X94377108Y-37453144D01*
X94381135Y-37405845D01*
X94386443Y-37367257D01*
X94393133Y-37333863D01*
X94432426Y-37208307D01*
X94502298Y-37075364D01*
X94596698Y-36962131D01*
X94715409Y-36868775D01*
X94858214Y-36795460D01*
X95024895Y-36742352D01*
X95215236Y-36709616D01*
X95257971Y-36706306D01*
X95331389Y-36702893D01*
X95427526Y-36699867D01*
X95541709Y-36697329D01*
X95669265Y-36695381D01*
X95805520Y-36694124D01*
X95945802Y-36693662D01*
X96534204Y-36693533D01*
X96534204Y-40942662D01*
X95823383Y-40942662D01*
G37*
G36*
X105052207Y-42742467D02*
G01*
X105040110Y-42739975D01*
X104995178Y-42730709D01*
X104921547Y-42715520D01*
X104820652Y-42694705D01*
X104693930Y-42668559D01*
X104542816Y-42637379D01*
X104368747Y-42601461D01*
X104173158Y-42561101D01*
X103957484Y-42516596D01*
X103723163Y-42468242D01*
X103471629Y-42416336D01*
X103204319Y-42361173D01*
X102922669Y-42303050D01*
X102628114Y-42242263D01*
X102322091Y-42179109D01*
X102006034Y-42113883D01*
X101681381Y-42046883D01*
X101349567Y-41978404D01*
X101140271Y-41935214D01*
X100815333Y-41868172D01*
X100499428Y-41803011D01*
X100193923Y-41740011D01*
X99900188Y-41679454D01*
X99619592Y-41621622D01*
X99353506Y-41566797D01*
X99103297Y-41515261D01*
X98870335Y-41467296D01*
X98655989Y-41423183D01*
X98461629Y-41383204D01*
X98288624Y-41347641D01*
X98138343Y-41316777D01*
X98012154Y-41290892D01*
X97911428Y-41270268D01*
X97837534Y-41255188D01*
X97791841Y-41245934D01*
X97775717Y-41242786D01*
X97775406Y-41241089D01*
X97774473Y-41215489D01*
X97773567Y-41160297D01*
X97772693Y-41077017D01*
X97771855Y-40967154D01*
X97771059Y-40832213D01*
X97770307Y-40673698D01*
X97769606Y-40493115D01*
X97768959Y-40291967D01*
X97768371Y-40071761D01*
X97767847Y-39834001D01*
X97767391Y-39580192D01*
X97767008Y-39311838D01*
X97766702Y-39030444D01*
X97766478Y-38737515D01*
X97766340Y-38434556D01*
X97766323Y-38320523D01*
X99011091Y-38320523D01*
X99706454Y-38320523D01*
X99712606Y-37913775D01*
X99712788Y-37902001D01*
X99715826Y-37755078D01*
X99719866Y-37638516D01*
X99724972Y-37551179D01*
X99731209Y-37491932D01*
X99738644Y-37459640D01*
X99754745Y-37427202D01*
X99813087Y-37355885D01*
X99892293Y-37303888D01*
X99988289Y-37272757D01*
X100097003Y-37264035D01*
X100214360Y-37279267D01*
X100297763Y-37311151D01*
X100370830Y-37367430D01*
X100421397Y-37442010D01*
X100426506Y-37454364D01*
X100431139Y-37469324D01*
X100435148Y-37488566D01*
X100438576Y-37514189D01*
X100441470Y-37548296D01*
X100443875Y-37592985D01*
X100445835Y-37650360D01*
X100447395Y-37722520D01*
X100448602Y-37811566D01*
X100449499Y-37919599D01*
X100450132Y-38048719D01*
X100450545Y-38201029D01*
X100450785Y-38378628D01*
X100450896Y-38583617D01*
X100450923Y-38818097D01*
X100450898Y-39045015D01*
X100450791Y-39250984D01*
X100450556Y-39429490D01*
X100450149Y-39582634D01*
X100449525Y-39712517D01*
X100448637Y-39821241D01*
X100447442Y-39910905D01*
X100445895Y-39983610D01*
X100443949Y-40041459D01*
X100441561Y-40086550D01*
X100438684Y-40120985D01*
X100435275Y-40146866D01*
X100431287Y-40166292D01*
X100426676Y-40181365D01*
X100421397Y-40194185D01*
X100374819Y-40264473D01*
X100303015Y-40322070D01*
X100214360Y-40356927D01*
X100100390Y-40372584D01*
X99991271Y-40365210D01*
X99896137Y-40334955D01*
X99818193Y-40283362D01*
X99760646Y-40211973D01*
X99726703Y-40122332D01*
X99724291Y-40107845D01*
X99719280Y-40053993D01*
X99715109Y-39974928D01*
X99711933Y-39875086D01*
X99709912Y-39758903D01*
X99709204Y-39630815D01*
X99709204Y-39220896D01*
X99011324Y-39220896D01*
X99018381Y-39754012D01*
X99019587Y-39839345D01*
X99022026Y-39977835D01*
X99024830Y-40089899D01*
X99028175Y-40178910D01*
X99032236Y-40248245D01*
X99037188Y-40301278D01*
X99043207Y-40341383D01*
X99050467Y-40371937D01*
X99079183Y-40456410D01*
X99145531Y-40590920D01*
X99232112Y-40703483D01*
X99340893Y-40795978D01*
X99473843Y-40870285D01*
X99632930Y-40928286D01*
X99667182Y-40937599D01*
X99716887Y-40948096D01*
X99772757Y-40955702D01*
X99841149Y-40961022D01*
X99928418Y-40964664D01*
X100040920Y-40967234D01*
X100125615Y-40968136D01*
X100219818Y-40967774D01*
X100302573Y-40966032D01*
X100367171Y-40963060D01*
X100406900Y-40959009D01*
X100465807Y-40947182D01*
X100636735Y-40897101D01*
X100782672Y-40827892D01*
X100903937Y-40739287D01*
X101000845Y-40631019D01*
X101073713Y-40502820D01*
X101122859Y-40354422D01*
X101124723Y-40343905D01*
X101129097Y-40296715D01*
X101133042Y-40222017D01*
X101136559Y-40122625D01*
X101139647Y-40001355D01*
X101142308Y-39861019D01*
X101144542Y-39704433D01*
X101146349Y-39534410D01*
X101147730Y-39353764D01*
X101148684Y-39165310D01*
X101149212Y-38971861D01*
X101149315Y-38776232D01*
X101148992Y-38581236D01*
X101148245Y-38389689D01*
X101147074Y-38204404D01*
X101145478Y-38028195D01*
X101143459Y-37863876D01*
X101141016Y-37714262D01*
X101138151Y-37582167D01*
X101134863Y-37470404D01*
X101131152Y-37381788D01*
X101127020Y-37319133D01*
X101122466Y-37285253D01*
X101094930Y-37196491D01*
X101029070Y-37059537D01*
X100939467Y-36942623D01*
X100825516Y-36845165D01*
X100686610Y-36766578D01*
X100530465Y-36709329D01*
X101824847Y-36709329D01*
X101829535Y-38506126D01*
X101829789Y-38602713D01*
X101830266Y-38776232D01*
X101830524Y-38869832D01*
X101831253Y-39107749D01*
X101832008Y-39318257D01*
X101832820Y-39503145D01*
X101833722Y-39664202D01*
X101834745Y-39803220D01*
X101835921Y-39921989D01*
X101837283Y-40022298D01*
X101838861Y-40105939D01*
X101840689Y-40174700D01*
X101842799Y-40230373D01*
X101845221Y-40274748D01*
X101847988Y-40309614D01*
X101851132Y-40336762D01*
X101854685Y-40357983D01*
X101858679Y-40375066D01*
X101863145Y-40389801D01*
X101915091Y-40518559D01*
X101992201Y-40646572D01*
X102088666Y-40751562D01*
X102206366Y-40835135D01*
X102347182Y-40898897D01*
X102512997Y-40944453D01*
X102520760Y-40946016D01*
X102631827Y-40961912D01*
X102762678Y-40971248D01*
X102903173Y-40974037D01*
X103043170Y-40970296D01*
X103172529Y-40960041D01*
X103281109Y-40943285D01*
X103431761Y-40900965D01*
X103577372Y-40833660D01*
X103699709Y-40745020D01*
X103798859Y-40634968D01*
X103874907Y-40503424D01*
X103927938Y-40350311D01*
X103929155Y-40344622D01*
X103932349Y-40319745D01*
X103935255Y-40280506D01*
X103937892Y-40225469D01*
X103940280Y-40153198D01*
X103942440Y-40062257D01*
X103944392Y-39951212D01*
X103946155Y-39818625D01*
X103947749Y-39663060D01*
X103949195Y-39483083D01*
X103950513Y-39277258D01*
X103951723Y-39044147D01*
X103952844Y-38782317D01*
X103953898Y-38490330D01*
X103959838Y-36709329D01*
X103264251Y-36709329D01*
X103259831Y-38419681D01*
X103255410Y-40130034D01*
X103214992Y-40208581D01*
X103175596Y-40266170D01*
X103104251Y-40323876D01*
X103013623Y-40359659D01*
X102906606Y-40372489D01*
X102786092Y-40361336D01*
X102766841Y-40357430D01*
X102679321Y-40327666D01*
X102613636Y-40280091D01*
X102563977Y-40210766D01*
X102528793Y-40144963D01*
X102520215Y-36709329D01*
X101824847Y-36709329D01*
X100530465Y-36709329D01*
X100522144Y-36706278D01*
X100493921Y-36698374D01*
X100448650Y-36687503D01*
X100402685Y-36679772D01*
X100349847Y-36674662D01*
X100283957Y-36671653D01*
X100198837Y-36670228D01*
X100088308Y-36669869D01*
X100027109Y-36669958D01*
X99930303Y-36670830D01*
X99855743Y-36673048D01*
X99797286Y-36677121D01*
X99748787Y-36683559D01*
X99704103Y-36692869D01*
X99657090Y-36705560D01*
X99559934Y-36737569D01*
X99409621Y-36806998D01*
X99284801Y-36894017D01*
X99184322Y-36999702D01*
X99107034Y-37125129D01*
X99051784Y-37271374D01*
X99050132Y-37277375D01*
X99042338Y-37312747D01*
X99035992Y-37356917D01*
X99030870Y-37413683D01*
X99026749Y-37486844D01*
X99023406Y-37580201D01*
X99020615Y-37697550D01*
X99018155Y-37842693D01*
X99011091Y-38320523D01*
X97766323Y-38320523D01*
X97766293Y-38123072D01*
X97766298Y-37941601D01*
X97766348Y-37581475D01*
X97766457Y-37251138D01*
X97766633Y-36949364D01*
X97766886Y-36674930D01*
X97767224Y-36426612D01*
X97767656Y-36203185D01*
X97768190Y-36003426D01*
X97768835Y-35826110D01*
X97769600Y-35670013D01*
X97770494Y-35533912D01*
X97771525Y-35416582D01*
X97772702Y-35316800D01*
X97774033Y-35233341D01*
X97775527Y-35164981D01*
X97777193Y-35110496D01*
X97779040Y-35068662D01*
X97781076Y-35038256D01*
X97783310Y-35018052D01*
X97785751Y-35006828D01*
X97788406Y-35003359D01*
X97790230Y-35003533D01*
X97816204Y-35006949D01*
X97871308Y-35014545D01*
X97953868Y-35026083D01*
X98062211Y-35041323D01*
X98194662Y-35060026D01*
X98349549Y-35081953D01*
X98525196Y-35106864D01*
X98719932Y-35134520D01*
X98932081Y-35164682D01*
X99159971Y-35197111D01*
X99401927Y-35231568D01*
X99656275Y-35267812D01*
X99921343Y-35305606D01*
X100195456Y-35344709D01*
X100476941Y-35384882D01*
X100764123Y-35425887D01*
X101055329Y-35467483D01*
X101348886Y-35509432D01*
X101643120Y-35551495D01*
X101936356Y-35593432D01*
X102226922Y-35635003D01*
X102513143Y-35675970D01*
X102793345Y-35716094D01*
X103065856Y-35755134D01*
X103329002Y-35792852D01*
X103581107Y-35829009D01*
X103820500Y-35863366D01*
X104045506Y-35895682D01*
X104254451Y-35925719D01*
X104445662Y-35953238D01*
X104617464Y-35977999D01*
X104768185Y-35999763D01*
X104896151Y-36018291D01*
X104999687Y-36033343D01*
X105077120Y-36044681D01*
X105126777Y-36052064D01*
X105146983Y-36055255D01*
X105190422Y-36064202D01*
X105190422Y-42770912D01*
X105052207Y-42742467D01*
G37*
G36*
X86298383Y-40942662D02*
G01*
X86298383Y-39252488D01*
X85953446Y-39252488D01*
X85921409Y-39351213D01*
X85921004Y-39352462D01*
X85908475Y-39391404D01*
X85887738Y-39456201D01*
X85860080Y-39542809D01*
X85826792Y-39647185D01*
X85789163Y-39765287D01*
X85748482Y-39893070D01*
X85706040Y-40026493D01*
X85664501Y-40156993D01*
X85621398Y-40292133D01*
X85580373Y-40420498D01*
X85542921Y-40537420D01*
X85510536Y-40638232D01*
X85484714Y-40718266D01*
X85466951Y-40772855D01*
X85411194Y-40942662D01*
X84688432Y-40942662D01*
X84988289Y-40055197D01*
X85038973Y-39904828D01*
X85089958Y-39752794D01*
X85136860Y-39612138D01*
X85178809Y-39485507D01*
X85214938Y-39375549D01*
X85244375Y-39284911D01*
X85266251Y-39216241D01*
X85279697Y-39172186D01*
X85283842Y-39155393D01*
X85282749Y-39153624D01*
X85263529Y-39136524D01*
X85225986Y-39108483D01*
X85176865Y-39074596D01*
X85139000Y-39047288D01*
X85036758Y-38951000D01*
X84951800Y-38836654D01*
X84891279Y-38713299D01*
X84889199Y-38707620D01*
X84879985Y-38681031D01*
X84872504Y-38654635D01*
X84866537Y-38624899D01*
X84861867Y-38588294D01*
X84858275Y-38541286D01*
X84855543Y-38480345D01*
X84853453Y-38401938D01*
X84851787Y-38302536D01*
X84850326Y-38178605D01*
X84848852Y-38026614D01*
X84848463Y-37980908D01*
X85548072Y-37980908D01*
X85548076Y-37998787D01*
X85548430Y-38118073D01*
X85549558Y-38210851D01*
X85551743Y-38281613D01*
X85555270Y-38334848D01*
X85560422Y-38375048D01*
X85567485Y-38406705D01*
X85576740Y-38434308D01*
X85581292Y-38445405D01*
X85629194Y-38522464D01*
X85695654Y-38583065D01*
X85772733Y-38619697D01*
X85782029Y-38621772D01*
X85828145Y-38627482D01*
X85895777Y-38632103D01*
X85977376Y-38635204D01*
X86065391Y-38636355D01*
X86298383Y-38636443D01*
X86298383Y-37325373D01*
X86065391Y-37325462D01*
X86048810Y-37325486D01*
X85938454Y-37327100D01*
X85853495Y-37332001D01*
X85788513Y-37341263D01*
X85738089Y-37355959D01*
X85696804Y-37377164D01*
X85659237Y-37405951D01*
X85646813Y-37417164D01*
X85617259Y-37448173D01*
X85594193Y-37482335D01*
X85576829Y-37523710D01*
X85564383Y-37576360D01*
X85556069Y-37644344D01*
X85551103Y-37731723D01*
X85548699Y-37842558D01*
X85548072Y-37980908D01*
X84848463Y-37980908D01*
X84847990Y-37925296D01*
X84847249Y-37771501D01*
X84847798Y-37643699D01*
X84850016Y-37538339D01*
X84854277Y-37451869D01*
X84860960Y-37380735D01*
X84870441Y-37321386D01*
X84883098Y-37270268D01*
X84899306Y-37223830D01*
X84919443Y-37178519D01*
X84943885Y-37130782D01*
X84979098Y-37071897D01*
X85072791Y-36959860D01*
X85191013Y-36867465D01*
X85333503Y-36794861D01*
X85499998Y-36742196D01*
X85690236Y-36709616D01*
X85732971Y-36706306D01*
X85806389Y-36702893D01*
X85902526Y-36699867D01*
X86016709Y-36697329D01*
X86144265Y-36695381D01*
X86280520Y-36694124D01*
X86420802Y-36693662D01*
X87009204Y-36693533D01*
X87009204Y-40942662D01*
X86298383Y-40942662D01*
G37*
G36*
X97793936Y-41422737D02*
G01*
X97798103Y-41423844D01*
X97828674Y-41431707D01*
X97887107Y-41446635D01*
X97971500Y-41468145D01*
X98079954Y-41495755D01*
X98210567Y-41528981D01*
X98361437Y-41567342D01*
X98530665Y-41610355D01*
X98716349Y-41657538D01*
X98916587Y-41708408D01*
X99129480Y-41762482D01*
X99353125Y-41819279D01*
X99585623Y-41878315D01*
X99825072Y-41939108D01*
X100069571Y-42001176D01*
X100317219Y-42064037D01*
X100566116Y-42127207D01*
X100814359Y-42190204D01*
X101060049Y-42252546D01*
X101301284Y-42313750D01*
X101536164Y-42373335D01*
X101762787Y-42430816D01*
X101979252Y-42485713D01*
X102183659Y-42537542D01*
X102374106Y-42585820D01*
X102548692Y-42630066D01*
X102705517Y-42669798D01*
X102842680Y-42704531D01*
X102958279Y-42733785D01*
X103050413Y-42757076D01*
X103117182Y-42773922D01*
X103156685Y-42783840D01*
X103263308Y-42810433D01*
X103263308Y-43503538D01*
X103263175Y-43605150D01*
X103262545Y-43742921D01*
X103261450Y-43868256D01*
X103259946Y-43977961D01*
X103258090Y-44068845D01*
X103255938Y-44137715D01*
X103253548Y-44181378D01*
X103250977Y-44196642D01*
X103243391Y-44193420D01*
X103209418Y-44177873D01*
X103149755Y-44150166D01*
X103066094Y-44111100D01*
X102960127Y-44061472D01*
X102833544Y-44002081D01*
X102688037Y-43933724D01*
X102525297Y-43857202D01*
X102347016Y-43773311D01*
X102154885Y-43682850D01*
X101950594Y-43586619D01*
X101735836Y-43485414D01*
X101512302Y-43380036D01*
X101281683Y-43271281D01*
X101045669Y-43159949D01*
X100805954Y-43046837D01*
X100564227Y-42932745D01*
X100322181Y-42818471D01*
X100081506Y-42704812D01*
X99843893Y-42592569D01*
X99611035Y-42482538D01*
X99384622Y-42375518D01*
X99166346Y-42272308D01*
X98957898Y-42173707D01*
X98760969Y-42080512D01*
X98577250Y-41993522D01*
X98408434Y-41913536D01*
X98256210Y-41841351D01*
X98122271Y-41777767D01*
X98008308Y-41723581D01*
X97916012Y-41679593D01*
X97847074Y-41646599D01*
X97803186Y-41625400D01*
X97786038Y-41616794D01*
X97779056Y-41607781D01*
X97769661Y-41569774D01*
X97766293Y-41509322D01*
X97766788Y-41469397D01*
X97770173Y-41435291D01*
X97778544Y-41421864D01*
X97793936Y-41422737D01*
G37*
%TD*%
M02*
