%TF.GenerationSoftware,KiCad,Pcbnew,(6.0.8-1)-1*%
%TF.CreationDate,2022-11-16T14:14:39-05:00*%
%TF.ProjectId,Untitled,556e7469-746c-4656-942e-6b696361645f,rev?*%
%TF.SameCoordinates,Original*%
%TF.FileFunction,Drillmap*%
%TF.FilePolarity,Positive*%
%FSLAX45Y45*%
G04 Gerber Fmt 4.5, Leading zero omitted, Abs format (unit mm)*
G04 Created by KiCad (PCBNEW (6.0.8-1)-1) date 2022-11-16 14:14:39*
%MOMM*%
%LPD*%
G01*
G04 APERTURE LIST*
%ADD10C,0.100000*%
%ADD11C,0.200000*%
%ADD12C,0.040000*%
%ADD13C,0.088900*%
%ADD14C,0.110000*%
%ADD15C,0.150000*%
G04 APERTURE END LIST*
D10*
X7520000Y-5640000D02*
G75*
G03*
X7520000Y-5640000I-160000J0D01*
G01*
X7520000Y-11840000D02*
G75*
G03*
X7520000Y-11840000I-160000J0D01*
G01*
X7520000Y-10600000D02*
G75*
G03*
X7520000Y-10600000I-160000J0D01*
G01*
X4572000Y-3302000D02*
X17764000Y-3302000D01*
X17764000Y-3302000D02*
X17764000Y-13081000D01*
X17764000Y-13081000D02*
X4572000Y-13081000D01*
X4572000Y-13081000D02*
X4572000Y-3302000D01*
X7520000Y-6880000D02*
G75*
G03*
X7520000Y-6880000I-160000J0D01*
G01*
X7520000Y-8120000D02*
G75*
G03*
X7520000Y-8120000I-160000J0D01*
G01*
X7520000Y-9360000D02*
G75*
G03*
X7520000Y-9360000I-160000J0D01*
G01*
X7520000Y-4400000D02*
G75*
G03*
X7520000Y-4400000I-160000J0D01*
G01*
D11*
D12*
X6710000Y-4130000D02*
X6750000Y-4170000D01*
X6750000Y-4130000D02*
X6710000Y-4170000D01*
X6720000Y-9010000D02*
X6760000Y-9050000D01*
X6760000Y-9010000D02*
X6720000Y-9050000D01*
X6760000Y-10310000D02*
X6800000Y-10350000D01*
X6800000Y-10310000D02*
X6760000Y-10350000D01*
X6820000Y-7760000D02*
X6860000Y-7800000D01*
X6860000Y-7760000D02*
X6820000Y-7800000D01*
X6870000Y-4800000D02*
X6910000Y-4840000D01*
X6910000Y-4800000D02*
X6870000Y-4840000D01*
X6890000Y-8610000D02*
X6930000Y-8650000D01*
X6930000Y-8610000D02*
X6890000Y-8650000D01*
X6900000Y-5380000D02*
X6940000Y-5420000D01*
X6940000Y-5380000D02*
X6900000Y-5420000D01*
X6900000Y-7410000D02*
X6940000Y-7450000D01*
X6940000Y-7410000D02*
X6900000Y-7450000D01*
X6910000Y-5990000D02*
X6950000Y-6030000D01*
X6950000Y-5990000D02*
X6910000Y-6030000D01*
X6910000Y-9760000D02*
X6950000Y-9800000D01*
X6950000Y-9760000D02*
X6910000Y-9800000D01*
X6920000Y-3590000D02*
X6960000Y-3630000D01*
X6960000Y-3590000D02*
X6920000Y-3630000D01*
X6920000Y-11531000D02*
X6960000Y-11571000D01*
X6960000Y-11531000D02*
X6920000Y-11571000D01*
X6930000Y-11050000D02*
X6970000Y-11090000D01*
X6970000Y-11050000D02*
X6930000Y-11090000D01*
X6940000Y-6605179D02*
X6980000Y-6645179D01*
X6980000Y-6605179D02*
X6940000Y-6645179D01*
X12678000Y-5342000D02*
X12718000Y-5382000D01*
X12718000Y-5342000D02*
X12678000Y-5382000D01*
X12680000Y-8540000D02*
X12720000Y-8580000D01*
X12720000Y-8540000D02*
X12680000Y-8580000D01*
X12880000Y-5240000D02*
X12920000Y-5280000D01*
X12920000Y-5240000D02*
X12880000Y-5280000D01*
X12898000Y-8422000D02*
X12938000Y-8462000D01*
X12938000Y-8422000D02*
X12898000Y-8462000D01*
X12900000Y-5460000D02*
X12940000Y-5500000D01*
X12940000Y-5460000D02*
X12900000Y-5500000D01*
X12918000Y-8642000D02*
X12958000Y-8682000D01*
X12958000Y-8642000D02*
X12918000Y-8682000D01*
D13*
X5964450Y-4500000D02*
G75*
G03*
X5964450Y-4500000I-44450J0D01*
G01*
X5964450Y-4754000D02*
G75*
G03*
X5964450Y-4754000I-44450J0D01*
G01*
X5964450Y-5008000D02*
G75*
G03*
X5964450Y-5008000I-44450J0D01*
G01*
X5964450Y-5412000D02*
G75*
G03*
X5964450Y-5412000I-44450J0D01*
G01*
X5964450Y-5666000D02*
G75*
G03*
X5964450Y-5666000I-44450J0D01*
G01*
X5964450Y-5920000D02*
G75*
G03*
X5964450Y-5920000I-44450J0D01*
G01*
X5969460Y-3602000D02*
G75*
G03*
X5969460Y-3602000I-44450J0D01*
G01*
X5969460Y-3856000D02*
G75*
G03*
X5969460Y-3856000I-44450J0D01*
G01*
X5969460Y-4110000D02*
G75*
G03*
X5969460Y-4110000I-44450J0D01*
G01*
X5969460Y-6301250D02*
G75*
G03*
X5969460Y-6301250I-44450J0D01*
G01*
X5969460Y-6555250D02*
G75*
G03*
X5969460Y-6555250I-44450J0D01*
G01*
X5969460Y-6809250D02*
G75*
G03*
X5969460Y-6809250I-44450J0D01*
G01*
X5969460Y-7190750D02*
G75*
G03*
X5969460Y-7190750I-44450J0D01*
G01*
X5969460Y-7444750D02*
G75*
G03*
X5969460Y-7444750I-44450J0D01*
G01*
X5969460Y-7698750D02*
G75*
G03*
X5969460Y-7698750I-44450J0D01*
G01*
X5969460Y-8081250D02*
G75*
G03*
X5969460Y-8081250I-44450J0D01*
G01*
X5969460Y-8335250D02*
G75*
G03*
X5969460Y-8335250I-44450J0D01*
G01*
X5969460Y-8589250D02*
G75*
G03*
X5969460Y-8589250I-44450J0D01*
G01*
X5969460Y-8970750D02*
G75*
G03*
X5969460Y-8970750I-44450J0D01*
G01*
X5969460Y-9224750D02*
G75*
G03*
X5969460Y-9224750I-44450J0D01*
G01*
X5969460Y-9478750D02*
G75*
G03*
X5969460Y-9478750I-44450J0D01*
G01*
X5969460Y-9861250D02*
G75*
G03*
X5969460Y-9861250I-44450J0D01*
G01*
X5969460Y-10115250D02*
G75*
G03*
X5969460Y-10115250I-44450J0D01*
G01*
X5969460Y-10369250D02*
G75*
G03*
X5969460Y-10369250I-44450J0D01*
G01*
X5969460Y-10750750D02*
G75*
G03*
X5969460Y-10750750I-44450J0D01*
G01*
X5969460Y-11004750D02*
G75*
G03*
X5969460Y-11004750I-44450J0D01*
G01*
X5969460Y-11258750D02*
G75*
G03*
X5969460Y-11258750I-44450J0D01*
G01*
D14*
X5420000Y-12265000D02*
X5420000Y-12375000D01*
X5365000Y-12320000D02*
X5475000Y-12320000D01*
D15*
X4970534Y-11870533D02*
X4970534Y-11764466D01*
X4864467Y-11764466D01*
X4864467Y-11870533D01*
X4970534Y-11870533D01*
X4970534Y-12875533D02*
X4970534Y-12769466D01*
X4864467Y-12769466D01*
X4864467Y-12875533D01*
X4970534Y-12875533D01*
X5975533Y-11870533D02*
X5975533Y-11764466D01*
X5869466Y-11764466D01*
X5869466Y-11870533D01*
X5975533Y-11870533D01*
X5975533Y-12875533D02*
X5975533Y-12769466D01*
X5869466Y-12769466D01*
X5869466Y-12875533D01*
X5975533Y-12875533D01*
D11*
X4824619Y-13396476D02*
X4824619Y-13196476D01*
X4872238Y-13196476D01*
X4900810Y-13206000D01*
X4919857Y-13225048D01*
X4929381Y-13244095D01*
X4938905Y-13282190D01*
X4938905Y-13310762D01*
X4929381Y-13348857D01*
X4919857Y-13367905D01*
X4900810Y-13386952D01*
X4872238Y-13396476D01*
X4824619Y-13396476D01*
X5024619Y-13396476D02*
X5024619Y-13263143D01*
X5024619Y-13301238D02*
X5034143Y-13282190D01*
X5043667Y-13272667D01*
X5062714Y-13263143D01*
X5081762Y-13263143D01*
X5148429Y-13396476D02*
X5148429Y-13263143D01*
X5148429Y-13196476D02*
X5138905Y-13206000D01*
X5148429Y-13215524D01*
X5157952Y-13206000D01*
X5148429Y-13196476D01*
X5148429Y-13215524D01*
X5272238Y-13396476D02*
X5253190Y-13386952D01*
X5243667Y-13367905D01*
X5243667Y-13196476D01*
X5377000Y-13396476D02*
X5357952Y-13386952D01*
X5348429Y-13367905D01*
X5348429Y-13196476D01*
X5605571Y-13396476D02*
X5605571Y-13196476D01*
X5672238Y-13339333D01*
X5738905Y-13196476D01*
X5738905Y-13396476D01*
X5919857Y-13396476D02*
X5919857Y-13291714D01*
X5910333Y-13272667D01*
X5891286Y-13263143D01*
X5853190Y-13263143D01*
X5834143Y-13272667D01*
X5919857Y-13386952D02*
X5900809Y-13396476D01*
X5853190Y-13396476D01*
X5834143Y-13386952D01*
X5824619Y-13367905D01*
X5824619Y-13348857D01*
X5834143Y-13329809D01*
X5853190Y-13320286D01*
X5900809Y-13320286D01*
X5919857Y-13310762D01*
X6015095Y-13263143D02*
X6015095Y-13463143D01*
X6015095Y-13272667D02*
X6034143Y-13263143D01*
X6072238Y-13263143D01*
X6091286Y-13272667D01*
X6100809Y-13282190D01*
X6110333Y-13301238D01*
X6110333Y-13358381D01*
X6100809Y-13377428D01*
X6091286Y-13386952D01*
X6072238Y-13396476D01*
X6034143Y-13396476D01*
X6015095Y-13386952D01*
X6196048Y-13377428D02*
X6205571Y-13386952D01*
X6196048Y-13396476D01*
X6186524Y-13386952D01*
X6196048Y-13377428D01*
X6196048Y-13396476D01*
X6196048Y-13272667D02*
X6205571Y-13282190D01*
X6196048Y-13291714D01*
X6186524Y-13282190D01*
X6196048Y-13272667D01*
X6196048Y-13291714D01*
D12*
X4527000Y-13706000D02*
X4567000Y-13746000D01*
X4567000Y-13706000D02*
X4527000Y-13746000D01*
D11*
X4862714Y-13616476D02*
X4881762Y-13616476D01*
X4900810Y-13626000D01*
X4910333Y-13635524D01*
X4919857Y-13654571D01*
X4929381Y-13692667D01*
X4929381Y-13740286D01*
X4919857Y-13778381D01*
X4910333Y-13797428D01*
X4900810Y-13806952D01*
X4881762Y-13816476D01*
X4862714Y-13816476D01*
X4843667Y-13806952D01*
X4834143Y-13797428D01*
X4824619Y-13778381D01*
X4815095Y-13740286D01*
X4815095Y-13692667D01*
X4824619Y-13654571D01*
X4834143Y-13635524D01*
X4843667Y-13626000D01*
X4862714Y-13616476D01*
X5015095Y-13797428D02*
X5024619Y-13806952D01*
X5015095Y-13816476D01*
X5005571Y-13806952D01*
X5015095Y-13797428D01*
X5015095Y-13816476D01*
X5196048Y-13683143D02*
X5196048Y-13816476D01*
X5148429Y-13606952D02*
X5100810Y-13749809D01*
X5224619Y-13749809D01*
X5338905Y-13616476D02*
X5357952Y-13616476D01*
X5377000Y-13626000D01*
X5386524Y-13635524D01*
X5396048Y-13654571D01*
X5405571Y-13692667D01*
X5405571Y-13740286D01*
X5396048Y-13778381D01*
X5386524Y-13797428D01*
X5377000Y-13806952D01*
X5357952Y-13816476D01*
X5338905Y-13816476D01*
X5319857Y-13806952D01*
X5310333Y-13797428D01*
X5300810Y-13778381D01*
X5291286Y-13740286D01*
X5291286Y-13692667D01*
X5300810Y-13654571D01*
X5310333Y-13635524D01*
X5319857Y-13626000D01*
X5338905Y-13616476D01*
X5529381Y-13616476D02*
X5548429Y-13616476D01*
X5567476Y-13626000D01*
X5577000Y-13635524D01*
X5586524Y-13654571D01*
X5596048Y-13692667D01*
X5596048Y-13740286D01*
X5586524Y-13778381D01*
X5577000Y-13797428D01*
X5567476Y-13806952D01*
X5548429Y-13816476D01*
X5529381Y-13816476D01*
X5510333Y-13806952D01*
X5500810Y-13797428D01*
X5491286Y-13778381D01*
X5481762Y-13740286D01*
X5481762Y-13692667D01*
X5491286Y-13654571D01*
X5500810Y-13635524D01*
X5510333Y-13626000D01*
X5529381Y-13616476D01*
X5681762Y-13816476D02*
X5681762Y-13683143D01*
X5681762Y-13702190D02*
X5691286Y-13692667D01*
X5710333Y-13683143D01*
X5738905Y-13683143D01*
X5757952Y-13692667D01*
X5767476Y-13711714D01*
X5767476Y-13816476D01*
X5767476Y-13711714D02*
X5777000Y-13692667D01*
X5796048Y-13683143D01*
X5824619Y-13683143D01*
X5843667Y-13692667D01*
X5853190Y-13711714D01*
X5853190Y-13816476D01*
X5948428Y-13816476D02*
X5948428Y-13683143D01*
X5948428Y-13702190D02*
X5957952Y-13692667D01*
X5977000Y-13683143D01*
X6005571Y-13683143D01*
X6024619Y-13692667D01*
X6034143Y-13711714D01*
X6034143Y-13816476D01*
X6034143Y-13711714D02*
X6043667Y-13692667D01*
X6062714Y-13683143D01*
X6091286Y-13683143D01*
X6110333Y-13692667D01*
X6119857Y-13711714D01*
X6119857Y-13816476D01*
X6510333Y-13606952D02*
X6338905Y-13864095D01*
X6767476Y-13616476D02*
X6786524Y-13616476D01*
X6805571Y-13626000D01*
X6815095Y-13635524D01*
X6824619Y-13654571D01*
X6834143Y-13692667D01*
X6834143Y-13740286D01*
X6824619Y-13778381D01*
X6815095Y-13797428D01*
X6805571Y-13806952D01*
X6786524Y-13816476D01*
X6767476Y-13816476D01*
X6748428Y-13806952D01*
X6738905Y-13797428D01*
X6729381Y-13778381D01*
X6719857Y-13740286D01*
X6719857Y-13692667D01*
X6729381Y-13654571D01*
X6738905Y-13635524D01*
X6748428Y-13626000D01*
X6767476Y-13616476D01*
X6919857Y-13797428D02*
X6929381Y-13806952D01*
X6919857Y-13816476D01*
X6910333Y-13806952D01*
X6919857Y-13797428D01*
X6919857Y-13816476D01*
X7053190Y-13616476D02*
X7072238Y-13616476D01*
X7091286Y-13626000D01*
X7100809Y-13635524D01*
X7110333Y-13654571D01*
X7119857Y-13692667D01*
X7119857Y-13740286D01*
X7110333Y-13778381D01*
X7100809Y-13797428D01*
X7091286Y-13806952D01*
X7072238Y-13816476D01*
X7053190Y-13816476D01*
X7034143Y-13806952D01*
X7024619Y-13797428D01*
X7015095Y-13778381D01*
X7005571Y-13740286D01*
X7005571Y-13692667D01*
X7015095Y-13654571D01*
X7024619Y-13635524D01*
X7034143Y-13626000D01*
X7053190Y-13616476D01*
X7310333Y-13816476D02*
X7196048Y-13816476D01*
X7253190Y-13816476D02*
X7253190Y-13616476D01*
X7234143Y-13645048D01*
X7215095Y-13664095D01*
X7196048Y-13673619D01*
X7491286Y-13616476D02*
X7396048Y-13616476D01*
X7386524Y-13711714D01*
X7396048Y-13702190D01*
X7415095Y-13692667D01*
X7462714Y-13692667D01*
X7481762Y-13702190D01*
X7491286Y-13711714D01*
X7500809Y-13730762D01*
X7500809Y-13778381D01*
X7491286Y-13797428D01*
X7481762Y-13806952D01*
X7462714Y-13816476D01*
X7415095Y-13816476D01*
X7396048Y-13806952D01*
X7386524Y-13797428D01*
X7567476Y-13616476D02*
X7700809Y-13616476D01*
X7615095Y-13816476D01*
X7767476Y-13616476D02*
X7767476Y-13654571D01*
X7843667Y-13616476D02*
X7843667Y-13654571D01*
X8138905Y-13892667D02*
X8129381Y-13883143D01*
X8110333Y-13854571D01*
X8100809Y-13835524D01*
X8091286Y-13806952D01*
X8081762Y-13759333D01*
X8081762Y-13721238D01*
X8091286Y-13673619D01*
X8100809Y-13645048D01*
X8110333Y-13626000D01*
X8129381Y-13597428D01*
X8138905Y-13587905D01*
X8205571Y-13635524D02*
X8215095Y-13626000D01*
X8234143Y-13616476D01*
X8281762Y-13616476D01*
X8300809Y-13626000D01*
X8310333Y-13635524D01*
X8319857Y-13654571D01*
X8319857Y-13673619D01*
X8310333Y-13702190D01*
X8196048Y-13816476D01*
X8319857Y-13816476D01*
X8443667Y-13616476D02*
X8462714Y-13616476D01*
X8481762Y-13626000D01*
X8491286Y-13635524D01*
X8500810Y-13654571D01*
X8510333Y-13692667D01*
X8510333Y-13740286D01*
X8500810Y-13778381D01*
X8491286Y-13797428D01*
X8481762Y-13806952D01*
X8462714Y-13816476D01*
X8443667Y-13816476D01*
X8424619Y-13806952D01*
X8415095Y-13797428D01*
X8405571Y-13778381D01*
X8396048Y-13740286D01*
X8396048Y-13692667D01*
X8405571Y-13654571D01*
X8415095Y-13635524D01*
X8424619Y-13626000D01*
X8443667Y-13616476D01*
X8748429Y-13816476D02*
X8748429Y-13616476D01*
X8834143Y-13816476D02*
X8834143Y-13711714D01*
X8824619Y-13692667D01*
X8805571Y-13683143D01*
X8777000Y-13683143D01*
X8757952Y-13692667D01*
X8748429Y-13702190D01*
X8957952Y-13816476D02*
X8938905Y-13806952D01*
X8929381Y-13797428D01*
X8919857Y-13778381D01*
X8919857Y-13721238D01*
X8929381Y-13702190D01*
X8938905Y-13692667D01*
X8957952Y-13683143D01*
X8986524Y-13683143D01*
X9005571Y-13692667D01*
X9015095Y-13702190D01*
X9024619Y-13721238D01*
X9024619Y-13778381D01*
X9015095Y-13797428D01*
X9005571Y-13806952D01*
X8986524Y-13816476D01*
X8957952Y-13816476D01*
X9138905Y-13816476D02*
X9119857Y-13806952D01*
X9110333Y-13787905D01*
X9110333Y-13616476D01*
X9291286Y-13806952D02*
X9272238Y-13816476D01*
X9234143Y-13816476D01*
X9215095Y-13806952D01*
X9205571Y-13787905D01*
X9205571Y-13711714D01*
X9215095Y-13692667D01*
X9234143Y-13683143D01*
X9272238Y-13683143D01*
X9291286Y-13692667D01*
X9300810Y-13711714D01*
X9300810Y-13730762D01*
X9205571Y-13749809D01*
X9377000Y-13806952D02*
X9396048Y-13816476D01*
X9434143Y-13816476D01*
X9453190Y-13806952D01*
X9462714Y-13787905D01*
X9462714Y-13778381D01*
X9453190Y-13759333D01*
X9434143Y-13749809D01*
X9405571Y-13749809D01*
X9386524Y-13740286D01*
X9377000Y-13721238D01*
X9377000Y-13711714D01*
X9386524Y-13692667D01*
X9405571Y-13683143D01*
X9434143Y-13683143D01*
X9453190Y-13692667D01*
X9529381Y-13892667D02*
X9538905Y-13883143D01*
X9557952Y-13854571D01*
X9567476Y-13835524D01*
X9577000Y-13806952D01*
X9586524Y-13759333D01*
X9586524Y-13721238D01*
X9577000Y-13673619D01*
X9567476Y-13645048D01*
X9557952Y-13626000D01*
X9538905Y-13597428D01*
X9529381Y-13587905D01*
D13*
X4567000Y-13990000D02*
G75*
G03*
X4567000Y-13990000I-44450J0D01*
G01*
D11*
X4862714Y-13880476D02*
X4881762Y-13880476D01*
X4900810Y-13890000D01*
X4910333Y-13899524D01*
X4919857Y-13918571D01*
X4929381Y-13956667D01*
X4929381Y-14004286D01*
X4919857Y-14042381D01*
X4910333Y-14061428D01*
X4900810Y-14070952D01*
X4881762Y-14080476D01*
X4862714Y-14080476D01*
X4843667Y-14070952D01*
X4834143Y-14061428D01*
X4824619Y-14042381D01*
X4815095Y-14004286D01*
X4815095Y-13956667D01*
X4824619Y-13918571D01*
X4834143Y-13899524D01*
X4843667Y-13890000D01*
X4862714Y-13880476D01*
X5015095Y-14061428D02*
X5024619Y-14070952D01*
X5015095Y-14080476D01*
X5005571Y-14070952D01*
X5015095Y-14061428D01*
X5015095Y-14080476D01*
X5138905Y-13966190D02*
X5119857Y-13956667D01*
X5110333Y-13947143D01*
X5100810Y-13928095D01*
X5100810Y-13918571D01*
X5110333Y-13899524D01*
X5119857Y-13890000D01*
X5138905Y-13880476D01*
X5177000Y-13880476D01*
X5196048Y-13890000D01*
X5205571Y-13899524D01*
X5215095Y-13918571D01*
X5215095Y-13928095D01*
X5205571Y-13947143D01*
X5196048Y-13956667D01*
X5177000Y-13966190D01*
X5138905Y-13966190D01*
X5119857Y-13975714D01*
X5110333Y-13985238D01*
X5100810Y-14004286D01*
X5100810Y-14042381D01*
X5110333Y-14061428D01*
X5119857Y-14070952D01*
X5138905Y-14080476D01*
X5177000Y-14080476D01*
X5196048Y-14070952D01*
X5205571Y-14061428D01*
X5215095Y-14042381D01*
X5215095Y-14004286D01*
X5205571Y-13985238D01*
X5196048Y-13975714D01*
X5177000Y-13966190D01*
X5329381Y-13966190D02*
X5310333Y-13956667D01*
X5300810Y-13947143D01*
X5291286Y-13928095D01*
X5291286Y-13918571D01*
X5300810Y-13899524D01*
X5310333Y-13890000D01*
X5329381Y-13880476D01*
X5367476Y-13880476D01*
X5386524Y-13890000D01*
X5396048Y-13899524D01*
X5405571Y-13918571D01*
X5405571Y-13928095D01*
X5396048Y-13947143D01*
X5386524Y-13956667D01*
X5367476Y-13966190D01*
X5329381Y-13966190D01*
X5310333Y-13975714D01*
X5300810Y-13985238D01*
X5291286Y-14004286D01*
X5291286Y-14042381D01*
X5300810Y-14061428D01*
X5310333Y-14070952D01*
X5329381Y-14080476D01*
X5367476Y-14080476D01*
X5386524Y-14070952D01*
X5396048Y-14061428D01*
X5405571Y-14042381D01*
X5405571Y-14004286D01*
X5396048Y-13985238D01*
X5386524Y-13975714D01*
X5367476Y-13966190D01*
X5500810Y-14080476D02*
X5538905Y-14080476D01*
X5557952Y-14070952D01*
X5567476Y-14061428D01*
X5586524Y-14032857D01*
X5596048Y-13994762D01*
X5596048Y-13918571D01*
X5586524Y-13899524D01*
X5577000Y-13890000D01*
X5557952Y-13880476D01*
X5519857Y-13880476D01*
X5500810Y-13890000D01*
X5491286Y-13899524D01*
X5481762Y-13918571D01*
X5481762Y-13966190D01*
X5491286Y-13985238D01*
X5500810Y-13994762D01*
X5519857Y-14004286D01*
X5557952Y-14004286D01*
X5577000Y-13994762D01*
X5586524Y-13985238D01*
X5596048Y-13966190D01*
X5681762Y-14080476D02*
X5681762Y-13947143D01*
X5681762Y-13966190D02*
X5691286Y-13956667D01*
X5710333Y-13947143D01*
X5738905Y-13947143D01*
X5757952Y-13956667D01*
X5767476Y-13975714D01*
X5767476Y-14080476D01*
X5767476Y-13975714D02*
X5777000Y-13956667D01*
X5796048Y-13947143D01*
X5824619Y-13947143D01*
X5843667Y-13956667D01*
X5853190Y-13975714D01*
X5853190Y-14080476D01*
X5948428Y-14080476D02*
X5948428Y-13947143D01*
X5948428Y-13966190D02*
X5957952Y-13956667D01*
X5977000Y-13947143D01*
X6005571Y-13947143D01*
X6024619Y-13956667D01*
X6034143Y-13975714D01*
X6034143Y-14080476D01*
X6034143Y-13975714D02*
X6043667Y-13956667D01*
X6062714Y-13947143D01*
X6091286Y-13947143D01*
X6110333Y-13956667D01*
X6119857Y-13975714D01*
X6119857Y-14080476D01*
X6510333Y-13870952D02*
X6338905Y-14128095D01*
X6767476Y-13880476D02*
X6786524Y-13880476D01*
X6805571Y-13890000D01*
X6815095Y-13899524D01*
X6824619Y-13918571D01*
X6834143Y-13956667D01*
X6834143Y-14004286D01*
X6824619Y-14042381D01*
X6815095Y-14061428D01*
X6805571Y-14070952D01*
X6786524Y-14080476D01*
X6767476Y-14080476D01*
X6748428Y-14070952D01*
X6738905Y-14061428D01*
X6729381Y-14042381D01*
X6719857Y-14004286D01*
X6719857Y-13956667D01*
X6729381Y-13918571D01*
X6738905Y-13899524D01*
X6748428Y-13890000D01*
X6767476Y-13880476D01*
X6919857Y-14061428D02*
X6929381Y-14070952D01*
X6919857Y-14080476D01*
X6910333Y-14070952D01*
X6919857Y-14061428D01*
X6919857Y-14080476D01*
X7053190Y-13880476D02*
X7072238Y-13880476D01*
X7091286Y-13890000D01*
X7100809Y-13899524D01*
X7110333Y-13918571D01*
X7119857Y-13956667D01*
X7119857Y-14004286D01*
X7110333Y-14042381D01*
X7100809Y-14061428D01*
X7091286Y-14070952D01*
X7072238Y-14080476D01*
X7053190Y-14080476D01*
X7034143Y-14070952D01*
X7024619Y-14061428D01*
X7015095Y-14042381D01*
X7005571Y-14004286D01*
X7005571Y-13956667D01*
X7015095Y-13918571D01*
X7024619Y-13899524D01*
X7034143Y-13890000D01*
X7053190Y-13880476D01*
X7186524Y-13880476D02*
X7310333Y-13880476D01*
X7243667Y-13956667D01*
X7272238Y-13956667D01*
X7291286Y-13966190D01*
X7300809Y-13975714D01*
X7310333Y-13994762D01*
X7310333Y-14042381D01*
X7300809Y-14061428D01*
X7291286Y-14070952D01*
X7272238Y-14080476D01*
X7215095Y-14080476D01*
X7196048Y-14070952D01*
X7186524Y-14061428D01*
X7491286Y-13880476D02*
X7396048Y-13880476D01*
X7386524Y-13975714D01*
X7396048Y-13966190D01*
X7415095Y-13956667D01*
X7462714Y-13956667D01*
X7481762Y-13966190D01*
X7491286Y-13975714D01*
X7500809Y-13994762D01*
X7500809Y-14042381D01*
X7491286Y-14061428D01*
X7481762Y-14070952D01*
X7462714Y-14080476D01*
X7415095Y-14080476D01*
X7396048Y-14070952D01*
X7386524Y-14061428D01*
X7624619Y-13880476D02*
X7643667Y-13880476D01*
X7662714Y-13890000D01*
X7672238Y-13899524D01*
X7681762Y-13918571D01*
X7691286Y-13956667D01*
X7691286Y-14004286D01*
X7681762Y-14042381D01*
X7672238Y-14061428D01*
X7662714Y-14070952D01*
X7643667Y-14080476D01*
X7624619Y-14080476D01*
X7605571Y-14070952D01*
X7596048Y-14061428D01*
X7586524Y-14042381D01*
X7577000Y-14004286D01*
X7577000Y-13956667D01*
X7586524Y-13918571D01*
X7596048Y-13899524D01*
X7605571Y-13890000D01*
X7624619Y-13880476D01*
X7767476Y-13880476D02*
X7767476Y-13918571D01*
X7843667Y-13880476D02*
X7843667Y-13918571D01*
X8138905Y-14156667D02*
X8129381Y-14147143D01*
X8110333Y-14118571D01*
X8100809Y-14099524D01*
X8091286Y-14070952D01*
X8081762Y-14023333D01*
X8081762Y-13985238D01*
X8091286Y-13937619D01*
X8100809Y-13909048D01*
X8110333Y-13890000D01*
X8129381Y-13861428D01*
X8138905Y-13851905D01*
X8205571Y-13899524D02*
X8215095Y-13890000D01*
X8234143Y-13880476D01*
X8281762Y-13880476D01*
X8300809Y-13890000D01*
X8310333Y-13899524D01*
X8319857Y-13918571D01*
X8319857Y-13937619D01*
X8310333Y-13966190D01*
X8196048Y-14080476D01*
X8319857Y-14080476D01*
X8386524Y-13880476D02*
X8519857Y-13880476D01*
X8434143Y-14080476D01*
X8748429Y-14080476D02*
X8748429Y-13880476D01*
X8834143Y-14080476D02*
X8834143Y-13975714D01*
X8824619Y-13956667D01*
X8805571Y-13947143D01*
X8777000Y-13947143D01*
X8757952Y-13956667D01*
X8748429Y-13966190D01*
X8957952Y-14080476D02*
X8938905Y-14070952D01*
X8929381Y-14061428D01*
X8919857Y-14042381D01*
X8919857Y-13985238D01*
X8929381Y-13966190D01*
X8938905Y-13956667D01*
X8957952Y-13947143D01*
X8986524Y-13947143D01*
X9005571Y-13956667D01*
X9015095Y-13966190D01*
X9024619Y-13985238D01*
X9024619Y-14042381D01*
X9015095Y-14061428D01*
X9005571Y-14070952D01*
X8986524Y-14080476D01*
X8957952Y-14080476D01*
X9138905Y-14080476D02*
X9119857Y-14070952D01*
X9110333Y-14051905D01*
X9110333Y-13880476D01*
X9291286Y-14070952D02*
X9272238Y-14080476D01*
X9234143Y-14080476D01*
X9215095Y-14070952D01*
X9205571Y-14051905D01*
X9205571Y-13975714D01*
X9215095Y-13956667D01*
X9234143Y-13947143D01*
X9272238Y-13947143D01*
X9291286Y-13956667D01*
X9300810Y-13975714D01*
X9300810Y-13994762D01*
X9205571Y-14013809D01*
X9377000Y-14070952D02*
X9396048Y-14080476D01*
X9434143Y-14080476D01*
X9453190Y-14070952D01*
X9462714Y-14051905D01*
X9462714Y-14042381D01*
X9453190Y-14023333D01*
X9434143Y-14013809D01*
X9405571Y-14013809D01*
X9386524Y-14004286D01*
X9377000Y-13985238D01*
X9377000Y-13975714D01*
X9386524Y-13956667D01*
X9405571Y-13947143D01*
X9434143Y-13947143D01*
X9453190Y-13956667D01*
X9529381Y-14156667D02*
X9538905Y-14147143D01*
X9557952Y-14118571D01*
X9567476Y-14099524D01*
X9577000Y-14070952D01*
X9586524Y-14023333D01*
X9586524Y-13985238D01*
X9577000Y-13937619D01*
X9567476Y-13909048D01*
X9557952Y-13890000D01*
X9538905Y-13861428D01*
X9529381Y-13851905D01*
D14*
X4512000Y-14199000D02*
X4512000Y-14309000D01*
X4457000Y-14254000D02*
X4567000Y-14254000D01*
D11*
X4929381Y-14344476D02*
X4815095Y-14344476D01*
X4872238Y-14344476D02*
X4872238Y-14144476D01*
X4853190Y-14173048D01*
X4834143Y-14192095D01*
X4815095Y-14201619D01*
X5015095Y-14325428D02*
X5024619Y-14334952D01*
X5015095Y-14344476D01*
X5005571Y-14334952D01*
X5015095Y-14325428D01*
X5015095Y-14344476D01*
X5215095Y-14344476D02*
X5100810Y-14344476D01*
X5157952Y-14344476D02*
X5157952Y-14144476D01*
X5138905Y-14173048D01*
X5119857Y-14192095D01*
X5100810Y-14201619D01*
X5338905Y-14144476D02*
X5357952Y-14144476D01*
X5377000Y-14154000D01*
X5386524Y-14163524D01*
X5396048Y-14182571D01*
X5405571Y-14220667D01*
X5405571Y-14268286D01*
X5396048Y-14306381D01*
X5386524Y-14325428D01*
X5377000Y-14334952D01*
X5357952Y-14344476D01*
X5338905Y-14344476D01*
X5319857Y-14334952D01*
X5310333Y-14325428D01*
X5300810Y-14306381D01*
X5291286Y-14268286D01*
X5291286Y-14220667D01*
X5300810Y-14182571D01*
X5310333Y-14163524D01*
X5319857Y-14154000D01*
X5338905Y-14144476D01*
X5529381Y-14144476D02*
X5548429Y-14144476D01*
X5567476Y-14154000D01*
X5577000Y-14163524D01*
X5586524Y-14182571D01*
X5596048Y-14220667D01*
X5596048Y-14268286D01*
X5586524Y-14306381D01*
X5577000Y-14325428D01*
X5567476Y-14334952D01*
X5548429Y-14344476D01*
X5529381Y-14344476D01*
X5510333Y-14334952D01*
X5500810Y-14325428D01*
X5491286Y-14306381D01*
X5481762Y-14268286D01*
X5481762Y-14220667D01*
X5491286Y-14182571D01*
X5500810Y-14163524D01*
X5510333Y-14154000D01*
X5529381Y-14144476D01*
X5681762Y-14344476D02*
X5681762Y-14211143D01*
X5681762Y-14230190D02*
X5691286Y-14220667D01*
X5710333Y-14211143D01*
X5738905Y-14211143D01*
X5757952Y-14220667D01*
X5767476Y-14239714D01*
X5767476Y-14344476D01*
X5767476Y-14239714D02*
X5777000Y-14220667D01*
X5796048Y-14211143D01*
X5824619Y-14211143D01*
X5843667Y-14220667D01*
X5853190Y-14239714D01*
X5853190Y-14344476D01*
X5948428Y-14344476D02*
X5948428Y-14211143D01*
X5948428Y-14230190D02*
X5957952Y-14220667D01*
X5977000Y-14211143D01*
X6005571Y-14211143D01*
X6024619Y-14220667D01*
X6034143Y-14239714D01*
X6034143Y-14344476D01*
X6034143Y-14239714D02*
X6043667Y-14220667D01*
X6062714Y-14211143D01*
X6091286Y-14211143D01*
X6110333Y-14220667D01*
X6119857Y-14239714D01*
X6119857Y-14344476D01*
X6510333Y-14134952D02*
X6338905Y-14392095D01*
X6767476Y-14144476D02*
X6786524Y-14144476D01*
X6805571Y-14154000D01*
X6815095Y-14163524D01*
X6824619Y-14182571D01*
X6834143Y-14220667D01*
X6834143Y-14268286D01*
X6824619Y-14306381D01*
X6815095Y-14325428D01*
X6805571Y-14334952D01*
X6786524Y-14344476D01*
X6767476Y-14344476D01*
X6748428Y-14334952D01*
X6738905Y-14325428D01*
X6729381Y-14306381D01*
X6719857Y-14268286D01*
X6719857Y-14220667D01*
X6729381Y-14182571D01*
X6738905Y-14163524D01*
X6748428Y-14154000D01*
X6767476Y-14144476D01*
X6919857Y-14325428D02*
X6929381Y-14334952D01*
X6919857Y-14344476D01*
X6910333Y-14334952D01*
X6919857Y-14325428D01*
X6919857Y-14344476D01*
X7053190Y-14144476D02*
X7072238Y-14144476D01*
X7091286Y-14154000D01*
X7100809Y-14163524D01*
X7110333Y-14182571D01*
X7119857Y-14220667D01*
X7119857Y-14268286D01*
X7110333Y-14306381D01*
X7100809Y-14325428D01*
X7091286Y-14334952D01*
X7072238Y-14344476D01*
X7053190Y-14344476D01*
X7034143Y-14334952D01*
X7024619Y-14325428D01*
X7015095Y-14306381D01*
X7005571Y-14268286D01*
X7005571Y-14220667D01*
X7015095Y-14182571D01*
X7024619Y-14163524D01*
X7034143Y-14154000D01*
X7053190Y-14144476D01*
X7291286Y-14211143D02*
X7291286Y-14344476D01*
X7243667Y-14134952D02*
X7196048Y-14277809D01*
X7319857Y-14277809D01*
X7377000Y-14144476D02*
X7500809Y-14144476D01*
X7434143Y-14220667D01*
X7462714Y-14220667D01*
X7481762Y-14230190D01*
X7491286Y-14239714D01*
X7500809Y-14258762D01*
X7500809Y-14306381D01*
X7491286Y-14325428D01*
X7481762Y-14334952D01*
X7462714Y-14344476D01*
X7405571Y-14344476D01*
X7386524Y-14334952D01*
X7377000Y-14325428D01*
X7567476Y-14144476D02*
X7691286Y-14144476D01*
X7624619Y-14220667D01*
X7653190Y-14220667D01*
X7672238Y-14230190D01*
X7681762Y-14239714D01*
X7691286Y-14258762D01*
X7691286Y-14306381D01*
X7681762Y-14325428D01*
X7672238Y-14334952D01*
X7653190Y-14344476D01*
X7596048Y-14344476D01*
X7577000Y-14334952D01*
X7567476Y-14325428D01*
X7767476Y-14144476D02*
X7767476Y-14182571D01*
X7843667Y-14144476D02*
X7843667Y-14182571D01*
X8138905Y-14420667D02*
X8129381Y-14411143D01*
X8110333Y-14382571D01*
X8100809Y-14363524D01*
X8091286Y-14334952D01*
X8081762Y-14287333D01*
X8081762Y-14249238D01*
X8091286Y-14201619D01*
X8100809Y-14173048D01*
X8110333Y-14154000D01*
X8129381Y-14125428D01*
X8138905Y-14115905D01*
X8319857Y-14344476D02*
X8205571Y-14344476D01*
X8262714Y-14344476D02*
X8262714Y-14144476D01*
X8243667Y-14173048D01*
X8224619Y-14192095D01*
X8205571Y-14201619D01*
X8557952Y-14344476D02*
X8557952Y-14144476D01*
X8643667Y-14344476D02*
X8643667Y-14239714D01*
X8634143Y-14220667D01*
X8615095Y-14211143D01*
X8586524Y-14211143D01*
X8567476Y-14220667D01*
X8557952Y-14230190D01*
X8767476Y-14344476D02*
X8748429Y-14334952D01*
X8738905Y-14325428D01*
X8729381Y-14306381D01*
X8729381Y-14249238D01*
X8738905Y-14230190D01*
X8748429Y-14220667D01*
X8767476Y-14211143D01*
X8796048Y-14211143D01*
X8815095Y-14220667D01*
X8824619Y-14230190D01*
X8834143Y-14249238D01*
X8834143Y-14306381D01*
X8824619Y-14325428D01*
X8815095Y-14334952D01*
X8796048Y-14344476D01*
X8767476Y-14344476D01*
X8948429Y-14344476D02*
X8929381Y-14334952D01*
X8919857Y-14315905D01*
X8919857Y-14144476D01*
X9100810Y-14334952D02*
X9081762Y-14344476D01*
X9043667Y-14344476D01*
X9024619Y-14334952D01*
X9015095Y-14315905D01*
X9015095Y-14239714D01*
X9024619Y-14220667D01*
X9043667Y-14211143D01*
X9081762Y-14211143D01*
X9100810Y-14220667D01*
X9110333Y-14239714D01*
X9110333Y-14258762D01*
X9015095Y-14277809D01*
X9177000Y-14420667D02*
X9186524Y-14411143D01*
X9205571Y-14382571D01*
X9215095Y-14363524D01*
X9224619Y-14334952D01*
X9234143Y-14287333D01*
X9234143Y-14249238D01*
X9224619Y-14201619D01*
X9215095Y-14173048D01*
X9205571Y-14154000D01*
X9186524Y-14125428D01*
X9177000Y-14115905D01*
D15*
X4545034Y-14571033D02*
X4545034Y-14464966D01*
X4438967Y-14464966D01*
X4438967Y-14571033D01*
X4545034Y-14571033D01*
D11*
X4929381Y-14608476D02*
X4815095Y-14608476D01*
X4872238Y-14608476D02*
X4872238Y-14408476D01*
X4853190Y-14437048D01*
X4834143Y-14456095D01*
X4815095Y-14465619D01*
X5015095Y-14589428D02*
X5024619Y-14598952D01*
X5015095Y-14608476D01*
X5005571Y-14598952D01*
X5015095Y-14589428D01*
X5015095Y-14608476D01*
X5205571Y-14408476D02*
X5110333Y-14408476D01*
X5100810Y-14503714D01*
X5110333Y-14494190D01*
X5129381Y-14484667D01*
X5177000Y-14484667D01*
X5196048Y-14494190D01*
X5205571Y-14503714D01*
X5215095Y-14522762D01*
X5215095Y-14570381D01*
X5205571Y-14589428D01*
X5196048Y-14598952D01*
X5177000Y-14608476D01*
X5129381Y-14608476D01*
X5110333Y-14598952D01*
X5100810Y-14589428D01*
X5338905Y-14408476D02*
X5357952Y-14408476D01*
X5377000Y-14418000D01*
X5386524Y-14427524D01*
X5396048Y-14446571D01*
X5405571Y-14484667D01*
X5405571Y-14532286D01*
X5396048Y-14570381D01*
X5386524Y-14589428D01*
X5377000Y-14598952D01*
X5357952Y-14608476D01*
X5338905Y-14608476D01*
X5319857Y-14598952D01*
X5310333Y-14589428D01*
X5300810Y-14570381D01*
X5291286Y-14532286D01*
X5291286Y-14484667D01*
X5300810Y-14446571D01*
X5310333Y-14427524D01*
X5319857Y-14418000D01*
X5338905Y-14408476D01*
X5529381Y-14408476D02*
X5548429Y-14408476D01*
X5567476Y-14418000D01*
X5577000Y-14427524D01*
X5586524Y-14446571D01*
X5596048Y-14484667D01*
X5596048Y-14532286D01*
X5586524Y-14570381D01*
X5577000Y-14589428D01*
X5567476Y-14598952D01*
X5548429Y-14608476D01*
X5529381Y-14608476D01*
X5510333Y-14598952D01*
X5500810Y-14589428D01*
X5491286Y-14570381D01*
X5481762Y-14532286D01*
X5481762Y-14484667D01*
X5491286Y-14446571D01*
X5500810Y-14427524D01*
X5510333Y-14418000D01*
X5529381Y-14408476D01*
X5681762Y-14608476D02*
X5681762Y-14475143D01*
X5681762Y-14494190D02*
X5691286Y-14484667D01*
X5710333Y-14475143D01*
X5738905Y-14475143D01*
X5757952Y-14484667D01*
X5767476Y-14503714D01*
X5767476Y-14608476D01*
X5767476Y-14503714D02*
X5777000Y-14484667D01*
X5796048Y-14475143D01*
X5824619Y-14475143D01*
X5843667Y-14484667D01*
X5853190Y-14503714D01*
X5853190Y-14608476D01*
X5948428Y-14608476D02*
X5948428Y-14475143D01*
X5948428Y-14494190D02*
X5957952Y-14484667D01*
X5977000Y-14475143D01*
X6005571Y-14475143D01*
X6024619Y-14484667D01*
X6034143Y-14503714D01*
X6034143Y-14608476D01*
X6034143Y-14503714D02*
X6043667Y-14484667D01*
X6062714Y-14475143D01*
X6091286Y-14475143D01*
X6110333Y-14484667D01*
X6119857Y-14503714D01*
X6119857Y-14608476D01*
X6510333Y-14398952D02*
X6338905Y-14656095D01*
X6767476Y-14408476D02*
X6786524Y-14408476D01*
X6805571Y-14418000D01*
X6815095Y-14427524D01*
X6824619Y-14446571D01*
X6834143Y-14484667D01*
X6834143Y-14532286D01*
X6824619Y-14570381D01*
X6815095Y-14589428D01*
X6805571Y-14598952D01*
X6786524Y-14608476D01*
X6767476Y-14608476D01*
X6748428Y-14598952D01*
X6738905Y-14589428D01*
X6729381Y-14570381D01*
X6719857Y-14532286D01*
X6719857Y-14484667D01*
X6729381Y-14446571D01*
X6738905Y-14427524D01*
X6748428Y-14418000D01*
X6767476Y-14408476D01*
X6919857Y-14589428D02*
X6929381Y-14598952D01*
X6919857Y-14608476D01*
X6910333Y-14598952D01*
X6919857Y-14589428D01*
X6919857Y-14608476D01*
X7053190Y-14408476D02*
X7072238Y-14408476D01*
X7091286Y-14418000D01*
X7100809Y-14427524D01*
X7110333Y-14446571D01*
X7119857Y-14484667D01*
X7119857Y-14532286D01*
X7110333Y-14570381D01*
X7100809Y-14589428D01*
X7091286Y-14598952D01*
X7072238Y-14608476D01*
X7053190Y-14608476D01*
X7034143Y-14598952D01*
X7024619Y-14589428D01*
X7015095Y-14570381D01*
X7005571Y-14532286D01*
X7005571Y-14484667D01*
X7015095Y-14446571D01*
X7024619Y-14427524D01*
X7034143Y-14418000D01*
X7053190Y-14408476D01*
X7300809Y-14408476D02*
X7205571Y-14408476D01*
X7196048Y-14503714D01*
X7205571Y-14494190D01*
X7224619Y-14484667D01*
X7272238Y-14484667D01*
X7291286Y-14494190D01*
X7300809Y-14503714D01*
X7310333Y-14522762D01*
X7310333Y-14570381D01*
X7300809Y-14589428D01*
X7291286Y-14598952D01*
X7272238Y-14608476D01*
X7224619Y-14608476D01*
X7205571Y-14598952D01*
X7196048Y-14589428D01*
X7405571Y-14608476D02*
X7443667Y-14608476D01*
X7462714Y-14598952D01*
X7472238Y-14589428D01*
X7491286Y-14560857D01*
X7500809Y-14522762D01*
X7500809Y-14446571D01*
X7491286Y-14427524D01*
X7481762Y-14418000D01*
X7462714Y-14408476D01*
X7424619Y-14408476D01*
X7405571Y-14418000D01*
X7396048Y-14427524D01*
X7386524Y-14446571D01*
X7386524Y-14494190D01*
X7396048Y-14513238D01*
X7405571Y-14522762D01*
X7424619Y-14532286D01*
X7462714Y-14532286D01*
X7481762Y-14522762D01*
X7491286Y-14513238D01*
X7500809Y-14494190D01*
X7691286Y-14608476D02*
X7577000Y-14608476D01*
X7634143Y-14608476D02*
X7634143Y-14408476D01*
X7615095Y-14437048D01*
X7596048Y-14456095D01*
X7577000Y-14465619D01*
X7767476Y-14408476D02*
X7767476Y-14446571D01*
X7843667Y-14408476D02*
X7843667Y-14446571D01*
X8138905Y-14684667D02*
X8129381Y-14675143D01*
X8110333Y-14646571D01*
X8100809Y-14627524D01*
X8091286Y-14598952D01*
X8081762Y-14551333D01*
X8081762Y-14513238D01*
X8091286Y-14465619D01*
X8100809Y-14437048D01*
X8110333Y-14418000D01*
X8129381Y-14389428D01*
X8138905Y-14379905D01*
X8300809Y-14475143D02*
X8300809Y-14608476D01*
X8253190Y-14398952D02*
X8205571Y-14541809D01*
X8329381Y-14541809D01*
X8557952Y-14608476D02*
X8557952Y-14408476D01*
X8643667Y-14608476D02*
X8643667Y-14503714D01*
X8634143Y-14484667D01*
X8615095Y-14475143D01*
X8586524Y-14475143D01*
X8567476Y-14484667D01*
X8557952Y-14494190D01*
X8767476Y-14608476D02*
X8748429Y-14598952D01*
X8738905Y-14589428D01*
X8729381Y-14570381D01*
X8729381Y-14513238D01*
X8738905Y-14494190D01*
X8748429Y-14484667D01*
X8767476Y-14475143D01*
X8796048Y-14475143D01*
X8815095Y-14484667D01*
X8824619Y-14494190D01*
X8834143Y-14513238D01*
X8834143Y-14570381D01*
X8824619Y-14589428D01*
X8815095Y-14598952D01*
X8796048Y-14608476D01*
X8767476Y-14608476D01*
X8948429Y-14608476D02*
X8929381Y-14598952D01*
X8919857Y-14579905D01*
X8919857Y-14408476D01*
X9100810Y-14598952D02*
X9081762Y-14608476D01*
X9043667Y-14608476D01*
X9024619Y-14598952D01*
X9015095Y-14579905D01*
X9015095Y-14503714D01*
X9024619Y-14484667D01*
X9043667Y-14475143D01*
X9081762Y-14475143D01*
X9100810Y-14484667D01*
X9110333Y-14503714D01*
X9110333Y-14522762D01*
X9015095Y-14541809D01*
X9186524Y-14598952D02*
X9205571Y-14608476D01*
X9243667Y-14608476D01*
X9262714Y-14598952D01*
X9272238Y-14579905D01*
X9272238Y-14570381D01*
X9262714Y-14551333D01*
X9243667Y-14541809D01*
X9215095Y-14541809D01*
X9196048Y-14532286D01*
X9186524Y-14513238D01*
X9186524Y-14503714D01*
X9196048Y-14484667D01*
X9215095Y-14475143D01*
X9243667Y-14475143D01*
X9262714Y-14484667D01*
X9338905Y-14684667D02*
X9348429Y-14675143D01*
X9367476Y-14646571D01*
X9377000Y-14627524D01*
X9386524Y-14598952D01*
X9396048Y-14551333D01*
X9396048Y-14513238D01*
X9386524Y-14465619D01*
X9377000Y-14437048D01*
X9367476Y-14418000D01*
X9348429Y-14389428D01*
X9338905Y-14379905D01*
M02*
