%TF.GenerationSoftware,KiCad,Pcbnew,(6.0.8-1)-1*%
%TF.CreationDate,2022-11-08T16:38:45-05:00*%
%TF.ProjectId,Untitled,556e7469-746c-4656-942e-6b696361645f,rev?*%
%TF.SameCoordinates,Original*%
%TF.FileFunction,Copper,L1,Top*%
%TF.FilePolarity,Positive*%
%FSLAX46Y46*%
G04 Gerber Fmt 4.6, Leading zero omitted, Abs format (unit mm)*
G04 Created by KiCad (PCBNEW (6.0.8-1)-1) date 2022-11-08 16:38:45*
%MOMM*%
%LPD*%
G01*
G04 APERTURE LIST*
G04 Aperture macros list*
%AMRoundRect*
0 Rectangle with rounded corners*
0 $1 Rounding radius*
0 $2 $3 $4 $5 $6 $7 $8 $9 X,Y pos of 4 corners*
0 Add a 4 corners polygon primitive as box body*
4,1,4,$2,$3,$4,$5,$6,$7,$8,$9,$2,$3,0*
0 Add four circle primitives for the rounded corners*
1,1,$1+$1,$2,$3*
1,1,$1+$1,$4,$5*
1,1,$1+$1,$6,$7*
1,1,$1+$1,$8,$9*
0 Add four rect primitives between the rounded corners*
20,1,$1+$1,$2,$3,$4,$5,0*
20,1,$1+$1,$4,$5,$6,$7,0*
20,1,$1+$1,$6,$7,$8,$9,0*
20,1,$1+$1,$8,$9,$2,$3,0*%
G04 Aperture macros list end*
%TA.AperFunction,SMDPad,CuDef*%
%ADD10R,4.300000X1.100000*%
%TD*%
%TA.AperFunction,SMDPad,CuDef*%
%ADD11RoundRect,0.250000X-0.325000X-1.100000X0.325000X-1.100000X0.325000X1.100000X-0.325000X1.100000X0*%
%TD*%
%TA.AperFunction,SMDPad,CuDef*%
%ADD12RoundRect,0.087500X-0.087500X-0.337500X0.087500X-0.337500X0.087500X0.337500X-0.087500X0.337500X0*%
%TD*%
%TA.AperFunction,SMDPad,CuDef*%
%ADD13RoundRect,0.135000X-0.135000X-0.185000X0.135000X-0.185000X0.135000X0.185000X-0.135000X0.185000X0*%
%TD*%
%TA.AperFunction,ComponentPad*%
%ADD14R,1.397000X1.397000*%
%TD*%
%TA.AperFunction,ComponentPad*%
%ADD15C,1.397000*%
%TD*%
%TA.AperFunction,SMDPad,CuDef*%
%ADD16RoundRect,0.237500X-0.287500X-0.237500X0.287500X-0.237500X0.287500X0.237500X-0.287500X0.237500X0*%
%TD*%
%TA.AperFunction,ComponentPad*%
%ADD17R,3.500000X3.500000*%
%TD*%
%TA.AperFunction,ComponentPad*%
%ADD18C,4.000000*%
%TD*%
%TA.AperFunction,ViaPad*%
%ADD19C,0.800000*%
%TD*%
%TA.AperFunction,Conductor*%
%ADD20C,0.200000*%
%TD*%
%TA.AperFunction,Conductor*%
%ADD21C,0.250000*%
%TD*%
G04 APERTURE END LIST*
D10*
%TO.P,REF\u002A\u002A,1*%
%TO.N,N/C*%
X127380000Y-80820000D03*
%TO.P,REF\u002A\u002A,2*%
X127380000Y-83020000D03*
%TD*%
%TO.P,REF\u002A\u002A,1*%
%TO.N,N/C*%
X127380000Y-48910000D03*
%TO.P,REF\u002A\u002A,2*%
X127380000Y-51110000D03*
%TD*%
%TO.P,REF\u002A\u002A,1*%
%TO.N,N/C*%
X155020000Y-96770000D03*
%TO.P,REF\u002A\u002A,2*%
X155020000Y-98970000D03*
%TD*%
%TO.P,REF\u002A\u002A,1*%
%TO.N,N/C*%
X99750000Y-96770000D03*
%TO.P,REF\u002A\u002A,2*%
X99750000Y-98970000D03*
%TD*%
%TO.P,REF\u002A\u002A,1*%
%TO.N,N/C*%
X127380000Y-112730000D03*
%TO.P,REF\u002A\u002A,2*%
X127380000Y-114930000D03*
%TD*%
%TO.P,REF\u002A\u002A,1*%
%TO.N,N/C*%
X155020000Y-64860000D03*
%TO.P,REF\u002A\u002A,2*%
X155020000Y-67060000D03*
%TD*%
%TO.P,REF\u002A\u002A,1*%
%TO.N,N/C*%
X99750000Y-64860000D03*
%TO.P,REF\u002A\u002A,2*%
X99750000Y-67060000D03*
%TD*%
D11*
%TO.P,REF\u002A\u002A,2*%
%TO.N,N/C*%
X67575000Y-110000000D03*
%TO.P,REF\u002A\u002A,1*%
X64625000Y-110000000D03*
%TD*%
D12*
%TO.P,REF\u002A\u002A,1*%
%TO.N,N/C*%
X126980000Y-86610000D03*
%TO.P,REF\u002A\u002A,2*%
X127630000Y-86610000D03*
%TO.P,REF\u002A\u002A,3*%
X128280000Y-86610000D03*
%TO.P,REF\u002A\u002A,4*%
X128280000Y-84410000D03*
%TO.P,REF\u002A\u002A,5*%
X126980000Y-84410000D03*
%TD*%
D13*
%TO.P,REF\u002A\u002A,1*%
%TO.N,N/C*%
X64390000Y-125200000D03*
%TO.P,REF\u002A\u002A,2*%
X65410000Y-125200000D03*
%TD*%
D12*
%TO.P,REF\u002A\u002A,1*%
%TO.N,N/C*%
X126980000Y-54700000D03*
%TO.P,REF\u002A\u002A,2*%
X127630000Y-54700000D03*
%TO.P,REF\u002A\u002A,3*%
X128280000Y-54700000D03*
%TO.P,REF\u002A\u002A,4*%
X128280000Y-52500000D03*
%TO.P,REF\u002A\u002A,5*%
X126980000Y-52500000D03*
%TD*%
D11*
%TO.P,REF\u002A\u002A,2*%
%TO.N,N/C*%
X67575000Y-36145716D03*
%TO.P,REF\u002A\u002A,1*%
X64625000Y-36145716D03*
%TD*%
D14*
%TO.P,REF\u002A\u002A,1*%
%TO.N,N/C*%
X59200000Y-59200000D03*
D15*
%TO.P,REF\u002A\u002A,2*%
X59200000Y-56660000D03*
%TO.P,REF\u002A\u002A,3*%
X59200000Y-54120000D03*
%TD*%
D16*
%TO.P,REF\u002A\u002A,1*%
%TO.N,N/C*%
X99125000Y-95110000D03*
%TO.P,REF\u002A\u002A,2*%
X100875000Y-95110000D03*
%TD*%
D17*
%TO.P,REF\u002A\u002A,1*%
%TO.N,N/C*%
X54200000Y-123200000D03*
D18*
%TO.P,REF\u002A\u002A,2*%
X59225000Y-128225000D03*
X59225000Y-118175000D03*
X49175000Y-118175000D03*
X49175000Y-128225000D03*
%TD*%
D11*
%TO.P,REF\u002A\u002A,1*%
%TO.N,N/C*%
X64625000Y-73072857D03*
%TO.P,REF\u002A\u002A,2*%
X67575000Y-73072857D03*
%TD*%
D14*
%TO.P,REF\u002A\u002A,1*%
%TO.N,N/C*%
X59250100Y-41100000D03*
D15*
%TO.P,REF\u002A\u002A,2*%
X59250100Y-38560000D03*
%TO.P,REF\u002A\u002A,3*%
X59250100Y-36020000D03*
%TD*%
D14*
%TO.P,REF\u002A\u002A,1*%
%TO.N,N/C*%
X59250100Y-76987500D03*
D15*
%TO.P,REF\u002A\u002A,2*%
X59250100Y-74447500D03*
%TO.P,REF\u002A\u002A,3*%
X59250100Y-71907500D03*
%TD*%
D16*
%TO.P,REF\u002A\u002A,1*%
%TO.N,N/C*%
X154395000Y-95110000D03*
%TO.P,REF\u002A\u002A,2*%
X156145000Y-95110000D03*
%TD*%
%TO.P,REF\u002A\u002A,1*%
%TO.N,N/C*%
X154395000Y-63200000D03*
%TO.P,REF\u002A\u002A,2*%
X156145000Y-63200000D03*
%TD*%
D11*
%TO.P,REF\u002A\u002A,1*%
%TO.N,N/C*%
X64625000Y-60763810D03*
%TO.P,REF\u002A\u002A,2*%
X67575000Y-60763810D03*
%TD*%
%TO.P,REF\u002A\u002A,1*%
%TO.N,N/C*%
X64625000Y-48454763D03*
%TO.P,REF\u002A\u002A,2*%
X67575000Y-48454763D03*
%TD*%
D16*
%TO.P,REF\u002A\u002A,1*%
%TO.N,N/C*%
X126755000Y-111070000D03*
%TO.P,REF\u002A\u002A,2*%
X128505000Y-111070000D03*
%TD*%
%TO.P,REF\u002A\u002A,1*%
%TO.N,N/C*%
X126755000Y-47250000D03*
%TO.P,REF\u002A\u002A,2*%
X128505000Y-47250000D03*
%TD*%
D11*
%TO.P,REF\u002A\u002A,1*%
%TO.N,N/C*%
X64625000Y-85381904D03*
%TO.P,REF\u002A\u002A,2*%
X67575000Y-85381904D03*
%TD*%
D14*
%TO.P,REF\u002A\u002A,1*%
%TO.N,N/C*%
X59250100Y-94787500D03*
D15*
%TO.P,REF\u002A\u002A,2*%
X59250100Y-92247500D03*
%TO.P,REF\u002A\u002A,3*%
X59250100Y-89707500D03*
%TD*%
D16*
%TO.P,REF\u002A\u002A,1*%
%TO.N,N/C*%
X126755000Y-79160000D03*
%TO.P,REF\u002A\u002A,2*%
X128505000Y-79160000D03*
%TD*%
D14*
%TO.P,REF\u002A\u002A,1*%
%TO.N,N/C*%
X59250100Y-112587500D03*
D15*
%TO.P,REF\u002A\u002A,2*%
X59250100Y-110047500D03*
%TO.P,REF\u002A\u002A,3*%
X59250100Y-107507500D03*
%TD*%
D11*
%TO.P,REF\u002A\u002A,1*%
%TO.N,N/C*%
X64625000Y-97690951D03*
%TO.P,REF\u002A\u002A,2*%
X67575000Y-97690951D03*
%TD*%
D16*
%TO.P,REF\u002A\u002A,1*%
%TO.N,N/C*%
X99125000Y-63200000D03*
%TO.P,REF\u002A\u002A,2*%
X100875000Y-63200000D03*
%TD*%
D14*
%TO.P,REF\u002A\u002A,1*%
%TO.N,N/C*%
X59250100Y-80812500D03*
D15*
%TO.P,REF\u002A\u002A,2*%
X59250100Y-83352500D03*
%TO.P,REF\u002A\u002A,3*%
X59250100Y-85892500D03*
%TD*%
D14*
%TO.P,REF\u002A\u002A,1*%
%TO.N,N/C*%
X59200000Y-45000000D03*
D15*
%TO.P,REF\u002A\u002A,2*%
X59200000Y-47540000D03*
%TO.P,REF\u002A\u002A,3*%
X59200000Y-50080000D03*
%TD*%
D14*
%TO.P,REF\u002A\u002A,1*%
%TO.N,N/C*%
X59250100Y-98612500D03*
D15*
%TO.P,REF\u002A\u002A,2*%
X59250100Y-101152500D03*
%TO.P,REF\u002A\u002A,3*%
X59250100Y-103692500D03*
%TD*%
D14*
%TO.P,REF\u002A\u002A,1*%
%TO.N,N/C*%
X59250100Y-63012500D03*
D15*
%TO.P,REF\u002A\u002A,2*%
X59250100Y-65552500D03*
%TO.P,REF\u002A\u002A,3*%
X59250100Y-68092500D03*
%TD*%
D19*
%TO.N,*%
X68900000Y-48200000D03*
X69200000Y-54000000D03*
X126980000Y-53620000D03*
X129380000Y-86620000D03*
X67400000Y-90300000D03*
X67300000Y-41500000D03*
X69100000Y-86300000D03*
X129200000Y-54800000D03*
X129180000Y-84420000D03*
X127000000Y-85600000D03*
X69200000Y-74300000D03*
X69600000Y-66251790D03*
X69400000Y-36100000D03*
X69300000Y-60100000D03*
X67800000Y-103300000D03*
X68400000Y-77800000D03*
X69500000Y-110700000D03*
X129000000Y-52600000D03*
X69400000Y-115510000D03*
X69300000Y-97800000D03*
%TD*%
D20*
%TO.N,*%
X66500000Y-90300000D02*
X62012500Y-94787500D01*
X62012500Y-94787500D02*
X59250100Y-94787500D01*
X67400000Y-90300000D02*
X68500000Y-89200000D01*
X67400000Y-90300000D02*
X66500000Y-90300000D01*
X81200000Y-103600000D02*
X81400000Y-103800000D01*
X68500000Y-89200000D02*
X77000000Y-89200000D01*
X77000000Y-89200000D02*
X81200000Y-93400000D01*
X81200000Y-93400000D02*
X81200000Y-103600000D01*
X103570000Y-96770000D02*
X99750000Y-96770000D01*
X81400000Y-103800000D02*
X102000000Y-103800000D01*
X102000000Y-103800000D02*
X104000000Y-101800000D01*
X104000000Y-101800000D02*
X104000000Y-97200000D01*
X104000000Y-97200000D02*
X103570000Y-96770000D01*
D21*
X89010000Y-106190000D02*
X79990000Y-106190000D01*
X79990000Y-106190000D02*
X74700000Y-100900000D01*
X74700000Y-100400000D02*
X71600000Y-100400000D01*
X74700000Y-100900000D02*
X74700000Y-100400000D01*
X71600000Y-100400000D02*
X70847500Y-101152500D01*
X70847500Y-101152500D02*
X59250100Y-101152500D01*
X74600000Y-127600000D02*
X73450000Y-126450000D01*
X65410000Y-125200000D02*
X72200000Y-125200000D01*
X72200000Y-125200000D02*
X73450000Y-126450000D01*
D20*
X62300000Y-123200000D02*
X54200000Y-123200000D01*
X62300000Y-123200000D02*
X64300000Y-125200000D01*
X64300000Y-125200000D02*
X64390000Y-125200000D01*
X114600000Y-102400000D02*
X145540000Y-102400000D01*
X67800000Y-103300000D02*
X67700000Y-103200000D01*
X67700000Y-103200000D02*
X62400000Y-103200000D01*
X62400000Y-103200000D02*
X61600000Y-102400000D01*
X67800000Y-103300000D02*
X71000000Y-106500000D01*
X145540000Y-102400000D02*
X150870000Y-107730000D01*
X61600000Y-102400000D02*
X57800000Y-102400000D01*
X71000000Y-106500000D02*
X71000000Y-106600000D01*
X57800000Y-102400000D02*
X57600000Y-102200000D01*
X57600000Y-102200000D02*
X57600000Y-99800000D01*
X58787500Y-98612500D02*
X59250100Y-98612500D01*
X57600000Y-99800000D02*
X58787500Y-98612500D01*
X71000000Y-106600000D02*
X73600000Y-109200000D01*
X107800000Y-109200000D02*
X114600000Y-102400000D01*
X73600000Y-109200000D02*
X107800000Y-109200000D01*
D21*
X120210000Y-89200000D02*
X130000000Y-89200000D01*
X57600000Y-81400000D02*
X58187500Y-80812500D01*
X58187500Y-80812500D02*
X59250100Y-80812500D01*
X68400000Y-77800000D02*
X69158932Y-78558932D01*
X60471300Y-84671300D02*
X58071300Y-84671300D01*
X69158932Y-78558932D02*
X109441068Y-78558932D01*
X109441068Y-78558932D02*
X109505000Y-78495000D01*
X58071300Y-84671300D02*
X57600000Y-84200000D01*
X109505000Y-78495000D02*
X120210000Y-89200000D01*
X130000000Y-89200000D02*
X131400000Y-87800000D01*
X68400000Y-77800000D02*
X67342600Y-77800000D01*
X67342600Y-77800000D02*
X60471300Y-84671300D01*
X57600000Y-84200000D02*
X57600000Y-81400000D01*
X67575000Y-36145716D02*
X69354284Y-36145716D01*
X69354284Y-36145716D02*
X69400000Y-36100000D01*
X123200000Y-115000000D02*
X114200000Y-115000000D01*
X60947500Y-110047500D02*
X59250100Y-110047500D01*
X112030352Y-112830352D02*
X73660000Y-112830352D01*
X73660000Y-112830352D02*
X73549994Y-112940358D01*
X114200000Y-115000000D02*
X112030352Y-112830352D01*
X73549994Y-112940358D02*
X63840358Y-112940358D01*
X63840358Y-112940358D02*
X60947500Y-110047500D01*
D20*
X59250100Y-107507500D02*
X61407500Y-107507500D01*
X61407500Y-107507500D02*
X62200000Y-108300000D01*
X62925000Y-108300000D02*
X64625000Y-110000000D01*
X62200000Y-108300000D02*
X62925000Y-108300000D01*
X59250100Y-112587500D02*
X60387500Y-112587500D01*
X60387500Y-112587500D02*
X63280358Y-115480358D01*
X63280358Y-115480358D02*
X64080358Y-115480358D01*
D21*
X67629284Y-110054284D02*
X67575000Y-110000000D01*
X69500000Y-110700000D02*
X68854284Y-110054284D01*
X68854284Y-110054284D02*
X67629284Y-110054284D01*
X69300000Y-97800000D02*
X69173330Y-97673330D01*
X69173330Y-97673330D02*
X67592621Y-97673330D01*
X67592621Y-97673330D02*
X67575000Y-97690951D01*
D20*
X59250100Y-103692500D02*
X57692500Y-103692500D01*
X57692500Y-103692500D02*
X56400000Y-102400000D01*
X56400000Y-102400000D02*
X56400000Y-98800000D01*
X56400000Y-98800000D02*
X58400000Y-96800000D01*
X58400000Y-96800000D02*
X60600000Y-96800000D01*
X60600000Y-96800000D02*
X61200000Y-97400000D01*
X61200000Y-97400000D02*
X64334049Y-97400000D01*
X64334049Y-97400000D02*
X64722619Y-97788570D01*
D21*
X69100000Y-86300000D02*
X68181904Y-85381904D01*
X68181904Y-85381904D02*
X67575000Y-85381904D01*
X59250100Y-89707500D02*
X60299404Y-89707500D01*
X60299404Y-89707500D02*
X64570716Y-85436188D01*
X64625000Y-73072857D02*
X63200000Y-74497857D01*
X63200000Y-74497857D02*
X63200000Y-76000000D01*
X69200000Y-74300000D02*
X67972857Y-73072857D01*
X67972857Y-73072857D02*
X67575000Y-73072857D01*
D20*
X59250100Y-71907500D02*
X60492500Y-71907500D01*
X60492500Y-71907500D02*
X60600000Y-71800000D01*
X60600000Y-71800000D02*
X60600000Y-64788810D01*
X60600000Y-64788810D02*
X64625000Y-60763810D01*
D21*
X68636190Y-60763810D02*
X67575000Y-60763810D01*
X69300000Y-60100000D02*
X68636190Y-60763810D01*
X67575000Y-48454763D02*
X68645237Y-48454763D01*
X68645237Y-48454763D02*
X68900000Y-48200000D01*
X68900000Y-48200000D02*
X68700000Y-48000000D01*
X59250100Y-36020000D02*
X64499284Y-36020000D01*
X64499284Y-36020000D02*
X64625000Y-36145716D01*
D20*
X106400000Y-57600000D02*
X107400000Y-57600000D01*
D21*
X85711790Y-63711790D02*
X64888210Y-63711790D01*
X160430000Y-98170000D02*
X159030000Y-96770000D01*
X128900000Y-52500000D02*
X129000000Y-52600000D01*
X146400000Y-67200000D02*
X141600000Y-62400000D01*
X160430000Y-106770000D02*
X160430000Y-98170000D01*
X123200000Y-115000000D02*
X127310000Y-115000000D01*
X83691790Y-66251790D02*
X65451790Y-66251790D01*
X126755000Y-109845000D02*
X127200000Y-109400000D01*
X131400000Y-87800000D02*
X133625000Y-85575000D01*
X131670000Y-80820000D02*
X133625000Y-82775000D01*
X127000000Y-86480000D02*
X127000000Y-85600000D01*
X59812500Y-76987500D02*
X59250100Y-76987500D01*
X121185000Y-83000000D02*
X127360000Y-83000000D01*
X129600000Y-57600000D02*
X132490000Y-54710000D01*
X159030000Y-96770000D02*
X155020000Y-96770000D01*
X126755000Y-111070000D02*
X126755000Y-109845000D01*
D20*
X59250100Y-41127500D02*
X59872500Y-41127500D01*
D21*
X150870000Y-107730000D02*
X159470000Y-107730000D01*
X88380000Y-70940000D02*
X83691790Y-66251790D01*
X127090000Y-80820000D02*
X131670000Y-80820000D01*
X115000000Y-71600000D02*
X105200000Y-61800000D01*
D20*
X59296884Y-103200000D02*
X59270100Y-103173216D01*
D21*
X128300000Y-84390000D02*
X129150000Y-84390000D01*
X87225000Y-54775000D02*
X89650000Y-57200000D01*
X154395000Y-58395000D02*
X152900000Y-56900000D01*
X143250000Y-47250000D02*
X128505000Y-47250000D01*
D20*
X59250100Y-94787500D02*
X59250100Y-95450100D01*
D21*
X66455352Y-53944648D02*
X66510704Y-54000000D01*
X104600000Y-64800000D02*
X107720000Y-67920000D01*
X160260000Y-64860000D02*
X154390000Y-64860000D01*
X155020000Y-67060000D02*
X154880000Y-67200000D01*
X99750000Y-67060000D02*
X89060000Y-67060000D01*
X132200000Y-119200000D02*
X115780000Y-119200000D01*
X127650000Y-86480000D02*
X127000000Y-86480000D01*
X107400000Y-57600000D02*
X129600000Y-57600000D01*
X138800000Y-83600000D02*
X138800000Y-84800000D01*
X100040000Y-64800000D02*
X104600000Y-64800000D01*
X156770000Y-100370000D02*
X156800000Y-100400000D01*
X67002600Y-75600000D02*
X79600000Y-75600000D01*
X154880000Y-67200000D02*
X146400000Y-67200000D01*
X65000000Y-54000000D02*
X59800000Y-59200000D01*
X163300000Y-63500000D02*
X163300000Y-63100000D01*
X90190704Y-54200000D02*
X87395352Y-51404648D01*
X163300000Y-63100000D02*
X137600000Y-37400000D01*
X163600000Y-67600000D02*
X159600000Y-71600000D01*
X165200000Y-93200000D02*
X165200000Y-111800000D01*
X104600000Y-63200000D02*
X115800000Y-74400000D01*
X59250100Y-83352500D02*
X67002600Y-75600000D01*
X128505000Y-79160000D02*
X134360000Y-79160000D01*
X126980000Y-53620000D02*
X126980000Y-52500000D01*
X111800000Y-99000000D02*
X154990000Y-99000000D01*
X154395000Y-95110000D02*
X100875000Y-95110000D01*
X127360000Y-83000000D02*
X127380000Y-83020000D01*
D20*
X59872500Y-41127500D02*
X60600000Y-40400000D01*
D21*
X152900000Y-56900000D02*
X143250000Y-47250000D01*
X61400000Y-73600000D02*
X60552500Y-74447500D01*
X127200000Y-109400000D02*
X161000000Y-109400000D01*
D20*
X61152500Y-92247500D02*
X65200000Y-88200000D01*
D21*
X89650000Y-57200000D02*
X101800000Y-57200000D01*
D20*
X128600000Y-128600000D02*
X145400000Y-111800000D01*
D21*
X61400000Y-67200000D02*
X61400000Y-73600000D01*
X165200000Y-111800000D02*
X145400000Y-111800000D01*
X161600000Y-66200000D02*
X160260000Y-64860000D01*
D20*
X55400000Y-82000000D02*
X55400000Y-84400000D01*
D21*
X99125000Y-61875000D02*
X99125000Y-63200000D01*
D20*
X81030000Y-41630000D02*
X92200000Y-52800000D01*
D21*
X105200000Y-61800000D02*
X99200000Y-61800000D01*
X73600000Y-39000000D02*
X73502494Y-39097506D01*
X99200000Y-61800000D02*
X99125000Y-61875000D01*
D20*
X70919772Y-88200000D02*
X73759886Y-85359886D01*
D21*
X120560000Y-79160000D02*
X121240000Y-79160000D01*
X114192500Y-76007500D02*
X121185000Y-83000000D01*
D20*
X58650000Y-128600000D02*
X128600000Y-128600000D01*
X59200000Y-54120000D02*
X65120000Y-48200000D01*
D21*
X131800000Y-87400000D02*
X131400000Y-87800000D01*
X121770000Y-115000000D02*
X123200000Y-115000000D01*
X127310000Y-115000000D02*
X127380000Y-114930000D01*
X161000000Y-109400000D02*
X162600000Y-107800000D01*
X82800000Y-39000000D02*
X73600000Y-39000000D01*
D20*
X65140000Y-40400000D02*
X66370000Y-41630000D01*
X60200000Y-79000000D02*
X63200000Y-76000000D01*
D21*
X63948210Y-66251790D02*
X62000000Y-68200000D01*
X160910000Y-95110000D02*
X156145000Y-95110000D01*
X104610000Y-106190000D02*
X111800000Y-99000000D01*
X129100000Y-54700000D02*
X129200000Y-54800000D01*
D20*
X60600000Y-40400000D02*
X65140000Y-40400000D01*
X58400000Y-79000000D02*
X55400000Y-82000000D01*
D21*
X66510704Y-54000000D02*
X69200000Y-54000000D01*
X100875000Y-63200000D02*
X104600000Y-63200000D01*
X138800000Y-84800000D02*
X131800000Y-91800000D01*
X128280000Y-54700000D02*
X129100000Y-54700000D01*
X107000000Y-57600000D02*
X107400000Y-57600000D01*
X64080358Y-115480358D02*
X73770006Y-115480358D01*
X59800000Y-59200000D02*
X59200000Y-59200000D01*
D20*
X65200000Y-88200000D02*
X70919772Y-88200000D01*
D21*
X87395352Y-51404648D02*
X64455352Y-51404648D01*
X160800000Y-74400000D02*
X160800000Y-87600000D01*
X134360000Y-79160000D02*
X138800000Y-83600000D01*
X85200000Y-99000000D02*
X98560000Y-99000000D01*
X62000000Y-68200000D02*
X62000000Y-74800000D01*
D20*
X101000000Y-87400000D02*
X101200000Y-87600000D01*
D21*
X156970000Y-102570000D02*
X157000000Y-102600000D01*
X161000000Y-74400000D02*
X167600000Y-67800000D01*
X105400000Y-91800000D02*
X101200000Y-87600000D01*
X154990000Y-99000000D02*
X155020000Y-98970000D01*
X141600000Y-62400000D02*
X109000000Y-62400000D01*
X82959886Y-85359886D02*
X73759886Y-85359886D01*
X114181068Y-76018932D02*
X114192500Y-76007500D01*
D20*
X92200000Y-52800000D02*
X101600000Y-52800000D01*
D21*
X86450000Y-54000000D02*
X87225000Y-54775000D01*
X60552500Y-74447500D02*
X59250100Y-74447500D01*
X126800000Y-51100000D02*
X94900000Y-51100000D01*
D20*
X66370000Y-41630000D02*
X81030000Y-41630000D01*
D21*
X128800000Y-78865000D02*
X128505000Y-79160000D01*
X160800000Y-74400000D02*
X161000000Y-74400000D01*
D20*
X59250100Y-92247500D02*
X61152500Y-92247500D01*
D21*
X160800000Y-87600000D02*
X160800000Y-88800000D01*
X162600000Y-107800000D02*
X162600000Y-96800000D01*
X121600000Y-44400000D02*
X121600000Y-44700000D01*
X115780000Y-119200000D02*
X112090000Y-115510000D01*
X64888210Y-63711790D02*
X61400000Y-67200000D01*
D20*
X60200000Y-79000000D02*
X58400000Y-79000000D01*
D21*
X163600000Y-66600000D02*
X163600000Y-67600000D01*
X85200000Y-87600000D02*
X82959886Y-85359886D01*
X85200000Y-99000000D02*
X85200000Y-87600000D01*
D20*
X98107500Y-88092500D02*
X98800000Y-87400000D01*
D21*
X161600000Y-68600000D02*
X161600000Y-66200000D01*
X162600000Y-96800000D02*
X160910000Y-95110000D01*
X167600000Y-67800000D02*
X163300000Y-63500000D01*
X115800000Y-74400000D02*
X120560000Y-79160000D01*
D20*
X101600000Y-52800000D02*
X106400000Y-57600000D01*
D21*
X132490000Y-54710000D02*
X132490000Y-50770000D01*
X114800000Y-70200000D02*
X160000000Y-70200000D01*
X107720000Y-67920000D02*
X104690000Y-70950000D01*
X126755000Y-79160000D02*
X121240000Y-79160000D01*
X160000000Y-70200000D02*
X161600000Y-68600000D01*
X159600000Y-71600000D02*
X115000000Y-71600000D01*
X62000000Y-74800000D02*
X59812500Y-76987500D01*
X73799648Y-115510000D02*
X112090000Y-115510000D01*
D20*
X56892500Y-85892500D02*
X59250100Y-85892500D01*
D21*
X89060000Y-67060000D02*
X85711790Y-63711790D01*
X69200000Y-54000000D02*
X65000000Y-54000000D01*
X69600000Y-66251790D02*
X63948210Y-66251790D01*
X121600000Y-44700000D02*
X124150000Y-47250000D01*
D20*
X99125000Y-95110000D02*
X98107500Y-94092500D01*
D21*
X79600000Y-75600000D02*
X80018932Y-76018932D01*
X126755000Y-47250000D02*
X124150000Y-47250000D01*
X133625000Y-85575000D02*
X133625000Y-82775000D01*
X127630000Y-54700000D02*
X126980000Y-54700000D01*
X128280000Y-52500000D02*
X128900000Y-52500000D01*
X73770006Y-115480358D02*
X73799648Y-115510000D01*
X160800000Y-88800000D02*
X165200000Y-93200000D01*
X80018932Y-76018932D02*
X114181068Y-76018932D01*
X127000000Y-85600000D02*
X127000000Y-84450000D01*
X126980000Y-54700000D02*
X126980000Y-53620000D01*
X160200000Y-63200000D02*
X163600000Y-66600000D01*
X128600000Y-37400000D02*
X121600000Y-44400000D01*
X104660000Y-70940000D02*
X88380000Y-70940000D01*
X88650000Y-106190000D02*
X89010000Y-106190000D01*
X137600000Y-37400000D02*
X128600000Y-37400000D01*
X89010000Y-106190000D02*
X104610000Y-106190000D01*
X139800000Y-114400000D02*
X126600000Y-127600000D01*
X132490000Y-50770000D02*
X130620000Y-48900000D01*
X139800000Y-111800000D02*
X139800000Y-114400000D01*
X130620000Y-48900000D02*
X126800000Y-48900000D01*
X126600000Y-127600000D02*
X74600000Y-127600000D01*
X69200000Y-54000000D02*
X86450000Y-54000000D01*
X139800000Y-111800000D02*
X133800000Y-111800000D01*
X132200000Y-119200000D02*
X132200000Y-112800000D01*
X159470000Y-107730000D02*
X160430000Y-106770000D01*
X131800000Y-91800000D02*
X105400000Y-91800000D01*
X132200000Y-112800000D02*
X128350000Y-112800000D01*
X100800000Y-54200000D02*
X90190704Y-54200000D01*
X101800000Y-57200000D02*
X114800000Y-70200000D01*
D20*
X98107500Y-94092500D02*
X98107500Y-88092500D01*
D21*
X154395000Y-63200000D02*
X154395000Y-58395000D01*
X94900000Y-51100000D02*
X82800000Y-39000000D01*
D20*
X55400000Y-84400000D02*
X56892500Y-85892500D01*
X98800000Y-87400000D02*
X101000000Y-87400000D01*
D21*
X73502494Y-39097506D02*
X59270100Y-39097506D01*
X133800000Y-111800000D02*
X133070000Y-111070000D01*
X109000000Y-62400000D02*
X100800000Y-54200000D01*
X128300000Y-86590000D02*
X129350000Y-86590000D01*
X156145000Y-63200000D02*
X160200000Y-63200000D01*
X64455352Y-51404648D02*
X59200000Y-56660000D01*
X133070000Y-111070000D02*
X128505000Y-111070000D01*
%TD*%
M02*
