%TF.GenerationSoftware,KiCad,Pcbnew,(6.0.8-1)-1*%
%TF.CreationDate,2023-03-30T07:53:23-04:00*%
%TF.ProjectId,Untitled,556e7469-746c-4656-942e-6b696361645f,rev?*%
%TF.SameCoordinates,Original*%
%TF.FileFunction,Copper,L2,Bot*%
%TF.FilePolarity,Positive*%
%FSLAX46Y46*%
G04 Gerber Fmt 4.6, Leading zero omitted, Abs format (unit mm)*
G04 Created by KiCad (PCBNEW (6.0.8-1)-1) date 2023-03-30 07:53:23*
%MOMM*%
%LPD*%
G01*
G04 APERTURE LIST*
%TA.AperFunction,ComponentPad*%
%ADD10R,1.397000X1.397000*%
%TD*%
%TA.AperFunction,ComponentPad*%
%ADD11C,1.397000*%
%TD*%
%TA.AperFunction,ComponentPad*%
%ADD12R,3.500000X3.500000*%
%TD*%
%TA.AperFunction,ComponentPad*%
%ADD13C,4.000000*%
%TD*%
%TA.AperFunction,ViaPad*%
%ADD14C,0.800000*%
%TD*%
%TA.AperFunction,Conductor*%
%ADD15C,0.250000*%
%TD*%
%TA.AperFunction,Conductor*%
%ADD16C,0.200000*%
%TD*%
G04 APERTURE END LIST*
D10*
%TO.P,REF\u002A\u002A,1*%
%TO.N,N/C*%
X59200000Y-59200000D03*
D11*
%TO.P,REF\u002A\u002A,2*%
X59200000Y-56660000D03*
%TO.P,REF\u002A\u002A,3*%
X59200000Y-54120000D03*
%TD*%
D12*
%TO.P,LEDs,1*%
%TO.N,N/C*%
X54200000Y-123200000D03*
D13*
%TO.P,LEDs,2*%
X59225000Y-128225000D03*
X59225000Y-118175000D03*
X49175000Y-118175000D03*
X49175000Y-128225000D03*
%TD*%
D10*
%TO.P,REF\u002A\u002A,1*%
%TO.N,N/C*%
X59250100Y-41100000D03*
D11*
%TO.P,REF\u002A\u002A,2*%
X59250100Y-38560000D03*
%TO.P,REF\u002A\u002A,3*%
X59250100Y-36020000D03*
%TD*%
D10*
%TO.P,REF\u002A\u002A,1*%
%TO.N,N/C*%
X59250100Y-76987500D03*
D11*
%TO.P,REF\u002A\u002A,2*%
X59250100Y-74447500D03*
%TO.P,REF\u002A\u002A,3*%
X59250100Y-71907500D03*
%TD*%
D10*
%TO.P,REF\u002A\u002A,1*%
%TO.N,N/C*%
X59250100Y-94787500D03*
D11*
%TO.P,REF\u002A\u002A,2*%
X59250100Y-92247500D03*
%TO.P,REF\u002A\u002A,3*%
X59250100Y-89707500D03*
%TD*%
D10*
%TO.P,REF\u002A\u002A,1*%
%TO.N,N/C*%
X59250100Y-112587500D03*
D11*
%TO.P,REF\u002A\u002A,2*%
X59250100Y-110047500D03*
%TO.P,REF\u002A\u002A,3*%
X59250100Y-107507500D03*
%TD*%
D10*
%TO.P,REF\u002A\u002A,1*%
%TO.N,N/C*%
X59250100Y-80812500D03*
D11*
%TO.P,REF\u002A\u002A,2*%
X59250100Y-83352500D03*
%TO.P,REF\u002A\u002A,3*%
X59250100Y-85892500D03*
%TD*%
D10*
%TO.P,REF\u002A\u002A,1*%
%TO.N,N/C*%
X59200000Y-45000000D03*
D11*
%TO.P,REF\u002A\u002A,2*%
X59200000Y-47540000D03*
%TO.P,REF\u002A\u002A,3*%
X59200000Y-50080000D03*
%TD*%
D10*
%TO.P,REF\u002A\u002A,1*%
%TO.N,N/C*%
X59250100Y-98612500D03*
D11*
%TO.P,REF\u002A\u002A,2*%
X59250100Y-101152500D03*
%TO.P,REF\u002A\u002A,3*%
X59250100Y-103692500D03*
%TD*%
D10*
%TO.P,REF\u002A\u002A,1*%
%TO.N,N/C*%
X59250100Y-63012500D03*
D11*
%TO.P,REF\u002A\u002A,2*%
X59250100Y-65552500D03*
%TO.P,REF\u002A\u002A,3*%
X59250100Y-68092500D03*
%TD*%
D14*
%TO.N,*%
X96500000Y-95200000D03*
X69300000Y-51200000D03*
X130900000Y-110900000D03*
X78170000Y-41630000D03*
X77740114Y-85359886D03*
X69200000Y-54000000D03*
X123800000Y-51100000D03*
X78500000Y-54000000D03*
X124700000Y-78900000D03*
X130500000Y-47200000D03*
X125100000Y-108500000D03*
X123700000Y-115600000D03*
X158500000Y-62800000D03*
X67800000Y-118500000D03*
X127000000Y-56600000D03*
X123700000Y-83500000D03*
X67500000Y-44000000D03*
X78200000Y-39000000D03*
X65500000Y-117600000D03*
X103000000Y-63200000D03*
X158500000Y-94700000D03*
X67400000Y-90300000D03*
X65500000Y-45100000D03*
X67300000Y-41500000D03*
X151200000Y-99100000D03*
X97800000Y-62400000D03*
X77790000Y-115510000D03*
X155200000Y-101900000D03*
X69100000Y-86300000D03*
X96000000Y-67300000D03*
X77969648Y-112830352D03*
X77800000Y-90000000D03*
X152100000Y-63100000D03*
X103000000Y-94500000D03*
X69200000Y-74300000D03*
X78348210Y-66251790D03*
X69600000Y-66251790D03*
X77700000Y-75600000D03*
X78000000Y-109200000D03*
X67700000Y-116400000D03*
X69400000Y-36100000D03*
X127600000Y-118300000D03*
X77800000Y-127600000D03*
X78300000Y-52900000D03*
X77541068Y-78558932D03*
X99800000Y-102500000D03*
X99700000Y-70400000D03*
X69300000Y-60100000D03*
X127300000Y-86300000D03*
X67800000Y-103300000D03*
X77850000Y-104050000D03*
X124400000Y-47000000D03*
X151400000Y-67300000D03*
X78288210Y-63711790D03*
X95600000Y-99000000D03*
X68400000Y-77800000D03*
X68900000Y-107700000D03*
X67600000Y-46200000D03*
X154900000Y-70100000D03*
X77700000Y-128600000D03*
X130700000Y-78900000D03*
X150600000Y-95000000D03*
X69200000Y-112500000D03*
X69300000Y-97800000D03*
%TD*%
D15*
%TO.N,*%
X123700000Y-83500000D02*
X123200000Y-83000000D01*
X121185000Y-83000000D02*
X114192500Y-76007500D01*
X123200000Y-83000000D02*
X121185000Y-83000000D01*
X124700000Y-78900000D02*
X124440000Y-79160000D01*
X124440000Y-79160000D02*
X120560000Y-79160000D01*
X120560000Y-79160000D02*
X104600000Y-63200000D01*
X104600000Y-63200000D02*
X103000000Y-63200000D01*
D16*
X99800000Y-102500000D02*
X98500000Y-103800000D01*
X98500000Y-103800000D02*
X81400000Y-103800000D01*
X81400000Y-103800000D02*
X81200000Y-103600000D01*
D15*
X77541068Y-78558932D02*
X109641068Y-78558932D01*
X109641068Y-78558932D02*
X109700000Y-78500000D01*
X127300000Y-86300000D02*
X128700000Y-87700000D01*
X128700000Y-87700000D02*
X118900000Y-87700000D01*
X118900000Y-87700000D02*
X109695000Y-78495000D01*
X109695000Y-78495000D02*
X109505000Y-78495000D01*
X102600000Y-89000000D02*
X98500000Y-89000000D01*
D16*
X96500000Y-95200000D02*
X98500000Y-93200000D01*
X98500000Y-93200000D02*
X98500000Y-89000000D01*
D15*
X130700000Y-78900000D02*
X130960000Y-79160000D01*
X130960000Y-79160000D02*
X134360000Y-79160000D01*
X134360000Y-79160000D02*
X138800000Y-83600000D01*
X138800000Y-83600000D02*
X138800000Y-84800000D01*
X138800000Y-84800000D02*
X131800000Y-91800000D01*
X131800000Y-91800000D02*
X105400000Y-91800000D01*
X105400000Y-91800000D02*
X102600000Y-89000000D01*
X125100000Y-108500000D02*
X125600000Y-108000000D01*
X162600000Y-107800000D02*
X162600000Y-96800000D01*
X160910000Y-95110000D02*
X158910000Y-95110000D01*
X125600000Y-108000000D02*
X162400000Y-108000000D01*
X162400000Y-108000000D02*
X162600000Y-107800000D01*
X162600000Y-96800000D02*
X160910000Y-95110000D01*
X158910000Y-95110000D02*
X158500000Y-94700000D01*
X150600000Y-95000000D02*
X150490000Y-95110000D01*
X150490000Y-95110000D02*
X103610000Y-95110000D01*
X103610000Y-95110000D02*
X103000000Y-94500000D01*
X151200000Y-99100000D02*
X151100000Y-99000000D01*
X151100000Y-99000000D02*
X111800000Y-99000000D01*
X111800000Y-99000000D02*
X104610000Y-106190000D01*
X104610000Y-106190000D02*
X89010000Y-106190000D01*
X95600000Y-99000000D02*
X85200000Y-99000000D01*
X85200000Y-99000000D02*
X85200000Y-87600000D01*
X85200000Y-87600000D02*
X82959886Y-85359886D01*
X82959886Y-85359886D02*
X77740114Y-85359886D01*
X131070000Y-111070000D02*
X133070000Y-111070000D01*
X130900000Y-110900000D02*
X131070000Y-111070000D01*
X133070000Y-111070000D02*
X133800000Y-111800000D01*
X133800000Y-111800000D02*
X139800000Y-111800000D01*
X126600000Y-127600000D02*
X77800000Y-127600000D01*
X139800000Y-111800000D02*
X139800000Y-114400000D01*
X139800000Y-114400000D02*
X126600000Y-127600000D01*
D16*
X152300000Y-106300000D02*
X155200000Y-103400000D01*
X155200000Y-103400000D02*
X155200000Y-101900000D01*
X78000000Y-109200000D02*
X107800000Y-109200000D01*
X107800000Y-109200000D02*
X114600000Y-102400000D01*
X114600000Y-102400000D02*
X148400000Y-102400000D01*
X148400000Y-102400000D02*
X152300000Y-106300000D01*
D15*
X123100000Y-115000000D02*
X114200000Y-115000000D01*
X123700000Y-115600000D02*
X123100000Y-115000000D01*
X112030352Y-112830352D02*
X77969648Y-112830352D01*
X114200000Y-115000000D02*
X112030352Y-112830352D01*
X112090000Y-115510000D02*
X77790000Y-115510000D01*
X127600000Y-118300000D02*
X126700000Y-119200000D01*
X126700000Y-119200000D02*
X115780000Y-119200000D01*
X115780000Y-119200000D02*
X112090000Y-115510000D01*
X163600000Y-66600000D02*
X159800000Y-62800000D01*
X159800000Y-62800000D02*
X158500000Y-62800000D01*
X97800000Y-62400000D02*
X97800000Y-61900000D01*
X97800000Y-61900000D02*
X97900000Y-61800000D01*
X97900000Y-61800000D02*
X105200000Y-61800000D01*
X105200000Y-61800000D02*
X115000000Y-71600000D01*
X115000000Y-71600000D02*
X159600000Y-71600000D01*
X159600000Y-71600000D02*
X163600000Y-67600000D01*
X163600000Y-67600000D02*
X163600000Y-66600000D01*
X95760000Y-67060000D02*
X89060000Y-67060000D01*
X96000000Y-67300000D02*
X95760000Y-67060000D01*
X89060000Y-67060000D02*
X85711790Y-63711790D01*
X85711790Y-63711790D02*
X78288210Y-63711790D01*
X87840000Y-70400000D02*
X99700000Y-70400000D01*
X87840000Y-70400000D02*
X83691790Y-66251790D01*
X83691790Y-66251790D02*
X78348210Y-66251790D01*
X127000000Y-56600000D02*
X126000000Y-57600000D01*
X126000000Y-57600000D02*
X107400000Y-57600000D01*
X89650000Y-57200000D02*
X86450000Y-54000000D01*
X86450000Y-54000000D02*
X78500000Y-54000000D01*
X114800000Y-70200000D02*
X101800000Y-57200000D01*
X154900000Y-70100000D02*
X154800000Y-70200000D01*
X154800000Y-70200000D02*
X114800000Y-70200000D01*
X101800000Y-57200000D02*
X89650000Y-57200000D01*
X151400000Y-67300000D02*
X151300000Y-67200000D01*
X146400000Y-67200000D02*
X141600000Y-62400000D01*
X151300000Y-67200000D02*
X146400000Y-67200000D01*
X141600000Y-62400000D02*
X109000000Y-62400000D01*
X109000000Y-62400000D02*
X100800000Y-54200000D01*
X100800000Y-54200000D02*
X90190704Y-54200000D01*
X90190704Y-54200000D02*
X88890704Y-52900000D01*
X88890704Y-52900000D02*
X78300000Y-52900000D01*
X152100000Y-63100000D02*
X148400000Y-59400000D01*
X148400000Y-59400000D02*
X148400000Y-56700000D01*
X143250000Y-47250000D02*
X130550000Y-47250000D01*
X130550000Y-47250000D02*
X130500000Y-47200000D01*
X150550000Y-54550000D02*
X143250000Y-47250000D01*
X148400000Y-56700000D02*
X150550000Y-54550000D01*
X94900000Y-51100000D02*
X82800000Y-39000000D01*
X123800000Y-51100000D02*
X94900000Y-51100000D01*
X82800000Y-39000000D02*
X78200000Y-39000000D01*
X128600000Y-37400000D02*
X137600000Y-37400000D01*
X137600000Y-37400000D02*
X163300000Y-63100000D01*
X163300000Y-63100000D02*
X163300000Y-63500000D01*
X123900000Y-47000000D02*
X121600000Y-44700000D01*
X124400000Y-47000000D02*
X123900000Y-47000000D01*
X121600000Y-44700000D02*
X121600000Y-44400000D01*
X121600000Y-44400000D02*
X128600000Y-37400000D01*
X163300000Y-63500000D02*
X167600000Y-67800000D01*
X167600000Y-67800000D02*
X161000000Y-74400000D01*
X161000000Y-74400000D02*
X160800000Y-74400000D01*
X160800000Y-74400000D02*
X160800000Y-88800000D01*
X160800000Y-88800000D02*
X165200000Y-93200000D01*
X165200000Y-93200000D02*
X165200000Y-111800000D01*
X165200000Y-111800000D02*
X145400000Y-111800000D01*
D16*
X63140000Y-43600000D02*
X59200000Y-47540000D01*
D15*
X69900000Y-111800000D02*
X69900000Y-108700000D01*
D16*
X68400000Y-43500000D02*
X68400000Y-46100000D01*
X106400000Y-57600000D02*
X107400000Y-57600000D01*
D15*
X71400000Y-64451790D02*
X69600000Y-66251790D01*
X69900000Y-108700000D02*
X68900000Y-107700000D01*
D16*
X57092500Y-68092500D02*
X59250100Y-68092500D01*
D15*
X69300000Y-53900000D02*
X69200000Y-54000000D01*
D16*
X59250100Y-68092500D02*
X59250100Y-71907500D01*
D15*
X68400000Y-77800000D02*
X69200000Y-77000000D01*
D16*
X52200000Y-38890000D02*
X52245000Y-38845000D01*
D15*
X69300000Y-60100000D02*
X71400000Y-62200000D01*
X77700000Y-75600000D02*
X79600000Y-75600000D01*
D16*
X59250100Y-107507500D02*
X49175000Y-117582600D01*
X62900000Y-71742400D02*
X62900000Y-117100000D01*
X61600000Y-42600000D02*
X59200000Y-45000000D01*
X59250100Y-68092500D02*
X62900000Y-71742400D01*
X54600000Y-58720000D02*
X54600000Y-65600000D01*
D15*
X69200000Y-112500000D02*
X69900000Y-111800000D01*
D16*
X81200000Y-93400000D02*
X81200000Y-103600000D01*
X62900000Y-117100000D02*
X63400000Y-117600000D01*
X62997600Y-69300000D02*
X59250100Y-65552500D01*
D15*
X67300000Y-40500000D02*
X69600000Y-38200000D01*
D16*
X128600000Y-128600000D02*
X145400000Y-111800000D01*
D15*
X59250100Y-85892500D02*
X59250100Y-89707500D01*
D16*
X71200000Y-72500000D02*
X61712500Y-63012500D01*
X81030000Y-41630000D02*
X92200000Y-52800000D01*
D15*
X59250100Y-85892500D02*
X56092500Y-85892500D01*
X56092500Y-85892500D02*
X51600000Y-81400000D01*
X69600000Y-36300000D02*
X69400000Y-36100000D01*
X67400000Y-90300000D02*
X67400000Y-88000000D01*
X69900000Y-101200000D02*
X69900000Y-98400000D01*
D16*
X62187500Y-42012500D02*
X66912500Y-42012500D01*
D15*
X51600000Y-79557600D02*
X59250100Y-71907500D01*
D16*
X67700000Y-116400000D02*
X63400000Y-112100000D01*
X77700000Y-128600000D02*
X128600000Y-128600000D01*
X59200000Y-54120000D02*
X54600000Y-58720000D01*
D15*
X52800000Y-94000000D02*
X52800000Y-97242400D01*
X67800000Y-103300000D02*
X69900000Y-101200000D01*
D16*
X77800000Y-90000000D02*
X81200000Y-93400000D01*
X63400000Y-112100000D02*
X63400000Y-69300000D01*
X68300000Y-46200000D02*
X68400000Y-46100000D01*
X71200000Y-115100000D02*
X71200000Y-72500000D01*
D15*
X79990000Y-106190000D02*
X77850000Y-104050000D01*
X71400000Y-62200000D02*
X71400000Y-64451790D01*
D16*
X66912500Y-42012500D02*
X68400000Y-43500000D01*
X61787500Y-42412500D02*
X61600000Y-42600000D01*
X59200000Y-50080000D02*
X56280000Y-50080000D01*
D15*
X57092500Y-89707500D02*
X52800000Y-94000000D01*
D16*
X61587500Y-63012500D02*
X60987500Y-63012500D01*
X92200000Y-52800000D02*
X101600000Y-52800000D01*
D15*
X67400000Y-88000000D02*
X69100000Y-86300000D01*
D16*
X64710000Y-45890000D02*
X63390000Y-45890000D01*
X60987500Y-63012500D02*
X59250100Y-63012500D01*
D15*
X59250100Y-89707500D02*
X57092500Y-89707500D01*
D16*
X59200000Y-50080000D02*
X63390000Y-45890000D01*
X54600000Y-65600000D02*
X57092500Y-68092500D01*
D15*
X89010000Y-106190000D02*
X79990000Y-106190000D01*
D16*
X56280000Y-50080000D02*
X52200000Y-46000000D01*
X101600000Y-52800000D02*
X106400000Y-57600000D01*
D15*
X52245000Y-38845000D02*
X54532494Y-36557506D01*
D16*
X59250100Y-103692500D02*
X59250100Y-107507500D01*
D15*
X67300000Y-41500000D02*
X67300000Y-40500000D01*
D16*
X63400000Y-117600000D02*
X65500000Y-117600000D01*
X61600000Y-42600000D02*
X62187500Y-42012500D01*
D15*
X69200000Y-77000000D02*
X69200000Y-74300000D01*
X79600000Y-75600000D02*
X80018932Y-76018932D01*
X54532494Y-36557506D02*
X59270100Y-36557506D01*
D16*
X65500000Y-45100000D02*
X64710000Y-45890000D01*
X63400000Y-69300000D02*
X62997600Y-69300000D01*
D15*
X80018932Y-76018932D02*
X114181068Y-76018932D01*
D16*
X52200000Y-46000000D02*
X52200000Y-38890000D01*
D15*
X52800000Y-97242400D02*
X59250100Y-103692500D01*
X51600000Y-81400000D02*
X51600000Y-79557600D01*
D16*
X67600000Y-46200000D02*
X68300000Y-46200000D01*
X63390000Y-45890000D02*
X63480000Y-45800000D01*
X61712500Y-63012500D02*
X60987500Y-63012500D01*
X67100000Y-43600000D02*
X63140000Y-43600000D01*
D15*
X88650000Y-106190000D02*
X89010000Y-106190000D01*
D16*
X67800000Y-118500000D02*
X71200000Y-115100000D01*
X49175000Y-117582600D02*
X49175000Y-118175000D01*
D15*
X69600000Y-38200000D02*
X69600000Y-36300000D01*
D16*
X67500000Y-44000000D02*
X67100000Y-43600000D01*
D15*
X69900000Y-98400000D02*
X69300000Y-97800000D01*
X69300000Y-51200000D02*
X69300000Y-53900000D01*
D16*
X78170000Y-41630000D02*
X81030000Y-41630000D01*
X59647500Y-65552500D02*
X59250100Y-65552500D01*
X59200000Y-54120000D02*
X59200000Y-50080000D01*
%TD*%
M02*
