%TF.GenerationSoftware,KiCad,Pcbnew,(6.0.8-1)-1*%
%TF.CreationDate,2022-11-08T16:38:45-05:00*%
%TF.ProjectId,Untitled,556e7469-746c-4656-942e-6b696361645f,rev?*%
%TF.SameCoordinates,Original*%
%TF.FileFunction,Paste,Top*%
%TF.FilePolarity,Positive*%
%FSLAX46Y46*%
G04 Gerber Fmt 4.6, Leading zero omitted, Abs format (unit mm)*
G04 Created by KiCad (PCBNEW (6.0.8-1)-1) date 2022-11-08 16:38:45*
%MOMM*%
%LPD*%
G01*
G04 APERTURE LIST*
G04 Aperture macros list*
%AMRoundRect*
0 Rectangle with rounded corners*
0 $1 Rounding radius*
0 $2 $3 $4 $5 $6 $7 $8 $9 X,Y pos of 4 corners*
0 Add a 4 corners polygon primitive as box body*
4,1,4,$2,$3,$4,$5,$6,$7,$8,$9,$2,$3,0*
0 Add four circle primitives for the rounded corners*
1,1,$1+$1,$2,$3*
1,1,$1+$1,$4,$5*
1,1,$1+$1,$6,$7*
1,1,$1+$1,$8,$9*
0 Add four rect primitives between the rounded corners*
20,1,$1+$1,$2,$3,$4,$5,0*
20,1,$1+$1,$4,$5,$6,$7,0*
20,1,$1+$1,$6,$7,$8,$9,0*
20,1,$1+$1,$8,$9,$2,$3,0*%
G04 Aperture macros list end*
%ADD10R,4.300000X1.100000*%
%ADD11RoundRect,0.250000X-0.325000X-1.100000X0.325000X-1.100000X0.325000X1.100000X-0.325000X1.100000X0*%
%ADD12RoundRect,0.087500X-0.087500X-0.337500X0.087500X-0.337500X0.087500X0.337500X-0.087500X0.337500X0*%
%ADD13RoundRect,0.135000X-0.135000X-0.185000X0.135000X-0.185000X0.135000X0.185000X-0.135000X0.185000X0*%
%ADD14RoundRect,0.237500X-0.287500X-0.237500X0.287500X-0.237500X0.287500X0.237500X-0.287500X0.237500X0*%
G04 APERTURE END LIST*
D10*
%TO.C,REF\u002A\u002A*%
X127380000Y-80820000D03*
X127380000Y-83020000D03*
%TD*%
%TO.C,REF\u002A\u002A*%
X127380000Y-48910000D03*
X127380000Y-51110000D03*
%TD*%
%TO.C,REF\u002A\u002A*%
X155020000Y-96770000D03*
X155020000Y-98970000D03*
%TD*%
%TO.C,REF\u002A\u002A*%
X99750000Y-96770000D03*
X99750000Y-98970000D03*
%TD*%
%TO.C,REF\u002A\u002A*%
X127380000Y-112730000D03*
X127380000Y-114930000D03*
%TD*%
%TO.C,REF\u002A\u002A*%
X155020000Y-64860000D03*
X155020000Y-67060000D03*
%TD*%
%TO.C,REF\u002A\u002A*%
X99750000Y-64860000D03*
X99750000Y-67060000D03*
%TD*%
D11*
%TO.C,REF\u002A\u002A*%
X67575000Y-110000000D03*
X64625000Y-110000000D03*
%TD*%
D12*
%TO.C,REF\u002A\u002A*%
X126980000Y-86610000D03*
X127630000Y-86610000D03*
X128280000Y-86610000D03*
X128280000Y-84410000D03*
X126980000Y-84410000D03*
%TD*%
D13*
%TO.C,REF\u002A\u002A*%
X64390000Y-125200000D03*
X65410000Y-125200000D03*
%TD*%
D12*
%TO.C,REF\u002A\u002A*%
X126980000Y-54700000D03*
X127630000Y-54700000D03*
X128280000Y-54700000D03*
X128280000Y-52500000D03*
X126980000Y-52500000D03*
%TD*%
D11*
%TO.C,REF\u002A\u002A*%
X67575000Y-36145716D03*
X64625000Y-36145716D03*
%TD*%
D14*
%TO.C,REF\u002A\u002A*%
X99125000Y-95110000D03*
X100875000Y-95110000D03*
%TD*%
D11*
%TO.C,REF\u002A\u002A*%
X64625000Y-73072857D03*
X67575000Y-73072857D03*
%TD*%
D14*
%TO.C,REF\u002A\u002A*%
X154395000Y-95110000D03*
X156145000Y-95110000D03*
%TD*%
%TO.C,REF\u002A\u002A*%
X154395000Y-63200000D03*
X156145000Y-63200000D03*
%TD*%
D11*
%TO.C,REF\u002A\u002A*%
X64625000Y-60763810D03*
X67575000Y-60763810D03*
%TD*%
%TO.C,REF\u002A\u002A*%
X64625000Y-48454763D03*
X67575000Y-48454763D03*
%TD*%
D14*
%TO.C,REF\u002A\u002A*%
X126755000Y-111070000D03*
X128505000Y-111070000D03*
%TD*%
%TO.C,REF\u002A\u002A*%
X126755000Y-47250000D03*
X128505000Y-47250000D03*
%TD*%
D11*
%TO.C,REF\u002A\u002A*%
X64625000Y-85381904D03*
X67575000Y-85381904D03*
%TD*%
D14*
%TO.C,REF\u002A\u002A*%
X126755000Y-79160000D03*
X128505000Y-79160000D03*
%TD*%
D11*
%TO.C,REF\u002A\u002A*%
X64625000Y-97690951D03*
X67575000Y-97690951D03*
%TD*%
D14*
%TO.C,REF\u002A\u002A*%
X99125000Y-63200000D03*
X100875000Y-63200000D03*
%TD*%
M02*
