%TF.GenerationSoftware,KiCad,Pcbnew,(6.0.8-1)-1*%
%TF.CreationDate,2022-11-16T14:14:46-05:00*%
%TF.ProjectId,Untitled,556e7469-746c-4656-942e-6b696361645f,rev?*%
%TF.SameCoordinates,Original*%
%TF.FileFunction,Copper,L2,Bot*%
%TF.FilePolarity,Positive*%
%FSLAX46Y46*%
G04 Gerber Fmt 4.6, Leading zero omitted, Abs format (unit mm)*
G04 Created by KiCad (PCBNEW (6.0.8-1)-1) date 2022-11-16 14:14:46*
%MOMM*%
%LPD*%
G01*
G04 APERTURE LIST*
%TA.AperFunction,ComponentPad*%
%ADD10R,1.397000X1.397000*%
%TD*%
%TA.AperFunction,ComponentPad*%
%ADD11C,1.397000*%
%TD*%
%TA.AperFunction,ComponentPad*%
%ADD12R,3.500000X3.500000*%
%TD*%
%TA.AperFunction,ComponentPad*%
%ADD13C,4.000000*%
%TD*%
%TA.AperFunction,ViaPad*%
%ADD14C,0.800000*%
%TD*%
%TA.AperFunction,Conductor*%
%ADD15C,0.250000*%
%TD*%
%TA.AperFunction,Conductor*%
%ADD16C,0.200000*%
%TD*%
G04 APERTURE END LIST*
D10*
%TO.P,REF\u002A\u002A,1*%
%TO.N,N/C*%
X59200000Y-59200000D03*
D11*
%TO.P,REF\u002A\u002A,2*%
X59200000Y-56660000D03*
%TO.P,REF\u002A\u002A,3*%
X59200000Y-54120000D03*
%TD*%
D12*
%TO.P,REF\u002A\u002A,1*%
%TO.N,N/C*%
X54200000Y-123200000D03*
D13*
%TO.P,REF\u002A\u002A,2*%
X59225000Y-128225000D03*
X59225000Y-118175000D03*
X49175000Y-118175000D03*
X49175000Y-128225000D03*
%TD*%
D10*
%TO.P,REF\u002A\u002A,1*%
%TO.N,N/C*%
X59250100Y-41100000D03*
D11*
%TO.P,REF\u002A\u002A,2*%
X59250100Y-38560000D03*
%TO.P,REF\u002A\u002A,3*%
X59250100Y-36020000D03*
%TD*%
D10*
%TO.P,REF\u002A\u002A,1*%
%TO.N,N/C*%
X59250100Y-76987500D03*
D11*
%TO.P,REF\u002A\u002A,2*%
X59250100Y-74447500D03*
%TO.P,REF\u002A\u002A,3*%
X59250100Y-71907500D03*
%TD*%
D10*
%TO.P,REF\u002A\u002A,1*%
%TO.N,N/C*%
X59250100Y-94787500D03*
D11*
%TO.P,REF\u002A\u002A,2*%
X59250100Y-92247500D03*
%TO.P,REF\u002A\u002A,3*%
X59250100Y-89707500D03*
%TD*%
D10*
%TO.P,REF\u002A\u002A,1*%
%TO.N,N/C*%
X59250100Y-112587500D03*
D11*
%TO.P,REF\u002A\u002A,2*%
X59250100Y-110047500D03*
%TO.P,REF\u002A\u002A,3*%
X59250100Y-107507500D03*
%TD*%
D10*
%TO.P,REF\u002A\u002A,1*%
%TO.N,N/C*%
X59250100Y-80812500D03*
D11*
%TO.P,REF\u002A\u002A,2*%
X59250100Y-83352500D03*
%TO.P,REF\u002A\u002A,3*%
X59250100Y-85892500D03*
%TD*%
D10*
%TO.P,REF\u002A\u002A,1*%
%TO.N,N/C*%
X59200000Y-45000000D03*
D11*
%TO.P,REF\u002A\u002A,2*%
X59200000Y-47540000D03*
%TO.P,REF\u002A\u002A,3*%
X59200000Y-50080000D03*
%TD*%
D10*
%TO.P,REF\u002A\u002A,1*%
%TO.N,N/C*%
X59250100Y-98612500D03*
D11*
%TO.P,REF\u002A\u002A,2*%
X59250100Y-101152500D03*
%TO.P,REF\u002A\u002A,3*%
X59250100Y-103692500D03*
%TD*%
D10*
%TO.P,REF\u002A\u002A,1*%
%TO.N,N/C*%
X59250100Y-63012500D03*
D11*
%TO.P,REF\u002A\u002A,2*%
X59250100Y-65552500D03*
%TO.P,REF\u002A\u002A,3*%
X59250100Y-68092500D03*
%TD*%
D14*
%TO.N,*%
X68900000Y-48200000D03*
X69200000Y-54000000D03*
X126980000Y-53620000D03*
X129380000Y-86620000D03*
X67400000Y-90300000D03*
X67300000Y-41500000D03*
X69100000Y-86300000D03*
X129200000Y-54800000D03*
X129180000Y-84420000D03*
X127000000Y-85600000D03*
X69200000Y-74300000D03*
X69600000Y-66251790D03*
X69400000Y-36100000D03*
X69300000Y-60100000D03*
X67800000Y-103300000D03*
X68400000Y-77800000D03*
X69500000Y-110700000D03*
X129000000Y-52600000D03*
X69400000Y-115510000D03*
X69300000Y-97800000D03*
%TD*%
D15*
%TO.N,*%
X126980000Y-53620000D02*
X126960000Y-53600000D01*
X71400000Y-64451790D02*
X69600000Y-66251790D01*
X72800000Y-47200000D02*
X70200000Y-44600000D01*
X70142600Y-57200000D02*
X59250100Y-68092500D01*
X74600000Y-47200000D02*
X72800000Y-47200000D01*
D16*
X57092500Y-68092500D02*
X59250100Y-68092500D01*
D15*
X70200000Y-45800000D02*
X64400000Y-45800000D01*
D16*
X61587500Y-63012500D02*
X59250100Y-63012500D01*
D15*
X71800000Y-51100000D02*
X71800000Y-51400000D01*
X126960000Y-53600000D02*
X125600000Y-53600000D01*
D16*
X72000000Y-53200000D02*
X59647500Y-65552500D01*
X59250100Y-68092500D02*
X59250100Y-71907500D01*
D15*
X68400000Y-77800000D02*
X69200000Y-77000000D01*
D16*
X52200000Y-38890000D02*
X52245000Y-38845000D01*
D15*
X69300000Y-60100000D02*
X71400000Y-62200000D01*
D16*
X68300000Y-43200000D02*
X70100000Y-41400000D01*
X65012500Y-42012500D02*
X66300000Y-43300000D01*
X59250100Y-107507500D02*
X49175000Y-117582600D01*
X61600000Y-42600000D02*
X59200000Y-45000000D01*
X73800000Y-53200000D02*
X72000000Y-53200000D01*
X66400000Y-43200000D02*
X68300000Y-43200000D01*
X54600000Y-58720000D02*
X54600000Y-65600000D01*
D15*
X68900000Y-48200000D02*
X71800000Y-51100000D01*
X67300000Y-40500000D02*
X69600000Y-38200000D01*
X99500000Y-86300000D02*
X70400000Y-57200000D01*
X129020000Y-84420000D02*
X127000000Y-82400000D01*
X59250100Y-85892500D02*
X59250100Y-89707500D01*
D16*
X131600000Y-41400000D02*
X135800000Y-45600000D01*
D15*
X59250100Y-85892500D02*
X56092500Y-85892500D01*
D16*
X70152500Y-44552500D02*
X70200000Y-44600000D01*
D15*
X56092500Y-85892500D02*
X51600000Y-81400000D01*
X69600000Y-36300000D02*
X69400000Y-36100000D01*
D16*
X133400000Y-86600000D02*
X133400000Y-86400000D01*
D15*
X67400000Y-90300000D02*
X67400000Y-88000000D01*
X69900000Y-101200000D02*
X69900000Y-98400000D01*
D16*
X70100000Y-41400000D02*
X131600000Y-41400000D01*
D15*
X70400000Y-57200000D02*
X70142600Y-57200000D01*
X99500000Y-86300000D02*
X126300000Y-86300000D01*
X51600000Y-79557600D02*
X59250100Y-71907500D01*
D16*
X75800000Y-55200000D02*
X73800000Y-53200000D01*
X75800000Y-58000000D02*
X75800000Y-55200000D01*
X59200000Y-54120000D02*
X54600000Y-58720000D01*
D15*
X52800000Y-94000000D02*
X52800000Y-97242400D01*
D16*
X128200000Y-81200000D02*
X106000000Y-81200000D01*
D15*
X71800000Y-51400000D02*
X69200000Y-54000000D01*
D16*
X70000000Y-54600000D02*
X61587500Y-63012500D01*
D15*
X69500000Y-110700000D02*
X69900000Y-111100000D01*
D16*
X66300000Y-43300000D02*
X66400000Y-43200000D01*
D15*
X67800000Y-103300000D02*
X69900000Y-101200000D01*
X132000000Y-45600000D02*
X130000000Y-43600000D01*
D16*
X135800000Y-45600000D02*
X135800000Y-51400000D01*
D15*
X126300000Y-86300000D02*
X127000000Y-85600000D01*
D16*
X63480000Y-45800000D02*
X64400000Y-45800000D01*
D15*
X71400000Y-62200000D02*
X71400000Y-64451790D01*
D16*
X61787500Y-42412500D02*
X61600000Y-42600000D01*
X59200000Y-50080000D02*
X56280000Y-50080000D01*
D15*
X57092500Y-89707500D02*
X52800000Y-94000000D01*
D16*
X61600000Y-42600000D02*
X62187500Y-42012500D01*
D15*
X125600000Y-53600000D02*
X122500000Y-56700000D01*
X69900000Y-115010000D02*
X69400000Y-115510000D01*
X67400000Y-88000000D02*
X69100000Y-86300000D01*
D16*
X77000000Y-55200000D02*
X73600000Y-51800000D01*
X79800000Y-57600000D02*
X77400000Y-55200000D01*
D15*
X59250100Y-89707500D02*
X57092500Y-89707500D01*
D16*
X54600000Y-65600000D02*
X57092500Y-68092500D01*
D15*
X79077466Y-54677466D02*
X70200000Y-45800000D01*
X78200000Y-43600000D02*
X74600000Y-47200000D01*
D16*
X62752500Y-44552500D02*
X70152500Y-44552500D01*
D15*
X129000000Y-52600000D02*
X130400000Y-52600000D01*
D16*
X56280000Y-50080000D02*
X52200000Y-46000000D01*
X59200000Y-47540000D02*
X62187500Y-44552500D01*
D15*
X52245000Y-38845000D02*
X54532494Y-36557506D01*
D16*
X59250100Y-103692500D02*
X59250100Y-107507500D01*
X135800000Y-51400000D02*
X132400000Y-54800000D01*
D15*
X67300000Y-41500000D02*
X67300000Y-40500000D01*
D16*
X133400000Y-86400000D02*
X128200000Y-81200000D01*
X70000000Y-54600000D02*
X69600000Y-55000000D01*
D15*
X129180000Y-84420000D02*
X129020000Y-84420000D01*
D16*
X100200000Y-82400000D02*
X75800000Y-58000000D01*
X62187500Y-44552500D02*
X62752500Y-44552500D01*
D15*
X130000000Y-43600000D02*
X78200000Y-43600000D01*
X69200000Y-77000000D02*
X69200000Y-74300000D01*
D16*
X77400000Y-55200000D02*
X77000000Y-55200000D01*
X127000000Y-82400000D02*
X100200000Y-82400000D01*
D15*
X54532494Y-36557506D02*
X59270100Y-36557506D01*
D16*
X59200000Y-50080000D02*
X63480000Y-45800000D01*
X62187500Y-42012500D02*
X65012500Y-42012500D01*
X52200000Y-46000000D02*
X52200000Y-38890000D01*
X132400000Y-54800000D02*
X129200000Y-54800000D01*
X133380000Y-86620000D02*
X133400000Y-86600000D01*
D15*
X52800000Y-97242400D02*
X59250100Y-103692500D01*
D16*
X82400000Y-57600000D02*
X79800000Y-57600000D01*
X106000000Y-81200000D02*
X82400000Y-57600000D01*
D15*
X51600000Y-81400000D02*
X51600000Y-79557600D01*
X130400000Y-52600000D02*
X132000000Y-51000000D01*
X132000000Y-51000000D02*
X132000000Y-45600000D01*
X120477466Y-54677466D02*
X79077466Y-54677466D01*
D16*
X49175000Y-117582600D02*
X49175000Y-118175000D01*
X129380000Y-86620000D02*
X133380000Y-86620000D01*
D15*
X122500000Y-56700000D02*
X120477466Y-54677466D01*
D16*
X73600000Y-51800000D02*
X72800000Y-51800000D01*
D15*
X69600000Y-38200000D02*
X69600000Y-36300000D01*
D16*
X72800000Y-51800000D02*
X70000000Y-54600000D01*
D15*
X69900000Y-111100000D02*
X69900000Y-115010000D01*
X69900000Y-98400000D02*
X69300000Y-97800000D01*
X64400000Y-45800000D02*
X64000000Y-45800000D01*
D16*
X59647500Y-65552500D02*
X59250100Y-65552500D01*
X59200000Y-54120000D02*
X59200000Y-50080000D01*
%TD*%
M02*
