%TF.GenerationSoftware,KiCad,Pcbnew,(6.0.8-1)-1*%
%TF.CreationDate,2023-03-28T15:47:02-04:00*%
%TF.ProjectId,Untitled,556e7469-746c-4656-942e-6b696361645f,rev?*%
%TF.SameCoordinates,Original*%
%TF.FileFunction,Copper,L1,Top*%
%TF.FilePolarity,Positive*%
%FSLAX46Y46*%
G04 Gerber Fmt 4.6, Leading zero omitted, Abs format (unit mm)*
G04 Created by KiCad (PCBNEW (6.0.8-1)-1) date 2023-03-28 15:47:02*
%MOMM*%
%LPD*%
G01*
G04 APERTURE LIST*
G04 Aperture macros list*
%AMRoundRect*
0 Rectangle with rounded corners*
0 $1 Rounding radius*
0 $2 $3 $4 $5 $6 $7 $8 $9 X,Y pos of 4 corners*
0 Add a 4 corners polygon primitive as box body*
4,1,4,$2,$3,$4,$5,$6,$7,$8,$9,$2,$3,0*
0 Add four circle primitives for the rounded corners*
1,1,$1+$1,$2,$3*
1,1,$1+$1,$4,$5*
1,1,$1+$1,$6,$7*
1,1,$1+$1,$8,$9*
0 Add four rect primitives between the rounded corners*
20,1,$1+$1,$2,$3,$4,$5,0*
20,1,$1+$1,$4,$5,$6,$7,0*
20,1,$1+$1,$6,$7,$8,$9,0*
20,1,$1+$1,$8,$9,$2,$3,0*%
G04 Aperture macros list end*
%TA.AperFunction,SMDPad,CuDef*%
%ADD10R,0.700000X0.700000*%
%TD*%
%TA.AperFunction,SMDPad,CuDef*%
%ADD11RoundRect,0.250000X-0.325000X-1.100000X0.325000X-1.100000X0.325000X1.100000X-0.325000X1.100000X0*%
%TD*%
%TA.AperFunction,SMDPad,CuDef*%
%ADD12RoundRect,0.087500X-0.087500X-0.337500X0.087500X-0.337500X0.087500X0.337500X-0.087500X0.337500X0*%
%TD*%
%TA.AperFunction,SMDPad,CuDef*%
%ADD13RoundRect,0.250000X-0.312500X-0.625000X0.312500X-0.625000X0.312500X0.625000X-0.312500X0.625000X0*%
%TD*%
%TA.AperFunction,ComponentPad*%
%ADD14R,1.397000X1.397000*%
%TD*%
%TA.AperFunction,ComponentPad*%
%ADD15C,1.397000*%
%TD*%
%TA.AperFunction,SMDPad,CuDef*%
%ADD16RoundRect,0.237500X-0.287500X-0.237500X0.287500X-0.237500X0.287500X0.237500X-0.287500X0.237500X0*%
%TD*%
%TA.AperFunction,ComponentPad*%
%ADD17R,3.500000X3.500000*%
%TD*%
%TA.AperFunction,ComponentPad*%
%ADD18C,4.000000*%
%TD*%
%TA.AperFunction,ViaPad*%
%ADD19C,0.800000*%
%TD*%
%TA.AperFunction,Conductor*%
%ADD20C,0.250000*%
%TD*%
%TA.AperFunction,Conductor*%
%ADD21C,0.200000*%
%TD*%
G04 APERTURE END LIST*
D10*
%TO.P,REF\u002A\u002A,1*%
%TO.N,N/C*%
X128382500Y-81370000D03*
%TO.P,REF\u002A\u002A,2*%
X126357500Y-81370000D03*
%TO.P,REF\u002A\u002A,3*%
X126357500Y-82420000D03*
%TO.P,REF\u002A\u002A,4*%
X128382500Y-82470000D03*
%TD*%
%TO.P,REF\u002A\u002A,1*%
%TO.N,N/C*%
X100752500Y-97320000D03*
%TO.P,REF\u002A\u002A,2*%
X98727500Y-97320000D03*
%TO.P,REF\u002A\u002A,3*%
X98727500Y-98370000D03*
%TO.P,REF\u002A\u002A,4*%
X100752500Y-98420000D03*
%TD*%
%TO.P,REF\u002A\u002A,1*%
%TO.N,N/C*%
X128382500Y-49460000D03*
%TO.P,REF\u002A\u002A,2*%
X126357500Y-49460000D03*
%TO.P,REF\u002A\u002A,3*%
X126357500Y-50510000D03*
%TO.P,REF\u002A\u002A,4*%
X128382500Y-50560000D03*
%TD*%
%TO.P,REF\u002A\u002A,1*%
%TO.N,N/C*%
X156022500Y-97320000D03*
%TO.P,REF\u002A\u002A,2*%
X153997500Y-97320000D03*
%TO.P,REF\u002A\u002A,3*%
X153997500Y-98370000D03*
%TO.P,REF\u002A\u002A,4*%
X156022500Y-98420000D03*
%TD*%
%TO.P,REF\u002A\u002A,1*%
%TO.N,N/C*%
X128382500Y-113280000D03*
%TO.P,REF\u002A\u002A,2*%
X126357500Y-113280000D03*
%TO.P,REF\u002A\u002A,3*%
X126357500Y-114330000D03*
%TO.P,REF\u002A\u002A,4*%
X128382500Y-114380000D03*
%TD*%
%TO.P,REF\u002A\u002A,1*%
%TO.N,N/C*%
X156022500Y-65410000D03*
%TO.P,REF\u002A\u002A,2*%
X153997500Y-65410000D03*
%TO.P,REF\u002A\u002A,3*%
X153997500Y-66460000D03*
%TO.P,REF\u002A\u002A,4*%
X156022500Y-66510000D03*
%TD*%
%TO.P,REF\u002A\u002A,1*%
%TO.N,N/C*%
X100752500Y-65410000D03*
%TO.P,REF\u002A\u002A,2*%
X98727500Y-65410000D03*
%TO.P,REF\u002A\u002A,3*%
X98727500Y-66460000D03*
%TO.P,REF\u002A\u002A,4*%
X100752500Y-66510000D03*
%TD*%
D11*
%TO.P,10 nF,1*%
%TO.N,N/C*%
X64525000Y-107600000D03*
%TO.P,10 nF,2*%
X67475000Y-107600000D03*
%TD*%
D12*
%TO.P,Temp2,1*%
%TO.N,N/C*%
X65450000Y-118600000D03*
%TO.P,Temp2,2*%
X66100000Y-118600000D03*
%TO.P,Temp2,3*%
X66750000Y-118600000D03*
%TO.P,Temp2,4*%
X66750000Y-116400000D03*
%TO.P,Temp2,5*%
X65450000Y-116400000D03*
%TD*%
D13*
%TO.P,50 \u03A9,1*%
%TO.N,N/C*%
X64937500Y-125300000D03*
%TO.P,50 \u03A9,2*%
X67862500Y-125300000D03*
%TD*%
D12*
%TO.P,REF\u002A\u002A,1*%
%TO.N,N/C*%
X65450000Y-46200000D03*
%TO.P,REF\u002A\u002A,2*%
X66100000Y-46200000D03*
%TO.P,REF\u002A\u002A,3*%
X66750000Y-46200000D03*
%TO.P,REF\u002A\u002A,4*%
X66750000Y-44000000D03*
%TO.P,REF\u002A\u002A,5*%
X65450000Y-44000000D03*
%TD*%
D11*
%TO.P,10 nF,1*%
%TO.N,N/C*%
X64625000Y-36145716D03*
%TO.P,10 nF,2*%
X67575000Y-36145716D03*
%TD*%
D14*
%TO.P,REF\u002A\u002A,1*%
%TO.N,N/C*%
X59200000Y-59200000D03*
D15*
%TO.P,REF\u002A\u002A,2*%
X59200000Y-56660000D03*
%TO.P,REF\u002A\u002A,3*%
X59200000Y-54120000D03*
%TD*%
D16*
%TO.P,REF\u002A\u002A,1*%
%TO.N,N/C*%
X99125000Y-95110000D03*
%TO.P,REF\u002A\u002A,2*%
X100875000Y-95110000D03*
%TD*%
D17*
%TO.P,LEDs,1*%
%TO.N,N/C*%
X54200000Y-123200000D03*
D18*
%TO.P,LEDs,2*%
X59225000Y-128225000D03*
X59225000Y-118175000D03*
X49175000Y-118175000D03*
X49175000Y-128225000D03*
%TD*%
D11*
%TO.P,10 nF,1*%
%TO.N,N/C*%
X64625000Y-73072857D03*
%TO.P,10 nF,2*%
X67575000Y-73072857D03*
%TD*%
D14*
%TO.P,REF\u002A\u002A,1*%
%TO.N,N/C*%
X59250100Y-41100000D03*
D15*
%TO.P,REF\u002A\u002A,2*%
X59250100Y-38560000D03*
%TO.P,REF\u002A\u002A,3*%
X59250100Y-36020000D03*
%TD*%
D14*
%TO.P,REF\u002A\u002A,1*%
%TO.N,N/C*%
X59250100Y-76987500D03*
D15*
%TO.P,REF\u002A\u002A,2*%
X59250100Y-74447500D03*
%TO.P,REF\u002A\u002A,3*%
X59250100Y-71907500D03*
%TD*%
D16*
%TO.P,REF\u002A\u002A,1*%
%TO.N,N/C*%
X154395000Y-95110000D03*
%TO.P,REF\u002A\u002A,2*%
X156145000Y-95110000D03*
%TD*%
%TO.P,REF\u002A\u002A,1*%
%TO.N,N/C*%
X154395000Y-63200000D03*
%TO.P,REF\u002A\u002A,2*%
X156145000Y-63200000D03*
%TD*%
D11*
%TO.P,10 nF,1*%
%TO.N,N/C*%
X64625000Y-60763810D03*
%TO.P,10 nF,2*%
X67575000Y-60763810D03*
%TD*%
%TO.P,10 nF,1*%
%TO.N,N/C*%
X64625000Y-50800000D03*
%TO.P,10 nF,2*%
X67575000Y-50800000D03*
%TD*%
D16*
%TO.P,REF\u002A\u002A,1*%
%TO.N,N/C*%
X126755000Y-111070000D03*
%TO.P,REF\u002A\u002A,2*%
X128505000Y-111070000D03*
%TD*%
%TO.P,REF\u002A\u002A,1*%
%TO.N,N/C*%
X126755000Y-47250000D03*
%TO.P,REF\u002A\u002A,2*%
X128505000Y-47250000D03*
%TD*%
D11*
%TO.P,10 nF,1*%
%TO.N,N/C*%
X64625000Y-85381904D03*
%TO.P,10 nF,2*%
X67575000Y-85381904D03*
%TD*%
D14*
%TO.P,REF\u002A\u002A,1*%
%TO.N,N/C*%
X59250100Y-94787500D03*
D15*
%TO.P,REF\u002A\u002A,2*%
X59250100Y-92247500D03*
%TO.P,REF\u002A\u002A,3*%
X59250100Y-89707500D03*
%TD*%
D16*
%TO.P,REF\u002A\u002A,1*%
%TO.N,N/C*%
X126755000Y-79160000D03*
%TO.P,REF\u002A\u002A,2*%
X128505000Y-79160000D03*
%TD*%
D14*
%TO.P,REF\u002A\u002A,1*%
%TO.N,N/C*%
X59250100Y-112587500D03*
D15*
%TO.P,REF\u002A\u002A,2*%
X59250100Y-110047500D03*
%TO.P,REF\u002A\u002A,3*%
X59250100Y-107507500D03*
%TD*%
D11*
%TO.P,10 nF,1*%
%TO.N,N/C*%
X64625000Y-97690951D03*
%TO.P,10 nF,2*%
X67575000Y-97690951D03*
%TD*%
D16*
%TO.P,REF\u002A\u002A,1*%
%TO.N,N/C*%
X99125000Y-63200000D03*
%TO.P,REF\u002A\u002A,2*%
X100875000Y-63200000D03*
%TD*%
D14*
%TO.P,REF\u002A\u002A,1*%
%TO.N,N/C*%
X59250100Y-80812500D03*
D15*
%TO.P,REF\u002A\u002A,2*%
X59250100Y-83352500D03*
%TO.P,REF\u002A\u002A,3*%
X59250100Y-85892500D03*
%TD*%
D14*
%TO.P,REF\u002A\u002A,1*%
%TO.N,N/C*%
X59200000Y-45000000D03*
D15*
%TO.P,REF\u002A\u002A,2*%
X59200000Y-47540000D03*
%TO.P,REF\u002A\u002A,3*%
X59200000Y-50080000D03*
%TD*%
D14*
%TO.P,REF\u002A\u002A,1*%
%TO.N,N/C*%
X59250100Y-98612500D03*
D15*
%TO.P,REF\u002A\u002A,2*%
X59250100Y-101152500D03*
%TO.P,REF\u002A\u002A,3*%
X59250100Y-103692500D03*
%TD*%
D14*
%TO.P,REF\u002A\u002A,1*%
%TO.N,N/C*%
X59250100Y-63012500D03*
D15*
%TO.P,REF\u002A\u002A,2*%
X59250100Y-65552500D03*
%TO.P,REF\u002A\u002A,3*%
X59250100Y-68092500D03*
%TD*%
D19*
%TO.N,*%
X97990000Y-95110000D03*
X69300000Y-51200000D03*
X129730000Y-111070000D03*
X78170000Y-41630000D03*
X77740114Y-85359886D03*
X69200000Y-54000000D03*
X124800000Y-51100000D03*
X78500000Y-54000000D03*
X125640000Y-79160000D03*
X129750000Y-47250000D03*
X125600000Y-111000000D03*
X124800000Y-115000000D03*
X157500000Y-63200000D03*
X67800000Y-118500000D03*
X130000000Y-48900000D03*
X124800000Y-83000000D03*
X67500000Y-44000000D03*
X78200000Y-39000000D03*
X65500000Y-117600000D03*
X102200000Y-63200000D03*
X157290000Y-95110000D03*
X67400000Y-90300000D03*
X65500000Y-45100000D03*
X67300000Y-41500000D03*
X152400000Y-99000000D03*
X97800000Y-63200000D03*
X77790000Y-115510000D03*
X157630000Y-96770000D03*
X69100000Y-86300000D03*
X97140000Y-67060000D03*
X77969648Y-112830352D03*
X77800000Y-90000000D03*
X153300000Y-63200000D03*
X102090000Y-95110000D03*
X69200000Y-74300000D03*
X78348210Y-66251790D03*
X69600000Y-66251790D03*
X77700000Y-75600000D03*
X78000000Y-109200000D03*
X67700000Y-116400000D03*
X69400000Y-36100000D03*
X130000000Y-112800000D03*
X77800000Y-127600000D03*
X78300000Y-52900000D03*
X77541068Y-78558932D03*
X102330000Y-96770000D03*
X102400000Y-64800000D03*
X69300000Y-60100000D03*
X130080000Y-80820000D03*
X67800000Y-103300000D03*
X77850000Y-104050000D03*
X125650000Y-47250000D03*
X152400000Y-67200000D03*
X78288210Y-63711790D03*
X97200000Y-99000000D03*
X68400000Y-77800000D03*
X68900000Y-107700000D03*
X67600000Y-46200000D03*
X157640000Y-64860000D03*
X77700000Y-128600000D03*
X129840000Y-79160000D03*
X153290000Y-95110000D03*
X69200000Y-112500000D03*
X69300000Y-97800000D03*
%TD*%
D20*
%TO.N,*%
X124800000Y-115000000D02*
X126745000Y-115000000D01*
X126745000Y-115000000D02*
X127365000Y-114380000D01*
X127365000Y-114380000D02*
X127380000Y-114395000D01*
X130000000Y-112800000D02*
X127845000Y-112800000D01*
X127845000Y-112800000D02*
X127365000Y-113280000D01*
X152400000Y-99000000D02*
X154425000Y-99000000D01*
X154425000Y-99000000D02*
X155005000Y-98420000D01*
X155005000Y-98420000D02*
X155020000Y-98435000D01*
X157630000Y-96770000D02*
X155555000Y-96770000D01*
X155555000Y-96770000D02*
X155005000Y-97320000D01*
X157640000Y-64860000D02*
X155555000Y-64860000D01*
X155555000Y-64860000D02*
X155005000Y-65410000D01*
X155005000Y-66510000D02*
X154315000Y-67200000D01*
X154315000Y-67200000D02*
X152400000Y-67200000D01*
X127365000Y-50560000D02*
X126825000Y-51100000D01*
X126825000Y-51100000D02*
X124800000Y-51100000D01*
X130000000Y-48900000D02*
X127925000Y-48900000D01*
X127925000Y-48900000D02*
X127365000Y-49460000D01*
X127365000Y-81370000D02*
X127915000Y-80820000D01*
X127915000Y-80820000D02*
X130080000Y-80820000D01*
X124800000Y-83000000D02*
X126835000Y-83000000D01*
X126835000Y-83000000D02*
X127365000Y-82470000D01*
X127365000Y-82470000D02*
X127380000Y-82485000D01*
X99735000Y-66510000D02*
X99185000Y-67060000D01*
X99185000Y-67060000D02*
X97140000Y-67060000D01*
X99735000Y-65410000D02*
X100345000Y-64800000D01*
X100345000Y-64800000D02*
X102400000Y-64800000D01*
D21*
X102330000Y-96770000D02*
X100285000Y-96770000D01*
X100285000Y-96770000D02*
X99735000Y-97320000D01*
D20*
X97200000Y-99000000D02*
X99155000Y-99000000D01*
X99155000Y-99000000D02*
X99735000Y-98420000D01*
D21*
X70800000Y-112500000D02*
X73800000Y-115500000D01*
X60492500Y-71907500D02*
X60600000Y-71800000D01*
D20*
X68636190Y-60763810D02*
X67575000Y-60763810D01*
X70877148Y-110047500D02*
X59250100Y-110047500D01*
D21*
X66750000Y-116400000D02*
X67700000Y-116400000D01*
X62012500Y-94787500D02*
X59250100Y-94787500D01*
D20*
X57600000Y-84200000D02*
X57600000Y-81400000D01*
D21*
X77000000Y-89200000D02*
X77800000Y-90000000D01*
D20*
X59812500Y-76987500D02*
X59250100Y-76987500D01*
D21*
X57692500Y-103692500D02*
X56400000Y-102400000D01*
X59250100Y-41127500D02*
X59872500Y-41127500D01*
D20*
X68400000Y-77800000D02*
X69158932Y-78558932D01*
D21*
X59296884Y-103200000D02*
X59270100Y-103173216D01*
D20*
X78200000Y-39000000D02*
X73600000Y-39000000D01*
X64499284Y-36020000D02*
X64625000Y-36145716D01*
D21*
X66750000Y-118600000D02*
X67700000Y-118600000D01*
D20*
X69300000Y-60100000D02*
X68636190Y-60763810D01*
D21*
X67575000Y-107700000D02*
X67475000Y-107600000D01*
X59250100Y-94787500D02*
X59250100Y-95450100D01*
X65450000Y-117550000D02*
X65500000Y-117600000D01*
X56400000Y-98800000D02*
X58400000Y-96800000D01*
X60387500Y-112587500D02*
X60475000Y-112500000D01*
X62400000Y-103200000D02*
X61600000Y-102400000D01*
D20*
X70847500Y-101152500D02*
X59250100Y-101152500D01*
X67975000Y-51200000D02*
X67575000Y-50800000D01*
D21*
X65450000Y-118600000D02*
X66100000Y-118600000D01*
D20*
X67002600Y-75600000D02*
X77700000Y-75600000D01*
D21*
X99125000Y-95110000D02*
X97990000Y-95110000D01*
D20*
X78348210Y-66251790D02*
X65451790Y-66251790D01*
X67972857Y-73072857D02*
X67575000Y-73072857D01*
D21*
X67400000Y-90300000D02*
X66500000Y-90300000D01*
D20*
X78300000Y-52900000D02*
X67000000Y-52900000D01*
X59250100Y-83352500D02*
X67002600Y-75600000D01*
X128505000Y-79160000D02*
X129840000Y-79160000D01*
D21*
X57600000Y-102200000D02*
X57600000Y-99800000D01*
X81200000Y-103600000D02*
X81400000Y-103800000D01*
D20*
X154395000Y-95110000D02*
X153290000Y-95110000D01*
D21*
X57600000Y-99800000D02*
X58787500Y-98612500D01*
X59872500Y-41127500D02*
X60600000Y-40400000D01*
D20*
X61400000Y-73600000D02*
X60552500Y-74447500D01*
D21*
X61152500Y-92247500D02*
X65200000Y-88200000D01*
D20*
X129730000Y-111070000D02*
X128505000Y-111070000D01*
X61400000Y-67200000D02*
X61400000Y-73600000D01*
X57600000Y-81400000D02*
X58187500Y-80812500D01*
D21*
X55400000Y-82000000D02*
X55400000Y-84400000D01*
D20*
X73600000Y-39000000D02*
X73502494Y-39097506D01*
X64625000Y-73072857D02*
X63200000Y-74497857D01*
X67862500Y-125300000D02*
X67962500Y-125200000D01*
X71600000Y-100400000D02*
X70847500Y-101152500D01*
D21*
X70919772Y-88200000D02*
X73759886Y-85359886D01*
X61600000Y-102400000D02*
X57800000Y-102400000D01*
X60600000Y-71800000D02*
X60600000Y-64788810D01*
D20*
X69158932Y-78558932D02*
X77541068Y-78558932D01*
D21*
X58650000Y-128600000D02*
X77700000Y-128600000D01*
D20*
X77740114Y-85359886D02*
X73759886Y-85359886D01*
X59250100Y-36020000D02*
X64499284Y-36020000D01*
X154395000Y-63200000D02*
X153300000Y-63200000D01*
D21*
X68500000Y-89200000D02*
X77000000Y-89200000D01*
D20*
X157290000Y-95110000D02*
X156145000Y-95110000D01*
D21*
X65140000Y-40400000D02*
X66370000Y-41630000D01*
D20*
X67000000Y-52900000D02*
X63240000Y-56660000D01*
D21*
X61200000Y-97400000D02*
X64334049Y-97400000D01*
X60200000Y-79000000D02*
X63200000Y-76000000D01*
X67700000Y-103200000D02*
X62400000Y-103200000D01*
D20*
X63948210Y-66251790D02*
X62000000Y-68200000D01*
D21*
X67800000Y-103300000D02*
X71000000Y-106500000D01*
X101000000Y-87400000D02*
X101200000Y-87600000D01*
X62837500Y-123200000D02*
X64837500Y-125200000D01*
D20*
X67575000Y-36145716D02*
X69354284Y-36145716D01*
D21*
X60600000Y-40400000D02*
X65140000Y-40400000D01*
X58400000Y-79000000D02*
X55400000Y-82000000D01*
X67700000Y-118600000D02*
X67800000Y-118500000D01*
D20*
X100875000Y-63200000D02*
X102200000Y-63200000D01*
D21*
X62520000Y-50800000D02*
X64625000Y-50800000D01*
X65500000Y-44050000D02*
X65450000Y-44000000D01*
X59250100Y-71907500D02*
X60492500Y-71907500D01*
X60475000Y-112500000D02*
X70800000Y-112500000D01*
X65200000Y-88200000D02*
X70919772Y-88200000D01*
X67800000Y-103300000D02*
X67700000Y-103200000D01*
X64432500Y-107507500D02*
X64525000Y-107600000D01*
D20*
X78288210Y-63711790D02*
X64888210Y-63711790D01*
D21*
X58400000Y-96800000D02*
X60600000Y-96800000D01*
D20*
X68181904Y-85381904D02*
X67575000Y-85381904D01*
X126685000Y-111000000D02*
X126755000Y-111070000D01*
X69200000Y-54000000D02*
X67900000Y-54000000D01*
D21*
X67400000Y-90300000D02*
X68500000Y-89200000D01*
D20*
X62000000Y-68200000D02*
X62000000Y-74800000D01*
X73799648Y-115510000D02*
X77790000Y-115510000D01*
X63200000Y-74497857D02*
X63200000Y-76000000D01*
X114181068Y-76018932D02*
X114192500Y-76007500D01*
X77850000Y-104050000D02*
X74700000Y-100900000D01*
D21*
X57800000Y-102400000D02*
X57600000Y-102200000D01*
D20*
X60552500Y-74447500D02*
X59250100Y-74447500D01*
D21*
X66370000Y-41630000D02*
X78170000Y-41630000D01*
D20*
X128800000Y-78865000D02*
X128505000Y-79160000D01*
D21*
X56400000Y-102400000D02*
X56400000Y-98800000D01*
X59250100Y-92247500D02*
X61152500Y-92247500D01*
D20*
X69300000Y-51200000D02*
X67975000Y-51200000D01*
X125600000Y-111000000D02*
X126685000Y-111000000D01*
D21*
X66750000Y-44000000D02*
X67500000Y-44000000D01*
D20*
X67962500Y-125200000D02*
X72200000Y-125200000D01*
D21*
X58787500Y-98612500D02*
X59250100Y-98612500D01*
D20*
X64888210Y-63711790D02*
X61400000Y-67200000D01*
D21*
X60200000Y-79000000D02*
X58400000Y-79000000D01*
D20*
X72200000Y-125200000D02*
X74600000Y-127600000D01*
D21*
X61407500Y-107507500D02*
X64432500Y-107507500D01*
D20*
X67342600Y-77800000D02*
X60471300Y-84671300D01*
X69100000Y-86300000D02*
X68181904Y-85381904D01*
D21*
X64334049Y-97400000D02*
X64722619Y-97788570D01*
D20*
X77969648Y-112830352D02*
X73660000Y-112830352D01*
D21*
X65500000Y-117600000D02*
X65500000Y-118550000D01*
D20*
X63240000Y-56660000D02*
X59200000Y-56660000D01*
X126755000Y-79160000D02*
X125640000Y-79160000D01*
X60299404Y-89707500D02*
X64570716Y-85436188D01*
D21*
X65500000Y-46150000D02*
X65450000Y-46200000D01*
D20*
X62000000Y-74800000D02*
X59812500Y-76987500D01*
D21*
X65500000Y-118550000D02*
X65450000Y-118600000D01*
D20*
X67592621Y-97673330D02*
X67575000Y-97690951D01*
D21*
X56892500Y-85892500D02*
X59250100Y-85892500D01*
D20*
X74600000Y-127600000D02*
X77800000Y-127600000D01*
X69200000Y-74300000D02*
X67972857Y-73072857D01*
D21*
X97990000Y-95110000D02*
X97810000Y-95110000D01*
D20*
X109441068Y-78558932D02*
X109505000Y-78495000D01*
X58071300Y-84671300D02*
X57600000Y-84200000D01*
X69600000Y-66251790D02*
X63948210Y-66251790D01*
X69354284Y-36145716D02*
X69400000Y-36100000D01*
X102090000Y-95110000D02*
X100875000Y-95110000D01*
D21*
X59250100Y-112587500D02*
X60387500Y-112587500D01*
D20*
X126755000Y-47250000D02*
X125650000Y-47250000D01*
X129750000Y-47250000D02*
X128505000Y-47250000D01*
D21*
X73600000Y-109200000D02*
X78000000Y-109200000D01*
D20*
X69173330Y-97673330D02*
X67592621Y-97673330D01*
D21*
X65450000Y-46200000D02*
X66100000Y-46200000D01*
D20*
X74700000Y-100900000D02*
X74700000Y-100400000D01*
X99125000Y-63200000D02*
X97800000Y-63200000D01*
D21*
X65500000Y-45100000D02*
X65500000Y-46150000D01*
X59200000Y-54120000D02*
X62520000Y-50800000D01*
X60600000Y-64788810D02*
X64625000Y-60763810D01*
D20*
X73660000Y-112830352D02*
X70877148Y-110047500D01*
D21*
X59250100Y-103692500D02*
X57692500Y-103692500D01*
D20*
X74700000Y-100400000D02*
X71600000Y-100400000D01*
D21*
X66750000Y-46200000D02*
X67600000Y-46200000D01*
X65450000Y-116400000D02*
X65450000Y-117550000D01*
D20*
X62700000Y-59200000D02*
X59200000Y-59200000D01*
D21*
X59250100Y-107507500D02*
X61407500Y-107507500D01*
X65500000Y-45100000D02*
X65500000Y-44050000D01*
X68900000Y-107700000D02*
X67575000Y-107700000D01*
D20*
X69200000Y-54000000D02*
X78500000Y-54000000D01*
D21*
X71000000Y-106600000D02*
X73600000Y-109200000D01*
D20*
X59250100Y-89707500D02*
X60299404Y-89707500D01*
X68400000Y-77800000D02*
X67342600Y-77800000D01*
D21*
X71000000Y-106500000D02*
X71000000Y-106600000D01*
D20*
X67900000Y-54000000D02*
X62700000Y-59200000D01*
X69300000Y-97800000D02*
X69173330Y-97673330D01*
X58187500Y-80812500D02*
X59250100Y-80812500D01*
D21*
X55400000Y-84400000D02*
X56892500Y-85892500D01*
X66500000Y-90300000D02*
X62012500Y-94787500D01*
X54200000Y-123200000D02*
X62837500Y-123200000D01*
D20*
X73502494Y-39097506D02*
X59270100Y-39097506D01*
D21*
X60600000Y-96800000D02*
X61200000Y-97400000D01*
D20*
X156145000Y-63200000D02*
X157500000Y-63200000D01*
X60471300Y-84671300D02*
X58071300Y-84671300D01*
%TD*%
M02*
