M48
; DRILL file {KiCad (6.0.8-1)-1} date Thursday, March 30, 2023 at 07:53:21 AM
; FORMAT={-:-/ absolute / inch / decimal}
; #@! TF.CreationDate,2023-03-30T07:53:21-04:00
; #@! TF.GenerationSoftware,Kicad,Pcbnew,(6.0.8-1)-1
; #@! TF.FileFunction,Plated,1,2,PTH
FMAT,2
INCH
; #@! TA.AperFunction,Plated,PTH,ViaDrill
T1C0.0157
; #@! TA.AperFunction,Plated,PTH,ComponentDrill
T2C0.0350
; #@! TA.AperFunction,Plated,PTH,ComponentDrill
T3C0.0433
; #@! TA.AperFunction,Plated,PTH,ComponentDrill
T4C0.0591
%
G90
G05
T1
X2.5787Y-1.7756
X2.5787Y-4.6299
X2.6496Y-1.6339
X2.6535Y-3.5551
X2.6575Y-1.7323
X2.6614Y-1.8189
X2.6654Y-4.5827
X2.6693Y-4.0669
X2.6693Y-4.6654
X2.6929Y-3.063
X2.7126Y-4.2402
X2.7205Y-3.3976
X2.7244Y-2.126
X2.7244Y-2.9252
X2.7244Y-4.4291
X2.7283Y-2.0157
X2.7283Y-2.3661
X2.7283Y-3.8504
X2.7323Y-1.4213
X2.7402Y-2.6083
X3.0528Y-3.0929
X3.0591Y-2.9764
X3.0591Y-5.063
X3.0606Y-3.3606
X3.0626Y-4.5476
X3.063Y-3.5433
X3.063Y-5.0236
X3.065Y-4.0965
X3.0697Y-4.4421
X3.0709Y-4.2992
X3.0776Y-1.639
X3.0787Y-1.5354
X3.0822Y-2.5083
X3.0827Y-2.0827
X3.0846Y-2.6083
X3.0906Y-2.126
X3.7638Y-3.8976
X3.7795Y-2.6496
X3.7992Y-3.748
X3.8504Y-2.4567
X3.9252Y-2.7717
X3.9291Y-4.0354
X4.0551Y-2.4882
X4.0551Y-3.7205
X4.8701Y-3.2874
X4.8701Y-4.5512
X4.874Y-2.0118
X4.8976Y-1.8504
X4.9094Y-3.1063
X4.9252Y-4.2717
X5.0Y-2.2283
X5.0118Y-3.3976
X5.0236Y-4.6575
X5.1378Y-1.8583
X5.1457Y-3.1063
X5.1535Y-4.3661
X5.9291Y-3.7402
X5.9528Y-3.9016
X5.9606Y-2.6496
X5.9882Y-2.4843
X6.0984Y-2.7598
X6.1102Y-4.0118
X6.2402Y-2.4724
X6.2402Y-3.7283
T2
X2.3307Y-1.7717
X2.3307Y-1.8717
X2.3307Y-1.9717
X2.3307Y-2.1307
X2.3307Y-2.2307
X2.3307Y-2.3307
X2.3327Y-1.4181
X2.3327Y-1.5181
X2.3327Y-1.6181
X2.3327Y-2.4808
X2.3327Y-2.5808
X2.3327Y-2.6808
X2.3327Y-2.831
X2.3327Y-2.931
X2.3327Y-3.031
X2.3327Y-3.1816
X2.3327Y-3.2816
X2.3327Y-3.3816
X2.3327Y-3.5318
X2.3327Y-3.6318
X2.3327Y-3.7318
X2.3327Y-3.8824
X2.3327Y-3.9824
X2.3327Y-4.0824
X2.3327Y-4.2326
X2.3327Y-4.3326
X2.3327Y-4.4326
T3
X2.1339Y-4.8504
T4
X1.936Y-4.6526
X1.936Y-5.0482
X2.3317Y-4.6526
X2.3317Y-5.0482
T0
M30
