M48
; DRILL file {KiCad (6.0.8-1)-1} date Tuesday, November 08, 2022 at 04:38:44 PM
; FORMAT={-:-/ absolute / inch / decimal}
; #@! TF.CreationDate,2022-11-08T16:38:44-05:00
; #@! TF.GenerationSoftware,Kicad,Pcbnew,(6.0.8-1)-1
; #@! TF.FileFunction,Plated,1,2,PTH
FMAT,2
INCH
; #@! TA.AperFunction,Plated,PTH,ViaDrill
T1C0.0157
; #@! TA.AperFunction,Plated,PTH,ComponentDrill
T2C0.0350
; #@! TA.AperFunction,Plated,PTH,ComponentDrill
T3C0.0433
; #@! TA.AperFunction,Plated,PTH,ComponentDrill
T4C0.0591
%
G90
G05
T1
X2.6496Y-1.6339
X2.6535Y-3.5551
X2.6693Y-4.0669
X2.6929Y-3.063
X2.7126Y-1.8976
X2.7205Y-3.3976
X2.7244Y-2.126
X2.7244Y-2.9252
X2.7283Y-2.3661
X2.7283Y-3.8504
X2.7323Y-1.4213
X2.7323Y-4.5476
X2.7362Y-4.3583
X2.7402Y-2.6083
X4.9992Y-2.111
X5.0Y-3.3701
X5.0787Y-2.0709
X5.0858Y-3.3236
X5.0866Y-2.1575
X5.0937Y-3.4102
T2
X2.3307Y-1.7717
X2.3307Y-1.8717
X2.3307Y-1.9717
X2.3307Y-2.1307
X2.3307Y-2.2307
X2.3307Y-2.3307
X2.3327Y-1.4181
X2.3327Y-1.5181
X2.3327Y-1.6181
X2.3327Y-2.4808
X2.3327Y-2.5808
X2.3327Y-2.6808
X2.3327Y-2.831
X2.3327Y-2.931
X2.3327Y-3.031
X2.3327Y-3.1816
X2.3327Y-3.2816
X2.3327Y-3.3816
X2.3327Y-3.5318
X2.3327Y-3.6318
X2.3327Y-3.7318
X2.3327Y-3.8824
X2.3327Y-3.9824
X2.3327Y-4.0824
X2.3327Y-4.2326
X2.3327Y-4.3326
X2.3327Y-4.4326
T3
X2.1339Y-4.8504
T4
X1.936Y-4.6526
X1.936Y-5.0482
X2.3317Y-4.6526
X2.3317Y-5.0482
T0
M30
