%TF.GenerationSoftware,KiCad,Pcbnew,(6.0.8-1)-1*%
%TF.CreationDate,2023-06-07T12:10:07-04:00*%
%TF.ProjectId,Ecal2.5x2.5cm,4563616c-322e-4357-9832-2e35636d2e6b,rev?*%
%TF.SameCoordinates,Original*%
%TF.FileFunction,Drillmap*%
%TF.FilePolarity,Positive*%
%FSLAX45Y45*%
G04 Gerber Fmt 4.5, Leading zero omitted, Abs format (unit mm)*
G04 Created by KiCad (PCBNEW (6.0.8-1)-1) date 2023-06-07 12:10:07*
%MOMM*%
%LPD*%
G01*
G04 APERTURE LIST*
%ADD10C,0.100000*%
%ADD11C,0.200000*%
G04 APERTURE END LIST*
D10*
X7500000Y-5000000D02*
X15000000Y-5000000D01*
X15000000Y-5000000D02*
X15000000Y-7500000D01*
X15000000Y-7500000D02*
X7500000Y-7500000D01*
X7500000Y-7500000D02*
X7500000Y-5000000D01*
D11*
X7752619Y-7815476D02*
X7752619Y-7615476D01*
X7800238Y-7615476D01*
X7828809Y-7625000D01*
X7847857Y-7644048D01*
X7857381Y-7663095D01*
X7866905Y-7701190D01*
X7866905Y-7729762D01*
X7857381Y-7767857D01*
X7847857Y-7786905D01*
X7828809Y-7805952D01*
X7800238Y-7815476D01*
X7752619Y-7815476D01*
X7952619Y-7815476D02*
X7952619Y-7682143D01*
X7952619Y-7720238D02*
X7962143Y-7701190D01*
X7971667Y-7691667D01*
X7990714Y-7682143D01*
X8009762Y-7682143D01*
X8076428Y-7815476D02*
X8076428Y-7682143D01*
X8076428Y-7615476D02*
X8066905Y-7625000D01*
X8076428Y-7634524D01*
X8085952Y-7625000D01*
X8076428Y-7615476D01*
X8076428Y-7634524D01*
X8200238Y-7815476D02*
X8181190Y-7805952D01*
X8171667Y-7786905D01*
X8171667Y-7615476D01*
X8305000Y-7815476D02*
X8285952Y-7805952D01*
X8276428Y-7786905D01*
X8276428Y-7615476D01*
X8533571Y-7815476D02*
X8533571Y-7615476D01*
X8600238Y-7758333D01*
X8666905Y-7615476D01*
X8666905Y-7815476D01*
X8847857Y-7815476D02*
X8847857Y-7710714D01*
X8838333Y-7691667D01*
X8819286Y-7682143D01*
X8781190Y-7682143D01*
X8762143Y-7691667D01*
X8847857Y-7805952D02*
X8828810Y-7815476D01*
X8781190Y-7815476D01*
X8762143Y-7805952D01*
X8752619Y-7786905D01*
X8752619Y-7767857D01*
X8762143Y-7748809D01*
X8781190Y-7739286D01*
X8828810Y-7739286D01*
X8847857Y-7729762D01*
X8943095Y-7682143D02*
X8943095Y-7882143D01*
X8943095Y-7691667D02*
X8962143Y-7682143D01*
X9000238Y-7682143D01*
X9019286Y-7691667D01*
X9028810Y-7701190D01*
X9038333Y-7720238D01*
X9038333Y-7777381D01*
X9028810Y-7796428D01*
X9019286Y-7805952D01*
X9000238Y-7815476D01*
X8962143Y-7815476D01*
X8943095Y-7805952D01*
X9124048Y-7796428D02*
X9133571Y-7805952D01*
X9124048Y-7815476D01*
X9114524Y-7805952D01*
X9124048Y-7796428D01*
X9124048Y-7815476D01*
X9124048Y-7691667D02*
X9133571Y-7701190D01*
X9124048Y-7710714D01*
X9114524Y-7701190D01*
X9124048Y-7691667D01*
X9124048Y-7710714D01*
M02*
