%TF.GenerationSoftware,KiCad,Pcbnew,(6.0.8-1)-1*%
%TF.CreationDate,2022-12-29T16:22:46-05:00*%
%TF.ProjectId,Condor,436f6e64-6f72-42e6-9b69-6361645f7063,rev?*%
%TF.SameCoordinates,Original*%
%TF.FileFunction,Copper,L1,Top*%
%TF.FilePolarity,Positive*%
%FSLAX46Y46*%
G04 Gerber Fmt 4.6, Leading zero omitted, Abs format (unit mm)*
G04 Created by KiCad (PCBNEW (6.0.8-1)-1) date 2022-12-29 16:22:46*
%MOMM*%
%LPD*%
G01*
G04 APERTURE LIST*
%TA.AperFunction,ComponentPad*%
%ADD10R,1.398000X1.398000*%
%TD*%
%TA.AperFunction,ComponentPad*%
%ADD11C,1.398000*%
%TD*%
%TA.AperFunction,SMDPad,CuDef*%
%ADD12C,1.100000*%
%TD*%
%TA.AperFunction,Conductor*%
%ADD13C,0.250000*%
%TD*%
G04 APERTURE END LIST*
D10*
%TO.P,REF\u002A\u002A,1*%
%TO.N,N/C*%
X161730000Y-102540000D03*
D11*
%TO.P,REF\u002A\u002A,2*%
X164270000Y-102540000D03*
%TO.P,REF\u002A\u002A,3*%
X161730000Y-100000000D03*
%TO.P,REF\u002A\u002A,4*%
X164270000Y-100000000D03*
%TO.P,REF\u002A\u002A,5*%
X161730000Y-97460000D03*
%TO.P,REF\u002A\u002A,6*%
X164270000Y-97460000D03*
%TD*%
D10*
%TO.P,REF\u002A\u002A,1*%
%TO.N,N/C*%
X185730000Y-102540000D03*
D11*
%TO.P,REF\u002A\u002A,2*%
X188270000Y-102540000D03*
%TO.P,REF\u002A\u002A,3*%
X185730000Y-100000000D03*
%TO.P,REF\u002A\u002A,4*%
X188270000Y-100000000D03*
%TO.P,REF\u002A\u002A,5*%
X185730000Y-97460000D03*
%TO.P,REF\u002A\u002A,6*%
X188270000Y-97460000D03*
%TD*%
D12*
%TO.P,REF\u002A\u002A,1*%
%TO.N,N/C*%
X177050000Y-97900000D03*
%TO.P,REF\u002A\u002A,2*%
X172450000Y-97900000D03*
%TO.P,REF\u002A\u002A,3*%
X172450000Y-102100000D03*
%TO.P,REF\u002A\u002A,4*%
X177050000Y-102100000D03*
%TD*%
D13*
%TO.N,*%
X172010000Y-102540000D02*
X172450000Y-102100000D01*
X161730000Y-103030000D02*
X166200000Y-107500000D01*
X170250000Y-95700000D02*
X163490000Y-95700000D01*
X187000000Y-107500000D02*
X190000000Y-104500000D01*
X172450000Y-97900000D02*
X170250000Y-95700000D01*
X166200000Y-107500000D02*
X187000000Y-107500000D01*
X161730000Y-100000000D02*
X161730000Y-103030000D01*
X164270000Y-102540000D02*
X172010000Y-102540000D01*
X190000000Y-104500000D02*
X190000000Y-101730000D01*
X190000000Y-101730000D02*
X188270000Y-100000000D01*
X163490000Y-95700000D02*
X161730000Y-97460000D01*
X164270000Y-100000000D02*
X161730000Y-100000000D01*
X164270000Y-97460000D02*
X164270000Y-100000000D01*
%TD*%
M02*
