%TF.GenerationSoftware,KiCad,Pcbnew,(6.0.8-1)-1*%
%TF.CreationDate,2022-12-29T09:01:59-05:00*%
%TF.ProjectId,Condor,436f6e64-6f72-42e6-9b69-6361645f7063,rev?*%
%TF.SameCoordinates,Original*%
%TF.FileFunction,Legend,Top*%
%TF.FilePolarity,Positive*%
%FSLAX46Y46*%
G04 Gerber Fmt 4.6, Leading zero omitted, Abs format (unit mm)*
G04 Created by KiCad (PCBNEW (6.0.8-1)-1) date 2022-12-29 09:01:59*
%MOMM*%
%LPD*%
G01*
G04 APERTURE LIST*
%ADD10C,0.150000*%
%ADD11C,0.120000*%
G04 APERTURE END LIST*
D10*
X178804761Y-105199761D02*
X178947619Y-105247380D01*
X179185714Y-105247380D01*
X179280952Y-105199761D01*
X179328571Y-105152142D01*
X179376190Y-105056904D01*
X179376190Y-104961666D01*
X179328571Y-104866428D01*
X179280952Y-104818809D01*
X179185714Y-104771190D01*
X178995238Y-104723571D01*
X178900000Y-104675952D01*
X178852380Y-104628333D01*
X178804761Y-104533095D01*
X178804761Y-104437857D01*
X178852380Y-104342619D01*
X178900000Y-104295000D01*
X178995238Y-104247380D01*
X179233333Y-104247380D01*
X179376190Y-104295000D01*
X179804761Y-105247380D02*
X179804761Y-104580714D01*
X179804761Y-104247380D02*
X179757142Y-104295000D01*
X179804761Y-104342619D01*
X179852380Y-104295000D01*
X179804761Y-104247380D01*
X179804761Y-104342619D01*
X180280952Y-105247380D02*
X180280952Y-104247380D01*
X180661904Y-104247380D01*
X180757142Y-104295000D01*
X180804761Y-104342619D01*
X180852380Y-104437857D01*
X180852380Y-104580714D01*
X180804761Y-104675952D01*
X180757142Y-104723571D01*
X180661904Y-104771190D01*
X180280952Y-104771190D01*
X181280952Y-105247380D02*
X181280952Y-104247380D01*
X181614285Y-104961666D01*
X181947619Y-104247380D01*
X181947619Y-105247380D01*
X174257142Y-106809761D02*
X174400000Y-106857380D01*
X174638095Y-106857380D01*
X174733333Y-106809761D01*
X174780952Y-106762142D01*
X174828571Y-106666904D01*
X174828571Y-106571666D01*
X174780952Y-106476428D01*
X174733333Y-106428809D01*
X174638095Y-106381190D01*
X174447619Y-106333571D01*
X174352380Y-106285952D01*
X174304761Y-106238333D01*
X174257142Y-106143095D01*
X174257142Y-106047857D01*
X174304761Y-105952619D01*
X174352380Y-105905000D01*
X174447619Y-105857380D01*
X174685714Y-105857380D01*
X174828571Y-105905000D01*
X175780952Y-106857380D02*
X175209523Y-106857380D01*
X175495238Y-106857380D02*
X175495238Y-105857380D01*
X175400000Y-106000238D01*
X175304761Y-106095476D01*
X175209523Y-106143095D01*
X176114285Y-105857380D02*
X176733333Y-105857380D01*
X176400000Y-106238333D01*
X176542857Y-106238333D01*
X176638095Y-106285952D01*
X176685714Y-106333571D01*
X176733333Y-106428809D01*
X176733333Y-106666904D01*
X176685714Y-106762142D01*
X176638095Y-106809761D01*
X176542857Y-106857380D01*
X176257142Y-106857380D01*
X176161904Y-106809761D01*
X176114285Y-106762142D01*
X177066666Y-105857380D02*
X177685714Y-105857380D01*
X177352380Y-106238333D01*
X177495238Y-106238333D01*
X177590476Y-106285952D01*
X177638095Y-106333571D01*
X177685714Y-106428809D01*
X177685714Y-106666904D01*
X177638095Y-106762142D01*
X177590476Y-106809761D01*
X177495238Y-106857380D01*
X177209523Y-106857380D01*
X177114285Y-106809761D01*
X177066666Y-106762142D01*
X178542857Y-105857380D02*
X178352380Y-105857380D01*
X178257142Y-105905000D01*
X178209523Y-105952619D01*
X178114285Y-106095476D01*
X178066666Y-106285952D01*
X178066666Y-106666904D01*
X178114285Y-106762142D01*
X178161904Y-106809761D01*
X178257142Y-106857380D01*
X178447619Y-106857380D01*
X178542857Y-106809761D01*
X178590476Y-106762142D01*
X178638095Y-106666904D01*
X178638095Y-106428809D01*
X178590476Y-106333571D01*
X178542857Y-106285952D01*
X178447619Y-106238333D01*
X178257142Y-106238333D01*
X178161904Y-106285952D01*
X178114285Y-106333571D01*
X178066666Y-106428809D01*
X179257142Y-105857380D02*
X179352380Y-105857380D01*
X179447619Y-105905000D01*
X179495238Y-105952619D01*
X179542857Y-106047857D01*
X179590476Y-106238333D01*
X179590476Y-106476428D01*
X179542857Y-106666904D01*
X179495238Y-106762142D01*
X179447619Y-106809761D01*
X179352380Y-106857380D01*
X179257142Y-106857380D01*
X179161904Y-106809761D01*
X179114285Y-106762142D01*
X179066666Y-106666904D01*
X179019047Y-106476428D01*
X179019047Y-106238333D01*
X179066666Y-106047857D01*
X179114285Y-105952619D01*
X179161904Y-105905000D01*
X179257142Y-105857380D01*
X180019047Y-106476428D02*
X180780952Y-106476428D01*
X181685714Y-105857380D02*
X181495238Y-105857380D01*
X181400000Y-105905000D01*
X181352380Y-105952619D01*
X181257142Y-106095476D01*
X181209523Y-106285952D01*
X181209523Y-106666904D01*
X181257142Y-106762142D01*
X181304761Y-106809761D01*
X181400000Y-106857380D01*
X181590476Y-106857380D01*
X181685714Y-106809761D01*
X181733333Y-106762142D01*
X181780952Y-106666904D01*
X181780952Y-106428809D01*
X181733333Y-106333571D01*
X181685714Y-106285952D01*
X181590476Y-106238333D01*
X181400000Y-106238333D01*
X181304761Y-106285952D01*
X181257142Y-106333571D01*
X181209523Y-106428809D01*
X182400000Y-105857380D02*
X182495238Y-105857380D01*
X182590476Y-105905000D01*
X182638095Y-105952619D01*
X182685714Y-106047857D01*
X182733333Y-106238333D01*
X182733333Y-106476428D01*
X182685714Y-106666904D01*
X182638095Y-106762142D01*
X182590476Y-106809761D01*
X182495238Y-106857380D01*
X182400000Y-106857380D01*
X182304761Y-106809761D01*
X182257142Y-106762142D01*
X182209523Y-106666904D01*
X182161904Y-106476428D01*
X182161904Y-106238333D01*
X182209523Y-106047857D01*
X182257142Y-105952619D01*
X182304761Y-105905000D01*
X182400000Y-105857380D01*
X183114285Y-105952619D02*
X183161904Y-105905000D01*
X183257142Y-105857380D01*
X183495238Y-105857380D01*
X183590476Y-105905000D01*
X183638095Y-105952619D01*
X183685714Y-106047857D01*
X183685714Y-106143095D01*
X183638095Y-106285952D01*
X183066666Y-106857380D01*
X183685714Y-106857380D01*
X184590476Y-105857380D02*
X184114285Y-105857380D01*
X184066666Y-106333571D01*
X184114285Y-106285952D01*
X184209523Y-106238333D01*
X184447619Y-106238333D01*
X184542857Y-106285952D01*
X184590476Y-106333571D01*
X184638095Y-106428809D01*
X184638095Y-106666904D01*
X184590476Y-106762142D01*
X184542857Y-106809761D01*
X184447619Y-106857380D01*
X184209523Y-106857380D01*
X184114285Y-106809761D01*
X184066666Y-106762142D01*
X185066666Y-106857380D02*
X185066666Y-105857380D01*
X185447619Y-105857380D01*
X185542857Y-105905000D01*
X185590476Y-105952619D01*
X185638095Y-106047857D01*
X185638095Y-106190714D01*
X185590476Y-106285952D01*
X185542857Y-106333571D01*
X185447619Y-106381190D01*
X185066666Y-106381190D01*
X186066666Y-106333571D02*
X186400000Y-106333571D01*
X186542857Y-106857380D02*
X186066666Y-106857380D01*
X186066666Y-105857380D01*
X186542857Y-105857380D01*
X190842380Y-118476190D02*
X189842380Y-118476190D01*
X189842380Y-118238095D01*
X189890000Y-118095238D01*
X189985238Y-118000000D01*
X190080476Y-117952380D01*
X190270952Y-117904761D01*
X190413809Y-117904761D01*
X190604285Y-117952380D01*
X190699523Y-118000000D01*
X190794761Y-118095238D01*
X190842380Y-118238095D01*
X190842380Y-118476190D01*
X190794761Y-117095238D02*
X190842380Y-117190476D01*
X190842380Y-117380952D01*
X190794761Y-117476190D01*
X190699523Y-117523809D01*
X190318571Y-117523809D01*
X190223333Y-117476190D01*
X190175714Y-117380952D01*
X190175714Y-117190476D01*
X190223333Y-117095238D01*
X190318571Y-117047619D01*
X190413809Y-117047619D01*
X190509047Y-117523809D01*
X190794761Y-116666666D02*
X190842380Y-116571428D01*
X190842380Y-116380952D01*
X190794761Y-116285714D01*
X190699523Y-116238095D01*
X190651904Y-116238095D01*
X190556666Y-116285714D01*
X190509047Y-116380952D01*
X190509047Y-116523809D01*
X190461428Y-116619047D01*
X190366190Y-116666666D01*
X190318571Y-116666666D01*
X190223333Y-116619047D01*
X190175714Y-116523809D01*
X190175714Y-116380952D01*
X190223333Y-116285714D01*
X190842380Y-115809523D02*
X190175714Y-115809523D01*
X189842380Y-115809523D02*
X189890000Y-115857142D01*
X189937619Y-115809523D01*
X189890000Y-115761904D01*
X189842380Y-115809523D01*
X189937619Y-115809523D01*
X190175714Y-114904761D02*
X190985238Y-114904761D01*
X191080476Y-114952380D01*
X191128095Y-115000000D01*
X191175714Y-115095238D01*
X191175714Y-115238095D01*
X191128095Y-115333333D01*
X190794761Y-114904761D02*
X190842380Y-115000000D01*
X190842380Y-115190476D01*
X190794761Y-115285714D01*
X190747142Y-115333333D01*
X190651904Y-115380952D01*
X190366190Y-115380952D01*
X190270952Y-115333333D01*
X190223333Y-115285714D01*
X190175714Y-115190476D01*
X190175714Y-115000000D01*
X190223333Y-114904761D01*
X190175714Y-114428571D02*
X190842380Y-114428571D01*
X190270952Y-114428571D02*
X190223333Y-114380952D01*
X190175714Y-114285714D01*
X190175714Y-114142857D01*
X190223333Y-114047619D01*
X190318571Y-114000000D01*
X190842380Y-114000000D01*
X190794761Y-113142857D02*
X190842380Y-113238095D01*
X190842380Y-113428571D01*
X190794761Y-113523809D01*
X190699523Y-113571428D01*
X190318571Y-113571428D01*
X190223333Y-113523809D01*
X190175714Y-113428571D01*
X190175714Y-113238095D01*
X190223333Y-113142857D01*
X190318571Y-113095238D01*
X190413809Y-113095238D01*
X190509047Y-113571428D01*
X190842380Y-112238095D02*
X189842380Y-112238095D01*
X190794761Y-112238095D02*
X190842380Y-112333333D01*
X190842380Y-112523809D01*
X190794761Y-112619047D01*
X190747142Y-112666666D01*
X190651904Y-112714285D01*
X190366190Y-112714285D01*
X190270952Y-112666666D01*
X190223333Y-112619047D01*
X190175714Y-112523809D01*
X190175714Y-112333333D01*
X190223333Y-112238095D01*
X190842380Y-111000000D02*
X189842380Y-111000000D01*
X190223333Y-111000000D02*
X190175714Y-110904761D01*
X190175714Y-110714285D01*
X190223333Y-110619047D01*
X190270952Y-110571428D01*
X190366190Y-110523809D01*
X190651904Y-110523809D01*
X190747142Y-110571428D01*
X190794761Y-110619047D01*
X190842380Y-110714285D01*
X190842380Y-110904761D01*
X190794761Y-111000000D01*
X190175714Y-110190476D02*
X190842380Y-109952380D01*
X190175714Y-109714285D02*
X190842380Y-109952380D01*
X191080476Y-110047619D01*
X191128095Y-110095238D01*
X191175714Y-110190476D01*
X190794761Y-108619047D02*
X190842380Y-108476190D01*
X190842380Y-108238095D01*
X190794761Y-108142857D01*
X190747142Y-108095238D01*
X190651904Y-108047619D01*
X190556666Y-108047619D01*
X190461428Y-108095238D01*
X190413809Y-108142857D01*
X190366190Y-108238095D01*
X190318571Y-108428571D01*
X190270952Y-108523809D01*
X190223333Y-108571428D01*
X190128095Y-108619047D01*
X190032857Y-108619047D01*
X189937619Y-108571428D01*
X189890000Y-108523809D01*
X189842380Y-108428571D01*
X189842380Y-108190476D01*
X189890000Y-108047619D01*
X190794761Y-107238095D02*
X190842380Y-107333333D01*
X190842380Y-107523809D01*
X190794761Y-107619047D01*
X190699523Y-107666666D01*
X190318571Y-107666666D01*
X190223333Y-107619047D01*
X190175714Y-107523809D01*
X190175714Y-107333333D01*
X190223333Y-107238095D01*
X190318571Y-107190476D01*
X190413809Y-107190476D01*
X190509047Y-107666666D01*
X190842380Y-106761904D02*
X189842380Y-106761904D01*
X190223333Y-106761904D02*
X190175714Y-106666666D01*
X190175714Y-106476190D01*
X190223333Y-106380952D01*
X190270952Y-106333333D01*
X190366190Y-106285714D01*
X190651904Y-106285714D01*
X190747142Y-106333333D01*
X190794761Y-106380952D01*
X190842380Y-106476190D01*
X190842380Y-106666666D01*
X190794761Y-106761904D01*
X190842380Y-105714285D02*
X190794761Y-105809523D01*
X190747142Y-105857142D01*
X190651904Y-105904761D01*
X190366190Y-105904761D01*
X190270952Y-105857142D01*
X190223333Y-105809523D01*
X190175714Y-105714285D01*
X190175714Y-105571428D01*
X190223333Y-105476190D01*
X190270952Y-105428571D01*
X190366190Y-105380952D01*
X190651904Y-105380952D01*
X190747142Y-105428571D01*
X190794761Y-105476190D01*
X190842380Y-105571428D01*
X190842380Y-105714285D01*
X190175714Y-104523809D02*
X190842380Y-104523809D01*
X190175714Y-104952380D02*
X190699523Y-104952380D01*
X190794761Y-104904761D01*
X190842380Y-104809523D01*
X190842380Y-104666666D01*
X190794761Y-104571428D01*
X190747142Y-104523809D01*
X190842380Y-104047619D02*
X189842380Y-104047619D01*
X190842380Y-103619047D02*
X190318571Y-103619047D01*
X190223333Y-103666666D01*
X190175714Y-103761904D01*
X190175714Y-103904761D01*
X190223333Y-104000000D01*
X190270952Y-104047619D01*
X190842380Y-102380952D02*
X189842380Y-102380952D01*
X189842380Y-102000000D01*
X189890000Y-101904761D01*
X189937619Y-101857142D01*
X190032857Y-101809523D01*
X190175714Y-101809523D01*
X190270952Y-101857142D01*
X190318571Y-101904761D01*
X190366190Y-102000000D01*
X190366190Y-102380952D01*
X190842380Y-100952380D02*
X190318571Y-100952380D01*
X190223333Y-101000000D01*
X190175714Y-101095238D01*
X190175714Y-101285714D01*
X190223333Y-101380952D01*
X190794761Y-100952380D02*
X190842380Y-101047619D01*
X190842380Y-101285714D01*
X190794761Y-101380952D01*
X190699523Y-101428571D01*
X190604285Y-101428571D01*
X190509047Y-101380952D01*
X190461428Y-101285714D01*
X190461428Y-101047619D01*
X190413809Y-100952380D01*
X190175714Y-100047619D02*
X190842380Y-100047619D01*
X190175714Y-100476190D02*
X190699523Y-100476190D01*
X190794761Y-100428571D01*
X190842380Y-100333333D01*
X190842380Y-100190476D01*
X190794761Y-100095238D01*
X190747142Y-100047619D01*
X190842380Y-99428571D02*
X190794761Y-99523809D01*
X190699523Y-99571428D01*
X189842380Y-99571428D01*
X191452380Y-113547619D02*
X192261904Y-113547619D01*
X192357142Y-113500000D01*
X192404761Y-113452380D01*
X192452380Y-113357142D01*
X192452380Y-113166666D01*
X192404761Y-113071428D01*
X192357142Y-113023809D01*
X192261904Y-112976190D01*
X191452380Y-112976190D01*
X192357142Y-111928571D02*
X192404761Y-111976190D01*
X192452380Y-112119047D01*
X192452380Y-112214285D01*
X192404761Y-112357142D01*
X192309523Y-112452380D01*
X192214285Y-112500000D01*
X192023809Y-112547619D01*
X191880952Y-112547619D01*
X191690476Y-112500000D01*
X191595238Y-112452380D01*
X191500000Y-112357142D01*
X191452380Y-112214285D01*
X191452380Y-112119047D01*
X191500000Y-111976190D01*
X191547619Y-111928571D01*
X192452380Y-110166666D02*
X191976190Y-110500000D01*
X192452380Y-110738095D02*
X191452380Y-110738095D01*
X191452380Y-110357142D01*
X191500000Y-110261904D01*
X191547619Y-110214285D01*
X191642857Y-110166666D01*
X191785714Y-110166666D01*
X191880952Y-110214285D01*
X191928571Y-110261904D01*
X191976190Y-110357142D01*
X191976190Y-110738095D01*
X192452380Y-109738095D02*
X191785714Y-109738095D01*
X191452380Y-109738095D02*
X191500000Y-109785714D01*
X191547619Y-109738095D01*
X191500000Y-109690476D01*
X191452380Y-109738095D01*
X191547619Y-109738095D01*
X191785714Y-109357142D02*
X192452380Y-109119047D01*
X191785714Y-108880952D01*
X192404761Y-108119047D02*
X192452380Y-108214285D01*
X192452380Y-108404761D01*
X192404761Y-108500000D01*
X192309523Y-108547619D01*
X191928571Y-108547619D01*
X191833333Y-108500000D01*
X191785714Y-108404761D01*
X191785714Y-108214285D01*
X191833333Y-108119047D01*
X191928571Y-108071428D01*
X192023809Y-108071428D01*
X192119047Y-108547619D01*
X192452380Y-107642857D02*
X191785714Y-107642857D01*
X191976190Y-107642857D02*
X191880952Y-107595238D01*
X191833333Y-107547619D01*
X191785714Y-107452380D01*
X191785714Y-107357142D01*
X192404761Y-107071428D02*
X192452380Y-106976190D01*
X192452380Y-106785714D01*
X192404761Y-106690476D01*
X192309523Y-106642857D01*
X192261904Y-106642857D01*
X192166666Y-106690476D01*
X192119047Y-106785714D01*
X192119047Y-106928571D01*
X192071428Y-107023809D01*
X191976190Y-107071428D01*
X191928571Y-107071428D01*
X191833333Y-107023809D01*
X191785714Y-106928571D01*
X191785714Y-106785714D01*
X191833333Y-106690476D01*
X192452380Y-106214285D02*
X191785714Y-106214285D01*
X191452380Y-106214285D02*
X191500000Y-106261904D01*
X191547619Y-106214285D01*
X191500000Y-106166666D01*
X191452380Y-106214285D01*
X191547619Y-106214285D01*
X192452380Y-105309523D02*
X191452380Y-105309523D01*
X192404761Y-105309523D02*
X192452380Y-105404761D01*
X192452380Y-105595238D01*
X192404761Y-105690476D01*
X192357142Y-105738095D01*
X192261904Y-105785714D01*
X191976190Y-105785714D01*
X191880952Y-105738095D01*
X191833333Y-105690476D01*
X191785714Y-105595238D01*
X191785714Y-105404761D01*
X191833333Y-105309523D01*
X192404761Y-104452380D02*
X192452380Y-104547619D01*
X192452380Y-104738095D01*
X192404761Y-104833333D01*
X192309523Y-104880952D01*
X191928571Y-104880952D01*
X191833333Y-104833333D01*
X191785714Y-104738095D01*
X191785714Y-104547619D01*
X191833333Y-104452380D01*
X191928571Y-104404761D01*
X192023809Y-104404761D01*
X192119047Y-104880952D01*
X193062380Y-112857142D02*
X194062380Y-112523809D01*
X193062380Y-112190476D01*
X194014761Y-111476190D02*
X194062380Y-111571428D01*
X194062380Y-111761904D01*
X194014761Y-111857142D01*
X193919523Y-111904761D01*
X193538571Y-111904761D01*
X193443333Y-111857142D01*
X193395714Y-111761904D01*
X193395714Y-111571428D01*
X193443333Y-111476190D01*
X193538571Y-111428571D01*
X193633809Y-111428571D01*
X193729047Y-111904761D01*
X194062380Y-111000000D02*
X193395714Y-111000000D01*
X193586190Y-111000000D02*
X193490952Y-110952380D01*
X193443333Y-110904761D01*
X193395714Y-110809523D01*
X193395714Y-110714285D01*
X194014761Y-110428571D02*
X194062380Y-110333333D01*
X194062380Y-110142857D01*
X194014761Y-110047619D01*
X193919523Y-110000000D01*
X193871904Y-110000000D01*
X193776666Y-110047619D01*
X193729047Y-110142857D01*
X193729047Y-110285714D01*
X193681428Y-110380952D01*
X193586190Y-110428571D01*
X193538571Y-110428571D01*
X193443333Y-110380952D01*
X193395714Y-110285714D01*
X193395714Y-110142857D01*
X193443333Y-110047619D01*
X194062380Y-109571428D02*
X193395714Y-109571428D01*
X193062380Y-109571428D02*
X193110000Y-109619047D01*
X193157619Y-109571428D01*
X193110000Y-109523809D01*
X193062380Y-109571428D01*
X193157619Y-109571428D01*
X194062380Y-108952380D02*
X194014761Y-109047619D01*
X193967142Y-109095238D01*
X193871904Y-109142857D01*
X193586190Y-109142857D01*
X193490952Y-109095238D01*
X193443333Y-109047619D01*
X193395714Y-108952380D01*
X193395714Y-108809523D01*
X193443333Y-108714285D01*
X193490952Y-108666666D01*
X193586190Y-108619047D01*
X193871904Y-108619047D01*
X193967142Y-108666666D01*
X194014761Y-108714285D01*
X194062380Y-108809523D01*
X194062380Y-108952380D01*
X193395714Y-108190476D02*
X194062380Y-108190476D01*
X193490952Y-108190476D02*
X193443333Y-108142857D01*
X193395714Y-108047619D01*
X193395714Y-107904761D01*
X193443333Y-107809523D01*
X193538571Y-107761904D01*
X194062380Y-107761904D01*
X193395714Y-106619047D02*
X194062380Y-106380952D01*
X193395714Y-106142857D01*
X193062380Y-105857142D02*
X193062380Y-105238095D01*
X193443333Y-105571428D01*
X193443333Y-105428571D01*
X193490952Y-105333333D01*
X193538571Y-105285714D01*
X193633809Y-105238095D01*
X193871904Y-105238095D01*
X193967142Y-105285714D01*
X194014761Y-105333333D01*
X194062380Y-105428571D01*
X194062380Y-105714285D01*
X194014761Y-105809523D01*
X193967142Y-105857142D01*
D11*
%TO.C,REF\u002A\u002A*%
X179800000Y-101700000D02*
X179800000Y-98700000D01*
X180400000Y-100600000D02*
X179100000Y-100600000D01*
G36*
X179800000Y-100600000D02*
G01*
X179200000Y-99600000D01*
X180400000Y-99600000D01*
X179800000Y-100600000D01*
G37*
X179800000Y-100600000D02*
X179200000Y-99600000D01*
X180400000Y-99600000D01*
X179800000Y-100600000D01*
%TO.C,G\u002A\u002A\u002A*%
G36*
X163355544Y-118030955D02*
G01*
X162707093Y-118030955D01*
X162708939Y-118238323D01*
X162710785Y-118445692D01*
X162991342Y-118447513D01*
X163271899Y-118449335D01*
X163271899Y-118539633D01*
X162710785Y-118543277D01*
X162708943Y-118761101D01*
X162707101Y-118978924D01*
X163369484Y-118978924D01*
X163369484Y-119083480D01*
X162595774Y-119083480D01*
X162595774Y-117933370D01*
X163355544Y-117933370D01*
X163355544Y-118030955D01*
G37*
G36*
X170993318Y-117934819D02*
G01*
X171277360Y-117936855D01*
X171330726Y-117962340D01*
X171388579Y-117997264D01*
X171437490Y-118041508D01*
X171477057Y-118093371D01*
X171506877Y-118151151D01*
X171526546Y-118213149D01*
X171535663Y-118277663D01*
X171533822Y-118342993D01*
X171520622Y-118407438D01*
X171495659Y-118469296D01*
X171463123Y-118520928D01*
X171424540Y-118563413D01*
X171379877Y-118598335D01*
X171332770Y-118622995D01*
X171318947Y-118627912D01*
X171282854Y-118639289D01*
X171418554Y-118852672D01*
X171449799Y-118901894D01*
X171478701Y-118947600D01*
X171504397Y-118988410D01*
X171526021Y-119022945D01*
X171542711Y-119049825D01*
X171553602Y-119067669D01*
X171557808Y-119075040D01*
X171556557Y-119079308D01*
X171547332Y-119081745D01*
X171528166Y-119082574D01*
X171497091Y-119082019D01*
X171496791Y-119082010D01*
X171432221Y-119079995D01*
X171299028Y-118869460D01*
X171165835Y-118658926D01*
X170993318Y-118658607D01*
X170820802Y-118658288D01*
X170820802Y-119083480D01*
X170709276Y-119083480D01*
X170709276Y-118553732D01*
X170820632Y-118553732D01*
X171035055Y-118553664D01*
X171095460Y-118553615D01*
X171143619Y-118553437D01*
X171181230Y-118553018D01*
X171209986Y-118552247D01*
X171231584Y-118551013D01*
X171247720Y-118549205D01*
X171260090Y-118546711D01*
X171270388Y-118543420D01*
X171280311Y-118539221D01*
X171284472Y-118537301D01*
X171319176Y-118515198D01*
X171352643Y-118483319D01*
X171381295Y-118445627D01*
X171400511Y-118408760D01*
X171408077Y-118387157D01*
X171412880Y-118365367D01*
X171415495Y-118339218D01*
X171416498Y-118304533D01*
X171416569Y-118292344D01*
X171416359Y-118257371D01*
X171415073Y-118232376D01*
X171412048Y-118213402D01*
X171406619Y-118196492D01*
X171398124Y-118177690D01*
X171396936Y-118175259D01*
X171371241Y-118134135D01*
X171337263Y-118095847D01*
X171299103Y-118064613D01*
X171276440Y-118051278D01*
X171266480Y-118046491D01*
X171256936Y-118042710D01*
X171246096Y-118039817D01*
X171232250Y-118037691D01*
X171213684Y-118036216D01*
X171188688Y-118035272D01*
X171155550Y-118034741D01*
X171112557Y-118034504D01*
X171057998Y-118034442D01*
X171033398Y-118034440D01*
X170824287Y-118034440D01*
X170822459Y-118294086D01*
X170820632Y-118553732D01*
X170709276Y-118553732D01*
X170709276Y-117932782D01*
X170993318Y-117934819D01*
G37*
G36*
X164190624Y-117934819D02*
G01*
X164475047Y-117936855D01*
X164526944Y-117962516D01*
X164586062Y-117999274D01*
X164636563Y-118046036D01*
X164677388Y-118101091D01*
X164707476Y-118162727D01*
X164725768Y-118229232D01*
X164731268Y-118292344D01*
X164725203Y-118364493D01*
X164707629Y-118431076D01*
X164679287Y-118490945D01*
X164640918Y-118542947D01*
X164593263Y-118585932D01*
X164537062Y-118618750D01*
X164515347Y-118627682D01*
X164479733Y-118640862D01*
X164618160Y-118859046D01*
X164649517Y-118908559D01*
X164678387Y-118954313D01*
X164703944Y-118994990D01*
X164725365Y-119029270D01*
X164741826Y-119055835D01*
X164752503Y-119073364D01*
X164756570Y-119080540D01*
X164756586Y-119080617D01*
X164750135Y-119081891D01*
X164732829Y-119082501D01*
X164707741Y-119082378D01*
X164692499Y-119081999D01*
X164628412Y-119079995D01*
X164361604Y-118661773D01*
X164189666Y-118659909D01*
X164017728Y-118658044D01*
X164017728Y-119083480D01*
X163906202Y-119083480D01*
X163906202Y-118553732D01*
X164017558Y-118553732D01*
X164228497Y-118553426D01*
X164294562Y-118553157D01*
X164347960Y-118552524D01*
X164389960Y-118551477D01*
X164421833Y-118549964D01*
X164444849Y-118547933D01*
X164460277Y-118545333D01*
X164465588Y-118543787D01*
X164508622Y-118521356D01*
X164545605Y-118488210D01*
X164575754Y-118446543D01*
X164598286Y-118398549D01*
X164612415Y-118346422D01*
X164617359Y-118292354D01*
X164612333Y-118238540D01*
X164596554Y-118187173D01*
X164594597Y-118182783D01*
X164570631Y-118142029D01*
X164538279Y-118103104D01*
X164501568Y-118070361D01*
X164474425Y-118052913D01*
X164439435Y-118034440D01*
X164021213Y-118034440D01*
X164019386Y-118294086D01*
X164017558Y-118553732D01*
X163906202Y-118553732D01*
X163906202Y-117932782D01*
X164190624Y-117934819D01*
G37*
G36*
X166702891Y-118503814D02*
G01*
X166941458Y-117933370D01*
X166991416Y-117933370D01*
X167022712Y-117934617D01*
X167040476Y-117938377D01*
X167044818Y-117942083D01*
X167047954Y-117949694D01*
X167056047Y-117969233D01*
X167068706Y-117999754D01*
X167085537Y-118040311D01*
X167106147Y-118089959D01*
X167130144Y-118147751D01*
X167157135Y-118212743D01*
X167186728Y-118283989D01*
X167218530Y-118360543D01*
X167252148Y-118441459D01*
X167279771Y-118507937D01*
X167314555Y-118591655D01*
X167347837Y-118671774D01*
X167379224Y-118747347D01*
X167408322Y-118817426D01*
X167434740Y-118881064D01*
X167458082Y-118937314D01*
X167477957Y-118985228D01*
X167493972Y-119023860D01*
X167505732Y-119052260D01*
X167512845Y-119069484D01*
X167514920Y-119074563D01*
X167514163Y-119079122D01*
X167506130Y-119081713D01*
X167488665Y-119082615D01*
X167459613Y-119082104D01*
X167457059Y-119082021D01*
X167395558Y-119079995D01*
X167324468Y-118902250D01*
X167253378Y-118724506D01*
X166727797Y-118724506D01*
X166656707Y-118902250D01*
X166585617Y-119079995D01*
X166524971Y-119082009D01*
X166497866Y-119082391D01*
X166477012Y-119081699D01*
X166465567Y-119080082D01*
X166464325Y-119079141D01*
X166466955Y-119072129D01*
X166474589Y-119053184D01*
X166486844Y-119023230D01*
X166503337Y-118983190D01*
X166523685Y-118933990D01*
X166547504Y-118876553D01*
X166574411Y-118811803D01*
X166604023Y-118740664D01*
X166635956Y-118664062D01*
X166650006Y-118630406D01*
X166765328Y-118630406D01*
X167215821Y-118630406D01*
X167104093Y-118351284D01*
X167080547Y-118292687D01*
X167058555Y-118238402D01*
X167038660Y-118189730D01*
X167021403Y-118147975D01*
X167007323Y-118114440D01*
X166996962Y-118090427D01*
X166990861Y-118077241D01*
X166989445Y-118075082D01*
X166986317Y-118081967D01*
X166978570Y-118100455D01*
X166966752Y-118129199D01*
X166951408Y-118166854D01*
X166933088Y-118212074D01*
X166912338Y-118263514D01*
X166889705Y-118319826D01*
X166875926Y-118354204D01*
X166765328Y-118630406D01*
X166650006Y-118630406D01*
X166669829Y-118582919D01*
X166702891Y-118503814D01*
G37*
G36*
X161671052Y-117927917D02*
G01*
X161714718Y-117929524D01*
X161747954Y-117931652D01*
X161774268Y-117934783D01*
X161797170Y-117939399D01*
X161820170Y-117945981D01*
X161832520Y-117950063D01*
X161875698Y-117967293D01*
X161920670Y-117989547D01*
X161962420Y-118014103D01*
X161995931Y-118038241D01*
X161997516Y-118039571D01*
X162016136Y-118055351D01*
X161959724Y-118149617D01*
X161929860Y-118122089D01*
X161894063Y-118094206D01*
X161850882Y-118070508D01*
X161797454Y-118049498D01*
X161780066Y-118043830D01*
X161754502Y-118036567D01*
X161730196Y-118031768D01*
X161703086Y-118028966D01*
X161669108Y-118027697D01*
X161637349Y-118027470D01*
X161575851Y-118029585D01*
X161525395Y-118036366D01*
X161483675Y-118048464D01*
X161448382Y-118066535D01*
X161419472Y-118089118D01*
X161391184Y-118118630D01*
X161372854Y-118147576D01*
X161362680Y-118180221D01*
X161358861Y-118220830D01*
X161358688Y-118233096D01*
X161360481Y-118271886D01*
X161366915Y-118304467D01*
X161379248Y-118331915D01*
X161398737Y-118355305D01*
X161426638Y-118375712D01*
X161464208Y-118394212D01*
X161512704Y-118411881D01*
X161573383Y-118429793D01*
X161595527Y-118435738D01*
X161633584Y-118445768D01*
X161679169Y-118457772D01*
X161726325Y-118470182D01*
X161765814Y-118480567D01*
X161843980Y-118504055D01*
X161909161Y-118530327D01*
X161962150Y-118560070D01*
X162003744Y-118593966D01*
X162034737Y-118632702D01*
X162055926Y-118676963D01*
X162068105Y-118727432D01*
X162069981Y-118742501D01*
X162070431Y-118807987D01*
X162058430Y-118869705D01*
X162034500Y-118926079D01*
X161999164Y-118975537D01*
X161989200Y-118986047D01*
X161960022Y-119009692D01*
X161921525Y-119033033D01*
X161878183Y-119053754D01*
X161834472Y-119069542D01*
X161820346Y-119073368D01*
X161785933Y-119079461D01*
X161741746Y-119083904D01*
X161691868Y-119086594D01*
X161640380Y-119087423D01*
X161591365Y-119086287D01*
X161548904Y-119083079D01*
X161532390Y-119080829D01*
X161435884Y-119058084D01*
X161344586Y-119022504D01*
X161259211Y-118974406D01*
X161209355Y-118938268D01*
X161192612Y-118924988D01*
X161219232Y-118880510D01*
X161232256Y-118858801D01*
X161242193Y-118842339D01*
X161247154Y-118834248D01*
X161247353Y-118833948D01*
X161253154Y-118836907D01*
X161267367Y-118846593D01*
X161287384Y-118861193D01*
X161296724Y-118868226D01*
X161371919Y-118916836D01*
X161452680Y-118952668D01*
X161538962Y-118975710D01*
X161630722Y-118985946D01*
X161660533Y-118986517D01*
X161736223Y-118982360D01*
X161800540Y-118970182D01*
X161853526Y-118949964D01*
X161895221Y-118921691D01*
X161925667Y-118885343D01*
X161933662Y-118870735D01*
X161945472Y-118833379D01*
X161949359Y-118790314D01*
X161945323Y-118747301D01*
X161933656Y-118710703D01*
X161920814Y-118688445D01*
X161904351Y-118668624D01*
X161882973Y-118650629D01*
X161855383Y-118633849D01*
X161820287Y-118617673D01*
X161776391Y-118601491D01*
X161722397Y-118584691D01*
X161657012Y-118566661D01*
X161594341Y-118550620D01*
X161524769Y-118532427D01*
X161467206Y-118515399D01*
X161419848Y-118498787D01*
X161380896Y-118481843D01*
X161348547Y-118463818D01*
X161321002Y-118443965D01*
X161306017Y-118430852D01*
X161272823Y-118391503D01*
X161250808Y-118345443D01*
X161239331Y-118291216D01*
X161238065Y-118276698D01*
X161239612Y-118207679D01*
X161253549Y-118144743D01*
X161279562Y-118088440D01*
X161317333Y-118039320D01*
X161366547Y-117997934D01*
X161413589Y-117970934D01*
X161455237Y-117952949D01*
X161496072Y-117940153D01*
X161539412Y-117931991D01*
X161588572Y-117927908D01*
X161646869Y-117927352D01*
X161671052Y-117927917D01*
G37*
G36*
X160515121Y-117936855D02*
G01*
X160552401Y-117957505D01*
X160598075Y-117990381D01*
X160637470Y-118033886D01*
X160668760Y-118085440D01*
X160690123Y-118142463D01*
X160693725Y-118157395D01*
X160698031Y-118193731D01*
X160697956Y-118236895D01*
X160693888Y-118280803D01*
X160686215Y-118319369D01*
X160682677Y-118330681D01*
X160663106Y-118371924D01*
X160635390Y-118412287D01*
X160603263Y-118446822D01*
X160582792Y-118463118D01*
X160564131Y-118476359D01*
X160551217Y-118486528D01*
X160547090Y-118490999D01*
X160552927Y-118495534D01*
X160568068Y-118503938D01*
X160587332Y-118513476D01*
X160637361Y-118544593D01*
X160679165Y-118585864D01*
X160711837Y-118635576D01*
X160734468Y-118692014D01*
X160746150Y-118753468D01*
X160746395Y-118813601D01*
X160734746Y-118872407D01*
X160710863Y-118926679D01*
X160676098Y-118975009D01*
X160631801Y-119015989D01*
X160579325Y-119048210D01*
X160520021Y-119070263D01*
X160494672Y-119075925D01*
X160476360Y-119077909D01*
X160445220Y-119079633D01*
X160402360Y-119081071D01*
X160348892Y-119082196D01*
X160285925Y-119082985D01*
X160214570Y-119083410D01*
X160168808Y-119083480D01*
X159884303Y-119083480D01*
X159884303Y-118761349D01*
X159995829Y-118761349D01*
X159995987Y-118814819D01*
X159996435Y-118863773D01*
X159997134Y-118906477D01*
X159998042Y-118941199D01*
X159999121Y-118966208D01*
X160000330Y-118979771D01*
X160000893Y-118981665D01*
X160008839Y-118982817D01*
X160029052Y-118983747D01*
X160059861Y-118984436D01*
X160099595Y-118984864D01*
X160146582Y-118985009D01*
X160199149Y-118984851D01*
X160236143Y-118984570D01*
X160298985Y-118983951D01*
X160349516Y-118983324D01*
X160389367Y-118982576D01*
X160420168Y-118981593D01*
X160443548Y-118980260D01*
X160461137Y-118978465D01*
X160474566Y-118976093D01*
X160485464Y-118973031D01*
X160495462Y-118969165D01*
X160502670Y-118965977D01*
X160537725Y-118944487D01*
X160571860Y-118913730D01*
X160600888Y-118877993D01*
X160617931Y-118848002D01*
X160629322Y-118808858D01*
X160632817Y-118763483D01*
X160628323Y-118717195D01*
X160620726Y-118688119D01*
X160603869Y-118653888D01*
X160578147Y-118618957D01*
X160547562Y-118588000D01*
X160516113Y-118565694D01*
X160515906Y-118565583D01*
X160507843Y-118561517D01*
X160499411Y-118558223D01*
X160489088Y-118555606D01*
X160475355Y-118553569D01*
X160456691Y-118552015D01*
X160431576Y-118550849D01*
X160398489Y-118549974D01*
X160355911Y-118549293D01*
X160302320Y-118548709D01*
X160241534Y-118548172D01*
X159995829Y-118546097D01*
X159995829Y-118761349D01*
X159884303Y-118761349D01*
X159884303Y-118457033D01*
X159995829Y-118457033D01*
X160217138Y-118454847D01*
X160438447Y-118452662D01*
X160475618Y-118432072D01*
X160511438Y-118408114D01*
X160538753Y-118379260D01*
X160561304Y-118341376D01*
X160565292Y-118332961D01*
X160581573Y-118282655D01*
X160585773Y-118231352D01*
X160578591Y-118181305D01*
X160560726Y-118134766D01*
X160532875Y-118093986D01*
X160495737Y-118061219D01*
X160477703Y-118050473D01*
X160440340Y-118030955D01*
X159995829Y-118030955D01*
X159995829Y-118457033D01*
X159884303Y-118457033D01*
X159884303Y-117932833D01*
X160515121Y-117936855D01*
G37*
G36*
X169103245Y-118391140D02*
G01*
X169111442Y-118350723D01*
X169136931Y-118277680D01*
X169172183Y-118206389D01*
X169215187Y-118140055D01*
X169263929Y-118081886D01*
X169302784Y-118045758D01*
X169342369Y-118016860D01*
X169388339Y-117989056D01*
X169436295Y-117964639D01*
X169481838Y-117945903D01*
X169511243Y-117937081D01*
X169546863Y-117931225D01*
X169590929Y-117927748D01*
X169638909Y-117926653D01*
X169686267Y-117927944D01*
X169728472Y-117931622D01*
X169758100Y-117936925D01*
X169832924Y-117962936D01*
X169903149Y-118001355D01*
X169967742Y-118051110D01*
X170025669Y-118111132D01*
X170075896Y-118180351D01*
X170117388Y-118257696D01*
X170148926Y-118341480D01*
X170156682Y-118368550D01*
X170162020Y-118392259D01*
X170165391Y-118416434D01*
X170167246Y-118444903D01*
X170168035Y-118481495D01*
X170168173Y-118504940D01*
X170167313Y-118562298D01*
X170163718Y-118609993D01*
X170156442Y-118652187D01*
X170144541Y-118693045D01*
X170127069Y-118736727D01*
X170104886Y-118783754D01*
X170087099Y-118818759D01*
X170071644Y-118845756D01*
X170055632Y-118868732D01*
X170036174Y-118891672D01*
X170010382Y-118918563D01*
X169998694Y-118930272D01*
X169939237Y-118984112D01*
X169880655Y-119025453D01*
X169820601Y-119055358D01*
X169756730Y-119074893D01*
X169686695Y-119085121D01*
X169653266Y-119086949D01*
X169619690Y-119087623D01*
X169589292Y-119087585D01*
X169566001Y-119086874D01*
X169555681Y-119085945D01*
X169473956Y-119065955D01*
X169397768Y-119033633D01*
X169327940Y-118989767D01*
X169265298Y-118935147D01*
X169210666Y-118870560D01*
X169164869Y-118796795D01*
X169128731Y-118714641D01*
X169112061Y-118661773D01*
X169103002Y-118615952D01*
X169097583Y-118561472D01*
X169095811Y-118502840D01*
X169095845Y-118501778D01*
X169207032Y-118501778D01*
X169210454Y-118562626D01*
X169224035Y-118639509D01*
X169245063Y-118706581D01*
X169274791Y-118766517D01*
X169314472Y-118821995D01*
X169349903Y-118860677D01*
X169394241Y-118901729D01*
X169435900Y-118932512D01*
X169478395Y-118955244D01*
X169525243Y-118972142D01*
X169527799Y-118972884D01*
X169569092Y-118980997D01*
X169617617Y-118984774D01*
X169667408Y-118984137D01*
X169712499Y-118979008D01*
X169728524Y-118975515D01*
X169797212Y-118950596D01*
X169860143Y-118913076D01*
X169917474Y-118862851D01*
X169948353Y-118827695D01*
X169991299Y-118763532D01*
X170024315Y-118691677D01*
X170046614Y-118614957D01*
X170057414Y-118536201D01*
X170055930Y-118458236D01*
X170054408Y-118445326D01*
X170036661Y-118359806D01*
X170007210Y-118281682D01*
X169966151Y-118211155D01*
X169914231Y-118149085D01*
X169857023Y-118099596D01*
X169796052Y-118063391D01*
X169730532Y-118040133D01*
X169659674Y-118029486D01*
X169632355Y-118028676D01*
X169559225Y-118034650D01*
X169492263Y-118052864D01*
X169430412Y-118083757D01*
X169372611Y-118127766D01*
X169356860Y-118142645D01*
X169305658Y-118202605D01*
X169264269Y-118270809D01*
X169233498Y-118344945D01*
X169214151Y-118422704D01*
X169207032Y-118501778D01*
X169095845Y-118501778D01*
X169097695Y-118444561D01*
X169103245Y-118391140D01*
G37*
G36*
X158272401Y-118422949D02*
G01*
X158278515Y-118375647D01*
X158284483Y-118348107D01*
X158298962Y-118305547D01*
X158320050Y-118257260D01*
X158345341Y-118207892D01*
X158372430Y-118162087D01*
X158398914Y-118124490D01*
X158402575Y-118119979D01*
X158454529Y-118065723D01*
X158514045Y-118017932D01*
X158578125Y-117978545D01*
X158643768Y-117949502D01*
X158685401Y-117937194D01*
X158730605Y-117929971D01*
X158783818Y-117926686D01*
X158839693Y-117927282D01*
X158892884Y-117931701D01*
X158938042Y-117939886D01*
X158938140Y-117939911D01*
X159011407Y-117965698D01*
X159080199Y-118003852D01*
X159143490Y-118053231D01*
X159200255Y-118112697D01*
X159249469Y-118181108D01*
X159290105Y-118257324D01*
X159321138Y-118340204D01*
X159331115Y-118376944D01*
X159339246Y-118425659D01*
X159342900Y-118482650D01*
X159342141Y-118543013D01*
X159337033Y-118601845D01*
X159327640Y-118654242D01*
X159327504Y-118654803D01*
X159300695Y-118737712D01*
X159262600Y-118815202D01*
X159214408Y-118885865D01*
X159157306Y-118948289D01*
X159092482Y-119001065D01*
X159021125Y-119042783D01*
X158988684Y-119056988D01*
X158926749Y-119075674D01*
X158857765Y-119086535D01*
X158786467Y-119089194D01*
X158717590Y-119083273D01*
X158699342Y-119080018D01*
X158621726Y-119057459D01*
X158549318Y-119022617D01*
X158483018Y-118976466D01*
X158423726Y-118919980D01*
X158372343Y-118854135D01*
X158329771Y-118779905D01*
X158296909Y-118698266D01*
X158277144Y-118623081D01*
X158271330Y-118580713D01*
X158268685Y-118530134D01*
X158268692Y-118529166D01*
X158382242Y-118529166D01*
X158385868Y-118584354D01*
X158394079Y-118632092D01*
X158395455Y-118637377D01*
X158422912Y-118715432D01*
X158460098Y-118785709D01*
X158506086Y-118847204D01*
X158559948Y-118898918D01*
X158620758Y-118939847D01*
X158687588Y-118968992D01*
X158708225Y-118975167D01*
X158746914Y-118982049D01*
X158793196Y-118984938D01*
X158841310Y-118983846D01*
X158885497Y-118978780D01*
X158903961Y-118974852D01*
X158961735Y-118954787D01*
X159015064Y-118924884D01*
X159066792Y-118883443D01*
X159083304Y-118867633D01*
X159135955Y-118807198D01*
X159176194Y-118742303D01*
X159204579Y-118671644D01*
X159221665Y-118593913D01*
X159227443Y-118529120D01*
X159226869Y-118458305D01*
X159218293Y-118394747D01*
X159200717Y-118333650D01*
X159173744Y-118271433D01*
X159132827Y-118202530D01*
X159083958Y-118144360D01*
X159027907Y-118097421D01*
X158965446Y-118062217D01*
X158897348Y-118039247D01*
X158824384Y-118029014D01*
X158799667Y-118028514D01*
X158728611Y-118035821D01*
X158661294Y-118055966D01*
X158598688Y-118088123D01*
X158541764Y-118131466D01*
X158491496Y-118185170D01*
X158448855Y-118248408D01*
X158414813Y-118320356D01*
X158398327Y-118369412D01*
X158388525Y-118416644D01*
X158383145Y-118471579D01*
X158382242Y-118529166D01*
X158268692Y-118529166D01*
X158269083Y-118475995D01*
X158272401Y-118422949D01*
G37*
G36*
X157245179Y-113866408D02*
G01*
X157386443Y-113882057D01*
X157526555Y-113911110D01*
X157664678Y-113953662D01*
X157693762Y-113964478D01*
X157819953Y-114019051D01*
X157941913Y-114084007D01*
X158057314Y-114157880D01*
X158163824Y-114239205D01*
X158241043Y-114308623D01*
X158295065Y-114361059D01*
X158084209Y-114575609D01*
X157873354Y-114790158D01*
X157817591Y-114740934D01*
X157719422Y-114662575D01*
X157617337Y-114597472D01*
X157510853Y-114545370D01*
X157399485Y-114506013D01*
X157345174Y-114491813D01*
X157286262Y-114481255D01*
X157219717Y-114474661D01*
X157150042Y-114472112D01*
X157081739Y-114473686D01*
X157019311Y-114479465D01*
X156984633Y-114485384D01*
X156870421Y-114516258D01*
X156762830Y-114558926D01*
X156662546Y-114612785D01*
X156570254Y-114677231D01*
X156486641Y-114751660D01*
X156412393Y-114835468D01*
X156348194Y-114928051D01*
X156294732Y-115028806D01*
X156256104Y-115126745D01*
X156233288Y-115204714D01*
X156218368Y-115280527D01*
X156210499Y-115359549D01*
X156208713Y-115427525D01*
X156211965Y-115516895D01*
X156222190Y-115598432D01*
X156240096Y-115676755D01*
X156253431Y-115720008D01*
X156296682Y-115828042D01*
X156351204Y-115928207D01*
X156416414Y-116019970D01*
X156491730Y-116102799D01*
X156576569Y-116176163D01*
X156670349Y-116239528D01*
X156772486Y-116292364D01*
X156882399Y-116334137D01*
X156945626Y-116352122D01*
X156988735Y-116360357D01*
X157041734Y-116366387D01*
X157100732Y-116370110D01*
X157161837Y-116371425D01*
X157221158Y-116370232D01*
X157274805Y-116366429D01*
X157310229Y-116361583D01*
X157407771Y-116338663D01*
X157502688Y-116304890D01*
X157596201Y-116259638D01*
X157689531Y-116202279D01*
X157783898Y-116132184D01*
X157828134Y-116095370D01*
X157855630Y-116071520D01*
X157879324Y-116050555D01*
X157897190Y-116034298D01*
X157907203Y-116024573D01*
X157908508Y-116023001D01*
X157914120Y-116026299D01*
X157928375Y-116038235D01*
X157950036Y-116057610D01*
X157977866Y-116083229D01*
X158010626Y-116113895D01*
X158047078Y-116148411D01*
X158085984Y-116185582D01*
X158126107Y-116224209D01*
X158166209Y-116263097D01*
X158205051Y-116301049D01*
X158241397Y-116336869D01*
X158274007Y-116369360D01*
X158301645Y-116397325D01*
X158323072Y-116419567D01*
X158337050Y-116434891D01*
X158342342Y-116442100D01*
X158342338Y-116442353D01*
X158336711Y-116448881D01*
X158322745Y-116462791D01*
X158302455Y-116482131D01*
X158277857Y-116504951D01*
X158274150Y-116508344D01*
X158153916Y-116610665D01*
X158030284Y-116701217D01*
X157903944Y-116779646D01*
X157775587Y-116845602D01*
X157645905Y-116898734D01*
X157515588Y-116938691D01*
X157385328Y-116965122D01*
X157371017Y-116967190D01*
X157304100Y-116974531D01*
X157229611Y-116979426D01*
X157152984Y-116981706D01*
X157079650Y-116981197D01*
X157021246Y-116978237D01*
X156875902Y-116960394D01*
X156736171Y-116929889D01*
X156601391Y-116886493D01*
X156470901Y-116829976D01*
X156344039Y-116760110D01*
X156287192Y-116723742D01*
X156171083Y-116637875D01*
X156063999Y-116541756D01*
X155966531Y-116436232D01*
X155879271Y-116322152D01*
X155802811Y-116200365D01*
X155737743Y-116071719D01*
X155684658Y-115937062D01*
X155645833Y-115804210D01*
X155630260Y-115736660D01*
X155618610Y-115676076D01*
X155610404Y-115618290D01*
X155605160Y-115559129D01*
X155602399Y-115494423D01*
X155601638Y-115420555D01*
X155604888Y-115300638D01*
X155614874Y-115190222D01*
X155632288Y-115086249D01*
X155657817Y-114985660D01*
X155692152Y-114885395D01*
X155735983Y-114782395D01*
X155754037Y-114744429D01*
X155824945Y-114613407D01*
X155904967Y-114492789D01*
X155994555Y-114382058D01*
X156094157Y-114280696D01*
X156204225Y-114188188D01*
X156294131Y-114124162D01*
X156420104Y-114048653D01*
X156550764Y-113985881D01*
X156685278Y-113935941D01*
X156822811Y-113898929D01*
X156962528Y-113874939D01*
X157103596Y-113864067D01*
X157245179Y-113866408D01*
G37*
G36*
X166713516Y-113892469D02*
G01*
X166824746Y-113893012D01*
X166923081Y-113893552D01*
X167009568Y-113894138D01*
X167085253Y-113894822D01*
X167151181Y-113895654D01*
X167208399Y-113896686D01*
X167257953Y-113897968D01*
X167300890Y-113899551D01*
X167338254Y-113901487D01*
X167371093Y-113903825D01*
X167400451Y-113906617D01*
X167427377Y-113909914D01*
X167452914Y-113913766D01*
X167478111Y-113918225D01*
X167504012Y-113923341D01*
X167531664Y-113929165D01*
X167550148Y-113933154D01*
X167666991Y-113964601D01*
X167784145Y-114007833D01*
X167898356Y-114061324D01*
X168006365Y-114123548D01*
X168104918Y-114192977D01*
X168105573Y-114193490D01*
X168144560Y-114226368D01*
X168188386Y-114267191D01*
X168233759Y-114312581D01*
X168277386Y-114359161D01*
X168315975Y-114403551D01*
X168340347Y-114434335D01*
X168415648Y-114546525D01*
X168481042Y-114667922D01*
X168536150Y-114797559D01*
X168580593Y-114934466D01*
X168613991Y-115077673D01*
X168629520Y-115173107D01*
X168634241Y-115218087D01*
X168637833Y-115273185D01*
X168640272Y-115335112D01*
X168641535Y-115400579D01*
X168641596Y-115466298D01*
X168640432Y-115528980D01*
X168638018Y-115585335D01*
X168634331Y-115632075D01*
X168632988Y-115643606D01*
X168607742Y-115791863D01*
X168570936Y-115933741D01*
X168522873Y-116068724D01*
X168463859Y-116196294D01*
X168394197Y-116315936D01*
X168314193Y-116427134D01*
X168224151Y-116529370D01*
X168124375Y-116622129D01*
X168015170Y-116704894D01*
X168001892Y-116713833D01*
X167912162Y-116767811D01*
X167813163Y-116817263D01*
X167709331Y-116860241D01*
X167605095Y-116894799D01*
X167565642Y-116905485D01*
X167539002Y-116912204D01*
X167514818Y-116918139D01*
X167492083Y-116923343D01*
X167469789Y-116927866D01*
X167446926Y-116931762D01*
X167422486Y-116935083D01*
X167395460Y-116937880D01*
X167364841Y-116940207D01*
X167329618Y-116942115D01*
X167288785Y-116943656D01*
X167241331Y-116944883D01*
X167186249Y-116945847D01*
X167122529Y-116946602D01*
X167049164Y-116947199D01*
X166965145Y-116947691D01*
X166869462Y-116948129D01*
X166761109Y-116948566D01*
X166730942Y-116948685D01*
X166101866Y-116951171D01*
X166101866Y-116344128D01*
X166701266Y-116344128D01*
X166967908Y-116344099D01*
X167044791Y-116343941D01*
X167109147Y-116343455D01*
X167162387Y-116342596D01*
X167205921Y-116341321D01*
X167241161Y-116339586D01*
X167269517Y-116337346D01*
X167292399Y-116334556D01*
X167297284Y-116333792D01*
X167367396Y-116320235D01*
X167429431Y-116303290D01*
X167489164Y-116281148D01*
X167541607Y-116257298D01*
X167635820Y-116203933D01*
X167721248Y-116140173D01*
X167797418Y-116066816D01*
X167863855Y-115984657D01*
X167920088Y-115894495D01*
X167965643Y-115797127D01*
X168000046Y-115693348D01*
X168022824Y-115583956D01*
X168033505Y-115469748D01*
X168034298Y-115427525D01*
X168027977Y-115307860D01*
X168009209Y-115194460D01*
X167977995Y-115087333D01*
X167934338Y-114986488D01*
X167878243Y-114891932D01*
X167809711Y-114803673D01*
X167777030Y-114768288D01*
X167696471Y-114694148D01*
X167610412Y-114632427D01*
X167517824Y-114582560D01*
X167417679Y-114543979D01*
X167325588Y-114519580D01*
X167309519Y-114516464D01*
X167291934Y-114513917D01*
X167271308Y-114511885D01*
X167246115Y-114510314D01*
X167214828Y-114509147D01*
X167175922Y-114508331D01*
X167127870Y-114507811D01*
X167069146Y-114507531D01*
X166998225Y-114507438D01*
X166987102Y-114507437D01*
X166704803Y-114507437D01*
X166703034Y-115425782D01*
X166701266Y-116344128D01*
X166101866Y-116344128D01*
X166101866Y-113889554D01*
X166713516Y-113892469D01*
G37*
G36*
X165452933Y-118419553D02*
G01*
X165484877Y-118497980D01*
X165515424Y-118572880D01*
X165544149Y-118643215D01*
X165570627Y-118707948D01*
X165594432Y-118766040D01*
X165615138Y-118816454D01*
X165632319Y-118858152D01*
X165645549Y-118890097D01*
X165654404Y-118911251D01*
X165658457Y-118920575D01*
X165658522Y-118920705D01*
X165660501Y-118922161D01*
X165663597Y-118920042D01*
X165668147Y-118913567D01*
X165674492Y-118901956D01*
X165682968Y-118884430D01*
X165693915Y-118860208D01*
X165707672Y-118828509D01*
X165724577Y-118788553D01*
X165744969Y-118739560D01*
X165769186Y-118680750D01*
X165797566Y-118611342D01*
X165830450Y-118530557D01*
X165868174Y-118437613D01*
X165868359Y-118437157D01*
X165900519Y-118358044D01*
X165931293Y-118282726D01*
X165960267Y-118212196D01*
X165987024Y-118147449D01*
X166011149Y-118089477D01*
X166032226Y-118039274D01*
X166049840Y-117997834D01*
X166063575Y-117966151D01*
X166073016Y-117945218D01*
X166077747Y-117936030D01*
X166078086Y-117935691D01*
X166088338Y-117934527D01*
X166108461Y-117934158D01*
X166134405Y-117934643D01*
X166138715Y-117934799D01*
X166191757Y-117936855D01*
X166031576Y-118323710D01*
X165999873Y-118400272D01*
X165967426Y-118478627D01*
X165935042Y-118556822D01*
X165903532Y-118632901D01*
X165873705Y-118704911D01*
X165846370Y-118770897D01*
X165822337Y-118828907D01*
X165802415Y-118876985D01*
X165794110Y-118897023D01*
X165716826Y-119083480D01*
X165613446Y-119083480D01*
X165599224Y-119050371D01*
X165594382Y-119038884D01*
X165584627Y-119015553D01*
X165570388Y-118981406D01*
X165552094Y-118937476D01*
X165530172Y-118884794D01*
X165505053Y-118824391D01*
X165477165Y-118757297D01*
X165446937Y-118684544D01*
X165414798Y-118607163D01*
X165381176Y-118526184D01*
X165365124Y-118487514D01*
X165331197Y-118405813D01*
X165298718Y-118327671D01*
X165268095Y-118254067D01*
X165239738Y-118185981D01*
X165214054Y-118124393D01*
X165191455Y-118070282D01*
X165172348Y-118024629D01*
X165157142Y-117988413D01*
X165146247Y-117962614D01*
X165140072Y-117948212D01*
X165138870Y-117945568D01*
X165136956Y-117939736D01*
X165140225Y-117936125D01*
X165151037Y-117934211D01*
X165171753Y-117933471D01*
X165193768Y-117933370D01*
X165255041Y-117933370D01*
X165452933Y-118419553D01*
G37*
G36*
X158799435Y-115212806D02*
G01*
X158826058Y-115073773D01*
X158865508Y-114936977D01*
X158917418Y-114803378D01*
X158981421Y-114673935D01*
X159057151Y-114549608D01*
X159144241Y-114431356D01*
X159229089Y-114334034D01*
X159305672Y-114260123D01*
X159393363Y-114188426D01*
X159489334Y-114120727D01*
X159590759Y-114058813D01*
X159694812Y-114004468D01*
X159798664Y-113959480D01*
X159852937Y-113939948D01*
X159986791Y-113902503D01*
X160124718Y-113877462D01*
X160265062Y-113864789D01*
X160406166Y-113864445D01*
X160546372Y-113876392D01*
X160684024Y-113900594D01*
X160817465Y-113937012D01*
X160891741Y-113963508D01*
X161031077Y-114024905D01*
X161161753Y-114097073D01*
X161283474Y-114179748D01*
X161395946Y-114272666D01*
X161498873Y-114375563D01*
X161591963Y-114488175D01*
X161674920Y-114610238D01*
X161737484Y-114721690D01*
X161789038Y-114831040D01*
X161830053Y-114937959D01*
X161861166Y-115045190D01*
X161883016Y-115155476D01*
X161896239Y-115271559D01*
X161901475Y-115396182D01*
X161901614Y-115427525D01*
X161899639Y-115523378D01*
X161893726Y-115609679D01*
X161883234Y-115690420D01*
X161867524Y-115769594D01*
X161845957Y-115851193D01*
X161821217Y-115929391D01*
X161803774Y-115975723D01*
X161780278Y-116030147D01*
X161752469Y-116089195D01*
X161722086Y-116149400D01*
X161690870Y-116207296D01*
X161660562Y-116259415D01*
X161637221Y-116295979D01*
X161549790Y-116413407D01*
X161452825Y-116521470D01*
X161347156Y-116619580D01*
X161233609Y-116707144D01*
X161113012Y-116783574D01*
X160986192Y-116848278D01*
X160853978Y-116900665D01*
X160743579Y-116933644D01*
X160645722Y-116954724D01*
X160540553Y-116970205D01*
X160432797Y-116979681D01*
X160327179Y-116982744D01*
X160228423Y-116978990D01*
X160222148Y-116978483D01*
X160078176Y-116959720D01*
X159937343Y-116928127D01*
X159800563Y-116884256D01*
X159668754Y-116828660D01*
X159542830Y-116761891D01*
X159423709Y-116684501D01*
X159312305Y-116597042D01*
X159209537Y-116500066D01*
X159116318Y-116394126D01*
X159033567Y-116279773D01*
X159015328Y-116251078D01*
X158949562Y-116135183D01*
X158895646Y-116018420D01*
X158852987Y-115898836D01*
X158820996Y-115774478D01*
X158799080Y-115643390D01*
X158786649Y-115503621D01*
X158786133Y-115493743D01*
X158786069Y-115424040D01*
X159394461Y-115424040D01*
X159401083Y-115539562D01*
X159420893Y-115650618D01*
X159453804Y-115757002D01*
X159499733Y-115858511D01*
X159558593Y-115954943D01*
X159630299Y-116046093D01*
X159674978Y-116093695D01*
X159761183Y-116170774D01*
X159854415Y-116236265D01*
X159953778Y-116289696D01*
X160058381Y-116330594D01*
X160167328Y-116358487D01*
X160180544Y-116360919D01*
X160224547Y-116366513D01*
X160277944Y-116369940D01*
X160336360Y-116371202D01*
X160395416Y-116370298D01*
X160450738Y-116367231D01*
X160497947Y-116362001D01*
X160505180Y-116360841D01*
X160611190Y-116335964D01*
X160716022Y-116297832D01*
X160818007Y-116247121D01*
X160881065Y-116208343D01*
X160919580Y-116179634D01*
X160962776Y-116142237D01*
X161007713Y-116099135D01*
X161051450Y-116053313D01*
X161091048Y-116007754D01*
X161123565Y-115965442D01*
X161130744Y-115954970D01*
X161188227Y-115858168D01*
X161232392Y-115760190D01*
X161263843Y-115659169D01*
X161283184Y-115553239D01*
X161290396Y-115462377D01*
X161289560Y-115361905D01*
X161278742Y-115267486D01*
X161257371Y-115174884D01*
X161247011Y-115141260D01*
X161204186Y-115031960D01*
X161150155Y-114930268D01*
X161085654Y-114836841D01*
X161011416Y-114752335D01*
X160928177Y-114677406D01*
X160836671Y-114612711D01*
X160737633Y-114558908D01*
X160631797Y-114516652D01*
X160519899Y-114486601D01*
X160512906Y-114485179D01*
X160461300Y-114477755D01*
X160400617Y-114473639D01*
X160335307Y-114472786D01*
X160269825Y-114475147D01*
X160208622Y-114480676D01*
X160158004Y-114488926D01*
X160045990Y-114519390D01*
X159941527Y-114561455D01*
X159843864Y-114615523D01*
X159752249Y-114681995D01*
X159685859Y-114741394D01*
X159607717Y-114825814D01*
X159542288Y-114914968D01*
X159488789Y-115010083D01*
X159446441Y-115112388D01*
X159442369Y-115124314D01*
X159418402Y-115206786D01*
X159403119Y-115286939D01*
X159395612Y-115370456D01*
X159394461Y-115424040D01*
X158786069Y-115424040D01*
X158786004Y-115353116D01*
X158799435Y-115212806D01*
G37*
G36*
X169208648Y-115253402D02*
G01*
X169231580Y-115112607D01*
X169268189Y-114973684D01*
X169318569Y-114836152D01*
X169360130Y-114744429D01*
X169432107Y-114611723D01*
X169513580Y-114489198D01*
X169604702Y-114376704D01*
X169705625Y-114274087D01*
X169816503Y-114181194D01*
X169937487Y-114097872D01*
X170068733Y-114023969D01*
X170092399Y-114012173D01*
X170219805Y-113957476D01*
X170352608Y-113915082D01*
X170489497Y-113885075D01*
X170629164Y-113867536D01*
X170770297Y-113862549D01*
X170911588Y-113870195D01*
X171051725Y-113890558D01*
X171189400Y-113923718D01*
X171241375Y-113939883D01*
X171289041Y-113957316D01*
X171344228Y-113980178D01*
X171403405Y-114006780D01*
X171463040Y-114035433D01*
X171519602Y-114064446D01*
X171569559Y-114092130D01*
X171604816Y-114113763D01*
X171726661Y-114201645D01*
X171837821Y-114298419D01*
X171938504Y-114404320D01*
X172028919Y-114519585D01*
X172109273Y-114644452D01*
X172166444Y-114751400D01*
X172222925Y-114881959D01*
X172266355Y-115016056D01*
X172296884Y-115152759D01*
X172314665Y-115291134D01*
X172319850Y-115430249D01*
X172312591Y-115569170D01*
X172293040Y-115706964D01*
X172261349Y-115842699D01*
X172217669Y-115975440D01*
X172162153Y-116104256D01*
X172094953Y-116228212D01*
X172016220Y-116346376D01*
X171926107Y-116457814D01*
X171880497Y-116506951D01*
X171820903Y-116566259D01*
X171764702Y-116617232D01*
X171707816Y-116663303D01*
X171646164Y-116707905D01*
X171623032Y-116723585D01*
X171502581Y-116796408D01*
X171376661Y-116857896D01*
X171246950Y-116907408D01*
X171115126Y-116944302D01*
X170985843Y-116967551D01*
X170926840Y-116973789D01*
X170861298Y-116978340D01*
X170793576Y-116981069D01*
X170728033Y-116981840D01*
X170669029Y-116980518D01*
X170636087Y-116978457D01*
X170492158Y-116959622D01*
X170351398Y-116927993D01*
X170214719Y-116884125D01*
X170083033Y-116828570D01*
X169957252Y-116761882D01*
X169838288Y-116684616D01*
X169727051Y-116597324D01*
X169624454Y-116500561D01*
X169531409Y-116394879D01*
X169448826Y-116280833D01*
X169424977Y-116243021D01*
X169360532Y-116128109D01*
X169308004Y-116013742D01*
X169266611Y-115897445D01*
X169235569Y-115776744D01*
X169214096Y-115649167D01*
X169203432Y-115542536D01*
X169201293Y-115467031D01*
X169810766Y-115467031D01*
X169814609Y-115533179D01*
X169820346Y-115578165D01*
X169845423Y-115687005D01*
X169882973Y-115791120D01*
X169932107Y-115889612D01*
X169991937Y-115981581D01*
X170061573Y-116066129D01*
X170140128Y-116142356D01*
X170226711Y-116209364D01*
X170320436Y-116266254D01*
X170420412Y-116312127D01*
X170525751Y-116346084D01*
X170594265Y-116360919D01*
X170636479Y-116366293D01*
X170688222Y-116369702D01*
X170745224Y-116371142D01*
X170803213Y-116370612D01*
X170857916Y-116368109D01*
X170905062Y-116363630D01*
X170921872Y-116361109D01*
X171029690Y-116335493D01*
X171133478Y-116297095D01*
X171232109Y-116246768D01*
X171324455Y-116185364D01*
X171409389Y-116113738D01*
X171485784Y-116032741D01*
X171552514Y-115943228D01*
X171608451Y-115846050D01*
X171612034Y-115838776D01*
X171646451Y-115760972D01*
X171671898Y-115685884D01*
X171689403Y-115609294D01*
X171699995Y-115526984D01*
X171703903Y-115462247D01*
X171704425Y-115379749D01*
X171699007Y-115305311D01*
X171687030Y-115234107D01*
X171667876Y-115161311D01*
X171663535Y-115147406D01*
X171621709Y-115038224D01*
X171568602Y-114936433D01*
X171504969Y-114842724D01*
X171431563Y-114757787D01*
X171349138Y-114682313D01*
X171258449Y-114616993D01*
X171160249Y-114562516D01*
X171055292Y-114519573D01*
X170944412Y-114488872D01*
X170883789Y-114479239D01*
X170814665Y-114473835D01*
X170741821Y-114472660D01*
X170670037Y-114475713D01*
X170604098Y-114482994D01*
X170571725Y-114488872D01*
X170458888Y-114519841D01*
X170353033Y-114562871D01*
X170254076Y-114618007D01*
X170161931Y-114685295D01*
X170107309Y-114733974D01*
X170057068Y-114784477D01*
X170015344Y-114832114D01*
X169978689Y-114881179D01*
X169943656Y-114935961D01*
X169939589Y-114942799D01*
X169889220Y-115041098D01*
X169849456Y-115147065D01*
X169833514Y-115203533D01*
X169822424Y-115260293D01*
X169814830Y-115326113D01*
X169810892Y-115396517D01*
X169810766Y-115467031D01*
X169201293Y-115467031D01*
X169199296Y-115396552D01*
X169208648Y-115253402D01*
G37*
G36*
X170802743Y-107187316D02*
G01*
X170871784Y-107437792D01*
X170928431Y-107693701D01*
X170972635Y-107953991D01*
X171004342Y-108217611D01*
X171023502Y-108483510D01*
X171030061Y-108750635D01*
X171023969Y-109017935D01*
X171005173Y-109284358D01*
X170973622Y-109548853D01*
X170931482Y-109798957D01*
X170873161Y-110064173D01*
X170801501Y-110325781D01*
X170716758Y-110583261D01*
X170619185Y-110836096D01*
X170509038Y-111083767D01*
X170386573Y-111325756D01*
X170252043Y-111561544D01*
X170105705Y-111790613D01*
X169947813Y-112012443D01*
X169778622Y-112226518D01*
X169681821Y-112339654D01*
X169659695Y-112364050D01*
X169640322Y-112384017D01*
X169625798Y-112397486D01*
X169618244Y-112402388D01*
X169612417Y-112397762D01*
X169596712Y-112384147D01*
X169571566Y-112361934D01*
X169537412Y-112331516D01*
X169494684Y-112293286D01*
X169443817Y-112247634D01*
X169385246Y-112194955D01*
X169319406Y-112135639D01*
X169246729Y-112070080D01*
X169167652Y-111998669D01*
X169082608Y-111921799D01*
X168992032Y-111839862D01*
X168896358Y-111753251D01*
X168796022Y-111662357D01*
X168691457Y-111567573D01*
X168583097Y-111469291D01*
X168471378Y-111367903D01*
X168356734Y-111263803D01*
X168286501Y-111200000D01*
X168087660Y-111019336D01*
X167898873Y-110847812D01*
X167719879Y-110685192D01*
X167550415Y-110531239D01*
X167390219Y-110385718D01*
X167239030Y-110248392D01*
X167096584Y-110119027D01*
X166962620Y-109997384D01*
X166836875Y-109883230D01*
X166719088Y-109776326D01*
X166608996Y-109676438D01*
X166506337Y-109583330D01*
X166410848Y-109496764D01*
X166322269Y-109416506D01*
X166240336Y-109342319D01*
X166164787Y-109273968D01*
X166095360Y-109211215D01*
X166031794Y-109153826D01*
X165973825Y-109101563D01*
X165921192Y-109054192D01*
X165873632Y-109011476D01*
X165830884Y-108973178D01*
X165792685Y-108939063D01*
X165758773Y-108908896D01*
X165728886Y-108882438D01*
X165702762Y-108859456D01*
X165680138Y-108839712D01*
X165660752Y-108822971D01*
X165644342Y-108808997D01*
X165630647Y-108797553D01*
X165619403Y-108788403D01*
X165610349Y-108781312D01*
X165603223Y-108776044D01*
X165597762Y-108772362D01*
X165593704Y-108770030D01*
X165590787Y-108768812D01*
X165588749Y-108768473D01*
X165587327Y-108768775D01*
X165586663Y-108769166D01*
X165580697Y-108774423D01*
X165564765Y-108788732D01*
X165539223Y-108811773D01*
X165504424Y-108843223D01*
X165460722Y-108882763D01*
X165408471Y-108930070D01*
X165348025Y-108984824D01*
X165279739Y-109046704D01*
X165203966Y-109115388D01*
X165121060Y-109190556D01*
X165031376Y-109271886D01*
X164935267Y-109359057D01*
X164833088Y-109451748D01*
X164725192Y-109549638D01*
X164611934Y-109652406D01*
X164493667Y-109759731D01*
X164370746Y-109871291D01*
X164243525Y-109986765D01*
X164112358Y-110105833D01*
X163977598Y-110228174D01*
X163839600Y-110353465D01*
X163698718Y-110481386D01*
X163579007Y-110590093D01*
X163436057Y-110719901D01*
X163295726Y-110847315D01*
X163158367Y-110972018D01*
X163024333Y-111093689D01*
X162893974Y-111212009D01*
X162767645Y-111326658D01*
X162645697Y-111437316D01*
X162528484Y-111543665D01*
X162416356Y-111645384D01*
X162309668Y-111742154D01*
X162208771Y-111833655D01*
X162114018Y-111919568D01*
X162025761Y-111999573D01*
X161944353Y-112073350D01*
X161870146Y-112140580D01*
X161803493Y-112200944D01*
X161744746Y-112254121D01*
X161694258Y-112299792D01*
X161652381Y-112337638D01*
X161619468Y-112367339D01*
X161595871Y-112388575D01*
X161581942Y-112401027D01*
X161577970Y-112404465D01*
X161571793Y-112400203D01*
X161558242Y-112387082D01*
X161538994Y-112366845D01*
X161515729Y-112341237D01*
X161500919Y-112324452D01*
X161327775Y-112115621D01*
X161165114Y-111897783D01*
X161013242Y-111671461D01*
X160872465Y-111437176D01*
X160743089Y-111195450D01*
X160625420Y-110946805D01*
X160519765Y-110691762D01*
X160479141Y-110583123D01*
X160397483Y-110337623D01*
X160328073Y-110086349D01*
X160270958Y-109830268D01*
X160226183Y-109570346D01*
X160193793Y-109307550D01*
X160173834Y-109042846D01*
X160166351Y-108777200D01*
X160171391Y-108511578D01*
X160188998Y-108246948D01*
X160219218Y-107984274D01*
X160262097Y-107724524D01*
X160317679Y-107468664D01*
X160330076Y-107419016D01*
X160344573Y-107363252D01*
X160358894Y-107310122D01*
X160372562Y-107261233D01*
X160385100Y-107218191D01*
X160396032Y-107182602D01*
X160404880Y-107156074D01*
X160411168Y-107140213D01*
X160413977Y-107136279D01*
X160421598Y-107138706D01*
X160440373Y-107145528D01*
X160468477Y-107156057D01*
X160504083Y-107169603D01*
X160545366Y-107185479D01*
X160578571Y-107198351D01*
X160779178Y-107274015D01*
X160992490Y-107349977D01*
X161217288Y-107425861D01*
X161452353Y-107501290D01*
X161696465Y-107575888D01*
X161948406Y-107649280D01*
X162206956Y-107721089D01*
X162470896Y-107790939D01*
X162635691Y-107832842D01*
X162860322Y-107889078D01*
X165080658Y-107889078D01*
X164718249Y-108251537D01*
X164355841Y-108613996D01*
X166844160Y-108613996D01*
X166481751Y-108251537D01*
X166119343Y-107889078D01*
X168335867Y-107889034D01*
X168489215Y-107851288D01*
X168688521Y-107801083D01*
X168891549Y-107747734D01*
X169096086Y-107691890D01*
X169299920Y-107634198D01*
X169500838Y-107575306D01*
X169696627Y-107515862D01*
X169885075Y-107456513D01*
X170063967Y-107397906D01*
X170217865Y-107345321D01*
X170273415Y-107325707D01*
X170333649Y-107304075D01*
X170396597Y-107281163D01*
X170460291Y-107257707D01*
X170522765Y-107234445D01*
X170582051Y-107212114D01*
X170636179Y-107191451D01*
X170683182Y-107173193D01*
X170721093Y-107158077D01*
X170747943Y-107146840D01*
X170749087Y-107146337D01*
X170785413Y-107130313D01*
X170802743Y-107187316D01*
G37*
G36*
X168715752Y-118030955D02*
G01*
X168304501Y-118030955D01*
X168304501Y-119083480D01*
X168193063Y-119083480D01*
X168191277Y-118558960D01*
X168189490Y-118034440D01*
X167985607Y-118032592D01*
X167781724Y-118030745D01*
X167781724Y-117933370D01*
X168715752Y-117933370D01*
X168715752Y-118030955D01*
G37*
G36*
X165731984Y-103325474D02*
G01*
X165798606Y-103326606D01*
X165856271Y-103328396D01*
X165885785Y-103329813D01*
X166165879Y-103352421D01*
X166441420Y-103388190D01*
X166712360Y-103437102D01*
X166978650Y-103499143D01*
X167240244Y-103574297D01*
X167497093Y-103662547D01*
X167749149Y-103763878D01*
X167996365Y-103878275D01*
X168238692Y-104005721D01*
X168476083Y-104146201D01*
X168592545Y-104221080D01*
X168769957Y-104343172D01*
X168939467Y-104470190D01*
X169103511Y-104604154D01*
X169264529Y-104747084D01*
X169424958Y-104901000D01*
X169479104Y-104955481D01*
X169666486Y-105155943D01*
X169842868Y-105364689D01*
X170007928Y-105581302D01*
X170161345Y-105805362D01*
X170287756Y-106010566D01*
X170307638Y-106045068D01*
X170329451Y-106083790D01*
X170352171Y-106124820D01*
X170374777Y-106166248D01*
X170396244Y-106206166D01*
X170415552Y-106242663D01*
X170431677Y-106273830D01*
X170443597Y-106297756D01*
X170450289Y-106312533D01*
X170451372Y-106316133D01*
X170444488Y-106316493D01*
X170424180Y-106316845D01*
X170390966Y-106317189D01*
X170345362Y-106317523D01*
X170287885Y-106317847D01*
X170219053Y-106318159D01*
X170139383Y-106318458D01*
X170049391Y-106318744D01*
X169949595Y-106319014D01*
X169840511Y-106319270D01*
X169722657Y-106319508D01*
X169596550Y-106319728D01*
X169462707Y-106319929D01*
X169321645Y-106320111D01*
X169173881Y-106320271D01*
X169019932Y-106320409D01*
X168860315Y-106320525D01*
X168695547Y-106320615D01*
X168526145Y-106320681D01*
X168352627Y-106320721D01*
X168180777Y-106320733D01*
X165910181Y-106320719D01*
X165761412Y-106070244D01*
X165729301Y-106016245D01*
X165699187Y-105965730D01*
X165671860Y-105920014D01*
X165648109Y-105880412D01*
X165628723Y-105848237D01*
X165614491Y-105824805D01*
X165606203Y-105811431D01*
X165604579Y-105808986D01*
X165601543Y-105808095D01*
X165596375Y-105811824D01*
X165588484Y-105821078D01*
X165577276Y-105836766D01*
X165562162Y-105859793D01*
X165542550Y-105891067D01*
X165517848Y-105931493D01*
X165487464Y-105981980D01*
X165450807Y-106043433D01*
X165442307Y-106057731D01*
X165288099Y-106317261D01*
X163014815Y-106319015D01*
X160741531Y-106320768D01*
X160779977Y-106244108D01*
X160805381Y-106195189D01*
X160836669Y-106137707D01*
X160872067Y-106074749D01*
X160909802Y-106009401D01*
X160948100Y-105944748D01*
X160985189Y-105883877D01*
X161006854Y-105849303D01*
X161159398Y-105621846D01*
X161322742Y-105402899D01*
X161496448Y-105192825D01*
X161680080Y-104991988D01*
X161873201Y-104800751D01*
X162075373Y-104619476D01*
X162286161Y-104448527D01*
X162505127Y-104288266D01*
X162731834Y-104139057D01*
X162965846Y-104001262D01*
X163206726Y-103875246D01*
X163454036Y-103761370D01*
X163584096Y-103707447D01*
X163819891Y-103619465D01*
X164057552Y-103543223D01*
X164298534Y-103478386D01*
X164544287Y-103424615D01*
X164796266Y-103381574D01*
X165055923Y-103348927D01*
X165181779Y-103337013D01*
X165228490Y-103333812D01*
X165286593Y-103331061D01*
X165353543Y-103328786D01*
X165426797Y-103327014D01*
X165503812Y-103325771D01*
X165582043Y-103325083D01*
X165658948Y-103324975D01*
X165731984Y-103325474D01*
G37*
G36*
X172892064Y-117933892D02*
G01*
X172913016Y-117934910D01*
X172924563Y-117936442D01*
X172925851Y-117937225D01*
X172922290Y-117943688D01*
X172912031Y-117960967D01*
X172895706Y-117988024D01*
X172873952Y-118023819D01*
X172847402Y-118067314D01*
X172816691Y-118117469D01*
X172782452Y-118173245D01*
X172745321Y-118233602D01*
X172706285Y-118296929D01*
X172486718Y-118652778D01*
X172486718Y-119083480D01*
X172368222Y-119083480D01*
X172368222Y-118646822D01*
X172149106Y-118291838D01*
X171929990Y-117936855D01*
X171989992Y-117934824D01*
X172024139Y-117934546D01*
X172046104Y-117936583D01*
X172057481Y-117941096D01*
X172058194Y-117941794D01*
X172063358Y-117949418D01*
X172074978Y-117967777D01*
X172092314Y-117995667D01*
X172114628Y-118031885D01*
X172141180Y-118075226D01*
X172171229Y-118124486D01*
X172204037Y-118178461D01*
X172238864Y-118235946D01*
X172239248Y-118236581D01*
X172274134Y-118294226D01*
X172307017Y-118348497D01*
X172337153Y-118398171D01*
X172363799Y-118442026D01*
X172386212Y-118478840D01*
X172403648Y-118507391D01*
X172415364Y-118526456D01*
X172420618Y-118534814D01*
X172420622Y-118534820D01*
X172423246Y-118536454D01*
X172427360Y-118534707D01*
X172433547Y-118528701D01*
X172442393Y-118517559D01*
X172454481Y-118500403D01*
X172470395Y-118476355D01*
X172490719Y-118444538D01*
X172516038Y-118404075D01*
X172546936Y-118354087D01*
X172583996Y-118293697D01*
X172616506Y-118240529D01*
X172803870Y-117933783D01*
X172864860Y-117933577D01*
X172892064Y-117933892D01*
G37*
G36*
X173681397Y-113890560D02*
G01*
X173799013Y-113890603D01*
X173903607Y-113890751D01*
X173996093Y-113891030D01*
X174077391Y-113891469D01*
X174148417Y-113892096D01*
X174210088Y-113892937D01*
X174263321Y-113894021D01*
X174309033Y-113895375D01*
X174348142Y-113897027D01*
X174381564Y-113899004D01*
X174410217Y-113901335D01*
X174435018Y-113904046D01*
X174456884Y-113907165D01*
X174476732Y-113910720D01*
X174495479Y-113914738D01*
X174497148Y-113915124D01*
X174602783Y-113946762D01*
X174704335Y-113991127D01*
X174800581Y-114047301D01*
X174890300Y-114114368D01*
X174972268Y-114191408D01*
X175045263Y-114277506D01*
X175108063Y-114371744D01*
X175109958Y-114375000D01*
X175153458Y-114457540D01*
X175186258Y-114537761D01*
X175209379Y-114619289D01*
X175223843Y-114705750D01*
X175230672Y-114800768D01*
X175230766Y-114803677D01*
X175231428Y-114881898D01*
X175227801Y-114951106D01*
X175219383Y-115015707D01*
X175205672Y-115080104D01*
X175194605Y-115120791D01*
X175160481Y-115215231D01*
X175114483Y-115307096D01*
X175058088Y-115394552D01*
X174992774Y-115475770D01*
X174920018Y-115548917D01*
X174841298Y-115612162D01*
X174758092Y-115663673D01*
X174755428Y-115665078D01*
X174731883Y-115678493D01*
X174714723Y-115690343D01*
X174706579Y-115698730D01*
X174706348Y-115700501D01*
X174710730Y-115707151D01*
X174722702Y-115724393D01*
X174741737Y-115751486D01*
X174767309Y-115787688D01*
X174798890Y-115832259D01*
X174835954Y-115884455D01*
X174877973Y-115943537D01*
X174924420Y-116008763D01*
X174974770Y-116079391D01*
X175028493Y-116154679D01*
X175085065Y-116233886D01*
X175143957Y-116316272D01*
X175148824Y-116323077D01*
X175207884Y-116405665D01*
X175264684Y-116485108D01*
X175318696Y-116560667D01*
X175369393Y-116631603D01*
X175416246Y-116697177D01*
X175458726Y-116756648D01*
X175496307Y-116809279D01*
X175528460Y-116854329D01*
X175554657Y-116891059D01*
X175574370Y-116918731D01*
X175587072Y-116936603D01*
X175592233Y-116943939D01*
X175592306Y-116944050D01*
X175586392Y-116945493D01*
X175567254Y-116946780D01*
X175535609Y-116947900D01*
X175492172Y-116948840D01*
X175437660Y-116949588D01*
X175372790Y-116950130D01*
X175298277Y-116950454D01*
X175224144Y-116950549D01*
X174851966Y-116950549D01*
X174023956Y-115786499D01*
X173657739Y-115786499D01*
X173657739Y-116950549D01*
X173051318Y-116950549D01*
X173051318Y-115180836D01*
X173657739Y-115180836D01*
X173983603Y-115178394D01*
X174061395Y-115177758D01*
X174126559Y-115177081D01*
X174180413Y-115176312D01*
X174224269Y-115175400D01*
X174259443Y-115174293D01*
X174287250Y-115172939D01*
X174309003Y-115171287D01*
X174326017Y-115169285D01*
X174339608Y-115166882D01*
X174351089Y-115164027D01*
X174351290Y-115163969D01*
X174421282Y-115137942D01*
X174482341Y-115102997D01*
X174533686Y-115060058D01*
X174574536Y-115010051D01*
X174604110Y-114953899D01*
X174621627Y-114892527D01*
X174626449Y-114838251D01*
X174620024Y-114777180D01*
X174601171Y-114717935D01*
X174571337Y-114662933D01*
X174531966Y-114614592D01*
X174484505Y-114575331D01*
X174460887Y-114561267D01*
X174433414Y-114547652D01*
X174405604Y-114536061D01*
X174376111Y-114526338D01*
X174343593Y-114518328D01*
X174306703Y-114511876D01*
X174264100Y-114506825D01*
X174214438Y-114503020D01*
X174156374Y-114500306D01*
X174088564Y-114498526D01*
X174009663Y-114497526D01*
X173918328Y-114497150D01*
X173906930Y-114497140D01*
X173657739Y-114496982D01*
X173657739Y-115180836D01*
X173051318Y-115180836D01*
X173051318Y-113890560D01*
X173681397Y-113890560D01*
G37*
G36*
X163728202Y-114774053D02*
G01*
X163814988Y-114870466D01*
X163899299Y-114964074D01*
X163980659Y-115054353D01*
X164058593Y-115140777D01*
X164132626Y-115222822D01*
X164202283Y-115299961D01*
X164267088Y-115371670D01*
X164326567Y-115437424D01*
X164380244Y-115496697D01*
X164427643Y-115548963D01*
X164468291Y-115593699D01*
X164501711Y-115630378D01*
X164527428Y-115658475D01*
X164544968Y-115677465D01*
X164553854Y-115686823D01*
X164554880Y-115687752D01*
X164555846Y-115681208D01*
X164556747Y-115661151D01*
X164557578Y-115628010D01*
X164558336Y-115582212D01*
X164559018Y-115524185D01*
X164559622Y-115454356D01*
X164560144Y-115373155D01*
X164560581Y-115281009D01*
X164560929Y-115178345D01*
X164561187Y-115065592D01*
X164561350Y-114943178D01*
X164561415Y-114811530D01*
X164561416Y-114790318D01*
X164561416Y-113890560D01*
X165160867Y-113890560D01*
X165160867Y-116985401D01*
X164891052Y-116985401D01*
X164069278Y-116072242D01*
X163247503Y-115159083D01*
X163243965Y-116950549D01*
X162637596Y-116950549D01*
X162637596Y-113862679D01*
X162908062Y-113862679D01*
X163728202Y-114774053D01*
G37*
%TO.C,REF\u002A\u002A*%
X171075000Y-96575000D02*
X178425000Y-96575000D01*
X178425000Y-96575000D02*
X178425000Y-103425000D01*
X178425000Y-103425000D02*
X171075000Y-103425000D01*
X171075000Y-103425000D02*
X171075000Y-96575000D01*
X172000000Y-97000000D02*
X178000000Y-97000000D01*
X178000000Y-97000000D02*
X178000000Y-103000000D01*
X178000000Y-103000000D02*
X172000000Y-103000000D01*
X172000000Y-103000000D02*
X172000000Y-97000000D01*
%TD*%
M02*
