%TF.GenerationSoftware,KiCad,Pcbnew,(6.0.8-1)-1*%
%TF.CreationDate,2022-12-29T09:01:56-05:00*%
%TF.ProjectId,Condor,436f6e64-6f72-42e6-9b69-6361645f7063,rev?*%
%TF.SameCoordinates,Original*%
%TF.FileFunction,Drillmap*%
%TF.FilePolarity,Positive*%
%FSLAX45Y45*%
G04 Gerber Fmt 4.5, Leading zero omitted, Abs format (unit mm)*
G04 Created by KiCad (PCBNEW (6.0.8-1)-1) date 2022-12-29 09:01:56*
%MOMM*%
%LPD*%
G01*
G04 APERTURE LIST*
%ADD10C,0.100000*%
%ADD11C,0.200000*%
G04 APERTURE END LIST*
D10*
X19500000Y-12000000D02*
X15500000Y-12000000D01*
X15500000Y-12000000D02*
X15500000Y-8000000D01*
X15500000Y-8000000D02*
X19500000Y-8000000D01*
X19500000Y-8000000D02*
X19500000Y-12000000D01*
D11*
X15752619Y-12315476D02*
X15752619Y-12115476D01*
X15800238Y-12115476D01*
X15828809Y-12125000D01*
X15847857Y-12144048D01*
X15857381Y-12163095D01*
X15866905Y-12201190D01*
X15866905Y-12229762D01*
X15857381Y-12267857D01*
X15847857Y-12286905D01*
X15828809Y-12305952D01*
X15800238Y-12315476D01*
X15752619Y-12315476D01*
X15952619Y-12315476D02*
X15952619Y-12182143D01*
X15952619Y-12220238D02*
X15962143Y-12201190D01*
X15971667Y-12191667D01*
X15990714Y-12182143D01*
X16009762Y-12182143D01*
X16076428Y-12315476D02*
X16076428Y-12182143D01*
X16076428Y-12115476D02*
X16066905Y-12125000D01*
X16076428Y-12134524D01*
X16085952Y-12125000D01*
X16076428Y-12115476D01*
X16076428Y-12134524D01*
X16200238Y-12315476D02*
X16181190Y-12305952D01*
X16171667Y-12286905D01*
X16171667Y-12115476D01*
X16305000Y-12315476D02*
X16285952Y-12305952D01*
X16276428Y-12286905D01*
X16276428Y-12115476D01*
X16533571Y-12315476D02*
X16533571Y-12115476D01*
X16600238Y-12258333D01*
X16666905Y-12115476D01*
X16666905Y-12315476D01*
X16847857Y-12315476D02*
X16847857Y-12210714D01*
X16838333Y-12191667D01*
X16819286Y-12182143D01*
X16781190Y-12182143D01*
X16762143Y-12191667D01*
X16847857Y-12305952D02*
X16828810Y-12315476D01*
X16781190Y-12315476D01*
X16762143Y-12305952D01*
X16752619Y-12286905D01*
X16752619Y-12267857D01*
X16762143Y-12248809D01*
X16781190Y-12239286D01*
X16828810Y-12239286D01*
X16847857Y-12229762D01*
X16943095Y-12182143D02*
X16943095Y-12382143D01*
X16943095Y-12191667D02*
X16962143Y-12182143D01*
X17000238Y-12182143D01*
X17019286Y-12191667D01*
X17028810Y-12201190D01*
X17038333Y-12220238D01*
X17038333Y-12277381D01*
X17028810Y-12296428D01*
X17019286Y-12305952D01*
X17000238Y-12315476D01*
X16962143Y-12315476D01*
X16943095Y-12305952D01*
X17124048Y-12296428D02*
X17133571Y-12305952D01*
X17124048Y-12315476D01*
X17114524Y-12305952D01*
X17124048Y-12296428D01*
X17124048Y-12315476D01*
X17124048Y-12191667D02*
X17133571Y-12201190D01*
X17124048Y-12210714D01*
X17114524Y-12201190D01*
X17124048Y-12191667D01*
X17124048Y-12210714D01*
M02*
