%TF.GenerationSoftware,KiCad,Pcbnew,(6.0.8-1)-1*%
%TF.CreationDate,2022-12-29T09:02:00-05:00*%
%TF.ProjectId,Condor,436f6e64-6f72-42e6-9b69-6361645f7063,rev?*%
%TF.SameCoordinates,Original*%
%TF.FileFunction,Legend,Bot*%
%TF.FilePolarity,Positive*%
%FSLAX46Y46*%
G04 Gerber Fmt 4.6, Leading zero omitted, Abs format (unit mm)*
G04 Created by KiCad (PCBNEW (6.0.8-1)-1) date 2022-12-29 09:02:00*
%MOMM*%
%LPD*%
G01*
G04 APERTURE LIST*
%ADD10C,0.150000*%
%ADD11C,0.127000*%
%ADD12C,0.200000*%
G04 APERTURE END LIST*
D10*
X185238095Y-104147380D02*
X184666666Y-104147380D01*
X184952380Y-105147380D02*
X184952380Y-104147380D01*
X183952380Y-105099761D02*
X184047619Y-105147380D01*
X184238095Y-105147380D01*
X184333333Y-105099761D01*
X184380952Y-105004523D01*
X184380952Y-104623571D01*
X184333333Y-104528333D01*
X184238095Y-104480714D01*
X184047619Y-104480714D01*
X183952380Y-104528333D01*
X183904761Y-104623571D01*
X183904761Y-104718809D01*
X184380952Y-104814047D01*
X183476190Y-105147380D02*
X183476190Y-104480714D01*
X183476190Y-104575952D02*
X183428571Y-104528333D01*
X183333333Y-104480714D01*
X183190476Y-104480714D01*
X183095238Y-104528333D01*
X183047619Y-104623571D01*
X183047619Y-105147380D01*
X183047619Y-104623571D02*
X183000000Y-104528333D01*
X182904761Y-104480714D01*
X182761904Y-104480714D01*
X182666666Y-104528333D01*
X182619047Y-104623571D01*
X182619047Y-105147380D01*
X182142857Y-104480714D02*
X182142857Y-105480714D01*
X182142857Y-104528333D02*
X182047619Y-104480714D01*
X181857142Y-104480714D01*
X181761904Y-104528333D01*
X181714285Y-104575952D01*
X181666666Y-104671190D01*
X181666666Y-104956904D01*
X181714285Y-105052142D01*
X181761904Y-105099761D01*
X181857142Y-105147380D01*
X182047619Y-105147380D01*
X182142857Y-105099761D01*
X180523809Y-105099761D02*
X180380952Y-105147380D01*
X180142857Y-105147380D01*
X180047619Y-105099761D01*
X180000000Y-105052142D01*
X179952380Y-104956904D01*
X179952380Y-104861666D01*
X180000000Y-104766428D01*
X180047619Y-104718809D01*
X180142857Y-104671190D01*
X180333333Y-104623571D01*
X180428571Y-104575952D01*
X180476190Y-104528333D01*
X180523809Y-104433095D01*
X180523809Y-104337857D01*
X180476190Y-104242619D01*
X180428571Y-104195000D01*
X180333333Y-104147380D01*
X180095238Y-104147380D01*
X179952380Y-104195000D01*
X179142857Y-105099761D02*
X179238095Y-105147380D01*
X179428571Y-105147380D01*
X179523809Y-105099761D01*
X179571428Y-105004523D01*
X179571428Y-104623571D01*
X179523809Y-104528333D01*
X179428571Y-104480714D01*
X179238095Y-104480714D01*
X179142857Y-104528333D01*
X179095238Y-104623571D01*
X179095238Y-104718809D01*
X179571428Y-104814047D01*
X178666666Y-104480714D02*
X178666666Y-105147380D01*
X178666666Y-104575952D02*
X178619047Y-104528333D01*
X178523809Y-104480714D01*
X178380952Y-104480714D01*
X178285714Y-104528333D01*
X178238095Y-104623571D01*
X178238095Y-105147380D01*
X177809523Y-105099761D02*
X177714285Y-105147380D01*
X177523809Y-105147380D01*
X177428571Y-105099761D01*
X177380952Y-105004523D01*
X177380952Y-104956904D01*
X177428571Y-104861666D01*
X177523809Y-104814047D01*
X177666666Y-104814047D01*
X177761904Y-104766428D01*
X177809523Y-104671190D01*
X177809523Y-104623571D01*
X177761904Y-104528333D01*
X177666666Y-104480714D01*
X177523809Y-104480714D01*
X177428571Y-104528333D01*
X176809523Y-105147380D02*
X176904761Y-105099761D01*
X176952380Y-105052142D01*
X177000000Y-104956904D01*
X177000000Y-104671190D01*
X176952380Y-104575952D01*
X176904761Y-104528333D01*
X176809523Y-104480714D01*
X176666666Y-104480714D01*
X176571428Y-104528333D01*
X176523809Y-104575952D01*
X176476190Y-104671190D01*
X176476190Y-104956904D01*
X176523809Y-105052142D01*
X176571428Y-105099761D01*
X176666666Y-105147380D01*
X176809523Y-105147380D01*
X176047619Y-105147380D02*
X176047619Y-104480714D01*
X176047619Y-104671190D02*
X176000000Y-104575952D01*
X175952380Y-104528333D01*
X175857142Y-104480714D01*
X175761904Y-104480714D01*
X188047619Y-106757380D02*
X188523809Y-106757380D01*
X188523809Y-105757380D01*
X187714285Y-106757380D02*
X187714285Y-105757380D01*
X187380952Y-106471666D01*
X187047619Y-105757380D01*
X187047619Y-106757380D01*
X186523809Y-106757380D02*
X186333333Y-106757380D01*
X186238095Y-106709761D01*
X186190476Y-106662142D01*
X186095238Y-106519285D01*
X186047619Y-106328809D01*
X186047619Y-105947857D01*
X186095238Y-105852619D01*
X186142857Y-105805000D01*
X186238095Y-105757380D01*
X186428571Y-105757380D01*
X186523809Y-105805000D01*
X186571428Y-105852619D01*
X186619047Y-105947857D01*
X186619047Y-106185952D01*
X186571428Y-106281190D01*
X186523809Y-106328809D01*
X186428571Y-106376428D01*
X186238095Y-106376428D01*
X186142857Y-106328809D01*
X186095238Y-106281190D01*
X186047619Y-106185952D01*
X185190476Y-106090714D02*
X185190476Y-106757380D01*
X185428571Y-105709761D02*
X185666666Y-106424047D01*
X185047619Y-106424047D01*
X184476190Y-105757380D02*
X184380952Y-105757380D01*
X184285714Y-105805000D01*
X184238095Y-105852619D01*
X184190476Y-105947857D01*
X184142857Y-106138333D01*
X184142857Y-106376428D01*
X184190476Y-106566904D01*
X184238095Y-106662142D01*
X184285714Y-106709761D01*
X184380952Y-106757380D01*
X184476190Y-106757380D01*
X184571428Y-106709761D01*
X184619047Y-106662142D01*
X184666666Y-106566904D01*
X184714285Y-106376428D01*
X184714285Y-106138333D01*
X184666666Y-105947857D01*
X184619047Y-105852619D01*
X184571428Y-105805000D01*
X184476190Y-105757380D01*
X183761904Y-105852619D02*
X183714285Y-105805000D01*
X183619047Y-105757380D01*
X183380952Y-105757380D01*
X183285714Y-105805000D01*
X183238095Y-105852619D01*
X183190476Y-105947857D01*
X183190476Y-106043095D01*
X183238095Y-106185952D01*
X183809523Y-106757380D01*
X183190476Y-106757380D01*
X182238095Y-106757380D02*
X182809523Y-106757380D01*
X182523809Y-106757380D02*
X182523809Y-105757380D01*
X182619047Y-105900238D01*
X182714285Y-105995476D01*
X182809523Y-106043095D01*
X181142857Y-106852619D02*
X181238095Y-106805000D01*
X181333333Y-106709761D01*
X181476190Y-106566904D01*
X181571428Y-106519285D01*
X181666666Y-106519285D01*
X181619047Y-106757380D02*
X181714285Y-106709761D01*
X181809523Y-106614523D01*
X181857142Y-106424047D01*
X181857142Y-106090714D01*
X181809523Y-105900238D01*
X181714285Y-105805000D01*
X181619047Y-105757380D01*
X181428571Y-105757380D01*
X181333333Y-105805000D01*
X181238095Y-105900238D01*
X181190476Y-106090714D01*
X181190476Y-106424047D01*
X181238095Y-106614523D01*
X181333333Y-106709761D01*
X181428571Y-106757380D01*
X181619047Y-106757380D01*
X180428571Y-106233571D02*
X180285714Y-106281190D01*
X180238095Y-106328809D01*
X180190476Y-106424047D01*
X180190476Y-106566904D01*
X180238095Y-106662142D01*
X180285714Y-106709761D01*
X180380952Y-106757380D01*
X180761904Y-106757380D01*
X180761904Y-105757380D01*
X180428571Y-105757380D01*
X180333333Y-105805000D01*
X180285714Y-105852619D01*
X180238095Y-105947857D01*
X180238095Y-106043095D01*
X180285714Y-106138333D01*
X180333333Y-106185952D01*
X180428571Y-106233571D01*
X180761904Y-106233571D01*
X179761904Y-106757380D02*
X179761904Y-105757380D01*
X179285714Y-106757380D02*
X179285714Y-105757380D01*
X178952380Y-106471666D01*
X178619047Y-105757380D01*
X178619047Y-106757380D01*
X177619047Y-105805000D02*
X177714285Y-105757380D01*
X177857142Y-105757380D01*
X178000000Y-105805000D01*
X178095238Y-105900238D01*
X178142857Y-105995476D01*
X178190476Y-106185952D01*
X178190476Y-106328809D01*
X178142857Y-106519285D01*
X178095238Y-106614523D01*
X178000000Y-106709761D01*
X177857142Y-106757380D01*
X177761904Y-106757380D01*
X177619047Y-106709761D01*
X177571428Y-106662142D01*
X177571428Y-106328809D01*
X177761904Y-106328809D01*
X176428571Y-105709761D02*
X177285714Y-106995476D01*
X176095238Y-106757380D02*
X176095238Y-105757380D01*
X175523809Y-106757380D01*
X175523809Y-105757380D01*
X174857142Y-105757380D02*
X174666666Y-105757380D01*
X174571428Y-105805000D01*
X174476190Y-105900238D01*
X174428571Y-106090714D01*
X174428571Y-106424047D01*
X174476190Y-106614523D01*
X174571428Y-106709761D01*
X174666666Y-106757380D01*
X174857142Y-106757380D01*
X174952380Y-106709761D01*
X175047619Y-106614523D01*
X175095238Y-106424047D01*
X175095238Y-106090714D01*
X175047619Y-105900238D01*
X174952380Y-105805000D01*
X174857142Y-105757380D01*
X174000000Y-106757380D02*
X174000000Y-105757380D01*
X173619047Y-105757380D01*
X173523809Y-105805000D01*
X173476190Y-105852619D01*
X173428571Y-105947857D01*
X173428571Y-106090714D01*
X173476190Y-106185952D01*
X173523809Y-106233571D01*
X173619047Y-106281190D01*
X174000000Y-106281190D01*
X172666666Y-106233571D02*
X172523809Y-106281190D01*
X172476190Y-106328809D01*
X172428571Y-106424047D01*
X172428571Y-106566904D01*
X172476190Y-106662142D01*
X172523809Y-106709761D01*
X172619047Y-106757380D01*
X173000000Y-106757380D01*
X173000000Y-105757380D01*
X172666666Y-105757380D01*
X172571428Y-105805000D01*
X172523809Y-105852619D01*
X172476190Y-105947857D01*
X172476190Y-106043095D01*
X172523809Y-106138333D01*
X172571428Y-106185952D01*
X172666666Y-106233571D01*
X173000000Y-106233571D01*
X193357142Y-85309523D02*
X193404761Y-85261904D01*
X193452380Y-85119047D01*
X193452380Y-85023809D01*
X193404761Y-84880952D01*
X193309523Y-84785714D01*
X193214285Y-84738095D01*
X193023809Y-84690476D01*
X192880952Y-84690476D01*
X192690476Y-84738095D01*
X192595238Y-84785714D01*
X192500000Y-84880952D01*
X192452380Y-85023809D01*
X192452380Y-85119047D01*
X192500000Y-85261904D01*
X192547619Y-85309523D01*
X193452380Y-85880952D02*
X193404761Y-85785714D01*
X193357142Y-85738095D01*
X193261904Y-85690476D01*
X192976190Y-85690476D01*
X192880952Y-85738095D01*
X192833333Y-85785714D01*
X192785714Y-85880952D01*
X192785714Y-86023809D01*
X192833333Y-86119047D01*
X192880952Y-86166666D01*
X192976190Y-86214285D01*
X193261904Y-86214285D01*
X193357142Y-86166666D01*
X193404761Y-86119047D01*
X193452380Y-86023809D01*
X193452380Y-85880952D01*
X192785714Y-86642857D02*
X193452380Y-86642857D01*
X192880952Y-86642857D02*
X192833333Y-86690476D01*
X192785714Y-86785714D01*
X192785714Y-86928571D01*
X192833333Y-87023809D01*
X192928571Y-87071428D01*
X193452380Y-87071428D01*
X192785714Y-87547619D02*
X193452380Y-87547619D01*
X192880952Y-87547619D02*
X192833333Y-87595238D01*
X192785714Y-87690476D01*
X192785714Y-87833333D01*
X192833333Y-87928571D01*
X192928571Y-87976190D01*
X193452380Y-87976190D01*
X193404761Y-88833333D02*
X193452380Y-88738095D01*
X193452380Y-88547619D01*
X193404761Y-88452380D01*
X193309523Y-88404761D01*
X192928571Y-88404761D01*
X192833333Y-88452380D01*
X192785714Y-88547619D01*
X192785714Y-88738095D01*
X192833333Y-88833333D01*
X192928571Y-88880952D01*
X193023809Y-88880952D01*
X193119047Y-88404761D01*
X193404761Y-89738095D02*
X193452380Y-89642857D01*
X193452380Y-89452380D01*
X193404761Y-89357142D01*
X193357142Y-89309523D01*
X193261904Y-89261904D01*
X192976190Y-89261904D01*
X192880952Y-89309523D01*
X192833333Y-89357142D01*
X192785714Y-89452380D01*
X192785714Y-89642857D01*
X192833333Y-89738095D01*
X192785714Y-90023809D02*
X192785714Y-90404761D01*
X192452380Y-90166666D02*
X193309523Y-90166666D01*
X193404761Y-90214285D01*
X193452380Y-90309523D01*
X193452380Y-90404761D01*
X193452380Y-90880952D02*
X193404761Y-90785714D01*
X193357142Y-90738095D01*
X193261904Y-90690476D01*
X192976190Y-90690476D01*
X192880952Y-90738095D01*
X192833333Y-90785714D01*
X192785714Y-90880952D01*
X192785714Y-91023809D01*
X192833333Y-91119047D01*
X192880952Y-91166666D01*
X192976190Y-91214285D01*
X193261904Y-91214285D01*
X193357142Y-91166666D01*
X193404761Y-91119047D01*
X193452380Y-91023809D01*
X193452380Y-90880952D01*
X193452380Y-91642857D02*
X192785714Y-91642857D01*
X192976190Y-91642857D02*
X192880952Y-91690476D01*
X192833333Y-91738095D01*
X192785714Y-91833333D01*
X192785714Y-91928571D01*
X192785714Y-92880952D02*
X192785714Y-93261904D01*
X193452380Y-93023809D02*
X192595238Y-93023809D01*
X192500000Y-93071428D01*
X192452380Y-93166666D01*
X192452380Y-93261904D01*
X193452380Y-93738095D02*
X193404761Y-93642857D01*
X193357142Y-93595238D01*
X193261904Y-93547619D01*
X192976190Y-93547619D01*
X192880952Y-93595238D01*
X192833333Y-93642857D01*
X192785714Y-93738095D01*
X192785714Y-93880952D01*
X192833333Y-93976190D01*
X192880952Y-94023809D01*
X192976190Y-94071428D01*
X193261904Y-94071428D01*
X193357142Y-94023809D01*
X193404761Y-93976190D01*
X193452380Y-93880952D01*
X193452380Y-93738095D01*
X193452380Y-94500000D02*
X192785714Y-94500000D01*
X192976190Y-94500000D02*
X192880952Y-94547619D01*
X192833333Y-94595238D01*
X192785714Y-94690476D01*
X192785714Y-94785714D01*
X192452380Y-95738095D02*
X192452380Y-96309523D01*
X193452380Y-96023809D02*
X192452380Y-96023809D01*
X193404761Y-97023809D02*
X193452380Y-96928571D01*
X193452380Y-96738095D01*
X193404761Y-96642857D01*
X193309523Y-96595238D01*
X192928571Y-96595238D01*
X192833333Y-96642857D01*
X192785714Y-96738095D01*
X192785714Y-96928571D01*
X192833333Y-97023809D01*
X192928571Y-97071428D01*
X193023809Y-97071428D01*
X193119047Y-96595238D01*
X193452380Y-97500000D02*
X192785714Y-97500000D01*
X192880952Y-97500000D02*
X192833333Y-97547619D01*
X192785714Y-97642857D01*
X192785714Y-97785714D01*
X192833333Y-97880952D01*
X192928571Y-97928571D01*
X193452380Y-97928571D01*
X192928571Y-97928571D02*
X192833333Y-97976190D01*
X192785714Y-98071428D01*
X192785714Y-98214285D01*
X192833333Y-98309523D01*
X192928571Y-98357142D01*
X193452380Y-98357142D01*
X192785714Y-98833333D02*
X193785714Y-98833333D01*
X192833333Y-98833333D02*
X192785714Y-98928571D01*
X192785714Y-99119047D01*
X192833333Y-99214285D01*
X192880952Y-99261904D01*
X192976190Y-99309523D01*
X193261904Y-99309523D01*
X193357142Y-99261904D01*
X193404761Y-99214285D01*
X193452380Y-99119047D01*
X193452380Y-98928571D01*
X193404761Y-98833333D01*
X157757142Y-84752380D02*
X157804761Y-84704761D01*
X157852380Y-84561904D01*
X157852380Y-84466666D01*
X157804761Y-84323809D01*
X157709523Y-84228571D01*
X157614285Y-84180952D01*
X157423809Y-84133333D01*
X157280952Y-84133333D01*
X157090476Y-84180952D01*
X156995238Y-84228571D01*
X156900000Y-84323809D01*
X156852380Y-84466666D01*
X156852380Y-84561904D01*
X156900000Y-84704761D01*
X156947619Y-84752380D01*
X157852380Y-85323809D02*
X157804761Y-85228571D01*
X157757142Y-85180952D01*
X157661904Y-85133333D01*
X157376190Y-85133333D01*
X157280952Y-85180952D01*
X157233333Y-85228571D01*
X157185714Y-85323809D01*
X157185714Y-85466666D01*
X157233333Y-85561904D01*
X157280952Y-85609523D01*
X157376190Y-85657142D01*
X157661904Y-85657142D01*
X157757142Y-85609523D01*
X157804761Y-85561904D01*
X157852380Y-85466666D01*
X157852380Y-85323809D01*
X157185714Y-86085714D02*
X157852380Y-86085714D01*
X157280952Y-86085714D02*
X157233333Y-86133333D01*
X157185714Y-86228571D01*
X157185714Y-86371428D01*
X157233333Y-86466666D01*
X157328571Y-86514285D01*
X157852380Y-86514285D01*
X157185714Y-86990476D02*
X157852380Y-86990476D01*
X157280952Y-86990476D02*
X157233333Y-87038095D01*
X157185714Y-87133333D01*
X157185714Y-87276190D01*
X157233333Y-87371428D01*
X157328571Y-87419047D01*
X157852380Y-87419047D01*
X157804761Y-88276190D02*
X157852380Y-88180952D01*
X157852380Y-87990476D01*
X157804761Y-87895238D01*
X157709523Y-87847619D01*
X157328571Y-87847619D01*
X157233333Y-87895238D01*
X157185714Y-87990476D01*
X157185714Y-88180952D01*
X157233333Y-88276190D01*
X157328571Y-88323809D01*
X157423809Y-88323809D01*
X157519047Y-87847619D01*
X157804761Y-89180952D02*
X157852380Y-89085714D01*
X157852380Y-88895238D01*
X157804761Y-88800000D01*
X157757142Y-88752380D01*
X157661904Y-88704761D01*
X157376190Y-88704761D01*
X157280952Y-88752380D01*
X157233333Y-88800000D01*
X157185714Y-88895238D01*
X157185714Y-89085714D01*
X157233333Y-89180952D01*
X157185714Y-89466666D02*
X157185714Y-89847619D01*
X156852380Y-89609523D02*
X157709523Y-89609523D01*
X157804761Y-89657142D01*
X157852380Y-89752380D01*
X157852380Y-89847619D01*
X157852380Y-90323809D02*
X157804761Y-90228571D01*
X157757142Y-90180952D01*
X157661904Y-90133333D01*
X157376190Y-90133333D01*
X157280952Y-90180952D01*
X157233333Y-90228571D01*
X157185714Y-90323809D01*
X157185714Y-90466666D01*
X157233333Y-90561904D01*
X157280952Y-90609523D01*
X157376190Y-90657142D01*
X157661904Y-90657142D01*
X157757142Y-90609523D01*
X157804761Y-90561904D01*
X157852380Y-90466666D01*
X157852380Y-90323809D01*
X157852380Y-91085714D02*
X157185714Y-91085714D01*
X157376190Y-91085714D02*
X157280952Y-91133333D01*
X157233333Y-91180952D01*
X157185714Y-91276190D01*
X157185714Y-91371428D01*
X157185714Y-92323809D02*
X157185714Y-92704761D01*
X157852380Y-92466666D02*
X156995238Y-92466666D01*
X156900000Y-92514285D01*
X156852380Y-92609523D01*
X156852380Y-92704761D01*
X157852380Y-93180952D02*
X157804761Y-93085714D01*
X157757142Y-93038095D01*
X157661904Y-92990476D01*
X157376190Y-92990476D01*
X157280952Y-93038095D01*
X157233333Y-93085714D01*
X157185714Y-93180952D01*
X157185714Y-93323809D01*
X157233333Y-93419047D01*
X157280952Y-93466666D01*
X157376190Y-93514285D01*
X157661904Y-93514285D01*
X157757142Y-93466666D01*
X157804761Y-93419047D01*
X157852380Y-93323809D01*
X157852380Y-93180952D01*
X157852380Y-93942857D02*
X157185714Y-93942857D01*
X157376190Y-93942857D02*
X157280952Y-93990476D01*
X157233333Y-94038095D01*
X157185714Y-94133333D01*
X157185714Y-94228571D01*
X157804761Y-95276190D02*
X157852380Y-95419047D01*
X157852380Y-95657142D01*
X157804761Y-95752380D01*
X157757142Y-95800000D01*
X157661904Y-95847619D01*
X157566666Y-95847619D01*
X157471428Y-95800000D01*
X157423809Y-95752380D01*
X157376190Y-95657142D01*
X157328571Y-95466666D01*
X157280952Y-95371428D01*
X157233333Y-95323809D01*
X157138095Y-95276190D01*
X157042857Y-95276190D01*
X156947619Y-95323809D01*
X156900000Y-95371428D01*
X156852380Y-95466666D01*
X156852380Y-95704761D01*
X156900000Y-95847619D01*
X157852380Y-96276190D02*
X157185714Y-96276190D01*
X156852380Y-96276190D02*
X156900000Y-96228571D01*
X156947619Y-96276190D01*
X156900000Y-96323809D01*
X156852380Y-96276190D01*
X156947619Y-96276190D01*
X157852380Y-96752380D02*
X156852380Y-96752380D01*
X156852380Y-97133333D01*
X156900000Y-97228571D01*
X156947619Y-97276190D01*
X157042857Y-97323809D01*
X157185714Y-97323809D01*
X157280952Y-97276190D01*
X157328571Y-97228571D01*
X157376190Y-97133333D01*
X157376190Y-96752380D01*
X157852380Y-97752380D02*
X156852380Y-97752380D01*
X157566666Y-98085714D01*
X156852380Y-98419047D01*
X157852380Y-98419047D01*
X166766666Y-96961904D02*
X166766666Y-97438095D01*
X167052380Y-96866666D02*
X166052380Y-97200000D01*
X167052380Y-97533333D01*
X167052380Y-97866666D02*
X166052380Y-97866666D01*
X167052380Y-98438095D01*
X166052380Y-98438095D01*
X166052380Y-99104761D02*
X166052380Y-99295238D01*
X166100000Y-99390476D01*
X166195238Y-99485714D01*
X166385714Y-99533333D01*
X166719047Y-99533333D01*
X166909523Y-99485714D01*
X167004761Y-99390476D01*
X167052380Y-99295238D01*
X167052380Y-99104761D01*
X167004761Y-99009523D01*
X166909523Y-98914285D01*
X166719047Y-98866666D01*
X166385714Y-98866666D01*
X166195238Y-98914285D01*
X166100000Y-99009523D01*
X166052380Y-99104761D01*
X167052380Y-99961904D02*
X166052380Y-99961904D01*
X166052380Y-100200000D01*
X166100000Y-100342857D01*
X166195238Y-100438095D01*
X166290476Y-100485714D01*
X166480952Y-100533333D01*
X166623809Y-100533333D01*
X166814285Y-100485714D01*
X166909523Y-100438095D01*
X167004761Y-100342857D01*
X167052380Y-100200000D01*
X167052380Y-99961904D01*
X166528571Y-100961904D02*
X166528571Y-101295238D01*
X167052380Y-101438095D02*
X167052380Y-100961904D01*
X166052380Y-100961904D01*
X166052380Y-101438095D01*
X166857142Y-80900000D02*
X166904761Y-80852380D01*
X166952380Y-80709523D01*
X166952380Y-80614285D01*
X166904761Y-80471428D01*
X166809523Y-80376190D01*
X166714285Y-80328571D01*
X166523809Y-80280952D01*
X166380952Y-80280952D01*
X166190476Y-80328571D01*
X166095238Y-80376190D01*
X166000000Y-80471428D01*
X165952380Y-80614285D01*
X165952380Y-80709523D01*
X166000000Y-80852380D01*
X166047619Y-80900000D01*
X166666666Y-81280952D02*
X166666666Y-81757142D01*
X166952380Y-81185714D02*
X165952380Y-81519047D01*
X166952380Y-81852380D01*
X165952380Y-82042857D02*
X165952380Y-82614285D01*
X166952380Y-82328571D02*
X165952380Y-82328571D01*
X166952380Y-82947619D02*
X165952380Y-82947619D01*
X166428571Y-82947619D02*
X166428571Y-83519047D01*
X166952380Y-83519047D02*
X165952380Y-83519047D01*
X165952380Y-84185714D02*
X165952380Y-84376190D01*
X166000000Y-84471428D01*
X166095238Y-84566666D01*
X166285714Y-84614285D01*
X166619047Y-84614285D01*
X166809523Y-84566666D01*
X166904761Y-84471428D01*
X166952380Y-84376190D01*
X166952380Y-84185714D01*
X166904761Y-84090476D01*
X166809523Y-83995238D01*
X166619047Y-83947619D01*
X166285714Y-83947619D01*
X166095238Y-83995238D01*
X166000000Y-84090476D01*
X165952380Y-84185714D01*
X166952380Y-85042857D02*
X165952380Y-85042857D01*
X165952380Y-85280952D01*
X166000000Y-85423809D01*
X166095238Y-85519047D01*
X166190476Y-85566666D01*
X166380952Y-85614285D01*
X166523809Y-85614285D01*
X166714285Y-85566666D01*
X166809523Y-85519047D01*
X166904761Y-85423809D01*
X166952380Y-85280952D01*
X166952380Y-85042857D01*
X166428571Y-86042857D02*
X166428571Y-86376190D01*
X166952380Y-86519047D02*
X166952380Y-86042857D01*
X165952380Y-86042857D01*
X165952380Y-86519047D01*
X168900000Y-97638095D02*
X168852380Y-97542857D01*
X168852380Y-97400000D01*
X168900000Y-97257142D01*
X168995238Y-97161904D01*
X169090476Y-97114285D01*
X169280952Y-97066666D01*
X169423809Y-97066666D01*
X169614285Y-97114285D01*
X169709523Y-97161904D01*
X169804761Y-97257142D01*
X169852380Y-97400000D01*
X169852380Y-97495238D01*
X169804761Y-97638095D01*
X169757142Y-97685714D01*
X169423809Y-97685714D01*
X169423809Y-97495238D01*
X169852380Y-98114285D02*
X168852380Y-98114285D01*
X169852380Y-98685714D01*
X168852380Y-98685714D01*
X169852380Y-99161904D02*
X168852380Y-99161904D01*
X168852380Y-99400000D01*
X168900000Y-99542857D01*
X168995238Y-99638095D01*
X169090476Y-99685714D01*
X169280952Y-99733333D01*
X169423809Y-99733333D01*
X169614285Y-99685714D01*
X169709523Y-99638095D01*
X169804761Y-99542857D01*
X169852380Y-99400000D01*
X169852380Y-99161904D01*
X163300000Y-97638095D02*
X163252380Y-97542857D01*
X163252380Y-97400000D01*
X163300000Y-97257142D01*
X163395238Y-97161904D01*
X163490476Y-97114285D01*
X163680952Y-97066666D01*
X163823809Y-97066666D01*
X164014285Y-97114285D01*
X164109523Y-97161904D01*
X164204761Y-97257142D01*
X164252380Y-97400000D01*
X164252380Y-97495238D01*
X164204761Y-97638095D01*
X164157142Y-97685714D01*
X163823809Y-97685714D01*
X163823809Y-97495238D01*
X164252380Y-98114285D02*
X163252380Y-98114285D01*
X164252380Y-98685714D01*
X163252380Y-98685714D01*
X164252380Y-99161904D02*
X163252380Y-99161904D01*
X163252380Y-99400000D01*
X163300000Y-99542857D01*
X163395238Y-99638095D01*
X163490476Y-99685714D01*
X163680952Y-99733333D01*
X163823809Y-99733333D01*
X164014285Y-99685714D01*
X164109523Y-99638095D01*
X164204761Y-99542857D01*
X164252380Y-99400000D01*
X164252380Y-99161904D01*
X163400000Y-83938095D02*
X163352380Y-83842857D01*
X163352380Y-83700000D01*
X163400000Y-83557142D01*
X163495238Y-83461904D01*
X163590476Y-83414285D01*
X163780952Y-83366666D01*
X163923809Y-83366666D01*
X164114285Y-83414285D01*
X164209523Y-83461904D01*
X164304761Y-83557142D01*
X164352380Y-83700000D01*
X164352380Y-83795238D01*
X164304761Y-83938095D01*
X164257142Y-83985714D01*
X163923809Y-83985714D01*
X163923809Y-83795238D01*
X164352380Y-84414285D02*
X163352380Y-84414285D01*
X164352380Y-84985714D01*
X163352380Y-84985714D01*
X164352380Y-85461904D02*
X163352380Y-85461904D01*
X163352380Y-85700000D01*
X163400000Y-85842857D01*
X163495238Y-85938095D01*
X163590476Y-85985714D01*
X163780952Y-86033333D01*
X163923809Y-86033333D01*
X164114285Y-85985714D01*
X164209523Y-85938095D01*
X164304761Y-85842857D01*
X164352380Y-85700000D01*
X164352380Y-85461904D01*
X168800000Y-83238095D02*
X168752380Y-83142857D01*
X168752380Y-83000000D01*
X168800000Y-82857142D01*
X168895238Y-82761904D01*
X168990476Y-82714285D01*
X169180952Y-82666666D01*
X169323809Y-82666666D01*
X169514285Y-82714285D01*
X169609523Y-82761904D01*
X169704761Y-82857142D01*
X169752380Y-83000000D01*
X169752380Y-83095238D01*
X169704761Y-83238095D01*
X169657142Y-83285714D01*
X169323809Y-83285714D01*
X169323809Y-83095238D01*
X169752380Y-83714285D02*
X168752380Y-83714285D01*
X169752380Y-84285714D01*
X168752380Y-84285714D01*
X169752380Y-84761904D02*
X168752380Y-84761904D01*
X168752380Y-85000000D01*
X168800000Y-85142857D01*
X168895238Y-85238095D01*
X168990476Y-85285714D01*
X169180952Y-85333333D01*
X169323809Y-85333333D01*
X169514285Y-85285714D01*
X169609523Y-85238095D01*
X169704761Y-85142857D01*
X169752380Y-85000000D01*
X169752380Y-84761904D01*
X181152380Y-96823809D02*
X181961904Y-96823809D01*
X182057142Y-96871428D01*
X182104761Y-96919047D01*
X182152380Y-97014285D01*
X182152380Y-97204761D01*
X182104761Y-97300000D01*
X182057142Y-97347619D01*
X181961904Y-97395238D01*
X181152380Y-97395238D01*
X181485714Y-97871428D02*
X182152380Y-97871428D01*
X181580952Y-97871428D02*
X181533333Y-97919047D01*
X181485714Y-98014285D01*
X181485714Y-98157142D01*
X181533333Y-98252380D01*
X181628571Y-98300000D01*
X182152380Y-98300000D01*
X181485714Y-99204761D02*
X182152380Y-99204761D01*
X181485714Y-98776190D02*
X182009523Y-98776190D01*
X182104761Y-98823809D01*
X182152380Y-98919047D01*
X182152380Y-99061904D01*
X182104761Y-99157142D01*
X182057142Y-99204761D01*
X182104761Y-99633333D02*
X182152380Y-99728571D01*
X182152380Y-99919047D01*
X182104761Y-100014285D01*
X182009523Y-100061904D01*
X181961904Y-100061904D01*
X181866666Y-100014285D01*
X181819047Y-99919047D01*
X181819047Y-99776190D01*
X181771428Y-99680952D01*
X181676190Y-99633333D01*
X181628571Y-99633333D01*
X181533333Y-99680952D01*
X181485714Y-99776190D01*
X181485714Y-99919047D01*
X181533333Y-100014285D01*
X182104761Y-100871428D02*
X182152380Y-100776190D01*
X182152380Y-100585714D01*
X182104761Y-100490476D01*
X182009523Y-100442857D01*
X181628571Y-100442857D01*
X181533333Y-100490476D01*
X181485714Y-100585714D01*
X181485714Y-100776190D01*
X181533333Y-100871428D01*
X181628571Y-100919047D01*
X181723809Y-100919047D01*
X181819047Y-100442857D01*
X182152380Y-101776190D02*
X181152380Y-101776190D01*
X182104761Y-101776190D02*
X182152380Y-101680952D01*
X182152380Y-101490476D01*
X182104761Y-101395238D01*
X182057142Y-101347619D01*
X181961904Y-101300000D01*
X181676190Y-101300000D01*
X181580952Y-101347619D01*
X181533333Y-101395238D01*
X181485714Y-101490476D01*
X181485714Y-101680952D01*
X181533333Y-101776190D01*
X183700000Y-97438095D02*
X183652380Y-97342857D01*
X183652380Y-97200000D01*
X183700000Y-97057142D01*
X183795238Y-96961904D01*
X183890476Y-96914285D01*
X184080952Y-96866666D01*
X184223809Y-96866666D01*
X184414285Y-96914285D01*
X184509523Y-96961904D01*
X184604761Y-97057142D01*
X184652380Y-97200000D01*
X184652380Y-97295238D01*
X184604761Y-97438095D01*
X184557142Y-97485714D01*
X184223809Y-97485714D01*
X184223809Y-97295238D01*
X184652380Y-97914285D02*
X183652380Y-97914285D01*
X184652380Y-98485714D01*
X183652380Y-98485714D01*
X184652380Y-98961904D02*
X183652380Y-98961904D01*
X183652380Y-99200000D01*
X183700000Y-99342857D01*
X183795238Y-99438095D01*
X183890476Y-99485714D01*
X184080952Y-99533333D01*
X184223809Y-99533333D01*
X184414285Y-99485714D01*
X184509523Y-99438095D01*
X184604761Y-99342857D01*
X184652380Y-99200000D01*
X184652380Y-98961904D01*
X186400000Y-97338095D02*
X186352380Y-97242857D01*
X186352380Y-97100000D01*
X186400000Y-96957142D01*
X186495238Y-96861904D01*
X186590476Y-96814285D01*
X186780952Y-96766666D01*
X186923809Y-96766666D01*
X187114285Y-96814285D01*
X187209523Y-96861904D01*
X187304761Y-96957142D01*
X187352380Y-97100000D01*
X187352380Y-97195238D01*
X187304761Y-97338095D01*
X187257142Y-97385714D01*
X186923809Y-97385714D01*
X186923809Y-97195238D01*
X187352380Y-97814285D02*
X186352380Y-97814285D01*
X187352380Y-98385714D01*
X186352380Y-98385714D01*
X187352380Y-98861904D02*
X186352380Y-98861904D01*
X186352380Y-99100000D01*
X186400000Y-99242857D01*
X186495238Y-99338095D01*
X186590476Y-99385714D01*
X186780952Y-99433333D01*
X186923809Y-99433333D01*
X187114285Y-99385714D01*
X187209523Y-99338095D01*
X187304761Y-99242857D01*
X187352380Y-99100000D01*
X187352380Y-98861904D01*
X183052380Y-83366666D02*
X184052380Y-83700000D01*
X183052380Y-84033333D01*
X184052380Y-84366666D02*
X183052380Y-84366666D01*
X183052380Y-84604761D01*
X183100000Y-84747619D01*
X183195238Y-84842857D01*
X183290476Y-84890476D01*
X183480952Y-84938095D01*
X183623809Y-84938095D01*
X183814285Y-84890476D01*
X183909523Y-84842857D01*
X184004761Y-84747619D01*
X184052380Y-84604761D01*
X184052380Y-84366666D01*
X184052380Y-85366666D02*
X183052380Y-85366666D01*
X183052380Y-85604761D01*
X183100000Y-85747619D01*
X183195238Y-85842857D01*
X183290476Y-85890476D01*
X183480952Y-85938095D01*
X183623809Y-85938095D01*
X183814285Y-85890476D01*
X183909523Y-85842857D01*
X184004761Y-85747619D01*
X184052380Y-85604761D01*
X184052380Y-85366666D01*
X185952380Y-83200000D02*
X185952380Y-83390476D01*
X186000000Y-83485714D01*
X186095238Y-83580952D01*
X186285714Y-83628571D01*
X186619047Y-83628571D01*
X186809523Y-83580952D01*
X186904761Y-83485714D01*
X186952380Y-83390476D01*
X186952380Y-83200000D01*
X186904761Y-83104761D01*
X186809523Y-83009523D01*
X186619047Y-82961904D01*
X186285714Y-82961904D01*
X186095238Y-83009523D01*
X186000000Y-83104761D01*
X185952380Y-83200000D01*
X185952380Y-84057142D02*
X186761904Y-84057142D01*
X186857142Y-84104761D01*
X186904761Y-84152380D01*
X186952380Y-84247619D01*
X186952380Y-84438095D01*
X186904761Y-84533333D01*
X186857142Y-84580952D01*
X186761904Y-84628571D01*
X185952380Y-84628571D01*
X185952380Y-84961904D02*
X185952380Y-85533333D01*
X186952380Y-85247619D02*
X185952380Y-85247619D01*
X180900000Y-83838095D02*
X180852380Y-83742857D01*
X180852380Y-83600000D01*
X180900000Y-83457142D01*
X180995238Y-83361904D01*
X181090476Y-83314285D01*
X181280952Y-83266666D01*
X181423809Y-83266666D01*
X181614285Y-83314285D01*
X181709523Y-83361904D01*
X181804761Y-83457142D01*
X181852380Y-83600000D01*
X181852380Y-83695238D01*
X181804761Y-83838095D01*
X181757142Y-83885714D01*
X181423809Y-83885714D01*
X181423809Y-83695238D01*
X181852380Y-84314285D02*
X180852380Y-84314285D01*
X181852380Y-84885714D01*
X180852380Y-84885714D01*
X181852380Y-85361904D02*
X180852380Y-85361904D01*
X180852380Y-85600000D01*
X180900000Y-85742857D01*
X180995238Y-85838095D01*
X181090476Y-85885714D01*
X181280952Y-85933333D01*
X181423809Y-85933333D01*
X181614285Y-85885714D01*
X181709523Y-85838095D01*
X181804761Y-85742857D01*
X181852380Y-85600000D01*
X181852380Y-85361904D01*
D11*
%TO.C,REF\u002A\u002A*%
X176280000Y-87117500D02*
X176280000Y-96007500D01*
X191520000Y-87117500D02*
X176280000Y-87117500D01*
X191520000Y-96007500D02*
X191520000Y-87117500D01*
X176280000Y-96007500D02*
X191520000Y-96007500D01*
D12*
X186540000Y-86117500D02*
G75*
G03*
X186540000Y-86117500I-100000J0D01*
G01*
X169340000Y-86117500D02*
G75*
G03*
X169340000Y-86117500I-100000J0D01*
G01*
D11*
X159080000Y-96007500D02*
X174320000Y-96007500D01*
X174320000Y-96007500D02*
X174320000Y-87117500D01*
X174320000Y-87117500D02*
X159080000Y-87117500D01*
X159080000Y-87117500D02*
X159080000Y-96007500D01*
%TD*%
M02*
