%TF.GenerationSoftware,KiCad,Pcbnew,(6.0.8-1)-1*%
%TF.CreationDate,2022-12-29T09:01:59-05:00*%
%TF.ProjectId,Condor,436f6e64-6f72-42e6-9b69-6361645f7063,rev?*%
%TF.SameCoordinates,Original*%
%TF.FileFunction,Copper,L2,Bot*%
%TF.FilePolarity,Positive*%
%FSLAX46Y46*%
G04 Gerber Fmt 4.6, Leading zero omitted, Abs format (unit mm)*
G04 Created by KiCad (PCBNEW (6.0.8-1)-1) date 2022-12-29 09:01:59*
%MOMM*%
%LPD*%
G01*
G04 APERTURE LIST*
G04 Aperture macros list*
%AMRoundRect*
0 Rectangle with rounded corners*
0 $1 Rounding radius*
0 $2 $3 $4 $5 $6 $7 $8 $9 X,Y pos of 4 corners*
0 Add a 4 corners polygon primitive as box body*
4,1,4,$2,$3,$4,$5,$6,$7,$8,$9,$2,$3,0*
0 Add four circle primitives for the rounded corners*
1,1,$1+$1,$2,$3*
1,1,$1+$1,$4,$5*
1,1,$1+$1,$6,$7*
1,1,$1+$1,$8,$9*
0 Add four rect primitives between the rounded corners*
20,1,$1+$1,$2,$3,$4,$5,0*
20,1,$1+$1,$4,$5,$6,$7,0*
20,1,$1+$1,$6,$7,$8,$9,0*
20,1,$1+$1,$8,$9,$2,$3,0*%
G04 Aperture macros list end*
%TA.AperFunction,ComponentPad*%
%ADD10R,1.398000X1.398000*%
%TD*%
%TA.AperFunction,ComponentPad*%
%ADD11C,1.398000*%
%TD*%
%TA.AperFunction,SMDPad,CuDef*%
%ADD12RoundRect,0.087500X0.087500X0.337500X-0.087500X0.337500X-0.087500X-0.337500X0.087500X-0.337500X0*%
%TD*%
%TA.AperFunction,Conductor*%
%ADD13C,0.200000*%
%TD*%
%TA.AperFunction,Conductor*%
%ADD14C,0.250000*%
%TD*%
G04 APERTURE END LIST*
D10*
%TO.P,REF\u002A\u002A,1*%
%TO.N,N/C*%
X186440000Y-90292500D03*
D11*
%TO.P,REF\u002A\u002A,2*%
X183900000Y-90292500D03*
%TO.P,REF\u002A\u002A,3*%
X181360000Y-90292500D03*
%TO.P,REF\u002A\u002A,4*%
X186440000Y-92832500D03*
%TO.P,REF\u002A\u002A,5*%
X183900000Y-92832500D03*
%TO.P,REF\u002A\u002A,6*%
X181360000Y-92832500D03*
%TD*%
D12*
%TO.P,REF\u002A\u002A,1*%
%TO.N,N/C*%
X180600000Y-102600000D03*
%TO.P,REF\u002A\u002A,2*%
X179950000Y-102600000D03*
%TO.P,REF\u002A\u002A,3*%
X179300000Y-102600000D03*
%TO.P,REF\u002A\u002A,4*%
X179300000Y-100400000D03*
%TO.P,REF\u002A\u002A,5*%
X180600000Y-100400000D03*
%TD*%
D11*
%TO.P,REF\u002A\u002A,6*%
%TO.N,N/C*%
X164160000Y-92832500D03*
%TO.P,REF\u002A\u002A,5*%
X166700000Y-92832500D03*
%TO.P,REF\u002A\u002A,4*%
X169240000Y-92832500D03*
%TO.P,REF\u002A\u002A,3*%
X164160000Y-90292500D03*
%TO.P,REF\u002A\u002A,2*%
X166700000Y-90292500D03*
D10*
%TO.P,REF\u002A\u002A,1*%
X169240000Y-90292500D03*
%TD*%
D13*
%TO.N,*%
X183900000Y-92832500D02*
X181360000Y-90292500D01*
X183900000Y-92832500D02*
X186440000Y-92832500D01*
D14*
X180600000Y-100400000D02*
X186440000Y-94560000D01*
X186440000Y-94560000D02*
X186440000Y-92832500D01*
X179300000Y-100400000D02*
X178500000Y-101200000D01*
X178500000Y-101200000D02*
X178500000Y-103800000D01*
X192400000Y-98200000D02*
X192400000Y-90200000D01*
X178500000Y-103800000D02*
X179900000Y-105200000D01*
X179900000Y-105200000D02*
X185400000Y-105200000D01*
X185692500Y-88500000D02*
X183900000Y-90292500D01*
X185400000Y-105200000D02*
X192400000Y-98200000D01*
X192400000Y-90200000D02*
X190700000Y-88500000D01*
X190700000Y-88500000D02*
X185692500Y-88500000D01*
X190100000Y-98600000D02*
X190100000Y-91900000D01*
X180300000Y-104100000D02*
X180750000Y-104100000D01*
X180300000Y-104100000D02*
X184600000Y-104100000D01*
X179950000Y-104100000D02*
X180300000Y-104100000D01*
X190100000Y-91900000D02*
X188300000Y-90100000D01*
X184600000Y-104100000D02*
X190100000Y-98600000D01*
X188300000Y-90100000D02*
X188107500Y-90292500D01*
X188107500Y-90292500D02*
X186440000Y-90292500D01*
X179300000Y-102600000D02*
X179300000Y-103450000D01*
X179300000Y-103450000D02*
X179950000Y-104100000D01*
X180600000Y-102600000D02*
X180600000Y-100400000D01*
X179950000Y-102600000D02*
X180600000Y-102600000D01*
%TD*%
M02*
