%TF.GenerationSoftware,KiCad,Pcbnew,(6.0.8-1)-1*%
%TF.CreationDate,2022-11-02T13:02:55-04:00*%
%TF.ProjectId,Condor,436f6e64-6f72-42e6-9b69-6361645f7063,rev?*%
%TF.SameCoordinates,Original*%
%TF.FileFunction,Copper,L1,Top*%
%TF.FilePolarity,Positive*%
%FSLAX46Y46*%
G04 Gerber Fmt 4.6, Leading zero omitted, Abs format (unit mm)*
G04 Created by KiCad (PCBNEW (6.0.8-1)-1) date 2022-11-02 13:02:55*
%MOMM*%
%LPD*%
G01*
G04 APERTURE LIST*
G04 Aperture macros list*
%AMRoundRect*
0 Rectangle with rounded corners*
0 $1 Rounding radius*
0 $2 $3 $4 $5 $6 $7 $8 $9 X,Y pos of 4 corners*
0 Add a 4 corners polygon primitive as box body*
4,1,4,$2,$3,$4,$5,$6,$7,$8,$9,$2,$3,0*
0 Add four circle primitives for the rounded corners*
1,1,$1+$1,$2,$3*
1,1,$1+$1,$4,$5*
1,1,$1+$1,$6,$7*
1,1,$1+$1,$8,$9*
0 Add four rect primitives between the rounded corners*
20,1,$1+$1,$2,$3,$4,$5,0*
20,1,$1+$1,$4,$5,$6,$7,0*
20,1,$1+$1,$6,$7,$8,$9,0*
20,1,$1+$1,$8,$9,$2,$3,0*%
G04 Aperture macros list end*
%TA.AperFunction,SMDPad,CuDef*%
%ADD10C,1.100000*%
%TD*%
%TA.AperFunction,SMDPad,CuDef*%
%ADD11RoundRect,0.200000X-0.275000X0.200000X-0.275000X-0.200000X0.275000X-0.200000X0.275000X0.200000X0*%
%TD*%
%TA.AperFunction,SMDPad,CuDef*%
%ADD12RoundRect,0.250000X0.325000X1.100000X-0.325000X1.100000X-0.325000X-1.100000X0.325000X-1.100000X0*%
%TD*%
%TA.AperFunction,ComponentPad*%
%ADD13R,1.398000X1.398000*%
%TD*%
%TA.AperFunction,ComponentPad*%
%ADD14C,1.398000*%
%TD*%
%TA.AperFunction,Conductor*%
%ADD15C,0.250000*%
%TD*%
G04 APERTURE END LIST*
D10*
%TO.P,REF\u002A\u002A,1*%
%TO.N,N/C*%
X177050000Y-97900000D03*
%TO.P,REF\u002A\u002A,2*%
X172450000Y-97900000D03*
%TO.P,REF\u002A\u002A,3*%
X172450000Y-102100000D03*
%TO.P,REF\u002A\u002A,4*%
X177050000Y-102100000D03*
%TD*%
D11*
%TO.P,REF\u002A\u002A,1*%
%TO.N,N/C*%
X168000000Y-99175000D03*
%TO.P,REF\u002A\u002A,2*%
X168000000Y-100825000D03*
%TD*%
D12*
%TO.P,REF\u002A\u002A,1*%
%TO.N,N/C*%
X176475000Y-106000000D03*
%TO.P,REF\u002A\u002A,2*%
X173525000Y-106000000D03*
%TD*%
D13*
%TO.P,REF\u002A\u002A,1*%
%TO.N,N/C*%
X177540000Y-92730000D03*
D14*
%TO.P,REF\u002A\u002A,2*%
X175000000Y-92730000D03*
%TO.P,REF\u002A\u002A,3*%
X172460000Y-92730000D03*
%TO.P,REF\u002A\u002A,4*%
X177540000Y-95270000D03*
%TO.P,REF\u002A\u002A,5*%
X175000000Y-95270000D03*
%TO.P,REF\u002A\u002A,6*%
X172460000Y-95270000D03*
%TD*%
D15*
%TO.N,*%
X171665000Y-96065000D02*
X172460000Y-95270000D01*
X172450000Y-97900000D02*
X174280000Y-96070000D01*
X174280000Y-96070000D02*
X174280000Y-95990000D01*
X182800000Y-93000000D02*
X181000000Y-91200000D01*
X172450000Y-102100000D02*
X172450000Y-104925000D01*
X168000000Y-99130000D02*
X171065000Y-96065000D01*
X171070000Y-96070000D02*
X171065000Y-96065000D01*
X171065000Y-96065000D02*
X171665000Y-96065000D01*
X168000000Y-99175000D02*
X168000000Y-99130000D01*
X177600000Y-91200000D02*
X177540000Y-91260000D01*
X182800000Y-104600000D02*
X182800000Y-93000000D01*
X170600000Y-106000000D02*
X173525000Y-106000000D01*
X168000000Y-103400000D02*
X170600000Y-106000000D01*
X168000000Y-103400000D02*
X168000000Y-100825000D01*
X181400000Y-106000000D02*
X182800000Y-104600000D01*
X177540000Y-91260000D02*
X177540000Y-92730000D01*
X172450000Y-104925000D02*
X173525000Y-106000000D01*
X181000000Y-91200000D02*
X177600000Y-91200000D01*
X176475000Y-106000000D02*
X181400000Y-106000000D01*
X174280000Y-95990000D02*
X175000000Y-95270000D01*
%TD*%
M02*
