M48
; DRILL file {KiCad 8.0.2-1} date 2024-06-21T16:05:56-0400
; FORMAT={-:-/ absolute / inch / decimal}
; #@! TF.CreationDate,2024-06-21T16:05:56-04:00
; #@! TF.GenerationSoftware,Kicad,Pcbnew,8.0.2-1
; #@! TF.FileFunction,Plated,1,2,PTH
FMAT,2
INCH
; #@! TA.AperFunction,Plated,PTH,ViaDrill
T1C0.0118
; #@! TA.AperFunction,Plated,PTH,ViaDrill
T2C0.0157
; #@! TA.AperFunction,Plated,PTH,ComponentDrill
T3C0.0157
; #@! TA.AperFunction,Plated,PTH,ComponentDrill
T4C0.0331
; #@! TA.AperFunction,Plated,PTH,ComponentDrill
T5C0.0433
; #@! TA.AperFunction,Plated,PTH,ComponentDrill
T6C0.0591
%
G90
G05
T1
X2.252Y-6.8346
X2.252Y-6.8661
X2.252Y-6.8976
X2.252Y-6.9291
X2.252Y-6.9606
X2.252Y-6.9921
X2.252Y-7.1496
X2.252Y-7.1811
X2.252Y-7.2126
X2.252Y-7.2441
X2.252Y-7.2756
X2.252Y-7.3071
X2.2539Y-3.685
X2.2539Y-3.7165
X2.2539Y-3.748
X2.2539Y-3.7795
X2.2539Y-3.811
X2.2539Y-3.8425
X2.2539Y-4.0
X2.2539Y-4.0315
X2.2539Y-4.063
X2.2539Y-4.0945
X2.2539Y-4.126
X2.2539Y-4.1575
X2.2539Y-4.189
X2.6142Y-7.2913
X2.6142Y-7.7165
X2.6535Y-4.0
X2.6614Y-4.2126
X2.6614Y-4.5118
X2.6693Y-3.8425
X2.6821Y-3.6663
X2.685Y-4.0472
X2.685Y-4.1575
X2.685Y-4.2677
X2.6929Y-6.8976
X2.7047Y-3.8031
X2.7244Y-3.4646
X2.7323Y-7.5591
X2.7362Y-4.1181
X2.7402Y-3.685
X2.7795Y-7.5984
X2.815Y-7.1339
X2.8307Y-6.7205
X2.8386Y-6.8425
X2.8631Y-7.9065
X2.8701Y-3.6772
X2.8976Y-7.5157
X2.9252Y-7.4252
X2.9409Y-7.8799
T2
X2.8543Y-12.2402
X2.8583Y-12.6772
T3
X4.1181Y-2.8209
X4.1181Y-2.8799
X4.1181Y-4.7028
X4.1181Y-4.7618
X4.1181Y-6.5846
X4.1181Y-6.6437
X4.1181Y-8.4665
X4.1181Y-8.5256
X4.1181Y-10.3484
X4.1181Y-10.4075
X4.1398Y-2.9626
X4.1398Y-4.8445
X4.1398Y-6.7264
X4.1398Y-8.6083
X4.1398Y-10.4902
X4.1476Y-2.7421
X4.1476Y-4.624
X4.1476Y-6.5059
X4.1476Y-8.3878
X4.1476Y-10.2697
X4.3091Y-2.7421
X4.3091Y-4.624
X4.3091Y-6.5059
X4.3091Y-8.3878
X4.3091Y-10.2697
X6.0Y-2.8209
X6.0Y-2.8799
X6.0Y-4.7028
X6.0Y-4.7618
X6.0Y-6.5846
X6.0Y-6.6437
X6.0Y-8.4665
X6.0Y-8.5256
X6.0Y-10.3484
X6.0Y-10.4075
X6.0217Y-2.9626
X6.0217Y-4.8445
X6.0217Y-6.7264
X6.0217Y-8.6083
X6.0217Y-10.4902
X6.0295Y-2.7421
X6.0295Y-4.624
X6.0295Y-6.5059
X6.0295Y-8.3878
X6.0295Y-10.2697
X6.1909Y-2.7421
X6.1909Y-4.624
X6.1909Y-6.5059
X6.1909Y-8.3878
X6.1909Y-10.2697
X7.8819Y-2.8209
X7.8819Y-2.8799
X7.8819Y-4.7028
X7.8819Y-4.7618
X7.8819Y-6.5846
X7.8819Y-6.6437
X7.8819Y-8.4665
X7.8819Y-8.5256
X7.8819Y-10.3484
X7.8819Y-10.4075
X7.9035Y-2.9626
X7.9035Y-4.8445
X7.9035Y-6.7264
X7.9035Y-8.6083
X7.9035Y-10.4902
X7.9114Y-2.7421
X7.9114Y-4.624
X7.9114Y-6.5059
X7.9114Y-8.3878
X7.9114Y-10.2697
X8.0728Y-2.7421
X8.0728Y-4.624
X8.0728Y-6.5059
X8.0728Y-8.3878
X8.0728Y-10.2697
X9.7638Y-2.8209
X9.7638Y-2.8799
X9.7638Y-4.7028
X9.7638Y-4.7618
X9.7638Y-6.5846
X9.7638Y-6.6437
X9.7638Y-8.4665
X9.7638Y-8.5256
X9.7638Y-10.3484
X9.7638Y-10.4075
X9.7854Y-2.9626
X9.7854Y-4.8445
X9.7854Y-6.7264
X9.7854Y-8.6083
X9.7854Y-10.4902
X9.7933Y-2.7421
X9.7933Y-4.624
X9.7933Y-6.5059
X9.7933Y-8.3878
X9.7933Y-10.2697
X9.9547Y-2.7421
X9.9547Y-4.624
X9.9547Y-6.5059
X9.9547Y-8.3878
X9.9547Y-10.2697
X11.6457Y-2.8209
X11.6457Y-2.8799
X11.6457Y-4.7028
X11.6457Y-4.7618
X11.6457Y-6.5846
X11.6457Y-6.6437
X11.6457Y-8.4665
X11.6457Y-8.5256
X11.6457Y-10.3484
X11.6457Y-10.4075
X11.6673Y-2.9626
X11.6673Y-4.8445
X11.6673Y-6.7264
X11.6673Y-8.6083
X11.6673Y-10.4902
X11.6752Y-2.7421
X11.6752Y-4.624
X11.6752Y-6.5059
X11.6752Y-8.3878
X11.6752Y-10.2697
X11.8366Y-2.7421
X11.8366Y-4.624
X11.8366Y-6.5059
X11.8366Y-8.3878
X11.8366Y-10.2697
T4
X2.3622Y-3.5632
X2.3622Y-4.3108
X2.3622Y-6.7128
X2.3622Y-7.4604
T5
X2.4803Y-12.4961
T6
X2.2825Y-12.2982
X2.2825Y-12.6939
X2.6781Y-12.2982
X2.6781Y-12.6939
M30
