%TF.GenerationSoftware,KiCad,Pcbnew,8.0.2-1*%
%TF.CreationDate,2024-06-21T16:09:21-04:00*%
%TF.ProjectId,OddLayers_3.0mm_SiPM,4f64644c-6179-4657-9273-5f332e306d6d,rev?*%
%TF.SameCoordinates,Original*%
%TF.FileFunction,Copper,L2,Bot*%
%TF.FilePolarity,Positive*%
%FSLAX46Y46*%
G04 Gerber Fmt 4.6, Leading zero omitted, Abs format (unit mm)*
G04 Created by KiCad (PCBNEW 8.0.2-1) date 2024-06-21 16:09:21*
%MOMM*%
%LPD*%
G01*
G04 APERTURE LIST*
%TA.AperFunction,ComponentPad*%
%ADD10C,0.800000*%
%TD*%
%TA.AperFunction,ComponentPad*%
%ADD11C,1.348000*%
%TD*%
%TA.AperFunction,ComponentPad*%
%ADD12R,3.500000X3.500000*%
%TD*%
%TA.AperFunction,ComponentPad*%
%ADD13C,4.000000*%
%TD*%
%TA.AperFunction,ViaPad*%
%ADD14C,0.800000*%
%TD*%
%TA.AperFunction,ViaPad*%
%ADD15C,0.600000*%
%TD*%
%TA.AperFunction,Conductor*%
%ADD16C,0.200000*%
%TD*%
%TA.AperFunction,Conductor*%
%ADD17C,0.250000*%
%TD*%
G04 APERTURE END LIST*
D10*
%TO.P,REF\u002A\u002A34,5*%
%TO.N,N/C*%
X296550000Y-165250000D03*
%TO.P,REF\u002A\u002A34,6*%
X300650000Y-165250000D03*
%TO.P,REF\u002A\u002A34,7*%
%TO.N,K14*%
X295800000Y-167250000D03*
%TO.P,REF\u002A\u002A34,8*%
%TO.N,A14*%
X295800000Y-168750000D03*
%TO.P,REF\u002A\u002A34,9*%
%TO.N,GND*%
X296350000Y-170850000D03*
%TD*%
%TO.P,REF\u002A\u002A40,5*%
%TO.N,N/C*%
X105350000Y-260850000D03*
%TO.P,REF\u002A\u002A40,6*%
X109450000Y-260850000D03*
%TO.P,REF\u002A\u002A40,7*%
%TO.N,K20*%
X104600000Y-262850000D03*
%TO.P,REF\u002A\u002A40,8*%
%TO.N,A20*%
X104600000Y-264350000D03*
%TO.P,REF\u002A\u002A40,9*%
%TO.N,GND*%
X105150000Y-266450000D03*
%TD*%
%TO.P,REF\u002A\u002A30,5*%
%TO.N,N/C*%
X105350000Y-165250000D03*
%TO.P,REF\u002A\u002A30,6*%
X109450000Y-165250000D03*
%TO.P,REF\u002A\u002A30,7*%
%TO.N,K10*%
X104600000Y-167250000D03*
%TO.P,REF\u002A\u002A30,8*%
%TO.N,A10*%
X104600000Y-168750000D03*
%TO.P,REF\u002A\u002A30,9*%
%TO.N,GND*%
X105150000Y-170850000D03*
%TD*%
%TO.P,REF\u002A\u002A24,5*%
%TO.N,N/C*%
X296550000Y-69650000D03*
%TO.P,REF\u002A\u002A24,6*%
X300650000Y-69650000D03*
%TO.P,REF\u002A\u002A24,7*%
%TO.N,K4*%
X295800000Y-71650000D03*
%TO.P,REF\u002A\u002A24,8*%
%TO.N,A4*%
X295800000Y-73150000D03*
%TO.P,REF\u002A\u002A24,9*%
%TO.N,GND*%
X296350000Y-75250000D03*
%TD*%
%TO.P,REF\u002A\u002A43,5*%
%TO.N,N/C*%
X248750000Y-260850000D03*
%TO.P,REF\u002A\u002A43,6*%
X252850000Y-260850000D03*
%TO.P,REF\u002A\u002A43,7*%
%TO.N,K23*%
X248000000Y-262850000D03*
%TO.P,REF\u002A\u002A43,8*%
%TO.N,A23*%
X248000000Y-264350000D03*
%TO.P,REF\u002A\u002A43,9*%
%TO.N,GND*%
X248550000Y-266450000D03*
%TD*%
%TO.P,REF\u002A\u002A38,5*%
%TO.N,N/C*%
X248750000Y-213050000D03*
%TO.P,REF\u002A\u002A38,6*%
X252850000Y-213050000D03*
%TO.P,REF\u002A\u002A38,7*%
%TO.N,K18*%
X248000000Y-215050000D03*
%TO.P,REF\u002A\u002A38,8*%
%TO.N,A18*%
X248000000Y-216550000D03*
%TO.P,REF\u002A\u002A38,9*%
%TO.N,GND*%
X248550000Y-218650000D03*
%TD*%
%TO.P,REF\u002A\u002A22,5*%
%TO.N,N/C*%
X200950000Y-69650000D03*
%TO.P,REF\u002A\u002A22,6*%
X205050000Y-69650000D03*
%TO.P,REF\u002A\u002A22,7*%
%TO.N,K2*%
X200200000Y-71650000D03*
%TO.P,REF\u002A\u002A22,8*%
%TO.N,A2*%
X200200000Y-73150000D03*
%TO.P,REF\u002A\u002A22,9*%
%TO.N,GND*%
X200750000Y-75250000D03*
%TD*%
%TO.P,REF\u002A\u002A28,5*%
%TO.N,N/C*%
X248750000Y-117450000D03*
%TO.P,REF\u002A\u002A28,6*%
X252850000Y-117450000D03*
%TO.P,REF\u002A\u002A28,7*%
%TO.N,K8*%
X248000000Y-119450000D03*
%TO.P,REF\u002A\u002A28,8*%
%TO.N,A8*%
X248000000Y-120950000D03*
%TO.P,REF\u002A\u002A28,9*%
%TO.N,GND*%
X248550000Y-123050000D03*
%TD*%
%TO.P,REF\u002A\u002A23,5*%
%TO.N,N/C*%
X248750000Y-69650000D03*
%TO.P,REF\u002A\u002A23,6*%
X252850000Y-69650000D03*
%TO.P,REF\u002A\u002A23,7*%
%TO.N,K3*%
X248000000Y-71650000D03*
%TO.P,REF\u002A\u002A23,8*%
%TO.N,A3*%
X248000000Y-73150000D03*
%TO.P,REF\u002A\u002A23,9*%
%TO.N,GND*%
X248550000Y-75250000D03*
%TD*%
%TO.P,REF\u002A\u002A32,5*%
%TO.N,N/C*%
X200950000Y-165250000D03*
%TO.P,REF\u002A\u002A32,6*%
X205050000Y-165250000D03*
%TO.P,REF\u002A\u002A32,7*%
%TO.N,K12*%
X200200000Y-167250000D03*
%TO.P,REF\u002A\u002A32,8*%
%TO.N,A12*%
X200200000Y-168750000D03*
%TO.P,REF\u002A\u002A32,9*%
%TO.N,GND*%
X200750000Y-170850000D03*
%TD*%
%TO.P,REF\u002A\u002A44,5*%
%TO.N,N/C*%
X296550000Y-260850000D03*
%TO.P,REF\u002A\u002A44,6*%
X300650000Y-260850000D03*
%TO.P,REF\u002A\u002A44,7*%
%TO.N,K24*%
X295800000Y-262850000D03*
%TO.P,REF\u002A\u002A44,8*%
%TO.N,A24*%
X295800000Y-264350000D03*
%TO.P,REF\u002A\u002A44,9*%
%TO.N,GND*%
X296350000Y-266450000D03*
%TD*%
%TO.P,REF\u002A\u002A26,5*%
%TO.N,N/C*%
X153150000Y-117450000D03*
%TO.P,REF\u002A\u002A26,6*%
X157250000Y-117450000D03*
%TO.P,REF\u002A\u002A26,7*%
%TO.N,K6*%
X152400000Y-119450000D03*
%TO.P,REF\u002A\u002A26,8*%
%TO.N,A6*%
X152400000Y-120950000D03*
%TO.P,REF\u002A\u002A26,9*%
%TO.N,GND*%
X152950000Y-123050000D03*
%TD*%
%TO.P,REF\u002A\u002A36,5*%
%TO.N,N/C*%
X153150000Y-213050000D03*
%TO.P,REF\u002A\u002A36,6*%
X157250000Y-213050000D03*
%TO.P,REF\u002A\u002A36,7*%
%TO.N,K16*%
X152400000Y-215050000D03*
%TO.P,REF\u002A\u002A36,8*%
%TO.N,A16*%
X152400000Y-216550000D03*
%TO.P,REF\u002A\u002A36,9*%
%TO.N,GND*%
X152950000Y-218650000D03*
%TD*%
%TO.P,REF\u002A\u002A20,5*%
%TO.N,GND*%
X105350000Y-69650000D03*
%TO.P,REF\u002A\u002A20,6*%
%TO.N,N/C*%
X109450000Y-69650000D03*
%TO.P,REF\u002A\u002A20,7*%
%TO.N,K0*%
X104600000Y-71650000D03*
%TO.P,REF\u002A\u002A20,8*%
%TO.N,A0*%
X104600000Y-73150000D03*
%TO.P,REF\u002A\u002A20,9*%
%TO.N,GND*%
X105150000Y-75250000D03*
%TD*%
%TO.P,REF\u002A\u002A25,5*%
%TO.N,N/C*%
X105350000Y-117450000D03*
%TO.P,REF\u002A\u002A25,6*%
X109450000Y-117450000D03*
%TO.P,REF\u002A\u002A25,7*%
%TO.N,K5*%
X104600000Y-119450000D03*
%TO.P,REF\u002A\u002A25,8*%
%TO.N,A5*%
X104600000Y-120950000D03*
%TO.P,REF\u002A\u002A25,9*%
%TO.N,GND*%
X105150000Y-123050000D03*
%TD*%
%TO.P,REF\u002A\u002A37,5*%
%TO.N,N/C*%
X200950000Y-213050000D03*
%TO.P,REF\u002A\u002A37,6*%
X205050000Y-213050000D03*
%TO.P,REF\u002A\u002A37,7*%
%TO.N,K17*%
X200200000Y-215050000D03*
%TO.P,REF\u002A\u002A37,8*%
%TO.N,A17*%
X200200000Y-216550000D03*
%TO.P,REF\u002A\u002A37,9*%
%TO.N,GND*%
X200750000Y-218650000D03*
%TD*%
%TO.P,REF\u002A\u002A31,5*%
%TO.N,N/C*%
X153150000Y-165250000D03*
%TO.P,REF\u002A\u002A31,6*%
X157250000Y-165250000D03*
%TO.P,REF\u002A\u002A31,7*%
%TO.N,K11*%
X152400000Y-167250000D03*
%TO.P,REF\u002A\u002A31,8*%
%TO.N,A11*%
X152400000Y-168750000D03*
%TO.P,REF\u002A\u002A31,9*%
%TO.N,GND*%
X152950000Y-170850000D03*
%TD*%
%TO.P,REF\u002A\u002A27,5*%
%TO.N,N/C*%
X200950000Y-117450000D03*
%TO.P,REF\u002A\u002A27,6*%
X205050000Y-117450000D03*
%TO.P,REF\u002A\u002A27,7*%
%TO.N,K7*%
X200200000Y-119450000D03*
%TO.P,REF\u002A\u002A27,8*%
%TO.N,A7*%
X200200000Y-120950000D03*
%TO.P,REF\u002A\u002A27,9*%
%TO.N,GND*%
X200750000Y-123050000D03*
%TD*%
%TO.P,REF\u002A\u002A41,5*%
%TO.N,N/C*%
X153150000Y-260850000D03*
%TO.P,REF\u002A\u002A41,6*%
X157250000Y-260850000D03*
%TO.P,REF\u002A\u002A41,7*%
%TO.N,K21*%
X152400000Y-262850000D03*
%TO.P,REF\u002A\u002A41,8*%
%TO.N,A21*%
X152400000Y-264350000D03*
%TO.P,REF\u002A\u002A41,9*%
%TO.N,GND*%
X152950000Y-266450000D03*
%TD*%
%TO.P,REF\u002A\u002A29,5*%
%TO.N,N/C*%
X296550000Y-117450000D03*
%TO.P,REF\u002A\u002A29,6*%
X300650000Y-117450000D03*
%TO.P,REF\u002A\u002A29,7*%
%TO.N,K9*%
X295800000Y-119450000D03*
%TO.P,REF\u002A\u002A29,8*%
%TO.N,A9*%
X295800000Y-120950000D03*
%TO.P,REF\u002A\u002A29,9*%
%TO.N,GND*%
X296350000Y-123050000D03*
%TD*%
%TO.P,REF\u002A\u002A21,5*%
%TO.N,N/C*%
X153150000Y-69650000D03*
%TO.P,REF\u002A\u002A21,6*%
X157250000Y-69650000D03*
%TO.P,REF\u002A\u002A21,7*%
%TO.N,K1*%
X152400000Y-71650000D03*
%TO.P,REF\u002A\u002A21,8*%
%TO.N,A1*%
X152400000Y-73150000D03*
%TO.P,REF\u002A\u002A21,9*%
%TO.N,GND*%
X152950000Y-75250000D03*
%TD*%
%TO.P,REF\u002A\u002A42,5*%
%TO.N,N/C*%
X200950000Y-260850000D03*
%TO.P,REF\u002A\u002A42,6*%
X205050000Y-260850000D03*
%TO.P,REF\u002A\u002A42,7*%
%TO.N,K22*%
X200200000Y-262850000D03*
%TO.P,REF\u002A\u002A42,8*%
%TO.N,A22*%
X200200000Y-264350000D03*
%TO.P,REF\u002A\u002A42,9*%
%TO.N,GND*%
X200750000Y-266450000D03*
%TD*%
%TO.P,REF\u002A\u002A35,5*%
%TO.N,N/C*%
X105350000Y-213050000D03*
%TO.P,REF\u002A\u002A35,6*%
X109450000Y-213050000D03*
%TO.P,REF\u002A\u002A35,7*%
%TO.N,K15*%
X104600000Y-215050000D03*
%TO.P,REF\u002A\u002A35,8*%
%TO.N,A15*%
X104600000Y-216550000D03*
%TO.P,REF\u002A\u002A35,9*%
%TO.N,GND*%
X105150000Y-218650000D03*
%TD*%
%TO.P,REF\u002A\u002A39,5*%
%TO.N,N/C*%
X296550000Y-213050000D03*
%TO.P,REF\u002A\u002A39,6*%
X300650000Y-213050000D03*
%TO.P,REF\u002A\u002A39,7*%
%TO.N,K19*%
X295800000Y-215050000D03*
%TO.P,REF\u002A\u002A39,8*%
%TO.N,A19*%
X295800000Y-216550000D03*
%TO.P,REF\u002A\u002A39,9*%
%TO.N,GND*%
X296350000Y-218650000D03*
%TD*%
%TO.P,REF\u002A\u002A33,5*%
%TO.N,N/C*%
X248750000Y-165250000D03*
%TO.P,REF\u002A\u002A33,6*%
X252850000Y-165250000D03*
%TO.P,REF\u002A\u002A33,7*%
%TO.N,K13*%
X248000000Y-167250000D03*
%TO.P,REF\u002A\u002A33,8*%
%TO.N,A13*%
X248000000Y-168750000D03*
%TO.P,REF\u002A\u002A33,9*%
%TO.N,GND*%
X248550000Y-170850000D03*
%TD*%
D11*
%TO.P,REF\u002A\u002A,S1*%
%TO.N,N/C*%
X60000000Y-90505000D03*
%TO.P,REF\u002A\u002A,S2*%
X60000000Y-109495000D03*
%TD*%
%TO.P,REF\u002A\u002A,S1*%
%TO.N,N/C*%
X60000000Y-170505000D03*
%TO.P,REF\u002A\u002A,S2*%
X60000000Y-189495000D03*
%TD*%
D12*
%TO.P,LEDs,1*%
%TO.N,N/C*%
X63000000Y-317400000D03*
D13*
%TO.P,LEDs,2*%
%TO.N,GND*%
X57975000Y-322425000D03*
X68025000Y-322425000D03*
X57975000Y-312375000D03*
X68025000Y-312375000D03*
%TD*%
D14*
%TO.N,*%
X72500000Y-310900000D03*
%TO.N,GND*%
X72600000Y-322000000D03*
D15*
%TO.N,K0*%
X69200000Y-88000000D03*
%TO.N,A0*%
X57250000Y-93600000D03*
%TO.N,K1*%
X68124265Y-93124265D03*
%TO.N,A1*%
X57250000Y-94400000D03*
%TO.N,K2*%
X69600000Y-93600000D03*
%TO.N,A2*%
X57250000Y-95200000D03*
%TO.N,K3*%
X72900000Y-93400000D03*
%TO.N,A3*%
X57250000Y-96000000D03*
%TO.N,K4*%
X68700000Y-96600000D03*
%TO.N,A4*%
X57250000Y-96800000D03*
%TO.N,K5*%
X67800000Y-97600000D03*
%TO.N,A5*%
X57250000Y-97600000D03*
%TO.N,K6*%
X67400000Y-101600000D03*
%TO.N,A6*%
X57250000Y-101600000D03*
%TO.N,K7*%
X68200000Y-102800000D03*
%TO.N,A7*%
X57250000Y-102400000D03*
%TO.N,K8*%
X69500000Y-104600000D03*
%TO.N,A8*%
X57250000Y-103200000D03*
%TO.N,K9*%
X68200000Y-105600000D03*
%TO.N,A9*%
X57250000Y-104000000D03*
%TO.N,A10*%
X57250000Y-104800000D03*
%TO.N,K10*%
X67600000Y-107000000D03*
%TO.N,A11*%
X57250000Y-105600000D03*
%TO.N,K11*%
X68200000Y-108400000D03*
%TO.N,A12*%
X57250000Y-106400000D03*
%TO.N,K12*%
X67600000Y-114600000D03*
%TO.N,K14*%
X72100000Y-173800000D03*
%TO.N,A14*%
X57200000Y-174400000D03*
%TO.N,K13*%
X71900000Y-170700000D03*
%TO.N,A13*%
X57200000Y-173600000D03*
%TO.N,K15*%
X68400000Y-175200000D03*
%TO.N,A15*%
X57200000Y-175200000D03*
%TO.N,K16*%
X71500000Y-181200000D03*
%TO.N,A16*%
X57200000Y-176000000D03*
%TO.N,K17*%
X74300000Y-188600000D03*
%TO.N,A17*%
X57200000Y-176800000D03*
%TO.N,K18*%
X73600000Y-190900000D03*
%TO.N,A18*%
X57200000Y-177600000D03*
%TO.N,K19*%
X66400000Y-185200000D03*
%TO.N,A19*%
X57200000Y-181600000D03*
%TO.N,K20*%
X70600000Y-193000000D03*
%TO.N,A20*%
X57200000Y-182400000D03*
%TO.N,K21*%
X69400000Y-192000000D03*
%TO.N,A21*%
X57200000Y-183200000D03*
%TO.N,K22*%
X74700000Y-200150000D03*
%TO.N,A22*%
X57200000Y-184000000D03*
%TO.N,K23*%
X72723904Y-200824274D03*
%TO.N,A23*%
X57200000Y-184800000D03*
%TO.N,K24*%
X66400000Y-196000000D03*
%TO.N,A24*%
X57200000Y-185600000D03*
%TD*%
D16*
%TO.N,*%
X300650000Y-260850000D02*
X300650000Y-267950000D01*
X300650000Y-267950000D02*
X276900000Y-291700000D01*
X276900000Y-291700000D02*
X82600000Y-291700000D01*
X82600000Y-291700000D02*
X80500000Y-293800000D01*
X80500000Y-293800000D02*
X80500000Y-302900000D01*
X80500000Y-302900000D02*
X72500000Y-310900000D01*
%TO.N,GND*%
X250700000Y-259950000D02*
X299200000Y-259950000D01*
X299200000Y-259950000D02*
X301500000Y-259950000D01*
X298700000Y-260900000D02*
X299200000Y-260400000D01*
X299200000Y-260400000D02*
X299200000Y-259950000D01*
X248550000Y-266450000D02*
X248550000Y-265550000D01*
X250700000Y-265500000D02*
X250700000Y-259950000D01*
X248550000Y-265550000D02*
X250650000Y-265550000D01*
X250650000Y-265550000D02*
X250700000Y-265500000D01*
X202900000Y-265500000D02*
X202900000Y-259950000D01*
X202900000Y-259950000D02*
X250900000Y-259950000D01*
X155100000Y-265500000D02*
X155100000Y-259950000D01*
X155100000Y-259950000D02*
X203100000Y-259950000D01*
X155300000Y-259950000D02*
X107300000Y-259950000D01*
X107300000Y-259950000D02*
X107300000Y-265500000D01*
X107300000Y-217700000D02*
X107300000Y-212150000D01*
X107300000Y-212150000D02*
X155300000Y-212150000D01*
X105150000Y-218650000D02*
X105150000Y-217750000D01*
X152950000Y-218650000D02*
X152950000Y-217750000D01*
X155100000Y-217700000D02*
X155100000Y-212150000D01*
X155100000Y-212150000D02*
X203100000Y-212150000D01*
X200750000Y-218650000D02*
X200750000Y-217750000D01*
X250900000Y-212150000D02*
X202900000Y-212150000D01*
X202900000Y-212150000D02*
X202900000Y-217700000D01*
X250700000Y-217700000D02*
X250700000Y-212150000D01*
X250700000Y-212150000D02*
X298700000Y-212150000D01*
X248550000Y-218650000D02*
X248550000Y-217750000D01*
X296400000Y-217750000D02*
X298650000Y-217750000D01*
X298650000Y-217750000D02*
X298700000Y-217700000D01*
X298700000Y-217700000D02*
X298700000Y-212150000D01*
X296350000Y-217750000D02*
X296400000Y-217750000D01*
X296350000Y-218650000D02*
X296350000Y-217800000D01*
X296350000Y-217800000D02*
X296400000Y-217750000D01*
X296350000Y-170850000D02*
X296350000Y-169950000D01*
X250700000Y-164350000D02*
X298800000Y-164350000D01*
X298800000Y-164350000D02*
X301500000Y-164350000D01*
X298700000Y-165300000D02*
X298800000Y-165200000D01*
X298800000Y-165200000D02*
X298800000Y-164350000D01*
X248550000Y-170850000D02*
X248550000Y-169950000D01*
X248550000Y-169950000D02*
X250650000Y-169950000D01*
X250700000Y-169900000D02*
X250700000Y-164350000D01*
X250650000Y-169950000D02*
X250700000Y-169900000D01*
X202900000Y-169900000D02*
X202900000Y-164350000D01*
X202900000Y-164350000D02*
X250900000Y-164350000D01*
X200750000Y-170850000D02*
X200750000Y-169950000D01*
X155100000Y-169900000D02*
X155100000Y-164350000D01*
X155100000Y-164350000D02*
X203100000Y-164350000D01*
X152950000Y-170850000D02*
X152950000Y-169950000D01*
X155300000Y-164350000D02*
X107300000Y-164350000D01*
X107300000Y-164350000D02*
X107300000Y-169900000D01*
X105150000Y-170850000D02*
X105150000Y-169950000D01*
X107300000Y-122100000D02*
X107300000Y-116550000D01*
X107300000Y-116550000D02*
X155300000Y-116550000D01*
X105150000Y-123050000D02*
X105150000Y-122150000D01*
X152950000Y-122150000D02*
X152950000Y-123050000D01*
X203100000Y-116550000D02*
X155400000Y-116550000D01*
X155100000Y-117500000D02*
X155400000Y-117200000D01*
X155400000Y-116550000D02*
X155100000Y-116550000D01*
X155400000Y-117200000D02*
X155400000Y-116550000D01*
X250900000Y-116550000D02*
X203400000Y-116550000D01*
X203400000Y-116550000D02*
X202900000Y-116550000D01*
X202900000Y-117500000D02*
X203400000Y-117000000D01*
X203400000Y-117000000D02*
X203400000Y-116550000D01*
X200750000Y-123050000D02*
X200750000Y-122150000D01*
X298700000Y-116550000D02*
X251400000Y-116550000D01*
X251400000Y-116550000D02*
X250700000Y-116550000D01*
X250700000Y-122100000D02*
X250700000Y-117250000D01*
X250700000Y-117250000D02*
X251400000Y-116550000D01*
X248550000Y-122150000D02*
X248550000Y-123050000D01*
X301500000Y-116550000D02*
X299000000Y-116550000D01*
X299000000Y-116550000D02*
X298700000Y-116550000D01*
X298700000Y-117500000D02*
X299000000Y-117200000D01*
X299000000Y-117200000D02*
X299000000Y-116550000D01*
X296350000Y-122150000D02*
X296350000Y-123050000D01*
X298700000Y-68750000D02*
X301150000Y-68750000D01*
X301150000Y-68750000D02*
X301500000Y-69100000D01*
X301500000Y-69100000D02*
X301500000Y-260900000D01*
X296350000Y-75250000D02*
X296350000Y-74350000D01*
X296350000Y-74350000D02*
X298650000Y-74350000D01*
X298650000Y-74350000D02*
X298700000Y-74300000D01*
X298700000Y-74300000D02*
X298700000Y-68750000D01*
X250700000Y-69700000D02*
X250900000Y-69500000D01*
X250900000Y-69500000D02*
X250900000Y-68750000D01*
X248550000Y-74350000D02*
X248550000Y-75250000D01*
X105150000Y-75250000D02*
X105150000Y-74350000D01*
X153000000Y-74350000D02*
X152950000Y-74350000D01*
X153000000Y-75200000D02*
X152950000Y-75250000D01*
X155050000Y-74350000D02*
X153000000Y-74350000D01*
X153000000Y-74350000D02*
X153000000Y-75200000D01*
X200750000Y-74350000D02*
X200750000Y-75250000D01*
X202900000Y-69700000D02*
X203100000Y-69500000D01*
X203100000Y-69500000D02*
X203100000Y-68750000D01*
X155100000Y-69700000D02*
X155300000Y-69500000D01*
X155300000Y-69500000D02*
X155300000Y-68750000D01*
X155300000Y-68750000D02*
X107600000Y-68750000D01*
X107600000Y-68750000D02*
X107300000Y-68750000D01*
X107300000Y-69050000D02*
X107600000Y-68750000D01*
X107300000Y-74300000D02*
X107300000Y-69050000D01*
X105350000Y-68500000D02*
X107050000Y-68500000D01*
X107050000Y-68500000D02*
X107300000Y-68750000D01*
X296350000Y-265550000D02*
X296350000Y-266450000D01*
X200750000Y-265550000D02*
X200750000Y-266450000D01*
X152950000Y-265550000D02*
X152950000Y-266450000D01*
X105150000Y-266450000D02*
X105150000Y-265550000D01*
%TO.N,K21*%
X110767157Y-267767157D02*
X110800000Y-267800000D01*
X103805025Y-266339339D02*
X105232843Y-267767157D01*
X105232843Y-267767157D02*
X110767157Y-267767157D01*
X91345587Y-252735537D02*
X103805025Y-265194975D01*
X111400000Y-266250000D02*
X149000000Y-266250000D01*
X110800000Y-266850000D02*
X111400000Y-266250000D01*
X103805025Y-265194975D02*
X103805025Y-266339339D01*
X110800000Y-267800000D02*
X110800000Y-266850000D01*
%TO.N,*%
X106100000Y-211150000D02*
X300500000Y-211150000D01*
X109450000Y-260800000D02*
X153150000Y-260800000D01*
X205050000Y-69600000D02*
X248750000Y-69600000D01*
X300650000Y-117400000D02*
X300650000Y-163200000D01*
X106100000Y-163350000D02*
X300500000Y-163350000D01*
X109450000Y-165200000D02*
X153150000Y-165200000D01*
X157250000Y-117400000D02*
X200950000Y-117400000D01*
X300700000Y-115550000D02*
X106100000Y-115550000D01*
X252850000Y-117400000D02*
X296550000Y-117400000D01*
X157250000Y-260800000D02*
X200950000Y-260800000D01*
X109450000Y-213000000D02*
X153150000Y-213000000D01*
X252850000Y-260800000D02*
X296550000Y-260800000D01*
X205050000Y-117400000D02*
X248750000Y-117400000D01*
X105350000Y-165200000D02*
X105350000Y-164100000D01*
X157250000Y-213000000D02*
X200950000Y-213000000D01*
X252850000Y-165200000D02*
X296550000Y-165200000D01*
X105350000Y-260800000D02*
X105350000Y-259700000D01*
X252850000Y-69600000D02*
X296550000Y-69600000D01*
X105350000Y-211900000D02*
X106100000Y-211150000D01*
X105350000Y-213000000D02*
X105350000Y-211900000D01*
X205050000Y-260800000D02*
X248750000Y-260800000D01*
X300650000Y-211000000D02*
X300500000Y-211150000D01*
X105350000Y-164100000D02*
X106100000Y-163350000D01*
X105350000Y-116300000D02*
X105350000Y-117400000D01*
X300700000Y-69650000D02*
X300700000Y-115550000D01*
X205050000Y-213000000D02*
X248750000Y-213000000D01*
X300650000Y-213000000D02*
X300650000Y-258800000D01*
X109450000Y-69600000D02*
X153150000Y-69600000D01*
X300650000Y-163200000D02*
X300500000Y-163350000D01*
X105350000Y-259700000D02*
X106100000Y-258950000D01*
X300650000Y-258800000D02*
X300500000Y-258950000D01*
X300650000Y-165200000D02*
X300650000Y-211000000D01*
X300650000Y-69600000D02*
X300700000Y-69650000D01*
X106100000Y-258950000D02*
X300500000Y-258950000D01*
X157250000Y-69600000D02*
X200950000Y-69600000D01*
X157250000Y-165200000D02*
X200950000Y-165200000D01*
X109450000Y-117400000D02*
X153150000Y-117400000D01*
X106100000Y-115550000D02*
X105350000Y-116300000D01*
X252850000Y-213000000D02*
X296550000Y-213000000D01*
X205050000Y-165200000D02*
X248750000Y-165200000D01*
%TO.N,GND*%
X298650000Y-169950000D02*
X298700000Y-169900000D01*
X298700000Y-122100000D02*
X298700000Y-117500000D01*
D17*
X88200000Y-298100000D02*
X295500000Y-298100000D01*
D16*
X250650000Y-122150000D02*
X248550000Y-122150000D01*
X155050000Y-122150000D02*
X152950000Y-122150000D01*
X250700000Y-69700000D02*
X250700000Y-74300000D01*
X202850000Y-74350000D02*
X200750000Y-74350000D01*
D17*
X301375000Y-292225000D02*
X301375000Y-261025000D01*
D16*
X155050000Y-217750000D02*
X152950000Y-217750000D01*
X202900000Y-69700000D02*
X202900000Y-74300000D01*
X203100000Y-68750000D02*
X155100000Y-68750000D01*
X301500000Y-212150000D02*
X298700000Y-212150000D01*
X105350000Y-69600000D02*
X105350000Y-68500000D01*
X107250000Y-169950000D02*
X105150000Y-169950000D01*
D17*
X295500000Y-298100000D02*
X301375000Y-292225000D01*
D16*
X298700000Y-265500000D02*
X298700000Y-260900000D01*
X107250000Y-217750000D02*
X105150000Y-217750000D01*
X107250000Y-122150000D02*
X105150000Y-122150000D01*
X155100000Y-69700000D02*
X155100000Y-74300000D01*
X155100000Y-117500000D02*
X155100000Y-122100000D01*
D17*
X88200000Y-306400000D02*
X72600000Y-322000000D01*
X88200000Y-298100000D02*
X88200000Y-306400000D01*
D16*
X298650000Y-265550000D02*
X298700000Y-265500000D01*
X250650000Y-217750000D02*
X248550000Y-217750000D01*
X296350000Y-122150000D02*
X298650000Y-122150000D01*
X298700000Y-169900000D02*
X298700000Y-165300000D01*
X202900000Y-117500000D02*
X202900000Y-122100000D01*
X202850000Y-122150000D02*
X200750000Y-122150000D01*
X202850000Y-217750000D02*
X200750000Y-217750000D01*
D17*
X301375000Y-261025000D02*
X301500000Y-260900000D01*
D16*
X298650000Y-122150000D02*
X298700000Y-122100000D01*
X107250000Y-265550000D02*
X105150000Y-265550000D01*
X202850000Y-169950000D02*
X200750000Y-169950000D01*
X296350000Y-265550000D02*
X298650000Y-265550000D01*
X155050000Y-169950000D02*
X152950000Y-169950000D01*
X250650000Y-74350000D02*
X248550000Y-74350000D01*
X107250000Y-74350000D02*
X105150000Y-74350000D01*
X155050000Y-265550000D02*
X152950000Y-265550000D01*
X202850000Y-265550000D02*
X200750000Y-265550000D01*
X296350000Y-169950000D02*
X298650000Y-169950000D01*
X250700000Y-74300000D02*
X250650000Y-74350000D01*
X250900000Y-68750000D02*
X202900000Y-68750000D01*
X298700000Y-68750000D02*
X250700000Y-68750000D01*
%TO.N,K0*%
X73900000Y-78100000D02*
X69200000Y-82800000D01*
X104600000Y-71650000D02*
X98700000Y-77550000D01*
X98700000Y-77550000D02*
X98700000Y-78100000D01*
X69200000Y-82800000D02*
X69200000Y-88000000D01*
X98700000Y-78100000D02*
X73900000Y-78100000D01*
%TO.N,A0*%
X70200000Y-90200000D02*
X70200000Y-82400000D01*
X104600000Y-73500000D02*
X99600000Y-78500000D01*
X99600000Y-78500000D02*
X74100000Y-78500000D01*
X70200000Y-82400000D02*
X74100000Y-78500000D01*
X70200000Y-90200000D02*
X66800000Y-93600000D01*
X104600000Y-73150000D02*
X104600000Y-73500000D01*
X66800000Y-93600000D02*
X57250000Y-93600000D01*
%TO.N,K1*%
X75948530Y-85300000D02*
X68124265Y-93124265D01*
X152400000Y-71650000D02*
X138750000Y-85300000D01*
X138750000Y-85300000D02*
X75948530Y-85300000D01*
%TO.N,A1*%
X140000000Y-85900000D02*
X152400000Y-73500000D01*
X57250000Y-94400000D02*
X67765686Y-94400000D01*
X152400000Y-73500000D02*
X152400000Y-73150000D01*
X139800000Y-85700000D02*
X140000000Y-85900000D01*
X67765686Y-94400000D02*
X76465686Y-85700000D01*
X76465686Y-85700000D02*
X139800000Y-85700000D01*
%TO.N,K2*%
X76900000Y-86300000D02*
X69600000Y-93600000D01*
X200200000Y-71650000D02*
X199550000Y-71650000D01*
X101300000Y-86500000D02*
X101100000Y-86300000D01*
X199550000Y-71650000D02*
X184700000Y-86500000D01*
X101100000Y-86300000D02*
X76900000Y-86300000D01*
X184700000Y-86500000D02*
X101300000Y-86500000D01*
%TO.N,A2*%
X200200000Y-73150000D02*
X200200000Y-73500000D01*
X68848529Y-95200000D02*
X57250000Y-95200000D01*
X77148529Y-86900000D02*
X68848529Y-95200000D01*
X186800000Y-86900000D02*
X77148529Y-86900000D01*
X200200000Y-73500000D02*
X186800000Y-86900000D01*
%TO.N,K3*%
X232350000Y-87300000D02*
X248000000Y-71650000D01*
X72900000Y-93400000D02*
X74400000Y-93400000D01*
X74400000Y-93400000D02*
X80500000Y-87300000D01*
X80500000Y-87300000D02*
X232350000Y-87300000D01*
%TO.N,A3*%
X248000000Y-73150000D02*
X248000000Y-73200000D01*
X79400000Y-89000000D02*
X72400000Y-96000000D01*
X106400000Y-89000000D02*
X79400000Y-89000000D01*
X232900000Y-88300000D02*
X107100000Y-88300000D01*
X248000000Y-73200000D02*
X232900000Y-88300000D01*
X107100000Y-88300000D02*
X106400000Y-89000000D01*
X248200000Y-72950000D02*
X248000000Y-73150000D01*
X72400000Y-96000000D02*
X57250000Y-96000000D01*
%TO.N,K4*%
X68700000Y-96600000D02*
X91600000Y-96600000D01*
X98800000Y-89400000D02*
X278000000Y-89400000D01*
X91600000Y-96600000D02*
X98800000Y-89400000D01*
X295750000Y-71650000D02*
X295800000Y-71650000D01*
X278000000Y-89400000D02*
X295750000Y-71650000D01*
%TO.N,A4*%
X92800000Y-97500000D02*
X68548529Y-97500000D01*
X279150000Y-89800000D02*
X100500000Y-89800000D01*
X100500000Y-89800000D02*
X92800000Y-97500000D01*
X68548529Y-97500000D02*
X67848529Y-96800000D01*
X67848529Y-96800000D02*
X57250000Y-96800000D01*
X295800000Y-73150000D02*
X279150000Y-89800000D01*
%TO.N,K5*%
X98700000Y-125900000D02*
X94900000Y-125900000D01*
X98700000Y-125100000D02*
X98700000Y-125900000D01*
X94900000Y-125900000D02*
X82700000Y-113700000D01*
X104350000Y-119450000D02*
X98700000Y-125100000D01*
X104600000Y-119450000D02*
X104350000Y-119450000D01*
X67800000Y-97600000D02*
X82700000Y-112500000D01*
X82700000Y-112500000D02*
X82700000Y-113700000D01*
%TO.N,A5*%
X57850000Y-98200000D02*
X57250000Y-97600000D01*
X67300000Y-98200000D02*
X67300000Y-98865686D01*
X104465686Y-120950000D02*
X104600000Y-120950000D01*
X67300000Y-98865686D02*
X94734314Y-126300000D01*
X67300000Y-98200000D02*
X57850000Y-98200000D01*
X99115686Y-126300000D02*
X104465686Y-120950000D01*
X94734314Y-126300000D02*
X99115686Y-126300000D01*
%TO.N,K6*%
X67400000Y-101600000D02*
X69468628Y-101600000D01*
X99281372Y-126700000D02*
X94568628Y-126700000D01*
X94568628Y-126700000D02*
X85768628Y-117900000D01*
X152400000Y-119450000D02*
X138750000Y-133100000D01*
X69468628Y-101600000D02*
X85884314Y-118015686D01*
X105900000Y-133100000D02*
X99390686Y-126590686D01*
X99390686Y-126590686D02*
X99281372Y-126700000D01*
X138750000Y-133100000D02*
X105900000Y-133100000D01*
%TO.N,A6*%
X105100000Y-133700000D02*
X98500000Y-127100000D01*
X94402942Y-127100000D02*
X85701471Y-118398529D01*
X66200000Y-102200000D02*
X65600000Y-101600000D01*
X98500000Y-127100000D02*
X94402942Y-127100000D01*
X152600000Y-120750000D02*
X139650000Y-133700000D01*
X65600000Y-101600000D02*
X57250000Y-101600000D01*
X69400000Y-102200000D02*
X66200000Y-102200000D01*
X139650000Y-133700000D02*
X105100000Y-133700000D01*
X85598529Y-118398529D02*
X69400000Y-102200000D01*
X85701471Y-118398529D02*
X85598529Y-118398529D01*
X85701471Y-118398529D02*
X85602942Y-118300000D01*
%TO.N,K7*%
X105134314Y-134300000D02*
X98817157Y-127982843D01*
X69434314Y-102800000D02*
X68200000Y-102800000D01*
X200200000Y-119450000D02*
X185350000Y-134300000D01*
X185350000Y-134300000D02*
X105134314Y-134300000D01*
X98817157Y-127982843D02*
X94082843Y-127982843D01*
X86500000Y-119865686D02*
X69434314Y-102800000D01*
X86500000Y-120400000D02*
X86500000Y-119865686D01*
X94082843Y-127982843D02*
X86500000Y-120400000D01*
%TO.N,A7*%
X60698529Y-103800000D02*
X59298529Y-102400000D01*
X104700000Y-134700000D02*
X104100000Y-134100000D01*
X200200000Y-120950000D02*
X200200000Y-121300000D01*
X104100000Y-134100000D02*
X102500000Y-134100000D01*
X186800000Y-134700000D02*
X104700000Y-134700000D01*
X102500000Y-134100000D02*
X100017157Y-131617157D01*
X86100000Y-121217157D02*
X86100000Y-120200000D01*
X100017157Y-131617157D02*
X97782843Y-131617157D01*
X69700000Y-103800000D02*
X60698529Y-103800000D01*
X200200000Y-121300000D02*
X186800000Y-134700000D01*
X86100000Y-120200000D02*
X69700000Y-103800000D01*
X93700000Y-128817157D02*
X86100000Y-121217157D01*
X94982843Y-128817157D02*
X93700000Y-128817157D01*
X59298529Y-102400000D02*
X57250000Y-102400000D01*
X97782843Y-131617157D02*
X94982843Y-128817157D01*
%TO.N,K8*%
X248000000Y-119450000D02*
X232350000Y-135100000D01*
X96900000Y-132300000D02*
X94300000Y-129700000D01*
X99500000Y-132300000D02*
X96900000Y-132300000D01*
X232350000Y-135100000D02*
X102300000Y-135100000D01*
X94300000Y-129700000D02*
X93100000Y-129700000D01*
X85700000Y-122300000D02*
X85700000Y-120800000D01*
X102300000Y-135100000D02*
X99500000Y-132300000D01*
X93100000Y-129700000D02*
X85700000Y-122300000D01*
X85700000Y-120800000D02*
X69500000Y-104600000D01*
%TO.N,A8*%
X103900000Y-136100000D02*
X233300000Y-136100000D01*
X85300000Y-121300000D02*
X85300000Y-122465686D01*
X59200000Y-103200000D02*
X60351471Y-104351471D01*
X102300000Y-135900000D02*
X103700000Y-135900000D01*
X85300000Y-122465686D02*
X96134314Y-133300000D01*
X233300000Y-136100000D02*
X248000000Y-121400000D01*
X103700000Y-135900000D02*
X103900000Y-136100000D01*
X68351471Y-104351471D02*
X85300000Y-121300000D01*
X57250000Y-103200000D02*
X59200000Y-103200000D01*
X96134314Y-133300000D02*
X99700000Y-133300000D01*
X99700000Y-133300000D02*
X102300000Y-135900000D01*
X248000000Y-121400000D02*
X248000000Y-120950000D01*
X60351471Y-104351471D02*
X68351471Y-104351471D01*
%TO.N,K9*%
X83300000Y-119900000D02*
X69000000Y-105600000D01*
X295100000Y-120900000D02*
X278800000Y-137200000D01*
X83300000Y-121031372D02*
X83300000Y-119900000D01*
X102800000Y-137200000D02*
X99900000Y-134300000D01*
X99900000Y-134300000D02*
X96568628Y-134300000D01*
X295800000Y-119450000D02*
X295100000Y-120150000D01*
X295100000Y-120150000D02*
X295100000Y-120900000D01*
X69000000Y-105600000D02*
X68200000Y-105600000D01*
X278800000Y-137200000D02*
X102800000Y-137200000D01*
X96568628Y-134300000D02*
X83300000Y-121031372D01*
%TO.N,A9*%
X82765685Y-121062743D02*
X97802942Y-136100000D01*
X97802942Y-136100000D02*
X98300000Y-136100000D01*
X57298529Y-104000000D02*
X57250000Y-104000000D01*
X99800000Y-137600000D02*
X98300000Y-136100000D01*
X295800000Y-120950000D02*
X295800000Y-121200000D01*
X82765685Y-120000000D02*
X68965685Y-106200000D01*
X59498529Y-106200000D02*
X57298529Y-104000000D01*
X68965685Y-106200000D02*
X59498529Y-106200000D01*
X82765685Y-120000000D02*
X82765685Y-121062743D01*
X279400000Y-137600000D02*
X99800000Y-137600000D01*
X295800000Y-121200000D02*
X279400000Y-137600000D01*
%TO.N,A10*%
X68800000Y-107800000D02*
X62565686Y-107800000D01*
X61365686Y-106600000D02*
X59200000Y-106600000D01*
X98875000Y-163025000D02*
X98875000Y-138875000D01*
X59200000Y-106600000D02*
X57400000Y-104800000D01*
X62565686Y-107800000D02*
X61365686Y-106600000D01*
X104600000Y-168750000D02*
X98875000Y-163025000D01*
X104600000Y-168750000D02*
X104600000Y-169100000D01*
X57400000Y-104800000D02*
X57250000Y-104800000D01*
X98875000Y-138875000D02*
X68800000Y-108800000D01*
X68800000Y-108800000D02*
X68800000Y-107800000D01*
%TO.N,K10*%
X99800000Y-160434314D02*
X104600000Y-165234314D01*
X67600000Y-107000000D02*
X69200000Y-107000000D01*
X104600000Y-165234314D02*
X104600000Y-167250000D01*
X75900000Y-114762744D02*
X99800000Y-138662744D01*
X69700000Y-108200000D02*
X75900000Y-114400000D01*
X69200000Y-108200000D02*
X69700000Y-108200000D01*
X75900000Y-114400000D02*
X75900000Y-114762744D01*
X99800000Y-138662744D02*
X99800000Y-160434314D01*
X69200000Y-107000000D02*
X69200000Y-108200000D01*
%TO.N,A11*%
X57298529Y-105600000D02*
X59498529Y-107800000D01*
X57250000Y-105600000D02*
X57298529Y-105600000D01*
X91100000Y-167500000D02*
X105100000Y-181500000D01*
X105100000Y-181500000D02*
X140000000Y-181500000D01*
X62000000Y-107800000D02*
X91100000Y-136900000D01*
X59498529Y-107800000D02*
X62000000Y-107800000D01*
X91100000Y-136900000D02*
X91100000Y-167500000D01*
X140000000Y-181500000D02*
X152950000Y-168550000D01*
%TO.N,K11*%
X94100000Y-135300000D02*
X68200000Y-109400000D01*
X68200000Y-109400000D02*
X68200000Y-108400000D01*
X94600000Y-169600000D02*
X94600000Y-164300000D01*
X152150000Y-167500000D02*
X138750000Y-180900000D01*
X138750000Y-180900000D02*
X105900000Y-180900000D01*
X94600000Y-164300000D02*
X94100000Y-163800000D01*
X105900000Y-180900000D02*
X94600000Y-169600000D01*
X94100000Y-163800000D02*
X94100000Y-135300000D01*
%TO.N,A12*%
X62000000Y-117000000D02*
X57250000Y-112250000D01*
X57250000Y-112250000D02*
X57250000Y-106400000D01*
X89900000Y-167700000D02*
X89900000Y-139900000D01*
X67000000Y-117000000D02*
X62000000Y-117000000D01*
X200200000Y-168750000D02*
X200200000Y-169100000D01*
X186800000Y-182500000D02*
X104700000Y-182500000D01*
X200200000Y-169100000D02*
X186800000Y-182500000D01*
X104700000Y-182500000D02*
X89900000Y-167700000D01*
X89900000Y-139900000D02*
X67000000Y-117000000D01*
%TO.N,K12*%
X105134315Y-182100000D02*
X90300000Y-167265685D01*
X90300000Y-167265685D02*
X90300000Y-137300000D01*
X185350000Y-182100000D02*
X105134315Y-182100000D01*
X200200000Y-167250000D02*
X185350000Y-182100000D01*
X90300000Y-137300000D02*
X67600000Y-114600000D01*
%TO.N,K14*%
X72100000Y-173800000D02*
X74200000Y-171700000D01*
X102800000Y-185000000D02*
X102800000Y-184965686D01*
X89500000Y-171700000D02*
X102800000Y-185000000D01*
X295800000Y-167250000D02*
X278050000Y-185000000D01*
X74200000Y-171700000D02*
X89500000Y-171700000D01*
X278050000Y-185000000D02*
X102800000Y-185000000D01*
X102800000Y-184965686D02*
X101500000Y-183665686D01*
%TO.N,A14*%
X88800000Y-174400000D02*
X57200000Y-174400000D01*
X99800000Y-185400000D02*
X98300000Y-183900000D01*
X295800000Y-169000000D02*
X279400000Y-185400000D01*
X279400000Y-185400000D02*
X99800000Y-185400000D01*
X295800000Y-168750000D02*
X295800000Y-169000000D01*
X98300000Y-183900000D02*
X88800000Y-174400000D01*
%TO.N,K13*%
X89700000Y-170700000D02*
X100700000Y-181700000D01*
X103334314Y-181700000D02*
X104534314Y-182900000D01*
X71900000Y-170700000D02*
X89700000Y-170700000D01*
X100700000Y-181700000D02*
X103334314Y-181700000D01*
X232350000Y-182900000D02*
X248000000Y-167250000D01*
X104534314Y-182900000D02*
X232350000Y-182900000D01*
%TO.N,A13*%
X103900000Y-183900000D02*
X233300000Y-183900000D01*
X233300000Y-183900000D02*
X248000000Y-169200000D01*
X102500000Y-182500000D02*
X103900000Y-183900000D01*
X89700000Y-171300000D02*
X100900000Y-182500000D01*
X100900000Y-182500000D02*
X102500000Y-182500000D01*
X67200000Y-173600000D02*
X69500000Y-171300000D01*
X57200000Y-173600000D02*
X67200000Y-173600000D01*
X69500000Y-171300000D02*
X89700000Y-171300000D01*
X248000000Y-169200000D02*
X248000000Y-168750000D01*
%TO.N,K15*%
X89200000Y-175500000D02*
X88700000Y-175500000D01*
X88700000Y-175500000D02*
X88400000Y-175200000D01*
X104600000Y-215050000D02*
X104600000Y-190900000D01*
X88400000Y-175200000D02*
X68400000Y-175200000D01*
X104600000Y-190900000D02*
X89200000Y-175500000D01*
%TO.N,A15*%
X103900000Y-215850000D02*
X104600000Y-216550000D01*
X57200000Y-175200000D02*
X67000000Y-175200000D01*
X68800000Y-177000000D02*
X89634314Y-177000000D01*
X89634314Y-177000000D02*
X103900000Y-191265686D01*
X103900000Y-191265686D02*
X103900000Y-215850000D01*
X67000000Y-175200000D02*
X68800000Y-177000000D01*
%TO.N,K16*%
X98700000Y-191534315D02*
X88365685Y-181200000D01*
X152400000Y-215050000D02*
X138750000Y-228700000D01*
X88365685Y-181200000D02*
X71500000Y-181200000D01*
X98700000Y-199800000D02*
X98700000Y-191534315D01*
X105900000Y-228700000D02*
X99500000Y-222300000D01*
X99500000Y-200600000D02*
X98700000Y-199800000D01*
X138750000Y-228700000D02*
X105900000Y-228700000D01*
X99500000Y-222300000D02*
X99500000Y-200600000D01*
%TO.N,A16*%
X70751471Y-184000000D02*
X62751471Y-176000000D01*
X152400000Y-216550000D02*
X152400000Y-216900000D01*
X140200000Y-229100000D02*
X105100000Y-229100000D01*
X72900000Y-184200000D02*
X70951471Y-184200000D01*
X98700000Y-222700000D02*
X98700000Y-210000000D01*
X70800000Y-184000000D02*
X70751471Y-184000000D01*
X105100000Y-229100000D02*
X98700000Y-222700000D01*
X152400000Y-216900000D02*
X140200000Y-229100000D01*
X70951471Y-184200000D02*
X70800000Y-184048529D01*
X98700000Y-210000000D02*
X72900000Y-184200000D01*
X70800000Y-184048529D02*
X70800000Y-184000000D01*
X62751471Y-176000000D02*
X57200000Y-176000000D01*
%TO.N,K17*%
X105300000Y-229900000D02*
X185350000Y-229900000D01*
X98300000Y-222900000D02*
X105300000Y-229900000D01*
X74300000Y-188600000D02*
X76100000Y-190400000D01*
X76100000Y-190400000D02*
X76100000Y-191400000D01*
X98300000Y-213600000D02*
X98300000Y-222900000D01*
X185350000Y-229900000D02*
X200200000Y-215050000D01*
X76100000Y-191400000D02*
X98300000Y-213600000D01*
%TO.N,A17*%
X57200000Y-176800000D02*
X60800000Y-176800000D01*
X74334314Y-190200000D02*
X97900000Y-213765686D01*
X105134314Y-230300000D02*
X186450000Y-230300000D01*
X74200000Y-190200000D02*
X74334314Y-190200000D01*
X97900000Y-223065686D02*
X105134314Y-230300000D01*
X60800000Y-176800000D02*
X74200000Y-190200000D01*
X186450000Y-230300000D02*
X200200000Y-216550000D01*
X97900000Y-213765686D02*
X97900000Y-223065686D01*
%TO.N,K18*%
X74468628Y-190900000D02*
X73600000Y-190900000D01*
X232350000Y-230700000D02*
X104968628Y-230700000D01*
X97500000Y-223231372D02*
X97500000Y-213931372D01*
X248000000Y-215050000D02*
X232350000Y-230700000D01*
X97500000Y-213931372D02*
X74468628Y-190900000D01*
X104968628Y-230700000D02*
X97500000Y-223231372D01*
%TO.N,A18*%
X103900000Y-231700000D02*
X232850000Y-231700000D01*
X68000000Y-186800000D02*
X73000000Y-191800000D01*
X59400000Y-180400000D02*
X62800000Y-180400000D01*
X232850000Y-231700000D02*
X248000000Y-216550000D01*
X57200000Y-178200000D02*
X59400000Y-180400000D01*
X97100000Y-224900000D02*
X103900000Y-231700000D01*
X57200000Y-177600000D02*
X57200000Y-178200000D01*
X62800000Y-180400000D02*
X68000000Y-185600000D01*
X97100000Y-214097058D02*
X97100000Y-224900000D01*
X74802942Y-191800000D02*
X97100000Y-214097058D01*
X68000000Y-185600000D02*
X68000000Y-186800000D01*
X73000000Y-191800000D02*
X74802942Y-191800000D01*
%TO.N,K19*%
X96700000Y-225065686D02*
X96700000Y-214262744D01*
X104434314Y-232800000D02*
X96700000Y-225065686D01*
X278050000Y-232800000D02*
X104434314Y-232800000D01*
X72648528Y-192200000D02*
X66400000Y-185951472D01*
X74637256Y-192200000D02*
X72648528Y-192200000D01*
X96700000Y-214262744D02*
X74637256Y-192200000D01*
X66400000Y-185951472D02*
X66400000Y-185200000D01*
X295800000Y-215050000D02*
X278050000Y-232800000D01*
%TO.N,A19*%
X96300000Y-214428430D02*
X96300000Y-225231372D01*
X72482842Y-192600000D02*
X74471570Y-192600000D01*
X74471570Y-192600000D02*
X96300000Y-214428430D01*
X57200000Y-181600000D02*
X61482843Y-181600000D01*
X279400000Y-233200000D02*
X295800000Y-216800000D01*
X104268628Y-233200000D02*
X279400000Y-233200000D01*
X96300000Y-225231372D02*
X104268628Y-233200000D01*
X66000000Y-186117158D02*
X72482842Y-192600000D01*
X295800000Y-216800000D02*
X295800000Y-216550000D01*
X61482843Y-181600000D02*
X66000000Y-186117158D01*
%TO.N,K20*%
X74305884Y-193000000D02*
X95900000Y-214594116D01*
X95900000Y-254150000D02*
X104600000Y-262850000D01*
X70600000Y-193000000D02*
X74305884Y-193000000D01*
X95900000Y-214594116D02*
X95900000Y-254150000D01*
%TO.N,A20*%
X95500000Y-214759802D02*
X91511273Y-214759802D01*
X95500000Y-255250000D02*
X95500000Y-214759802D01*
X70000000Y-193248529D02*
X70000000Y-191200000D01*
X61200000Y-182400000D02*
X57200000Y-182400000D01*
X70000000Y-191200000D02*
X61200000Y-182400000D01*
X104600000Y-264350000D02*
X95500000Y-255250000D01*
X91511273Y-214759802D02*
X70000000Y-193248529D01*
%TO.N,K21*%
X69400000Y-192000000D02*
X69400000Y-193214215D01*
X149000000Y-266250000D02*
X152400000Y-262850000D01*
X91345587Y-215159802D02*
X91345587Y-252735537D01*
X69400000Y-193214215D02*
X91345587Y-215159802D01*
%TO.N,A21*%
X152400000Y-264350000D02*
X152400000Y-264700000D01*
X152400000Y-264700000D02*
X140000000Y-277100000D01*
X90945587Y-215325488D02*
X67800000Y-192179901D01*
X60600000Y-183200000D02*
X57200000Y-183200000D01*
X140000000Y-277100000D02*
X114000000Y-277100000D01*
X90945587Y-254045587D02*
X90945587Y-215325488D01*
X114000000Y-277100000D02*
X90945587Y-254045587D01*
X67800000Y-192179901D02*
X67800000Y-190400000D01*
X67800000Y-190400000D02*
X60600000Y-183200000D01*
%TO.N,K22*%
X90545587Y-216345587D02*
X90545587Y-254211273D01*
X185350000Y-277700000D02*
X200200000Y-262850000D01*
X74700000Y-200500000D02*
X90545587Y-216345587D01*
X114034314Y-277700000D02*
X185350000Y-277700000D01*
X74700000Y-200150000D02*
X74700000Y-200500000D01*
X90545587Y-254211273D02*
X114034314Y-277700000D01*
%TO.N,A22*%
X74100000Y-238331372D02*
X74100000Y-199045587D01*
X67400000Y-192345587D02*
X67400000Y-191000000D01*
X186800000Y-278100000D02*
X113868628Y-278100000D01*
X57200000Y-184000000D02*
X60400000Y-184000000D01*
X113868628Y-278100000D02*
X74100000Y-238331372D01*
X60400000Y-184000000D02*
X67050000Y-190650000D01*
X200200000Y-264350000D02*
X200200000Y-264700000D01*
X74100000Y-199045587D02*
X67400000Y-192345587D01*
X200200000Y-264700000D02*
X186800000Y-278100000D01*
X67400000Y-191000000D02*
X67050000Y-190650000D01*
%TO.N,K23*%
X72723904Y-200824274D02*
X72723904Y-237520962D01*
X232350000Y-278500000D02*
X248000000Y-262850000D01*
X113702942Y-278500000D02*
X232350000Y-278500000D01*
X72723904Y-237520962D02*
X113702942Y-278500000D01*
%TO.N,A23*%
X64000000Y-192700000D02*
X71600000Y-200300000D01*
X114137256Y-279500000D02*
X232850000Y-279500000D01*
X71600000Y-200300000D02*
X71600000Y-236962744D01*
X232850000Y-279500000D02*
X248000000Y-264350000D01*
X57200000Y-184800000D02*
X57248529Y-184800000D01*
X71600000Y-236962744D02*
X114137256Y-279500000D01*
X57248529Y-184800000D02*
X64000000Y-191551471D01*
X64000000Y-191551471D02*
X64000000Y-192700000D01*
%TO.N,K24*%
X71000000Y-200600000D02*
X66400000Y-196000000D01*
X295800000Y-262850000D02*
X278050000Y-280600000D01*
X114671570Y-280600000D02*
X71000000Y-236928430D01*
X71000000Y-236928430D02*
X71000000Y-200600000D01*
X278050000Y-280600000D02*
X114671570Y-280600000D01*
%TO.N,A24*%
X70100000Y-251300000D02*
X70100000Y-200500000D01*
X57200000Y-192600000D02*
X57200000Y-185600000D01*
X57600000Y-193000000D02*
X57200000Y-192600000D01*
X70100000Y-200500000D02*
X70051471Y-200500000D01*
X279400000Y-281000000D02*
X99800000Y-281000000D01*
X99800000Y-281000000D02*
X70100000Y-251300000D01*
X295800000Y-264600000D02*
X279400000Y-281000000D01*
X62551471Y-193000000D02*
X57600000Y-193000000D01*
X295800000Y-264350000D02*
X295800000Y-264600000D01*
X70051471Y-200500000D02*
X62551471Y-193000000D01*
%TD*%
M02*
