M48
; DRILL file {KiCad 8.0.2-1} date 2024-11-08T17:21:12-0500
; FORMAT={-:-/ absolute / inch / decimal}
; #@! TF.CreationDate,2024-11-08T17:21:12-05:00
; #@! TF.GenerationSoftware,Kicad,Pcbnew,8.0.2-1
; #@! TF.FileFunction,Plated,1,4,PTH
FMAT,2
INCH
; #@! TA.AperFunction,Plated,PTH,ViaDrill
T1C0.0118
; #@! TA.AperFunction,Plated,PTH,ViaDrill
T2C0.0157
; #@! TA.AperFunction,Plated,PTH,ComponentDrill
T3C0.0157
; #@! TA.AperFunction,Plated,PTH,ComponentDrill
T4C0.0331
; #@! TA.AperFunction,Plated,PTH,ComponentDrill
T5C0.0591
; #@! TA.AperFunction,Plated,PTH,ComponentDrill
T6C0.0669
%
G90
G05
T1
X2.252Y-8.4094
X2.252Y-8.4409
X2.252Y-8.4724
X2.252Y-8.5039
X2.252Y-8.5354
X2.252Y-8.5669
X2.252Y-8.7244
X2.252Y-8.7559
X2.252Y-8.7874
X2.252Y-8.8189
X2.252Y-8.8504
X2.252Y-8.8819
X2.2539Y-5.2598
X2.2539Y-5.2913
X2.2539Y-5.3228
X2.2539Y-5.3543
X2.2539Y-5.3858
X2.2539Y-5.4173
X2.2539Y-5.5748
X2.2539Y-5.6063
X2.2539Y-5.6378
X2.2539Y-5.6693
X2.2539Y-5.7008
X2.2539Y-5.7323
X2.2539Y-5.7638
X2.6142Y-8.8661
X2.6535Y-5.5748
X2.6614Y-5.7874
X2.6614Y-6.0866
X2.6693Y-5.4173
X2.6772Y-9.3307
X2.6821Y-5.2411
X2.685Y-5.622
X2.685Y-5.7323
X2.685Y-5.8425
X2.6929Y-8.4724
X2.7323Y-9.1339
X2.7402Y-5.2598
X2.7638Y-5.1024
X2.7638Y-5.7165
X2.7795Y-9.1575
X2.8031Y-8.8031
X2.8268Y-5.3386
X2.8346Y-8.3307
X2.8583Y-5.2441
X2.8583Y-8.126
X2.9291Y-9.0394
X2.9291Y-9.1024
X2.9339Y-9.4756
X3.0057Y-9.514
T2
X2.8543Y-12.2402
X2.8583Y-12.6772
T3
X4.9902Y-3.6929
X4.9902Y-3.752
X4.9902Y-5.6142
X4.9902Y-5.6732
X4.9902Y-7.5354
X4.9902Y-7.5945
X4.9902Y-9.4567
X4.9902Y-9.5157
X4.9902Y-11.378
X4.9902Y-11.437
X5.0118Y-3.7992
X5.0118Y-5.7205
X5.0118Y-7.6417
X5.0118Y-9.563
X5.0118Y-11.4843
X5.0197Y-3.6496
X5.0197Y-5.5709
X5.0197Y-7.4921
X5.0197Y-9.4134
X5.0197Y-11.3346
X5.1811Y-3.6496
X5.1811Y-5.5709
X5.1811Y-7.4921
X5.1811Y-9.4134
X5.1811Y-11.3346
X6.9114Y-3.6929
X6.9114Y-3.752
X6.9114Y-5.6142
X6.9114Y-5.6732
X6.9114Y-7.5354
X6.9114Y-7.5945
X6.9114Y-9.4567
X6.9114Y-9.5157
X6.9114Y-11.378
X6.9114Y-11.437
X6.9331Y-3.7992
X6.9331Y-5.7205
X6.9331Y-7.6417
X6.9331Y-9.563
X6.9331Y-11.4843
X6.9409Y-3.6496
X6.9409Y-5.5709
X6.9409Y-7.4921
X6.9409Y-9.4134
X6.9409Y-11.3346
X7.1024Y-3.6496
X7.1024Y-5.5709
X7.1024Y-7.4921
X7.1024Y-9.4134
X7.1024Y-11.3346
X8.8327Y-3.6929
X8.8327Y-3.752
X8.8327Y-5.6142
X8.8327Y-5.6732
X8.8327Y-7.5354
X8.8327Y-7.5945
X8.8327Y-9.4567
X8.8327Y-9.5157
X8.8327Y-11.378
X8.8327Y-11.437
X8.8543Y-3.7992
X8.8543Y-5.7205
X8.8543Y-7.6417
X8.8543Y-9.563
X8.8543Y-11.4843
X8.8622Y-3.6496
X8.8622Y-5.5709
X8.8622Y-7.4921
X8.8622Y-9.4134
X8.8622Y-11.3346
X9.0236Y-3.6496
X9.0236Y-5.5709
X9.0236Y-7.4921
X9.0236Y-9.4134
X9.0236Y-11.3346
X10.7539Y-3.6929
X10.7539Y-3.752
X10.7539Y-5.6142
X10.7539Y-5.6732
X10.7539Y-7.5354
X10.7539Y-7.5945
X10.7539Y-9.4567
X10.7539Y-9.5157
X10.7539Y-11.378
X10.7539Y-11.437
X10.7756Y-3.7992
X10.7756Y-5.7205
X10.7756Y-7.6417
X10.7756Y-9.563
X10.7756Y-11.4843
X10.7835Y-3.6496
X10.7835Y-5.5709
X10.7835Y-7.4921
X10.7835Y-9.4134
X10.7835Y-11.3346
X10.9449Y-3.6496
X10.9449Y-5.5709
X10.9449Y-7.4921
X10.9449Y-9.4134
X10.9449Y-11.3346
X12.6752Y-3.6929
X12.6752Y-3.752
X12.6752Y-5.6142
X12.6752Y-5.6732
X12.6752Y-7.5354
X12.6752Y-7.5945
X12.6752Y-9.4567
X12.6752Y-9.5157
X12.6752Y-11.378
X12.6752Y-11.437
X12.6969Y-3.7992
X12.6969Y-5.7205
X12.6969Y-7.6417
X12.6969Y-9.563
X12.6969Y-11.4843
X12.7047Y-3.6496
X12.7047Y-5.5709
X12.7047Y-7.4921
X12.7047Y-9.4134
X12.7047Y-11.3346
X12.8661Y-3.6496
X12.8661Y-5.5709
X12.8661Y-7.4921
X12.8661Y-9.4134
X12.8661Y-11.3346
T4
X2.3622Y-5.138
X2.3622Y-5.8856
X2.3622Y-8.2876
X2.3622Y-9.0352
T5
X2.3307Y-12.5984
T6
X2.2307Y-12.4984
X2.2307Y-12.6984
X2.4307Y-12.4984
X2.4307Y-12.6984
M30
