M48
; DRILL file {KiCad 8.0.2-1} date 2024-06-20T12:26:37-0400
; FORMAT={-:-/ absolute / inch / decimal}
; #@! TF.CreationDate,2024-06-20T12:26:37-04:00
; #@! TF.GenerationSoftware,Kicad,Pcbnew,8.0.2-1
; #@! TF.FileFunction,Plated,1,2,PTH
FMAT,2
INCH
; #@! TA.AperFunction,Plated,PTH,ViaDrill
T1C0.0118
; #@! TA.AperFunction,Plated,PTH,ViaDrill
T2C0.0157
; #@! TA.AperFunction,Plated,PTH,ComponentDrill
T3C0.0157
; #@! TA.AperFunction,Plated,PTH,ComponentDrill
T4C0.0331
; #@! TA.AperFunction,Plated,PTH,ComponentDrill
T5C0.0433
; #@! TA.AperFunction,Plated,PTH,ComponentDrill
T6C0.0591
%
G90
G05
T1
X2.252Y-8.4094
X2.252Y-8.4409
X2.252Y-8.4724
X2.252Y-8.5039
X2.252Y-8.5354
X2.252Y-8.5669
X2.252Y-8.7244
X2.252Y-8.7559
X2.252Y-8.7874
X2.252Y-8.8189
X2.252Y-8.8504
X2.252Y-8.8819
X2.2539Y-5.2598
X2.2539Y-5.2913
X2.2539Y-5.3228
X2.2539Y-5.3543
X2.2539Y-5.3858
X2.2539Y-5.4173
X2.2539Y-5.5748
X2.2539Y-5.6063
X2.2539Y-5.6378
X2.2539Y-5.6693
X2.2539Y-5.7008
X2.2539Y-5.7323
X2.2539Y-5.7638
X2.4961Y-9.3071
X2.5984Y-9.4567
X2.6142Y-8.8661
X2.6535Y-5.5748
X2.6614Y-5.7874
X2.6614Y-6.0866
X2.6693Y-5.4173
X2.6821Y-5.2411
X2.685Y-5.622
X2.685Y-5.7323
X2.685Y-5.8425
X2.685Y-9.4882
X2.6929Y-8.4724
X2.7323Y-9.1339
X2.7402Y-5.2598
X2.7638Y-5.1024
X2.7638Y-5.7165
X2.7795Y-9.1575
X2.8031Y-8.8031
X2.8268Y-5.3386
X2.8346Y-8.3307
X2.8583Y-5.2441
X2.8583Y-8.126
X2.9291Y-9.0394
X2.9291Y-9.1024
T2
X2.8543Y-12.2402
X2.8583Y-12.6772
T3
X5.0591Y-3.7618
X5.0591Y-3.8209
X5.0591Y-5.6437
X5.0591Y-5.7028
X5.0591Y-7.5256
X5.0591Y-7.5846
X5.0591Y-9.4075
X5.0591Y-9.4665
X5.0591Y-11.2894
X5.0591Y-11.3484
X5.0807Y-3.8681
X5.0807Y-5.75
X5.0807Y-7.6319
X5.0807Y-9.5138
X5.0807Y-11.3957
X5.0886Y-3.7185
X5.0886Y-5.6004
X5.0886Y-7.4823
X5.0886Y-9.3642
X5.0886Y-11.2461
X5.25Y-3.7185
X5.25Y-5.6004
X5.25Y-7.4823
X5.25Y-9.3642
X5.25Y-11.2461
X6.9409Y-3.7618
X6.9409Y-3.8209
X6.9409Y-5.6437
X6.9409Y-5.7028
X6.9409Y-7.5256
X6.9409Y-7.5846
X6.9409Y-9.4075
X6.9409Y-9.4665
X6.9409Y-11.2894
X6.9409Y-11.3484
X6.9626Y-3.8681
X6.9626Y-5.75
X6.9626Y-7.6319
X6.9626Y-9.5138
X6.9626Y-11.3957
X6.9705Y-3.7185
X6.9705Y-5.6004
X6.9705Y-7.4823
X6.9705Y-9.3642
X6.9705Y-11.2461
X7.1319Y-3.7185
X7.1319Y-5.6004
X7.1319Y-7.4823
X7.1319Y-9.3642
X7.1319Y-11.2461
X8.8228Y-3.7618
X8.8228Y-3.8209
X8.8228Y-5.6437
X8.8228Y-5.7028
X8.8228Y-7.5256
X8.8228Y-7.5846
X8.8228Y-9.4075
X8.8228Y-9.4665
X8.8228Y-11.2894
X8.8228Y-11.3484
X8.8445Y-3.8681
X8.8445Y-5.75
X8.8445Y-7.6319
X8.8445Y-9.5138
X8.8445Y-11.3957
X8.8524Y-3.7185
X8.8524Y-5.6004
X8.8524Y-7.4823
X8.8524Y-9.3642
X8.8524Y-11.2461
X9.0138Y-3.7185
X9.0138Y-5.6004
X9.0138Y-7.4823
X9.0138Y-9.3642
X9.0138Y-11.2461
X10.7047Y-3.7618
X10.7047Y-3.8209
X10.7047Y-5.6437
X10.7047Y-5.7028
X10.7047Y-7.5256
X10.7047Y-7.5846
X10.7047Y-9.4075
X10.7047Y-9.4665
X10.7047Y-11.2894
X10.7047Y-11.3484
X10.7264Y-3.8681
X10.7264Y-5.75
X10.7264Y-7.6319
X10.7264Y-9.5138
X10.7264Y-11.3957
X10.7343Y-3.7185
X10.7343Y-5.6004
X10.7343Y-7.4823
X10.7343Y-9.3642
X10.7343Y-11.2461
X10.8957Y-3.7185
X10.8957Y-5.6004
X10.8957Y-7.4823
X10.8957Y-9.3642
X10.8957Y-11.2461
X12.5866Y-3.7618
X12.5866Y-3.8209
X12.5866Y-5.6437
X12.5866Y-5.7028
X12.5866Y-7.5256
X12.5866Y-7.5846
X12.5866Y-9.4075
X12.5866Y-9.4665
X12.5866Y-11.2894
X12.5866Y-11.3484
X12.6083Y-3.8681
X12.6083Y-5.75
X12.6083Y-7.6319
X12.6083Y-9.5138
X12.6083Y-11.3957
X12.6161Y-3.7185
X12.6161Y-5.6004
X12.6161Y-7.4823
X12.6161Y-9.3642
X12.6161Y-11.2461
X12.7776Y-3.7185
X12.7776Y-5.6004
X12.7776Y-7.4823
X12.7776Y-9.3642
X12.7776Y-11.2461
T4
X2.3622Y-5.138
X2.3622Y-5.8856
X2.3622Y-8.2876
X2.3622Y-9.0352
T5
X2.4803Y-12.4961
T6
X2.2825Y-12.2982
X2.2825Y-12.6939
X2.6781Y-12.2982
X2.6781Y-12.6939
M30
