%TF.GenerationSoftware,KiCad,Pcbnew,8.0.2-1*%
%TF.CreationDate,2024-11-08T17:21:14-05:00*%
%TF.ProjectId,EvenLayers_1.3mm_SiPM,4576656e-4c61-4796-9572-735f312e336d,rev?*%
%TF.SameCoordinates,Original*%
%TF.FileFunction,Soldermask,Top*%
%TF.FilePolarity,Negative*%
%FSLAX46Y46*%
G04 Gerber Fmt 4.6, Leading zero omitted, Abs format (unit mm)*
G04 Created by KiCad (PCBNEW 8.0.2-1) date 2024-11-08 17:21:14*
%MOMM*%
%LPD*%
G01*
G04 APERTURE LIST*
G04 Aperture macros list*
%AMRoundRect*
0 Rectangle with rounded corners*
0 $1 Rounding radius*
0 $2 $3 $4 $5 $6 $7 $8 $9 X,Y pos of 4 corners*
0 Add a 4 corners polygon primitive as box body*
4,1,4,$2,$3,$4,$5,$6,$7,$8,$9,$2,$3,0*
0 Add four circle primitives for the rounded corners*
1,1,$1+$1,$2,$3*
1,1,$1+$1,$4,$5*
1,1,$1+$1,$6,$7*
1,1,$1+$1,$8,$9*
0 Add four rect primitives between the rounded corners*
20,1,$1+$1,$2,$3,$4,$5,0*
20,1,$1+$1,$4,$5,$6,$7,0*
20,1,$1+$1,$6,$7,$8,$9,0*
20,1,$1+$1,$8,$9,$2,$3,0*%
G04 Aperture macros list end*
%ADD10R,0.700000X0.700000*%
%ADD11RoundRect,0.237500X-0.287500X-0.237500X0.287500X-0.237500X0.287500X0.237500X-0.287500X0.237500X0*%
%ADD12RoundRect,0.225000X-0.225000X-0.250000X0.225000X-0.250000X0.225000X0.250000X-0.225000X0.250000X0*%
%ADD13C,1.270000*%
%ADD14RoundRect,0.102000X-0.600000X0.250000X-0.600000X-0.250000X0.600000X-0.250000X0.600000X0.250000X0*%
%ADD15C,1.552000*%
%ADD16C,2.050000*%
%ADD17C,2.250000*%
%ADD18RoundRect,0.250000X-0.312500X-0.625000X0.312500X-0.625000X0.312500X0.625000X-0.312500X0.625000X0*%
G04 APERTURE END LIST*
D10*
%TO.C,REF\u002A\u002A34*%
X325552500Y-191650000D03*
X325552500Y-192750000D03*
D11*
X323925000Y-190315000D03*
X325675000Y-190315000D03*
D10*
X323527500Y-191650000D03*
D12*
X325575000Y-194100000D03*
D10*
X323527500Y-192750000D03*
D12*
X324025000Y-194100000D03*
%TD*%
D10*
%TO.C,REF\u002A\u002A40*%
X130352500Y-289250000D03*
X130352500Y-290350000D03*
D11*
X128725000Y-287915000D03*
X130475000Y-287915000D03*
D10*
X128327500Y-289250000D03*
D12*
X130375000Y-291700000D03*
D10*
X128327500Y-290350000D03*
D12*
X128825000Y-291700000D03*
%TD*%
D10*
%TO.C,REF\u002A\u002A30*%
X130352500Y-191650000D03*
X130352500Y-192750000D03*
D11*
X128725000Y-190315000D03*
X130475000Y-190315000D03*
D10*
X128327500Y-191650000D03*
D12*
X130375000Y-194100000D03*
D10*
X128327500Y-192750000D03*
D12*
X128825000Y-194100000D03*
%TD*%
D10*
%TO.C,REF\u002A\u002A24*%
X325552500Y-94050000D03*
X325552500Y-95150000D03*
D11*
X323925000Y-92715000D03*
X325675000Y-92715000D03*
D10*
X323527500Y-94050000D03*
D12*
X325575000Y-96500000D03*
D10*
X323527500Y-95150000D03*
D12*
X324025000Y-96500000D03*
%TD*%
D13*
%TO.C,REF\u002A\u002A*%
X58500000Y-129255000D03*
X58500000Y-150745000D03*
D14*
X58300000Y-133600000D03*
X61700000Y-133600000D03*
X58300000Y-134400000D03*
X61700000Y-134400000D03*
X58300000Y-135200000D03*
X61700000Y-135200000D03*
X58300000Y-136000000D03*
X61700000Y-136000000D03*
X58300000Y-136800000D03*
X61700000Y-136800000D03*
X58300000Y-137600000D03*
X61700000Y-137600000D03*
X58300000Y-141600000D03*
X61700000Y-141600000D03*
X58300000Y-142400000D03*
X61700000Y-142400000D03*
X58300000Y-143200000D03*
X61700000Y-143200000D03*
X58300000Y-144000000D03*
X61700000Y-144000000D03*
X58300000Y-144800000D03*
X61700000Y-144800000D03*
X58300000Y-145600000D03*
X61700000Y-145600000D03*
X58300000Y-146400000D03*
X61700000Y-146400000D03*
D15*
X60000000Y-130505000D03*
X60000000Y-149495000D03*
%TD*%
D10*
%TO.C,REF\u002A\u002A43*%
X276752500Y-289250000D03*
X276752500Y-290350000D03*
D11*
X275125000Y-287915000D03*
X276875000Y-287915000D03*
D10*
X274727500Y-289250000D03*
D12*
X276775000Y-291700000D03*
D10*
X274727500Y-290350000D03*
D12*
X275225000Y-291700000D03*
%TD*%
D16*
%TO.C,REF\u002A\u002A*%
X59200000Y-320000000D03*
D17*
X56660000Y-317460000D03*
X56660000Y-322540000D03*
X61740000Y-317460000D03*
X61740000Y-322540000D03*
%TD*%
D10*
%TO.C,REF\u002A\u002A38*%
X276752500Y-240450000D03*
X276752500Y-241550000D03*
D11*
X275125000Y-239115000D03*
X276875000Y-239115000D03*
D10*
X274727500Y-240450000D03*
D12*
X276775000Y-242900000D03*
D10*
X274727500Y-241550000D03*
D12*
X275225000Y-242900000D03*
%TD*%
D10*
%TO.C,REF\u002A\u002A22*%
X227952500Y-94050000D03*
X227952500Y-95150000D03*
D11*
X226325000Y-92715000D03*
X228075000Y-92715000D03*
D10*
X225927500Y-94050000D03*
D12*
X227975000Y-96500000D03*
D10*
X225927500Y-95150000D03*
D12*
X226425000Y-96500000D03*
%TD*%
D13*
%TO.C,REF\u002A\u002A*%
X58500000Y-209255000D03*
X58500000Y-230745000D03*
D14*
X58300000Y-213600000D03*
X61700000Y-213600000D03*
X58300000Y-214400000D03*
X61700000Y-214400000D03*
X58300000Y-215200000D03*
X61700000Y-215200000D03*
X58300000Y-216000000D03*
X61700000Y-216000000D03*
X58300000Y-216800000D03*
X61700000Y-216800000D03*
X58300000Y-217600000D03*
X61700000Y-217600000D03*
X58300000Y-221600000D03*
X61700000Y-221600000D03*
X58300000Y-222400000D03*
X61700000Y-222400000D03*
X58300000Y-223200000D03*
X61700000Y-223200000D03*
X58300000Y-224000000D03*
X61700000Y-224000000D03*
X58300000Y-224800000D03*
X61700000Y-224800000D03*
X58300000Y-225600000D03*
X61700000Y-225600000D03*
X58300000Y-226400000D03*
X61700000Y-226400000D03*
D15*
X60000000Y-210505000D03*
X60000000Y-229495000D03*
%TD*%
D10*
%TO.C,REF\u002A\u002A28*%
X276752500Y-142850000D03*
X276752500Y-143950000D03*
D11*
X275125000Y-141515000D03*
X276875000Y-141515000D03*
D10*
X274727500Y-142850000D03*
D12*
X276775000Y-145300000D03*
D10*
X274727500Y-143950000D03*
D12*
X275225000Y-145300000D03*
%TD*%
D10*
%TO.C,REF\u002A\u002A23*%
X276752500Y-94050000D03*
X276752500Y-95150000D03*
D11*
X275125000Y-92715000D03*
X276875000Y-92715000D03*
D10*
X274727500Y-94050000D03*
D12*
X276775000Y-96500000D03*
D10*
X274727500Y-95150000D03*
D12*
X275225000Y-96500000D03*
%TD*%
D10*
%TO.C,REF\u002A\u002A32*%
X227952500Y-191650000D03*
X227952500Y-192750000D03*
D11*
X226325000Y-190315000D03*
X228075000Y-190315000D03*
D10*
X225927500Y-191650000D03*
D12*
X227975000Y-194100000D03*
D10*
X225927500Y-192750000D03*
D12*
X226425000Y-194100000D03*
%TD*%
D10*
%TO.C,REF\u002A\u002A44*%
X325552500Y-289250000D03*
X325552500Y-290350000D03*
D11*
X323925000Y-287915000D03*
X325675000Y-287915000D03*
D10*
X323527500Y-289250000D03*
D12*
X325575000Y-291700000D03*
D10*
X323527500Y-290350000D03*
D12*
X324025000Y-291700000D03*
%TD*%
D10*
%TO.C,REF\u002A\u002A26*%
X179152500Y-142850000D03*
X179152500Y-143950000D03*
D11*
X177525000Y-141515000D03*
X179275000Y-141515000D03*
D10*
X177127500Y-142850000D03*
D12*
X179175000Y-145300000D03*
D10*
X177127500Y-143950000D03*
D12*
X177625000Y-145300000D03*
%TD*%
D10*
%TO.C,REF\u002A\u002A36*%
X179152500Y-240450000D03*
X179152500Y-241550000D03*
D11*
X177525000Y-239115000D03*
X179275000Y-239115000D03*
D10*
X177127500Y-240450000D03*
D12*
X179175000Y-242900000D03*
D10*
X177127500Y-241550000D03*
D12*
X177625000Y-242900000D03*
%TD*%
D10*
%TO.C,REF\u002A\u002A20*%
X130352500Y-94050000D03*
X130352500Y-95150000D03*
D11*
X128725000Y-92715000D03*
X130475000Y-92715000D03*
D10*
X128327500Y-94050000D03*
D12*
X130375000Y-96500000D03*
D10*
X128327500Y-95150000D03*
D12*
X128825000Y-96500000D03*
%TD*%
D10*
%TO.C,REF\u002A\u002A25*%
X130352500Y-142850000D03*
X130352500Y-143950000D03*
D11*
X128725000Y-141515000D03*
X130475000Y-141515000D03*
D10*
X128327500Y-142850000D03*
D12*
X130375000Y-145300000D03*
D10*
X128327500Y-143950000D03*
D12*
X128825000Y-145300000D03*
%TD*%
D10*
%TO.C,REF\u002A\u002A37*%
X227952500Y-240450000D03*
X227952500Y-241550000D03*
D11*
X226325000Y-239115000D03*
X228075000Y-239115000D03*
D10*
X225927500Y-240450000D03*
D12*
X227975000Y-242900000D03*
D10*
X225927500Y-241550000D03*
D12*
X226425000Y-242900000D03*
%TD*%
D10*
%TO.C,REF\u002A\u002A31*%
X179152500Y-191650000D03*
X179152500Y-192750000D03*
D11*
X177525000Y-190315000D03*
X179275000Y-190315000D03*
D10*
X177127500Y-191650000D03*
D12*
X179175000Y-194100000D03*
D10*
X177127500Y-192750000D03*
D12*
X177625000Y-194100000D03*
%TD*%
D10*
%TO.C,REF\u002A\u002A27*%
X227952500Y-142850000D03*
X227952500Y-143950000D03*
D11*
X226325000Y-141515000D03*
X228075000Y-141515000D03*
D10*
X225927500Y-142850000D03*
D12*
X227975000Y-145300000D03*
D10*
X225927500Y-143950000D03*
D12*
X226425000Y-145300000D03*
%TD*%
D10*
%TO.C,REF\u002A\u002A41*%
X179152500Y-289250000D03*
X179152500Y-290350000D03*
D11*
X177525000Y-287915000D03*
X179275000Y-287915000D03*
D10*
X177127500Y-289250000D03*
D12*
X179175000Y-291700000D03*
D10*
X177127500Y-290350000D03*
D12*
X177625000Y-291700000D03*
%TD*%
D10*
%TO.C,REF\u002A\u002A29*%
X325552500Y-142850000D03*
X325552500Y-143950000D03*
D11*
X323925000Y-141515000D03*
X325675000Y-141515000D03*
D10*
X323527500Y-142850000D03*
D12*
X325575000Y-145300000D03*
D10*
X323527500Y-143950000D03*
D12*
X324025000Y-145300000D03*
%TD*%
D18*
%TO.C,50 \u03A9*%
X59537500Y-313000000D03*
X62462500Y-313000000D03*
%TD*%
D10*
%TO.C,REF\u002A\u002A21*%
X179152500Y-94050000D03*
X179152500Y-95150000D03*
D11*
X177525000Y-92715000D03*
X179275000Y-92715000D03*
D10*
X177127500Y-94050000D03*
D12*
X179175000Y-96500000D03*
D10*
X177127500Y-95150000D03*
D12*
X177625000Y-96500000D03*
%TD*%
D10*
%TO.C,REF\u002A\u002A42*%
X227952500Y-289250000D03*
X227952500Y-290350000D03*
D11*
X226325000Y-287915000D03*
X228075000Y-287915000D03*
D10*
X225927500Y-289250000D03*
D12*
X227975000Y-291700000D03*
D10*
X225927500Y-290350000D03*
D12*
X226425000Y-291700000D03*
%TD*%
D10*
%TO.C,REF\u002A\u002A35*%
X130352500Y-240450000D03*
X130352500Y-241550000D03*
D11*
X128725000Y-239115000D03*
X130475000Y-239115000D03*
D10*
X128327500Y-240450000D03*
D12*
X130375000Y-242900000D03*
D10*
X128327500Y-241550000D03*
D12*
X128825000Y-242900000D03*
%TD*%
D10*
%TO.C,REF\u002A\u002A39*%
X325552500Y-240450000D03*
X325552500Y-241550000D03*
D11*
X323925000Y-239115000D03*
X325675000Y-239115000D03*
D10*
X323527500Y-240450000D03*
D12*
X325575000Y-242900000D03*
D10*
X323527500Y-241550000D03*
D12*
X324025000Y-242900000D03*
%TD*%
D10*
%TO.C,REF\u002A\u002A33*%
X276752500Y-191650000D03*
X276752500Y-192750000D03*
D11*
X275125000Y-190315000D03*
X276875000Y-190315000D03*
D10*
X274727500Y-191650000D03*
D12*
X276775000Y-194100000D03*
D10*
X274727500Y-192750000D03*
D12*
X275225000Y-194100000D03*
%TD*%
M02*
