%TF.GenerationSoftware,KiCad,Pcbnew,8.0.2-1*%
%TF.CreationDate,2025-03-11T17:15:22-04:00*%
%TF.ProjectId,EvenLayers_1.3mm_SiPM,4576656e-4c61-4796-9572-735f312e336d,rev?*%
%TF.SameCoordinates,Original*%
%TF.FileFunction,Drillmap*%
%TF.FilePolarity,Positive*%
%FSLAX45Y45*%
G04 Gerber Fmt 4.5, Leading zero omitted, Abs format (unit mm)*
G04 Created by KiCad (PCBNEW 8.0.2-1) date 2025-03-11 17:15:22*
%MOMM*%
%LPD*%
G01*
G04 APERTURE LIST*
%ADD10C,0.050000*%
%ADD11C,0.200000*%
%ADD12C,0.100000*%
%ADD13C,0.150000*%
%ADD14C,0.170000*%
G04 APERTURE END LIST*
D10*
X5500000Y-32500000D02*
X5500000Y-31000000D01*
X6400000Y-15300000D02*
X5500000Y-15300000D01*
X5500000Y-12700000D02*
X5500000Y-15300000D01*
X5500000Y-20700000D02*
X5500000Y-23300000D01*
X5500000Y-20700000D02*
X6400000Y-20700000D01*
X5500000Y-3500000D02*
X35200000Y-3500000D01*
X5500000Y-23300000D02*
X6400000Y-23300000D01*
X6400000Y-6000000D02*
X5500000Y-6000000D01*
X5500000Y-6000000D02*
X5500000Y-3500000D01*
X5500000Y-12700000D02*
X6400000Y-12700000D01*
X6400000Y-15300000D02*
X6400000Y-20700000D01*
X6400000Y-12700000D02*
X6400000Y-6000000D01*
X35200000Y-3500000D02*
X35200000Y-32500000D01*
X35200000Y-32500000D02*
X5500000Y-32500000D01*
X5500000Y-31000000D02*
X6400000Y-31000000D01*
X6400000Y-31000000D02*
X6400000Y-23300000D01*
D11*
D12*
X5705000Y-21345000D02*
X5735000Y-21375000D01*
X5735000Y-21345000D02*
X5705000Y-21375000D01*
X5705000Y-21425000D02*
X5735000Y-21455000D01*
X5735000Y-21425000D02*
X5705000Y-21455000D01*
X5705000Y-21505000D02*
X5735000Y-21535000D01*
X5735000Y-21505000D02*
X5705000Y-21535000D01*
X5705000Y-21585000D02*
X5735000Y-21615000D01*
X5735000Y-21585000D02*
X5705000Y-21615000D01*
X5705000Y-21665000D02*
X5735000Y-21695000D01*
X5735000Y-21665000D02*
X5705000Y-21695000D01*
X5705000Y-21745000D02*
X5735000Y-21775000D01*
X5735000Y-21745000D02*
X5705000Y-21775000D01*
X5705000Y-22145000D02*
X5735000Y-22175000D01*
X5735000Y-22145000D02*
X5705000Y-22175000D01*
X5705000Y-22225000D02*
X5735000Y-22255000D01*
X5735000Y-22225000D02*
X5705000Y-22255000D01*
X5705000Y-22305000D02*
X5735000Y-22335000D01*
X5735000Y-22305000D02*
X5705000Y-22335000D01*
X5705000Y-22385000D02*
X5735000Y-22415000D01*
X5735000Y-22385000D02*
X5705000Y-22415000D01*
X5705000Y-22465000D02*
X5735000Y-22495000D01*
X5735000Y-22465000D02*
X5705000Y-22495000D01*
X5705000Y-22545000D02*
X5735000Y-22575000D01*
X5735000Y-22545000D02*
X5705000Y-22575000D01*
X5710000Y-13345000D02*
X5740000Y-13375000D01*
X5740000Y-13345000D02*
X5710000Y-13375000D01*
X5710000Y-13425000D02*
X5740000Y-13455000D01*
X5740000Y-13425000D02*
X5710000Y-13455000D01*
X5710000Y-13505000D02*
X5740000Y-13535000D01*
X5740000Y-13505000D02*
X5710000Y-13535000D01*
X5710000Y-13585000D02*
X5740000Y-13615000D01*
X5740000Y-13585000D02*
X5710000Y-13615000D01*
X5710000Y-13665000D02*
X5740000Y-13695000D01*
X5740000Y-13665000D02*
X5710000Y-13695000D01*
X5710000Y-13745000D02*
X5740000Y-13775000D01*
X5740000Y-13745000D02*
X5710000Y-13775000D01*
X5710000Y-14145000D02*
X5740000Y-14175000D01*
X5740000Y-14145000D02*
X5710000Y-14175000D01*
X5710000Y-14225000D02*
X5740000Y-14255000D01*
X5740000Y-14225000D02*
X5710000Y-14255000D01*
X5710000Y-14305000D02*
X5740000Y-14335000D01*
X5740000Y-14305000D02*
X5710000Y-14335000D01*
X5710000Y-14385000D02*
X5740000Y-14415000D01*
X5740000Y-14385000D02*
X5710000Y-14415000D01*
X5710000Y-14465000D02*
X5740000Y-14495000D01*
X5740000Y-14465000D02*
X5710000Y-14495000D01*
X5710000Y-14545000D02*
X5740000Y-14575000D01*
X5740000Y-14545000D02*
X5710000Y-14575000D01*
X5710000Y-14625000D02*
X5740000Y-14655000D01*
X5740000Y-14625000D02*
X5710000Y-14655000D01*
X6465000Y-21505000D02*
X6495000Y-21535000D01*
X6495000Y-21505000D02*
X6465000Y-21535000D01*
X6625000Y-22505000D02*
X6655000Y-22535000D01*
X6655000Y-22505000D02*
X6625000Y-22535000D01*
X6725000Y-14145000D02*
X6755000Y-14175000D01*
X6755000Y-14145000D02*
X6725000Y-14175000D01*
X6745000Y-14685000D02*
X6775000Y-14715000D01*
X6775000Y-14685000D02*
X6745000Y-14715000D01*
X6745000Y-15445000D02*
X6775000Y-15475000D01*
X6775000Y-15445000D02*
X6745000Y-15475000D01*
X6765000Y-13745000D02*
X6795000Y-13775000D01*
X6795000Y-13745000D02*
X6765000Y-13775000D01*
X6785000Y-23685000D02*
X6815000Y-23715000D01*
X6815000Y-23685000D02*
X6785000Y-23715000D01*
X6797426Y-13297426D02*
X6827426Y-13327426D01*
X6827426Y-13297426D02*
X6797426Y-13327426D01*
X6805000Y-14265000D02*
X6835000Y-14295000D01*
X6835000Y-14265000D02*
X6805000Y-14295000D01*
X6805000Y-14545000D02*
X6835000Y-14575000D01*
X6835000Y-14545000D02*
X6805000Y-14575000D01*
X6805000Y-14825000D02*
X6835000Y-14855000D01*
X6835000Y-14825000D02*
X6805000Y-14855000D01*
X6925000Y-23185000D02*
X6955000Y-23215000D01*
X6955000Y-23185000D02*
X6925000Y-23215000D01*
X6945000Y-13345000D02*
X6975000Y-13375000D01*
X6975000Y-13345000D02*
X6945000Y-13375000D01*
X7005000Y-12945000D02*
X7035000Y-12975000D01*
X7035000Y-12945000D02*
X7005000Y-12975000D01*
X7005000Y-14505000D02*
X7035000Y-14535000D01*
X7035000Y-14505000D02*
X7005000Y-14535000D01*
X7045000Y-23245000D02*
X7075000Y-23275000D01*
X7075000Y-23245000D02*
X7045000Y-23275000D01*
X7105000Y-22345000D02*
X7135000Y-22375000D01*
X7135000Y-22345000D02*
X7105000Y-22375000D01*
X7165000Y-13545000D02*
X7195000Y-13575000D01*
X7195000Y-13545000D02*
X7165000Y-13575000D01*
X7185000Y-21145000D02*
X7215000Y-21175000D01*
X7215000Y-21145000D02*
X7185000Y-21175000D01*
X7245000Y-13305000D02*
X7275000Y-13335000D01*
X7275000Y-13305000D02*
X7245000Y-13335000D01*
X7245000Y-20625000D02*
X7275000Y-20655000D01*
X7275000Y-20625000D02*
X7245000Y-20655000D01*
X7425000Y-22945000D02*
X7455000Y-22975000D01*
X7455000Y-22945000D02*
X7425000Y-22975000D01*
X7425000Y-23105000D02*
X7455000Y-23135000D01*
X7455000Y-23105000D02*
X7425000Y-23135000D01*
X7437010Y-24052990D02*
X7467010Y-24082990D01*
X7467010Y-24052990D02*
X7437010Y-24082990D01*
X7619436Y-24150564D02*
X7649436Y-24180564D01*
X7649436Y-24150564D02*
X7619436Y-24180564D01*
X7270000Y-31090000D02*
G75*
G02*
X7230000Y-31090000I-20000J0D01*
G01*
X7230000Y-31090000D02*
G75*
G02*
X7270000Y-31090000I20000J0D01*
G01*
X7280000Y-32200000D02*
G75*
G02*
X7240000Y-32200000I-20000J0D01*
G01*
X7240000Y-32200000D02*
G75*
G02*
X7280000Y-32200000I20000J0D01*
G01*
X12675000Y-9360000D02*
X12675000Y-9400000D01*
X12655000Y-9380000D02*
X12695000Y-9380000D01*
X12675000Y-9510000D02*
X12675000Y-9550000D01*
X12655000Y-9530000D02*
X12695000Y-9530000D01*
X12675000Y-14240000D02*
X12675000Y-14280000D01*
X12655000Y-14260000D02*
X12695000Y-14260000D01*
X12675000Y-14390000D02*
X12675000Y-14430000D01*
X12655000Y-14410000D02*
X12695000Y-14410000D01*
X12675000Y-19120000D02*
X12675000Y-19160000D01*
X12655000Y-19140000D02*
X12695000Y-19140000D01*
X12675000Y-19270000D02*
X12675000Y-19310000D01*
X12655000Y-19290000D02*
X12695000Y-19290000D01*
X12675000Y-24000000D02*
X12675000Y-24040000D01*
X12655000Y-24020000D02*
X12695000Y-24020000D01*
X12675000Y-24150000D02*
X12675000Y-24190000D01*
X12655000Y-24170000D02*
X12695000Y-24170000D01*
X12675000Y-28880000D02*
X12675000Y-28920000D01*
X12655000Y-28900000D02*
X12695000Y-28900000D01*
X12675000Y-29030000D02*
X12675000Y-29070000D01*
X12655000Y-29050000D02*
X12695000Y-29050000D01*
X12730000Y-9630000D02*
X12730000Y-9670000D01*
X12710000Y-9650000D02*
X12750000Y-9650000D01*
X12730000Y-14510000D02*
X12730000Y-14550000D01*
X12710000Y-14530000D02*
X12750000Y-14530000D01*
X12730000Y-19390000D02*
X12730000Y-19430000D01*
X12710000Y-19410000D02*
X12750000Y-19410000D01*
X12730000Y-24270000D02*
X12730000Y-24310000D01*
X12710000Y-24290000D02*
X12750000Y-24290000D01*
X12730000Y-29150000D02*
X12730000Y-29190000D01*
X12710000Y-29170000D02*
X12750000Y-29170000D01*
X12750000Y-9250000D02*
X12750000Y-9290000D01*
X12730000Y-9270000D02*
X12770000Y-9270000D01*
X12750000Y-14130000D02*
X12750000Y-14170000D01*
X12730000Y-14150000D02*
X12770000Y-14150000D01*
X12750000Y-19010000D02*
X12750000Y-19050000D01*
X12730000Y-19030000D02*
X12770000Y-19030000D01*
X12750000Y-23890000D02*
X12750000Y-23930000D01*
X12730000Y-23910000D02*
X12770000Y-23910000D01*
X12750000Y-28770000D02*
X12750000Y-28810000D01*
X12730000Y-28790000D02*
X12770000Y-28790000D01*
X13160000Y-9250000D02*
X13160000Y-9290000D01*
X13140000Y-9270000D02*
X13180000Y-9270000D01*
X13160000Y-14130000D02*
X13160000Y-14170000D01*
X13140000Y-14150000D02*
X13180000Y-14150000D01*
X13160000Y-19010000D02*
X13160000Y-19050000D01*
X13140000Y-19030000D02*
X13180000Y-19030000D01*
X13160000Y-23890000D02*
X13160000Y-23930000D01*
X13140000Y-23910000D02*
X13180000Y-23910000D01*
X13160000Y-28770000D02*
X13160000Y-28810000D01*
X13140000Y-28790000D02*
X13180000Y-28790000D01*
X17555000Y-9360000D02*
X17555000Y-9400000D01*
X17535000Y-9380000D02*
X17575000Y-9380000D01*
X17555000Y-9510000D02*
X17555000Y-9550000D01*
X17535000Y-9530000D02*
X17575000Y-9530000D01*
X17555000Y-14240000D02*
X17555000Y-14280000D01*
X17535000Y-14260000D02*
X17575000Y-14260000D01*
X17555000Y-14390000D02*
X17555000Y-14430000D01*
X17535000Y-14410000D02*
X17575000Y-14410000D01*
X17555000Y-19120000D02*
X17555000Y-19160000D01*
X17535000Y-19140000D02*
X17575000Y-19140000D01*
X17555000Y-19270000D02*
X17555000Y-19310000D01*
X17535000Y-19290000D02*
X17575000Y-19290000D01*
X17555000Y-24000000D02*
X17555000Y-24040000D01*
X17535000Y-24020000D02*
X17575000Y-24020000D01*
X17555000Y-24150000D02*
X17555000Y-24190000D01*
X17535000Y-24170000D02*
X17575000Y-24170000D01*
X17555000Y-28880000D02*
X17555000Y-28920000D01*
X17535000Y-28900000D02*
X17575000Y-28900000D01*
X17555000Y-29030000D02*
X17555000Y-29070000D01*
X17535000Y-29050000D02*
X17575000Y-29050000D01*
X17610000Y-9630000D02*
X17610000Y-9670000D01*
X17590000Y-9650000D02*
X17630000Y-9650000D01*
X17610000Y-14510000D02*
X17610000Y-14550000D01*
X17590000Y-14530000D02*
X17630000Y-14530000D01*
X17610000Y-19390000D02*
X17610000Y-19430000D01*
X17590000Y-19410000D02*
X17630000Y-19410000D01*
X17610000Y-24270000D02*
X17610000Y-24310000D01*
X17590000Y-24290000D02*
X17630000Y-24290000D01*
X17610000Y-29150000D02*
X17610000Y-29190000D01*
X17590000Y-29170000D02*
X17630000Y-29170000D01*
X17630000Y-9250000D02*
X17630000Y-9290000D01*
X17610000Y-9270000D02*
X17650000Y-9270000D01*
X17630000Y-14130000D02*
X17630000Y-14170000D01*
X17610000Y-14150000D02*
X17650000Y-14150000D01*
X17630000Y-19010000D02*
X17630000Y-19050000D01*
X17610000Y-19030000D02*
X17650000Y-19030000D01*
X17630000Y-23890000D02*
X17630000Y-23930000D01*
X17610000Y-23910000D02*
X17650000Y-23910000D01*
X17630000Y-28770000D02*
X17630000Y-28810000D01*
X17610000Y-28790000D02*
X17650000Y-28790000D01*
X18040000Y-9250000D02*
X18040000Y-9290000D01*
X18020000Y-9270000D02*
X18060000Y-9270000D01*
X18040000Y-14130000D02*
X18040000Y-14170000D01*
X18020000Y-14150000D02*
X18060000Y-14150000D01*
X18040000Y-19010000D02*
X18040000Y-19050000D01*
X18020000Y-19030000D02*
X18060000Y-19030000D01*
X18040000Y-23890000D02*
X18040000Y-23930000D01*
X18020000Y-23910000D02*
X18060000Y-23910000D01*
X18040000Y-28770000D02*
X18040000Y-28810000D01*
X18020000Y-28790000D02*
X18060000Y-28790000D01*
X22435000Y-9360000D02*
X22435000Y-9400000D01*
X22415000Y-9380000D02*
X22455000Y-9380000D01*
X22435000Y-9510000D02*
X22435000Y-9550000D01*
X22415000Y-9530000D02*
X22455000Y-9530000D01*
X22435000Y-14240000D02*
X22435000Y-14280000D01*
X22415000Y-14260000D02*
X22455000Y-14260000D01*
X22435000Y-14390000D02*
X22435000Y-14430000D01*
X22415000Y-14410000D02*
X22455000Y-14410000D01*
X22435000Y-19120000D02*
X22435000Y-19160000D01*
X22415000Y-19140000D02*
X22455000Y-19140000D01*
X22435000Y-19270000D02*
X22435000Y-19310000D01*
X22415000Y-19290000D02*
X22455000Y-19290000D01*
X22435000Y-24000000D02*
X22435000Y-24040000D01*
X22415000Y-24020000D02*
X22455000Y-24020000D01*
X22435000Y-24150000D02*
X22435000Y-24190000D01*
X22415000Y-24170000D02*
X22455000Y-24170000D01*
X22435000Y-28880000D02*
X22435000Y-28920000D01*
X22415000Y-28900000D02*
X22455000Y-28900000D01*
X22435000Y-29030000D02*
X22435000Y-29070000D01*
X22415000Y-29050000D02*
X22455000Y-29050000D01*
X22490000Y-9630000D02*
X22490000Y-9670000D01*
X22470000Y-9650000D02*
X22510000Y-9650000D01*
X22490000Y-14510000D02*
X22490000Y-14550000D01*
X22470000Y-14530000D02*
X22510000Y-14530000D01*
X22490000Y-19390000D02*
X22490000Y-19430000D01*
X22470000Y-19410000D02*
X22510000Y-19410000D01*
X22490000Y-24270000D02*
X22490000Y-24310000D01*
X22470000Y-24290000D02*
X22510000Y-24290000D01*
X22490000Y-29150000D02*
X22490000Y-29190000D01*
X22470000Y-29170000D02*
X22510000Y-29170000D01*
X22510000Y-9250000D02*
X22510000Y-9290000D01*
X22490000Y-9270000D02*
X22530000Y-9270000D01*
X22510000Y-14130000D02*
X22510000Y-14170000D01*
X22490000Y-14150000D02*
X22530000Y-14150000D01*
X22510000Y-19010000D02*
X22510000Y-19050000D01*
X22490000Y-19030000D02*
X22530000Y-19030000D01*
X22510000Y-23890000D02*
X22510000Y-23930000D01*
X22490000Y-23910000D02*
X22530000Y-23910000D01*
X22510000Y-28770000D02*
X22510000Y-28810000D01*
X22490000Y-28790000D02*
X22530000Y-28790000D01*
X22920000Y-9250000D02*
X22920000Y-9290000D01*
X22900000Y-9270000D02*
X22940000Y-9270000D01*
X22920000Y-14130000D02*
X22920000Y-14170000D01*
X22900000Y-14150000D02*
X22940000Y-14150000D01*
X22920000Y-19010000D02*
X22920000Y-19050000D01*
X22900000Y-19030000D02*
X22940000Y-19030000D01*
X22920000Y-23890000D02*
X22920000Y-23930000D01*
X22900000Y-23910000D02*
X22940000Y-23910000D01*
X22920000Y-28770000D02*
X22920000Y-28810000D01*
X22900000Y-28790000D02*
X22940000Y-28790000D01*
X27315000Y-9360000D02*
X27315000Y-9400000D01*
X27295000Y-9380000D02*
X27335000Y-9380000D01*
X27315000Y-9510000D02*
X27315000Y-9550000D01*
X27295000Y-9530000D02*
X27335000Y-9530000D01*
X27315000Y-14240000D02*
X27315000Y-14280000D01*
X27295000Y-14260000D02*
X27335000Y-14260000D01*
X27315000Y-14390000D02*
X27315000Y-14430000D01*
X27295000Y-14410000D02*
X27335000Y-14410000D01*
X27315000Y-19120000D02*
X27315000Y-19160000D01*
X27295000Y-19140000D02*
X27335000Y-19140000D01*
X27315000Y-19270000D02*
X27315000Y-19310000D01*
X27295000Y-19290000D02*
X27335000Y-19290000D01*
X27315000Y-24000000D02*
X27315000Y-24040000D01*
X27295000Y-24020000D02*
X27335000Y-24020000D01*
X27315000Y-24150000D02*
X27315000Y-24190000D01*
X27295000Y-24170000D02*
X27335000Y-24170000D01*
X27315000Y-28880000D02*
X27315000Y-28920000D01*
X27295000Y-28900000D02*
X27335000Y-28900000D01*
X27315000Y-29030000D02*
X27315000Y-29070000D01*
X27295000Y-29050000D02*
X27335000Y-29050000D01*
X27370000Y-9630000D02*
X27370000Y-9670000D01*
X27350000Y-9650000D02*
X27390000Y-9650000D01*
X27370000Y-14510000D02*
X27370000Y-14550000D01*
X27350000Y-14530000D02*
X27390000Y-14530000D01*
X27370000Y-19390000D02*
X27370000Y-19430000D01*
X27350000Y-19410000D02*
X27390000Y-19410000D01*
X27370000Y-24270000D02*
X27370000Y-24310000D01*
X27350000Y-24290000D02*
X27390000Y-24290000D01*
X27370000Y-29150000D02*
X27370000Y-29190000D01*
X27350000Y-29170000D02*
X27390000Y-29170000D01*
X27390000Y-9250000D02*
X27390000Y-9290000D01*
X27370000Y-9270000D02*
X27410000Y-9270000D01*
X27390000Y-14130000D02*
X27390000Y-14170000D01*
X27370000Y-14150000D02*
X27410000Y-14150000D01*
X27390000Y-19010000D02*
X27390000Y-19050000D01*
X27370000Y-19030000D02*
X27410000Y-19030000D01*
X27390000Y-23890000D02*
X27390000Y-23930000D01*
X27370000Y-23910000D02*
X27410000Y-23910000D01*
X27390000Y-28770000D02*
X27390000Y-28810000D01*
X27370000Y-28790000D02*
X27410000Y-28790000D01*
X27800000Y-9250000D02*
X27800000Y-9290000D01*
X27780000Y-9270000D02*
X27820000Y-9270000D01*
X27800000Y-14130000D02*
X27800000Y-14170000D01*
X27780000Y-14150000D02*
X27820000Y-14150000D01*
X27800000Y-19010000D02*
X27800000Y-19050000D01*
X27780000Y-19030000D02*
X27820000Y-19030000D01*
X27800000Y-23890000D02*
X27800000Y-23930000D01*
X27780000Y-23910000D02*
X27820000Y-23910000D01*
X27800000Y-28770000D02*
X27800000Y-28810000D01*
X27780000Y-28790000D02*
X27820000Y-28790000D01*
X32195000Y-9360000D02*
X32195000Y-9400000D01*
X32175000Y-9380000D02*
X32215000Y-9380000D01*
X32195000Y-9510000D02*
X32195000Y-9550000D01*
X32175000Y-9530000D02*
X32215000Y-9530000D01*
X32195000Y-14240000D02*
X32195000Y-14280000D01*
X32175000Y-14260000D02*
X32215000Y-14260000D01*
X32195000Y-14390000D02*
X32195000Y-14430000D01*
X32175000Y-14410000D02*
X32215000Y-14410000D01*
X32195000Y-19120000D02*
X32195000Y-19160000D01*
X32175000Y-19140000D02*
X32215000Y-19140000D01*
X32195000Y-19270000D02*
X32195000Y-19310000D01*
X32175000Y-19290000D02*
X32215000Y-19290000D01*
X32195000Y-24000000D02*
X32195000Y-24040000D01*
X32175000Y-24020000D02*
X32215000Y-24020000D01*
X32195000Y-24150000D02*
X32195000Y-24190000D01*
X32175000Y-24170000D02*
X32215000Y-24170000D01*
X32195000Y-28880000D02*
X32195000Y-28920000D01*
X32175000Y-28900000D02*
X32215000Y-28900000D01*
X32195000Y-29030000D02*
X32195000Y-29070000D01*
X32175000Y-29050000D02*
X32215000Y-29050000D01*
X32250000Y-9630000D02*
X32250000Y-9670000D01*
X32230000Y-9650000D02*
X32270000Y-9650000D01*
X32250000Y-14510000D02*
X32250000Y-14550000D01*
X32230000Y-14530000D02*
X32270000Y-14530000D01*
X32250000Y-19390000D02*
X32250000Y-19430000D01*
X32230000Y-19410000D02*
X32270000Y-19410000D01*
X32250000Y-24270000D02*
X32250000Y-24310000D01*
X32230000Y-24290000D02*
X32270000Y-24290000D01*
X32250000Y-29150000D02*
X32250000Y-29190000D01*
X32230000Y-29170000D02*
X32270000Y-29170000D01*
X32270000Y-9250000D02*
X32270000Y-9290000D01*
X32250000Y-9270000D02*
X32290000Y-9270000D01*
X32270000Y-14130000D02*
X32270000Y-14170000D01*
X32250000Y-14150000D02*
X32290000Y-14150000D01*
X32270000Y-19010000D02*
X32270000Y-19050000D01*
X32250000Y-19030000D02*
X32290000Y-19030000D01*
X32270000Y-23890000D02*
X32270000Y-23930000D01*
X32250000Y-23910000D02*
X32290000Y-23910000D01*
X32270000Y-28770000D02*
X32270000Y-28810000D01*
X32250000Y-28790000D02*
X32290000Y-28790000D01*
X32680000Y-9250000D02*
X32680000Y-9290000D01*
X32660000Y-9270000D02*
X32700000Y-9270000D01*
X32680000Y-14130000D02*
X32680000Y-14170000D01*
X32660000Y-14150000D02*
X32700000Y-14150000D01*
X32680000Y-19010000D02*
X32680000Y-19050000D01*
X32660000Y-19030000D02*
X32700000Y-19030000D01*
X32680000Y-23890000D02*
X32680000Y-23930000D01*
X32660000Y-23910000D02*
X32700000Y-23910000D01*
X32680000Y-28770000D02*
X32680000Y-28810000D01*
X32660000Y-28790000D02*
X32700000Y-28790000D01*
X6029699Y-13080199D02*
X6029699Y-13020801D01*
X5970301Y-13020801D01*
X5970301Y-13080199D01*
X6029699Y-13080199D01*
X6029699Y-14979199D02*
X6029699Y-14919801D01*
X5970301Y-14919801D01*
X5970301Y-14979199D01*
X6029699Y-14979199D01*
X6029699Y-21080199D02*
X6029699Y-21020801D01*
X5970301Y-21020801D01*
X5970301Y-21080199D01*
X6029699Y-21080199D01*
X6029699Y-22979199D02*
X6029699Y-22919801D01*
X5970301Y-22919801D01*
X5970301Y-22979199D01*
X6029699Y-22979199D01*
D13*
X5920000Y-32075000D02*
X5995000Y-32000000D01*
X5920000Y-31925000D01*
X5845000Y-32000000D01*
X5920000Y-32075000D01*
D14*
X5581000Y-31661000D02*
X5751000Y-31831000D01*
X5751000Y-31661000D02*
X5581000Y-31831000D01*
X5751000Y-31746000D02*
G75*
G02*
X5581000Y-31746000I-85000J0D01*
G01*
X5581000Y-31746000D02*
G75*
G02*
X5751000Y-31746000I85000J0D01*
G01*
X5581000Y-32169000D02*
X5751000Y-32339000D01*
X5751000Y-32169000D02*
X5581000Y-32339000D01*
X5751000Y-32254000D02*
G75*
G02*
X5581000Y-32254000I-85000J0D01*
G01*
X5581000Y-32254000D02*
G75*
G02*
X5751000Y-32254000I85000J0D01*
G01*
X6089000Y-31661000D02*
X6259000Y-31831000D01*
X6259000Y-31661000D02*
X6089000Y-31831000D01*
X6259000Y-31746000D02*
G75*
G02*
X6089000Y-31746000I-85000J0D01*
G01*
X6089000Y-31746000D02*
G75*
G02*
X6259000Y-31746000I85000J0D01*
G01*
X6089000Y-32169000D02*
X6259000Y-32339000D01*
X6259000Y-32169000D02*
X6089000Y-32339000D01*
X6259000Y-32254000D02*
G75*
G02*
X6089000Y-32254000I-85000J0D01*
G01*
X6089000Y-32254000D02*
G75*
G02*
X6259000Y-32254000I85000J0D01*
G01*
D11*
X5758277Y-32813984D02*
X5758277Y-32613984D01*
X5758277Y-32613984D02*
X5805896Y-32613984D01*
X5805896Y-32613984D02*
X5834467Y-32623508D01*
X5834467Y-32623508D02*
X5853515Y-32642555D01*
X5853515Y-32642555D02*
X5863039Y-32661603D01*
X5863039Y-32661603D02*
X5872562Y-32699698D01*
X5872562Y-32699698D02*
X5872562Y-32728269D01*
X5872562Y-32728269D02*
X5863039Y-32766365D01*
X5863039Y-32766365D02*
X5853515Y-32785412D01*
X5853515Y-32785412D02*
X5834467Y-32804460D01*
X5834467Y-32804460D02*
X5805896Y-32813984D01*
X5805896Y-32813984D02*
X5758277Y-32813984D01*
X5958277Y-32813984D02*
X5958277Y-32680650D01*
X5958277Y-32718746D02*
X5967801Y-32699698D01*
X5967801Y-32699698D02*
X5977324Y-32690174D01*
X5977324Y-32690174D02*
X5996372Y-32680650D01*
X5996372Y-32680650D02*
X6015420Y-32680650D01*
X6082086Y-32813984D02*
X6082086Y-32680650D01*
X6082086Y-32613984D02*
X6072562Y-32623508D01*
X6072562Y-32623508D02*
X6082086Y-32633031D01*
X6082086Y-32633031D02*
X6091610Y-32623508D01*
X6091610Y-32623508D02*
X6082086Y-32613984D01*
X6082086Y-32613984D02*
X6082086Y-32633031D01*
X6205896Y-32813984D02*
X6186848Y-32804460D01*
X6186848Y-32804460D02*
X6177324Y-32785412D01*
X6177324Y-32785412D02*
X6177324Y-32613984D01*
X6310658Y-32813984D02*
X6291610Y-32804460D01*
X6291610Y-32804460D02*
X6282086Y-32785412D01*
X6282086Y-32785412D02*
X6282086Y-32613984D01*
X6539229Y-32813984D02*
X6539229Y-32613984D01*
X6539229Y-32613984D02*
X6605896Y-32756841D01*
X6605896Y-32756841D02*
X6672562Y-32613984D01*
X6672562Y-32613984D02*
X6672562Y-32813984D01*
X6853515Y-32813984D02*
X6853515Y-32709222D01*
X6853515Y-32709222D02*
X6843991Y-32690174D01*
X6843991Y-32690174D02*
X6824943Y-32680650D01*
X6824943Y-32680650D02*
X6786848Y-32680650D01*
X6786848Y-32680650D02*
X6767801Y-32690174D01*
X6853515Y-32804460D02*
X6834467Y-32813984D01*
X6834467Y-32813984D02*
X6786848Y-32813984D01*
X6786848Y-32813984D02*
X6767801Y-32804460D01*
X6767801Y-32804460D02*
X6758277Y-32785412D01*
X6758277Y-32785412D02*
X6758277Y-32766365D01*
X6758277Y-32766365D02*
X6767801Y-32747317D01*
X6767801Y-32747317D02*
X6786848Y-32737793D01*
X6786848Y-32737793D02*
X6834467Y-32737793D01*
X6834467Y-32737793D02*
X6853515Y-32728269D01*
X6948753Y-32680650D02*
X6948753Y-32880650D01*
X6948753Y-32690174D02*
X6967801Y-32680650D01*
X6967801Y-32680650D02*
X7005896Y-32680650D01*
X7005896Y-32680650D02*
X7024943Y-32690174D01*
X7024943Y-32690174D02*
X7034467Y-32699698D01*
X7034467Y-32699698D02*
X7043991Y-32718746D01*
X7043991Y-32718746D02*
X7043991Y-32775888D01*
X7043991Y-32775888D02*
X7034467Y-32794936D01*
X7034467Y-32794936D02*
X7024943Y-32804460D01*
X7024943Y-32804460D02*
X7005896Y-32813984D01*
X7005896Y-32813984D02*
X6967801Y-32813984D01*
X6967801Y-32813984D02*
X6948753Y-32804460D01*
X7129705Y-32794936D02*
X7139229Y-32804460D01*
X7139229Y-32804460D02*
X7129705Y-32813984D01*
X7129705Y-32813984D02*
X7120182Y-32804460D01*
X7120182Y-32804460D02*
X7129705Y-32794936D01*
X7129705Y-32794936D02*
X7129705Y-32813984D01*
X7129705Y-32690174D02*
X7139229Y-32699698D01*
X7139229Y-32699698D02*
X7129705Y-32709222D01*
X7129705Y-32709222D02*
X7120182Y-32699698D01*
X7120182Y-32699698D02*
X7129705Y-32690174D01*
X7129705Y-32690174D02*
X7129705Y-32709222D01*
D12*
X5467500Y-33127500D02*
X5497500Y-33157500D01*
X5497500Y-33127500D02*
X5467500Y-33157500D01*
D11*
X5796372Y-33033984D02*
X5815420Y-33033984D01*
X5815420Y-33033984D02*
X5834467Y-33043508D01*
X5834467Y-33043508D02*
X5843991Y-33053031D01*
X5843991Y-33053031D02*
X5853515Y-33072079D01*
X5853515Y-33072079D02*
X5863039Y-33110174D01*
X5863039Y-33110174D02*
X5863039Y-33157793D01*
X5863039Y-33157793D02*
X5853515Y-33195888D01*
X5853515Y-33195888D02*
X5843991Y-33214936D01*
X5843991Y-33214936D02*
X5834467Y-33224460D01*
X5834467Y-33224460D02*
X5815420Y-33233984D01*
X5815420Y-33233984D02*
X5796372Y-33233984D01*
X5796372Y-33233984D02*
X5777324Y-33224460D01*
X5777324Y-33224460D02*
X5767801Y-33214936D01*
X5767801Y-33214936D02*
X5758277Y-33195888D01*
X5758277Y-33195888D02*
X5748753Y-33157793D01*
X5748753Y-33157793D02*
X5748753Y-33110174D01*
X5748753Y-33110174D02*
X5758277Y-33072079D01*
X5758277Y-33072079D02*
X5767801Y-33053031D01*
X5767801Y-33053031D02*
X5777324Y-33043508D01*
X5777324Y-33043508D02*
X5796372Y-33033984D01*
X5948753Y-33214936D02*
X5958277Y-33224460D01*
X5958277Y-33224460D02*
X5948753Y-33233984D01*
X5948753Y-33233984D02*
X5939229Y-33224460D01*
X5939229Y-33224460D02*
X5948753Y-33214936D01*
X5948753Y-33214936D02*
X5948753Y-33233984D01*
X6024943Y-33033984D02*
X6148753Y-33033984D01*
X6148753Y-33033984D02*
X6082086Y-33110174D01*
X6082086Y-33110174D02*
X6110658Y-33110174D01*
X6110658Y-33110174D02*
X6129705Y-33119698D01*
X6129705Y-33119698D02*
X6139229Y-33129222D01*
X6139229Y-33129222D02*
X6148753Y-33148269D01*
X6148753Y-33148269D02*
X6148753Y-33195888D01*
X6148753Y-33195888D02*
X6139229Y-33214936D01*
X6139229Y-33214936D02*
X6129705Y-33224460D01*
X6129705Y-33224460D02*
X6110658Y-33233984D01*
X6110658Y-33233984D02*
X6053515Y-33233984D01*
X6053515Y-33233984D02*
X6034467Y-33224460D01*
X6034467Y-33224460D02*
X6024943Y-33214936D01*
X6272562Y-33033984D02*
X6291610Y-33033984D01*
X6291610Y-33033984D02*
X6310658Y-33043508D01*
X6310658Y-33043508D02*
X6320182Y-33053031D01*
X6320182Y-33053031D02*
X6329705Y-33072079D01*
X6329705Y-33072079D02*
X6339229Y-33110174D01*
X6339229Y-33110174D02*
X6339229Y-33157793D01*
X6339229Y-33157793D02*
X6329705Y-33195888D01*
X6329705Y-33195888D02*
X6320182Y-33214936D01*
X6320182Y-33214936D02*
X6310658Y-33224460D01*
X6310658Y-33224460D02*
X6291610Y-33233984D01*
X6291610Y-33233984D02*
X6272562Y-33233984D01*
X6272562Y-33233984D02*
X6253515Y-33224460D01*
X6253515Y-33224460D02*
X6243991Y-33214936D01*
X6243991Y-33214936D02*
X6234467Y-33195888D01*
X6234467Y-33195888D02*
X6224943Y-33157793D01*
X6224943Y-33157793D02*
X6224943Y-33110174D01*
X6224943Y-33110174D02*
X6234467Y-33072079D01*
X6234467Y-33072079D02*
X6243991Y-33053031D01*
X6243991Y-33053031D02*
X6253515Y-33043508D01*
X6253515Y-33043508D02*
X6272562Y-33033984D01*
X6463039Y-33033984D02*
X6482086Y-33033984D01*
X6482086Y-33033984D02*
X6501134Y-33043508D01*
X6501134Y-33043508D02*
X6510658Y-33053031D01*
X6510658Y-33053031D02*
X6520182Y-33072079D01*
X6520182Y-33072079D02*
X6529705Y-33110174D01*
X6529705Y-33110174D02*
X6529705Y-33157793D01*
X6529705Y-33157793D02*
X6520182Y-33195888D01*
X6520182Y-33195888D02*
X6510658Y-33214936D01*
X6510658Y-33214936D02*
X6501134Y-33224460D01*
X6501134Y-33224460D02*
X6482086Y-33233984D01*
X6482086Y-33233984D02*
X6463039Y-33233984D01*
X6463039Y-33233984D02*
X6443991Y-33224460D01*
X6443991Y-33224460D02*
X6434467Y-33214936D01*
X6434467Y-33214936D02*
X6424943Y-33195888D01*
X6424943Y-33195888D02*
X6415420Y-33157793D01*
X6415420Y-33157793D02*
X6415420Y-33110174D01*
X6415420Y-33110174D02*
X6424943Y-33072079D01*
X6424943Y-33072079D02*
X6434467Y-33053031D01*
X6434467Y-33053031D02*
X6443991Y-33043508D01*
X6443991Y-33043508D02*
X6463039Y-33033984D01*
X6615420Y-33233984D02*
X6615420Y-33100650D01*
X6615420Y-33119698D02*
X6624943Y-33110174D01*
X6624943Y-33110174D02*
X6643991Y-33100650D01*
X6643991Y-33100650D02*
X6672563Y-33100650D01*
X6672563Y-33100650D02*
X6691610Y-33110174D01*
X6691610Y-33110174D02*
X6701134Y-33129222D01*
X6701134Y-33129222D02*
X6701134Y-33233984D01*
X6701134Y-33129222D02*
X6710658Y-33110174D01*
X6710658Y-33110174D02*
X6729705Y-33100650D01*
X6729705Y-33100650D02*
X6758277Y-33100650D01*
X6758277Y-33100650D02*
X6777324Y-33110174D01*
X6777324Y-33110174D02*
X6786848Y-33129222D01*
X6786848Y-33129222D02*
X6786848Y-33233984D01*
X6882086Y-33233984D02*
X6882086Y-33100650D01*
X6882086Y-33119698D02*
X6891610Y-33110174D01*
X6891610Y-33110174D02*
X6910658Y-33100650D01*
X6910658Y-33100650D02*
X6939229Y-33100650D01*
X6939229Y-33100650D02*
X6958277Y-33110174D01*
X6958277Y-33110174D02*
X6967801Y-33129222D01*
X6967801Y-33129222D02*
X6967801Y-33233984D01*
X6967801Y-33129222D02*
X6977324Y-33110174D01*
X6977324Y-33110174D02*
X6996372Y-33100650D01*
X6996372Y-33100650D02*
X7024943Y-33100650D01*
X7024943Y-33100650D02*
X7043991Y-33110174D01*
X7043991Y-33110174D02*
X7053515Y-33129222D01*
X7053515Y-33129222D02*
X7053515Y-33233984D01*
X7443991Y-33024460D02*
X7272563Y-33281603D01*
X7701134Y-33033984D02*
X7720182Y-33033984D01*
X7720182Y-33033984D02*
X7739229Y-33043508D01*
X7739229Y-33043508D02*
X7748753Y-33053031D01*
X7748753Y-33053031D02*
X7758277Y-33072079D01*
X7758277Y-33072079D02*
X7767801Y-33110174D01*
X7767801Y-33110174D02*
X7767801Y-33157793D01*
X7767801Y-33157793D02*
X7758277Y-33195888D01*
X7758277Y-33195888D02*
X7748753Y-33214936D01*
X7748753Y-33214936D02*
X7739229Y-33224460D01*
X7739229Y-33224460D02*
X7720182Y-33233984D01*
X7720182Y-33233984D02*
X7701134Y-33233984D01*
X7701134Y-33233984D02*
X7682086Y-33224460D01*
X7682086Y-33224460D02*
X7672563Y-33214936D01*
X7672563Y-33214936D02*
X7663039Y-33195888D01*
X7663039Y-33195888D02*
X7653515Y-33157793D01*
X7653515Y-33157793D02*
X7653515Y-33110174D01*
X7653515Y-33110174D02*
X7663039Y-33072079D01*
X7663039Y-33072079D02*
X7672563Y-33053031D01*
X7672563Y-33053031D02*
X7682086Y-33043508D01*
X7682086Y-33043508D02*
X7701134Y-33033984D01*
X7853515Y-33214936D02*
X7863039Y-33224460D01*
X7863039Y-33224460D02*
X7853515Y-33233984D01*
X7853515Y-33233984D02*
X7843991Y-33224460D01*
X7843991Y-33224460D02*
X7853515Y-33214936D01*
X7853515Y-33214936D02*
X7853515Y-33233984D01*
X7986848Y-33033984D02*
X8005896Y-33033984D01*
X8005896Y-33033984D02*
X8024944Y-33043508D01*
X8024944Y-33043508D02*
X8034467Y-33053031D01*
X8034467Y-33053031D02*
X8043991Y-33072079D01*
X8043991Y-33072079D02*
X8053515Y-33110174D01*
X8053515Y-33110174D02*
X8053515Y-33157793D01*
X8053515Y-33157793D02*
X8043991Y-33195888D01*
X8043991Y-33195888D02*
X8034467Y-33214936D01*
X8034467Y-33214936D02*
X8024944Y-33224460D01*
X8024944Y-33224460D02*
X8005896Y-33233984D01*
X8005896Y-33233984D02*
X7986848Y-33233984D01*
X7986848Y-33233984D02*
X7967801Y-33224460D01*
X7967801Y-33224460D02*
X7958277Y-33214936D01*
X7958277Y-33214936D02*
X7948753Y-33195888D01*
X7948753Y-33195888D02*
X7939229Y-33157793D01*
X7939229Y-33157793D02*
X7939229Y-33110174D01*
X7939229Y-33110174D02*
X7948753Y-33072079D01*
X7948753Y-33072079D02*
X7958277Y-33053031D01*
X7958277Y-33053031D02*
X7967801Y-33043508D01*
X7967801Y-33043508D02*
X7986848Y-33033984D01*
X8243991Y-33233984D02*
X8129706Y-33233984D01*
X8186848Y-33233984D02*
X8186848Y-33033984D01*
X8186848Y-33033984D02*
X8167801Y-33062555D01*
X8167801Y-33062555D02*
X8148753Y-33081603D01*
X8148753Y-33081603D02*
X8129706Y-33091127D01*
X8434468Y-33233984D02*
X8320182Y-33233984D01*
X8377325Y-33233984D02*
X8377325Y-33033984D01*
X8377325Y-33033984D02*
X8358277Y-33062555D01*
X8358277Y-33062555D02*
X8339229Y-33081603D01*
X8339229Y-33081603D02*
X8320182Y-33091127D01*
X8548753Y-33119698D02*
X8529706Y-33110174D01*
X8529706Y-33110174D02*
X8520182Y-33100650D01*
X8520182Y-33100650D02*
X8510658Y-33081603D01*
X8510658Y-33081603D02*
X8510658Y-33072079D01*
X8510658Y-33072079D02*
X8520182Y-33053031D01*
X8520182Y-33053031D02*
X8529706Y-33043508D01*
X8529706Y-33043508D02*
X8548753Y-33033984D01*
X8548753Y-33033984D02*
X8586849Y-33033984D01*
X8586849Y-33033984D02*
X8605896Y-33043508D01*
X8605896Y-33043508D02*
X8615420Y-33053031D01*
X8615420Y-33053031D02*
X8624944Y-33072079D01*
X8624944Y-33072079D02*
X8624944Y-33081603D01*
X8624944Y-33081603D02*
X8615420Y-33100650D01*
X8615420Y-33100650D02*
X8605896Y-33110174D01*
X8605896Y-33110174D02*
X8586849Y-33119698D01*
X8586849Y-33119698D02*
X8548753Y-33119698D01*
X8548753Y-33119698D02*
X8529706Y-33129222D01*
X8529706Y-33129222D02*
X8520182Y-33138746D01*
X8520182Y-33138746D02*
X8510658Y-33157793D01*
X8510658Y-33157793D02*
X8510658Y-33195888D01*
X8510658Y-33195888D02*
X8520182Y-33214936D01*
X8520182Y-33214936D02*
X8529706Y-33224460D01*
X8529706Y-33224460D02*
X8548753Y-33233984D01*
X8548753Y-33233984D02*
X8586849Y-33233984D01*
X8586849Y-33233984D02*
X8605896Y-33224460D01*
X8605896Y-33224460D02*
X8615420Y-33214936D01*
X8615420Y-33214936D02*
X8624944Y-33195888D01*
X8624944Y-33195888D02*
X8624944Y-33157793D01*
X8624944Y-33157793D02*
X8615420Y-33138746D01*
X8615420Y-33138746D02*
X8605896Y-33129222D01*
X8605896Y-33129222D02*
X8586849Y-33119698D01*
X8701134Y-33033984D02*
X8701134Y-33072079D01*
X8777325Y-33033984D02*
X8777325Y-33072079D01*
X9072563Y-33310174D02*
X9063039Y-33300650D01*
X9063039Y-33300650D02*
X9043991Y-33272079D01*
X9043991Y-33272079D02*
X9034468Y-33253031D01*
X9034468Y-33253031D02*
X9024944Y-33224460D01*
X9024944Y-33224460D02*
X9015420Y-33176841D01*
X9015420Y-33176841D02*
X9015420Y-33138746D01*
X9015420Y-33138746D02*
X9024944Y-33091127D01*
X9024944Y-33091127D02*
X9034468Y-33062555D01*
X9034468Y-33062555D02*
X9043991Y-33043508D01*
X9043991Y-33043508D02*
X9063039Y-33014936D01*
X9063039Y-33014936D02*
X9072563Y-33005412D01*
X9243991Y-33033984D02*
X9148753Y-33033984D01*
X9148753Y-33033984D02*
X9139230Y-33129222D01*
X9139230Y-33129222D02*
X9148753Y-33119698D01*
X9148753Y-33119698D02*
X9167801Y-33110174D01*
X9167801Y-33110174D02*
X9215420Y-33110174D01*
X9215420Y-33110174D02*
X9234468Y-33119698D01*
X9234468Y-33119698D02*
X9243991Y-33129222D01*
X9243991Y-33129222D02*
X9253515Y-33148269D01*
X9253515Y-33148269D02*
X9253515Y-33195888D01*
X9253515Y-33195888D02*
X9243991Y-33214936D01*
X9243991Y-33214936D02*
X9234468Y-33224460D01*
X9234468Y-33224460D02*
X9215420Y-33233984D01*
X9215420Y-33233984D02*
X9167801Y-33233984D01*
X9167801Y-33233984D02*
X9148753Y-33224460D01*
X9148753Y-33224460D02*
X9139230Y-33214936D01*
X9377325Y-33033984D02*
X9396372Y-33033984D01*
X9396372Y-33033984D02*
X9415420Y-33043508D01*
X9415420Y-33043508D02*
X9424944Y-33053031D01*
X9424944Y-33053031D02*
X9434468Y-33072079D01*
X9434468Y-33072079D02*
X9443991Y-33110174D01*
X9443991Y-33110174D02*
X9443991Y-33157793D01*
X9443991Y-33157793D02*
X9434468Y-33195888D01*
X9434468Y-33195888D02*
X9424944Y-33214936D01*
X9424944Y-33214936D02*
X9415420Y-33224460D01*
X9415420Y-33224460D02*
X9396372Y-33233984D01*
X9396372Y-33233984D02*
X9377325Y-33233984D01*
X9377325Y-33233984D02*
X9358277Y-33224460D01*
X9358277Y-33224460D02*
X9348753Y-33214936D01*
X9348753Y-33214936D02*
X9339230Y-33195888D01*
X9339230Y-33195888D02*
X9329706Y-33157793D01*
X9329706Y-33157793D02*
X9329706Y-33110174D01*
X9329706Y-33110174D02*
X9339230Y-33072079D01*
X9339230Y-33072079D02*
X9348753Y-33053031D01*
X9348753Y-33053031D02*
X9358277Y-33043508D01*
X9358277Y-33043508D02*
X9377325Y-33033984D01*
X9682087Y-33233984D02*
X9682087Y-33033984D01*
X9767801Y-33233984D02*
X9767801Y-33129222D01*
X9767801Y-33129222D02*
X9758277Y-33110174D01*
X9758277Y-33110174D02*
X9739230Y-33100650D01*
X9739230Y-33100650D02*
X9710658Y-33100650D01*
X9710658Y-33100650D02*
X9691611Y-33110174D01*
X9691611Y-33110174D02*
X9682087Y-33119698D01*
X9891611Y-33233984D02*
X9872563Y-33224460D01*
X9872563Y-33224460D02*
X9863039Y-33214936D01*
X9863039Y-33214936D02*
X9853515Y-33195888D01*
X9853515Y-33195888D02*
X9853515Y-33138746D01*
X9853515Y-33138746D02*
X9863039Y-33119698D01*
X9863039Y-33119698D02*
X9872563Y-33110174D01*
X9872563Y-33110174D02*
X9891611Y-33100650D01*
X9891611Y-33100650D02*
X9920182Y-33100650D01*
X9920182Y-33100650D02*
X9939230Y-33110174D01*
X9939230Y-33110174D02*
X9948753Y-33119698D01*
X9948753Y-33119698D02*
X9958277Y-33138746D01*
X9958277Y-33138746D02*
X9958277Y-33195888D01*
X9958277Y-33195888D02*
X9948753Y-33214936D01*
X9948753Y-33214936D02*
X9939230Y-33224460D01*
X9939230Y-33224460D02*
X9920182Y-33233984D01*
X9920182Y-33233984D02*
X9891611Y-33233984D01*
X10072563Y-33233984D02*
X10053515Y-33224460D01*
X10053515Y-33224460D02*
X10043992Y-33205412D01*
X10043992Y-33205412D02*
X10043992Y-33033984D01*
X10224944Y-33224460D02*
X10205896Y-33233984D01*
X10205896Y-33233984D02*
X10167801Y-33233984D01*
X10167801Y-33233984D02*
X10148753Y-33224460D01*
X10148753Y-33224460D02*
X10139230Y-33205412D01*
X10139230Y-33205412D02*
X10139230Y-33129222D01*
X10139230Y-33129222D02*
X10148753Y-33110174D01*
X10148753Y-33110174D02*
X10167801Y-33100650D01*
X10167801Y-33100650D02*
X10205896Y-33100650D01*
X10205896Y-33100650D02*
X10224944Y-33110174D01*
X10224944Y-33110174D02*
X10234468Y-33129222D01*
X10234468Y-33129222D02*
X10234468Y-33148269D01*
X10234468Y-33148269D02*
X10139230Y-33167317D01*
X10310658Y-33224460D02*
X10329706Y-33233984D01*
X10329706Y-33233984D02*
X10367801Y-33233984D01*
X10367801Y-33233984D02*
X10386849Y-33224460D01*
X10386849Y-33224460D02*
X10396373Y-33205412D01*
X10396373Y-33205412D02*
X10396373Y-33195888D01*
X10396373Y-33195888D02*
X10386849Y-33176841D01*
X10386849Y-33176841D02*
X10367801Y-33167317D01*
X10367801Y-33167317D02*
X10339230Y-33167317D01*
X10339230Y-33167317D02*
X10320182Y-33157793D01*
X10320182Y-33157793D02*
X10310658Y-33138746D01*
X10310658Y-33138746D02*
X10310658Y-33129222D01*
X10310658Y-33129222D02*
X10320182Y-33110174D01*
X10320182Y-33110174D02*
X10339230Y-33100650D01*
X10339230Y-33100650D02*
X10367801Y-33100650D01*
X10367801Y-33100650D02*
X10386849Y-33110174D01*
X10463039Y-33310174D02*
X10472563Y-33300650D01*
X10472563Y-33300650D02*
X10491611Y-33272079D01*
X10491611Y-33272079D02*
X10501134Y-33253031D01*
X10501134Y-33253031D02*
X10510658Y-33224460D01*
X10510658Y-33224460D02*
X10520182Y-33176841D01*
X10520182Y-33176841D02*
X10520182Y-33138746D01*
X10520182Y-33138746D02*
X10510658Y-33091127D01*
X10510658Y-33091127D02*
X10501134Y-33062555D01*
X10501134Y-33062555D02*
X10491611Y-33043508D01*
X10491611Y-33043508D02*
X10472563Y-33014936D01*
X10472563Y-33014936D02*
X10463039Y-33005412D01*
D12*
X5497500Y-33406500D02*
G75*
G02*
X5457500Y-33406500I-20000J0D01*
G01*
X5457500Y-33406500D02*
G75*
G02*
X5497500Y-33406500I20000J0D01*
G01*
D11*
X5796372Y-33297984D02*
X5815420Y-33297984D01*
X5815420Y-33297984D02*
X5834467Y-33307508D01*
X5834467Y-33307508D02*
X5843991Y-33317031D01*
X5843991Y-33317031D02*
X5853515Y-33336079D01*
X5853515Y-33336079D02*
X5863039Y-33374174D01*
X5863039Y-33374174D02*
X5863039Y-33421793D01*
X5863039Y-33421793D02*
X5853515Y-33459888D01*
X5853515Y-33459888D02*
X5843991Y-33478936D01*
X5843991Y-33478936D02*
X5834467Y-33488460D01*
X5834467Y-33488460D02*
X5815420Y-33497984D01*
X5815420Y-33497984D02*
X5796372Y-33497984D01*
X5796372Y-33497984D02*
X5777324Y-33488460D01*
X5777324Y-33488460D02*
X5767801Y-33478936D01*
X5767801Y-33478936D02*
X5758277Y-33459888D01*
X5758277Y-33459888D02*
X5748753Y-33421793D01*
X5748753Y-33421793D02*
X5748753Y-33374174D01*
X5748753Y-33374174D02*
X5758277Y-33336079D01*
X5758277Y-33336079D02*
X5767801Y-33317031D01*
X5767801Y-33317031D02*
X5777324Y-33307508D01*
X5777324Y-33307508D02*
X5796372Y-33297984D01*
X5948753Y-33478936D02*
X5958277Y-33488460D01*
X5958277Y-33488460D02*
X5948753Y-33497984D01*
X5948753Y-33497984D02*
X5939229Y-33488460D01*
X5939229Y-33488460D02*
X5948753Y-33478936D01*
X5948753Y-33478936D02*
X5948753Y-33497984D01*
X6129705Y-33364650D02*
X6129705Y-33497984D01*
X6082086Y-33288460D02*
X6034467Y-33431317D01*
X6034467Y-33431317D02*
X6158277Y-33431317D01*
X6272562Y-33297984D02*
X6291610Y-33297984D01*
X6291610Y-33297984D02*
X6310658Y-33307508D01*
X6310658Y-33307508D02*
X6320182Y-33317031D01*
X6320182Y-33317031D02*
X6329705Y-33336079D01*
X6329705Y-33336079D02*
X6339229Y-33374174D01*
X6339229Y-33374174D02*
X6339229Y-33421793D01*
X6339229Y-33421793D02*
X6329705Y-33459888D01*
X6329705Y-33459888D02*
X6320182Y-33478936D01*
X6320182Y-33478936D02*
X6310658Y-33488460D01*
X6310658Y-33488460D02*
X6291610Y-33497984D01*
X6291610Y-33497984D02*
X6272562Y-33497984D01*
X6272562Y-33497984D02*
X6253515Y-33488460D01*
X6253515Y-33488460D02*
X6243991Y-33478936D01*
X6243991Y-33478936D02*
X6234467Y-33459888D01*
X6234467Y-33459888D02*
X6224943Y-33421793D01*
X6224943Y-33421793D02*
X6224943Y-33374174D01*
X6224943Y-33374174D02*
X6234467Y-33336079D01*
X6234467Y-33336079D02*
X6243991Y-33317031D01*
X6243991Y-33317031D02*
X6253515Y-33307508D01*
X6253515Y-33307508D02*
X6272562Y-33297984D01*
X6463039Y-33297984D02*
X6482086Y-33297984D01*
X6482086Y-33297984D02*
X6501134Y-33307508D01*
X6501134Y-33307508D02*
X6510658Y-33317031D01*
X6510658Y-33317031D02*
X6520182Y-33336079D01*
X6520182Y-33336079D02*
X6529705Y-33374174D01*
X6529705Y-33374174D02*
X6529705Y-33421793D01*
X6529705Y-33421793D02*
X6520182Y-33459888D01*
X6520182Y-33459888D02*
X6510658Y-33478936D01*
X6510658Y-33478936D02*
X6501134Y-33488460D01*
X6501134Y-33488460D02*
X6482086Y-33497984D01*
X6482086Y-33497984D02*
X6463039Y-33497984D01*
X6463039Y-33497984D02*
X6443991Y-33488460D01*
X6443991Y-33488460D02*
X6434467Y-33478936D01*
X6434467Y-33478936D02*
X6424943Y-33459888D01*
X6424943Y-33459888D02*
X6415420Y-33421793D01*
X6415420Y-33421793D02*
X6415420Y-33374174D01*
X6415420Y-33374174D02*
X6424943Y-33336079D01*
X6424943Y-33336079D02*
X6434467Y-33317031D01*
X6434467Y-33317031D02*
X6443991Y-33307508D01*
X6443991Y-33307508D02*
X6463039Y-33297984D01*
X6615420Y-33497984D02*
X6615420Y-33364650D01*
X6615420Y-33383698D02*
X6624943Y-33374174D01*
X6624943Y-33374174D02*
X6643991Y-33364650D01*
X6643991Y-33364650D02*
X6672563Y-33364650D01*
X6672563Y-33364650D02*
X6691610Y-33374174D01*
X6691610Y-33374174D02*
X6701134Y-33393222D01*
X6701134Y-33393222D02*
X6701134Y-33497984D01*
X6701134Y-33393222D02*
X6710658Y-33374174D01*
X6710658Y-33374174D02*
X6729705Y-33364650D01*
X6729705Y-33364650D02*
X6758277Y-33364650D01*
X6758277Y-33364650D02*
X6777324Y-33374174D01*
X6777324Y-33374174D02*
X6786848Y-33393222D01*
X6786848Y-33393222D02*
X6786848Y-33497984D01*
X6882086Y-33497984D02*
X6882086Y-33364650D01*
X6882086Y-33383698D02*
X6891610Y-33374174D01*
X6891610Y-33374174D02*
X6910658Y-33364650D01*
X6910658Y-33364650D02*
X6939229Y-33364650D01*
X6939229Y-33364650D02*
X6958277Y-33374174D01*
X6958277Y-33374174D02*
X6967801Y-33393222D01*
X6967801Y-33393222D02*
X6967801Y-33497984D01*
X6967801Y-33393222D02*
X6977324Y-33374174D01*
X6977324Y-33374174D02*
X6996372Y-33364650D01*
X6996372Y-33364650D02*
X7024943Y-33364650D01*
X7024943Y-33364650D02*
X7043991Y-33374174D01*
X7043991Y-33374174D02*
X7053515Y-33393222D01*
X7053515Y-33393222D02*
X7053515Y-33497984D01*
X7443991Y-33288460D02*
X7272563Y-33545603D01*
X7701134Y-33297984D02*
X7720182Y-33297984D01*
X7720182Y-33297984D02*
X7739229Y-33307508D01*
X7739229Y-33307508D02*
X7748753Y-33317031D01*
X7748753Y-33317031D02*
X7758277Y-33336079D01*
X7758277Y-33336079D02*
X7767801Y-33374174D01*
X7767801Y-33374174D02*
X7767801Y-33421793D01*
X7767801Y-33421793D02*
X7758277Y-33459888D01*
X7758277Y-33459888D02*
X7748753Y-33478936D01*
X7748753Y-33478936D02*
X7739229Y-33488460D01*
X7739229Y-33488460D02*
X7720182Y-33497984D01*
X7720182Y-33497984D02*
X7701134Y-33497984D01*
X7701134Y-33497984D02*
X7682086Y-33488460D01*
X7682086Y-33488460D02*
X7672563Y-33478936D01*
X7672563Y-33478936D02*
X7663039Y-33459888D01*
X7663039Y-33459888D02*
X7653515Y-33421793D01*
X7653515Y-33421793D02*
X7653515Y-33374174D01*
X7653515Y-33374174D02*
X7663039Y-33336079D01*
X7663039Y-33336079D02*
X7672563Y-33317031D01*
X7672563Y-33317031D02*
X7682086Y-33307508D01*
X7682086Y-33307508D02*
X7701134Y-33297984D01*
X7853515Y-33478936D02*
X7863039Y-33488460D01*
X7863039Y-33488460D02*
X7853515Y-33497984D01*
X7853515Y-33497984D02*
X7843991Y-33488460D01*
X7843991Y-33488460D02*
X7853515Y-33478936D01*
X7853515Y-33478936D02*
X7853515Y-33497984D01*
X7986848Y-33297984D02*
X8005896Y-33297984D01*
X8005896Y-33297984D02*
X8024944Y-33307508D01*
X8024944Y-33307508D02*
X8034467Y-33317031D01*
X8034467Y-33317031D02*
X8043991Y-33336079D01*
X8043991Y-33336079D02*
X8053515Y-33374174D01*
X8053515Y-33374174D02*
X8053515Y-33421793D01*
X8053515Y-33421793D02*
X8043991Y-33459888D01*
X8043991Y-33459888D02*
X8034467Y-33478936D01*
X8034467Y-33478936D02*
X8024944Y-33488460D01*
X8024944Y-33488460D02*
X8005896Y-33497984D01*
X8005896Y-33497984D02*
X7986848Y-33497984D01*
X7986848Y-33497984D02*
X7967801Y-33488460D01*
X7967801Y-33488460D02*
X7958277Y-33478936D01*
X7958277Y-33478936D02*
X7948753Y-33459888D01*
X7948753Y-33459888D02*
X7939229Y-33421793D01*
X7939229Y-33421793D02*
X7939229Y-33374174D01*
X7939229Y-33374174D02*
X7948753Y-33336079D01*
X7948753Y-33336079D02*
X7958277Y-33317031D01*
X7958277Y-33317031D02*
X7967801Y-33307508D01*
X7967801Y-33307508D02*
X7986848Y-33297984D01*
X8243991Y-33497984D02*
X8129706Y-33497984D01*
X8186848Y-33497984D02*
X8186848Y-33297984D01*
X8186848Y-33297984D02*
X8167801Y-33326555D01*
X8167801Y-33326555D02*
X8148753Y-33345603D01*
X8148753Y-33345603D02*
X8129706Y-33355127D01*
X8424944Y-33297984D02*
X8329706Y-33297984D01*
X8329706Y-33297984D02*
X8320182Y-33393222D01*
X8320182Y-33393222D02*
X8329706Y-33383698D01*
X8329706Y-33383698D02*
X8348753Y-33374174D01*
X8348753Y-33374174D02*
X8396372Y-33374174D01*
X8396372Y-33374174D02*
X8415420Y-33383698D01*
X8415420Y-33383698D02*
X8424944Y-33393222D01*
X8424944Y-33393222D02*
X8434468Y-33412269D01*
X8434468Y-33412269D02*
X8434468Y-33459888D01*
X8434468Y-33459888D02*
X8424944Y-33478936D01*
X8424944Y-33478936D02*
X8415420Y-33488460D01*
X8415420Y-33488460D02*
X8396372Y-33497984D01*
X8396372Y-33497984D02*
X8348753Y-33497984D01*
X8348753Y-33497984D02*
X8329706Y-33488460D01*
X8329706Y-33488460D02*
X8320182Y-33478936D01*
X8501134Y-33297984D02*
X8634468Y-33297984D01*
X8634468Y-33297984D02*
X8548753Y-33497984D01*
X8701134Y-33297984D02*
X8701134Y-33336079D01*
X8777325Y-33297984D02*
X8777325Y-33336079D01*
X9072563Y-33574174D02*
X9063039Y-33564650D01*
X9063039Y-33564650D02*
X9043991Y-33536079D01*
X9043991Y-33536079D02*
X9034468Y-33517031D01*
X9034468Y-33517031D02*
X9024944Y-33488460D01*
X9024944Y-33488460D02*
X9015420Y-33440841D01*
X9015420Y-33440841D02*
X9015420Y-33402746D01*
X9015420Y-33402746D02*
X9024944Y-33355127D01*
X9024944Y-33355127D02*
X9034468Y-33326555D01*
X9034468Y-33326555D02*
X9043991Y-33307508D01*
X9043991Y-33307508D02*
X9063039Y-33278936D01*
X9063039Y-33278936D02*
X9072563Y-33269412D01*
X9139230Y-33317031D02*
X9148753Y-33307508D01*
X9148753Y-33307508D02*
X9167801Y-33297984D01*
X9167801Y-33297984D02*
X9215420Y-33297984D01*
X9215420Y-33297984D02*
X9234468Y-33307508D01*
X9234468Y-33307508D02*
X9243991Y-33317031D01*
X9243991Y-33317031D02*
X9253515Y-33336079D01*
X9253515Y-33336079D02*
X9253515Y-33355127D01*
X9253515Y-33355127D02*
X9243991Y-33383698D01*
X9243991Y-33383698D02*
X9129706Y-33497984D01*
X9129706Y-33497984D02*
X9253515Y-33497984D01*
X9491611Y-33497984D02*
X9491611Y-33297984D01*
X9577325Y-33497984D02*
X9577325Y-33393222D01*
X9577325Y-33393222D02*
X9567801Y-33374174D01*
X9567801Y-33374174D02*
X9548753Y-33364650D01*
X9548753Y-33364650D02*
X9520182Y-33364650D01*
X9520182Y-33364650D02*
X9501134Y-33374174D01*
X9501134Y-33374174D02*
X9491611Y-33383698D01*
X9701134Y-33497984D02*
X9682087Y-33488460D01*
X9682087Y-33488460D02*
X9672563Y-33478936D01*
X9672563Y-33478936D02*
X9663039Y-33459888D01*
X9663039Y-33459888D02*
X9663039Y-33402746D01*
X9663039Y-33402746D02*
X9672563Y-33383698D01*
X9672563Y-33383698D02*
X9682087Y-33374174D01*
X9682087Y-33374174D02*
X9701134Y-33364650D01*
X9701134Y-33364650D02*
X9729706Y-33364650D01*
X9729706Y-33364650D02*
X9748753Y-33374174D01*
X9748753Y-33374174D02*
X9758277Y-33383698D01*
X9758277Y-33383698D02*
X9767801Y-33402746D01*
X9767801Y-33402746D02*
X9767801Y-33459888D01*
X9767801Y-33459888D02*
X9758277Y-33478936D01*
X9758277Y-33478936D02*
X9748753Y-33488460D01*
X9748753Y-33488460D02*
X9729706Y-33497984D01*
X9729706Y-33497984D02*
X9701134Y-33497984D01*
X9882087Y-33497984D02*
X9863039Y-33488460D01*
X9863039Y-33488460D02*
X9853515Y-33469412D01*
X9853515Y-33469412D02*
X9853515Y-33297984D01*
X10034468Y-33488460D02*
X10015420Y-33497984D01*
X10015420Y-33497984D02*
X9977325Y-33497984D01*
X9977325Y-33497984D02*
X9958277Y-33488460D01*
X9958277Y-33488460D02*
X9948753Y-33469412D01*
X9948753Y-33469412D02*
X9948753Y-33393222D01*
X9948753Y-33393222D02*
X9958277Y-33374174D01*
X9958277Y-33374174D02*
X9977325Y-33364650D01*
X9977325Y-33364650D02*
X10015420Y-33364650D01*
X10015420Y-33364650D02*
X10034468Y-33374174D01*
X10034468Y-33374174D02*
X10043992Y-33393222D01*
X10043992Y-33393222D02*
X10043992Y-33412269D01*
X10043992Y-33412269D02*
X9948753Y-33431317D01*
X10120182Y-33488460D02*
X10139230Y-33497984D01*
X10139230Y-33497984D02*
X10177325Y-33497984D01*
X10177325Y-33497984D02*
X10196373Y-33488460D01*
X10196373Y-33488460D02*
X10205896Y-33469412D01*
X10205896Y-33469412D02*
X10205896Y-33459888D01*
X10205896Y-33459888D02*
X10196373Y-33440841D01*
X10196373Y-33440841D02*
X10177325Y-33431317D01*
X10177325Y-33431317D02*
X10148753Y-33431317D01*
X10148753Y-33431317D02*
X10129706Y-33421793D01*
X10129706Y-33421793D02*
X10120182Y-33402746D01*
X10120182Y-33402746D02*
X10120182Y-33393222D01*
X10120182Y-33393222D02*
X10129706Y-33374174D01*
X10129706Y-33374174D02*
X10148753Y-33364650D01*
X10148753Y-33364650D02*
X10177325Y-33364650D01*
X10177325Y-33364650D02*
X10196373Y-33374174D01*
X10272563Y-33574174D02*
X10282087Y-33564650D01*
X10282087Y-33564650D02*
X10301134Y-33536079D01*
X10301134Y-33536079D02*
X10310658Y-33517031D01*
X10310658Y-33517031D02*
X10320182Y-33488460D01*
X10320182Y-33488460D02*
X10329706Y-33440841D01*
X10329706Y-33440841D02*
X10329706Y-33402746D01*
X10329706Y-33402746D02*
X10320182Y-33355127D01*
X10320182Y-33355127D02*
X10310658Y-33326555D01*
X10310658Y-33326555D02*
X10301134Y-33307508D01*
X10301134Y-33307508D02*
X10282087Y-33278936D01*
X10282087Y-33278936D02*
X10272563Y-33269412D01*
D12*
X5477500Y-33650500D02*
X5477500Y-33690500D01*
X5457500Y-33670500D02*
X5497500Y-33670500D01*
D11*
X5796372Y-33561984D02*
X5815420Y-33561984D01*
X5815420Y-33561984D02*
X5834467Y-33571508D01*
X5834467Y-33571508D02*
X5843991Y-33581031D01*
X5843991Y-33581031D02*
X5853515Y-33600079D01*
X5853515Y-33600079D02*
X5863039Y-33638174D01*
X5863039Y-33638174D02*
X5863039Y-33685793D01*
X5863039Y-33685793D02*
X5853515Y-33723889D01*
X5853515Y-33723889D02*
X5843991Y-33742936D01*
X5843991Y-33742936D02*
X5834467Y-33752460D01*
X5834467Y-33752460D02*
X5815420Y-33761984D01*
X5815420Y-33761984D02*
X5796372Y-33761984D01*
X5796372Y-33761984D02*
X5777324Y-33752460D01*
X5777324Y-33752460D02*
X5767801Y-33742936D01*
X5767801Y-33742936D02*
X5758277Y-33723889D01*
X5758277Y-33723889D02*
X5748753Y-33685793D01*
X5748753Y-33685793D02*
X5748753Y-33638174D01*
X5748753Y-33638174D02*
X5758277Y-33600079D01*
X5758277Y-33600079D02*
X5767801Y-33581031D01*
X5767801Y-33581031D02*
X5777324Y-33571508D01*
X5777324Y-33571508D02*
X5796372Y-33561984D01*
X5948753Y-33742936D02*
X5958277Y-33752460D01*
X5958277Y-33752460D02*
X5948753Y-33761984D01*
X5948753Y-33761984D02*
X5939229Y-33752460D01*
X5939229Y-33752460D02*
X5948753Y-33742936D01*
X5948753Y-33742936D02*
X5948753Y-33761984D01*
X6129705Y-33628650D02*
X6129705Y-33761984D01*
X6082086Y-33552460D02*
X6034467Y-33695317D01*
X6034467Y-33695317D02*
X6158277Y-33695317D01*
X6272562Y-33561984D02*
X6291610Y-33561984D01*
X6291610Y-33561984D02*
X6310658Y-33571508D01*
X6310658Y-33571508D02*
X6320182Y-33581031D01*
X6320182Y-33581031D02*
X6329705Y-33600079D01*
X6329705Y-33600079D02*
X6339229Y-33638174D01*
X6339229Y-33638174D02*
X6339229Y-33685793D01*
X6339229Y-33685793D02*
X6329705Y-33723889D01*
X6329705Y-33723889D02*
X6320182Y-33742936D01*
X6320182Y-33742936D02*
X6310658Y-33752460D01*
X6310658Y-33752460D02*
X6291610Y-33761984D01*
X6291610Y-33761984D02*
X6272562Y-33761984D01*
X6272562Y-33761984D02*
X6253515Y-33752460D01*
X6253515Y-33752460D02*
X6243991Y-33742936D01*
X6243991Y-33742936D02*
X6234467Y-33723889D01*
X6234467Y-33723889D02*
X6224943Y-33685793D01*
X6224943Y-33685793D02*
X6224943Y-33638174D01*
X6224943Y-33638174D02*
X6234467Y-33600079D01*
X6234467Y-33600079D02*
X6243991Y-33581031D01*
X6243991Y-33581031D02*
X6253515Y-33571508D01*
X6253515Y-33571508D02*
X6272562Y-33561984D01*
X6463039Y-33561984D02*
X6482086Y-33561984D01*
X6482086Y-33561984D02*
X6501134Y-33571508D01*
X6501134Y-33571508D02*
X6510658Y-33581031D01*
X6510658Y-33581031D02*
X6520182Y-33600079D01*
X6520182Y-33600079D02*
X6529705Y-33638174D01*
X6529705Y-33638174D02*
X6529705Y-33685793D01*
X6529705Y-33685793D02*
X6520182Y-33723889D01*
X6520182Y-33723889D02*
X6510658Y-33742936D01*
X6510658Y-33742936D02*
X6501134Y-33752460D01*
X6501134Y-33752460D02*
X6482086Y-33761984D01*
X6482086Y-33761984D02*
X6463039Y-33761984D01*
X6463039Y-33761984D02*
X6443991Y-33752460D01*
X6443991Y-33752460D02*
X6434467Y-33742936D01*
X6434467Y-33742936D02*
X6424943Y-33723889D01*
X6424943Y-33723889D02*
X6415420Y-33685793D01*
X6415420Y-33685793D02*
X6415420Y-33638174D01*
X6415420Y-33638174D02*
X6424943Y-33600079D01*
X6424943Y-33600079D02*
X6434467Y-33581031D01*
X6434467Y-33581031D02*
X6443991Y-33571508D01*
X6443991Y-33571508D02*
X6463039Y-33561984D01*
X6615420Y-33761984D02*
X6615420Y-33628650D01*
X6615420Y-33647698D02*
X6624943Y-33638174D01*
X6624943Y-33638174D02*
X6643991Y-33628650D01*
X6643991Y-33628650D02*
X6672563Y-33628650D01*
X6672563Y-33628650D02*
X6691610Y-33638174D01*
X6691610Y-33638174D02*
X6701134Y-33657222D01*
X6701134Y-33657222D02*
X6701134Y-33761984D01*
X6701134Y-33657222D02*
X6710658Y-33638174D01*
X6710658Y-33638174D02*
X6729705Y-33628650D01*
X6729705Y-33628650D02*
X6758277Y-33628650D01*
X6758277Y-33628650D02*
X6777324Y-33638174D01*
X6777324Y-33638174D02*
X6786848Y-33657222D01*
X6786848Y-33657222D02*
X6786848Y-33761984D01*
X6882086Y-33761984D02*
X6882086Y-33628650D01*
X6882086Y-33647698D02*
X6891610Y-33638174D01*
X6891610Y-33638174D02*
X6910658Y-33628650D01*
X6910658Y-33628650D02*
X6939229Y-33628650D01*
X6939229Y-33628650D02*
X6958277Y-33638174D01*
X6958277Y-33638174D02*
X6967801Y-33657222D01*
X6967801Y-33657222D02*
X6967801Y-33761984D01*
X6967801Y-33657222D02*
X6977324Y-33638174D01*
X6977324Y-33638174D02*
X6996372Y-33628650D01*
X6996372Y-33628650D02*
X7024943Y-33628650D01*
X7024943Y-33628650D02*
X7043991Y-33638174D01*
X7043991Y-33638174D02*
X7053515Y-33657222D01*
X7053515Y-33657222D02*
X7053515Y-33761984D01*
X7443991Y-33552460D02*
X7272563Y-33809603D01*
X7701134Y-33561984D02*
X7720182Y-33561984D01*
X7720182Y-33561984D02*
X7739229Y-33571508D01*
X7739229Y-33571508D02*
X7748753Y-33581031D01*
X7748753Y-33581031D02*
X7758277Y-33600079D01*
X7758277Y-33600079D02*
X7767801Y-33638174D01*
X7767801Y-33638174D02*
X7767801Y-33685793D01*
X7767801Y-33685793D02*
X7758277Y-33723889D01*
X7758277Y-33723889D02*
X7748753Y-33742936D01*
X7748753Y-33742936D02*
X7739229Y-33752460D01*
X7739229Y-33752460D02*
X7720182Y-33761984D01*
X7720182Y-33761984D02*
X7701134Y-33761984D01*
X7701134Y-33761984D02*
X7682086Y-33752460D01*
X7682086Y-33752460D02*
X7672563Y-33742936D01*
X7672563Y-33742936D02*
X7663039Y-33723889D01*
X7663039Y-33723889D02*
X7653515Y-33685793D01*
X7653515Y-33685793D02*
X7653515Y-33638174D01*
X7653515Y-33638174D02*
X7663039Y-33600079D01*
X7663039Y-33600079D02*
X7672563Y-33581031D01*
X7672563Y-33581031D02*
X7682086Y-33571508D01*
X7682086Y-33571508D02*
X7701134Y-33561984D01*
X7853515Y-33742936D02*
X7863039Y-33752460D01*
X7863039Y-33752460D02*
X7853515Y-33761984D01*
X7853515Y-33761984D02*
X7843991Y-33752460D01*
X7843991Y-33752460D02*
X7853515Y-33742936D01*
X7853515Y-33742936D02*
X7853515Y-33761984D01*
X7986848Y-33561984D02*
X8005896Y-33561984D01*
X8005896Y-33561984D02*
X8024944Y-33571508D01*
X8024944Y-33571508D02*
X8034467Y-33581031D01*
X8034467Y-33581031D02*
X8043991Y-33600079D01*
X8043991Y-33600079D02*
X8053515Y-33638174D01*
X8053515Y-33638174D02*
X8053515Y-33685793D01*
X8053515Y-33685793D02*
X8043991Y-33723889D01*
X8043991Y-33723889D02*
X8034467Y-33742936D01*
X8034467Y-33742936D02*
X8024944Y-33752460D01*
X8024944Y-33752460D02*
X8005896Y-33761984D01*
X8005896Y-33761984D02*
X7986848Y-33761984D01*
X7986848Y-33761984D02*
X7967801Y-33752460D01*
X7967801Y-33752460D02*
X7958277Y-33742936D01*
X7958277Y-33742936D02*
X7948753Y-33723889D01*
X7948753Y-33723889D02*
X7939229Y-33685793D01*
X7939229Y-33685793D02*
X7939229Y-33638174D01*
X7939229Y-33638174D02*
X7948753Y-33600079D01*
X7948753Y-33600079D02*
X7958277Y-33581031D01*
X7958277Y-33581031D02*
X7967801Y-33571508D01*
X7967801Y-33571508D02*
X7986848Y-33561984D01*
X8243991Y-33761984D02*
X8129706Y-33761984D01*
X8186848Y-33761984D02*
X8186848Y-33561984D01*
X8186848Y-33561984D02*
X8167801Y-33590555D01*
X8167801Y-33590555D02*
X8148753Y-33609603D01*
X8148753Y-33609603D02*
X8129706Y-33619127D01*
X8424944Y-33561984D02*
X8329706Y-33561984D01*
X8329706Y-33561984D02*
X8320182Y-33657222D01*
X8320182Y-33657222D02*
X8329706Y-33647698D01*
X8329706Y-33647698D02*
X8348753Y-33638174D01*
X8348753Y-33638174D02*
X8396372Y-33638174D01*
X8396372Y-33638174D02*
X8415420Y-33647698D01*
X8415420Y-33647698D02*
X8424944Y-33657222D01*
X8424944Y-33657222D02*
X8434468Y-33676270D01*
X8434468Y-33676270D02*
X8434468Y-33723889D01*
X8434468Y-33723889D02*
X8424944Y-33742936D01*
X8424944Y-33742936D02*
X8415420Y-33752460D01*
X8415420Y-33752460D02*
X8396372Y-33761984D01*
X8396372Y-33761984D02*
X8348753Y-33761984D01*
X8348753Y-33761984D02*
X8329706Y-33752460D01*
X8329706Y-33752460D02*
X8320182Y-33742936D01*
X8501134Y-33561984D02*
X8634468Y-33561984D01*
X8634468Y-33561984D02*
X8548753Y-33761984D01*
X8701134Y-33561984D02*
X8701134Y-33600079D01*
X8777325Y-33561984D02*
X8777325Y-33600079D01*
X9072563Y-33838174D02*
X9063039Y-33828650D01*
X9063039Y-33828650D02*
X9043991Y-33800079D01*
X9043991Y-33800079D02*
X9034468Y-33781031D01*
X9034468Y-33781031D02*
X9024944Y-33752460D01*
X9024944Y-33752460D02*
X9015420Y-33704841D01*
X9015420Y-33704841D02*
X9015420Y-33666746D01*
X9015420Y-33666746D02*
X9024944Y-33619127D01*
X9024944Y-33619127D02*
X9034468Y-33590555D01*
X9034468Y-33590555D02*
X9043991Y-33571508D01*
X9043991Y-33571508D02*
X9063039Y-33542936D01*
X9063039Y-33542936D02*
X9072563Y-33533412D01*
X9253515Y-33761984D02*
X9139230Y-33761984D01*
X9196372Y-33761984D02*
X9196372Y-33561984D01*
X9196372Y-33561984D02*
X9177325Y-33590555D01*
X9177325Y-33590555D02*
X9158277Y-33609603D01*
X9158277Y-33609603D02*
X9139230Y-33619127D01*
X9329706Y-33581031D02*
X9339230Y-33571508D01*
X9339230Y-33571508D02*
X9358277Y-33561984D01*
X9358277Y-33561984D02*
X9405896Y-33561984D01*
X9405896Y-33561984D02*
X9424944Y-33571508D01*
X9424944Y-33571508D02*
X9434468Y-33581031D01*
X9434468Y-33581031D02*
X9443991Y-33600079D01*
X9443991Y-33600079D02*
X9443991Y-33619127D01*
X9443991Y-33619127D02*
X9434468Y-33647698D01*
X9434468Y-33647698D02*
X9320182Y-33761984D01*
X9320182Y-33761984D02*
X9443991Y-33761984D01*
X9624944Y-33561984D02*
X9529706Y-33561984D01*
X9529706Y-33561984D02*
X9520182Y-33657222D01*
X9520182Y-33657222D02*
X9529706Y-33647698D01*
X9529706Y-33647698D02*
X9548753Y-33638174D01*
X9548753Y-33638174D02*
X9596372Y-33638174D01*
X9596372Y-33638174D02*
X9615420Y-33647698D01*
X9615420Y-33647698D02*
X9624944Y-33657222D01*
X9624944Y-33657222D02*
X9634468Y-33676270D01*
X9634468Y-33676270D02*
X9634468Y-33723889D01*
X9634468Y-33723889D02*
X9624944Y-33742936D01*
X9624944Y-33742936D02*
X9615420Y-33752460D01*
X9615420Y-33752460D02*
X9596372Y-33761984D01*
X9596372Y-33761984D02*
X9548753Y-33761984D01*
X9548753Y-33761984D02*
X9529706Y-33752460D01*
X9529706Y-33752460D02*
X9520182Y-33742936D01*
X9872563Y-33761984D02*
X9872563Y-33561984D01*
X9958277Y-33761984D02*
X9958277Y-33657222D01*
X9958277Y-33657222D02*
X9948753Y-33638174D01*
X9948753Y-33638174D02*
X9929706Y-33628650D01*
X9929706Y-33628650D02*
X9901134Y-33628650D01*
X9901134Y-33628650D02*
X9882087Y-33638174D01*
X9882087Y-33638174D02*
X9872563Y-33647698D01*
X10082087Y-33761984D02*
X10063039Y-33752460D01*
X10063039Y-33752460D02*
X10053515Y-33742936D01*
X10053515Y-33742936D02*
X10043992Y-33723889D01*
X10043992Y-33723889D02*
X10043992Y-33666746D01*
X10043992Y-33666746D02*
X10053515Y-33647698D01*
X10053515Y-33647698D02*
X10063039Y-33638174D01*
X10063039Y-33638174D02*
X10082087Y-33628650D01*
X10082087Y-33628650D02*
X10110658Y-33628650D01*
X10110658Y-33628650D02*
X10129706Y-33638174D01*
X10129706Y-33638174D02*
X10139230Y-33647698D01*
X10139230Y-33647698D02*
X10148753Y-33666746D01*
X10148753Y-33666746D02*
X10148753Y-33723889D01*
X10148753Y-33723889D02*
X10139230Y-33742936D01*
X10139230Y-33742936D02*
X10129706Y-33752460D01*
X10129706Y-33752460D02*
X10110658Y-33761984D01*
X10110658Y-33761984D02*
X10082087Y-33761984D01*
X10263039Y-33761984D02*
X10243992Y-33752460D01*
X10243992Y-33752460D02*
X10234468Y-33733412D01*
X10234468Y-33733412D02*
X10234468Y-33561984D01*
X10415420Y-33752460D02*
X10396373Y-33761984D01*
X10396373Y-33761984D02*
X10358277Y-33761984D01*
X10358277Y-33761984D02*
X10339230Y-33752460D01*
X10339230Y-33752460D02*
X10329706Y-33733412D01*
X10329706Y-33733412D02*
X10329706Y-33657222D01*
X10329706Y-33657222D02*
X10339230Y-33638174D01*
X10339230Y-33638174D02*
X10358277Y-33628650D01*
X10358277Y-33628650D02*
X10396373Y-33628650D01*
X10396373Y-33628650D02*
X10415420Y-33638174D01*
X10415420Y-33638174D02*
X10424944Y-33657222D01*
X10424944Y-33657222D02*
X10424944Y-33676270D01*
X10424944Y-33676270D02*
X10329706Y-33695317D01*
X10501134Y-33752460D02*
X10520182Y-33761984D01*
X10520182Y-33761984D02*
X10558277Y-33761984D01*
X10558277Y-33761984D02*
X10577325Y-33752460D01*
X10577325Y-33752460D02*
X10586849Y-33733412D01*
X10586849Y-33733412D02*
X10586849Y-33723889D01*
X10586849Y-33723889D02*
X10577325Y-33704841D01*
X10577325Y-33704841D02*
X10558277Y-33695317D01*
X10558277Y-33695317D02*
X10529706Y-33695317D01*
X10529706Y-33695317D02*
X10510658Y-33685793D01*
X10510658Y-33685793D02*
X10501134Y-33666746D01*
X10501134Y-33666746D02*
X10501134Y-33657222D01*
X10501134Y-33657222D02*
X10510658Y-33638174D01*
X10510658Y-33638174D02*
X10529706Y-33628650D01*
X10529706Y-33628650D02*
X10558277Y-33628650D01*
X10558277Y-33628650D02*
X10577325Y-33638174D01*
X10653515Y-33838174D02*
X10663039Y-33828650D01*
X10663039Y-33828650D02*
X10682087Y-33800079D01*
X10682087Y-33800079D02*
X10691611Y-33781031D01*
X10691611Y-33781031D02*
X10701134Y-33752460D01*
X10701134Y-33752460D02*
X10710658Y-33704841D01*
X10710658Y-33704841D02*
X10710658Y-33666746D01*
X10710658Y-33666746D02*
X10701134Y-33619127D01*
X10701134Y-33619127D02*
X10691611Y-33590555D01*
X10691611Y-33590555D02*
X10682087Y-33571508D01*
X10682087Y-33571508D02*
X10663039Y-33542936D01*
X10663039Y-33542936D02*
X10653515Y-33533412D01*
D12*
X5485199Y-33964199D02*
X5485199Y-33904801D01*
X5425801Y-33904801D01*
X5425801Y-33964199D01*
X5485199Y-33964199D01*
D11*
X5796372Y-33825984D02*
X5815420Y-33825984D01*
X5815420Y-33825984D02*
X5834467Y-33835508D01*
X5834467Y-33835508D02*
X5843991Y-33845031D01*
X5843991Y-33845031D02*
X5853515Y-33864079D01*
X5853515Y-33864079D02*
X5863039Y-33902174D01*
X5863039Y-33902174D02*
X5863039Y-33949793D01*
X5863039Y-33949793D02*
X5853515Y-33987889D01*
X5853515Y-33987889D02*
X5843991Y-34006936D01*
X5843991Y-34006936D02*
X5834467Y-34016460D01*
X5834467Y-34016460D02*
X5815420Y-34025984D01*
X5815420Y-34025984D02*
X5796372Y-34025984D01*
X5796372Y-34025984D02*
X5777324Y-34016460D01*
X5777324Y-34016460D02*
X5767801Y-34006936D01*
X5767801Y-34006936D02*
X5758277Y-33987889D01*
X5758277Y-33987889D02*
X5748753Y-33949793D01*
X5748753Y-33949793D02*
X5748753Y-33902174D01*
X5748753Y-33902174D02*
X5758277Y-33864079D01*
X5758277Y-33864079D02*
X5767801Y-33845031D01*
X5767801Y-33845031D02*
X5777324Y-33835508D01*
X5777324Y-33835508D02*
X5796372Y-33825984D01*
X5948753Y-34006936D02*
X5958277Y-34016460D01*
X5958277Y-34016460D02*
X5948753Y-34025984D01*
X5948753Y-34025984D02*
X5939229Y-34016460D01*
X5939229Y-34016460D02*
X5948753Y-34006936D01*
X5948753Y-34006936D02*
X5948753Y-34025984D01*
X6072562Y-33911698D02*
X6053515Y-33902174D01*
X6053515Y-33902174D02*
X6043991Y-33892650D01*
X6043991Y-33892650D02*
X6034467Y-33873603D01*
X6034467Y-33873603D02*
X6034467Y-33864079D01*
X6034467Y-33864079D02*
X6043991Y-33845031D01*
X6043991Y-33845031D02*
X6053515Y-33835508D01*
X6053515Y-33835508D02*
X6072562Y-33825984D01*
X6072562Y-33825984D02*
X6110658Y-33825984D01*
X6110658Y-33825984D02*
X6129705Y-33835508D01*
X6129705Y-33835508D02*
X6139229Y-33845031D01*
X6139229Y-33845031D02*
X6148753Y-33864079D01*
X6148753Y-33864079D02*
X6148753Y-33873603D01*
X6148753Y-33873603D02*
X6139229Y-33892650D01*
X6139229Y-33892650D02*
X6129705Y-33902174D01*
X6129705Y-33902174D02*
X6110658Y-33911698D01*
X6110658Y-33911698D02*
X6072562Y-33911698D01*
X6072562Y-33911698D02*
X6053515Y-33921222D01*
X6053515Y-33921222D02*
X6043991Y-33930746D01*
X6043991Y-33930746D02*
X6034467Y-33949793D01*
X6034467Y-33949793D02*
X6034467Y-33987889D01*
X6034467Y-33987889D02*
X6043991Y-34006936D01*
X6043991Y-34006936D02*
X6053515Y-34016460D01*
X6053515Y-34016460D02*
X6072562Y-34025984D01*
X6072562Y-34025984D02*
X6110658Y-34025984D01*
X6110658Y-34025984D02*
X6129705Y-34016460D01*
X6129705Y-34016460D02*
X6139229Y-34006936D01*
X6139229Y-34006936D02*
X6148753Y-33987889D01*
X6148753Y-33987889D02*
X6148753Y-33949793D01*
X6148753Y-33949793D02*
X6139229Y-33930746D01*
X6139229Y-33930746D02*
X6129705Y-33921222D01*
X6129705Y-33921222D02*
X6110658Y-33911698D01*
X6320182Y-33892650D02*
X6320182Y-34025984D01*
X6272562Y-33816460D02*
X6224943Y-33959317D01*
X6224943Y-33959317D02*
X6348753Y-33959317D01*
X6463039Y-33825984D02*
X6482086Y-33825984D01*
X6482086Y-33825984D02*
X6501134Y-33835508D01*
X6501134Y-33835508D02*
X6510658Y-33845031D01*
X6510658Y-33845031D02*
X6520182Y-33864079D01*
X6520182Y-33864079D02*
X6529705Y-33902174D01*
X6529705Y-33902174D02*
X6529705Y-33949793D01*
X6529705Y-33949793D02*
X6520182Y-33987889D01*
X6520182Y-33987889D02*
X6510658Y-34006936D01*
X6510658Y-34006936D02*
X6501134Y-34016460D01*
X6501134Y-34016460D02*
X6482086Y-34025984D01*
X6482086Y-34025984D02*
X6463039Y-34025984D01*
X6463039Y-34025984D02*
X6443991Y-34016460D01*
X6443991Y-34016460D02*
X6434467Y-34006936D01*
X6434467Y-34006936D02*
X6424943Y-33987889D01*
X6424943Y-33987889D02*
X6415420Y-33949793D01*
X6415420Y-33949793D02*
X6415420Y-33902174D01*
X6415420Y-33902174D02*
X6424943Y-33864079D01*
X6424943Y-33864079D02*
X6434467Y-33845031D01*
X6434467Y-33845031D02*
X6443991Y-33835508D01*
X6443991Y-33835508D02*
X6463039Y-33825984D01*
X6615420Y-34025984D02*
X6615420Y-33892650D01*
X6615420Y-33911698D02*
X6624943Y-33902174D01*
X6624943Y-33902174D02*
X6643991Y-33892650D01*
X6643991Y-33892650D02*
X6672563Y-33892650D01*
X6672563Y-33892650D02*
X6691610Y-33902174D01*
X6691610Y-33902174D02*
X6701134Y-33921222D01*
X6701134Y-33921222D02*
X6701134Y-34025984D01*
X6701134Y-33921222D02*
X6710658Y-33902174D01*
X6710658Y-33902174D02*
X6729705Y-33892650D01*
X6729705Y-33892650D02*
X6758277Y-33892650D01*
X6758277Y-33892650D02*
X6777324Y-33902174D01*
X6777324Y-33902174D02*
X6786848Y-33921222D01*
X6786848Y-33921222D02*
X6786848Y-34025984D01*
X6882086Y-34025984D02*
X6882086Y-33892650D01*
X6882086Y-33911698D02*
X6891610Y-33902174D01*
X6891610Y-33902174D02*
X6910658Y-33892650D01*
X6910658Y-33892650D02*
X6939229Y-33892650D01*
X6939229Y-33892650D02*
X6958277Y-33902174D01*
X6958277Y-33902174D02*
X6967801Y-33921222D01*
X6967801Y-33921222D02*
X6967801Y-34025984D01*
X6967801Y-33921222D02*
X6977324Y-33902174D01*
X6977324Y-33902174D02*
X6996372Y-33892650D01*
X6996372Y-33892650D02*
X7024943Y-33892650D01*
X7024943Y-33892650D02*
X7043991Y-33902174D01*
X7043991Y-33902174D02*
X7053515Y-33921222D01*
X7053515Y-33921222D02*
X7053515Y-34025984D01*
X7443991Y-33816460D02*
X7272563Y-34073603D01*
X7701134Y-33825984D02*
X7720182Y-33825984D01*
X7720182Y-33825984D02*
X7739229Y-33835508D01*
X7739229Y-33835508D02*
X7748753Y-33845031D01*
X7748753Y-33845031D02*
X7758277Y-33864079D01*
X7758277Y-33864079D02*
X7767801Y-33902174D01*
X7767801Y-33902174D02*
X7767801Y-33949793D01*
X7767801Y-33949793D02*
X7758277Y-33987889D01*
X7758277Y-33987889D02*
X7748753Y-34006936D01*
X7748753Y-34006936D02*
X7739229Y-34016460D01*
X7739229Y-34016460D02*
X7720182Y-34025984D01*
X7720182Y-34025984D02*
X7701134Y-34025984D01*
X7701134Y-34025984D02*
X7682086Y-34016460D01*
X7682086Y-34016460D02*
X7672563Y-34006936D01*
X7672563Y-34006936D02*
X7663039Y-33987889D01*
X7663039Y-33987889D02*
X7653515Y-33949793D01*
X7653515Y-33949793D02*
X7653515Y-33902174D01*
X7653515Y-33902174D02*
X7663039Y-33864079D01*
X7663039Y-33864079D02*
X7672563Y-33845031D01*
X7672563Y-33845031D02*
X7682086Y-33835508D01*
X7682086Y-33835508D02*
X7701134Y-33825984D01*
X7853515Y-34006936D02*
X7863039Y-34016460D01*
X7863039Y-34016460D02*
X7853515Y-34025984D01*
X7853515Y-34025984D02*
X7843991Y-34016460D01*
X7843991Y-34016460D02*
X7853515Y-34006936D01*
X7853515Y-34006936D02*
X7853515Y-34025984D01*
X7986848Y-33825984D02*
X8005896Y-33825984D01*
X8005896Y-33825984D02*
X8024944Y-33835508D01*
X8024944Y-33835508D02*
X8034467Y-33845031D01*
X8034467Y-33845031D02*
X8043991Y-33864079D01*
X8043991Y-33864079D02*
X8053515Y-33902174D01*
X8053515Y-33902174D02*
X8053515Y-33949793D01*
X8053515Y-33949793D02*
X8043991Y-33987889D01*
X8043991Y-33987889D02*
X8034467Y-34006936D01*
X8034467Y-34006936D02*
X8024944Y-34016460D01*
X8024944Y-34016460D02*
X8005896Y-34025984D01*
X8005896Y-34025984D02*
X7986848Y-34025984D01*
X7986848Y-34025984D02*
X7967801Y-34016460D01*
X7967801Y-34016460D02*
X7958277Y-34006936D01*
X7958277Y-34006936D02*
X7948753Y-33987889D01*
X7948753Y-33987889D02*
X7939229Y-33949793D01*
X7939229Y-33949793D02*
X7939229Y-33902174D01*
X7939229Y-33902174D02*
X7948753Y-33864079D01*
X7948753Y-33864079D02*
X7958277Y-33845031D01*
X7958277Y-33845031D02*
X7967801Y-33835508D01*
X7967801Y-33835508D02*
X7986848Y-33825984D01*
X8120182Y-33825984D02*
X8243991Y-33825984D01*
X8243991Y-33825984D02*
X8177325Y-33902174D01*
X8177325Y-33902174D02*
X8205896Y-33902174D01*
X8205896Y-33902174D02*
X8224944Y-33911698D01*
X8224944Y-33911698D02*
X8234467Y-33921222D01*
X8234467Y-33921222D02*
X8243991Y-33940270D01*
X8243991Y-33940270D02*
X8243991Y-33987889D01*
X8243991Y-33987889D02*
X8234467Y-34006936D01*
X8234467Y-34006936D02*
X8224944Y-34016460D01*
X8224944Y-34016460D02*
X8205896Y-34025984D01*
X8205896Y-34025984D02*
X8148753Y-34025984D01*
X8148753Y-34025984D02*
X8129706Y-34016460D01*
X8129706Y-34016460D02*
X8120182Y-34006936D01*
X8310658Y-33825984D02*
X8434468Y-33825984D01*
X8434468Y-33825984D02*
X8367801Y-33902174D01*
X8367801Y-33902174D02*
X8396372Y-33902174D01*
X8396372Y-33902174D02*
X8415420Y-33911698D01*
X8415420Y-33911698D02*
X8424944Y-33921222D01*
X8424944Y-33921222D02*
X8434468Y-33940270D01*
X8434468Y-33940270D02*
X8434468Y-33987889D01*
X8434468Y-33987889D02*
X8424944Y-34006936D01*
X8424944Y-34006936D02*
X8415420Y-34016460D01*
X8415420Y-34016460D02*
X8396372Y-34025984D01*
X8396372Y-34025984D02*
X8339229Y-34025984D01*
X8339229Y-34025984D02*
X8320182Y-34016460D01*
X8320182Y-34016460D02*
X8310658Y-34006936D01*
X8624944Y-34025984D02*
X8510658Y-34025984D01*
X8567801Y-34025984D02*
X8567801Y-33825984D01*
X8567801Y-33825984D02*
X8548753Y-33854555D01*
X8548753Y-33854555D02*
X8529706Y-33873603D01*
X8529706Y-33873603D02*
X8510658Y-33883127D01*
X8701134Y-33825984D02*
X8701134Y-33864079D01*
X8777325Y-33825984D02*
X8777325Y-33864079D01*
X9072563Y-34102174D02*
X9063039Y-34092650D01*
X9063039Y-34092650D02*
X9043991Y-34064079D01*
X9043991Y-34064079D02*
X9034468Y-34045031D01*
X9034468Y-34045031D02*
X9024944Y-34016460D01*
X9024944Y-34016460D02*
X9015420Y-33968841D01*
X9015420Y-33968841D02*
X9015420Y-33930746D01*
X9015420Y-33930746D02*
X9024944Y-33883127D01*
X9024944Y-33883127D02*
X9034468Y-33854555D01*
X9034468Y-33854555D02*
X9043991Y-33835508D01*
X9043991Y-33835508D02*
X9063039Y-33806936D01*
X9063039Y-33806936D02*
X9072563Y-33797412D01*
X9234468Y-33892650D02*
X9234468Y-34025984D01*
X9186849Y-33816460D02*
X9139230Y-33959317D01*
X9139230Y-33959317D02*
X9263039Y-33959317D01*
X9491611Y-34025984D02*
X9491611Y-33825984D01*
X9577325Y-34025984D02*
X9577325Y-33921222D01*
X9577325Y-33921222D02*
X9567801Y-33902174D01*
X9567801Y-33902174D02*
X9548753Y-33892650D01*
X9548753Y-33892650D02*
X9520182Y-33892650D01*
X9520182Y-33892650D02*
X9501134Y-33902174D01*
X9501134Y-33902174D02*
X9491611Y-33911698D01*
X9701134Y-34025984D02*
X9682087Y-34016460D01*
X9682087Y-34016460D02*
X9672563Y-34006936D01*
X9672563Y-34006936D02*
X9663039Y-33987889D01*
X9663039Y-33987889D02*
X9663039Y-33930746D01*
X9663039Y-33930746D02*
X9672563Y-33911698D01*
X9672563Y-33911698D02*
X9682087Y-33902174D01*
X9682087Y-33902174D02*
X9701134Y-33892650D01*
X9701134Y-33892650D02*
X9729706Y-33892650D01*
X9729706Y-33892650D02*
X9748753Y-33902174D01*
X9748753Y-33902174D02*
X9758277Y-33911698D01*
X9758277Y-33911698D02*
X9767801Y-33930746D01*
X9767801Y-33930746D02*
X9767801Y-33987889D01*
X9767801Y-33987889D02*
X9758277Y-34006936D01*
X9758277Y-34006936D02*
X9748753Y-34016460D01*
X9748753Y-34016460D02*
X9729706Y-34025984D01*
X9729706Y-34025984D02*
X9701134Y-34025984D01*
X9882087Y-34025984D02*
X9863039Y-34016460D01*
X9863039Y-34016460D02*
X9853515Y-33997412D01*
X9853515Y-33997412D02*
X9853515Y-33825984D01*
X10034468Y-34016460D02*
X10015420Y-34025984D01*
X10015420Y-34025984D02*
X9977325Y-34025984D01*
X9977325Y-34025984D02*
X9958277Y-34016460D01*
X9958277Y-34016460D02*
X9948753Y-33997412D01*
X9948753Y-33997412D02*
X9948753Y-33921222D01*
X9948753Y-33921222D02*
X9958277Y-33902174D01*
X9958277Y-33902174D02*
X9977325Y-33892650D01*
X9977325Y-33892650D02*
X10015420Y-33892650D01*
X10015420Y-33892650D02*
X10034468Y-33902174D01*
X10034468Y-33902174D02*
X10043992Y-33921222D01*
X10043992Y-33921222D02*
X10043992Y-33940270D01*
X10043992Y-33940270D02*
X9948753Y-33959317D01*
X10120182Y-34016460D02*
X10139230Y-34025984D01*
X10139230Y-34025984D02*
X10177325Y-34025984D01*
X10177325Y-34025984D02*
X10196373Y-34016460D01*
X10196373Y-34016460D02*
X10205896Y-33997412D01*
X10205896Y-33997412D02*
X10205896Y-33987889D01*
X10205896Y-33987889D02*
X10196373Y-33968841D01*
X10196373Y-33968841D02*
X10177325Y-33959317D01*
X10177325Y-33959317D02*
X10148753Y-33959317D01*
X10148753Y-33959317D02*
X10129706Y-33949793D01*
X10129706Y-33949793D02*
X10120182Y-33930746D01*
X10120182Y-33930746D02*
X10120182Y-33921222D01*
X10120182Y-33921222D02*
X10129706Y-33902174D01*
X10129706Y-33902174D02*
X10148753Y-33892650D01*
X10148753Y-33892650D02*
X10177325Y-33892650D01*
X10177325Y-33892650D02*
X10196373Y-33902174D01*
X10272563Y-34102174D02*
X10282087Y-34092650D01*
X10282087Y-34092650D02*
X10301134Y-34064079D01*
X10301134Y-34064079D02*
X10310658Y-34045031D01*
X10310658Y-34045031D02*
X10320182Y-34016460D01*
X10320182Y-34016460D02*
X10329706Y-33968841D01*
X10329706Y-33968841D02*
X10329706Y-33930746D01*
X10329706Y-33930746D02*
X10320182Y-33883127D01*
X10320182Y-33883127D02*
X10310658Y-33854555D01*
X10310658Y-33854555D02*
X10301134Y-33835508D01*
X10301134Y-33835508D02*
X10282087Y-33806936D01*
X10282087Y-33806936D02*
X10272563Y-33797412D01*
D13*
X5422500Y-34273500D02*
X5497500Y-34198500D01*
X5422500Y-34123500D01*
X5347500Y-34198500D01*
X5422500Y-34273500D01*
D11*
X5863039Y-34289984D02*
X5748753Y-34289984D01*
X5805896Y-34289984D02*
X5805896Y-34089984D01*
X5805896Y-34089984D02*
X5786848Y-34118555D01*
X5786848Y-34118555D02*
X5767801Y-34137603D01*
X5767801Y-34137603D02*
X5748753Y-34147127D01*
X5948753Y-34270936D02*
X5958277Y-34280460D01*
X5958277Y-34280460D02*
X5948753Y-34289984D01*
X5948753Y-34289984D02*
X5939229Y-34280460D01*
X5939229Y-34280460D02*
X5948753Y-34270936D01*
X5948753Y-34270936D02*
X5948753Y-34289984D01*
X6139229Y-34089984D02*
X6043991Y-34089984D01*
X6043991Y-34089984D02*
X6034467Y-34185222D01*
X6034467Y-34185222D02*
X6043991Y-34175698D01*
X6043991Y-34175698D02*
X6063039Y-34166174D01*
X6063039Y-34166174D02*
X6110658Y-34166174D01*
X6110658Y-34166174D02*
X6129705Y-34175698D01*
X6129705Y-34175698D02*
X6139229Y-34185222D01*
X6139229Y-34185222D02*
X6148753Y-34204270D01*
X6148753Y-34204270D02*
X6148753Y-34251889D01*
X6148753Y-34251889D02*
X6139229Y-34270936D01*
X6139229Y-34270936D02*
X6129705Y-34280460D01*
X6129705Y-34280460D02*
X6110658Y-34289984D01*
X6110658Y-34289984D02*
X6063039Y-34289984D01*
X6063039Y-34289984D02*
X6043991Y-34280460D01*
X6043991Y-34280460D02*
X6034467Y-34270936D01*
X6272562Y-34089984D02*
X6291610Y-34089984D01*
X6291610Y-34089984D02*
X6310658Y-34099508D01*
X6310658Y-34099508D02*
X6320182Y-34109031D01*
X6320182Y-34109031D02*
X6329705Y-34128079D01*
X6329705Y-34128079D02*
X6339229Y-34166174D01*
X6339229Y-34166174D02*
X6339229Y-34213793D01*
X6339229Y-34213793D02*
X6329705Y-34251889D01*
X6329705Y-34251889D02*
X6320182Y-34270936D01*
X6320182Y-34270936D02*
X6310658Y-34280460D01*
X6310658Y-34280460D02*
X6291610Y-34289984D01*
X6291610Y-34289984D02*
X6272562Y-34289984D01*
X6272562Y-34289984D02*
X6253515Y-34280460D01*
X6253515Y-34280460D02*
X6243991Y-34270936D01*
X6243991Y-34270936D02*
X6234467Y-34251889D01*
X6234467Y-34251889D02*
X6224943Y-34213793D01*
X6224943Y-34213793D02*
X6224943Y-34166174D01*
X6224943Y-34166174D02*
X6234467Y-34128079D01*
X6234467Y-34128079D02*
X6243991Y-34109031D01*
X6243991Y-34109031D02*
X6253515Y-34099508D01*
X6253515Y-34099508D02*
X6272562Y-34089984D01*
X6463039Y-34089984D02*
X6482086Y-34089984D01*
X6482086Y-34089984D02*
X6501134Y-34099508D01*
X6501134Y-34099508D02*
X6510658Y-34109031D01*
X6510658Y-34109031D02*
X6520182Y-34128079D01*
X6520182Y-34128079D02*
X6529705Y-34166174D01*
X6529705Y-34166174D02*
X6529705Y-34213793D01*
X6529705Y-34213793D02*
X6520182Y-34251889D01*
X6520182Y-34251889D02*
X6510658Y-34270936D01*
X6510658Y-34270936D02*
X6501134Y-34280460D01*
X6501134Y-34280460D02*
X6482086Y-34289984D01*
X6482086Y-34289984D02*
X6463039Y-34289984D01*
X6463039Y-34289984D02*
X6443991Y-34280460D01*
X6443991Y-34280460D02*
X6434467Y-34270936D01*
X6434467Y-34270936D02*
X6424943Y-34251889D01*
X6424943Y-34251889D02*
X6415420Y-34213793D01*
X6415420Y-34213793D02*
X6415420Y-34166174D01*
X6415420Y-34166174D02*
X6424943Y-34128079D01*
X6424943Y-34128079D02*
X6434467Y-34109031D01*
X6434467Y-34109031D02*
X6443991Y-34099508D01*
X6443991Y-34099508D02*
X6463039Y-34089984D01*
X6615420Y-34289984D02*
X6615420Y-34156650D01*
X6615420Y-34175698D02*
X6624943Y-34166174D01*
X6624943Y-34166174D02*
X6643991Y-34156650D01*
X6643991Y-34156650D02*
X6672563Y-34156650D01*
X6672563Y-34156650D02*
X6691610Y-34166174D01*
X6691610Y-34166174D02*
X6701134Y-34185222D01*
X6701134Y-34185222D02*
X6701134Y-34289984D01*
X6701134Y-34185222D02*
X6710658Y-34166174D01*
X6710658Y-34166174D02*
X6729705Y-34156650D01*
X6729705Y-34156650D02*
X6758277Y-34156650D01*
X6758277Y-34156650D02*
X6777324Y-34166174D01*
X6777324Y-34166174D02*
X6786848Y-34185222D01*
X6786848Y-34185222D02*
X6786848Y-34289984D01*
X6882086Y-34289984D02*
X6882086Y-34156650D01*
X6882086Y-34175698D02*
X6891610Y-34166174D01*
X6891610Y-34166174D02*
X6910658Y-34156650D01*
X6910658Y-34156650D02*
X6939229Y-34156650D01*
X6939229Y-34156650D02*
X6958277Y-34166174D01*
X6958277Y-34166174D02*
X6967801Y-34185222D01*
X6967801Y-34185222D02*
X6967801Y-34289984D01*
X6967801Y-34185222D02*
X6977324Y-34166174D01*
X6977324Y-34166174D02*
X6996372Y-34156650D01*
X6996372Y-34156650D02*
X7024943Y-34156650D01*
X7024943Y-34156650D02*
X7043991Y-34166174D01*
X7043991Y-34166174D02*
X7053515Y-34185222D01*
X7053515Y-34185222D02*
X7053515Y-34289984D01*
X7443991Y-34080460D02*
X7272563Y-34337603D01*
X7701134Y-34089984D02*
X7720182Y-34089984D01*
X7720182Y-34089984D02*
X7739229Y-34099508D01*
X7739229Y-34099508D02*
X7748753Y-34109031D01*
X7748753Y-34109031D02*
X7758277Y-34128079D01*
X7758277Y-34128079D02*
X7767801Y-34166174D01*
X7767801Y-34166174D02*
X7767801Y-34213793D01*
X7767801Y-34213793D02*
X7758277Y-34251889D01*
X7758277Y-34251889D02*
X7748753Y-34270936D01*
X7748753Y-34270936D02*
X7739229Y-34280460D01*
X7739229Y-34280460D02*
X7720182Y-34289984D01*
X7720182Y-34289984D02*
X7701134Y-34289984D01*
X7701134Y-34289984D02*
X7682086Y-34280460D01*
X7682086Y-34280460D02*
X7672563Y-34270936D01*
X7672563Y-34270936D02*
X7663039Y-34251889D01*
X7663039Y-34251889D02*
X7653515Y-34213793D01*
X7653515Y-34213793D02*
X7653515Y-34166174D01*
X7653515Y-34166174D02*
X7663039Y-34128079D01*
X7663039Y-34128079D02*
X7672563Y-34109031D01*
X7672563Y-34109031D02*
X7682086Y-34099508D01*
X7682086Y-34099508D02*
X7701134Y-34089984D01*
X7853515Y-34270936D02*
X7863039Y-34280460D01*
X7863039Y-34280460D02*
X7853515Y-34289984D01*
X7853515Y-34289984D02*
X7843991Y-34280460D01*
X7843991Y-34280460D02*
X7853515Y-34270936D01*
X7853515Y-34270936D02*
X7853515Y-34289984D01*
X7986848Y-34089984D02*
X8005896Y-34089984D01*
X8005896Y-34089984D02*
X8024944Y-34099508D01*
X8024944Y-34099508D02*
X8034467Y-34109031D01*
X8034467Y-34109031D02*
X8043991Y-34128079D01*
X8043991Y-34128079D02*
X8053515Y-34166174D01*
X8053515Y-34166174D02*
X8053515Y-34213793D01*
X8053515Y-34213793D02*
X8043991Y-34251889D01*
X8043991Y-34251889D02*
X8034467Y-34270936D01*
X8034467Y-34270936D02*
X8024944Y-34280460D01*
X8024944Y-34280460D02*
X8005896Y-34289984D01*
X8005896Y-34289984D02*
X7986848Y-34289984D01*
X7986848Y-34289984D02*
X7967801Y-34280460D01*
X7967801Y-34280460D02*
X7958277Y-34270936D01*
X7958277Y-34270936D02*
X7948753Y-34251889D01*
X7948753Y-34251889D02*
X7939229Y-34213793D01*
X7939229Y-34213793D02*
X7939229Y-34166174D01*
X7939229Y-34166174D02*
X7948753Y-34128079D01*
X7948753Y-34128079D02*
X7958277Y-34109031D01*
X7958277Y-34109031D02*
X7967801Y-34099508D01*
X7967801Y-34099508D02*
X7986848Y-34089984D01*
X8234467Y-34089984D02*
X8139229Y-34089984D01*
X8139229Y-34089984D02*
X8129706Y-34185222D01*
X8129706Y-34185222D02*
X8139229Y-34175698D01*
X8139229Y-34175698D02*
X8158277Y-34166174D01*
X8158277Y-34166174D02*
X8205896Y-34166174D01*
X8205896Y-34166174D02*
X8224944Y-34175698D01*
X8224944Y-34175698D02*
X8234467Y-34185222D01*
X8234467Y-34185222D02*
X8243991Y-34204270D01*
X8243991Y-34204270D02*
X8243991Y-34251889D01*
X8243991Y-34251889D02*
X8234467Y-34270936D01*
X8234467Y-34270936D02*
X8224944Y-34280460D01*
X8224944Y-34280460D02*
X8205896Y-34289984D01*
X8205896Y-34289984D02*
X8158277Y-34289984D01*
X8158277Y-34289984D02*
X8139229Y-34280460D01*
X8139229Y-34280460D02*
X8129706Y-34270936D01*
X8339229Y-34289984D02*
X8377325Y-34289984D01*
X8377325Y-34289984D02*
X8396372Y-34280460D01*
X8396372Y-34280460D02*
X8405896Y-34270936D01*
X8405896Y-34270936D02*
X8424944Y-34242365D01*
X8424944Y-34242365D02*
X8434468Y-34204270D01*
X8434468Y-34204270D02*
X8434468Y-34128079D01*
X8434468Y-34128079D02*
X8424944Y-34109031D01*
X8424944Y-34109031D02*
X8415420Y-34099508D01*
X8415420Y-34099508D02*
X8396372Y-34089984D01*
X8396372Y-34089984D02*
X8358277Y-34089984D01*
X8358277Y-34089984D02*
X8339229Y-34099508D01*
X8339229Y-34099508D02*
X8329706Y-34109031D01*
X8329706Y-34109031D02*
X8320182Y-34128079D01*
X8320182Y-34128079D02*
X8320182Y-34175698D01*
X8320182Y-34175698D02*
X8329706Y-34194746D01*
X8329706Y-34194746D02*
X8339229Y-34204270D01*
X8339229Y-34204270D02*
X8358277Y-34213793D01*
X8358277Y-34213793D02*
X8396372Y-34213793D01*
X8396372Y-34213793D02*
X8415420Y-34204270D01*
X8415420Y-34204270D02*
X8424944Y-34194746D01*
X8424944Y-34194746D02*
X8434468Y-34175698D01*
X8624944Y-34289984D02*
X8510658Y-34289984D01*
X8567801Y-34289984D02*
X8567801Y-34089984D01*
X8567801Y-34089984D02*
X8548753Y-34118555D01*
X8548753Y-34118555D02*
X8529706Y-34137603D01*
X8529706Y-34137603D02*
X8510658Y-34147127D01*
X8701134Y-34089984D02*
X8701134Y-34128079D01*
X8777325Y-34089984D02*
X8777325Y-34128079D01*
X9072563Y-34366174D02*
X9063039Y-34356650D01*
X9063039Y-34356650D02*
X9043991Y-34328079D01*
X9043991Y-34328079D02*
X9034468Y-34309031D01*
X9034468Y-34309031D02*
X9024944Y-34280460D01*
X9024944Y-34280460D02*
X9015420Y-34232841D01*
X9015420Y-34232841D02*
X9015420Y-34194746D01*
X9015420Y-34194746D02*
X9024944Y-34147127D01*
X9024944Y-34147127D02*
X9034468Y-34118555D01*
X9034468Y-34118555D02*
X9043991Y-34099508D01*
X9043991Y-34099508D02*
X9063039Y-34070936D01*
X9063039Y-34070936D02*
X9072563Y-34061412D01*
X9253515Y-34289984D02*
X9139230Y-34289984D01*
X9196372Y-34289984D02*
X9196372Y-34089984D01*
X9196372Y-34089984D02*
X9177325Y-34118555D01*
X9177325Y-34118555D02*
X9158277Y-34137603D01*
X9158277Y-34137603D02*
X9139230Y-34147127D01*
X9491611Y-34289984D02*
X9491611Y-34089984D01*
X9577325Y-34289984D02*
X9577325Y-34185222D01*
X9577325Y-34185222D02*
X9567801Y-34166174D01*
X9567801Y-34166174D02*
X9548753Y-34156650D01*
X9548753Y-34156650D02*
X9520182Y-34156650D01*
X9520182Y-34156650D02*
X9501134Y-34166174D01*
X9501134Y-34166174D02*
X9491611Y-34175698D01*
X9701134Y-34289984D02*
X9682087Y-34280460D01*
X9682087Y-34280460D02*
X9672563Y-34270936D01*
X9672563Y-34270936D02*
X9663039Y-34251889D01*
X9663039Y-34251889D02*
X9663039Y-34194746D01*
X9663039Y-34194746D02*
X9672563Y-34175698D01*
X9672563Y-34175698D02*
X9682087Y-34166174D01*
X9682087Y-34166174D02*
X9701134Y-34156650D01*
X9701134Y-34156650D02*
X9729706Y-34156650D01*
X9729706Y-34156650D02*
X9748753Y-34166174D01*
X9748753Y-34166174D02*
X9758277Y-34175698D01*
X9758277Y-34175698D02*
X9767801Y-34194746D01*
X9767801Y-34194746D02*
X9767801Y-34251889D01*
X9767801Y-34251889D02*
X9758277Y-34270936D01*
X9758277Y-34270936D02*
X9748753Y-34280460D01*
X9748753Y-34280460D02*
X9729706Y-34289984D01*
X9729706Y-34289984D02*
X9701134Y-34289984D01*
X9882087Y-34289984D02*
X9863039Y-34280460D01*
X9863039Y-34280460D02*
X9853515Y-34261412D01*
X9853515Y-34261412D02*
X9853515Y-34089984D01*
X10034468Y-34280460D02*
X10015420Y-34289984D01*
X10015420Y-34289984D02*
X9977325Y-34289984D01*
X9977325Y-34289984D02*
X9958277Y-34280460D01*
X9958277Y-34280460D02*
X9948753Y-34261412D01*
X9948753Y-34261412D02*
X9948753Y-34185222D01*
X9948753Y-34185222D02*
X9958277Y-34166174D01*
X9958277Y-34166174D02*
X9977325Y-34156650D01*
X9977325Y-34156650D02*
X10015420Y-34156650D01*
X10015420Y-34156650D02*
X10034468Y-34166174D01*
X10034468Y-34166174D02*
X10043992Y-34185222D01*
X10043992Y-34185222D02*
X10043992Y-34204270D01*
X10043992Y-34204270D02*
X9948753Y-34223317D01*
X10110658Y-34366174D02*
X10120182Y-34356650D01*
X10120182Y-34356650D02*
X10139230Y-34328079D01*
X10139230Y-34328079D02*
X10148753Y-34309031D01*
X10148753Y-34309031D02*
X10158277Y-34280460D01*
X10158277Y-34280460D02*
X10167801Y-34232841D01*
X10167801Y-34232841D02*
X10167801Y-34194746D01*
X10167801Y-34194746D02*
X10158277Y-34147127D01*
X10158277Y-34147127D02*
X10148753Y-34118555D01*
X10148753Y-34118555D02*
X10139230Y-34099508D01*
X10139230Y-34099508D02*
X10120182Y-34070936D01*
X10120182Y-34070936D02*
X10110658Y-34061412D01*
D14*
X5327500Y-34383500D02*
X5497500Y-34553500D01*
X5497500Y-34383500D02*
X5327500Y-34553500D01*
X5497500Y-34468500D02*
G75*
G02*
X5327500Y-34468500I-85000J0D01*
G01*
X5327500Y-34468500D02*
G75*
G02*
X5497500Y-34468500I85000J0D01*
G01*
D11*
X5863039Y-34559984D02*
X5748753Y-34559984D01*
X5805896Y-34559984D02*
X5805896Y-34359984D01*
X5805896Y-34359984D02*
X5786848Y-34388555D01*
X5786848Y-34388555D02*
X5767801Y-34407603D01*
X5767801Y-34407603D02*
X5748753Y-34417127D01*
X5948753Y-34540936D02*
X5958277Y-34550460D01*
X5958277Y-34550460D02*
X5948753Y-34559984D01*
X5948753Y-34559984D02*
X5939229Y-34550460D01*
X5939229Y-34550460D02*
X5948753Y-34540936D01*
X5948753Y-34540936D02*
X5948753Y-34559984D01*
X6024943Y-34359984D02*
X6158277Y-34359984D01*
X6158277Y-34359984D02*
X6072562Y-34559984D01*
X6272562Y-34359984D02*
X6291610Y-34359984D01*
X6291610Y-34359984D02*
X6310658Y-34369508D01*
X6310658Y-34369508D02*
X6320182Y-34379031D01*
X6320182Y-34379031D02*
X6329705Y-34398079D01*
X6329705Y-34398079D02*
X6339229Y-34436174D01*
X6339229Y-34436174D02*
X6339229Y-34483793D01*
X6339229Y-34483793D02*
X6329705Y-34521889D01*
X6329705Y-34521889D02*
X6320182Y-34540936D01*
X6320182Y-34540936D02*
X6310658Y-34550460D01*
X6310658Y-34550460D02*
X6291610Y-34559984D01*
X6291610Y-34559984D02*
X6272562Y-34559984D01*
X6272562Y-34559984D02*
X6253515Y-34550460D01*
X6253515Y-34550460D02*
X6243991Y-34540936D01*
X6243991Y-34540936D02*
X6234467Y-34521889D01*
X6234467Y-34521889D02*
X6224943Y-34483793D01*
X6224943Y-34483793D02*
X6224943Y-34436174D01*
X6224943Y-34436174D02*
X6234467Y-34398079D01*
X6234467Y-34398079D02*
X6243991Y-34379031D01*
X6243991Y-34379031D02*
X6253515Y-34369508D01*
X6253515Y-34369508D02*
X6272562Y-34359984D01*
X6463039Y-34359984D02*
X6482086Y-34359984D01*
X6482086Y-34359984D02*
X6501134Y-34369508D01*
X6501134Y-34369508D02*
X6510658Y-34379031D01*
X6510658Y-34379031D02*
X6520182Y-34398079D01*
X6520182Y-34398079D02*
X6529705Y-34436174D01*
X6529705Y-34436174D02*
X6529705Y-34483793D01*
X6529705Y-34483793D02*
X6520182Y-34521889D01*
X6520182Y-34521889D02*
X6510658Y-34540936D01*
X6510658Y-34540936D02*
X6501134Y-34550460D01*
X6501134Y-34550460D02*
X6482086Y-34559984D01*
X6482086Y-34559984D02*
X6463039Y-34559984D01*
X6463039Y-34559984D02*
X6443991Y-34550460D01*
X6443991Y-34550460D02*
X6434467Y-34540936D01*
X6434467Y-34540936D02*
X6424943Y-34521889D01*
X6424943Y-34521889D02*
X6415420Y-34483793D01*
X6415420Y-34483793D02*
X6415420Y-34436174D01*
X6415420Y-34436174D02*
X6424943Y-34398079D01*
X6424943Y-34398079D02*
X6434467Y-34379031D01*
X6434467Y-34379031D02*
X6443991Y-34369508D01*
X6443991Y-34369508D02*
X6463039Y-34359984D01*
X6615420Y-34559984D02*
X6615420Y-34426650D01*
X6615420Y-34445698D02*
X6624943Y-34436174D01*
X6624943Y-34436174D02*
X6643991Y-34426650D01*
X6643991Y-34426650D02*
X6672563Y-34426650D01*
X6672563Y-34426650D02*
X6691610Y-34436174D01*
X6691610Y-34436174D02*
X6701134Y-34455222D01*
X6701134Y-34455222D02*
X6701134Y-34559984D01*
X6701134Y-34455222D02*
X6710658Y-34436174D01*
X6710658Y-34436174D02*
X6729705Y-34426650D01*
X6729705Y-34426650D02*
X6758277Y-34426650D01*
X6758277Y-34426650D02*
X6777324Y-34436174D01*
X6777324Y-34436174D02*
X6786848Y-34455222D01*
X6786848Y-34455222D02*
X6786848Y-34559984D01*
X6882086Y-34559984D02*
X6882086Y-34426650D01*
X6882086Y-34445698D02*
X6891610Y-34436174D01*
X6891610Y-34436174D02*
X6910658Y-34426650D01*
X6910658Y-34426650D02*
X6939229Y-34426650D01*
X6939229Y-34426650D02*
X6958277Y-34436174D01*
X6958277Y-34436174D02*
X6967801Y-34455222D01*
X6967801Y-34455222D02*
X6967801Y-34559984D01*
X6967801Y-34455222D02*
X6977324Y-34436174D01*
X6977324Y-34436174D02*
X6996372Y-34426650D01*
X6996372Y-34426650D02*
X7024943Y-34426650D01*
X7024943Y-34426650D02*
X7043991Y-34436174D01*
X7043991Y-34436174D02*
X7053515Y-34455222D01*
X7053515Y-34455222D02*
X7053515Y-34559984D01*
X7443991Y-34350460D02*
X7272563Y-34607603D01*
X7701134Y-34359984D02*
X7720182Y-34359984D01*
X7720182Y-34359984D02*
X7739229Y-34369508D01*
X7739229Y-34369508D02*
X7748753Y-34379031D01*
X7748753Y-34379031D02*
X7758277Y-34398079D01*
X7758277Y-34398079D02*
X7767801Y-34436174D01*
X7767801Y-34436174D02*
X7767801Y-34483793D01*
X7767801Y-34483793D02*
X7758277Y-34521889D01*
X7758277Y-34521889D02*
X7748753Y-34540936D01*
X7748753Y-34540936D02*
X7739229Y-34550460D01*
X7739229Y-34550460D02*
X7720182Y-34559984D01*
X7720182Y-34559984D02*
X7701134Y-34559984D01*
X7701134Y-34559984D02*
X7682086Y-34550460D01*
X7682086Y-34550460D02*
X7672563Y-34540936D01*
X7672563Y-34540936D02*
X7663039Y-34521889D01*
X7663039Y-34521889D02*
X7653515Y-34483793D01*
X7653515Y-34483793D02*
X7653515Y-34436174D01*
X7653515Y-34436174D02*
X7663039Y-34398079D01*
X7663039Y-34398079D02*
X7672563Y-34379031D01*
X7672563Y-34379031D02*
X7682086Y-34369508D01*
X7682086Y-34369508D02*
X7701134Y-34359984D01*
X7853515Y-34540936D02*
X7863039Y-34550460D01*
X7863039Y-34550460D02*
X7853515Y-34559984D01*
X7853515Y-34559984D02*
X7843991Y-34550460D01*
X7843991Y-34550460D02*
X7853515Y-34540936D01*
X7853515Y-34540936D02*
X7853515Y-34559984D01*
X7986848Y-34359984D02*
X8005896Y-34359984D01*
X8005896Y-34359984D02*
X8024944Y-34369508D01*
X8024944Y-34369508D02*
X8034467Y-34379031D01*
X8034467Y-34379031D02*
X8043991Y-34398079D01*
X8043991Y-34398079D02*
X8053515Y-34436174D01*
X8053515Y-34436174D02*
X8053515Y-34483793D01*
X8053515Y-34483793D02*
X8043991Y-34521889D01*
X8043991Y-34521889D02*
X8034467Y-34540936D01*
X8034467Y-34540936D02*
X8024944Y-34550460D01*
X8024944Y-34550460D02*
X8005896Y-34559984D01*
X8005896Y-34559984D02*
X7986848Y-34559984D01*
X7986848Y-34559984D02*
X7967801Y-34550460D01*
X7967801Y-34550460D02*
X7958277Y-34540936D01*
X7958277Y-34540936D02*
X7948753Y-34521889D01*
X7948753Y-34521889D02*
X7939229Y-34483793D01*
X7939229Y-34483793D02*
X7939229Y-34436174D01*
X7939229Y-34436174D02*
X7948753Y-34398079D01*
X7948753Y-34398079D02*
X7958277Y-34379031D01*
X7958277Y-34379031D02*
X7967801Y-34369508D01*
X7967801Y-34369508D02*
X7986848Y-34359984D01*
X8224944Y-34359984D02*
X8186848Y-34359984D01*
X8186848Y-34359984D02*
X8167801Y-34369508D01*
X8167801Y-34369508D02*
X8158277Y-34379031D01*
X8158277Y-34379031D02*
X8139229Y-34407603D01*
X8139229Y-34407603D02*
X8129706Y-34445698D01*
X8129706Y-34445698D02*
X8129706Y-34521889D01*
X8129706Y-34521889D02*
X8139229Y-34540936D01*
X8139229Y-34540936D02*
X8148753Y-34550460D01*
X8148753Y-34550460D02*
X8167801Y-34559984D01*
X8167801Y-34559984D02*
X8205896Y-34559984D01*
X8205896Y-34559984D02*
X8224944Y-34550460D01*
X8224944Y-34550460D02*
X8234467Y-34540936D01*
X8234467Y-34540936D02*
X8243991Y-34521889D01*
X8243991Y-34521889D02*
X8243991Y-34474270D01*
X8243991Y-34474270D02*
X8234467Y-34455222D01*
X8234467Y-34455222D02*
X8224944Y-34445698D01*
X8224944Y-34445698D02*
X8205896Y-34436174D01*
X8205896Y-34436174D02*
X8167801Y-34436174D01*
X8167801Y-34436174D02*
X8148753Y-34445698D01*
X8148753Y-34445698D02*
X8139229Y-34455222D01*
X8139229Y-34455222D02*
X8129706Y-34474270D01*
X8415420Y-34359984D02*
X8377325Y-34359984D01*
X8377325Y-34359984D02*
X8358277Y-34369508D01*
X8358277Y-34369508D02*
X8348753Y-34379031D01*
X8348753Y-34379031D02*
X8329706Y-34407603D01*
X8329706Y-34407603D02*
X8320182Y-34445698D01*
X8320182Y-34445698D02*
X8320182Y-34521889D01*
X8320182Y-34521889D02*
X8329706Y-34540936D01*
X8329706Y-34540936D02*
X8339229Y-34550460D01*
X8339229Y-34550460D02*
X8358277Y-34559984D01*
X8358277Y-34559984D02*
X8396372Y-34559984D01*
X8396372Y-34559984D02*
X8415420Y-34550460D01*
X8415420Y-34550460D02*
X8424944Y-34540936D01*
X8424944Y-34540936D02*
X8434468Y-34521889D01*
X8434468Y-34521889D02*
X8434468Y-34474270D01*
X8434468Y-34474270D02*
X8424944Y-34455222D01*
X8424944Y-34455222D02*
X8415420Y-34445698D01*
X8415420Y-34445698D02*
X8396372Y-34436174D01*
X8396372Y-34436174D02*
X8358277Y-34436174D01*
X8358277Y-34436174D02*
X8339229Y-34445698D01*
X8339229Y-34445698D02*
X8329706Y-34455222D01*
X8329706Y-34455222D02*
X8320182Y-34474270D01*
X8529706Y-34559984D02*
X8567801Y-34559984D01*
X8567801Y-34559984D02*
X8586849Y-34550460D01*
X8586849Y-34550460D02*
X8596372Y-34540936D01*
X8596372Y-34540936D02*
X8615420Y-34512365D01*
X8615420Y-34512365D02*
X8624944Y-34474270D01*
X8624944Y-34474270D02*
X8624944Y-34398079D01*
X8624944Y-34398079D02*
X8615420Y-34379031D01*
X8615420Y-34379031D02*
X8605896Y-34369508D01*
X8605896Y-34369508D02*
X8586849Y-34359984D01*
X8586849Y-34359984D02*
X8548753Y-34359984D01*
X8548753Y-34359984D02*
X8529706Y-34369508D01*
X8529706Y-34369508D02*
X8520182Y-34379031D01*
X8520182Y-34379031D02*
X8510658Y-34398079D01*
X8510658Y-34398079D02*
X8510658Y-34445698D01*
X8510658Y-34445698D02*
X8520182Y-34464746D01*
X8520182Y-34464746D02*
X8529706Y-34474270D01*
X8529706Y-34474270D02*
X8548753Y-34483793D01*
X8548753Y-34483793D02*
X8586849Y-34483793D01*
X8586849Y-34483793D02*
X8605896Y-34474270D01*
X8605896Y-34474270D02*
X8615420Y-34464746D01*
X8615420Y-34464746D02*
X8624944Y-34445698D01*
X8701134Y-34359984D02*
X8701134Y-34398079D01*
X8777325Y-34359984D02*
X8777325Y-34398079D01*
X9072563Y-34636174D02*
X9063039Y-34626650D01*
X9063039Y-34626650D02*
X9043991Y-34598079D01*
X9043991Y-34598079D02*
X9034468Y-34579031D01*
X9034468Y-34579031D02*
X9024944Y-34550460D01*
X9024944Y-34550460D02*
X9015420Y-34502841D01*
X9015420Y-34502841D02*
X9015420Y-34464746D01*
X9015420Y-34464746D02*
X9024944Y-34417127D01*
X9024944Y-34417127D02*
X9034468Y-34388555D01*
X9034468Y-34388555D02*
X9043991Y-34369508D01*
X9043991Y-34369508D02*
X9063039Y-34340936D01*
X9063039Y-34340936D02*
X9072563Y-34331412D01*
X9234468Y-34426650D02*
X9234468Y-34559984D01*
X9186849Y-34350460D02*
X9139230Y-34493317D01*
X9139230Y-34493317D02*
X9263039Y-34493317D01*
X9491611Y-34559984D02*
X9491611Y-34359984D01*
X9577325Y-34559984D02*
X9577325Y-34455222D01*
X9577325Y-34455222D02*
X9567801Y-34436174D01*
X9567801Y-34436174D02*
X9548753Y-34426650D01*
X9548753Y-34426650D02*
X9520182Y-34426650D01*
X9520182Y-34426650D02*
X9501134Y-34436174D01*
X9501134Y-34436174D02*
X9491611Y-34445698D01*
X9701134Y-34559984D02*
X9682087Y-34550460D01*
X9682087Y-34550460D02*
X9672563Y-34540936D01*
X9672563Y-34540936D02*
X9663039Y-34521889D01*
X9663039Y-34521889D02*
X9663039Y-34464746D01*
X9663039Y-34464746D02*
X9672563Y-34445698D01*
X9672563Y-34445698D02*
X9682087Y-34436174D01*
X9682087Y-34436174D02*
X9701134Y-34426650D01*
X9701134Y-34426650D02*
X9729706Y-34426650D01*
X9729706Y-34426650D02*
X9748753Y-34436174D01*
X9748753Y-34436174D02*
X9758277Y-34445698D01*
X9758277Y-34445698D02*
X9767801Y-34464746D01*
X9767801Y-34464746D02*
X9767801Y-34521889D01*
X9767801Y-34521889D02*
X9758277Y-34540936D01*
X9758277Y-34540936D02*
X9748753Y-34550460D01*
X9748753Y-34550460D02*
X9729706Y-34559984D01*
X9729706Y-34559984D02*
X9701134Y-34559984D01*
X9882087Y-34559984D02*
X9863039Y-34550460D01*
X9863039Y-34550460D02*
X9853515Y-34531412D01*
X9853515Y-34531412D02*
X9853515Y-34359984D01*
X10034468Y-34550460D02*
X10015420Y-34559984D01*
X10015420Y-34559984D02*
X9977325Y-34559984D01*
X9977325Y-34559984D02*
X9958277Y-34550460D01*
X9958277Y-34550460D02*
X9948753Y-34531412D01*
X9948753Y-34531412D02*
X9948753Y-34455222D01*
X9948753Y-34455222D02*
X9958277Y-34436174D01*
X9958277Y-34436174D02*
X9977325Y-34426650D01*
X9977325Y-34426650D02*
X10015420Y-34426650D01*
X10015420Y-34426650D02*
X10034468Y-34436174D01*
X10034468Y-34436174D02*
X10043992Y-34455222D01*
X10043992Y-34455222D02*
X10043992Y-34474270D01*
X10043992Y-34474270D02*
X9948753Y-34493317D01*
X10120182Y-34550460D02*
X10139230Y-34559984D01*
X10139230Y-34559984D02*
X10177325Y-34559984D01*
X10177325Y-34559984D02*
X10196373Y-34550460D01*
X10196373Y-34550460D02*
X10205896Y-34531412D01*
X10205896Y-34531412D02*
X10205896Y-34521889D01*
X10205896Y-34521889D02*
X10196373Y-34502841D01*
X10196373Y-34502841D02*
X10177325Y-34493317D01*
X10177325Y-34493317D02*
X10148753Y-34493317D01*
X10148753Y-34493317D02*
X10129706Y-34483793D01*
X10129706Y-34483793D02*
X10120182Y-34464746D01*
X10120182Y-34464746D02*
X10120182Y-34455222D01*
X10120182Y-34455222D02*
X10129706Y-34436174D01*
X10129706Y-34436174D02*
X10148753Y-34426650D01*
X10148753Y-34426650D02*
X10177325Y-34426650D01*
X10177325Y-34426650D02*
X10196373Y-34436174D01*
X10272563Y-34636174D02*
X10282087Y-34626650D01*
X10282087Y-34626650D02*
X10301134Y-34598079D01*
X10301134Y-34598079D02*
X10310658Y-34579031D01*
X10310658Y-34579031D02*
X10320182Y-34550460D01*
X10320182Y-34550460D02*
X10329706Y-34502841D01*
X10329706Y-34502841D02*
X10329706Y-34464746D01*
X10329706Y-34464746D02*
X10320182Y-34417127D01*
X10320182Y-34417127D02*
X10310658Y-34388555D01*
X10310658Y-34388555D02*
X10301134Y-34369508D01*
X10301134Y-34369508D02*
X10282087Y-34340936D01*
X10282087Y-34340936D02*
X10272563Y-34331412D01*
M02*
