%TF.GenerationSoftware,KiCad,Pcbnew,(6.0.8-1)-1*%
%TF.CreationDate,2022-11-01T09:33:08-04:00*%
%TF.ProjectId,Untitled,556e7469-746c-4656-942e-6b696361645f,rev?*%
%TF.SameCoordinates,Original*%
%TF.FileFunction,Drillmap*%
%TF.FilePolarity,Positive*%
%FSLAX45Y45*%
G04 Gerber Fmt 4.5, Leading zero omitted, Abs format (unit mm)*
G04 Created by KiCad (PCBNEW (6.0.8-1)-1) date 2022-11-01 09:33:08*
%MOMM*%
%LPD*%
G01*
G04 APERTURE LIST*
%ADD10C,0.100000*%
%ADD11C,0.200000*%
%ADD12C,0.040000*%
%ADD13C,0.088900*%
%ADD14C,0.110000*%
%ADD15C,0.150000*%
G04 APERTURE END LIST*
D10*
X7520000Y-11840000D02*
G75*
G03*
X7520000Y-11840000I-160000J0D01*
G01*
X7520000Y-5640000D02*
G75*
G03*
X7520000Y-5640000I-160000J0D01*
G01*
X4572000Y-3291000D02*
X17764000Y-3291000D01*
X17764000Y-3291000D02*
X17764000Y-13090000D01*
X17764000Y-13090000D02*
X4572000Y-13090000D01*
X4572000Y-13090000D02*
X4572000Y-3291000D01*
X7520000Y-6880000D02*
G75*
G03*
X7520000Y-6880000I-160000J0D01*
G01*
X7520000Y-8120000D02*
G75*
G03*
X7520000Y-8120000I-160000J0D01*
G01*
X7520000Y-10600000D02*
G75*
G03*
X7520000Y-10600000I-160000J0D01*
G01*
X7520000Y-4400000D02*
G75*
G03*
X7520000Y-4400000I-160000J0D01*
G01*
X7520000Y-9360000D02*
G75*
G03*
X7520000Y-9360000I-160000J0D01*
G01*
D11*
D12*
X6960000Y-4143751D02*
X7000000Y-4183751D01*
X7000000Y-4143751D02*
X6960000Y-4183751D01*
X7080000Y-5260000D02*
X7120000Y-5300000D01*
X7120000Y-5260000D02*
X7080000Y-5300000D01*
X7080000Y-7060000D02*
X7120000Y-7100000D01*
X7120000Y-7060000D02*
X7080000Y-7100000D01*
X7120000Y-5890154D02*
X7160000Y-5930154D01*
X7160000Y-5890154D02*
X7120000Y-5930154D01*
X7180000Y-3620000D02*
X7220000Y-3660000D01*
X7220000Y-3620000D02*
X7180000Y-3660000D01*
X7180000Y-4734202D02*
X7220000Y-4774202D01*
X7220000Y-4734202D02*
X7180000Y-4774202D01*
X7371263Y-6428000D02*
X7411263Y-6468000D01*
X7411263Y-6428000D02*
X7371263Y-6468000D01*
X7390000Y-7588000D02*
X7430000Y-7628000D01*
X7430000Y-7588000D02*
X7390000Y-7628000D01*
X10280000Y-10900000D02*
X10320000Y-10940000D01*
X10320000Y-10900000D02*
X10280000Y-10940000D01*
X10291000Y-6149000D02*
X10331000Y-6189000D01*
X10331000Y-6149000D02*
X10291000Y-6189000D01*
X10509000Y-6031000D02*
X10549000Y-6071000D01*
X10549000Y-6031000D02*
X10509000Y-6071000D01*
X10529000Y-6251000D02*
X10569000Y-6291000D01*
X10569000Y-6251000D02*
X10529000Y-6291000D01*
X10538000Y-10802000D02*
X10578000Y-10842000D01*
X10578000Y-10802000D02*
X10538000Y-10842000D01*
X10558000Y-11022000D02*
X10598000Y-11062000D01*
X10598000Y-11022000D02*
X10558000Y-11062000D01*
X15060000Y-10920000D02*
X15100000Y-10960000D01*
X15100000Y-10920000D02*
X15060000Y-10960000D01*
X15069000Y-6131000D02*
X15109000Y-6171000D01*
X15109000Y-6131000D02*
X15069000Y-6171000D01*
X15280000Y-6040000D02*
X15320000Y-6080000D01*
X15320000Y-6040000D02*
X15280000Y-6080000D01*
X15280000Y-6240000D02*
X15320000Y-6280000D01*
X15320000Y-6240000D02*
X15280000Y-6280000D01*
X15309000Y-10811000D02*
X15349000Y-10851000D01*
X15349000Y-10811000D02*
X15309000Y-10851000D01*
X15309000Y-11011000D02*
X15349000Y-11051000D01*
X15349000Y-11011000D02*
X15309000Y-11051000D01*
D13*
X5964450Y-8140000D02*
G75*
G03*
X5964450Y-8140000I-44450J0D01*
G01*
X5964450Y-8394000D02*
G75*
G03*
X5964450Y-8394000I-44450J0D01*
G01*
X5964450Y-8648000D02*
G75*
G03*
X5964450Y-8648000I-44450J0D01*
G01*
X5969460Y-3604750D02*
G75*
G03*
X5969460Y-3604750I-44450J0D01*
G01*
X5969460Y-3858750D02*
G75*
G03*
X5969460Y-3858750I-44450J0D01*
G01*
X5969460Y-4112750D02*
G75*
G03*
X5969460Y-4112750I-44450J0D01*
G01*
X5969460Y-4521250D02*
G75*
G03*
X5969460Y-4521250I-44450J0D01*
G01*
X5969460Y-4775250D02*
G75*
G03*
X5969460Y-4775250I-44450J0D01*
G01*
X5969460Y-5029250D02*
G75*
G03*
X5969460Y-5029250I-44450J0D01*
G01*
X5969460Y-5430750D02*
G75*
G03*
X5969460Y-5430750I-44450J0D01*
G01*
X5969460Y-5684750D02*
G75*
G03*
X5969460Y-5684750I-44450J0D01*
G01*
X5969460Y-5938750D02*
G75*
G03*
X5969460Y-5938750I-44450J0D01*
G01*
X5969460Y-6321250D02*
G75*
G03*
X5969460Y-6321250I-44450J0D01*
G01*
X5969460Y-6575250D02*
G75*
G03*
X5969460Y-6575250I-44450J0D01*
G01*
X5969460Y-6829250D02*
G75*
G03*
X5969460Y-6829250I-44450J0D01*
G01*
X5969460Y-7230750D02*
G75*
G03*
X5969460Y-7230750I-44450J0D01*
G01*
X5969460Y-7484750D02*
G75*
G03*
X5969460Y-7484750I-44450J0D01*
G01*
X5969460Y-7738750D02*
G75*
G03*
X5969460Y-7738750I-44450J0D01*
G01*
X5969460Y-9050750D02*
G75*
G03*
X5969460Y-9050750I-44450J0D01*
G01*
X5969460Y-9304750D02*
G75*
G03*
X5969460Y-9304750I-44450J0D01*
G01*
X5969460Y-9558750D02*
G75*
G03*
X5969460Y-9558750I-44450J0D01*
G01*
X5969460Y-9961250D02*
G75*
G03*
X5969460Y-9961250I-44450J0D01*
G01*
X5969460Y-10215250D02*
G75*
G03*
X5969460Y-10215250I-44450J0D01*
G01*
X5969460Y-10469250D02*
G75*
G03*
X5969460Y-10469250I-44450J0D01*
G01*
D14*
X5420000Y-12305000D02*
X5420000Y-12415000D01*
X5365000Y-12360000D02*
X5475000Y-12360000D01*
D15*
X4970534Y-11910533D02*
X4970534Y-11804466D01*
X4864467Y-11804466D01*
X4864467Y-11910533D01*
X4970534Y-11910533D01*
X4970534Y-12915533D02*
X4970534Y-12809466D01*
X4864467Y-12809466D01*
X4864467Y-12915533D01*
X4970534Y-12915533D01*
X5975533Y-11910533D02*
X5975533Y-11804466D01*
X5869466Y-11804466D01*
X5869466Y-11910533D01*
X5975533Y-11910533D01*
X5975533Y-12915533D02*
X5975533Y-12809466D01*
X5869466Y-12809466D01*
X5869466Y-12915533D01*
X5975533Y-12915533D01*
D11*
X4824619Y-13405476D02*
X4824619Y-13205476D01*
X4872238Y-13205476D01*
X4900810Y-13215000D01*
X4919857Y-13234048D01*
X4929381Y-13253095D01*
X4938905Y-13291190D01*
X4938905Y-13319762D01*
X4929381Y-13357857D01*
X4919857Y-13376905D01*
X4900810Y-13395952D01*
X4872238Y-13405476D01*
X4824619Y-13405476D01*
X5024619Y-13405476D02*
X5024619Y-13272143D01*
X5024619Y-13310238D02*
X5034143Y-13291190D01*
X5043667Y-13281667D01*
X5062714Y-13272143D01*
X5081762Y-13272143D01*
X5148429Y-13405476D02*
X5148429Y-13272143D01*
X5148429Y-13205476D02*
X5138905Y-13215000D01*
X5148429Y-13224524D01*
X5157952Y-13215000D01*
X5148429Y-13205476D01*
X5148429Y-13224524D01*
X5272238Y-13405476D02*
X5253190Y-13395952D01*
X5243667Y-13376905D01*
X5243667Y-13205476D01*
X5377000Y-13405476D02*
X5357952Y-13395952D01*
X5348429Y-13376905D01*
X5348429Y-13205476D01*
X5605571Y-13405476D02*
X5605571Y-13205476D01*
X5672238Y-13348333D01*
X5738905Y-13205476D01*
X5738905Y-13405476D01*
X5919857Y-13405476D02*
X5919857Y-13300714D01*
X5910333Y-13281667D01*
X5891286Y-13272143D01*
X5853190Y-13272143D01*
X5834143Y-13281667D01*
X5919857Y-13395952D02*
X5900809Y-13405476D01*
X5853190Y-13405476D01*
X5834143Y-13395952D01*
X5824619Y-13376905D01*
X5824619Y-13357857D01*
X5834143Y-13338809D01*
X5853190Y-13329286D01*
X5900809Y-13329286D01*
X5919857Y-13319762D01*
X6015095Y-13272143D02*
X6015095Y-13472143D01*
X6015095Y-13281667D02*
X6034143Y-13272143D01*
X6072238Y-13272143D01*
X6091286Y-13281667D01*
X6100809Y-13291190D01*
X6110333Y-13310238D01*
X6110333Y-13367381D01*
X6100809Y-13386428D01*
X6091286Y-13395952D01*
X6072238Y-13405476D01*
X6034143Y-13405476D01*
X6015095Y-13395952D01*
X6196048Y-13386428D02*
X6205571Y-13395952D01*
X6196048Y-13405476D01*
X6186524Y-13395952D01*
X6196048Y-13386428D01*
X6196048Y-13405476D01*
X6196048Y-13281667D02*
X6205571Y-13291190D01*
X6196048Y-13300714D01*
X6186524Y-13291190D01*
X6196048Y-13281667D01*
X6196048Y-13300714D01*
D12*
X4527000Y-13715000D02*
X4567000Y-13755000D01*
X4567000Y-13715000D02*
X4527000Y-13755000D01*
D11*
X4862714Y-13625476D02*
X4881762Y-13625476D01*
X4900810Y-13635000D01*
X4910333Y-13644524D01*
X4919857Y-13663571D01*
X4929381Y-13701667D01*
X4929381Y-13749286D01*
X4919857Y-13787381D01*
X4910333Y-13806428D01*
X4900810Y-13815952D01*
X4881762Y-13825476D01*
X4862714Y-13825476D01*
X4843667Y-13815952D01*
X4834143Y-13806428D01*
X4824619Y-13787381D01*
X4815095Y-13749286D01*
X4815095Y-13701667D01*
X4824619Y-13663571D01*
X4834143Y-13644524D01*
X4843667Y-13635000D01*
X4862714Y-13625476D01*
X5015095Y-13806428D02*
X5024619Y-13815952D01*
X5015095Y-13825476D01*
X5005571Y-13815952D01*
X5015095Y-13806428D01*
X5015095Y-13825476D01*
X5196048Y-13692143D02*
X5196048Y-13825476D01*
X5148429Y-13615952D02*
X5100810Y-13758809D01*
X5224619Y-13758809D01*
X5338905Y-13625476D02*
X5357952Y-13625476D01*
X5377000Y-13635000D01*
X5386524Y-13644524D01*
X5396048Y-13663571D01*
X5405571Y-13701667D01*
X5405571Y-13749286D01*
X5396048Y-13787381D01*
X5386524Y-13806428D01*
X5377000Y-13815952D01*
X5357952Y-13825476D01*
X5338905Y-13825476D01*
X5319857Y-13815952D01*
X5310333Y-13806428D01*
X5300810Y-13787381D01*
X5291286Y-13749286D01*
X5291286Y-13701667D01*
X5300810Y-13663571D01*
X5310333Y-13644524D01*
X5319857Y-13635000D01*
X5338905Y-13625476D01*
X5529381Y-13625476D02*
X5548429Y-13625476D01*
X5567476Y-13635000D01*
X5577000Y-13644524D01*
X5586524Y-13663571D01*
X5596048Y-13701667D01*
X5596048Y-13749286D01*
X5586524Y-13787381D01*
X5577000Y-13806428D01*
X5567476Y-13815952D01*
X5548429Y-13825476D01*
X5529381Y-13825476D01*
X5510333Y-13815952D01*
X5500810Y-13806428D01*
X5491286Y-13787381D01*
X5481762Y-13749286D01*
X5481762Y-13701667D01*
X5491286Y-13663571D01*
X5500810Y-13644524D01*
X5510333Y-13635000D01*
X5529381Y-13625476D01*
X5681762Y-13825476D02*
X5681762Y-13692143D01*
X5681762Y-13711190D02*
X5691286Y-13701667D01*
X5710333Y-13692143D01*
X5738905Y-13692143D01*
X5757952Y-13701667D01*
X5767476Y-13720714D01*
X5767476Y-13825476D01*
X5767476Y-13720714D02*
X5777000Y-13701667D01*
X5796048Y-13692143D01*
X5824619Y-13692143D01*
X5843667Y-13701667D01*
X5853190Y-13720714D01*
X5853190Y-13825476D01*
X5948428Y-13825476D02*
X5948428Y-13692143D01*
X5948428Y-13711190D02*
X5957952Y-13701667D01*
X5977000Y-13692143D01*
X6005571Y-13692143D01*
X6024619Y-13701667D01*
X6034143Y-13720714D01*
X6034143Y-13825476D01*
X6034143Y-13720714D02*
X6043667Y-13701667D01*
X6062714Y-13692143D01*
X6091286Y-13692143D01*
X6110333Y-13701667D01*
X6119857Y-13720714D01*
X6119857Y-13825476D01*
X6510333Y-13615952D02*
X6338905Y-13873095D01*
X6767476Y-13625476D02*
X6786524Y-13625476D01*
X6805571Y-13635000D01*
X6815095Y-13644524D01*
X6824619Y-13663571D01*
X6834143Y-13701667D01*
X6834143Y-13749286D01*
X6824619Y-13787381D01*
X6815095Y-13806428D01*
X6805571Y-13815952D01*
X6786524Y-13825476D01*
X6767476Y-13825476D01*
X6748428Y-13815952D01*
X6738905Y-13806428D01*
X6729381Y-13787381D01*
X6719857Y-13749286D01*
X6719857Y-13701667D01*
X6729381Y-13663571D01*
X6738905Y-13644524D01*
X6748428Y-13635000D01*
X6767476Y-13625476D01*
X6919857Y-13806428D02*
X6929381Y-13815952D01*
X6919857Y-13825476D01*
X6910333Y-13815952D01*
X6919857Y-13806428D01*
X6919857Y-13825476D01*
X7053190Y-13625476D02*
X7072238Y-13625476D01*
X7091286Y-13635000D01*
X7100809Y-13644524D01*
X7110333Y-13663571D01*
X7119857Y-13701667D01*
X7119857Y-13749286D01*
X7110333Y-13787381D01*
X7100809Y-13806428D01*
X7091286Y-13815952D01*
X7072238Y-13825476D01*
X7053190Y-13825476D01*
X7034143Y-13815952D01*
X7024619Y-13806428D01*
X7015095Y-13787381D01*
X7005571Y-13749286D01*
X7005571Y-13701667D01*
X7015095Y-13663571D01*
X7024619Y-13644524D01*
X7034143Y-13635000D01*
X7053190Y-13625476D01*
X7310333Y-13825476D02*
X7196048Y-13825476D01*
X7253190Y-13825476D02*
X7253190Y-13625476D01*
X7234143Y-13654048D01*
X7215095Y-13673095D01*
X7196048Y-13682619D01*
X7491286Y-13625476D02*
X7396048Y-13625476D01*
X7386524Y-13720714D01*
X7396048Y-13711190D01*
X7415095Y-13701667D01*
X7462714Y-13701667D01*
X7481762Y-13711190D01*
X7491286Y-13720714D01*
X7500809Y-13739762D01*
X7500809Y-13787381D01*
X7491286Y-13806428D01*
X7481762Y-13815952D01*
X7462714Y-13825476D01*
X7415095Y-13825476D01*
X7396048Y-13815952D01*
X7386524Y-13806428D01*
X7567476Y-13625476D02*
X7700809Y-13625476D01*
X7615095Y-13825476D01*
X7767476Y-13625476D02*
X7767476Y-13663571D01*
X7843667Y-13625476D02*
X7843667Y-13663571D01*
X8138905Y-13901667D02*
X8129381Y-13892143D01*
X8110333Y-13863571D01*
X8100809Y-13844524D01*
X8091286Y-13815952D01*
X8081762Y-13768333D01*
X8081762Y-13730238D01*
X8091286Y-13682619D01*
X8100809Y-13654048D01*
X8110333Y-13635000D01*
X8129381Y-13606428D01*
X8138905Y-13596905D01*
X8205571Y-13644524D02*
X8215095Y-13635000D01*
X8234143Y-13625476D01*
X8281762Y-13625476D01*
X8300809Y-13635000D01*
X8310333Y-13644524D01*
X8319857Y-13663571D01*
X8319857Y-13682619D01*
X8310333Y-13711190D01*
X8196048Y-13825476D01*
X8319857Y-13825476D01*
X8443667Y-13625476D02*
X8462714Y-13625476D01*
X8481762Y-13635000D01*
X8491286Y-13644524D01*
X8500810Y-13663571D01*
X8510333Y-13701667D01*
X8510333Y-13749286D01*
X8500810Y-13787381D01*
X8491286Y-13806428D01*
X8481762Y-13815952D01*
X8462714Y-13825476D01*
X8443667Y-13825476D01*
X8424619Y-13815952D01*
X8415095Y-13806428D01*
X8405571Y-13787381D01*
X8396048Y-13749286D01*
X8396048Y-13701667D01*
X8405571Y-13663571D01*
X8415095Y-13644524D01*
X8424619Y-13635000D01*
X8443667Y-13625476D01*
X8748429Y-13825476D02*
X8748429Y-13625476D01*
X8834143Y-13825476D02*
X8834143Y-13720714D01*
X8824619Y-13701667D01*
X8805571Y-13692143D01*
X8777000Y-13692143D01*
X8757952Y-13701667D01*
X8748429Y-13711190D01*
X8957952Y-13825476D02*
X8938905Y-13815952D01*
X8929381Y-13806428D01*
X8919857Y-13787381D01*
X8919857Y-13730238D01*
X8929381Y-13711190D01*
X8938905Y-13701667D01*
X8957952Y-13692143D01*
X8986524Y-13692143D01*
X9005571Y-13701667D01*
X9015095Y-13711190D01*
X9024619Y-13730238D01*
X9024619Y-13787381D01*
X9015095Y-13806428D01*
X9005571Y-13815952D01*
X8986524Y-13825476D01*
X8957952Y-13825476D01*
X9138905Y-13825476D02*
X9119857Y-13815952D01*
X9110333Y-13796905D01*
X9110333Y-13625476D01*
X9291286Y-13815952D02*
X9272238Y-13825476D01*
X9234143Y-13825476D01*
X9215095Y-13815952D01*
X9205571Y-13796905D01*
X9205571Y-13720714D01*
X9215095Y-13701667D01*
X9234143Y-13692143D01*
X9272238Y-13692143D01*
X9291286Y-13701667D01*
X9300810Y-13720714D01*
X9300810Y-13739762D01*
X9205571Y-13758809D01*
X9377000Y-13815952D02*
X9396048Y-13825476D01*
X9434143Y-13825476D01*
X9453190Y-13815952D01*
X9462714Y-13796905D01*
X9462714Y-13787381D01*
X9453190Y-13768333D01*
X9434143Y-13758809D01*
X9405571Y-13758809D01*
X9386524Y-13749286D01*
X9377000Y-13730238D01*
X9377000Y-13720714D01*
X9386524Y-13701667D01*
X9405571Y-13692143D01*
X9434143Y-13692143D01*
X9453190Y-13701667D01*
X9529381Y-13901667D02*
X9538905Y-13892143D01*
X9557952Y-13863571D01*
X9567476Y-13844524D01*
X9577000Y-13815952D01*
X9586524Y-13768333D01*
X9586524Y-13730238D01*
X9577000Y-13682619D01*
X9567476Y-13654048D01*
X9557952Y-13635000D01*
X9538905Y-13606428D01*
X9529381Y-13596905D01*
D13*
X4567000Y-13999000D02*
G75*
G03*
X4567000Y-13999000I-44450J0D01*
G01*
D11*
X4862714Y-13889476D02*
X4881762Y-13889476D01*
X4900810Y-13899000D01*
X4910333Y-13908524D01*
X4919857Y-13927571D01*
X4929381Y-13965667D01*
X4929381Y-14013286D01*
X4919857Y-14051381D01*
X4910333Y-14070428D01*
X4900810Y-14079952D01*
X4881762Y-14089476D01*
X4862714Y-14089476D01*
X4843667Y-14079952D01*
X4834143Y-14070428D01*
X4824619Y-14051381D01*
X4815095Y-14013286D01*
X4815095Y-13965667D01*
X4824619Y-13927571D01*
X4834143Y-13908524D01*
X4843667Y-13899000D01*
X4862714Y-13889476D01*
X5015095Y-14070428D02*
X5024619Y-14079952D01*
X5015095Y-14089476D01*
X5005571Y-14079952D01*
X5015095Y-14070428D01*
X5015095Y-14089476D01*
X5138905Y-13975190D02*
X5119857Y-13965667D01*
X5110333Y-13956143D01*
X5100810Y-13937095D01*
X5100810Y-13927571D01*
X5110333Y-13908524D01*
X5119857Y-13899000D01*
X5138905Y-13889476D01*
X5177000Y-13889476D01*
X5196048Y-13899000D01*
X5205571Y-13908524D01*
X5215095Y-13927571D01*
X5215095Y-13937095D01*
X5205571Y-13956143D01*
X5196048Y-13965667D01*
X5177000Y-13975190D01*
X5138905Y-13975190D01*
X5119857Y-13984714D01*
X5110333Y-13994238D01*
X5100810Y-14013286D01*
X5100810Y-14051381D01*
X5110333Y-14070428D01*
X5119857Y-14079952D01*
X5138905Y-14089476D01*
X5177000Y-14089476D01*
X5196048Y-14079952D01*
X5205571Y-14070428D01*
X5215095Y-14051381D01*
X5215095Y-14013286D01*
X5205571Y-13994238D01*
X5196048Y-13984714D01*
X5177000Y-13975190D01*
X5329381Y-13975190D02*
X5310333Y-13965667D01*
X5300810Y-13956143D01*
X5291286Y-13937095D01*
X5291286Y-13927571D01*
X5300810Y-13908524D01*
X5310333Y-13899000D01*
X5329381Y-13889476D01*
X5367476Y-13889476D01*
X5386524Y-13899000D01*
X5396048Y-13908524D01*
X5405571Y-13927571D01*
X5405571Y-13937095D01*
X5396048Y-13956143D01*
X5386524Y-13965667D01*
X5367476Y-13975190D01*
X5329381Y-13975190D01*
X5310333Y-13984714D01*
X5300810Y-13994238D01*
X5291286Y-14013286D01*
X5291286Y-14051381D01*
X5300810Y-14070428D01*
X5310333Y-14079952D01*
X5329381Y-14089476D01*
X5367476Y-14089476D01*
X5386524Y-14079952D01*
X5396048Y-14070428D01*
X5405571Y-14051381D01*
X5405571Y-14013286D01*
X5396048Y-13994238D01*
X5386524Y-13984714D01*
X5367476Y-13975190D01*
X5500810Y-14089476D02*
X5538905Y-14089476D01*
X5557952Y-14079952D01*
X5567476Y-14070428D01*
X5586524Y-14041857D01*
X5596048Y-14003762D01*
X5596048Y-13927571D01*
X5586524Y-13908524D01*
X5577000Y-13899000D01*
X5557952Y-13889476D01*
X5519857Y-13889476D01*
X5500810Y-13899000D01*
X5491286Y-13908524D01*
X5481762Y-13927571D01*
X5481762Y-13975190D01*
X5491286Y-13994238D01*
X5500810Y-14003762D01*
X5519857Y-14013286D01*
X5557952Y-14013286D01*
X5577000Y-14003762D01*
X5586524Y-13994238D01*
X5596048Y-13975190D01*
X5681762Y-14089476D02*
X5681762Y-13956143D01*
X5681762Y-13975190D02*
X5691286Y-13965667D01*
X5710333Y-13956143D01*
X5738905Y-13956143D01*
X5757952Y-13965667D01*
X5767476Y-13984714D01*
X5767476Y-14089476D01*
X5767476Y-13984714D02*
X5777000Y-13965667D01*
X5796048Y-13956143D01*
X5824619Y-13956143D01*
X5843667Y-13965667D01*
X5853190Y-13984714D01*
X5853190Y-14089476D01*
X5948428Y-14089476D02*
X5948428Y-13956143D01*
X5948428Y-13975190D02*
X5957952Y-13965667D01*
X5977000Y-13956143D01*
X6005571Y-13956143D01*
X6024619Y-13965667D01*
X6034143Y-13984714D01*
X6034143Y-14089476D01*
X6034143Y-13984714D02*
X6043667Y-13965667D01*
X6062714Y-13956143D01*
X6091286Y-13956143D01*
X6110333Y-13965667D01*
X6119857Y-13984714D01*
X6119857Y-14089476D01*
X6510333Y-13879952D02*
X6338905Y-14137095D01*
X6767476Y-13889476D02*
X6786524Y-13889476D01*
X6805571Y-13899000D01*
X6815095Y-13908524D01*
X6824619Y-13927571D01*
X6834143Y-13965667D01*
X6834143Y-14013286D01*
X6824619Y-14051381D01*
X6815095Y-14070428D01*
X6805571Y-14079952D01*
X6786524Y-14089476D01*
X6767476Y-14089476D01*
X6748428Y-14079952D01*
X6738905Y-14070428D01*
X6729381Y-14051381D01*
X6719857Y-14013286D01*
X6719857Y-13965667D01*
X6729381Y-13927571D01*
X6738905Y-13908524D01*
X6748428Y-13899000D01*
X6767476Y-13889476D01*
X6919857Y-14070428D02*
X6929381Y-14079952D01*
X6919857Y-14089476D01*
X6910333Y-14079952D01*
X6919857Y-14070428D01*
X6919857Y-14089476D01*
X7053190Y-13889476D02*
X7072238Y-13889476D01*
X7091286Y-13899000D01*
X7100809Y-13908524D01*
X7110333Y-13927571D01*
X7119857Y-13965667D01*
X7119857Y-14013286D01*
X7110333Y-14051381D01*
X7100809Y-14070428D01*
X7091286Y-14079952D01*
X7072238Y-14089476D01*
X7053190Y-14089476D01*
X7034143Y-14079952D01*
X7024619Y-14070428D01*
X7015095Y-14051381D01*
X7005571Y-14013286D01*
X7005571Y-13965667D01*
X7015095Y-13927571D01*
X7024619Y-13908524D01*
X7034143Y-13899000D01*
X7053190Y-13889476D01*
X7186524Y-13889476D02*
X7310333Y-13889476D01*
X7243667Y-13965667D01*
X7272238Y-13965667D01*
X7291286Y-13975190D01*
X7300809Y-13984714D01*
X7310333Y-14003762D01*
X7310333Y-14051381D01*
X7300809Y-14070428D01*
X7291286Y-14079952D01*
X7272238Y-14089476D01*
X7215095Y-14089476D01*
X7196048Y-14079952D01*
X7186524Y-14070428D01*
X7491286Y-13889476D02*
X7396048Y-13889476D01*
X7386524Y-13984714D01*
X7396048Y-13975190D01*
X7415095Y-13965667D01*
X7462714Y-13965667D01*
X7481762Y-13975190D01*
X7491286Y-13984714D01*
X7500809Y-14003762D01*
X7500809Y-14051381D01*
X7491286Y-14070428D01*
X7481762Y-14079952D01*
X7462714Y-14089476D01*
X7415095Y-14089476D01*
X7396048Y-14079952D01*
X7386524Y-14070428D01*
X7624619Y-13889476D02*
X7643667Y-13889476D01*
X7662714Y-13899000D01*
X7672238Y-13908524D01*
X7681762Y-13927571D01*
X7691286Y-13965667D01*
X7691286Y-14013286D01*
X7681762Y-14051381D01*
X7672238Y-14070428D01*
X7662714Y-14079952D01*
X7643667Y-14089476D01*
X7624619Y-14089476D01*
X7605571Y-14079952D01*
X7596048Y-14070428D01*
X7586524Y-14051381D01*
X7577000Y-14013286D01*
X7577000Y-13965667D01*
X7586524Y-13927571D01*
X7596048Y-13908524D01*
X7605571Y-13899000D01*
X7624619Y-13889476D01*
X7767476Y-13889476D02*
X7767476Y-13927571D01*
X7843667Y-13889476D02*
X7843667Y-13927571D01*
X8138905Y-14165667D02*
X8129381Y-14156143D01*
X8110333Y-14127571D01*
X8100809Y-14108524D01*
X8091286Y-14079952D01*
X8081762Y-14032333D01*
X8081762Y-13994238D01*
X8091286Y-13946619D01*
X8100809Y-13918048D01*
X8110333Y-13899000D01*
X8129381Y-13870428D01*
X8138905Y-13860905D01*
X8205571Y-13908524D02*
X8215095Y-13899000D01*
X8234143Y-13889476D01*
X8281762Y-13889476D01*
X8300809Y-13899000D01*
X8310333Y-13908524D01*
X8319857Y-13927571D01*
X8319857Y-13946619D01*
X8310333Y-13975190D01*
X8196048Y-14089476D01*
X8319857Y-14089476D01*
X8491286Y-13956143D02*
X8491286Y-14089476D01*
X8443667Y-13879952D02*
X8396048Y-14022809D01*
X8519857Y-14022809D01*
X8748429Y-14089476D02*
X8748429Y-13889476D01*
X8834143Y-14089476D02*
X8834143Y-13984714D01*
X8824619Y-13965667D01*
X8805571Y-13956143D01*
X8777000Y-13956143D01*
X8757952Y-13965667D01*
X8748429Y-13975190D01*
X8957952Y-14089476D02*
X8938905Y-14079952D01*
X8929381Y-14070428D01*
X8919857Y-14051381D01*
X8919857Y-13994238D01*
X8929381Y-13975190D01*
X8938905Y-13965667D01*
X8957952Y-13956143D01*
X8986524Y-13956143D01*
X9005571Y-13965667D01*
X9015095Y-13975190D01*
X9024619Y-13994238D01*
X9024619Y-14051381D01*
X9015095Y-14070428D01*
X9005571Y-14079952D01*
X8986524Y-14089476D01*
X8957952Y-14089476D01*
X9138905Y-14089476D02*
X9119857Y-14079952D01*
X9110333Y-14060905D01*
X9110333Y-13889476D01*
X9291286Y-14079952D02*
X9272238Y-14089476D01*
X9234143Y-14089476D01*
X9215095Y-14079952D01*
X9205571Y-14060905D01*
X9205571Y-13984714D01*
X9215095Y-13965667D01*
X9234143Y-13956143D01*
X9272238Y-13956143D01*
X9291286Y-13965667D01*
X9300810Y-13984714D01*
X9300810Y-14003762D01*
X9205571Y-14022809D01*
X9377000Y-14079952D02*
X9396048Y-14089476D01*
X9434143Y-14089476D01*
X9453190Y-14079952D01*
X9462714Y-14060905D01*
X9462714Y-14051381D01*
X9453190Y-14032333D01*
X9434143Y-14022809D01*
X9405571Y-14022809D01*
X9386524Y-14013286D01*
X9377000Y-13994238D01*
X9377000Y-13984714D01*
X9386524Y-13965667D01*
X9405571Y-13956143D01*
X9434143Y-13956143D01*
X9453190Y-13965667D01*
X9529381Y-14165667D02*
X9538905Y-14156143D01*
X9557952Y-14127571D01*
X9567476Y-14108524D01*
X9577000Y-14079952D01*
X9586524Y-14032333D01*
X9586524Y-13994238D01*
X9577000Y-13946619D01*
X9567476Y-13918048D01*
X9557952Y-13899000D01*
X9538905Y-13870428D01*
X9529381Y-13860905D01*
D14*
X4512000Y-14208000D02*
X4512000Y-14318000D01*
X4457000Y-14263000D02*
X4567000Y-14263000D01*
D11*
X4929381Y-14353476D02*
X4815095Y-14353476D01*
X4872238Y-14353476D02*
X4872238Y-14153476D01*
X4853190Y-14182048D01*
X4834143Y-14201095D01*
X4815095Y-14210619D01*
X5015095Y-14334428D02*
X5024619Y-14343952D01*
X5015095Y-14353476D01*
X5005571Y-14343952D01*
X5015095Y-14334428D01*
X5015095Y-14353476D01*
X5215095Y-14353476D02*
X5100810Y-14353476D01*
X5157952Y-14353476D02*
X5157952Y-14153476D01*
X5138905Y-14182048D01*
X5119857Y-14201095D01*
X5100810Y-14210619D01*
X5338905Y-14153476D02*
X5357952Y-14153476D01*
X5377000Y-14163000D01*
X5386524Y-14172524D01*
X5396048Y-14191571D01*
X5405571Y-14229667D01*
X5405571Y-14277286D01*
X5396048Y-14315381D01*
X5386524Y-14334428D01*
X5377000Y-14343952D01*
X5357952Y-14353476D01*
X5338905Y-14353476D01*
X5319857Y-14343952D01*
X5310333Y-14334428D01*
X5300810Y-14315381D01*
X5291286Y-14277286D01*
X5291286Y-14229667D01*
X5300810Y-14191571D01*
X5310333Y-14172524D01*
X5319857Y-14163000D01*
X5338905Y-14153476D01*
X5529381Y-14153476D02*
X5548429Y-14153476D01*
X5567476Y-14163000D01*
X5577000Y-14172524D01*
X5586524Y-14191571D01*
X5596048Y-14229667D01*
X5596048Y-14277286D01*
X5586524Y-14315381D01*
X5577000Y-14334428D01*
X5567476Y-14343952D01*
X5548429Y-14353476D01*
X5529381Y-14353476D01*
X5510333Y-14343952D01*
X5500810Y-14334428D01*
X5491286Y-14315381D01*
X5481762Y-14277286D01*
X5481762Y-14229667D01*
X5491286Y-14191571D01*
X5500810Y-14172524D01*
X5510333Y-14163000D01*
X5529381Y-14153476D01*
X5681762Y-14353476D02*
X5681762Y-14220143D01*
X5681762Y-14239190D02*
X5691286Y-14229667D01*
X5710333Y-14220143D01*
X5738905Y-14220143D01*
X5757952Y-14229667D01*
X5767476Y-14248714D01*
X5767476Y-14353476D01*
X5767476Y-14248714D02*
X5777000Y-14229667D01*
X5796048Y-14220143D01*
X5824619Y-14220143D01*
X5843667Y-14229667D01*
X5853190Y-14248714D01*
X5853190Y-14353476D01*
X5948428Y-14353476D02*
X5948428Y-14220143D01*
X5948428Y-14239190D02*
X5957952Y-14229667D01*
X5977000Y-14220143D01*
X6005571Y-14220143D01*
X6024619Y-14229667D01*
X6034143Y-14248714D01*
X6034143Y-14353476D01*
X6034143Y-14248714D02*
X6043667Y-14229667D01*
X6062714Y-14220143D01*
X6091286Y-14220143D01*
X6110333Y-14229667D01*
X6119857Y-14248714D01*
X6119857Y-14353476D01*
X6510333Y-14143952D02*
X6338905Y-14401095D01*
X6767476Y-14153476D02*
X6786524Y-14153476D01*
X6805571Y-14163000D01*
X6815095Y-14172524D01*
X6824619Y-14191571D01*
X6834143Y-14229667D01*
X6834143Y-14277286D01*
X6824619Y-14315381D01*
X6815095Y-14334428D01*
X6805571Y-14343952D01*
X6786524Y-14353476D01*
X6767476Y-14353476D01*
X6748428Y-14343952D01*
X6738905Y-14334428D01*
X6729381Y-14315381D01*
X6719857Y-14277286D01*
X6719857Y-14229667D01*
X6729381Y-14191571D01*
X6738905Y-14172524D01*
X6748428Y-14163000D01*
X6767476Y-14153476D01*
X6919857Y-14334428D02*
X6929381Y-14343952D01*
X6919857Y-14353476D01*
X6910333Y-14343952D01*
X6919857Y-14334428D01*
X6919857Y-14353476D01*
X7053190Y-14153476D02*
X7072238Y-14153476D01*
X7091286Y-14163000D01*
X7100809Y-14172524D01*
X7110333Y-14191571D01*
X7119857Y-14229667D01*
X7119857Y-14277286D01*
X7110333Y-14315381D01*
X7100809Y-14334428D01*
X7091286Y-14343952D01*
X7072238Y-14353476D01*
X7053190Y-14353476D01*
X7034143Y-14343952D01*
X7024619Y-14334428D01*
X7015095Y-14315381D01*
X7005571Y-14277286D01*
X7005571Y-14229667D01*
X7015095Y-14191571D01*
X7024619Y-14172524D01*
X7034143Y-14163000D01*
X7053190Y-14153476D01*
X7291286Y-14220143D02*
X7291286Y-14353476D01*
X7243667Y-14143952D02*
X7196048Y-14286809D01*
X7319857Y-14286809D01*
X7377000Y-14153476D02*
X7500809Y-14153476D01*
X7434143Y-14229667D01*
X7462714Y-14229667D01*
X7481762Y-14239190D01*
X7491286Y-14248714D01*
X7500809Y-14267762D01*
X7500809Y-14315381D01*
X7491286Y-14334428D01*
X7481762Y-14343952D01*
X7462714Y-14353476D01*
X7405571Y-14353476D01*
X7386524Y-14343952D01*
X7377000Y-14334428D01*
X7567476Y-14153476D02*
X7691286Y-14153476D01*
X7624619Y-14229667D01*
X7653190Y-14229667D01*
X7672238Y-14239190D01*
X7681762Y-14248714D01*
X7691286Y-14267762D01*
X7691286Y-14315381D01*
X7681762Y-14334428D01*
X7672238Y-14343952D01*
X7653190Y-14353476D01*
X7596048Y-14353476D01*
X7577000Y-14343952D01*
X7567476Y-14334428D01*
X7767476Y-14153476D02*
X7767476Y-14191571D01*
X7843667Y-14153476D02*
X7843667Y-14191571D01*
X8138905Y-14429667D02*
X8129381Y-14420143D01*
X8110333Y-14391571D01*
X8100809Y-14372524D01*
X8091286Y-14343952D01*
X8081762Y-14296333D01*
X8081762Y-14258238D01*
X8091286Y-14210619D01*
X8100809Y-14182048D01*
X8110333Y-14163000D01*
X8129381Y-14134428D01*
X8138905Y-14124905D01*
X8319857Y-14353476D02*
X8205571Y-14353476D01*
X8262714Y-14353476D02*
X8262714Y-14153476D01*
X8243667Y-14182048D01*
X8224619Y-14201095D01*
X8205571Y-14210619D01*
X8557952Y-14353476D02*
X8557952Y-14153476D01*
X8643667Y-14353476D02*
X8643667Y-14248714D01*
X8634143Y-14229667D01*
X8615095Y-14220143D01*
X8586524Y-14220143D01*
X8567476Y-14229667D01*
X8557952Y-14239190D01*
X8767476Y-14353476D02*
X8748429Y-14343952D01*
X8738905Y-14334428D01*
X8729381Y-14315381D01*
X8729381Y-14258238D01*
X8738905Y-14239190D01*
X8748429Y-14229667D01*
X8767476Y-14220143D01*
X8796048Y-14220143D01*
X8815095Y-14229667D01*
X8824619Y-14239190D01*
X8834143Y-14258238D01*
X8834143Y-14315381D01*
X8824619Y-14334428D01*
X8815095Y-14343952D01*
X8796048Y-14353476D01*
X8767476Y-14353476D01*
X8948429Y-14353476D02*
X8929381Y-14343952D01*
X8919857Y-14324905D01*
X8919857Y-14153476D01*
X9100810Y-14343952D02*
X9081762Y-14353476D01*
X9043667Y-14353476D01*
X9024619Y-14343952D01*
X9015095Y-14324905D01*
X9015095Y-14248714D01*
X9024619Y-14229667D01*
X9043667Y-14220143D01*
X9081762Y-14220143D01*
X9100810Y-14229667D01*
X9110333Y-14248714D01*
X9110333Y-14267762D01*
X9015095Y-14286809D01*
X9177000Y-14429667D02*
X9186524Y-14420143D01*
X9205571Y-14391571D01*
X9215095Y-14372524D01*
X9224619Y-14343952D01*
X9234143Y-14296333D01*
X9234143Y-14258238D01*
X9224619Y-14210619D01*
X9215095Y-14182048D01*
X9205571Y-14163000D01*
X9186524Y-14134428D01*
X9177000Y-14124905D01*
D15*
X4545034Y-14580033D02*
X4545034Y-14473966D01*
X4438967Y-14473966D01*
X4438967Y-14580033D01*
X4545034Y-14580033D01*
D11*
X4929381Y-14617476D02*
X4815095Y-14617476D01*
X4872238Y-14617476D02*
X4872238Y-14417476D01*
X4853190Y-14446048D01*
X4834143Y-14465095D01*
X4815095Y-14474619D01*
X5015095Y-14598428D02*
X5024619Y-14607952D01*
X5015095Y-14617476D01*
X5005571Y-14607952D01*
X5015095Y-14598428D01*
X5015095Y-14617476D01*
X5205571Y-14417476D02*
X5110333Y-14417476D01*
X5100810Y-14512714D01*
X5110333Y-14503190D01*
X5129381Y-14493667D01*
X5177000Y-14493667D01*
X5196048Y-14503190D01*
X5205571Y-14512714D01*
X5215095Y-14531762D01*
X5215095Y-14579381D01*
X5205571Y-14598428D01*
X5196048Y-14607952D01*
X5177000Y-14617476D01*
X5129381Y-14617476D01*
X5110333Y-14607952D01*
X5100810Y-14598428D01*
X5338905Y-14417476D02*
X5357952Y-14417476D01*
X5377000Y-14427000D01*
X5386524Y-14436524D01*
X5396048Y-14455571D01*
X5405571Y-14493667D01*
X5405571Y-14541286D01*
X5396048Y-14579381D01*
X5386524Y-14598428D01*
X5377000Y-14607952D01*
X5357952Y-14617476D01*
X5338905Y-14617476D01*
X5319857Y-14607952D01*
X5310333Y-14598428D01*
X5300810Y-14579381D01*
X5291286Y-14541286D01*
X5291286Y-14493667D01*
X5300810Y-14455571D01*
X5310333Y-14436524D01*
X5319857Y-14427000D01*
X5338905Y-14417476D01*
X5529381Y-14417476D02*
X5548429Y-14417476D01*
X5567476Y-14427000D01*
X5577000Y-14436524D01*
X5586524Y-14455571D01*
X5596048Y-14493667D01*
X5596048Y-14541286D01*
X5586524Y-14579381D01*
X5577000Y-14598428D01*
X5567476Y-14607952D01*
X5548429Y-14617476D01*
X5529381Y-14617476D01*
X5510333Y-14607952D01*
X5500810Y-14598428D01*
X5491286Y-14579381D01*
X5481762Y-14541286D01*
X5481762Y-14493667D01*
X5491286Y-14455571D01*
X5500810Y-14436524D01*
X5510333Y-14427000D01*
X5529381Y-14417476D01*
X5681762Y-14617476D02*
X5681762Y-14484143D01*
X5681762Y-14503190D02*
X5691286Y-14493667D01*
X5710333Y-14484143D01*
X5738905Y-14484143D01*
X5757952Y-14493667D01*
X5767476Y-14512714D01*
X5767476Y-14617476D01*
X5767476Y-14512714D02*
X5777000Y-14493667D01*
X5796048Y-14484143D01*
X5824619Y-14484143D01*
X5843667Y-14493667D01*
X5853190Y-14512714D01*
X5853190Y-14617476D01*
X5948428Y-14617476D02*
X5948428Y-14484143D01*
X5948428Y-14503190D02*
X5957952Y-14493667D01*
X5977000Y-14484143D01*
X6005571Y-14484143D01*
X6024619Y-14493667D01*
X6034143Y-14512714D01*
X6034143Y-14617476D01*
X6034143Y-14512714D02*
X6043667Y-14493667D01*
X6062714Y-14484143D01*
X6091286Y-14484143D01*
X6110333Y-14493667D01*
X6119857Y-14512714D01*
X6119857Y-14617476D01*
X6510333Y-14407952D02*
X6338905Y-14665095D01*
X6767476Y-14417476D02*
X6786524Y-14417476D01*
X6805571Y-14427000D01*
X6815095Y-14436524D01*
X6824619Y-14455571D01*
X6834143Y-14493667D01*
X6834143Y-14541286D01*
X6824619Y-14579381D01*
X6815095Y-14598428D01*
X6805571Y-14607952D01*
X6786524Y-14617476D01*
X6767476Y-14617476D01*
X6748428Y-14607952D01*
X6738905Y-14598428D01*
X6729381Y-14579381D01*
X6719857Y-14541286D01*
X6719857Y-14493667D01*
X6729381Y-14455571D01*
X6738905Y-14436524D01*
X6748428Y-14427000D01*
X6767476Y-14417476D01*
X6919857Y-14598428D02*
X6929381Y-14607952D01*
X6919857Y-14617476D01*
X6910333Y-14607952D01*
X6919857Y-14598428D01*
X6919857Y-14617476D01*
X7053190Y-14417476D02*
X7072238Y-14417476D01*
X7091286Y-14427000D01*
X7100809Y-14436524D01*
X7110333Y-14455571D01*
X7119857Y-14493667D01*
X7119857Y-14541286D01*
X7110333Y-14579381D01*
X7100809Y-14598428D01*
X7091286Y-14607952D01*
X7072238Y-14617476D01*
X7053190Y-14617476D01*
X7034143Y-14607952D01*
X7024619Y-14598428D01*
X7015095Y-14579381D01*
X7005571Y-14541286D01*
X7005571Y-14493667D01*
X7015095Y-14455571D01*
X7024619Y-14436524D01*
X7034143Y-14427000D01*
X7053190Y-14417476D01*
X7300809Y-14417476D02*
X7205571Y-14417476D01*
X7196048Y-14512714D01*
X7205571Y-14503190D01*
X7224619Y-14493667D01*
X7272238Y-14493667D01*
X7291286Y-14503190D01*
X7300809Y-14512714D01*
X7310333Y-14531762D01*
X7310333Y-14579381D01*
X7300809Y-14598428D01*
X7291286Y-14607952D01*
X7272238Y-14617476D01*
X7224619Y-14617476D01*
X7205571Y-14607952D01*
X7196048Y-14598428D01*
X7405571Y-14617476D02*
X7443667Y-14617476D01*
X7462714Y-14607952D01*
X7472238Y-14598428D01*
X7491286Y-14569857D01*
X7500809Y-14531762D01*
X7500809Y-14455571D01*
X7491286Y-14436524D01*
X7481762Y-14427000D01*
X7462714Y-14417476D01*
X7424619Y-14417476D01*
X7405571Y-14427000D01*
X7396048Y-14436524D01*
X7386524Y-14455571D01*
X7386524Y-14503190D01*
X7396048Y-14522238D01*
X7405571Y-14531762D01*
X7424619Y-14541286D01*
X7462714Y-14541286D01*
X7481762Y-14531762D01*
X7491286Y-14522238D01*
X7500809Y-14503190D01*
X7691286Y-14617476D02*
X7577000Y-14617476D01*
X7634143Y-14617476D02*
X7634143Y-14417476D01*
X7615095Y-14446048D01*
X7596048Y-14465095D01*
X7577000Y-14474619D01*
X7767476Y-14417476D02*
X7767476Y-14455571D01*
X7843667Y-14417476D02*
X7843667Y-14455571D01*
X8138905Y-14693667D02*
X8129381Y-14684143D01*
X8110333Y-14655571D01*
X8100809Y-14636524D01*
X8091286Y-14607952D01*
X8081762Y-14560333D01*
X8081762Y-14522238D01*
X8091286Y-14474619D01*
X8100809Y-14446048D01*
X8110333Y-14427000D01*
X8129381Y-14398428D01*
X8138905Y-14388905D01*
X8300809Y-14484143D02*
X8300809Y-14617476D01*
X8253190Y-14407952D02*
X8205571Y-14550809D01*
X8329381Y-14550809D01*
X8557952Y-14617476D02*
X8557952Y-14417476D01*
X8643667Y-14617476D02*
X8643667Y-14512714D01*
X8634143Y-14493667D01*
X8615095Y-14484143D01*
X8586524Y-14484143D01*
X8567476Y-14493667D01*
X8557952Y-14503190D01*
X8767476Y-14617476D02*
X8748429Y-14607952D01*
X8738905Y-14598428D01*
X8729381Y-14579381D01*
X8729381Y-14522238D01*
X8738905Y-14503190D01*
X8748429Y-14493667D01*
X8767476Y-14484143D01*
X8796048Y-14484143D01*
X8815095Y-14493667D01*
X8824619Y-14503190D01*
X8834143Y-14522238D01*
X8834143Y-14579381D01*
X8824619Y-14598428D01*
X8815095Y-14607952D01*
X8796048Y-14617476D01*
X8767476Y-14617476D01*
X8948429Y-14617476D02*
X8929381Y-14607952D01*
X8919857Y-14588905D01*
X8919857Y-14417476D01*
X9100810Y-14607952D02*
X9081762Y-14617476D01*
X9043667Y-14617476D01*
X9024619Y-14607952D01*
X9015095Y-14588905D01*
X9015095Y-14512714D01*
X9024619Y-14493667D01*
X9043667Y-14484143D01*
X9081762Y-14484143D01*
X9100810Y-14493667D01*
X9110333Y-14512714D01*
X9110333Y-14531762D01*
X9015095Y-14550809D01*
X9186524Y-14607952D02*
X9205571Y-14617476D01*
X9243667Y-14617476D01*
X9262714Y-14607952D01*
X9272238Y-14588905D01*
X9272238Y-14579381D01*
X9262714Y-14560333D01*
X9243667Y-14550809D01*
X9215095Y-14550809D01*
X9196048Y-14541286D01*
X9186524Y-14522238D01*
X9186524Y-14512714D01*
X9196048Y-14493667D01*
X9215095Y-14484143D01*
X9243667Y-14484143D01*
X9262714Y-14493667D01*
X9338905Y-14693667D02*
X9348429Y-14684143D01*
X9367476Y-14655571D01*
X9377000Y-14636524D01*
X9386524Y-14607952D01*
X9396048Y-14560333D01*
X9396048Y-14522238D01*
X9386524Y-14474619D01*
X9377000Y-14446048D01*
X9367476Y-14427000D01*
X9348429Y-14398428D01*
X9338905Y-14388905D01*
M02*
