%TF.GenerationSoftware,KiCad,Pcbnew,(6.0.8-1)-1*%
%TF.CreationDate,2022-11-01T09:33:12-04:00*%
%TF.ProjectId,Untitled,556e7469-746c-4656-942e-6b696361645f,rev?*%
%TF.SameCoordinates,Original*%
%TF.FileFunction,Legend,Bot*%
%TF.FilePolarity,Positive*%
%FSLAX46Y46*%
G04 Gerber Fmt 4.6, Leading zero omitted, Abs format (unit mm)*
G04 Created by KiCad (PCBNEW (6.0.8-1)-1) date 2022-11-01 09:33:12*
%MOMM*%
%LPD*%
G01*
G04 APERTURE LIST*
%ADD10C,0.150000*%
%ADD11C,0.120000*%
G04 APERTURE END LIST*
D10*
X62052380Y-101090476D02*
X62052380Y-101661904D01*
X63052380Y-101376190D02*
X62052380Y-101376190D01*
X63004761Y-102376190D02*
X63052380Y-102280952D01*
X63052380Y-102090476D01*
X63004761Y-101995238D01*
X62909523Y-101947619D01*
X62528571Y-101947619D01*
X62433333Y-101995238D01*
X62385714Y-102090476D01*
X62385714Y-102280952D01*
X62433333Y-102376190D01*
X62528571Y-102423809D01*
X62623809Y-102423809D01*
X62719047Y-101947619D01*
X63052380Y-102852380D02*
X62385714Y-102852380D01*
X62480952Y-102852380D02*
X62433333Y-102900000D01*
X62385714Y-102995238D01*
X62385714Y-103138095D01*
X62433333Y-103233333D01*
X62528571Y-103280952D01*
X63052380Y-103280952D01*
X62528571Y-103280952D02*
X62433333Y-103328571D01*
X62385714Y-103423809D01*
X62385714Y-103566666D01*
X62433333Y-103661904D01*
X62528571Y-103709523D01*
X63052380Y-103709523D01*
X62385714Y-104185714D02*
X63385714Y-104185714D01*
X62433333Y-104185714D02*
X62385714Y-104280952D01*
X62385714Y-104471428D01*
X62433333Y-104566666D01*
X62480952Y-104614285D01*
X62576190Y-104661904D01*
X62861904Y-104661904D01*
X62957142Y-104614285D01*
X63004761Y-104566666D01*
X63052380Y-104471428D01*
X63052380Y-104280952D01*
X63004761Y-104185714D01*
X62385714Y-105519047D02*
X63052380Y-105519047D01*
X62004761Y-105280952D02*
X62719047Y-105042857D01*
X62719047Y-105661904D01*
X62052380Y-63833331D02*
X62052380Y-64404759D01*
X63052380Y-64119045D02*
X62052380Y-64119045D01*
X63004761Y-65119045D02*
X63052380Y-65023807D01*
X63052380Y-64833331D01*
X63004761Y-64738093D01*
X62909523Y-64690474D01*
X62528571Y-64690474D01*
X62433333Y-64738093D01*
X62385714Y-64833331D01*
X62385714Y-65023807D01*
X62433333Y-65119045D01*
X62528571Y-65166664D01*
X62623809Y-65166664D01*
X62719047Y-64690474D01*
X63052380Y-65595235D02*
X62385714Y-65595235D01*
X62480952Y-65595235D02*
X62433333Y-65642855D01*
X62385714Y-65738093D01*
X62385714Y-65880950D01*
X62433333Y-65976188D01*
X62528571Y-66023807D01*
X63052380Y-66023807D01*
X62528571Y-66023807D02*
X62433333Y-66071426D01*
X62385714Y-66166664D01*
X62385714Y-66309521D01*
X62433333Y-66404759D01*
X62528571Y-66452378D01*
X63052380Y-66452378D01*
X62385714Y-66928569D02*
X63385714Y-66928569D01*
X62433333Y-66928569D02*
X62385714Y-67023807D01*
X62385714Y-67214283D01*
X62433333Y-67309521D01*
X62480952Y-67357140D01*
X62576190Y-67404759D01*
X62861904Y-67404759D01*
X62957142Y-67357140D01*
X63004761Y-67309521D01*
X63052380Y-67214283D01*
X63052380Y-67023807D01*
X63004761Y-66928569D01*
X62147619Y-67785712D02*
X62100000Y-67833331D01*
X62052380Y-67928569D01*
X62052380Y-68166664D01*
X62100000Y-68261902D01*
X62147619Y-68309521D01*
X62242857Y-68357140D01*
X62338095Y-68357140D01*
X62480952Y-68309521D01*
X63052380Y-67738093D01*
X63052380Y-68357140D01*
X62052380Y-45204761D02*
X62052380Y-45776189D01*
X63052380Y-45490475D02*
X62052380Y-45490475D01*
X63004761Y-46490475D02*
X63052380Y-46395237D01*
X63052380Y-46204761D01*
X63004761Y-46109523D01*
X62909523Y-46061904D01*
X62528571Y-46061904D01*
X62433333Y-46109523D01*
X62385714Y-46204761D01*
X62385714Y-46395237D01*
X62433333Y-46490475D01*
X62528571Y-46538094D01*
X62623809Y-46538094D01*
X62719047Y-46061904D01*
X63052380Y-46966665D02*
X62385714Y-46966665D01*
X62480952Y-46966665D02*
X62433333Y-47014285D01*
X62385714Y-47109523D01*
X62385714Y-47252380D01*
X62433333Y-47347618D01*
X62528571Y-47395237D01*
X63052380Y-47395237D01*
X62528571Y-47395237D02*
X62433333Y-47442856D01*
X62385714Y-47538094D01*
X62385714Y-47680951D01*
X62433333Y-47776189D01*
X62528571Y-47823808D01*
X63052380Y-47823808D01*
X62385714Y-48299999D02*
X63385714Y-48299999D01*
X62433333Y-48299999D02*
X62385714Y-48395237D01*
X62385714Y-48585713D01*
X62433333Y-48680951D01*
X62480952Y-48728570D01*
X62576190Y-48776189D01*
X62861904Y-48776189D01*
X62957142Y-48728570D01*
X63004761Y-48680951D01*
X63052380Y-48585713D01*
X63052380Y-48395237D01*
X63004761Y-48299999D01*
X63052380Y-49728570D02*
X63052380Y-49157142D01*
X63052380Y-49442856D02*
X62052380Y-49442856D01*
X62195238Y-49347618D01*
X62290476Y-49252380D01*
X62338095Y-49157142D01*
X62052380Y-82461901D02*
X62052380Y-83033329D01*
X63052380Y-82747615D02*
X62052380Y-82747615D01*
X63004761Y-83747615D02*
X63052380Y-83652377D01*
X63052380Y-83461901D01*
X63004761Y-83366663D01*
X62909523Y-83319044D01*
X62528571Y-83319044D01*
X62433333Y-83366663D01*
X62385714Y-83461901D01*
X62385714Y-83652377D01*
X62433333Y-83747615D01*
X62528571Y-83795234D01*
X62623809Y-83795234D01*
X62719047Y-83319044D01*
X63052380Y-84223805D02*
X62385714Y-84223805D01*
X62480952Y-84223805D02*
X62433333Y-84271425D01*
X62385714Y-84366663D01*
X62385714Y-84509520D01*
X62433333Y-84604758D01*
X62528571Y-84652377D01*
X63052380Y-84652377D01*
X62528571Y-84652377D02*
X62433333Y-84699996D01*
X62385714Y-84795234D01*
X62385714Y-84938091D01*
X62433333Y-85033329D01*
X62528571Y-85080948D01*
X63052380Y-85080948D01*
X62385714Y-85557139D02*
X63385714Y-85557139D01*
X62433333Y-85557139D02*
X62385714Y-85652377D01*
X62385714Y-85842853D01*
X62433333Y-85938091D01*
X62480952Y-85985710D01*
X62576190Y-86033329D01*
X62861904Y-86033329D01*
X62957142Y-85985710D01*
X63004761Y-85938091D01*
X63052380Y-85842853D01*
X63052380Y-85652377D01*
X63004761Y-85557139D01*
X62052380Y-86366663D02*
X62052380Y-86985710D01*
X62433333Y-86652377D01*
X62433333Y-86795234D01*
X62480952Y-86890472D01*
X62528571Y-86938091D01*
X62623809Y-86985710D01*
X62861904Y-86985710D01*
X62957142Y-86938091D01*
X63004761Y-86890472D01*
X63052380Y-86795234D01*
X63052380Y-86509520D01*
X63004761Y-86414282D01*
X62957142Y-86366663D01*
%TO.C,REF\u002A\u002A*%
X59702480Y-100819166D02*
X59226290Y-100485833D01*
X59702480Y-100247738D02*
X58702480Y-100247738D01*
X58702480Y-100628690D01*
X58750100Y-100723928D01*
X58797719Y-100771547D01*
X58892957Y-100819166D01*
X59035814Y-100819166D01*
X59131052Y-100771547D01*
X59178671Y-100723928D01*
X59226290Y-100628690D01*
X59226290Y-100247738D01*
X59178671Y-101247738D02*
X59178671Y-101581071D01*
X59702480Y-101723928D02*
X59702480Y-101247738D01*
X58702480Y-101247738D01*
X58702480Y-101723928D01*
X59178671Y-102485833D02*
X59178671Y-102152500D01*
X59702480Y-102152500D02*
X58702480Y-102152500D01*
X58702480Y-102628690D01*
X58702480Y-103152500D02*
X58940576Y-103152500D01*
X58845338Y-102914404D02*
X58940576Y-103152500D01*
X58845338Y-103390595D01*
X59131052Y-103009642D02*
X58940576Y-103152500D01*
X59131052Y-103295357D01*
X58702480Y-103914404D02*
X58940576Y-103914404D01*
X58845338Y-103676309D02*
X58940576Y-103914404D01*
X58845338Y-104152500D01*
X59131052Y-103771547D02*
X58940576Y-103914404D01*
X59131052Y-104057261D01*
X59607242Y-93747738D02*
X59654861Y-93700119D01*
X59702480Y-93557261D01*
X59702480Y-93462023D01*
X59654861Y-93319166D01*
X59559623Y-93223928D01*
X59464385Y-93176309D01*
X59273909Y-93128690D01*
X59131052Y-93128690D01*
X58940576Y-93176309D01*
X58845338Y-93223928D01*
X58750100Y-93319166D01*
X58702480Y-93462023D01*
X58702480Y-93557261D01*
X58750100Y-93700119D01*
X58797719Y-93747738D01*
X58702480Y-94366785D02*
X58702480Y-94557261D01*
X58750100Y-94652500D01*
X58845338Y-94747738D01*
X59035814Y-94795357D01*
X59369147Y-94795357D01*
X59559623Y-94747738D01*
X59654861Y-94652500D01*
X59702480Y-94557261D01*
X59702480Y-94366785D01*
X59654861Y-94271547D01*
X59559623Y-94176309D01*
X59369147Y-94128690D01*
X59035814Y-94128690D01*
X58845338Y-94176309D01*
X58750100Y-94271547D01*
X58702480Y-94366785D01*
X59702480Y-95223928D02*
X58702480Y-95223928D01*
X59702480Y-95795357D01*
X58702480Y-95795357D01*
X59702480Y-96271547D02*
X58702480Y-96271547D01*
X59702480Y-96842976D01*
X58702480Y-96842976D01*
X59797719Y-97081071D02*
X59797719Y-97842976D01*
X58702480Y-97985833D02*
X58702480Y-98604880D01*
X59083433Y-98271547D01*
X59083433Y-98414404D01*
X59131052Y-98509642D01*
X59178671Y-98557261D01*
X59273909Y-98604880D01*
X59512004Y-98604880D01*
X59607242Y-98557261D01*
X59654861Y-98509642D01*
X59702480Y-98414404D01*
X59702480Y-98128690D01*
X59654861Y-98033452D01*
X59607242Y-97985833D01*
X59321528Y-99033452D02*
X59321528Y-99795357D01*
X59702480Y-100795357D02*
X59702480Y-100223928D01*
X59702480Y-100509642D02*
X58702480Y-100509642D01*
X58845338Y-100414404D01*
X58940576Y-100319166D01*
X58988195Y-100223928D01*
X58702480Y-101414404D02*
X58702480Y-101509642D01*
X58750100Y-101604880D01*
X58797719Y-101652500D01*
X58892957Y-101700119D01*
X59083433Y-101747738D01*
X59321528Y-101747738D01*
X59512004Y-101700119D01*
X59607242Y-101652500D01*
X59654861Y-101604880D01*
X59702480Y-101509642D01*
X59702480Y-101414404D01*
X59654861Y-101319166D01*
X59607242Y-101271547D01*
X59512004Y-101223928D01*
X59321528Y-101176309D01*
X59083433Y-101176309D01*
X58892957Y-101223928D01*
X58797719Y-101271547D01*
X58750100Y-101319166D01*
X58702480Y-101414404D01*
X58797719Y-102128690D02*
X58750100Y-102176309D01*
X58702480Y-102271547D01*
X58702480Y-102509642D01*
X58750100Y-102604880D01*
X58797719Y-102652500D01*
X58892957Y-102700119D01*
X58988195Y-102700119D01*
X59131052Y-102652500D01*
X59702480Y-102081071D01*
X59702480Y-102700119D01*
X58797719Y-103081071D02*
X58750100Y-103128690D01*
X58702480Y-103223928D01*
X58702480Y-103462023D01*
X58750100Y-103557261D01*
X58797719Y-103604880D01*
X58892957Y-103652500D01*
X58988195Y-103652500D01*
X59131052Y-103604880D01*
X59702480Y-103033452D01*
X59702480Y-103652500D01*
X58702480Y-104271547D02*
X58702480Y-104366785D01*
X58750100Y-104462023D01*
X58797719Y-104509642D01*
X58892957Y-104557261D01*
X59083433Y-104604880D01*
X59321528Y-104604880D01*
X59512004Y-104557261D01*
X59607242Y-104509642D01*
X59654861Y-104462023D01*
X59702480Y-104366785D01*
X59702480Y-104271547D01*
X59654861Y-104176309D01*
X59607242Y-104128690D01*
X59512004Y-104081071D01*
X59321528Y-104033452D01*
X59083433Y-104033452D01*
X58892957Y-104081071D01*
X58797719Y-104128690D01*
X58750100Y-104176309D01*
X58702480Y-104271547D01*
X58702480Y-104938214D02*
X58702480Y-105557261D01*
X59083433Y-105223928D01*
X59083433Y-105366785D01*
X59131052Y-105462023D01*
X59178671Y-105509642D01*
X59273909Y-105557261D01*
X59512004Y-105557261D01*
X59607242Y-105509642D01*
X59654861Y-105462023D01*
X59702480Y-105366785D01*
X59702480Y-105081071D01*
X59654861Y-104985833D01*
X59607242Y-104938214D01*
X59321528Y-105985833D02*
X59321528Y-106747738D01*
X59035814Y-107652500D02*
X59702480Y-107652500D01*
X58654861Y-107414404D02*
X59369147Y-107176309D01*
X59369147Y-107795357D01*
X59797719Y-107938214D02*
X59797719Y-108700119D01*
X58702480Y-108795357D02*
X58702480Y-109366785D01*
X59702480Y-109081071D02*
X58702480Y-109081071D01*
X59178671Y-109700119D02*
X59178671Y-110033452D01*
X59702480Y-110176309D02*
X59702480Y-109700119D01*
X58702480Y-109700119D01*
X58702480Y-110176309D01*
X59607242Y-111176309D02*
X59654861Y-111128690D01*
X59702480Y-110985833D01*
X59702480Y-110890595D01*
X59654861Y-110747738D01*
X59559623Y-110652500D01*
X59464385Y-110604880D01*
X59273909Y-110557261D01*
X59131052Y-110557261D01*
X58940576Y-110604880D01*
X58845338Y-110652500D01*
X58750100Y-110747738D01*
X58702480Y-110890595D01*
X58702480Y-110985833D01*
X58750100Y-111128690D01*
X58797719Y-111176309D01*
X58702480Y-99612500D02*
X58940576Y-99612500D01*
X58845338Y-99374404D02*
X58940576Y-99612500D01*
X58845338Y-99850595D01*
X59131052Y-99469642D02*
X58940576Y-99612500D01*
X59131052Y-99755357D01*
X59702480Y-64419166D02*
X59226290Y-64085833D01*
X59702480Y-63847738D02*
X58702480Y-63847738D01*
X58702480Y-64228690D01*
X58750100Y-64323928D01*
X58797719Y-64371547D01*
X58892957Y-64419166D01*
X59035814Y-64419166D01*
X59131052Y-64371547D01*
X59178671Y-64323928D01*
X59226290Y-64228690D01*
X59226290Y-63847738D01*
X59178671Y-64847738D02*
X59178671Y-65181071D01*
X59702480Y-65323928D02*
X59702480Y-64847738D01*
X58702480Y-64847738D01*
X58702480Y-65323928D01*
X59178671Y-66085833D02*
X59178671Y-65752500D01*
X59702480Y-65752500D02*
X58702480Y-65752500D01*
X58702480Y-66228690D01*
X58702480Y-66752500D02*
X58940576Y-66752500D01*
X58845338Y-66514404D02*
X58940576Y-66752500D01*
X58845338Y-66990595D01*
X59131052Y-66609642D02*
X58940576Y-66752500D01*
X59131052Y-66895357D01*
X58702480Y-67514404D02*
X58940576Y-67514404D01*
X58845338Y-67276309D02*
X58940576Y-67514404D01*
X58845338Y-67752500D01*
X59131052Y-67371547D02*
X58940576Y-67514404D01*
X59131052Y-67657261D01*
X59607242Y-57347738D02*
X59654861Y-57300119D01*
X59702480Y-57157261D01*
X59702480Y-57062023D01*
X59654861Y-56919166D01*
X59559623Y-56823928D01*
X59464385Y-56776309D01*
X59273909Y-56728690D01*
X59131052Y-56728690D01*
X58940576Y-56776309D01*
X58845338Y-56823928D01*
X58750100Y-56919166D01*
X58702480Y-57062023D01*
X58702480Y-57157261D01*
X58750100Y-57300119D01*
X58797719Y-57347738D01*
X58702480Y-57966785D02*
X58702480Y-58157261D01*
X58750100Y-58252500D01*
X58845338Y-58347738D01*
X59035814Y-58395357D01*
X59369147Y-58395357D01*
X59559623Y-58347738D01*
X59654861Y-58252500D01*
X59702480Y-58157261D01*
X59702480Y-57966785D01*
X59654861Y-57871547D01*
X59559623Y-57776309D01*
X59369147Y-57728690D01*
X59035814Y-57728690D01*
X58845338Y-57776309D01*
X58750100Y-57871547D01*
X58702480Y-57966785D01*
X59702480Y-58823928D02*
X58702480Y-58823928D01*
X59702480Y-59395357D01*
X58702480Y-59395357D01*
X59702480Y-59871547D02*
X58702480Y-59871547D01*
X59702480Y-60442976D01*
X58702480Y-60442976D01*
X59797719Y-60681071D02*
X59797719Y-61442976D01*
X58702480Y-61585833D02*
X58702480Y-62204880D01*
X59083433Y-61871547D01*
X59083433Y-62014404D01*
X59131052Y-62109642D01*
X59178671Y-62157261D01*
X59273909Y-62204880D01*
X59512004Y-62204880D01*
X59607242Y-62157261D01*
X59654861Y-62109642D01*
X59702480Y-62014404D01*
X59702480Y-61728690D01*
X59654861Y-61633452D01*
X59607242Y-61585833D01*
X59321528Y-62633452D02*
X59321528Y-63395357D01*
X59702480Y-64395357D02*
X59702480Y-63823928D01*
X59702480Y-64109642D02*
X58702480Y-64109642D01*
X58845338Y-64014404D01*
X58940576Y-63919166D01*
X58988195Y-63823928D01*
X58702480Y-65014404D02*
X58702480Y-65109642D01*
X58750100Y-65204880D01*
X58797719Y-65252500D01*
X58892957Y-65300119D01*
X59083433Y-65347738D01*
X59321528Y-65347738D01*
X59512004Y-65300119D01*
X59607242Y-65252500D01*
X59654861Y-65204880D01*
X59702480Y-65109642D01*
X59702480Y-65014404D01*
X59654861Y-64919166D01*
X59607242Y-64871547D01*
X59512004Y-64823928D01*
X59321528Y-64776309D01*
X59083433Y-64776309D01*
X58892957Y-64823928D01*
X58797719Y-64871547D01*
X58750100Y-64919166D01*
X58702480Y-65014404D01*
X58797719Y-65728690D02*
X58750100Y-65776309D01*
X58702480Y-65871547D01*
X58702480Y-66109642D01*
X58750100Y-66204880D01*
X58797719Y-66252500D01*
X58892957Y-66300119D01*
X58988195Y-66300119D01*
X59131052Y-66252500D01*
X59702480Y-65681071D01*
X59702480Y-66300119D01*
X58797719Y-66681071D02*
X58750100Y-66728690D01*
X58702480Y-66823928D01*
X58702480Y-67062023D01*
X58750100Y-67157261D01*
X58797719Y-67204880D01*
X58892957Y-67252500D01*
X58988195Y-67252500D01*
X59131052Y-67204880D01*
X59702480Y-66633452D01*
X59702480Y-67252500D01*
X58702480Y-67871547D02*
X58702480Y-67966785D01*
X58750100Y-68062023D01*
X58797719Y-68109642D01*
X58892957Y-68157261D01*
X59083433Y-68204880D01*
X59321528Y-68204880D01*
X59512004Y-68157261D01*
X59607242Y-68109642D01*
X59654861Y-68062023D01*
X59702480Y-67966785D01*
X59702480Y-67871547D01*
X59654861Y-67776309D01*
X59607242Y-67728690D01*
X59512004Y-67681071D01*
X59321528Y-67633452D01*
X59083433Y-67633452D01*
X58892957Y-67681071D01*
X58797719Y-67728690D01*
X58750100Y-67776309D01*
X58702480Y-67871547D01*
X58702480Y-68538214D02*
X58702480Y-69157261D01*
X59083433Y-68823928D01*
X59083433Y-68966785D01*
X59131052Y-69062023D01*
X59178671Y-69109642D01*
X59273909Y-69157261D01*
X59512004Y-69157261D01*
X59607242Y-69109642D01*
X59654861Y-69062023D01*
X59702480Y-68966785D01*
X59702480Y-68681071D01*
X59654861Y-68585833D01*
X59607242Y-68538214D01*
X59321528Y-69585833D02*
X59321528Y-70347738D01*
X59035814Y-71252500D02*
X59702480Y-71252500D01*
X58654861Y-71014404D02*
X59369147Y-70776309D01*
X59369147Y-71395357D01*
X59797719Y-71538214D02*
X59797719Y-72300119D01*
X58702480Y-72395357D02*
X58702480Y-72966785D01*
X59702480Y-72681071D02*
X58702480Y-72681071D01*
X59178671Y-73300119D02*
X59178671Y-73633452D01*
X59702480Y-73776309D02*
X59702480Y-73300119D01*
X58702480Y-73300119D01*
X58702480Y-73776309D01*
X59607242Y-74776309D02*
X59654861Y-74728690D01*
X59702480Y-74585833D01*
X59702480Y-74490595D01*
X59654861Y-74347738D01*
X59559623Y-74252500D01*
X59464385Y-74204880D01*
X59273909Y-74157261D01*
X59131052Y-74157261D01*
X58940576Y-74204880D01*
X58845338Y-74252500D01*
X58750100Y-74347738D01*
X58702480Y-74490595D01*
X58702480Y-74585833D01*
X58750100Y-74728690D01*
X58797719Y-74776309D01*
X58702480Y-63212500D02*
X58940576Y-63212500D01*
X58845338Y-62974404D02*
X58940576Y-63212500D01*
X58845338Y-63450595D01*
X59131052Y-63069642D02*
X58940576Y-63212500D01*
X59131052Y-63355357D01*
X59652380Y-82606666D02*
X59176190Y-82273333D01*
X59652380Y-82035238D02*
X58652380Y-82035238D01*
X58652380Y-82416190D01*
X58700000Y-82511428D01*
X58747619Y-82559047D01*
X58842857Y-82606666D01*
X58985714Y-82606666D01*
X59080952Y-82559047D01*
X59128571Y-82511428D01*
X59176190Y-82416190D01*
X59176190Y-82035238D01*
X59128571Y-83035238D02*
X59128571Y-83368571D01*
X59652380Y-83511428D02*
X59652380Y-83035238D01*
X58652380Y-83035238D01*
X58652380Y-83511428D01*
X59128571Y-84273333D02*
X59128571Y-83940000D01*
X59652380Y-83940000D02*
X58652380Y-83940000D01*
X58652380Y-84416190D01*
X58652380Y-84940000D02*
X58890476Y-84940000D01*
X58795238Y-84701904D02*
X58890476Y-84940000D01*
X58795238Y-85178095D01*
X59080952Y-84797142D02*
X58890476Y-84940000D01*
X59080952Y-85082857D01*
X58652380Y-85701904D02*
X58890476Y-85701904D01*
X58795238Y-85463809D02*
X58890476Y-85701904D01*
X58795238Y-85940000D01*
X59080952Y-85559047D02*
X58890476Y-85701904D01*
X59080952Y-85844761D01*
X59557142Y-75535238D02*
X59604761Y-75487619D01*
X59652380Y-75344761D01*
X59652380Y-75249523D01*
X59604761Y-75106666D01*
X59509523Y-75011428D01*
X59414285Y-74963809D01*
X59223809Y-74916190D01*
X59080952Y-74916190D01*
X58890476Y-74963809D01*
X58795238Y-75011428D01*
X58700000Y-75106666D01*
X58652380Y-75249523D01*
X58652380Y-75344761D01*
X58700000Y-75487619D01*
X58747619Y-75535238D01*
X58652380Y-76154285D02*
X58652380Y-76344761D01*
X58700000Y-76440000D01*
X58795238Y-76535238D01*
X58985714Y-76582857D01*
X59319047Y-76582857D01*
X59509523Y-76535238D01*
X59604761Y-76440000D01*
X59652380Y-76344761D01*
X59652380Y-76154285D01*
X59604761Y-76059047D01*
X59509523Y-75963809D01*
X59319047Y-75916190D01*
X58985714Y-75916190D01*
X58795238Y-75963809D01*
X58700000Y-76059047D01*
X58652380Y-76154285D01*
X59652380Y-77011428D02*
X58652380Y-77011428D01*
X59652380Y-77582857D01*
X58652380Y-77582857D01*
X59652380Y-78059047D02*
X58652380Y-78059047D01*
X59652380Y-78630476D01*
X58652380Y-78630476D01*
X59747619Y-78868571D02*
X59747619Y-79630476D01*
X58652380Y-79773333D02*
X58652380Y-80392380D01*
X59033333Y-80059047D01*
X59033333Y-80201904D01*
X59080952Y-80297142D01*
X59128571Y-80344761D01*
X59223809Y-80392380D01*
X59461904Y-80392380D01*
X59557142Y-80344761D01*
X59604761Y-80297142D01*
X59652380Y-80201904D01*
X59652380Y-79916190D01*
X59604761Y-79820952D01*
X59557142Y-79773333D01*
X59271428Y-80820952D02*
X59271428Y-81582857D01*
X59652380Y-82582857D02*
X59652380Y-82011428D01*
X59652380Y-82297142D02*
X58652380Y-82297142D01*
X58795238Y-82201904D01*
X58890476Y-82106666D01*
X58938095Y-82011428D01*
X58652380Y-83201904D02*
X58652380Y-83297142D01*
X58700000Y-83392380D01*
X58747619Y-83440000D01*
X58842857Y-83487619D01*
X59033333Y-83535238D01*
X59271428Y-83535238D01*
X59461904Y-83487619D01*
X59557142Y-83440000D01*
X59604761Y-83392380D01*
X59652380Y-83297142D01*
X59652380Y-83201904D01*
X59604761Y-83106666D01*
X59557142Y-83059047D01*
X59461904Y-83011428D01*
X59271428Y-82963809D01*
X59033333Y-82963809D01*
X58842857Y-83011428D01*
X58747619Y-83059047D01*
X58700000Y-83106666D01*
X58652380Y-83201904D01*
X58747619Y-83916190D02*
X58700000Y-83963809D01*
X58652380Y-84059047D01*
X58652380Y-84297142D01*
X58700000Y-84392380D01*
X58747619Y-84440000D01*
X58842857Y-84487619D01*
X58938095Y-84487619D01*
X59080952Y-84440000D01*
X59652380Y-83868571D01*
X59652380Y-84487619D01*
X58747619Y-84868571D02*
X58700000Y-84916190D01*
X58652380Y-85011428D01*
X58652380Y-85249523D01*
X58700000Y-85344761D01*
X58747619Y-85392380D01*
X58842857Y-85440000D01*
X58938095Y-85440000D01*
X59080952Y-85392380D01*
X59652380Y-84820952D01*
X59652380Y-85440000D01*
X58652380Y-86059047D02*
X58652380Y-86154285D01*
X58700000Y-86249523D01*
X58747619Y-86297142D01*
X58842857Y-86344761D01*
X59033333Y-86392380D01*
X59271428Y-86392380D01*
X59461904Y-86344761D01*
X59557142Y-86297142D01*
X59604761Y-86249523D01*
X59652380Y-86154285D01*
X59652380Y-86059047D01*
X59604761Y-85963809D01*
X59557142Y-85916190D01*
X59461904Y-85868571D01*
X59271428Y-85820952D01*
X59033333Y-85820952D01*
X58842857Y-85868571D01*
X58747619Y-85916190D01*
X58700000Y-85963809D01*
X58652380Y-86059047D01*
X58652380Y-86725714D02*
X58652380Y-87344761D01*
X59033333Y-87011428D01*
X59033333Y-87154285D01*
X59080952Y-87249523D01*
X59128571Y-87297142D01*
X59223809Y-87344761D01*
X59461904Y-87344761D01*
X59557142Y-87297142D01*
X59604761Y-87249523D01*
X59652380Y-87154285D01*
X59652380Y-86868571D01*
X59604761Y-86773333D01*
X59557142Y-86725714D01*
X59271428Y-87773333D02*
X59271428Y-88535238D01*
X58985714Y-89440000D02*
X59652380Y-89440000D01*
X58604761Y-89201904D02*
X59319047Y-88963809D01*
X59319047Y-89582857D01*
X59747619Y-89725714D02*
X59747619Y-90487619D01*
X58652380Y-90582857D02*
X58652380Y-91154285D01*
X59652380Y-90868571D02*
X58652380Y-90868571D01*
X59128571Y-91487619D02*
X59128571Y-91820952D01*
X59652380Y-91963809D02*
X59652380Y-91487619D01*
X58652380Y-91487619D01*
X58652380Y-91963809D01*
X59557142Y-92963809D02*
X59604761Y-92916190D01*
X59652380Y-92773333D01*
X59652380Y-92678095D01*
X59604761Y-92535238D01*
X59509523Y-92440000D01*
X59414285Y-92392380D01*
X59223809Y-92344761D01*
X59080952Y-92344761D01*
X58890476Y-92392380D01*
X58795238Y-92440000D01*
X58700000Y-92535238D01*
X58652380Y-92678095D01*
X58652380Y-92773333D01*
X58700000Y-92916190D01*
X58747619Y-92963809D01*
X58652380Y-81400000D02*
X58890476Y-81400000D01*
X58795238Y-81161904D02*
X58890476Y-81400000D01*
X58795238Y-81638095D01*
X59080952Y-81257142D02*
X58890476Y-81400000D01*
X59080952Y-81542857D01*
X59702480Y-46419166D02*
X59226290Y-46085833D01*
X59702480Y-45847738D02*
X58702480Y-45847738D01*
X58702480Y-46228690D01*
X58750100Y-46323928D01*
X58797719Y-46371547D01*
X58892957Y-46419166D01*
X59035814Y-46419166D01*
X59131052Y-46371547D01*
X59178671Y-46323928D01*
X59226290Y-46228690D01*
X59226290Y-45847738D01*
X59178671Y-46847738D02*
X59178671Y-47181071D01*
X59702480Y-47323928D02*
X59702480Y-46847738D01*
X58702480Y-46847738D01*
X58702480Y-47323928D01*
X59178671Y-48085833D02*
X59178671Y-47752500D01*
X59702480Y-47752500D02*
X58702480Y-47752500D01*
X58702480Y-48228690D01*
X58702480Y-48752500D02*
X58940576Y-48752500D01*
X58845338Y-48514404D02*
X58940576Y-48752500D01*
X58845338Y-48990595D01*
X59131052Y-48609642D02*
X58940576Y-48752500D01*
X59131052Y-48895357D01*
X58702480Y-49514404D02*
X58940576Y-49514404D01*
X58845338Y-49276309D02*
X58940576Y-49514404D01*
X58845338Y-49752500D01*
X59131052Y-49371547D02*
X58940576Y-49514404D01*
X59131052Y-49657261D01*
X59607242Y-39347738D02*
X59654861Y-39300119D01*
X59702480Y-39157261D01*
X59702480Y-39062023D01*
X59654861Y-38919166D01*
X59559623Y-38823928D01*
X59464385Y-38776309D01*
X59273909Y-38728690D01*
X59131052Y-38728690D01*
X58940576Y-38776309D01*
X58845338Y-38823928D01*
X58750100Y-38919166D01*
X58702480Y-39062023D01*
X58702480Y-39157261D01*
X58750100Y-39300119D01*
X58797719Y-39347738D01*
X58702480Y-39966785D02*
X58702480Y-40157261D01*
X58750100Y-40252500D01*
X58845338Y-40347738D01*
X59035814Y-40395357D01*
X59369147Y-40395357D01*
X59559623Y-40347738D01*
X59654861Y-40252500D01*
X59702480Y-40157261D01*
X59702480Y-39966785D01*
X59654861Y-39871547D01*
X59559623Y-39776309D01*
X59369147Y-39728690D01*
X59035814Y-39728690D01*
X58845338Y-39776309D01*
X58750100Y-39871547D01*
X58702480Y-39966785D01*
X59702480Y-40823928D02*
X58702480Y-40823928D01*
X59702480Y-41395357D01*
X58702480Y-41395357D01*
X59702480Y-41871547D02*
X58702480Y-41871547D01*
X59702480Y-42442976D01*
X58702480Y-42442976D01*
X59797719Y-42681071D02*
X59797719Y-43442976D01*
X58702480Y-43585833D02*
X58702480Y-44204880D01*
X59083433Y-43871547D01*
X59083433Y-44014404D01*
X59131052Y-44109642D01*
X59178671Y-44157261D01*
X59273909Y-44204880D01*
X59512004Y-44204880D01*
X59607242Y-44157261D01*
X59654861Y-44109642D01*
X59702480Y-44014404D01*
X59702480Y-43728690D01*
X59654861Y-43633452D01*
X59607242Y-43585833D01*
X59321528Y-44633452D02*
X59321528Y-45395357D01*
X59702480Y-46395357D02*
X59702480Y-45823928D01*
X59702480Y-46109642D02*
X58702480Y-46109642D01*
X58845338Y-46014404D01*
X58940576Y-45919166D01*
X58988195Y-45823928D01*
X58702480Y-47014404D02*
X58702480Y-47109642D01*
X58750100Y-47204880D01*
X58797719Y-47252500D01*
X58892957Y-47300119D01*
X59083433Y-47347738D01*
X59321528Y-47347738D01*
X59512004Y-47300119D01*
X59607242Y-47252500D01*
X59654861Y-47204880D01*
X59702480Y-47109642D01*
X59702480Y-47014404D01*
X59654861Y-46919166D01*
X59607242Y-46871547D01*
X59512004Y-46823928D01*
X59321528Y-46776309D01*
X59083433Y-46776309D01*
X58892957Y-46823928D01*
X58797719Y-46871547D01*
X58750100Y-46919166D01*
X58702480Y-47014404D01*
X58797719Y-47728690D02*
X58750100Y-47776309D01*
X58702480Y-47871547D01*
X58702480Y-48109642D01*
X58750100Y-48204880D01*
X58797719Y-48252500D01*
X58892957Y-48300119D01*
X58988195Y-48300119D01*
X59131052Y-48252500D01*
X59702480Y-47681071D01*
X59702480Y-48300119D01*
X58797719Y-48681071D02*
X58750100Y-48728690D01*
X58702480Y-48823928D01*
X58702480Y-49062023D01*
X58750100Y-49157261D01*
X58797719Y-49204880D01*
X58892957Y-49252499D01*
X58988195Y-49252499D01*
X59131052Y-49204880D01*
X59702480Y-48633452D01*
X59702480Y-49252499D01*
X58702480Y-49871547D02*
X58702480Y-49966785D01*
X58750100Y-50062023D01*
X58797719Y-50109642D01*
X58892957Y-50157261D01*
X59083433Y-50204880D01*
X59321528Y-50204880D01*
X59512004Y-50157261D01*
X59607242Y-50109642D01*
X59654861Y-50062023D01*
X59702480Y-49966785D01*
X59702480Y-49871547D01*
X59654861Y-49776309D01*
X59607242Y-49728690D01*
X59512004Y-49681071D01*
X59321528Y-49633452D01*
X59083433Y-49633452D01*
X58892957Y-49681071D01*
X58797719Y-49728690D01*
X58750100Y-49776309D01*
X58702480Y-49871547D01*
X58702480Y-50538214D02*
X58702480Y-51157261D01*
X59083433Y-50823928D01*
X59083433Y-50966785D01*
X59131052Y-51062023D01*
X59178671Y-51109642D01*
X59273909Y-51157261D01*
X59512004Y-51157261D01*
X59607242Y-51109642D01*
X59654861Y-51062023D01*
X59702480Y-50966785D01*
X59702480Y-50681071D01*
X59654861Y-50585833D01*
X59607242Y-50538214D01*
X59321528Y-51585833D02*
X59321528Y-52347738D01*
X59035814Y-53252499D02*
X59702480Y-53252499D01*
X58654861Y-53014404D02*
X59369147Y-52776309D01*
X59369147Y-53395357D01*
X59797719Y-53538214D02*
X59797719Y-54300119D01*
X58702480Y-54395357D02*
X58702480Y-54966785D01*
X59702480Y-54681071D02*
X58702480Y-54681071D01*
X59178671Y-55300119D02*
X59178671Y-55633452D01*
X59702480Y-55776309D02*
X59702480Y-55300119D01*
X58702480Y-55300119D01*
X58702480Y-55776309D01*
X59607242Y-56776309D02*
X59654861Y-56728690D01*
X59702480Y-56585833D01*
X59702480Y-56490595D01*
X59654861Y-56347738D01*
X59559623Y-56252499D01*
X59464385Y-56204880D01*
X59273909Y-56157261D01*
X59131052Y-56157261D01*
X58940576Y-56204880D01*
X58845338Y-56252499D01*
X58750100Y-56347738D01*
X58702480Y-56490595D01*
X58702480Y-56585833D01*
X58750100Y-56728690D01*
X58797719Y-56776309D01*
X58702480Y-45212500D02*
X58940576Y-45212500D01*
X58845338Y-44974404D02*
X58940576Y-45212500D01*
X58845338Y-45450595D01*
X59131052Y-45069642D02*
X58940576Y-45212500D01*
X59131052Y-45355357D01*
%TO.C,G\u002A\u002A\u002A*%
G36*
X100125239Y-99083386D02*
G01*
X100125239Y-68807990D01*
X116211270Y-68807990D01*
X116217221Y-69504153D01*
X116219378Y-69552445D01*
X116311001Y-70432319D01*
X116506108Y-71209739D01*
X116818540Y-71916397D01*
X117262140Y-72583986D01*
X117850749Y-73244196D01*
X118091355Y-73475279D01*
X118766986Y-74015336D01*
X119476064Y-74418864D01*
X120249453Y-74704653D01*
X120963390Y-74861362D01*
X121911531Y-74932245D01*
X122851896Y-74852108D01*
X123757047Y-74621599D01*
X124364777Y-74366276D01*
X125151699Y-73892453D01*
X125855456Y-73296590D01*
X126453966Y-72598234D01*
X126925151Y-71816933D01*
X127187616Y-71197000D01*
X127435920Y-70298344D01*
X127543045Y-69387158D01*
X127506519Y-68489379D01*
X127323871Y-67630947D01*
X127293794Y-67536684D01*
X126935373Y-66689504D01*
X126446553Y-65906356D01*
X125846082Y-65209370D01*
X125152710Y-64620676D01*
X124385186Y-64162404D01*
X123959847Y-63972166D01*
X123145587Y-63703207D01*
X122335822Y-63570862D01*
X121490701Y-63566934D01*
X121142678Y-63600287D01*
X120217188Y-63795643D01*
X119350603Y-64135334D01*
X118557245Y-64609740D01*
X117851435Y-65209241D01*
X117247491Y-65924217D01*
X116759735Y-66745048D01*
X116593504Y-67105918D01*
X116388753Y-67663082D01*
X116264895Y-68212370D01*
X116211270Y-68807990D01*
X100125239Y-68807990D01*
X100125239Y-62711444D01*
X124223903Y-62711444D01*
X124764488Y-62964414D01*
X124865631Y-63013005D01*
X125631147Y-63459442D01*
X126362641Y-64017456D01*
X127017364Y-64650875D01*
X127552566Y-65323526D01*
X127907640Y-65905068D01*
X128339073Y-66855086D01*
X128621775Y-67844514D01*
X128755241Y-68857194D01*
X128746783Y-69387158D01*
X128738965Y-69876970D01*
X128572443Y-70887682D01*
X128255171Y-71873175D01*
X127786644Y-72817290D01*
X127427865Y-73344546D01*
X126898396Y-73960942D01*
X126293600Y-74533081D01*
X125653482Y-75023705D01*
X125018051Y-75395560D01*
X124872466Y-75473383D01*
X124699883Y-75592676D01*
X124632587Y-75680708D01*
X124641113Y-75721096D01*
X124732331Y-75895420D01*
X124907943Y-76153980D01*
X125148606Y-76472555D01*
X125434982Y-76826926D01*
X125747727Y-77192874D01*
X126067503Y-77546178D01*
X126374968Y-77862620D01*
X126517267Y-78000341D01*
X127597730Y-78918783D01*
X128772164Y-79708501D01*
X130028570Y-80363123D01*
X131354946Y-80876276D01*
X132739289Y-81241588D01*
X132881922Y-81268061D01*
X133363602Y-81332672D01*
X133943457Y-81384230D01*
X134578338Y-81421151D01*
X135225094Y-81441853D01*
X135840575Y-81444751D01*
X136381631Y-81428262D01*
X136805111Y-81390802D01*
X138114021Y-81141803D01*
X139474263Y-80730036D01*
X140765692Y-80176883D01*
X141979472Y-79488800D01*
X143106769Y-78672246D01*
X144138747Y-77733679D01*
X145066572Y-76679555D01*
X145881408Y-75516332D01*
X146574420Y-74250468D01*
X146593804Y-74209754D01*
X147110590Y-72933230D01*
X147479488Y-71608452D01*
X147700481Y-70251825D01*
X147773549Y-68879752D01*
X147698675Y-67508641D01*
X147475840Y-66154895D01*
X147105027Y-64834920D01*
X146586218Y-63565120D01*
X145939245Y-62363260D01*
X145135838Y-61183037D01*
X144222274Y-60121948D01*
X143198693Y-59180136D01*
X142065236Y-58357745D01*
X140822044Y-57654919D01*
X140579547Y-57536506D01*
X139850103Y-57207189D01*
X139164150Y-56947058D01*
X138456617Y-56733210D01*
X137662434Y-56542739D01*
X137466240Y-56504956D01*
X136890773Y-56429418D01*
X136216433Y-56378573D01*
X135486380Y-56352750D01*
X134743776Y-56352277D01*
X134031783Y-56377484D01*
X133393561Y-56428699D01*
X132872273Y-56506250D01*
X132728974Y-56536191D01*
X131445021Y-56883894D01*
X130182477Y-57363813D01*
X128981097Y-57958858D01*
X127880633Y-58651942D01*
X127217274Y-59167707D01*
X126416768Y-59901094D01*
X125654444Y-60715056D01*
X124969421Y-61567283D01*
X124400819Y-62415466D01*
X124223903Y-62711444D01*
X100125239Y-62711444D01*
X100125239Y-36597763D01*
X162123961Y-36597763D01*
X162123961Y-99083386D01*
X100125239Y-99083386D01*
G37*
G36*
X143691874Y-115373140D02*
G01*
X143896503Y-115968076D01*
X144070114Y-116472641D01*
X144201851Y-116855271D01*
X144407795Y-117453317D01*
X144662705Y-118193982D01*
X144929870Y-118970633D01*
X145196262Y-119745382D01*
X145448857Y-120480344D01*
X145674627Y-121137633D01*
X145860546Y-121679363D01*
X145944994Y-121930649D01*
X146044336Y-122242080D01*
X146112234Y-122475062D01*
X146137380Y-122592302D01*
X146115849Y-122607093D01*
X145961851Y-122632682D01*
X145677111Y-122654574D01*
X145282351Y-122672757D01*
X144798293Y-122687216D01*
X144245657Y-122697938D01*
X143645166Y-122704910D01*
X143017541Y-122708118D01*
X142383503Y-122707548D01*
X141763775Y-122703187D01*
X141179078Y-122695021D01*
X140650133Y-122683037D01*
X140197662Y-122667221D01*
X139842386Y-122647559D01*
X139605028Y-122624038D01*
X139506308Y-122596645D01*
X139505383Y-122595372D01*
X139460265Y-122482707D01*
X139383746Y-122239868D01*
X139283462Y-121893217D01*
X139167047Y-121469117D01*
X139042136Y-120993929D01*
X138919764Y-120519925D01*
X138800205Y-120059672D01*
X138696534Y-119663456D01*
X138616881Y-119362341D01*
X138569375Y-119187387D01*
X138483004Y-118882122D01*
X132311448Y-118924600D01*
X132041292Y-120060703D01*
X132032524Y-120097555D01*
X131914637Y-120589880D01*
X131791935Y-121097404D01*
X131678433Y-121562405D01*
X131588144Y-121927156D01*
X131405151Y-122657508D01*
X128125298Y-122678729D01*
X128094743Y-122678924D01*
X127311073Y-122682028D01*
X126607504Y-122681166D01*
X125997731Y-122676558D01*
X125495452Y-122668422D01*
X125114363Y-122656978D01*
X124868159Y-122642445D01*
X124770537Y-122625042D01*
X124768736Y-122623062D01*
X124756641Y-122501666D01*
X124802428Y-122256900D01*
X124901442Y-121914045D01*
X124980297Y-121670405D01*
X125106398Y-121280923D01*
X125259002Y-120809672D01*
X125425577Y-120295355D01*
X125593587Y-119776677D01*
X125601549Y-119752096D01*
X125759432Y-119264227D01*
X125954349Y-118661226D01*
X126174306Y-117980244D01*
X126407308Y-117258428D01*
X126641358Y-116532929D01*
X126864462Y-115840894D01*
X126871587Y-115818783D01*
X127097346Y-115118847D01*
X127335548Y-114381345D01*
X127354143Y-114323843D01*
X133508310Y-114323843D01*
X133535964Y-114359167D01*
X133614483Y-114384662D01*
X133762439Y-114401931D01*
X133998405Y-114412574D01*
X134340954Y-114418193D01*
X134808658Y-114420390D01*
X135420090Y-114420766D01*
X135613570Y-114420629D01*
X136213979Y-114417633D01*
X136671356Y-114410125D01*
X137000761Y-114397324D01*
X137217254Y-114378446D01*
X137335897Y-114352708D01*
X137371751Y-114319329D01*
X137352930Y-114211522D01*
X137299933Y-113979071D01*
X137221096Y-113658464D01*
X137124766Y-113284664D01*
X137104472Y-113207479D01*
X136926049Y-112523799D01*
X136740635Y-111805199D01*
X136553005Y-111070880D01*
X136367935Y-110340045D01*
X136190201Y-109631894D01*
X136024580Y-108965630D01*
X135875847Y-108360454D01*
X135748779Y-107835567D01*
X135648151Y-107410173D01*
X135578740Y-107103471D01*
X135545322Y-106934664D01*
X135522236Y-106806049D01*
X135469567Y-106621650D01*
X135417891Y-106549201D01*
X135404226Y-106550357D01*
X135367894Y-106575874D01*
X135334020Y-106655193D01*
X135295782Y-106814960D01*
X135246355Y-107081823D01*
X135178916Y-107482428D01*
X135149569Y-107633090D01*
X135081610Y-107943180D01*
X134983731Y-108369537D01*
X134861478Y-108889515D01*
X134720401Y-109480472D01*
X134566047Y-110119763D01*
X134403964Y-110784744D01*
X134239702Y-111452771D01*
X134078808Y-112101199D01*
X133926830Y-112707386D01*
X133789317Y-113248686D01*
X133671817Y-113702456D01*
X133579878Y-114046052D01*
X133519049Y-114256830D01*
X133512949Y-114277088D01*
X133508310Y-114323843D01*
X127354143Y-114323843D01*
X127573762Y-113644692D01*
X127799561Y-112947302D01*
X128000515Y-112327587D01*
X128164195Y-111823961D01*
X128308776Y-111379472D01*
X128517909Y-110735479D01*
X128731315Y-110077323D01*
X128930790Y-109461155D01*
X129098130Y-108943131D01*
X129221328Y-108561566D01*
X129414636Y-107963953D01*
X129626232Y-107310762D01*
X129837920Y-106658156D01*
X130031504Y-106062300D01*
X130182722Y-105596868D01*
X130384581Y-104974490D01*
X130586798Y-104349988D01*
X130772489Y-103775508D01*
X130924774Y-103303195D01*
X130992089Y-103098500D01*
X131131295Y-102701703D01*
X131258989Y-102370623D01*
X131363309Y-102135126D01*
X131432393Y-102025080D01*
X131457549Y-102012198D01*
X131563948Y-101989000D01*
X131753436Y-101969865D01*
X132037328Y-101954495D01*
X132426937Y-101942590D01*
X132933578Y-101933851D01*
X133568565Y-101927980D01*
X134343211Y-101924677D01*
X135268832Y-101923642D01*
X135868941Y-101924025D01*
X136690172Y-101926324D01*
X137367725Y-101930964D01*
X137912989Y-101938251D01*
X138337357Y-101948491D01*
X138652218Y-101961989D01*
X138868964Y-101979049D01*
X138998986Y-101999978D01*
X139053674Y-102025080D01*
X139055969Y-102028014D01*
X139067156Y-102040340D01*
X139076907Y-102050442D01*
X139087803Y-102065733D01*
X139102425Y-102093628D01*
X139123355Y-102141542D01*
X139153176Y-102216889D01*
X139194468Y-102327083D01*
X139249814Y-102479539D01*
X139321795Y-102681671D01*
X139412993Y-102940894D01*
X139525989Y-103264623D01*
X139663366Y-103660271D01*
X139827706Y-104135253D01*
X140021589Y-104696984D01*
X140247598Y-105352878D01*
X140508315Y-106110349D01*
X140806320Y-106976812D01*
X141144197Y-107959682D01*
X141524526Y-109066373D01*
X141949890Y-110304298D01*
X142422869Y-111680874D01*
X142946047Y-113203514D01*
X143000416Y-113361737D01*
X143232976Y-114038408D01*
X143329549Y-114319329D01*
X143467081Y-114719397D01*
X143691874Y-115373140D01*
G37*
G36*
X106292651Y-122698083D02*
G01*
X100044089Y-122698083D01*
X100044089Y-102004792D01*
X106292651Y-102004792D01*
X106292651Y-122698083D01*
G37*
G36*
X122198083Y-122699031D02*
G01*
X115564057Y-122678270D01*
X108930031Y-122657508D01*
X108908536Y-120243290D01*
X108887041Y-117829073D01*
X112361476Y-117829073D01*
X113185594Y-117828073D01*
X113953421Y-117824456D01*
X114578786Y-117817930D01*
X115072106Y-117808208D01*
X115443800Y-117795007D01*
X115704283Y-117778044D01*
X115863974Y-117757034D01*
X115933290Y-117731693D01*
X115938894Y-117722437D01*
X115955394Y-117643734D01*
X115969980Y-117484325D01*
X115982743Y-117236793D01*
X115993776Y-116893719D01*
X116003169Y-116447686D01*
X116011013Y-115891277D01*
X116017400Y-115217075D01*
X116022421Y-114417661D01*
X116026167Y-113485620D01*
X116028730Y-112413533D01*
X116030200Y-111193983D01*
X116030670Y-109819552D01*
X116030670Y-102004792D01*
X122198083Y-102004792D01*
X122198083Y-122699031D01*
G37*
G36*
X162123961Y-122616933D02*
G01*
X148328434Y-122616933D01*
X148328434Y-117504473D01*
X149890575Y-117503063D01*
X150574374Y-117496580D01*
X151176361Y-117473539D01*
X151676501Y-117428675D01*
X152105793Y-117356702D01*
X152495240Y-117252332D01*
X152875840Y-117110279D01*
X153278594Y-116925255D01*
X153442291Y-116842237D01*
X153837092Y-116608897D01*
X154196576Y-116333652D01*
X154583926Y-115970279D01*
X154591733Y-115962456D01*
X155031274Y-115488883D01*
X155365163Y-115043888D01*
X155627533Y-114575288D01*
X155852518Y-114030900D01*
X155868463Y-113986300D01*
X156085581Y-113133233D01*
X156151135Y-112262307D01*
X156070554Y-111394586D01*
X155849266Y-110551135D01*
X155492700Y-109753017D01*
X155006284Y-109021297D01*
X154395447Y-108377040D01*
X154379032Y-108362676D01*
X153997194Y-108080487D01*
X153514903Y-107794676D01*
X152987704Y-107532948D01*
X152471143Y-107323009D01*
X152020766Y-107192565D01*
X151981720Y-107185198D01*
X151658331Y-107147601D01*
X151195768Y-107121789D01*
X150613539Y-107108544D01*
X149931150Y-107108651D01*
X148328434Y-107124200D01*
X148328434Y-101923642D01*
X162123961Y-101923642D01*
X162123961Y-122616933D01*
G37*
D11*
%TO.C,REF\u002A\u002A*%
X45508700Y-100247500D02*
X46778700Y-99612500D01*
X45508700Y-98977500D02*
X45508700Y-100247500D01*
X46905700Y-107613500D02*
X46905700Y-96691500D01*
X46778700Y-99612500D02*
X45508700Y-98977500D01*
X61104300Y-96691500D02*
X61104300Y-107613500D01*
X46905700Y-96691500D02*
X61104300Y-96691500D01*
X61104300Y-107613500D02*
X46905700Y-107613500D01*
X61104300Y-60291500D02*
X61104300Y-71213500D01*
X46905700Y-71213500D02*
X46905700Y-60291500D01*
X61104300Y-71213500D02*
X46905700Y-71213500D01*
X46905700Y-60291500D02*
X61104300Y-60291500D01*
X46778700Y-63212500D02*
X45508700Y-62577500D01*
X45508700Y-62577500D02*
X45508700Y-63847500D01*
X45508700Y-63847500D02*
X46778700Y-63212500D01*
X46728600Y-81400000D02*
X45458600Y-80765000D01*
X45458600Y-82035000D02*
X46728600Y-81400000D01*
X61054200Y-89401000D02*
X46855600Y-89401000D01*
X46855600Y-89401000D02*
X46855600Y-78479000D01*
X61054200Y-78479000D02*
X61054200Y-89401000D01*
X45458600Y-80765000D02*
X45458600Y-82035000D01*
X46855600Y-78479000D02*
X61054200Y-78479000D01*
X45508700Y-44577500D02*
X45508700Y-45847500D01*
X61104300Y-53213500D02*
X46905700Y-53213500D01*
X46778700Y-45212500D02*
X45508700Y-44577500D01*
X46905700Y-42291500D02*
X61104300Y-42291500D01*
X45508700Y-45847500D02*
X46778700Y-45212500D01*
X46905700Y-53213500D02*
X46905700Y-42291500D01*
X61104300Y-42291500D02*
X61104300Y-53213500D01*
%TD*%
M02*
