%TF.GenerationSoftware,KiCad,Pcbnew,(6.0.8-1)-1*%
%TF.CreationDate,2022-11-01T09:33:12-04:00*%
%TF.ProjectId,Untitled,556e7469-746c-4656-942e-6b696361645f,rev?*%
%TF.SameCoordinates,Original*%
%TF.FileFunction,Soldermask,Top*%
%TF.FilePolarity,Negative*%
%FSLAX46Y46*%
G04 Gerber Fmt 4.6, Leading zero omitted, Abs format (unit mm)*
G04 Created by KiCad (PCBNEW (6.0.8-1)-1) date 2022-11-01 09:33:12*
%MOMM*%
%LPD*%
G01*
G04 APERTURE LIST*
G04 Aperture macros list*
%AMRoundRect*
0 Rectangle with rounded corners*
0 $1 Rounding radius*
0 $2 $3 $4 $5 $6 $7 $8 $9 X,Y pos of 4 corners*
0 Add a 4 corners polygon primitive as box body*
4,1,4,$2,$3,$4,$5,$6,$7,$8,$9,$2,$3,0*
0 Add four circle primitives for the rounded corners*
1,1,$1+$1,$2,$3*
1,1,$1+$1,$4,$5*
1,1,$1+$1,$6,$7*
1,1,$1+$1,$8,$9*
0 Add four rect primitives between the rounded corners*
20,1,$1+$1,$2,$3,$4,$5,0*
20,1,$1+$1,$4,$5,$6,$7,0*
20,1,$1+$1,$6,$7,$8,$9,0*
20,1,$1+$1,$8,$9,$2,$3,0*%
G04 Aperture macros list end*
%ADD10RoundRect,0.237500X-0.287500X-0.237500X0.287500X-0.237500X0.287500X0.237500X-0.287500X0.237500X0*%
%ADD11RoundRect,0.087500X-0.087500X-0.337500X0.087500X-0.337500X0.087500X0.337500X-0.087500X0.337500X0*%
%ADD12RoundRect,0.250000X-0.325000X-1.100000X0.325000X-1.100000X0.325000X1.100000X-0.325000X1.100000X0*%
%ADD13R,4.300000X1.100000*%
%ADD14RoundRect,0.135000X-0.135000X-0.185000X0.135000X-0.185000X0.135000X0.185000X-0.135000X0.185000X0*%
%ADD15R,1.397000X1.397000*%
%ADD16C,1.397000*%
%ADD17R,3.500000X3.500000*%
%ADD18C,4.000000*%
G04 APERTURE END LIST*
D10*
%TO.C,REF\u002A\u002A*%
X102865000Y-55200000D03*
X104615000Y-55200000D03*
%TD*%
D11*
%TO.C,*%
X103090000Y-62700000D03*
%TD*%
D10*
%TO.C,REF\u002A\u002A*%
X150665000Y-103000000D03*
X152415000Y-103000000D03*
%TD*%
D11*
%TO.C,REF\u002A\u002A*%
X103090000Y-62700000D03*
X103740000Y-62700000D03*
X104390000Y-62700000D03*
X104390000Y-60500000D03*
X103090000Y-60500000D03*
%TD*%
D12*
%TO.C,REF\u002A\u002A*%
X66885000Y-36460000D03*
X69835000Y-36460000D03*
%TD*%
D13*
%TO.C,REF\u002A\u002A*%
X151290000Y-104710000D03*
X151290000Y-106910000D03*
%TD*%
D11*
%TO.C,REF\u002A\u002A*%
X150890000Y-62710000D03*
X151540000Y-62710000D03*
X152190000Y-62710000D03*
X152190000Y-60510000D03*
X150890000Y-60510000D03*
%TD*%
D14*
%TO.C,REF\u002A\u002A*%
X65690000Y-121400000D03*
X66710000Y-121400000D03*
%TD*%
D13*
%TO.C,REF\u002A\u002A*%
X103490000Y-104710000D03*
X103490000Y-106910000D03*
%TD*%
D12*
%TO.C,REF\u002A\u002A*%
X66885000Y-70778210D03*
X69835000Y-70778210D03*
%TD*%
D11*
%TO.C,REF\u002A\u002A*%
X103090000Y-110510000D03*
X103740000Y-110510000D03*
X104390000Y-110510000D03*
X104390000Y-108310000D03*
X103090000Y-108310000D03*
%TD*%
D15*
%TO.C,REF\u002A\u002A*%
X59250100Y-41127500D03*
D16*
X59250100Y-38587500D03*
X59250100Y-36047500D03*
%TD*%
D10*
%TO.C,REF\u002A\u002A*%
X102865000Y-103000000D03*
X104615000Y-103000000D03*
%TD*%
D17*
%TO.C,REF\u002A\u002A*%
X54200000Y-123600000D03*
D18*
X59225000Y-128625000D03*
X59225000Y-118575000D03*
X49175000Y-128625000D03*
X49175000Y-118575000D03*
%TD*%
D11*
%TO.C,*%
X103090000Y-60500000D03*
%TD*%
D12*
%TO.C,REF\u002A\u002A*%
X66697631Y-59219638D03*
X69647631Y-59219638D03*
%TD*%
D11*
%TO.C,REF\u002A\u002A*%
X150890000Y-110510000D03*
X151540000Y-110510000D03*
X152190000Y-110510000D03*
X152190000Y-108310000D03*
X150890000Y-108310000D03*
%TD*%
D12*
%TO.C,REF\u002A\u002A*%
X67331917Y-47661066D03*
X70281917Y-47661066D03*
%TD*%
D10*
%TO.C,REF\u002A\u002A*%
X150665000Y-55200000D03*
X152415000Y-55200000D03*
%TD*%
D15*
%TO.C,REF\u002A\u002A*%
X59250100Y-95587500D03*
D16*
X59250100Y-93047500D03*
X59250100Y-90507500D03*
%TD*%
D13*
%TO.C,REF\u002A\u002A*%
X151290000Y-56910000D03*
X151290000Y-59110000D03*
%TD*%
D15*
%TO.C,REF\u002A\u002A*%
X59250100Y-77387500D03*
D16*
X59250100Y-74847500D03*
X59250100Y-72307500D03*
%TD*%
D15*
%TO.C,REF\u002A\u002A*%
X59250100Y-59387500D03*
D16*
X59250100Y-56847500D03*
X59250100Y-54307500D03*
%TD*%
D13*
%TO.C,REF\u002A\u002A*%
X103490000Y-56910000D03*
X103490000Y-59110000D03*
%TD*%
D15*
%TO.C,REF\u002A\u002A*%
X59250100Y-99612500D03*
D16*
X59250100Y-102152500D03*
X59250100Y-104692500D03*
%TD*%
D15*
%TO.C,REF\u002A\u002A*%
X59250100Y-63212500D03*
D16*
X59250100Y-65752500D03*
X59250100Y-68292500D03*
%TD*%
D15*
%TO.C,REF\u002A\u002A*%
X59200000Y-81400000D03*
D16*
X59200000Y-83940000D03*
X59200000Y-86480000D03*
%TD*%
D15*
%TO.C,REF\u002A\u002A*%
X59250100Y-45212500D03*
D16*
X59250100Y-47752500D03*
X59250100Y-50292500D03*
%TD*%
M02*
