%TF.GenerationSoftware,KiCad,Pcbnew,(6.0.8-1)-1*%
%TF.CreationDate,2022-11-01T09:33:12-04:00*%
%TF.ProjectId,Untitled,556e7469-746c-4656-942e-6b696361645f,rev?*%
%TF.SameCoordinates,Original*%
%TF.FileFunction,Copper,L1,Top*%
%TF.FilePolarity,Positive*%
%FSLAX46Y46*%
G04 Gerber Fmt 4.6, Leading zero omitted, Abs format (unit mm)*
G04 Created by KiCad (PCBNEW (6.0.8-1)-1) date 2022-11-01 09:33:12*
%MOMM*%
%LPD*%
G01*
G04 APERTURE LIST*
G04 Aperture macros list*
%AMRoundRect*
0 Rectangle with rounded corners*
0 $1 Rounding radius*
0 $2 $3 $4 $5 $6 $7 $8 $9 X,Y pos of 4 corners*
0 Add a 4 corners polygon primitive as box body*
4,1,4,$2,$3,$4,$5,$6,$7,$8,$9,$2,$3,0*
0 Add four circle primitives for the rounded corners*
1,1,$1+$1,$2,$3*
1,1,$1+$1,$4,$5*
1,1,$1+$1,$6,$7*
1,1,$1+$1,$8,$9*
0 Add four rect primitives between the rounded corners*
20,1,$1+$1,$2,$3,$4,$5,0*
20,1,$1+$1,$4,$5,$6,$7,0*
20,1,$1+$1,$6,$7,$8,$9,0*
20,1,$1+$1,$8,$9,$2,$3,0*%
G04 Aperture macros list end*
%TA.AperFunction,SMDPad,CuDef*%
%ADD10RoundRect,0.237500X-0.287500X-0.237500X0.287500X-0.237500X0.287500X0.237500X-0.287500X0.237500X0*%
%TD*%
%TA.AperFunction,SMDPad,CuDef*%
%ADD11RoundRect,0.087500X-0.087500X-0.337500X0.087500X-0.337500X0.087500X0.337500X-0.087500X0.337500X0*%
%TD*%
%TA.AperFunction,SMDPad,CuDef*%
%ADD12RoundRect,0.250000X-0.325000X-1.100000X0.325000X-1.100000X0.325000X1.100000X-0.325000X1.100000X0*%
%TD*%
%TA.AperFunction,SMDPad,CuDef*%
%ADD13R,4.300000X1.100000*%
%TD*%
%TA.AperFunction,SMDPad,CuDef*%
%ADD14RoundRect,0.135000X-0.135000X-0.185000X0.135000X-0.185000X0.135000X0.185000X-0.135000X0.185000X0*%
%TD*%
%TA.AperFunction,ComponentPad*%
%ADD15R,1.397000X1.397000*%
%TD*%
%TA.AperFunction,ComponentPad*%
%ADD16C,1.397000*%
%TD*%
%TA.AperFunction,ComponentPad*%
%ADD17R,3.500000X3.500000*%
%TD*%
%TA.AperFunction,ComponentPad*%
%ADD18C,4.000000*%
%TD*%
%TA.AperFunction,ViaPad*%
%ADD19C,0.800000*%
%TD*%
%TA.AperFunction,Conductor*%
%ADD20C,0.250000*%
%TD*%
%TA.AperFunction,Conductor*%
%ADD21C,0.200000*%
%TD*%
G04 APERTURE END LIST*
D10*
%TO.P,REF\u002A\u002A,1*%
%TO.N,N/C*%
X102865000Y-55200000D03*
%TO.P,REF\u002A\u002A,2*%
X104615000Y-55200000D03*
%TD*%
D11*
%TO.P,,1*%
%TO.N,N/C*%
X103090000Y-62700000D03*
%TD*%
D10*
%TO.P,REF\u002A\u002A,1*%
%TO.N,N/C*%
X150665000Y-103000000D03*
%TO.P,REF\u002A\u002A,2*%
X152415000Y-103000000D03*
%TD*%
D11*
%TO.P,REF\u002A\u002A,1*%
%TO.N,N/C*%
X103090000Y-62700000D03*
%TO.P,REF\u002A\u002A,2*%
X103740000Y-62700000D03*
%TO.P,REF\u002A\u002A,3*%
X104390000Y-62700000D03*
%TO.P,REF\u002A\u002A,4*%
X104390000Y-60500000D03*
%TO.P,REF\u002A\u002A,5*%
X103090000Y-60500000D03*
%TD*%
D12*
%TO.P,REF\u002A\u002A,1*%
%TO.N,N/C*%
X66885000Y-36460000D03*
%TO.P,REF\u002A\u002A,2*%
X69835000Y-36460000D03*
%TD*%
D13*
%TO.P,REF\u002A\u002A,1*%
%TO.N,N/C*%
X151290000Y-104710000D03*
%TO.P,REF\u002A\u002A,2*%
X151290000Y-106910000D03*
%TD*%
D11*
%TO.P,REF\u002A\u002A,1*%
%TO.N,N/C*%
X150890000Y-62710000D03*
%TO.P,REF\u002A\u002A,2*%
X151540000Y-62710000D03*
%TO.P,REF\u002A\u002A,3*%
X152190000Y-62710000D03*
%TO.P,REF\u002A\u002A,4*%
X152190000Y-60510000D03*
%TO.P,REF\u002A\u002A,5*%
X150890000Y-60510000D03*
%TD*%
D14*
%TO.P,REF\u002A\u002A,1*%
%TO.N,N/C*%
X65690000Y-121400000D03*
%TO.P,REF\u002A\u002A,2*%
X66710000Y-121400000D03*
%TD*%
D13*
%TO.P,REF\u002A\u002A,1*%
%TO.N,N/C*%
X103490000Y-104710000D03*
%TO.P,REF\u002A\u002A,2*%
X103490000Y-106910000D03*
%TD*%
D12*
%TO.P,REF\u002A\u002A,1*%
%TO.N,N/C*%
X66885000Y-70778210D03*
%TO.P,REF\u002A\u002A,2*%
X69835000Y-70778210D03*
%TD*%
D11*
%TO.P,REF\u002A\u002A,1*%
%TO.N,N/C*%
X103090000Y-110510000D03*
%TO.P,REF\u002A\u002A,2*%
X103740000Y-110510000D03*
%TO.P,REF\u002A\u002A,3*%
X104390000Y-110510000D03*
%TO.P,REF\u002A\u002A,4*%
X104390000Y-108310000D03*
%TO.P,REF\u002A\u002A,5*%
X103090000Y-108310000D03*
%TD*%
D15*
%TO.P,REF\u002A\u002A,1*%
%TO.N,N/C*%
X59250100Y-41127500D03*
D16*
%TO.P,REF\u002A\u002A,2*%
X59250100Y-38587500D03*
%TO.P,REF\u002A\u002A,3*%
X59250100Y-36047500D03*
%TD*%
D10*
%TO.P,REF\u002A\u002A,1*%
%TO.N,N/C*%
X102865000Y-103000000D03*
%TO.P,REF\u002A\u002A,2*%
X104615000Y-103000000D03*
%TD*%
D17*
%TO.P,REF\u002A\u002A,1*%
%TO.N,N/C*%
X54200000Y-123600000D03*
D18*
%TO.P,REF\u002A\u002A,2*%
X59225000Y-128625000D03*
X59225000Y-118575000D03*
X49175000Y-128625000D03*
X49175000Y-118575000D03*
%TD*%
D11*
%TO.P,,5*%
%TO.N,N/C*%
X103090000Y-60500000D03*
%TD*%
D12*
%TO.P,REF\u002A\u002A,1*%
%TO.N,N/C*%
X66697631Y-59219638D03*
%TO.P,REF\u002A\u002A,2*%
X69647631Y-59219638D03*
%TD*%
D11*
%TO.P,REF\u002A\u002A,1*%
%TO.N,N/C*%
X150890000Y-110510000D03*
%TO.P,REF\u002A\u002A,2*%
X151540000Y-110510000D03*
%TO.P,REF\u002A\u002A,3*%
X152190000Y-110510000D03*
%TO.P,REF\u002A\u002A,4*%
X152190000Y-108310000D03*
%TO.P,REF\u002A\u002A,5*%
X150890000Y-108310000D03*
%TD*%
D12*
%TO.P,REF\u002A\u002A,1*%
%TO.N,N/C*%
X67331917Y-47661066D03*
%TO.P,REF\u002A\u002A,2*%
X70281917Y-47661066D03*
%TD*%
D10*
%TO.P,REF\u002A\u002A,1*%
%TO.N,N/C*%
X150665000Y-55200000D03*
%TO.P,REF\u002A\u002A,2*%
X152415000Y-55200000D03*
%TD*%
D15*
%TO.P,REF\u002A\u002A,1*%
%TO.N,N/C*%
X59250100Y-95587500D03*
D16*
%TO.P,REF\u002A\u002A,2*%
X59250100Y-93047500D03*
%TO.P,REF\u002A\u002A,3*%
X59250100Y-90507500D03*
%TD*%
D13*
%TO.P,REF\u002A\u002A,1*%
%TO.N,N/C*%
X151290000Y-56910000D03*
%TO.P,REF\u002A\u002A,2*%
X151290000Y-59110000D03*
%TD*%
D15*
%TO.P,REF\u002A\u002A,1*%
%TO.N,N/C*%
X59250100Y-77387500D03*
D16*
%TO.P,REF\u002A\u002A,2*%
X59250100Y-74847500D03*
%TO.P,REF\u002A\u002A,3*%
X59250100Y-72307500D03*
%TD*%
D15*
%TO.P,REF\u002A\u002A,1*%
%TO.N,N/C*%
X59250100Y-59387500D03*
D16*
%TO.P,REF\u002A\u002A,2*%
X59250100Y-56847500D03*
%TO.P,REF\u002A\u002A,3*%
X59250100Y-54307500D03*
%TD*%
D13*
%TO.P,REF\u002A\u002A,1*%
%TO.N,N/C*%
X103490000Y-56910000D03*
%TO.P,REF\u002A\u002A,2*%
X103490000Y-59110000D03*
%TD*%
D15*
%TO.P,REF\u002A\u002A,1*%
%TO.N,N/C*%
X59250100Y-99612500D03*
D16*
%TO.P,REF\u002A\u002A,2*%
X59250100Y-102152500D03*
%TO.P,REF\u002A\u002A,3*%
X59250100Y-104692500D03*
%TD*%
D15*
%TO.P,REF\u002A\u002A,1*%
%TO.N,N/C*%
X59250100Y-63212500D03*
D16*
%TO.P,REF\u002A\u002A,2*%
X59250100Y-65752500D03*
%TO.P,REF\u002A\u002A,3*%
X59250100Y-68292500D03*
%TD*%
D15*
%TO.P,REF\u002A\u002A,1*%
%TO.N,N/C*%
X59200000Y-81400000D03*
D16*
%TO.P,REF\u002A\u002A,2*%
X59200000Y-83940000D03*
%TO.P,REF\u002A\u002A,3*%
X59200000Y-86480000D03*
%TD*%
D15*
%TO.P,REF\u002A\u002A,1*%
%TO.N,N/C*%
X59250100Y-45212500D03*
D16*
%TO.P,REF\u002A\u002A,2*%
X59250100Y-47752500D03*
%TO.P,REF\u002A\u002A,3*%
X59250100Y-50292500D03*
%TD*%
D19*
%TO.N,*%
X72000000Y-47542018D03*
X105490000Y-62710000D03*
X71000000Y-52800000D03*
X103000000Y-109200000D03*
X150890000Y-61510000D03*
X105580000Y-108220000D03*
X69800000Y-41637506D03*
X153290000Y-110310000D03*
X105290000Y-60510000D03*
X71000000Y-70800000D03*
X73912631Y-64480000D03*
X72000000Y-36400000D03*
X103110000Y-61690000D03*
X71400000Y-59101542D03*
X74100000Y-76080000D03*
X153000000Y-60600000D03*
X153000000Y-62600000D03*
X105780000Y-110420000D03*
X153290000Y-108310000D03*
X150800000Y-109400000D03*
%TD*%
D20*
%TO.N,*%
X64445000Y-120155000D02*
X65690000Y-121400000D01*
X64445000Y-120155000D02*
X61000000Y-123600000D01*
X61000000Y-123600000D02*
X54200000Y-123600000D01*
X85800000Y-115600000D02*
X76900000Y-124500000D01*
X74975000Y-128625000D02*
X59225000Y-128625000D01*
X76900000Y-124500000D02*
X76900000Y-126700000D01*
X76900000Y-126700000D02*
X74975000Y-128625000D01*
X75200000Y-121400000D02*
X83400000Y-113200000D01*
X107000000Y-64400000D02*
X107600000Y-63800000D01*
X165800000Y-115600000D02*
X165800000Y-53400000D01*
X156110000Y-104710000D02*
X151290000Y-104710000D01*
X104815000Y-55200000D02*
X115600000Y-55200000D01*
X66320000Y-52880000D02*
X86331565Y-52880000D01*
X158800000Y-59800000D02*
X152600000Y-66000000D01*
X115600000Y-55200000D02*
X150665000Y-90265000D01*
X88380000Y-70940000D02*
X107340000Y-70940000D01*
X103090000Y-109110000D02*
X103090000Y-108310000D01*
D21*
X150890000Y-60510000D02*
X150890000Y-61510000D01*
D20*
X65200000Y-47800000D02*
X67192983Y-47800000D01*
X74537506Y-39097506D02*
X75030000Y-39590000D01*
X72000000Y-36400000D02*
X71940000Y-36460000D01*
X92741565Y-50340000D02*
X66540000Y-50340000D01*
D21*
X149600000Y-64000000D02*
X153200000Y-64000000D01*
D20*
X152415000Y-103000000D02*
X156800000Y-103000000D01*
X165800000Y-53400000D02*
X157000000Y-44600000D01*
X152215000Y-55200000D02*
X154800000Y-55200000D01*
X59250100Y-59387500D02*
X59812500Y-59387500D01*
X96000000Y-112200000D02*
X110200000Y-112200000D01*
X120000000Y-113200000D02*
X109800000Y-103000000D01*
X66821790Y-70778210D02*
X63400000Y-74200000D01*
D21*
X152190000Y-62710000D02*
X152890000Y-62710000D01*
X150890000Y-61510000D02*
X150890000Y-62710000D01*
D20*
X74970000Y-39590000D02*
X75870000Y-38690000D01*
X147400000Y-66000000D02*
X125200000Y-43800000D01*
X104390000Y-108310000D02*
X104510000Y-108190000D01*
D21*
X155400000Y-61800000D02*
X155400000Y-57800000D01*
D20*
X83041068Y-85358932D02*
X82590000Y-85810000D01*
D21*
X150800000Y-109400000D02*
X150890000Y-109310000D01*
D20*
X148600000Y-112200000D02*
X153600000Y-112200000D01*
X87381068Y-73540000D02*
X87381068Y-76018932D01*
X156200000Y-113200000D02*
X130400000Y-113200000D01*
X103490000Y-59110000D02*
X100490000Y-59110000D01*
X59412500Y-77387500D02*
X62800000Y-74000000D01*
D21*
X86000000Y-64000000D02*
X89000000Y-67000000D01*
D20*
X125200000Y-43800000D02*
X97600000Y-43800000D01*
X103000000Y-110420000D02*
X103090000Y-110510000D01*
X83480000Y-66040000D02*
X88380000Y-70940000D01*
X65520000Y-66880000D02*
X65520000Y-64480000D01*
D21*
X150890000Y-109490000D02*
X150890000Y-110510000D01*
D20*
X92804648Y-50204648D02*
X92800000Y-50200000D01*
X65000000Y-74080000D02*
X65540000Y-73540000D01*
X102600000Y-115600000D02*
X85800000Y-115600000D01*
X66710000Y-121400000D02*
X75200000Y-121400000D01*
X65200000Y-47800000D02*
X65200000Y-48357600D01*
X92804648Y-51404648D02*
X92804648Y-50204648D01*
D21*
X100710000Y-106910000D02*
X97981068Y-104181068D01*
D20*
X97600000Y-49735000D02*
X103065000Y-55200000D01*
X72000000Y-47542018D02*
X71880952Y-47661066D01*
D21*
X148710000Y-106910000D02*
X151290000Y-106910000D01*
X153200000Y-64000000D02*
X155400000Y-61800000D01*
X89000000Y-67000000D02*
X108800000Y-67000000D01*
D20*
X128490000Y-38690000D02*
X128800000Y-39000000D01*
X70978210Y-70778210D02*
X69835000Y-70778210D01*
X62800000Y-69600000D02*
X65520000Y-66880000D01*
D21*
X151290000Y-59110000D02*
X148910000Y-59110000D01*
D20*
X59250100Y-74847500D02*
X61000000Y-73097600D01*
X112800000Y-109600000D02*
X112800000Y-108600000D01*
D21*
X154510000Y-56910000D02*
X151290000Y-56910000D01*
X150800000Y-109400000D02*
X150890000Y-109490000D01*
D20*
X71880952Y-47661066D02*
X70281917Y-47661066D01*
D21*
X97981068Y-104181068D02*
X97981068Y-86581068D01*
D20*
X61000000Y-70200000D02*
X63340000Y-67860000D01*
X130400000Y-113200000D02*
X127400000Y-113200000D01*
X86331565Y-53881565D02*
X96850000Y-64400000D01*
X59250100Y-71149900D02*
X62000000Y-68400000D01*
X103110000Y-62570000D02*
X103110000Y-61690000D01*
D21*
X150890000Y-62710000D02*
X151540000Y-62710000D01*
D20*
X63400000Y-86357600D02*
X59250100Y-90507500D01*
X112800000Y-108600000D02*
X108910000Y-104710000D01*
X67192983Y-47800000D02*
X67331917Y-47661066D01*
X59250100Y-93047500D02*
X65000000Y-87297600D01*
X71400000Y-59101542D02*
X71281904Y-59219638D01*
X83480000Y-64480000D02*
X83480000Y-66040000D01*
X96850000Y-64400000D02*
X107000000Y-64400000D01*
D21*
X148910000Y-59110000D02*
X128800000Y-39000000D01*
D20*
X107510000Y-56910000D02*
X103490000Y-56910000D01*
D21*
X152890000Y-62710000D02*
X153000000Y-62600000D01*
D20*
X65757600Y-50340000D02*
X66540000Y-50340000D01*
X66787494Y-36557506D02*
X66885000Y-36460000D01*
X87381068Y-76018932D02*
X97943204Y-86581068D01*
X104510000Y-110390000D02*
X105750000Y-110390000D01*
X61000000Y-73097600D02*
X61000000Y-70200000D01*
X100490000Y-59090000D02*
X92804648Y-51404648D01*
X85524421Y-61940000D02*
X85524421Y-63524421D01*
X153600000Y-112200000D02*
X158600000Y-107200000D01*
X67720000Y-76080000D02*
X83041068Y-76080000D01*
X154800000Y-55200000D02*
X158800000Y-59200000D01*
X75870000Y-38690000D02*
X128490000Y-38690000D01*
X103000000Y-109200000D02*
X103000000Y-110420000D01*
X104410000Y-60480000D02*
X105260000Y-60480000D01*
X158800000Y-59200000D02*
X158800000Y-59800000D01*
X161600000Y-107800000D02*
X156200000Y-113200000D01*
X157000000Y-44600000D02*
X153200000Y-44600000D01*
D21*
X152190000Y-110510000D02*
X153090000Y-110510000D01*
X152190000Y-60510000D02*
X152910000Y-60510000D01*
D20*
X65200000Y-48357600D02*
X59250100Y-54307500D01*
X83041068Y-76080000D02*
X83041068Y-85358932D01*
X62800000Y-74000000D02*
X62800000Y-69600000D01*
X71000000Y-70800000D02*
X70978210Y-70778210D01*
X145800000Y-52000000D02*
X149000000Y-55200000D01*
X66885000Y-70778210D02*
X66663210Y-71000000D01*
D21*
X150890000Y-109310000D02*
X150890000Y-108310000D01*
D20*
X104510000Y-108190000D02*
X105550000Y-108190000D01*
X85524421Y-61940000D02*
X63340000Y-61940000D01*
D21*
X155400000Y-57800000D02*
X154510000Y-56910000D01*
X85800000Y-63800000D02*
X86000000Y-64000000D01*
D20*
X109800000Y-103000000D02*
X104615000Y-103000000D01*
X103110000Y-61690000D02*
X103110000Y-60540000D01*
X67720000Y-77480000D02*
X67720000Y-76080000D01*
X156800000Y-103000000D02*
X161600000Y-107800000D01*
X83480000Y-64480000D02*
X83504421Y-64480000D01*
X153200000Y-44600000D02*
X145800000Y-52000000D01*
X59812500Y-59387500D02*
X66320000Y-52880000D01*
X103000000Y-109200000D02*
X103090000Y-109110000D01*
X152600000Y-66000000D02*
X147400000Y-66000000D01*
X65540000Y-73540000D02*
X87381068Y-73540000D01*
D21*
X127230000Y-41630000D02*
X149600000Y-64000000D01*
D20*
X104410000Y-62680000D02*
X105460000Y-62680000D01*
X83400000Y-113200000D02*
X120000000Y-113200000D01*
X107600000Y-63800000D02*
X107600000Y-57000000D01*
X102600000Y-115600000D02*
X165800000Y-115600000D01*
X110200000Y-112200000D02*
X112800000Y-109600000D01*
X101600000Y-99000000D02*
X101600000Y-101735000D01*
X59250100Y-56847500D02*
X65757600Y-50340000D01*
X71281904Y-59219638D02*
X69647631Y-59219638D01*
X100490000Y-59110000D02*
X100490000Y-59090000D01*
X101600000Y-101735000D02*
X102865000Y-103000000D01*
X59270100Y-39097506D02*
X74537506Y-39097506D01*
D21*
X152910000Y-60510000D02*
X153000000Y-60600000D01*
D20*
X127400000Y-113200000D02*
X107400000Y-93200000D01*
D21*
X153090000Y-110510000D02*
X153290000Y-110310000D01*
D20*
X103760000Y-62570000D02*
X103110000Y-62570000D01*
X97943204Y-86581068D02*
X97981068Y-86581068D01*
X65520000Y-64480000D02*
X83480000Y-64480000D01*
D21*
X150890000Y-110510000D02*
X151540000Y-110510000D01*
D20*
X59250100Y-95587500D02*
X65800000Y-89037600D01*
X82590000Y-85810000D02*
X96000000Y-99220000D01*
X96000000Y-99220000D02*
X96000000Y-112200000D01*
X65000000Y-87297600D02*
X65000000Y-74080000D01*
D21*
X152390000Y-108310000D02*
X153290000Y-108310000D01*
D20*
X150665000Y-90265000D02*
X150665000Y-103000000D01*
X107340000Y-70940000D02*
X148600000Y-112200000D01*
D21*
X103490000Y-106910000D02*
X100710000Y-106910000D01*
X59270100Y-41630000D02*
X127230000Y-41630000D01*
D20*
X63340000Y-67860000D02*
X63340000Y-61940000D01*
X86331565Y-52880000D02*
X86331565Y-53881565D01*
X103090000Y-110510000D02*
X103820000Y-110510000D01*
X96200000Y-115600000D02*
X102600000Y-115600000D01*
X107600000Y-57000000D02*
X107510000Y-56910000D01*
X149000000Y-55200000D02*
X150000000Y-55200000D01*
X104390000Y-110510000D02*
X104510000Y-110390000D01*
X62000000Y-59400000D02*
X66517269Y-59400000D01*
X59250100Y-77387500D02*
X59412500Y-77387500D01*
D21*
X108800000Y-67000000D02*
X148710000Y-106910000D01*
D20*
X97600000Y-43800000D02*
X97600000Y-49735000D01*
X59250100Y-72307500D02*
X59250100Y-71149900D01*
X65800000Y-89037600D02*
X65800000Y-79400000D01*
X65800000Y-79400000D02*
X67720000Y-77480000D01*
X66885000Y-70778210D02*
X66821790Y-70778210D01*
X85524421Y-63524421D02*
X86000000Y-64000000D01*
X71940000Y-36460000D02*
X69835000Y-36460000D01*
X158600000Y-107200000D02*
X156110000Y-104710000D01*
X63400000Y-74200000D02*
X63400000Y-86357600D01*
X59270100Y-36557506D02*
X66787494Y-36557506D01*
X62000000Y-68400000D02*
X62000000Y-59400000D01*
X107400000Y-93200000D02*
X101600000Y-99000000D01*
X108910000Y-104710000D02*
X103490000Y-104710000D01*
%TD*%
M02*
