%TF.GenerationSoftware,KiCad,Pcbnew,(6.0.8-1)-1*%
%TF.CreationDate,2023-09-14T11:54:12-04:00*%
%TF.ProjectId,Untitled,556e7469-746c-4656-942e-6b696361645f,rev?*%
%TF.SameCoordinates,Original*%
%TF.FileFunction,Copper,L2,Bot*%
%TF.FilePolarity,Positive*%
%FSLAX46Y46*%
G04 Gerber Fmt 4.6, Leading zero omitted, Abs format (unit mm)*
G04 Created by KiCad (PCBNEW (6.0.8-1)-1) date 2023-09-14 11:54:12*
%MOMM*%
%LPD*%
G01*
G04 APERTURE LIST*
%TA.AperFunction,ComponentPad*%
%ADD10R,1.397000X1.397000*%
%TD*%
%TA.AperFunction,ComponentPad*%
%ADD11C,1.397000*%
%TD*%
%TA.AperFunction,ComponentPad*%
%ADD12R,3.500000X3.500000*%
%TD*%
%TA.AperFunction,ComponentPad*%
%ADD13C,4.000000*%
%TD*%
%TA.AperFunction,ViaPad*%
%ADD14C,0.800000*%
%TD*%
%TA.AperFunction,Conductor*%
%ADD15C,0.250000*%
%TD*%
%TA.AperFunction,Conductor*%
%ADD16C,0.200000*%
%TD*%
G04 APERTURE END LIST*
D10*
%TO.P,REF\u002A\u002A,1*%
%TO.N,N/C*%
X59250100Y-41127500D03*
D11*
%TO.P,REF\u002A\u002A,2*%
X59250100Y-38587500D03*
%TO.P,REF\u002A\u002A,3*%
X59250100Y-36047500D03*
%TD*%
D12*
%TO.P,LEDs,1*%
%TO.N,N/C*%
X54200000Y-123600000D03*
D13*
%TO.P,LEDs,2*%
X59225000Y-128625000D03*
X59225000Y-118575000D03*
X49175000Y-128625000D03*
X49175000Y-118575000D03*
%TD*%
D10*
%TO.P,REF\u002A\u002A,1*%
%TO.N,N/C*%
X59250100Y-95587500D03*
D11*
%TO.P,REF\u002A\u002A,2*%
X59250100Y-93047500D03*
%TO.P,REF\u002A\u002A,3*%
X59250100Y-90507500D03*
%TD*%
D10*
%TO.P,REF\u002A\u002A,1*%
%TO.N,N/C*%
X59250100Y-77387500D03*
D11*
%TO.P,REF\u002A\u002A,2*%
X59250100Y-74847500D03*
%TO.P,REF\u002A\u002A,3*%
X59250100Y-72307500D03*
%TD*%
D10*
%TO.P,REF\u002A\u002A,1*%
%TO.N,N/C*%
X59250100Y-59387500D03*
D11*
%TO.P,REF\u002A\u002A,2*%
X59250100Y-56847500D03*
%TO.P,REF\u002A\u002A,3*%
X59250100Y-54307500D03*
%TD*%
D10*
%TO.P,REF\u002A\u002A,1*%
%TO.N,N/C*%
X59250100Y-99612500D03*
D11*
%TO.P,REF\u002A\u002A,2*%
X59250100Y-102152500D03*
%TO.P,REF\u002A\u002A,3*%
X59250100Y-104692500D03*
%TD*%
D10*
%TO.P,REF\u002A\u002A,1*%
%TO.N,N/C*%
X59250100Y-63212500D03*
D11*
%TO.P,REF\u002A\u002A,2*%
X59250100Y-65752500D03*
%TO.P,REF\u002A\u002A,3*%
X59250100Y-68292500D03*
%TD*%
D10*
%TO.P,REF\u002A\u002A,1*%
%TO.N,N/C*%
X59200000Y-81400000D03*
D11*
%TO.P,REF\u002A\u002A,2*%
X59200000Y-83940000D03*
%TO.P,REF\u002A\u002A,3*%
X59200000Y-86480000D03*
%TD*%
D10*
%TO.P,REF\u002A\u002A,1*%
%TO.N,N/C*%
X59250100Y-45212500D03*
D11*
%TO.P,REF\u002A\u002A,2*%
X59250100Y-47752500D03*
%TO.P,REF\u002A\u002A,3*%
X59250100Y-50292500D03*
%TD*%
D14*
%TO.N,*%
X70000000Y-54300000D03*
X70200000Y-59100000D03*
X78300000Y-126700000D03*
X64550000Y-65750000D03*
X148590000Y-106910000D03*
X66900000Y-48900000D03*
X77400000Y-96400000D03*
X101800000Y-103000000D03*
X101800000Y-55200000D03*
X66700000Y-100950000D03*
X66800000Y-64500000D03*
X77100000Y-59100000D03*
X78000000Y-101000000D03*
X100890000Y-59110000D03*
X153990000Y-56910000D03*
X66600000Y-66800000D03*
X66100000Y-41637506D03*
X149600000Y-103000000D03*
X106190000Y-56910000D03*
X77212500Y-77387500D03*
X77510000Y-38690000D03*
X153600000Y-103000000D03*
X150850000Y-60250000D03*
X77470000Y-41630000D03*
X69700000Y-92700000D03*
X77100000Y-74500000D03*
X68800000Y-77400000D03*
X66700000Y-85100000D03*
X69700000Y-36600000D03*
X66700000Y-82900000D03*
X153700000Y-55200000D03*
X64800000Y-47800000D03*
X68800000Y-72600000D03*
X105900000Y-103000000D03*
X64700000Y-84000000D03*
X149500000Y-55200000D03*
X70600000Y-98000000D03*
X67000000Y-46700000D03*
X66700000Y-103150000D03*
X100890000Y-106910000D03*
X105800000Y-55200000D03*
X77050000Y-53050000D03*
X106090000Y-104710000D03*
X64750000Y-102100000D03*
X153990000Y-104710000D03*
X78200000Y-120000000D03*
%TD*%
D15*
%TO.N,*%
X66200000Y-45800000D02*
X61202600Y-45800000D01*
X157000000Y-44600000D02*
X165800000Y-53400000D01*
X125890000Y-106910000D02*
X148590000Y-106910000D01*
X62220000Y-86480000D02*
X64700000Y-84000000D01*
X59200000Y-86480000D02*
X57480000Y-86480000D01*
X114700000Y-110300000D02*
X122500000Y-110300000D01*
D16*
X62600000Y-101400000D02*
X64000000Y-100000000D01*
X59250100Y-45212500D02*
X67612500Y-45212500D01*
X61140000Y-82000000D02*
X65800000Y-82000000D01*
D15*
X51600000Y-39490000D02*
X54532494Y-36557506D01*
X68800000Y-77400000D02*
X68800000Y-72600000D01*
D16*
X59250100Y-50292500D02*
X61207500Y-50292500D01*
X105800000Y-55200000D02*
X149500000Y-55200000D01*
D15*
X112800000Y-108600000D02*
X108910000Y-104710000D01*
X117700000Y-112200000D02*
X113400000Y-116500000D01*
D16*
X62987500Y-99612500D02*
X67512500Y-99612500D01*
X155400000Y-60300000D02*
X155400000Y-57800000D01*
X57307500Y-54307500D02*
X59250100Y-54307500D01*
D15*
X59250100Y-104692500D02*
X59250100Y-118549900D01*
X149400000Y-120000000D02*
X161200000Y-108200000D01*
X66200000Y-45900000D02*
X67000000Y-46700000D01*
X70000000Y-54300000D02*
X70000000Y-58900000D01*
X96900000Y-55400000D02*
X100610000Y-59110000D01*
D16*
X101800000Y-55200000D02*
X100700000Y-55200000D01*
D15*
X77050000Y-53050000D02*
X88250000Y-53050000D01*
X96850000Y-64400000D02*
X106200000Y-64400000D01*
X93050000Y-99150000D02*
X98400000Y-104500000D01*
X101600000Y-99000000D02*
X112000000Y-88600000D01*
D16*
X59200000Y-83940000D02*
X61140000Y-82000000D01*
D15*
X77100000Y-59100000D02*
X91550000Y-59100000D01*
X108910000Y-104710000D02*
X106090000Y-104710000D01*
X56000000Y-104600000D02*
X56092500Y-104692500D01*
X54507500Y-72307500D02*
X59250100Y-72307500D01*
X70600000Y-96000000D02*
X70600000Y-98000000D01*
X51600000Y-72800000D02*
X51600000Y-47800000D01*
X86250000Y-109250000D02*
X78000000Y-101000000D01*
X93050000Y-83550000D02*
X84000000Y-74500000D01*
X106900000Y-60700000D02*
X98700000Y-60700000D01*
D16*
X67512500Y-99612500D02*
X68100000Y-100200000D01*
D15*
X62007500Y-104692500D02*
X64750000Y-101950000D01*
D16*
X100710000Y-106910000D02*
X97981068Y-104181068D01*
D15*
X81110000Y-39610000D02*
X81110000Y-38690000D01*
X106200000Y-64400000D02*
X151300000Y-64400000D01*
D16*
X99100000Y-52200000D02*
X99582500Y-51717500D01*
D15*
X52100000Y-73300000D02*
X52100000Y-75050000D01*
X107510000Y-56910000D02*
X107600000Y-57000000D01*
X165700000Y-126700000D02*
X78300000Y-126700000D01*
D16*
X61407500Y-68292500D02*
X59250100Y-68292500D01*
D15*
X158800000Y-59800000D02*
X130000000Y-88600000D01*
D16*
X67112500Y-63212500D02*
X59250100Y-63212500D01*
D15*
X98700000Y-60700000D02*
X79630000Y-41630000D01*
X153600000Y-103000000D02*
X156800000Y-103000000D01*
X59250100Y-104692500D02*
X62007500Y-104692500D01*
X86250000Y-111950000D02*
X86250000Y-109250000D01*
X154800000Y-55200000D02*
X158800000Y-59200000D01*
X124800000Y-43800000D02*
X97600000Y-43800000D01*
D16*
X67650000Y-103150000D02*
X66700000Y-103150000D01*
D15*
X91550000Y-59100000D02*
X96850000Y-64400000D01*
X95600000Y-113500000D02*
X111500000Y-113500000D01*
D16*
X66800000Y-64100000D02*
X66800000Y-64500000D01*
D15*
X122500000Y-110300000D02*
X125890000Y-106910000D01*
X51600000Y-47800000D02*
X51600000Y-39490000D01*
X153700000Y-55200000D02*
X154800000Y-55200000D01*
X77400000Y-96400000D02*
X78500000Y-96400000D01*
X97600000Y-49735000D02*
X99582500Y-51717500D01*
X165800000Y-115600000D02*
X165700000Y-115700000D01*
X57480000Y-86480000D02*
X53600000Y-82600000D01*
X54732500Y-70907500D02*
X57347500Y-68292500D01*
D16*
X66600000Y-66800000D02*
X67100000Y-66800000D01*
D15*
X148600000Y-62500000D02*
X150850000Y-60250000D01*
X66200000Y-45800000D02*
X66200000Y-45900000D01*
X78500000Y-96400000D02*
X95600000Y-113500000D01*
D16*
X66400000Y-63700000D02*
X66800000Y-64100000D01*
D15*
X70000000Y-58900000D02*
X70200000Y-59100000D01*
X125200000Y-43800000D02*
X124800000Y-43800000D01*
X69700000Y-36600000D02*
X67000000Y-39300000D01*
X56200000Y-100400000D02*
X56200000Y-104400000D01*
D16*
X100700000Y-55200000D02*
X99100000Y-53600000D01*
D15*
X158600000Y-107200000D02*
X153600000Y-112200000D01*
D16*
X63600000Y-63700000D02*
X66400000Y-63700000D01*
X62987500Y-99612500D02*
X63112500Y-99612500D01*
X59250100Y-65752500D02*
X61547500Y-65752500D01*
D15*
X124800000Y-43800000D02*
X125600000Y-44600000D01*
X153990000Y-104710000D02*
X156110000Y-104710000D01*
X112200000Y-110200000D02*
X112800000Y-109600000D01*
X54200000Y-91400000D02*
X54200000Y-98400000D01*
D16*
X61207500Y-50292500D02*
X63700000Y-47800000D01*
D15*
X77510000Y-38690000D02*
X81110000Y-38690000D01*
D16*
X66700000Y-85100000D02*
X67300000Y-85100000D01*
X77470000Y-41630000D02*
X78570000Y-41630000D01*
D15*
X69700000Y-92700000D02*
X69700000Y-95100000D01*
D16*
X64000000Y-100000000D02*
X66500000Y-100000000D01*
D15*
X161600000Y-107800000D02*
X156200000Y-113200000D01*
D16*
X59250100Y-99612500D02*
X62987500Y-99612500D01*
D15*
X101600000Y-102900000D02*
X101600000Y-99000000D01*
D16*
X56200000Y-51200000D02*
X55200000Y-52200000D01*
X67300000Y-85100000D02*
X68100000Y-84300000D01*
X59250100Y-50292500D02*
X57107500Y-50292500D01*
D15*
X59250100Y-90507500D02*
X59250100Y-86530100D01*
X79630000Y-41630000D02*
X78570000Y-41630000D01*
X112000000Y-88600000D02*
X130000000Y-88600000D01*
X90800000Y-116500000D02*
X86250000Y-111950000D01*
X151300000Y-64400000D02*
X153100000Y-62600000D01*
X158800000Y-59200000D02*
X158800000Y-59800000D01*
D16*
X64550000Y-65750000D02*
X63950000Y-65750000D01*
D15*
X101800000Y-103000000D02*
X101700000Y-103000000D01*
X153600000Y-112200000D02*
X117700000Y-112200000D01*
X100610000Y-59110000D02*
X100890000Y-59110000D01*
D16*
X59250100Y-102152500D02*
X60002600Y-101400000D01*
X68100000Y-84300000D02*
X68100000Y-82900000D01*
D15*
X156800000Y-103000000D02*
X161600000Y-107800000D01*
X80900000Y-78800000D02*
X80900000Y-94100000D01*
X59250100Y-118549900D02*
X59225000Y-118575000D01*
X97700000Y-62500000D02*
X148600000Y-62500000D01*
X165800000Y-53400000D02*
X165800000Y-115600000D01*
X84000000Y-74500000D02*
X77100000Y-74500000D01*
X113400000Y-116500000D02*
X90800000Y-116500000D01*
D16*
X67100000Y-66800000D02*
X68900000Y-65000000D01*
X67900000Y-48900000D02*
X66900000Y-48900000D01*
D15*
X125600000Y-44600000D02*
X157000000Y-44600000D01*
X105900000Y-103000000D02*
X149600000Y-103000000D01*
D16*
X67612500Y-45212500D02*
X68100000Y-45700000D01*
X63950000Y-65750000D02*
X61407500Y-68292500D01*
X56200000Y-51200000D02*
X55000000Y-51200000D01*
D15*
X53920000Y-71720000D02*
X52161068Y-73478932D01*
D16*
X66700000Y-100200000D02*
X66700000Y-100950000D01*
D15*
X59200000Y-86480000D02*
X62220000Y-86480000D01*
D16*
X57107500Y-50292500D02*
X56200000Y-51200000D01*
X60002600Y-101400000D02*
X62600000Y-101400000D01*
D15*
X88250000Y-53050000D02*
X97700000Y-62500000D01*
X59250100Y-86530100D02*
X59200000Y-86480000D01*
X97000000Y-110200000D02*
X112200000Y-110200000D01*
X52150000Y-73350000D02*
X52100000Y-73300000D01*
X79487500Y-77387500D02*
X80900000Y-78800000D01*
X111500000Y-113500000D02*
X114700000Y-110300000D01*
X55092500Y-90507500D02*
X54200000Y-91400000D01*
X53920000Y-71720000D02*
X54507500Y-72307500D01*
X80900000Y-94100000D02*
X97000000Y-110200000D01*
X106190000Y-56910000D02*
X107510000Y-56910000D01*
X52100000Y-75050000D02*
X54625000Y-77575000D01*
X69700000Y-95100000D02*
X70600000Y-96000000D01*
D16*
X66600000Y-81400000D02*
X59200000Y-81400000D01*
X68100000Y-100200000D02*
X68100000Y-102700000D01*
X155400000Y-57800000D02*
X154510000Y-56910000D01*
D15*
X61202600Y-45800000D02*
X59250100Y-47752500D01*
D16*
X68100000Y-48700000D02*
X67900000Y-48900000D01*
D15*
X67000000Y-39300000D02*
X67000000Y-40737506D01*
D16*
X68900000Y-65000000D02*
X67112500Y-63212500D01*
D15*
X93050000Y-99150000D02*
X93050000Y-83550000D01*
D16*
X154510000Y-56910000D02*
X153990000Y-56910000D01*
D15*
X156110000Y-104710000D02*
X158600000Y-107200000D01*
D16*
X61547500Y-65752500D02*
X63600000Y-63700000D01*
D15*
X77212500Y-77387500D02*
X79487500Y-77387500D01*
X97600000Y-43800000D02*
X97600000Y-49735000D01*
D16*
X63700000Y-47800000D02*
X64800000Y-47800000D01*
D15*
X54200000Y-98400000D02*
X56200000Y-100400000D01*
X53600000Y-78600000D02*
X54625000Y-77575000D01*
X112800000Y-109600000D02*
X112800000Y-108600000D01*
X57347500Y-68292500D02*
X59250100Y-68292500D01*
X96900000Y-55400000D02*
X81110000Y-39610000D01*
X107600000Y-57000000D02*
X107600000Y-60000000D01*
D16*
X153100000Y-62600000D02*
X155400000Y-60300000D01*
D15*
X53600000Y-82600000D02*
X53600000Y-78600000D01*
D16*
X66500000Y-100000000D02*
X66700000Y-100200000D01*
X151700000Y-64000000D02*
X153100000Y-62600000D01*
D15*
X54732500Y-70907500D02*
X53920000Y-71720000D01*
D16*
X99100000Y-53600000D02*
X99100000Y-52200000D01*
X55000000Y-51200000D02*
X51600000Y-47800000D01*
D15*
X52100000Y-73300000D02*
X51600000Y-72800000D01*
D16*
X68100000Y-45700000D02*
X68100000Y-48700000D01*
X68100000Y-82900000D02*
X66600000Y-81400000D01*
D15*
X56200000Y-104400000D02*
X56000000Y-104600000D01*
X78200000Y-120000000D02*
X149400000Y-120000000D01*
D16*
X55200000Y-52200000D02*
X57307500Y-54307500D01*
D15*
X59250100Y-90507500D02*
X55092500Y-90507500D01*
X165700000Y-115700000D02*
X165700000Y-126700000D01*
D16*
X65800000Y-82000000D02*
X66700000Y-82900000D01*
D15*
X67000000Y-40737506D02*
X66100000Y-41637506D01*
X54532494Y-36557506D02*
X59270100Y-36557506D01*
D16*
X68100000Y-102700000D02*
X67650000Y-103150000D01*
D15*
X107600000Y-60000000D02*
X106900000Y-60700000D01*
X56092500Y-104692500D02*
X59250100Y-104692500D01*
%TD*%
M02*
