M48
; DRILL file {KiCad (6.0.8-1)-1} date Tuesday, November 01, 2022 at 09:33:09 AM
; FORMAT={-:-/ absolute / inch / decimal}
; #@! TF.CreationDate,2022-11-01T09:33:09-04:00
; #@! TF.GenerationSoftware,Kicad,Pcbnew,(6.0.8-1)-1
; #@! TF.FileFunction,Plated,1,2,PTH
FMAT,2
INCH
; #@! TA.AperFunction,Plated,PTH,ViaDrill
T1C0.0157
; #@! TA.AperFunction,Plated,PTH,ComponentDrill
T2C0.0350
; #@! TA.AperFunction,Plated,PTH,ComponentDrill
T3C0.0433
; #@! TA.AperFunction,Plated,PTH,ComponentDrill
T4C0.0591
%
G90
G05
T1
X2.748Y-1.6393
X2.7953Y-2.0787
X2.7953Y-2.7874
X2.811Y-2.3268
X2.8346Y-1.4331
X2.8346Y-1.8717
X2.9099Y-2.5386
X2.9173Y-2.9953
X4.0551Y-4.2992
X4.0594Y-2.4287
X4.1453Y-2.3823
X4.1531Y-2.4689
X4.1567Y-4.2606
X4.1646Y-4.3472
X5.937Y-4.3071
X5.9406Y-2.4217
X6.0236Y-2.3858
X6.0236Y-2.4646
X6.035Y-4.2642
X6.035Y-4.3429
T2
X2.3307Y-3.2047
X2.3307Y-3.3047
X2.3307Y-3.4047
X2.3327Y-1.4192
X2.3327Y-1.5192
X2.3327Y-1.6192
X2.3327Y-1.78
X2.3327Y-1.88
X2.3327Y-1.98
X2.3327Y-2.1381
X2.3327Y-2.2381
X2.3327Y-2.3381
X2.3327Y-2.4887
X2.3327Y-2.5887
X2.3327Y-2.6887
X2.3327Y-2.8468
X2.3327Y-2.9468
X2.3327Y-3.0468
X2.3327Y-3.5633
X2.3327Y-3.6633
X2.3327Y-3.7633
X2.3327Y-3.9218
X2.3327Y-4.0218
X2.3327Y-4.1218
T3
X2.1339Y-4.8661
T4
X1.936Y-4.6683
X1.936Y-5.064
X2.3317Y-4.6683
X2.3317Y-5.064
T0
M30
