%TF.GenerationSoftware,KiCad,Pcbnew,(6.0.8-1)-1*%
%TF.CreationDate,2022-11-16T14:23:37-05:00*%
%TF.ProjectId,Untitled,556e7469-746c-4656-942e-6b696361645f,rev?*%
%TF.SameCoordinates,Original*%
%TF.FileFunction,Legend,Bot*%
%TF.FilePolarity,Positive*%
%FSLAX46Y46*%
G04 Gerber Fmt 4.6, Leading zero omitted, Abs format (unit mm)*
G04 Created by KiCad (PCBNEW (6.0.8-1)-1) date 2022-11-16 14:23:37*
%MOMM*%
%LPD*%
G01*
G04 APERTURE LIST*
%ADD10C,0.150000*%
%ADD11C,0.300000*%
%ADD12C,0.120000*%
G04 APERTURE END LIST*
D10*
X62052380Y-101090476D02*
X62052380Y-101661904D01*
X63052380Y-101376190D02*
X62052380Y-101376190D01*
X63004761Y-102376190D02*
X63052380Y-102280952D01*
X63052380Y-102090476D01*
X63004761Y-101995238D01*
X62909523Y-101947619D01*
X62528571Y-101947619D01*
X62433333Y-101995238D01*
X62385714Y-102090476D01*
X62385714Y-102280952D01*
X62433333Y-102376190D01*
X62528571Y-102423809D01*
X62623809Y-102423809D01*
X62719047Y-101947619D01*
X63052380Y-102852380D02*
X62385714Y-102852380D01*
X62480952Y-102852380D02*
X62433333Y-102900000D01*
X62385714Y-102995238D01*
X62385714Y-103138095D01*
X62433333Y-103233333D01*
X62528571Y-103280952D01*
X63052380Y-103280952D01*
X62528571Y-103280952D02*
X62433333Y-103328571D01*
X62385714Y-103423809D01*
X62385714Y-103566666D01*
X62433333Y-103661904D01*
X62528571Y-103709523D01*
X63052380Y-103709523D01*
X62385714Y-104185714D02*
X63385714Y-104185714D01*
X62433333Y-104185714D02*
X62385714Y-104280952D01*
X62385714Y-104471428D01*
X62433333Y-104566666D01*
X62480952Y-104614285D01*
X62576190Y-104661904D01*
X62861904Y-104661904D01*
X62957142Y-104614285D01*
X63004761Y-104566666D01*
X63052380Y-104471428D01*
X63052380Y-104280952D01*
X63004761Y-104185714D01*
X62385714Y-105519047D02*
X63052380Y-105519047D01*
X62004761Y-105280952D02*
X62719047Y-105042857D01*
X62719047Y-105661904D01*
D11*
X96471428Y-121656071D02*
X96471428Y-120156071D01*
X96114285Y-120156071D01*
X95900000Y-120227500D01*
X95757142Y-120370357D01*
X95685714Y-120513214D01*
X95614285Y-120798928D01*
X95614285Y-121013214D01*
X95685714Y-121298928D01*
X95757142Y-121441785D01*
X95900000Y-121584642D01*
X96114285Y-121656071D01*
X96471428Y-121656071D01*
X94400000Y-121584642D02*
X94542857Y-121656071D01*
X94828571Y-121656071D01*
X94971428Y-121584642D01*
X95042857Y-121441785D01*
X95042857Y-120870357D01*
X94971428Y-120727500D01*
X94828571Y-120656071D01*
X94542857Y-120656071D01*
X94400000Y-120727500D01*
X94328571Y-120870357D01*
X94328571Y-121013214D01*
X95042857Y-121156071D01*
X93757142Y-121584642D02*
X93614285Y-121656071D01*
X93328571Y-121656071D01*
X93185714Y-121584642D01*
X93114285Y-121441785D01*
X93114285Y-121370357D01*
X93185714Y-121227500D01*
X93328571Y-121156071D01*
X93542857Y-121156071D01*
X93685714Y-121084642D01*
X93757142Y-120941785D01*
X93757142Y-120870357D01*
X93685714Y-120727500D01*
X93542857Y-120656071D01*
X93328571Y-120656071D01*
X93185714Y-120727500D01*
X92471428Y-121656071D02*
X92471428Y-120656071D01*
X92471428Y-120156071D02*
X92542857Y-120227500D01*
X92471428Y-120298928D01*
X92400000Y-120227500D01*
X92471428Y-120156071D01*
X92471428Y-120298928D01*
X91114285Y-120656071D02*
X91114285Y-121870357D01*
X91185714Y-122013214D01*
X91257142Y-122084642D01*
X91400000Y-122156071D01*
X91614285Y-122156071D01*
X91757142Y-122084642D01*
X91114285Y-121584642D02*
X91257142Y-121656071D01*
X91542857Y-121656071D01*
X91685714Y-121584642D01*
X91757142Y-121513214D01*
X91828571Y-121370357D01*
X91828571Y-120941785D01*
X91757142Y-120798928D01*
X91685714Y-120727500D01*
X91542857Y-120656071D01*
X91257142Y-120656071D01*
X91114285Y-120727500D01*
X90400000Y-120656071D02*
X90400000Y-121656071D01*
X90400000Y-120798928D02*
X90328571Y-120727500D01*
X90185714Y-120656071D01*
X89971428Y-120656071D01*
X89828571Y-120727500D01*
X89757142Y-120870357D01*
X89757142Y-121656071D01*
X88471428Y-121584642D02*
X88614285Y-121656071D01*
X88900000Y-121656071D01*
X89042857Y-121584642D01*
X89114285Y-121441785D01*
X89114285Y-120870357D01*
X89042857Y-120727500D01*
X88900000Y-120656071D01*
X88614285Y-120656071D01*
X88471428Y-120727500D01*
X88400000Y-120870357D01*
X88400000Y-121013214D01*
X89114285Y-121156071D01*
X87114285Y-121656071D02*
X87114285Y-120156071D01*
X87114285Y-121584642D02*
X87257142Y-121656071D01*
X87542857Y-121656071D01*
X87685714Y-121584642D01*
X87757142Y-121513214D01*
X87828571Y-121370357D01*
X87828571Y-120941785D01*
X87757142Y-120798928D01*
X87685714Y-120727500D01*
X87542857Y-120656071D01*
X87257142Y-120656071D01*
X87114285Y-120727500D01*
X85257142Y-121656071D02*
X85257142Y-120156071D01*
X85257142Y-120727500D02*
X85114285Y-120656071D01*
X84828571Y-120656071D01*
X84685714Y-120727500D01*
X84614285Y-120798928D01*
X84542857Y-120941785D01*
X84542857Y-121370357D01*
X84614285Y-121513214D01*
X84685714Y-121584642D01*
X84828571Y-121656071D01*
X85114285Y-121656071D01*
X85257142Y-121584642D01*
X84042857Y-120656071D02*
X83685714Y-121656071D01*
X83328571Y-120656071D02*
X83685714Y-121656071D01*
X83828571Y-122013214D01*
X83900000Y-122084642D01*
X84042857Y-122156071D01*
X97400000Y-123999642D02*
X97185714Y-124071071D01*
X96828571Y-124071071D01*
X96685714Y-123999642D01*
X96614285Y-123928214D01*
X96542857Y-123785357D01*
X96542857Y-123642500D01*
X96614285Y-123499642D01*
X96685714Y-123428214D01*
X96828571Y-123356785D01*
X97114285Y-123285357D01*
X97257142Y-123213928D01*
X97328571Y-123142500D01*
X97400000Y-122999642D01*
X97400000Y-122856785D01*
X97328571Y-122713928D01*
X97257142Y-122642500D01*
X97114285Y-122571071D01*
X96757142Y-122571071D01*
X96542857Y-122642500D01*
X95328571Y-123999642D02*
X95471428Y-124071071D01*
X95757142Y-124071071D01*
X95900000Y-123999642D01*
X95971428Y-123856785D01*
X95971428Y-123285357D01*
X95900000Y-123142500D01*
X95757142Y-123071071D01*
X95471428Y-123071071D01*
X95328571Y-123142500D01*
X95257142Y-123285357D01*
X95257142Y-123428214D01*
X95971428Y-123571071D01*
X94614285Y-124071071D02*
X94614285Y-122571071D01*
X94614285Y-123142500D02*
X94471428Y-123071071D01*
X94185714Y-123071071D01*
X94042857Y-123142500D01*
X93971428Y-123213928D01*
X93900000Y-123356785D01*
X93900000Y-123785357D01*
X93971428Y-123928214D01*
X94042857Y-123999642D01*
X94185714Y-124071071D01*
X94471428Y-124071071D01*
X94614285Y-123999642D01*
X93042857Y-124071071D02*
X93185714Y-123999642D01*
X93257142Y-123928214D01*
X93328571Y-123785357D01*
X93328571Y-123356785D01*
X93257142Y-123213928D01*
X93185714Y-123142500D01*
X93042857Y-123071071D01*
X92828571Y-123071071D01*
X92685714Y-123142500D01*
X92614285Y-123213928D01*
X92542857Y-123356785D01*
X92542857Y-123785357D01*
X92614285Y-123928214D01*
X92685714Y-123999642D01*
X92828571Y-124071071D01*
X93042857Y-124071071D01*
X91257142Y-123071071D02*
X91257142Y-124071071D01*
X91900000Y-123071071D02*
X91900000Y-123856785D01*
X91828571Y-123999642D01*
X91685714Y-124071071D01*
X91471428Y-124071071D01*
X91328571Y-123999642D01*
X91257142Y-123928214D01*
X90542857Y-124071071D02*
X90542857Y-122571071D01*
X89900000Y-124071071D02*
X89900000Y-123285357D01*
X89971428Y-123142500D01*
X90114285Y-123071071D01*
X90328571Y-123071071D01*
X90471428Y-123142500D01*
X90542857Y-123213928D01*
X87614285Y-122571071D02*
X87614285Y-123642500D01*
X87685714Y-123856785D01*
X87828571Y-123999642D01*
X88042857Y-124071071D01*
X88185714Y-124071071D01*
X85757142Y-124071071D02*
X85757142Y-122571071D01*
X85185714Y-122571071D01*
X85042857Y-122642500D01*
X84971428Y-122713928D01*
X84900000Y-122856785D01*
X84900000Y-123071071D01*
X84971428Y-123213928D01*
X85042857Y-123285357D01*
X85185714Y-123356785D01*
X85757142Y-123356785D01*
X83614285Y-124071071D02*
X83614285Y-123285357D01*
X83685714Y-123142500D01*
X83828571Y-123071071D01*
X84114285Y-123071071D01*
X84257142Y-123142500D01*
X83614285Y-123999642D02*
X83757142Y-124071071D01*
X84114285Y-124071071D01*
X84257142Y-123999642D01*
X84328571Y-123856785D01*
X84328571Y-123713928D01*
X84257142Y-123571071D01*
X84114285Y-123499642D01*
X83757142Y-123499642D01*
X83614285Y-123428214D01*
X82257142Y-123071071D02*
X82257142Y-124071071D01*
X82900000Y-123071071D02*
X82900000Y-123856785D01*
X82828571Y-123999642D01*
X82685714Y-124071071D01*
X82471428Y-124071071D01*
X82328571Y-123999642D01*
X82257142Y-123928214D01*
X81328571Y-124071071D02*
X81471428Y-123999642D01*
X81542857Y-123856785D01*
X81542857Y-122571071D01*
X94614285Y-127401071D02*
X94114285Y-128901071D01*
X93614285Y-127401071D01*
X92542857Y-128829642D02*
X92685714Y-128901071D01*
X92971428Y-128901071D01*
X93114285Y-128829642D01*
X93185714Y-128686785D01*
X93185714Y-128115357D01*
X93114285Y-127972500D01*
X92971428Y-127901071D01*
X92685714Y-127901071D01*
X92542857Y-127972500D01*
X92471428Y-128115357D01*
X92471428Y-128258214D01*
X93185714Y-128401071D01*
X91828571Y-128901071D02*
X91828571Y-127901071D01*
X91828571Y-128186785D02*
X91757142Y-128043928D01*
X91685714Y-127972500D01*
X91542857Y-127901071D01*
X91400000Y-127901071D01*
X90971428Y-128829642D02*
X90828571Y-128901071D01*
X90542857Y-128901071D01*
X90400000Y-128829642D01*
X90328571Y-128686785D01*
X90328571Y-128615357D01*
X90400000Y-128472500D01*
X90542857Y-128401071D01*
X90757142Y-128401071D01*
X90900000Y-128329642D01*
X90971428Y-128186785D01*
X90971428Y-128115357D01*
X90900000Y-127972500D01*
X90757142Y-127901071D01*
X90542857Y-127901071D01*
X90400000Y-127972500D01*
X89685714Y-128901071D02*
X89685714Y-127901071D01*
X89685714Y-127401071D02*
X89757142Y-127472500D01*
X89685714Y-127543928D01*
X89614285Y-127472500D01*
X89685714Y-127401071D01*
X89685714Y-127543928D01*
X88757142Y-128901071D02*
X88900000Y-128829642D01*
X88971428Y-128758214D01*
X89042857Y-128615357D01*
X89042857Y-128186785D01*
X88971428Y-128043928D01*
X88900000Y-127972500D01*
X88757142Y-127901071D01*
X88542857Y-127901071D01*
X88400000Y-127972500D01*
X88328571Y-128043928D01*
X88257142Y-128186785D01*
X88257142Y-128615357D01*
X88328571Y-128758214D01*
X88400000Y-128829642D01*
X88542857Y-128901071D01*
X88757142Y-128901071D01*
X87614285Y-127901071D02*
X87614285Y-128901071D01*
X87614285Y-128043928D02*
X87542857Y-127972500D01*
X87400000Y-127901071D01*
X87185714Y-127901071D01*
X87042857Y-127972500D01*
X86971428Y-128115357D01*
X86971428Y-128901071D01*
X84471428Y-127901071D02*
X84471428Y-128901071D01*
X84828571Y-127329642D02*
X85185714Y-128401071D01*
X84257142Y-128401071D01*
D10*
X62052380Y-63833331D02*
X62052380Y-64404759D01*
X63052380Y-64119045D02*
X62052380Y-64119045D01*
X63004761Y-65119045D02*
X63052380Y-65023807D01*
X63052380Y-64833331D01*
X63004761Y-64738093D01*
X62909523Y-64690474D01*
X62528571Y-64690474D01*
X62433333Y-64738093D01*
X62385714Y-64833331D01*
X62385714Y-65023807D01*
X62433333Y-65119045D01*
X62528571Y-65166664D01*
X62623809Y-65166664D01*
X62719047Y-64690474D01*
X63052380Y-65595235D02*
X62385714Y-65595235D01*
X62480952Y-65595235D02*
X62433333Y-65642855D01*
X62385714Y-65738093D01*
X62385714Y-65880950D01*
X62433333Y-65976188D01*
X62528571Y-66023807D01*
X63052380Y-66023807D01*
X62528571Y-66023807D02*
X62433333Y-66071426D01*
X62385714Y-66166664D01*
X62385714Y-66309521D01*
X62433333Y-66404759D01*
X62528571Y-66452378D01*
X63052380Y-66452378D01*
X62385714Y-66928569D02*
X63385714Y-66928569D01*
X62433333Y-66928569D02*
X62385714Y-67023807D01*
X62385714Y-67214283D01*
X62433333Y-67309521D01*
X62480952Y-67357140D01*
X62576190Y-67404759D01*
X62861904Y-67404759D01*
X62957142Y-67357140D01*
X63004761Y-67309521D01*
X63052380Y-67214283D01*
X63052380Y-67023807D01*
X63004761Y-66928569D01*
X62147619Y-67785712D02*
X62100000Y-67833331D01*
X62052380Y-67928569D01*
X62052380Y-68166664D01*
X62100000Y-68261902D01*
X62147619Y-68309521D01*
X62242857Y-68357140D01*
X62338095Y-68357140D01*
X62480952Y-68309521D01*
X63052380Y-67738093D01*
X63052380Y-68357140D01*
X62052380Y-45204761D02*
X62052380Y-45776189D01*
X63052380Y-45490475D02*
X62052380Y-45490475D01*
X63004761Y-46490475D02*
X63052380Y-46395237D01*
X63052380Y-46204761D01*
X63004761Y-46109523D01*
X62909523Y-46061904D01*
X62528571Y-46061904D01*
X62433333Y-46109523D01*
X62385714Y-46204761D01*
X62385714Y-46395237D01*
X62433333Y-46490475D01*
X62528571Y-46538094D01*
X62623809Y-46538094D01*
X62719047Y-46061904D01*
X63052380Y-46966665D02*
X62385714Y-46966665D01*
X62480952Y-46966665D02*
X62433333Y-47014285D01*
X62385714Y-47109523D01*
X62385714Y-47252380D01*
X62433333Y-47347618D01*
X62528571Y-47395237D01*
X63052380Y-47395237D01*
X62528571Y-47395237D02*
X62433333Y-47442856D01*
X62385714Y-47538094D01*
X62385714Y-47680951D01*
X62433333Y-47776189D01*
X62528571Y-47823808D01*
X63052380Y-47823808D01*
X62385714Y-48299999D02*
X63385714Y-48299999D01*
X62433333Y-48299999D02*
X62385714Y-48395237D01*
X62385714Y-48585713D01*
X62433333Y-48680951D01*
X62480952Y-48728570D01*
X62576190Y-48776189D01*
X62861904Y-48776189D01*
X62957142Y-48728570D01*
X63004761Y-48680951D01*
X63052380Y-48585713D01*
X63052380Y-48395237D01*
X63004761Y-48299999D01*
X63052380Y-49728570D02*
X63052380Y-49157142D01*
X63052380Y-49442856D02*
X62052380Y-49442856D01*
X62195238Y-49347618D01*
X62290476Y-49252380D01*
X62338095Y-49157142D01*
X62052380Y-82461901D02*
X62052380Y-83033329D01*
X63052380Y-82747615D02*
X62052380Y-82747615D01*
X63004761Y-83747615D02*
X63052380Y-83652377D01*
X63052380Y-83461901D01*
X63004761Y-83366663D01*
X62909523Y-83319044D01*
X62528571Y-83319044D01*
X62433333Y-83366663D01*
X62385714Y-83461901D01*
X62385714Y-83652377D01*
X62433333Y-83747615D01*
X62528571Y-83795234D01*
X62623809Y-83795234D01*
X62719047Y-83319044D01*
X63052380Y-84223805D02*
X62385714Y-84223805D01*
X62480952Y-84223805D02*
X62433333Y-84271425D01*
X62385714Y-84366663D01*
X62385714Y-84509520D01*
X62433333Y-84604758D01*
X62528571Y-84652377D01*
X63052380Y-84652377D01*
X62528571Y-84652377D02*
X62433333Y-84699996D01*
X62385714Y-84795234D01*
X62385714Y-84938091D01*
X62433333Y-85033329D01*
X62528571Y-85080948D01*
X63052380Y-85080948D01*
X62385714Y-85557139D02*
X63385714Y-85557139D01*
X62433333Y-85557139D02*
X62385714Y-85652377D01*
X62385714Y-85842853D01*
X62433333Y-85938091D01*
X62480952Y-85985710D01*
X62576190Y-86033329D01*
X62861904Y-86033329D01*
X62957142Y-85985710D01*
X63004761Y-85938091D01*
X63052380Y-85842853D01*
X63052380Y-85652377D01*
X63004761Y-85557139D01*
X62052380Y-86366663D02*
X62052380Y-86985710D01*
X62433333Y-86652377D01*
X62433333Y-86795234D01*
X62480952Y-86890472D01*
X62528571Y-86938091D01*
X62623809Y-86985710D01*
X62861904Y-86985710D01*
X62957142Y-86938091D01*
X63004761Y-86890472D01*
X63052380Y-86795234D01*
X63052380Y-86509520D01*
X63004761Y-86414282D01*
X62957142Y-86366663D01*
%TO.C,REF\u002A\u002A*%
X59702480Y-100819166D02*
X59226290Y-100485833D01*
X59702480Y-100247738D02*
X58702480Y-100247738D01*
X58702480Y-100628690D01*
X58750100Y-100723928D01*
X58797719Y-100771547D01*
X58892957Y-100819166D01*
X59035814Y-100819166D01*
X59131052Y-100771547D01*
X59178671Y-100723928D01*
X59226290Y-100628690D01*
X59226290Y-100247738D01*
X59178671Y-101247738D02*
X59178671Y-101581071D01*
X59702480Y-101723928D02*
X59702480Y-101247738D01*
X58702480Y-101247738D01*
X58702480Y-101723928D01*
X59178671Y-102485833D02*
X59178671Y-102152500D01*
X59702480Y-102152500D02*
X58702480Y-102152500D01*
X58702480Y-102628690D01*
X58702480Y-103152500D02*
X58940576Y-103152500D01*
X58845338Y-102914404D02*
X58940576Y-103152500D01*
X58845338Y-103390595D01*
X59131052Y-103009642D02*
X58940576Y-103152500D01*
X59131052Y-103295357D01*
X58702480Y-103914404D02*
X58940576Y-103914404D01*
X58845338Y-103676309D02*
X58940576Y-103914404D01*
X58845338Y-104152500D01*
X59131052Y-103771547D02*
X58940576Y-103914404D01*
X59131052Y-104057261D01*
X59607242Y-93747738D02*
X59654861Y-93700119D01*
X59702480Y-93557261D01*
X59702480Y-93462023D01*
X59654861Y-93319166D01*
X59559623Y-93223928D01*
X59464385Y-93176309D01*
X59273909Y-93128690D01*
X59131052Y-93128690D01*
X58940576Y-93176309D01*
X58845338Y-93223928D01*
X58750100Y-93319166D01*
X58702480Y-93462023D01*
X58702480Y-93557261D01*
X58750100Y-93700119D01*
X58797719Y-93747738D01*
X58702480Y-94366785D02*
X58702480Y-94557261D01*
X58750100Y-94652500D01*
X58845338Y-94747738D01*
X59035814Y-94795357D01*
X59369147Y-94795357D01*
X59559623Y-94747738D01*
X59654861Y-94652500D01*
X59702480Y-94557261D01*
X59702480Y-94366785D01*
X59654861Y-94271547D01*
X59559623Y-94176309D01*
X59369147Y-94128690D01*
X59035814Y-94128690D01*
X58845338Y-94176309D01*
X58750100Y-94271547D01*
X58702480Y-94366785D01*
X59702480Y-95223928D02*
X58702480Y-95223928D01*
X59702480Y-95795357D01*
X58702480Y-95795357D01*
X59702480Y-96271547D02*
X58702480Y-96271547D01*
X59702480Y-96842976D01*
X58702480Y-96842976D01*
X59797719Y-97081071D02*
X59797719Y-97842976D01*
X58702480Y-97985833D02*
X58702480Y-98604880D01*
X59083433Y-98271547D01*
X59083433Y-98414404D01*
X59131052Y-98509642D01*
X59178671Y-98557261D01*
X59273909Y-98604880D01*
X59512004Y-98604880D01*
X59607242Y-98557261D01*
X59654861Y-98509642D01*
X59702480Y-98414404D01*
X59702480Y-98128690D01*
X59654861Y-98033452D01*
X59607242Y-97985833D01*
X59321528Y-99033452D02*
X59321528Y-99795357D01*
X59702480Y-100795357D02*
X59702480Y-100223928D01*
X59702480Y-100509642D02*
X58702480Y-100509642D01*
X58845338Y-100414404D01*
X58940576Y-100319166D01*
X58988195Y-100223928D01*
X58702480Y-101414404D02*
X58702480Y-101509642D01*
X58750100Y-101604880D01*
X58797719Y-101652500D01*
X58892957Y-101700119D01*
X59083433Y-101747738D01*
X59321528Y-101747738D01*
X59512004Y-101700119D01*
X59607242Y-101652500D01*
X59654861Y-101604880D01*
X59702480Y-101509642D01*
X59702480Y-101414404D01*
X59654861Y-101319166D01*
X59607242Y-101271547D01*
X59512004Y-101223928D01*
X59321528Y-101176309D01*
X59083433Y-101176309D01*
X58892957Y-101223928D01*
X58797719Y-101271547D01*
X58750100Y-101319166D01*
X58702480Y-101414404D01*
X58797719Y-102128690D02*
X58750100Y-102176309D01*
X58702480Y-102271547D01*
X58702480Y-102509642D01*
X58750100Y-102604880D01*
X58797719Y-102652500D01*
X58892957Y-102700119D01*
X58988195Y-102700119D01*
X59131052Y-102652500D01*
X59702480Y-102081071D01*
X59702480Y-102700119D01*
X58797719Y-103081071D02*
X58750100Y-103128690D01*
X58702480Y-103223928D01*
X58702480Y-103462023D01*
X58750100Y-103557261D01*
X58797719Y-103604880D01*
X58892957Y-103652500D01*
X58988195Y-103652500D01*
X59131052Y-103604880D01*
X59702480Y-103033452D01*
X59702480Y-103652500D01*
X58702480Y-104271547D02*
X58702480Y-104366785D01*
X58750100Y-104462023D01*
X58797719Y-104509642D01*
X58892957Y-104557261D01*
X59083433Y-104604880D01*
X59321528Y-104604880D01*
X59512004Y-104557261D01*
X59607242Y-104509642D01*
X59654861Y-104462023D01*
X59702480Y-104366785D01*
X59702480Y-104271547D01*
X59654861Y-104176309D01*
X59607242Y-104128690D01*
X59512004Y-104081071D01*
X59321528Y-104033452D01*
X59083433Y-104033452D01*
X58892957Y-104081071D01*
X58797719Y-104128690D01*
X58750100Y-104176309D01*
X58702480Y-104271547D01*
X58702480Y-104938214D02*
X58702480Y-105557261D01*
X59083433Y-105223928D01*
X59083433Y-105366785D01*
X59131052Y-105462023D01*
X59178671Y-105509642D01*
X59273909Y-105557261D01*
X59512004Y-105557261D01*
X59607242Y-105509642D01*
X59654861Y-105462023D01*
X59702480Y-105366785D01*
X59702480Y-105081071D01*
X59654861Y-104985833D01*
X59607242Y-104938214D01*
X59321528Y-105985833D02*
X59321528Y-106747738D01*
X59035814Y-107652500D02*
X59702480Y-107652500D01*
X58654861Y-107414404D02*
X59369147Y-107176309D01*
X59369147Y-107795357D01*
X59797719Y-107938214D02*
X59797719Y-108700119D01*
X58702480Y-108795357D02*
X58702480Y-109366785D01*
X59702480Y-109081071D02*
X58702480Y-109081071D01*
X59178671Y-109700119D02*
X59178671Y-110033452D01*
X59702480Y-110176309D02*
X59702480Y-109700119D01*
X58702480Y-109700119D01*
X58702480Y-110176309D01*
X59607242Y-111176309D02*
X59654861Y-111128690D01*
X59702480Y-110985833D01*
X59702480Y-110890595D01*
X59654861Y-110747738D01*
X59559623Y-110652500D01*
X59464385Y-110604880D01*
X59273909Y-110557261D01*
X59131052Y-110557261D01*
X58940576Y-110604880D01*
X58845338Y-110652500D01*
X58750100Y-110747738D01*
X58702480Y-110890595D01*
X58702480Y-110985833D01*
X58750100Y-111128690D01*
X58797719Y-111176309D01*
X58702480Y-99612500D02*
X58940576Y-99612500D01*
X58845338Y-99374404D02*
X58940576Y-99612500D01*
X58845338Y-99850595D01*
X59131052Y-99469642D02*
X58940576Y-99612500D01*
X59131052Y-99755357D01*
X59702480Y-64419166D02*
X59226290Y-64085833D01*
X59702480Y-63847738D02*
X58702480Y-63847738D01*
X58702480Y-64228690D01*
X58750100Y-64323928D01*
X58797719Y-64371547D01*
X58892957Y-64419166D01*
X59035814Y-64419166D01*
X59131052Y-64371547D01*
X59178671Y-64323928D01*
X59226290Y-64228690D01*
X59226290Y-63847738D01*
X59178671Y-64847738D02*
X59178671Y-65181071D01*
X59702480Y-65323928D02*
X59702480Y-64847738D01*
X58702480Y-64847738D01*
X58702480Y-65323928D01*
X59178671Y-66085833D02*
X59178671Y-65752500D01*
X59702480Y-65752500D02*
X58702480Y-65752500D01*
X58702480Y-66228690D01*
X58702480Y-66752500D02*
X58940576Y-66752500D01*
X58845338Y-66514404D02*
X58940576Y-66752500D01*
X58845338Y-66990595D01*
X59131052Y-66609642D02*
X58940576Y-66752500D01*
X59131052Y-66895357D01*
X58702480Y-67514404D02*
X58940576Y-67514404D01*
X58845338Y-67276309D02*
X58940576Y-67514404D01*
X58845338Y-67752500D01*
X59131052Y-67371547D02*
X58940576Y-67514404D01*
X59131052Y-67657261D01*
X59607242Y-57347738D02*
X59654861Y-57300119D01*
X59702480Y-57157261D01*
X59702480Y-57062023D01*
X59654861Y-56919166D01*
X59559623Y-56823928D01*
X59464385Y-56776309D01*
X59273909Y-56728690D01*
X59131052Y-56728690D01*
X58940576Y-56776309D01*
X58845338Y-56823928D01*
X58750100Y-56919166D01*
X58702480Y-57062023D01*
X58702480Y-57157261D01*
X58750100Y-57300119D01*
X58797719Y-57347738D01*
X58702480Y-57966785D02*
X58702480Y-58157261D01*
X58750100Y-58252500D01*
X58845338Y-58347738D01*
X59035814Y-58395357D01*
X59369147Y-58395357D01*
X59559623Y-58347738D01*
X59654861Y-58252500D01*
X59702480Y-58157261D01*
X59702480Y-57966785D01*
X59654861Y-57871547D01*
X59559623Y-57776309D01*
X59369147Y-57728690D01*
X59035814Y-57728690D01*
X58845338Y-57776309D01*
X58750100Y-57871547D01*
X58702480Y-57966785D01*
X59702480Y-58823928D02*
X58702480Y-58823928D01*
X59702480Y-59395357D01*
X58702480Y-59395357D01*
X59702480Y-59871547D02*
X58702480Y-59871547D01*
X59702480Y-60442976D01*
X58702480Y-60442976D01*
X59797719Y-60681071D02*
X59797719Y-61442976D01*
X58702480Y-61585833D02*
X58702480Y-62204880D01*
X59083433Y-61871547D01*
X59083433Y-62014404D01*
X59131052Y-62109642D01*
X59178671Y-62157261D01*
X59273909Y-62204880D01*
X59512004Y-62204880D01*
X59607242Y-62157261D01*
X59654861Y-62109642D01*
X59702480Y-62014404D01*
X59702480Y-61728690D01*
X59654861Y-61633452D01*
X59607242Y-61585833D01*
X59321528Y-62633452D02*
X59321528Y-63395357D01*
X59702480Y-64395357D02*
X59702480Y-63823928D01*
X59702480Y-64109642D02*
X58702480Y-64109642D01*
X58845338Y-64014404D01*
X58940576Y-63919166D01*
X58988195Y-63823928D01*
X58702480Y-65014404D02*
X58702480Y-65109642D01*
X58750100Y-65204880D01*
X58797719Y-65252500D01*
X58892957Y-65300119D01*
X59083433Y-65347738D01*
X59321528Y-65347738D01*
X59512004Y-65300119D01*
X59607242Y-65252500D01*
X59654861Y-65204880D01*
X59702480Y-65109642D01*
X59702480Y-65014404D01*
X59654861Y-64919166D01*
X59607242Y-64871547D01*
X59512004Y-64823928D01*
X59321528Y-64776309D01*
X59083433Y-64776309D01*
X58892957Y-64823928D01*
X58797719Y-64871547D01*
X58750100Y-64919166D01*
X58702480Y-65014404D01*
X58797719Y-65728690D02*
X58750100Y-65776309D01*
X58702480Y-65871547D01*
X58702480Y-66109642D01*
X58750100Y-66204880D01*
X58797719Y-66252500D01*
X58892957Y-66300119D01*
X58988195Y-66300119D01*
X59131052Y-66252500D01*
X59702480Y-65681071D01*
X59702480Y-66300119D01*
X58797719Y-66681071D02*
X58750100Y-66728690D01*
X58702480Y-66823928D01*
X58702480Y-67062023D01*
X58750100Y-67157261D01*
X58797719Y-67204880D01*
X58892957Y-67252500D01*
X58988195Y-67252500D01*
X59131052Y-67204880D01*
X59702480Y-66633452D01*
X59702480Y-67252500D01*
X58702480Y-67871547D02*
X58702480Y-67966785D01*
X58750100Y-68062023D01*
X58797719Y-68109642D01*
X58892957Y-68157261D01*
X59083433Y-68204880D01*
X59321528Y-68204880D01*
X59512004Y-68157261D01*
X59607242Y-68109642D01*
X59654861Y-68062023D01*
X59702480Y-67966785D01*
X59702480Y-67871547D01*
X59654861Y-67776309D01*
X59607242Y-67728690D01*
X59512004Y-67681071D01*
X59321528Y-67633452D01*
X59083433Y-67633452D01*
X58892957Y-67681071D01*
X58797719Y-67728690D01*
X58750100Y-67776309D01*
X58702480Y-67871547D01*
X58702480Y-68538214D02*
X58702480Y-69157261D01*
X59083433Y-68823928D01*
X59083433Y-68966785D01*
X59131052Y-69062023D01*
X59178671Y-69109642D01*
X59273909Y-69157261D01*
X59512004Y-69157261D01*
X59607242Y-69109642D01*
X59654861Y-69062023D01*
X59702480Y-68966785D01*
X59702480Y-68681071D01*
X59654861Y-68585833D01*
X59607242Y-68538214D01*
X59321528Y-69585833D02*
X59321528Y-70347738D01*
X59035814Y-71252500D02*
X59702480Y-71252500D01*
X58654861Y-71014404D02*
X59369147Y-70776309D01*
X59369147Y-71395357D01*
X59797719Y-71538214D02*
X59797719Y-72300119D01*
X58702480Y-72395357D02*
X58702480Y-72966785D01*
X59702480Y-72681071D02*
X58702480Y-72681071D01*
X59178671Y-73300119D02*
X59178671Y-73633452D01*
X59702480Y-73776309D02*
X59702480Y-73300119D01*
X58702480Y-73300119D01*
X58702480Y-73776309D01*
X59607242Y-74776309D02*
X59654861Y-74728690D01*
X59702480Y-74585833D01*
X59702480Y-74490595D01*
X59654861Y-74347738D01*
X59559623Y-74252500D01*
X59464385Y-74204880D01*
X59273909Y-74157261D01*
X59131052Y-74157261D01*
X58940576Y-74204880D01*
X58845338Y-74252500D01*
X58750100Y-74347738D01*
X58702480Y-74490595D01*
X58702480Y-74585833D01*
X58750100Y-74728690D01*
X58797719Y-74776309D01*
X58702480Y-63212500D02*
X58940576Y-63212500D01*
X58845338Y-62974404D02*
X58940576Y-63212500D01*
X58845338Y-63450595D01*
X59131052Y-63069642D02*
X58940576Y-63212500D01*
X59131052Y-63355357D01*
X59652380Y-82606666D02*
X59176190Y-82273333D01*
X59652380Y-82035238D02*
X58652380Y-82035238D01*
X58652380Y-82416190D01*
X58700000Y-82511428D01*
X58747619Y-82559047D01*
X58842857Y-82606666D01*
X58985714Y-82606666D01*
X59080952Y-82559047D01*
X59128571Y-82511428D01*
X59176190Y-82416190D01*
X59176190Y-82035238D01*
X59128571Y-83035238D02*
X59128571Y-83368571D01*
X59652380Y-83511428D02*
X59652380Y-83035238D01*
X58652380Y-83035238D01*
X58652380Y-83511428D01*
X59128571Y-84273333D02*
X59128571Y-83940000D01*
X59652380Y-83940000D02*
X58652380Y-83940000D01*
X58652380Y-84416190D01*
X58652380Y-84940000D02*
X58890476Y-84940000D01*
X58795238Y-84701904D02*
X58890476Y-84940000D01*
X58795238Y-85178095D01*
X59080952Y-84797142D02*
X58890476Y-84940000D01*
X59080952Y-85082857D01*
X58652380Y-85701904D02*
X58890476Y-85701904D01*
X58795238Y-85463809D02*
X58890476Y-85701904D01*
X58795238Y-85940000D01*
X59080952Y-85559047D02*
X58890476Y-85701904D01*
X59080952Y-85844761D01*
X59557142Y-75535238D02*
X59604761Y-75487619D01*
X59652380Y-75344761D01*
X59652380Y-75249523D01*
X59604761Y-75106666D01*
X59509523Y-75011428D01*
X59414285Y-74963809D01*
X59223809Y-74916190D01*
X59080952Y-74916190D01*
X58890476Y-74963809D01*
X58795238Y-75011428D01*
X58700000Y-75106666D01*
X58652380Y-75249523D01*
X58652380Y-75344761D01*
X58700000Y-75487619D01*
X58747619Y-75535238D01*
X58652380Y-76154285D02*
X58652380Y-76344761D01*
X58700000Y-76440000D01*
X58795238Y-76535238D01*
X58985714Y-76582857D01*
X59319047Y-76582857D01*
X59509523Y-76535238D01*
X59604761Y-76440000D01*
X59652380Y-76344761D01*
X59652380Y-76154285D01*
X59604761Y-76059047D01*
X59509523Y-75963809D01*
X59319047Y-75916190D01*
X58985714Y-75916190D01*
X58795238Y-75963809D01*
X58700000Y-76059047D01*
X58652380Y-76154285D01*
X59652380Y-77011428D02*
X58652380Y-77011428D01*
X59652380Y-77582857D01*
X58652380Y-77582857D01*
X59652380Y-78059047D02*
X58652380Y-78059047D01*
X59652380Y-78630476D01*
X58652380Y-78630476D01*
X59747619Y-78868571D02*
X59747619Y-79630476D01*
X58652380Y-79773333D02*
X58652380Y-80392380D01*
X59033333Y-80059047D01*
X59033333Y-80201904D01*
X59080952Y-80297142D01*
X59128571Y-80344761D01*
X59223809Y-80392380D01*
X59461904Y-80392380D01*
X59557142Y-80344761D01*
X59604761Y-80297142D01*
X59652380Y-80201904D01*
X59652380Y-79916190D01*
X59604761Y-79820952D01*
X59557142Y-79773333D01*
X59271428Y-80820952D02*
X59271428Y-81582857D01*
X59652380Y-82582857D02*
X59652380Y-82011428D01*
X59652380Y-82297142D02*
X58652380Y-82297142D01*
X58795238Y-82201904D01*
X58890476Y-82106666D01*
X58938095Y-82011428D01*
X58652380Y-83201904D02*
X58652380Y-83297142D01*
X58700000Y-83392380D01*
X58747619Y-83440000D01*
X58842857Y-83487619D01*
X59033333Y-83535238D01*
X59271428Y-83535238D01*
X59461904Y-83487619D01*
X59557142Y-83440000D01*
X59604761Y-83392380D01*
X59652380Y-83297142D01*
X59652380Y-83201904D01*
X59604761Y-83106666D01*
X59557142Y-83059047D01*
X59461904Y-83011428D01*
X59271428Y-82963809D01*
X59033333Y-82963809D01*
X58842857Y-83011428D01*
X58747619Y-83059047D01*
X58700000Y-83106666D01*
X58652380Y-83201904D01*
X58747619Y-83916190D02*
X58700000Y-83963809D01*
X58652380Y-84059047D01*
X58652380Y-84297142D01*
X58700000Y-84392380D01*
X58747619Y-84440000D01*
X58842857Y-84487619D01*
X58938095Y-84487619D01*
X59080952Y-84440000D01*
X59652380Y-83868571D01*
X59652380Y-84487619D01*
X58747619Y-84868571D02*
X58700000Y-84916190D01*
X58652380Y-85011428D01*
X58652380Y-85249523D01*
X58700000Y-85344761D01*
X58747619Y-85392380D01*
X58842857Y-85440000D01*
X58938095Y-85440000D01*
X59080952Y-85392380D01*
X59652380Y-84820952D01*
X59652380Y-85440000D01*
X58652380Y-86059047D02*
X58652380Y-86154285D01*
X58700000Y-86249523D01*
X58747619Y-86297142D01*
X58842857Y-86344761D01*
X59033333Y-86392380D01*
X59271428Y-86392380D01*
X59461904Y-86344761D01*
X59557142Y-86297142D01*
X59604761Y-86249523D01*
X59652380Y-86154285D01*
X59652380Y-86059047D01*
X59604761Y-85963809D01*
X59557142Y-85916190D01*
X59461904Y-85868571D01*
X59271428Y-85820952D01*
X59033333Y-85820952D01*
X58842857Y-85868571D01*
X58747619Y-85916190D01*
X58700000Y-85963809D01*
X58652380Y-86059047D01*
X58652380Y-86725714D02*
X58652380Y-87344761D01*
X59033333Y-87011428D01*
X59033333Y-87154285D01*
X59080952Y-87249523D01*
X59128571Y-87297142D01*
X59223809Y-87344761D01*
X59461904Y-87344761D01*
X59557142Y-87297142D01*
X59604761Y-87249523D01*
X59652380Y-87154285D01*
X59652380Y-86868571D01*
X59604761Y-86773333D01*
X59557142Y-86725714D01*
X59271428Y-87773333D02*
X59271428Y-88535238D01*
X58985714Y-89440000D02*
X59652380Y-89440000D01*
X58604761Y-89201904D02*
X59319047Y-88963809D01*
X59319047Y-89582857D01*
X59747619Y-89725714D02*
X59747619Y-90487619D01*
X58652380Y-90582857D02*
X58652380Y-91154285D01*
X59652380Y-90868571D02*
X58652380Y-90868571D01*
X59128571Y-91487619D02*
X59128571Y-91820952D01*
X59652380Y-91963809D02*
X59652380Y-91487619D01*
X58652380Y-91487619D01*
X58652380Y-91963809D01*
X59557142Y-92963809D02*
X59604761Y-92916190D01*
X59652380Y-92773333D01*
X59652380Y-92678095D01*
X59604761Y-92535238D01*
X59509523Y-92440000D01*
X59414285Y-92392380D01*
X59223809Y-92344761D01*
X59080952Y-92344761D01*
X58890476Y-92392380D01*
X58795238Y-92440000D01*
X58700000Y-92535238D01*
X58652380Y-92678095D01*
X58652380Y-92773333D01*
X58700000Y-92916190D01*
X58747619Y-92963809D01*
X58652380Y-81400000D02*
X58890476Y-81400000D01*
X58795238Y-81161904D02*
X58890476Y-81400000D01*
X58795238Y-81638095D01*
X59080952Y-81257142D02*
X58890476Y-81400000D01*
X59080952Y-81542857D01*
X59702480Y-46419166D02*
X59226290Y-46085833D01*
X59702480Y-45847738D02*
X58702480Y-45847738D01*
X58702480Y-46228690D01*
X58750100Y-46323928D01*
X58797719Y-46371547D01*
X58892957Y-46419166D01*
X59035814Y-46419166D01*
X59131052Y-46371547D01*
X59178671Y-46323928D01*
X59226290Y-46228690D01*
X59226290Y-45847738D01*
X59178671Y-46847738D02*
X59178671Y-47181071D01*
X59702480Y-47323928D02*
X59702480Y-46847738D01*
X58702480Y-46847738D01*
X58702480Y-47323928D01*
X59178671Y-48085833D02*
X59178671Y-47752500D01*
X59702480Y-47752500D02*
X58702480Y-47752500D01*
X58702480Y-48228690D01*
X58702480Y-48752500D02*
X58940576Y-48752500D01*
X58845338Y-48514404D02*
X58940576Y-48752500D01*
X58845338Y-48990595D01*
X59131052Y-48609642D02*
X58940576Y-48752500D01*
X59131052Y-48895357D01*
X58702480Y-49514404D02*
X58940576Y-49514404D01*
X58845338Y-49276309D02*
X58940576Y-49514404D01*
X58845338Y-49752500D01*
X59131052Y-49371547D02*
X58940576Y-49514404D01*
X59131052Y-49657261D01*
X59607242Y-39347738D02*
X59654861Y-39300119D01*
X59702480Y-39157261D01*
X59702480Y-39062023D01*
X59654861Y-38919166D01*
X59559623Y-38823928D01*
X59464385Y-38776309D01*
X59273909Y-38728690D01*
X59131052Y-38728690D01*
X58940576Y-38776309D01*
X58845338Y-38823928D01*
X58750100Y-38919166D01*
X58702480Y-39062023D01*
X58702480Y-39157261D01*
X58750100Y-39300119D01*
X58797719Y-39347738D01*
X58702480Y-39966785D02*
X58702480Y-40157261D01*
X58750100Y-40252500D01*
X58845338Y-40347738D01*
X59035814Y-40395357D01*
X59369147Y-40395357D01*
X59559623Y-40347738D01*
X59654861Y-40252500D01*
X59702480Y-40157261D01*
X59702480Y-39966785D01*
X59654861Y-39871547D01*
X59559623Y-39776309D01*
X59369147Y-39728690D01*
X59035814Y-39728690D01*
X58845338Y-39776309D01*
X58750100Y-39871547D01*
X58702480Y-39966785D01*
X59702480Y-40823928D02*
X58702480Y-40823928D01*
X59702480Y-41395357D01*
X58702480Y-41395357D01*
X59702480Y-41871547D02*
X58702480Y-41871547D01*
X59702480Y-42442976D01*
X58702480Y-42442976D01*
X59797719Y-42681071D02*
X59797719Y-43442976D01*
X58702480Y-43585833D02*
X58702480Y-44204880D01*
X59083433Y-43871547D01*
X59083433Y-44014404D01*
X59131052Y-44109642D01*
X59178671Y-44157261D01*
X59273909Y-44204880D01*
X59512004Y-44204880D01*
X59607242Y-44157261D01*
X59654861Y-44109642D01*
X59702480Y-44014404D01*
X59702480Y-43728690D01*
X59654861Y-43633452D01*
X59607242Y-43585833D01*
X59321528Y-44633452D02*
X59321528Y-45395357D01*
X59702480Y-46395357D02*
X59702480Y-45823928D01*
X59702480Y-46109642D02*
X58702480Y-46109642D01*
X58845338Y-46014404D01*
X58940576Y-45919166D01*
X58988195Y-45823928D01*
X58702480Y-47014404D02*
X58702480Y-47109642D01*
X58750100Y-47204880D01*
X58797719Y-47252500D01*
X58892957Y-47300119D01*
X59083433Y-47347738D01*
X59321528Y-47347738D01*
X59512004Y-47300119D01*
X59607242Y-47252500D01*
X59654861Y-47204880D01*
X59702480Y-47109642D01*
X59702480Y-47014404D01*
X59654861Y-46919166D01*
X59607242Y-46871547D01*
X59512004Y-46823928D01*
X59321528Y-46776309D01*
X59083433Y-46776309D01*
X58892957Y-46823928D01*
X58797719Y-46871547D01*
X58750100Y-46919166D01*
X58702480Y-47014404D01*
X58797719Y-47728690D02*
X58750100Y-47776309D01*
X58702480Y-47871547D01*
X58702480Y-48109642D01*
X58750100Y-48204880D01*
X58797719Y-48252500D01*
X58892957Y-48300119D01*
X58988195Y-48300119D01*
X59131052Y-48252500D01*
X59702480Y-47681071D01*
X59702480Y-48300119D01*
X58797719Y-48681071D02*
X58750100Y-48728690D01*
X58702480Y-48823928D01*
X58702480Y-49062023D01*
X58750100Y-49157261D01*
X58797719Y-49204880D01*
X58892957Y-49252499D01*
X58988195Y-49252499D01*
X59131052Y-49204880D01*
X59702480Y-48633452D01*
X59702480Y-49252499D01*
X58702480Y-49871547D02*
X58702480Y-49966785D01*
X58750100Y-50062023D01*
X58797719Y-50109642D01*
X58892957Y-50157261D01*
X59083433Y-50204880D01*
X59321528Y-50204880D01*
X59512004Y-50157261D01*
X59607242Y-50109642D01*
X59654861Y-50062023D01*
X59702480Y-49966785D01*
X59702480Y-49871547D01*
X59654861Y-49776309D01*
X59607242Y-49728690D01*
X59512004Y-49681071D01*
X59321528Y-49633452D01*
X59083433Y-49633452D01*
X58892957Y-49681071D01*
X58797719Y-49728690D01*
X58750100Y-49776309D01*
X58702480Y-49871547D01*
X58702480Y-50538214D02*
X58702480Y-51157261D01*
X59083433Y-50823928D01*
X59083433Y-50966785D01*
X59131052Y-51062023D01*
X59178671Y-51109642D01*
X59273909Y-51157261D01*
X59512004Y-51157261D01*
X59607242Y-51109642D01*
X59654861Y-51062023D01*
X59702480Y-50966785D01*
X59702480Y-50681071D01*
X59654861Y-50585833D01*
X59607242Y-50538214D01*
X59321528Y-51585833D02*
X59321528Y-52347738D01*
X59035814Y-53252499D02*
X59702480Y-53252499D01*
X58654861Y-53014404D02*
X59369147Y-52776309D01*
X59369147Y-53395357D01*
X59797719Y-53538214D02*
X59797719Y-54300119D01*
X58702480Y-54395357D02*
X58702480Y-54966785D01*
X59702480Y-54681071D02*
X58702480Y-54681071D01*
X59178671Y-55300119D02*
X59178671Y-55633452D01*
X59702480Y-55776309D02*
X59702480Y-55300119D01*
X58702480Y-55300119D01*
X58702480Y-55776309D01*
X59607242Y-56776309D02*
X59654861Y-56728690D01*
X59702480Y-56585833D01*
X59702480Y-56490595D01*
X59654861Y-56347738D01*
X59559623Y-56252499D01*
X59464385Y-56204880D01*
X59273909Y-56157261D01*
X59131052Y-56157261D01*
X58940576Y-56204880D01*
X58845338Y-56252499D01*
X58750100Y-56347738D01*
X58702480Y-56490595D01*
X58702480Y-56585833D01*
X58750100Y-56728690D01*
X58797719Y-56776309D01*
X58702480Y-45212500D02*
X58940576Y-45212500D01*
X58845338Y-44974404D02*
X58940576Y-45212500D01*
X58845338Y-45450595D01*
X59131052Y-45069642D02*
X58940576Y-45212500D01*
X59131052Y-45355357D01*
%TO.C,G\u002A\u002A\u002A*%
G36*
X108041214Y-100830446D02*
G01*
X108041214Y-70555050D01*
X124127245Y-70555050D01*
X124133196Y-71251213D01*
X124135353Y-71299505D01*
X124226976Y-72179379D01*
X124422083Y-72956799D01*
X124734515Y-73663457D01*
X125178115Y-74331046D01*
X125766724Y-74991256D01*
X126007330Y-75222339D01*
X126682961Y-75762396D01*
X127392039Y-76165924D01*
X128165428Y-76451713D01*
X128879365Y-76608422D01*
X129827506Y-76679305D01*
X130767871Y-76599168D01*
X131673022Y-76368659D01*
X132280752Y-76113336D01*
X133067674Y-75639513D01*
X133771431Y-75043650D01*
X134369941Y-74345294D01*
X134841126Y-73563993D01*
X135103591Y-72944060D01*
X135351895Y-72045404D01*
X135459020Y-71134218D01*
X135422494Y-70236439D01*
X135239846Y-69378007D01*
X135209769Y-69283744D01*
X134851348Y-68436564D01*
X134362528Y-67653416D01*
X133762057Y-66956430D01*
X133068685Y-66367736D01*
X132301161Y-65909464D01*
X131875822Y-65719226D01*
X131061562Y-65450267D01*
X130251797Y-65317922D01*
X129406676Y-65313994D01*
X129058653Y-65347347D01*
X128133163Y-65542703D01*
X127266578Y-65882394D01*
X126473220Y-66356800D01*
X125767410Y-66956301D01*
X125163466Y-67671277D01*
X124675710Y-68492108D01*
X124509479Y-68852978D01*
X124304728Y-69410142D01*
X124180870Y-69959430D01*
X124127245Y-70555050D01*
X108041214Y-70555050D01*
X108041214Y-64458504D01*
X132139878Y-64458504D01*
X132680463Y-64711474D01*
X132781606Y-64760065D01*
X133547122Y-65206502D01*
X134278616Y-65764516D01*
X134933339Y-66397935D01*
X135468541Y-67070586D01*
X135823615Y-67652128D01*
X136255048Y-68602146D01*
X136537750Y-69591574D01*
X136671216Y-70604254D01*
X136662758Y-71134218D01*
X136654940Y-71624030D01*
X136488418Y-72634742D01*
X136171146Y-73620235D01*
X135702619Y-74564350D01*
X135343840Y-75091606D01*
X134814371Y-75708002D01*
X134209575Y-76280141D01*
X133569457Y-76770765D01*
X132934026Y-77142620D01*
X132788441Y-77220443D01*
X132615858Y-77339736D01*
X132548562Y-77427768D01*
X132557088Y-77468156D01*
X132648306Y-77642480D01*
X132823918Y-77901040D01*
X133064581Y-78219615D01*
X133350957Y-78573986D01*
X133663702Y-78939934D01*
X133983478Y-79293238D01*
X134290943Y-79609680D01*
X134433242Y-79747401D01*
X135513705Y-80665843D01*
X136688139Y-81455561D01*
X137944545Y-82110183D01*
X139270921Y-82623336D01*
X140655264Y-82988648D01*
X140797897Y-83015121D01*
X141279577Y-83079732D01*
X141859432Y-83131290D01*
X142494313Y-83168211D01*
X143141069Y-83188913D01*
X143756550Y-83191811D01*
X144297606Y-83175322D01*
X144721086Y-83137862D01*
X146029996Y-82888863D01*
X147390238Y-82477096D01*
X148681667Y-81923943D01*
X149895447Y-81235860D01*
X151022744Y-80419306D01*
X152054722Y-79480739D01*
X152982547Y-78426615D01*
X153797383Y-77263392D01*
X154490395Y-75997528D01*
X154509779Y-75956814D01*
X155026565Y-74680290D01*
X155395463Y-73355512D01*
X155616456Y-71998885D01*
X155689524Y-70626812D01*
X155614650Y-69255701D01*
X155391815Y-67901955D01*
X155021002Y-66581980D01*
X154502193Y-65312180D01*
X153855220Y-64110320D01*
X153051813Y-62930097D01*
X152138249Y-61869008D01*
X151114668Y-60927196D01*
X149981211Y-60104805D01*
X148738019Y-59401979D01*
X148495522Y-59283566D01*
X147766078Y-58954249D01*
X147080125Y-58694118D01*
X146372592Y-58480270D01*
X145578409Y-58289799D01*
X145382215Y-58252016D01*
X144806748Y-58176478D01*
X144132408Y-58125633D01*
X143402355Y-58099810D01*
X142659751Y-58099337D01*
X141947758Y-58124544D01*
X141309536Y-58175759D01*
X140788248Y-58253310D01*
X140644949Y-58283251D01*
X139360996Y-58630954D01*
X138098452Y-59110873D01*
X136897072Y-59705918D01*
X135796608Y-60399002D01*
X135133249Y-60914767D01*
X134332743Y-61648154D01*
X133570419Y-62462116D01*
X132885396Y-63314343D01*
X132316794Y-64162526D01*
X132139878Y-64458504D01*
X108041214Y-64458504D01*
X108041214Y-38344823D01*
X170039936Y-38344823D01*
X170039936Y-100830446D01*
X108041214Y-100830446D01*
G37*
G36*
X151607849Y-117120200D02*
G01*
X151812478Y-117715136D01*
X151986089Y-118219701D01*
X152117826Y-118602331D01*
X152323770Y-119200377D01*
X152578680Y-119941042D01*
X152845845Y-120717693D01*
X153112237Y-121492442D01*
X153364832Y-122227404D01*
X153590602Y-122884693D01*
X153776521Y-123426423D01*
X153860969Y-123677709D01*
X153960311Y-123989140D01*
X154028209Y-124222122D01*
X154053355Y-124339362D01*
X154031824Y-124354153D01*
X153877826Y-124379742D01*
X153593086Y-124401634D01*
X153198326Y-124419817D01*
X152714268Y-124434276D01*
X152161632Y-124444998D01*
X151561141Y-124451970D01*
X150933516Y-124455178D01*
X150299478Y-124454608D01*
X149679750Y-124450247D01*
X149095053Y-124442081D01*
X148566108Y-124430097D01*
X148113637Y-124414281D01*
X147758361Y-124394619D01*
X147521003Y-124371098D01*
X147422283Y-124343705D01*
X147421358Y-124342432D01*
X147376240Y-124229767D01*
X147299721Y-123986928D01*
X147199437Y-123640277D01*
X147083022Y-123216177D01*
X146958111Y-122740989D01*
X146835739Y-122266985D01*
X146716180Y-121806732D01*
X146612509Y-121410516D01*
X146532856Y-121109401D01*
X146485350Y-120934447D01*
X146398979Y-120629182D01*
X140227423Y-120671660D01*
X139957267Y-121807763D01*
X139948499Y-121844615D01*
X139830612Y-122336940D01*
X139707910Y-122844464D01*
X139594408Y-123309465D01*
X139504119Y-123674216D01*
X139321126Y-124404568D01*
X136041273Y-124425789D01*
X136010718Y-124425984D01*
X135227048Y-124429088D01*
X134523479Y-124428226D01*
X133913706Y-124423618D01*
X133411427Y-124415482D01*
X133030338Y-124404038D01*
X132784134Y-124389505D01*
X132686512Y-124372102D01*
X132684711Y-124370122D01*
X132672616Y-124248726D01*
X132718403Y-124003960D01*
X132817417Y-123661105D01*
X132896272Y-123417465D01*
X133022373Y-123027983D01*
X133174977Y-122556732D01*
X133341552Y-122042415D01*
X133509562Y-121523737D01*
X133517524Y-121499156D01*
X133675407Y-121011287D01*
X133870324Y-120408286D01*
X134090281Y-119727304D01*
X134323283Y-119005488D01*
X134557333Y-118279989D01*
X134780437Y-117587954D01*
X134787562Y-117565843D01*
X135013321Y-116865907D01*
X135251523Y-116128405D01*
X135270118Y-116070903D01*
X141424285Y-116070903D01*
X141451939Y-116106227D01*
X141530458Y-116131722D01*
X141678414Y-116148991D01*
X141914380Y-116159634D01*
X142256929Y-116165253D01*
X142724633Y-116167450D01*
X143336065Y-116167826D01*
X143529545Y-116167689D01*
X144129954Y-116164693D01*
X144587331Y-116157185D01*
X144916736Y-116144384D01*
X145133229Y-116125506D01*
X145251872Y-116099768D01*
X145287726Y-116066389D01*
X145268905Y-115958582D01*
X145215908Y-115726131D01*
X145137071Y-115405524D01*
X145040741Y-115031724D01*
X145020447Y-114954539D01*
X144842024Y-114270859D01*
X144656610Y-113552259D01*
X144468980Y-112817940D01*
X144283910Y-112087105D01*
X144106176Y-111378954D01*
X143940555Y-110712690D01*
X143791822Y-110107514D01*
X143664754Y-109582627D01*
X143564126Y-109157233D01*
X143494715Y-108850531D01*
X143461297Y-108681724D01*
X143438211Y-108553109D01*
X143385542Y-108368710D01*
X143333866Y-108296261D01*
X143320201Y-108297417D01*
X143283869Y-108322934D01*
X143249995Y-108402253D01*
X143211757Y-108562020D01*
X143162330Y-108828883D01*
X143094891Y-109229488D01*
X143065544Y-109380150D01*
X142997585Y-109690240D01*
X142899706Y-110116597D01*
X142777453Y-110636575D01*
X142636376Y-111227532D01*
X142482022Y-111866823D01*
X142319939Y-112531804D01*
X142155677Y-113199831D01*
X141994783Y-113848259D01*
X141842805Y-114454446D01*
X141705292Y-114995746D01*
X141587792Y-115449516D01*
X141495853Y-115793112D01*
X141435024Y-116003890D01*
X141428924Y-116024148D01*
X141424285Y-116070903D01*
X135270118Y-116070903D01*
X135489737Y-115391752D01*
X135715536Y-114694362D01*
X135916490Y-114074647D01*
X136080170Y-113571021D01*
X136224751Y-113126532D01*
X136433884Y-112482539D01*
X136647290Y-111824383D01*
X136846765Y-111208215D01*
X137014105Y-110690191D01*
X137137303Y-110308626D01*
X137330611Y-109711013D01*
X137542207Y-109057822D01*
X137753895Y-108405216D01*
X137947479Y-107809360D01*
X138098697Y-107343928D01*
X138300556Y-106721550D01*
X138502773Y-106097048D01*
X138688464Y-105522568D01*
X138840749Y-105050255D01*
X138908064Y-104845560D01*
X139047270Y-104448763D01*
X139174964Y-104117683D01*
X139279284Y-103882186D01*
X139348368Y-103772140D01*
X139373524Y-103759258D01*
X139479923Y-103736060D01*
X139669411Y-103716925D01*
X139953303Y-103701555D01*
X140342912Y-103689650D01*
X140849553Y-103680911D01*
X141484540Y-103675040D01*
X142259186Y-103671737D01*
X143184807Y-103670702D01*
X143784916Y-103671085D01*
X144606147Y-103673384D01*
X145283700Y-103678024D01*
X145828964Y-103685311D01*
X146253332Y-103695551D01*
X146568193Y-103709049D01*
X146784939Y-103726109D01*
X146914961Y-103747038D01*
X146969649Y-103772140D01*
X146971944Y-103775074D01*
X146983131Y-103787400D01*
X146992882Y-103797502D01*
X147003778Y-103812793D01*
X147018400Y-103840688D01*
X147039330Y-103888602D01*
X147069151Y-103963949D01*
X147110443Y-104074143D01*
X147165789Y-104226599D01*
X147237770Y-104428731D01*
X147328968Y-104687954D01*
X147441964Y-105011683D01*
X147579341Y-105407331D01*
X147743681Y-105882313D01*
X147937564Y-106444044D01*
X148163573Y-107099938D01*
X148424290Y-107857409D01*
X148722295Y-108723872D01*
X149060172Y-109706742D01*
X149440501Y-110813433D01*
X149865865Y-112051358D01*
X150338844Y-113427934D01*
X150862022Y-114950574D01*
X150916391Y-115108797D01*
X151148951Y-115785468D01*
X151245524Y-116066389D01*
X151383056Y-116466457D01*
X151607849Y-117120200D01*
G37*
G36*
X114208626Y-124445143D02*
G01*
X107960064Y-124445143D01*
X107960064Y-103751852D01*
X114208626Y-103751852D01*
X114208626Y-124445143D01*
G37*
G36*
X130114058Y-124446091D02*
G01*
X123480032Y-124425330D01*
X116846006Y-124404568D01*
X116824511Y-121990350D01*
X116803016Y-119576133D01*
X120277451Y-119576133D01*
X121101569Y-119575133D01*
X121869396Y-119571516D01*
X122494761Y-119564990D01*
X122988081Y-119555268D01*
X123359775Y-119542067D01*
X123620258Y-119525104D01*
X123779949Y-119504094D01*
X123849265Y-119478753D01*
X123854869Y-119469497D01*
X123871369Y-119390794D01*
X123885955Y-119231385D01*
X123898718Y-118983853D01*
X123909751Y-118640779D01*
X123919144Y-118194746D01*
X123926988Y-117638337D01*
X123933375Y-116964135D01*
X123938396Y-116164721D01*
X123942142Y-115232680D01*
X123944705Y-114160593D01*
X123946175Y-112941043D01*
X123946645Y-111566612D01*
X123946645Y-103751852D01*
X130114058Y-103751852D01*
X130114058Y-124446091D01*
G37*
G36*
X170039936Y-124363993D02*
G01*
X156244409Y-124363993D01*
X156244409Y-119251533D01*
X157806550Y-119250123D01*
X158490349Y-119243640D01*
X159092336Y-119220599D01*
X159592476Y-119175735D01*
X160021768Y-119103762D01*
X160411215Y-118999392D01*
X160791815Y-118857339D01*
X161194569Y-118672315D01*
X161358266Y-118589297D01*
X161753067Y-118355957D01*
X162112551Y-118080712D01*
X162499901Y-117717339D01*
X162507708Y-117709516D01*
X162947249Y-117235943D01*
X163281138Y-116790948D01*
X163543508Y-116322348D01*
X163768493Y-115777960D01*
X163784438Y-115733360D01*
X164001556Y-114880293D01*
X164067110Y-114009367D01*
X163986529Y-113141646D01*
X163765241Y-112298195D01*
X163408675Y-111500077D01*
X162922259Y-110768357D01*
X162311422Y-110124100D01*
X162295007Y-110109736D01*
X161913169Y-109827547D01*
X161430878Y-109541736D01*
X160903679Y-109280008D01*
X160387118Y-109070069D01*
X159936741Y-108939625D01*
X159897695Y-108932258D01*
X159574306Y-108894661D01*
X159111743Y-108868849D01*
X158529514Y-108855604D01*
X157847125Y-108855711D01*
X156244409Y-108871260D01*
X156244409Y-103670702D01*
X170039936Y-103670702D01*
X170039936Y-124363993D01*
G37*
D12*
%TO.C,REF\u002A\u002A*%
X45508700Y-100247500D02*
X46778700Y-99612500D01*
X45508700Y-98977500D02*
X45508700Y-100247500D01*
X46905700Y-107613500D02*
X46905700Y-96691500D01*
X46778700Y-99612500D02*
X45508700Y-98977500D01*
X61104300Y-96691500D02*
X61104300Y-107613500D01*
X46905700Y-96691500D02*
X61104300Y-96691500D01*
X61104300Y-107613500D02*
X46905700Y-107613500D01*
%TO.C,G\u002A\u002A\u002A*%
G36*
X80256865Y-73993321D02*
G01*
X80332081Y-73853889D01*
X80350270Y-73821220D01*
X80396669Y-73740986D01*
X80460223Y-73633318D01*
X80536468Y-73505710D01*
X80620942Y-73365656D01*
X80709183Y-73220647D01*
X81011070Y-72726837D01*
X81324794Y-72726807D01*
X81324794Y-74330284D01*
X81063083Y-74330284D01*
X81073528Y-73691637D01*
X81083974Y-73052991D01*
X80987546Y-73232671D01*
X80976795Y-73252387D01*
X80928726Y-73337090D01*
X80862981Y-73449586D01*
X80784799Y-73581043D01*
X80699421Y-73722628D01*
X80612089Y-73865508D01*
X80333058Y-74318664D01*
X80166620Y-74325492D01*
X80000183Y-74332320D01*
X80000183Y-72726807D01*
X80255809Y-72726807D01*
X80256865Y-73993321D01*
G37*
G36*
X91121734Y-75132838D02*
G01*
X91281449Y-75171482D01*
X91423380Y-75238000D01*
X91537042Y-75331283D01*
X91610859Y-75426680D01*
X91692085Y-75583416D01*
X91740876Y-75752686D01*
X91758465Y-75927846D01*
X91746082Y-76102252D01*
X91704960Y-76269258D01*
X91636329Y-76422220D01*
X91541423Y-76554493D01*
X91421472Y-76659432D01*
X91277707Y-76730392D01*
X91181151Y-76753540D01*
X91032788Y-76767156D01*
X90880317Y-76761393D01*
X90745517Y-76736022D01*
X90686312Y-76713760D01*
X90566725Y-76642837D01*
X90461684Y-76548396D01*
X90387121Y-76443443D01*
X90375924Y-76420811D01*
X90351276Y-76364664D01*
X90341445Y-76331613D01*
X90351620Y-76317318D01*
X90393303Y-76294104D01*
X90453297Y-76271558D01*
X90516456Y-76254346D01*
X90567635Y-76247129D01*
X90591688Y-76254571D01*
X90607382Y-76288168D01*
X90651974Y-76355445D01*
X90708011Y-76423290D01*
X90761111Y-76473146D01*
X90846448Y-76513297D01*
X90957514Y-76531943D01*
X91075294Y-76526872D01*
X91182406Y-76497095D01*
X91223391Y-76476537D01*
X91322788Y-76397322D01*
X91396742Y-76284925D01*
X91448728Y-76134617D01*
X91464858Y-76048449D01*
X91469532Y-75888803D01*
X91443825Y-75736719D01*
X91390585Y-75600913D01*
X91312661Y-75490099D01*
X91212900Y-75412992D01*
X91179352Y-75397960D01*
X91075004Y-75371298D01*
X90961321Y-75363708D01*
X90855430Y-75375435D01*
X90774459Y-75406722D01*
X90761655Y-75416039D01*
X90703956Y-75473719D01*
X90649308Y-75547169D01*
X90614460Y-75614626D01*
X90596590Y-75618164D01*
X90550403Y-75605860D01*
X90490131Y-75582079D01*
X90429763Y-75553021D01*
X90383285Y-75524888D01*
X90364684Y-75503882D01*
X90371441Y-75475726D01*
X90404829Y-75414905D01*
X90457206Y-75345101D01*
X90518514Y-75279187D01*
X90578693Y-75230035D01*
X90640727Y-75195224D01*
X90790888Y-75143601D01*
X90954718Y-75123175D01*
X91121734Y-75132838D01*
G37*
G36*
X79558646Y-74330284D02*
G01*
X79279780Y-74330284D01*
X79279780Y-72726807D01*
X79558646Y-72726807D01*
X79558646Y-74330284D01*
G37*
G36*
X91097246Y-72707188D02*
G01*
X91253044Y-72735586D01*
X91272807Y-72741709D01*
X91419491Y-72813479D01*
X91544481Y-72922324D01*
X91643844Y-73062849D01*
X91713645Y-73229655D01*
X91749951Y-73417347D01*
X91752223Y-73614812D01*
X91719253Y-73807017D01*
X91651957Y-73976667D01*
X91552547Y-74119685D01*
X91423236Y-74231990D01*
X91266234Y-74309503D01*
X91265722Y-74309680D01*
X91088604Y-74347817D01*
X90905927Y-74345682D01*
X90729300Y-74304663D01*
X90570335Y-74226153D01*
X90514736Y-74179720D01*
X90453184Y-74112417D01*
X90397445Y-74038397D01*
X90357030Y-73970339D01*
X90341445Y-73920923D01*
X90352059Y-73904616D01*
X90393833Y-73879244D01*
X90453558Y-73854926D01*
X90516358Y-73836605D01*
X90567360Y-73829227D01*
X90591688Y-73837737D01*
X90612199Y-73883415D01*
X90680766Y-73972282D01*
X90774117Y-74048263D01*
X90878366Y-74101217D01*
X90979626Y-74121005D01*
X91067686Y-74112679D01*
X91190365Y-74075886D01*
X91290422Y-74016203D01*
X91309421Y-73998858D01*
X91383850Y-73896522D01*
X91434672Y-73766559D01*
X91461537Y-73619392D01*
X91464093Y-73465444D01*
X91441989Y-73315139D01*
X91394874Y-73178899D01*
X91322397Y-73067146D01*
X91283734Y-73031538D01*
X91181736Y-72975900D01*
X91060565Y-72944683D01*
X90935499Y-72940922D01*
X90821819Y-72967655D01*
X90808634Y-72973763D01*
X90744459Y-73016844D01*
X90683584Y-73074871D01*
X90638153Y-73134824D01*
X90620311Y-73183683D01*
X90618037Y-73199607D01*
X90602106Y-73210949D01*
X90588667Y-73205238D01*
X90540577Y-73184821D01*
X90474380Y-73156725D01*
X90434841Y-73137869D01*
X90384496Y-73105412D01*
X90364771Y-73079576D01*
X90372133Y-73046292D01*
X90409784Y-72980190D01*
X90470741Y-72907278D01*
X90545249Y-72838645D01*
X90623555Y-72785381D01*
X90636067Y-72778823D01*
X90772633Y-72730082D01*
X90931734Y-72705779D01*
X91097246Y-72707188D01*
G37*
G36*
X84947673Y-76034101D02*
G01*
X84919188Y-76236672D01*
X84858080Y-76406596D01*
X84763861Y-76544673D01*
X84636042Y-76651706D01*
X84474136Y-76728494D01*
X84383718Y-76751833D01*
X84229038Y-76767561D01*
X84068924Y-76760513D01*
X83924397Y-76730610D01*
X83857481Y-76704302D01*
X83767123Y-76648369D01*
X83669823Y-76561900D01*
X83654748Y-76546713D01*
X83571294Y-76449801D01*
X83513015Y-76350892D01*
X83476144Y-76239144D01*
X83456914Y-76103714D01*
X83453345Y-75990476D01*
X83731481Y-75990476D01*
X83740407Y-76117775D01*
X83762045Y-76219026D01*
X83803864Y-76308624D01*
X83893089Y-76417789D01*
X84007913Y-76494288D01*
X84008599Y-76494599D01*
X84142995Y-76532411D01*
X84279947Y-76529990D01*
X84408341Y-76489142D01*
X84517066Y-76411668D01*
X84526906Y-76401492D01*
X84606822Y-76282261D01*
X84655032Y-76129866D01*
X84671180Y-75945380D01*
X84667256Y-75859614D01*
X84653615Y-75753226D01*
X84633409Y-75668516D01*
X84592614Y-75578915D01*
X84509875Y-75475813D01*
X84406059Y-75404384D01*
X84288877Y-75364794D01*
X84166040Y-75357206D01*
X84045261Y-75381786D01*
X83934251Y-75438696D01*
X83840723Y-75528102D01*
X83772387Y-75650168D01*
X83750416Y-75731853D01*
X83734929Y-75855658D01*
X83731481Y-75990476D01*
X83453345Y-75990476D01*
X83451558Y-75933761D01*
X83452452Y-75840783D01*
X83457024Y-75750651D01*
X83467723Y-75681345D01*
X83487010Y-75618410D01*
X83517346Y-75547390D01*
X83598250Y-75407565D01*
X83718968Y-75278904D01*
X83869442Y-75185474D01*
X83936121Y-75158865D01*
X84005387Y-75142393D01*
X84091037Y-75134240D01*
X84208047Y-75132040D01*
X84284340Y-75132571D01*
X84371252Y-75136802D01*
X84437199Y-75147814D01*
X84497527Y-75168599D01*
X84567585Y-75202151D01*
X84695064Y-75284437D01*
X84808044Y-75404148D01*
X84887567Y-75553285D01*
X84934584Y-75733697D01*
X84949911Y-75945380D01*
X84950045Y-75947236D01*
X84947673Y-76034101D01*
G37*
G36*
X98190511Y-75176049D02*
G01*
X98116249Y-75346010D01*
X98036778Y-75497844D01*
X97864268Y-75754231D01*
X97659909Y-75980280D01*
X97427327Y-76173176D01*
X97170151Y-76330104D01*
X96892008Y-76448252D01*
X96596527Y-76524804D01*
X96388824Y-76552122D01*
X96085049Y-76555519D01*
X95789472Y-76516721D01*
X95505794Y-76438092D01*
X95237715Y-76321994D01*
X94988936Y-76170793D01*
X94763157Y-75986851D01*
X94564078Y-75772534D01*
X94395401Y-75530203D01*
X94260826Y-75262225D01*
X94164053Y-74970962D01*
X94152888Y-74923575D01*
X94118367Y-74702737D01*
X94105583Y-74476035D01*
X94533431Y-74476035D01*
X94550113Y-74497939D01*
X94584666Y-74525103D01*
X94624876Y-74546460D01*
X94658449Y-74551086D01*
X94714012Y-74537467D01*
X94758838Y-74521548D01*
X94774181Y-74537807D01*
X94756546Y-74586415D01*
X94740675Y-74630150D01*
X94752486Y-74663387D01*
X94797359Y-74668807D01*
X94871705Y-74644596D01*
X94933011Y-74620259D01*
X94971903Y-74616935D01*
X95002951Y-74634154D01*
X95027755Y-74649540D01*
X95055826Y-74642648D01*
X95095325Y-74602584D01*
X95101759Y-74595300D01*
X95144116Y-74555616D01*
X95174817Y-74539433D01*
X95203607Y-74531298D01*
X95251458Y-74505749D01*
X95258980Y-74501367D01*
X95306384Y-74482329D01*
X95369085Y-74464233D01*
X95432214Y-74450451D01*
X95480902Y-74444355D01*
X95500280Y-74449317D01*
X95494338Y-74472901D01*
X95478206Y-74528953D01*
X95455483Y-74604824D01*
X95441129Y-74646445D01*
X95383264Y-74770028D01*
X95310477Y-74883689D01*
X95262822Y-74945681D01*
X95215968Y-75002088D01*
X95181683Y-75033550D01*
X95151516Y-75047369D01*
X95117017Y-75050847D01*
X95099380Y-75053158D01*
X95052080Y-75071671D01*
X95008113Y-75100652D01*
X94980547Y-75130369D01*
X94982449Y-75151087D01*
X95030621Y-75166632D01*
X95108935Y-75176139D01*
X95198033Y-75177626D01*
X95279858Y-75169948D01*
X95347625Y-75150098D01*
X95468486Y-75085347D01*
X95607892Y-74979856D01*
X95764851Y-74834312D01*
X95924670Y-74674554D01*
X96060047Y-74808519D01*
X96094025Y-74842767D01*
X96153073Y-74908848D01*
X96177759Y-74951412D01*
X96169606Y-74974205D01*
X96130135Y-74980970D01*
X96127490Y-74981043D01*
X96086703Y-74995463D01*
X96048647Y-75025929D01*
X96025901Y-75059475D01*
X96031044Y-75083131D01*
X96057255Y-75087774D01*
X96118135Y-75087748D01*
X96197242Y-75081917D01*
X96217562Y-75079768D01*
X96289134Y-75069773D01*
X96331862Y-75053722D01*
X96360130Y-75023164D01*
X96388320Y-74969647D01*
X96435561Y-74872411D01*
X96386307Y-74761065D01*
X96368302Y-74718875D01*
X96345833Y-74660342D01*
X96337054Y-74628360D01*
X96357520Y-74618634D01*
X96412448Y-74613359D01*
X96489758Y-74613885D01*
X96642462Y-74620769D01*
X96646620Y-74818194D01*
X96650777Y-75015619D01*
X96551551Y-75028967D01*
X96507946Y-75036158D01*
X96442314Y-75056310D01*
X96417971Y-75079627D01*
X96431759Y-75103065D01*
X96480523Y-75123577D01*
X96561109Y-75138118D01*
X96670359Y-75143642D01*
X96814729Y-75143642D01*
X96932472Y-75009878D01*
X97004036Y-74934401D01*
X97082628Y-74860918D01*
X97149312Y-74807441D01*
X97248408Y-74738768D01*
X97295625Y-74803587D01*
X97345273Y-74855940D01*
X97428159Y-74901716D01*
X97545471Y-74932276D01*
X97594299Y-74946848D01*
X97624105Y-74975226D01*
X97610327Y-75006242D01*
X97552425Y-75032148D01*
X97519482Y-75042019D01*
X97471887Y-75067646D01*
X97468629Y-75094508D01*
X97510727Y-75120446D01*
X97570230Y-75137704D01*
X97668032Y-75136003D01*
X97766278Y-75091354D01*
X97820478Y-75047297D01*
X97843022Y-74998213D01*
X97832033Y-74935641D01*
X97788451Y-74849308D01*
X97783165Y-74840010D01*
X97736975Y-74722743D01*
X97708482Y-74568401D01*
X97708023Y-74564477D01*
X97692779Y-74461708D01*
X97673122Y-74363894D01*
X97653184Y-74291717D01*
X97644151Y-74264490D01*
X97630798Y-74209931D01*
X97631370Y-74182415D01*
X97640008Y-74166734D01*
X97633318Y-74116871D01*
X97597734Y-74049858D01*
X97539270Y-73972453D01*
X97463941Y-73891416D01*
X97377758Y-73813506D01*
X97286737Y-73745479D01*
X97196889Y-73694096D01*
X97168864Y-73681196D01*
X97093610Y-73650774D01*
X97024934Y-73633416D01*
X96945179Y-73625694D01*
X96836688Y-73624183D01*
X96826794Y-73624237D01*
X96695246Y-73627457D01*
X96551304Y-73634481D01*
X96424399Y-73643900D01*
X96343763Y-73650853D01*
X96267307Y-73653595D01*
X96208372Y-73647228D01*
X96150746Y-73629632D01*
X96078217Y-73598692D01*
X96046802Y-73584925D01*
X95964558Y-73555063D01*
X95895355Y-73544165D01*
X95818847Y-73548276D01*
X95786206Y-73553300D01*
X95694836Y-73576304D01*
X95618917Y-73606473D01*
X95606766Y-73612903D01*
X95538390Y-73648672D01*
X95448855Y-73695104D01*
X95354263Y-73743841D01*
X95324211Y-73759484D01*
X95239396Y-73805942D01*
X95171142Y-73846591D01*
X95132016Y-73874069D01*
X95128506Y-73877199D01*
X95092082Y-73898142D01*
X95061601Y-73882620D01*
X95052505Y-73874834D01*
X95025183Y-73872065D01*
X94989753Y-73906035D01*
X94979713Y-73917618D01*
X94935815Y-73946225D01*
X94875209Y-73943798D01*
X94836715Y-73937905D01*
X94809382Y-73945972D01*
X94803293Y-73979738D01*
X94803205Y-73982882D01*
X94787821Y-74037195D01*
X94754015Y-74096715D01*
X94753771Y-74097045D01*
X94716633Y-74165349D01*
X94696280Y-74235994D01*
X94684713Y-74277350D01*
X94653694Y-74340536D01*
X94613044Y-74402980D01*
X94572099Y-74450701D01*
X94540197Y-74469716D01*
X94533431Y-74476035D01*
X94105583Y-74476035D01*
X94104904Y-74463991D01*
X94112923Y-74226586D01*
X94142849Y-74009771D01*
X94222109Y-73730087D01*
X94345020Y-73455089D01*
X94505830Y-73199443D01*
X94700450Y-72969622D01*
X94924791Y-72772099D01*
X95076047Y-72667738D01*
X95342701Y-72524966D01*
X95620039Y-72423344D01*
X95903954Y-72361963D01*
X96190339Y-72339912D01*
X96475084Y-72356281D01*
X96754084Y-72410162D01*
X97023230Y-72500644D01*
X97278415Y-72626818D01*
X97515530Y-72787775D01*
X97730469Y-72982604D01*
X97919123Y-73210396D01*
X98077385Y-73470241D01*
X98147619Y-73616764D01*
X98229664Y-73834664D01*
X98281478Y-74052998D01*
X98305947Y-74285342D01*
X98305957Y-74545277D01*
X98298271Y-74680648D01*
X98277698Y-74859508D01*
X98247618Y-74998213D01*
X98243053Y-75019262D01*
X98190511Y-75176049D01*
G37*
G36*
X82788838Y-76747118D02*
G01*
X82788838Y-76119671D01*
X82620356Y-76120545D01*
X82451875Y-76121419D01*
X82256167Y-76434268D01*
X82060459Y-76747118D01*
X81913395Y-76747118D01*
X81842778Y-76745234D01*
X81787503Y-76739731D01*
X81766331Y-76731877D01*
X81768799Y-76725609D01*
X81790763Y-76686774D01*
X81831806Y-76619570D01*
X81887462Y-76531238D01*
X81953260Y-76429018D01*
X81982247Y-76384252D01*
X82045676Y-76285051D01*
X82097886Y-76201679D01*
X82134111Y-76141807D01*
X82149581Y-76113107D01*
X82144039Y-76095535D01*
X82108955Y-76058119D01*
X82051328Y-76015096D01*
X82002544Y-75979850D01*
X81915859Y-75884708D01*
X81866406Y-75767516D01*
X81851785Y-75630107D01*
X82124880Y-75630107D01*
X82140361Y-75720522D01*
X82187100Y-75798829D01*
X82264382Y-75853261D01*
X82317586Y-75868570D01*
X82425591Y-75882473D01*
X82567323Y-75887283D01*
X82788838Y-75887283D01*
X82788838Y-75376030D01*
X82550640Y-75376116D01*
X82519682Y-75376205D01*
X82411907Y-75378762D01*
X82336598Y-75386067D01*
X82282457Y-75399760D01*
X82238182Y-75421483D01*
X82190547Y-75460023D01*
X82141370Y-75539352D01*
X82124880Y-75630107D01*
X81851785Y-75630107D01*
X81850905Y-75621840D01*
X81852101Y-75577617D01*
X81873020Y-75454153D01*
X81924557Y-75353992D01*
X82012658Y-75263980D01*
X82037033Y-75244951D01*
X82096125Y-75208495D01*
X82164837Y-75181628D01*
X82250522Y-75163029D01*
X82360532Y-75151378D01*
X82502218Y-75145356D01*
X82682934Y-75143642D01*
X83067703Y-75143642D01*
X83067703Y-76747118D01*
X82788838Y-76747118D01*
G37*
G36*
X78876587Y-73980018D02*
G01*
X78924168Y-74107625D01*
X78961205Y-74207124D01*
X78985781Y-74273374D01*
X78995980Y-74301235D01*
X78989342Y-74317462D01*
X78948363Y-74327287D01*
X78866818Y-74330284D01*
X78727748Y-74330284D01*
X78652333Y-74121135D01*
X78576917Y-73911986D01*
X77914391Y-73911986D01*
X77763559Y-74330284D01*
X77626976Y-74330284D01*
X77566212Y-74328456D01*
X77511268Y-74322134D01*
X77489895Y-74312855D01*
X77497114Y-74289506D01*
X77518989Y-74227357D01*
X77553703Y-74131522D01*
X77599426Y-74006991D01*
X77654323Y-73858754D01*
X77716564Y-73691799D01*
X77720273Y-73681909D01*
X78007616Y-73681909D01*
X78023424Y-73693048D01*
X78062832Y-73699368D01*
X78133465Y-73702190D01*
X78242943Y-73702836D01*
X78323559Y-73701874D01*
X78409288Y-73698237D01*
X78467557Y-73692524D01*
X78488859Y-73685407D01*
X78486202Y-73674948D01*
X78470644Y-73626728D01*
X78443527Y-73547222D01*
X78407567Y-73444335D01*
X78365476Y-73325973D01*
X78242895Y-72983967D01*
X78131825Y-73302734D01*
X78116605Y-73346466D01*
X78077449Y-73459455D01*
X78044304Y-73555781D01*
X78020280Y-73626376D01*
X78008491Y-73662169D01*
X78007786Y-73664628D01*
X78007616Y-73681909D01*
X77720273Y-73681909D01*
X77784316Y-73511116D01*
X78079235Y-72726807D01*
X78408325Y-72727571D01*
X78697199Y-73499879D01*
X78757456Y-73661034D01*
X78766562Y-73685407D01*
X78820378Y-73829441D01*
X78876587Y-73980018D01*
G37*
G36*
X76491125Y-74330284D02*
G01*
X75305947Y-74330284D01*
X75305947Y-74097896D01*
X76235498Y-74097896D01*
X76235498Y-73633120D01*
X75538335Y-73633120D01*
X75538335Y-73400732D01*
X76235498Y-73400732D01*
X76235498Y-72959195D01*
X75329185Y-72959195D01*
X75329185Y-72726807D01*
X76491125Y-72726807D01*
X76491125Y-74330284D01*
G37*
G36*
X77513632Y-76747118D02*
G01*
X77254726Y-76747118D01*
X77262175Y-76096414D01*
X77262468Y-76070597D01*
X77264236Y-75904156D01*
X77265617Y-75754794D01*
X77266572Y-75628392D01*
X77267063Y-75530828D01*
X77267050Y-75467980D01*
X77266494Y-75445728D01*
X77265407Y-75448062D01*
X77252567Y-75482316D01*
X77226876Y-75553260D01*
X77190258Y-75655504D01*
X77144641Y-75783660D01*
X77091948Y-75932337D01*
X77034106Y-76096146D01*
X76804849Y-76746547D01*
X76688413Y-76746833D01*
X76571977Y-76747118D01*
X76375683Y-76195197D01*
X76335461Y-76082220D01*
X76281465Y-75930920D01*
X76232496Y-75794110D01*
X76191181Y-75679118D01*
X76160150Y-75593273D01*
X76142032Y-75543902D01*
X76133914Y-75523268D01*
X76124847Y-75506012D01*
X76118108Y-75505698D01*
X76113491Y-75526545D01*
X76110789Y-75572771D01*
X76109796Y-75648593D01*
X76110305Y-75758231D01*
X76112109Y-75905902D01*
X76115002Y-76095823D01*
X76125328Y-76747118D01*
X75863678Y-76747118D01*
X75863678Y-75143642D01*
X76253420Y-75143642D01*
X76416043Y-75614227D01*
X76424187Y-75637823D01*
X76476423Y-75790486D01*
X76526446Y-75938761D01*
X76570972Y-76072777D01*
X76606718Y-76182663D01*
X76630400Y-76258550D01*
X76682134Y-76432288D01*
X76772540Y-76142356D01*
X76779566Y-76119947D01*
X76824364Y-75980716D01*
X76877719Y-75819465D01*
X76933542Y-75654430D01*
X76985745Y-75503843D01*
X77108544Y-75155261D01*
X77311088Y-75148547D01*
X77513632Y-75141832D01*
X77513632Y-76747118D01*
G37*
G36*
X73783498Y-72728695D02*
G01*
X73926442Y-72780170D01*
X73933202Y-72783673D01*
X74071799Y-72881781D01*
X74182091Y-73012490D01*
X74261918Y-73170165D01*
X74309126Y-73349169D01*
X74321556Y-73543865D01*
X74297051Y-73748616D01*
X74285538Y-73798082D01*
X74220207Y-73976972D01*
X74124363Y-74121280D01*
X73997007Y-74232227D01*
X73837140Y-74311034D01*
X73820110Y-74316786D01*
X73674309Y-74345332D01*
X73513833Y-74347355D01*
X73356960Y-74323895D01*
X73221968Y-74275994D01*
X73136850Y-74222440D01*
X73041754Y-74139453D01*
X72963886Y-74047309D01*
X72916148Y-73959367D01*
X72906162Y-73924022D01*
X72912929Y-73899800D01*
X72946432Y-73880629D01*
X73015581Y-73857369D01*
X73069152Y-73840507D01*
X73124816Y-73825068D01*
X73153862Y-73824462D01*
X73167303Y-73839669D01*
X73176151Y-73871670D01*
X73206928Y-73932921D01*
X73272893Y-74002761D01*
X73359207Y-74062578D01*
X73452653Y-74101391D01*
X73501069Y-74112678D01*
X73581851Y-74118495D01*
X73668763Y-74102497D01*
X73704332Y-74092303D01*
X73808475Y-74048629D01*
X73886256Y-73985467D01*
X73953239Y-73891260D01*
X73959319Y-73880833D01*
X73985356Y-73831197D01*
X74001977Y-73783169D01*
X74011266Y-73724729D01*
X74015309Y-73643861D01*
X74016194Y-73528546D01*
X74016168Y-73501179D01*
X74014818Y-73394128D01*
X74009884Y-73318989D01*
X73999258Y-73263714D01*
X73980830Y-73216253D01*
X73952493Y-73164557D01*
X73952269Y-73164177D01*
X73863642Y-73052174D01*
X73751222Y-72979406D01*
X73611276Y-72943453D01*
X73543857Y-72939379D01*
X73412352Y-72958927D01*
X73304943Y-73016391D01*
X73224740Y-73110428D01*
X73165687Y-73211195D01*
X73056448Y-73163807D01*
X73017163Y-73146237D01*
X72959792Y-73118339D01*
X72929742Y-73100514D01*
X72926022Y-73084808D01*
X72942561Y-73040056D01*
X72979543Y-72979747D01*
X73029421Y-72914398D01*
X73084651Y-72854526D01*
X73137687Y-72810650D01*
X73157581Y-72798341D01*
X73294386Y-72740671D01*
X73453573Y-72709482D01*
X73621242Y-72705311D01*
X73783498Y-72728695D01*
G37*
G36*
X90033102Y-73875822D02*
G01*
X90088677Y-74023413D01*
X90135128Y-74147066D01*
X90170619Y-74241900D01*
X90193318Y-74303033D01*
X90201390Y-74325583D01*
X90184848Y-74328014D01*
X90133282Y-74328167D01*
X90058786Y-74325583D01*
X89915559Y-74318664D01*
X89772095Y-73911060D01*
X89437213Y-73917333D01*
X89102330Y-73923605D01*
X89030534Y-74126878D01*
X88958737Y-74330151D01*
X88813821Y-74330218D01*
X88668905Y-74330284D01*
X88718655Y-74196661D01*
X88722749Y-74185688D01*
X88747611Y-74119405D01*
X88785668Y-74018256D01*
X88834360Y-73889027D01*
X88891130Y-73738505D01*
X88914446Y-73676734D01*
X89202744Y-73676734D01*
X89205547Y-73682143D01*
X89242516Y-73693724D01*
X89323346Y-73700580D01*
X89449238Y-73702836D01*
X89469762Y-73702826D01*
X89572178Y-73701970D01*
X89636813Y-73698801D01*
X89671151Y-73691995D01*
X89682677Y-73680226D01*
X89678874Y-73662169D01*
X89675213Y-73652792D01*
X89656663Y-73602189D01*
X89627351Y-73520235D01*
X89590484Y-73415927D01*
X89549266Y-73298265D01*
X89528922Y-73240935D01*
X89491116Y-73139967D01*
X89459562Y-73062987D01*
X89437090Y-73016693D01*
X89426530Y-73007780D01*
X89424843Y-73013050D01*
X89410027Y-73056822D01*
X89383804Y-73132857D01*
X89349301Y-73232122D01*
X89309644Y-73345581D01*
X89297637Y-73380011D01*
X89260367Y-73489157D01*
X89230241Y-73580838D01*
X89210090Y-73646286D01*
X89202744Y-73676734D01*
X88914446Y-73676734D01*
X88953420Y-73573478D01*
X89018671Y-73400732D01*
X89268938Y-72738427D01*
X89603197Y-72738427D01*
X89901982Y-73528546D01*
X89959296Y-73680226D01*
X89970235Y-73709176D01*
X90033102Y-73875822D01*
G37*
G36*
X90076585Y-76164000D02*
G01*
X90027850Y-76330940D01*
X89951515Y-76477684D01*
X89847963Y-76595355D01*
X89817031Y-76619723D01*
X89725552Y-76678753D01*
X89634421Y-76723894D01*
X89548580Y-76749135D01*
X89403918Y-76766814D01*
X89249715Y-76763238D01*
X89103294Y-76739165D01*
X88981976Y-76695352D01*
X88852049Y-76610856D01*
X88736133Y-76488428D01*
X88652046Y-76334900D01*
X88597484Y-76146986D01*
X88584908Y-76066935D01*
X88581469Y-75933761D01*
X88868990Y-75933761D01*
X88869659Y-75982962D01*
X88891829Y-76161271D01*
X88944887Y-76306384D01*
X89028403Y-76417424D01*
X89141950Y-76493511D01*
X89271032Y-76531137D01*
X89414765Y-76529979D01*
X89552024Y-76485682D01*
X89625397Y-76440012D01*
X89712357Y-76348445D01*
X89769948Y-76227723D01*
X89799541Y-76074558D01*
X89802510Y-75885661D01*
X89796922Y-75798923D01*
X89784855Y-75713132D01*
X89763975Y-75645455D01*
X89730485Y-75579770D01*
X89655375Y-75481112D01*
X89544498Y-75401892D01*
X89408860Y-75361984D01*
X89386146Y-75359306D01*
X89240747Y-75365066D01*
X89115286Y-75410783D01*
X89012573Y-75493485D01*
X88935414Y-75610197D01*
X88886617Y-75757947D01*
X88868990Y-75933761D01*
X88581469Y-75933761D01*
X88579901Y-75873021D01*
X88609424Y-75687694D01*
X88671022Y-75518647D01*
X88762236Y-75373578D01*
X88880611Y-75260182D01*
X88978183Y-75201961D01*
X89136008Y-75146187D01*
X89304904Y-75123446D01*
X89475393Y-75132932D01*
X89638002Y-75173844D01*
X89783254Y-75245379D01*
X89901673Y-75346732D01*
X89987897Y-75471767D01*
X90053377Y-75630746D01*
X90089730Y-75805028D01*
X90093125Y-75885661D01*
X90097339Y-75985737D01*
X90076585Y-76164000D01*
G37*
G36*
X86948582Y-74330284D02*
G01*
X86669716Y-74330284D01*
X86669716Y-72726807D01*
X86948582Y-72726807D01*
X86948582Y-74330284D01*
G37*
G36*
X79976944Y-76747118D02*
G01*
X79698078Y-76747118D01*
X79698078Y-75143642D01*
X79976944Y-75143642D01*
X79976944Y-76747118D01*
G37*
G36*
X99002351Y-76510866D02*
G01*
X98989483Y-76530621D01*
X98743704Y-76827818D01*
X98466736Y-77092407D01*
X98403988Y-77144421D01*
X98076518Y-77381997D01*
X97731130Y-77577337D01*
X97366022Y-77731224D01*
X96979393Y-77844441D01*
X96569442Y-77917773D01*
X96520117Y-77922308D01*
X96400910Y-77926217D01*
X96254038Y-77925012D01*
X96091396Y-77919306D01*
X95924877Y-77909711D01*
X95766376Y-77896842D01*
X95627788Y-77881311D01*
X95521007Y-77863731D01*
X95137049Y-77760600D01*
X94764571Y-77614945D01*
X94745574Y-77604914D01*
X96255718Y-77604914D01*
X96383531Y-77604032D01*
X96387649Y-77603993D01*
X96521523Y-77594699D01*
X96683773Y-77571460D01*
X96859983Y-77537076D01*
X97035734Y-77494349D01*
X97196606Y-77446080D01*
X97362293Y-77383153D01*
X97551879Y-77297898D01*
X97740960Y-77201136D01*
X97914681Y-77100495D01*
X98058192Y-77003602D01*
X98111596Y-76962381D01*
X98206615Y-76884557D01*
X98304570Y-76799885D01*
X98397618Y-76715545D01*
X98477915Y-76638714D01*
X98537615Y-76576570D01*
X98568875Y-76536292D01*
X98575570Y-76510866D01*
X98555265Y-76504409D01*
X98511061Y-76520624D01*
X98510142Y-76520961D01*
X98446526Y-76557342D01*
X98370741Y-76610376D01*
X98289112Y-76676882D01*
X98285086Y-76680403D01*
X97977584Y-76922813D01*
X97659487Y-77122793D01*
X97332871Y-77279345D01*
X96999815Y-77391471D01*
X96662397Y-77458174D01*
X96612687Y-77466433D01*
X96534970Y-77486347D01*
X96482085Y-77508749D01*
X96475995Y-77512561D01*
X96414481Y-77544268D01*
X96342652Y-77573886D01*
X96255718Y-77604914D01*
X94745574Y-77604914D01*
X94415323Y-77430533D01*
X94091605Y-77209146D01*
X93795722Y-76952565D01*
X93529975Y-76662570D01*
X93296667Y-76340944D01*
X93098101Y-75989467D01*
X93073347Y-75938173D01*
X92927709Y-75576353D01*
X92824892Y-75201651D01*
X92764885Y-74818517D01*
X92747676Y-74431400D01*
X92752139Y-74363924D01*
X93074853Y-74363924D01*
X93076081Y-74613587D01*
X93093321Y-74853485D01*
X93126574Y-75066684D01*
X93214747Y-75398956D01*
X93351717Y-75755052D01*
X93525838Y-76087316D01*
X93734778Y-76393396D01*
X93976205Y-76670940D01*
X94247785Y-76917599D01*
X94547185Y-77131020D01*
X94872073Y-77308853D01*
X95220116Y-77448746D01*
X95588981Y-77548349D01*
X95610214Y-77552589D01*
X95697896Y-77567370D01*
X95792556Y-77579990D01*
X95886610Y-77589937D01*
X95972471Y-77596700D01*
X96042554Y-77599765D01*
X96089273Y-77598621D01*
X96105042Y-77592756D01*
X96082276Y-77581657D01*
X96081916Y-77581545D01*
X96007911Y-77551665D01*
X95942843Y-77515110D01*
X95910286Y-77498086D01*
X95835549Y-77473676D01*
X95750302Y-77457294D01*
X95608906Y-77434518D01*
X95354030Y-77370572D01*
X95091951Y-77279219D01*
X94836850Y-77165675D01*
X94602904Y-77035156D01*
X94461631Y-76941323D01*
X94164259Y-76704955D01*
X93901780Y-76438588D01*
X93675570Y-76144149D01*
X93487009Y-75823567D01*
X93337472Y-75478769D01*
X93228339Y-75111683D01*
X93207110Y-75016579D01*
X93189994Y-74923652D01*
X93178523Y-74832150D01*
X93171592Y-74730101D01*
X93168096Y-74605534D01*
X93166929Y-74446478D01*
X93166965Y-74434858D01*
X93246294Y-74434858D01*
X93249948Y-74596563D01*
X93287915Y-74964256D01*
X93367574Y-75311857D01*
X93489506Y-75640767D01*
X93654292Y-75952390D01*
X93862515Y-76248126D01*
X94114754Y-76529378D01*
X94238983Y-76648232D01*
X94501072Y-76863432D01*
X94774332Y-77039004D01*
X95066490Y-77179573D01*
X95385277Y-77289766D01*
X95417869Y-77298998D01*
X95534183Y-77329254D01*
X95639125Y-77352683D01*
X95724380Y-77367752D01*
X95781630Y-77372928D01*
X95802561Y-77366678D01*
X95801934Y-77364459D01*
X96615919Y-77364459D01*
X96627339Y-77372391D01*
X96675393Y-77371544D01*
X96753728Y-77359095D01*
X96854448Y-77336985D01*
X96969654Y-77307154D01*
X97091448Y-77271542D01*
X97211932Y-77232088D01*
X97323207Y-77190734D01*
X97363894Y-77173956D01*
X97559266Y-77081383D01*
X97756019Y-76970447D01*
X97942550Y-76848609D01*
X98107255Y-76723333D01*
X98238528Y-76602082D01*
X98315756Y-76520624D01*
X98256113Y-76505654D01*
X98249752Y-76504245D01*
X98213991Y-76504606D01*
X98170483Y-76522111D01*
X98110320Y-76561438D01*
X98024595Y-76627266D01*
X97979224Y-76662733D01*
X97763113Y-76816839D01*
X97547683Y-76947507D01*
X97345375Y-77047049D01*
X97330501Y-77053286D01*
X97222608Y-77094879D01*
X97102065Y-77136429D01*
X96980068Y-77174583D01*
X96867814Y-77205986D01*
X96776499Y-77227287D01*
X96717319Y-77235133D01*
X96670600Y-77254339D01*
X96631836Y-77303171D01*
X96615919Y-77364459D01*
X95801934Y-77364459D01*
X95796069Y-77343703D01*
X95776879Y-77297147D01*
X95761875Y-77272154D01*
X95720082Y-77243020D01*
X95646461Y-77226425D01*
X95602864Y-77218132D01*
X95514359Y-77195972D01*
X95406771Y-77165085D01*
X95294513Y-77129444D01*
X95048290Y-77035006D01*
X94749176Y-76881220D01*
X94471514Y-76689875D01*
X94208700Y-76456880D01*
X94066896Y-76306428D01*
X93845490Y-76020548D01*
X93664846Y-75713891D01*
X93525965Y-75388996D01*
X93429849Y-75048404D01*
X93377500Y-74694653D01*
X93373688Y-74511441D01*
X93452117Y-74511441D01*
X93483534Y-74858748D01*
X93556669Y-75199452D01*
X93670907Y-75527792D01*
X93825631Y-75838009D01*
X93848386Y-75876172D01*
X94040558Y-76149891D01*
X94267844Y-76400570D01*
X94524355Y-76623593D01*
X94804200Y-76814340D01*
X95101488Y-76968193D01*
X95410329Y-77080533D01*
X95500068Y-77106267D01*
X95605515Y-77135436D01*
X95677141Y-77152447D01*
X95721478Y-77157857D01*
X95745058Y-77152224D01*
X95754416Y-77136106D01*
X95754447Y-77135622D01*
X96663206Y-77135622D01*
X96667118Y-77153303D01*
X96685815Y-77159305D01*
X96726876Y-77153742D01*
X96797879Y-77136725D01*
X96906404Y-77108367D01*
X97107159Y-77047774D01*
X97434801Y-76911282D01*
X97740135Y-76734559D01*
X98020605Y-76518955D01*
X98059927Y-76482861D01*
X98094976Y-76439961D01*
X98097440Y-76407998D01*
X98070744Y-76377289D01*
X98063896Y-76372520D01*
X98035703Y-76369924D01*
X97993908Y-76392502D01*
X97929394Y-76444596D01*
X97903711Y-76466456D01*
X97674975Y-76635328D01*
X97419974Y-76783945D01*
X97153246Y-76904685D01*
X96889327Y-76989926D01*
X96798463Y-77013558D01*
X96730848Y-77034538D01*
X96692152Y-77053743D01*
X96673660Y-77075668D01*
X96666663Y-77104808D01*
X96666499Y-77106151D01*
X96663206Y-77135622D01*
X95754447Y-77135622D01*
X95756084Y-77110062D01*
X95749211Y-77070991D01*
X95720305Y-77046142D01*
X95657319Y-77025885D01*
X95645939Y-77022976D01*
X95365479Y-76940374D01*
X95117082Y-76843270D01*
X94887594Y-76725787D01*
X94663861Y-76582049D01*
X94534213Y-76483480D01*
X94295933Y-76260748D01*
X94083863Y-76005251D01*
X93902228Y-75723132D01*
X93755255Y-75420537D01*
X93647169Y-75103609D01*
X93630809Y-75041562D01*
X93613188Y-74965449D01*
X93600823Y-74892597D01*
X93592800Y-74813058D01*
X93588202Y-74716886D01*
X93586115Y-74594135D01*
X93585622Y-74434858D01*
X93585844Y-74319054D01*
X93585964Y-74308628D01*
X93652552Y-74308628D01*
X93656679Y-74641077D01*
X93704500Y-74970075D01*
X93795745Y-75291843D01*
X93930141Y-75602604D01*
X94107419Y-75898581D01*
X94190278Y-76006245D01*
X94299650Y-76130232D01*
X94423876Y-76258499D01*
X94552394Y-76380589D01*
X94674641Y-76486047D01*
X94780055Y-76564416D01*
X94961127Y-76672013D01*
X95185957Y-76782441D01*
X95407502Y-76869020D01*
X95414224Y-76871251D01*
X95513216Y-76901907D01*
X95607622Y-76927717D01*
X95677847Y-76943297D01*
X95693351Y-76945818D01*
X95750648Y-76949837D01*
X95787160Y-76933771D01*
X95823204Y-76890198D01*
X95872506Y-76820959D01*
X95868064Y-76820226D01*
X96550311Y-76820226D01*
X96588925Y-76888100D01*
X96603419Y-76911534D01*
X96629651Y-76938649D01*
X96665618Y-76950459D01*
X96719930Y-76947178D01*
X96801195Y-76929015D01*
X96918023Y-76896183D01*
X96999357Y-76870787D01*
X97245903Y-76774526D01*
X97484578Y-76654087D01*
X97702548Y-76516457D01*
X97886983Y-76368623D01*
X97921090Y-76336279D01*
X97960668Y-76290307D01*
X97974892Y-76251212D01*
X97971060Y-76204770D01*
X97970457Y-76201623D01*
X97958728Y-76149142D01*
X97949717Y-76122513D01*
X97949155Y-76122203D01*
X97926822Y-76134909D01*
X97880519Y-76171335D01*
X97819432Y-76224306D01*
X97626263Y-76378431D01*
X97392403Y-76526750D01*
X97143284Y-76651102D01*
X96890844Y-76745580D01*
X96647022Y-76804278D01*
X96550311Y-76820226D01*
X95868064Y-76820226D01*
X95773627Y-76804644D01*
X95761648Y-76802591D01*
X95610558Y-76767055D01*
X95439368Y-76712519D01*
X95265255Y-76645000D01*
X95105398Y-76570519D01*
X94890120Y-76445123D01*
X94626279Y-76245907D01*
X94394224Y-76014334D01*
X94196415Y-75753328D01*
X94035316Y-75465812D01*
X93913387Y-75154711D01*
X93878825Y-75034267D01*
X93819366Y-74717318D01*
X93803499Y-74401712D01*
X93807074Y-74358557D01*
X93888658Y-74358557D01*
X93898365Y-74670841D01*
X93950435Y-74977984D01*
X94044209Y-75275978D01*
X94179025Y-75560812D01*
X94354222Y-75828476D01*
X94569139Y-76074959D01*
X94606071Y-76111158D01*
X94858869Y-76323190D01*
X95132839Y-76493864D01*
X95428386Y-76623399D01*
X95745914Y-76712014D01*
X95802567Y-76723510D01*
X95879205Y-76736183D01*
X95935566Y-76738119D01*
X95987779Y-76729168D01*
X96051969Y-76709181D01*
X96074478Y-76701740D01*
X96149300Y-76682712D01*
X96214417Y-76681576D01*
X96295976Y-76697027D01*
X96387978Y-76717968D01*
X96469412Y-76732284D01*
X96535475Y-76735639D01*
X96602203Y-76728644D01*
X96685636Y-76711913D01*
X96970659Y-76629528D01*
X97258321Y-76506333D01*
X97522232Y-76351332D01*
X97561877Y-76323457D01*
X97674081Y-76236752D01*
X97780297Y-76144355D01*
X97872339Y-76054112D01*
X97942021Y-75973869D01*
X97981158Y-75911471D01*
X98004367Y-75867693D01*
X98055202Y-75793921D01*
X98115555Y-75721741D01*
X98166209Y-75661703D01*
X98267639Y-75504585D01*
X98357753Y-75314195D01*
X98432731Y-75099268D01*
X98488752Y-74868542D01*
X98494411Y-74836400D01*
X98512133Y-74678479D01*
X98519944Y-74497364D01*
X98517923Y-74310223D01*
X98506148Y-74134223D01*
X98484699Y-73986532D01*
X98484404Y-73985098D01*
X98396165Y-73667816D01*
X98267861Y-73372031D01*
X98101828Y-73100221D01*
X97900403Y-72854863D01*
X97665922Y-72638433D01*
X97400723Y-72453409D01*
X97107142Y-72302267D01*
X96787515Y-72187483D01*
X96784841Y-72186713D01*
X96710899Y-72167048D01*
X96640801Y-72153021D01*
X96564485Y-72143747D01*
X96471890Y-72138341D01*
X96352956Y-72135917D01*
X96197621Y-72135592D01*
X96116252Y-72135899D01*
X95984141Y-72137489D01*
X95883000Y-72141287D01*
X95802512Y-72148373D01*
X95732359Y-72159831D01*
X95662225Y-72176743D01*
X95581793Y-72200191D01*
X95278884Y-72313417D01*
X94988160Y-72467683D01*
X94725189Y-72656847D01*
X94492697Y-72878632D01*
X94293412Y-73130768D01*
X94130058Y-73410979D01*
X94120332Y-73430965D01*
X93998981Y-73734609D01*
X93921976Y-74045143D01*
X93888658Y-74358557D01*
X93807074Y-74358557D01*
X93829236Y-74091030D01*
X93894588Y-73788853D01*
X93997569Y-73498763D01*
X94136190Y-73224340D01*
X94308463Y-72969166D01*
X94512400Y-72736822D01*
X94746014Y-72530888D01*
X95007315Y-72354947D01*
X95294317Y-72212579D01*
X95605032Y-72107365D01*
X95660724Y-72092979D01*
X95752260Y-72072343D01*
X95838872Y-72058548D01*
X95933407Y-72050232D01*
X96048708Y-72046036D01*
X96197621Y-72044598D01*
X96240752Y-72044533D01*
X96382757Y-72045904D01*
X96493869Y-72050714D01*
X96586445Y-72060111D01*
X96672841Y-72075239D01*
X96765413Y-72097244D01*
X97089727Y-72203647D01*
X97391386Y-72348502D01*
X97665947Y-72528912D01*
X97911049Y-72742513D01*
X98124331Y-72986946D01*
X98303431Y-73259848D01*
X98445988Y-73558857D01*
X98549641Y-73881613D01*
X98550792Y-73886235D01*
X98571750Y-73979943D01*
X98586003Y-74070404D01*
X98594647Y-74170037D01*
X98598778Y-74291256D01*
X98599491Y-74446478D01*
X98599182Y-74497364D01*
X98599062Y-74517107D01*
X98596418Y-74650740D01*
X98590383Y-74756172D01*
X98579637Y-74846098D01*
X98562858Y-74933212D01*
X98538725Y-75030210D01*
X98528958Y-75065437D01*
X98488288Y-75194618D01*
X98441058Y-75325585D01*
X98395609Y-75434763D01*
X98379864Y-75469161D01*
X98346302Y-75545084D01*
X98324289Y-75598810D01*
X98317971Y-75620422D01*
X98320148Y-75621042D01*
X98352753Y-75620175D01*
X98409949Y-75614333D01*
X98441937Y-75609428D01*
X98476028Y-75596646D01*
X98503078Y-75568720D01*
X98531125Y-75516287D01*
X98568205Y-75429987D01*
X98673558Y-75125350D01*
X98742916Y-74791305D01*
X98767209Y-74453115D01*
X98746434Y-74114527D01*
X98680588Y-73779289D01*
X98569668Y-73451151D01*
X98560113Y-73428332D01*
X98408913Y-73130545D01*
X98219979Y-72856395D01*
X97997250Y-72609295D01*
X97744668Y-72392657D01*
X97466174Y-72209895D01*
X97165709Y-72064421D01*
X96847215Y-71959648D01*
X96667595Y-71920463D01*
X96333094Y-71882073D01*
X96001976Y-71887311D01*
X95677957Y-71934479D01*
X95364752Y-72021881D01*
X95066078Y-72147819D01*
X94785651Y-72310596D01*
X94527187Y-72508516D01*
X94294402Y-72739881D01*
X94091012Y-73002994D01*
X93920732Y-73296158D01*
X93905045Y-73328342D01*
X93776464Y-73648483D01*
X93692390Y-73976504D01*
X93652552Y-74308628D01*
X93585964Y-74308628D01*
X93587366Y-74186275D01*
X93591127Y-74083093D01*
X93598036Y-73999581D01*
X93609002Y-73925808D01*
X93624936Y-73851848D01*
X93646747Y-73767770D01*
X93652767Y-73745936D01*
X93765879Y-73424713D01*
X93918133Y-73122250D01*
X94106002Y-72842177D01*
X94325960Y-72588125D01*
X94574483Y-72363722D01*
X94848044Y-72172600D01*
X95143118Y-72018388D01*
X95456180Y-71904716D01*
X95532415Y-71884005D01*
X95878226Y-71818861D01*
X96227536Y-71798736D01*
X96575706Y-71823368D01*
X96918100Y-71892496D01*
X97250080Y-72005858D01*
X97371429Y-72062540D01*
X97562053Y-72171358D01*
X97755416Y-72302135D01*
X97937498Y-72445158D01*
X98094281Y-72590715D01*
X98302436Y-72830175D01*
X98497013Y-73118411D01*
X98649271Y-73425462D01*
X98758681Y-73750026D01*
X98824715Y-74090799D01*
X98846843Y-74446478D01*
X98846658Y-74453115D01*
X98843053Y-74582598D01*
X98816424Y-74844010D01*
X98766724Y-75100766D01*
X98696792Y-75339703D01*
X98609464Y-75547663D01*
X98585195Y-75600714D01*
X98578929Y-75637097D01*
X98594946Y-75657692D01*
X98603476Y-75662757D01*
X98637182Y-75673200D01*
X98668283Y-75661816D01*
X98699808Y-75624020D01*
X98734789Y-75555228D01*
X98776258Y-75450854D01*
X98827246Y-75306313D01*
X98873705Y-75153340D01*
X98938243Y-74830510D01*
X98963920Y-74495890D01*
X98950830Y-74158502D01*
X98899065Y-73827364D01*
X98808720Y-73511496D01*
X98726281Y-73307423D01*
X98563863Y-72999999D01*
X98367935Y-72720393D01*
X98141955Y-72470281D01*
X97889381Y-72251340D01*
X97613669Y-72065245D01*
X97318277Y-71913674D01*
X97006663Y-71798302D01*
X96682284Y-71720805D01*
X96348597Y-71682861D01*
X96009061Y-71686144D01*
X95667132Y-71732332D01*
X95326268Y-71823101D01*
X95197256Y-71870091D01*
X94883413Y-72017787D01*
X94591264Y-72203588D01*
X94324464Y-72423820D01*
X94086666Y-72674807D01*
X93881522Y-72952876D01*
X93712688Y-73254353D01*
X93583814Y-73575563D01*
X93516901Y-73820062D01*
X93463034Y-74163292D01*
X93452117Y-74511441D01*
X93373688Y-74511441D01*
X93369919Y-74330284D01*
X93371446Y-74296375D01*
X93399071Y-73995413D01*
X93453021Y-73719546D01*
X93536799Y-73454670D01*
X93653908Y-73186679D01*
X93771413Y-72971266D01*
X93970224Y-72682610D01*
X94197985Y-72425866D01*
X94451147Y-72201903D01*
X94726161Y-72011587D01*
X95019479Y-71855786D01*
X95327552Y-71735366D01*
X95646833Y-71651195D01*
X95973771Y-71604140D01*
X96304819Y-71595067D01*
X96636428Y-71624844D01*
X96965050Y-71694338D01*
X97287136Y-71804416D01*
X97599137Y-71955945D01*
X97897505Y-72149792D01*
X98031191Y-72255301D01*
X98290710Y-72502620D01*
X98516192Y-72779063D01*
X98705341Y-73080692D01*
X98855863Y-73403565D01*
X98965463Y-73743743D01*
X99031846Y-74097286D01*
X99032236Y-74100479D01*
X99052721Y-74351633D01*
X99051352Y-74495890D01*
X99050415Y-74594593D01*
X99023935Y-74838146D01*
X98971894Y-75091078D01*
X98892910Y-75362177D01*
X98785597Y-75660229D01*
X98769194Y-75703798D01*
X98755789Y-75752219D01*
X98760000Y-75782080D01*
X98781398Y-75808558D01*
X98787611Y-75814565D01*
X98808025Y-75826771D01*
X98827794Y-75816504D01*
X98853758Y-75777248D01*
X98892756Y-75702492D01*
X98942976Y-75593770D01*
X99022076Y-75381604D01*
X99088833Y-75149264D01*
X99138134Y-74913192D01*
X99149509Y-74836911D01*
X99171288Y-74547884D01*
X99164542Y-74244101D01*
X99130632Y-73939337D01*
X99070919Y-73647366D01*
X98986766Y-73381963D01*
X98864219Y-73106405D01*
X98678582Y-72788764D01*
X98457743Y-72499602D01*
X98203923Y-72240871D01*
X97919343Y-72014526D01*
X97606223Y-71822519D01*
X97266785Y-71666804D01*
X96903248Y-71549334D01*
X96824046Y-71529226D01*
X96743437Y-71511214D01*
X96667804Y-71498687D01*
X96586858Y-71490678D01*
X96490309Y-71486219D01*
X96367866Y-71484343D01*
X96209240Y-71484082D01*
X96166241Y-71484168D01*
X96012023Y-71485414D01*
X95891716Y-71488727D01*
X95795187Y-71494955D01*
X95712303Y-71504949D01*
X95632930Y-71519559D01*
X95546935Y-71539635D01*
X95183883Y-71652224D01*
X94842952Y-71803259D01*
X94528291Y-71990539D01*
X94242120Y-72212341D01*
X93986657Y-72466943D01*
X93764124Y-72752625D01*
X93576740Y-73067665D01*
X93511938Y-73199898D01*
X93391237Y-73497699D01*
X93308721Y-73794549D01*
X93261403Y-74102815D01*
X93246294Y-74434858D01*
X93166965Y-74434858D01*
X93167302Y-74327100D01*
X93170750Y-74172474D01*
X93178323Y-74047203D01*
X93190739Y-73940907D01*
X93208718Y-73843210D01*
X93299448Y-73504079D01*
X93430742Y-73166240D01*
X93599095Y-72853117D01*
X93806945Y-72560221D01*
X94056732Y-72283064D01*
X94313038Y-72050907D01*
X94602226Y-71841824D01*
X94909557Y-71673033D01*
X95240269Y-71541690D01*
X95599601Y-71444948D01*
X95662599Y-71432701D01*
X95882776Y-71404508D01*
X96125106Y-71391672D01*
X96373135Y-71394191D01*
X96610409Y-71412059D01*
X96820474Y-71445273D01*
X97085230Y-71513732D01*
X97436508Y-71643890D01*
X97764334Y-71812246D01*
X98066417Y-72016481D01*
X98340468Y-72254278D01*
X98584197Y-72523316D01*
X98795315Y-72821276D01*
X98971532Y-73145841D01*
X99110559Y-73494692D01*
X99210107Y-73865508D01*
X99224986Y-73955927D01*
X99240367Y-74111183D01*
X99249580Y-74289190D01*
X99252481Y-74476399D01*
X99251090Y-74547884D01*
X99248923Y-74659259D01*
X99238761Y-74824220D01*
X99221849Y-74957731D01*
X99192868Y-75092195D01*
X99142427Y-75275974D01*
X99080659Y-75465858D01*
X99013302Y-75644443D01*
X98946091Y-75794328D01*
X98920806Y-75846044D01*
X98885100Y-75931040D01*
X98869525Y-75994984D01*
X98870508Y-76049955D01*
X98870578Y-76050429D01*
X98876422Y-76081637D01*
X98884737Y-76094089D01*
X98899080Y-76083170D01*
X98923011Y-76044266D01*
X98960086Y-75972762D01*
X99013866Y-75864044D01*
X99097318Y-75683739D01*
X99208557Y-75388939D01*
X99284283Y-75096890D01*
X99327509Y-74794760D01*
X99341248Y-74469717D01*
X99341196Y-74450000D01*
X99319077Y-74075606D01*
X99255881Y-73719490D01*
X99150257Y-73377232D01*
X99000859Y-73044410D01*
X98806335Y-72716603D01*
X98805769Y-72715754D01*
X98679862Y-72544774D01*
X98528042Y-72367172D01*
X98361947Y-72195013D01*
X98193216Y-72040365D01*
X98033485Y-71915294D01*
X97999327Y-71891724D01*
X97730929Y-71729854D01*
X97435328Y-71587361D01*
X97128163Y-71471070D01*
X96825068Y-71387807D01*
X96795815Y-71381924D01*
X96651327Y-71362036D01*
X96476925Y-71348987D01*
X96285253Y-71342788D01*
X96088959Y-71343449D01*
X95900687Y-71350983D01*
X95733086Y-71365401D01*
X95598799Y-71386713D01*
X95253433Y-71479740D01*
X94903557Y-71616111D01*
X94578327Y-71790642D01*
X94274545Y-72005068D01*
X93989014Y-72261126D01*
X93986242Y-72263900D01*
X93737398Y-72541962D01*
X93529085Y-72837999D01*
X93359226Y-73155891D01*
X93225747Y-73499515D01*
X93126574Y-73872749D01*
X93120435Y-73903036D01*
X93089638Y-74121429D01*
X93074853Y-74363924D01*
X92752139Y-74363924D01*
X92773252Y-74044753D01*
X92841601Y-73663025D01*
X92952710Y-73290666D01*
X93106568Y-72932127D01*
X93290339Y-72607088D01*
X93522773Y-72283312D01*
X93787277Y-71992286D01*
X94082221Y-71735260D01*
X94405976Y-71513481D01*
X94756913Y-71328199D01*
X95133402Y-71180662D01*
X95533813Y-71072120D01*
X95578696Y-71062808D01*
X95676264Y-71045751D01*
X95775828Y-71033885D01*
X95888502Y-71026351D01*
X96025395Y-71022292D01*
X96197621Y-71020849D01*
X96412588Y-71023066D01*
X96597120Y-71032111D01*
X96761564Y-71049878D01*
X96919060Y-71078257D01*
X97082746Y-71119137D01*
X97265762Y-71174405D01*
X97402297Y-71221214D01*
X97766023Y-71378251D01*
X98104972Y-71573062D01*
X98417033Y-71803285D01*
X98700093Y-72066552D01*
X98952040Y-72360500D01*
X99170763Y-72682763D01*
X99354149Y-73030976D01*
X99500087Y-73402774D01*
X99606464Y-73795792D01*
X99608296Y-73804630D01*
X99627378Y-73933700D01*
X99640943Y-74096552D01*
X99648990Y-74281767D01*
X99651414Y-74469717D01*
X99651520Y-74477927D01*
X99648532Y-74673614D01*
X99640027Y-74857407D01*
X99626004Y-75017890D01*
X99606464Y-75143642D01*
X99518131Y-75480237D01*
X99378852Y-75853145D01*
X99201918Y-76204501D01*
X99171490Y-76251212D01*
X99069359Y-76407998D01*
X99002351Y-76510866D01*
G37*
G36*
X78234071Y-75707182D02*
G01*
X78234226Y-75817788D01*
X78235727Y-75989878D01*
X78239740Y-76124553D01*
X78247367Y-76227696D01*
X78259710Y-76305186D01*
X78277874Y-76362904D01*
X78302960Y-76406730D01*
X78336072Y-76442545D01*
X78378313Y-76476228D01*
X78456195Y-76513855D01*
X78566982Y-76533488D01*
X78685869Y-76528229D01*
X78795841Y-76497223D01*
X78844771Y-76473703D01*
X78889210Y-76444539D01*
X78923587Y-76407305D01*
X78949295Y-76356515D01*
X78967728Y-76286682D01*
X78980281Y-76192318D01*
X78988348Y-76067938D01*
X78993323Y-75908055D01*
X78996601Y-75707182D01*
X79003907Y-75143642D01*
X79284911Y-75143642D01*
X79273541Y-75730421D01*
X79273332Y-75741079D01*
X79267936Y-75957838D01*
X79261120Y-76130684D01*
X79252729Y-76262059D01*
X79242609Y-76354403D01*
X79230606Y-76410156D01*
X79187533Y-76496218D01*
X79104726Y-76596571D01*
X79001659Y-76679843D01*
X78892386Y-76732636D01*
X78765298Y-76758181D01*
X78613665Y-76767366D01*
X78461369Y-76759399D01*
X78329927Y-76734218D01*
X78288744Y-76719834D01*
X78162586Y-76645947D01*
X78060875Y-76539315D01*
X77993341Y-76409330D01*
X77983929Y-76377690D01*
X77973687Y-76326604D01*
X77966090Y-76260534D01*
X77960789Y-76173182D01*
X77957434Y-76058253D01*
X77955677Y-75909448D01*
X77955169Y-75720472D01*
X77955169Y-75143642D01*
X78234034Y-75143642D01*
X78234071Y-75707182D01*
G37*
G36*
X84817951Y-73797100D02*
G01*
X84752565Y-73975232D01*
X84654650Y-74120204D01*
X84524235Y-74231976D01*
X84361350Y-74310506D01*
X84203110Y-74347715D01*
X84025838Y-74351837D01*
X83854600Y-74319277D01*
X83697414Y-74252553D01*
X83562297Y-74154181D01*
X83457267Y-74026679D01*
X83451997Y-74017939D01*
X83395165Y-73890823D01*
X83354468Y-73737815D01*
X83333437Y-73576403D01*
X83333504Y-73571697D01*
X83629401Y-73571697D01*
X83632122Y-73627262D01*
X83639764Y-73719653D01*
X83652640Y-73786604D01*
X83674161Y-73842481D01*
X83707738Y-73901650D01*
X83713557Y-73910785D01*
X83785976Y-73998582D01*
X83866311Y-74058793D01*
X83907308Y-74077449D01*
X84039316Y-74109820D01*
X84174627Y-74107620D01*
X84300516Y-74072132D01*
X84404259Y-74004635D01*
X84446173Y-73956419D01*
X84507387Y-73841530D01*
X84547417Y-73699375D01*
X84562636Y-73540578D01*
X84562106Y-73489830D01*
X84540306Y-73312159D01*
X84487450Y-73167392D01*
X84404004Y-73056490D01*
X84290438Y-72980415D01*
X84209623Y-72953032D01*
X84078915Y-72939946D01*
X83949952Y-72959253D01*
X83835174Y-73008549D01*
X83747021Y-73085431D01*
X83690976Y-73170995D01*
X83649690Y-73279214D01*
X83630043Y-73409151D01*
X83629401Y-73571697D01*
X83333504Y-73571697D01*
X83335602Y-73424076D01*
X83335960Y-73420720D01*
X83375934Y-73216504D01*
X83447739Y-73045194D01*
X83550423Y-72907764D01*
X83683035Y-72805189D01*
X83844623Y-72738443D01*
X84034236Y-72708500D01*
X84171764Y-72707522D01*
X84330649Y-72730315D01*
X84466161Y-72783196D01*
X84587160Y-72868732D01*
X84639432Y-72920200D01*
X84741844Y-73064883D01*
X84812364Y-73235751D01*
X84848393Y-73425238D01*
X84847781Y-73540578D01*
X84847329Y-73625778D01*
X84817951Y-73797100D01*
G37*
G36*
X82697194Y-74330284D02*
G01*
X82690729Y-74010750D01*
X82684263Y-73691217D01*
X82521592Y-73685286D01*
X82358920Y-73679356D01*
X81948896Y-74330284D01*
X81799516Y-74330284D01*
X81726720Y-74328796D01*
X81671327Y-74324593D01*
X81650137Y-74318626D01*
X81656021Y-74306838D01*
X81683254Y-74261464D01*
X81728837Y-74188626D01*
X81788540Y-74095052D01*
X81858138Y-73987473D01*
X82066138Y-73667978D01*
X81989444Y-73628548D01*
X81938436Y-73596832D01*
X81854007Y-73520120D01*
X81788083Y-73430182D01*
X81753069Y-73342055D01*
X81745065Y-73286767D01*
X81745157Y-73191785D01*
X82021958Y-73191785D01*
X82022162Y-73207730D01*
X82038777Y-73312134D01*
X82084997Y-73385297D01*
X82165016Y-73434330D01*
X82205548Y-73447052D01*
X82320246Y-73464541D01*
X82475584Y-73470449D01*
X82695883Y-73470449D01*
X82695883Y-72955303D01*
X82414952Y-72963059D01*
X82308766Y-72966280D01*
X82223244Y-72970714D01*
X82166715Y-72977888D01*
X82129870Y-72989820D01*
X82103398Y-73008524D01*
X82077989Y-73036017D01*
X82041134Y-73093421D01*
X82021958Y-73191785D01*
X81745157Y-73191785D01*
X81745201Y-73146307D01*
X81773485Y-73019647D01*
X81827597Y-72919934D01*
X81849148Y-72893980D01*
X81899131Y-72841701D01*
X81952127Y-72802408D01*
X82015379Y-72774114D01*
X82096129Y-72754833D01*
X82201618Y-72742579D01*
X82339088Y-72735366D01*
X82515782Y-72731208D01*
X82951509Y-72723990D01*
X82951509Y-74330284D01*
X82697194Y-74330284D01*
G37*
G36*
X88389387Y-74330284D02*
G01*
X87250686Y-74330284D01*
X87250686Y-74097896D01*
X88133760Y-74097896D01*
X88133760Y-72726807D01*
X88389387Y-72726807D01*
X88389387Y-74330284D01*
G37*
G36*
X81650137Y-75376030D02*
G01*
X81092406Y-75376030D01*
X81092406Y-76747118D01*
X80836779Y-76747118D01*
X80836779Y-75376030D01*
X80279048Y-75376030D01*
X80279048Y-75143642D01*
X81650137Y-75143642D01*
X81650137Y-75376030D01*
G37*
G36*
X87135103Y-75776899D02*
G01*
X87135715Y-76410156D01*
X87222725Y-76247484D01*
X87237026Y-76221383D01*
X87284286Y-76138655D01*
X87348999Y-76028365D01*
X87426285Y-75898724D01*
X87511266Y-75757941D01*
X87599062Y-75614227D01*
X87888389Y-75143642D01*
X88203476Y-75143642D01*
X88203476Y-76747118D01*
X87944477Y-76747118D01*
X87951973Y-76119653D01*
X87952050Y-76113182D01*
X87953810Y-75948378D01*
X87955022Y-75800115D01*
X87955665Y-75674381D01*
X87955721Y-75577160D01*
X87955171Y-75514439D01*
X87953994Y-75492205D01*
X87942485Y-75509353D01*
X87915629Y-75557528D01*
X87879638Y-75625847D01*
X87863304Y-75656145D01*
X87818967Y-75734083D01*
X87757183Y-75839630D01*
X87682365Y-75965343D01*
X87598925Y-76103776D01*
X87511273Y-76247484D01*
X87211789Y-76735499D01*
X87045327Y-76742327D01*
X86878865Y-76749154D01*
X86878865Y-75143642D01*
X87134492Y-75143642D01*
X87135103Y-75776899D01*
G37*
G36*
X86204940Y-74330284D02*
G01*
X85950556Y-74330284D01*
X85937694Y-73644740D01*
X85252150Y-73631878D01*
X85252150Y-73400732D01*
X85949313Y-73400732D01*
X85949313Y-72959195D01*
X85043001Y-72959195D01*
X85043001Y-72726807D01*
X86204940Y-72726807D01*
X86204940Y-74330284D01*
G37*
G36*
X86085889Y-75142956D02*
G01*
X86221797Y-75194395D01*
X86345343Y-75279702D01*
X86437790Y-75388396D01*
X86472812Y-75469956D01*
X86492339Y-75588165D01*
X86486013Y-75708693D01*
X86453111Y-75811573D01*
X86451337Y-75814839D01*
X86383159Y-75893485D01*
X86270588Y-75965193D01*
X86115243Y-76029135D01*
X85918745Y-76084482D01*
X85802070Y-76113246D01*
X85682248Y-76148106D01*
X85599214Y-76180805D01*
X85547643Y-76213544D01*
X85522212Y-76248525D01*
X85518348Y-76259421D01*
X85511084Y-76344033D01*
X85543615Y-76417450D01*
X85610498Y-76476198D01*
X85706288Y-76516804D01*
X85825543Y-76535794D01*
X85962819Y-76529694D01*
X85966810Y-76529132D01*
X86093205Y-76495579D01*
X86207023Y-76437187D01*
X86296990Y-76361326D01*
X86351833Y-76275367D01*
X86364147Y-76270954D01*
X86402674Y-76292638D01*
X86460443Y-76343269D01*
X86558498Y-76439054D01*
X86517617Y-76501447D01*
X86482360Y-76544823D01*
X86394876Y-76618587D01*
X86285382Y-76684226D01*
X86168862Y-76731839D01*
X86117313Y-76744831D01*
X85987242Y-76762601D01*
X85843336Y-76767422D01*
X85705030Y-76759104D01*
X85591758Y-76737458D01*
X85551335Y-76724054D01*
X85413843Y-76654232D01*
X85312753Y-76559322D01*
X85250370Y-76442069D01*
X85228998Y-76305219D01*
X85229005Y-76301420D01*
X85241914Y-76183565D01*
X85281997Y-76085939D01*
X85353078Y-76005333D01*
X85458980Y-75938535D01*
X85603526Y-75882332D01*
X85790538Y-75833515D01*
X85896635Y-75808811D01*
X86017926Y-75774341D01*
X86102994Y-75739006D01*
X86157785Y-75699316D01*
X86188244Y-75651780D01*
X86200317Y-75592905D01*
X86200918Y-75535748D01*
X86183640Y-75486528D01*
X86137217Y-75439370D01*
X86037735Y-75381990D01*
X85916614Y-75355655D01*
X85788826Y-75361282D01*
X85665971Y-75396909D01*
X85559651Y-75460573D01*
X85481464Y-75550312D01*
X85433728Y-75631218D01*
X85331319Y-75547302D01*
X85288496Y-75510327D01*
X85245543Y-75467707D01*
X85228911Y-75442947D01*
X85233314Y-75428593D01*
X85266269Y-75384766D01*
X85322676Y-75329284D01*
X85392030Y-75271257D01*
X85463823Y-75219795D01*
X85527549Y-75184007D01*
X85548501Y-75175433D01*
X85670123Y-75143016D01*
X85813014Y-75125858D01*
X85957996Y-75125368D01*
X86085889Y-75142956D01*
G37*
G36*
X74957365Y-74330284D02*
G01*
X74701738Y-74330284D01*
X74701738Y-72726807D01*
X74957365Y-72726807D01*
X74957365Y-74330284D01*
G37*
%TO.C,REF\u002A\u002A*%
X61104300Y-60291500D02*
X61104300Y-71213500D01*
X46905700Y-71213500D02*
X46905700Y-60291500D01*
X61104300Y-71213500D02*
X46905700Y-71213500D01*
X46905700Y-60291500D02*
X61104300Y-60291500D01*
X46778700Y-63212500D02*
X45508700Y-62577500D01*
X45508700Y-62577500D02*
X45508700Y-63847500D01*
X45508700Y-63847500D02*
X46778700Y-63212500D01*
X46728600Y-81400000D02*
X45458600Y-80765000D01*
X45458600Y-82035000D02*
X46728600Y-81400000D01*
X61054200Y-89401000D02*
X46855600Y-89401000D01*
X46855600Y-89401000D02*
X46855600Y-78479000D01*
X61054200Y-78479000D02*
X61054200Y-89401000D01*
X45458600Y-80765000D02*
X45458600Y-82035000D01*
X46855600Y-78479000D02*
X61054200Y-78479000D01*
%TO.C,G\u002A\u002A\u002A*%
G36*
X82150079Y-37060607D02*
G01*
X82271432Y-37072519D01*
X82371583Y-37090756D01*
X82493102Y-37127408D01*
X82644376Y-37196425D01*
X82771472Y-37285392D01*
X82874110Y-37394055D01*
X82952015Y-37522161D01*
X83004910Y-37669457D01*
X83009285Y-37688476D01*
X83016076Y-37730616D01*
X83021210Y-37784663D01*
X83024864Y-37854552D01*
X83027216Y-37944218D01*
X83028441Y-38057597D01*
X83028718Y-38198624D01*
X83028480Y-38297894D01*
X83027366Y-38423068D01*
X83024914Y-38523823D01*
X83020643Y-38604459D01*
X83014074Y-38669274D01*
X83004726Y-38722567D01*
X82992118Y-38768639D01*
X82975770Y-38811787D01*
X82955200Y-38856311D01*
X82950856Y-38865051D01*
X82915591Y-38927155D01*
X82872883Y-38986368D01*
X82820100Y-39044757D01*
X82754613Y-39104390D01*
X82673790Y-39167335D01*
X82575001Y-39235660D01*
X82455615Y-39311434D01*
X82313000Y-39396725D01*
X82144527Y-39493601D01*
X82103328Y-39517133D01*
X82000472Y-39577439D01*
X81908241Y-39633712D01*
X81830939Y-39683225D01*
X81772866Y-39723250D01*
X81738327Y-39751062D01*
X81733141Y-39756159D01*
X81696805Y-39795917D01*
X81669344Y-39836891D01*
X81649560Y-39884135D01*
X81636257Y-39942705D01*
X81628237Y-40017656D01*
X81624304Y-40114043D01*
X81623258Y-40236922D01*
X81623259Y-40247461D01*
X81623473Y-40345332D01*
X81624546Y-40417875D01*
X81627159Y-40470825D01*
X81631998Y-40509915D01*
X81639745Y-40540879D01*
X81651084Y-40569452D01*
X81666697Y-40601366D01*
X81706316Y-40661905D01*
X81778053Y-40723719D01*
X81869256Y-40761318D01*
X81978669Y-40774005D01*
X82060891Y-40767120D01*
X82157028Y-40736035D01*
X82234031Y-40680552D01*
X82290640Y-40601366D01*
X82334079Y-40515604D01*
X82334079Y-39763060D01*
X83029104Y-39763060D01*
X83029104Y-40220367D01*
X83028904Y-40300389D01*
X83027549Y-40435256D01*
X83025009Y-40552205D01*
X83021395Y-40647820D01*
X83016820Y-40718684D01*
X83011395Y-40761381D01*
X82987846Y-40849595D01*
X82927529Y-40986631D01*
X82842588Y-41104107D01*
X82733344Y-41201762D01*
X82600117Y-41279333D01*
X82443228Y-41336559D01*
X82262997Y-41373178D01*
X82207178Y-41378995D01*
X82101255Y-41383929D01*
X81981554Y-41383981D01*
X81857121Y-41379533D01*
X81737003Y-41370966D01*
X81630244Y-41358659D01*
X81545891Y-41342995D01*
X81513718Y-41334667D01*
X81359407Y-41280066D01*
X81229657Y-41206538D01*
X81122950Y-41112805D01*
X81037771Y-40997588D01*
X80972602Y-40859608D01*
X80971170Y-40855734D01*
X80961778Y-40828296D01*
X80954251Y-40800096D01*
X80948328Y-40767278D01*
X80943750Y-40725991D01*
X80940254Y-40672380D01*
X80937580Y-40602591D01*
X80935468Y-40512772D01*
X80933658Y-40399069D01*
X80931888Y-40257628D01*
X80930883Y-40162114D01*
X80930146Y-40018911D01*
X80931049Y-39901340D01*
X80934013Y-39805628D01*
X80939459Y-39728003D01*
X80947806Y-39664691D01*
X80959475Y-39611920D01*
X80974887Y-39565917D01*
X80994461Y-39522908D01*
X81018619Y-39479121D01*
X81034573Y-39452980D01*
X81079286Y-39390097D01*
X81133058Y-39329199D01*
X81198714Y-39268153D01*
X81279075Y-39204829D01*
X81376966Y-39137094D01*
X81495209Y-39062818D01*
X81636628Y-38979868D01*
X81804046Y-38886114D01*
X81919213Y-38821323D01*
X82039525Y-38749132D01*
X82134964Y-38685376D01*
X82207966Y-38628104D01*
X82260968Y-38575365D01*
X82296406Y-38525209D01*
X82316718Y-38475684D01*
X82318763Y-38466845D01*
X82325288Y-38416108D01*
X82329913Y-38343659D01*
X82332631Y-38257104D01*
X82333433Y-38164048D01*
X82332312Y-38072099D01*
X82329261Y-37988863D01*
X82324270Y-37921945D01*
X82317333Y-37878953D01*
X82313630Y-37867469D01*
X82287934Y-37814312D01*
X82253763Y-37765755D01*
X82253186Y-37765101D01*
X82187041Y-37712552D01*
X82103034Y-37678427D01*
X82009224Y-37663206D01*
X81913668Y-37667369D01*
X81824424Y-37691393D01*
X81749550Y-37735760D01*
X81732023Y-37750828D01*
X81705357Y-37776894D01*
X81684836Y-37804688D01*
X81669535Y-37838476D01*
X81658533Y-37882524D01*
X81650906Y-37941099D01*
X81645733Y-38018466D01*
X81642090Y-38118892D01*
X81639054Y-38246642D01*
X81631156Y-38617849D01*
X80936131Y-38617849D01*
X80936891Y-38191356D01*
X80937199Y-38106020D01*
X80938766Y-37972668D01*
X80942152Y-37864028D01*
X80947973Y-37775665D01*
X80956844Y-37703147D01*
X80969379Y-37642040D01*
X80986193Y-37587909D01*
X81007900Y-37536321D01*
X81035116Y-37482842D01*
X81037541Y-37478401D01*
X81112995Y-37372095D01*
X81214194Y-37276091D01*
X81336239Y-37193719D01*
X81474227Y-37128310D01*
X81623258Y-37083193D01*
X81648032Y-37078186D01*
X81756499Y-37063810D01*
X81882843Y-37056154D01*
X82017293Y-37055120D01*
X82150079Y-37060607D01*
G37*
G36*
X80249005Y-41342662D02*
G01*
X79538184Y-41342662D01*
X79538184Y-37093533D01*
X80249005Y-37093533D01*
X80249005Y-41342662D01*
G37*
G36*
X78081001Y-41338557D02*
G01*
X77988700Y-41337630D01*
X77837647Y-41335945D01*
X77713041Y-41334194D01*
X77611524Y-41332206D01*
X77529738Y-41329814D01*
X77464326Y-41326847D01*
X77411929Y-41323137D01*
X77369189Y-41318515D01*
X77332748Y-41312811D01*
X77299250Y-41305857D01*
X77265335Y-41297483D01*
X77192075Y-41276150D01*
X77036129Y-41211893D01*
X76904108Y-41128406D01*
X76796788Y-41026242D01*
X76714945Y-40905954D01*
X76710790Y-40898171D01*
X76694799Y-40868019D01*
X76680724Y-40839740D01*
X76668442Y-40811243D01*
X76657831Y-40780437D01*
X76648769Y-40745229D01*
X76641134Y-40703529D01*
X76634803Y-40653244D01*
X76629655Y-40592283D01*
X76625568Y-40518554D01*
X76622419Y-40429966D01*
X76620086Y-40324427D01*
X76618447Y-40199846D01*
X76617379Y-40054131D01*
X76616762Y-39885190D01*
X76616472Y-39690932D01*
X76616388Y-39469265D01*
X76616387Y-39218097D01*
X77327435Y-39218097D01*
X77327441Y-39329228D01*
X77327511Y-39543721D01*
X77327698Y-39729788D01*
X77328051Y-39889586D01*
X77328615Y-40025268D01*
X77329440Y-40138989D01*
X77330573Y-40232905D01*
X77332061Y-40309170D01*
X77333953Y-40369940D01*
X77336295Y-40417368D01*
X77339135Y-40453611D01*
X77342521Y-40480823D01*
X77346501Y-40501158D01*
X77351122Y-40516772D01*
X77356432Y-40529820D01*
X77398087Y-40595941D01*
X77465242Y-40657035D01*
X77544427Y-40694330D01*
X77551308Y-40695938D01*
X77595459Y-40701716D01*
X77661485Y-40706405D01*
X77741662Y-40709560D01*
X77828265Y-40710733D01*
X78053358Y-40710821D01*
X78053358Y-37725373D01*
X77828265Y-37725462D01*
X77805799Y-37725549D01*
X77720112Y-37727275D01*
X77642838Y-37730867D01*
X77581701Y-37735879D01*
X77544427Y-37741865D01*
X77475471Y-37772536D01*
X77406174Y-37830848D01*
X77356432Y-37906374D01*
X77353850Y-37912318D01*
X77348869Y-37926303D01*
X77344555Y-37943865D01*
X77340860Y-37967161D01*
X77337736Y-37998345D01*
X77335136Y-38039571D01*
X77333011Y-38092995D01*
X77331315Y-38160772D01*
X77330000Y-38245056D01*
X77329018Y-38348003D01*
X77328321Y-38471768D01*
X77327862Y-38618504D01*
X77327593Y-38790368D01*
X77327466Y-38989514D01*
X77327435Y-39218097D01*
X76616387Y-39218097D01*
X76616386Y-39166336D01*
X76616397Y-38921096D01*
X76616518Y-38704950D01*
X76616869Y-38515809D01*
X76617569Y-38351585D01*
X76618738Y-38210190D01*
X76620497Y-38089535D01*
X76622964Y-37987533D01*
X76626259Y-37902095D01*
X76630503Y-37831132D01*
X76635815Y-37772557D01*
X76642315Y-37724281D01*
X76650122Y-37684216D01*
X76659356Y-37650273D01*
X76670137Y-37620365D01*
X76682586Y-37592403D01*
X76696820Y-37564298D01*
X76712961Y-37533963D01*
X76717979Y-37524830D01*
X76776122Y-37440872D01*
X76852351Y-37357514D01*
X76936892Y-37284399D01*
X77019969Y-37231167D01*
X77047299Y-37217675D01*
X77112276Y-37188929D01*
X77179326Y-37164847D01*
X77251728Y-37145043D01*
X77332759Y-37129129D01*
X77425695Y-37116719D01*
X77533815Y-37107424D01*
X77660396Y-37100859D01*
X77808714Y-37096635D01*
X77982048Y-37094365D01*
X78183675Y-37093662D01*
X78764179Y-37093533D01*
X78764179Y-41345270D01*
X78081001Y-41338557D01*
G37*
G36*
X89275529Y-37093604D02*
G01*
X89359407Y-37094095D01*
X89419773Y-37095419D01*
X89460667Y-37097993D01*
X89486129Y-37102231D01*
X89500200Y-37108547D01*
X89506921Y-37117356D01*
X89510332Y-37129074D01*
X89511117Y-37133169D01*
X89516405Y-37164684D01*
X89526058Y-37224400D01*
X89539733Y-37310119D01*
X89557083Y-37419645D01*
X89577763Y-37550780D01*
X89601427Y-37701328D01*
X89627731Y-37869093D01*
X89656327Y-38051878D01*
X89686872Y-38247485D01*
X89719019Y-38453718D01*
X89752423Y-38668380D01*
X89766197Y-38756872D01*
X89799015Y-38966924D01*
X89830432Y-39166906D01*
X89860106Y-39354703D01*
X89887696Y-39528199D01*
X89912861Y-39685279D01*
X89935259Y-39823828D01*
X89954549Y-39941731D01*
X89970389Y-40036872D01*
X89982440Y-40107136D01*
X89990358Y-40150407D01*
X89993804Y-40164571D01*
X89994906Y-40160356D01*
X90000598Y-40129535D01*
X90010623Y-40070661D01*
X90024640Y-39985859D01*
X90042310Y-39877256D01*
X90063291Y-39746978D01*
X90087243Y-39597151D01*
X90113826Y-39429902D01*
X90142699Y-39247358D01*
X90173522Y-39051644D01*
X90205954Y-38844887D01*
X90239655Y-38629213D01*
X90477931Y-37101431D01*
X90836789Y-37097185D01*
X90951530Y-37096189D01*
X91046943Y-37096346D01*
X91116236Y-37097888D01*
X91162236Y-37100932D01*
X91187764Y-37105596D01*
X91195646Y-37111994D01*
X91194969Y-37116705D01*
X91189381Y-37148599D01*
X91178431Y-37208851D01*
X91162455Y-37295649D01*
X91141792Y-37407184D01*
X91116780Y-37541644D01*
X91087759Y-37697220D01*
X91055066Y-37872099D01*
X91019039Y-38064472D01*
X90980017Y-38272528D01*
X90938339Y-38494457D01*
X90894342Y-38728446D01*
X90848365Y-38972687D01*
X90800746Y-39225367D01*
X90777327Y-39349588D01*
X90730485Y-39598174D01*
X90685448Y-39837342D01*
X90642554Y-40065289D01*
X90602142Y-40280214D01*
X90564549Y-40480314D01*
X90530112Y-40663788D01*
X90499171Y-40828832D01*
X90472063Y-40973645D01*
X90449126Y-41096426D01*
X90430698Y-41195371D01*
X90417116Y-41268679D01*
X90408719Y-41314547D01*
X90405845Y-41331174D01*
X90395868Y-41333738D01*
X90358300Y-41336622D01*
X90296795Y-41339080D01*
X90215581Y-41340988D01*
X90118888Y-41342223D01*
X90010945Y-41342662D01*
X89922823Y-41342373D01*
X89823661Y-41341283D01*
X89739173Y-41339500D01*
X89673588Y-41337144D01*
X89631135Y-41334340D01*
X89616044Y-41331210D01*
X89615355Y-41326874D01*
X89609746Y-41295774D01*
X89598779Y-41236311D01*
X89582791Y-41150288D01*
X89562121Y-41039505D01*
X89537106Y-40905766D01*
X89508085Y-40750873D01*
X89475395Y-40576628D01*
X89439374Y-40384832D01*
X89400361Y-40177289D01*
X89358694Y-39955800D01*
X89314710Y-39722168D01*
X89268747Y-39478194D01*
X89221144Y-39225681D01*
X89197999Y-39102918D01*
X89151127Y-38854096D01*
X89106061Y-38614589D01*
X89063137Y-38386205D01*
X89022696Y-38170756D01*
X88985075Y-37970053D01*
X88950612Y-37785907D01*
X88919647Y-37620128D01*
X88892517Y-37474526D01*
X88869561Y-37350914D01*
X88851117Y-37251101D01*
X88837524Y-37176899D01*
X88829120Y-37130118D01*
X88826243Y-37112569D01*
X88829778Y-37107994D01*
X88850110Y-37102372D01*
X88890943Y-37098271D01*
X88955047Y-37095534D01*
X89045192Y-37094007D01*
X89164145Y-37093533D01*
X89275529Y-37093604D01*
G37*
G36*
X75889303Y-41342662D02*
G01*
X74009577Y-41342662D01*
X74009577Y-40710821D01*
X75178482Y-40710821D01*
X75178482Y-39494528D01*
X74214925Y-39494528D01*
X74214925Y-38878483D01*
X75178482Y-38878483D01*
X75178482Y-37725373D01*
X74025373Y-37725373D01*
X74025373Y-37093533D01*
X75889303Y-37093533D01*
X75889303Y-41342662D01*
G37*
G36*
X88320771Y-41342662D02*
G01*
X86441044Y-41342662D01*
X86441044Y-40710821D01*
X87626121Y-40710821D01*
X87621985Y-40106623D01*
X87617848Y-39502426D01*
X87132120Y-39498248D01*
X86646393Y-39494071D01*
X86646393Y-38878483D01*
X87625746Y-38878483D01*
X87625746Y-37725373D01*
X86456173Y-37725373D01*
X86460455Y-37413402D01*
X86464738Y-37101431D01*
X87392755Y-37097355D01*
X88320771Y-37093280D01*
X88320771Y-41342662D01*
G37*
G36*
X92427736Y-41342662D02*
G01*
X91716915Y-41342662D01*
X91716915Y-37093533D01*
X92427736Y-37093533D01*
X92427736Y-41342662D01*
G37*
G36*
X94623383Y-41342662D02*
G01*
X94623383Y-39652488D01*
X94277626Y-39652488D01*
X94221753Y-39830193D01*
X94214720Y-39852505D01*
X94193656Y-39919039D01*
X94164965Y-40009415D01*
X94129987Y-40119416D01*
X94090065Y-40244825D01*
X94046541Y-40381426D01*
X94000757Y-40525000D01*
X93954056Y-40671331D01*
X93742231Y-41334764D01*
X93385108Y-41339010D01*
X93342402Y-41339482D01*
X93232753Y-41340193D01*
X93150347Y-41339704D01*
X93091926Y-41337868D01*
X93054231Y-41334537D01*
X93034003Y-41329562D01*
X93027985Y-41322797D01*
X93031280Y-41309973D01*
X93043823Y-41269253D01*
X93064893Y-41203548D01*
X93093594Y-41115574D01*
X93129031Y-41008047D01*
X93170306Y-40883683D01*
X93216525Y-40745199D01*
X93266792Y-40595310D01*
X93320211Y-40436732D01*
X93364330Y-40305894D01*
X93415183Y-40154689D01*
X93462154Y-40014593D01*
X93504351Y-39888294D01*
X93540879Y-39778479D01*
X93570846Y-39687835D01*
X93593356Y-39619051D01*
X93607518Y-39574813D01*
X93612437Y-39557809D01*
X93610281Y-39552962D01*
X93589297Y-39533391D01*
X93553202Y-39508967D01*
X93471281Y-39454086D01*
X93366284Y-39358586D01*
X93282765Y-39244877D01*
X93216163Y-39107525D01*
X93213140Y-39099835D01*
X93203984Y-39075057D01*
X93196566Y-39050166D01*
X93190666Y-39021664D01*
X93186064Y-38986054D01*
X93182541Y-38939839D01*
X93179876Y-38879520D01*
X93177850Y-38801600D01*
X93176244Y-38702582D01*
X93174837Y-38578968D01*
X93173409Y-38427260D01*
X93173015Y-38380908D01*
X93881664Y-38380908D01*
X93881757Y-38472157D01*
X93882341Y-38579817D01*
X93883683Y-38662919D01*
X93886038Y-38725617D01*
X93889660Y-38772065D01*
X93894802Y-38806417D01*
X93901717Y-38832824D01*
X93910661Y-38855442D01*
X93952316Y-38921563D01*
X94019471Y-38982657D01*
X94098656Y-39019952D01*
X94107896Y-39022006D01*
X94153715Y-39027624D01*
X94221081Y-39032171D01*
X94302478Y-39035222D01*
X94390391Y-39036355D01*
X94623383Y-39036443D01*
X94623383Y-37725373D01*
X94390391Y-37725462D01*
X94387980Y-37725463D01*
X94274485Y-37726778D01*
X94187024Y-37731216D01*
X94120211Y-37739787D01*
X94068658Y-37753496D01*
X94026978Y-37773351D01*
X93989785Y-37800358D01*
X93961446Y-37825666D01*
X93936762Y-37853383D01*
X93917746Y-37885140D01*
X93903667Y-37924873D01*
X93893792Y-37976517D01*
X93887386Y-38044008D01*
X93883718Y-38131279D01*
X93882055Y-38242268D01*
X93881664Y-38380908D01*
X93173015Y-38380908D01*
X93172696Y-38343339D01*
X93171816Y-38199755D01*
X93171716Y-38082459D01*
X93172499Y-37987935D01*
X93174263Y-37912669D01*
X93177108Y-37853144D01*
X93181135Y-37805845D01*
X93186443Y-37767257D01*
X93193133Y-37733863D01*
X93232426Y-37608307D01*
X93302298Y-37475364D01*
X93396698Y-37362131D01*
X93515409Y-37268775D01*
X93658214Y-37195460D01*
X93824895Y-37142352D01*
X94015236Y-37109616D01*
X94057971Y-37106306D01*
X94131389Y-37102893D01*
X94227526Y-37099867D01*
X94341709Y-37097329D01*
X94469265Y-37095381D01*
X94605520Y-37094124D01*
X94745802Y-37093662D01*
X95334204Y-37093533D01*
X95334204Y-41342662D01*
X94623383Y-41342662D01*
G37*
G36*
X103852207Y-43142467D02*
G01*
X103840110Y-43139975D01*
X103795178Y-43130709D01*
X103721547Y-43115520D01*
X103620652Y-43094705D01*
X103493930Y-43068559D01*
X103342816Y-43037379D01*
X103168747Y-43001461D01*
X102973158Y-42961101D01*
X102757484Y-42916596D01*
X102523163Y-42868242D01*
X102271629Y-42816336D01*
X102004319Y-42761173D01*
X101722669Y-42703050D01*
X101428114Y-42642263D01*
X101122091Y-42579109D01*
X100806034Y-42513883D01*
X100481381Y-42446883D01*
X100149567Y-42378404D01*
X99940271Y-42335214D01*
X99615333Y-42268172D01*
X99299428Y-42203011D01*
X98993923Y-42140011D01*
X98700188Y-42079454D01*
X98419592Y-42021622D01*
X98153506Y-41966797D01*
X97903297Y-41915261D01*
X97670335Y-41867296D01*
X97455989Y-41823183D01*
X97261629Y-41783204D01*
X97088624Y-41747641D01*
X96938343Y-41716777D01*
X96812154Y-41690892D01*
X96711428Y-41670268D01*
X96637534Y-41655188D01*
X96591841Y-41645934D01*
X96575717Y-41642786D01*
X96575406Y-41641089D01*
X96574473Y-41615489D01*
X96573567Y-41560297D01*
X96572693Y-41477017D01*
X96571855Y-41367154D01*
X96571059Y-41232213D01*
X96570307Y-41073698D01*
X96569606Y-40893115D01*
X96568959Y-40691967D01*
X96568371Y-40471761D01*
X96567847Y-40234001D01*
X96567391Y-39980192D01*
X96567008Y-39711838D01*
X96566702Y-39430444D01*
X96566478Y-39137515D01*
X96566340Y-38834556D01*
X96566323Y-38720523D01*
X97811091Y-38720523D01*
X98506454Y-38720523D01*
X98512606Y-38313775D01*
X98512788Y-38302001D01*
X98515826Y-38155078D01*
X98519866Y-38038516D01*
X98524972Y-37951179D01*
X98531209Y-37891932D01*
X98538644Y-37859640D01*
X98554745Y-37827202D01*
X98613087Y-37755885D01*
X98692293Y-37703888D01*
X98788289Y-37672757D01*
X98897003Y-37664035D01*
X99014360Y-37679267D01*
X99097763Y-37711151D01*
X99170830Y-37767430D01*
X99221397Y-37842010D01*
X99226506Y-37854364D01*
X99231139Y-37869324D01*
X99235148Y-37888566D01*
X99238576Y-37914189D01*
X99241470Y-37948296D01*
X99243875Y-37992985D01*
X99245835Y-38050360D01*
X99247395Y-38122520D01*
X99248602Y-38211566D01*
X99249499Y-38319599D01*
X99250132Y-38448719D01*
X99250545Y-38601029D01*
X99250785Y-38778628D01*
X99250896Y-38983617D01*
X99250923Y-39218097D01*
X99250898Y-39445015D01*
X99250791Y-39650984D01*
X99250556Y-39829490D01*
X99250149Y-39982634D01*
X99249525Y-40112517D01*
X99248637Y-40221241D01*
X99247442Y-40310905D01*
X99245895Y-40383610D01*
X99243949Y-40441459D01*
X99241561Y-40486550D01*
X99238684Y-40520985D01*
X99235275Y-40546866D01*
X99231287Y-40566292D01*
X99226676Y-40581365D01*
X99221397Y-40594185D01*
X99174819Y-40664473D01*
X99103015Y-40722070D01*
X99014360Y-40756927D01*
X98900390Y-40772584D01*
X98791271Y-40765210D01*
X98696137Y-40734955D01*
X98618193Y-40683362D01*
X98560646Y-40611973D01*
X98526703Y-40522332D01*
X98524291Y-40507845D01*
X98519280Y-40453993D01*
X98515109Y-40374928D01*
X98511933Y-40275086D01*
X98509912Y-40158903D01*
X98509204Y-40030815D01*
X98509204Y-39620896D01*
X97811324Y-39620896D01*
X97818381Y-40154012D01*
X97819587Y-40239345D01*
X97822026Y-40377835D01*
X97824830Y-40489899D01*
X97828175Y-40578910D01*
X97832236Y-40648245D01*
X97837188Y-40701278D01*
X97843207Y-40741383D01*
X97850467Y-40771937D01*
X97879183Y-40856410D01*
X97945531Y-40990920D01*
X98032112Y-41103483D01*
X98140893Y-41195978D01*
X98273843Y-41270285D01*
X98432930Y-41328286D01*
X98467182Y-41337599D01*
X98516887Y-41348096D01*
X98572757Y-41355702D01*
X98641149Y-41361022D01*
X98728418Y-41364664D01*
X98840920Y-41367234D01*
X98925615Y-41368136D01*
X99019818Y-41367774D01*
X99102573Y-41366032D01*
X99167171Y-41363060D01*
X99206900Y-41359009D01*
X99265807Y-41347182D01*
X99436735Y-41297101D01*
X99582672Y-41227892D01*
X99703937Y-41139287D01*
X99800845Y-41031019D01*
X99873713Y-40902820D01*
X99922859Y-40754422D01*
X99924723Y-40743905D01*
X99929097Y-40696715D01*
X99933042Y-40622017D01*
X99936559Y-40522625D01*
X99939647Y-40401355D01*
X99942308Y-40261019D01*
X99944542Y-40104433D01*
X99946349Y-39934410D01*
X99947730Y-39753764D01*
X99948684Y-39565310D01*
X99949212Y-39371861D01*
X99949315Y-39176232D01*
X99948992Y-38981236D01*
X99948245Y-38789689D01*
X99947074Y-38604404D01*
X99945478Y-38428195D01*
X99943459Y-38263876D01*
X99941016Y-38114262D01*
X99938151Y-37982167D01*
X99934863Y-37870404D01*
X99931152Y-37781788D01*
X99927020Y-37719133D01*
X99922466Y-37685253D01*
X99894930Y-37596491D01*
X99829070Y-37459537D01*
X99739467Y-37342623D01*
X99625516Y-37245165D01*
X99486610Y-37166578D01*
X99330465Y-37109329D01*
X100624847Y-37109329D01*
X100629535Y-38906126D01*
X100629789Y-39002713D01*
X100630266Y-39176232D01*
X100630524Y-39269832D01*
X100631253Y-39507749D01*
X100632008Y-39718257D01*
X100632820Y-39903145D01*
X100633722Y-40064202D01*
X100634745Y-40203220D01*
X100635921Y-40321989D01*
X100637283Y-40422298D01*
X100638861Y-40505939D01*
X100640689Y-40574700D01*
X100642799Y-40630373D01*
X100645221Y-40674748D01*
X100647988Y-40709614D01*
X100651132Y-40736762D01*
X100654685Y-40757983D01*
X100658679Y-40775066D01*
X100663145Y-40789801D01*
X100715091Y-40918559D01*
X100792201Y-41046572D01*
X100888666Y-41151562D01*
X101006366Y-41235135D01*
X101147182Y-41298897D01*
X101312997Y-41344453D01*
X101320760Y-41346016D01*
X101431827Y-41361912D01*
X101562678Y-41371248D01*
X101703173Y-41374037D01*
X101843170Y-41370296D01*
X101972529Y-41360041D01*
X102081109Y-41343285D01*
X102231761Y-41300965D01*
X102377372Y-41233660D01*
X102499709Y-41145020D01*
X102598859Y-41034968D01*
X102674907Y-40903424D01*
X102727938Y-40750311D01*
X102729155Y-40744622D01*
X102732349Y-40719745D01*
X102735255Y-40680506D01*
X102737892Y-40625469D01*
X102740280Y-40553198D01*
X102742440Y-40462257D01*
X102744392Y-40351212D01*
X102746155Y-40218625D01*
X102747749Y-40063060D01*
X102749195Y-39883083D01*
X102750513Y-39677258D01*
X102751723Y-39444147D01*
X102752844Y-39182317D01*
X102753898Y-38890330D01*
X102759838Y-37109329D01*
X102064251Y-37109329D01*
X102059831Y-38819681D01*
X102055410Y-40530034D01*
X102014992Y-40608581D01*
X101975596Y-40666170D01*
X101904251Y-40723876D01*
X101813623Y-40759659D01*
X101706606Y-40772489D01*
X101586092Y-40761336D01*
X101566841Y-40757430D01*
X101479321Y-40727666D01*
X101413636Y-40680091D01*
X101363977Y-40610766D01*
X101328793Y-40544963D01*
X101320215Y-37109329D01*
X100624847Y-37109329D01*
X99330465Y-37109329D01*
X99322144Y-37106278D01*
X99293921Y-37098374D01*
X99248650Y-37087503D01*
X99202685Y-37079772D01*
X99149847Y-37074662D01*
X99083957Y-37071653D01*
X98998837Y-37070228D01*
X98888308Y-37069869D01*
X98827109Y-37069958D01*
X98730303Y-37070830D01*
X98655743Y-37073048D01*
X98597286Y-37077121D01*
X98548787Y-37083559D01*
X98504103Y-37092869D01*
X98457090Y-37105560D01*
X98359934Y-37137569D01*
X98209621Y-37206998D01*
X98084801Y-37294017D01*
X97984322Y-37399702D01*
X97907034Y-37525129D01*
X97851784Y-37671374D01*
X97850132Y-37677375D01*
X97842338Y-37712747D01*
X97835992Y-37756917D01*
X97830870Y-37813683D01*
X97826749Y-37886844D01*
X97823406Y-37980201D01*
X97820615Y-38097550D01*
X97818155Y-38242693D01*
X97811091Y-38720523D01*
X96566323Y-38720523D01*
X96566293Y-38523072D01*
X96566298Y-38341601D01*
X96566348Y-37981475D01*
X96566457Y-37651138D01*
X96566633Y-37349364D01*
X96566886Y-37074930D01*
X96567224Y-36826612D01*
X96567656Y-36603185D01*
X96568190Y-36403426D01*
X96568835Y-36226110D01*
X96569600Y-36070013D01*
X96570494Y-35933912D01*
X96571525Y-35816582D01*
X96572702Y-35716800D01*
X96574033Y-35633341D01*
X96575527Y-35564981D01*
X96577193Y-35510496D01*
X96579040Y-35468662D01*
X96581076Y-35438256D01*
X96583310Y-35418052D01*
X96585751Y-35406828D01*
X96588406Y-35403359D01*
X96590230Y-35403533D01*
X96616204Y-35406949D01*
X96671308Y-35414545D01*
X96753868Y-35426083D01*
X96862211Y-35441323D01*
X96994662Y-35460026D01*
X97149549Y-35481953D01*
X97325196Y-35506864D01*
X97519932Y-35534520D01*
X97732081Y-35564682D01*
X97959971Y-35597111D01*
X98201927Y-35631568D01*
X98456275Y-35667812D01*
X98721343Y-35705606D01*
X98995456Y-35744709D01*
X99276941Y-35784882D01*
X99564123Y-35825887D01*
X99855329Y-35867483D01*
X100148886Y-35909432D01*
X100443120Y-35951495D01*
X100736356Y-35993432D01*
X101026922Y-36035003D01*
X101313143Y-36075970D01*
X101593345Y-36116094D01*
X101865856Y-36155134D01*
X102129002Y-36192852D01*
X102381107Y-36229009D01*
X102620500Y-36263366D01*
X102845506Y-36295682D01*
X103054451Y-36325719D01*
X103245662Y-36353238D01*
X103417464Y-36377999D01*
X103568185Y-36399763D01*
X103696151Y-36418291D01*
X103799687Y-36433343D01*
X103877120Y-36444681D01*
X103926777Y-36452064D01*
X103946983Y-36455255D01*
X103990422Y-36464202D01*
X103990422Y-43170912D01*
X103852207Y-43142467D01*
G37*
G36*
X85098383Y-41342662D02*
G01*
X85098383Y-39652488D01*
X84753446Y-39652488D01*
X84721409Y-39751213D01*
X84721004Y-39752462D01*
X84708475Y-39791404D01*
X84687738Y-39856201D01*
X84660080Y-39942809D01*
X84626792Y-40047185D01*
X84589163Y-40165287D01*
X84548482Y-40293070D01*
X84506040Y-40426493D01*
X84464501Y-40556993D01*
X84421398Y-40692133D01*
X84380373Y-40820498D01*
X84342921Y-40937420D01*
X84310536Y-41038232D01*
X84284714Y-41118266D01*
X84266951Y-41172855D01*
X84211194Y-41342662D01*
X83488432Y-41342662D01*
X83788289Y-40455197D01*
X83838973Y-40304828D01*
X83889958Y-40152794D01*
X83936860Y-40012138D01*
X83978809Y-39885507D01*
X84014938Y-39775549D01*
X84044375Y-39684911D01*
X84066251Y-39616241D01*
X84079697Y-39572186D01*
X84083842Y-39555393D01*
X84082749Y-39553624D01*
X84063529Y-39536524D01*
X84025986Y-39508483D01*
X83976865Y-39474596D01*
X83939000Y-39447288D01*
X83836758Y-39351000D01*
X83751800Y-39236654D01*
X83691279Y-39113299D01*
X83689199Y-39107620D01*
X83679985Y-39081031D01*
X83672504Y-39054635D01*
X83666537Y-39024899D01*
X83661867Y-38988294D01*
X83658275Y-38941286D01*
X83655543Y-38880345D01*
X83653453Y-38801938D01*
X83651787Y-38702536D01*
X83650326Y-38578605D01*
X83648852Y-38426614D01*
X83648463Y-38380908D01*
X84348072Y-38380908D01*
X84348076Y-38398787D01*
X84348430Y-38518073D01*
X84349558Y-38610851D01*
X84351743Y-38681613D01*
X84355270Y-38734848D01*
X84360422Y-38775048D01*
X84367485Y-38806705D01*
X84376740Y-38834308D01*
X84381292Y-38845405D01*
X84429194Y-38922464D01*
X84495654Y-38983065D01*
X84572733Y-39019697D01*
X84582029Y-39021772D01*
X84628145Y-39027482D01*
X84695777Y-39032103D01*
X84777376Y-39035204D01*
X84865391Y-39036355D01*
X85098383Y-39036443D01*
X85098383Y-37725373D01*
X84865391Y-37725462D01*
X84848810Y-37725486D01*
X84738454Y-37727100D01*
X84653495Y-37732001D01*
X84588513Y-37741263D01*
X84538089Y-37755959D01*
X84496804Y-37777164D01*
X84459237Y-37805951D01*
X84446813Y-37817164D01*
X84417259Y-37848173D01*
X84394193Y-37882335D01*
X84376829Y-37923710D01*
X84364383Y-37976360D01*
X84356069Y-38044344D01*
X84351103Y-38131723D01*
X84348699Y-38242558D01*
X84348072Y-38380908D01*
X83648463Y-38380908D01*
X83647990Y-38325296D01*
X83647249Y-38171501D01*
X83647798Y-38043699D01*
X83650016Y-37938339D01*
X83654277Y-37851869D01*
X83660960Y-37780735D01*
X83670441Y-37721386D01*
X83683098Y-37670268D01*
X83699306Y-37623830D01*
X83719443Y-37578519D01*
X83743885Y-37530782D01*
X83779098Y-37471897D01*
X83872791Y-37359860D01*
X83991013Y-37267465D01*
X84133503Y-37194861D01*
X84299998Y-37142196D01*
X84490236Y-37109616D01*
X84532971Y-37106306D01*
X84606389Y-37102893D01*
X84702526Y-37099867D01*
X84816709Y-37097329D01*
X84944265Y-37095381D01*
X85080520Y-37094124D01*
X85220802Y-37093662D01*
X85809204Y-37093533D01*
X85809204Y-41342662D01*
X85098383Y-41342662D01*
G37*
G36*
X96593936Y-41822737D02*
G01*
X96598103Y-41823844D01*
X96628674Y-41831707D01*
X96687107Y-41846635D01*
X96771500Y-41868145D01*
X96879954Y-41895755D01*
X97010567Y-41928981D01*
X97161437Y-41967342D01*
X97330665Y-42010355D01*
X97516349Y-42057538D01*
X97716587Y-42108408D01*
X97929480Y-42162482D01*
X98153125Y-42219279D01*
X98385623Y-42278315D01*
X98625072Y-42339108D01*
X98869571Y-42401176D01*
X99117219Y-42464037D01*
X99366116Y-42527207D01*
X99614359Y-42590204D01*
X99860049Y-42652546D01*
X100101284Y-42713750D01*
X100336164Y-42773335D01*
X100562787Y-42830816D01*
X100779252Y-42885713D01*
X100983659Y-42937542D01*
X101174106Y-42985820D01*
X101348692Y-43030066D01*
X101505517Y-43069798D01*
X101642680Y-43104531D01*
X101758279Y-43133785D01*
X101850413Y-43157076D01*
X101917182Y-43173922D01*
X101956685Y-43183840D01*
X102063308Y-43210433D01*
X102063308Y-43903538D01*
X102063175Y-44005150D01*
X102062545Y-44142921D01*
X102061450Y-44268256D01*
X102059946Y-44377961D01*
X102058090Y-44468845D01*
X102055938Y-44537715D01*
X102053548Y-44581378D01*
X102050977Y-44596642D01*
X102043391Y-44593420D01*
X102009418Y-44577873D01*
X101949755Y-44550166D01*
X101866094Y-44511100D01*
X101760127Y-44461472D01*
X101633544Y-44402081D01*
X101488037Y-44333724D01*
X101325297Y-44257202D01*
X101147016Y-44173311D01*
X100954885Y-44082850D01*
X100750594Y-43986619D01*
X100535836Y-43885414D01*
X100312302Y-43780036D01*
X100081683Y-43671281D01*
X99845669Y-43559949D01*
X99605954Y-43446837D01*
X99364227Y-43332745D01*
X99122181Y-43218471D01*
X98881506Y-43104812D01*
X98643893Y-42992569D01*
X98411035Y-42882538D01*
X98184622Y-42775518D01*
X97966346Y-42672308D01*
X97757898Y-42573707D01*
X97560969Y-42480512D01*
X97377250Y-42393522D01*
X97208434Y-42313536D01*
X97056210Y-42241351D01*
X96922271Y-42177767D01*
X96808308Y-42123581D01*
X96716012Y-42079593D01*
X96647074Y-42046599D01*
X96603186Y-42025400D01*
X96586038Y-42016794D01*
X96579056Y-42007781D01*
X96569661Y-41969774D01*
X96566293Y-41909322D01*
X96566788Y-41869397D01*
X96570173Y-41835291D01*
X96578544Y-41821864D01*
X96593936Y-41822737D01*
G37*
%TO.C,REF\u002A\u002A*%
X45508700Y-44577500D02*
X45508700Y-45847500D01*
X61104300Y-53213500D02*
X46905700Y-53213500D01*
X46778700Y-45212500D02*
X45508700Y-44577500D01*
X46905700Y-42291500D02*
X61104300Y-42291500D01*
X45508700Y-45847500D02*
X46778700Y-45212500D01*
X46905700Y-53213500D02*
X46905700Y-42291500D01*
X61104300Y-42291500D02*
X61104300Y-53213500D01*
%TD*%
M02*
