%TF.GenerationSoftware,KiCad,Pcbnew,(6.0.8-1)-1*%
%TF.CreationDate,2022-11-01T09:33:12-04:00*%
%TF.ProjectId,Untitled,556e7469-746c-4656-942e-6b696361645f,rev?*%
%TF.SameCoordinates,Original*%
%TF.FileFunction,Copper,L2,Bot*%
%TF.FilePolarity,Positive*%
%FSLAX46Y46*%
G04 Gerber Fmt 4.6, Leading zero omitted, Abs format (unit mm)*
G04 Created by KiCad (PCBNEW (6.0.8-1)-1) date 2022-11-01 09:33:12*
%MOMM*%
%LPD*%
G01*
G04 APERTURE LIST*
%TA.AperFunction,ComponentPad*%
%ADD10R,1.397000X1.397000*%
%TD*%
%TA.AperFunction,ComponentPad*%
%ADD11C,1.397000*%
%TD*%
%TA.AperFunction,ComponentPad*%
%ADD12R,3.500000X3.500000*%
%TD*%
%TA.AperFunction,ComponentPad*%
%ADD13C,4.000000*%
%TD*%
%TA.AperFunction,ViaPad*%
%ADD14C,0.800000*%
%TD*%
%TA.AperFunction,Conductor*%
%ADD15C,0.200000*%
%TD*%
%TA.AperFunction,Conductor*%
%ADD16C,0.250000*%
%TD*%
G04 APERTURE END LIST*
D10*
%TO.P,REF\u002A\u002A,1*%
%TO.N,N/C*%
X59250100Y-41127500D03*
D11*
%TO.P,REF\u002A\u002A,2*%
X59250100Y-38587500D03*
%TO.P,REF\u002A\u002A,3*%
X59250100Y-36047500D03*
%TD*%
D12*
%TO.P,REF\u002A\u002A,1*%
%TO.N,N/C*%
X54200000Y-123600000D03*
D13*
%TO.P,REF\u002A\u002A,2*%
X59225000Y-128625000D03*
X59225000Y-118575000D03*
X49175000Y-128625000D03*
X49175000Y-118575000D03*
%TD*%
D10*
%TO.P,REF\u002A\u002A,1*%
%TO.N,N/C*%
X59250100Y-95587500D03*
D11*
%TO.P,REF\u002A\u002A,2*%
X59250100Y-93047500D03*
%TO.P,REF\u002A\u002A,3*%
X59250100Y-90507500D03*
%TD*%
D10*
%TO.P,REF\u002A\u002A,1*%
%TO.N,N/C*%
X59250100Y-77387500D03*
D11*
%TO.P,REF\u002A\u002A,2*%
X59250100Y-74847500D03*
%TO.P,REF\u002A\u002A,3*%
X59250100Y-72307500D03*
%TD*%
D10*
%TO.P,REF\u002A\u002A,1*%
%TO.N,N/C*%
X59250100Y-59387500D03*
D11*
%TO.P,REF\u002A\u002A,2*%
X59250100Y-56847500D03*
%TO.P,REF\u002A\u002A,3*%
X59250100Y-54307500D03*
%TD*%
D10*
%TO.P,REF\u002A\u002A,1*%
%TO.N,N/C*%
X59250100Y-99612500D03*
D11*
%TO.P,REF\u002A\u002A,2*%
X59250100Y-102152500D03*
%TO.P,REF\u002A\u002A,3*%
X59250100Y-104692500D03*
%TD*%
D10*
%TO.P,REF\u002A\u002A,1*%
%TO.N,N/C*%
X59250100Y-63212500D03*
D11*
%TO.P,REF\u002A\u002A,2*%
X59250100Y-65752500D03*
%TO.P,REF\u002A\u002A,3*%
X59250100Y-68292500D03*
%TD*%
D10*
%TO.P,REF\u002A\u002A,1*%
%TO.N,N/C*%
X59200000Y-81400000D03*
D11*
%TO.P,REF\u002A\u002A,2*%
X59200000Y-83940000D03*
%TO.P,REF\u002A\u002A,3*%
X59200000Y-86480000D03*
%TD*%
D10*
%TO.P,REF\u002A\u002A,1*%
%TO.N,N/C*%
X59250100Y-45212500D03*
D11*
%TO.P,REF\u002A\u002A,2*%
X59250100Y-47752500D03*
%TO.P,REF\u002A\u002A,3*%
X59250100Y-50292500D03*
%TD*%
D14*
%TO.N,*%
X72000000Y-47542018D03*
X105490000Y-62710000D03*
X71000000Y-52800000D03*
X103000000Y-109200000D03*
X150890000Y-61510000D03*
X105580000Y-108220000D03*
X69800000Y-41637506D03*
X153290000Y-110310000D03*
X105290000Y-60510000D03*
X71000000Y-70800000D03*
X73912631Y-64480000D03*
X72000000Y-36400000D03*
X103110000Y-61690000D03*
X71400000Y-59101542D03*
X74100000Y-76080000D03*
X153000000Y-60600000D03*
X153000000Y-62600000D03*
X105780000Y-110420000D03*
X153290000Y-108310000D03*
X150800000Y-109400000D03*
%TD*%
D15*
%TO.N,*%
X59200000Y-83940000D02*
X63540000Y-83940000D01*
X120290000Y-104310000D02*
X108000000Y-116600000D01*
D16*
X59200000Y-86480000D02*
X57480000Y-86480000D01*
D15*
X153290000Y-108310000D02*
X151490000Y-106510000D01*
X131800000Y-67800000D02*
X140800000Y-58800000D01*
D16*
X51600000Y-39490000D02*
X54532494Y-36557506D01*
X73912631Y-61614173D02*
X73912631Y-64480000D01*
D15*
X151490000Y-106510000D02*
X120290000Y-106510000D01*
X155690000Y-109110000D02*
X150890000Y-104310000D01*
X150890000Y-104310000D02*
X120290000Y-104310000D01*
X107180000Y-110420000D02*
X107180000Y-107620000D01*
X69612500Y-63212500D02*
X59250100Y-63212500D01*
D16*
X62757600Y-53800000D02*
X59250100Y-50292500D01*
X72000000Y-39437506D02*
X72000000Y-36400000D01*
D15*
X57307500Y-54307500D02*
X59250100Y-54307500D01*
D16*
X59250100Y-104692500D02*
X59250100Y-118549900D01*
X62520000Y-89800000D02*
X59200000Y-86480000D01*
X71800000Y-45800000D02*
X61202600Y-45800000D01*
D15*
X108000000Y-116600000D02*
X90000000Y-116600000D01*
D16*
X103110000Y-58490000D02*
X84490000Y-58490000D01*
D15*
X68587500Y-45212500D02*
X59250100Y-45212500D01*
X73400000Y-71800000D02*
X69892500Y-68292500D01*
D16*
X103000000Y-109200000D02*
X83600000Y-89800000D01*
X56000000Y-104600000D02*
X56092500Y-104692500D01*
X54507500Y-72307500D02*
X59250100Y-72307500D01*
X51600000Y-72800000D02*
X51600000Y-47800000D01*
D15*
X140800000Y-58800000D02*
X151200000Y-58800000D01*
X75400000Y-65600000D02*
X75200000Y-65400000D01*
D16*
X102410000Y-62390000D02*
X103110000Y-61690000D01*
X52100000Y-73300000D02*
X52100000Y-75050000D01*
D15*
X107690000Y-62710000D02*
X107690000Y-60670000D01*
D16*
X105130000Y-60510000D02*
X103110000Y-58490000D01*
X61202600Y-45800000D02*
X59250100Y-47752500D01*
D15*
X108600000Y-118200000D02*
X86400000Y-118200000D01*
X153290000Y-110310000D02*
X154490000Y-110310000D01*
D16*
X78200000Y-53800000D02*
X62757600Y-53800000D01*
D15*
X75600000Y-67800000D02*
X131800000Y-67800000D01*
X74300000Y-66500000D02*
X71195000Y-66500000D01*
X60002600Y-101400000D02*
X59250100Y-102152500D01*
X59250100Y-65752500D02*
X70447500Y-65752500D01*
X141490000Y-61510000D02*
X131200000Y-71800000D01*
X151200000Y-58800000D02*
X153000000Y-60600000D01*
X153000000Y-62600000D02*
X154200000Y-62600000D01*
X105780000Y-110420000D02*
X107180000Y-110420000D01*
X154490000Y-110310000D02*
X155690000Y-109110000D01*
X65000000Y-83600000D02*
X62800000Y-81400000D01*
D16*
X51600000Y-47800000D02*
X51600000Y-39490000D01*
D15*
X106410000Y-59390000D02*
X88220000Y-41200000D01*
X154200000Y-62600000D02*
X155400000Y-61400000D01*
X83200000Y-83600000D02*
X65000000Y-83600000D01*
D16*
X57480000Y-86480000D02*
X53600000Y-82600000D01*
X54732500Y-70907500D02*
X57347500Y-68292500D01*
X86790000Y-62390000D02*
X102410000Y-62390000D01*
D15*
X75200000Y-65400000D02*
X71800000Y-65400000D01*
X131200000Y-71800000D02*
X73400000Y-71800000D01*
X72800000Y-101400000D02*
X60002600Y-101400000D01*
D16*
X56200000Y-100400000D02*
X56200000Y-104400000D01*
D15*
X63540000Y-83940000D02*
X66600000Y-87000000D01*
X62800000Y-81400000D02*
X59200000Y-81400000D01*
D16*
X72000000Y-47542018D02*
X72828991Y-48371009D01*
D15*
X86400000Y-115000000D02*
X72800000Y-101400000D01*
D16*
X54200000Y-91400000D02*
X54200000Y-98400000D01*
D15*
X66600000Y-87000000D02*
X84360000Y-87000000D01*
X86400000Y-118200000D02*
X86400000Y-115000000D01*
X107200000Y-107600000D02*
X83200000Y-83600000D01*
D16*
X86790000Y-62390000D02*
X78200000Y-53800000D01*
X68692500Y-104692500D02*
X84600000Y-120600000D01*
D15*
X107690000Y-60670000D02*
X106410000Y-59390000D01*
D16*
X84490000Y-58490000D02*
X71800000Y-45800000D01*
D15*
X56200000Y-51200000D02*
X55200000Y-52200000D01*
X59250100Y-50292500D02*
X57107500Y-50292500D01*
D16*
X59250100Y-90507500D02*
X59250100Y-86530100D01*
X59250100Y-104692500D02*
X68692500Y-104692500D01*
D15*
X90000000Y-116600000D02*
X73012500Y-99612500D01*
D16*
X71400000Y-70800000D02*
X74100000Y-73500000D01*
D15*
X155400000Y-61400000D02*
X150600000Y-56600000D01*
D16*
X72828991Y-50971009D02*
X71000000Y-52800000D01*
D15*
X72200000Y-41200000D02*
X69600000Y-43800000D01*
D16*
X59250100Y-118549900D02*
X59225000Y-118575000D01*
X84600000Y-120600000D02*
X139600000Y-120600000D01*
D15*
X84360000Y-87000000D02*
X105580000Y-108220000D01*
D16*
X139600000Y-120600000D02*
X150800000Y-109400000D01*
D15*
X71800000Y-65400000D02*
X69612500Y-63212500D01*
X74300000Y-66500000D02*
X75600000Y-67800000D01*
X71195000Y-66500000D02*
X70447500Y-65752500D01*
D16*
X71400000Y-59101542D02*
X73912631Y-61614173D01*
D15*
X130800000Y-65600000D02*
X75400000Y-65600000D01*
X56200000Y-51200000D02*
X55000000Y-51200000D01*
D16*
X53920000Y-71720000D02*
X52161068Y-73478932D01*
D15*
X69892500Y-68292500D02*
X59250100Y-68292500D01*
X69600000Y-44200000D02*
X68587500Y-45212500D01*
X69600000Y-43800000D02*
X69600000Y-44200000D01*
X57107500Y-50292500D02*
X56200000Y-51200000D01*
D16*
X59250100Y-86530100D02*
X59200000Y-86480000D01*
X52150000Y-73350000D02*
X52100000Y-73300000D01*
X55092500Y-90507500D02*
X54200000Y-91400000D01*
X53920000Y-71720000D02*
X54507500Y-72307500D01*
X52100000Y-75050000D02*
X54625000Y-77575000D01*
D15*
X107690000Y-62710000D02*
X105490000Y-62710000D01*
X120290000Y-106510000D02*
X108600000Y-118200000D01*
D16*
X83600000Y-89800000D02*
X62520000Y-89800000D01*
X71000000Y-70800000D02*
X71400000Y-70800000D01*
D15*
X139800000Y-56600000D02*
X130800000Y-65600000D01*
D16*
X69800000Y-41637506D02*
X72000000Y-39437506D01*
D15*
X107180000Y-107620000D02*
X107200000Y-107600000D01*
X88220000Y-41200000D02*
X72200000Y-41200000D01*
D16*
X54200000Y-98400000D02*
X56200000Y-100400000D01*
X53600000Y-78600000D02*
X54625000Y-77575000D01*
X57347500Y-68292500D02*
X59250100Y-68292500D01*
X53600000Y-82600000D02*
X53600000Y-78600000D01*
D15*
X150890000Y-61510000D02*
X141490000Y-61510000D01*
D16*
X72828991Y-48371009D02*
X72828991Y-50971009D01*
X54732500Y-70907500D02*
X53920000Y-71720000D01*
D15*
X55000000Y-51200000D02*
X51600000Y-47800000D01*
D16*
X52100000Y-73300000D02*
X51600000Y-72800000D01*
X74100000Y-73500000D02*
X74100000Y-76080000D01*
X56200000Y-104400000D02*
X56000000Y-104600000D01*
D15*
X150600000Y-56600000D02*
X139800000Y-56600000D01*
X55200000Y-52200000D02*
X57307500Y-54307500D01*
X73012500Y-99612500D02*
X59250100Y-99612500D01*
D16*
X59250100Y-90507500D02*
X55092500Y-90507500D01*
X54532494Y-36557506D02*
X59270100Y-36557506D01*
X56092500Y-104692500D02*
X59250100Y-104692500D01*
%TD*%
M02*
