%TF.GenerationSoftware,KiCad,Pcbnew,(6.0.8-1)-1*%
%TF.CreationDate,2022-12-07T15:02:43-05:00*%
%TF.ProjectId,Untitled,556e7469-746c-4656-942e-6b696361645f,rev?*%
%TF.SameCoordinates,Original*%
%TF.FileFunction,Paste,Top*%
%TF.FilePolarity,Positive*%
%FSLAX46Y46*%
G04 Gerber Fmt 4.6, Leading zero omitted, Abs format (unit mm)*
G04 Created by KiCad (PCBNEW (6.0.8-1)-1) date 2022-12-07 15:02:43*
%MOMM*%
%LPD*%
G01*
G04 APERTURE LIST*
G04 Aperture macros list*
%AMRoundRect*
0 Rectangle with rounded corners*
0 $1 Rounding radius*
0 $2 $3 $4 $5 $6 $7 $8 $9 X,Y pos of 4 corners*
0 Add a 4 corners polygon primitive as box body*
4,1,4,$2,$3,$4,$5,$6,$7,$8,$9,$2,$3,0*
0 Add four circle primitives for the rounded corners*
1,1,$1+$1,$2,$3*
1,1,$1+$1,$4,$5*
1,1,$1+$1,$6,$7*
1,1,$1+$1,$8,$9*
0 Add four rect primitives between the rounded corners*
20,1,$1+$1,$2,$3,$4,$5,0*
20,1,$1+$1,$4,$5,$6,$7,0*
20,1,$1+$1,$6,$7,$8,$9,0*
20,1,$1+$1,$8,$9,$2,$3,0*%
G04 Aperture macros list end*
%ADD10RoundRect,0.237500X-0.287500X-0.237500X0.287500X-0.237500X0.287500X0.237500X-0.287500X0.237500X0*%
%ADD11RoundRect,0.087500X-0.087500X-0.337500X0.087500X-0.337500X0.087500X0.337500X-0.087500X0.337500X0*%
%ADD12RoundRect,0.250000X-0.325000X-1.100000X0.325000X-1.100000X0.325000X1.100000X-0.325000X1.100000X0*%
%ADD13R,4.300000X1.100000*%
%ADD14RoundRect,0.250000X-0.312500X-0.625000X0.312500X-0.625000X0.312500X0.625000X-0.312500X0.625000X0*%
G04 APERTURE END LIST*
D10*
%TO.C,REF\u002A\u002A*%
X102865000Y-55200000D03*
X104615000Y-55200000D03*
%TD*%
%TO.C,REF\u002A\u002A*%
X150665000Y-103000000D03*
X152415000Y-103000000D03*
%TD*%
D11*
%TO.C,Temp1*%
X64750000Y-48900000D03*
X65400000Y-48900000D03*
X66050000Y-48900000D03*
X66050000Y-46700000D03*
X64750000Y-46700000D03*
%TD*%
D12*
%TO.C,10 nF*%
X64625000Y-36100000D03*
X67575000Y-36100000D03*
%TD*%
D13*
%TO.C,REF\u002A\u002A*%
X151290000Y-104710000D03*
X151290000Y-106910000D03*
%TD*%
D11*
%TO.C,Temp2*%
X64650000Y-66800000D03*
X65300000Y-66800000D03*
X65950000Y-66800000D03*
X65950000Y-64600000D03*
X64650000Y-64600000D03*
%TD*%
D14*
%TO.C,50 \u03A9*%
X64737500Y-121400000D03*
X67662500Y-121400000D03*
%TD*%
D13*
%TO.C,REF\u002A\u002A*%
X103490000Y-104710000D03*
X103490000Y-106910000D03*
%TD*%
D12*
%TO.C,10 nF*%
X64825000Y-90400000D03*
X67775000Y-90400000D03*
%TD*%
D11*
%TO.C,Temp3*%
X64650000Y-85100000D03*
X65300000Y-85100000D03*
X65950000Y-85100000D03*
X65950000Y-82900000D03*
X64650000Y-82900000D03*
%TD*%
D10*
%TO.C,REF\u002A\u002A*%
X102865000Y-103000000D03*
X104615000Y-103000000D03*
%TD*%
D12*
%TO.C,10 nF*%
X64725000Y-72600000D03*
X67675000Y-72600000D03*
%TD*%
D11*
%TO.C,Temp4*%
X64750000Y-103200000D03*
X65400000Y-103200000D03*
X66050000Y-103200000D03*
X66050000Y-101000000D03*
X64750000Y-101000000D03*
%TD*%
D12*
%TO.C,10 nF*%
X64725000Y-54300000D03*
X67675000Y-54300000D03*
%TD*%
D10*
%TO.C,REF\u002A\u002A*%
X150665000Y-55200000D03*
X152415000Y-55200000D03*
%TD*%
D13*
%TO.C,REF\u002A\u002A*%
X151290000Y-56910000D03*
X151290000Y-59110000D03*
%TD*%
%TO.C,REF\u002A\u002A*%
X103490000Y-56910000D03*
X103490000Y-59110000D03*
%TD*%
M02*
