%TF.GenerationSoftware,KiCad,Pcbnew,(6.0.8-1)-1*%
%TF.CreationDate,2022-12-07T15:02:43-05:00*%
%TF.ProjectId,Untitled,556e7469-746c-4656-942e-6b696361645f,rev?*%
%TF.SameCoordinates,Original*%
%TF.FileFunction,Copper,L2,Bot*%
%TF.FilePolarity,Positive*%
%FSLAX46Y46*%
G04 Gerber Fmt 4.6, Leading zero omitted, Abs format (unit mm)*
G04 Created by KiCad (PCBNEW (6.0.8-1)-1) date 2022-12-07 15:02:43*
%MOMM*%
%LPD*%
G01*
G04 APERTURE LIST*
%TA.AperFunction,ComponentPad*%
%ADD10R,1.397000X1.397000*%
%TD*%
%TA.AperFunction,ComponentPad*%
%ADD11C,1.397000*%
%TD*%
%TA.AperFunction,ComponentPad*%
%ADD12R,3.500000X3.500000*%
%TD*%
%TA.AperFunction,ComponentPad*%
%ADD13C,4.000000*%
%TD*%
%TA.AperFunction,ViaPad*%
%ADD14C,0.800000*%
%TD*%
%TA.AperFunction,Conductor*%
%ADD15C,0.250000*%
%TD*%
%TA.AperFunction,Conductor*%
%ADD16C,0.200000*%
%TD*%
G04 APERTURE END LIST*
D10*
%TO.P,REF\u002A\u002A,1*%
%TO.N,N/C*%
X59250100Y-41127500D03*
D11*
%TO.P,REF\u002A\u002A,2*%
X59250100Y-38587500D03*
%TO.P,REF\u002A\u002A,3*%
X59250100Y-36047500D03*
%TD*%
D12*
%TO.P,LEDs,1*%
%TO.N,N/C*%
X54200000Y-123600000D03*
D13*
%TO.P,LEDs,2*%
X59225000Y-128625000D03*
X59225000Y-118575000D03*
X49175000Y-128625000D03*
X49175000Y-118575000D03*
%TD*%
D11*
%TO.P,REF\u002A\u002A,3*%
%TO.N,N/C*%
X59250100Y-90507500D03*
%TO.P,REF\u002A\u002A,2*%
X59250100Y-93047500D03*
D10*
%TO.P,REF\u002A\u002A,1*%
X59250100Y-95587500D03*
%TD*%
%TO.P,REF\u002A\u002A,1*%
%TO.N,N/C*%
X59250100Y-77387500D03*
D11*
%TO.P,REF\u002A\u002A,2*%
X59250100Y-74847500D03*
%TO.P,REF\u002A\u002A,3*%
X59250100Y-72307500D03*
%TD*%
D10*
%TO.P,REF\u002A\u002A,1*%
%TO.N,N/C*%
X59250100Y-59387500D03*
D11*
%TO.P,REF\u002A\u002A,2*%
X59250100Y-56847500D03*
%TO.P,REF\u002A\u002A,3*%
X59250100Y-54307500D03*
%TD*%
D10*
%TO.P,REF\u002A\u002A,1*%
%TO.N,N/C*%
X59250100Y-99612500D03*
D11*
%TO.P,REF\u002A\u002A,2*%
X59250100Y-102152500D03*
%TO.P,REF\u002A\u002A,3*%
X59250100Y-104692500D03*
%TD*%
D10*
%TO.P,REF\u002A\u002A,1*%
%TO.N,N/C*%
X59250100Y-63212500D03*
D11*
%TO.P,REF\u002A\u002A,2*%
X59250100Y-65752500D03*
%TO.P,REF\u002A\u002A,3*%
X59250100Y-68292500D03*
%TD*%
D10*
%TO.P,REF\u002A\u002A,1*%
%TO.N,N/C*%
X59200000Y-81400000D03*
D11*
%TO.P,REF\u002A\u002A,2*%
X59200000Y-83940000D03*
%TO.P,REF\u002A\u002A,3*%
X59200000Y-86480000D03*
%TD*%
D10*
%TO.P,REF\u002A\u002A,1*%
%TO.N,N/C*%
X59250100Y-45212500D03*
D11*
%TO.P,REF\u002A\u002A,2*%
X59250100Y-47752500D03*
%TO.P,REF\u002A\u002A,3*%
X59250100Y-50292500D03*
%TD*%
D14*
%TO.N,*%
X70000000Y-54300000D03*
X70200000Y-59100000D03*
X64550000Y-65750000D03*
X66900000Y-48900000D03*
X66700000Y-100950000D03*
X66800000Y-64500000D03*
X66600000Y-66800000D03*
X66100000Y-41637506D03*
X69700000Y-92700000D03*
X68800000Y-77400000D03*
X66700000Y-85100000D03*
X69700000Y-36600000D03*
X66700000Y-82900000D03*
X64800000Y-47800000D03*
X68800000Y-72600000D03*
X64700000Y-84000000D03*
X70600000Y-98000000D03*
X67000000Y-46700000D03*
X66700000Y-103150000D03*
X64750000Y-102100000D03*
%TD*%
D15*
%TO.N,*%
X66200000Y-45800000D02*
X61202600Y-45800000D01*
X62220000Y-86480000D02*
X64700000Y-84000000D01*
X59200000Y-86480000D02*
X57480000Y-86480000D01*
D16*
X62600000Y-101400000D02*
X64000000Y-100000000D01*
X59250100Y-45212500D02*
X67612500Y-45212500D01*
X61140000Y-82000000D02*
X65800000Y-82000000D01*
D15*
X51600000Y-39490000D02*
X54532494Y-36557506D01*
X68800000Y-77400000D02*
X68800000Y-72600000D01*
D16*
X59250100Y-50292500D02*
X61207500Y-50292500D01*
X62987500Y-99612500D02*
X67512500Y-99612500D01*
X57307500Y-54307500D02*
X59250100Y-54307500D01*
D15*
X59250100Y-104692500D02*
X59250100Y-118549900D01*
X66200000Y-45900000D02*
X67000000Y-46700000D01*
X70000000Y-54300000D02*
X70000000Y-58900000D01*
D16*
X59200000Y-83940000D02*
X61140000Y-82000000D01*
D15*
X56000000Y-104600000D02*
X56092500Y-104692500D01*
X54507500Y-72307500D02*
X59250100Y-72307500D01*
X70600000Y-96000000D02*
X70600000Y-98000000D01*
X51600000Y-72800000D02*
X51600000Y-47800000D01*
D16*
X67512500Y-99612500D02*
X68100000Y-100200000D01*
D15*
X62007500Y-104692500D02*
X64750000Y-101950000D01*
X52100000Y-73300000D02*
X52100000Y-75050000D01*
D16*
X61407500Y-68292500D02*
X59250100Y-68292500D01*
X67112500Y-63212500D02*
X59250100Y-63212500D01*
D15*
X59250100Y-104692500D02*
X62007500Y-104692500D01*
D16*
X67650000Y-103150000D02*
X66700000Y-103150000D01*
X66800000Y-64100000D02*
X66800000Y-64500000D01*
D15*
X51600000Y-47800000D02*
X51600000Y-39490000D01*
X57480000Y-86480000D02*
X53600000Y-82600000D01*
X54732500Y-70907500D02*
X57347500Y-68292500D01*
D16*
X66600000Y-66800000D02*
X67100000Y-66800000D01*
D15*
X66200000Y-45800000D02*
X66200000Y-45900000D01*
D16*
X66400000Y-63700000D02*
X66800000Y-64100000D01*
D15*
X70000000Y-58900000D02*
X70200000Y-59100000D01*
X69700000Y-36600000D02*
X67000000Y-39300000D01*
X56200000Y-100400000D02*
X56200000Y-104400000D01*
D16*
X63600000Y-63700000D02*
X66400000Y-63700000D01*
X62987500Y-99612500D02*
X63112500Y-99612500D01*
X59250100Y-65752500D02*
X61547500Y-65752500D01*
D15*
X54200000Y-91400000D02*
X54200000Y-98400000D01*
D16*
X61207500Y-50292500D02*
X63700000Y-47800000D01*
X66700000Y-85100000D02*
X67300000Y-85100000D01*
D15*
X69700000Y-92700000D02*
X69700000Y-95100000D01*
D16*
X64000000Y-100000000D02*
X66500000Y-100000000D01*
X59250100Y-99612500D02*
X62987500Y-99612500D01*
X56200000Y-51200000D02*
X55200000Y-52200000D01*
X67300000Y-85100000D02*
X68100000Y-84300000D01*
X59250100Y-50292500D02*
X57107500Y-50292500D01*
D15*
X59250100Y-90507500D02*
X59250100Y-86530100D01*
D16*
X64550000Y-65750000D02*
X63950000Y-65750000D01*
X59250100Y-102152500D02*
X60002600Y-101400000D01*
X68100000Y-84300000D02*
X68100000Y-82900000D01*
D15*
X59250100Y-118549900D02*
X59225000Y-118575000D01*
D16*
X67100000Y-66800000D02*
X68900000Y-65000000D01*
X67900000Y-48900000D02*
X66900000Y-48900000D01*
X67612500Y-45212500D02*
X68100000Y-45700000D01*
X63950000Y-65750000D02*
X61407500Y-68292500D01*
X56200000Y-51200000D02*
X55000000Y-51200000D01*
D15*
X53920000Y-71720000D02*
X52161068Y-73478932D01*
D16*
X66700000Y-100200000D02*
X66700000Y-100950000D01*
D15*
X59200000Y-86480000D02*
X62220000Y-86480000D01*
D16*
X57107500Y-50292500D02*
X56200000Y-51200000D01*
X60002600Y-101400000D02*
X62600000Y-101400000D01*
D15*
X59250100Y-86530100D02*
X59200000Y-86480000D01*
X52150000Y-73350000D02*
X52100000Y-73300000D01*
X55092500Y-90507500D02*
X54200000Y-91400000D01*
X53920000Y-71720000D02*
X54507500Y-72307500D01*
X52100000Y-75050000D02*
X54625000Y-77575000D01*
X69700000Y-95100000D02*
X70600000Y-96000000D01*
D16*
X66600000Y-81400000D02*
X59200000Y-81400000D01*
X68100000Y-100200000D02*
X68100000Y-102700000D01*
D15*
X61202600Y-45800000D02*
X59250100Y-47752500D01*
D16*
X68100000Y-48700000D02*
X67900000Y-48900000D01*
D15*
X67000000Y-39300000D02*
X67000000Y-40737506D01*
D16*
X68900000Y-65000000D02*
X67112500Y-63212500D01*
X61547500Y-65752500D02*
X63600000Y-63700000D01*
X63700000Y-47800000D02*
X64800000Y-47800000D01*
D15*
X54200000Y-98400000D02*
X56200000Y-100400000D01*
X53600000Y-78600000D02*
X54625000Y-77575000D01*
X57347500Y-68292500D02*
X59250100Y-68292500D01*
X53600000Y-82600000D02*
X53600000Y-78600000D01*
D16*
X66500000Y-100000000D02*
X66700000Y-100200000D01*
D15*
X54732500Y-70907500D02*
X53920000Y-71720000D01*
D16*
X55000000Y-51200000D02*
X51600000Y-47800000D01*
D15*
X52100000Y-73300000D02*
X51600000Y-72800000D01*
D16*
X68100000Y-45700000D02*
X68100000Y-48700000D01*
X68100000Y-82900000D02*
X66600000Y-81400000D01*
D15*
X56200000Y-104400000D02*
X56000000Y-104600000D01*
D16*
X55200000Y-52200000D02*
X57307500Y-54307500D01*
D15*
X59250100Y-90507500D02*
X55092500Y-90507500D01*
D16*
X65800000Y-82000000D02*
X66700000Y-82900000D01*
D15*
X67000000Y-40737506D02*
X66100000Y-41637506D01*
X54532494Y-36557506D02*
X59270100Y-36557506D01*
D16*
X68100000Y-102700000D02*
X67650000Y-103150000D01*
D15*
X56092500Y-104692500D02*
X59250100Y-104692500D01*
%TD*%
M02*
