%TF.GenerationSoftware,KiCad,Pcbnew,(6.0.8-1)-1*%
%TF.CreationDate,2022-12-07T15:02:43-05:00*%
%TF.ProjectId,Untitled,556e7469-746c-4656-942e-6b696361645f,rev?*%
%TF.SameCoordinates,Original*%
%TF.FileFunction,Legend,Bot*%
%TF.FilePolarity,Positive*%
%FSLAX46Y46*%
G04 Gerber Fmt 4.6, Leading zero omitted, Abs format (unit mm)*
G04 Created by KiCad (PCBNEW (6.0.8-1)-1) date 2022-12-07 15:02:43*
%MOMM*%
%LPD*%
G01*
G04 APERTURE LIST*
%ADD10C,0.150000*%
%ADD11C,0.300000*%
%ADD12C,0.120000*%
G04 APERTURE END LIST*
D10*
X62052380Y-101090476D02*
X62052380Y-101661904D01*
X63052380Y-101376190D02*
X62052380Y-101376190D01*
X63004761Y-102376190D02*
X63052380Y-102280952D01*
X63052380Y-102090476D01*
X63004761Y-101995238D01*
X62909523Y-101947619D01*
X62528571Y-101947619D01*
X62433333Y-101995238D01*
X62385714Y-102090476D01*
X62385714Y-102280952D01*
X62433333Y-102376190D01*
X62528571Y-102423809D01*
X62623809Y-102423809D01*
X62719047Y-101947619D01*
X63052380Y-102852380D02*
X62385714Y-102852380D01*
X62480952Y-102852380D02*
X62433333Y-102900000D01*
X62385714Y-102995238D01*
X62385714Y-103138095D01*
X62433333Y-103233333D01*
X62528571Y-103280952D01*
X63052380Y-103280952D01*
X62528571Y-103280952D02*
X62433333Y-103328571D01*
X62385714Y-103423809D01*
X62385714Y-103566666D01*
X62433333Y-103661904D01*
X62528571Y-103709523D01*
X63052380Y-103709523D01*
X62385714Y-104185714D02*
X63385714Y-104185714D01*
X62433333Y-104185714D02*
X62385714Y-104280952D01*
X62385714Y-104471428D01*
X62433333Y-104566666D01*
X62480952Y-104614285D01*
X62576190Y-104661904D01*
X62861904Y-104661904D01*
X62957142Y-104614285D01*
X63004761Y-104566666D01*
X63052380Y-104471428D01*
X63052380Y-104280952D01*
X63004761Y-104185714D01*
X62385714Y-105519047D02*
X63052380Y-105519047D01*
X62004761Y-105280952D02*
X62719047Y-105042857D01*
X62719047Y-105661904D01*
D11*
X96471428Y-121656071D02*
X96471428Y-120156071D01*
X96114285Y-120156071D01*
X95900000Y-120227500D01*
X95757142Y-120370357D01*
X95685714Y-120513214D01*
X95614285Y-120798928D01*
X95614285Y-121013214D01*
X95685714Y-121298928D01*
X95757142Y-121441785D01*
X95900000Y-121584642D01*
X96114285Y-121656071D01*
X96471428Y-121656071D01*
X94400000Y-121584642D02*
X94542857Y-121656071D01*
X94828571Y-121656071D01*
X94971428Y-121584642D01*
X95042857Y-121441785D01*
X95042857Y-120870357D01*
X94971428Y-120727500D01*
X94828571Y-120656071D01*
X94542857Y-120656071D01*
X94400000Y-120727500D01*
X94328571Y-120870357D01*
X94328571Y-121013214D01*
X95042857Y-121156071D01*
X93757142Y-121584642D02*
X93614285Y-121656071D01*
X93328571Y-121656071D01*
X93185714Y-121584642D01*
X93114285Y-121441785D01*
X93114285Y-121370357D01*
X93185714Y-121227500D01*
X93328571Y-121156071D01*
X93542857Y-121156071D01*
X93685714Y-121084642D01*
X93757142Y-120941785D01*
X93757142Y-120870357D01*
X93685714Y-120727500D01*
X93542857Y-120656071D01*
X93328571Y-120656071D01*
X93185714Y-120727500D01*
X92471428Y-121656071D02*
X92471428Y-120656071D01*
X92471428Y-120156071D02*
X92542857Y-120227500D01*
X92471428Y-120298928D01*
X92400000Y-120227500D01*
X92471428Y-120156071D01*
X92471428Y-120298928D01*
X91114285Y-120656071D02*
X91114285Y-121870357D01*
X91185714Y-122013214D01*
X91257142Y-122084642D01*
X91400000Y-122156071D01*
X91614285Y-122156071D01*
X91757142Y-122084642D01*
X91114285Y-121584642D02*
X91257142Y-121656071D01*
X91542857Y-121656071D01*
X91685714Y-121584642D01*
X91757142Y-121513214D01*
X91828571Y-121370357D01*
X91828571Y-120941785D01*
X91757142Y-120798928D01*
X91685714Y-120727500D01*
X91542857Y-120656071D01*
X91257142Y-120656071D01*
X91114285Y-120727500D01*
X90400000Y-120656071D02*
X90400000Y-121656071D01*
X90400000Y-120798928D02*
X90328571Y-120727500D01*
X90185714Y-120656071D01*
X89971428Y-120656071D01*
X89828571Y-120727500D01*
X89757142Y-120870357D01*
X89757142Y-121656071D01*
X88471428Y-121584642D02*
X88614285Y-121656071D01*
X88900000Y-121656071D01*
X89042857Y-121584642D01*
X89114285Y-121441785D01*
X89114285Y-120870357D01*
X89042857Y-120727500D01*
X88900000Y-120656071D01*
X88614285Y-120656071D01*
X88471428Y-120727500D01*
X88400000Y-120870357D01*
X88400000Y-121013214D01*
X89114285Y-121156071D01*
X87114285Y-121656071D02*
X87114285Y-120156071D01*
X87114285Y-121584642D02*
X87257142Y-121656071D01*
X87542857Y-121656071D01*
X87685714Y-121584642D01*
X87757142Y-121513214D01*
X87828571Y-121370357D01*
X87828571Y-120941785D01*
X87757142Y-120798928D01*
X87685714Y-120727500D01*
X87542857Y-120656071D01*
X87257142Y-120656071D01*
X87114285Y-120727500D01*
X85257142Y-121656071D02*
X85257142Y-120156071D01*
X85257142Y-120727500D02*
X85114285Y-120656071D01*
X84828571Y-120656071D01*
X84685714Y-120727500D01*
X84614285Y-120798928D01*
X84542857Y-120941785D01*
X84542857Y-121370357D01*
X84614285Y-121513214D01*
X84685714Y-121584642D01*
X84828571Y-121656071D01*
X85114285Y-121656071D01*
X85257142Y-121584642D01*
X84042857Y-120656071D02*
X83685714Y-121656071D01*
X83328571Y-120656071D02*
X83685714Y-121656071D01*
X83828571Y-122013214D01*
X83900000Y-122084642D01*
X84042857Y-122156071D01*
X97400000Y-123999642D02*
X97185714Y-124071071D01*
X96828571Y-124071071D01*
X96685714Y-123999642D01*
X96614285Y-123928214D01*
X96542857Y-123785357D01*
X96542857Y-123642500D01*
X96614285Y-123499642D01*
X96685714Y-123428214D01*
X96828571Y-123356785D01*
X97114285Y-123285357D01*
X97257142Y-123213928D01*
X97328571Y-123142500D01*
X97400000Y-122999642D01*
X97400000Y-122856785D01*
X97328571Y-122713928D01*
X97257142Y-122642500D01*
X97114285Y-122571071D01*
X96757142Y-122571071D01*
X96542857Y-122642500D01*
X95328571Y-123999642D02*
X95471428Y-124071071D01*
X95757142Y-124071071D01*
X95900000Y-123999642D01*
X95971428Y-123856785D01*
X95971428Y-123285357D01*
X95900000Y-123142500D01*
X95757142Y-123071071D01*
X95471428Y-123071071D01*
X95328571Y-123142500D01*
X95257142Y-123285357D01*
X95257142Y-123428214D01*
X95971428Y-123571071D01*
X94614285Y-124071071D02*
X94614285Y-122571071D01*
X94614285Y-123142500D02*
X94471428Y-123071071D01*
X94185714Y-123071071D01*
X94042857Y-123142500D01*
X93971428Y-123213928D01*
X93900000Y-123356785D01*
X93900000Y-123785357D01*
X93971428Y-123928214D01*
X94042857Y-123999642D01*
X94185714Y-124071071D01*
X94471428Y-124071071D01*
X94614285Y-123999642D01*
X93042857Y-124071071D02*
X93185714Y-123999642D01*
X93257142Y-123928214D01*
X93328571Y-123785357D01*
X93328571Y-123356785D01*
X93257142Y-123213928D01*
X93185714Y-123142500D01*
X93042857Y-123071071D01*
X92828571Y-123071071D01*
X92685714Y-123142500D01*
X92614285Y-123213928D01*
X92542857Y-123356785D01*
X92542857Y-123785357D01*
X92614285Y-123928214D01*
X92685714Y-123999642D01*
X92828571Y-124071071D01*
X93042857Y-124071071D01*
X91257142Y-123071071D02*
X91257142Y-124071071D01*
X91900000Y-123071071D02*
X91900000Y-123856785D01*
X91828571Y-123999642D01*
X91685714Y-124071071D01*
X91471428Y-124071071D01*
X91328571Y-123999642D01*
X91257142Y-123928214D01*
X90542857Y-124071071D02*
X90542857Y-122571071D01*
X89900000Y-124071071D02*
X89900000Y-123285357D01*
X89971428Y-123142500D01*
X90114285Y-123071071D01*
X90328571Y-123071071D01*
X90471428Y-123142500D01*
X90542857Y-123213928D01*
X87614285Y-122571071D02*
X87614285Y-123642500D01*
X87685714Y-123856785D01*
X87828571Y-123999642D01*
X88042857Y-124071071D01*
X88185714Y-124071071D01*
X85757142Y-124071071D02*
X85757142Y-122571071D01*
X85185714Y-122571071D01*
X85042857Y-122642500D01*
X84971428Y-122713928D01*
X84900000Y-122856785D01*
X84900000Y-123071071D01*
X84971428Y-123213928D01*
X85042857Y-123285357D01*
X85185714Y-123356785D01*
X85757142Y-123356785D01*
X83614285Y-124071071D02*
X83614285Y-123285357D01*
X83685714Y-123142500D01*
X83828571Y-123071071D01*
X84114285Y-123071071D01*
X84257142Y-123142500D01*
X83614285Y-123999642D02*
X83757142Y-124071071D01*
X84114285Y-124071071D01*
X84257142Y-123999642D01*
X84328571Y-123856785D01*
X84328571Y-123713928D01*
X84257142Y-123571071D01*
X84114285Y-123499642D01*
X83757142Y-123499642D01*
X83614285Y-123428214D01*
X82257142Y-123071071D02*
X82257142Y-124071071D01*
X82900000Y-123071071D02*
X82900000Y-123856785D01*
X82828571Y-123999642D01*
X82685714Y-124071071D01*
X82471428Y-124071071D01*
X82328571Y-123999642D01*
X82257142Y-123928214D01*
X81328571Y-124071071D02*
X81471428Y-123999642D01*
X81542857Y-123856785D01*
X81542857Y-122571071D01*
X94614285Y-127401071D02*
X94114285Y-128901071D01*
X93614285Y-127401071D01*
X92542857Y-128829642D02*
X92685714Y-128901071D01*
X92971428Y-128901071D01*
X93114285Y-128829642D01*
X93185714Y-128686785D01*
X93185714Y-128115357D01*
X93114285Y-127972500D01*
X92971428Y-127901071D01*
X92685714Y-127901071D01*
X92542857Y-127972500D01*
X92471428Y-128115357D01*
X92471428Y-128258214D01*
X93185714Y-128401071D01*
X91828571Y-128901071D02*
X91828571Y-127901071D01*
X91828571Y-128186785D02*
X91757142Y-128043928D01*
X91685714Y-127972500D01*
X91542857Y-127901071D01*
X91400000Y-127901071D01*
X90971428Y-128829642D02*
X90828571Y-128901071D01*
X90542857Y-128901071D01*
X90400000Y-128829642D01*
X90328571Y-128686785D01*
X90328571Y-128615357D01*
X90400000Y-128472500D01*
X90542857Y-128401071D01*
X90757142Y-128401071D01*
X90900000Y-128329642D01*
X90971428Y-128186785D01*
X90971428Y-128115357D01*
X90900000Y-127972500D01*
X90757142Y-127901071D01*
X90542857Y-127901071D01*
X90400000Y-127972500D01*
X89685714Y-128901071D02*
X89685714Y-127901071D01*
X89685714Y-127401071D02*
X89757142Y-127472500D01*
X89685714Y-127543928D01*
X89614285Y-127472500D01*
X89685714Y-127401071D01*
X89685714Y-127543928D01*
X88757142Y-128901071D02*
X88900000Y-128829642D01*
X88971428Y-128758214D01*
X89042857Y-128615357D01*
X89042857Y-128186785D01*
X88971428Y-128043928D01*
X88900000Y-127972500D01*
X88757142Y-127901071D01*
X88542857Y-127901071D01*
X88400000Y-127972500D01*
X88328571Y-128043928D01*
X88257142Y-128186785D01*
X88257142Y-128615357D01*
X88328571Y-128758214D01*
X88400000Y-128829642D01*
X88542857Y-128901071D01*
X88757142Y-128901071D01*
X87614285Y-127901071D02*
X87614285Y-128901071D01*
X87614285Y-128043928D02*
X87542857Y-127972500D01*
X87400000Y-127901071D01*
X87185714Y-127901071D01*
X87042857Y-127972500D01*
X86971428Y-128115357D01*
X86971428Y-128901071D01*
X84400000Y-127401071D02*
X85114285Y-127401071D01*
X85185714Y-128115357D01*
X85114285Y-128043928D01*
X84971428Y-127972500D01*
X84614285Y-127972500D01*
X84471428Y-128043928D01*
X84400000Y-128115357D01*
X84328571Y-128258214D01*
X84328571Y-128615357D01*
X84400000Y-128758214D01*
X84471428Y-128829642D01*
X84614285Y-128901071D01*
X84971428Y-128901071D01*
X85114285Y-128829642D01*
X85185714Y-128758214D01*
D10*
X62052380Y-63833331D02*
X62052380Y-64404759D01*
X63052380Y-64119045D02*
X62052380Y-64119045D01*
X63004761Y-65119045D02*
X63052380Y-65023807D01*
X63052380Y-64833331D01*
X63004761Y-64738093D01*
X62909523Y-64690474D01*
X62528571Y-64690474D01*
X62433333Y-64738093D01*
X62385714Y-64833331D01*
X62385714Y-65023807D01*
X62433333Y-65119045D01*
X62528571Y-65166664D01*
X62623809Y-65166664D01*
X62719047Y-64690474D01*
X63052380Y-65595235D02*
X62385714Y-65595235D01*
X62480952Y-65595235D02*
X62433333Y-65642855D01*
X62385714Y-65738093D01*
X62385714Y-65880950D01*
X62433333Y-65976188D01*
X62528571Y-66023807D01*
X63052380Y-66023807D01*
X62528571Y-66023807D02*
X62433333Y-66071426D01*
X62385714Y-66166664D01*
X62385714Y-66309521D01*
X62433333Y-66404759D01*
X62528571Y-66452378D01*
X63052380Y-66452378D01*
X62385714Y-66928569D02*
X63385714Y-66928569D01*
X62433333Y-66928569D02*
X62385714Y-67023807D01*
X62385714Y-67214283D01*
X62433333Y-67309521D01*
X62480952Y-67357140D01*
X62576190Y-67404759D01*
X62861904Y-67404759D01*
X62957142Y-67357140D01*
X63004761Y-67309521D01*
X63052380Y-67214283D01*
X63052380Y-67023807D01*
X63004761Y-66928569D01*
X62147619Y-67785712D02*
X62100000Y-67833331D01*
X62052380Y-67928569D01*
X62052380Y-68166664D01*
X62100000Y-68261902D01*
X62147619Y-68309521D01*
X62242857Y-68357140D01*
X62338095Y-68357140D01*
X62480952Y-68309521D01*
X63052380Y-67738093D01*
X63052380Y-68357140D01*
X62052380Y-45204761D02*
X62052380Y-45776189D01*
X63052380Y-45490475D02*
X62052380Y-45490475D01*
X63004761Y-46490475D02*
X63052380Y-46395237D01*
X63052380Y-46204761D01*
X63004761Y-46109523D01*
X62909523Y-46061904D01*
X62528571Y-46061904D01*
X62433333Y-46109523D01*
X62385714Y-46204761D01*
X62385714Y-46395237D01*
X62433333Y-46490475D01*
X62528571Y-46538094D01*
X62623809Y-46538094D01*
X62719047Y-46061904D01*
X63052380Y-46966665D02*
X62385714Y-46966665D01*
X62480952Y-46966665D02*
X62433333Y-47014285D01*
X62385714Y-47109523D01*
X62385714Y-47252380D01*
X62433333Y-47347618D01*
X62528571Y-47395237D01*
X63052380Y-47395237D01*
X62528571Y-47395237D02*
X62433333Y-47442856D01*
X62385714Y-47538094D01*
X62385714Y-47680951D01*
X62433333Y-47776189D01*
X62528571Y-47823808D01*
X63052380Y-47823808D01*
X62385714Y-48299999D02*
X63385714Y-48299999D01*
X62433333Y-48299999D02*
X62385714Y-48395237D01*
X62385714Y-48585713D01*
X62433333Y-48680951D01*
X62480952Y-48728570D01*
X62576190Y-48776189D01*
X62861904Y-48776189D01*
X62957142Y-48728570D01*
X63004761Y-48680951D01*
X63052380Y-48585713D01*
X63052380Y-48395237D01*
X63004761Y-48299999D01*
X63052380Y-49728570D02*
X63052380Y-49157142D01*
X63052380Y-49442856D02*
X62052380Y-49442856D01*
X62195238Y-49347618D01*
X62290476Y-49252380D01*
X62338095Y-49157142D01*
X62052380Y-82461901D02*
X62052380Y-83033329D01*
X63052380Y-82747615D02*
X62052380Y-82747615D01*
X63004761Y-83747615D02*
X63052380Y-83652377D01*
X63052380Y-83461901D01*
X63004761Y-83366663D01*
X62909523Y-83319044D01*
X62528571Y-83319044D01*
X62433333Y-83366663D01*
X62385714Y-83461901D01*
X62385714Y-83652377D01*
X62433333Y-83747615D01*
X62528571Y-83795234D01*
X62623809Y-83795234D01*
X62719047Y-83319044D01*
X63052380Y-84223805D02*
X62385714Y-84223805D01*
X62480952Y-84223805D02*
X62433333Y-84271425D01*
X62385714Y-84366663D01*
X62385714Y-84509520D01*
X62433333Y-84604758D01*
X62528571Y-84652377D01*
X63052380Y-84652377D01*
X62528571Y-84652377D02*
X62433333Y-84699996D01*
X62385714Y-84795234D01*
X62385714Y-84938091D01*
X62433333Y-85033329D01*
X62528571Y-85080948D01*
X63052380Y-85080948D01*
X62385714Y-85557139D02*
X63385714Y-85557139D01*
X62433333Y-85557139D02*
X62385714Y-85652377D01*
X62385714Y-85842853D01*
X62433333Y-85938091D01*
X62480952Y-85985710D01*
X62576190Y-86033329D01*
X62861904Y-86033329D01*
X62957142Y-85985710D01*
X63004761Y-85938091D01*
X63052380Y-85842853D01*
X63052380Y-85652377D01*
X63004761Y-85557139D01*
X62052380Y-86366663D02*
X62052380Y-86985710D01*
X62433333Y-86652377D01*
X62433333Y-86795234D01*
X62480952Y-86890472D01*
X62528571Y-86938091D01*
X62623809Y-86985710D01*
X62861904Y-86985710D01*
X62957142Y-86938091D01*
X63004761Y-86890472D01*
X63052380Y-86795234D01*
X63052380Y-86509520D01*
X63004761Y-86414282D01*
X62957142Y-86366663D01*
%TO.C,REF\u002A\u002A*%
X59702480Y-100819166D02*
X59226290Y-100485833D01*
X59702480Y-100247738D02*
X58702480Y-100247738D01*
X58702480Y-100628690D01*
X58750100Y-100723928D01*
X58797719Y-100771547D01*
X58892957Y-100819166D01*
X59035814Y-100819166D01*
X59131052Y-100771547D01*
X59178671Y-100723928D01*
X59226290Y-100628690D01*
X59226290Y-100247738D01*
X59178671Y-101247738D02*
X59178671Y-101581071D01*
X59702480Y-101723928D02*
X59702480Y-101247738D01*
X58702480Y-101247738D01*
X58702480Y-101723928D01*
X59178671Y-102485833D02*
X59178671Y-102152500D01*
X59702480Y-102152500D02*
X58702480Y-102152500D01*
X58702480Y-102628690D01*
X58702480Y-103152500D02*
X58940576Y-103152500D01*
X58845338Y-102914404D02*
X58940576Y-103152500D01*
X58845338Y-103390595D01*
X59131052Y-103009642D02*
X58940576Y-103152500D01*
X59131052Y-103295357D01*
X58702480Y-103914404D02*
X58940576Y-103914404D01*
X58845338Y-103676309D02*
X58940576Y-103914404D01*
X58845338Y-104152500D01*
X59131052Y-103771547D02*
X58940576Y-103914404D01*
X59131052Y-104057261D01*
X59607242Y-93747738D02*
X59654861Y-93700119D01*
X59702480Y-93557261D01*
X59702480Y-93462023D01*
X59654861Y-93319166D01*
X59559623Y-93223928D01*
X59464385Y-93176309D01*
X59273909Y-93128690D01*
X59131052Y-93128690D01*
X58940576Y-93176309D01*
X58845338Y-93223928D01*
X58750100Y-93319166D01*
X58702480Y-93462023D01*
X58702480Y-93557261D01*
X58750100Y-93700119D01*
X58797719Y-93747738D01*
X58702480Y-94366785D02*
X58702480Y-94557261D01*
X58750100Y-94652500D01*
X58845338Y-94747738D01*
X59035814Y-94795357D01*
X59369147Y-94795357D01*
X59559623Y-94747738D01*
X59654861Y-94652500D01*
X59702480Y-94557261D01*
X59702480Y-94366785D01*
X59654861Y-94271547D01*
X59559623Y-94176309D01*
X59369147Y-94128690D01*
X59035814Y-94128690D01*
X58845338Y-94176309D01*
X58750100Y-94271547D01*
X58702480Y-94366785D01*
X59702480Y-95223928D02*
X58702480Y-95223928D01*
X59702480Y-95795357D01*
X58702480Y-95795357D01*
X59702480Y-96271547D02*
X58702480Y-96271547D01*
X59702480Y-96842976D01*
X58702480Y-96842976D01*
X59797719Y-97081071D02*
X59797719Y-97842976D01*
X58702480Y-97985833D02*
X58702480Y-98604880D01*
X59083433Y-98271547D01*
X59083433Y-98414404D01*
X59131052Y-98509642D01*
X59178671Y-98557261D01*
X59273909Y-98604880D01*
X59512004Y-98604880D01*
X59607242Y-98557261D01*
X59654861Y-98509642D01*
X59702480Y-98414404D01*
X59702480Y-98128690D01*
X59654861Y-98033452D01*
X59607242Y-97985833D01*
X59321528Y-99033452D02*
X59321528Y-99795357D01*
X59702480Y-100795357D02*
X59702480Y-100223928D01*
X59702480Y-100509642D02*
X58702480Y-100509642D01*
X58845338Y-100414404D01*
X58940576Y-100319166D01*
X58988195Y-100223928D01*
X58702480Y-101414404D02*
X58702480Y-101509642D01*
X58750100Y-101604880D01*
X58797719Y-101652500D01*
X58892957Y-101700119D01*
X59083433Y-101747738D01*
X59321528Y-101747738D01*
X59512004Y-101700119D01*
X59607242Y-101652500D01*
X59654861Y-101604880D01*
X59702480Y-101509642D01*
X59702480Y-101414404D01*
X59654861Y-101319166D01*
X59607242Y-101271547D01*
X59512004Y-101223928D01*
X59321528Y-101176309D01*
X59083433Y-101176309D01*
X58892957Y-101223928D01*
X58797719Y-101271547D01*
X58750100Y-101319166D01*
X58702480Y-101414404D01*
X58797719Y-102128690D02*
X58750100Y-102176309D01*
X58702480Y-102271547D01*
X58702480Y-102509642D01*
X58750100Y-102604880D01*
X58797719Y-102652500D01*
X58892957Y-102700119D01*
X58988195Y-102700119D01*
X59131052Y-102652500D01*
X59702480Y-102081071D01*
X59702480Y-102700119D01*
X58797719Y-103081071D02*
X58750100Y-103128690D01*
X58702480Y-103223928D01*
X58702480Y-103462023D01*
X58750100Y-103557261D01*
X58797719Y-103604880D01*
X58892957Y-103652500D01*
X58988195Y-103652500D01*
X59131052Y-103604880D01*
X59702480Y-103033452D01*
X59702480Y-103652500D01*
X58702480Y-104271547D02*
X58702480Y-104366785D01*
X58750100Y-104462023D01*
X58797719Y-104509642D01*
X58892957Y-104557261D01*
X59083433Y-104604880D01*
X59321528Y-104604880D01*
X59512004Y-104557261D01*
X59607242Y-104509642D01*
X59654861Y-104462023D01*
X59702480Y-104366785D01*
X59702480Y-104271547D01*
X59654861Y-104176309D01*
X59607242Y-104128690D01*
X59512004Y-104081071D01*
X59321528Y-104033452D01*
X59083433Y-104033452D01*
X58892957Y-104081071D01*
X58797719Y-104128690D01*
X58750100Y-104176309D01*
X58702480Y-104271547D01*
X58702480Y-104938214D02*
X58702480Y-105557261D01*
X59083433Y-105223928D01*
X59083433Y-105366785D01*
X59131052Y-105462023D01*
X59178671Y-105509642D01*
X59273909Y-105557261D01*
X59512004Y-105557261D01*
X59607242Y-105509642D01*
X59654861Y-105462023D01*
X59702480Y-105366785D01*
X59702480Y-105081071D01*
X59654861Y-104985833D01*
X59607242Y-104938214D01*
X59321528Y-105985833D02*
X59321528Y-106747738D01*
X59035814Y-107652500D02*
X59702480Y-107652500D01*
X58654861Y-107414404D02*
X59369147Y-107176309D01*
X59369147Y-107795357D01*
X59797719Y-107938214D02*
X59797719Y-108700119D01*
X58702480Y-108795357D02*
X58702480Y-109366785D01*
X59702480Y-109081071D02*
X58702480Y-109081071D01*
X59178671Y-109700119D02*
X59178671Y-110033452D01*
X59702480Y-110176309D02*
X59702480Y-109700119D01*
X58702480Y-109700119D01*
X58702480Y-110176309D01*
X59607242Y-111176309D02*
X59654861Y-111128690D01*
X59702480Y-110985833D01*
X59702480Y-110890595D01*
X59654861Y-110747738D01*
X59559623Y-110652500D01*
X59464385Y-110604880D01*
X59273909Y-110557261D01*
X59131052Y-110557261D01*
X58940576Y-110604880D01*
X58845338Y-110652500D01*
X58750100Y-110747738D01*
X58702480Y-110890595D01*
X58702480Y-110985833D01*
X58750100Y-111128690D01*
X58797719Y-111176309D01*
X58702480Y-99612500D02*
X58940576Y-99612500D01*
X58845338Y-99374404D02*
X58940576Y-99612500D01*
X58845338Y-99850595D01*
X59131052Y-99469642D02*
X58940576Y-99612500D01*
X59131052Y-99755357D01*
X59702480Y-64419166D02*
X59226290Y-64085833D01*
X59702480Y-63847738D02*
X58702480Y-63847738D01*
X58702480Y-64228690D01*
X58750100Y-64323928D01*
X58797719Y-64371547D01*
X58892957Y-64419166D01*
X59035814Y-64419166D01*
X59131052Y-64371547D01*
X59178671Y-64323928D01*
X59226290Y-64228690D01*
X59226290Y-63847738D01*
X59178671Y-64847738D02*
X59178671Y-65181071D01*
X59702480Y-65323928D02*
X59702480Y-64847738D01*
X58702480Y-64847738D01*
X58702480Y-65323928D01*
X59178671Y-66085833D02*
X59178671Y-65752500D01*
X59702480Y-65752500D02*
X58702480Y-65752500D01*
X58702480Y-66228690D01*
X58702480Y-66752500D02*
X58940576Y-66752500D01*
X58845338Y-66514404D02*
X58940576Y-66752500D01*
X58845338Y-66990595D01*
X59131052Y-66609642D02*
X58940576Y-66752500D01*
X59131052Y-66895357D01*
X58702480Y-67514404D02*
X58940576Y-67514404D01*
X58845338Y-67276309D02*
X58940576Y-67514404D01*
X58845338Y-67752500D01*
X59131052Y-67371547D02*
X58940576Y-67514404D01*
X59131052Y-67657261D01*
X59607242Y-57347738D02*
X59654861Y-57300119D01*
X59702480Y-57157261D01*
X59702480Y-57062023D01*
X59654861Y-56919166D01*
X59559623Y-56823928D01*
X59464385Y-56776309D01*
X59273909Y-56728690D01*
X59131052Y-56728690D01*
X58940576Y-56776309D01*
X58845338Y-56823928D01*
X58750100Y-56919166D01*
X58702480Y-57062023D01*
X58702480Y-57157261D01*
X58750100Y-57300119D01*
X58797719Y-57347738D01*
X58702480Y-57966785D02*
X58702480Y-58157261D01*
X58750100Y-58252500D01*
X58845338Y-58347738D01*
X59035814Y-58395357D01*
X59369147Y-58395357D01*
X59559623Y-58347738D01*
X59654861Y-58252500D01*
X59702480Y-58157261D01*
X59702480Y-57966785D01*
X59654861Y-57871547D01*
X59559623Y-57776309D01*
X59369147Y-57728690D01*
X59035814Y-57728690D01*
X58845338Y-57776309D01*
X58750100Y-57871547D01*
X58702480Y-57966785D01*
X59702480Y-58823928D02*
X58702480Y-58823928D01*
X59702480Y-59395357D01*
X58702480Y-59395357D01*
X59702480Y-59871547D02*
X58702480Y-59871547D01*
X59702480Y-60442976D01*
X58702480Y-60442976D01*
X59797719Y-60681071D02*
X59797719Y-61442976D01*
X58702480Y-61585833D02*
X58702480Y-62204880D01*
X59083433Y-61871547D01*
X59083433Y-62014404D01*
X59131052Y-62109642D01*
X59178671Y-62157261D01*
X59273909Y-62204880D01*
X59512004Y-62204880D01*
X59607242Y-62157261D01*
X59654861Y-62109642D01*
X59702480Y-62014404D01*
X59702480Y-61728690D01*
X59654861Y-61633452D01*
X59607242Y-61585833D01*
X59321528Y-62633452D02*
X59321528Y-63395357D01*
X59702480Y-64395357D02*
X59702480Y-63823928D01*
X59702480Y-64109642D02*
X58702480Y-64109642D01*
X58845338Y-64014404D01*
X58940576Y-63919166D01*
X58988195Y-63823928D01*
X58702480Y-65014404D02*
X58702480Y-65109642D01*
X58750100Y-65204880D01*
X58797719Y-65252500D01*
X58892957Y-65300119D01*
X59083433Y-65347738D01*
X59321528Y-65347738D01*
X59512004Y-65300119D01*
X59607242Y-65252500D01*
X59654861Y-65204880D01*
X59702480Y-65109642D01*
X59702480Y-65014404D01*
X59654861Y-64919166D01*
X59607242Y-64871547D01*
X59512004Y-64823928D01*
X59321528Y-64776309D01*
X59083433Y-64776309D01*
X58892957Y-64823928D01*
X58797719Y-64871547D01*
X58750100Y-64919166D01*
X58702480Y-65014404D01*
X58797719Y-65728690D02*
X58750100Y-65776309D01*
X58702480Y-65871547D01*
X58702480Y-66109642D01*
X58750100Y-66204880D01*
X58797719Y-66252500D01*
X58892957Y-66300119D01*
X58988195Y-66300119D01*
X59131052Y-66252500D01*
X59702480Y-65681071D01*
X59702480Y-66300119D01*
X58797719Y-66681071D02*
X58750100Y-66728690D01*
X58702480Y-66823928D01*
X58702480Y-67062023D01*
X58750100Y-67157261D01*
X58797719Y-67204880D01*
X58892957Y-67252500D01*
X58988195Y-67252500D01*
X59131052Y-67204880D01*
X59702480Y-66633452D01*
X59702480Y-67252500D01*
X58702480Y-67871547D02*
X58702480Y-67966785D01*
X58750100Y-68062023D01*
X58797719Y-68109642D01*
X58892957Y-68157261D01*
X59083433Y-68204880D01*
X59321528Y-68204880D01*
X59512004Y-68157261D01*
X59607242Y-68109642D01*
X59654861Y-68062023D01*
X59702480Y-67966785D01*
X59702480Y-67871547D01*
X59654861Y-67776309D01*
X59607242Y-67728690D01*
X59512004Y-67681071D01*
X59321528Y-67633452D01*
X59083433Y-67633452D01*
X58892957Y-67681071D01*
X58797719Y-67728690D01*
X58750100Y-67776309D01*
X58702480Y-67871547D01*
X58702480Y-68538214D02*
X58702480Y-69157261D01*
X59083433Y-68823928D01*
X59083433Y-68966785D01*
X59131052Y-69062023D01*
X59178671Y-69109642D01*
X59273909Y-69157261D01*
X59512004Y-69157261D01*
X59607242Y-69109642D01*
X59654861Y-69062023D01*
X59702480Y-68966785D01*
X59702480Y-68681071D01*
X59654861Y-68585833D01*
X59607242Y-68538214D01*
X59321528Y-69585833D02*
X59321528Y-70347738D01*
X59035814Y-71252500D02*
X59702480Y-71252500D01*
X58654861Y-71014404D02*
X59369147Y-70776309D01*
X59369147Y-71395357D01*
X59797719Y-71538214D02*
X59797719Y-72300119D01*
X58702480Y-72395357D02*
X58702480Y-72966785D01*
X59702480Y-72681071D02*
X58702480Y-72681071D01*
X59178671Y-73300119D02*
X59178671Y-73633452D01*
X59702480Y-73776309D02*
X59702480Y-73300119D01*
X58702480Y-73300119D01*
X58702480Y-73776309D01*
X59607242Y-74776309D02*
X59654861Y-74728690D01*
X59702480Y-74585833D01*
X59702480Y-74490595D01*
X59654861Y-74347738D01*
X59559623Y-74252500D01*
X59464385Y-74204880D01*
X59273909Y-74157261D01*
X59131052Y-74157261D01*
X58940576Y-74204880D01*
X58845338Y-74252500D01*
X58750100Y-74347738D01*
X58702480Y-74490595D01*
X58702480Y-74585833D01*
X58750100Y-74728690D01*
X58797719Y-74776309D01*
X58702480Y-63212500D02*
X58940576Y-63212500D01*
X58845338Y-62974404D02*
X58940576Y-63212500D01*
X58845338Y-63450595D01*
X59131052Y-63069642D02*
X58940576Y-63212500D01*
X59131052Y-63355357D01*
X59652380Y-82606666D02*
X59176190Y-82273333D01*
X59652380Y-82035238D02*
X58652380Y-82035238D01*
X58652380Y-82416190D01*
X58700000Y-82511428D01*
X58747619Y-82559047D01*
X58842857Y-82606666D01*
X58985714Y-82606666D01*
X59080952Y-82559047D01*
X59128571Y-82511428D01*
X59176190Y-82416190D01*
X59176190Y-82035238D01*
X59128571Y-83035238D02*
X59128571Y-83368571D01*
X59652380Y-83511428D02*
X59652380Y-83035238D01*
X58652380Y-83035238D01*
X58652380Y-83511428D01*
X59128571Y-84273333D02*
X59128571Y-83940000D01*
X59652380Y-83940000D02*
X58652380Y-83940000D01*
X58652380Y-84416190D01*
X58652380Y-84940000D02*
X58890476Y-84940000D01*
X58795238Y-84701904D02*
X58890476Y-84940000D01*
X58795238Y-85178095D01*
X59080952Y-84797142D02*
X58890476Y-84940000D01*
X59080952Y-85082857D01*
X58652380Y-85701904D02*
X58890476Y-85701904D01*
X58795238Y-85463809D02*
X58890476Y-85701904D01*
X58795238Y-85940000D01*
X59080952Y-85559047D02*
X58890476Y-85701904D01*
X59080952Y-85844761D01*
X59557142Y-75535238D02*
X59604761Y-75487619D01*
X59652380Y-75344761D01*
X59652380Y-75249523D01*
X59604761Y-75106666D01*
X59509523Y-75011428D01*
X59414285Y-74963809D01*
X59223809Y-74916190D01*
X59080952Y-74916190D01*
X58890476Y-74963809D01*
X58795238Y-75011428D01*
X58700000Y-75106666D01*
X58652380Y-75249523D01*
X58652380Y-75344761D01*
X58700000Y-75487619D01*
X58747619Y-75535238D01*
X58652380Y-76154285D02*
X58652380Y-76344761D01*
X58700000Y-76440000D01*
X58795238Y-76535238D01*
X58985714Y-76582857D01*
X59319047Y-76582857D01*
X59509523Y-76535238D01*
X59604761Y-76440000D01*
X59652380Y-76344761D01*
X59652380Y-76154285D01*
X59604761Y-76059047D01*
X59509523Y-75963809D01*
X59319047Y-75916190D01*
X58985714Y-75916190D01*
X58795238Y-75963809D01*
X58700000Y-76059047D01*
X58652380Y-76154285D01*
X59652380Y-77011428D02*
X58652380Y-77011428D01*
X59652380Y-77582857D01*
X58652380Y-77582857D01*
X59652380Y-78059047D02*
X58652380Y-78059047D01*
X59652380Y-78630476D01*
X58652380Y-78630476D01*
X59747619Y-78868571D02*
X59747619Y-79630476D01*
X58652380Y-79773333D02*
X58652380Y-80392380D01*
X59033333Y-80059047D01*
X59033333Y-80201904D01*
X59080952Y-80297142D01*
X59128571Y-80344761D01*
X59223809Y-80392380D01*
X59461904Y-80392380D01*
X59557142Y-80344761D01*
X59604761Y-80297142D01*
X59652380Y-80201904D01*
X59652380Y-79916190D01*
X59604761Y-79820952D01*
X59557142Y-79773333D01*
X59271428Y-80820952D02*
X59271428Y-81582857D01*
X59652380Y-82582857D02*
X59652380Y-82011428D01*
X59652380Y-82297142D02*
X58652380Y-82297142D01*
X58795238Y-82201904D01*
X58890476Y-82106666D01*
X58938095Y-82011428D01*
X58652380Y-83201904D02*
X58652380Y-83297142D01*
X58700000Y-83392380D01*
X58747619Y-83440000D01*
X58842857Y-83487619D01*
X59033333Y-83535238D01*
X59271428Y-83535238D01*
X59461904Y-83487619D01*
X59557142Y-83440000D01*
X59604761Y-83392380D01*
X59652380Y-83297142D01*
X59652380Y-83201904D01*
X59604761Y-83106666D01*
X59557142Y-83059047D01*
X59461904Y-83011428D01*
X59271428Y-82963809D01*
X59033333Y-82963809D01*
X58842857Y-83011428D01*
X58747619Y-83059047D01*
X58700000Y-83106666D01*
X58652380Y-83201904D01*
X58747619Y-83916190D02*
X58700000Y-83963809D01*
X58652380Y-84059047D01*
X58652380Y-84297142D01*
X58700000Y-84392380D01*
X58747619Y-84440000D01*
X58842857Y-84487619D01*
X58938095Y-84487619D01*
X59080952Y-84440000D01*
X59652380Y-83868571D01*
X59652380Y-84487619D01*
X58747619Y-84868571D02*
X58700000Y-84916190D01*
X58652380Y-85011428D01*
X58652380Y-85249523D01*
X58700000Y-85344761D01*
X58747619Y-85392380D01*
X58842857Y-85440000D01*
X58938095Y-85440000D01*
X59080952Y-85392380D01*
X59652380Y-84820952D01*
X59652380Y-85440000D01*
X58652380Y-86059047D02*
X58652380Y-86154285D01*
X58700000Y-86249523D01*
X58747619Y-86297142D01*
X58842857Y-86344761D01*
X59033333Y-86392380D01*
X59271428Y-86392380D01*
X59461904Y-86344761D01*
X59557142Y-86297142D01*
X59604761Y-86249523D01*
X59652380Y-86154285D01*
X59652380Y-86059047D01*
X59604761Y-85963809D01*
X59557142Y-85916190D01*
X59461904Y-85868571D01*
X59271428Y-85820952D01*
X59033333Y-85820952D01*
X58842857Y-85868571D01*
X58747619Y-85916190D01*
X58700000Y-85963809D01*
X58652380Y-86059047D01*
X58652380Y-86725714D02*
X58652380Y-87344761D01*
X59033333Y-87011428D01*
X59033333Y-87154285D01*
X59080952Y-87249523D01*
X59128571Y-87297142D01*
X59223809Y-87344761D01*
X59461904Y-87344761D01*
X59557142Y-87297142D01*
X59604761Y-87249523D01*
X59652380Y-87154285D01*
X59652380Y-86868571D01*
X59604761Y-86773333D01*
X59557142Y-86725714D01*
X59271428Y-87773333D02*
X59271428Y-88535238D01*
X58985714Y-89440000D02*
X59652380Y-89440000D01*
X58604761Y-89201904D02*
X59319047Y-88963809D01*
X59319047Y-89582857D01*
X59747619Y-89725714D02*
X59747619Y-90487619D01*
X58652380Y-90582857D02*
X58652380Y-91154285D01*
X59652380Y-90868571D02*
X58652380Y-90868571D01*
X59128571Y-91487619D02*
X59128571Y-91820952D01*
X59652380Y-91963809D02*
X59652380Y-91487619D01*
X58652380Y-91487619D01*
X58652380Y-91963809D01*
X59557142Y-92963809D02*
X59604761Y-92916190D01*
X59652380Y-92773333D01*
X59652380Y-92678095D01*
X59604761Y-92535238D01*
X59509523Y-92440000D01*
X59414285Y-92392380D01*
X59223809Y-92344761D01*
X59080952Y-92344761D01*
X58890476Y-92392380D01*
X58795238Y-92440000D01*
X58700000Y-92535238D01*
X58652380Y-92678095D01*
X58652380Y-92773333D01*
X58700000Y-92916190D01*
X58747619Y-92963809D01*
X58652380Y-81400000D02*
X58890476Y-81400000D01*
X58795238Y-81161904D02*
X58890476Y-81400000D01*
X58795238Y-81638095D01*
X59080952Y-81257142D02*
X58890476Y-81400000D01*
X59080952Y-81542857D01*
X59702480Y-46419166D02*
X59226290Y-46085833D01*
X59702480Y-45847738D02*
X58702480Y-45847738D01*
X58702480Y-46228690D01*
X58750100Y-46323928D01*
X58797719Y-46371547D01*
X58892957Y-46419166D01*
X59035814Y-46419166D01*
X59131052Y-46371547D01*
X59178671Y-46323928D01*
X59226290Y-46228690D01*
X59226290Y-45847738D01*
X59178671Y-46847738D02*
X59178671Y-47181071D01*
X59702480Y-47323928D02*
X59702480Y-46847738D01*
X58702480Y-46847738D01*
X58702480Y-47323928D01*
X59178671Y-48085833D02*
X59178671Y-47752500D01*
X59702480Y-47752500D02*
X58702480Y-47752500D01*
X58702480Y-48228690D01*
X58702480Y-48752500D02*
X58940576Y-48752500D01*
X58845338Y-48514404D02*
X58940576Y-48752500D01*
X58845338Y-48990595D01*
X59131052Y-48609642D02*
X58940576Y-48752500D01*
X59131052Y-48895357D01*
X58702480Y-49514404D02*
X58940576Y-49514404D01*
X58845338Y-49276309D02*
X58940576Y-49514404D01*
X58845338Y-49752500D01*
X59131052Y-49371547D02*
X58940576Y-49514404D01*
X59131052Y-49657261D01*
X59607242Y-39347738D02*
X59654861Y-39300119D01*
X59702480Y-39157261D01*
X59702480Y-39062023D01*
X59654861Y-38919166D01*
X59559623Y-38823928D01*
X59464385Y-38776309D01*
X59273909Y-38728690D01*
X59131052Y-38728690D01*
X58940576Y-38776309D01*
X58845338Y-38823928D01*
X58750100Y-38919166D01*
X58702480Y-39062023D01*
X58702480Y-39157261D01*
X58750100Y-39300119D01*
X58797719Y-39347738D01*
X58702480Y-39966785D02*
X58702480Y-40157261D01*
X58750100Y-40252500D01*
X58845338Y-40347738D01*
X59035814Y-40395357D01*
X59369147Y-40395357D01*
X59559623Y-40347738D01*
X59654861Y-40252500D01*
X59702480Y-40157261D01*
X59702480Y-39966785D01*
X59654861Y-39871547D01*
X59559623Y-39776309D01*
X59369147Y-39728690D01*
X59035814Y-39728690D01*
X58845338Y-39776309D01*
X58750100Y-39871547D01*
X58702480Y-39966785D01*
X59702480Y-40823928D02*
X58702480Y-40823928D01*
X59702480Y-41395357D01*
X58702480Y-41395357D01*
X59702480Y-41871547D02*
X58702480Y-41871547D01*
X59702480Y-42442976D01*
X58702480Y-42442976D01*
X59797719Y-42681071D02*
X59797719Y-43442976D01*
X58702480Y-43585833D02*
X58702480Y-44204880D01*
X59083433Y-43871547D01*
X59083433Y-44014404D01*
X59131052Y-44109642D01*
X59178671Y-44157261D01*
X59273909Y-44204880D01*
X59512004Y-44204880D01*
X59607242Y-44157261D01*
X59654861Y-44109642D01*
X59702480Y-44014404D01*
X59702480Y-43728690D01*
X59654861Y-43633452D01*
X59607242Y-43585833D01*
X59321528Y-44633452D02*
X59321528Y-45395357D01*
X59702480Y-46395357D02*
X59702480Y-45823928D01*
X59702480Y-46109642D02*
X58702480Y-46109642D01*
X58845338Y-46014404D01*
X58940576Y-45919166D01*
X58988195Y-45823928D01*
X58702480Y-47014404D02*
X58702480Y-47109642D01*
X58750100Y-47204880D01*
X58797719Y-47252500D01*
X58892957Y-47300119D01*
X59083433Y-47347738D01*
X59321528Y-47347738D01*
X59512004Y-47300119D01*
X59607242Y-47252500D01*
X59654861Y-47204880D01*
X59702480Y-47109642D01*
X59702480Y-47014404D01*
X59654861Y-46919166D01*
X59607242Y-46871547D01*
X59512004Y-46823928D01*
X59321528Y-46776309D01*
X59083433Y-46776309D01*
X58892957Y-46823928D01*
X58797719Y-46871547D01*
X58750100Y-46919166D01*
X58702480Y-47014404D01*
X58797719Y-47728690D02*
X58750100Y-47776309D01*
X58702480Y-47871547D01*
X58702480Y-48109642D01*
X58750100Y-48204880D01*
X58797719Y-48252500D01*
X58892957Y-48300119D01*
X58988195Y-48300119D01*
X59131052Y-48252500D01*
X59702480Y-47681071D01*
X59702480Y-48300119D01*
X58797719Y-48681071D02*
X58750100Y-48728690D01*
X58702480Y-48823928D01*
X58702480Y-49062023D01*
X58750100Y-49157261D01*
X58797719Y-49204880D01*
X58892957Y-49252499D01*
X58988195Y-49252499D01*
X59131052Y-49204880D01*
X59702480Y-48633452D01*
X59702480Y-49252499D01*
X58702480Y-49871547D02*
X58702480Y-49966785D01*
X58750100Y-50062023D01*
X58797719Y-50109642D01*
X58892957Y-50157261D01*
X59083433Y-50204880D01*
X59321528Y-50204880D01*
X59512004Y-50157261D01*
X59607242Y-50109642D01*
X59654861Y-50062023D01*
X59702480Y-49966785D01*
X59702480Y-49871547D01*
X59654861Y-49776309D01*
X59607242Y-49728690D01*
X59512004Y-49681071D01*
X59321528Y-49633452D01*
X59083433Y-49633452D01*
X58892957Y-49681071D01*
X58797719Y-49728690D01*
X58750100Y-49776309D01*
X58702480Y-49871547D01*
X58702480Y-50538214D02*
X58702480Y-51157261D01*
X59083433Y-50823928D01*
X59083433Y-50966785D01*
X59131052Y-51062023D01*
X59178671Y-51109642D01*
X59273909Y-51157261D01*
X59512004Y-51157261D01*
X59607242Y-51109642D01*
X59654861Y-51062023D01*
X59702480Y-50966785D01*
X59702480Y-50681071D01*
X59654861Y-50585833D01*
X59607242Y-50538214D01*
X59321528Y-51585833D02*
X59321528Y-52347738D01*
X59035814Y-53252499D02*
X59702480Y-53252499D01*
X58654861Y-53014404D02*
X59369147Y-52776309D01*
X59369147Y-53395357D01*
X59797719Y-53538214D02*
X59797719Y-54300119D01*
X58702480Y-54395357D02*
X58702480Y-54966785D01*
X59702480Y-54681071D02*
X58702480Y-54681071D01*
X59178671Y-55300119D02*
X59178671Y-55633452D01*
X59702480Y-55776309D02*
X59702480Y-55300119D01*
X58702480Y-55300119D01*
X58702480Y-55776309D01*
X59607242Y-56776309D02*
X59654861Y-56728690D01*
X59702480Y-56585833D01*
X59702480Y-56490595D01*
X59654861Y-56347738D01*
X59559623Y-56252499D01*
X59464385Y-56204880D01*
X59273909Y-56157261D01*
X59131052Y-56157261D01*
X58940576Y-56204880D01*
X58845338Y-56252499D01*
X58750100Y-56347738D01*
X58702480Y-56490595D01*
X58702480Y-56585833D01*
X58750100Y-56728690D01*
X58797719Y-56776309D01*
X58702480Y-45212500D02*
X58940576Y-45212500D01*
X58845338Y-44974404D02*
X58940576Y-45212500D01*
X58845338Y-45450595D01*
X59131052Y-45069642D02*
X58940576Y-45212500D01*
X59131052Y-45355357D01*
%TO.C,G\u002A\u002A\u002A*%
G36*
X108041214Y-100830446D02*
G01*
X108041214Y-70555050D01*
X124127245Y-70555050D01*
X124133196Y-71251213D01*
X124135353Y-71299505D01*
X124226976Y-72179379D01*
X124422083Y-72956799D01*
X124734515Y-73663457D01*
X125178115Y-74331046D01*
X125766724Y-74991256D01*
X126007330Y-75222339D01*
X126682961Y-75762396D01*
X127392039Y-76165924D01*
X128165428Y-76451713D01*
X128879365Y-76608422D01*
X129827506Y-76679305D01*
X130767871Y-76599168D01*
X131673022Y-76368659D01*
X132280752Y-76113336D01*
X133067674Y-75639513D01*
X133771431Y-75043650D01*
X134369941Y-74345294D01*
X134841126Y-73563993D01*
X135103591Y-72944060D01*
X135351895Y-72045404D01*
X135459020Y-71134218D01*
X135422494Y-70236439D01*
X135239846Y-69378007D01*
X135209769Y-69283744D01*
X134851348Y-68436564D01*
X134362528Y-67653416D01*
X133762057Y-66956430D01*
X133068685Y-66367736D01*
X132301161Y-65909464D01*
X131875822Y-65719226D01*
X131061562Y-65450267D01*
X130251797Y-65317922D01*
X129406676Y-65313994D01*
X129058653Y-65347347D01*
X128133163Y-65542703D01*
X127266578Y-65882394D01*
X126473220Y-66356800D01*
X125767410Y-66956301D01*
X125163466Y-67671277D01*
X124675710Y-68492108D01*
X124509479Y-68852978D01*
X124304728Y-69410142D01*
X124180870Y-69959430D01*
X124127245Y-70555050D01*
X108041214Y-70555050D01*
X108041214Y-64458504D01*
X132139878Y-64458504D01*
X132680463Y-64711474D01*
X132781606Y-64760065D01*
X133547122Y-65206502D01*
X134278616Y-65764516D01*
X134933339Y-66397935D01*
X135468541Y-67070586D01*
X135823615Y-67652128D01*
X136255048Y-68602146D01*
X136537750Y-69591574D01*
X136671216Y-70604254D01*
X136662758Y-71134218D01*
X136654940Y-71624030D01*
X136488418Y-72634742D01*
X136171146Y-73620235D01*
X135702619Y-74564350D01*
X135343840Y-75091606D01*
X134814371Y-75708002D01*
X134209575Y-76280141D01*
X133569457Y-76770765D01*
X132934026Y-77142620D01*
X132788441Y-77220443D01*
X132615858Y-77339736D01*
X132548562Y-77427768D01*
X132557088Y-77468156D01*
X132648306Y-77642480D01*
X132823918Y-77901040D01*
X133064581Y-78219615D01*
X133350957Y-78573986D01*
X133663702Y-78939934D01*
X133983478Y-79293238D01*
X134290943Y-79609680D01*
X134433242Y-79747401D01*
X135513705Y-80665843D01*
X136688139Y-81455561D01*
X137944545Y-82110183D01*
X139270921Y-82623336D01*
X140655264Y-82988648D01*
X140797897Y-83015121D01*
X141279577Y-83079732D01*
X141859432Y-83131290D01*
X142494313Y-83168211D01*
X143141069Y-83188913D01*
X143756550Y-83191811D01*
X144297606Y-83175322D01*
X144721086Y-83137862D01*
X146029996Y-82888863D01*
X147390238Y-82477096D01*
X148681667Y-81923943D01*
X149895447Y-81235860D01*
X151022744Y-80419306D01*
X152054722Y-79480739D01*
X152982547Y-78426615D01*
X153797383Y-77263392D01*
X154490395Y-75997528D01*
X154509779Y-75956814D01*
X155026565Y-74680290D01*
X155395463Y-73355512D01*
X155616456Y-71998885D01*
X155689524Y-70626812D01*
X155614650Y-69255701D01*
X155391815Y-67901955D01*
X155021002Y-66581980D01*
X154502193Y-65312180D01*
X153855220Y-64110320D01*
X153051813Y-62930097D01*
X152138249Y-61869008D01*
X151114668Y-60927196D01*
X149981211Y-60104805D01*
X148738019Y-59401979D01*
X148495522Y-59283566D01*
X147766078Y-58954249D01*
X147080125Y-58694118D01*
X146372592Y-58480270D01*
X145578409Y-58289799D01*
X145382215Y-58252016D01*
X144806748Y-58176478D01*
X144132408Y-58125633D01*
X143402355Y-58099810D01*
X142659751Y-58099337D01*
X141947758Y-58124544D01*
X141309536Y-58175759D01*
X140788248Y-58253310D01*
X140644949Y-58283251D01*
X139360996Y-58630954D01*
X138098452Y-59110873D01*
X136897072Y-59705918D01*
X135796608Y-60399002D01*
X135133249Y-60914767D01*
X134332743Y-61648154D01*
X133570419Y-62462116D01*
X132885396Y-63314343D01*
X132316794Y-64162526D01*
X132139878Y-64458504D01*
X108041214Y-64458504D01*
X108041214Y-38344823D01*
X170039936Y-38344823D01*
X170039936Y-100830446D01*
X108041214Y-100830446D01*
G37*
G36*
X151607849Y-117120200D02*
G01*
X151812478Y-117715136D01*
X151986089Y-118219701D01*
X152117826Y-118602331D01*
X152323770Y-119200377D01*
X152578680Y-119941042D01*
X152845845Y-120717693D01*
X153112237Y-121492442D01*
X153364832Y-122227404D01*
X153590602Y-122884693D01*
X153776521Y-123426423D01*
X153860969Y-123677709D01*
X153960311Y-123989140D01*
X154028209Y-124222122D01*
X154053355Y-124339362D01*
X154031824Y-124354153D01*
X153877826Y-124379742D01*
X153593086Y-124401634D01*
X153198326Y-124419817D01*
X152714268Y-124434276D01*
X152161632Y-124444998D01*
X151561141Y-124451970D01*
X150933516Y-124455178D01*
X150299478Y-124454608D01*
X149679750Y-124450247D01*
X149095053Y-124442081D01*
X148566108Y-124430097D01*
X148113637Y-124414281D01*
X147758361Y-124394619D01*
X147521003Y-124371098D01*
X147422283Y-124343705D01*
X147421358Y-124342432D01*
X147376240Y-124229767D01*
X147299721Y-123986928D01*
X147199437Y-123640277D01*
X147083022Y-123216177D01*
X146958111Y-122740989D01*
X146835739Y-122266985D01*
X146716180Y-121806732D01*
X146612509Y-121410516D01*
X146532856Y-121109401D01*
X146485350Y-120934447D01*
X146398979Y-120629182D01*
X140227423Y-120671660D01*
X139957267Y-121807763D01*
X139948499Y-121844615D01*
X139830612Y-122336940D01*
X139707910Y-122844464D01*
X139594408Y-123309465D01*
X139504119Y-123674216D01*
X139321126Y-124404568D01*
X136041273Y-124425789D01*
X136010718Y-124425984D01*
X135227048Y-124429088D01*
X134523479Y-124428226D01*
X133913706Y-124423618D01*
X133411427Y-124415482D01*
X133030338Y-124404038D01*
X132784134Y-124389505D01*
X132686512Y-124372102D01*
X132684711Y-124370122D01*
X132672616Y-124248726D01*
X132718403Y-124003960D01*
X132817417Y-123661105D01*
X132896272Y-123417465D01*
X133022373Y-123027983D01*
X133174977Y-122556732D01*
X133341552Y-122042415D01*
X133509562Y-121523737D01*
X133517524Y-121499156D01*
X133675407Y-121011287D01*
X133870324Y-120408286D01*
X134090281Y-119727304D01*
X134323283Y-119005488D01*
X134557333Y-118279989D01*
X134780437Y-117587954D01*
X134787562Y-117565843D01*
X135013321Y-116865907D01*
X135251523Y-116128405D01*
X135270118Y-116070903D01*
X141424285Y-116070903D01*
X141451939Y-116106227D01*
X141530458Y-116131722D01*
X141678414Y-116148991D01*
X141914380Y-116159634D01*
X142256929Y-116165253D01*
X142724633Y-116167450D01*
X143336065Y-116167826D01*
X143529545Y-116167689D01*
X144129954Y-116164693D01*
X144587331Y-116157185D01*
X144916736Y-116144384D01*
X145133229Y-116125506D01*
X145251872Y-116099768D01*
X145287726Y-116066389D01*
X145268905Y-115958582D01*
X145215908Y-115726131D01*
X145137071Y-115405524D01*
X145040741Y-115031724D01*
X145020447Y-114954539D01*
X144842024Y-114270859D01*
X144656610Y-113552259D01*
X144468980Y-112817940D01*
X144283910Y-112087105D01*
X144106176Y-111378954D01*
X143940555Y-110712690D01*
X143791822Y-110107514D01*
X143664754Y-109582627D01*
X143564126Y-109157233D01*
X143494715Y-108850531D01*
X143461297Y-108681724D01*
X143438211Y-108553109D01*
X143385542Y-108368710D01*
X143333866Y-108296261D01*
X143320201Y-108297417D01*
X143283869Y-108322934D01*
X143249995Y-108402253D01*
X143211757Y-108562020D01*
X143162330Y-108828883D01*
X143094891Y-109229488D01*
X143065544Y-109380150D01*
X142997585Y-109690240D01*
X142899706Y-110116597D01*
X142777453Y-110636575D01*
X142636376Y-111227532D01*
X142482022Y-111866823D01*
X142319939Y-112531804D01*
X142155677Y-113199831D01*
X141994783Y-113848259D01*
X141842805Y-114454446D01*
X141705292Y-114995746D01*
X141587792Y-115449516D01*
X141495853Y-115793112D01*
X141435024Y-116003890D01*
X141428924Y-116024148D01*
X141424285Y-116070903D01*
X135270118Y-116070903D01*
X135489737Y-115391752D01*
X135715536Y-114694362D01*
X135916490Y-114074647D01*
X136080170Y-113571021D01*
X136224751Y-113126532D01*
X136433884Y-112482539D01*
X136647290Y-111824383D01*
X136846765Y-111208215D01*
X137014105Y-110690191D01*
X137137303Y-110308626D01*
X137330611Y-109711013D01*
X137542207Y-109057822D01*
X137753895Y-108405216D01*
X137947479Y-107809360D01*
X138098697Y-107343928D01*
X138300556Y-106721550D01*
X138502773Y-106097048D01*
X138688464Y-105522568D01*
X138840749Y-105050255D01*
X138908064Y-104845560D01*
X139047270Y-104448763D01*
X139174964Y-104117683D01*
X139279284Y-103882186D01*
X139348368Y-103772140D01*
X139373524Y-103759258D01*
X139479923Y-103736060D01*
X139669411Y-103716925D01*
X139953303Y-103701555D01*
X140342912Y-103689650D01*
X140849553Y-103680911D01*
X141484540Y-103675040D01*
X142259186Y-103671737D01*
X143184807Y-103670702D01*
X143784916Y-103671085D01*
X144606147Y-103673384D01*
X145283700Y-103678024D01*
X145828964Y-103685311D01*
X146253332Y-103695551D01*
X146568193Y-103709049D01*
X146784939Y-103726109D01*
X146914961Y-103747038D01*
X146969649Y-103772140D01*
X146971944Y-103775074D01*
X146983131Y-103787400D01*
X146992882Y-103797502D01*
X147003778Y-103812793D01*
X147018400Y-103840688D01*
X147039330Y-103888602D01*
X147069151Y-103963949D01*
X147110443Y-104074143D01*
X147165789Y-104226599D01*
X147237770Y-104428731D01*
X147328968Y-104687954D01*
X147441964Y-105011683D01*
X147579341Y-105407331D01*
X147743681Y-105882313D01*
X147937564Y-106444044D01*
X148163573Y-107099938D01*
X148424290Y-107857409D01*
X148722295Y-108723872D01*
X149060172Y-109706742D01*
X149440501Y-110813433D01*
X149865865Y-112051358D01*
X150338844Y-113427934D01*
X150862022Y-114950574D01*
X150916391Y-115108797D01*
X151148951Y-115785468D01*
X151245524Y-116066389D01*
X151383056Y-116466457D01*
X151607849Y-117120200D01*
G37*
G36*
X114208626Y-124445143D02*
G01*
X107960064Y-124445143D01*
X107960064Y-103751852D01*
X114208626Y-103751852D01*
X114208626Y-124445143D01*
G37*
G36*
X130114058Y-124446091D02*
G01*
X123480032Y-124425330D01*
X116846006Y-124404568D01*
X116824511Y-121990350D01*
X116803016Y-119576133D01*
X120277451Y-119576133D01*
X121101569Y-119575133D01*
X121869396Y-119571516D01*
X122494761Y-119564990D01*
X122988081Y-119555268D01*
X123359775Y-119542067D01*
X123620258Y-119525104D01*
X123779949Y-119504094D01*
X123849265Y-119478753D01*
X123854869Y-119469497D01*
X123871369Y-119390794D01*
X123885955Y-119231385D01*
X123898718Y-118983853D01*
X123909751Y-118640779D01*
X123919144Y-118194746D01*
X123926988Y-117638337D01*
X123933375Y-116964135D01*
X123938396Y-116164721D01*
X123942142Y-115232680D01*
X123944705Y-114160593D01*
X123946175Y-112941043D01*
X123946645Y-111566612D01*
X123946645Y-103751852D01*
X130114058Y-103751852D01*
X130114058Y-124446091D01*
G37*
G36*
X170039936Y-124363993D02*
G01*
X156244409Y-124363993D01*
X156244409Y-119251533D01*
X157806550Y-119250123D01*
X158490349Y-119243640D01*
X159092336Y-119220599D01*
X159592476Y-119175735D01*
X160021768Y-119103762D01*
X160411215Y-118999392D01*
X160791815Y-118857339D01*
X161194569Y-118672315D01*
X161358266Y-118589297D01*
X161753067Y-118355957D01*
X162112551Y-118080712D01*
X162499901Y-117717339D01*
X162507708Y-117709516D01*
X162947249Y-117235943D01*
X163281138Y-116790948D01*
X163543508Y-116322348D01*
X163768493Y-115777960D01*
X163784438Y-115733360D01*
X164001556Y-114880293D01*
X164067110Y-114009367D01*
X163986529Y-113141646D01*
X163765241Y-112298195D01*
X163408675Y-111500077D01*
X162922259Y-110768357D01*
X162311422Y-110124100D01*
X162295007Y-110109736D01*
X161913169Y-109827547D01*
X161430878Y-109541736D01*
X160903679Y-109280008D01*
X160387118Y-109070069D01*
X159936741Y-108939625D01*
X159897695Y-108932258D01*
X159574306Y-108894661D01*
X159111743Y-108868849D01*
X158529514Y-108855604D01*
X157847125Y-108855711D01*
X156244409Y-108871260D01*
X156244409Y-103670702D01*
X170039936Y-103670702D01*
X170039936Y-124363993D01*
G37*
D12*
%TO.C,REF\u002A\u002A*%
X45508700Y-100247500D02*
X46778700Y-99612500D01*
X45508700Y-98977500D02*
X45508700Y-100247500D01*
X46905700Y-107613500D02*
X46905700Y-96691500D01*
X46778700Y-99612500D02*
X45508700Y-98977500D01*
X61104300Y-96691500D02*
X61104300Y-107613500D01*
X46905700Y-96691500D02*
X61104300Y-96691500D01*
X61104300Y-107613500D02*
X46905700Y-107613500D01*
%TO.C,G\u002A\u002A\u002A*%
G36*
X79257365Y-79356751D02*
G01*
X79001738Y-79356751D01*
X79001738Y-77753274D01*
X79257365Y-77753274D01*
X79257365Y-79356751D01*
G37*
G36*
X90385889Y-80169423D02*
G01*
X90521797Y-80220862D01*
X90645343Y-80306169D01*
X90737790Y-80414863D01*
X90772812Y-80496423D01*
X90792339Y-80614632D01*
X90786013Y-80735160D01*
X90753111Y-80838040D01*
X90751337Y-80841306D01*
X90683159Y-80919952D01*
X90570588Y-80991660D01*
X90415243Y-81055602D01*
X90218745Y-81110949D01*
X90102070Y-81139713D01*
X89982248Y-81174573D01*
X89899214Y-81207272D01*
X89847643Y-81240011D01*
X89822212Y-81274992D01*
X89818348Y-81285888D01*
X89811084Y-81370500D01*
X89843615Y-81443917D01*
X89910498Y-81502665D01*
X90006288Y-81543271D01*
X90125543Y-81562261D01*
X90262819Y-81556161D01*
X90266810Y-81555599D01*
X90393205Y-81522046D01*
X90507023Y-81463654D01*
X90596990Y-81387793D01*
X90651833Y-81301834D01*
X90664147Y-81297421D01*
X90702674Y-81319105D01*
X90760443Y-81369736D01*
X90858498Y-81465521D01*
X90817617Y-81527914D01*
X90782360Y-81571290D01*
X90694876Y-81645054D01*
X90585382Y-81710693D01*
X90468862Y-81758306D01*
X90417313Y-81771298D01*
X90287242Y-81789068D01*
X90143336Y-81793889D01*
X90005030Y-81785571D01*
X89891758Y-81763925D01*
X89851335Y-81750521D01*
X89713843Y-81680699D01*
X89612753Y-81585789D01*
X89550370Y-81468536D01*
X89528998Y-81331686D01*
X89529005Y-81327887D01*
X89541914Y-81210032D01*
X89581997Y-81112406D01*
X89653078Y-81031800D01*
X89758980Y-80965002D01*
X89903526Y-80908799D01*
X90090538Y-80859982D01*
X90196635Y-80835278D01*
X90317926Y-80800808D01*
X90402994Y-80765473D01*
X90457785Y-80725783D01*
X90488244Y-80678247D01*
X90500317Y-80619372D01*
X90500918Y-80562215D01*
X90483640Y-80512995D01*
X90437217Y-80465837D01*
X90337735Y-80408457D01*
X90216614Y-80382122D01*
X90088826Y-80387749D01*
X89965971Y-80423376D01*
X89859651Y-80487040D01*
X89781464Y-80576779D01*
X89733728Y-80657685D01*
X89631319Y-80573769D01*
X89588496Y-80536794D01*
X89545543Y-80494174D01*
X89528911Y-80469414D01*
X89533314Y-80455060D01*
X89566269Y-80411233D01*
X89622676Y-80355751D01*
X89692030Y-80297724D01*
X89763823Y-80246262D01*
X89827549Y-80210474D01*
X89848501Y-80201900D01*
X89970123Y-80169483D01*
X90113014Y-80152325D01*
X90257996Y-80151835D01*
X90385889Y-80169423D01*
G37*
G36*
X90504940Y-79356751D02*
G01*
X90250556Y-79356751D01*
X90237694Y-78671207D01*
X89552150Y-78658345D01*
X89552150Y-78427199D01*
X90249313Y-78427199D01*
X90249313Y-77985662D01*
X89343001Y-77985662D01*
X89343001Y-77753274D01*
X90504940Y-77753274D01*
X90504940Y-79356751D01*
G37*
G36*
X91435103Y-80803366D02*
G01*
X91435715Y-81436623D01*
X91522725Y-81273951D01*
X91537026Y-81247850D01*
X91584286Y-81165122D01*
X91648999Y-81054832D01*
X91726285Y-80925191D01*
X91811266Y-80784408D01*
X91899062Y-80640694D01*
X92188389Y-80170109D01*
X92503476Y-80170109D01*
X92503476Y-81773585D01*
X92244477Y-81773585D01*
X92251973Y-81146120D01*
X92252050Y-81139649D01*
X92253810Y-80974845D01*
X92255022Y-80826582D01*
X92255665Y-80700848D01*
X92255721Y-80603627D01*
X92255171Y-80540906D01*
X92253994Y-80518672D01*
X92242485Y-80535820D01*
X92215629Y-80583995D01*
X92179638Y-80652314D01*
X92163304Y-80682612D01*
X92118967Y-80760550D01*
X92057183Y-80866097D01*
X91982365Y-80991810D01*
X91898925Y-81130243D01*
X91811273Y-81273951D01*
X91511789Y-81761966D01*
X91345327Y-81768794D01*
X91178865Y-81775621D01*
X91178865Y-80170109D01*
X91434492Y-80170109D01*
X91435103Y-80803366D01*
G37*
G36*
X85950137Y-80402497D02*
G01*
X85392406Y-80402497D01*
X85392406Y-81773585D01*
X85136779Y-81773585D01*
X85136779Y-80402497D01*
X84579048Y-80402497D01*
X84579048Y-80170109D01*
X85950137Y-80170109D01*
X85950137Y-80402497D01*
G37*
G36*
X92689387Y-79356751D02*
G01*
X91550686Y-79356751D01*
X91550686Y-79124363D01*
X92433760Y-79124363D01*
X92433760Y-77753274D01*
X92689387Y-77753274D01*
X92689387Y-79356751D01*
G37*
G36*
X86997194Y-79356751D02*
G01*
X86990729Y-79037217D01*
X86984263Y-78717684D01*
X86821592Y-78711753D01*
X86658920Y-78705823D01*
X86248896Y-79356751D01*
X86099516Y-79356751D01*
X86026720Y-79355263D01*
X85971327Y-79351060D01*
X85950137Y-79345093D01*
X85956021Y-79333305D01*
X85983254Y-79287931D01*
X86028837Y-79215093D01*
X86088540Y-79121519D01*
X86158138Y-79013940D01*
X86366138Y-78694445D01*
X86289444Y-78655015D01*
X86238436Y-78623299D01*
X86154007Y-78546587D01*
X86088083Y-78456649D01*
X86053069Y-78368522D01*
X86045065Y-78313234D01*
X86045157Y-78218252D01*
X86321958Y-78218252D01*
X86322162Y-78234197D01*
X86338777Y-78338601D01*
X86384997Y-78411764D01*
X86465016Y-78460797D01*
X86505548Y-78473519D01*
X86620246Y-78491008D01*
X86775584Y-78496916D01*
X86995883Y-78496916D01*
X86995883Y-77981770D01*
X86714952Y-77989526D01*
X86608766Y-77992747D01*
X86523244Y-77997181D01*
X86466715Y-78004355D01*
X86429870Y-78016287D01*
X86403398Y-78034991D01*
X86377989Y-78062484D01*
X86341134Y-78119888D01*
X86321958Y-78218252D01*
X86045157Y-78218252D01*
X86045201Y-78172774D01*
X86073485Y-78046114D01*
X86127597Y-77946401D01*
X86149148Y-77920447D01*
X86199131Y-77868168D01*
X86252127Y-77828875D01*
X86315379Y-77800581D01*
X86396129Y-77781300D01*
X86501618Y-77769046D01*
X86639088Y-77761833D01*
X86815782Y-77757675D01*
X87251509Y-77750457D01*
X87251509Y-79356751D01*
X86997194Y-79356751D01*
G37*
G36*
X89117951Y-78823567D02*
G01*
X89052565Y-79001699D01*
X88954650Y-79146671D01*
X88824235Y-79258443D01*
X88661350Y-79336973D01*
X88503110Y-79374182D01*
X88325838Y-79378304D01*
X88154600Y-79345744D01*
X87997414Y-79279020D01*
X87862297Y-79180648D01*
X87757267Y-79053146D01*
X87751997Y-79044406D01*
X87695165Y-78917290D01*
X87654468Y-78764282D01*
X87633437Y-78602870D01*
X87633504Y-78598164D01*
X87929401Y-78598164D01*
X87932122Y-78653729D01*
X87939764Y-78746120D01*
X87952640Y-78813071D01*
X87974161Y-78868948D01*
X88007738Y-78928117D01*
X88013557Y-78937252D01*
X88085976Y-79025049D01*
X88166311Y-79085260D01*
X88207308Y-79103916D01*
X88339316Y-79136287D01*
X88474627Y-79134087D01*
X88600516Y-79098599D01*
X88704259Y-79031102D01*
X88746173Y-78982886D01*
X88807387Y-78867997D01*
X88847417Y-78725842D01*
X88862636Y-78567045D01*
X88862106Y-78516297D01*
X88840306Y-78338626D01*
X88787450Y-78193859D01*
X88704004Y-78082957D01*
X88590438Y-78006882D01*
X88509623Y-77979499D01*
X88378915Y-77966413D01*
X88249952Y-77985720D01*
X88135174Y-78035016D01*
X88047021Y-78111898D01*
X87990976Y-78197462D01*
X87949690Y-78305681D01*
X87930043Y-78435618D01*
X87929401Y-78598164D01*
X87633504Y-78598164D01*
X87635602Y-78450543D01*
X87635960Y-78447187D01*
X87675934Y-78242971D01*
X87747739Y-78071661D01*
X87850423Y-77934231D01*
X87983035Y-77831656D01*
X88144623Y-77764910D01*
X88334236Y-77734967D01*
X88471764Y-77733989D01*
X88630649Y-77756782D01*
X88766161Y-77809663D01*
X88887160Y-77895199D01*
X88939432Y-77946667D01*
X89041844Y-78091350D01*
X89112364Y-78262218D01*
X89148393Y-78451705D01*
X89147781Y-78567045D01*
X89147329Y-78652245D01*
X89117951Y-78823567D01*
G37*
G36*
X82534071Y-80733649D02*
G01*
X82534226Y-80844255D01*
X82535727Y-81016345D01*
X82539740Y-81151020D01*
X82547367Y-81254163D01*
X82559710Y-81331653D01*
X82577874Y-81389371D01*
X82602960Y-81433197D01*
X82636072Y-81469012D01*
X82678313Y-81502695D01*
X82756195Y-81540322D01*
X82866982Y-81559955D01*
X82985869Y-81554696D01*
X83095841Y-81523690D01*
X83144771Y-81500170D01*
X83189210Y-81471006D01*
X83223587Y-81433772D01*
X83249295Y-81382982D01*
X83267728Y-81313149D01*
X83280281Y-81218785D01*
X83288348Y-81094405D01*
X83293323Y-80934522D01*
X83296601Y-80733649D01*
X83303907Y-80170109D01*
X83584911Y-80170109D01*
X83573541Y-80756888D01*
X83573332Y-80767546D01*
X83567936Y-80984305D01*
X83561120Y-81157151D01*
X83552729Y-81288526D01*
X83542609Y-81380870D01*
X83530606Y-81436623D01*
X83487533Y-81522685D01*
X83404726Y-81623038D01*
X83301659Y-81706310D01*
X83192386Y-81759103D01*
X83065298Y-81784648D01*
X82913665Y-81793833D01*
X82761369Y-81785866D01*
X82629927Y-81760685D01*
X82588744Y-81746301D01*
X82462586Y-81672414D01*
X82360875Y-81565782D01*
X82293341Y-81435797D01*
X82283929Y-81404157D01*
X82273687Y-81353071D01*
X82266090Y-81287001D01*
X82260789Y-81199649D01*
X82257434Y-81084720D01*
X82255677Y-80935915D01*
X82255169Y-80746939D01*
X82255169Y-80170109D01*
X82534034Y-80170109D01*
X82534071Y-80733649D01*
G37*
G36*
X103302351Y-81537333D02*
G01*
X103289483Y-81557088D01*
X103043704Y-81854285D01*
X102766736Y-82118874D01*
X102703988Y-82170888D01*
X102376518Y-82408464D01*
X102031130Y-82603804D01*
X101666022Y-82757691D01*
X101279393Y-82870908D01*
X100869442Y-82944240D01*
X100820117Y-82948775D01*
X100700910Y-82952684D01*
X100554038Y-82951479D01*
X100391396Y-82945773D01*
X100224877Y-82936178D01*
X100066376Y-82923309D01*
X99927788Y-82907778D01*
X99821007Y-82890198D01*
X99437049Y-82787067D01*
X99064571Y-82641412D01*
X99045574Y-82631381D01*
X100555718Y-82631381D01*
X100683531Y-82630499D01*
X100687649Y-82630460D01*
X100821523Y-82621166D01*
X100983773Y-82597927D01*
X101159983Y-82563543D01*
X101335734Y-82520816D01*
X101496606Y-82472547D01*
X101662293Y-82409620D01*
X101851879Y-82324365D01*
X102040960Y-82227603D01*
X102214681Y-82126962D01*
X102358192Y-82030069D01*
X102411596Y-81988848D01*
X102506615Y-81911024D01*
X102604570Y-81826352D01*
X102697618Y-81742012D01*
X102777915Y-81665181D01*
X102837615Y-81603037D01*
X102868875Y-81562759D01*
X102875570Y-81537333D01*
X102855265Y-81530876D01*
X102811061Y-81547091D01*
X102810142Y-81547428D01*
X102746526Y-81583809D01*
X102670741Y-81636843D01*
X102589112Y-81703349D01*
X102585086Y-81706870D01*
X102277584Y-81949280D01*
X101959487Y-82149260D01*
X101632871Y-82305812D01*
X101299815Y-82417938D01*
X100962397Y-82484641D01*
X100912687Y-82492900D01*
X100834970Y-82512814D01*
X100782085Y-82535216D01*
X100775995Y-82539028D01*
X100714481Y-82570735D01*
X100642652Y-82600353D01*
X100555718Y-82631381D01*
X99045574Y-82631381D01*
X98715323Y-82457000D01*
X98391605Y-82235613D01*
X98095722Y-81979032D01*
X97829975Y-81689037D01*
X97596667Y-81367411D01*
X97398101Y-81015934D01*
X97373347Y-80964640D01*
X97227709Y-80602820D01*
X97124892Y-80228118D01*
X97064885Y-79844984D01*
X97047676Y-79457867D01*
X97052139Y-79390391D01*
X97374853Y-79390391D01*
X97376081Y-79640054D01*
X97393321Y-79879952D01*
X97426574Y-80093151D01*
X97514747Y-80425423D01*
X97651717Y-80781519D01*
X97825838Y-81113783D01*
X98034778Y-81419863D01*
X98276205Y-81697407D01*
X98547785Y-81944066D01*
X98847185Y-82157487D01*
X99172073Y-82335320D01*
X99520116Y-82475213D01*
X99888981Y-82574816D01*
X99910214Y-82579056D01*
X99997896Y-82593837D01*
X100092556Y-82606457D01*
X100186610Y-82616404D01*
X100272471Y-82623167D01*
X100342554Y-82626232D01*
X100389273Y-82625088D01*
X100405042Y-82619223D01*
X100382276Y-82608124D01*
X100381916Y-82608012D01*
X100307911Y-82578132D01*
X100242843Y-82541577D01*
X100210286Y-82524553D01*
X100135549Y-82500143D01*
X100050302Y-82483761D01*
X99908906Y-82460985D01*
X99654030Y-82397039D01*
X99391951Y-82305686D01*
X99136850Y-82192142D01*
X98902904Y-82061623D01*
X98761631Y-81967790D01*
X98464259Y-81731422D01*
X98201780Y-81465055D01*
X97975570Y-81170616D01*
X97787009Y-80850034D01*
X97637472Y-80505236D01*
X97528339Y-80138150D01*
X97507110Y-80043046D01*
X97489994Y-79950119D01*
X97478523Y-79858617D01*
X97471592Y-79756568D01*
X97468096Y-79632001D01*
X97466929Y-79472945D01*
X97466965Y-79461325D01*
X97546294Y-79461325D01*
X97549948Y-79623030D01*
X97587915Y-79990723D01*
X97667574Y-80338324D01*
X97789506Y-80667234D01*
X97954292Y-80978857D01*
X98162515Y-81274593D01*
X98414754Y-81555845D01*
X98538983Y-81674699D01*
X98801072Y-81889899D01*
X99074332Y-82065471D01*
X99366490Y-82206040D01*
X99685277Y-82316233D01*
X99717869Y-82325465D01*
X99834183Y-82355721D01*
X99939125Y-82379150D01*
X100024380Y-82394219D01*
X100081630Y-82399395D01*
X100102561Y-82393145D01*
X100101934Y-82390926D01*
X100915919Y-82390926D01*
X100927339Y-82398858D01*
X100975393Y-82398011D01*
X101053728Y-82385562D01*
X101154448Y-82363452D01*
X101269654Y-82333621D01*
X101391448Y-82298009D01*
X101511932Y-82258555D01*
X101623207Y-82217201D01*
X101663894Y-82200423D01*
X101859266Y-82107850D01*
X102056019Y-81996914D01*
X102242550Y-81875076D01*
X102407255Y-81749800D01*
X102538528Y-81628549D01*
X102615756Y-81547091D01*
X102556113Y-81532121D01*
X102549752Y-81530712D01*
X102513991Y-81531073D01*
X102470483Y-81548578D01*
X102410320Y-81587905D01*
X102324595Y-81653733D01*
X102279224Y-81689200D01*
X102063113Y-81843306D01*
X101847683Y-81973974D01*
X101645375Y-82073516D01*
X101630501Y-82079753D01*
X101522608Y-82121346D01*
X101402065Y-82162896D01*
X101280068Y-82201050D01*
X101167814Y-82232453D01*
X101076499Y-82253754D01*
X101017319Y-82261600D01*
X100970600Y-82280806D01*
X100931836Y-82329638D01*
X100915919Y-82390926D01*
X100101934Y-82390926D01*
X100096069Y-82370170D01*
X100076879Y-82323614D01*
X100061875Y-82298621D01*
X100020082Y-82269487D01*
X99946461Y-82252892D01*
X99902864Y-82244599D01*
X99814359Y-82222439D01*
X99706771Y-82191552D01*
X99594513Y-82155911D01*
X99348290Y-82061473D01*
X99049176Y-81907687D01*
X98771514Y-81716342D01*
X98508700Y-81483347D01*
X98366896Y-81332895D01*
X98145490Y-81047015D01*
X97964846Y-80740358D01*
X97825965Y-80415463D01*
X97729849Y-80074871D01*
X97677500Y-79721120D01*
X97673688Y-79537908D01*
X97752117Y-79537908D01*
X97783534Y-79885215D01*
X97856669Y-80225919D01*
X97970907Y-80554259D01*
X98125631Y-80864476D01*
X98148386Y-80902639D01*
X98340558Y-81176358D01*
X98567844Y-81427037D01*
X98824355Y-81650060D01*
X99104200Y-81840807D01*
X99401488Y-81994660D01*
X99710329Y-82107000D01*
X99800068Y-82132734D01*
X99905515Y-82161903D01*
X99977141Y-82178914D01*
X100021478Y-82184324D01*
X100045058Y-82178691D01*
X100054416Y-82162573D01*
X100054447Y-82162089D01*
X100963206Y-82162089D01*
X100967118Y-82179770D01*
X100985815Y-82185772D01*
X101026876Y-82180209D01*
X101097879Y-82163192D01*
X101206404Y-82134834D01*
X101407159Y-82074241D01*
X101734801Y-81937749D01*
X102040135Y-81761026D01*
X102320605Y-81545422D01*
X102359927Y-81509328D01*
X102394976Y-81466428D01*
X102397440Y-81434465D01*
X102370744Y-81403756D01*
X102363896Y-81398987D01*
X102335703Y-81396391D01*
X102293908Y-81418969D01*
X102229394Y-81471063D01*
X102203711Y-81492923D01*
X101974975Y-81661795D01*
X101719974Y-81810412D01*
X101453246Y-81931152D01*
X101189327Y-82016393D01*
X101098463Y-82040025D01*
X101030848Y-82061005D01*
X100992152Y-82080210D01*
X100973660Y-82102135D01*
X100966663Y-82131275D01*
X100966499Y-82132618D01*
X100963206Y-82162089D01*
X100054447Y-82162089D01*
X100056084Y-82136529D01*
X100049211Y-82097458D01*
X100020305Y-82072609D01*
X99957319Y-82052352D01*
X99945939Y-82049443D01*
X99665479Y-81966841D01*
X99417082Y-81869737D01*
X99187594Y-81752254D01*
X98963861Y-81608516D01*
X98834213Y-81509947D01*
X98595933Y-81287215D01*
X98383863Y-81031718D01*
X98202228Y-80749599D01*
X98055255Y-80447004D01*
X97947169Y-80130076D01*
X97930809Y-80068029D01*
X97913188Y-79991916D01*
X97900823Y-79919064D01*
X97892800Y-79839525D01*
X97888202Y-79743353D01*
X97886115Y-79620602D01*
X97885622Y-79461325D01*
X97885844Y-79345521D01*
X97885964Y-79335095D01*
X97952552Y-79335095D01*
X97956679Y-79667544D01*
X98004500Y-79996542D01*
X98095745Y-80318310D01*
X98230141Y-80629071D01*
X98407419Y-80925048D01*
X98490278Y-81032712D01*
X98599650Y-81156699D01*
X98723876Y-81284966D01*
X98852394Y-81407056D01*
X98974641Y-81512514D01*
X99080055Y-81590883D01*
X99261127Y-81698480D01*
X99485957Y-81808908D01*
X99707502Y-81895487D01*
X99714224Y-81897718D01*
X99813216Y-81928374D01*
X99907622Y-81954184D01*
X99977847Y-81969764D01*
X99993351Y-81972285D01*
X100050648Y-81976304D01*
X100087160Y-81960238D01*
X100123204Y-81916665D01*
X100172506Y-81847426D01*
X100168064Y-81846693D01*
X100850311Y-81846693D01*
X100888925Y-81914567D01*
X100903419Y-81938001D01*
X100929651Y-81965116D01*
X100965618Y-81976926D01*
X101019930Y-81973645D01*
X101101195Y-81955482D01*
X101218023Y-81922650D01*
X101299357Y-81897254D01*
X101545903Y-81800993D01*
X101784578Y-81680554D01*
X102002548Y-81542924D01*
X102186983Y-81395090D01*
X102221090Y-81362746D01*
X102260668Y-81316774D01*
X102274892Y-81277679D01*
X102271060Y-81231237D01*
X102270457Y-81228090D01*
X102258728Y-81175609D01*
X102249717Y-81148980D01*
X102249155Y-81148670D01*
X102226822Y-81161376D01*
X102180519Y-81197802D01*
X102119432Y-81250773D01*
X101926263Y-81404898D01*
X101692403Y-81553217D01*
X101443284Y-81677569D01*
X101190844Y-81772047D01*
X100947022Y-81830745D01*
X100850311Y-81846693D01*
X100168064Y-81846693D01*
X100073627Y-81831111D01*
X100061648Y-81829058D01*
X99910558Y-81793522D01*
X99739368Y-81738986D01*
X99565255Y-81671467D01*
X99405398Y-81596986D01*
X99190120Y-81471590D01*
X98926279Y-81272374D01*
X98694224Y-81040801D01*
X98496415Y-80779795D01*
X98335316Y-80492279D01*
X98213387Y-80181178D01*
X98178825Y-80060734D01*
X98119366Y-79743785D01*
X98103499Y-79428179D01*
X98107074Y-79385024D01*
X98188658Y-79385024D01*
X98198365Y-79697308D01*
X98250435Y-80004451D01*
X98344209Y-80302445D01*
X98479025Y-80587279D01*
X98654222Y-80854943D01*
X98869139Y-81101426D01*
X98906071Y-81137625D01*
X99158869Y-81349657D01*
X99432839Y-81520331D01*
X99728386Y-81649866D01*
X100045914Y-81738481D01*
X100102567Y-81749977D01*
X100179205Y-81762650D01*
X100235566Y-81764586D01*
X100287779Y-81755635D01*
X100351969Y-81735648D01*
X100374478Y-81728207D01*
X100449300Y-81709179D01*
X100514417Y-81708043D01*
X100595976Y-81723494D01*
X100687978Y-81744435D01*
X100769412Y-81758751D01*
X100835475Y-81762106D01*
X100902203Y-81755111D01*
X100985636Y-81738380D01*
X101270659Y-81655995D01*
X101558321Y-81532800D01*
X101822232Y-81377799D01*
X101861877Y-81349924D01*
X101974081Y-81263219D01*
X102080297Y-81170822D01*
X102172339Y-81080579D01*
X102242021Y-81000336D01*
X102281158Y-80937938D01*
X102304367Y-80894160D01*
X102355202Y-80820388D01*
X102415555Y-80748208D01*
X102466209Y-80688170D01*
X102567639Y-80531052D01*
X102657753Y-80340662D01*
X102732731Y-80125735D01*
X102788752Y-79895009D01*
X102794411Y-79862867D01*
X102812133Y-79704946D01*
X102819944Y-79523831D01*
X102817923Y-79336690D01*
X102806148Y-79160690D01*
X102784699Y-79012999D01*
X102784404Y-79011565D01*
X102696165Y-78694283D01*
X102567861Y-78398498D01*
X102401828Y-78126688D01*
X102200403Y-77881330D01*
X101965922Y-77664900D01*
X101700723Y-77479876D01*
X101407142Y-77328734D01*
X101087515Y-77213950D01*
X101084841Y-77213180D01*
X101010899Y-77193515D01*
X100940801Y-77179488D01*
X100864485Y-77170214D01*
X100771890Y-77164808D01*
X100652956Y-77162384D01*
X100497621Y-77162059D01*
X100416252Y-77162366D01*
X100284141Y-77163956D01*
X100183000Y-77167754D01*
X100102512Y-77174840D01*
X100032359Y-77186298D01*
X99962225Y-77203210D01*
X99881793Y-77226658D01*
X99578884Y-77339884D01*
X99288160Y-77494150D01*
X99025189Y-77683314D01*
X98792697Y-77905099D01*
X98593412Y-78157235D01*
X98430058Y-78437446D01*
X98420332Y-78457432D01*
X98298981Y-78761076D01*
X98221976Y-79071610D01*
X98188658Y-79385024D01*
X98107074Y-79385024D01*
X98129236Y-79117497D01*
X98194588Y-78815320D01*
X98297569Y-78525230D01*
X98436190Y-78250807D01*
X98608463Y-77995633D01*
X98812400Y-77763289D01*
X99046014Y-77557355D01*
X99307315Y-77381414D01*
X99594317Y-77239046D01*
X99905032Y-77133832D01*
X99960724Y-77119446D01*
X100052260Y-77098810D01*
X100138872Y-77085015D01*
X100233407Y-77076699D01*
X100348708Y-77072503D01*
X100497621Y-77071065D01*
X100540752Y-77071000D01*
X100682757Y-77072371D01*
X100793869Y-77077181D01*
X100886445Y-77086578D01*
X100972841Y-77101706D01*
X101065413Y-77123711D01*
X101389727Y-77230114D01*
X101691386Y-77374969D01*
X101965947Y-77555379D01*
X102211049Y-77768980D01*
X102424331Y-78013413D01*
X102603431Y-78286315D01*
X102745988Y-78585324D01*
X102849641Y-78908080D01*
X102850792Y-78912702D01*
X102871750Y-79006410D01*
X102886003Y-79096871D01*
X102894647Y-79196504D01*
X102898778Y-79317723D01*
X102899491Y-79472945D01*
X102899182Y-79523831D01*
X102899062Y-79543574D01*
X102896418Y-79677207D01*
X102890383Y-79782639D01*
X102879637Y-79872565D01*
X102862858Y-79959679D01*
X102838725Y-80056677D01*
X102828958Y-80091904D01*
X102788288Y-80221085D01*
X102741058Y-80352052D01*
X102695609Y-80461230D01*
X102679864Y-80495628D01*
X102646302Y-80571551D01*
X102624289Y-80625277D01*
X102617971Y-80646889D01*
X102620148Y-80647509D01*
X102652753Y-80646642D01*
X102709949Y-80640800D01*
X102741937Y-80635895D01*
X102776028Y-80623113D01*
X102803078Y-80595187D01*
X102831125Y-80542754D01*
X102868205Y-80456454D01*
X102973558Y-80151817D01*
X103042916Y-79817772D01*
X103067209Y-79479582D01*
X103046434Y-79140994D01*
X102980588Y-78805756D01*
X102869668Y-78477618D01*
X102860113Y-78454799D01*
X102708913Y-78157012D01*
X102519979Y-77882862D01*
X102297250Y-77635762D01*
X102044668Y-77419124D01*
X101766174Y-77236362D01*
X101465709Y-77090888D01*
X101147215Y-76986115D01*
X100967595Y-76946930D01*
X100633094Y-76908540D01*
X100301976Y-76913778D01*
X99977957Y-76960946D01*
X99664752Y-77048348D01*
X99366078Y-77174286D01*
X99085651Y-77337063D01*
X98827187Y-77534983D01*
X98594402Y-77766348D01*
X98391012Y-78029461D01*
X98220732Y-78322625D01*
X98205045Y-78354809D01*
X98076464Y-78674950D01*
X97992390Y-79002971D01*
X97952552Y-79335095D01*
X97885964Y-79335095D01*
X97887366Y-79212742D01*
X97891127Y-79109560D01*
X97898036Y-79026048D01*
X97909002Y-78952275D01*
X97924936Y-78878315D01*
X97946747Y-78794237D01*
X97952767Y-78772403D01*
X98065879Y-78451180D01*
X98218133Y-78148717D01*
X98406002Y-77868644D01*
X98625960Y-77614592D01*
X98874483Y-77390189D01*
X99148044Y-77199067D01*
X99443118Y-77044855D01*
X99756180Y-76931183D01*
X99832415Y-76910472D01*
X100178226Y-76845328D01*
X100527536Y-76825203D01*
X100875706Y-76849835D01*
X101218100Y-76918963D01*
X101550080Y-77032325D01*
X101671429Y-77089007D01*
X101862053Y-77197825D01*
X102055416Y-77328602D01*
X102237498Y-77471625D01*
X102394281Y-77617182D01*
X102602436Y-77856642D01*
X102797013Y-78144878D01*
X102949271Y-78451929D01*
X103058681Y-78776493D01*
X103124715Y-79117266D01*
X103146843Y-79472945D01*
X103146658Y-79479582D01*
X103143053Y-79609065D01*
X103116424Y-79870477D01*
X103066724Y-80127233D01*
X102996792Y-80366170D01*
X102909464Y-80574130D01*
X102885195Y-80627181D01*
X102878929Y-80663564D01*
X102894946Y-80684159D01*
X102903476Y-80689224D01*
X102937182Y-80699667D01*
X102968283Y-80688283D01*
X102999808Y-80650487D01*
X103034789Y-80581695D01*
X103076258Y-80477321D01*
X103127246Y-80332780D01*
X103173705Y-80179807D01*
X103238243Y-79856977D01*
X103263920Y-79522357D01*
X103250830Y-79184969D01*
X103199065Y-78853831D01*
X103108720Y-78537963D01*
X103026281Y-78333890D01*
X102863863Y-78026466D01*
X102667935Y-77746860D01*
X102441955Y-77496748D01*
X102189381Y-77277807D01*
X101913669Y-77091712D01*
X101618277Y-76940141D01*
X101306663Y-76824769D01*
X100982284Y-76747272D01*
X100648597Y-76709328D01*
X100309061Y-76712611D01*
X99967132Y-76758799D01*
X99626268Y-76849568D01*
X99497256Y-76896558D01*
X99183413Y-77044254D01*
X98891264Y-77230055D01*
X98624464Y-77450287D01*
X98386666Y-77701274D01*
X98181522Y-77979343D01*
X98012688Y-78280820D01*
X97883814Y-78602030D01*
X97816901Y-78846529D01*
X97763034Y-79189759D01*
X97752117Y-79537908D01*
X97673688Y-79537908D01*
X97669919Y-79356751D01*
X97671446Y-79322842D01*
X97699071Y-79021880D01*
X97753021Y-78746013D01*
X97836799Y-78481137D01*
X97953908Y-78213146D01*
X98071413Y-77997733D01*
X98270224Y-77709077D01*
X98497985Y-77452333D01*
X98751147Y-77228370D01*
X99026161Y-77038054D01*
X99319479Y-76882253D01*
X99627552Y-76761833D01*
X99946833Y-76677662D01*
X100273771Y-76630607D01*
X100604819Y-76621534D01*
X100936428Y-76651311D01*
X101265050Y-76720805D01*
X101587136Y-76830883D01*
X101899137Y-76982412D01*
X102197505Y-77176259D01*
X102331191Y-77281768D01*
X102590710Y-77529087D01*
X102816192Y-77805530D01*
X103005341Y-78107159D01*
X103155863Y-78430032D01*
X103265463Y-78770210D01*
X103331846Y-79123753D01*
X103332236Y-79126946D01*
X103352721Y-79378100D01*
X103351352Y-79522357D01*
X103350415Y-79621060D01*
X103323935Y-79864613D01*
X103271894Y-80117545D01*
X103192910Y-80388644D01*
X103085597Y-80686696D01*
X103069194Y-80730265D01*
X103055789Y-80778686D01*
X103060000Y-80808547D01*
X103081398Y-80835025D01*
X103087611Y-80841032D01*
X103108025Y-80853238D01*
X103127794Y-80842971D01*
X103153758Y-80803715D01*
X103192756Y-80728959D01*
X103242976Y-80620237D01*
X103322076Y-80408071D01*
X103388833Y-80175731D01*
X103438134Y-79939659D01*
X103449509Y-79863378D01*
X103471288Y-79574351D01*
X103464542Y-79270568D01*
X103430632Y-78965804D01*
X103370919Y-78673833D01*
X103286766Y-78408430D01*
X103164219Y-78132872D01*
X102978582Y-77815231D01*
X102757743Y-77526069D01*
X102503923Y-77267338D01*
X102219343Y-77040993D01*
X101906223Y-76848986D01*
X101566785Y-76693271D01*
X101203248Y-76575801D01*
X101124046Y-76555693D01*
X101043437Y-76537681D01*
X100967804Y-76525154D01*
X100886858Y-76517145D01*
X100790309Y-76512686D01*
X100667866Y-76510810D01*
X100509240Y-76510549D01*
X100466241Y-76510635D01*
X100312023Y-76511881D01*
X100191716Y-76515194D01*
X100095187Y-76521422D01*
X100012303Y-76531416D01*
X99932930Y-76546026D01*
X99846935Y-76566102D01*
X99483883Y-76678691D01*
X99142952Y-76829726D01*
X98828291Y-77017006D01*
X98542120Y-77238808D01*
X98286657Y-77493410D01*
X98064124Y-77779092D01*
X97876740Y-78094132D01*
X97811938Y-78226365D01*
X97691237Y-78524166D01*
X97608721Y-78821016D01*
X97561403Y-79129282D01*
X97546294Y-79461325D01*
X97466965Y-79461325D01*
X97467302Y-79353567D01*
X97470750Y-79198941D01*
X97478323Y-79073670D01*
X97490739Y-78967374D01*
X97508718Y-78869677D01*
X97599448Y-78530546D01*
X97730742Y-78192707D01*
X97899095Y-77879584D01*
X98106945Y-77586688D01*
X98356732Y-77309531D01*
X98613038Y-77077374D01*
X98902226Y-76868291D01*
X99209557Y-76699500D01*
X99540269Y-76568157D01*
X99899601Y-76471415D01*
X99962599Y-76459168D01*
X100182776Y-76430975D01*
X100425106Y-76418139D01*
X100673135Y-76420658D01*
X100910409Y-76438526D01*
X101120474Y-76471740D01*
X101385230Y-76540199D01*
X101736508Y-76670357D01*
X102064334Y-76838713D01*
X102366417Y-77042948D01*
X102640468Y-77280745D01*
X102884197Y-77549783D01*
X103095315Y-77847743D01*
X103271532Y-78172308D01*
X103410559Y-78521159D01*
X103510107Y-78891975D01*
X103524986Y-78982394D01*
X103540367Y-79137650D01*
X103549580Y-79315657D01*
X103552481Y-79502866D01*
X103551090Y-79574351D01*
X103548923Y-79685726D01*
X103538761Y-79850687D01*
X103521849Y-79984198D01*
X103492868Y-80118662D01*
X103442427Y-80302441D01*
X103380659Y-80492325D01*
X103313302Y-80670910D01*
X103246091Y-80820795D01*
X103220806Y-80872511D01*
X103185100Y-80957507D01*
X103169525Y-81021451D01*
X103170508Y-81076422D01*
X103170578Y-81076896D01*
X103176422Y-81108104D01*
X103184737Y-81120556D01*
X103199080Y-81109637D01*
X103223011Y-81070733D01*
X103260086Y-80999229D01*
X103313866Y-80890511D01*
X103397318Y-80710206D01*
X103508557Y-80415406D01*
X103584283Y-80123357D01*
X103627509Y-79821227D01*
X103641248Y-79496184D01*
X103641196Y-79476467D01*
X103619077Y-79102073D01*
X103555881Y-78745957D01*
X103450257Y-78403699D01*
X103300859Y-78070877D01*
X103106335Y-77743070D01*
X103105769Y-77742221D01*
X102979862Y-77571241D01*
X102828042Y-77393639D01*
X102661947Y-77221480D01*
X102493216Y-77066832D01*
X102333485Y-76941761D01*
X102299327Y-76918191D01*
X102030929Y-76756321D01*
X101735328Y-76613828D01*
X101428163Y-76497537D01*
X101125068Y-76414274D01*
X101095815Y-76408391D01*
X100951327Y-76388503D01*
X100776925Y-76375454D01*
X100585253Y-76369255D01*
X100388959Y-76369916D01*
X100200687Y-76377450D01*
X100033086Y-76391868D01*
X99898799Y-76413180D01*
X99553433Y-76506207D01*
X99203557Y-76642578D01*
X98878327Y-76817109D01*
X98574545Y-77031535D01*
X98289014Y-77287593D01*
X98286242Y-77290367D01*
X98037398Y-77568429D01*
X97829085Y-77864466D01*
X97659226Y-78182358D01*
X97525747Y-78525982D01*
X97426574Y-78899216D01*
X97420435Y-78929503D01*
X97389638Y-79147896D01*
X97374853Y-79390391D01*
X97052139Y-79390391D01*
X97073252Y-79071220D01*
X97141601Y-78689492D01*
X97252710Y-78317133D01*
X97406568Y-77958594D01*
X97590339Y-77633555D01*
X97822773Y-77309779D01*
X98087277Y-77018753D01*
X98382221Y-76761727D01*
X98705976Y-76539948D01*
X99056913Y-76354666D01*
X99433402Y-76207129D01*
X99833813Y-76098587D01*
X99878696Y-76089275D01*
X99976264Y-76072218D01*
X100075828Y-76060352D01*
X100188502Y-76052818D01*
X100325395Y-76048759D01*
X100497621Y-76047316D01*
X100712588Y-76049533D01*
X100897120Y-76058578D01*
X101061564Y-76076345D01*
X101219060Y-76104724D01*
X101382746Y-76145604D01*
X101565762Y-76200872D01*
X101702297Y-76247681D01*
X102066023Y-76404718D01*
X102404972Y-76599529D01*
X102717033Y-76829752D01*
X103000093Y-77093019D01*
X103252040Y-77386967D01*
X103470763Y-77709230D01*
X103654149Y-78057443D01*
X103800087Y-78429241D01*
X103906464Y-78822259D01*
X103908296Y-78831097D01*
X103927378Y-78960167D01*
X103940943Y-79123019D01*
X103948990Y-79308234D01*
X103951414Y-79496184D01*
X103951520Y-79504394D01*
X103948532Y-79700081D01*
X103940027Y-79883874D01*
X103926004Y-80044357D01*
X103906464Y-80170109D01*
X103818131Y-80506704D01*
X103678852Y-80879612D01*
X103501918Y-81230968D01*
X103471490Y-81277679D01*
X103369359Y-81434465D01*
X103302351Y-81537333D01*
G37*
G36*
X84276944Y-81773585D02*
G01*
X83998078Y-81773585D01*
X83998078Y-80170109D01*
X84276944Y-80170109D01*
X84276944Y-81773585D01*
G37*
G36*
X91248582Y-79356751D02*
G01*
X90969716Y-79356751D01*
X90969716Y-77753274D01*
X91248582Y-77753274D01*
X91248582Y-79356751D01*
G37*
G36*
X94376585Y-81190467D02*
G01*
X94327850Y-81357407D01*
X94251515Y-81504151D01*
X94147963Y-81621822D01*
X94117031Y-81646190D01*
X94025552Y-81705220D01*
X93934421Y-81750361D01*
X93848580Y-81775602D01*
X93703918Y-81793281D01*
X93549715Y-81789705D01*
X93403294Y-81765632D01*
X93281976Y-81721819D01*
X93152049Y-81637323D01*
X93036133Y-81514895D01*
X92952046Y-81361367D01*
X92897484Y-81173453D01*
X92884908Y-81093402D01*
X92881469Y-80960228D01*
X93168990Y-80960228D01*
X93169659Y-81009429D01*
X93191829Y-81187738D01*
X93244887Y-81332851D01*
X93328403Y-81443891D01*
X93441950Y-81519978D01*
X93571032Y-81557604D01*
X93714765Y-81556446D01*
X93852024Y-81512149D01*
X93925397Y-81466479D01*
X94012357Y-81374912D01*
X94069948Y-81254190D01*
X94099541Y-81101025D01*
X94102510Y-80912128D01*
X94096922Y-80825390D01*
X94084855Y-80739599D01*
X94063975Y-80671922D01*
X94030485Y-80606237D01*
X93955375Y-80507579D01*
X93844498Y-80428359D01*
X93708860Y-80388451D01*
X93686146Y-80385773D01*
X93540747Y-80391533D01*
X93415286Y-80437250D01*
X93312573Y-80519952D01*
X93235414Y-80636664D01*
X93186617Y-80784414D01*
X93168990Y-80960228D01*
X92881469Y-80960228D01*
X92879901Y-80899488D01*
X92909424Y-80714161D01*
X92971022Y-80545114D01*
X93062236Y-80400045D01*
X93180611Y-80286649D01*
X93278183Y-80228428D01*
X93436008Y-80172654D01*
X93604904Y-80149913D01*
X93775393Y-80159399D01*
X93938002Y-80200311D01*
X94083254Y-80271846D01*
X94201673Y-80373199D01*
X94287897Y-80498234D01*
X94353377Y-80657213D01*
X94389730Y-80831495D01*
X94393125Y-80912128D01*
X94397339Y-81012204D01*
X94376585Y-81190467D01*
G37*
G36*
X94333102Y-78902289D02*
G01*
X94388677Y-79049880D01*
X94435128Y-79173533D01*
X94470619Y-79268367D01*
X94493318Y-79329500D01*
X94501390Y-79352050D01*
X94484848Y-79354481D01*
X94433282Y-79354634D01*
X94358786Y-79352050D01*
X94215559Y-79345131D01*
X94072095Y-78937527D01*
X93737213Y-78943800D01*
X93402330Y-78950072D01*
X93330534Y-79153345D01*
X93258737Y-79356618D01*
X93113821Y-79356685D01*
X92968905Y-79356751D01*
X93018655Y-79223128D01*
X93022749Y-79212155D01*
X93047611Y-79145872D01*
X93085668Y-79044723D01*
X93134360Y-78915494D01*
X93191130Y-78764972D01*
X93214446Y-78703201D01*
X93502744Y-78703201D01*
X93505547Y-78708610D01*
X93542516Y-78720191D01*
X93623346Y-78727047D01*
X93749238Y-78729303D01*
X93769762Y-78729293D01*
X93872178Y-78728437D01*
X93936813Y-78725268D01*
X93971151Y-78718462D01*
X93982677Y-78706693D01*
X93978874Y-78688636D01*
X93975213Y-78679259D01*
X93956663Y-78628656D01*
X93927351Y-78546702D01*
X93890484Y-78442394D01*
X93849266Y-78324732D01*
X93828922Y-78267402D01*
X93791116Y-78166434D01*
X93759562Y-78089454D01*
X93737090Y-78043160D01*
X93726530Y-78034247D01*
X93724843Y-78039517D01*
X93710027Y-78083289D01*
X93683804Y-78159324D01*
X93649301Y-78258589D01*
X93609644Y-78372048D01*
X93597637Y-78406478D01*
X93560367Y-78515624D01*
X93530241Y-78607305D01*
X93510090Y-78672753D01*
X93502744Y-78703201D01*
X93214446Y-78703201D01*
X93253420Y-78599945D01*
X93318671Y-78427199D01*
X93568938Y-77764894D01*
X93903197Y-77764894D01*
X94201982Y-78555013D01*
X94259296Y-78706693D01*
X94270235Y-78735643D01*
X94333102Y-78902289D01*
G37*
G36*
X78083498Y-77755162D02*
G01*
X78226442Y-77806637D01*
X78233202Y-77810140D01*
X78371799Y-77908248D01*
X78482091Y-78038957D01*
X78561918Y-78196632D01*
X78609126Y-78375636D01*
X78621556Y-78570332D01*
X78597051Y-78775083D01*
X78585538Y-78824549D01*
X78520207Y-79003439D01*
X78424363Y-79147747D01*
X78297007Y-79258694D01*
X78137140Y-79337501D01*
X78120110Y-79343253D01*
X77974309Y-79371799D01*
X77813833Y-79373822D01*
X77656960Y-79350362D01*
X77521968Y-79302461D01*
X77436850Y-79248907D01*
X77341754Y-79165920D01*
X77263886Y-79073776D01*
X77216148Y-78985834D01*
X77206162Y-78950489D01*
X77212929Y-78926267D01*
X77246432Y-78907096D01*
X77315581Y-78883836D01*
X77369152Y-78866974D01*
X77424816Y-78851535D01*
X77453862Y-78850929D01*
X77467303Y-78866136D01*
X77476151Y-78898137D01*
X77506928Y-78959388D01*
X77572893Y-79029228D01*
X77659207Y-79089045D01*
X77752653Y-79127858D01*
X77801069Y-79139145D01*
X77881851Y-79144962D01*
X77968763Y-79128964D01*
X78004332Y-79118770D01*
X78108475Y-79075096D01*
X78186256Y-79011934D01*
X78253239Y-78917727D01*
X78259319Y-78907300D01*
X78285356Y-78857664D01*
X78301977Y-78809636D01*
X78311266Y-78751196D01*
X78315309Y-78670328D01*
X78316194Y-78555013D01*
X78316168Y-78527646D01*
X78314818Y-78420595D01*
X78309884Y-78345456D01*
X78299258Y-78290181D01*
X78280830Y-78242720D01*
X78252493Y-78191024D01*
X78252269Y-78190644D01*
X78163642Y-78078641D01*
X78051222Y-78005873D01*
X77911276Y-77969920D01*
X77843857Y-77965846D01*
X77712352Y-77985394D01*
X77604943Y-78042858D01*
X77524740Y-78136895D01*
X77465687Y-78237662D01*
X77356448Y-78190274D01*
X77317163Y-78172704D01*
X77259792Y-78144806D01*
X77229742Y-78126981D01*
X77226022Y-78111275D01*
X77242561Y-78066523D01*
X77279543Y-78006214D01*
X77329421Y-77940865D01*
X77384651Y-77880993D01*
X77437687Y-77837117D01*
X77457581Y-77824808D01*
X77594386Y-77767138D01*
X77753573Y-77735949D01*
X77921242Y-77731778D01*
X78083498Y-77755162D01*
G37*
G36*
X81813632Y-81773585D02*
G01*
X81554726Y-81773585D01*
X81562175Y-81122881D01*
X81562468Y-81097064D01*
X81564236Y-80930623D01*
X81565617Y-80781261D01*
X81566572Y-80654859D01*
X81567063Y-80557295D01*
X81567050Y-80494447D01*
X81566494Y-80472195D01*
X81565407Y-80474529D01*
X81552567Y-80508783D01*
X81526876Y-80579727D01*
X81490258Y-80681971D01*
X81444641Y-80810127D01*
X81391948Y-80958804D01*
X81334106Y-81122613D01*
X81104849Y-81773014D01*
X80988413Y-81773300D01*
X80871977Y-81773585D01*
X80675683Y-81221664D01*
X80635461Y-81108687D01*
X80581465Y-80957387D01*
X80532496Y-80820577D01*
X80491181Y-80705585D01*
X80460150Y-80619740D01*
X80442032Y-80570369D01*
X80433914Y-80549735D01*
X80424847Y-80532479D01*
X80418108Y-80532165D01*
X80413491Y-80553012D01*
X80410789Y-80599238D01*
X80409796Y-80675060D01*
X80410305Y-80784698D01*
X80412109Y-80932369D01*
X80415002Y-81122290D01*
X80425328Y-81773585D01*
X80163678Y-81773585D01*
X80163678Y-80170109D01*
X80553420Y-80170109D01*
X80716043Y-80640694D01*
X80724187Y-80664290D01*
X80776423Y-80816953D01*
X80826446Y-80965228D01*
X80870972Y-81099244D01*
X80906718Y-81209130D01*
X80930400Y-81285017D01*
X80982134Y-81458755D01*
X81072540Y-81168823D01*
X81079566Y-81146414D01*
X81124364Y-81007183D01*
X81177719Y-80845932D01*
X81233542Y-80680897D01*
X81285745Y-80530310D01*
X81408544Y-80181728D01*
X81611088Y-80175014D01*
X81813632Y-80168299D01*
X81813632Y-81773585D01*
G37*
G36*
X80791125Y-79356751D02*
G01*
X79605947Y-79356751D01*
X79605947Y-79124363D01*
X80535498Y-79124363D01*
X80535498Y-78659587D01*
X79838335Y-78659587D01*
X79838335Y-78427199D01*
X80535498Y-78427199D01*
X80535498Y-77985662D01*
X79629185Y-77985662D01*
X79629185Y-77753274D01*
X80791125Y-77753274D01*
X80791125Y-79356751D01*
G37*
G36*
X83176587Y-79006485D02*
G01*
X83224168Y-79134092D01*
X83261205Y-79233591D01*
X83285781Y-79299841D01*
X83295980Y-79327702D01*
X83289342Y-79343929D01*
X83248363Y-79353754D01*
X83166818Y-79356751D01*
X83027748Y-79356751D01*
X82952333Y-79147602D01*
X82876917Y-78938453D01*
X82214391Y-78938453D01*
X82063559Y-79356751D01*
X81926976Y-79356751D01*
X81866212Y-79354923D01*
X81811268Y-79348601D01*
X81789895Y-79339322D01*
X81797114Y-79315973D01*
X81818989Y-79253824D01*
X81853703Y-79157989D01*
X81899426Y-79033458D01*
X81954323Y-78885221D01*
X82016564Y-78718266D01*
X82020273Y-78708376D01*
X82307616Y-78708376D01*
X82323424Y-78719515D01*
X82362832Y-78725835D01*
X82433465Y-78728657D01*
X82542943Y-78729303D01*
X82623559Y-78728341D01*
X82709288Y-78724704D01*
X82767557Y-78718991D01*
X82788859Y-78711874D01*
X82786202Y-78701415D01*
X82770644Y-78653195D01*
X82743527Y-78573689D01*
X82707567Y-78470802D01*
X82665476Y-78352440D01*
X82542895Y-78010434D01*
X82431825Y-78329201D01*
X82416605Y-78372933D01*
X82377449Y-78485922D01*
X82344304Y-78582248D01*
X82320280Y-78652843D01*
X82308491Y-78688636D01*
X82307786Y-78691095D01*
X82307616Y-78708376D01*
X82020273Y-78708376D01*
X82084316Y-78537583D01*
X82379235Y-77753274D01*
X82708325Y-77754038D01*
X82997199Y-78526346D01*
X83057456Y-78687501D01*
X83066562Y-78711874D01*
X83120378Y-78855908D01*
X83176587Y-79006485D01*
G37*
G36*
X87088838Y-81773585D02*
G01*
X87088838Y-81146138D01*
X86920356Y-81147012D01*
X86751875Y-81147886D01*
X86556167Y-81460735D01*
X86360459Y-81773585D01*
X86213395Y-81773585D01*
X86142778Y-81771701D01*
X86087503Y-81766198D01*
X86066331Y-81758344D01*
X86068799Y-81752076D01*
X86090763Y-81713241D01*
X86131806Y-81646037D01*
X86187462Y-81557705D01*
X86253260Y-81455485D01*
X86282247Y-81410719D01*
X86345676Y-81311518D01*
X86397886Y-81228146D01*
X86434111Y-81168274D01*
X86449581Y-81139574D01*
X86444039Y-81122002D01*
X86408955Y-81084586D01*
X86351328Y-81041563D01*
X86302544Y-81006317D01*
X86215859Y-80911175D01*
X86166406Y-80793983D01*
X86151785Y-80656574D01*
X86424880Y-80656574D01*
X86440361Y-80746989D01*
X86487100Y-80825296D01*
X86564382Y-80879728D01*
X86617586Y-80895037D01*
X86725591Y-80908940D01*
X86867323Y-80913750D01*
X87088838Y-80913750D01*
X87088838Y-80402497D01*
X86850640Y-80402583D01*
X86819682Y-80402672D01*
X86711907Y-80405229D01*
X86636598Y-80412534D01*
X86582457Y-80426227D01*
X86538182Y-80447950D01*
X86490547Y-80486490D01*
X86441370Y-80565819D01*
X86424880Y-80656574D01*
X86151785Y-80656574D01*
X86150905Y-80648307D01*
X86152101Y-80604084D01*
X86173020Y-80480620D01*
X86224557Y-80380459D01*
X86312658Y-80290447D01*
X86337033Y-80271418D01*
X86396125Y-80234962D01*
X86464837Y-80208095D01*
X86550522Y-80189496D01*
X86660532Y-80177845D01*
X86802218Y-80171823D01*
X86982934Y-80170109D01*
X87367703Y-80170109D01*
X87367703Y-81773585D01*
X87088838Y-81773585D01*
G37*
G36*
X102490511Y-80202516D02*
G01*
X102416249Y-80372477D01*
X102336778Y-80524311D01*
X102164268Y-80780698D01*
X101959909Y-81006747D01*
X101727327Y-81199643D01*
X101470151Y-81356571D01*
X101192008Y-81474719D01*
X100896527Y-81551271D01*
X100688824Y-81578589D01*
X100385049Y-81581986D01*
X100089472Y-81543188D01*
X99805794Y-81464559D01*
X99537715Y-81348461D01*
X99288936Y-81197260D01*
X99063157Y-81013318D01*
X98864078Y-80799001D01*
X98695401Y-80556670D01*
X98560826Y-80288692D01*
X98464053Y-79997429D01*
X98452888Y-79950042D01*
X98418367Y-79729204D01*
X98405583Y-79502502D01*
X98833431Y-79502502D01*
X98850113Y-79524406D01*
X98884666Y-79551570D01*
X98924876Y-79572927D01*
X98958449Y-79577553D01*
X99014012Y-79563934D01*
X99058838Y-79548015D01*
X99074181Y-79564274D01*
X99056546Y-79612882D01*
X99040675Y-79656617D01*
X99052486Y-79689854D01*
X99097359Y-79695274D01*
X99171705Y-79671063D01*
X99233011Y-79646726D01*
X99271903Y-79643402D01*
X99302951Y-79660621D01*
X99327755Y-79676007D01*
X99355826Y-79669115D01*
X99395325Y-79629051D01*
X99401759Y-79621767D01*
X99444116Y-79582083D01*
X99474817Y-79565900D01*
X99503607Y-79557765D01*
X99551458Y-79532216D01*
X99558980Y-79527834D01*
X99606384Y-79508796D01*
X99669085Y-79490700D01*
X99732214Y-79476918D01*
X99780902Y-79470822D01*
X99800280Y-79475784D01*
X99794338Y-79499368D01*
X99778206Y-79555420D01*
X99755483Y-79631291D01*
X99741129Y-79672912D01*
X99683264Y-79796495D01*
X99610477Y-79910156D01*
X99562822Y-79972148D01*
X99515968Y-80028555D01*
X99481683Y-80060017D01*
X99451516Y-80073836D01*
X99417017Y-80077314D01*
X99399380Y-80079625D01*
X99352080Y-80098138D01*
X99308113Y-80127119D01*
X99280547Y-80156836D01*
X99282449Y-80177554D01*
X99330621Y-80193099D01*
X99408935Y-80202606D01*
X99498033Y-80204093D01*
X99579858Y-80196415D01*
X99647625Y-80176565D01*
X99768486Y-80111814D01*
X99907892Y-80006323D01*
X100064851Y-79860779D01*
X100224670Y-79701021D01*
X100360047Y-79834986D01*
X100394025Y-79869234D01*
X100453073Y-79935315D01*
X100477759Y-79977879D01*
X100469606Y-80000672D01*
X100430135Y-80007437D01*
X100427490Y-80007510D01*
X100386703Y-80021930D01*
X100348647Y-80052396D01*
X100325901Y-80085942D01*
X100331044Y-80109598D01*
X100357255Y-80114241D01*
X100418135Y-80114215D01*
X100497242Y-80108384D01*
X100517562Y-80106235D01*
X100589134Y-80096240D01*
X100631862Y-80080189D01*
X100660130Y-80049631D01*
X100688320Y-79996114D01*
X100735561Y-79898878D01*
X100686307Y-79787532D01*
X100668302Y-79745342D01*
X100645833Y-79686809D01*
X100637054Y-79654827D01*
X100657520Y-79645101D01*
X100712448Y-79639826D01*
X100789758Y-79640352D01*
X100942462Y-79647236D01*
X100946620Y-79844661D01*
X100950777Y-80042086D01*
X100851551Y-80055434D01*
X100807946Y-80062625D01*
X100742314Y-80082777D01*
X100717971Y-80106094D01*
X100731759Y-80129532D01*
X100780523Y-80150044D01*
X100861109Y-80164585D01*
X100970359Y-80170109D01*
X101114729Y-80170109D01*
X101232472Y-80036345D01*
X101304036Y-79960868D01*
X101382628Y-79887385D01*
X101449312Y-79833908D01*
X101548408Y-79765235D01*
X101595625Y-79830054D01*
X101645273Y-79882407D01*
X101728159Y-79928183D01*
X101845471Y-79958743D01*
X101894299Y-79973315D01*
X101924105Y-80001693D01*
X101910327Y-80032709D01*
X101852425Y-80058615D01*
X101819482Y-80068486D01*
X101771887Y-80094113D01*
X101768629Y-80120975D01*
X101810727Y-80146913D01*
X101870230Y-80164171D01*
X101968032Y-80162470D01*
X102066278Y-80117821D01*
X102120478Y-80073764D01*
X102143022Y-80024680D01*
X102132033Y-79962108D01*
X102088451Y-79875775D01*
X102083165Y-79866477D01*
X102036975Y-79749210D01*
X102008482Y-79594868D01*
X102008023Y-79590944D01*
X101992779Y-79488175D01*
X101973122Y-79390361D01*
X101953184Y-79318184D01*
X101944151Y-79290957D01*
X101930798Y-79236398D01*
X101931370Y-79208882D01*
X101940008Y-79193201D01*
X101933318Y-79143338D01*
X101897734Y-79076325D01*
X101839270Y-78998920D01*
X101763941Y-78917883D01*
X101677758Y-78839973D01*
X101586737Y-78771946D01*
X101496889Y-78720563D01*
X101468864Y-78707663D01*
X101393610Y-78677241D01*
X101324934Y-78659883D01*
X101245179Y-78652161D01*
X101136688Y-78650650D01*
X101126794Y-78650704D01*
X100995246Y-78653924D01*
X100851304Y-78660948D01*
X100724399Y-78670367D01*
X100643763Y-78677320D01*
X100567307Y-78680062D01*
X100508372Y-78673695D01*
X100450746Y-78656099D01*
X100378217Y-78625159D01*
X100346802Y-78611392D01*
X100264558Y-78581530D01*
X100195355Y-78570632D01*
X100118847Y-78574743D01*
X100086206Y-78579767D01*
X99994836Y-78602771D01*
X99918917Y-78632940D01*
X99906766Y-78639370D01*
X99838390Y-78675139D01*
X99748855Y-78721571D01*
X99654263Y-78770308D01*
X99624211Y-78785951D01*
X99539396Y-78832409D01*
X99471142Y-78873058D01*
X99432016Y-78900536D01*
X99428506Y-78903666D01*
X99392082Y-78924609D01*
X99361601Y-78909087D01*
X99352505Y-78901301D01*
X99325183Y-78898532D01*
X99289753Y-78932502D01*
X99279713Y-78944085D01*
X99235815Y-78972692D01*
X99175209Y-78970265D01*
X99136715Y-78964372D01*
X99109382Y-78972439D01*
X99103293Y-79006205D01*
X99103205Y-79009349D01*
X99087821Y-79063662D01*
X99054015Y-79123182D01*
X99053771Y-79123512D01*
X99016633Y-79191816D01*
X98996280Y-79262461D01*
X98984713Y-79303817D01*
X98953694Y-79367003D01*
X98913044Y-79429447D01*
X98872099Y-79477168D01*
X98840197Y-79496183D01*
X98833431Y-79502502D01*
X98405583Y-79502502D01*
X98404904Y-79490458D01*
X98412923Y-79253053D01*
X98442849Y-79036238D01*
X98522109Y-78756554D01*
X98645020Y-78481556D01*
X98805830Y-78225910D01*
X99000450Y-77996089D01*
X99224791Y-77798566D01*
X99376047Y-77694205D01*
X99642701Y-77551433D01*
X99920039Y-77449811D01*
X100203954Y-77388430D01*
X100490339Y-77366379D01*
X100775084Y-77382748D01*
X101054084Y-77436629D01*
X101323230Y-77527111D01*
X101578415Y-77653285D01*
X101815530Y-77814242D01*
X102030469Y-78009071D01*
X102219123Y-78236863D01*
X102377385Y-78496708D01*
X102447619Y-78643231D01*
X102529664Y-78861131D01*
X102581478Y-79079465D01*
X102605947Y-79311809D01*
X102605957Y-79571744D01*
X102598271Y-79707115D01*
X102577698Y-79885975D01*
X102547618Y-80024680D01*
X102543053Y-80045729D01*
X102490511Y-80202516D01*
G37*
G36*
X89247673Y-81060568D02*
G01*
X89219188Y-81263139D01*
X89158080Y-81433063D01*
X89063861Y-81571140D01*
X88936042Y-81678173D01*
X88774136Y-81754961D01*
X88683718Y-81778300D01*
X88529038Y-81794028D01*
X88368924Y-81786980D01*
X88224397Y-81757077D01*
X88157481Y-81730769D01*
X88067123Y-81674836D01*
X87969823Y-81588367D01*
X87954748Y-81573180D01*
X87871294Y-81476268D01*
X87813015Y-81377359D01*
X87776144Y-81265611D01*
X87756914Y-81130181D01*
X87753345Y-81016943D01*
X88031481Y-81016943D01*
X88040407Y-81144242D01*
X88062045Y-81245493D01*
X88103864Y-81335091D01*
X88193089Y-81444256D01*
X88307913Y-81520755D01*
X88308599Y-81521066D01*
X88442995Y-81558878D01*
X88579947Y-81556457D01*
X88708341Y-81515609D01*
X88817066Y-81438135D01*
X88826906Y-81427959D01*
X88906822Y-81308728D01*
X88955032Y-81156333D01*
X88971180Y-80971847D01*
X88967256Y-80886081D01*
X88953615Y-80779693D01*
X88933409Y-80694983D01*
X88892614Y-80605382D01*
X88809875Y-80502280D01*
X88706059Y-80430851D01*
X88588877Y-80391261D01*
X88466040Y-80383673D01*
X88345261Y-80408253D01*
X88234251Y-80465163D01*
X88140723Y-80554569D01*
X88072387Y-80676635D01*
X88050416Y-80758320D01*
X88034929Y-80882125D01*
X88031481Y-81016943D01*
X87753345Y-81016943D01*
X87751558Y-80960228D01*
X87752452Y-80867250D01*
X87757024Y-80777118D01*
X87767723Y-80707812D01*
X87787010Y-80644877D01*
X87817346Y-80573857D01*
X87898250Y-80434032D01*
X88018968Y-80305371D01*
X88169442Y-80211941D01*
X88236121Y-80185332D01*
X88305387Y-80168860D01*
X88391037Y-80160707D01*
X88508047Y-80158507D01*
X88584340Y-80159038D01*
X88671252Y-80163269D01*
X88737199Y-80174281D01*
X88797527Y-80195066D01*
X88867585Y-80228618D01*
X88995064Y-80310904D01*
X89108044Y-80430615D01*
X89187567Y-80579752D01*
X89234584Y-80760164D01*
X89249911Y-80971847D01*
X89250045Y-80973703D01*
X89247673Y-81060568D01*
G37*
G36*
X95397246Y-77733655D02*
G01*
X95553044Y-77762053D01*
X95572807Y-77768176D01*
X95719491Y-77839946D01*
X95844481Y-77948791D01*
X95943844Y-78089316D01*
X96013645Y-78256122D01*
X96049951Y-78443814D01*
X96052223Y-78641279D01*
X96019253Y-78833484D01*
X95951957Y-79003134D01*
X95852547Y-79146152D01*
X95723236Y-79258457D01*
X95566234Y-79335970D01*
X95565722Y-79336147D01*
X95388604Y-79374284D01*
X95205927Y-79372149D01*
X95029300Y-79331130D01*
X94870335Y-79252620D01*
X94814736Y-79206187D01*
X94753184Y-79138884D01*
X94697445Y-79064864D01*
X94657030Y-78996806D01*
X94641445Y-78947390D01*
X94652059Y-78931083D01*
X94693833Y-78905711D01*
X94753558Y-78881393D01*
X94816358Y-78863072D01*
X94867360Y-78855694D01*
X94891688Y-78864204D01*
X94912199Y-78909882D01*
X94980766Y-78998749D01*
X95074117Y-79074730D01*
X95178366Y-79127684D01*
X95279626Y-79147472D01*
X95367686Y-79139146D01*
X95490365Y-79102353D01*
X95590422Y-79042670D01*
X95609421Y-79025325D01*
X95683850Y-78922989D01*
X95734672Y-78793026D01*
X95761537Y-78645859D01*
X95764093Y-78491911D01*
X95741989Y-78341606D01*
X95694874Y-78205366D01*
X95622397Y-78093613D01*
X95583734Y-78058005D01*
X95481736Y-78002367D01*
X95360565Y-77971150D01*
X95235499Y-77967389D01*
X95121819Y-77994122D01*
X95108634Y-78000230D01*
X95044459Y-78043311D01*
X94983584Y-78101338D01*
X94938153Y-78161291D01*
X94920311Y-78210150D01*
X94918037Y-78226074D01*
X94902106Y-78237416D01*
X94888667Y-78231705D01*
X94840577Y-78211288D01*
X94774380Y-78183192D01*
X94734841Y-78164336D01*
X94684496Y-78131879D01*
X94664771Y-78106043D01*
X94672133Y-78072759D01*
X94709784Y-78006657D01*
X94770741Y-77933745D01*
X94845249Y-77865112D01*
X94923555Y-77811848D01*
X94936067Y-77805290D01*
X95072633Y-77756549D01*
X95231734Y-77732246D01*
X95397246Y-77733655D01*
G37*
G36*
X83858646Y-79356751D02*
G01*
X83579780Y-79356751D01*
X83579780Y-77753274D01*
X83858646Y-77753274D01*
X83858646Y-79356751D01*
G37*
G36*
X95421734Y-80159305D02*
G01*
X95581449Y-80197949D01*
X95723380Y-80264467D01*
X95837042Y-80357750D01*
X95910859Y-80453147D01*
X95992085Y-80609883D01*
X96040876Y-80779153D01*
X96058465Y-80954313D01*
X96046082Y-81128719D01*
X96004960Y-81295725D01*
X95936329Y-81448687D01*
X95841423Y-81580960D01*
X95721472Y-81685899D01*
X95577707Y-81756859D01*
X95481151Y-81780007D01*
X95332788Y-81793623D01*
X95180317Y-81787860D01*
X95045517Y-81762489D01*
X94986312Y-81740227D01*
X94866725Y-81669304D01*
X94761684Y-81574863D01*
X94687121Y-81469910D01*
X94675924Y-81447278D01*
X94651276Y-81391131D01*
X94641445Y-81358080D01*
X94651620Y-81343785D01*
X94693303Y-81320571D01*
X94753297Y-81298025D01*
X94816456Y-81280813D01*
X94867635Y-81273596D01*
X94891688Y-81281038D01*
X94907382Y-81314635D01*
X94951974Y-81381912D01*
X95008011Y-81449757D01*
X95061111Y-81499613D01*
X95146448Y-81539764D01*
X95257514Y-81558410D01*
X95375294Y-81553339D01*
X95482406Y-81523562D01*
X95523391Y-81503004D01*
X95622788Y-81423789D01*
X95696742Y-81311392D01*
X95748728Y-81161084D01*
X95764858Y-81074916D01*
X95769532Y-80915270D01*
X95743825Y-80763186D01*
X95690585Y-80627380D01*
X95612661Y-80516566D01*
X95512900Y-80439459D01*
X95479352Y-80424427D01*
X95375004Y-80397765D01*
X95261321Y-80390175D01*
X95155430Y-80401902D01*
X95074459Y-80433189D01*
X95061655Y-80442506D01*
X95003956Y-80500186D01*
X94949308Y-80573636D01*
X94914460Y-80641093D01*
X94896590Y-80644631D01*
X94850403Y-80632327D01*
X94790131Y-80608546D01*
X94729763Y-80579488D01*
X94683285Y-80551355D01*
X94664684Y-80530349D01*
X94671441Y-80502193D01*
X94704829Y-80441372D01*
X94757206Y-80371568D01*
X94818514Y-80305654D01*
X94878693Y-80256502D01*
X94940727Y-80221691D01*
X95090888Y-80170068D01*
X95254718Y-80149642D01*
X95421734Y-80159305D01*
G37*
G36*
X84556865Y-79019788D02*
G01*
X84632081Y-78880356D01*
X84650270Y-78847687D01*
X84696669Y-78767453D01*
X84760223Y-78659785D01*
X84836468Y-78532177D01*
X84920942Y-78392123D01*
X85009183Y-78247114D01*
X85311070Y-77753304D01*
X85624794Y-77753274D01*
X85624794Y-79356751D01*
X85363083Y-79356751D01*
X85373528Y-78718104D01*
X85383974Y-78079458D01*
X85287546Y-78259138D01*
X85276795Y-78278854D01*
X85228726Y-78363557D01*
X85162981Y-78476053D01*
X85084799Y-78607510D01*
X84999421Y-78749095D01*
X84912089Y-78891975D01*
X84633058Y-79345131D01*
X84466620Y-79351959D01*
X84300183Y-79358787D01*
X84300183Y-77753274D01*
X84555809Y-77753274D01*
X84556865Y-79019788D01*
G37*
%TO.C,REF\u002A\u002A*%
X61104300Y-60291500D02*
X61104300Y-71213500D01*
X46905700Y-71213500D02*
X46905700Y-60291500D01*
X61104300Y-71213500D02*
X46905700Y-71213500D01*
X46905700Y-60291500D02*
X61104300Y-60291500D01*
X46778700Y-63212500D02*
X45508700Y-62577500D01*
X45508700Y-62577500D02*
X45508700Y-63847500D01*
X45508700Y-63847500D02*
X46778700Y-63212500D01*
X46728600Y-81400000D02*
X45458600Y-80765000D01*
X45458600Y-82035000D02*
X46728600Y-81400000D01*
X61054200Y-89401000D02*
X46855600Y-89401000D01*
X46855600Y-89401000D02*
X46855600Y-78479000D01*
X61054200Y-78479000D02*
X61054200Y-89401000D01*
X45458600Y-80765000D02*
X45458600Y-82035000D01*
X46855600Y-78479000D02*
X61054200Y-78479000D01*
%TO.C,G\u002A\u002A\u002A*%
G36*
X83150079Y-36660607D02*
G01*
X83271432Y-36672519D01*
X83371583Y-36690756D01*
X83493102Y-36727408D01*
X83644376Y-36796425D01*
X83771472Y-36885392D01*
X83874110Y-36994055D01*
X83952015Y-37122161D01*
X84004910Y-37269457D01*
X84009285Y-37288476D01*
X84016076Y-37330616D01*
X84021210Y-37384663D01*
X84024864Y-37454552D01*
X84027216Y-37544218D01*
X84028441Y-37657597D01*
X84028718Y-37798624D01*
X84028480Y-37897894D01*
X84027366Y-38023068D01*
X84024914Y-38123823D01*
X84020643Y-38204459D01*
X84014074Y-38269274D01*
X84004726Y-38322567D01*
X83992118Y-38368639D01*
X83975770Y-38411787D01*
X83955200Y-38456311D01*
X83950856Y-38465051D01*
X83915591Y-38527155D01*
X83872883Y-38586368D01*
X83820100Y-38644757D01*
X83754613Y-38704390D01*
X83673790Y-38767335D01*
X83575001Y-38835660D01*
X83455615Y-38911434D01*
X83313000Y-38996725D01*
X83144527Y-39093601D01*
X83103328Y-39117133D01*
X83000472Y-39177439D01*
X82908241Y-39233712D01*
X82830939Y-39283225D01*
X82772866Y-39323250D01*
X82738327Y-39351062D01*
X82733141Y-39356159D01*
X82696805Y-39395917D01*
X82669344Y-39436891D01*
X82649560Y-39484135D01*
X82636257Y-39542705D01*
X82628237Y-39617656D01*
X82624304Y-39714043D01*
X82623258Y-39836922D01*
X82623259Y-39847461D01*
X82623473Y-39945332D01*
X82624546Y-40017875D01*
X82627159Y-40070825D01*
X82631998Y-40109915D01*
X82639745Y-40140879D01*
X82651084Y-40169452D01*
X82666697Y-40201366D01*
X82706316Y-40261905D01*
X82778053Y-40323719D01*
X82869256Y-40361318D01*
X82978669Y-40374005D01*
X83060891Y-40367120D01*
X83157028Y-40336035D01*
X83234031Y-40280552D01*
X83290640Y-40201366D01*
X83334079Y-40115604D01*
X83334079Y-39363060D01*
X84029104Y-39363060D01*
X84029104Y-39820367D01*
X84028904Y-39900389D01*
X84027549Y-40035256D01*
X84025009Y-40152205D01*
X84021395Y-40247820D01*
X84016820Y-40318684D01*
X84011395Y-40361381D01*
X83987846Y-40449595D01*
X83927529Y-40586631D01*
X83842588Y-40704107D01*
X83733344Y-40801762D01*
X83600117Y-40879333D01*
X83443228Y-40936559D01*
X83262997Y-40973178D01*
X83207178Y-40978995D01*
X83101255Y-40983929D01*
X82981554Y-40983981D01*
X82857121Y-40979533D01*
X82737003Y-40970966D01*
X82630244Y-40958659D01*
X82545891Y-40942995D01*
X82513718Y-40934667D01*
X82359407Y-40880066D01*
X82229657Y-40806538D01*
X82122950Y-40712805D01*
X82037771Y-40597588D01*
X81972602Y-40459608D01*
X81971170Y-40455734D01*
X81961778Y-40428296D01*
X81954251Y-40400096D01*
X81948328Y-40367278D01*
X81943750Y-40325991D01*
X81940254Y-40272380D01*
X81937580Y-40202591D01*
X81935468Y-40112772D01*
X81933658Y-39999069D01*
X81931888Y-39857628D01*
X81930883Y-39762114D01*
X81930146Y-39618911D01*
X81931049Y-39501340D01*
X81934013Y-39405628D01*
X81939459Y-39328003D01*
X81947806Y-39264691D01*
X81959475Y-39211920D01*
X81974887Y-39165917D01*
X81994461Y-39122908D01*
X82018619Y-39079121D01*
X82034573Y-39052980D01*
X82079286Y-38990097D01*
X82133058Y-38929199D01*
X82198714Y-38868153D01*
X82279075Y-38804829D01*
X82376966Y-38737094D01*
X82495209Y-38662818D01*
X82636628Y-38579868D01*
X82804046Y-38486114D01*
X82919213Y-38421323D01*
X83039525Y-38349132D01*
X83134964Y-38285376D01*
X83207966Y-38228104D01*
X83260968Y-38175365D01*
X83296406Y-38125209D01*
X83316718Y-38075684D01*
X83318763Y-38066845D01*
X83325288Y-38016108D01*
X83329913Y-37943659D01*
X83332631Y-37857104D01*
X83333433Y-37764048D01*
X83332312Y-37672099D01*
X83329261Y-37588863D01*
X83324270Y-37521945D01*
X83317333Y-37478953D01*
X83313630Y-37467469D01*
X83287934Y-37414312D01*
X83253763Y-37365755D01*
X83253186Y-37365101D01*
X83187041Y-37312552D01*
X83103034Y-37278427D01*
X83009224Y-37263206D01*
X82913668Y-37267369D01*
X82824424Y-37291393D01*
X82749550Y-37335760D01*
X82732023Y-37350828D01*
X82705357Y-37376894D01*
X82684836Y-37404688D01*
X82669535Y-37438476D01*
X82658533Y-37482524D01*
X82650906Y-37541099D01*
X82645733Y-37618466D01*
X82642090Y-37718892D01*
X82639054Y-37846642D01*
X82631156Y-38217849D01*
X81936131Y-38217849D01*
X81936891Y-37791356D01*
X81937199Y-37706020D01*
X81938766Y-37572668D01*
X81942152Y-37464028D01*
X81947973Y-37375665D01*
X81956844Y-37303147D01*
X81969379Y-37242040D01*
X81986193Y-37187909D01*
X82007900Y-37136321D01*
X82035116Y-37082842D01*
X82037541Y-37078401D01*
X82112995Y-36972095D01*
X82214194Y-36876091D01*
X82336239Y-36793719D01*
X82474227Y-36728310D01*
X82623258Y-36683193D01*
X82648032Y-36678186D01*
X82756499Y-36663810D01*
X82882843Y-36656154D01*
X83017293Y-36655120D01*
X83150079Y-36660607D01*
G37*
G36*
X81249005Y-40942662D02*
G01*
X80538184Y-40942662D01*
X80538184Y-36693533D01*
X81249005Y-36693533D01*
X81249005Y-40942662D01*
G37*
G36*
X79081001Y-40938557D02*
G01*
X78988700Y-40937630D01*
X78837647Y-40935945D01*
X78713041Y-40934194D01*
X78611524Y-40932206D01*
X78529738Y-40929814D01*
X78464326Y-40926847D01*
X78411929Y-40923137D01*
X78369189Y-40918515D01*
X78332748Y-40912811D01*
X78299250Y-40905857D01*
X78265335Y-40897483D01*
X78192075Y-40876150D01*
X78036129Y-40811893D01*
X77904108Y-40728406D01*
X77796788Y-40626242D01*
X77714945Y-40505954D01*
X77710790Y-40498171D01*
X77694799Y-40468019D01*
X77680724Y-40439740D01*
X77668442Y-40411243D01*
X77657831Y-40380437D01*
X77648769Y-40345229D01*
X77641134Y-40303529D01*
X77634803Y-40253244D01*
X77629655Y-40192283D01*
X77625568Y-40118554D01*
X77622419Y-40029966D01*
X77620086Y-39924427D01*
X77618447Y-39799846D01*
X77617379Y-39654131D01*
X77616762Y-39485190D01*
X77616472Y-39290932D01*
X77616388Y-39069265D01*
X77616387Y-38818097D01*
X78327435Y-38818097D01*
X78327441Y-38929228D01*
X78327511Y-39143721D01*
X78327698Y-39329788D01*
X78328051Y-39489586D01*
X78328615Y-39625268D01*
X78329440Y-39738989D01*
X78330573Y-39832905D01*
X78332061Y-39909170D01*
X78333953Y-39969940D01*
X78336295Y-40017368D01*
X78339135Y-40053611D01*
X78342521Y-40080823D01*
X78346501Y-40101158D01*
X78351122Y-40116772D01*
X78356432Y-40129820D01*
X78398087Y-40195941D01*
X78465242Y-40257035D01*
X78544427Y-40294330D01*
X78551308Y-40295938D01*
X78595459Y-40301716D01*
X78661485Y-40306405D01*
X78741662Y-40309560D01*
X78828265Y-40310733D01*
X79053358Y-40310821D01*
X79053358Y-37325373D01*
X78828265Y-37325462D01*
X78805799Y-37325549D01*
X78720112Y-37327275D01*
X78642838Y-37330867D01*
X78581701Y-37335879D01*
X78544427Y-37341865D01*
X78475471Y-37372536D01*
X78406174Y-37430848D01*
X78356432Y-37506374D01*
X78353850Y-37512318D01*
X78348869Y-37526303D01*
X78344555Y-37543865D01*
X78340860Y-37567161D01*
X78337736Y-37598345D01*
X78335136Y-37639571D01*
X78333011Y-37692995D01*
X78331315Y-37760772D01*
X78330000Y-37845056D01*
X78329018Y-37948003D01*
X78328321Y-38071768D01*
X78327862Y-38218504D01*
X78327593Y-38390368D01*
X78327466Y-38589514D01*
X78327435Y-38818097D01*
X77616387Y-38818097D01*
X77616386Y-38766336D01*
X77616397Y-38521096D01*
X77616518Y-38304950D01*
X77616869Y-38115809D01*
X77617569Y-37951585D01*
X77618738Y-37810190D01*
X77620497Y-37689535D01*
X77622964Y-37587533D01*
X77626259Y-37502095D01*
X77630503Y-37431132D01*
X77635815Y-37372557D01*
X77642315Y-37324281D01*
X77650122Y-37284216D01*
X77659356Y-37250273D01*
X77670137Y-37220365D01*
X77682586Y-37192403D01*
X77696820Y-37164298D01*
X77712961Y-37133963D01*
X77717979Y-37124830D01*
X77776122Y-37040872D01*
X77852351Y-36957514D01*
X77936892Y-36884399D01*
X78019969Y-36831167D01*
X78047299Y-36817675D01*
X78112276Y-36788929D01*
X78179326Y-36764847D01*
X78251728Y-36745043D01*
X78332759Y-36729129D01*
X78425695Y-36716719D01*
X78533815Y-36707424D01*
X78660396Y-36700859D01*
X78808714Y-36696635D01*
X78982048Y-36694365D01*
X79183675Y-36693662D01*
X79764179Y-36693533D01*
X79764179Y-40945270D01*
X79081001Y-40938557D01*
G37*
G36*
X90275529Y-36693604D02*
G01*
X90359407Y-36694095D01*
X90419773Y-36695419D01*
X90460667Y-36697993D01*
X90486129Y-36702231D01*
X90500200Y-36708547D01*
X90506921Y-36717356D01*
X90510332Y-36729074D01*
X90511117Y-36733169D01*
X90516405Y-36764684D01*
X90526058Y-36824400D01*
X90539733Y-36910119D01*
X90557083Y-37019645D01*
X90577763Y-37150780D01*
X90601427Y-37301328D01*
X90627731Y-37469093D01*
X90656327Y-37651878D01*
X90686872Y-37847485D01*
X90719019Y-38053718D01*
X90752423Y-38268380D01*
X90766197Y-38356872D01*
X90799015Y-38566924D01*
X90830432Y-38766906D01*
X90860106Y-38954703D01*
X90887696Y-39128199D01*
X90912861Y-39285279D01*
X90935259Y-39423828D01*
X90954549Y-39541731D01*
X90970389Y-39636872D01*
X90982440Y-39707136D01*
X90990358Y-39750407D01*
X90993804Y-39764571D01*
X90994906Y-39760356D01*
X91000598Y-39729535D01*
X91010623Y-39670661D01*
X91024640Y-39585859D01*
X91042310Y-39477256D01*
X91063291Y-39346978D01*
X91087243Y-39197151D01*
X91113826Y-39029902D01*
X91142699Y-38847358D01*
X91173522Y-38651644D01*
X91205954Y-38444887D01*
X91239655Y-38229213D01*
X91477931Y-36701431D01*
X91836789Y-36697185D01*
X91951530Y-36696189D01*
X92046943Y-36696346D01*
X92116236Y-36697888D01*
X92162236Y-36700932D01*
X92187764Y-36705596D01*
X92195646Y-36711994D01*
X92194969Y-36716705D01*
X92189381Y-36748599D01*
X92178431Y-36808851D01*
X92162455Y-36895649D01*
X92141792Y-37007184D01*
X92116780Y-37141644D01*
X92087759Y-37297220D01*
X92055066Y-37472099D01*
X92019039Y-37664472D01*
X91980017Y-37872528D01*
X91938339Y-38094457D01*
X91894342Y-38328446D01*
X91848365Y-38572687D01*
X91800746Y-38825367D01*
X91777327Y-38949588D01*
X91730485Y-39198174D01*
X91685448Y-39437342D01*
X91642554Y-39665289D01*
X91602142Y-39880214D01*
X91564549Y-40080314D01*
X91530112Y-40263788D01*
X91499171Y-40428832D01*
X91472063Y-40573645D01*
X91449126Y-40696426D01*
X91430698Y-40795371D01*
X91417116Y-40868679D01*
X91408719Y-40914547D01*
X91405845Y-40931174D01*
X91395868Y-40933738D01*
X91358300Y-40936622D01*
X91296795Y-40939080D01*
X91215581Y-40940988D01*
X91118888Y-40942223D01*
X91010945Y-40942662D01*
X90922823Y-40942373D01*
X90823661Y-40941283D01*
X90739173Y-40939500D01*
X90673588Y-40937144D01*
X90631135Y-40934340D01*
X90616044Y-40931210D01*
X90615355Y-40926874D01*
X90609746Y-40895774D01*
X90598779Y-40836311D01*
X90582791Y-40750288D01*
X90562121Y-40639505D01*
X90537106Y-40505766D01*
X90508085Y-40350873D01*
X90475395Y-40176628D01*
X90439374Y-39984832D01*
X90400361Y-39777289D01*
X90358694Y-39555800D01*
X90314710Y-39322168D01*
X90268747Y-39078194D01*
X90221144Y-38825681D01*
X90197999Y-38702918D01*
X90151127Y-38454096D01*
X90106061Y-38214589D01*
X90063137Y-37986205D01*
X90022696Y-37770756D01*
X89985075Y-37570053D01*
X89950612Y-37385907D01*
X89919647Y-37220128D01*
X89892517Y-37074526D01*
X89869561Y-36950914D01*
X89851117Y-36851101D01*
X89837524Y-36776899D01*
X89829120Y-36730118D01*
X89826243Y-36712569D01*
X89829778Y-36707994D01*
X89850110Y-36702372D01*
X89890943Y-36698271D01*
X89955047Y-36695534D01*
X90045192Y-36694007D01*
X90164145Y-36693533D01*
X90275529Y-36693604D01*
G37*
G36*
X76889303Y-40942662D02*
G01*
X75009577Y-40942662D01*
X75009577Y-40310821D01*
X76178482Y-40310821D01*
X76178482Y-39094528D01*
X75214925Y-39094528D01*
X75214925Y-38478483D01*
X76178482Y-38478483D01*
X76178482Y-37325373D01*
X75025373Y-37325373D01*
X75025373Y-36693533D01*
X76889303Y-36693533D01*
X76889303Y-40942662D01*
G37*
G36*
X89320771Y-40942662D02*
G01*
X87441044Y-40942662D01*
X87441044Y-40310821D01*
X88626121Y-40310821D01*
X88621985Y-39706623D01*
X88617848Y-39102426D01*
X88132120Y-39098248D01*
X87646393Y-39094071D01*
X87646393Y-38478483D01*
X88625746Y-38478483D01*
X88625746Y-37325373D01*
X87456173Y-37325373D01*
X87460455Y-37013402D01*
X87464738Y-36701431D01*
X88392755Y-36697355D01*
X89320771Y-36693280D01*
X89320771Y-40942662D01*
G37*
G36*
X93427736Y-40942662D02*
G01*
X92716915Y-40942662D01*
X92716915Y-36693533D01*
X93427736Y-36693533D01*
X93427736Y-40942662D01*
G37*
G36*
X95623383Y-40942662D02*
G01*
X95623383Y-39252488D01*
X95277626Y-39252488D01*
X95221753Y-39430193D01*
X95214720Y-39452505D01*
X95193656Y-39519039D01*
X95164965Y-39609415D01*
X95129987Y-39719416D01*
X95090065Y-39844825D01*
X95046541Y-39981426D01*
X95000757Y-40125000D01*
X94954056Y-40271331D01*
X94742231Y-40934764D01*
X94385108Y-40939010D01*
X94342402Y-40939482D01*
X94232753Y-40940193D01*
X94150347Y-40939704D01*
X94091926Y-40937868D01*
X94054231Y-40934537D01*
X94034003Y-40929562D01*
X94027985Y-40922797D01*
X94031280Y-40909973D01*
X94043823Y-40869253D01*
X94064893Y-40803548D01*
X94093594Y-40715574D01*
X94129031Y-40608047D01*
X94170306Y-40483683D01*
X94216525Y-40345199D01*
X94266792Y-40195310D01*
X94320211Y-40036732D01*
X94364330Y-39905894D01*
X94415183Y-39754689D01*
X94462154Y-39614593D01*
X94504351Y-39488294D01*
X94540879Y-39378479D01*
X94570846Y-39287835D01*
X94593356Y-39219051D01*
X94607518Y-39174813D01*
X94612437Y-39157809D01*
X94610281Y-39152962D01*
X94589297Y-39133391D01*
X94553202Y-39108967D01*
X94471281Y-39054086D01*
X94366284Y-38958586D01*
X94282765Y-38844877D01*
X94216163Y-38707525D01*
X94213140Y-38699835D01*
X94203984Y-38675057D01*
X94196566Y-38650166D01*
X94190666Y-38621664D01*
X94186064Y-38586054D01*
X94182541Y-38539839D01*
X94179876Y-38479520D01*
X94177850Y-38401600D01*
X94176244Y-38302582D01*
X94174837Y-38178968D01*
X94173409Y-38027260D01*
X94173015Y-37980908D01*
X94881664Y-37980908D01*
X94881757Y-38072157D01*
X94882341Y-38179817D01*
X94883683Y-38262919D01*
X94886038Y-38325617D01*
X94889660Y-38372065D01*
X94894802Y-38406417D01*
X94901717Y-38432824D01*
X94910661Y-38455442D01*
X94952316Y-38521563D01*
X95019471Y-38582657D01*
X95098656Y-38619952D01*
X95107896Y-38622006D01*
X95153715Y-38627624D01*
X95221081Y-38632171D01*
X95302478Y-38635222D01*
X95390391Y-38636355D01*
X95623383Y-38636443D01*
X95623383Y-37325373D01*
X95390391Y-37325462D01*
X95387980Y-37325463D01*
X95274485Y-37326778D01*
X95187024Y-37331216D01*
X95120211Y-37339787D01*
X95068658Y-37353496D01*
X95026978Y-37373351D01*
X94989785Y-37400358D01*
X94961446Y-37425666D01*
X94936762Y-37453383D01*
X94917746Y-37485140D01*
X94903667Y-37524873D01*
X94893792Y-37576517D01*
X94887386Y-37644008D01*
X94883718Y-37731279D01*
X94882055Y-37842268D01*
X94881664Y-37980908D01*
X94173015Y-37980908D01*
X94172696Y-37943339D01*
X94171816Y-37799755D01*
X94171716Y-37682459D01*
X94172499Y-37587935D01*
X94174263Y-37512669D01*
X94177108Y-37453144D01*
X94181135Y-37405845D01*
X94186443Y-37367257D01*
X94193133Y-37333863D01*
X94232426Y-37208307D01*
X94302298Y-37075364D01*
X94396698Y-36962131D01*
X94515409Y-36868775D01*
X94658214Y-36795460D01*
X94824895Y-36742352D01*
X95015236Y-36709616D01*
X95057971Y-36706306D01*
X95131389Y-36702893D01*
X95227526Y-36699867D01*
X95341709Y-36697329D01*
X95469265Y-36695381D01*
X95605520Y-36694124D01*
X95745802Y-36693662D01*
X96334204Y-36693533D01*
X96334204Y-40942662D01*
X95623383Y-40942662D01*
G37*
G36*
X104852207Y-42742467D02*
G01*
X104840110Y-42739975D01*
X104795178Y-42730709D01*
X104721547Y-42715520D01*
X104620652Y-42694705D01*
X104493930Y-42668559D01*
X104342816Y-42637379D01*
X104168747Y-42601461D01*
X103973158Y-42561101D01*
X103757484Y-42516596D01*
X103523163Y-42468242D01*
X103271629Y-42416336D01*
X103004319Y-42361173D01*
X102722669Y-42303050D01*
X102428114Y-42242263D01*
X102122091Y-42179109D01*
X101806034Y-42113883D01*
X101481381Y-42046883D01*
X101149567Y-41978404D01*
X100940271Y-41935214D01*
X100615333Y-41868172D01*
X100299428Y-41803011D01*
X99993923Y-41740011D01*
X99700188Y-41679454D01*
X99419592Y-41621622D01*
X99153506Y-41566797D01*
X98903297Y-41515261D01*
X98670335Y-41467296D01*
X98455989Y-41423183D01*
X98261629Y-41383204D01*
X98088624Y-41347641D01*
X97938343Y-41316777D01*
X97812154Y-41290892D01*
X97711428Y-41270268D01*
X97637534Y-41255188D01*
X97591841Y-41245934D01*
X97575717Y-41242786D01*
X97575406Y-41241089D01*
X97574473Y-41215489D01*
X97573567Y-41160297D01*
X97572693Y-41077017D01*
X97571855Y-40967154D01*
X97571059Y-40832213D01*
X97570307Y-40673698D01*
X97569606Y-40493115D01*
X97568959Y-40291967D01*
X97568371Y-40071761D01*
X97567847Y-39834001D01*
X97567391Y-39580192D01*
X97567008Y-39311838D01*
X97566702Y-39030444D01*
X97566478Y-38737515D01*
X97566340Y-38434556D01*
X97566323Y-38320523D01*
X98811091Y-38320523D01*
X99506454Y-38320523D01*
X99512606Y-37913775D01*
X99512788Y-37902001D01*
X99515826Y-37755078D01*
X99519866Y-37638516D01*
X99524972Y-37551179D01*
X99531209Y-37491932D01*
X99538644Y-37459640D01*
X99554745Y-37427202D01*
X99613087Y-37355885D01*
X99692293Y-37303888D01*
X99788289Y-37272757D01*
X99897003Y-37264035D01*
X100014360Y-37279267D01*
X100097763Y-37311151D01*
X100170830Y-37367430D01*
X100221397Y-37442010D01*
X100226506Y-37454364D01*
X100231139Y-37469324D01*
X100235148Y-37488566D01*
X100238576Y-37514189D01*
X100241470Y-37548296D01*
X100243875Y-37592985D01*
X100245835Y-37650360D01*
X100247395Y-37722520D01*
X100248602Y-37811566D01*
X100249499Y-37919599D01*
X100250132Y-38048719D01*
X100250545Y-38201029D01*
X100250785Y-38378628D01*
X100250896Y-38583617D01*
X100250923Y-38818097D01*
X100250898Y-39045015D01*
X100250791Y-39250984D01*
X100250556Y-39429490D01*
X100250149Y-39582634D01*
X100249525Y-39712517D01*
X100248637Y-39821241D01*
X100247442Y-39910905D01*
X100245895Y-39983610D01*
X100243949Y-40041459D01*
X100241561Y-40086550D01*
X100238684Y-40120985D01*
X100235275Y-40146866D01*
X100231287Y-40166292D01*
X100226676Y-40181365D01*
X100221397Y-40194185D01*
X100174819Y-40264473D01*
X100103015Y-40322070D01*
X100014360Y-40356927D01*
X99900390Y-40372584D01*
X99791271Y-40365210D01*
X99696137Y-40334955D01*
X99618193Y-40283362D01*
X99560646Y-40211973D01*
X99526703Y-40122332D01*
X99524291Y-40107845D01*
X99519280Y-40053993D01*
X99515109Y-39974928D01*
X99511933Y-39875086D01*
X99509912Y-39758903D01*
X99509204Y-39630815D01*
X99509204Y-39220896D01*
X98811324Y-39220896D01*
X98818381Y-39754012D01*
X98819587Y-39839345D01*
X98822026Y-39977835D01*
X98824830Y-40089899D01*
X98828175Y-40178910D01*
X98832236Y-40248245D01*
X98837188Y-40301278D01*
X98843207Y-40341383D01*
X98850467Y-40371937D01*
X98879183Y-40456410D01*
X98945531Y-40590920D01*
X99032112Y-40703483D01*
X99140893Y-40795978D01*
X99273843Y-40870285D01*
X99432930Y-40928286D01*
X99467182Y-40937599D01*
X99516887Y-40948096D01*
X99572757Y-40955702D01*
X99641149Y-40961022D01*
X99728418Y-40964664D01*
X99840920Y-40967234D01*
X99925615Y-40968136D01*
X100019818Y-40967774D01*
X100102573Y-40966032D01*
X100167171Y-40963060D01*
X100206900Y-40959009D01*
X100265807Y-40947182D01*
X100436735Y-40897101D01*
X100582672Y-40827892D01*
X100703937Y-40739287D01*
X100800845Y-40631019D01*
X100873713Y-40502820D01*
X100922859Y-40354422D01*
X100924723Y-40343905D01*
X100929097Y-40296715D01*
X100933042Y-40222017D01*
X100936559Y-40122625D01*
X100939647Y-40001355D01*
X100942308Y-39861019D01*
X100944542Y-39704433D01*
X100946349Y-39534410D01*
X100947730Y-39353764D01*
X100948684Y-39165310D01*
X100949212Y-38971861D01*
X100949315Y-38776232D01*
X100948992Y-38581236D01*
X100948245Y-38389689D01*
X100947074Y-38204404D01*
X100945478Y-38028195D01*
X100943459Y-37863876D01*
X100941016Y-37714262D01*
X100938151Y-37582167D01*
X100934863Y-37470404D01*
X100931152Y-37381788D01*
X100927020Y-37319133D01*
X100922466Y-37285253D01*
X100894930Y-37196491D01*
X100829070Y-37059537D01*
X100739467Y-36942623D01*
X100625516Y-36845165D01*
X100486610Y-36766578D01*
X100330465Y-36709329D01*
X101624847Y-36709329D01*
X101629535Y-38506126D01*
X101629789Y-38602713D01*
X101630266Y-38776232D01*
X101630524Y-38869832D01*
X101631253Y-39107749D01*
X101632008Y-39318257D01*
X101632820Y-39503145D01*
X101633722Y-39664202D01*
X101634745Y-39803220D01*
X101635921Y-39921989D01*
X101637283Y-40022298D01*
X101638861Y-40105939D01*
X101640689Y-40174700D01*
X101642799Y-40230373D01*
X101645221Y-40274748D01*
X101647988Y-40309614D01*
X101651132Y-40336762D01*
X101654685Y-40357983D01*
X101658679Y-40375066D01*
X101663145Y-40389801D01*
X101715091Y-40518559D01*
X101792201Y-40646572D01*
X101888666Y-40751562D01*
X102006366Y-40835135D01*
X102147182Y-40898897D01*
X102312997Y-40944453D01*
X102320760Y-40946016D01*
X102431827Y-40961912D01*
X102562678Y-40971248D01*
X102703173Y-40974037D01*
X102843170Y-40970296D01*
X102972529Y-40960041D01*
X103081109Y-40943285D01*
X103231761Y-40900965D01*
X103377372Y-40833660D01*
X103499709Y-40745020D01*
X103598859Y-40634968D01*
X103674907Y-40503424D01*
X103727938Y-40350311D01*
X103729155Y-40344622D01*
X103732349Y-40319745D01*
X103735255Y-40280506D01*
X103737892Y-40225469D01*
X103740280Y-40153198D01*
X103742440Y-40062257D01*
X103744392Y-39951212D01*
X103746155Y-39818625D01*
X103747749Y-39663060D01*
X103749195Y-39483083D01*
X103750513Y-39277258D01*
X103751723Y-39044147D01*
X103752844Y-38782317D01*
X103753898Y-38490330D01*
X103759838Y-36709329D01*
X103064251Y-36709329D01*
X103059831Y-38419681D01*
X103055410Y-40130034D01*
X103014992Y-40208581D01*
X102975596Y-40266170D01*
X102904251Y-40323876D01*
X102813623Y-40359659D01*
X102706606Y-40372489D01*
X102586092Y-40361336D01*
X102566841Y-40357430D01*
X102479321Y-40327666D01*
X102413636Y-40280091D01*
X102363977Y-40210766D01*
X102328793Y-40144963D01*
X102320215Y-36709329D01*
X101624847Y-36709329D01*
X100330465Y-36709329D01*
X100322144Y-36706278D01*
X100293921Y-36698374D01*
X100248650Y-36687503D01*
X100202685Y-36679772D01*
X100149847Y-36674662D01*
X100083957Y-36671653D01*
X99998837Y-36670228D01*
X99888308Y-36669869D01*
X99827109Y-36669958D01*
X99730303Y-36670830D01*
X99655743Y-36673048D01*
X99597286Y-36677121D01*
X99548787Y-36683559D01*
X99504103Y-36692869D01*
X99457090Y-36705560D01*
X99359934Y-36737569D01*
X99209621Y-36806998D01*
X99084801Y-36894017D01*
X98984322Y-36999702D01*
X98907034Y-37125129D01*
X98851784Y-37271374D01*
X98850132Y-37277375D01*
X98842338Y-37312747D01*
X98835992Y-37356917D01*
X98830870Y-37413683D01*
X98826749Y-37486844D01*
X98823406Y-37580201D01*
X98820615Y-37697550D01*
X98818155Y-37842693D01*
X98811091Y-38320523D01*
X97566323Y-38320523D01*
X97566293Y-38123072D01*
X97566298Y-37941601D01*
X97566348Y-37581475D01*
X97566457Y-37251138D01*
X97566633Y-36949364D01*
X97566886Y-36674930D01*
X97567224Y-36426612D01*
X97567656Y-36203185D01*
X97568190Y-36003426D01*
X97568835Y-35826110D01*
X97569600Y-35670013D01*
X97570494Y-35533912D01*
X97571525Y-35416582D01*
X97572702Y-35316800D01*
X97574033Y-35233341D01*
X97575527Y-35164981D01*
X97577193Y-35110496D01*
X97579040Y-35068662D01*
X97581076Y-35038256D01*
X97583310Y-35018052D01*
X97585751Y-35006828D01*
X97588406Y-35003359D01*
X97590230Y-35003533D01*
X97616204Y-35006949D01*
X97671308Y-35014545D01*
X97753868Y-35026083D01*
X97862211Y-35041323D01*
X97994662Y-35060026D01*
X98149549Y-35081953D01*
X98325196Y-35106864D01*
X98519932Y-35134520D01*
X98732081Y-35164682D01*
X98959971Y-35197111D01*
X99201927Y-35231568D01*
X99456275Y-35267812D01*
X99721343Y-35305606D01*
X99995456Y-35344709D01*
X100276941Y-35384882D01*
X100564123Y-35425887D01*
X100855329Y-35467483D01*
X101148886Y-35509432D01*
X101443120Y-35551495D01*
X101736356Y-35593432D01*
X102026922Y-35635003D01*
X102313143Y-35675970D01*
X102593345Y-35716094D01*
X102865856Y-35755134D01*
X103129002Y-35792852D01*
X103381107Y-35829009D01*
X103620500Y-35863366D01*
X103845506Y-35895682D01*
X104054451Y-35925719D01*
X104245662Y-35953238D01*
X104417464Y-35977999D01*
X104568185Y-35999763D01*
X104696151Y-36018291D01*
X104799687Y-36033343D01*
X104877120Y-36044681D01*
X104926777Y-36052064D01*
X104946983Y-36055255D01*
X104990422Y-36064202D01*
X104990422Y-42770912D01*
X104852207Y-42742467D01*
G37*
G36*
X86098383Y-40942662D02*
G01*
X86098383Y-39252488D01*
X85753446Y-39252488D01*
X85721409Y-39351213D01*
X85721004Y-39352462D01*
X85708475Y-39391404D01*
X85687738Y-39456201D01*
X85660080Y-39542809D01*
X85626792Y-39647185D01*
X85589163Y-39765287D01*
X85548482Y-39893070D01*
X85506040Y-40026493D01*
X85464501Y-40156993D01*
X85421398Y-40292133D01*
X85380373Y-40420498D01*
X85342921Y-40537420D01*
X85310536Y-40638232D01*
X85284714Y-40718266D01*
X85266951Y-40772855D01*
X85211194Y-40942662D01*
X84488432Y-40942662D01*
X84788289Y-40055197D01*
X84838973Y-39904828D01*
X84889958Y-39752794D01*
X84936860Y-39612138D01*
X84978809Y-39485507D01*
X85014938Y-39375549D01*
X85044375Y-39284911D01*
X85066251Y-39216241D01*
X85079697Y-39172186D01*
X85083842Y-39155393D01*
X85082749Y-39153624D01*
X85063529Y-39136524D01*
X85025986Y-39108483D01*
X84976865Y-39074596D01*
X84939000Y-39047288D01*
X84836758Y-38951000D01*
X84751800Y-38836654D01*
X84691279Y-38713299D01*
X84689199Y-38707620D01*
X84679985Y-38681031D01*
X84672504Y-38654635D01*
X84666537Y-38624899D01*
X84661867Y-38588294D01*
X84658275Y-38541286D01*
X84655543Y-38480345D01*
X84653453Y-38401938D01*
X84651787Y-38302536D01*
X84650326Y-38178605D01*
X84648852Y-38026614D01*
X84648463Y-37980908D01*
X85348072Y-37980908D01*
X85348076Y-37998787D01*
X85348430Y-38118073D01*
X85349558Y-38210851D01*
X85351743Y-38281613D01*
X85355270Y-38334848D01*
X85360422Y-38375048D01*
X85367485Y-38406705D01*
X85376740Y-38434308D01*
X85381292Y-38445405D01*
X85429194Y-38522464D01*
X85495654Y-38583065D01*
X85572733Y-38619697D01*
X85582029Y-38621772D01*
X85628145Y-38627482D01*
X85695777Y-38632103D01*
X85777376Y-38635204D01*
X85865391Y-38636355D01*
X86098383Y-38636443D01*
X86098383Y-37325373D01*
X85865391Y-37325462D01*
X85848810Y-37325486D01*
X85738454Y-37327100D01*
X85653495Y-37332001D01*
X85588513Y-37341263D01*
X85538089Y-37355959D01*
X85496804Y-37377164D01*
X85459237Y-37405951D01*
X85446813Y-37417164D01*
X85417259Y-37448173D01*
X85394193Y-37482335D01*
X85376829Y-37523710D01*
X85364383Y-37576360D01*
X85356069Y-37644344D01*
X85351103Y-37731723D01*
X85348699Y-37842558D01*
X85348072Y-37980908D01*
X84648463Y-37980908D01*
X84647990Y-37925296D01*
X84647249Y-37771501D01*
X84647798Y-37643699D01*
X84650016Y-37538339D01*
X84654277Y-37451869D01*
X84660960Y-37380735D01*
X84670441Y-37321386D01*
X84683098Y-37270268D01*
X84699306Y-37223830D01*
X84719443Y-37178519D01*
X84743885Y-37130782D01*
X84779098Y-37071897D01*
X84872791Y-36959860D01*
X84991013Y-36867465D01*
X85133503Y-36794861D01*
X85299998Y-36742196D01*
X85490236Y-36709616D01*
X85532971Y-36706306D01*
X85606389Y-36702893D01*
X85702526Y-36699867D01*
X85816709Y-36697329D01*
X85944265Y-36695381D01*
X86080520Y-36694124D01*
X86220802Y-36693662D01*
X86809204Y-36693533D01*
X86809204Y-40942662D01*
X86098383Y-40942662D01*
G37*
G36*
X97593936Y-41422737D02*
G01*
X97598103Y-41423844D01*
X97628674Y-41431707D01*
X97687107Y-41446635D01*
X97771500Y-41468145D01*
X97879954Y-41495755D01*
X98010567Y-41528981D01*
X98161437Y-41567342D01*
X98330665Y-41610355D01*
X98516349Y-41657538D01*
X98716587Y-41708408D01*
X98929480Y-41762482D01*
X99153125Y-41819279D01*
X99385623Y-41878315D01*
X99625072Y-41939108D01*
X99869571Y-42001176D01*
X100117219Y-42064037D01*
X100366116Y-42127207D01*
X100614359Y-42190204D01*
X100860049Y-42252546D01*
X101101284Y-42313750D01*
X101336164Y-42373335D01*
X101562787Y-42430816D01*
X101779252Y-42485713D01*
X101983659Y-42537542D01*
X102174106Y-42585820D01*
X102348692Y-42630066D01*
X102505517Y-42669798D01*
X102642680Y-42704531D01*
X102758279Y-42733785D01*
X102850413Y-42757076D01*
X102917182Y-42773922D01*
X102956685Y-42783840D01*
X103063308Y-42810433D01*
X103063308Y-43503538D01*
X103063175Y-43605150D01*
X103062545Y-43742921D01*
X103061450Y-43868256D01*
X103059946Y-43977961D01*
X103058090Y-44068845D01*
X103055938Y-44137715D01*
X103053548Y-44181378D01*
X103050977Y-44196642D01*
X103043391Y-44193420D01*
X103009418Y-44177873D01*
X102949755Y-44150166D01*
X102866094Y-44111100D01*
X102760127Y-44061472D01*
X102633544Y-44002081D01*
X102488037Y-43933724D01*
X102325297Y-43857202D01*
X102147016Y-43773311D01*
X101954885Y-43682850D01*
X101750594Y-43586619D01*
X101535836Y-43485414D01*
X101312302Y-43380036D01*
X101081683Y-43271281D01*
X100845669Y-43159949D01*
X100605954Y-43046837D01*
X100364227Y-42932745D01*
X100122181Y-42818471D01*
X99881506Y-42704812D01*
X99643893Y-42592569D01*
X99411035Y-42482538D01*
X99184622Y-42375518D01*
X98966346Y-42272308D01*
X98757898Y-42173707D01*
X98560969Y-42080512D01*
X98377250Y-41993522D01*
X98208434Y-41913536D01*
X98056210Y-41841351D01*
X97922271Y-41777767D01*
X97808308Y-41723581D01*
X97716012Y-41679593D01*
X97647074Y-41646599D01*
X97603186Y-41625400D01*
X97586038Y-41616794D01*
X97579056Y-41607781D01*
X97569661Y-41569774D01*
X97566293Y-41509322D01*
X97566788Y-41469397D01*
X97570173Y-41435291D01*
X97578544Y-41421864D01*
X97593936Y-41422737D01*
G37*
%TO.C,REF\u002A\u002A*%
X45508700Y-44577500D02*
X45508700Y-45847500D01*
X61104300Y-53213500D02*
X46905700Y-53213500D01*
X46778700Y-45212500D02*
X45508700Y-44577500D01*
X46905700Y-42291500D02*
X61104300Y-42291500D01*
X45508700Y-45847500D02*
X46778700Y-45212500D01*
X46905700Y-53213500D02*
X46905700Y-42291500D01*
X61104300Y-42291500D02*
X61104300Y-53213500D01*
%TD*%
M02*
