%TF.GenerationSoftware,KiCad,Pcbnew,(6.0.8-1)-1*%
%TF.CreationDate,2022-11-16T14:15:17-05:00*%
%TF.ProjectId,Untitled,556e7469-746c-4656-942e-6b696361645f,rev?*%
%TF.SameCoordinates,Original*%
%TF.FileFunction,Drillmap*%
%TF.FilePolarity,Positive*%
%FSLAX45Y45*%
G04 Gerber Fmt 4.5, Leading zero omitted, Abs format (unit mm)*
G04 Created by KiCad (PCBNEW (6.0.8-1)-1) date 2022-11-16 14:15:17*
%MOMM*%
%LPD*%
G01*
G04 APERTURE LIST*
%ADD10C,0.100000*%
%ADD11C,0.200000*%
G04 APERTURE END LIST*
D10*
X7520000Y-11840000D02*
G75*
G03*
X7520000Y-11840000I-160000J0D01*
G01*
X7520000Y-5640000D02*
G75*
G03*
X7520000Y-5640000I-160000J0D01*
G01*
X4572000Y-3301000D02*
X17764000Y-3301000D01*
X17764000Y-3301000D02*
X17764000Y-13080000D01*
X17764000Y-13080000D02*
X4572000Y-13080000D01*
X4572000Y-13080000D02*
X4572000Y-3301000D01*
X7520000Y-6880000D02*
G75*
G03*
X7520000Y-6880000I-160000J0D01*
G01*
X7520000Y-8120000D02*
G75*
G03*
X7520000Y-8120000I-160000J0D01*
G01*
X7520000Y-10600000D02*
G75*
G03*
X7520000Y-10600000I-160000J0D01*
G01*
X7520000Y-4400000D02*
G75*
G03*
X7520000Y-4400000I-160000J0D01*
G01*
X7520000Y-9360000D02*
G75*
G03*
X7520000Y-9360000I-160000J0D01*
G01*
D11*
X4824619Y-13395476D02*
X4824619Y-13195476D01*
X4872238Y-13195476D01*
X4900810Y-13205000D01*
X4919857Y-13224048D01*
X4929381Y-13243095D01*
X4938905Y-13281190D01*
X4938905Y-13309762D01*
X4929381Y-13347857D01*
X4919857Y-13366905D01*
X4900810Y-13385952D01*
X4872238Y-13395476D01*
X4824619Y-13395476D01*
X5024619Y-13395476D02*
X5024619Y-13262143D01*
X5024619Y-13300238D02*
X5034143Y-13281190D01*
X5043667Y-13271667D01*
X5062714Y-13262143D01*
X5081762Y-13262143D01*
X5148429Y-13395476D02*
X5148429Y-13262143D01*
X5148429Y-13195476D02*
X5138905Y-13205000D01*
X5148429Y-13214524D01*
X5157952Y-13205000D01*
X5148429Y-13195476D01*
X5148429Y-13214524D01*
X5272238Y-13395476D02*
X5253190Y-13385952D01*
X5243667Y-13366905D01*
X5243667Y-13195476D01*
X5377000Y-13395476D02*
X5357952Y-13385952D01*
X5348429Y-13366905D01*
X5348429Y-13195476D01*
X5605571Y-13395476D02*
X5605571Y-13195476D01*
X5672238Y-13338333D01*
X5738905Y-13195476D01*
X5738905Y-13395476D01*
X5919857Y-13395476D02*
X5919857Y-13290714D01*
X5910333Y-13271667D01*
X5891286Y-13262143D01*
X5853190Y-13262143D01*
X5834143Y-13271667D01*
X5919857Y-13385952D02*
X5900809Y-13395476D01*
X5853190Y-13395476D01*
X5834143Y-13385952D01*
X5824619Y-13366905D01*
X5824619Y-13347857D01*
X5834143Y-13328809D01*
X5853190Y-13319286D01*
X5900809Y-13319286D01*
X5919857Y-13309762D01*
X6015095Y-13262143D02*
X6015095Y-13462143D01*
X6015095Y-13271667D02*
X6034143Y-13262143D01*
X6072238Y-13262143D01*
X6091286Y-13271667D01*
X6100809Y-13281190D01*
X6110333Y-13300238D01*
X6110333Y-13357381D01*
X6100809Y-13376428D01*
X6091286Y-13385952D01*
X6072238Y-13395476D01*
X6034143Y-13395476D01*
X6015095Y-13385952D01*
X6196048Y-13376428D02*
X6205571Y-13385952D01*
X6196048Y-13395476D01*
X6186524Y-13385952D01*
X6196048Y-13376428D01*
X6196048Y-13395476D01*
X6196048Y-13271667D02*
X6205571Y-13281190D01*
X6196048Y-13290714D01*
X6186524Y-13281190D01*
X6196048Y-13271667D01*
X6196048Y-13290714D01*
M02*
