M48
; DRILL file {KiCad (6.0.8-1)-1} date Wednesday, December 07, 2022 at 03:01:21 PM
; FORMAT={-:-/ absolute / inch / decimal}
; #@! TF.CreationDate,2022-12-07T15:01:21-05:00
; #@! TF.GenerationSoftware,Kicad,Pcbnew,(6.0.8-1)-1
; #@! TF.FileFunction,Plated,1,2,PTH
FMAT,2
INCH
; #@! TA.AperFunction,Plated,PTH,ViaDrill
T1C0.0157
; #@! TA.AperFunction,Plated,PTH,ComponentDrill
T2C0.0350
; #@! TA.AperFunction,Plated,PTH,ComponentDrill
T3C0.0433
; #@! TA.AperFunction,Plated,PTH,ComponentDrill
T4C0.0591
%
G90
G05
T1
X2.5413Y-2.5886
X2.5472Y-3.3071
X2.5492Y-4.0197
X2.5512Y-1.8819
X2.6024Y-1.6393
X2.622Y-2.6299
X2.626Y-3.2638
X2.626Y-3.3504
X2.626Y-3.9744
X2.626Y-4.061
X2.6299Y-2.5394
X2.6339Y-1.9252
X2.6378Y-1.8386
X2.7087Y-2.8583
X2.7087Y-3.0472
X2.7441Y-1.4409
X2.7441Y-3.6496
X2.7559Y-2.1378
X2.7638Y-2.3268
X2.7795Y-3.8583
T2
X2.3307Y-3.2047
X2.3307Y-3.3047
X2.3307Y-3.4047
X2.3327Y-1.4192
X2.3327Y-1.5192
X2.3327Y-1.6192
X2.3327Y-1.78
X2.3327Y-1.88
X2.3327Y-1.98
X2.3327Y-2.1381
X2.3327Y-2.2381
X2.3327Y-2.3381
X2.3327Y-2.4887
X2.3327Y-2.5887
X2.3327Y-2.6887
X2.3327Y-2.8468
X2.3327Y-2.9468
X2.3327Y-3.0468
X2.3327Y-3.5633
X2.3327Y-3.6633
X2.3327Y-3.7633
X2.3327Y-3.9218
X2.3327Y-4.0218
X2.3327Y-4.1218
T3
X2.1339Y-4.8661
T4
X1.936Y-4.6683
X1.936Y-5.064
X2.3317Y-4.6683
X2.3317Y-5.064
T0
M30
