%TF.GenerationSoftware,KiCad,Pcbnew,(6.0.8-1)-1*%
%TF.CreationDate,2023-04-06T11:00:06-04:00*%
%TF.ProjectId,Untitled,556e7469-746c-4656-942e-6b696361645f,rev?*%
%TF.SameCoordinates,Original*%
%TF.FileFunction,Drillmap*%
%TF.FilePolarity,Positive*%
%FSLAX45Y45*%
G04 Gerber Fmt 4.5, Leading zero omitted, Abs format (unit mm)*
G04 Created by KiCad (PCBNEW (6.0.8-1)-1) date 2023-04-06 11:00:06*
%MOMM*%
%LPD*%
G01*
G04 APERTURE LIST*
%ADD10C,0.100000*%
%ADD11C,0.200000*%
G04 APERTURE END LIST*
D10*
X7520000Y-5640000D02*
G75*
G03*
X7520000Y-5640000I-160000J0D01*
G01*
X7520000Y-11840000D02*
G75*
G03*
X7520000Y-11840000I-160000J0D01*
G01*
X7520000Y-10600000D02*
G75*
G03*
X7520000Y-10600000I-160000J0D01*
G01*
X-628000Y-3292000D02*
X37764000Y-3292000D01*
X37764000Y-3292000D02*
X37764000Y-13091000D01*
X37764000Y-13091000D02*
X-628000Y-13091000D01*
X-628000Y-13091000D02*
X-628000Y-3292000D01*
X7520000Y-6880000D02*
G75*
G03*
X7520000Y-6880000I-160000J0D01*
G01*
X7520000Y-8120000D02*
G75*
G03*
X7520000Y-8120000I-160000J0D01*
G01*
X7520000Y-9360000D02*
G75*
G03*
X7520000Y-9360000I-160000J0D01*
G01*
X7520000Y-4400000D02*
G75*
G03*
X7520000Y-4400000I-160000J0D01*
G01*
D11*
X-375381Y-13406476D02*
X-375381Y-13206476D01*
X-327762Y-13206476D01*
X-299190Y-13216000D01*
X-280143Y-13235048D01*
X-270619Y-13254095D01*
X-261095Y-13292190D01*
X-261095Y-13320762D01*
X-270619Y-13358857D01*
X-280143Y-13377905D01*
X-299190Y-13396952D01*
X-327762Y-13406476D01*
X-375381Y-13406476D01*
X-175381Y-13406476D02*
X-175381Y-13273143D01*
X-175381Y-13311238D02*
X-165857Y-13292190D01*
X-156333Y-13282667D01*
X-137286Y-13273143D01*
X-118238Y-13273143D01*
X-51571Y-13406476D02*
X-51571Y-13273143D01*
X-51571Y-13206476D02*
X-61095Y-13216000D01*
X-51571Y-13225524D01*
X-42048Y-13216000D01*
X-51571Y-13206476D01*
X-51571Y-13225524D01*
X72238Y-13406476D02*
X53190Y-13396952D01*
X43667Y-13377905D01*
X43667Y-13206476D01*
X177000Y-13406476D02*
X157952Y-13396952D01*
X148429Y-13377905D01*
X148429Y-13206476D01*
X405571Y-13406476D02*
X405571Y-13206476D01*
X472238Y-13349333D01*
X538905Y-13206476D01*
X538905Y-13406476D01*
X719857Y-13406476D02*
X719857Y-13301714D01*
X710333Y-13282667D01*
X691286Y-13273143D01*
X653190Y-13273143D01*
X634143Y-13282667D01*
X719857Y-13396952D02*
X700809Y-13406476D01*
X653190Y-13406476D01*
X634143Y-13396952D01*
X624619Y-13377905D01*
X624619Y-13358857D01*
X634143Y-13339809D01*
X653190Y-13330286D01*
X700809Y-13330286D01*
X719857Y-13320762D01*
X815095Y-13273143D02*
X815095Y-13473143D01*
X815095Y-13282667D02*
X834143Y-13273143D01*
X872238Y-13273143D01*
X891286Y-13282667D01*
X900809Y-13292190D01*
X910333Y-13311238D01*
X910333Y-13368381D01*
X900809Y-13387428D01*
X891286Y-13396952D01*
X872238Y-13406476D01*
X834143Y-13406476D01*
X815095Y-13396952D01*
X996048Y-13387428D02*
X1005571Y-13396952D01*
X996048Y-13406476D01*
X986524Y-13396952D01*
X996048Y-13387428D01*
X996048Y-13406476D01*
X996048Y-13282667D02*
X1005571Y-13292190D01*
X996048Y-13301714D01*
X986524Y-13292190D01*
X996048Y-13282667D01*
X996048Y-13301714D01*
M02*
