%TF.GenerationSoftware,KiCad,Pcbnew,(6.0.8-1)-1*%
%TF.CreationDate,2023-06-16T18:58:08-04:00*%
%TF.ProjectId,Untitled,556e7469-746c-4656-942e-6b696361645f,rev?*%
%TF.SameCoordinates,Original*%
%TF.FileFunction,Copper,L1,Top*%
%TF.FilePolarity,Positive*%
%FSLAX46Y46*%
G04 Gerber Fmt 4.6, Leading zero omitted, Abs format (unit mm)*
G04 Created by KiCad (PCBNEW (6.0.8-1)-1) date 2023-06-16 18:58:08*
%MOMM*%
%LPD*%
G01*
G04 APERTURE LIST*
G04 Aperture macros list*
%AMRoundRect*
0 Rectangle with rounded corners*
0 $1 Rounding radius*
0 $2 $3 $4 $5 $6 $7 $8 $9 X,Y pos of 4 corners*
0 Add a 4 corners polygon primitive as box body*
4,1,4,$2,$3,$4,$5,$6,$7,$8,$9,$2,$3,0*
0 Add four circle primitives for the rounded corners*
1,1,$1+$1,$2,$3*
1,1,$1+$1,$4,$5*
1,1,$1+$1,$6,$7*
1,1,$1+$1,$8,$9*
0 Add four rect primitives between the rounded corners*
20,1,$1+$1,$2,$3,$4,$5,0*
20,1,$1+$1,$4,$5,$6,$7,0*
20,1,$1+$1,$6,$7,$8,$9,0*
20,1,$1+$1,$8,$9,$2,$3,0*%
G04 Aperture macros list end*
%TA.AperFunction,ComponentPad*%
%ADD10R,1.397000X1.397000*%
%TD*%
%TA.AperFunction,ComponentPad*%
%ADD11C,1.397000*%
%TD*%
%TA.AperFunction,SMDPad,CuDef*%
%ADD12RoundRect,0.250000X0.325000X1.100000X-0.325000X1.100000X-0.325000X-1.100000X0.325000X-1.100000X0*%
%TD*%
%TA.AperFunction,SMDPad,CuDef*%
%ADD13R,0.700000X0.700000*%
%TD*%
%TA.AperFunction,SMDPad,CuDef*%
%ADD14RoundRect,0.250000X-0.325000X-1.100000X0.325000X-1.100000X0.325000X1.100000X-0.325000X1.100000X0*%
%TD*%
%TA.AperFunction,ViaPad*%
%ADD15C,0.800000*%
%TD*%
%TA.AperFunction,Conductor*%
%ADD16C,0.250000*%
%TD*%
%TA.AperFunction,Conductor*%
%ADD17C,0.200000*%
%TD*%
G04 APERTURE END LIST*
D10*
%TO.P,REF\u002A\u002A,1*%
%TO.N,N/C*%
X198842400Y-43580000D03*
D11*
%TO.P,REF\u002A\u002A,2*%
X198842400Y-41040000D03*
%TO.P,REF\u002A\u002A,3*%
X198842400Y-38500000D03*
%TD*%
D12*
%TO.P,10 nF,1*%
%TO.N,N/C*%
X193567500Y-52792500D03*
%TO.P,10 nF,2*%
X190617500Y-52792500D03*
%TD*%
%TO.P,10 nF,1*%
%TO.N,N/C*%
X193067500Y-41892500D03*
%TO.P,10 nF,2*%
X190117500Y-41892500D03*
%TD*%
%TO.P,10 nF,1*%
%TO.N,N/C*%
X194042500Y-99392500D03*
%TO.P,10 nF,2*%
X191092500Y-99392500D03*
%TD*%
%TO.P,10 nF,1*%
%TO.N,N/C*%
X193567500Y-114892500D03*
%TO.P,10 nF,2*%
X190617500Y-114892500D03*
%TD*%
%TO.P,10 nF,1*%
%TO.N,N/C*%
X193467500Y-62701549D03*
%TO.P,10 nF,2*%
X190517500Y-62701549D03*
%TD*%
D10*
%TO.P,REF\u002A\u002A,1*%
%TO.N,N/C*%
X198842400Y-79580000D03*
D11*
%TO.P,REF\u002A\u002A,2*%
X198842400Y-77040000D03*
%TO.P,REF\u002A\u002A,3*%
X198842400Y-74500000D03*
%TD*%
D10*
%TO.P,REF\u002A\u002A,1*%
%TO.N,N/C*%
X198892500Y-115392500D03*
D11*
%TO.P,REF\u002A\u002A,2*%
X198892500Y-112852500D03*
%TO.P,REF\u002A\u002A,3*%
X198892500Y-110312500D03*
%TD*%
D10*
%TO.P,REF\u002A\u002A,1*%
%TO.N,N/C*%
X198842400Y-97380000D03*
D11*
%TO.P,REF\u002A\u002A,2*%
X198842400Y-94840000D03*
%TO.P,REF\u002A\u002A,3*%
X198842400Y-92300000D03*
%TD*%
D10*
%TO.P,REF\u002A\u002A,1*%
%TO.N,N/C*%
X198842400Y-61780000D03*
D11*
%TO.P,REF\u002A\u002A,2*%
X198842400Y-59240000D03*
%TO.P,REF\u002A\u002A,3*%
X198842400Y-56700000D03*
%TD*%
D10*
%TO.P,REF\u002A\u002A,1*%
%TO.N,N/C*%
X198842400Y-47805000D03*
D11*
%TO.P,REF\u002A\u002A,2*%
X198842400Y-50345000D03*
%TO.P,REF\u002A\u002A,3*%
X198842400Y-52885000D03*
%TD*%
D10*
%TO.P,REF\u002A\u002A,1*%
%TO.N,N/C*%
X198842400Y-119292500D03*
D11*
%TO.P,REF\u002A\u002A,2*%
X198842400Y-121832500D03*
%TO.P,REF\u002A\u002A,3*%
X198842400Y-124372500D03*
%TD*%
D10*
%TO.P,REF\u002A\u002A,1*%
%TO.N,N/C*%
X198842400Y-65605000D03*
D11*
%TO.P,REF\u002A\u002A,2*%
X198842400Y-68145000D03*
%TO.P,REF\u002A\u002A,3*%
X198842400Y-70685000D03*
%TD*%
D12*
%TO.P,10 nF,1*%
%TO.N,N/C*%
X193467500Y-87319643D03*
%TO.P,10 nF,2*%
X190517500Y-87319643D03*
%TD*%
D10*
%TO.P,REF\u002A\u002A,1*%
%TO.N,N/C*%
X198892500Y-101192500D03*
D11*
%TO.P,REF\u002A\u002A,2*%
X198892500Y-103732500D03*
%TO.P,REF\u002A\u002A,3*%
X198892500Y-106272500D03*
%TD*%
D10*
%TO.P,REF\u002A\u002A,1*%
%TO.N,N/C*%
X198842400Y-83405000D03*
D11*
%TO.P,REF\u002A\u002A,2*%
X198842400Y-85945000D03*
%TO.P,REF\u002A\u002A,3*%
X198842400Y-88485000D03*
%TD*%
D12*
%TO.P,10 nF,1*%
%TO.N,N/C*%
X193467500Y-124246784D03*
%TO.P,10 nF,2*%
X190517500Y-124246784D03*
%TD*%
%TO.P,10 nF,1*%
%TO.N,N/C*%
X193467500Y-75010596D03*
%TO.P,10 nF,2*%
X190517500Y-75010596D03*
%TD*%
%TO.P,10 nF,1*%
%TO.N,N/C*%
X193467500Y-93892500D03*
%TO.P,10 nF,2*%
X190517500Y-93892500D03*
%TD*%
%TO.P,10 nF,1*%
%TO.N,N/C*%
X193467500Y-109592500D03*
%TO.P,10 nF,2*%
X190517500Y-109592500D03*
%TD*%
D13*
%TO.P,REF\u002A\u002A,1*%
%TO.N,N/C*%
X153382500Y-106370000D03*
%TO.P,REF\u002A\u002A,2*%
X151357500Y-106370000D03*
%TO.P,REF\u002A\u002A,3*%
X151357500Y-107420000D03*
%TO.P,REF\u002A\u002A,4*%
X153382500Y-107470000D03*
%TD*%
%TO.P,REF\u002A\u002A,1*%
%TO.N,N/C*%
X153382500Y-126370000D03*
%TO.P,REF\u002A\u002A,2*%
X151357500Y-126370000D03*
%TO.P,REF\u002A\u002A,3*%
X151357500Y-127420000D03*
%TO.P,REF\u002A\u002A,4*%
X153382500Y-127470000D03*
%TD*%
%TO.P,REF\u002A\u002A,1*%
%TO.N,N/C*%
X153382500Y-116370000D03*
%TO.P,REF\u002A\u002A,2*%
X151357500Y-116370000D03*
%TO.P,REF\u002A\u002A,3*%
X151357500Y-117420000D03*
%TO.P,REF\u002A\u002A,4*%
X153382500Y-117470000D03*
%TD*%
%TO.P,REF\u002A\u002A,1*%
%TO.N,N/C*%
X153382500Y-56370000D03*
%TO.P,REF\u002A\u002A,2*%
X151357500Y-56370000D03*
%TO.P,REF\u002A\u002A,3*%
X151357500Y-57420000D03*
%TO.P,REF\u002A\u002A,4*%
X153382500Y-57470000D03*
%TD*%
%TO.P,REF\u002A\u002A,1*%
%TO.N,N/C*%
X153382500Y-46370000D03*
%TO.P,REF\u002A\u002A,2*%
X151357500Y-46370000D03*
%TO.P,REF\u002A\u002A,3*%
X151357500Y-47420000D03*
%TO.P,REF\u002A\u002A,4*%
X153382500Y-47470000D03*
%TD*%
%TO.P,REF\u002A\u002A,1*%
%TO.N,N/C*%
X153382500Y-36370000D03*
%TO.P,REF\u002A\u002A,2*%
X151357500Y-36370000D03*
%TO.P,REF\u002A\u002A,3*%
X151357500Y-37420000D03*
%TO.P,REF\u002A\u002A,4*%
X153382500Y-37470000D03*
%TD*%
%TO.P,REF\u002A\u002A,1*%
%TO.N,N/C*%
X153382500Y-96370000D03*
%TO.P,REF\u002A\u002A,2*%
X151357500Y-96370000D03*
%TO.P,REF\u002A\u002A,3*%
X151357500Y-97420000D03*
%TO.P,REF\u002A\u002A,4*%
X153382500Y-97470000D03*
%TD*%
%TO.P,REF\u002A\u002A,1*%
%TO.N,N/C*%
X153382500Y-86370000D03*
%TO.P,REF\u002A\u002A,2*%
X151357500Y-86370000D03*
%TO.P,REF\u002A\u002A,3*%
X151357500Y-87420000D03*
%TO.P,REF\u002A\u002A,4*%
X153382500Y-87470000D03*
%TD*%
%TO.P,REF\u002A\u002A,1*%
%TO.N,N/C*%
X153382500Y-76370000D03*
%TO.P,REF\u002A\u002A,2*%
X151357500Y-76370000D03*
%TO.P,REF\u002A\u002A,3*%
X151357500Y-77420000D03*
%TO.P,REF\u002A\u002A,4*%
X153382500Y-77470000D03*
%TD*%
%TO.P,REF\u002A\u002A,1*%
%TO.N,N/C*%
X153382500Y-66370000D03*
%TO.P,REF\u002A\u002A,2*%
X151357500Y-66370000D03*
%TO.P,REF\u002A\u002A,3*%
X151357500Y-67420000D03*
%TO.P,REF\u002A\u002A,4*%
X153382500Y-67470000D03*
%TD*%
%TO.P,REF\u002A\u002A,4*%
%TO.N,N/C*%
X103382500Y-127470000D03*
%TO.P,REF\u002A\u002A,3*%
X101357500Y-127420000D03*
%TO.P,REF\u002A\u002A,2*%
X101357500Y-126370000D03*
%TO.P,REF\u002A\u002A,1*%
X103382500Y-126370000D03*
%TD*%
%TO.P,REF\u002A\u002A,4*%
%TO.N,N/C*%
X103382500Y-117470000D03*
%TO.P,REF\u002A\u002A,3*%
X101357500Y-117420000D03*
%TO.P,REF\u002A\u002A,2*%
X101357500Y-116370000D03*
%TO.P,REF\u002A\u002A,1*%
X103382500Y-116370000D03*
%TD*%
%TO.P,REF\u002A\u002A,4*%
%TO.N,N/C*%
X103382500Y-107470000D03*
%TO.P,REF\u002A\u002A,3*%
X101357500Y-107420000D03*
%TO.P,REF\u002A\u002A,2*%
X101357500Y-106370000D03*
%TO.P,REF\u002A\u002A,1*%
X103382500Y-106370000D03*
%TD*%
%TO.P,REF\u002A\u002A,4*%
%TO.N,N/C*%
X103382500Y-37470000D03*
%TO.P,REF\u002A\u002A,3*%
X101357500Y-37420000D03*
%TO.P,REF\u002A\u002A,2*%
X101357500Y-36370000D03*
%TO.P,REF\u002A\u002A,1*%
X103382500Y-36370000D03*
%TD*%
%TO.P,REF\u002A\u002A,4*%
%TO.N,N/C*%
X103382500Y-87470000D03*
%TO.P,REF\u002A\u002A,3*%
X101357500Y-87420000D03*
%TO.P,REF\u002A\u002A,2*%
X101357500Y-86370000D03*
%TO.P,REF\u002A\u002A,1*%
X103382500Y-86370000D03*
%TD*%
%TO.P,REF\u002A\u002A,4*%
%TO.N,N/C*%
X103382500Y-77470000D03*
%TO.P,REF\u002A\u002A,3*%
X101357500Y-77420000D03*
%TO.P,REF\u002A\u002A,2*%
X101357500Y-76370000D03*
%TO.P,REF\u002A\u002A,1*%
X103382500Y-76370000D03*
%TD*%
%TO.P,REF\u002A\u002A,4*%
%TO.N,N/C*%
X103382500Y-67470000D03*
%TO.P,REF\u002A\u002A,3*%
X101357500Y-67420000D03*
%TO.P,REF\u002A\u002A,2*%
X101357500Y-66370000D03*
%TO.P,REF\u002A\u002A,1*%
X103382500Y-66370000D03*
%TD*%
%TO.P,REF\u002A\u002A,4*%
%TO.N,N/C*%
X103382500Y-97470000D03*
%TO.P,REF\u002A\u002A,3*%
X101357500Y-97420000D03*
%TO.P,REF\u002A\u002A,2*%
X101357500Y-96370000D03*
%TO.P,REF\u002A\u002A,1*%
X103382500Y-96370000D03*
%TD*%
%TO.P,REF\u002A\u002A,4*%
%TO.N,N/C*%
X103382500Y-47470000D03*
%TO.P,REF\u002A\u002A,3*%
X101357500Y-47420000D03*
%TO.P,REF\u002A\u002A,2*%
X101357500Y-46370000D03*
%TO.P,REF\u002A\u002A,1*%
X103382500Y-46370000D03*
%TD*%
%TO.P,REF\u002A\u002A,4*%
%TO.N,N/C*%
X103382500Y-57470000D03*
%TO.P,REF\u002A\u002A,3*%
X101357500Y-57420000D03*
%TO.P,REF\u002A\u002A,2*%
X101357500Y-56370000D03*
%TO.P,REF\u002A\u002A,1*%
X103382500Y-56370000D03*
%TD*%
D14*
%TO.P,10 nF,2*%
%TO.N,N/C*%
X67975000Y-118500000D03*
%TO.P,10 nF,1*%
X65025000Y-118500000D03*
%TD*%
D10*
%TO.P,REF\u002A\u002A,1*%
%TO.N,N/C*%
X59250100Y-116812500D03*
D11*
%TO.P,REF\u002A\u002A,2*%
X59250100Y-119352500D03*
%TO.P,REF\u002A\u002A,3*%
X59250100Y-121892500D03*
%TD*%
D14*
%TO.P,10 nF,2*%
%TO.N,N/C*%
X67000000Y-61000000D03*
%TO.P,10 nF,1*%
X64050000Y-61000000D03*
%TD*%
%TO.P,10 nF,2*%
%TO.N,N/C*%
X67475000Y-45500000D03*
%TO.P,10 nF,1*%
X64525000Y-45500000D03*
%TD*%
%TO.P,10 nF,2*%
%TO.N,N/C*%
X67475000Y-107600000D03*
%TO.P,10 nF,1*%
X64525000Y-107600000D03*
%TD*%
%TO.P,10 nF,2*%
%TO.N,N/C*%
X67575000Y-36145716D03*
%TO.P,10 nF,1*%
X64625000Y-36145716D03*
%TD*%
D11*
%TO.P,REF\u002A\u002A,3*%
%TO.N,N/C*%
X59200000Y-54120000D03*
%TO.P,REF\u002A\u002A,2*%
X59200000Y-56660000D03*
D10*
%TO.P,REF\u002A\u002A,1*%
X59200000Y-59200000D03*
%TD*%
D14*
%TO.P,10 nF,2*%
%TO.N,N/C*%
X67575000Y-73072857D03*
%TO.P,10 nF,1*%
X64625000Y-73072857D03*
%TD*%
D11*
%TO.P,REF\u002A\u002A,3*%
%TO.N,N/C*%
X59250100Y-36020000D03*
%TO.P,REF\u002A\u002A,2*%
X59250100Y-38560000D03*
D10*
%TO.P,REF\u002A\u002A,1*%
X59250100Y-41100000D03*
%TD*%
D11*
%TO.P,REF\u002A\u002A,3*%
%TO.N,N/C*%
X59250100Y-71907500D03*
%TO.P,REF\u002A\u002A,2*%
X59250100Y-74447500D03*
D10*
%TO.P,REF\u002A\u002A,1*%
X59250100Y-76987500D03*
%TD*%
D14*
%TO.P,10 nF,2*%
%TO.N,N/C*%
X67575000Y-66500000D03*
%TO.P,10 nF,1*%
X64625000Y-66500000D03*
%TD*%
%TO.P,10 nF,2*%
%TO.N,N/C*%
X67575000Y-50800000D03*
%TO.P,10 nF,1*%
X64625000Y-50800000D03*
%TD*%
%TO.P,10 nF,2*%
%TO.N,N/C*%
X67575000Y-85381904D03*
%TO.P,10 nF,1*%
X64625000Y-85381904D03*
%TD*%
D11*
%TO.P,REF\u002A\u002A,3*%
%TO.N,N/C*%
X59250100Y-89707500D03*
%TO.P,REF\u002A\u002A,2*%
X59250100Y-92247500D03*
D10*
%TO.P,REF\u002A\u002A,1*%
X59250100Y-94787500D03*
%TD*%
D11*
%TO.P,REF\u002A\u002A,3*%
%TO.N,N/C*%
X59250100Y-107507500D03*
%TO.P,REF\u002A\u002A,2*%
X59250100Y-110047500D03*
D10*
%TO.P,REF\u002A\u002A,1*%
X59250100Y-112587500D03*
%TD*%
D14*
%TO.P,10 nF,2*%
%TO.N,N/C*%
X67575000Y-97690951D03*
%TO.P,10 nF,1*%
X64625000Y-97690951D03*
%TD*%
D10*
%TO.P,REF\u002A\u002A,1*%
%TO.N,N/C*%
X59250100Y-80812500D03*
D11*
%TO.P,REF\u002A\u002A,2*%
X59250100Y-83352500D03*
%TO.P,REF\u002A\u002A,3*%
X59250100Y-85892500D03*
%TD*%
D10*
%TO.P,REF\u002A\u002A,1*%
%TO.N,N/C*%
X59200000Y-45000000D03*
D11*
%TO.P,REF\u002A\u002A,2*%
X59200000Y-47540000D03*
%TO.P,REF\u002A\u002A,3*%
X59200000Y-50080000D03*
%TD*%
D10*
%TO.P,REF\u002A\u002A,1*%
%TO.N,N/C*%
X59250100Y-98612500D03*
D11*
%TO.P,REF\u002A\u002A,2*%
X59250100Y-101152500D03*
%TO.P,REF\u002A\u002A,3*%
X59250100Y-103692500D03*
%TD*%
D10*
%TO.P,REF\u002A\u002A,1*%
%TO.N,N/C*%
X59250100Y-63012500D03*
D11*
%TO.P,REF\u002A\u002A,2*%
X59250100Y-65552500D03*
%TO.P,REF\u002A\u002A,3*%
X59250100Y-68092500D03*
%TD*%
D15*
%TO.N,*%
X152500000Y-128500000D03*
X151500000Y-128500000D03*
X152500000Y-118500000D03*
X151500000Y-118500000D03*
X152500000Y-108500000D03*
X151500000Y-108500000D03*
X152500000Y-98500000D03*
X151500000Y-98500000D03*
X152500000Y-88500000D03*
X151500000Y-88500000D03*
X152500000Y-78500000D03*
X151500000Y-78500000D03*
X152500000Y-68500000D03*
X151500000Y-68500000D03*
X152500000Y-58500000D03*
X151500000Y-58500000D03*
X152500000Y-48500000D03*
X151500000Y-48500000D03*
X152500000Y-38500000D03*
X151500000Y-38500000D03*
X182092500Y-111392500D03*
X185092500Y-96392500D03*
X181092500Y-39892500D03*
X189092500Y-99392500D03*
X188592500Y-114392500D03*
X189092500Y-96392500D03*
X183592500Y-98392500D03*
X182092500Y-113392500D03*
X188592500Y-111892500D03*
X188092500Y-38892500D03*
X188092500Y-41392500D03*
X181092500Y-38892500D03*
X188892500Y-47892500D03*
X189692500Y-82592500D03*
X188792500Y-62592500D03*
X182092500Y-89892500D03*
X189192500Y-52692500D03*
X181592500Y-52892500D03*
X188992500Y-74092500D03*
X182092500Y-84892500D03*
X181592500Y-87892500D03*
X188892500Y-106392500D03*
X190692500Y-70092500D03*
X179892500Y-121392500D03*
X182092500Y-82392500D03*
X187592500Y-88892500D03*
X182092500Y-106392500D03*
X181592500Y-47562148D03*
X190292500Y-57092500D03*
X182092500Y-107492500D03*
X181592500Y-51392500D03*
X179922500Y-118762500D03*
X188792500Y-109192500D03*
X188892500Y-86092500D03*
X188692500Y-124292500D03*
X181592500Y-44892500D03*
X188092500Y-93892500D03*
X190792500Y-118892500D03*
X183092500Y-70892500D03*
X182592500Y-75032614D03*
X77000000Y-121500000D03*
X77000000Y-120500000D03*
X70000000Y-121500000D03*
X70000000Y-119000000D03*
X102500000Y-128500000D03*
X101500000Y-128500000D03*
X102500000Y-118500000D03*
X101357500Y-118357500D03*
X102500000Y-108500000D03*
X101500000Y-108500000D03*
X73000000Y-64000000D03*
X74500000Y-62000000D03*
X69000000Y-64000000D03*
X69000000Y-61000000D03*
X76000000Y-47000000D03*
X76000000Y-49000000D03*
X69500000Y-46000000D03*
X69500000Y-48500000D03*
X101500000Y-98500000D03*
X102500000Y-98500000D03*
X102500000Y-88500000D03*
X102500000Y-48500000D03*
X101500000Y-48500000D03*
X69300000Y-51200000D03*
X78170000Y-41630000D03*
X75500000Y-85359886D03*
X69200000Y-54000000D03*
X101500000Y-38500000D03*
X76000000Y-54000000D03*
X102500000Y-38500000D03*
X101500000Y-68500000D03*
X78200000Y-39000000D03*
X67400000Y-90300000D03*
X67300000Y-41500000D03*
X101500000Y-88500000D03*
X76500000Y-115500000D03*
X69100000Y-86300000D03*
X101500000Y-58500000D03*
X76500000Y-112830352D03*
X75000000Y-89500000D03*
X69200000Y-74300000D03*
X76500000Y-72500000D03*
X70500000Y-71500000D03*
X76000000Y-75500000D03*
X76500000Y-109000000D03*
X69400000Y-36100000D03*
X76000000Y-52900000D03*
X76000000Y-78000000D03*
X102500000Y-78500000D03*
X102500000Y-58500000D03*
X70000000Y-66500000D03*
X102500000Y-68500000D03*
X67800000Y-103300000D03*
X76500000Y-107500000D03*
X76000000Y-70500000D03*
X101500000Y-78500000D03*
X68400000Y-77800000D03*
X68900000Y-107700000D03*
X69200000Y-112500000D03*
X69300000Y-97800000D03*
%TD*%
D16*
%TO.N,*%
X152370000Y-46370000D02*
X152500000Y-46500000D01*
X151357500Y-46370000D02*
X152370000Y-46370000D01*
X152500000Y-46500000D02*
X152500000Y-48500000D01*
X151357500Y-47420000D02*
X151357500Y-48357500D01*
X151357500Y-48357500D02*
X151500000Y-48500000D01*
X152370000Y-56370000D02*
X152500000Y-56500000D01*
X151357500Y-56370000D02*
X152370000Y-56370000D01*
X152500000Y-56500000D02*
X152500000Y-58500000D01*
X151357500Y-57420000D02*
X151357500Y-58357500D01*
X151357500Y-58357500D02*
X151500000Y-58500000D01*
X151357500Y-67420000D02*
X151357500Y-68357500D01*
X151357500Y-68357500D02*
X151500000Y-68500000D01*
X152370000Y-66370000D02*
X152500000Y-66500000D01*
X151357500Y-66370000D02*
X152370000Y-66370000D01*
X152500000Y-66500000D02*
X152500000Y-68500000D01*
X151870000Y-76370000D02*
X152500000Y-77000000D01*
X151357500Y-76370000D02*
X151870000Y-76370000D01*
X152500000Y-77000000D02*
X152500000Y-78500000D01*
X151357500Y-77420000D02*
X151357500Y-78357500D01*
X151357500Y-78357500D02*
X151500000Y-78500000D01*
X151357500Y-87420000D02*
X151357500Y-88357500D01*
X151357500Y-88357500D02*
X151500000Y-88500000D01*
X152370000Y-86370000D02*
X152500000Y-86500000D01*
X151357500Y-86370000D02*
X152370000Y-86370000D01*
X152500000Y-86500000D02*
X152500000Y-88500000D01*
X151357500Y-97420000D02*
X151357500Y-98357500D01*
X151357500Y-98357500D02*
X151500000Y-98500000D01*
X152370000Y-96370000D02*
X152500000Y-96500000D01*
X151357500Y-96370000D02*
X152370000Y-96370000D01*
X152500000Y-96500000D02*
X152500000Y-98500000D01*
X151357500Y-107420000D02*
X151357500Y-108357500D01*
X151357500Y-108357500D02*
X151500000Y-108500000D01*
X152370000Y-106370000D02*
X152500000Y-106500000D01*
X151357500Y-106370000D02*
X152370000Y-106370000D01*
X152500000Y-106500000D02*
X152500000Y-108500000D01*
X151357500Y-117420000D02*
X151357500Y-118357500D01*
X151357500Y-118357500D02*
X151500000Y-118500000D01*
D17*
X152500000Y-118500000D02*
X152500000Y-116500000D01*
X152500000Y-116500000D02*
X152370000Y-116370000D01*
X152370000Y-116370000D02*
X151357500Y-116370000D01*
X152500000Y-126500000D02*
X152000000Y-126000000D01*
X152500000Y-128500000D02*
X152500000Y-126500000D01*
X152000000Y-126000000D02*
X151727500Y-126000000D01*
X151727500Y-126000000D02*
X151357500Y-126370000D01*
D16*
X151357500Y-127420000D02*
X151357500Y-128357500D01*
X151357500Y-128357500D02*
X151500000Y-128500000D01*
X152370000Y-36370000D02*
X152500000Y-36500000D01*
X152500000Y-36500000D02*
X152500000Y-38500000D01*
X151357500Y-36370000D02*
X152370000Y-36370000D01*
D17*
X151500000Y-38500000D02*
X151500000Y-37562500D01*
X151500000Y-37562500D02*
X151357500Y-37420000D01*
X197492500Y-63592500D02*
X196892500Y-62992500D01*
X191592500Y-70092500D02*
X196080000Y-65605000D01*
D16*
X184590006Y-121294994D02*
X198822400Y-121294994D01*
X197621200Y-75721200D02*
X200021200Y-75721200D01*
X195392500Y-101192500D02*
X198892500Y-101192500D01*
D17*
X198842400Y-47805000D02*
X197705000Y-47805000D01*
D16*
X189692500Y-82592500D02*
X190749900Y-82592500D01*
X188738216Y-124246784D02*
X188692500Y-124292500D01*
X198842400Y-70685000D02*
X197793096Y-70685000D01*
D17*
X189192500Y-52692500D02*
X190517500Y-52692500D01*
X198892500Y-106272500D02*
X195572500Y-109592500D01*
D16*
X188919170Y-62719170D02*
X190499879Y-62719170D01*
X188792500Y-62592500D02*
X188919170Y-62719170D01*
X199905000Y-79580000D02*
X198842400Y-79580000D01*
X188892500Y-86092500D02*
X190119643Y-87319643D01*
D17*
X198842400Y-52885000D02*
X196685000Y-52885000D01*
X202692500Y-75992500D02*
X201200000Y-74500000D01*
D16*
X190192500Y-106392500D02*
X195392500Y-101192500D01*
D17*
X193758451Y-62992500D02*
X193369881Y-62603930D01*
D16*
X190499879Y-62719170D02*
X190517500Y-62701549D01*
D17*
X201200000Y-74500000D02*
X198842400Y-74500000D01*
D16*
X197793096Y-70685000D02*
X193521784Y-74956312D01*
D17*
X198842400Y-56700000D02*
X200400000Y-56700000D01*
D16*
X200021200Y-75721200D02*
X200492500Y-76192500D01*
X188992500Y-74092500D02*
X189910596Y-75010596D01*
D17*
X197617500Y-47892500D02*
X187292500Y-47892500D01*
X192892500Y-72192500D02*
X187172728Y-72192500D01*
X201692500Y-57992500D02*
X201692500Y-61592500D01*
D16*
X194892500Y-85894643D02*
X194892500Y-84392500D01*
D17*
X195572500Y-109592500D02*
X193467500Y-109592500D01*
X200292500Y-57992500D02*
X200492500Y-58192500D01*
X191722500Y-118762500D02*
X179922500Y-118762500D01*
X199692500Y-63592500D02*
X197492500Y-63592500D01*
D16*
X188892500Y-106392500D02*
X190192500Y-106392500D01*
D17*
X199305000Y-61780000D02*
X198842400Y-61780000D01*
X193660000Y-52885000D02*
X193567500Y-52792500D01*
D16*
X190517500Y-124246784D02*
X188738216Y-124246784D01*
D17*
X197892500Y-81392500D02*
X199692500Y-81392500D01*
X196685000Y-52885000D02*
X193660000Y-52885000D01*
X197492500Y-119992500D02*
X192952500Y-119992500D01*
X198842400Y-68145000D02*
X196940000Y-68145000D01*
D16*
X189910596Y-75010596D02*
X190517500Y-75010596D01*
D17*
X190292500Y-57092500D02*
X190392500Y-57192500D01*
D16*
X188792500Y-109192500D02*
X190117500Y-109192500D01*
X190749900Y-82592500D02*
X197621200Y-75721200D01*
D17*
X199692500Y-81392500D02*
X202692500Y-78392500D01*
X196567500Y-45392500D02*
X193067500Y-41892500D01*
X200700000Y-38500000D02*
X203092500Y-40892500D01*
D16*
X184292852Y-44882500D02*
X181602500Y-44882500D01*
D17*
X199592500Y-45392500D02*
X196567500Y-45392500D01*
D16*
X181602500Y-44882500D02*
X181592500Y-44892500D01*
D17*
X198842400Y-38500000D02*
X200700000Y-38500000D01*
X203092500Y-40892500D02*
X203092500Y-41892500D01*
X203092500Y-41892500D02*
X199592500Y-45392500D01*
X190517500Y-52692500D02*
X190617500Y-52792500D01*
X196080000Y-65605000D02*
X198842400Y-65605000D01*
X198795616Y-57192500D02*
X198822400Y-57219284D01*
D16*
X179892500Y-121392500D02*
X184492500Y-121392500D01*
X200492500Y-76192500D02*
X200492500Y-78992500D01*
D17*
X198842400Y-119265000D02*
X198220000Y-119265000D01*
X200400000Y-56700000D02*
X201692500Y-57992500D01*
X197705000Y-47805000D02*
X197617500Y-47892500D01*
X201692500Y-61592500D02*
X199692500Y-63592500D01*
X187292500Y-47892500D02*
X184292500Y-44892500D01*
D16*
X193593216Y-124372500D02*
X193467500Y-124246784D01*
D17*
X198842400Y-65605000D02*
X198842400Y-64942400D01*
X200492500Y-58192500D02*
X200492500Y-60592500D01*
X196940000Y-68145000D02*
X192892500Y-72192500D01*
D16*
X184492500Y-121392500D02*
X184590006Y-121294994D01*
D17*
X190692500Y-70092500D02*
X191592500Y-70092500D01*
X190392500Y-57192500D02*
X195692500Y-57192500D01*
X196892500Y-62992500D02*
X193758451Y-62992500D01*
X192952500Y-119992500D02*
X191722500Y-118762500D01*
D16*
X198842400Y-124372500D02*
X193593216Y-124372500D01*
D17*
X202692500Y-78392500D02*
X202692500Y-75992500D01*
D16*
X190119643Y-87319643D02*
X190517500Y-87319643D01*
X200492500Y-78992500D02*
X199905000Y-79580000D01*
D17*
X197892500Y-81392500D02*
X194892500Y-84392500D01*
D16*
X193467500Y-87319643D02*
X194892500Y-85894643D01*
X190117500Y-109192500D02*
X190517500Y-109592500D01*
D17*
X198220000Y-119265000D02*
X197492500Y-119992500D01*
X187172728Y-72192500D02*
X184332614Y-75032614D01*
X195692500Y-57192500D02*
X196492500Y-57992500D01*
X200492500Y-60592500D02*
X199305000Y-61780000D01*
X196492500Y-57992500D02*
X200292500Y-57992500D01*
X181792500Y-51192500D02*
X186392500Y-51192500D01*
X187092500Y-51892500D02*
X187092500Y-53892500D01*
X187092500Y-53892500D02*
X190292500Y-57092500D01*
X186392500Y-51192500D02*
X187092500Y-51892500D01*
X188592500Y-41892500D02*
X188092500Y-41392500D01*
X190117500Y-41892500D02*
X188592500Y-41892500D01*
X191092500Y-99392500D02*
X189092500Y-99392500D01*
D16*
X197540000Y-85945000D02*
X198842400Y-85945000D01*
X186092500Y-89392500D02*
X188092500Y-91392500D01*
X191089900Y-84792500D02*
X198842400Y-77040000D01*
X182092500Y-89892500D02*
X182592500Y-89392500D01*
X188092500Y-91392500D02*
X195592500Y-91392500D01*
X182092500Y-84892500D02*
X182192500Y-84792500D01*
X196692500Y-86792500D02*
X197540000Y-85945000D01*
X182592500Y-89392500D02*
X186092500Y-89392500D01*
X195592500Y-91392500D02*
X196692500Y-90292500D01*
X182192500Y-84792500D02*
X191089900Y-84792500D01*
X196692500Y-90292500D02*
X196692500Y-86792500D01*
X188933568Y-81833568D02*
X189692500Y-82592500D01*
X182651432Y-81833568D02*
X188933568Y-81833568D01*
X182092500Y-82392500D02*
X182651432Y-81833568D01*
D17*
X202592500Y-111892500D02*
X202592500Y-114892500D01*
X197092500Y-116892500D02*
X195092500Y-114892500D01*
X200592500Y-116892500D02*
X197092500Y-116892500D01*
X195092500Y-114892500D02*
X193567500Y-114892500D01*
X202592500Y-114892500D02*
X200592500Y-116892500D01*
D16*
X187245000Y-59240000D02*
X198842400Y-59240000D01*
D17*
X201012500Y-110312500D02*
X202592500Y-111892500D01*
D16*
X181592500Y-55492500D02*
X186092500Y-59992500D01*
X181592500Y-52892500D02*
X181592500Y-55492500D01*
X186092500Y-59992500D02*
X186492500Y-59992500D01*
D17*
X198892500Y-110312500D02*
X201012500Y-110312500D01*
D16*
X186492500Y-59992500D02*
X187245000Y-59240000D01*
D17*
X198842400Y-92300000D02*
X201000000Y-92300000D01*
X202092500Y-93392500D02*
X202092500Y-98392500D01*
X202092500Y-98392500D02*
X201092500Y-99392500D01*
X201000000Y-92300000D02*
X202092500Y-93392500D01*
X181592500Y-51392500D02*
X181792500Y-51192500D01*
X201092500Y-99392500D02*
X194092500Y-99392500D01*
D16*
X191092500Y-90392500D02*
X196092500Y-90392500D01*
X189592500Y-88892500D02*
X191092500Y-90392500D01*
X187592500Y-88892500D02*
X189592500Y-88892500D01*
X196092500Y-90392500D02*
X196092500Y-85592500D01*
X198280000Y-83405000D02*
X198842400Y-83405000D01*
D17*
X188592500Y-111892500D02*
X182592500Y-111892500D01*
D16*
X196092500Y-85592500D02*
X198280000Y-83405000D01*
D17*
X198892500Y-115392500D02*
X200092500Y-115392500D01*
X196592500Y-111392500D02*
X196092500Y-111892500D01*
X200092500Y-115392500D02*
X201092500Y-114392500D01*
X196092500Y-111892500D02*
X188592500Y-111892500D01*
X201092500Y-112392500D02*
X200092500Y-111392500D01*
X200092500Y-111392500D02*
X196592500Y-111392500D01*
X182592500Y-111892500D02*
X182092500Y-111392500D01*
X201092500Y-114392500D02*
X201092500Y-112392500D01*
X189592500Y-71192500D02*
X190692500Y-70092500D01*
X198842400Y-41040000D02*
X195240000Y-41040000D01*
X194092500Y-39892500D02*
X181092500Y-39892500D01*
X183092500Y-70892500D02*
X183392500Y-71192500D01*
X183392500Y-71192500D02*
X189592500Y-71192500D01*
X195092500Y-40892500D02*
X194092500Y-39892500D01*
X195240000Y-41040000D02*
X195092500Y-40892500D01*
D16*
X188892500Y-106392500D02*
X182092500Y-106392500D01*
D17*
X198892500Y-112852500D02*
X182632500Y-112852500D01*
X182632500Y-112852500D02*
X182092500Y-113392500D01*
X195592500Y-95892500D02*
X195592500Y-96392500D01*
X198842400Y-88485000D02*
X197600000Y-88485000D01*
X196289900Y-97392500D02*
X196092500Y-97392500D01*
X197492500Y-91492500D02*
X195092500Y-93892500D01*
X184592500Y-97392500D02*
X183592500Y-98392500D01*
X198842400Y-97380000D02*
X199605000Y-97380000D01*
X196092500Y-97392500D02*
X184592500Y-97392500D01*
X197492500Y-88592500D02*
X197492500Y-91492500D01*
X200592500Y-94392500D02*
X199592500Y-93392500D01*
X200592500Y-96392500D02*
X200592500Y-94392500D01*
X195592500Y-96392500D02*
X189092500Y-96392500D01*
X197600000Y-88485000D02*
X197492500Y-88592500D01*
X195092500Y-93892500D02*
X193467500Y-93892500D01*
X199592500Y-93392500D02*
X198092500Y-93392500D01*
X198842400Y-94840000D02*
X196289900Y-97392500D01*
X199605000Y-97380000D02*
X200592500Y-96392500D01*
D16*
X188092500Y-93892500D02*
X190517500Y-93892500D01*
D17*
X198092500Y-93392500D02*
X197092500Y-94392500D01*
X197092500Y-94392500D02*
X195592500Y-95892500D01*
D16*
X194852500Y-103732500D02*
X198892500Y-103732500D01*
X191092500Y-107492500D02*
X194852500Y-103732500D01*
X182092500Y-107492500D02*
X191092500Y-107492500D01*
D17*
X190617500Y-114892500D02*
X189092500Y-114892500D01*
X189092500Y-114892500D02*
X188592500Y-114392500D01*
D16*
X181592500Y-47562148D02*
X184432500Y-47562148D01*
X187215352Y-50345000D02*
X198842400Y-50345000D01*
X181592500Y-87892500D02*
X182092500Y-88392500D01*
X187092500Y-88392500D02*
X187592500Y-88892500D01*
X184432500Y-47562148D02*
X187215352Y-50345000D01*
X182092500Y-88392500D02*
X187092500Y-88392500D01*
D17*
X198842400Y-43580000D02*
X199405000Y-43580000D01*
X200592500Y-40392500D02*
X200092500Y-39892500D01*
X196092500Y-39892500D02*
X195092500Y-38892500D01*
X195092500Y-38892500D02*
X181092500Y-38892500D01*
X200592500Y-42392500D02*
X200592500Y-40392500D01*
X200092500Y-39892500D02*
X196092500Y-39892500D01*
X199405000Y-43580000D02*
X200592500Y-42392500D01*
X189092500Y-96392500D02*
X185092500Y-96392500D01*
D16*
X182592500Y-75032614D02*
X184332614Y-75032614D01*
D17*
X68500000Y-89200000D02*
X67400000Y-90300000D01*
X74700000Y-89200000D02*
X68500000Y-89200000D01*
X75000000Y-89500000D02*
X74700000Y-89200000D01*
D16*
X75500000Y-85359886D02*
X73759886Y-85359886D01*
X73799648Y-115510000D02*
X76490000Y-115510000D01*
X76490000Y-115510000D02*
X76500000Y-115500000D01*
X76500000Y-107500000D02*
X76500000Y-104900000D01*
X76500000Y-104900000D02*
X72000000Y-100400000D01*
X72000000Y-100400000D02*
X71600000Y-100400000D01*
X71600000Y-100400000D02*
X70847500Y-101152500D01*
X70847500Y-101152500D02*
X59250100Y-101152500D01*
D17*
X76500000Y-109000000D02*
X76300000Y-109200000D01*
X76300000Y-109200000D02*
X71700000Y-109200000D01*
X71700000Y-109200000D02*
X71000000Y-108500000D01*
X71000000Y-108500000D02*
X71000000Y-106500000D01*
X71000000Y-106500000D02*
X67800000Y-103300000D01*
D16*
X76500000Y-112830352D02*
X73660000Y-112830352D01*
X70877148Y-110047500D02*
X59250100Y-110047500D01*
X73660000Y-112830352D02*
X70877148Y-110047500D01*
X76000000Y-78000000D02*
X75441068Y-78558932D01*
X75441068Y-78558932D02*
X69158932Y-78558932D01*
X69158932Y-78558932D02*
X68400000Y-77800000D01*
X76000000Y-75500000D02*
X75900000Y-75600000D01*
X75900000Y-75600000D02*
X67002600Y-75600000D01*
X67002600Y-75600000D02*
X59250100Y-83352500D01*
X76500000Y-72500000D02*
X76000000Y-72000000D01*
X76000000Y-72000000D02*
X71000000Y-72000000D01*
X71000000Y-72000000D02*
X70500000Y-71500000D01*
X76000000Y-70500000D02*
X75500000Y-71000000D01*
X72000000Y-71000000D02*
X70000000Y-69000000D01*
X61400000Y-70100000D02*
X61400000Y-73600000D01*
X75500000Y-71000000D02*
X72000000Y-71000000D01*
X70000000Y-69000000D02*
X62500000Y-69000000D01*
X62500000Y-69000000D02*
X61400000Y-70100000D01*
X61400000Y-73600000D02*
X60552500Y-74447500D01*
X60552500Y-74447500D02*
X59250100Y-74447500D01*
X69200000Y-54000000D02*
X76000000Y-54000000D01*
X76000000Y-52900000D02*
X67000000Y-52900000D01*
X67000000Y-52900000D02*
X63240000Y-56660000D01*
X63240000Y-56660000D02*
X59200000Y-56660000D01*
D17*
X67975000Y-118500000D02*
X69500000Y-118500000D01*
X69500000Y-118500000D02*
X70000000Y-119000000D01*
X64000000Y-120500000D02*
X77000000Y-120500000D01*
X63000000Y-119500000D02*
X64000000Y-120500000D01*
X59250100Y-116812500D02*
X58687500Y-116812500D01*
X58687500Y-116812500D02*
X57500000Y-118000000D01*
X58000000Y-120500000D02*
X62000000Y-120500000D01*
X57500000Y-120000000D02*
X58000000Y-120500000D01*
X57500000Y-118000000D02*
X57500000Y-120000000D01*
X62000000Y-120500000D02*
X63000000Y-121500000D01*
X63000000Y-121500000D02*
X77000000Y-121500000D01*
X62852500Y-119352500D02*
X63000000Y-119500000D01*
X59250100Y-119352500D02*
X62852500Y-119352500D01*
X59250100Y-121892500D02*
X57392500Y-121892500D01*
X57392500Y-121892500D02*
X55000000Y-119500000D01*
X55000000Y-119500000D02*
X55000000Y-118500000D01*
X55000000Y-118500000D02*
X58500000Y-115000000D01*
X58500000Y-115000000D02*
X61525000Y-115000000D01*
X61525000Y-115000000D02*
X65025000Y-118500000D01*
X101870000Y-86370000D02*
X101357500Y-86370000D01*
X102500000Y-88500000D02*
X102500000Y-87000000D01*
X102500000Y-87000000D02*
X101870000Y-86370000D01*
X102500000Y-118500000D02*
X102500000Y-119000000D01*
X101357500Y-117420000D02*
X101357500Y-118357500D01*
X102500000Y-117000000D02*
X102500000Y-118500000D01*
X101357500Y-116370000D02*
X101870000Y-116370000D01*
X101870000Y-116370000D02*
X102500000Y-117000000D01*
D16*
X102500000Y-108500000D02*
X102500000Y-106500000D01*
X102500000Y-106500000D02*
X102370000Y-106370000D01*
X102370000Y-106370000D02*
X101357500Y-106370000D01*
D17*
X101357500Y-107420000D02*
X101357500Y-108357500D01*
X101357500Y-108357500D02*
X101500000Y-108500000D01*
X101870000Y-36370000D02*
X101357500Y-36370000D01*
X102500000Y-37000000D02*
X101870000Y-36370000D01*
X102500000Y-38500000D02*
X102500000Y-37000000D01*
D16*
X101437500Y-38500000D02*
X101357500Y-38420000D01*
X101500000Y-38500000D02*
X101437500Y-38500000D01*
X102500000Y-48500000D02*
X102500000Y-48000000D01*
X101500000Y-48500000D02*
X101437500Y-48500000D01*
X101437500Y-48500000D02*
X101357500Y-48420000D01*
X102500000Y-58500000D02*
X102500000Y-58000000D01*
X102500000Y-58000000D02*
X101870000Y-57370000D01*
X101870000Y-57370000D02*
X101357500Y-57370000D01*
X101500000Y-58500000D02*
X101500000Y-57785000D01*
X101500000Y-57785000D02*
X101357500Y-57642500D01*
X102500000Y-68500000D02*
X102500000Y-67500000D01*
X101357500Y-68357500D02*
X101357500Y-67420000D01*
X101500000Y-68500000D02*
X101357500Y-68357500D01*
D17*
X102500000Y-66500000D02*
X102500000Y-68000000D01*
X101357500Y-66370000D02*
X102370000Y-66370000D01*
X102370000Y-66370000D02*
X102500000Y-66500000D01*
X101357500Y-77420000D02*
X101357500Y-78357500D01*
X101357500Y-78357500D02*
X101500000Y-78500000D01*
X102500000Y-78500000D02*
X102500000Y-77000000D01*
X102500000Y-77000000D02*
X101870000Y-76370000D01*
X101870000Y-76370000D02*
X101357500Y-76370000D01*
X101357500Y-87420000D02*
X101357500Y-88357500D01*
X101357500Y-88357500D02*
X101500000Y-88500000D01*
X102500000Y-98500000D02*
X102500000Y-97000000D01*
X101870000Y-96370000D02*
X101357500Y-96370000D01*
X102500000Y-97000000D02*
X101870000Y-96370000D01*
X101357500Y-98357500D02*
X101357500Y-97420000D01*
X101500000Y-98500000D02*
X101357500Y-98357500D01*
X67000000Y-61000000D02*
X69000000Y-61000000D01*
X69000000Y-64000000D02*
X73000000Y-64000000D01*
X73500000Y-63000000D02*
X74500000Y-62000000D01*
X62000000Y-63000000D02*
X73500000Y-63000000D01*
X59250100Y-65552500D02*
X61802600Y-63000000D01*
X61802600Y-63000000D02*
X62000000Y-63000000D01*
X58500000Y-67000000D02*
X60000000Y-67000000D01*
X60000000Y-67000000D02*
X61000000Y-66000000D01*
X57500000Y-64000000D02*
X57500000Y-66000000D01*
X62500000Y-64000000D02*
X69000000Y-64000000D01*
X59250100Y-63012500D02*
X58487500Y-63012500D01*
X58487500Y-63012500D02*
X57500000Y-64000000D01*
X57500000Y-66000000D02*
X58500000Y-67000000D01*
X61000000Y-66000000D02*
X62500000Y-64500000D01*
X62500000Y-64500000D02*
X62500000Y-64000000D01*
X57092500Y-68092500D02*
X56000000Y-67000000D01*
X56000000Y-67000000D02*
X56000000Y-62000000D01*
X57000000Y-61000000D02*
X64000000Y-61000000D01*
X59250100Y-68092500D02*
X57092500Y-68092500D01*
X56000000Y-62000000D02*
X57000000Y-61000000D01*
X60600000Y-68900000D02*
X63000000Y-66500000D01*
X60600000Y-71800000D02*
X60600000Y-68900000D01*
X63000000Y-66500000D02*
X64625000Y-66500000D01*
X60492500Y-71907500D02*
X60600000Y-71800000D01*
X59250100Y-71907500D02*
X60492500Y-71907500D01*
D16*
X70000000Y-66500000D02*
X67575000Y-66500000D01*
X67000000Y-70000000D02*
X62000000Y-70000000D01*
X62000000Y-70000000D02*
X62000000Y-74800000D01*
X68500000Y-71500000D02*
X67000000Y-70000000D01*
X70500000Y-71500000D02*
X68500000Y-71500000D01*
X62000000Y-74800000D02*
X59812500Y-76987500D01*
X59812500Y-76987500D02*
X59250100Y-76987500D01*
D17*
X69500000Y-48500000D02*
X75500000Y-48500000D01*
X58000000Y-45000000D02*
X57000000Y-46000000D01*
X57000000Y-46000000D02*
X57000000Y-48000000D01*
X57000000Y-48000000D02*
X58000000Y-49000000D01*
X59200000Y-45000000D02*
X58000000Y-45000000D01*
X58000000Y-49000000D02*
X61500000Y-49000000D01*
X61500000Y-49000000D02*
X62000000Y-48500000D01*
X62000000Y-48500000D02*
X69500000Y-48500000D01*
X75500000Y-48500000D02*
X76000000Y-49000000D01*
X69000000Y-45500000D02*
X69500000Y-46000000D01*
X67475000Y-45500000D02*
X69000000Y-45500000D01*
X75460000Y-47540000D02*
X76000000Y-47000000D01*
X59200000Y-47540000D02*
X75460000Y-47540000D01*
X59200000Y-50080000D02*
X57080000Y-50080000D01*
X57080000Y-50080000D02*
X55500000Y-48500000D01*
X55500000Y-48500000D02*
X55500000Y-45500000D01*
X55500000Y-45500000D02*
X57500000Y-43500000D01*
X63000000Y-45500000D02*
X64525000Y-45500000D01*
X57500000Y-43500000D02*
X61000000Y-43500000D01*
X61000000Y-43500000D02*
X63000000Y-45500000D01*
X101357500Y-47420000D02*
X101357500Y-48420000D01*
X102370000Y-46370000D02*
X102500000Y-46500000D01*
X102500000Y-46500000D02*
X102500000Y-48000000D01*
X101357500Y-46370000D02*
X102370000Y-46370000D01*
X101357500Y-37420000D02*
X101357500Y-38420000D01*
X70800000Y-112500000D02*
X73800000Y-115500000D01*
X62012500Y-94787500D02*
X59250100Y-94787500D01*
D16*
X57600000Y-84200000D02*
X57600000Y-81400000D01*
D17*
X57692500Y-103692500D02*
X56400000Y-102400000D01*
X59250100Y-41127500D02*
X59872500Y-41127500D01*
X59296884Y-103200000D02*
X59270100Y-103173216D01*
D16*
X78200000Y-39000000D02*
X73600000Y-39000000D01*
X64499284Y-36020000D02*
X64625000Y-36145716D01*
D17*
X67575000Y-107700000D02*
X67475000Y-107600000D01*
X59250100Y-94787500D02*
X59250100Y-95450100D01*
X56400000Y-98800000D02*
X58400000Y-96800000D01*
X60387500Y-112587500D02*
X60475000Y-112500000D01*
X62400000Y-103200000D02*
X61600000Y-102400000D01*
D16*
X67975000Y-51200000D02*
X67575000Y-50800000D01*
X67972857Y-73072857D02*
X67575000Y-73072857D01*
D17*
X67400000Y-90300000D02*
X66500000Y-90300000D01*
X57600000Y-102200000D02*
X57600000Y-99800000D01*
X57600000Y-99800000D02*
X58787500Y-98612500D01*
X59872500Y-41127500D02*
X60600000Y-40400000D01*
X61152500Y-92247500D02*
X65200000Y-88200000D01*
D16*
X57600000Y-81400000D02*
X58187500Y-80812500D01*
D17*
X55400000Y-82000000D02*
X55400000Y-84400000D01*
D16*
X73600000Y-39000000D02*
X73502494Y-39097506D01*
X64625000Y-73072857D02*
X63200000Y-74497857D01*
D17*
X70919772Y-88200000D02*
X73759886Y-85359886D01*
X61600000Y-102400000D02*
X57800000Y-102400000D01*
D16*
X59250100Y-36020000D02*
X64499284Y-36020000D01*
D17*
X65140000Y-40400000D02*
X66370000Y-41630000D01*
X61200000Y-97400000D02*
X64334049Y-97400000D01*
X60200000Y-79000000D02*
X63200000Y-76000000D01*
X67700000Y-103200000D02*
X62400000Y-103200000D01*
D16*
X67575000Y-36145716D02*
X69354284Y-36145716D01*
D17*
X60600000Y-40400000D02*
X65140000Y-40400000D01*
X58400000Y-79000000D02*
X55400000Y-82000000D01*
X62520000Y-50800000D02*
X64625000Y-50800000D01*
X60475000Y-112500000D02*
X70800000Y-112500000D01*
X65200000Y-88200000D02*
X70919772Y-88200000D01*
X67800000Y-103300000D02*
X67700000Y-103200000D01*
X64432500Y-107507500D02*
X64525000Y-107600000D01*
X58400000Y-96800000D02*
X60600000Y-96800000D01*
D16*
X68181904Y-85381904D02*
X67575000Y-85381904D01*
X69200000Y-54000000D02*
X67900000Y-54000000D01*
X63200000Y-74497857D02*
X63200000Y-76000000D01*
D17*
X57800000Y-102400000D02*
X57600000Y-102200000D01*
X66370000Y-41630000D02*
X78170000Y-41630000D01*
X56400000Y-102400000D02*
X56400000Y-98800000D01*
X59250100Y-92247500D02*
X61152500Y-92247500D01*
D16*
X69300000Y-51200000D02*
X67975000Y-51200000D01*
D17*
X58787500Y-98612500D02*
X59250100Y-98612500D01*
X60200000Y-79000000D02*
X58400000Y-79000000D01*
X61407500Y-107507500D02*
X64432500Y-107507500D01*
D16*
X67342600Y-77800000D02*
X60471300Y-84671300D01*
X69100000Y-86300000D02*
X68181904Y-85381904D01*
D17*
X64334049Y-97400000D02*
X64722619Y-97788570D01*
D16*
X60299404Y-89707500D02*
X64570716Y-85436188D01*
X67592621Y-97673330D02*
X67575000Y-97690951D01*
D17*
X56892500Y-85892500D02*
X59250100Y-85892500D01*
D16*
X69200000Y-74300000D02*
X67972857Y-73072857D01*
X58071300Y-84671300D02*
X57600000Y-84200000D01*
X69354284Y-36145716D02*
X69400000Y-36100000D01*
D17*
X59250100Y-112587500D02*
X60387500Y-112587500D01*
D16*
X69173330Y-97673330D02*
X67592621Y-97673330D01*
D17*
X59200000Y-54120000D02*
X62520000Y-50800000D01*
X59250100Y-103692500D02*
X57692500Y-103692500D01*
D16*
X62700000Y-59200000D02*
X59200000Y-59200000D01*
D17*
X59250100Y-107507500D02*
X61407500Y-107507500D01*
X68900000Y-107700000D02*
X67575000Y-107700000D01*
D16*
X59250100Y-89707500D02*
X60299404Y-89707500D01*
X68400000Y-77800000D02*
X67342600Y-77800000D01*
X67900000Y-54000000D02*
X62700000Y-59200000D01*
X69300000Y-97800000D02*
X69173330Y-97673330D01*
X58187500Y-80812500D02*
X59250100Y-80812500D01*
D17*
X55400000Y-84400000D02*
X56892500Y-85892500D01*
X66500000Y-90300000D02*
X62012500Y-94787500D01*
D16*
X73502494Y-39097506D02*
X59270100Y-39097506D01*
D17*
X60600000Y-96800000D02*
X61200000Y-97400000D01*
D16*
X60471300Y-84671300D02*
X58071300Y-84671300D01*
%TD*%
M02*
