M48
; DRILL file {KiCad (6.0.8-1)-1} date Friday, June 16, 2023 at 06:56:45 PM
; FORMAT={-:-/ absolute / inch / decimal}
; #@! TF.CreationDate,2023-06-16T18:56:45-04:00
; #@! TF.GenerationSoftware,Kicad,Pcbnew,(6.0.8-1)-1
; #@! TF.FileFunction,Plated,1,2,PTH
FMAT,2
INCH
; #@! TA.AperFunction,Plated,PTH,ViaDrill
T1C0.0157
; #@! TA.AperFunction,Plated,PTH,ComponentDrill
T2C0.0350
%
G90
G05
T1
X2.6496Y-1.6339
X2.6535Y-3.5551
X2.6693Y-4.0669
X2.6929Y-3.063
X2.7126Y-4.2402
X2.7165Y-2.4016
X2.7165Y-2.5197
X2.7205Y-3.3976
X2.7244Y-2.126
X2.7244Y-2.9252
X2.7244Y-4.4291
X2.7283Y-2.0157
X2.7283Y-3.8504
X2.7323Y-1.4213
X2.7362Y-1.811
X2.7362Y-1.9094
X2.7559Y-2.6181
X2.7559Y-4.685
X2.7559Y-4.7835
X2.7756Y-2.815
X2.874Y-2.5197
X2.9331Y-2.4409
X2.9528Y-3.5236
X2.9724Y-3.3606
X2.9921Y-1.8504
X2.9921Y-1.9291
X2.9921Y-2.0827
X2.9921Y-2.126
X2.9921Y-2.7756
X2.9921Y-2.9724
X2.9921Y-3.0709
X3.0118Y-2.8543
X3.0118Y-4.2323
X3.0118Y-4.2913
X3.0118Y-4.4421
X3.0118Y-4.5472
X3.0315Y-4.7441
X3.0315Y-4.7835
X3.0776Y-1.639
X3.0787Y-1.5354
X3.9905Y-4.6597
X3.9961Y-1.5157
X3.9961Y-1.9094
X3.9961Y-2.3031
X3.9961Y-2.6969
X3.9961Y-3.0906
X3.9961Y-3.4843
X3.9961Y-3.878
X3.9961Y-4.2717
X3.9961Y-5.0591
X4.0354Y-1.5157
X4.0354Y-1.9094
X4.0354Y-2.3031
X4.0354Y-2.6969
X4.0354Y-3.0906
X4.0354Y-3.4843
X4.0354Y-3.878
X4.0354Y-4.2717
X4.0354Y-4.6654
X4.0354Y-5.0591
X5.9646Y-1.5157
X5.9646Y-1.9094
X5.9646Y-2.3031
X5.9646Y-2.6969
X5.9646Y-3.0906
X5.9646Y-3.4843
X5.9646Y-3.878
X5.9646Y-4.2717
X5.9646Y-4.6654
X5.9646Y-5.0591
X6.0039Y-1.5157
X6.0039Y-1.9094
X6.0039Y-2.3031
X6.0039Y-2.6969
X6.0039Y-3.0906
X6.0039Y-3.4843
X6.0039Y-3.878
X6.0039Y-4.2717
X6.0039Y-4.6654
X6.0039Y-5.0591
X7.0824Y-4.7792
X7.0836Y-4.6757
X7.1296Y-1.5312
X7.1296Y-1.5706
X7.1493Y-1.7674
X7.1493Y-1.8725
X7.1493Y-2.0233
X7.1493Y-2.0824
X7.1493Y-3.4603
X7.169Y-3.2438
X7.169Y-3.3422
X7.169Y-3.5391
X7.169Y-4.1887
X7.169Y-4.232
X7.169Y-4.3855
X7.169Y-4.4643
X7.1887Y-2.954
X7.2084Y-2.791
X7.2281Y-3.8737
X7.2871Y-3.795
X7.3855Y-3.4997
X7.4052Y-1.5312
X7.4052Y-1.6296
X7.4052Y-3.6966
X7.4249Y-4.4052
X7.4249Y-4.5036
X7.4288Y-4.8934
X7.4328Y-2.4643
X7.4328Y-4.2989
X7.4367Y-1.8855
X7.4367Y-3.3895
X7.4367Y-4.1887
X7.4406Y-2.917
X7.4446Y-3.795
X7.4446Y-3.9131
X7.4485Y-2.0745
X7.4682Y-3.2517
X7.4918Y-2.2477
X7.5076Y-2.7595
X7.5115Y-4.6808
T2
X2.3307Y-1.7717
X2.3307Y-1.8717
X2.3307Y-1.9717
X2.3307Y-2.1307
X2.3307Y-2.2307
X2.3307Y-2.3307
X2.3327Y-1.4181
X2.3327Y-1.5181
X2.3327Y-1.6181
X2.3327Y-2.4808
X2.3327Y-2.5808
X2.3327Y-2.6808
X2.3327Y-2.831
X2.3327Y-2.931
X2.3327Y-3.031
X2.3327Y-3.1816
X2.3327Y-3.2816
X2.3327Y-3.3816
X2.3327Y-3.5318
X2.3327Y-3.6318
X2.3327Y-3.7318
X2.3327Y-3.8824
X2.3327Y-3.9824
X2.3327Y-4.0824
X2.3327Y-4.2326
X2.3327Y-4.3326
X2.3327Y-4.4326
X2.3327Y-4.5989
X2.3327Y-4.6989
X2.3327Y-4.7989
X7.8284Y-1.5157
X7.8284Y-1.6157
X7.8284Y-1.7157
X7.8284Y-1.8821
X7.8284Y-1.9821
X7.8284Y-2.0821
X7.8284Y-2.2323
X7.8284Y-2.3323
X7.8284Y-2.4323
X7.8284Y-2.5829
X7.8284Y-2.6829
X7.8284Y-2.7829
X7.8284Y-2.9331
X7.8284Y-3.0331
X7.8284Y-3.1331
X7.8284Y-3.2837
X7.8284Y-3.3837
X7.8284Y-3.4837
X7.8284Y-3.6339
X7.8284Y-3.7339
X7.8284Y-3.8339
X7.8284Y-4.6966
X7.8284Y-4.7966
X7.8284Y-4.8966
X7.8304Y-3.984
X7.8304Y-4.084
X7.8304Y-4.184
X7.8304Y-4.343
X7.8304Y-4.443
X7.8304Y-4.543
T0
M30
