%TF.GenerationSoftware,KiCad,Pcbnew,(6.0.8-1)-1*%
%TF.CreationDate,2023-06-16T18:58:08-04:00*%
%TF.ProjectId,Untitled,556e7469-746c-4656-942e-6b696361645f,rev?*%
%TF.SameCoordinates,Original*%
%TF.FileFunction,Soldermask,Top*%
%TF.FilePolarity,Negative*%
%FSLAX46Y46*%
G04 Gerber Fmt 4.6, Leading zero omitted, Abs format (unit mm)*
G04 Created by KiCad (PCBNEW (6.0.8-1)-1) date 2023-06-16 18:58:08*
%MOMM*%
%LPD*%
G01*
G04 APERTURE LIST*
G04 Aperture macros list*
%AMRoundRect*
0 Rectangle with rounded corners*
0 $1 Rounding radius*
0 $2 $3 $4 $5 $6 $7 $8 $9 X,Y pos of 4 corners*
0 Add a 4 corners polygon primitive as box body*
4,1,4,$2,$3,$4,$5,$6,$7,$8,$9,$2,$3,0*
0 Add four circle primitives for the rounded corners*
1,1,$1+$1,$2,$3*
1,1,$1+$1,$4,$5*
1,1,$1+$1,$6,$7*
1,1,$1+$1,$8,$9*
0 Add four rect primitives between the rounded corners*
20,1,$1+$1,$2,$3,$4,$5,0*
20,1,$1+$1,$4,$5,$6,$7,0*
20,1,$1+$1,$6,$7,$8,$9,0*
20,1,$1+$1,$8,$9,$2,$3,0*%
G04 Aperture macros list end*
%ADD10R,1.397000X1.397000*%
%ADD11C,1.397000*%
%ADD12RoundRect,0.250000X0.325000X1.100000X-0.325000X1.100000X-0.325000X-1.100000X0.325000X-1.100000X0*%
%ADD13R,0.700000X0.700000*%
%ADD14RoundRect,0.250000X-0.325000X-1.100000X0.325000X-1.100000X0.325000X1.100000X-0.325000X1.100000X0*%
G04 APERTURE END LIST*
D10*
%TO.C,REF\u002A\u002A*%
X198842400Y-43580000D03*
D11*
X198842400Y-41040000D03*
X198842400Y-38500000D03*
%TD*%
D12*
%TO.C,10 nF*%
X193567500Y-52792500D03*
X190617500Y-52792500D03*
%TD*%
%TO.C,10 nF*%
X193067500Y-41892500D03*
X190117500Y-41892500D03*
%TD*%
%TO.C,10 nF*%
X194042500Y-99392500D03*
X191092500Y-99392500D03*
%TD*%
%TO.C,10 nF*%
X193567500Y-114892500D03*
X190617500Y-114892500D03*
%TD*%
%TO.C,10 nF*%
X193467500Y-62701549D03*
X190517500Y-62701549D03*
%TD*%
D10*
%TO.C,REF\u002A\u002A*%
X198842400Y-79580000D03*
D11*
X198842400Y-77040000D03*
X198842400Y-74500000D03*
%TD*%
D10*
%TO.C,REF\u002A\u002A*%
X198892500Y-115392500D03*
D11*
X198892500Y-112852500D03*
X198892500Y-110312500D03*
%TD*%
D10*
%TO.C,REF\u002A\u002A*%
X198842400Y-97380000D03*
D11*
X198842400Y-94840000D03*
X198842400Y-92300000D03*
%TD*%
D10*
%TO.C,REF\u002A\u002A*%
X198842400Y-61780000D03*
D11*
X198842400Y-59240000D03*
X198842400Y-56700000D03*
%TD*%
D10*
%TO.C,REF\u002A\u002A*%
X198842400Y-47805000D03*
D11*
X198842400Y-50345000D03*
X198842400Y-52885000D03*
%TD*%
D10*
%TO.C,REF\u002A\u002A*%
X198842400Y-119292500D03*
D11*
X198842400Y-121832500D03*
X198842400Y-124372500D03*
%TD*%
D10*
%TO.C,REF\u002A\u002A*%
X198842400Y-65605000D03*
D11*
X198842400Y-68145000D03*
X198842400Y-70685000D03*
%TD*%
D12*
%TO.C,10 nF*%
X193467500Y-87319643D03*
X190517500Y-87319643D03*
%TD*%
D10*
%TO.C,REF\u002A\u002A*%
X198892500Y-101192500D03*
D11*
X198892500Y-103732500D03*
X198892500Y-106272500D03*
%TD*%
D10*
%TO.C,REF\u002A\u002A*%
X198842400Y-83405000D03*
D11*
X198842400Y-85945000D03*
X198842400Y-88485000D03*
%TD*%
D12*
%TO.C,10 nF*%
X193467500Y-124246784D03*
X190517500Y-124246784D03*
%TD*%
%TO.C,10 nF*%
X193467500Y-75010596D03*
X190517500Y-75010596D03*
%TD*%
%TO.C,10 nF*%
X193467500Y-93892500D03*
X190517500Y-93892500D03*
%TD*%
%TO.C,10 nF*%
X193467500Y-109592500D03*
X190517500Y-109592500D03*
%TD*%
D13*
%TO.C,REF\u002A\u002A*%
X153382500Y-106370000D03*
X151357500Y-106370000D03*
X151357500Y-107420000D03*
X153382500Y-107470000D03*
%TD*%
%TO.C,REF\u002A\u002A*%
X153382500Y-126370000D03*
X151357500Y-126370000D03*
X151357500Y-127420000D03*
X153382500Y-127470000D03*
%TD*%
%TO.C,REF\u002A\u002A*%
X153382500Y-116370000D03*
X151357500Y-116370000D03*
X151357500Y-117420000D03*
X153382500Y-117470000D03*
%TD*%
%TO.C,REF\u002A\u002A*%
X153382500Y-56370000D03*
X151357500Y-56370000D03*
X151357500Y-57420000D03*
X153382500Y-57470000D03*
%TD*%
%TO.C,REF\u002A\u002A*%
X153382500Y-46370000D03*
X151357500Y-46370000D03*
X151357500Y-47420000D03*
X153382500Y-47470000D03*
%TD*%
%TO.C,REF\u002A\u002A*%
X153382500Y-36370000D03*
X151357500Y-36370000D03*
X151357500Y-37420000D03*
X153382500Y-37470000D03*
%TD*%
%TO.C,REF\u002A\u002A*%
X153382500Y-96370000D03*
X151357500Y-96370000D03*
X151357500Y-97420000D03*
X153382500Y-97470000D03*
%TD*%
%TO.C,REF\u002A\u002A*%
X153382500Y-86370000D03*
X151357500Y-86370000D03*
X151357500Y-87420000D03*
X153382500Y-87470000D03*
%TD*%
%TO.C,REF\u002A\u002A*%
X153382500Y-76370000D03*
X151357500Y-76370000D03*
X151357500Y-77420000D03*
X153382500Y-77470000D03*
%TD*%
%TO.C,REF\u002A\u002A*%
X153382500Y-66370000D03*
X151357500Y-66370000D03*
X151357500Y-67420000D03*
X153382500Y-67470000D03*
%TD*%
%TO.C,REF\u002A\u002A*%
X103382500Y-127470000D03*
X101357500Y-127420000D03*
X101357500Y-126370000D03*
X103382500Y-126370000D03*
%TD*%
%TO.C,REF\u002A\u002A*%
X103382500Y-117470000D03*
X101357500Y-117420000D03*
X101357500Y-116370000D03*
X103382500Y-116370000D03*
%TD*%
%TO.C,REF\u002A\u002A*%
X103382500Y-107470000D03*
X101357500Y-107420000D03*
X101357500Y-106370000D03*
X103382500Y-106370000D03*
%TD*%
%TO.C,REF\u002A\u002A*%
X103382500Y-37470000D03*
X101357500Y-37420000D03*
X101357500Y-36370000D03*
X103382500Y-36370000D03*
%TD*%
%TO.C,REF\u002A\u002A*%
X103382500Y-87470000D03*
X101357500Y-87420000D03*
X101357500Y-86370000D03*
X103382500Y-86370000D03*
%TD*%
%TO.C,REF\u002A\u002A*%
X103382500Y-77470000D03*
X101357500Y-77420000D03*
X101357500Y-76370000D03*
X103382500Y-76370000D03*
%TD*%
%TO.C,REF\u002A\u002A*%
X103382500Y-67470000D03*
X101357500Y-67420000D03*
X101357500Y-66370000D03*
X103382500Y-66370000D03*
%TD*%
%TO.C,REF\u002A\u002A*%
X103382500Y-97470000D03*
X101357500Y-97420000D03*
X101357500Y-96370000D03*
X103382500Y-96370000D03*
%TD*%
%TO.C,REF\u002A\u002A*%
X103382500Y-47470000D03*
X101357500Y-47420000D03*
X101357500Y-46370000D03*
X103382500Y-46370000D03*
%TD*%
%TO.C,REF\u002A\u002A*%
X103382500Y-57470000D03*
X101357500Y-57420000D03*
X101357500Y-56370000D03*
X103382500Y-56370000D03*
%TD*%
D14*
%TO.C,10 nF*%
X67975000Y-118500000D03*
X65025000Y-118500000D03*
%TD*%
D10*
%TO.C,REF\u002A\u002A*%
X59250100Y-116812500D03*
D11*
X59250100Y-119352500D03*
X59250100Y-121892500D03*
%TD*%
D14*
%TO.C,10 nF*%
X67000000Y-61000000D03*
X64050000Y-61000000D03*
%TD*%
%TO.C,10 nF*%
X67475000Y-45500000D03*
X64525000Y-45500000D03*
%TD*%
%TO.C,10 nF*%
X67475000Y-107600000D03*
X64525000Y-107600000D03*
%TD*%
%TO.C,10 nF*%
X67575000Y-36145716D03*
X64625000Y-36145716D03*
%TD*%
D11*
%TO.C,REF\u002A\u002A*%
X59200000Y-54120000D03*
X59200000Y-56660000D03*
D10*
X59200000Y-59200000D03*
%TD*%
D14*
%TO.C,10 nF*%
X67575000Y-73072857D03*
X64625000Y-73072857D03*
%TD*%
D11*
%TO.C,REF\u002A\u002A*%
X59250100Y-36020000D03*
X59250100Y-38560000D03*
D10*
X59250100Y-41100000D03*
%TD*%
D11*
%TO.C,REF\u002A\u002A*%
X59250100Y-71907500D03*
X59250100Y-74447500D03*
D10*
X59250100Y-76987500D03*
%TD*%
D14*
%TO.C,10 nF*%
X67575000Y-66500000D03*
X64625000Y-66500000D03*
%TD*%
%TO.C,10 nF*%
X67575000Y-50800000D03*
X64625000Y-50800000D03*
%TD*%
%TO.C,10 nF*%
X67575000Y-85381904D03*
X64625000Y-85381904D03*
%TD*%
D11*
%TO.C,REF\u002A\u002A*%
X59250100Y-89707500D03*
X59250100Y-92247500D03*
D10*
X59250100Y-94787500D03*
%TD*%
D11*
%TO.C,REF\u002A\u002A*%
X59250100Y-107507500D03*
X59250100Y-110047500D03*
D10*
X59250100Y-112587500D03*
%TD*%
D14*
%TO.C,10 nF*%
X67575000Y-97690951D03*
X64625000Y-97690951D03*
%TD*%
D10*
%TO.C,REF\u002A\u002A*%
X59250100Y-80812500D03*
D11*
X59250100Y-83352500D03*
X59250100Y-85892500D03*
%TD*%
D10*
%TO.C,REF\u002A\u002A*%
X59200000Y-45000000D03*
D11*
X59200000Y-47540000D03*
X59200000Y-50080000D03*
%TD*%
D10*
%TO.C,REF\u002A\u002A*%
X59250100Y-98612500D03*
D11*
X59250100Y-101152500D03*
X59250100Y-103692500D03*
%TD*%
D10*
%TO.C,REF\u002A\u002A*%
X59250100Y-63012500D03*
D11*
X59250100Y-65552500D03*
X59250100Y-68092500D03*
%TD*%
M02*
