M48
; DRILL file {KiCad 8.0.2-1} date 2024-10-14T18:36:12-0400
; FORMAT={-:-/ absolute / inch / decimal}
; #@! TF.CreationDate,2024-10-14T18:36:12-04:00
; #@! TF.GenerationSoftware,Kicad,Pcbnew,8.0.2-1
; #@! TF.FileFunction,Plated,1,4,PTH
FMAT,2
INCH
; #@! TA.AperFunction,Plated,PTH,ViaDrill
T1C0.0118
; #@! TA.AperFunction,Plated,PTH,ComponentDrill
T2C0.0157
; #@! TA.AperFunction,Plated,PTH,ComponentDrill
T3C0.0331
; #@! TA.AperFunction,Plated,PTH,ComponentDrill
T4C0.0591
; #@! TA.AperFunction,Plated,PTH,ComponentDrill
T5C0.0669
%
G90
G05
T1
X2.6378Y-7.6535
X2.6378Y-7.685
X2.6378Y-7.7165
X2.6378Y-7.748
X2.6378Y-7.7795
X2.6378Y-7.9685
X2.6378Y-8.0
X2.6378Y-8.0315
X2.6378Y-8.063
X2.6378Y-8.0945
X2.6457Y-2.8976
X2.6457Y-2.9291
X2.6457Y-2.9606
X2.6457Y-2.9921
X2.6457Y-3.0236
X2.6457Y-3.0551
X2.6457Y-3.4016
X2.6476Y-3.2126
X2.6476Y-3.2441
X2.6476Y-3.2756
X2.6476Y-3.3071
X2.6476Y-3.3386
X2.6476Y-3.3701
X2.8898Y-12.3465
X2.9843Y-7.7165
X2.9997Y-7.6218
X3.0236Y-8.126
X3.0394Y-3.5118
X3.0394Y-7.7402
X3.0472Y-3.2126
X3.063Y-3.0551
X3.0758Y-3.4361
X3.0787Y-3.2598
X3.0787Y-3.3701
X3.1575Y-2.7402
X3.2126Y-4.0472
X3.2205Y-2.9764
X3.252Y-2.8819
X3.3228Y-3.5276
X3.3553Y-8.0935
X3.4094Y-7.748
X3.4882Y-2.8425
X3.5354Y-2.8031
X3.5512Y-10.4252
X3.5984Y-10.3937
X3.8268Y-10.3622
X3.8661Y-10.3307
X4.0157Y-7.9764
T2
X4.9902Y-3.6929
X4.9902Y-3.752
X4.9902Y-5.6142
X4.9902Y-5.6732
X4.9902Y-7.5354
X4.9902Y-7.5945
X4.9902Y-9.4567
X4.9902Y-9.5157
X4.9902Y-11.378
X4.9902Y-11.437
X5.0118Y-3.7992
X5.0118Y-5.7205
X5.0118Y-7.6417
X5.0118Y-9.563
X5.0118Y-11.4843
X5.0197Y-3.6496
X5.0197Y-5.5709
X5.0197Y-7.4921
X5.0197Y-9.4134
X5.0197Y-11.3346
X5.1811Y-3.6496
X5.1811Y-5.5709
X5.1811Y-7.4921
X5.1811Y-9.4134
X5.1811Y-11.3346
X6.9114Y-3.6929
X6.9114Y-3.752
X6.9114Y-5.6142
X6.9114Y-5.6732
X6.9114Y-7.5354
X6.9114Y-7.5945
X6.9114Y-9.4567
X6.9114Y-9.5157
X6.9114Y-11.378
X6.9114Y-11.437
X6.9331Y-3.7992
X6.9331Y-5.7205
X6.9331Y-7.6417
X6.9331Y-9.563
X6.9331Y-11.4843
X6.9409Y-3.6496
X6.9409Y-5.5709
X6.9409Y-7.4921
X6.9409Y-9.4134
X6.9409Y-11.3346
X7.1024Y-3.6496
X7.1024Y-5.5709
X7.1024Y-7.4921
X7.1024Y-9.4134
X7.1024Y-11.3346
X8.8327Y-3.6929
X8.8327Y-3.752
X8.8327Y-5.6142
X8.8327Y-5.6732
X8.8327Y-7.5354
X8.8327Y-7.5945
X8.8327Y-9.4567
X8.8327Y-9.5157
X8.8327Y-11.378
X8.8327Y-11.437
X8.8543Y-3.7992
X8.8543Y-5.7205
X8.8543Y-7.6417
X8.8543Y-9.563
X8.8543Y-11.4843
X8.8622Y-3.6496
X8.8622Y-5.5709
X8.8622Y-7.4921
X8.8622Y-9.4134
X8.8622Y-11.3346
X9.0236Y-3.6496
X9.0236Y-5.5709
X9.0236Y-7.4921
X9.0236Y-9.4134
X9.0236Y-11.3346
X10.7539Y-3.6929
X10.7539Y-3.752
X10.7539Y-5.6142
X10.7539Y-5.6732
X10.7539Y-7.5354
X10.7539Y-7.5945
X10.7539Y-9.4567
X10.7539Y-9.5157
X10.7539Y-11.378
X10.7539Y-11.437
X10.7756Y-3.7992
X10.7756Y-5.7205
X10.7756Y-7.6417
X10.7756Y-9.563
X10.7756Y-11.4843
X10.7835Y-3.6496
X10.7835Y-5.5709
X10.7835Y-7.4921
X10.7835Y-9.4134
X10.7835Y-11.3346
X10.9449Y-3.6496
X10.9449Y-5.5709
X10.9449Y-7.4921
X10.9449Y-9.4134
X10.9449Y-11.3346
X12.6752Y-3.6929
X12.6752Y-3.752
X12.6752Y-5.6142
X12.6752Y-5.6732
X12.6752Y-7.5354
X12.6752Y-7.5945
X12.6752Y-9.4567
X12.6752Y-9.5157
X12.6752Y-11.378
X12.6752Y-11.437
X12.6969Y-3.7992
X12.6969Y-5.7205
X12.6969Y-7.6417
X12.6969Y-9.563
X12.6969Y-11.4843
X12.7047Y-3.6496
X12.7047Y-5.5709
X12.7047Y-7.4921
X12.7047Y-9.4134
X12.7047Y-11.3346
X12.8661Y-3.6496
X12.8661Y-5.5709
X12.8661Y-7.4921
X12.8661Y-9.4134
X12.8661Y-11.3346
T3
X2.7559Y-2.7758
X2.7559Y-3.5234
X2.7559Y-7.5002
X2.7559Y-8.2478
T4
X2.7756Y-12.5984
T5
X2.6756Y-12.4984
X2.6756Y-12.6984
X2.8756Y-12.4984
X2.8756Y-12.6984
M30
