%TF.GenerationSoftware,KiCad,Pcbnew,8.0.2-1*%
%TF.CreationDate,2024-10-14T18:36:09-04:00*%
%TF.ProjectId,EvenLayers_1.3mm_SiPM,4576656e-4c61-4796-9572-735f312e336d,rev?*%
%TF.SameCoordinates,Original*%
%TF.FileFunction,Soldermask,Bot*%
%TF.FilePolarity,Negative*%
%FSLAX46Y46*%
G04 Gerber Fmt 4.6, Leading zero omitted, Abs format (unit mm)*
G04 Created by KiCad (PCBNEW 8.0.2-1) date 2024-10-14 18:36:09*
%MOMM*%
%LPD*%
G01*
G04 APERTURE LIST*
G04 Aperture macros list*
%AMRoundRect*
0 Rectangle with rounded corners*
0 $1 Rounding radius*
0 $2 $3 $4 $5 $6 $7 $8 $9 X,Y pos of 4 corners*
0 Add a 4 corners polygon primitive as box body*
4,1,4,$2,$3,$4,$5,$6,$7,$8,$9,$2,$3,0*
0 Add four circle primitives for the rounded corners*
1,1,$1+$1,$2,$3*
1,1,$1+$1,$4,$5*
1,1,$1+$1,$6,$7*
1,1,$1+$1,$8,$9*
0 Add four rect primitives between the rounded corners*
20,1,$1+$1,$2,$3,$4,$5,0*
20,1,$1+$1,$4,$5,$6,$7,0*
20,1,$1+$1,$6,$7,$8,$9,0*
20,1,$1+$1,$8,$9,$2,$3,0*%
G04 Aperture macros list end*
%ADD10RoundRect,0.200100X0.949900X-0.949900X0.949900X0.949900X-0.949900X0.949900X-0.949900X-0.949900X0*%
%ADD11C,2.500000*%
%ADD12C,1.270000*%
%ADD13RoundRect,0.102000X-0.600000X0.250000X-0.600000X-0.250000X0.600000X-0.250000X0.600000X0.250000X0*%
%ADD14C,1.552000*%
G04 APERTURE END LIST*
D10*
%TO.C,REF\u002A\u002A*%
X70500000Y-320000000D03*
D11*
X67960000Y-322540000D03*
X73040000Y-322540000D03*
X67960000Y-317460000D03*
X73040000Y-317460000D03*
%TD*%
D12*
%TO.C,REF\u002A\u002A*%
X71500000Y-69255000D03*
X71500000Y-90745000D03*
D13*
X71700000Y-73600000D03*
X68300000Y-73600000D03*
X71700000Y-74400000D03*
X68300000Y-74400000D03*
X71700000Y-75200000D03*
X68300000Y-75200000D03*
X71700000Y-76000000D03*
X68300000Y-76000000D03*
X71700000Y-76800000D03*
X68300000Y-76800000D03*
X71700000Y-77600000D03*
X68300000Y-77600000D03*
X71700000Y-81600000D03*
X68300000Y-81600000D03*
X71700000Y-82400000D03*
X68300000Y-82400000D03*
X71700000Y-83200000D03*
X68300000Y-83200000D03*
X71700000Y-84000000D03*
X68300000Y-84000000D03*
X71700000Y-84800000D03*
X68300000Y-84800000D03*
X71700000Y-85600000D03*
X68300000Y-85600000D03*
X71700000Y-86400000D03*
X68300000Y-86400000D03*
D14*
X70000000Y-70505000D03*
X70000000Y-89495000D03*
%TD*%
D12*
%TO.C,REF\u002A\u002A*%
X71500000Y-189255000D03*
X71500000Y-210745000D03*
D13*
X71700000Y-193600000D03*
X68300000Y-193600000D03*
X71700000Y-194400000D03*
X68300000Y-194400000D03*
X71700000Y-195200000D03*
X68300000Y-195200000D03*
X71700000Y-196000000D03*
X68300000Y-196000000D03*
X71700000Y-196800000D03*
X68300000Y-196800000D03*
X71700000Y-197600000D03*
X68300000Y-197600000D03*
X71700000Y-201600000D03*
X68300000Y-201600000D03*
X71700000Y-202400000D03*
X68300000Y-202400000D03*
X71700000Y-203200000D03*
X68300000Y-203200000D03*
X71700000Y-204000000D03*
X68300000Y-204000000D03*
X71700000Y-204800000D03*
X68300000Y-204800000D03*
X71700000Y-205600000D03*
X68300000Y-205600000D03*
X71700000Y-206400000D03*
X68300000Y-206400000D03*
D14*
X70000000Y-190505000D03*
X70000000Y-209495000D03*
%TD*%
M02*
