%TF.GenerationSoftware,KiCad,Pcbnew,8.0.2-1*%
%TF.CreationDate,2024-10-14T18:36:09-04:00*%
%TF.ProjectId,EvenLayers_1.3mm_SiPM,4576656e-4c61-4796-9572-735f312e336d,rev?*%
%TF.SameCoordinates,Original*%
%TF.FileFunction,Paste,Bot*%
%TF.FilePolarity,Positive*%
%FSLAX46Y46*%
G04 Gerber Fmt 4.6, Leading zero omitted, Abs format (unit mm)*
G04 Created by KiCad (PCBNEW 8.0.2-1) date 2024-10-14 18:36:09*
%MOMM*%
%LPD*%
G01*
G04 APERTURE LIST*
%ADD10C,0.010000*%
%ADD11R,1.200000X0.500000*%
G04 APERTURE END LIST*
D10*
%TO.C,REF\u002A\u002A*%
X70046000Y-69236000D02*
X71269000Y-70459000D01*
X71269000Y-70494000D01*
X71269000Y-70529000D01*
X71267000Y-70564000D01*
X71264000Y-70598000D01*
X71261000Y-70633000D01*
X71257000Y-70667000D01*
X71251000Y-70702000D01*
X71245000Y-70736000D01*
X71238000Y-70770000D01*
X71230000Y-70804000D01*
X71221000Y-70837000D01*
X71212000Y-70870000D01*
X71201000Y-70903000D01*
X71190000Y-70936000D01*
X71177000Y-70969000D01*
X71164000Y-71001000D01*
X71150000Y-71033000D01*
X71135000Y-71064000D01*
X71120000Y-71095000D01*
X71103000Y-71125000D01*
X71086000Y-71156000D01*
X71068000Y-71185000D01*
X71049000Y-71214000D01*
X71030000Y-71243000D01*
X71010000Y-71271000D01*
X70989000Y-71299000D01*
X70967000Y-71326000D01*
X70944000Y-71352000D01*
X70921000Y-71378000D01*
X70898000Y-71403000D01*
X70850000Y-71449000D01*
X70799000Y-71492000D01*
X70746000Y-71532000D01*
X70692000Y-71570000D01*
X70635000Y-71605000D01*
X70577000Y-71637000D01*
X70517000Y-71665000D01*
X70455000Y-71691000D01*
X70392000Y-71713000D01*
X70329000Y-71732000D01*
X70264000Y-71747000D01*
X70199000Y-71759000D01*
X70133000Y-71768000D01*
X70066000Y-71773000D01*
X70000000Y-71775000D01*
X69934000Y-71773000D01*
X69867000Y-71768000D01*
X69801000Y-71759000D01*
X69736000Y-71747000D01*
X69671000Y-71732000D01*
X69608000Y-71713000D01*
X69545000Y-71691000D01*
X69483000Y-71665000D01*
X69423000Y-71637000D01*
X69365000Y-71605000D01*
X69308000Y-71570000D01*
X69254000Y-71532000D01*
X69201000Y-71492000D01*
X69150000Y-71449000D01*
X69102000Y-71403000D01*
X69056000Y-71355000D01*
X69013000Y-71304000D01*
X68973000Y-71251000D01*
X68935000Y-71197000D01*
X68900000Y-71140000D01*
X68868000Y-71082000D01*
X68840000Y-71022000D01*
X68814000Y-70960000D01*
X68792000Y-70897000D01*
X68773000Y-70834000D01*
X68758000Y-70769000D01*
X68746000Y-70704000D01*
X68737000Y-70638000D01*
X68732000Y-70571000D01*
X68730000Y-70505000D01*
X68732000Y-70439000D01*
X68737000Y-70372000D01*
X68746000Y-70306000D01*
X68758000Y-70241000D01*
X68773000Y-70176000D01*
X68792000Y-70113000D01*
X68814000Y-70050000D01*
X68840000Y-69988000D01*
X68868000Y-69928000D01*
X68900000Y-69870000D01*
X68935000Y-69813000D01*
X68973000Y-69759000D01*
X69013000Y-69706000D01*
X69056000Y-69655000D01*
X69102000Y-69607000D01*
X69127000Y-69584000D01*
X69153000Y-69561000D01*
X69179000Y-69538000D01*
X69206000Y-69516000D01*
X69234000Y-69495000D01*
X69262000Y-69475000D01*
X69291000Y-69456000D01*
X69320000Y-69437000D01*
X69349000Y-69419000D01*
X69380000Y-69402000D01*
X69410000Y-69385000D01*
X69441000Y-69370000D01*
X69473000Y-69355000D01*
X69504000Y-69341000D01*
X69536000Y-69328000D01*
X69569000Y-69315000D01*
X69602000Y-69304000D01*
X69635000Y-69293000D01*
X69668000Y-69284000D01*
X69702000Y-69275000D01*
X69735000Y-69267000D01*
X69769000Y-69260000D01*
X69803000Y-69254000D01*
X69838000Y-69248000D01*
X69872000Y-69244000D01*
X69907000Y-69241000D01*
X69941000Y-69238000D01*
X69976000Y-69236000D01*
X70011000Y-69236000D01*
X70045959Y-69235700D01*
X70046000Y-69236000D01*
G36*
X70046000Y-69236000D02*
G01*
X71269000Y-70459000D01*
X71269000Y-70494000D01*
X71269000Y-70529000D01*
X71267000Y-70564000D01*
X71264000Y-70598000D01*
X71261000Y-70633000D01*
X71257000Y-70667000D01*
X71251000Y-70702000D01*
X71245000Y-70736000D01*
X71238000Y-70770000D01*
X71230000Y-70804000D01*
X71221000Y-70837000D01*
X71212000Y-70870000D01*
X71201000Y-70903000D01*
X71190000Y-70936000D01*
X71177000Y-70969000D01*
X71164000Y-71001000D01*
X71150000Y-71033000D01*
X71135000Y-71064000D01*
X71120000Y-71095000D01*
X71103000Y-71125000D01*
X71086000Y-71156000D01*
X71068000Y-71185000D01*
X71049000Y-71214000D01*
X71030000Y-71243000D01*
X71010000Y-71271000D01*
X70989000Y-71299000D01*
X70967000Y-71326000D01*
X70944000Y-71352000D01*
X70921000Y-71378000D01*
X70898000Y-71403000D01*
X70850000Y-71449000D01*
X70799000Y-71492000D01*
X70746000Y-71532000D01*
X70692000Y-71570000D01*
X70635000Y-71605000D01*
X70577000Y-71637000D01*
X70517000Y-71665000D01*
X70455000Y-71691000D01*
X70392000Y-71713000D01*
X70329000Y-71732000D01*
X70264000Y-71747000D01*
X70199000Y-71759000D01*
X70133000Y-71768000D01*
X70066000Y-71773000D01*
X70000000Y-71775000D01*
X69934000Y-71773000D01*
X69867000Y-71768000D01*
X69801000Y-71759000D01*
X69736000Y-71747000D01*
X69671000Y-71732000D01*
X69608000Y-71713000D01*
X69545000Y-71691000D01*
X69483000Y-71665000D01*
X69423000Y-71637000D01*
X69365000Y-71605000D01*
X69308000Y-71570000D01*
X69254000Y-71532000D01*
X69201000Y-71492000D01*
X69150000Y-71449000D01*
X69102000Y-71403000D01*
X69056000Y-71355000D01*
X69013000Y-71304000D01*
X68973000Y-71251000D01*
X68935000Y-71197000D01*
X68900000Y-71140000D01*
X68868000Y-71082000D01*
X68840000Y-71022000D01*
X68814000Y-70960000D01*
X68792000Y-70897000D01*
X68773000Y-70834000D01*
X68758000Y-70769000D01*
X68746000Y-70704000D01*
X68737000Y-70638000D01*
X68732000Y-70571000D01*
X68730000Y-70505000D01*
X68732000Y-70439000D01*
X68737000Y-70372000D01*
X68746000Y-70306000D01*
X68758000Y-70241000D01*
X68773000Y-70176000D01*
X68792000Y-70113000D01*
X68814000Y-70050000D01*
X68840000Y-69988000D01*
X68868000Y-69928000D01*
X68900000Y-69870000D01*
X68935000Y-69813000D01*
X68973000Y-69759000D01*
X69013000Y-69706000D01*
X69056000Y-69655000D01*
X69102000Y-69607000D01*
X69127000Y-69584000D01*
X69153000Y-69561000D01*
X69179000Y-69538000D01*
X69206000Y-69516000D01*
X69234000Y-69495000D01*
X69262000Y-69475000D01*
X69291000Y-69456000D01*
X69320000Y-69437000D01*
X69349000Y-69419000D01*
X69380000Y-69402000D01*
X69410000Y-69385000D01*
X69441000Y-69370000D01*
X69473000Y-69355000D01*
X69504000Y-69341000D01*
X69536000Y-69328000D01*
X69569000Y-69315000D01*
X69602000Y-69304000D01*
X69635000Y-69293000D01*
X69668000Y-69284000D01*
X69702000Y-69275000D01*
X69735000Y-69267000D01*
X69769000Y-69260000D01*
X69803000Y-69254000D01*
X69838000Y-69248000D01*
X69872000Y-69244000D01*
X69907000Y-69241000D01*
X69941000Y-69238000D01*
X69976000Y-69236000D01*
X70011000Y-69236000D01*
X70045959Y-69235700D01*
X70046000Y-69236000D01*
G37*
X70066000Y-88227000D02*
X70133000Y-88232000D01*
X70199000Y-88241000D01*
X70264000Y-88253000D01*
X70329000Y-88268000D01*
X70392000Y-88287000D01*
X70455000Y-88309000D01*
X70517000Y-88335000D01*
X70577000Y-88363000D01*
X70635000Y-88395000D01*
X70692000Y-88430000D01*
X70746000Y-88468000D01*
X70799000Y-88508000D01*
X70850000Y-88551000D01*
X70898000Y-88597000D01*
X70921000Y-88622000D01*
X70944000Y-88648000D01*
X70967000Y-88674000D01*
X70989000Y-88701000D01*
X71010000Y-88729000D01*
X71030000Y-88757000D01*
X71049000Y-88786000D01*
X71068000Y-88815000D01*
X71086000Y-88844000D01*
X71103000Y-88875000D01*
X71120000Y-88905000D01*
X71135000Y-88936000D01*
X71150000Y-88967000D01*
X71164000Y-88999000D01*
X71177000Y-89031000D01*
X71190000Y-89064000D01*
X71201000Y-89097000D01*
X71212000Y-89130000D01*
X71221000Y-89163000D01*
X71230000Y-89196000D01*
X71238000Y-89230000D01*
X71245000Y-89264000D01*
X71251000Y-89298000D01*
X71257000Y-89333000D01*
X71261000Y-89367000D01*
X71264000Y-89402000D01*
X71267000Y-89436000D01*
X71269000Y-89471000D01*
X71269000Y-89506000D01*
X71269260Y-89540960D01*
X71269000Y-89541000D01*
X70046000Y-90764000D01*
X70011000Y-90764000D01*
X69976000Y-90764000D01*
X69941000Y-90762000D01*
X69907000Y-90759000D01*
X69872000Y-90756000D01*
X69838000Y-90752000D01*
X69803000Y-90746000D01*
X69769000Y-90740000D01*
X69735000Y-90733000D01*
X69702000Y-90725000D01*
X69668000Y-90716000D01*
X69635000Y-90707000D01*
X69602000Y-90696000D01*
X69569000Y-90685000D01*
X69536000Y-90672000D01*
X69504000Y-90659000D01*
X69473000Y-90645000D01*
X69441000Y-90630000D01*
X69410000Y-90615000D01*
X69380000Y-90598000D01*
X69349000Y-90581000D01*
X69320000Y-90563000D01*
X69291000Y-90544000D01*
X69262000Y-90525000D01*
X69234000Y-90505000D01*
X69206000Y-90484000D01*
X69179000Y-90462000D01*
X69153000Y-90439000D01*
X69127000Y-90416000D01*
X69102000Y-90393000D01*
X69056000Y-90345000D01*
X69013000Y-90294000D01*
X68973000Y-90241000D01*
X68935000Y-90187000D01*
X68900000Y-90130000D01*
X68868000Y-90072000D01*
X68840000Y-90012000D01*
X68814000Y-89950000D01*
X68792000Y-89887000D01*
X68773000Y-89824000D01*
X68758000Y-89759000D01*
X68746000Y-89694000D01*
X68737000Y-89628000D01*
X68732000Y-89561000D01*
X68730000Y-89495000D01*
X68732000Y-89429000D01*
X68737000Y-89362000D01*
X68746000Y-89296000D01*
X68758000Y-89231000D01*
X68773000Y-89166000D01*
X68792000Y-89103000D01*
X68814000Y-89040000D01*
X68840000Y-88978000D01*
X68868000Y-88918000D01*
X68900000Y-88860000D01*
X68935000Y-88803000D01*
X68973000Y-88749000D01*
X69013000Y-88696000D01*
X69056000Y-88645000D01*
X69102000Y-88597000D01*
X69150000Y-88551000D01*
X69201000Y-88508000D01*
X69254000Y-88468000D01*
X69308000Y-88430000D01*
X69365000Y-88395000D01*
X69423000Y-88363000D01*
X69483000Y-88335000D01*
X69545000Y-88309000D01*
X69608000Y-88287000D01*
X69671000Y-88268000D01*
X69736000Y-88253000D01*
X69801000Y-88241000D01*
X69867000Y-88232000D01*
X69934000Y-88227000D01*
X70000000Y-88225000D01*
X70066000Y-88227000D01*
G36*
X70066000Y-88227000D02*
G01*
X70133000Y-88232000D01*
X70199000Y-88241000D01*
X70264000Y-88253000D01*
X70329000Y-88268000D01*
X70392000Y-88287000D01*
X70455000Y-88309000D01*
X70517000Y-88335000D01*
X70577000Y-88363000D01*
X70635000Y-88395000D01*
X70692000Y-88430000D01*
X70746000Y-88468000D01*
X70799000Y-88508000D01*
X70850000Y-88551000D01*
X70898000Y-88597000D01*
X70921000Y-88622000D01*
X70944000Y-88648000D01*
X70967000Y-88674000D01*
X70989000Y-88701000D01*
X71010000Y-88729000D01*
X71030000Y-88757000D01*
X71049000Y-88786000D01*
X71068000Y-88815000D01*
X71086000Y-88844000D01*
X71103000Y-88875000D01*
X71120000Y-88905000D01*
X71135000Y-88936000D01*
X71150000Y-88967000D01*
X71164000Y-88999000D01*
X71177000Y-89031000D01*
X71190000Y-89064000D01*
X71201000Y-89097000D01*
X71212000Y-89130000D01*
X71221000Y-89163000D01*
X71230000Y-89196000D01*
X71238000Y-89230000D01*
X71245000Y-89264000D01*
X71251000Y-89298000D01*
X71257000Y-89333000D01*
X71261000Y-89367000D01*
X71264000Y-89402000D01*
X71267000Y-89436000D01*
X71269000Y-89471000D01*
X71269000Y-89506000D01*
X71269260Y-89540960D01*
X71269000Y-89541000D01*
X70046000Y-90764000D01*
X70011000Y-90764000D01*
X69976000Y-90764000D01*
X69941000Y-90762000D01*
X69907000Y-90759000D01*
X69872000Y-90756000D01*
X69838000Y-90752000D01*
X69803000Y-90746000D01*
X69769000Y-90740000D01*
X69735000Y-90733000D01*
X69702000Y-90725000D01*
X69668000Y-90716000D01*
X69635000Y-90707000D01*
X69602000Y-90696000D01*
X69569000Y-90685000D01*
X69536000Y-90672000D01*
X69504000Y-90659000D01*
X69473000Y-90645000D01*
X69441000Y-90630000D01*
X69410000Y-90615000D01*
X69380000Y-90598000D01*
X69349000Y-90581000D01*
X69320000Y-90563000D01*
X69291000Y-90544000D01*
X69262000Y-90525000D01*
X69234000Y-90505000D01*
X69206000Y-90484000D01*
X69179000Y-90462000D01*
X69153000Y-90439000D01*
X69127000Y-90416000D01*
X69102000Y-90393000D01*
X69056000Y-90345000D01*
X69013000Y-90294000D01*
X68973000Y-90241000D01*
X68935000Y-90187000D01*
X68900000Y-90130000D01*
X68868000Y-90072000D01*
X68840000Y-90012000D01*
X68814000Y-89950000D01*
X68792000Y-89887000D01*
X68773000Y-89824000D01*
X68758000Y-89759000D01*
X68746000Y-89694000D01*
X68737000Y-89628000D01*
X68732000Y-89561000D01*
X68730000Y-89495000D01*
X68732000Y-89429000D01*
X68737000Y-89362000D01*
X68746000Y-89296000D01*
X68758000Y-89231000D01*
X68773000Y-89166000D01*
X68792000Y-89103000D01*
X68814000Y-89040000D01*
X68840000Y-88978000D01*
X68868000Y-88918000D01*
X68900000Y-88860000D01*
X68935000Y-88803000D01*
X68973000Y-88749000D01*
X69013000Y-88696000D01*
X69056000Y-88645000D01*
X69102000Y-88597000D01*
X69150000Y-88551000D01*
X69201000Y-88508000D01*
X69254000Y-88468000D01*
X69308000Y-88430000D01*
X69365000Y-88395000D01*
X69423000Y-88363000D01*
X69483000Y-88335000D01*
X69545000Y-88309000D01*
X69608000Y-88287000D01*
X69671000Y-88268000D01*
X69736000Y-88253000D01*
X69801000Y-88241000D01*
X69867000Y-88232000D01*
X69934000Y-88227000D01*
X70000000Y-88225000D01*
X70066000Y-88227000D01*
G37*
X70046000Y-189236000D02*
X71269000Y-190459000D01*
X71269000Y-190494000D01*
X71269000Y-190529000D01*
X71267000Y-190564000D01*
X71264000Y-190598000D01*
X71261000Y-190633000D01*
X71257000Y-190667000D01*
X71251000Y-190702000D01*
X71245000Y-190736000D01*
X71238000Y-190770000D01*
X71230000Y-190804000D01*
X71221000Y-190837000D01*
X71212000Y-190870000D01*
X71201000Y-190903000D01*
X71190000Y-190936000D01*
X71177000Y-190969000D01*
X71164000Y-191001000D01*
X71150000Y-191033000D01*
X71135000Y-191064000D01*
X71120000Y-191095000D01*
X71103000Y-191125000D01*
X71086000Y-191156000D01*
X71068000Y-191185000D01*
X71049000Y-191214000D01*
X71030000Y-191243000D01*
X71010000Y-191271000D01*
X70989000Y-191299000D01*
X70967000Y-191326000D01*
X70944000Y-191352000D01*
X70921000Y-191378000D01*
X70898000Y-191403000D01*
X70850000Y-191449000D01*
X70799000Y-191492000D01*
X70746000Y-191532000D01*
X70692000Y-191570000D01*
X70635000Y-191605000D01*
X70577000Y-191637000D01*
X70517000Y-191665000D01*
X70455000Y-191691000D01*
X70392000Y-191713000D01*
X70329000Y-191732000D01*
X70264000Y-191747000D01*
X70199000Y-191759000D01*
X70133000Y-191768000D01*
X70066000Y-191773000D01*
X70000000Y-191775000D01*
X69934000Y-191773000D01*
X69867000Y-191768000D01*
X69801000Y-191759000D01*
X69736000Y-191747000D01*
X69671000Y-191732000D01*
X69608000Y-191713000D01*
X69545000Y-191691000D01*
X69483000Y-191665000D01*
X69423000Y-191637000D01*
X69365000Y-191605000D01*
X69308000Y-191570000D01*
X69254000Y-191532000D01*
X69201000Y-191492000D01*
X69150000Y-191449000D01*
X69102000Y-191403000D01*
X69056000Y-191355000D01*
X69013000Y-191304000D01*
X68973000Y-191251000D01*
X68935000Y-191197000D01*
X68900000Y-191140000D01*
X68868000Y-191082000D01*
X68840000Y-191022000D01*
X68814000Y-190960000D01*
X68792000Y-190897000D01*
X68773000Y-190834000D01*
X68758000Y-190769000D01*
X68746000Y-190704000D01*
X68737000Y-190638000D01*
X68732000Y-190571000D01*
X68730000Y-190505000D01*
X68732000Y-190439000D01*
X68737000Y-190372000D01*
X68746000Y-190306000D01*
X68758000Y-190241000D01*
X68773000Y-190176000D01*
X68792000Y-190113000D01*
X68814000Y-190050000D01*
X68840000Y-189988000D01*
X68868000Y-189928000D01*
X68900000Y-189870000D01*
X68935000Y-189813000D01*
X68973000Y-189759000D01*
X69013000Y-189706000D01*
X69056000Y-189655000D01*
X69102000Y-189607000D01*
X69127000Y-189584000D01*
X69153000Y-189561000D01*
X69179000Y-189538000D01*
X69206000Y-189516000D01*
X69234000Y-189495000D01*
X69262000Y-189475000D01*
X69291000Y-189456000D01*
X69320000Y-189437000D01*
X69349000Y-189419000D01*
X69380000Y-189402000D01*
X69410000Y-189385000D01*
X69441000Y-189370000D01*
X69473000Y-189355000D01*
X69504000Y-189341000D01*
X69536000Y-189328000D01*
X69569000Y-189315000D01*
X69602000Y-189304000D01*
X69635000Y-189293000D01*
X69668000Y-189284000D01*
X69702000Y-189275000D01*
X69735000Y-189267000D01*
X69769000Y-189260000D01*
X69803000Y-189254000D01*
X69838000Y-189248000D01*
X69872000Y-189244000D01*
X69907000Y-189241000D01*
X69941000Y-189238000D01*
X69976000Y-189236000D01*
X70011000Y-189236000D01*
X70045959Y-189235700D01*
X70046000Y-189236000D01*
G36*
X70046000Y-189236000D02*
G01*
X71269000Y-190459000D01*
X71269000Y-190494000D01*
X71269000Y-190529000D01*
X71267000Y-190564000D01*
X71264000Y-190598000D01*
X71261000Y-190633000D01*
X71257000Y-190667000D01*
X71251000Y-190702000D01*
X71245000Y-190736000D01*
X71238000Y-190770000D01*
X71230000Y-190804000D01*
X71221000Y-190837000D01*
X71212000Y-190870000D01*
X71201000Y-190903000D01*
X71190000Y-190936000D01*
X71177000Y-190969000D01*
X71164000Y-191001000D01*
X71150000Y-191033000D01*
X71135000Y-191064000D01*
X71120000Y-191095000D01*
X71103000Y-191125000D01*
X71086000Y-191156000D01*
X71068000Y-191185000D01*
X71049000Y-191214000D01*
X71030000Y-191243000D01*
X71010000Y-191271000D01*
X70989000Y-191299000D01*
X70967000Y-191326000D01*
X70944000Y-191352000D01*
X70921000Y-191378000D01*
X70898000Y-191403000D01*
X70850000Y-191449000D01*
X70799000Y-191492000D01*
X70746000Y-191532000D01*
X70692000Y-191570000D01*
X70635000Y-191605000D01*
X70577000Y-191637000D01*
X70517000Y-191665000D01*
X70455000Y-191691000D01*
X70392000Y-191713000D01*
X70329000Y-191732000D01*
X70264000Y-191747000D01*
X70199000Y-191759000D01*
X70133000Y-191768000D01*
X70066000Y-191773000D01*
X70000000Y-191775000D01*
X69934000Y-191773000D01*
X69867000Y-191768000D01*
X69801000Y-191759000D01*
X69736000Y-191747000D01*
X69671000Y-191732000D01*
X69608000Y-191713000D01*
X69545000Y-191691000D01*
X69483000Y-191665000D01*
X69423000Y-191637000D01*
X69365000Y-191605000D01*
X69308000Y-191570000D01*
X69254000Y-191532000D01*
X69201000Y-191492000D01*
X69150000Y-191449000D01*
X69102000Y-191403000D01*
X69056000Y-191355000D01*
X69013000Y-191304000D01*
X68973000Y-191251000D01*
X68935000Y-191197000D01*
X68900000Y-191140000D01*
X68868000Y-191082000D01*
X68840000Y-191022000D01*
X68814000Y-190960000D01*
X68792000Y-190897000D01*
X68773000Y-190834000D01*
X68758000Y-190769000D01*
X68746000Y-190704000D01*
X68737000Y-190638000D01*
X68732000Y-190571000D01*
X68730000Y-190505000D01*
X68732000Y-190439000D01*
X68737000Y-190372000D01*
X68746000Y-190306000D01*
X68758000Y-190241000D01*
X68773000Y-190176000D01*
X68792000Y-190113000D01*
X68814000Y-190050000D01*
X68840000Y-189988000D01*
X68868000Y-189928000D01*
X68900000Y-189870000D01*
X68935000Y-189813000D01*
X68973000Y-189759000D01*
X69013000Y-189706000D01*
X69056000Y-189655000D01*
X69102000Y-189607000D01*
X69127000Y-189584000D01*
X69153000Y-189561000D01*
X69179000Y-189538000D01*
X69206000Y-189516000D01*
X69234000Y-189495000D01*
X69262000Y-189475000D01*
X69291000Y-189456000D01*
X69320000Y-189437000D01*
X69349000Y-189419000D01*
X69380000Y-189402000D01*
X69410000Y-189385000D01*
X69441000Y-189370000D01*
X69473000Y-189355000D01*
X69504000Y-189341000D01*
X69536000Y-189328000D01*
X69569000Y-189315000D01*
X69602000Y-189304000D01*
X69635000Y-189293000D01*
X69668000Y-189284000D01*
X69702000Y-189275000D01*
X69735000Y-189267000D01*
X69769000Y-189260000D01*
X69803000Y-189254000D01*
X69838000Y-189248000D01*
X69872000Y-189244000D01*
X69907000Y-189241000D01*
X69941000Y-189238000D01*
X69976000Y-189236000D01*
X70011000Y-189236000D01*
X70045959Y-189235700D01*
X70046000Y-189236000D01*
G37*
X70066000Y-208227000D02*
X70133000Y-208232000D01*
X70199000Y-208241000D01*
X70264000Y-208253000D01*
X70329000Y-208268000D01*
X70392000Y-208287000D01*
X70455000Y-208309000D01*
X70517000Y-208335000D01*
X70577000Y-208363000D01*
X70635000Y-208395000D01*
X70692000Y-208430000D01*
X70746000Y-208468000D01*
X70799000Y-208508000D01*
X70850000Y-208551000D01*
X70898000Y-208597000D01*
X70921000Y-208622000D01*
X70944000Y-208648000D01*
X70967000Y-208674000D01*
X70989000Y-208701000D01*
X71010000Y-208729000D01*
X71030000Y-208757000D01*
X71049000Y-208786000D01*
X71068000Y-208815000D01*
X71086000Y-208844000D01*
X71103000Y-208875000D01*
X71120000Y-208905000D01*
X71135000Y-208936000D01*
X71150000Y-208967000D01*
X71164000Y-208999000D01*
X71177000Y-209031000D01*
X71190000Y-209064000D01*
X71201000Y-209097000D01*
X71212000Y-209130000D01*
X71221000Y-209163000D01*
X71230000Y-209196000D01*
X71238000Y-209230000D01*
X71245000Y-209264000D01*
X71251000Y-209298000D01*
X71257000Y-209333000D01*
X71261000Y-209367000D01*
X71264000Y-209402000D01*
X71267000Y-209436000D01*
X71269000Y-209471000D01*
X71269000Y-209506000D01*
X71269260Y-209540960D01*
X71269000Y-209541000D01*
X70046000Y-210764000D01*
X70011000Y-210764000D01*
X69976000Y-210764000D01*
X69941000Y-210762000D01*
X69907000Y-210759000D01*
X69872000Y-210756000D01*
X69838000Y-210752000D01*
X69803000Y-210746000D01*
X69769000Y-210740000D01*
X69735000Y-210733000D01*
X69702000Y-210725000D01*
X69668000Y-210716000D01*
X69635000Y-210707000D01*
X69602000Y-210696000D01*
X69569000Y-210685000D01*
X69536000Y-210672000D01*
X69504000Y-210659000D01*
X69473000Y-210645000D01*
X69441000Y-210630000D01*
X69410000Y-210615000D01*
X69380000Y-210598000D01*
X69349000Y-210581000D01*
X69320000Y-210563000D01*
X69291000Y-210544000D01*
X69262000Y-210525000D01*
X69234000Y-210505000D01*
X69206000Y-210484000D01*
X69179000Y-210462000D01*
X69153000Y-210439000D01*
X69127000Y-210416000D01*
X69102000Y-210393000D01*
X69056000Y-210345000D01*
X69013000Y-210294000D01*
X68973000Y-210241000D01*
X68935000Y-210187000D01*
X68900000Y-210130000D01*
X68868000Y-210072000D01*
X68840000Y-210012000D01*
X68814000Y-209950000D01*
X68792000Y-209887000D01*
X68773000Y-209824000D01*
X68758000Y-209759000D01*
X68746000Y-209694000D01*
X68737000Y-209628000D01*
X68732000Y-209561000D01*
X68730000Y-209495000D01*
X68732000Y-209429000D01*
X68737000Y-209362000D01*
X68746000Y-209296000D01*
X68758000Y-209231000D01*
X68773000Y-209166000D01*
X68792000Y-209103000D01*
X68814000Y-209040000D01*
X68840000Y-208978000D01*
X68868000Y-208918000D01*
X68900000Y-208860000D01*
X68935000Y-208803000D01*
X68973000Y-208749000D01*
X69013000Y-208696000D01*
X69056000Y-208645000D01*
X69102000Y-208597000D01*
X69150000Y-208551000D01*
X69201000Y-208508000D01*
X69254000Y-208468000D01*
X69308000Y-208430000D01*
X69365000Y-208395000D01*
X69423000Y-208363000D01*
X69483000Y-208335000D01*
X69545000Y-208309000D01*
X69608000Y-208287000D01*
X69671000Y-208268000D01*
X69736000Y-208253000D01*
X69801000Y-208241000D01*
X69867000Y-208232000D01*
X69934000Y-208227000D01*
X70000000Y-208225000D01*
X70066000Y-208227000D01*
G36*
X70066000Y-208227000D02*
G01*
X70133000Y-208232000D01*
X70199000Y-208241000D01*
X70264000Y-208253000D01*
X70329000Y-208268000D01*
X70392000Y-208287000D01*
X70455000Y-208309000D01*
X70517000Y-208335000D01*
X70577000Y-208363000D01*
X70635000Y-208395000D01*
X70692000Y-208430000D01*
X70746000Y-208468000D01*
X70799000Y-208508000D01*
X70850000Y-208551000D01*
X70898000Y-208597000D01*
X70921000Y-208622000D01*
X70944000Y-208648000D01*
X70967000Y-208674000D01*
X70989000Y-208701000D01*
X71010000Y-208729000D01*
X71030000Y-208757000D01*
X71049000Y-208786000D01*
X71068000Y-208815000D01*
X71086000Y-208844000D01*
X71103000Y-208875000D01*
X71120000Y-208905000D01*
X71135000Y-208936000D01*
X71150000Y-208967000D01*
X71164000Y-208999000D01*
X71177000Y-209031000D01*
X71190000Y-209064000D01*
X71201000Y-209097000D01*
X71212000Y-209130000D01*
X71221000Y-209163000D01*
X71230000Y-209196000D01*
X71238000Y-209230000D01*
X71245000Y-209264000D01*
X71251000Y-209298000D01*
X71257000Y-209333000D01*
X71261000Y-209367000D01*
X71264000Y-209402000D01*
X71267000Y-209436000D01*
X71269000Y-209471000D01*
X71269000Y-209506000D01*
X71269260Y-209540960D01*
X71269000Y-209541000D01*
X70046000Y-210764000D01*
X70011000Y-210764000D01*
X69976000Y-210764000D01*
X69941000Y-210762000D01*
X69907000Y-210759000D01*
X69872000Y-210756000D01*
X69838000Y-210752000D01*
X69803000Y-210746000D01*
X69769000Y-210740000D01*
X69735000Y-210733000D01*
X69702000Y-210725000D01*
X69668000Y-210716000D01*
X69635000Y-210707000D01*
X69602000Y-210696000D01*
X69569000Y-210685000D01*
X69536000Y-210672000D01*
X69504000Y-210659000D01*
X69473000Y-210645000D01*
X69441000Y-210630000D01*
X69410000Y-210615000D01*
X69380000Y-210598000D01*
X69349000Y-210581000D01*
X69320000Y-210563000D01*
X69291000Y-210544000D01*
X69262000Y-210525000D01*
X69234000Y-210505000D01*
X69206000Y-210484000D01*
X69179000Y-210462000D01*
X69153000Y-210439000D01*
X69127000Y-210416000D01*
X69102000Y-210393000D01*
X69056000Y-210345000D01*
X69013000Y-210294000D01*
X68973000Y-210241000D01*
X68935000Y-210187000D01*
X68900000Y-210130000D01*
X68868000Y-210072000D01*
X68840000Y-210012000D01*
X68814000Y-209950000D01*
X68792000Y-209887000D01*
X68773000Y-209824000D01*
X68758000Y-209759000D01*
X68746000Y-209694000D01*
X68737000Y-209628000D01*
X68732000Y-209561000D01*
X68730000Y-209495000D01*
X68732000Y-209429000D01*
X68737000Y-209362000D01*
X68746000Y-209296000D01*
X68758000Y-209231000D01*
X68773000Y-209166000D01*
X68792000Y-209103000D01*
X68814000Y-209040000D01*
X68840000Y-208978000D01*
X68868000Y-208918000D01*
X68900000Y-208860000D01*
X68935000Y-208803000D01*
X68973000Y-208749000D01*
X69013000Y-208696000D01*
X69056000Y-208645000D01*
X69102000Y-208597000D01*
X69150000Y-208551000D01*
X69201000Y-208508000D01*
X69254000Y-208468000D01*
X69308000Y-208430000D01*
X69365000Y-208395000D01*
X69423000Y-208363000D01*
X69483000Y-208335000D01*
X69545000Y-208309000D01*
X69608000Y-208287000D01*
X69671000Y-208268000D01*
X69736000Y-208253000D01*
X69801000Y-208241000D01*
X69867000Y-208232000D01*
X69934000Y-208227000D01*
X70000000Y-208225000D01*
X70066000Y-208227000D01*
G37*
%TD*%
D11*
%TO.C,REF\u002A\u002A*%
X71700000Y-73600000D03*
X68300000Y-73600000D03*
X71700000Y-74400000D03*
X68300000Y-74400000D03*
X71700000Y-75200000D03*
X68300000Y-75200000D03*
X71700000Y-76000000D03*
X68300000Y-76000000D03*
X71700000Y-76800000D03*
X68300000Y-76800000D03*
X71700000Y-77600000D03*
X68300000Y-77600000D03*
X71700000Y-81600000D03*
X68300000Y-81600000D03*
X71700000Y-82400000D03*
X68300000Y-82400000D03*
X71700000Y-83200000D03*
X68300000Y-83200000D03*
X71700000Y-84000000D03*
X68300000Y-84000000D03*
X71700000Y-84800000D03*
X68300000Y-84800000D03*
X71700000Y-85600000D03*
X68300000Y-85600000D03*
X71700000Y-86400000D03*
X68300000Y-86400000D03*
%TD*%
%TO.C,REF\u002A\u002A*%
X71700000Y-193600000D03*
X68300000Y-193600000D03*
X71700000Y-194400000D03*
X68300000Y-194400000D03*
X71700000Y-195200000D03*
X68300000Y-195200000D03*
X71700000Y-196000000D03*
X68300000Y-196000000D03*
X71700000Y-196800000D03*
X68300000Y-196800000D03*
X71700000Y-197600000D03*
X68300000Y-197600000D03*
X71700000Y-201600000D03*
X68300000Y-201600000D03*
X71700000Y-202400000D03*
X68300000Y-202400000D03*
X71700000Y-203200000D03*
X68300000Y-203200000D03*
X71700000Y-204000000D03*
X68300000Y-204000000D03*
X71700000Y-204800000D03*
X68300000Y-204800000D03*
X71700000Y-205600000D03*
X68300000Y-205600000D03*
X71700000Y-206400000D03*
X68300000Y-206400000D03*
%TD*%
M02*
