%TF.GenerationSoftware,KiCad,Pcbnew,8.0.2-1*%
%TF.CreationDate,2024-10-14T18:36:12-04:00*%
%TF.ProjectId,EvenLayers_1.3mm_SiPM,4576656e-4c61-4796-9572-735f312e336d,rev?*%
%TF.SameCoordinates,Original*%
%TF.FileFunction,Drillmap*%
%TF.FilePolarity,Positive*%
%FSLAX45Y45*%
G04 Gerber Fmt 4.5, Leading zero omitted, Abs format (unit mm)*
G04 Created by KiCad (PCBNEW 8.0.2-1) date 2024-10-14 18:36:12*
%MOMM*%
%LPD*%
G01*
G04 APERTURE LIST*
%ADD10C,0.050000*%
%ADD11C,0.100000*%
%ADD12C,0.200000*%
%ADD13C,0.127000*%
G04 APERTURE END LIST*
D10*
X6600000Y-21300000D02*
X7500000Y-21300000D01*
X7500000Y-9300000D02*
X6600000Y-9300000D01*
X6600000Y-6700000D02*
X6600000Y-9300000D01*
X6600000Y-32430000D02*
X6600000Y-32500000D01*
X6600000Y-18700000D02*
X7500000Y-18700000D01*
X35200000Y-32500000D02*
X6600000Y-32500000D01*
X7500000Y-3500000D02*
X35200000Y-3500000D01*
X7500000Y-21300000D02*
X7500000Y-31080000D01*
X6600000Y-6700000D02*
X7500000Y-6700000D01*
X6600000Y-31570000D02*
X6600000Y-31080000D01*
X6600000Y-18700000D02*
X6600000Y-21300000D01*
X7500000Y-6700000D02*
X7500000Y-3500000D01*
X35200000Y-3500000D02*
X35200000Y-32500000D01*
X7500000Y-18700000D02*
X7500000Y-9300000D01*
X6600000Y-31080000D02*
X7500000Y-31080000D01*
D11*
X6600000Y-31570000D02*
X6600000Y-32430000D01*
D12*
D13*
X7086500Y-6862000D02*
X7213500Y-6989000D01*
X7213500Y-6862000D02*
X7086500Y-6989000D01*
X7086500Y-9011000D02*
X7213500Y-9138000D01*
X7213500Y-9011000D02*
X7086500Y-9138000D01*
X7086500Y-18862000D02*
X7213500Y-18989000D01*
X7213500Y-18862000D02*
X7086500Y-18989000D01*
X7086500Y-21011000D02*
X7213500Y-21138000D01*
X7213500Y-21011000D02*
X7086500Y-21138000D01*
D12*
X6855777Y-32813984D02*
X6855777Y-32613984D01*
X6855777Y-32613984D02*
X6903396Y-32613984D01*
X6903396Y-32613984D02*
X6931967Y-32623508D01*
X6931967Y-32623508D02*
X6951015Y-32642555D01*
X6951015Y-32642555D02*
X6960539Y-32661603D01*
X6960539Y-32661603D02*
X6970062Y-32699698D01*
X6970062Y-32699698D02*
X6970062Y-32728269D01*
X6970062Y-32728269D02*
X6960539Y-32766365D01*
X6960539Y-32766365D02*
X6951015Y-32785412D01*
X6951015Y-32785412D02*
X6931967Y-32804460D01*
X6931967Y-32804460D02*
X6903396Y-32813984D01*
X6903396Y-32813984D02*
X6855777Y-32813984D01*
X7055777Y-32813984D02*
X7055777Y-32680650D01*
X7055777Y-32718746D02*
X7065301Y-32699698D01*
X7065301Y-32699698D02*
X7074824Y-32690174D01*
X7074824Y-32690174D02*
X7093872Y-32680650D01*
X7093872Y-32680650D02*
X7112920Y-32680650D01*
X7179586Y-32813984D02*
X7179586Y-32680650D01*
X7179586Y-32613984D02*
X7170062Y-32623508D01*
X7170062Y-32623508D02*
X7179586Y-32633031D01*
X7179586Y-32633031D02*
X7189110Y-32623508D01*
X7189110Y-32623508D02*
X7179586Y-32613984D01*
X7179586Y-32613984D02*
X7179586Y-32633031D01*
X7303396Y-32813984D02*
X7284348Y-32804460D01*
X7284348Y-32804460D02*
X7274824Y-32785412D01*
X7274824Y-32785412D02*
X7274824Y-32613984D01*
X7408158Y-32813984D02*
X7389110Y-32804460D01*
X7389110Y-32804460D02*
X7379586Y-32785412D01*
X7379586Y-32785412D02*
X7379586Y-32613984D01*
X7636729Y-32813984D02*
X7636729Y-32613984D01*
X7636729Y-32613984D02*
X7703396Y-32756841D01*
X7703396Y-32756841D02*
X7770062Y-32613984D01*
X7770062Y-32613984D02*
X7770062Y-32813984D01*
X7951015Y-32813984D02*
X7951015Y-32709222D01*
X7951015Y-32709222D02*
X7941491Y-32690174D01*
X7941491Y-32690174D02*
X7922443Y-32680650D01*
X7922443Y-32680650D02*
X7884348Y-32680650D01*
X7884348Y-32680650D02*
X7865301Y-32690174D01*
X7951015Y-32804460D02*
X7931967Y-32813984D01*
X7931967Y-32813984D02*
X7884348Y-32813984D01*
X7884348Y-32813984D02*
X7865301Y-32804460D01*
X7865301Y-32804460D02*
X7855777Y-32785412D01*
X7855777Y-32785412D02*
X7855777Y-32766365D01*
X7855777Y-32766365D02*
X7865301Y-32747317D01*
X7865301Y-32747317D02*
X7884348Y-32737793D01*
X7884348Y-32737793D02*
X7931967Y-32737793D01*
X7931967Y-32737793D02*
X7951015Y-32728269D01*
X8046253Y-32680650D02*
X8046253Y-32880650D01*
X8046253Y-32690174D02*
X8065301Y-32680650D01*
X8065301Y-32680650D02*
X8103396Y-32680650D01*
X8103396Y-32680650D02*
X8122443Y-32690174D01*
X8122443Y-32690174D02*
X8131967Y-32699698D01*
X8131967Y-32699698D02*
X8141491Y-32718746D01*
X8141491Y-32718746D02*
X8141491Y-32775888D01*
X8141491Y-32775888D02*
X8131967Y-32794936D01*
X8131967Y-32794936D02*
X8122443Y-32804460D01*
X8122443Y-32804460D02*
X8103396Y-32813984D01*
X8103396Y-32813984D02*
X8065301Y-32813984D01*
X8065301Y-32813984D02*
X8046253Y-32804460D01*
X8227205Y-32794936D02*
X8236729Y-32804460D01*
X8236729Y-32804460D02*
X8227205Y-32813984D01*
X8227205Y-32813984D02*
X8217682Y-32804460D01*
X8217682Y-32804460D02*
X8227205Y-32794936D01*
X8227205Y-32794936D02*
X8227205Y-32813984D01*
X8227205Y-32690174D02*
X8236729Y-32699698D01*
X8236729Y-32699698D02*
X8227205Y-32709222D01*
X8227205Y-32709222D02*
X8217682Y-32699698D01*
X8217682Y-32699698D02*
X8227205Y-32690174D01*
X8227205Y-32690174D02*
X8227205Y-32709222D01*
D13*
X6468000Y-33079000D02*
X6595000Y-33206000D01*
X6595000Y-33079000D02*
X6468000Y-33206000D01*
D12*
X6960539Y-33233984D02*
X6846253Y-33233984D01*
X6903396Y-33233984D02*
X6903396Y-33033984D01*
X6903396Y-33033984D02*
X6884348Y-33062555D01*
X6884348Y-33062555D02*
X6865301Y-33081603D01*
X6865301Y-33081603D02*
X6846253Y-33091127D01*
X7046253Y-33214936D02*
X7055777Y-33224460D01*
X7055777Y-33224460D02*
X7046253Y-33233984D01*
X7046253Y-33233984D02*
X7036729Y-33224460D01*
X7036729Y-33224460D02*
X7046253Y-33214936D01*
X7046253Y-33214936D02*
X7046253Y-33233984D01*
X7131967Y-33053031D02*
X7141491Y-33043508D01*
X7141491Y-33043508D02*
X7160539Y-33033984D01*
X7160539Y-33033984D02*
X7208158Y-33033984D01*
X7208158Y-33033984D02*
X7227205Y-33043508D01*
X7227205Y-33043508D02*
X7236729Y-33053031D01*
X7236729Y-33053031D02*
X7246253Y-33072079D01*
X7246253Y-33072079D02*
X7246253Y-33091127D01*
X7246253Y-33091127D02*
X7236729Y-33119698D01*
X7236729Y-33119698D02*
X7122443Y-33233984D01*
X7122443Y-33233984D02*
X7246253Y-33233984D01*
X7312920Y-33033984D02*
X7446253Y-33033984D01*
X7446253Y-33033984D02*
X7360539Y-33233984D01*
X7560539Y-33033984D02*
X7579586Y-33033984D01*
X7579586Y-33033984D02*
X7598634Y-33043508D01*
X7598634Y-33043508D02*
X7608158Y-33053031D01*
X7608158Y-33053031D02*
X7617682Y-33072079D01*
X7617682Y-33072079D02*
X7627205Y-33110174D01*
X7627205Y-33110174D02*
X7627205Y-33157793D01*
X7627205Y-33157793D02*
X7617682Y-33195888D01*
X7617682Y-33195888D02*
X7608158Y-33214936D01*
X7608158Y-33214936D02*
X7598634Y-33224460D01*
X7598634Y-33224460D02*
X7579586Y-33233984D01*
X7579586Y-33233984D02*
X7560539Y-33233984D01*
X7560539Y-33233984D02*
X7541491Y-33224460D01*
X7541491Y-33224460D02*
X7531967Y-33214936D01*
X7531967Y-33214936D02*
X7522443Y-33195888D01*
X7522443Y-33195888D02*
X7512920Y-33157793D01*
X7512920Y-33157793D02*
X7512920Y-33110174D01*
X7512920Y-33110174D02*
X7522443Y-33072079D01*
X7522443Y-33072079D02*
X7531967Y-33053031D01*
X7531967Y-33053031D02*
X7541491Y-33043508D01*
X7541491Y-33043508D02*
X7560539Y-33033984D01*
X7712920Y-33233984D02*
X7712920Y-33100650D01*
X7712920Y-33119698D02*
X7722443Y-33110174D01*
X7722443Y-33110174D02*
X7741491Y-33100650D01*
X7741491Y-33100650D02*
X7770063Y-33100650D01*
X7770063Y-33100650D02*
X7789110Y-33110174D01*
X7789110Y-33110174D02*
X7798634Y-33129222D01*
X7798634Y-33129222D02*
X7798634Y-33233984D01*
X7798634Y-33129222D02*
X7808158Y-33110174D01*
X7808158Y-33110174D02*
X7827205Y-33100650D01*
X7827205Y-33100650D02*
X7855777Y-33100650D01*
X7855777Y-33100650D02*
X7874824Y-33110174D01*
X7874824Y-33110174D02*
X7884348Y-33129222D01*
X7884348Y-33129222D02*
X7884348Y-33233984D01*
X7979586Y-33233984D02*
X7979586Y-33100650D01*
X7979586Y-33119698D02*
X7989110Y-33110174D01*
X7989110Y-33110174D02*
X8008158Y-33100650D01*
X8008158Y-33100650D02*
X8036729Y-33100650D01*
X8036729Y-33100650D02*
X8055777Y-33110174D01*
X8055777Y-33110174D02*
X8065301Y-33129222D01*
X8065301Y-33129222D02*
X8065301Y-33233984D01*
X8065301Y-33129222D02*
X8074824Y-33110174D01*
X8074824Y-33110174D02*
X8093872Y-33100650D01*
X8093872Y-33100650D02*
X8122443Y-33100650D01*
X8122443Y-33100650D02*
X8141491Y-33110174D01*
X8141491Y-33110174D02*
X8151015Y-33129222D01*
X8151015Y-33129222D02*
X8151015Y-33233984D01*
X8541491Y-33024460D02*
X8370063Y-33281603D01*
X8798634Y-33033984D02*
X8817682Y-33033984D01*
X8817682Y-33033984D02*
X8836729Y-33043508D01*
X8836729Y-33043508D02*
X8846253Y-33053031D01*
X8846253Y-33053031D02*
X8855777Y-33072079D01*
X8855777Y-33072079D02*
X8865301Y-33110174D01*
X8865301Y-33110174D02*
X8865301Y-33157793D01*
X8865301Y-33157793D02*
X8855777Y-33195888D01*
X8855777Y-33195888D02*
X8846253Y-33214936D01*
X8846253Y-33214936D02*
X8836729Y-33224460D01*
X8836729Y-33224460D02*
X8817682Y-33233984D01*
X8817682Y-33233984D02*
X8798634Y-33233984D01*
X8798634Y-33233984D02*
X8779587Y-33224460D01*
X8779587Y-33224460D02*
X8770063Y-33214936D01*
X8770063Y-33214936D02*
X8760539Y-33195888D01*
X8760539Y-33195888D02*
X8751015Y-33157793D01*
X8751015Y-33157793D02*
X8751015Y-33110174D01*
X8751015Y-33110174D02*
X8760539Y-33072079D01*
X8760539Y-33072079D02*
X8770063Y-33053031D01*
X8770063Y-33053031D02*
X8779587Y-33043508D01*
X8779587Y-33043508D02*
X8798634Y-33033984D01*
X8951015Y-33214936D02*
X8960539Y-33224460D01*
X8960539Y-33224460D02*
X8951015Y-33233984D01*
X8951015Y-33233984D02*
X8941491Y-33224460D01*
X8941491Y-33224460D02*
X8951015Y-33214936D01*
X8951015Y-33214936D02*
X8951015Y-33233984D01*
X9084348Y-33033984D02*
X9103396Y-33033984D01*
X9103396Y-33033984D02*
X9122444Y-33043508D01*
X9122444Y-33043508D02*
X9131968Y-33053031D01*
X9131968Y-33053031D02*
X9141491Y-33072079D01*
X9141491Y-33072079D02*
X9151015Y-33110174D01*
X9151015Y-33110174D02*
X9151015Y-33157793D01*
X9151015Y-33157793D02*
X9141491Y-33195888D01*
X9141491Y-33195888D02*
X9131968Y-33214936D01*
X9131968Y-33214936D02*
X9122444Y-33224460D01*
X9122444Y-33224460D02*
X9103396Y-33233984D01*
X9103396Y-33233984D02*
X9084348Y-33233984D01*
X9084348Y-33233984D02*
X9065301Y-33224460D01*
X9065301Y-33224460D02*
X9055777Y-33214936D01*
X9055777Y-33214936D02*
X9046253Y-33195888D01*
X9046253Y-33195888D02*
X9036729Y-33157793D01*
X9036729Y-33157793D02*
X9036729Y-33110174D01*
X9036729Y-33110174D02*
X9046253Y-33072079D01*
X9046253Y-33072079D02*
X9055777Y-33053031D01*
X9055777Y-33053031D02*
X9065301Y-33043508D01*
X9065301Y-33043508D02*
X9084348Y-33033984D01*
X9331968Y-33033984D02*
X9236729Y-33033984D01*
X9236729Y-33033984D02*
X9227206Y-33129222D01*
X9227206Y-33129222D02*
X9236729Y-33119698D01*
X9236729Y-33119698D02*
X9255777Y-33110174D01*
X9255777Y-33110174D02*
X9303396Y-33110174D01*
X9303396Y-33110174D02*
X9322444Y-33119698D01*
X9322444Y-33119698D02*
X9331968Y-33129222D01*
X9331968Y-33129222D02*
X9341491Y-33148269D01*
X9341491Y-33148269D02*
X9341491Y-33195888D01*
X9341491Y-33195888D02*
X9331968Y-33214936D01*
X9331968Y-33214936D02*
X9322444Y-33224460D01*
X9322444Y-33224460D02*
X9303396Y-33233984D01*
X9303396Y-33233984D02*
X9255777Y-33233984D01*
X9255777Y-33233984D02*
X9236729Y-33224460D01*
X9236729Y-33224460D02*
X9227206Y-33214936D01*
X9465301Y-33033984D02*
X9484349Y-33033984D01*
X9484349Y-33033984D02*
X9503396Y-33043508D01*
X9503396Y-33043508D02*
X9512920Y-33053031D01*
X9512920Y-33053031D02*
X9522444Y-33072079D01*
X9522444Y-33072079D02*
X9531968Y-33110174D01*
X9531968Y-33110174D02*
X9531968Y-33157793D01*
X9531968Y-33157793D02*
X9522444Y-33195888D01*
X9522444Y-33195888D02*
X9512920Y-33214936D01*
X9512920Y-33214936D02*
X9503396Y-33224460D01*
X9503396Y-33224460D02*
X9484349Y-33233984D01*
X9484349Y-33233984D02*
X9465301Y-33233984D01*
X9465301Y-33233984D02*
X9446253Y-33224460D01*
X9446253Y-33224460D02*
X9436729Y-33214936D01*
X9436729Y-33214936D02*
X9427206Y-33195888D01*
X9427206Y-33195888D02*
X9417682Y-33157793D01*
X9417682Y-33157793D02*
X9417682Y-33110174D01*
X9417682Y-33110174D02*
X9427206Y-33072079D01*
X9427206Y-33072079D02*
X9436729Y-33053031D01*
X9436729Y-33053031D02*
X9446253Y-33043508D01*
X9446253Y-33043508D02*
X9465301Y-33033984D01*
X9655777Y-33033984D02*
X9674825Y-33033984D01*
X9674825Y-33033984D02*
X9693872Y-33043508D01*
X9693872Y-33043508D02*
X9703396Y-33053031D01*
X9703396Y-33053031D02*
X9712920Y-33072079D01*
X9712920Y-33072079D02*
X9722444Y-33110174D01*
X9722444Y-33110174D02*
X9722444Y-33157793D01*
X9722444Y-33157793D02*
X9712920Y-33195888D01*
X9712920Y-33195888D02*
X9703396Y-33214936D01*
X9703396Y-33214936D02*
X9693872Y-33224460D01*
X9693872Y-33224460D02*
X9674825Y-33233984D01*
X9674825Y-33233984D02*
X9655777Y-33233984D01*
X9655777Y-33233984D02*
X9636729Y-33224460D01*
X9636729Y-33224460D02*
X9627206Y-33214936D01*
X9627206Y-33214936D02*
X9617682Y-33195888D01*
X9617682Y-33195888D02*
X9608158Y-33157793D01*
X9608158Y-33157793D02*
X9608158Y-33110174D01*
X9608158Y-33110174D02*
X9617682Y-33072079D01*
X9617682Y-33072079D02*
X9627206Y-33053031D01*
X9627206Y-33053031D02*
X9636729Y-33043508D01*
X9636729Y-33043508D02*
X9655777Y-33033984D01*
X9798634Y-33033984D02*
X9798634Y-33072079D01*
X9874825Y-33033984D02*
X9874825Y-33072079D01*
X10170063Y-33310174D02*
X10160539Y-33300650D01*
X10160539Y-33300650D02*
X10141491Y-33272079D01*
X10141491Y-33272079D02*
X10131968Y-33253031D01*
X10131968Y-33253031D02*
X10122444Y-33224460D01*
X10122444Y-33224460D02*
X10112920Y-33176841D01*
X10112920Y-33176841D02*
X10112920Y-33138746D01*
X10112920Y-33138746D02*
X10122444Y-33091127D01*
X10122444Y-33091127D02*
X10131968Y-33062555D01*
X10131968Y-33062555D02*
X10141491Y-33043508D01*
X10141491Y-33043508D02*
X10160539Y-33014936D01*
X10160539Y-33014936D02*
X10170063Y-33005412D01*
X10331968Y-33100650D02*
X10331968Y-33233984D01*
X10284349Y-33024460D02*
X10236730Y-33167317D01*
X10236730Y-33167317D02*
X10360539Y-33167317D01*
X10589111Y-33233984D02*
X10589111Y-33033984D01*
X10674825Y-33233984D02*
X10674825Y-33129222D01*
X10674825Y-33129222D02*
X10665301Y-33110174D01*
X10665301Y-33110174D02*
X10646253Y-33100650D01*
X10646253Y-33100650D02*
X10617682Y-33100650D01*
X10617682Y-33100650D02*
X10598634Y-33110174D01*
X10598634Y-33110174D02*
X10589111Y-33119698D01*
X10798634Y-33233984D02*
X10779587Y-33224460D01*
X10779587Y-33224460D02*
X10770063Y-33214936D01*
X10770063Y-33214936D02*
X10760539Y-33195888D01*
X10760539Y-33195888D02*
X10760539Y-33138746D01*
X10760539Y-33138746D02*
X10770063Y-33119698D01*
X10770063Y-33119698D02*
X10779587Y-33110174D01*
X10779587Y-33110174D02*
X10798634Y-33100650D01*
X10798634Y-33100650D02*
X10827206Y-33100650D01*
X10827206Y-33100650D02*
X10846253Y-33110174D01*
X10846253Y-33110174D02*
X10855777Y-33119698D01*
X10855777Y-33119698D02*
X10865301Y-33138746D01*
X10865301Y-33138746D02*
X10865301Y-33195888D01*
X10865301Y-33195888D02*
X10855777Y-33214936D01*
X10855777Y-33214936D02*
X10846253Y-33224460D01*
X10846253Y-33224460D02*
X10827206Y-33233984D01*
X10827206Y-33233984D02*
X10798634Y-33233984D01*
X10979587Y-33233984D02*
X10960539Y-33224460D01*
X10960539Y-33224460D02*
X10951015Y-33205412D01*
X10951015Y-33205412D02*
X10951015Y-33033984D01*
X11131968Y-33224460D02*
X11112920Y-33233984D01*
X11112920Y-33233984D02*
X11074825Y-33233984D01*
X11074825Y-33233984D02*
X11055777Y-33224460D01*
X11055777Y-33224460D02*
X11046253Y-33205412D01*
X11046253Y-33205412D02*
X11046253Y-33129222D01*
X11046253Y-33129222D02*
X11055777Y-33110174D01*
X11055777Y-33110174D02*
X11074825Y-33100650D01*
X11074825Y-33100650D02*
X11112920Y-33100650D01*
X11112920Y-33100650D02*
X11131968Y-33110174D01*
X11131968Y-33110174D02*
X11141492Y-33129222D01*
X11141492Y-33129222D02*
X11141492Y-33148269D01*
X11141492Y-33148269D02*
X11046253Y-33167317D01*
X11217682Y-33224460D02*
X11236730Y-33233984D01*
X11236730Y-33233984D02*
X11274825Y-33233984D01*
X11274825Y-33233984D02*
X11293872Y-33224460D01*
X11293872Y-33224460D02*
X11303396Y-33205412D01*
X11303396Y-33205412D02*
X11303396Y-33195888D01*
X11303396Y-33195888D02*
X11293872Y-33176841D01*
X11293872Y-33176841D02*
X11274825Y-33167317D01*
X11274825Y-33167317D02*
X11246253Y-33167317D01*
X11246253Y-33167317D02*
X11227206Y-33157793D01*
X11227206Y-33157793D02*
X11217682Y-33138746D01*
X11217682Y-33138746D02*
X11217682Y-33129222D01*
X11217682Y-33129222D02*
X11227206Y-33110174D01*
X11227206Y-33110174D02*
X11246253Y-33100650D01*
X11246253Y-33100650D02*
X11274825Y-33100650D01*
X11274825Y-33100650D02*
X11293872Y-33110174D01*
X11370063Y-33310174D02*
X11379587Y-33300650D01*
X11379587Y-33300650D02*
X11398634Y-33272079D01*
X11398634Y-33272079D02*
X11408158Y-33253031D01*
X11408158Y-33253031D02*
X11417682Y-33224460D01*
X11417682Y-33224460D02*
X11427206Y-33176841D01*
X11427206Y-33176841D02*
X11427206Y-33138746D01*
X11427206Y-33138746D02*
X11417682Y-33091127D01*
X11417682Y-33091127D02*
X11408158Y-33062555D01*
X11408158Y-33062555D02*
X11398634Y-33043508D01*
X11398634Y-33043508D02*
X11379587Y-33014936D01*
X11379587Y-33014936D02*
X11370063Y-33005412D01*
X11731968Y-33310174D02*
X11722444Y-33300650D01*
X11722444Y-33300650D02*
X11703396Y-33272079D01*
X11703396Y-33272079D02*
X11693872Y-33253031D01*
X11693872Y-33253031D02*
X11684349Y-33224460D01*
X11684349Y-33224460D02*
X11674825Y-33176841D01*
X11674825Y-33176841D02*
X11674825Y-33138746D01*
X11674825Y-33138746D02*
X11684349Y-33091127D01*
X11684349Y-33091127D02*
X11693872Y-33062555D01*
X11693872Y-33062555D02*
X11703396Y-33043508D01*
X11703396Y-33043508D02*
X11722444Y-33014936D01*
X11722444Y-33014936D02*
X11731968Y-33005412D01*
X11808158Y-33100650D02*
X11808158Y-33233984D01*
X11808158Y-33119698D02*
X11817682Y-33110174D01*
X11817682Y-33110174D02*
X11836730Y-33100650D01*
X11836730Y-33100650D02*
X11865301Y-33100650D01*
X11865301Y-33100650D02*
X11884349Y-33110174D01*
X11884349Y-33110174D02*
X11893872Y-33129222D01*
X11893872Y-33129222D02*
X11893872Y-33233984D01*
X12017682Y-33233984D02*
X11998634Y-33224460D01*
X11998634Y-33224460D02*
X11989111Y-33214936D01*
X11989111Y-33214936D02*
X11979587Y-33195888D01*
X11979587Y-33195888D02*
X11979587Y-33138746D01*
X11979587Y-33138746D02*
X11989111Y-33119698D01*
X11989111Y-33119698D02*
X11998634Y-33110174D01*
X11998634Y-33110174D02*
X12017682Y-33100650D01*
X12017682Y-33100650D02*
X12046253Y-33100650D01*
X12046253Y-33100650D02*
X12065301Y-33110174D01*
X12065301Y-33110174D02*
X12074825Y-33119698D01*
X12074825Y-33119698D02*
X12084349Y-33138746D01*
X12084349Y-33138746D02*
X12084349Y-33195888D01*
X12084349Y-33195888D02*
X12074825Y-33214936D01*
X12074825Y-33214936D02*
X12065301Y-33224460D01*
X12065301Y-33224460D02*
X12046253Y-33233984D01*
X12046253Y-33233984D02*
X12017682Y-33233984D01*
X12141492Y-33100650D02*
X12217682Y-33100650D01*
X12170063Y-33033984D02*
X12170063Y-33205412D01*
X12170063Y-33205412D02*
X12179587Y-33224460D01*
X12179587Y-33224460D02*
X12198634Y-33233984D01*
X12198634Y-33233984D02*
X12217682Y-33233984D01*
X12436730Y-33100650D02*
X12436730Y-33300650D01*
X12436730Y-33110174D02*
X12455777Y-33100650D01*
X12455777Y-33100650D02*
X12493873Y-33100650D01*
X12493873Y-33100650D02*
X12512920Y-33110174D01*
X12512920Y-33110174D02*
X12522444Y-33119698D01*
X12522444Y-33119698D02*
X12531968Y-33138746D01*
X12531968Y-33138746D02*
X12531968Y-33195888D01*
X12531968Y-33195888D02*
X12522444Y-33214936D01*
X12522444Y-33214936D02*
X12512920Y-33224460D01*
X12512920Y-33224460D02*
X12493873Y-33233984D01*
X12493873Y-33233984D02*
X12455777Y-33233984D01*
X12455777Y-33233984D02*
X12436730Y-33224460D01*
X12646253Y-33233984D02*
X12627206Y-33224460D01*
X12627206Y-33224460D02*
X12617682Y-33205412D01*
X12617682Y-33205412D02*
X12617682Y-33033984D01*
X12808158Y-33233984D02*
X12808158Y-33129222D01*
X12808158Y-33129222D02*
X12798634Y-33110174D01*
X12798634Y-33110174D02*
X12779587Y-33100650D01*
X12779587Y-33100650D02*
X12741492Y-33100650D01*
X12741492Y-33100650D02*
X12722444Y-33110174D01*
X12808158Y-33224460D02*
X12789111Y-33233984D01*
X12789111Y-33233984D02*
X12741492Y-33233984D01*
X12741492Y-33233984D02*
X12722444Y-33224460D01*
X12722444Y-33224460D02*
X12712920Y-33205412D01*
X12712920Y-33205412D02*
X12712920Y-33186365D01*
X12712920Y-33186365D02*
X12722444Y-33167317D01*
X12722444Y-33167317D02*
X12741492Y-33157793D01*
X12741492Y-33157793D02*
X12789111Y-33157793D01*
X12789111Y-33157793D02*
X12808158Y-33148269D01*
X12874825Y-33100650D02*
X12951015Y-33100650D01*
X12903396Y-33033984D02*
X12903396Y-33205412D01*
X12903396Y-33205412D02*
X12912920Y-33224460D01*
X12912920Y-33224460D02*
X12931968Y-33233984D01*
X12931968Y-33233984D02*
X12951015Y-33233984D01*
X13093873Y-33224460D02*
X13074825Y-33233984D01*
X13074825Y-33233984D02*
X13036730Y-33233984D01*
X13036730Y-33233984D02*
X13017682Y-33224460D01*
X13017682Y-33224460D02*
X13008158Y-33205412D01*
X13008158Y-33205412D02*
X13008158Y-33129222D01*
X13008158Y-33129222D02*
X13017682Y-33110174D01*
X13017682Y-33110174D02*
X13036730Y-33100650D01*
X13036730Y-33100650D02*
X13074825Y-33100650D01*
X13074825Y-33100650D02*
X13093873Y-33110174D01*
X13093873Y-33110174D02*
X13103396Y-33129222D01*
X13103396Y-33129222D02*
X13103396Y-33148269D01*
X13103396Y-33148269D02*
X13008158Y-33167317D01*
X13274825Y-33233984D02*
X13274825Y-33033984D01*
X13274825Y-33224460D02*
X13255777Y-33233984D01*
X13255777Y-33233984D02*
X13217682Y-33233984D01*
X13217682Y-33233984D02*
X13198634Y-33224460D01*
X13198634Y-33224460D02*
X13189111Y-33214936D01*
X13189111Y-33214936D02*
X13179587Y-33195888D01*
X13179587Y-33195888D02*
X13179587Y-33138746D01*
X13179587Y-33138746D02*
X13189111Y-33119698D01*
X13189111Y-33119698D02*
X13198634Y-33110174D01*
X13198634Y-33110174D02*
X13217682Y-33100650D01*
X13217682Y-33100650D02*
X13255777Y-33100650D01*
X13255777Y-33100650D02*
X13274825Y-33110174D01*
X13351015Y-33310174D02*
X13360539Y-33300650D01*
X13360539Y-33300650D02*
X13379587Y-33272079D01*
X13379587Y-33272079D02*
X13389111Y-33253031D01*
X13389111Y-33253031D02*
X13398634Y-33224460D01*
X13398634Y-33224460D02*
X13408158Y-33176841D01*
X13408158Y-33176841D02*
X13408158Y-33138746D01*
X13408158Y-33138746D02*
X13398634Y-33091127D01*
X13398634Y-33091127D02*
X13389111Y-33062555D01*
X13389111Y-33062555D02*
X13379587Y-33043508D01*
X13379587Y-33043508D02*
X13360539Y-33014936D01*
X13360539Y-33014936D02*
X13351015Y-33005412D01*
M02*
