M48
; DRILL file {KiCad 8.0.2-1} date 2024-06-03T22:05:28-0400
; FORMAT={-:-/ absolute / inch / decimal}
; #@! TF.CreationDate,2024-06-03T22:05:28-04:00
; #@! TF.GenerationSoftware,Kicad,Pcbnew,8.0.2-1
; #@! TF.FileFunction,Plated,1,2,PTH
FMAT,2
INCH
; #@! TA.AperFunction,Plated,PTH,ViaDrill
T1C0.0157
; #@! TA.AperFunction,Plated,PTH,ComponentDrill
T2C0.0433
; #@! TA.AperFunction,Plated,PTH,ComponentDrill
T3C0.0591
%
G90
G05
T1
X2.1457Y-11.063
X2.1811Y-11.0315
X2.3346Y-11.3386
X2.3346Y-11.4252
X2.4016Y-8.8268
X2.4016Y-8.8661
X2.4094Y-9.8386
X2.4134Y-9.0551
X2.4134Y-9.2441
X2.4134Y-9.7992
X2.4134Y-10.189
X2.4134Y-10.2283
X2.4134Y-10.5827
X2.4134Y-10.626
X2.4134Y-10.7835
X2.4134Y-10.8268
X2.4173Y-8.4173
X2.4173Y-8.4567
X2.4173Y-8.6142
X2.4173Y-8.6535
X2.4173Y-9.0079
X2.4173Y-9.2047
X2.4173Y-9.4016
X2.4173Y-9.4409
X2.4173Y-9.5984
X2.4173Y-9.6417
X2.4173Y-9.9921
X2.4173Y-10.0354
X2.4173Y-10.3858
X2.4213Y-10.4331
X2.6378Y-8.4567
X2.6378Y-8.6535
X2.6378Y-9.0472
X2.6378Y-9.2441
X2.6378Y-9.4409
X2.6378Y-9.6378
X2.6378Y-9.8346
X2.6378Y-10.0315
X2.6378Y-10.2283
X2.6378Y-10.4252
X2.6378Y-10.622
X2.6378Y-10.8189
X2.6417Y-8.8504
X2.8346Y-8.5551
X2.8346Y-8.752
X2.8346Y-8.9488
X2.8346Y-9.1457
X2.8346Y-9.3425
X2.8346Y-9.5394
X2.8346Y-9.7362
X2.8346Y-9.9331
X2.8346Y-10.1299
X2.8346Y-10.3268
X2.8346Y-10.5236
X2.8346Y-10.7205
X2.8543Y-12.2402
X2.8583Y-12.6772
X4.1402Y-10.3972
X4.1441Y-2.8736
X4.1441Y-4.7516
X4.1441Y-6.6374
X4.1441Y-8.5154
X4.152Y-2.7791
X4.152Y-4.661
X4.152Y-6.5429
X4.152Y-8.4248
X4.152Y-10.3067
X4.2189Y-8.5626
X4.2189Y-10.4406
X4.2228Y-2.9169
X4.2228Y-4.7949
X4.2228Y-6.6768
X4.3055Y-2.7752
X4.3055Y-4.6571
X4.3055Y-6.539
X4.3055Y-8.4209
X4.3055Y-10.3028
X6.0181Y-6.6374
X6.022Y-2.8697
X6.022Y-8.5154
X6.026Y-4.7555
X6.026Y-10.4012
X6.0339Y-2.7791
X6.0339Y-4.661
X6.0339Y-6.5429
X6.0339Y-8.4248
X6.0339Y-10.3067
X6.1008Y-2.913
X6.1008Y-10.4406
X6.1047Y-4.7949
X6.1047Y-6.6807
X6.1047Y-8.5587
X6.1874Y-2.7752
X6.1874Y-4.6571
X6.1874Y-6.539
X6.1874Y-8.4209
X6.1874Y-10.3028
X7.9039Y-2.8736
X7.9039Y-6.6335
X7.9039Y-8.5154
X7.9039Y-10.4012
X7.9079Y-4.7516
X7.9157Y-2.7791
X7.9157Y-4.661
X7.9157Y-6.5429
X7.9157Y-8.4248
X7.9157Y-10.3067
X7.9827Y-4.7949
X7.9827Y-10.4406
X7.9866Y-2.913
X7.9866Y-6.6768
X7.9866Y-8.5587
X8.0693Y-2.7752
X8.0693Y-4.6571
X8.0693Y-6.539
X8.0693Y-8.4209
X8.0693Y-10.3028
X9.7858Y-2.8697
X9.7858Y-6.6374
X9.7858Y-8.5193
X9.7898Y-4.7516
X9.7898Y-10.4012
X9.7976Y-2.7791
X9.7976Y-4.661
X9.7976Y-6.5429
X9.7976Y-8.4248
X9.7976Y-10.3067
X9.8646Y-6.6768
X9.8646Y-8.5626
X9.8646Y-10.4406
X9.8685Y-2.913
X9.8685Y-4.7949
X9.9512Y-2.7752
X9.9512Y-4.6571
X9.9512Y-6.539
X9.9512Y-8.4209
X9.9512Y-10.3028
X11.6677Y-2.8697
X11.6677Y-4.7516
X11.6677Y-6.6374
X11.6677Y-8.5154
X11.6717Y-10.3972
X11.6795Y-2.7791
X11.6795Y-4.661
X11.6795Y-6.5429
X11.6795Y-8.4248
X11.6795Y-10.3067
X11.7465Y-2.913
X11.7465Y-4.7988
X11.7465Y-6.6807
X11.7465Y-10.4366
X11.7543Y-8.5587
X11.8331Y-2.7752
X11.8331Y-4.6571
X11.8331Y-6.539
X11.8331Y-8.4209
X11.8331Y-10.3028
T2
X2.4803Y-12.4961
T3
X2.2825Y-12.2982
X2.2825Y-12.6939
X2.6781Y-12.2982
X2.6781Y-12.6939
M30
