%TF.GenerationSoftware,KiCad,Pcbnew,8.0.2-1*%
%TF.CreationDate,2024-06-03T22:05:27-04:00*%
%TF.ProjectId,Untitled,556e7469-746c-4656-942e-6b696361645f,rev?*%
%TF.SameCoordinates,Original*%
%TF.FileFunction,Drillmap*%
%TF.FilePolarity,Positive*%
%FSLAX45Y45*%
G04 Gerber Fmt 4.5, Leading zero omitted, Abs format (unit mm)*
G04 Created by KiCad (PCBNEW 8.0.2-1) date 2024-06-03 22:05:27*
%MOMM*%
%LPD*%
G01*
G04 APERTURE LIST*
%ADD10C,0.100000*%
%ADD11C,0.120000*%
%ADD12C,0.200000*%
G04 APERTURE END LIST*
D10*
X5500000Y-22477500D02*
X5500000Y-7477500D01*
X5500000Y-33000000D02*
X5500000Y-28522500D01*
X7160000Y-30000000D02*
G75*
G02*
X6840000Y-30000000I-160000J0D01*
G01*
X6840000Y-30000000D02*
G75*
G02*
X7160000Y-30000000I160000J0D01*
G01*
X5500000Y-3000000D02*
X5500000Y-7477500D01*
X7160000Y-18000000D02*
G75*
G02*
X6840000Y-18000000I-160000J0D01*
G01*
X6840000Y-18000000D02*
G75*
G02*
X7160000Y-18000000I160000J0D01*
G01*
X35000000Y-3000000D02*
X35000000Y-33000000D01*
X35000000Y-3000000D02*
X5500000Y-3000000D01*
X35000000Y-33000000D02*
X5500000Y-33000000D01*
X7160000Y-6000000D02*
G75*
G02*
X6840000Y-6000000I-160000J0D01*
G01*
X6840000Y-6000000D02*
G75*
G02*
X7160000Y-6000000I160000J0D01*
G01*
D11*
X5000000Y-22477500D02*
X5000000Y-25140500D01*
X5000000Y-25140500D02*
X5520000Y-25140500D01*
X5000000Y-25380500D02*
X5000000Y-28522500D01*
X5000000Y-28522500D02*
X5500000Y-28522500D01*
X5500000Y-22477500D02*
X5000000Y-22477500D01*
X5520000Y-25380500D02*
X5000000Y-25380500D01*
X5520000Y-25140500D02*
G75*
G02*
X5520000Y-25380500I0J-120000D01*
G01*
D12*
X5254777Y-33316484D02*
X5254777Y-33116484D01*
X5254777Y-33116484D02*
X5302396Y-33116484D01*
X5302396Y-33116484D02*
X5330967Y-33126008D01*
X5330967Y-33126008D02*
X5350015Y-33145055D01*
X5350015Y-33145055D02*
X5359539Y-33164103D01*
X5359539Y-33164103D02*
X5369063Y-33202198D01*
X5369063Y-33202198D02*
X5369063Y-33230769D01*
X5369063Y-33230769D02*
X5359539Y-33268865D01*
X5359539Y-33268865D02*
X5350015Y-33287912D01*
X5350015Y-33287912D02*
X5330967Y-33306960D01*
X5330967Y-33306960D02*
X5302396Y-33316484D01*
X5302396Y-33316484D02*
X5254777Y-33316484D01*
X5454777Y-33316484D02*
X5454777Y-33183150D01*
X5454777Y-33221246D02*
X5464301Y-33202198D01*
X5464301Y-33202198D02*
X5473824Y-33192674D01*
X5473824Y-33192674D02*
X5492872Y-33183150D01*
X5492872Y-33183150D02*
X5511920Y-33183150D01*
X5578586Y-33316484D02*
X5578586Y-33183150D01*
X5578586Y-33116484D02*
X5569063Y-33126008D01*
X5569063Y-33126008D02*
X5578586Y-33135531D01*
X5578586Y-33135531D02*
X5588110Y-33126008D01*
X5588110Y-33126008D02*
X5578586Y-33116484D01*
X5578586Y-33116484D02*
X5578586Y-33135531D01*
X5702396Y-33316484D02*
X5683348Y-33306960D01*
X5683348Y-33306960D02*
X5673824Y-33287912D01*
X5673824Y-33287912D02*
X5673824Y-33116484D01*
X5807158Y-33316484D02*
X5788110Y-33306960D01*
X5788110Y-33306960D02*
X5778586Y-33287912D01*
X5778586Y-33287912D02*
X5778586Y-33116484D01*
X6035729Y-33316484D02*
X6035729Y-33116484D01*
X6035729Y-33116484D02*
X6102396Y-33259341D01*
X6102396Y-33259341D02*
X6169062Y-33116484D01*
X6169062Y-33116484D02*
X6169062Y-33316484D01*
X6350015Y-33316484D02*
X6350015Y-33211722D01*
X6350015Y-33211722D02*
X6340491Y-33192674D01*
X6340491Y-33192674D02*
X6321443Y-33183150D01*
X6321443Y-33183150D02*
X6283348Y-33183150D01*
X6283348Y-33183150D02*
X6264301Y-33192674D01*
X6350015Y-33306960D02*
X6330967Y-33316484D01*
X6330967Y-33316484D02*
X6283348Y-33316484D01*
X6283348Y-33316484D02*
X6264301Y-33306960D01*
X6264301Y-33306960D02*
X6254777Y-33287912D01*
X6254777Y-33287912D02*
X6254777Y-33268865D01*
X6254777Y-33268865D02*
X6264301Y-33249817D01*
X6264301Y-33249817D02*
X6283348Y-33240293D01*
X6283348Y-33240293D02*
X6330967Y-33240293D01*
X6330967Y-33240293D02*
X6350015Y-33230769D01*
X6445253Y-33183150D02*
X6445253Y-33383150D01*
X6445253Y-33192674D02*
X6464301Y-33183150D01*
X6464301Y-33183150D02*
X6502396Y-33183150D01*
X6502396Y-33183150D02*
X6521443Y-33192674D01*
X6521443Y-33192674D02*
X6530967Y-33202198D01*
X6530967Y-33202198D02*
X6540491Y-33221246D01*
X6540491Y-33221246D02*
X6540491Y-33278388D01*
X6540491Y-33278388D02*
X6530967Y-33297436D01*
X6530967Y-33297436D02*
X6521443Y-33306960D01*
X6521443Y-33306960D02*
X6502396Y-33316484D01*
X6502396Y-33316484D02*
X6464301Y-33316484D01*
X6464301Y-33316484D02*
X6445253Y-33306960D01*
X6626205Y-33297436D02*
X6635729Y-33306960D01*
X6635729Y-33306960D02*
X6626205Y-33316484D01*
X6626205Y-33316484D02*
X6616682Y-33306960D01*
X6616682Y-33306960D02*
X6626205Y-33297436D01*
X6626205Y-33297436D02*
X6626205Y-33316484D01*
X6626205Y-33192674D02*
X6635729Y-33202198D01*
X6635729Y-33202198D02*
X6626205Y-33211722D01*
X6626205Y-33211722D02*
X6616682Y-33202198D01*
X6616682Y-33202198D02*
X6626205Y-33192674D01*
X6626205Y-33192674D02*
X6626205Y-33211722D01*
M02*
