%TF.GenerationSoftware,KiCad,Pcbnew,8.0.2-1*%
%TF.CreationDate,2024-06-03T22:08:22-04:00*%
%TF.ProjectId,Untitled,556e7469-746c-4656-942e-6b696361645f,rev?*%
%TF.SameCoordinates,Original*%
%TF.FileFunction,Copper,L2,Bot*%
%TF.FilePolarity,Positive*%
%FSLAX46Y46*%
G04 Gerber Fmt 4.6, Leading zero omitted, Abs format (unit mm)*
G04 Created by KiCad (PCBNEW 8.0.2-1) date 2024-06-03 22:08:22*
%MOMM*%
%LPD*%
G01*
G04 APERTURE LIST*
%TA.AperFunction,ComponentPad*%
%ADD10R,3.500000X3.500000*%
%TD*%
%TA.AperFunction,ComponentPad*%
%ADD11C,4.000000*%
%TD*%
%TA.AperFunction,ConnectorPad*%
%ADD12R,2.800000X0.550000*%
%TD*%
%TA.AperFunction,ViaPad*%
%ADD13C,0.800000*%
%TD*%
%TA.AperFunction,Conductor*%
%ADD14C,0.200000*%
%TD*%
%TA.AperFunction,Conductor*%
%ADD15C,0.250000*%
%TD*%
G04 APERTURE END LIST*
D10*
%TO.P,LEDs,1*%
%TO.N,N/C*%
X63000000Y-317400000D03*
D11*
%TO.P,LEDs,2*%
X57975000Y-322425000D03*
X68025000Y-322425000D03*
X57975000Y-312375000D03*
X68025000Y-312375000D03*
%TD*%
D12*
%TO.P,REF\u002A\u002A,2*%
%TO.N,N/C*%
X52400000Y-225800000D03*
%TO.P,REF\u002A\u002A,4*%
X52400000Y-226600000D03*
%TO.P,REF\u002A\u002A,6*%
X52400000Y-227400000D03*
%TO.P,REF\u002A\u002A,8*%
X52400000Y-228200000D03*
%TO.P,REF\u002A\u002A,10*%
X52400000Y-229000000D03*
%TO.P,REF\u002A\u002A,12*%
X52400000Y-229800000D03*
%TO.P,REF\u002A\u002A,14*%
X52400000Y-230600000D03*
%TO.P,REF\u002A\u002A,16*%
X52400000Y-231400000D03*
%TO.P,REF\u002A\u002A,18*%
X52400000Y-232200000D03*
%TO.P,REF\u002A\u002A,20*%
X52400000Y-233000000D03*
%TO.P,REF\u002A\u002A,22*%
X52400000Y-233800000D03*
%TO.P,REF\u002A\u002A,24*%
X52400000Y-234600000D03*
%TO.P,REF\u002A\u002A,26*%
X52400000Y-235400000D03*
%TO.P,REF\u002A\u002A,28*%
X52400000Y-236200000D03*
%TO.P,REF\u002A\u002A,30*%
X52400000Y-237000000D03*
%TO.P,REF\u002A\u002A,32*%
X52400000Y-237800000D03*
%TO.P,REF\u002A\u002A,34*%
X52400000Y-238600000D03*
%TO.P,REF\u002A\u002A,36*%
X52400000Y-239400000D03*
%TO.P,REF\u002A\u002A,38*%
X52400000Y-240200000D03*
%TO.P,REF\u002A\u002A,40*%
X52400000Y-241000000D03*
%TO.P,REF\u002A\u002A,42*%
X52400000Y-241800000D03*
%TO.P,REF\u002A\u002A,44*%
X52400000Y-242600000D03*
%TO.P,REF\u002A\u002A,46*%
X52400000Y-243400000D03*
%TO.P,REF\u002A\u002A,48*%
X52400000Y-244200000D03*
%TO.P,REF\u002A\u002A,50*%
X52400000Y-245000000D03*
%TO.P,REF\u002A\u002A,52*%
X52400000Y-245800000D03*
%TO.P,REF\u002A\u002A,54*%
X52400000Y-246600000D03*
%TO.P,REF\u002A\u002A,56*%
X52400000Y-247400000D03*
%TO.P,REF\u002A\u002A,58*%
X52400000Y-248200000D03*
%TO.P,REF\u002A\u002A,60*%
X52400000Y-249000000D03*
%TO.P,REF\u002A\u002A,62*%
X52400000Y-249800000D03*
%TO.P,REF\u002A\u002A,64*%
X52400000Y-250600000D03*
%TO.P,REF\u002A\u002A,66*%
X52400000Y-254600000D03*
%TO.P,REF\u002A\u002A,68*%
X52400000Y-255400000D03*
%TO.P,REF\u002A\u002A,70*%
X52400000Y-256200000D03*
%TO.P,REF\u002A\u002A,72*%
X52400000Y-257000000D03*
%TO.P,REF\u002A\u002A,74*%
X52400000Y-257800000D03*
%TO.P,REF\u002A\u002A,76*%
X52400000Y-258600000D03*
%TO.P,REF\u002A\u002A,78*%
X52400000Y-259400000D03*
%TO.P,REF\u002A\u002A,80*%
X52400000Y-260200000D03*
%TO.P,REF\u002A\u002A,82*%
X52400000Y-261000000D03*
%TO.P,REF\u002A\u002A,84*%
X52400000Y-261800000D03*
%TO.P,REF\u002A\u002A,86*%
X52400000Y-262600000D03*
%TO.P,REF\u002A\u002A,88*%
X52400000Y-263400000D03*
%TO.P,REF\u002A\u002A,90*%
X52400000Y-264200000D03*
%TO.P,REF\u002A\u002A,92*%
X52400000Y-265000000D03*
%TO.P,REF\u002A\u002A,94*%
X52400000Y-265800000D03*
%TO.P,REF\u002A\u002A,96*%
X52400000Y-266600000D03*
%TO.P,REF\u002A\u002A,98*%
X52400000Y-267400000D03*
%TO.P,REF\u002A\u002A,100*%
X52400000Y-268200000D03*
%TO.P,REF\u002A\u002A,102*%
X52400000Y-269000000D03*
%TO.P,REF\u002A\u002A,104*%
X52400000Y-269800000D03*
%TO.P,REF\u002A\u002A,106*%
X52400000Y-270600000D03*
%TO.P,REF\u002A\u002A,108*%
X52400000Y-271400000D03*
%TO.P,REF\u002A\u002A,110*%
X52400000Y-272200000D03*
%TO.P,REF\u002A\u002A,112*%
X52400000Y-273000000D03*
%TO.P,REF\u002A\u002A,114*%
X52400000Y-273800000D03*
%TO.P,REF\u002A\u002A,116*%
X52400000Y-274600000D03*
%TO.P,REF\u002A\u002A,118*%
X52400000Y-275400000D03*
%TO.P,REF\u002A\u002A,120*%
X52400000Y-276200000D03*
%TO.P,REF\u002A\u002A,122*%
X52400000Y-277000000D03*
%TO.P,REF\u002A\u002A,124*%
X52400000Y-277800000D03*
%TO.P,REF\u002A\u002A,126*%
X52400000Y-278600000D03*
%TO.P,REF\u002A\u002A,128*%
X52400000Y-279400000D03*
%TO.P,REF\u002A\u002A,130*%
X52400000Y-280200000D03*
%TO.P,REF\u002A\u002A,132*%
X52400000Y-281000000D03*
%TO.P,REF\u002A\u002A,134*%
X52400000Y-281800000D03*
%TO.P,REF\u002A\u002A,136*%
X52400000Y-282600000D03*
%TO.P,REF\u002A\u002A,138*%
X52400000Y-283400000D03*
%TO.P,REF\u002A\u002A,140*%
X52400000Y-284200000D03*
%TD*%
D13*
%TO.N,*%
X154960000Y-265190000D03*
X248660000Y-120690000D03*
X252760000Y-118290000D03*
X155060000Y-169690000D03*
X204960000Y-213890000D03*
X300560000Y-70490000D03*
X153260000Y-166190000D03*
X204960000Y-70490000D03*
X105260000Y-168590000D03*
X200860000Y-120690000D03*
X202760000Y-265190000D03*
X105260000Y-216290000D03*
X296660000Y-261790000D03*
X105460000Y-213990000D03*
X248560000Y-168590000D03*
X296460000Y-264090000D03*
X109360000Y-166090000D03*
X154960000Y-73990000D03*
X201060000Y-118390000D03*
X72500000Y-310900000D03*
X155060000Y-121790000D03*
X105460000Y-166190000D03*
X105460000Y-261790000D03*
X248860000Y-118390000D03*
X298360000Y-265090000D03*
X105260000Y-72990000D03*
X153260000Y-118390000D03*
X153060000Y-264190000D03*
X200760000Y-264190000D03*
X105260000Y-120690000D03*
X201060000Y-213990000D03*
X248860000Y-213990000D03*
X152960000Y-72890000D03*
X107260000Y-121790000D03*
X107260000Y-169590000D03*
X153260000Y-70590000D03*
X109360000Y-70490000D03*
X202860000Y-169590000D03*
X201060000Y-70590000D03*
X300560000Y-261690000D03*
X296660000Y-166190000D03*
X248560000Y-72890000D03*
X153260000Y-261790000D03*
X298360000Y-169690000D03*
X107260000Y-74090000D03*
X300560000Y-213890000D03*
X248860000Y-166190000D03*
X157160000Y-261690000D03*
X109360000Y-261690000D03*
X107160000Y-265190000D03*
X202760000Y-121790000D03*
X296360000Y-216290000D03*
X250560000Y-265190000D03*
X252760000Y-261690000D03*
X248560000Y-216390000D03*
X200760000Y-216290000D03*
X152960000Y-216290000D03*
X200760000Y-168490000D03*
X72600000Y-322000000D03*
X204960000Y-118290000D03*
X153060000Y-120790000D03*
X296660000Y-70590000D03*
X155060000Y-217390000D03*
X296360000Y-72890000D03*
X300560000Y-118290000D03*
X157160000Y-213890000D03*
X157160000Y-70490000D03*
X153260000Y-213990000D03*
X298360000Y-73990000D03*
X202860000Y-73990000D03*
X105160000Y-264090000D03*
X109360000Y-118290000D03*
X152860000Y-168590000D03*
X300560000Y-166090000D03*
X250660000Y-73990000D03*
X105460000Y-118390000D03*
X252760000Y-70490000D03*
X252760000Y-213890000D03*
X298560000Y-217390000D03*
X107160000Y-217490000D03*
X157160000Y-166090000D03*
X157160000Y-118290000D03*
X296660000Y-118390000D03*
X248860000Y-70590000D03*
X204960000Y-261690000D03*
X109360000Y-213890000D03*
X250560000Y-217490000D03*
X201060000Y-261790000D03*
X202860000Y-217390000D03*
X252760000Y-166090000D03*
X105460000Y-70590000D03*
X248660000Y-264190000D03*
X204960000Y-166090000D03*
X296360000Y-168590000D03*
X248860000Y-261790000D03*
X250560000Y-169590000D03*
X201060000Y-166190000D03*
X200760000Y-72990000D03*
X296360000Y-120690000D03*
X298360000Y-121890000D03*
X296660000Y-213990000D03*
X250660000Y-121790000D03*
X59300000Y-290200000D03*
X67000000Y-244800000D03*
X72000000Y-237300000D03*
X61300000Y-234800000D03*
X72000000Y-227300000D03*
X67100000Y-224800000D03*
X61300000Y-269900000D03*
X67000000Y-264800000D03*
X61400000Y-219800000D03*
X61400000Y-263800000D03*
X72000000Y-232300000D03*
X61400000Y-213800000D03*
X72000000Y-242300000D03*
X72000000Y-262300000D03*
X72000000Y-252300000D03*
X67000000Y-269800000D03*
X55400000Y-280200000D03*
X67000000Y-249800000D03*
X67000000Y-219800000D03*
X72000000Y-272300000D03*
X61400000Y-238800000D03*
X61400000Y-214800000D03*
X61000000Y-225200000D03*
X61200000Y-249900000D03*
X54500000Y-281000000D03*
X67000000Y-259800000D03*
X61300000Y-248900000D03*
X61300000Y-230000000D03*
X67000000Y-274800000D03*
X61400000Y-244900000D03*
X61300000Y-258800000D03*
X61300000Y-268800000D03*
X61300000Y-275000000D03*
X67000000Y-229800000D03*
X72000000Y-267300000D03*
X61300000Y-273900000D03*
X61300000Y-259800000D03*
X67000000Y-239800000D03*
X59300000Y-288000000D03*
X72000000Y-217300000D03*
X67000000Y-254800000D03*
X61000000Y-224200000D03*
X61400000Y-239800000D03*
X61400000Y-228800000D03*
X61400000Y-243800000D03*
X67000000Y-214800000D03*
X72000000Y-247300000D03*
X61400000Y-253800000D03*
X61400000Y-254900000D03*
X61400000Y-233800000D03*
X72000000Y-222300000D03*
X61500000Y-265000000D03*
X61400000Y-218800000D03*
X72000000Y-257300000D03*
X67000000Y-234800000D03*
%TD*%
D14*
%TO.N,*%
X298360000Y-265090000D02*
X297910000Y-265090000D01*
X281700000Y-281300000D02*
X73500000Y-281300000D01*
X297910000Y-265090000D02*
X281700000Y-281300000D01*
X73500000Y-281300000D02*
X67000000Y-274800000D01*
D15*
X71900000Y-273900000D02*
X77700000Y-279700000D01*
X61300000Y-273900000D02*
X71900000Y-273900000D01*
X77700000Y-279700000D02*
X280850000Y-279700000D01*
X280850000Y-279700000D02*
X296460000Y-264090000D01*
D14*
X249810000Y-265190000D02*
X237300000Y-277700000D01*
X250560000Y-265190000D02*
X249810000Y-265190000D01*
X237300000Y-277700000D02*
X77400000Y-277700000D01*
X77400000Y-277700000D02*
X72000000Y-272300000D01*
D15*
X72800000Y-271400000D02*
X75875000Y-274475000D01*
D14*
X238175000Y-274475000D02*
X248560000Y-264090000D01*
D15*
X75875000Y-274475000D02*
X238175000Y-274475000D01*
X76300000Y-269800000D02*
X79600000Y-273100000D01*
X79600000Y-273100000D02*
X194850000Y-273100000D01*
X67000000Y-269800000D02*
X76300000Y-269800000D01*
X194850000Y-273100000D02*
X202760000Y-265190000D01*
D14*
X163060000Y-271990000D02*
X125300000Y-271990000D01*
X125300000Y-271990000D02*
X124560000Y-271990000D01*
D15*
X61300000Y-268800000D02*
X76600000Y-268800000D01*
X76600000Y-268800000D02*
X79790000Y-271990000D01*
X79790000Y-271990000D02*
X125300000Y-271990000D01*
D14*
X150850000Y-269300000D02*
X78700000Y-269300000D01*
X76700000Y-267300000D02*
X72000000Y-267300000D01*
X154960000Y-265190000D02*
X150850000Y-269300000D01*
X78700000Y-269300000D02*
X76700000Y-267300000D01*
D15*
X52400000Y-241800000D02*
X55600000Y-241800000D01*
X55600000Y-241800000D02*
X56800000Y-243000000D01*
X56800000Y-243000000D02*
X56800000Y-247700000D01*
X61500000Y-266300000D02*
X61500000Y-266400000D01*
X56800000Y-247700000D02*
X57600000Y-248500000D01*
X60600000Y-263500000D02*
X60600000Y-265400000D01*
X57600000Y-248500000D02*
X57600000Y-250800000D01*
X61500000Y-266400000D02*
X78700000Y-266400000D01*
X57600000Y-250800000D02*
X58600000Y-251800000D01*
X78700000Y-266400000D02*
X80600000Y-268300000D01*
X58600000Y-251800000D02*
X58600000Y-261500000D01*
X58600000Y-261500000D02*
X60600000Y-263500000D01*
X60600000Y-265400000D02*
X61500000Y-266300000D01*
X80600000Y-268300000D02*
X148950000Y-268300000D01*
X148950000Y-268300000D02*
X153060000Y-264190000D01*
X67000000Y-264800000D02*
X79400000Y-264800000D01*
X79400000Y-264800000D02*
X80790000Y-266190000D01*
X61400000Y-263800000D02*
X102750000Y-263800000D01*
X102750000Y-263800000D02*
X103450000Y-264500000D01*
D14*
X277475000Y-238875000D02*
X277460000Y-238890000D01*
X298360000Y-217990000D02*
X277475000Y-238875000D01*
D15*
X72000000Y-262300000D02*
X90300000Y-262300000D01*
X270400000Y-245900000D02*
X277425000Y-238875000D01*
X90300000Y-262300000D02*
X106700000Y-245900000D01*
X106700000Y-245900000D02*
X270400000Y-245900000D01*
X277425000Y-238875000D02*
X277475000Y-238875000D01*
X296360000Y-216290000D02*
X268550000Y-244100000D01*
X57800000Y-242200000D02*
X55800000Y-240200000D01*
X268550000Y-244100000D02*
X107300000Y-244100000D01*
X107300000Y-244100000D02*
X90400000Y-261000000D01*
X58500000Y-248000000D02*
X57800000Y-247300000D01*
X90400000Y-261000000D02*
X61300000Y-261000000D01*
X61300000Y-261000000D02*
X59700000Y-259400000D01*
X59700000Y-259400000D02*
X59700000Y-255600000D01*
X59700000Y-255600000D02*
X59500000Y-255400000D01*
X57800000Y-247300000D02*
X57800000Y-242200000D01*
X59500000Y-255400000D02*
X59500000Y-251500000D01*
X59500000Y-251500000D02*
X58400000Y-250400000D01*
X58400000Y-250400000D02*
X58500000Y-250500000D01*
X58500000Y-250500000D02*
X58500000Y-248000000D01*
X55800000Y-240200000D02*
X52400000Y-240200000D01*
D14*
X250660000Y-217390000D02*
X234960000Y-233090000D01*
X233110000Y-233090000D02*
X230000000Y-236200000D01*
X234960000Y-233090000D02*
X233110000Y-233090000D01*
X230000000Y-236200000D02*
X114100000Y-236200000D01*
X114100000Y-236200000D02*
X90500000Y-259800000D01*
X90500000Y-259800000D02*
X67000000Y-259800000D01*
D15*
X85300000Y-258800000D02*
X110100000Y-234000000D01*
X61300000Y-258800000D02*
X85300000Y-258800000D01*
X230850000Y-234000000D02*
X234775000Y-230075000D01*
D14*
X233760000Y-231090000D02*
X234775000Y-230075000D01*
X234775000Y-230075000D02*
X248560000Y-216290000D01*
D15*
X110100000Y-234000000D02*
X230850000Y-234000000D01*
X82000000Y-257300000D02*
X113025000Y-226275000D01*
X202860000Y-217390000D02*
X193975000Y-226275000D01*
X72000000Y-257300000D02*
X82000000Y-257300000D01*
X113025000Y-226275000D02*
X193975000Y-226275000D01*
X52400000Y-238600000D02*
X55600000Y-238600000D01*
X57900000Y-241100000D02*
X58700000Y-241900000D01*
X60600000Y-251500000D02*
X60600000Y-255100000D01*
X60600000Y-255100000D02*
X62000000Y-256500000D01*
X114300000Y-222800000D02*
X123170000Y-222800000D01*
X55600000Y-238600000D02*
X57900000Y-240900000D01*
X57900000Y-240900000D02*
X57900000Y-241100000D01*
X58700000Y-241900000D02*
X58700000Y-246700000D01*
X58700000Y-246700000D02*
X59400000Y-247400000D01*
X59400000Y-250300000D02*
X60600000Y-251500000D01*
X73400000Y-256500000D02*
X73500000Y-256400000D01*
X59400000Y-247400000D02*
X59400000Y-250300000D01*
X62000000Y-256500000D02*
X73400000Y-256500000D01*
X123170000Y-222800000D02*
X124560000Y-224190000D01*
X73500000Y-256400000D02*
X80700000Y-256400000D01*
X80700000Y-256400000D02*
X114300000Y-222800000D01*
D14*
X154960000Y-217390000D02*
X150260000Y-222090000D01*
X150260000Y-222090000D02*
X149790000Y-222090000D01*
X111800000Y-219000000D02*
X76000000Y-254800000D01*
X76000000Y-254800000D02*
X67000000Y-254800000D01*
X149790000Y-222090000D02*
X146900000Y-219200000D01*
X146900000Y-219200000D02*
X112000000Y-219200000D01*
X112000000Y-219200000D02*
X111800000Y-219000000D01*
D15*
X75200000Y-253800000D02*
X111100000Y-217900000D01*
X111100000Y-217900000D02*
X146970000Y-217900000D01*
X61400000Y-253800000D02*
X75200000Y-253800000D01*
X146970000Y-217900000D02*
X149260000Y-220190000D01*
X107260000Y-217490000D02*
X106360000Y-218390000D01*
X103800000Y-223900000D02*
X75400000Y-252300000D01*
X75400000Y-252300000D02*
X72000000Y-252300000D01*
X106360000Y-218390000D02*
X104410000Y-218390000D01*
X104410000Y-218390000D02*
X103800000Y-219000000D01*
X103800000Y-219000000D02*
X103800000Y-223900000D01*
X52400000Y-237000000D02*
X56000000Y-237000000D01*
X103050000Y-223150000D02*
X103050000Y-217100000D01*
X56000000Y-237000000D02*
X58900000Y-239900000D01*
X58900000Y-239900000D02*
X58900000Y-240900000D01*
X58900000Y-240900000D02*
X59600000Y-241600000D01*
X59600000Y-241600000D02*
X59600000Y-245700000D01*
X103050000Y-217100000D02*
X103760000Y-216390000D01*
X59600000Y-245700000D02*
X60500000Y-246600000D01*
X74900000Y-251300000D02*
X103050000Y-223150000D01*
X60500000Y-246600000D02*
X60500000Y-250200000D01*
X60500000Y-250200000D02*
X61600000Y-251300000D01*
X61600000Y-251300000D02*
X74900000Y-251300000D01*
X103760000Y-216390000D02*
X105260000Y-216390000D01*
D14*
X298360000Y-170190000D02*
X281775000Y-186775000D01*
D15*
X67000000Y-249800000D02*
X75200000Y-249800000D01*
X74900000Y-250100000D02*
X94100000Y-230900000D01*
X94100000Y-230900000D02*
X94100000Y-194100000D01*
X94100000Y-194100000D02*
X98800000Y-189400000D01*
X279150000Y-189400000D02*
X281775000Y-186775000D01*
X98800000Y-189400000D02*
X279150000Y-189400000D01*
X67900000Y-249000000D02*
X67100000Y-248200000D01*
X276560000Y-188290000D02*
X98410000Y-188290000D01*
X98410000Y-188290000D02*
X93200000Y-193500000D01*
X93200000Y-230600000D02*
X74800000Y-249000000D01*
X74800000Y-249000000D02*
X67900000Y-249000000D01*
X93200000Y-193500000D02*
X93200000Y-230600000D01*
X67100000Y-248200000D02*
X62000000Y-248200000D01*
X62000000Y-248200000D02*
X61300000Y-248900000D01*
X72000000Y-247300000D02*
X75100000Y-247300000D01*
X75100000Y-247300000D02*
X92100000Y-230300000D01*
X92100000Y-230300000D02*
X92100000Y-230000000D01*
X92100000Y-230000000D02*
X92300000Y-229800000D01*
X92300000Y-229800000D02*
X92300000Y-185290000D01*
D14*
X248560000Y-168490000D02*
X233760000Y-183290000D01*
X91400000Y-230200000D02*
X75700000Y-245900000D01*
X233760000Y-183290000D02*
X91210000Y-183290000D01*
X91210000Y-183290000D02*
X89600000Y-184900000D01*
X89600000Y-184900000D02*
X89600000Y-188200000D01*
X89600000Y-188200000D02*
X91300000Y-189900000D01*
X91300000Y-189900000D02*
X91300000Y-230100000D01*
X91300000Y-230100000D02*
X91400000Y-230200000D01*
X75700000Y-245900000D02*
X73500000Y-245900000D01*
D15*
X84600000Y-179800000D02*
X85800000Y-178600000D01*
X84600000Y-184500000D02*
X84600000Y-179800000D01*
X75500000Y-244800000D02*
X90600000Y-229700000D01*
X193850000Y-178600000D02*
X195175000Y-177275000D01*
X90600000Y-229700000D02*
X90600000Y-190500000D01*
X67000000Y-244800000D02*
X75500000Y-244800000D01*
X85800000Y-178600000D02*
X193850000Y-178600000D01*
X90600000Y-190500000D02*
X84600000Y-184500000D01*
X202860000Y-169590000D02*
X195175000Y-177275000D01*
X124560000Y-176390000D02*
X85210000Y-176390000D01*
X75500000Y-243800000D02*
X61400000Y-243800000D01*
X85210000Y-176390000D02*
X83500000Y-178100000D01*
X83500000Y-178100000D02*
X83500000Y-185500000D01*
X83500000Y-185500000D02*
X83900000Y-185500000D01*
X83900000Y-185500000D02*
X89700000Y-191300000D01*
X89700000Y-191300000D02*
X89700000Y-229600000D01*
X89700000Y-229600000D02*
X75500000Y-243800000D01*
X82900000Y-174000000D02*
X83900000Y-173000000D01*
X75400000Y-242300000D02*
X88200000Y-229500000D01*
X72000000Y-242300000D02*
X75400000Y-242300000D01*
X82900000Y-185900000D02*
X82900000Y-174000000D01*
X88200000Y-229500000D02*
X88200000Y-191200000D01*
X88200000Y-191200000D02*
X82900000Y-185900000D01*
X83900000Y-173000000D02*
X85800000Y-174900000D01*
X85800000Y-174900000D02*
X97150000Y-174900000D01*
X152960000Y-168690000D02*
X149260000Y-172390000D01*
X149260000Y-172390000D02*
X148770000Y-171900000D01*
X148770000Y-171900000D02*
X83700000Y-171900000D01*
X82300000Y-186300000D02*
X87500000Y-191500000D01*
X65500000Y-241200000D02*
X65200000Y-240900000D01*
X83700000Y-171900000D02*
X82300000Y-173300000D01*
X82300000Y-173300000D02*
X82300000Y-186300000D01*
X87500000Y-191500000D02*
X87500000Y-229300000D01*
X65200000Y-240900000D02*
X61400000Y-240900000D01*
X87500000Y-229300000D02*
X75200000Y-241600000D01*
X60600000Y-240100000D02*
X60600000Y-238000000D01*
X75200000Y-241600000D02*
X72600000Y-241600000D01*
X72600000Y-241600000D02*
X72200000Y-241200000D01*
X72200000Y-241200000D02*
X65500000Y-241200000D01*
X61400000Y-240900000D02*
X60600000Y-240100000D01*
X56400000Y-233800000D02*
X52400000Y-233800000D01*
X60600000Y-238000000D02*
X56400000Y-233800000D01*
X67000000Y-239800000D02*
X71000000Y-239800000D01*
X71000000Y-239800000D02*
X71700000Y-240500000D01*
X81300000Y-172400000D02*
X82800000Y-170900000D01*
X71700000Y-240500000D02*
X74800000Y-240500000D01*
X104060000Y-170590000D02*
X106360000Y-170590000D01*
X74800000Y-240500000D02*
X86600000Y-228700000D01*
X86600000Y-228700000D02*
X86600000Y-192300000D01*
X86600000Y-192300000D02*
X81300000Y-187000000D01*
X81300000Y-187000000D02*
X81300000Y-172400000D01*
X82800000Y-170900000D02*
X103750000Y-170900000D01*
X103750000Y-170900000D02*
X104060000Y-170590000D01*
X106360000Y-170590000D02*
X107260000Y-169690000D01*
X105260000Y-168590000D02*
X103760000Y-168590000D01*
X85800000Y-192800000D02*
X85800000Y-228400000D01*
X103760000Y-168590000D02*
X103050000Y-169300000D01*
X82100000Y-169300000D02*
X80400000Y-171000000D01*
X103050000Y-169300000D02*
X82100000Y-169300000D01*
X80400000Y-171400000D02*
X80300000Y-171500000D01*
X80400000Y-171000000D02*
X80400000Y-171400000D01*
X80300000Y-171500000D02*
X80300000Y-187300000D01*
X80300000Y-187300000D02*
X85800000Y-192800000D01*
X85800000Y-228400000D02*
X74500000Y-239700000D01*
X74500000Y-239700000D02*
X72100000Y-239700000D01*
X72100000Y-239700000D02*
X70700000Y-238300000D01*
X70700000Y-238300000D02*
X61900000Y-238300000D01*
X61900000Y-238300000D02*
X61400000Y-238800000D01*
X72000000Y-237300000D02*
X75700000Y-237300000D01*
X79700000Y-145290000D02*
X81700000Y-143290000D01*
X75700000Y-237300000D02*
X84900000Y-228100000D01*
X84900000Y-228100000D02*
X84900000Y-193400000D01*
X84700000Y-192800000D02*
X79700000Y-187800000D01*
X84900000Y-193400000D02*
X84700000Y-193200000D01*
X84700000Y-193200000D02*
X84700000Y-192800000D01*
X79700000Y-187800000D02*
X79700000Y-145290000D01*
D14*
X277460000Y-143290000D02*
X81700000Y-143290000D01*
X81700000Y-143290000D02*
X81590000Y-143290000D01*
D15*
X296360000Y-120690000D02*
X276560000Y-140490000D01*
X276560000Y-140490000D02*
X77810000Y-140490000D01*
X72200000Y-235900000D02*
X60900000Y-235900000D01*
X78400000Y-174000000D02*
X78400000Y-184800000D01*
X77810000Y-140490000D02*
X76900000Y-141400000D01*
X76900000Y-141400000D02*
X76900000Y-172500000D01*
X57200000Y-232200000D02*
X52400000Y-232200000D01*
X78400000Y-184800000D02*
X76000000Y-187200000D01*
X83900000Y-227900000D02*
X75700000Y-236100000D01*
X76900000Y-172500000D02*
X78400000Y-174000000D01*
X76000000Y-187200000D02*
X75900000Y-187200000D01*
X75900000Y-187200000D02*
X83900000Y-195200000D01*
X83900000Y-195200000D02*
X83900000Y-227900000D01*
X75700000Y-236100000D02*
X72400000Y-236100000D01*
X72400000Y-236100000D02*
X72200000Y-235900000D01*
X60900000Y-235900000D02*
X57200000Y-232200000D01*
D14*
X82800000Y-137490000D02*
X82590000Y-137490000D01*
D15*
X82800000Y-195900000D02*
X74300000Y-187400000D01*
X75800000Y-138100000D02*
X76410000Y-137490000D01*
D14*
X234960000Y-137490000D02*
X82800000Y-137490000D01*
D15*
X76410000Y-137490000D02*
X82800000Y-137490000D01*
X67000000Y-234800000D02*
X74000000Y-234800000D01*
X74000000Y-234800000D02*
X82800000Y-226000000D01*
X74300000Y-187400000D02*
X77400000Y-184300000D01*
X77400000Y-174200000D02*
X74800000Y-171600000D01*
X82800000Y-226000000D02*
X82800000Y-195900000D01*
X74800000Y-171600000D02*
X75800000Y-170600000D01*
X77400000Y-184300000D02*
X77400000Y-174200000D01*
X75800000Y-170600000D02*
X75800000Y-138100000D01*
D14*
X248560000Y-120690000D02*
X233760000Y-135490000D01*
X233760000Y-135490000D02*
X75410000Y-135490000D01*
X75410000Y-135490000D02*
X73700000Y-137200000D01*
X73300000Y-187900000D02*
X82000000Y-196600000D01*
X73700000Y-137200000D02*
X73700000Y-172200000D01*
X73700000Y-172200000D02*
X76400000Y-174900000D01*
X82000000Y-196600000D02*
X82000000Y-225800000D01*
X76400000Y-174900000D02*
X76400000Y-183800000D01*
X73200000Y-233800000D02*
X61400000Y-233800000D01*
X76400000Y-183800000D02*
X73300000Y-186900000D01*
X73300000Y-186900000D02*
X73300000Y-187900000D01*
X82000000Y-225800000D02*
X73600000Y-234200000D01*
X73600000Y-234200000D02*
X73200000Y-233800000D01*
D15*
X202860000Y-121790000D02*
X192860000Y-131790000D01*
X88990000Y-131790000D02*
X87600000Y-130400000D01*
X73500000Y-174100000D02*
X73800000Y-174100000D01*
X87600000Y-130400000D02*
X78600000Y-130400000D01*
X78600000Y-130400000D02*
X78400000Y-130600000D01*
X72200000Y-188700000D02*
X80700000Y-197200000D01*
X192860000Y-131790000D02*
X88990000Y-131790000D01*
X78400000Y-130600000D02*
X77900000Y-130600000D01*
X75200000Y-174800000D02*
X75600000Y-175200000D01*
X77900000Y-130600000D02*
X73000000Y-135500000D01*
X73000000Y-135500000D02*
X73000000Y-173600000D01*
X75600000Y-183300000D02*
X72800000Y-186100000D01*
X74100000Y-232300000D02*
X72000000Y-232300000D01*
X73000000Y-173600000D02*
X73500000Y-174100000D01*
X73800000Y-174100000D02*
X74500000Y-174800000D01*
X74500000Y-174800000D02*
X75200000Y-174800000D01*
X75600000Y-175200000D02*
X75600000Y-183300000D01*
X72800000Y-186100000D02*
X72200000Y-186100000D01*
X80700000Y-225700000D02*
X74100000Y-232300000D01*
X72200000Y-186100000D02*
X72200000Y-188700000D01*
X80700000Y-197200000D02*
X80700000Y-225700000D01*
X52400000Y-230600000D02*
X60500000Y-230600000D01*
X60500000Y-230600000D02*
X60700000Y-230800000D01*
X74800000Y-182200000D02*
X74800000Y-175900000D01*
X73400000Y-175300000D02*
X73300000Y-175200000D01*
X60700000Y-230800000D02*
X71000000Y-230800000D01*
X71000000Y-230800000D02*
X71600000Y-230200000D01*
X71600000Y-230200000D02*
X75100000Y-230200000D01*
X75100000Y-230200000D02*
X80100000Y-225200000D01*
X80100000Y-225200000D02*
X80100000Y-197700000D01*
X73300000Y-175200000D02*
X71800000Y-175200000D01*
X80100000Y-197700000D02*
X71500000Y-189100000D01*
X94050000Y-128800000D02*
X94260000Y-128590000D01*
X71500000Y-189100000D02*
X71200000Y-189100000D01*
X71200000Y-189100000D02*
X71200000Y-185800000D01*
X73600000Y-175300000D02*
X73400000Y-175300000D01*
X71200000Y-185800000D02*
X74800000Y-182200000D01*
X74800000Y-175900000D02*
X74600000Y-175700000D01*
X74600000Y-175700000D02*
X74000000Y-175700000D01*
X74000000Y-175700000D02*
X73600000Y-175300000D01*
X71800000Y-175200000D02*
X71800000Y-134700000D01*
X71800000Y-134700000D02*
X77700000Y-128800000D01*
X77700000Y-128800000D02*
X94050000Y-128800000D01*
X94260000Y-128590000D02*
X124560000Y-128590000D01*
X152960000Y-120890000D02*
X149260000Y-124590000D01*
X73000000Y-177100000D02*
X73300000Y-177400000D01*
X70900000Y-184300000D02*
X69700000Y-184300000D01*
X78300000Y-223600000D02*
X73100000Y-228800000D01*
X69700000Y-176700000D02*
X70100000Y-177100000D01*
X73100000Y-228800000D02*
X61400000Y-228800000D01*
X81490000Y-124590000D02*
X79400000Y-122500000D01*
X70100000Y-177100000D02*
X73000000Y-177100000D01*
X69700000Y-132000000D02*
X69700000Y-176700000D01*
X79200000Y-122500000D02*
X69700000Y-132000000D01*
X69400000Y-190100000D02*
X78000000Y-198700000D01*
X78000000Y-198700000D02*
X78000000Y-223300000D01*
X73300000Y-177400000D02*
X73300000Y-181900000D01*
X79400000Y-122500000D02*
X79200000Y-122500000D01*
X149260000Y-124590000D02*
X81490000Y-124590000D01*
X73300000Y-181900000D02*
X70900000Y-184300000D01*
X69700000Y-184300000D02*
X69400000Y-184600000D01*
X69400000Y-184600000D02*
X69400000Y-190100000D01*
X78000000Y-223300000D02*
X78300000Y-223600000D01*
D14*
X154960000Y-121790000D02*
X150260000Y-126490000D01*
X70900000Y-132600000D02*
X70900000Y-175600000D01*
X150260000Y-126490000D02*
X80990000Y-126490000D01*
X79300000Y-224400000D02*
X74300000Y-229400000D01*
X80990000Y-126490000D02*
X79200000Y-124700000D01*
X70500000Y-185600000D02*
X70500000Y-189900000D01*
X79200000Y-124700000D02*
X71300000Y-132600000D01*
X71300000Y-132600000D02*
X70900000Y-132600000D01*
X70900000Y-175600000D02*
X71400000Y-176100000D01*
X71400000Y-176100000D02*
X73500000Y-176100000D01*
X73500000Y-176100000D02*
X73900000Y-176500000D01*
X67400000Y-229400000D02*
X67000000Y-229800000D01*
X73900000Y-176500000D02*
X73900000Y-182200000D01*
X73900000Y-182200000D02*
X70500000Y-185600000D01*
X74300000Y-229400000D02*
X67400000Y-229400000D01*
X70500000Y-189900000D02*
X79300000Y-198700000D01*
X79300000Y-198700000D02*
X79300000Y-224400000D01*
D15*
X107260000Y-121890000D02*
X106360000Y-122790000D01*
X106360000Y-122790000D02*
X98790000Y-122790000D01*
X98790000Y-122790000D02*
X96200000Y-120200000D01*
X96200000Y-120200000D02*
X78800000Y-120200000D01*
X78800000Y-120200000D02*
X68700000Y-130300000D01*
X71700000Y-177900000D02*
X72300000Y-178500000D01*
X68700000Y-130300000D02*
X68700000Y-177200000D01*
X68700000Y-177200000D02*
X69400000Y-177900000D01*
X69400000Y-177900000D02*
X71700000Y-177900000D01*
X72300000Y-178500000D02*
X72300000Y-181800000D01*
X72300000Y-181800000D02*
X71100000Y-183000000D01*
X71100000Y-183000000D02*
X68500000Y-183000000D01*
X68500000Y-183000000D02*
X68500000Y-191300000D01*
X68500000Y-191300000D02*
X77100000Y-199900000D01*
X77100000Y-199900000D02*
X77100000Y-223200000D01*
X77100000Y-223200000D02*
X73000000Y-227300000D01*
X73000000Y-227300000D02*
X72000000Y-227300000D01*
X52400000Y-229000000D02*
X57900000Y-229000000D01*
X57900000Y-229000000D02*
X60700000Y-226200000D01*
X68000000Y-193800000D02*
X68000000Y-193000000D01*
X60700000Y-226200000D02*
X72400000Y-226200000D01*
X76300000Y-202100000D02*
X68000000Y-193800000D01*
X72400000Y-226200000D02*
X76300000Y-222300000D01*
X67600000Y-192600000D02*
X67600000Y-128700000D01*
X76300000Y-222300000D02*
X76300000Y-202100000D01*
X68000000Y-193000000D02*
X67600000Y-192600000D01*
X83000000Y-113300000D02*
X91200000Y-113300000D01*
X67600000Y-128700000D02*
X83000000Y-113300000D01*
X91200000Y-113300000D02*
X98800000Y-120900000D01*
X98800000Y-120900000D02*
X98910000Y-120790000D01*
X98910000Y-120790000D02*
X105260000Y-120790000D01*
X75500000Y-222200000D02*
X75500000Y-203400000D01*
X72900000Y-224800000D02*
X75500000Y-222200000D01*
X75500000Y-203400000D02*
X66700000Y-194600000D01*
X67100000Y-224800000D02*
X72900000Y-224800000D01*
X66700000Y-194600000D02*
X66700000Y-117420000D01*
X66700000Y-117420000D02*
X88630000Y-95490000D01*
X61000000Y-224200000D02*
X71500000Y-224200000D01*
X74900000Y-220800000D02*
X74900000Y-204300000D01*
X71500000Y-224200000D02*
X74900000Y-220800000D01*
X65900000Y-195300000D02*
X65900000Y-101600000D01*
X74900000Y-204300000D02*
X65900000Y-195300000D01*
X65900000Y-101600000D02*
X77500000Y-90000000D01*
X77500000Y-90000000D02*
X77500000Y-89800000D01*
X77500000Y-89800000D02*
X279450000Y-89800000D01*
X279450000Y-89800000D02*
X296360000Y-72890000D01*
D14*
X72000000Y-222300000D02*
X72500000Y-222300000D01*
X236050000Y-88600000D02*
X250660000Y-73990000D01*
X72500000Y-222300000D02*
X72500000Y-222100000D01*
X72500000Y-222100000D02*
X74400000Y-220200000D01*
X74400000Y-220200000D02*
X74400000Y-205000000D01*
X64900000Y-195500000D02*
X64900000Y-100700000D01*
X74400000Y-205000000D02*
X64900000Y-195500000D01*
X64900000Y-100700000D02*
X77000000Y-88600000D01*
X77000000Y-88600000D02*
X236050000Y-88600000D01*
D15*
X52400000Y-227400000D02*
X55900000Y-227400000D01*
X61900000Y-221400000D02*
X70700000Y-221400000D01*
X79500000Y-84900000D02*
X236550000Y-84900000D01*
X70700000Y-221400000D02*
X73900000Y-218200000D01*
X73900000Y-207600000D02*
X63900000Y-197600000D01*
X73900000Y-218200000D02*
X73900000Y-207600000D01*
X55900000Y-227400000D02*
X61900000Y-221400000D01*
X63900000Y-197600000D02*
X63900000Y-100500000D01*
X63900000Y-100500000D02*
X79500000Y-84900000D01*
X236550000Y-84900000D02*
X239375000Y-82075000D01*
X73400000Y-208800000D02*
X62400000Y-197800000D01*
X71500000Y-219800000D02*
X73400000Y-217900000D01*
X73400000Y-217900000D02*
X73400000Y-208800000D01*
X62400000Y-99200000D02*
X78800000Y-82800000D01*
X62400000Y-197800000D02*
X62400000Y-99200000D01*
X67000000Y-219800000D02*
X71500000Y-219800000D01*
X78800000Y-82800000D02*
X194050000Y-82800000D01*
X194050000Y-82800000D02*
X202860000Y-73990000D01*
D14*
X200760000Y-72990000D02*
X170860000Y-72990000D01*
X61200000Y-97700000D02*
X61200000Y-200000000D01*
X163060000Y-80790000D02*
X77810000Y-80790000D01*
X61200000Y-200000000D02*
X72800000Y-211600000D01*
X170860000Y-72990000D02*
X163060000Y-80790000D01*
X77810000Y-80790000D02*
X66700000Y-91900000D01*
X71800000Y-218800000D02*
X61400000Y-218800000D01*
X66700000Y-91900000D02*
X66700000Y-92200000D01*
X66700000Y-92200000D02*
X61200000Y-97700000D01*
X72800000Y-211600000D02*
X72800000Y-217800000D01*
X72800000Y-217800000D02*
X71800000Y-218800000D01*
D15*
X72000000Y-217300000D02*
X72000000Y-214000000D01*
X72000000Y-214000000D02*
X59900000Y-201900000D01*
X59900000Y-201900000D02*
X59900000Y-90100000D01*
X59900000Y-90100000D02*
X70000000Y-80000000D01*
X70000000Y-80000000D02*
X96450000Y-80000000D01*
X96450000Y-80000000D02*
X97760000Y-78690000D01*
D14*
X152960000Y-72890000D02*
X111110000Y-72890000D01*
X111110000Y-72890000D02*
X108000000Y-76000000D01*
X55200000Y-225800000D02*
X52400000Y-225800000D01*
X58600000Y-76000000D02*
X58600000Y-204600000D01*
X108000000Y-76000000D02*
X58600000Y-76000000D01*
X58600000Y-204600000D02*
X69000000Y-215000000D01*
X59000000Y-216000000D02*
X58000000Y-217000000D01*
X68000000Y-216000000D02*
X59000000Y-216000000D01*
X58000000Y-217000000D02*
X58000000Y-218000000D01*
X58000000Y-218000000D02*
X56000000Y-220000000D01*
X56000000Y-220000000D02*
X56000000Y-225000000D01*
X69000000Y-215000000D02*
X68000000Y-216000000D01*
X56000000Y-225000000D02*
X55200000Y-225800000D01*
X239375000Y-82075000D02*
X248560000Y-72890000D01*
D15*
X57000000Y-208000000D02*
X57000000Y-77000000D01*
X67000000Y-214800000D02*
X63800000Y-214800000D01*
X57000000Y-77000000D02*
X60000000Y-74000000D01*
X63800000Y-214800000D02*
X57000000Y-208000000D01*
X60000000Y-74000000D02*
X107170000Y-74000000D01*
X107170000Y-74000000D02*
X107260000Y-74090000D01*
X59010000Y-72990000D02*
X56000000Y-76000000D01*
X105260000Y-72990000D02*
X59010000Y-72990000D01*
X56000000Y-76000000D02*
X56000000Y-208400000D01*
X56000000Y-208400000D02*
X61400000Y-213800000D01*
X123000000Y-51000000D02*
X105000000Y-69000000D01*
X301000000Y-51000000D02*
X123000000Y-51000000D01*
X334990000Y-83515000D02*
X333515000Y-83515000D01*
X105000000Y-69000000D02*
X105000000Y-70000000D01*
X333515000Y-83515000D02*
X301000000Y-51000000D01*
X105000000Y-70000000D02*
X105460000Y-70460000D01*
X105460000Y-70460000D02*
X105460000Y-70590000D01*
X300680000Y-261790000D02*
X330480000Y-291590000D01*
X81675000Y-314285000D02*
X79647500Y-316312500D01*
X330480000Y-299400000D02*
X329630000Y-300250000D01*
X329630000Y-300250000D02*
X329630000Y-301400000D01*
X79647500Y-316312500D02*
X74235000Y-310900000D01*
X330480000Y-291590000D02*
X330480000Y-299400000D01*
X90675000Y-313000000D02*
X83775000Y-306100000D01*
X329630000Y-301400000D02*
X318030000Y-313000000D01*
X318030000Y-313000000D02*
X90675000Y-313000000D01*
X74235000Y-310900000D02*
X72500000Y-310900000D01*
X83775000Y-306100000D02*
X81675000Y-308200000D01*
X81675000Y-308200000D02*
X81675000Y-314285000D01*
X301780000Y-71690000D02*
X301780000Y-82390000D01*
D14*
X170860000Y-168590000D02*
X163060000Y-176390000D01*
D15*
X79447500Y-320447500D02*
X79447500Y-326112500D01*
X300680000Y-118390000D02*
X301780000Y-119490000D01*
D14*
X234960000Y-185290000D02*
X92300000Y-185290000D01*
X200760000Y-264190000D02*
X170860000Y-264190000D01*
X150260000Y-174290000D02*
X154960000Y-169590000D01*
X157280000Y-118390000D02*
X201080000Y-118390000D01*
X200760000Y-168590000D02*
X170860000Y-168590000D01*
D15*
X106780000Y-103690000D02*
X105580000Y-104890000D01*
X276560000Y-188290000D02*
X296360000Y-168490000D01*
D14*
X205080000Y-213990000D02*
X248880000Y-213990000D01*
D15*
X107260000Y-265290000D02*
X106360000Y-266190000D01*
D14*
X97760000Y-174290000D02*
X97150000Y-174900000D01*
D15*
X280480000Y-199290000D02*
X106780000Y-199290000D01*
X105580000Y-152690000D02*
X105580000Y-166290000D01*
D14*
X163060000Y-128590000D02*
X124560000Y-128590000D01*
X163060000Y-224190000D02*
X124560000Y-224190000D01*
X109480000Y-70590000D02*
X153280000Y-70590000D01*
D15*
X103760000Y-264190000D02*
X105260000Y-264190000D01*
X88960000Y-316600000D02*
X318800000Y-316600000D01*
D14*
X150260000Y-78690000D02*
X154960000Y-73990000D01*
D15*
X106360000Y-266190000D02*
X80790000Y-266190000D01*
D14*
X109480000Y-213990000D02*
X153280000Y-213990000D01*
X277460000Y-95490000D02*
X88630000Y-95490000D01*
X205080000Y-70590000D02*
X248880000Y-70590000D01*
X298360000Y-122390000D02*
X277460000Y-143290000D01*
X298360000Y-73990000D02*
X298360000Y-74590000D01*
X97760000Y-174290000D02*
X150260000Y-174290000D01*
X252880000Y-166190000D02*
X296680000Y-166190000D01*
D15*
X340565000Y-89090000D02*
X334990000Y-83515000D01*
X301780000Y-119490000D02*
X301780000Y-130190000D01*
X300680000Y-166190000D02*
X301780000Y-167290000D01*
D14*
X205080000Y-261790000D02*
X248880000Y-261790000D01*
X109480000Y-118390000D02*
X153280000Y-118390000D01*
X170860000Y-264190000D02*
X163060000Y-271990000D01*
D15*
X301780000Y-215090000D02*
X301780000Y-225790000D01*
D14*
X298360000Y-121790000D02*
X298360000Y-122390000D01*
D15*
X301780000Y-167290000D02*
X301780000Y-177990000D01*
D14*
X157280000Y-261790000D02*
X201080000Y-261790000D01*
X170860000Y-216390000D02*
X163060000Y-224190000D01*
D15*
X301780000Y-130190000D02*
X280480000Y-151490000D01*
D14*
X157280000Y-213990000D02*
X201080000Y-213990000D01*
D15*
X106780000Y-247090000D02*
X105580000Y-248290000D01*
D14*
X109480000Y-261790000D02*
X153280000Y-261790000D01*
X298360000Y-169590000D02*
X298360000Y-170190000D01*
X250660000Y-169590000D02*
X234960000Y-185290000D01*
D15*
X301780000Y-177990000D02*
X280480000Y-199290000D01*
D14*
X163060000Y-176390000D02*
X124560000Y-176390000D01*
X109480000Y-166190000D02*
X153280000Y-166190000D01*
D15*
X318800000Y-316600000D02*
X340565000Y-294835000D01*
X300680000Y-70590000D02*
X301780000Y-71690000D01*
X280480000Y-151490000D02*
X106780000Y-151490000D01*
X301780000Y-225790000D02*
X280480000Y-247090000D01*
D14*
X170860000Y-120790000D02*
X163060000Y-128590000D01*
X298360000Y-217390000D02*
X298360000Y-217990000D01*
X157280000Y-70590000D02*
X201080000Y-70590000D01*
D15*
X105580000Y-200490000D02*
X105580000Y-214090000D01*
D14*
X252880000Y-70590000D02*
X296680000Y-70590000D01*
X205080000Y-118390000D02*
X248880000Y-118390000D01*
D15*
X124000000Y-310600000D02*
X125700000Y-310600000D01*
D14*
X250660000Y-121790000D02*
X234960000Y-137490000D01*
D15*
X280480000Y-103690000D02*
X106780000Y-103690000D01*
D14*
X252880000Y-213990000D02*
X296680000Y-213990000D01*
X252880000Y-261790000D02*
X296680000Y-261790000D01*
X205080000Y-166190000D02*
X248880000Y-166190000D01*
D15*
X72600000Y-313600000D02*
X79447500Y-320447500D01*
X340565000Y-294835000D02*
X340565000Y-89090000D01*
D14*
X252880000Y-118390000D02*
X296680000Y-118390000D01*
D15*
X105580000Y-248290000D02*
X105580000Y-261890000D01*
X301780000Y-82390000D02*
X280480000Y-103690000D01*
X106780000Y-151490000D02*
X105580000Y-152690000D01*
X300680000Y-213990000D02*
X301780000Y-215090000D01*
D14*
X298360000Y-74590000D02*
X277460000Y-95490000D01*
X97760000Y-78690000D02*
X150260000Y-78690000D01*
X200760000Y-120790000D02*
X170860000Y-120790000D01*
D15*
X103450000Y-264500000D02*
X103760000Y-264190000D01*
X106780000Y-199290000D02*
X105580000Y-200490000D01*
X149260000Y-220190000D02*
X152960000Y-216490000D01*
X79447500Y-326112500D02*
X88960000Y-316600000D01*
X105580000Y-104890000D02*
X105580000Y-118490000D01*
D14*
X200760000Y-216390000D02*
X170860000Y-216390000D01*
D15*
X280480000Y-247090000D02*
X106780000Y-247090000D01*
D14*
X157280000Y-166190000D02*
X201080000Y-166190000D01*
D15*
X72600000Y-322000000D02*
X72600000Y-313600000D01*
X73500000Y-245900000D02*
X73400000Y-246000000D01*
X52400000Y-243400000D02*
X54900000Y-243400000D01*
X61700000Y-252000000D02*
X60000000Y-250300000D01*
X61000000Y-225200000D02*
X61200000Y-225200000D01*
X56700000Y-267500000D02*
X61500000Y-272300000D01*
X59300000Y-286700000D02*
X55400000Y-282800000D01*
X71700000Y-262000000D02*
X72000000Y-262300000D01*
X56100000Y-234600000D02*
X52400000Y-234600000D01*
X59000000Y-260400000D02*
X60600000Y-262000000D01*
X54950000Y-282950000D02*
X54500000Y-283400000D01*
X62100000Y-269800000D02*
X67100000Y-269800000D01*
X67100000Y-249800000D02*
X61700000Y-249800000D01*
X61500000Y-269800000D02*
X61600000Y-269800000D01*
X59900000Y-251400000D02*
X58900000Y-250400000D01*
D14*
X56700000Y-287600000D02*
X56700000Y-285400000D01*
D15*
X61700000Y-269800000D02*
X61300000Y-269900000D01*
X62100000Y-242300000D02*
X60100000Y-240300000D01*
X61300000Y-275000000D02*
X61400000Y-274800000D01*
X54900000Y-243400000D02*
X55800000Y-244300000D01*
X67100000Y-269800000D02*
X61700000Y-269800000D01*
D14*
X54900000Y-284200000D02*
X52400000Y-284200000D01*
D15*
X59000000Y-229800000D02*
X61600000Y-227200000D01*
X62100000Y-227200000D02*
X62200000Y-227300000D01*
X52400000Y-229800000D02*
X59000000Y-229800000D01*
X61600000Y-227200000D02*
X62100000Y-227200000D01*
X62200000Y-227300000D02*
X72000000Y-227300000D01*
X52400000Y-244200000D02*
X54700000Y-244200000D01*
X59000000Y-251600000D02*
X59000000Y-260400000D01*
X61400000Y-254900000D02*
X61500000Y-254800000D01*
X67100000Y-244800000D02*
X61700000Y-244800000D01*
D14*
X59300000Y-288000000D02*
X59300000Y-287300000D01*
D15*
X61600000Y-271500000D02*
X72700000Y-271500000D01*
X67100000Y-239800000D02*
X61600000Y-239800000D01*
X52400000Y-281000000D02*
X54500000Y-281000000D01*
X61500000Y-249800000D02*
X61600000Y-249800000D01*
X60200000Y-241600000D02*
X59300000Y-240700000D01*
X56000000Y-236100000D02*
X54500000Y-236100000D01*
X62100000Y-224800000D02*
X67100000Y-224800000D01*
X61200000Y-249900000D02*
X61500000Y-249800000D01*
X60000000Y-263600000D02*
X60000000Y-265800000D01*
X60700000Y-245300000D02*
X60700000Y-241500000D01*
X58200000Y-261800000D02*
X60000000Y-263600000D01*
X62000000Y-252000000D02*
X61700000Y-252000000D01*
X56200000Y-247800000D02*
X57100000Y-248700000D01*
X62000000Y-257300000D02*
X59900000Y-255200000D01*
X62100000Y-259800000D02*
X67100000Y-259800000D01*
X61700000Y-244800000D02*
X61400000Y-244900000D01*
X61300000Y-259800000D02*
X61600000Y-259800000D01*
X58900000Y-250400000D02*
X58900000Y-247800000D01*
X52400000Y-241000000D02*
X55800000Y-241000000D01*
X56200000Y-232900000D02*
X56100000Y-233000000D01*
X57100000Y-251000000D02*
X58200000Y-252100000D01*
X58900000Y-247800000D02*
X58200000Y-247100000D01*
X55900000Y-237800000D02*
X52400000Y-237800000D01*
X66500000Y-232300000D02*
X72000000Y-232300000D01*
X65600000Y-231400000D02*
X66500000Y-232300000D01*
X52400000Y-231400000D02*
X65600000Y-231400000D01*
X59000000Y-223700000D02*
X59000000Y-217900000D01*
X55800000Y-244300000D02*
X55800000Y-248200000D01*
X59200000Y-241800000D02*
X58500000Y-241100000D01*
X54500000Y-236100000D02*
X54400000Y-236200000D01*
X72000000Y-242300000D02*
X62100000Y-242300000D01*
X62100000Y-254800000D02*
X67100000Y-254800000D01*
X59200000Y-245900000D02*
X59200000Y-241800000D01*
X72000000Y-247300000D02*
X61900000Y-247300000D01*
X59900000Y-255200000D02*
X59900000Y-251400000D01*
X58000000Y-250600000D02*
X59000000Y-251600000D01*
D14*
X59300000Y-290200000D02*
X56700000Y-287600000D01*
D15*
X61400000Y-274800000D02*
X61600000Y-274800000D01*
X61500000Y-265000000D02*
X61600000Y-264800000D01*
X60700000Y-241500000D02*
X59700000Y-240500000D01*
X58200000Y-247100000D02*
X58200000Y-242000000D01*
X59000000Y-217900000D02*
X59800000Y-217100000D01*
X55900000Y-228200000D02*
X52400000Y-228200000D01*
X56100000Y-226600000D02*
X59000000Y-223700000D01*
X58000000Y-248250000D02*
X58000000Y-250600000D01*
X62100000Y-239800000D02*
X67100000Y-239800000D01*
X59800000Y-217100000D02*
X63900000Y-217100000D01*
X52400000Y-280200000D02*
X55500000Y-280200000D01*
X55400000Y-282500000D02*
X54950000Y-282950000D01*
X67100000Y-264800000D02*
X61500000Y-265000000D01*
X72000000Y-257300000D02*
X62000000Y-257300000D01*
X61800000Y-222300000D02*
X55900000Y-228200000D01*
X60000000Y-246700000D02*
X59200000Y-245900000D01*
X54400000Y-236200000D02*
X52400000Y-236200000D01*
X61500000Y-218800000D02*
X61400000Y-218800000D01*
X67100000Y-219800000D02*
X61400000Y-219800000D01*
X62100000Y-219800000D02*
X67100000Y-219800000D01*
X55200000Y-244700000D02*
X55200000Y-248200000D01*
X59700000Y-239100000D02*
X56000000Y-235400000D01*
X61400000Y-244900000D02*
X61500000Y-244800000D01*
X61500000Y-238800000D02*
X61400000Y-238800000D01*
X61900000Y-247300000D02*
X60200000Y-245600000D01*
X61500000Y-254800000D02*
X61600000Y-254800000D01*
X61700000Y-254800000D02*
X61400000Y-254900000D01*
X60100000Y-240300000D02*
X60100000Y-238600000D01*
X60100000Y-238600000D02*
X56100000Y-234600000D01*
X61500000Y-244800000D02*
X61600000Y-244800000D01*
X57100000Y-248700000D02*
X57100000Y-251000000D01*
X55800000Y-241000000D02*
X57300000Y-242500000D01*
D14*
X55600000Y-284900000D02*
X54900000Y-284200000D01*
D15*
X54500000Y-281000000D02*
X54400000Y-281000000D01*
X61500000Y-272300000D02*
X72000000Y-272300000D01*
X56300000Y-249300000D02*
X56300000Y-251500000D01*
X57800000Y-267700000D02*
X61600000Y-271500000D01*
X59700000Y-240500000D02*
X59700000Y-239100000D01*
X57300000Y-242500000D02*
X57300000Y-247550000D01*
X72000000Y-237300000D02*
X60600000Y-237300000D01*
X57800000Y-252300000D02*
X57800000Y-267700000D01*
X67100000Y-259800000D02*
X61300000Y-259800000D01*
X73400000Y-246000000D02*
X61400000Y-246000000D01*
X60200000Y-245600000D02*
X60200000Y-241600000D01*
X55200000Y-248200000D02*
X56300000Y-249300000D01*
X60000000Y-250300000D02*
X60000000Y-246700000D01*
X61400000Y-248800000D02*
X61300000Y-248900000D01*
X61500000Y-248800000D02*
X61400000Y-248800000D01*
X61200000Y-225200000D02*
X61600000Y-224800000D01*
X56700000Y-251200000D02*
X57800000Y-252300000D01*
X56700000Y-251900000D02*
X56700000Y-267500000D01*
X54700000Y-244200000D02*
X55200000Y-244700000D01*
X61300000Y-269900000D02*
X61500000Y-269800000D01*
X61700000Y-249800000D02*
X61200000Y-249900000D01*
X67100000Y-254800000D02*
X61700000Y-254800000D01*
X55100000Y-242600000D02*
X56200000Y-243700000D01*
X67100000Y-229800000D02*
X61600000Y-229800000D01*
X62100000Y-229800000D02*
X67100000Y-229800000D01*
X61500000Y-273800000D02*
X61400000Y-273800000D01*
X55400000Y-282800000D02*
X55400000Y-282500000D01*
X56000000Y-235400000D02*
X52400000Y-235400000D01*
X56100000Y-233000000D02*
X52400000Y-233000000D01*
X72000000Y-217300000D02*
X64100000Y-217300000D01*
X60000000Y-265800000D02*
X61500000Y-267300000D01*
X55600000Y-239400000D02*
X52400000Y-239400000D01*
X56300000Y-251500000D02*
X56700000Y-251900000D01*
X56200000Y-243700000D02*
X56200000Y-247800000D01*
X59300000Y-287300000D02*
X59300000Y-286700000D01*
X59300000Y-239400000D02*
X56000000Y-236100000D01*
X62100000Y-274800000D02*
X67100000Y-274800000D01*
X52400000Y-226600000D02*
X56100000Y-226600000D01*
X64100000Y-217300000D02*
X63900000Y-217100000D01*
X59300000Y-240700000D02*
X59300000Y-239400000D01*
X72000000Y-222300000D02*
X61800000Y-222300000D01*
X61600000Y-224800000D02*
X62100000Y-224800000D01*
X54500000Y-283400000D02*
X52400000Y-283400000D01*
X58200000Y-242000000D02*
X55600000Y-239400000D01*
X62300000Y-252300000D02*
X62000000Y-252000000D01*
X67100000Y-274800000D02*
X61800000Y-274800000D01*
X58500000Y-240400000D02*
X55900000Y-237800000D01*
X62100000Y-244800000D02*
X67100000Y-244800000D01*
X61500000Y-213800000D02*
X61400000Y-213800000D01*
X67100000Y-214800000D02*
X61400000Y-214800000D01*
X62100000Y-214800000D02*
X67100000Y-214800000D01*
X60600000Y-262000000D02*
X71700000Y-262000000D01*
X61500000Y-267300000D02*
X72000000Y-267300000D01*
X55800000Y-248200000D02*
X56700000Y-249100000D01*
X57300000Y-247550000D02*
X58000000Y-248250000D01*
X55400000Y-280200000D02*
X55400000Y-282500000D01*
D14*
X55600000Y-284900000D02*
X56200000Y-284900000D01*
D15*
X52400000Y-242600000D02*
X55100000Y-242600000D01*
D14*
X56200000Y-284900000D02*
X56700000Y-285400000D01*
D15*
X58500000Y-241100000D02*
X58500000Y-240400000D01*
X61800000Y-274800000D02*
X61300000Y-275000000D01*
X60600000Y-237300000D02*
X56200000Y-232900000D01*
X72000000Y-252300000D02*
X62300000Y-252300000D01*
X58200000Y-252100000D02*
X58200000Y-261800000D01*
X72700000Y-271500000D02*
X72800000Y-271400000D01*
X61400000Y-273800000D02*
X61300000Y-273900000D01*
X61400000Y-246000000D02*
X60700000Y-245300000D01*
X54900000Y-243400000D02*
X55700000Y-244200000D01*
X62100000Y-234800000D02*
X67100000Y-234800000D01*
X67100000Y-234800000D02*
X61600000Y-234800000D01*
X56700000Y-249100000D02*
X56700000Y-251200000D01*
%TD*%
M02*
