%TF.GenerationSoftware,KiCad,Pcbnew,8.0.2-1*%
%TF.CreationDate,2024-06-03T22:05:27-04:00*%
%TF.ProjectId,Untitled,556e7469-746c-4656-942e-6b696361645f,rev?*%
%TF.SameCoordinates,Original*%
%TF.FileFunction,Drillmap*%
%TF.FilePolarity,Positive*%
%FSLAX45Y45*%
G04 Gerber Fmt 4.5, Leading zero omitted, Abs format (unit mm)*
G04 Created by KiCad (PCBNEW 8.0.2-1) date 2024-06-03 22:05:27*
%MOMM*%
%LPD*%
G01*
G04 APERTURE LIST*
%ADD10C,0.100000*%
%ADD11C,0.120000*%
%ADD12C,0.200000*%
%ADD13C,0.110000*%
%ADD14C,0.150000*%
G04 APERTURE END LIST*
D10*
X5500000Y-22477500D02*
X5500000Y-7477500D01*
X5500000Y-33000000D02*
X5500000Y-28522500D01*
X7160000Y-30000000D02*
G75*
G02*
X6840000Y-30000000I-160000J0D01*
G01*
X6840000Y-30000000D02*
G75*
G02*
X7160000Y-30000000I160000J0D01*
G01*
X5500000Y-3000000D02*
X5500000Y-7477500D01*
X7160000Y-18000000D02*
G75*
G02*
X6840000Y-18000000I-160000J0D01*
G01*
X6840000Y-18000000D02*
G75*
G02*
X7160000Y-18000000I160000J0D01*
G01*
X35000000Y-3000000D02*
X35000000Y-33000000D01*
X35000000Y-3000000D02*
X5500000Y-3000000D01*
X35000000Y-33000000D02*
X5500000Y-33000000D01*
X7160000Y-6000000D02*
G75*
G02*
X6840000Y-6000000I-160000J0D01*
G01*
X6840000Y-6000000D02*
G75*
G02*
X7160000Y-6000000I160000J0D01*
G01*
D11*
X5000000Y-22477500D02*
X5000000Y-25140500D01*
X5000000Y-25140500D02*
X5520000Y-25140500D01*
X5000000Y-25380500D02*
X5000000Y-28522500D01*
X5000000Y-28522500D02*
X5500000Y-28522500D01*
X5500000Y-22477500D02*
X5000000Y-22477500D01*
X5520000Y-25380500D02*
X5000000Y-25380500D01*
X5520000Y-25140500D02*
G75*
G02*
X5520000Y-25380500I0J-120000D01*
G01*
D12*
D10*
X5430000Y-28080000D02*
X5470000Y-28120000D01*
X5470000Y-28080000D02*
X5430000Y-28120000D01*
X5520000Y-28000000D02*
X5560000Y-28040000D01*
X5560000Y-28000000D02*
X5520000Y-28040000D01*
X5910000Y-28780000D02*
X5950000Y-28820000D01*
X5950000Y-28780000D02*
X5910000Y-28820000D01*
X5910000Y-29000000D02*
X5950000Y-29040000D01*
X5950000Y-29000000D02*
X5910000Y-29040000D01*
X6080000Y-22400000D02*
X6120000Y-22440000D01*
X6120000Y-22400000D02*
X6080000Y-22440000D01*
X6080000Y-22500000D02*
X6120000Y-22540000D01*
X6120000Y-22500000D02*
X6080000Y-22540000D01*
X6100000Y-24970000D02*
X6140000Y-25010000D01*
X6140000Y-24970000D02*
X6100000Y-25010000D01*
X6110000Y-22980000D02*
X6150000Y-23020000D01*
X6150000Y-22980000D02*
X6110000Y-23020000D01*
X6110000Y-23460000D02*
X6150000Y-23500000D01*
X6150000Y-23460000D02*
X6110000Y-23500000D01*
X6110000Y-24870000D02*
X6150000Y-24910000D01*
X6150000Y-24870000D02*
X6110000Y-24910000D01*
X6110000Y-25860000D02*
X6150000Y-25900000D01*
X6150000Y-25860000D02*
X6110000Y-25900000D01*
X6110000Y-25960000D02*
X6150000Y-26000000D01*
X6150000Y-25960000D02*
X6110000Y-26000000D01*
X6110000Y-26860000D02*
X6150000Y-26900000D01*
X6150000Y-26860000D02*
X6110000Y-26900000D01*
X6110000Y-26970000D02*
X6150000Y-27010000D01*
X6150000Y-26970000D02*
X6110000Y-27010000D01*
X6110000Y-27370000D02*
X6150000Y-27410000D01*
X6150000Y-27370000D02*
X6110000Y-27410000D01*
X6110000Y-27480000D02*
X6150000Y-27520000D01*
X6150000Y-27480000D02*
X6110000Y-27520000D01*
X6120000Y-21360000D02*
X6160000Y-21400000D01*
X6160000Y-21360000D02*
X6120000Y-21400000D01*
X6120000Y-21460000D02*
X6160000Y-21500000D01*
X6160000Y-21460000D02*
X6120000Y-21500000D01*
X6120000Y-21860000D02*
X6160000Y-21900000D01*
X6160000Y-21860000D02*
X6120000Y-21900000D01*
X6120000Y-21960000D02*
X6160000Y-22000000D01*
X6160000Y-21960000D02*
X6120000Y-22000000D01*
X6120000Y-22860000D02*
X6160000Y-22900000D01*
X6160000Y-22860000D02*
X6120000Y-22900000D01*
X6120000Y-23360000D02*
X6160000Y-23400000D01*
X6160000Y-23360000D02*
X6120000Y-23400000D01*
X6120000Y-23860000D02*
X6160000Y-23900000D01*
X6160000Y-23860000D02*
X6120000Y-23900000D01*
X6120000Y-23960000D02*
X6160000Y-24000000D01*
X6160000Y-23960000D02*
X6120000Y-24000000D01*
X6120000Y-24360000D02*
X6160000Y-24400000D01*
X6160000Y-24360000D02*
X6120000Y-24400000D01*
X6120000Y-24470000D02*
X6160000Y-24510000D01*
X6160000Y-24470000D02*
X6120000Y-24510000D01*
X6120000Y-25360000D02*
X6160000Y-25400000D01*
X6160000Y-25360000D02*
X6120000Y-25400000D01*
X6120000Y-25470000D02*
X6160000Y-25510000D01*
X6160000Y-25470000D02*
X6120000Y-25510000D01*
X6120000Y-26360000D02*
X6160000Y-26400000D01*
X6160000Y-26360000D02*
X6120000Y-26400000D01*
X6130000Y-26480000D02*
X6170000Y-26520000D01*
X6170000Y-26480000D02*
X6130000Y-26520000D01*
X6680000Y-21460000D02*
X6720000Y-21500000D01*
X6720000Y-21460000D02*
X6680000Y-21500000D01*
X6680000Y-21960000D02*
X6720000Y-22000000D01*
X6720000Y-21960000D02*
X6680000Y-22000000D01*
X6680000Y-22960000D02*
X6720000Y-23000000D01*
X6720000Y-22960000D02*
X6680000Y-23000000D01*
X6680000Y-23460000D02*
X6720000Y-23500000D01*
X6720000Y-23460000D02*
X6680000Y-23500000D01*
X6680000Y-23960000D02*
X6720000Y-24000000D01*
X6720000Y-23960000D02*
X6680000Y-24000000D01*
X6680000Y-24460000D02*
X6720000Y-24500000D01*
X6720000Y-24460000D02*
X6680000Y-24500000D01*
X6680000Y-24960000D02*
X6720000Y-25000000D01*
X6720000Y-24960000D02*
X6680000Y-25000000D01*
X6680000Y-25460000D02*
X6720000Y-25500000D01*
X6720000Y-25460000D02*
X6680000Y-25500000D01*
X6680000Y-25960000D02*
X6720000Y-26000000D01*
X6720000Y-25960000D02*
X6680000Y-26000000D01*
X6680000Y-26460000D02*
X6720000Y-26500000D01*
X6720000Y-26460000D02*
X6680000Y-26500000D01*
X6680000Y-26960000D02*
X6720000Y-27000000D01*
X6720000Y-26960000D02*
X6680000Y-27000000D01*
X6680000Y-27460000D02*
X6720000Y-27500000D01*
X6720000Y-27460000D02*
X6680000Y-27500000D01*
X6690000Y-22460000D02*
X6730000Y-22500000D01*
X6730000Y-22460000D02*
X6690000Y-22500000D01*
X7180000Y-21710000D02*
X7220000Y-21750000D01*
X7220000Y-21710000D02*
X7180000Y-21750000D01*
X7180000Y-22210000D02*
X7220000Y-22250000D01*
X7220000Y-22210000D02*
X7180000Y-22250000D01*
X7180000Y-22710000D02*
X7220000Y-22750000D01*
X7220000Y-22710000D02*
X7180000Y-22750000D01*
X7180000Y-23210000D02*
X7220000Y-23250000D01*
X7220000Y-23210000D02*
X7180000Y-23250000D01*
X7180000Y-23710000D02*
X7220000Y-23750000D01*
X7220000Y-23710000D02*
X7180000Y-23750000D01*
X7180000Y-24210000D02*
X7220000Y-24250000D01*
X7220000Y-24210000D02*
X7180000Y-24250000D01*
X7180000Y-24710000D02*
X7220000Y-24750000D01*
X7220000Y-24710000D02*
X7180000Y-24750000D01*
X7180000Y-25210000D02*
X7220000Y-25250000D01*
X7220000Y-25210000D02*
X7180000Y-25250000D01*
X7180000Y-25710000D02*
X7220000Y-25750000D01*
X7220000Y-25710000D02*
X7180000Y-25750000D01*
X7180000Y-26210000D02*
X7220000Y-26250000D01*
X7220000Y-26210000D02*
X7180000Y-26250000D01*
X7180000Y-26710000D02*
X7220000Y-26750000D01*
X7220000Y-26710000D02*
X7180000Y-26750000D01*
X7180000Y-27210000D02*
X7220000Y-27250000D01*
X7220000Y-27210000D02*
X7180000Y-27250000D01*
X7230000Y-31070000D02*
X7270000Y-31110000D01*
X7270000Y-31070000D02*
X7230000Y-31110000D01*
X7240000Y-32180000D02*
X7280000Y-32220000D01*
X7280000Y-32180000D02*
X7240000Y-32220000D01*
X10496000Y-26389000D02*
X10536000Y-26429000D01*
X10536000Y-26389000D02*
X10496000Y-26429000D01*
X10506000Y-7279000D02*
X10546000Y-7319000D01*
X10546000Y-7279000D02*
X10506000Y-7319000D01*
X10506000Y-12049000D02*
X10546000Y-12089000D01*
X10546000Y-12049000D02*
X10506000Y-12089000D01*
X10506000Y-16839000D02*
X10546000Y-16879000D01*
X10546000Y-16839000D02*
X10506000Y-16879000D01*
X10506000Y-21609000D02*
X10546000Y-21649000D01*
X10546000Y-21609000D02*
X10506000Y-21649000D01*
X10526000Y-7039000D02*
X10566000Y-7079000D01*
X10566000Y-7039000D02*
X10526000Y-7079000D01*
X10526000Y-11819000D02*
X10566000Y-11859000D01*
X10566000Y-11819000D02*
X10526000Y-11859000D01*
X10526000Y-16599000D02*
X10566000Y-16639000D01*
X10566000Y-16599000D02*
X10526000Y-16639000D01*
X10526000Y-21379000D02*
X10566000Y-21419000D01*
X10566000Y-21379000D02*
X10526000Y-21419000D01*
X10526000Y-26159000D02*
X10566000Y-26199000D01*
X10566000Y-26159000D02*
X10526000Y-26199000D01*
X10696000Y-21729000D02*
X10736000Y-21769000D01*
X10736000Y-21729000D02*
X10696000Y-21769000D01*
X10696000Y-26499000D02*
X10736000Y-26539000D01*
X10736000Y-26499000D02*
X10696000Y-26539000D01*
X10706000Y-7389000D02*
X10746000Y-7429000D01*
X10746000Y-7389000D02*
X10706000Y-7429000D01*
X10706000Y-12159000D02*
X10746000Y-12199000D01*
X10746000Y-12159000D02*
X10706000Y-12199000D01*
X10706000Y-16939000D02*
X10746000Y-16979000D01*
X10746000Y-16939000D02*
X10706000Y-16979000D01*
X10916000Y-7029000D02*
X10956000Y-7069000D01*
X10956000Y-7029000D02*
X10916000Y-7069000D01*
X10916000Y-11809000D02*
X10956000Y-11849000D01*
X10956000Y-11809000D02*
X10916000Y-11849000D01*
X10916000Y-16589000D02*
X10956000Y-16629000D01*
X10956000Y-16589000D02*
X10916000Y-16629000D01*
X10916000Y-21369000D02*
X10956000Y-21409000D01*
X10956000Y-21369000D02*
X10916000Y-21409000D01*
X10916000Y-26149000D02*
X10956000Y-26189000D01*
X10956000Y-26149000D02*
X10916000Y-26189000D01*
X15266000Y-16839000D02*
X15306000Y-16879000D01*
X15306000Y-16839000D02*
X15266000Y-16879000D01*
X15276000Y-7269000D02*
X15316000Y-7309000D01*
X15316000Y-7269000D02*
X15276000Y-7309000D01*
X15276000Y-21609000D02*
X15316000Y-21649000D01*
X15316000Y-21609000D02*
X15276000Y-21649000D01*
X15286000Y-12059000D02*
X15326000Y-12099000D01*
X15326000Y-12059000D02*
X15286000Y-12099000D01*
X15286000Y-26399000D02*
X15326000Y-26439000D01*
X15326000Y-26399000D02*
X15286000Y-26439000D01*
X15306000Y-7039000D02*
X15346000Y-7079000D01*
X15346000Y-7039000D02*
X15306000Y-7079000D01*
X15306000Y-11819000D02*
X15346000Y-11859000D01*
X15346000Y-11819000D02*
X15306000Y-11859000D01*
X15306000Y-16599000D02*
X15346000Y-16639000D01*
X15346000Y-16599000D02*
X15306000Y-16639000D01*
X15306000Y-21379000D02*
X15346000Y-21419000D01*
X15346000Y-21379000D02*
X15306000Y-21419000D01*
X15306000Y-26159000D02*
X15346000Y-26199000D01*
X15346000Y-26159000D02*
X15306000Y-26199000D01*
X15476000Y-7379000D02*
X15516000Y-7419000D01*
X15516000Y-7379000D02*
X15476000Y-7419000D01*
X15476000Y-26499000D02*
X15516000Y-26539000D01*
X15516000Y-26499000D02*
X15476000Y-26539000D01*
X15486000Y-12159000D02*
X15526000Y-12199000D01*
X15526000Y-12159000D02*
X15486000Y-12199000D01*
X15486000Y-16949000D02*
X15526000Y-16989000D01*
X15526000Y-16949000D02*
X15486000Y-16989000D01*
X15486000Y-21719000D02*
X15526000Y-21759000D01*
X15526000Y-21719000D02*
X15486000Y-21759000D01*
X15696000Y-7029000D02*
X15736000Y-7069000D01*
X15736000Y-7029000D02*
X15696000Y-7069000D01*
X15696000Y-11809000D02*
X15736000Y-11849000D01*
X15736000Y-11809000D02*
X15696000Y-11849000D01*
X15696000Y-16589000D02*
X15736000Y-16629000D01*
X15736000Y-16589000D02*
X15696000Y-16629000D01*
X15696000Y-21369000D02*
X15736000Y-21409000D01*
X15736000Y-21369000D02*
X15696000Y-21409000D01*
X15696000Y-26149000D02*
X15736000Y-26189000D01*
X15736000Y-26149000D02*
X15696000Y-26189000D01*
X20056000Y-7279000D02*
X20096000Y-7319000D01*
X20096000Y-7279000D02*
X20056000Y-7319000D01*
X20056000Y-16829000D02*
X20096000Y-16869000D01*
X20096000Y-16829000D02*
X20056000Y-16869000D01*
X20056000Y-21609000D02*
X20096000Y-21649000D01*
X20096000Y-21609000D02*
X20056000Y-21649000D01*
X20056000Y-26399000D02*
X20096000Y-26439000D01*
X20096000Y-26399000D02*
X20056000Y-26439000D01*
X20066000Y-12049000D02*
X20106000Y-12089000D01*
X20106000Y-12049000D02*
X20066000Y-12089000D01*
X20086000Y-7039000D02*
X20126000Y-7079000D01*
X20126000Y-7039000D02*
X20086000Y-7079000D01*
X20086000Y-11819000D02*
X20126000Y-11859000D01*
X20126000Y-11819000D02*
X20086000Y-11859000D01*
X20086000Y-16599000D02*
X20126000Y-16639000D01*
X20126000Y-16599000D02*
X20086000Y-16639000D01*
X20086000Y-21379000D02*
X20126000Y-21419000D01*
X20126000Y-21379000D02*
X20086000Y-21419000D01*
X20086000Y-26159000D02*
X20126000Y-26199000D01*
X20126000Y-26159000D02*
X20086000Y-26199000D01*
X20256000Y-12159000D02*
X20296000Y-12199000D01*
X20296000Y-12159000D02*
X20256000Y-12199000D01*
X20256000Y-26499000D02*
X20296000Y-26539000D01*
X20296000Y-26499000D02*
X20256000Y-26539000D01*
X20266000Y-7379000D02*
X20306000Y-7419000D01*
X20306000Y-7379000D02*
X20266000Y-7419000D01*
X20266000Y-16939000D02*
X20306000Y-16979000D01*
X20306000Y-16939000D02*
X20266000Y-16979000D01*
X20266000Y-21719000D02*
X20306000Y-21759000D01*
X20306000Y-21719000D02*
X20266000Y-21759000D01*
X20476000Y-7029000D02*
X20516000Y-7069000D01*
X20516000Y-7029000D02*
X20476000Y-7069000D01*
X20476000Y-11809000D02*
X20516000Y-11849000D01*
X20516000Y-11809000D02*
X20476000Y-11849000D01*
X20476000Y-16589000D02*
X20516000Y-16629000D01*
X20516000Y-16589000D02*
X20476000Y-16629000D01*
X20476000Y-21369000D02*
X20516000Y-21409000D01*
X20516000Y-21369000D02*
X20476000Y-21409000D01*
X20476000Y-26149000D02*
X20516000Y-26189000D01*
X20516000Y-26149000D02*
X20476000Y-26189000D01*
X24836000Y-7269000D02*
X24876000Y-7309000D01*
X24876000Y-7269000D02*
X24836000Y-7309000D01*
X24836000Y-16839000D02*
X24876000Y-16879000D01*
X24876000Y-16839000D02*
X24836000Y-16879000D01*
X24836000Y-21619000D02*
X24876000Y-21659000D01*
X24876000Y-21619000D02*
X24836000Y-21659000D01*
X24846000Y-12049000D02*
X24886000Y-12089000D01*
X24886000Y-12049000D02*
X24846000Y-12089000D01*
X24846000Y-26399000D02*
X24886000Y-26439000D01*
X24886000Y-26399000D02*
X24846000Y-26439000D01*
X24866000Y-7039000D02*
X24906000Y-7079000D01*
X24906000Y-7039000D02*
X24866000Y-7079000D01*
X24866000Y-11819000D02*
X24906000Y-11859000D01*
X24906000Y-11819000D02*
X24866000Y-11859000D01*
X24866000Y-16599000D02*
X24906000Y-16639000D01*
X24906000Y-16599000D02*
X24866000Y-16639000D01*
X24866000Y-21379000D02*
X24906000Y-21419000D01*
X24906000Y-21379000D02*
X24866000Y-21419000D01*
X24866000Y-26159000D02*
X24906000Y-26199000D01*
X24906000Y-26159000D02*
X24866000Y-26199000D01*
X25036000Y-16939000D02*
X25076000Y-16979000D01*
X25076000Y-16939000D02*
X25036000Y-16979000D01*
X25036000Y-21729000D02*
X25076000Y-21769000D01*
X25076000Y-21729000D02*
X25036000Y-21769000D01*
X25036000Y-26499000D02*
X25076000Y-26539000D01*
X25076000Y-26499000D02*
X25036000Y-26539000D01*
X25046000Y-7379000D02*
X25086000Y-7419000D01*
X25086000Y-7379000D02*
X25046000Y-7419000D01*
X25046000Y-12159000D02*
X25086000Y-12199000D01*
X25086000Y-12159000D02*
X25046000Y-12199000D01*
X25256000Y-7029000D02*
X25296000Y-7069000D01*
X25296000Y-7029000D02*
X25256000Y-7069000D01*
X25256000Y-11809000D02*
X25296000Y-11849000D01*
X25296000Y-11809000D02*
X25256000Y-11849000D01*
X25256000Y-16589000D02*
X25296000Y-16629000D01*
X25296000Y-16589000D02*
X25256000Y-16629000D01*
X25256000Y-21369000D02*
X25296000Y-21409000D01*
X25296000Y-21369000D02*
X25256000Y-21409000D01*
X25256000Y-26149000D02*
X25296000Y-26189000D01*
X25296000Y-26149000D02*
X25256000Y-26189000D01*
X29616000Y-7269000D02*
X29656000Y-7309000D01*
X29656000Y-7269000D02*
X29616000Y-7309000D01*
X29616000Y-12049000D02*
X29656000Y-12089000D01*
X29656000Y-12049000D02*
X29616000Y-12089000D01*
X29616000Y-16839000D02*
X29656000Y-16879000D01*
X29656000Y-16839000D02*
X29616000Y-16879000D01*
X29616000Y-21609000D02*
X29656000Y-21649000D01*
X29656000Y-21609000D02*
X29616000Y-21649000D01*
X29626000Y-26389000D02*
X29666000Y-26429000D01*
X29666000Y-26389000D02*
X29626000Y-26429000D01*
X29646000Y-7039000D02*
X29686000Y-7079000D01*
X29686000Y-7039000D02*
X29646000Y-7079000D01*
X29646000Y-11819000D02*
X29686000Y-11859000D01*
X29686000Y-11819000D02*
X29646000Y-11859000D01*
X29646000Y-16599000D02*
X29686000Y-16639000D01*
X29686000Y-16599000D02*
X29646000Y-16639000D01*
X29646000Y-21379000D02*
X29686000Y-21419000D01*
X29686000Y-21379000D02*
X29646000Y-21419000D01*
X29646000Y-26159000D02*
X29686000Y-26199000D01*
X29686000Y-26159000D02*
X29646000Y-26199000D01*
X29816000Y-7379000D02*
X29856000Y-7419000D01*
X29856000Y-7379000D02*
X29816000Y-7419000D01*
X29816000Y-12169000D02*
X29856000Y-12209000D01*
X29856000Y-12169000D02*
X29816000Y-12209000D01*
X29816000Y-16949000D02*
X29856000Y-16989000D01*
X29856000Y-16949000D02*
X29816000Y-16989000D01*
X29816000Y-26489000D02*
X29856000Y-26529000D01*
X29856000Y-26489000D02*
X29816000Y-26529000D01*
X29836000Y-21719000D02*
X29876000Y-21759000D01*
X29876000Y-21719000D02*
X29836000Y-21759000D01*
X30036000Y-7029000D02*
X30076000Y-7069000D01*
X30076000Y-7029000D02*
X30036000Y-7069000D01*
X30036000Y-11809000D02*
X30076000Y-11849000D01*
X30076000Y-11809000D02*
X30036000Y-11849000D01*
X30036000Y-16589000D02*
X30076000Y-16629000D01*
X30076000Y-16589000D02*
X30036000Y-16629000D01*
X30036000Y-21369000D02*
X30076000Y-21409000D01*
X30076000Y-21369000D02*
X30036000Y-21409000D01*
X30036000Y-26149000D02*
X30076000Y-26189000D01*
X30076000Y-26149000D02*
X30036000Y-26189000D01*
D13*
X6355000Y-31740000D02*
G75*
G02*
X6245000Y-31740000I-55000J0D01*
G01*
X6245000Y-31740000D02*
G75*
G02*
X6355000Y-31740000I55000J0D01*
G01*
D14*
X5797500Y-31162500D02*
X5797500Y-31312500D01*
X5722500Y-31237500D02*
X5872500Y-31237500D01*
X5797500Y-32167500D02*
X5797500Y-32317500D01*
X5722500Y-32242500D02*
X5872500Y-32242500D01*
X6802500Y-31162500D02*
X6802500Y-31312500D01*
X6727500Y-31237500D02*
X6877500Y-31237500D01*
X6802500Y-32167500D02*
X6802500Y-32317500D01*
X6727500Y-32242500D02*
X6877500Y-32242500D01*
D12*
X5254777Y-33316484D02*
X5254777Y-33116484D01*
X5254777Y-33116484D02*
X5302396Y-33116484D01*
X5302396Y-33116484D02*
X5330967Y-33126008D01*
X5330967Y-33126008D02*
X5350015Y-33145055D01*
X5350015Y-33145055D02*
X5359539Y-33164103D01*
X5359539Y-33164103D02*
X5369063Y-33202198D01*
X5369063Y-33202198D02*
X5369063Y-33230769D01*
X5369063Y-33230769D02*
X5359539Y-33268865D01*
X5359539Y-33268865D02*
X5350015Y-33287912D01*
X5350015Y-33287912D02*
X5330967Y-33306960D01*
X5330967Y-33306960D02*
X5302396Y-33316484D01*
X5302396Y-33316484D02*
X5254777Y-33316484D01*
X5454777Y-33316484D02*
X5454777Y-33183150D01*
X5454777Y-33221246D02*
X5464301Y-33202198D01*
X5464301Y-33202198D02*
X5473824Y-33192674D01*
X5473824Y-33192674D02*
X5492872Y-33183150D01*
X5492872Y-33183150D02*
X5511920Y-33183150D01*
X5578586Y-33316484D02*
X5578586Y-33183150D01*
X5578586Y-33116484D02*
X5569063Y-33126008D01*
X5569063Y-33126008D02*
X5578586Y-33135531D01*
X5578586Y-33135531D02*
X5588110Y-33126008D01*
X5588110Y-33126008D02*
X5578586Y-33116484D01*
X5578586Y-33116484D02*
X5578586Y-33135531D01*
X5702396Y-33316484D02*
X5683348Y-33306960D01*
X5683348Y-33306960D02*
X5673824Y-33287912D01*
X5673824Y-33287912D02*
X5673824Y-33116484D01*
X5807158Y-33316484D02*
X5788110Y-33306960D01*
X5788110Y-33306960D02*
X5778586Y-33287912D01*
X5778586Y-33287912D02*
X5778586Y-33116484D01*
X6035729Y-33316484D02*
X6035729Y-33116484D01*
X6035729Y-33116484D02*
X6102396Y-33259341D01*
X6102396Y-33259341D02*
X6169062Y-33116484D01*
X6169062Y-33116484D02*
X6169062Y-33316484D01*
X6350015Y-33316484D02*
X6350015Y-33211722D01*
X6350015Y-33211722D02*
X6340491Y-33192674D01*
X6340491Y-33192674D02*
X6321443Y-33183150D01*
X6321443Y-33183150D02*
X6283348Y-33183150D01*
X6283348Y-33183150D02*
X6264301Y-33192674D01*
X6350015Y-33306960D02*
X6330967Y-33316484D01*
X6330967Y-33316484D02*
X6283348Y-33316484D01*
X6283348Y-33316484D02*
X6264301Y-33306960D01*
X6264301Y-33306960D02*
X6254777Y-33287912D01*
X6254777Y-33287912D02*
X6254777Y-33268865D01*
X6254777Y-33268865D02*
X6264301Y-33249817D01*
X6264301Y-33249817D02*
X6283348Y-33240293D01*
X6283348Y-33240293D02*
X6330967Y-33240293D01*
X6330967Y-33240293D02*
X6350015Y-33230769D01*
X6445253Y-33183150D02*
X6445253Y-33383150D01*
X6445253Y-33192674D02*
X6464301Y-33183150D01*
X6464301Y-33183150D02*
X6502396Y-33183150D01*
X6502396Y-33183150D02*
X6521443Y-33192674D01*
X6521443Y-33192674D02*
X6530967Y-33202198D01*
X6530967Y-33202198D02*
X6540491Y-33221246D01*
X6540491Y-33221246D02*
X6540491Y-33278388D01*
X6540491Y-33278388D02*
X6530967Y-33297436D01*
X6530967Y-33297436D02*
X6521443Y-33306960D01*
X6521443Y-33306960D02*
X6502396Y-33316484D01*
X6502396Y-33316484D02*
X6464301Y-33316484D01*
X6464301Y-33316484D02*
X6445253Y-33306960D01*
X6626205Y-33297436D02*
X6635729Y-33306960D01*
X6635729Y-33306960D02*
X6626205Y-33316484D01*
X6626205Y-33316484D02*
X6616682Y-33306960D01*
X6616682Y-33306960D02*
X6626205Y-33297436D01*
X6626205Y-33297436D02*
X6626205Y-33316484D01*
X6626205Y-33192674D02*
X6635729Y-33202198D01*
X6635729Y-33202198D02*
X6626205Y-33211722D01*
X6626205Y-33211722D02*
X6616682Y-33202198D01*
X6616682Y-33202198D02*
X6626205Y-33192674D01*
X6626205Y-33192674D02*
X6626205Y-33211722D01*
D10*
X4954000Y-33625000D02*
X4994000Y-33665000D01*
X4994000Y-33625000D02*
X4954000Y-33665000D01*
D12*
X5292872Y-33536484D02*
X5311920Y-33536484D01*
X5311920Y-33536484D02*
X5330967Y-33546008D01*
X5330967Y-33546008D02*
X5340491Y-33555531D01*
X5340491Y-33555531D02*
X5350015Y-33574579D01*
X5350015Y-33574579D02*
X5359539Y-33612674D01*
X5359539Y-33612674D02*
X5359539Y-33660293D01*
X5359539Y-33660293D02*
X5350015Y-33698389D01*
X5350015Y-33698389D02*
X5340491Y-33717436D01*
X5340491Y-33717436D02*
X5330967Y-33726960D01*
X5330967Y-33726960D02*
X5311920Y-33736484D01*
X5311920Y-33736484D02*
X5292872Y-33736484D01*
X5292872Y-33736484D02*
X5273824Y-33726960D01*
X5273824Y-33726960D02*
X5264301Y-33717436D01*
X5264301Y-33717436D02*
X5254777Y-33698389D01*
X5254777Y-33698389D02*
X5245253Y-33660293D01*
X5245253Y-33660293D02*
X5245253Y-33612674D01*
X5245253Y-33612674D02*
X5254777Y-33574579D01*
X5254777Y-33574579D02*
X5264301Y-33555531D01*
X5264301Y-33555531D02*
X5273824Y-33546008D01*
X5273824Y-33546008D02*
X5292872Y-33536484D01*
X5445253Y-33717436D02*
X5454777Y-33726960D01*
X5454777Y-33726960D02*
X5445253Y-33736484D01*
X5445253Y-33736484D02*
X5435729Y-33726960D01*
X5435729Y-33726960D02*
X5445253Y-33717436D01*
X5445253Y-33717436D02*
X5445253Y-33736484D01*
X5626205Y-33603150D02*
X5626205Y-33736484D01*
X5578586Y-33526960D02*
X5530967Y-33669817D01*
X5530967Y-33669817D02*
X5654777Y-33669817D01*
X5769062Y-33536484D02*
X5788110Y-33536484D01*
X5788110Y-33536484D02*
X5807158Y-33546008D01*
X5807158Y-33546008D02*
X5816682Y-33555531D01*
X5816682Y-33555531D02*
X5826205Y-33574579D01*
X5826205Y-33574579D02*
X5835729Y-33612674D01*
X5835729Y-33612674D02*
X5835729Y-33660293D01*
X5835729Y-33660293D02*
X5826205Y-33698389D01*
X5826205Y-33698389D02*
X5816682Y-33717436D01*
X5816682Y-33717436D02*
X5807158Y-33726960D01*
X5807158Y-33726960D02*
X5788110Y-33736484D01*
X5788110Y-33736484D02*
X5769062Y-33736484D01*
X5769062Y-33736484D02*
X5750015Y-33726960D01*
X5750015Y-33726960D02*
X5740491Y-33717436D01*
X5740491Y-33717436D02*
X5730967Y-33698389D01*
X5730967Y-33698389D02*
X5721443Y-33660293D01*
X5721443Y-33660293D02*
X5721443Y-33612674D01*
X5721443Y-33612674D02*
X5730967Y-33574579D01*
X5730967Y-33574579D02*
X5740491Y-33555531D01*
X5740491Y-33555531D02*
X5750015Y-33546008D01*
X5750015Y-33546008D02*
X5769062Y-33536484D01*
X5959539Y-33536484D02*
X5978586Y-33536484D01*
X5978586Y-33536484D02*
X5997634Y-33546008D01*
X5997634Y-33546008D02*
X6007158Y-33555531D01*
X6007158Y-33555531D02*
X6016682Y-33574579D01*
X6016682Y-33574579D02*
X6026205Y-33612674D01*
X6026205Y-33612674D02*
X6026205Y-33660293D01*
X6026205Y-33660293D02*
X6016682Y-33698389D01*
X6016682Y-33698389D02*
X6007158Y-33717436D01*
X6007158Y-33717436D02*
X5997634Y-33726960D01*
X5997634Y-33726960D02*
X5978586Y-33736484D01*
X5978586Y-33736484D02*
X5959539Y-33736484D01*
X5959539Y-33736484D02*
X5940491Y-33726960D01*
X5940491Y-33726960D02*
X5930967Y-33717436D01*
X5930967Y-33717436D02*
X5921443Y-33698389D01*
X5921443Y-33698389D02*
X5911920Y-33660293D01*
X5911920Y-33660293D02*
X5911920Y-33612674D01*
X5911920Y-33612674D02*
X5921443Y-33574579D01*
X5921443Y-33574579D02*
X5930967Y-33555531D01*
X5930967Y-33555531D02*
X5940491Y-33546008D01*
X5940491Y-33546008D02*
X5959539Y-33536484D01*
X6111920Y-33736484D02*
X6111920Y-33603150D01*
X6111920Y-33622198D02*
X6121443Y-33612674D01*
X6121443Y-33612674D02*
X6140491Y-33603150D01*
X6140491Y-33603150D02*
X6169063Y-33603150D01*
X6169063Y-33603150D02*
X6188110Y-33612674D01*
X6188110Y-33612674D02*
X6197634Y-33631722D01*
X6197634Y-33631722D02*
X6197634Y-33736484D01*
X6197634Y-33631722D02*
X6207158Y-33612674D01*
X6207158Y-33612674D02*
X6226205Y-33603150D01*
X6226205Y-33603150D02*
X6254777Y-33603150D01*
X6254777Y-33603150D02*
X6273824Y-33612674D01*
X6273824Y-33612674D02*
X6283348Y-33631722D01*
X6283348Y-33631722D02*
X6283348Y-33736484D01*
X6378586Y-33736484D02*
X6378586Y-33603150D01*
X6378586Y-33622198D02*
X6388110Y-33612674D01*
X6388110Y-33612674D02*
X6407158Y-33603150D01*
X6407158Y-33603150D02*
X6435729Y-33603150D01*
X6435729Y-33603150D02*
X6454777Y-33612674D01*
X6454777Y-33612674D02*
X6464301Y-33631722D01*
X6464301Y-33631722D02*
X6464301Y-33736484D01*
X6464301Y-33631722D02*
X6473824Y-33612674D01*
X6473824Y-33612674D02*
X6492872Y-33603150D01*
X6492872Y-33603150D02*
X6521443Y-33603150D01*
X6521443Y-33603150D02*
X6540491Y-33612674D01*
X6540491Y-33612674D02*
X6550015Y-33631722D01*
X6550015Y-33631722D02*
X6550015Y-33736484D01*
X6940491Y-33526960D02*
X6769063Y-33784103D01*
X7197634Y-33536484D02*
X7216682Y-33536484D01*
X7216682Y-33536484D02*
X7235729Y-33546008D01*
X7235729Y-33546008D02*
X7245253Y-33555531D01*
X7245253Y-33555531D02*
X7254777Y-33574579D01*
X7254777Y-33574579D02*
X7264301Y-33612674D01*
X7264301Y-33612674D02*
X7264301Y-33660293D01*
X7264301Y-33660293D02*
X7254777Y-33698389D01*
X7254777Y-33698389D02*
X7245253Y-33717436D01*
X7245253Y-33717436D02*
X7235729Y-33726960D01*
X7235729Y-33726960D02*
X7216682Y-33736484D01*
X7216682Y-33736484D02*
X7197634Y-33736484D01*
X7197634Y-33736484D02*
X7178586Y-33726960D01*
X7178586Y-33726960D02*
X7169063Y-33717436D01*
X7169063Y-33717436D02*
X7159539Y-33698389D01*
X7159539Y-33698389D02*
X7150015Y-33660293D01*
X7150015Y-33660293D02*
X7150015Y-33612674D01*
X7150015Y-33612674D02*
X7159539Y-33574579D01*
X7159539Y-33574579D02*
X7169063Y-33555531D01*
X7169063Y-33555531D02*
X7178586Y-33546008D01*
X7178586Y-33546008D02*
X7197634Y-33536484D01*
X7350015Y-33717436D02*
X7359539Y-33726960D01*
X7359539Y-33726960D02*
X7350015Y-33736484D01*
X7350015Y-33736484D02*
X7340491Y-33726960D01*
X7340491Y-33726960D02*
X7350015Y-33717436D01*
X7350015Y-33717436D02*
X7350015Y-33736484D01*
X7483348Y-33536484D02*
X7502396Y-33536484D01*
X7502396Y-33536484D02*
X7521444Y-33546008D01*
X7521444Y-33546008D02*
X7530967Y-33555531D01*
X7530967Y-33555531D02*
X7540491Y-33574579D01*
X7540491Y-33574579D02*
X7550015Y-33612674D01*
X7550015Y-33612674D02*
X7550015Y-33660293D01*
X7550015Y-33660293D02*
X7540491Y-33698389D01*
X7540491Y-33698389D02*
X7530967Y-33717436D01*
X7530967Y-33717436D02*
X7521444Y-33726960D01*
X7521444Y-33726960D02*
X7502396Y-33736484D01*
X7502396Y-33736484D02*
X7483348Y-33736484D01*
X7483348Y-33736484D02*
X7464301Y-33726960D01*
X7464301Y-33726960D02*
X7454777Y-33717436D01*
X7454777Y-33717436D02*
X7445253Y-33698389D01*
X7445253Y-33698389D02*
X7435729Y-33660293D01*
X7435729Y-33660293D02*
X7435729Y-33612674D01*
X7435729Y-33612674D02*
X7445253Y-33574579D01*
X7445253Y-33574579D02*
X7454777Y-33555531D01*
X7454777Y-33555531D02*
X7464301Y-33546008D01*
X7464301Y-33546008D02*
X7483348Y-33536484D01*
X7740491Y-33736484D02*
X7626206Y-33736484D01*
X7683348Y-33736484D02*
X7683348Y-33536484D01*
X7683348Y-33536484D02*
X7664301Y-33565055D01*
X7664301Y-33565055D02*
X7645253Y-33584103D01*
X7645253Y-33584103D02*
X7626206Y-33593627D01*
X7921444Y-33536484D02*
X7826206Y-33536484D01*
X7826206Y-33536484D02*
X7816682Y-33631722D01*
X7816682Y-33631722D02*
X7826206Y-33622198D01*
X7826206Y-33622198D02*
X7845253Y-33612674D01*
X7845253Y-33612674D02*
X7892872Y-33612674D01*
X7892872Y-33612674D02*
X7911920Y-33622198D01*
X7911920Y-33622198D02*
X7921444Y-33631722D01*
X7921444Y-33631722D02*
X7930967Y-33650770D01*
X7930967Y-33650770D02*
X7930967Y-33698389D01*
X7930967Y-33698389D02*
X7921444Y-33717436D01*
X7921444Y-33717436D02*
X7911920Y-33726960D01*
X7911920Y-33726960D02*
X7892872Y-33736484D01*
X7892872Y-33736484D02*
X7845253Y-33736484D01*
X7845253Y-33736484D02*
X7826206Y-33726960D01*
X7826206Y-33726960D02*
X7816682Y-33717436D01*
X7997634Y-33536484D02*
X8130967Y-33536484D01*
X8130967Y-33536484D02*
X8045253Y-33736484D01*
X8197634Y-33536484D02*
X8197634Y-33574579D01*
X8273825Y-33536484D02*
X8273825Y-33574579D01*
X8569063Y-33812674D02*
X8559539Y-33803150D01*
X8559539Y-33803150D02*
X8540491Y-33774579D01*
X8540491Y-33774579D02*
X8530968Y-33755531D01*
X8530968Y-33755531D02*
X8521444Y-33726960D01*
X8521444Y-33726960D02*
X8511920Y-33679341D01*
X8511920Y-33679341D02*
X8511920Y-33641246D01*
X8511920Y-33641246D02*
X8521444Y-33593627D01*
X8521444Y-33593627D02*
X8530968Y-33565055D01*
X8530968Y-33565055D02*
X8540491Y-33546008D01*
X8540491Y-33546008D02*
X8559539Y-33517436D01*
X8559539Y-33517436D02*
X8569063Y-33507912D01*
X8750015Y-33736484D02*
X8635730Y-33736484D01*
X8692872Y-33736484D02*
X8692872Y-33536484D01*
X8692872Y-33536484D02*
X8673825Y-33565055D01*
X8673825Y-33565055D02*
X8654777Y-33584103D01*
X8654777Y-33584103D02*
X8635730Y-33593627D01*
X8930968Y-33536484D02*
X8835730Y-33536484D01*
X8835730Y-33536484D02*
X8826206Y-33631722D01*
X8826206Y-33631722D02*
X8835730Y-33622198D01*
X8835730Y-33622198D02*
X8854777Y-33612674D01*
X8854777Y-33612674D02*
X8902396Y-33612674D01*
X8902396Y-33612674D02*
X8921444Y-33622198D01*
X8921444Y-33622198D02*
X8930968Y-33631722D01*
X8930968Y-33631722D02*
X8940491Y-33650770D01*
X8940491Y-33650770D02*
X8940491Y-33698389D01*
X8940491Y-33698389D02*
X8930968Y-33717436D01*
X8930968Y-33717436D02*
X8921444Y-33726960D01*
X8921444Y-33726960D02*
X8902396Y-33736484D01*
X8902396Y-33736484D02*
X8854777Y-33736484D01*
X8854777Y-33736484D02*
X8835730Y-33726960D01*
X8835730Y-33726960D02*
X8826206Y-33717436D01*
X9007158Y-33536484D02*
X9140491Y-33536484D01*
X9140491Y-33536484D02*
X9054777Y-33736484D01*
X9369063Y-33736484D02*
X9369063Y-33536484D01*
X9454777Y-33736484D02*
X9454777Y-33631722D01*
X9454777Y-33631722D02*
X9445253Y-33612674D01*
X9445253Y-33612674D02*
X9426206Y-33603150D01*
X9426206Y-33603150D02*
X9397634Y-33603150D01*
X9397634Y-33603150D02*
X9378587Y-33612674D01*
X9378587Y-33612674D02*
X9369063Y-33622198D01*
X9578587Y-33736484D02*
X9559539Y-33726960D01*
X9559539Y-33726960D02*
X9550015Y-33717436D01*
X9550015Y-33717436D02*
X9540492Y-33698389D01*
X9540492Y-33698389D02*
X9540492Y-33641246D01*
X9540492Y-33641246D02*
X9550015Y-33622198D01*
X9550015Y-33622198D02*
X9559539Y-33612674D01*
X9559539Y-33612674D02*
X9578587Y-33603150D01*
X9578587Y-33603150D02*
X9607158Y-33603150D01*
X9607158Y-33603150D02*
X9626206Y-33612674D01*
X9626206Y-33612674D02*
X9635730Y-33622198D01*
X9635730Y-33622198D02*
X9645253Y-33641246D01*
X9645253Y-33641246D02*
X9645253Y-33698389D01*
X9645253Y-33698389D02*
X9635730Y-33717436D01*
X9635730Y-33717436D02*
X9626206Y-33726960D01*
X9626206Y-33726960D02*
X9607158Y-33736484D01*
X9607158Y-33736484D02*
X9578587Y-33736484D01*
X9759539Y-33736484D02*
X9740492Y-33726960D01*
X9740492Y-33726960D02*
X9730968Y-33707912D01*
X9730968Y-33707912D02*
X9730968Y-33536484D01*
X9911920Y-33726960D02*
X9892873Y-33736484D01*
X9892873Y-33736484D02*
X9854777Y-33736484D01*
X9854777Y-33736484D02*
X9835730Y-33726960D01*
X9835730Y-33726960D02*
X9826206Y-33707912D01*
X9826206Y-33707912D02*
X9826206Y-33631722D01*
X9826206Y-33631722D02*
X9835730Y-33612674D01*
X9835730Y-33612674D02*
X9854777Y-33603150D01*
X9854777Y-33603150D02*
X9892873Y-33603150D01*
X9892873Y-33603150D02*
X9911920Y-33612674D01*
X9911920Y-33612674D02*
X9921444Y-33631722D01*
X9921444Y-33631722D02*
X9921444Y-33650770D01*
X9921444Y-33650770D02*
X9826206Y-33669817D01*
X9997634Y-33726960D02*
X10016682Y-33736484D01*
X10016682Y-33736484D02*
X10054777Y-33736484D01*
X10054777Y-33736484D02*
X10073825Y-33726960D01*
X10073825Y-33726960D02*
X10083349Y-33707912D01*
X10083349Y-33707912D02*
X10083349Y-33698389D01*
X10083349Y-33698389D02*
X10073825Y-33679341D01*
X10073825Y-33679341D02*
X10054777Y-33669817D01*
X10054777Y-33669817D02*
X10026206Y-33669817D01*
X10026206Y-33669817D02*
X10007158Y-33660293D01*
X10007158Y-33660293D02*
X9997634Y-33641246D01*
X9997634Y-33641246D02*
X9997634Y-33631722D01*
X9997634Y-33631722D02*
X10007158Y-33612674D01*
X10007158Y-33612674D02*
X10026206Y-33603150D01*
X10026206Y-33603150D02*
X10054777Y-33603150D01*
X10054777Y-33603150D02*
X10073825Y-33612674D01*
X10150015Y-33812674D02*
X10159539Y-33803150D01*
X10159539Y-33803150D02*
X10178587Y-33774579D01*
X10178587Y-33774579D02*
X10188111Y-33755531D01*
X10188111Y-33755531D02*
X10197634Y-33726960D01*
X10197634Y-33726960D02*
X10207158Y-33679341D01*
X10207158Y-33679341D02*
X10207158Y-33641246D01*
X10207158Y-33641246D02*
X10197634Y-33593627D01*
X10197634Y-33593627D02*
X10188111Y-33565055D01*
X10188111Y-33565055D02*
X10178587Y-33546008D01*
X10178587Y-33546008D02*
X10159539Y-33517436D01*
X10159539Y-33517436D02*
X10150015Y-33507912D01*
D13*
X4994000Y-33909000D02*
G75*
G02*
X4884000Y-33909000I-55000J0D01*
G01*
X4884000Y-33909000D02*
G75*
G02*
X4994000Y-33909000I55000J0D01*
G01*
D12*
X5359539Y-34000484D02*
X5245253Y-34000484D01*
X5302396Y-34000484D02*
X5302396Y-33800484D01*
X5302396Y-33800484D02*
X5283348Y-33829055D01*
X5283348Y-33829055D02*
X5264301Y-33848103D01*
X5264301Y-33848103D02*
X5245253Y-33857627D01*
X5445253Y-33981436D02*
X5454777Y-33990960D01*
X5454777Y-33990960D02*
X5445253Y-34000484D01*
X5445253Y-34000484D02*
X5435729Y-33990960D01*
X5435729Y-33990960D02*
X5445253Y-33981436D01*
X5445253Y-33981436D02*
X5445253Y-34000484D01*
X5645253Y-34000484D02*
X5530967Y-34000484D01*
X5588110Y-34000484D02*
X5588110Y-33800484D01*
X5588110Y-33800484D02*
X5569063Y-33829055D01*
X5569063Y-33829055D02*
X5550015Y-33848103D01*
X5550015Y-33848103D02*
X5530967Y-33857627D01*
X5769062Y-33800484D02*
X5788110Y-33800484D01*
X5788110Y-33800484D02*
X5807158Y-33810008D01*
X5807158Y-33810008D02*
X5816682Y-33819531D01*
X5816682Y-33819531D02*
X5826205Y-33838579D01*
X5826205Y-33838579D02*
X5835729Y-33876674D01*
X5835729Y-33876674D02*
X5835729Y-33924293D01*
X5835729Y-33924293D02*
X5826205Y-33962389D01*
X5826205Y-33962389D02*
X5816682Y-33981436D01*
X5816682Y-33981436D02*
X5807158Y-33990960D01*
X5807158Y-33990960D02*
X5788110Y-34000484D01*
X5788110Y-34000484D02*
X5769062Y-34000484D01*
X5769062Y-34000484D02*
X5750015Y-33990960D01*
X5750015Y-33990960D02*
X5740491Y-33981436D01*
X5740491Y-33981436D02*
X5730967Y-33962389D01*
X5730967Y-33962389D02*
X5721443Y-33924293D01*
X5721443Y-33924293D02*
X5721443Y-33876674D01*
X5721443Y-33876674D02*
X5730967Y-33838579D01*
X5730967Y-33838579D02*
X5740491Y-33819531D01*
X5740491Y-33819531D02*
X5750015Y-33810008D01*
X5750015Y-33810008D02*
X5769062Y-33800484D01*
X5959539Y-33800484D02*
X5978586Y-33800484D01*
X5978586Y-33800484D02*
X5997634Y-33810008D01*
X5997634Y-33810008D02*
X6007158Y-33819531D01*
X6007158Y-33819531D02*
X6016682Y-33838579D01*
X6016682Y-33838579D02*
X6026205Y-33876674D01*
X6026205Y-33876674D02*
X6026205Y-33924293D01*
X6026205Y-33924293D02*
X6016682Y-33962389D01*
X6016682Y-33962389D02*
X6007158Y-33981436D01*
X6007158Y-33981436D02*
X5997634Y-33990960D01*
X5997634Y-33990960D02*
X5978586Y-34000484D01*
X5978586Y-34000484D02*
X5959539Y-34000484D01*
X5959539Y-34000484D02*
X5940491Y-33990960D01*
X5940491Y-33990960D02*
X5930967Y-33981436D01*
X5930967Y-33981436D02*
X5921443Y-33962389D01*
X5921443Y-33962389D02*
X5911920Y-33924293D01*
X5911920Y-33924293D02*
X5911920Y-33876674D01*
X5911920Y-33876674D02*
X5921443Y-33838579D01*
X5921443Y-33838579D02*
X5930967Y-33819531D01*
X5930967Y-33819531D02*
X5940491Y-33810008D01*
X5940491Y-33810008D02*
X5959539Y-33800484D01*
X6111920Y-34000484D02*
X6111920Y-33867150D01*
X6111920Y-33886198D02*
X6121443Y-33876674D01*
X6121443Y-33876674D02*
X6140491Y-33867150D01*
X6140491Y-33867150D02*
X6169063Y-33867150D01*
X6169063Y-33867150D02*
X6188110Y-33876674D01*
X6188110Y-33876674D02*
X6197634Y-33895722D01*
X6197634Y-33895722D02*
X6197634Y-34000484D01*
X6197634Y-33895722D02*
X6207158Y-33876674D01*
X6207158Y-33876674D02*
X6226205Y-33867150D01*
X6226205Y-33867150D02*
X6254777Y-33867150D01*
X6254777Y-33867150D02*
X6273824Y-33876674D01*
X6273824Y-33876674D02*
X6283348Y-33895722D01*
X6283348Y-33895722D02*
X6283348Y-34000484D01*
X6378586Y-34000484D02*
X6378586Y-33867150D01*
X6378586Y-33886198D02*
X6388110Y-33876674D01*
X6388110Y-33876674D02*
X6407158Y-33867150D01*
X6407158Y-33867150D02*
X6435729Y-33867150D01*
X6435729Y-33867150D02*
X6454777Y-33876674D01*
X6454777Y-33876674D02*
X6464301Y-33895722D01*
X6464301Y-33895722D02*
X6464301Y-34000484D01*
X6464301Y-33895722D02*
X6473824Y-33876674D01*
X6473824Y-33876674D02*
X6492872Y-33867150D01*
X6492872Y-33867150D02*
X6521443Y-33867150D01*
X6521443Y-33867150D02*
X6540491Y-33876674D01*
X6540491Y-33876674D02*
X6550015Y-33895722D01*
X6550015Y-33895722D02*
X6550015Y-34000484D01*
X6940491Y-33790960D02*
X6769063Y-34048103D01*
X7197634Y-33800484D02*
X7216682Y-33800484D01*
X7216682Y-33800484D02*
X7235729Y-33810008D01*
X7235729Y-33810008D02*
X7245253Y-33819531D01*
X7245253Y-33819531D02*
X7254777Y-33838579D01*
X7254777Y-33838579D02*
X7264301Y-33876674D01*
X7264301Y-33876674D02*
X7264301Y-33924293D01*
X7264301Y-33924293D02*
X7254777Y-33962389D01*
X7254777Y-33962389D02*
X7245253Y-33981436D01*
X7245253Y-33981436D02*
X7235729Y-33990960D01*
X7235729Y-33990960D02*
X7216682Y-34000484D01*
X7216682Y-34000484D02*
X7197634Y-34000484D01*
X7197634Y-34000484D02*
X7178586Y-33990960D01*
X7178586Y-33990960D02*
X7169063Y-33981436D01*
X7169063Y-33981436D02*
X7159539Y-33962389D01*
X7159539Y-33962389D02*
X7150015Y-33924293D01*
X7150015Y-33924293D02*
X7150015Y-33876674D01*
X7150015Y-33876674D02*
X7159539Y-33838579D01*
X7159539Y-33838579D02*
X7169063Y-33819531D01*
X7169063Y-33819531D02*
X7178586Y-33810008D01*
X7178586Y-33810008D02*
X7197634Y-33800484D01*
X7350015Y-33981436D02*
X7359539Y-33990960D01*
X7359539Y-33990960D02*
X7350015Y-34000484D01*
X7350015Y-34000484D02*
X7340491Y-33990960D01*
X7340491Y-33990960D02*
X7350015Y-33981436D01*
X7350015Y-33981436D02*
X7350015Y-34000484D01*
X7483348Y-33800484D02*
X7502396Y-33800484D01*
X7502396Y-33800484D02*
X7521444Y-33810008D01*
X7521444Y-33810008D02*
X7530967Y-33819531D01*
X7530967Y-33819531D02*
X7540491Y-33838579D01*
X7540491Y-33838579D02*
X7550015Y-33876674D01*
X7550015Y-33876674D02*
X7550015Y-33924293D01*
X7550015Y-33924293D02*
X7540491Y-33962389D01*
X7540491Y-33962389D02*
X7530967Y-33981436D01*
X7530967Y-33981436D02*
X7521444Y-33990960D01*
X7521444Y-33990960D02*
X7502396Y-34000484D01*
X7502396Y-34000484D02*
X7483348Y-34000484D01*
X7483348Y-34000484D02*
X7464301Y-33990960D01*
X7464301Y-33990960D02*
X7454777Y-33981436D01*
X7454777Y-33981436D02*
X7445253Y-33962389D01*
X7445253Y-33962389D02*
X7435729Y-33924293D01*
X7435729Y-33924293D02*
X7435729Y-33876674D01*
X7435729Y-33876674D02*
X7445253Y-33838579D01*
X7445253Y-33838579D02*
X7454777Y-33819531D01*
X7454777Y-33819531D02*
X7464301Y-33810008D01*
X7464301Y-33810008D02*
X7483348Y-33800484D01*
X7721444Y-33867150D02*
X7721444Y-34000484D01*
X7673825Y-33790960D02*
X7626206Y-33933817D01*
X7626206Y-33933817D02*
X7750015Y-33933817D01*
X7807158Y-33800484D02*
X7930967Y-33800484D01*
X7930967Y-33800484D02*
X7864301Y-33876674D01*
X7864301Y-33876674D02*
X7892872Y-33876674D01*
X7892872Y-33876674D02*
X7911920Y-33886198D01*
X7911920Y-33886198D02*
X7921444Y-33895722D01*
X7921444Y-33895722D02*
X7930967Y-33914770D01*
X7930967Y-33914770D02*
X7930967Y-33962389D01*
X7930967Y-33962389D02*
X7921444Y-33981436D01*
X7921444Y-33981436D02*
X7911920Y-33990960D01*
X7911920Y-33990960D02*
X7892872Y-34000484D01*
X7892872Y-34000484D02*
X7835729Y-34000484D01*
X7835729Y-34000484D02*
X7816682Y-33990960D01*
X7816682Y-33990960D02*
X7807158Y-33981436D01*
X7997634Y-33800484D02*
X8121444Y-33800484D01*
X8121444Y-33800484D02*
X8054777Y-33876674D01*
X8054777Y-33876674D02*
X8083348Y-33876674D01*
X8083348Y-33876674D02*
X8102396Y-33886198D01*
X8102396Y-33886198D02*
X8111920Y-33895722D01*
X8111920Y-33895722D02*
X8121444Y-33914770D01*
X8121444Y-33914770D02*
X8121444Y-33962389D01*
X8121444Y-33962389D02*
X8111920Y-33981436D01*
X8111920Y-33981436D02*
X8102396Y-33990960D01*
X8102396Y-33990960D02*
X8083348Y-34000484D01*
X8083348Y-34000484D02*
X8026206Y-34000484D01*
X8026206Y-34000484D02*
X8007158Y-33990960D01*
X8007158Y-33990960D02*
X7997634Y-33981436D01*
X8197634Y-33800484D02*
X8197634Y-33838579D01*
X8273825Y-33800484D02*
X8273825Y-33838579D01*
X8569063Y-34076674D02*
X8559539Y-34067150D01*
X8559539Y-34067150D02*
X8540491Y-34038579D01*
X8540491Y-34038579D02*
X8530968Y-34019531D01*
X8530968Y-34019531D02*
X8521444Y-33990960D01*
X8521444Y-33990960D02*
X8511920Y-33943341D01*
X8511920Y-33943341D02*
X8511920Y-33905246D01*
X8511920Y-33905246D02*
X8521444Y-33857627D01*
X8521444Y-33857627D02*
X8530968Y-33829055D01*
X8530968Y-33829055D02*
X8540491Y-33810008D01*
X8540491Y-33810008D02*
X8559539Y-33781436D01*
X8559539Y-33781436D02*
X8569063Y-33771912D01*
X8750015Y-34000484D02*
X8635730Y-34000484D01*
X8692872Y-34000484D02*
X8692872Y-33800484D01*
X8692872Y-33800484D02*
X8673825Y-33829055D01*
X8673825Y-33829055D02*
X8654777Y-33848103D01*
X8654777Y-33848103D02*
X8635730Y-33857627D01*
X8988111Y-34000484D02*
X8988111Y-33800484D01*
X9073825Y-34000484D02*
X9073825Y-33895722D01*
X9073825Y-33895722D02*
X9064301Y-33876674D01*
X9064301Y-33876674D02*
X9045253Y-33867150D01*
X9045253Y-33867150D02*
X9016682Y-33867150D01*
X9016682Y-33867150D02*
X8997634Y-33876674D01*
X8997634Y-33876674D02*
X8988111Y-33886198D01*
X9197634Y-34000484D02*
X9178587Y-33990960D01*
X9178587Y-33990960D02*
X9169063Y-33981436D01*
X9169063Y-33981436D02*
X9159539Y-33962389D01*
X9159539Y-33962389D02*
X9159539Y-33905246D01*
X9159539Y-33905246D02*
X9169063Y-33886198D01*
X9169063Y-33886198D02*
X9178587Y-33876674D01*
X9178587Y-33876674D02*
X9197634Y-33867150D01*
X9197634Y-33867150D02*
X9226206Y-33867150D01*
X9226206Y-33867150D02*
X9245253Y-33876674D01*
X9245253Y-33876674D02*
X9254777Y-33886198D01*
X9254777Y-33886198D02*
X9264301Y-33905246D01*
X9264301Y-33905246D02*
X9264301Y-33962389D01*
X9264301Y-33962389D02*
X9254777Y-33981436D01*
X9254777Y-33981436D02*
X9245253Y-33990960D01*
X9245253Y-33990960D02*
X9226206Y-34000484D01*
X9226206Y-34000484D02*
X9197634Y-34000484D01*
X9378587Y-34000484D02*
X9359539Y-33990960D01*
X9359539Y-33990960D02*
X9350015Y-33971912D01*
X9350015Y-33971912D02*
X9350015Y-33800484D01*
X9530968Y-33990960D02*
X9511920Y-34000484D01*
X9511920Y-34000484D02*
X9473825Y-34000484D01*
X9473825Y-34000484D02*
X9454777Y-33990960D01*
X9454777Y-33990960D02*
X9445253Y-33971912D01*
X9445253Y-33971912D02*
X9445253Y-33895722D01*
X9445253Y-33895722D02*
X9454777Y-33876674D01*
X9454777Y-33876674D02*
X9473825Y-33867150D01*
X9473825Y-33867150D02*
X9511920Y-33867150D01*
X9511920Y-33867150D02*
X9530968Y-33876674D01*
X9530968Y-33876674D02*
X9540492Y-33895722D01*
X9540492Y-33895722D02*
X9540492Y-33914770D01*
X9540492Y-33914770D02*
X9445253Y-33933817D01*
X9607158Y-34076674D02*
X9616682Y-34067150D01*
X9616682Y-34067150D02*
X9635730Y-34038579D01*
X9635730Y-34038579D02*
X9645253Y-34019531D01*
X9645253Y-34019531D02*
X9654777Y-33990960D01*
X9654777Y-33990960D02*
X9664301Y-33943341D01*
X9664301Y-33943341D02*
X9664301Y-33905246D01*
X9664301Y-33905246D02*
X9654777Y-33857627D01*
X9654777Y-33857627D02*
X9645253Y-33829055D01*
X9645253Y-33829055D02*
X9635730Y-33810008D01*
X9635730Y-33810008D02*
X9616682Y-33781436D01*
X9616682Y-33781436D02*
X9607158Y-33771912D01*
D14*
X4919000Y-34098000D02*
X4919000Y-34248000D01*
X4844000Y-34173000D02*
X4994000Y-34173000D01*
D12*
X5359539Y-34264484D02*
X5245253Y-34264484D01*
X5302396Y-34264484D02*
X5302396Y-34064484D01*
X5302396Y-34064484D02*
X5283348Y-34093055D01*
X5283348Y-34093055D02*
X5264301Y-34112103D01*
X5264301Y-34112103D02*
X5245253Y-34121627D01*
X5445253Y-34245436D02*
X5454777Y-34254960D01*
X5454777Y-34254960D02*
X5445253Y-34264484D01*
X5445253Y-34264484D02*
X5435729Y-34254960D01*
X5435729Y-34254960D02*
X5445253Y-34245436D01*
X5445253Y-34245436D02*
X5445253Y-34264484D01*
X5635729Y-34064484D02*
X5540491Y-34064484D01*
X5540491Y-34064484D02*
X5530967Y-34159722D01*
X5530967Y-34159722D02*
X5540491Y-34150198D01*
X5540491Y-34150198D02*
X5559539Y-34140674D01*
X5559539Y-34140674D02*
X5607158Y-34140674D01*
X5607158Y-34140674D02*
X5626205Y-34150198D01*
X5626205Y-34150198D02*
X5635729Y-34159722D01*
X5635729Y-34159722D02*
X5645253Y-34178770D01*
X5645253Y-34178770D02*
X5645253Y-34226389D01*
X5645253Y-34226389D02*
X5635729Y-34245436D01*
X5635729Y-34245436D02*
X5626205Y-34254960D01*
X5626205Y-34254960D02*
X5607158Y-34264484D01*
X5607158Y-34264484D02*
X5559539Y-34264484D01*
X5559539Y-34264484D02*
X5540491Y-34254960D01*
X5540491Y-34254960D02*
X5530967Y-34245436D01*
X5769062Y-34064484D02*
X5788110Y-34064484D01*
X5788110Y-34064484D02*
X5807158Y-34074008D01*
X5807158Y-34074008D02*
X5816682Y-34083531D01*
X5816682Y-34083531D02*
X5826205Y-34102579D01*
X5826205Y-34102579D02*
X5835729Y-34140674D01*
X5835729Y-34140674D02*
X5835729Y-34188293D01*
X5835729Y-34188293D02*
X5826205Y-34226389D01*
X5826205Y-34226389D02*
X5816682Y-34245436D01*
X5816682Y-34245436D02*
X5807158Y-34254960D01*
X5807158Y-34254960D02*
X5788110Y-34264484D01*
X5788110Y-34264484D02*
X5769062Y-34264484D01*
X5769062Y-34264484D02*
X5750015Y-34254960D01*
X5750015Y-34254960D02*
X5740491Y-34245436D01*
X5740491Y-34245436D02*
X5730967Y-34226389D01*
X5730967Y-34226389D02*
X5721443Y-34188293D01*
X5721443Y-34188293D02*
X5721443Y-34140674D01*
X5721443Y-34140674D02*
X5730967Y-34102579D01*
X5730967Y-34102579D02*
X5740491Y-34083531D01*
X5740491Y-34083531D02*
X5750015Y-34074008D01*
X5750015Y-34074008D02*
X5769062Y-34064484D01*
X5959539Y-34064484D02*
X5978586Y-34064484D01*
X5978586Y-34064484D02*
X5997634Y-34074008D01*
X5997634Y-34074008D02*
X6007158Y-34083531D01*
X6007158Y-34083531D02*
X6016682Y-34102579D01*
X6016682Y-34102579D02*
X6026205Y-34140674D01*
X6026205Y-34140674D02*
X6026205Y-34188293D01*
X6026205Y-34188293D02*
X6016682Y-34226389D01*
X6016682Y-34226389D02*
X6007158Y-34245436D01*
X6007158Y-34245436D02*
X5997634Y-34254960D01*
X5997634Y-34254960D02*
X5978586Y-34264484D01*
X5978586Y-34264484D02*
X5959539Y-34264484D01*
X5959539Y-34264484D02*
X5940491Y-34254960D01*
X5940491Y-34254960D02*
X5930967Y-34245436D01*
X5930967Y-34245436D02*
X5921443Y-34226389D01*
X5921443Y-34226389D02*
X5911920Y-34188293D01*
X5911920Y-34188293D02*
X5911920Y-34140674D01*
X5911920Y-34140674D02*
X5921443Y-34102579D01*
X5921443Y-34102579D02*
X5930967Y-34083531D01*
X5930967Y-34083531D02*
X5940491Y-34074008D01*
X5940491Y-34074008D02*
X5959539Y-34064484D01*
X6111920Y-34264484D02*
X6111920Y-34131150D01*
X6111920Y-34150198D02*
X6121443Y-34140674D01*
X6121443Y-34140674D02*
X6140491Y-34131150D01*
X6140491Y-34131150D02*
X6169063Y-34131150D01*
X6169063Y-34131150D02*
X6188110Y-34140674D01*
X6188110Y-34140674D02*
X6197634Y-34159722D01*
X6197634Y-34159722D02*
X6197634Y-34264484D01*
X6197634Y-34159722D02*
X6207158Y-34140674D01*
X6207158Y-34140674D02*
X6226205Y-34131150D01*
X6226205Y-34131150D02*
X6254777Y-34131150D01*
X6254777Y-34131150D02*
X6273824Y-34140674D01*
X6273824Y-34140674D02*
X6283348Y-34159722D01*
X6283348Y-34159722D02*
X6283348Y-34264484D01*
X6378586Y-34264484D02*
X6378586Y-34131150D01*
X6378586Y-34150198D02*
X6388110Y-34140674D01*
X6388110Y-34140674D02*
X6407158Y-34131150D01*
X6407158Y-34131150D02*
X6435729Y-34131150D01*
X6435729Y-34131150D02*
X6454777Y-34140674D01*
X6454777Y-34140674D02*
X6464301Y-34159722D01*
X6464301Y-34159722D02*
X6464301Y-34264484D01*
X6464301Y-34159722D02*
X6473824Y-34140674D01*
X6473824Y-34140674D02*
X6492872Y-34131150D01*
X6492872Y-34131150D02*
X6521443Y-34131150D01*
X6521443Y-34131150D02*
X6540491Y-34140674D01*
X6540491Y-34140674D02*
X6550015Y-34159722D01*
X6550015Y-34159722D02*
X6550015Y-34264484D01*
X6940491Y-34054960D02*
X6769063Y-34312103D01*
X7197634Y-34064484D02*
X7216682Y-34064484D01*
X7216682Y-34064484D02*
X7235729Y-34074008D01*
X7235729Y-34074008D02*
X7245253Y-34083531D01*
X7245253Y-34083531D02*
X7254777Y-34102579D01*
X7254777Y-34102579D02*
X7264301Y-34140674D01*
X7264301Y-34140674D02*
X7264301Y-34188293D01*
X7264301Y-34188293D02*
X7254777Y-34226389D01*
X7254777Y-34226389D02*
X7245253Y-34245436D01*
X7245253Y-34245436D02*
X7235729Y-34254960D01*
X7235729Y-34254960D02*
X7216682Y-34264484D01*
X7216682Y-34264484D02*
X7197634Y-34264484D01*
X7197634Y-34264484D02*
X7178586Y-34254960D01*
X7178586Y-34254960D02*
X7169063Y-34245436D01*
X7169063Y-34245436D02*
X7159539Y-34226389D01*
X7159539Y-34226389D02*
X7150015Y-34188293D01*
X7150015Y-34188293D02*
X7150015Y-34140674D01*
X7150015Y-34140674D02*
X7159539Y-34102579D01*
X7159539Y-34102579D02*
X7169063Y-34083531D01*
X7169063Y-34083531D02*
X7178586Y-34074008D01*
X7178586Y-34074008D02*
X7197634Y-34064484D01*
X7350015Y-34245436D02*
X7359539Y-34254960D01*
X7359539Y-34254960D02*
X7350015Y-34264484D01*
X7350015Y-34264484D02*
X7340491Y-34254960D01*
X7340491Y-34254960D02*
X7350015Y-34245436D01*
X7350015Y-34245436D02*
X7350015Y-34264484D01*
X7483348Y-34064484D02*
X7502396Y-34064484D01*
X7502396Y-34064484D02*
X7521444Y-34074008D01*
X7521444Y-34074008D02*
X7530967Y-34083531D01*
X7530967Y-34083531D02*
X7540491Y-34102579D01*
X7540491Y-34102579D02*
X7550015Y-34140674D01*
X7550015Y-34140674D02*
X7550015Y-34188293D01*
X7550015Y-34188293D02*
X7540491Y-34226389D01*
X7540491Y-34226389D02*
X7530967Y-34245436D01*
X7530967Y-34245436D02*
X7521444Y-34254960D01*
X7521444Y-34254960D02*
X7502396Y-34264484D01*
X7502396Y-34264484D02*
X7483348Y-34264484D01*
X7483348Y-34264484D02*
X7464301Y-34254960D01*
X7464301Y-34254960D02*
X7454777Y-34245436D01*
X7454777Y-34245436D02*
X7445253Y-34226389D01*
X7445253Y-34226389D02*
X7435729Y-34188293D01*
X7435729Y-34188293D02*
X7435729Y-34140674D01*
X7435729Y-34140674D02*
X7445253Y-34102579D01*
X7445253Y-34102579D02*
X7454777Y-34083531D01*
X7454777Y-34083531D02*
X7464301Y-34074008D01*
X7464301Y-34074008D02*
X7483348Y-34064484D01*
X7730967Y-34064484D02*
X7635729Y-34064484D01*
X7635729Y-34064484D02*
X7626206Y-34159722D01*
X7626206Y-34159722D02*
X7635729Y-34150198D01*
X7635729Y-34150198D02*
X7654777Y-34140674D01*
X7654777Y-34140674D02*
X7702396Y-34140674D01*
X7702396Y-34140674D02*
X7721444Y-34150198D01*
X7721444Y-34150198D02*
X7730967Y-34159722D01*
X7730967Y-34159722D02*
X7740491Y-34178770D01*
X7740491Y-34178770D02*
X7740491Y-34226389D01*
X7740491Y-34226389D02*
X7730967Y-34245436D01*
X7730967Y-34245436D02*
X7721444Y-34254960D01*
X7721444Y-34254960D02*
X7702396Y-34264484D01*
X7702396Y-34264484D02*
X7654777Y-34264484D01*
X7654777Y-34264484D02*
X7635729Y-34254960D01*
X7635729Y-34254960D02*
X7626206Y-34245436D01*
X7835729Y-34264484D02*
X7873825Y-34264484D01*
X7873825Y-34264484D02*
X7892872Y-34254960D01*
X7892872Y-34254960D02*
X7902396Y-34245436D01*
X7902396Y-34245436D02*
X7921444Y-34216865D01*
X7921444Y-34216865D02*
X7930967Y-34178770D01*
X7930967Y-34178770D02*
X7930967Y-34102579D01*
X7930967Y-34102579D02*
X7921444Y-34083531D01*
X7921444Y-34083531D02*
X7911920Y-34074008D01*
X7911920Y-34074008D02*
X7892872Y-34064484D01*
X7892872Y-34064484D02*
X7854777Y-34064484D01*
X7854777Y-34064484D02*
X7835729Y-34074008D01*
X7835729Y-34074008D02*
X7826206Y-34083531D01*
X7826206Y-34083531D02*
X7816682Y-34102579D01*
X7816682Y-34102579D02*
X7816682Y-34150198D01*
X7816682Y-34150198D02*
X7826206Y-34169246D01*
X7826206Y-34169246D02*
X7835729Y-34178770D01*
X7835729Y-34178770D02*
X7854777Y-34188293D01*
X7854777Y-34188293D02*
X7892872Y-34188293D01*
X7892872Y-34188293D02*
X7911920Y-34178770D01*
X7911920Y-34178770D02*
X7921444Y-34169246D01*
X7921444Y-34169246D02*
X7930967Y-34150198D01*
X8121444Y-34264484D02*
X8007158Y-34264484D01*
X8064301Y-34264484D02*
X8064301Y-34064484D01*
X8064301Y-34064484D02*
X8045253Y-34093055D01*
X8045253Y-34093055D02*
X8026206Y-34112103D01*
X8026206Y-34112103D02*
X8007158Y-34121627D01*
X8197634Y-34064484D02*
X8197634Y-34102579D01*
X8273825Y-34064484D02*
X8273825Y-34102579D01*
X8569063Y-34340674D02*
X8559539Y-34331150D01*
X8559539Y-34331150D02*
X8540491Y-34302579D01*
X8540491Y-34302579D02*
X8530968Y-34283531D01*
X8530968Y-34283531D02*
X8521444Y-34254960D01*
X8521444Y-34254960D02*
X8511920Y-34207341D01*
X8511920Y-34207341D02*
X8511920Y-34169246D01*
X8511920Y-34169246D02*
X8521444Y-34121627D01*
X8521444Y-34121627D02*
X8530968Y-34093055D01*
X8530968Y-34093055D02*
X8540491Y-34074008D01*
X8540491Y-34074008D02*
X8559539Y-34045436D01*
X8559539Y-34045436D02*
X8569063Y-34035912D01*
X8730968Y-34131150D02*
X8730968Y-34264484D01*
X8683349Y-34054960D02*
X8635730Y-34197817D01*
X8635730Y-34197817D02*
X8759539Y-34197817D01*
X8988111Y-34264484D02*
X8988111Y-34064484D01*
X9073825Y-34264484D02*
X9073825Y-34159722D01*
X9073825Y-34159722D02*
X9064301Y-34140674D01*
X9064301Y-34140674D02*
X9045253Y-34131150D01*
X9045253Y-34131150D02*
X9016682Y-34131150D01*
X9016682Y-34131150D02*
X8997634Y-34140674D01*
X8997634Y-34140674D02*
X8988111Y-34150198D01*
X9197634Y-34264484D02*
X9178587Y-34254960D01*
X9178587Y-34254960D02*
X9169063Y-34245436D01*
X9169063Y-34245436D02*
X9159539Y-34226389D01*
X9159539Y-34226389D02*
X9159539Y-34169246D01*
X9159539Y-34169246D02*
X9169063Y-34150198D01*
X9169063Y-34150198D02*
X9178587Y-34140674D01*
X9178587Y-34140674D02*
X9197634Y-34131150D01*
X9197634Y-34131150D02*
X9226206Y-34131150D01*
X9226206Y-34131150D02*
X9245253Y-34140674D01*
X9245253Y-34140674D02*
X9254777Y-34150198D01*
X9254777Y-34150198D02*
X9264301Y-34169246D01*
X9264301Y-34169246D02*
X9264301Y-34226389D01*
X9264301Y-34226389D02*
X9254777Y-34245436D01*
X9254777Y-34245436D02*
X9245253Y-34254960D01*
X9245253Y-34254960D02*
X9226206Y-34264484D01*
X9226206Y-34264484D02*
X9197634Y-34264484D01*
X9378587Y-34264484D02*
X9359539Y-34254960D01*
X9359539Y-34254960D02*
X9350015Y-34235912D01*
X9350015Y-34235912D02*
X9350015Y-34064484D01*
X9530968Y-34254960D02*
X9511920Y-34264484D01*
X9511920Y-34264484D02*
X9473825Y-34264484D01*
X9473825Y-34264484D02*
X9454777Y-34254960D01*
X9454777Y-34254960D02*
X9445253Y-34235912D01*
X9445253Y-34235912D02*
X9445253Y-34159722D01*
X9445253Y-34159722D02*
X9454777Y-34140674D01*
X9454777Y-34140674D02*
X9473825Y-34131150D01*
X9473825Y-34131150D02*
X9511920Y-34131150D01*
X9511920Y-34131150D02*
X9530968Y-34140674D01*
X9530968Y-34140674D02*
X9540492Y-34159722D01*
X9540492Y-34159722D02*
X9540492Y-34178770D01*
X9540492Y-34178770D02*
X9445253Y-34197817D01*
X9616682Y-34254960D02*
X9635730Y-34264484D01*
X9635730Y-34264484D02*
X9673825Y-34264484D01*
X9673825Y-34264484D02*
X9692873Y-34254960D01*
X9692873Y-34254960D02*
X9702396Y-34235912D01*
X9702396Y-34235912D02*
X9702396Y-34226389D01*
X9702396Y-34226389D02*
X9692873Y-34207341D01*
X9692873Y-34207341D02*
X9673825Y-34197817D01*
X9673825Y-34197817D02*
X9645253Y-34197817D01*
X9645253Y-34197817D02*
X9626206Y-34188293D01*
X9626206Y-34188293D02*
X9616682Y-34169246D01*
X9616682Y-34169246D02*
X9616682Y-34159722D01*
X9616682Y-34159722D02*
X9626206Y-34140674D01*
X9626206Y-34140674D02*
X9645253Y-34131150D01*
X9645253Y-34131150D02*
X9673825Y-34131150D01*
X9673825Y-34131150D02*
X9692873Y-34140674D01*
X9769063Y-34340674D02*
X9778587Y-34331150D01*
X9778587Y-34331150D02*
X9797634Y-34302579D01*
X9797634Y-34302579D02*
X9807158Y-34283531D01*
X9807158Y-34283531D02*
X9816682Y-34254960D01*
X9816682Y-34254960D02*
X9826206Y-34207341D01*
X9826206Y-34207341D02*
X9826206Y-34169246D01*
X9826206Y-34169246D02*
X9816682Y-34121627D01*
X9816682Y-34121627D02*
X9807158Y-34093055D01*
X9807158Y-34093055D02*
X9797634Y-34074008D01*
X9797634Y-34074008D02*
X9778587Y-34045436D01*
X9778587Y-34045436D02*
X9769063Y-34035912D01*
M02*
